# Blender v2.76 (sub 0) OBJ File: 'bombletTheta.blend'
# www.blender.org
o Cylinder
v -0.000000 -1.331111 -0.270938
v -0.000000 1.668889 -0.093750
v 0.191582 -1.331111 -0.191582
v 0.066291 1.668889 -0.066291
v 0.270938 -1.331111 0.000000
v 0.093750 1.668889 0.000000
v 0.191582 -1.331111 0.191582
v 0.066291 1.668889 0.066291
v -0.000000 -1.331111 0.270938
v -0.000000 1.668889 0.093750
v -0.191582 -1.331111 0.191582
v -0.066291 1.668889 0.066291
v -0.270938 -1.331111 0.000000
v -0.093750 1.668889 0.000000
v -0.191582 -1.331111 -0.191582
v -0.066291 1.668889 -0.066291
v -0.000000 0.843889 -0.375000
v 0.265165 0.843889 -0.265165
v 0.375000 0.843889 0.000000
v 0.265165 0.843889 0.265165
v -0.000000 0.843889 0.375000
v -0.265165 0.843889 0.265165
v -0.375000 0.843889 0.000000
v -0.265165 0.843889 -0.265165
v -0.000000 1.338889 -0.281250
v 0.198874 1.338889 -0.198874
v 0.281250 1.338889 0.000000
v 0.198874 1.338889 0.198874
v -0.000000 1.338889 0.281250
v -0.198874 1.338889 0.198874
v -0.281250 1.338889 0.000000
v -0.198874 1.338889 -0.198874
v 0.265165 0.018889 -0.265165
v 0.375000 0.018889 0.000000
v 0.265165 0.018889 0.265165
v -0.000000 0.018889 0.375000
v -0.265165 0.018889 0.265165
v -0.375000 0.018889 0.000000
v -0.265165 0.018889 -0.265165
v -0.000000 0.018889 -0.375000
v 0.191582 -0.656111 -0.191582
v 0.270938 -0.656111 0.000000
v 0.191582 -0.656111 0.191582
v -0.000000 -0.656111 0.270938
v -0.191582 -0.656111 0.191582
v -0.270938 -0.656111 0.000000
v -0.191582 -0.656111 -0.191582
v -0.000000 -0.656111 -0.270938
v 0.287373 -1.406111 -0.287373
v -0.287373 -1.406111 0.287373
v 0.287373 -0.656111 -0.287373
v -0.287373 -0.656111 0.287373
v 0.191582 -0.581111 -0.191582
v -0.191582 -0.581111 0.191582
v 0.000000 -1.406111 -0.406406
v -0.000000 -1.406111 0.406406
v 0.000000 -0.656111 -0.406406
v -0.000000 -0.656111 0.406406
v 0.000000 -0.581111 -0.270938
v -0.000000 -0.581111 0.270938
v -0.287373 -1.406111 -0.287373
v 0.287373 -1.406111 0.287373
v -0.287373 -0.656111 -0.287373
v 0.287373 -0.656111 0.287373
v -0.191582 -0.581111 -0.191582
v 0.191582 -0.581111 0.191582
v -0.406406 -1.406111 0.000000
v 0.406406 -1.406111 -0.000000
v -0.406406 -0.656111 0.000000
v 0.406406 -0.656111 -0.000000
v -0.270937 -0.581111 0.000000
v 0.270938 -0.581111 -0.000000
vt 0.176237 0.819515
vt 0.154730 0.931226
vt 0.133224 0.931226
vt 0.090210 0.819515
vt 0.068704 0.931226
vt 0.047197 0.931226
vt 0.670890 0.931226
vt 0.649383 0.931226
vt 0.627877 0.819515
vt 0.584863 0.931226
vt 0.563357 0.931226
vt 0.541850 0.819515
vt 0.520343 0.819515
vt 0.498837 0.931226
vt 0.477330 0.931226
vt 0.434317 0.819515
vt 0.412810 0.931226
vt 0.391304 0.931226
vt 0.748231 0.749169
vt 0.769738 0.749169
vt 0.784946 0.785883
vt 0.240757 0.931226
vt 0.219250 0.931226
vt 0.197744 0.819515
vt 0.326784 0.931226
vt 0.305277 0.931226
vt 0.283770 0.819515
vt 0.839128 0.164991
vt 0.733024 0.121041
vt 0.776974 0.014937
vt 0.359044 0.668894
vt 0.273017 0.668894
vt 0.273017 0.421616
vt 0.186990 0.668894
vt 0.186990 0.421616
vt 0.445070 0.668894
vt 0.359043 0.421616
vt 0.531097 0.668894
vt 0.445070 0.421616
vt 0.617123 0.668894
vt 0.531097 0.421616
vt 0.703150 0.668894
vt 0.617123 0.421616
vt 0.100964 0.668894
vt 0.014937 0.668894
vt 0.014937 0.421616
vt 0.100964 0.421616
vt 0.348290 0.819515
vt 0.262264 0.819515
vt 0.369797 0.819515
vt 0.455823 0.819515
vt 0.606370 0.819515
vt 0.692397 0.819515
vt 0.025690 0.819515
vt 0.111717 0.819515
vt 0.112900 0.217256
vt 0.026873 0.217256
vt 0.691213 0.217256
vt 0.703150 0.421616
vt 0.605187 0.217256
vt 0.457006 0.217256
vt 0.370980 0.217256
vt 0.198926 0.217256
vt 0.284953 0.217256
vt 0.347107 0.217256
vt 0.284953 0.014937
vt 0.261081 0.217256
vt 0.198926 0.014937
vt 0.433134 0.217256
vt 0.370979 0.014937
vt 0.519160 0.217256
vt 0.457006 0.014937
vt 0.543033 0.217256
vt 0.543033 0.014937
vt 0.629059 0.217256
vt 0.629059 0.014937
vt 0.089027 0.217256
vt 0.026873 0.014937
vt 0.175054 0.217256
vt 0.112900 0.014937
vt 0.873981 0.419663
vt 0.873980 0.194865
vt 0.914585 0.217344
vt 0.873980 0.696815
vt 0.873980 0.472017
vt 0.914585 0.494497
vt 0.733024 0.494497
vt 0.773628 0.472017
vt 0.773628 0.696815
vt 0.944459 0.419663
vt 0.944459 0.194865
vt 0.985063 0.217344
vt 0.844106 0.419663
vt 0.803502 0.419663
vt 0.844106 0.217344
vt 0.773628 0.419663
vt 0.733024 0.442143
vt 0.733024 0.419663
vt 0.944459 0.696815
vt 0.944459 0.472017
vt 0.985063 0.494497
vt 0.803502 0.696815
vt 0.803502 0.472017
vt 0.844106 0.494497
vt 0.769738 0.801091
vt 0.748231 0.801091
vt 0.733024 0.785883
vt 0.733024 0.764377
vt 0.784946 0.764377
vt 0.839128 0.014937
vt 0.883078 0.058887
vt 0.883078 0.121041
vt 0.776974 0.164991
vt 0.733024 0.058887
vt 0.347107 0.014937
vt 0.261081 0.014937
vt 0.433134 0.014937
vt 0.519160 0.014937
vt 0.605187 0.014937
vt 0.691213 0.014937
vt 0.089027 0.014937
vt 0.175054 0.014937
vt 0.914585 0.419663
vt 0.914585 0.442143
vt 0.914585 0.696815
vt 0.914585 0.719295
vt 0.733024 0.719295
vt 0.733024 0.696815
vt 0.985063 0.419663
vt 0.985063 0.442143
vt 0.844106 0.442143
vt 0.803502 0.194865
vt 0.733024 0.217344
vt 0.773628 0.194865
vt 0.985063 0.696815
vt 0.985063 0.719295
vt 0.844106 0.696815
vt 0.844106 0.719295
vn 0.338800 0.464800 -0.818000
vn 0.818000 0.464800 -0.338800
vn 0.818000 0.464800 0.338800
vn 0.338800 0.464800 0.818000
vn -0.338800 0.464800 0.818000
vn -0.818000 0.464800 0.338800
vn 0.000000 1.000000 0.000000
vn -0.338800 0.464800 -0.818000
vn -0.818000 0.464800 -0.338800
vn 0.000000 -1.000000 0.000000
vn -0.923900 0.000000 -0.382700
vn -0.382700 0.000000 -0.923900
vn -0.923900 0.000000 0.382700
vn -0.382700 0.000000 0.923900
vn 0.382700 0.000000 0.923900
vn 0.923900 0.000000 0.382700
vn 0.923900 0.000000 -0.382700
vn 0.382700 0.000000 -0.923900
vn -0.910100 0.172400 -0.377000
vn -0.377000 0.172400 -0.910100
vn -0.910100 0.172400 0.377000
vn -0.377000 0.172400 0.910100
vn 0.377000 0.172400 0.910100
vn 0.910100 0.172400 0.377000
vn 0.910100 0.172400 -0.377000
vn 0.377000 0.172400 -0.910100
vn 0.378900 -0.141000 -0.914600
vn 0.914600 -0.141000 -0.378900
vn 0.914600 -0.141000 0.378900
vn 0.378900 -0.141000 0.914600
vn -0.378900 -0.141000 0.914600
vn -0.914600 -0.141000 0.378900
vn -0.378900 -0.141000 -0.914600
vn -0.914600 -0.141000 -0.378900
vn -0.707100 0.000000 -0.707100
vn 0.707100 0.000000 0.707100
vn 0.707100 0.000000 -0.707100
vn 1.000000 0.000000 -0.000000
vn 0.000000 0.000000 1.000000
vn -0.000000 0.000000 -1.000000
s off
f 25/1/1 2/2/1 4/3/1
f 26/4/2 4/5/2 6/6/2
f 6/7/3 8/8/3 28/9/3
f 8/10/4 10/11/4 29/12/4
f 29/13/5 10/14/5 12/15/5
f 30/16/6 12/17/6 14/18/6
f 12/19/7 10/20/7 6/21/7
f 16/22/8 2/23/8 25/24/8
f 14/25/9 16/26/9 32/27/9
f 7/28/10 11/29/10 15/30/10
f 23/31/11 24/32/11 39/33/11
f 24/32/12 17/34/12 40/35/12
f 22/36/13 23/31/13 38/37/13
f 21/38/14 22/36/14 37/39/14
f 20/40/15 21/38/15 36/41/15
f 19/42/16 20/40/16 35/43/16
f 18/44/17 19/45/17 34/46/17
f 17/34/18 18/44/18 33/47/18
f 31/48/19 32/27/19 24/32/19
f 32/49/20 25/24/20 17/34/20
f 30/16/21 31/50/21 23/31/21
f 29/13/22 30/51/22 22/36/22
f 28/52/23 29/12/23 21/38/23
f 27/53/24 28/9/24 20/40/24
f 26/4/25 27/54/25 19/45/25
f 25/1/26 26/55/26 18/44/26
f 40/35/27 33/47/27 41/56/27
f 33/47/28 34/46/28 42/57/28
f 42/58/29 34/59/29 35/43/29
f 43/60/30 35/43/30 36/41/30
f 36/41/31 37/39/31 45/61/31
f 37/39/32 38/37/32 46/62/32
f 39/33/33 40/35/33 48/63/33
f 38/37/34 39/33/34 47/64/34
f 46/65/11 47/64/11 15/66/11
f 47/67/12 48/63/12 1/68/12
f 45/69/13 46/62/13 13/70/13
f 44/71/14 45/61/14 11/72/14
f 43/60/15 44/73/15 9/74/15
f 42/58/16 43/75/16 7/76/16
f 41/77/17 42/57/17 5/78/17
f 48/79/18 41/56/18 3/80/18
f 51/81/35 49/82/35 3/83/35
f 52/84/36 50/85/36 11/86/36
f 15/87/37 61/88/37 63/89/37
f 58/90/38 56/91/38 9/92/38
f 46/93/39 69/94/39 13/95/39
f 57/96/38 59/97/38 48/98/38
f 70/99/40 68/100/40 5/101/40
f 64/102/37 62/103/37 7/104/37
f 26/55/1 25/1/1 4/3/1
f 27/54/2 26/4/2 6/6/2
f 27/53/3 6/7/3 28/9/3
f 28/52/4 8/10/4 29/12/4
f 30/51/5 29/13/5 12/15/5
f 31/50/6 30/16/6 14/18/6
f 6/21/7 4/105/7 2/106/7
f 2/106/7 16/107/7 6/21/7
f 14/108/7 12/19/7 6/21/7
f 10/20/7 8/109/7 6/21/7
f 6/21/7 16/107/7 14/108/7
f 32/49/8 16/22/8 25/24/8
f 31/48/9 14/25/9 32/27/9
f 15/30/10 1/110/10 3/111/10
f 3/111/10 5/112/10 15/30/10
f 7/28/10 9/113/10 11/29/10
f 11/29/10 13/114/10 15/30/10
f 15/30/10 5/112/10 7/28/10
f 38/37/11 23/31/11 39/33/11
f 39/33/12 24/32/12 40/35/12
f 37/39/13 22/36/13 38/37/13
f 36/41/14 21/38/14 37/39/14
f 35/43/15 20/40/15 36/41/15
f 34/59/16 19/42/16 35/43/16
f 33/47/17 18/44/17 34/46/17
f 40/35/18 17/34/18 33/47/18
f 23/31/19 31/48/19 24/32/19
f 24/32/20 32/49/20 17/34/20
f 22/36/21 30/16/21 23/31/21
f 21/38/22 29/13/22 22/36/22
f 20/40/23 28/52/23 21/38/23
f 19/42/24 27/53/24 20/40/24
f 18/44/25 26/4/25 19/45/25
f 17/34/26 25/1/26 18/44/26
f 48/79/27 40/35/27 41/56/27
f 41/77/28 33/47/28 42/57/28
f 43/75/29 42/58/29 35/43/29
f 44/73/30 43/60/30 36/41/30
f 44/71/31 36/41/31 45/61/31
f 45/69/32 37/39/32 46/62/32
f 47/67/33 39/33/33 48/63/33
f 46/65/34 38/37/34 47/64/34
f 13/115/11 46/65/11 15/66/11
f 15/116/12 47/67/12 1/68/12
f 11/117/13 45/69/13 13/70/13
f 9/118/14 44/71/14 11/72/14
f 7/119/15 43/60/15 9/74/15
f 5/120/16 42/58/16 7/76/16
f 3/121/17 41/77/17 5/78/17
f 1/122/18 48/79/18 3/80/18
f 3/83/35 41/123/35 51/81/35
f 53/124/35 51/81/35 41/123/35
f 11/86/36 45/125/36 52/84/36
f 54/126/36 52/84/36 45/125/36
f 63/89/37 65/127/37 47/128/37
f 47/128/37 15/87/37 63/89/37
f 9/92/38 44/129/38 58/90/38
f 60/130/38 58/90/38 44/129/38
f 46/93/39 71/131/39 69/94/39
f 67/132/39 13/95/39 69/94/39
f 48/98/38 1/133/38 57/96/38
f 55/134/38 57/96/38 1/133/38
f 5/101/40 42/135/40 70/99/40
f 72/136/40 70/99/40 42/135/40
f 7/104/37 43/137/37 64/102/37
f 66/138/37 64/102/37 43/137/37
