# Blender v2.76 (sub 0) OBJ File: 'BombGeneric.blend'
# www.blender.org
o Cylinder
v 0.176777 0.426777 -0.375000
v 0.176777 0.426776 0.375000
v 0.230970 0.345671 -0.375000
v 0.230970 0.345671 0.375000
v 0.250000 0.250000 -0.375000
v 0.250000 0.250000 0.375000
v 0.230970 0.154329 -0.375000
v 0.230970 0.154329 0.375000
v 0.176777 0.073223 -0.375000
v 0.176776 0.073223 0.375000
v 0.095671 0.019030 -0.375000
v 0.095671 0.019030 0.375000
v 0.000000 0.000000 -0.375000
v -0.000000 -0.000000 0.375000
v -0.095671 0.019030 -0.375000
v -0.095671 0.019030 0.375000
v -0.176776 0.073224 -0.375000
v -0.176777 0.073223 0.375000
v -0.230970 0.154329 -0.375000
v -0.230970 0.154329 0.375000
v -0.250000 0.250000 -0.375000
v -0.250000 0.250000 0.375000
v -0.230970 0.345671 -0.375000
v -0.230970 0.345671 0.375000
v -0.176776 0.426777 -0.375000
v -0.176777 0.426777 0.375000
v -0.095670 0.480970 -0.375000
v -0.095671 0.480970 0.375000
v 0.000000 0.500000 -0.375000
v -0.000000 0.500000 0.375000
v 0.095671 0.480970 -0.375000
v 0.095671 0.480970 0.375000
v 0.088388 0.338388 0.525000
v 0.047835 0.365485 0.525000
v 0.000000 0.375000 0.525000
v -0.047835 0.365485 0.525000
v -0.088388 0.338388 0.525000
v -0.115485 0.297835 0.525000
v -0.125000 0.250000 0.525000
v -0.115485 0.202165 0.525000
v -0.088388 0.161612 0.525000
v -0.047836 0.134515 0.525000
v -0.000000 0.125000 0.525000
v 0.047835 0.134515 0.525000
v 0.088388 0.161612 0.525000
v 0.115485 0.202165 0.525000
v 0.125000 0.250000 0.525000
v 0.115485 0.297835 0.525000
v 0.088388 0.338388 -0.675000
v 0.047835 0.365485 -0.675000
v 0.000000 0.375000 -0.675000
v -0.047835 0.365485 -0.675000
v -0.088388 0.338388 -0.675000
v -0.115485 0.297835 -0.675000
v -0.125000 0.250000 -0.675000
v -0.115485 0.202165 -0.675000
v -0.088388 0.161612 -0.675000
v -0.047836 0.134515 -0.675000
v -0.000000 0.125000 -0.675000
v 0.047835 0.134515 -0.675000
v 0.088388 0.161612 -0.675000
v 0.115485 0.202165 -0.675000
v 0.125000 0.250000 -0.675000
v 0.115485 0.297835 -0.675000
v 0.088388 0.338388 -0.875000
v 0.047835 0.365485 -0.875000
v 0.000000 0.375000 -0.875000
v -0.047835 0.365485 -0.875000
v -0.088388 0.338388 -0.875000
v -0.115485 0.297835 -0.875000
v -0.125000 0.250000 -0.875000
v -0.115485 0.202165 -0.875000
v -0.088388 0.161612 -0.875000
v -0.047836 0.134515 -0.875000
v -0.000000 0.125000 -0.875000
v 0.047835 0.134515 -0.875000
v 0.088388 0.161612 -0.875000
v 0.115485 0.202165 -0.875000
v 0.125000 0.250000 -0.875000
v 0.115485 0.297835 -0.875000
v -0.247487 0.497487 -0.674000
v 0.247487 0.002513 -0.674000
v -0.247487 0.497487 -0.826000
v 0.247487 0.002513 -0.826000
v 0.247488 0.497487 -0.674000
v -0.247488 0.002513 -0.674000
v 0.247488 0.497487 -0.826000
v -0.247488 0.002513 -0.826000
vt 0.335293 0.709457
vt 0.282306 0.709457
vt 0.282306 0.302056
vt 0.229320 0.709457
vt 0.229319 0.302057
vt 0.176333 0.709457
vt 0.176333 0.302057
vt 0.123346 0.709457
vt 0.070360 0.709457
vt 0.070360 0.302057
vt 0.017373 0.709457
vt 0.017373 0.302057
vt 0.865159 0.709457
vt 0.812172 0.709457
vt 0.812172 0.302056
vt 0.759185 0.709457
vt 0.759185 0.302056
vt 0.706199 0.709457
vt 0.706199 0.302056
vt 0.653212 0.709457
vt 0.653212 0.302056
vt 0.600226 0.709457
vt 0.600226 0.302056
vt 0.547239 0.709457
vt 0.547239 0.302056
vt 0.494252 0.709457
vt 0.494252 0.302056
vt 0.441266 0.709457
vt 0.388279 0.709457
vt 0.335292 0.302056
vt 0.388279 0.302056
vt 0.322046 0.814689
vt 0.295553 0.814689
vt 0.269060 0.814689
vt 0.242566 0.814689
vt 0.216073 0.814689
vt 0.189580 0.814689
vt 0.600297 0.902785
vt 0.680139 0.849436
vt 0.653646 0.982627
vt 0.163087 0.814690
vt 0.136593 0.814690
vt 0.110100 0.814690
vt 0.083607 0.814690
vt 0.057113 0.814690
vt 0.030620 0.814690
vt 0.851912 0.814690
vt 0.825419 0.814690
vt 0.798925 0.814690
vt 0.745939 0.814690
vt 0.692952 0.814690
vt 0.639965 0.814690
vt 0.586979 0.814689
vt 0.533992 0.814689
vt 0.481006 0.814689
vt 0.428019 0.814689
vt 0.375033 0.814689
vt 0.348539 0.814689
vt 0.512202 0.982627
vt 0.432360 0.929278
vt 0.485709 0.849436
vt 0.295552 0.017374
vt 0.322045 0.017374
vt 0.322046 0.126014
vt 0.242566 0.126014
vt 0.242565 0.017375
vt 0.269059 0.017375
vt 0.189579 0.126014
vt 0.189579 0.017374
vt 0.216072 0.017374
vt 0.136592 0.017373
vt 0.163086 0.017373
vt 0.163086 0.126014
vt 0.083606 0.126015
vt 0.083606 0.017375
vt 0.110099 0.017375
vt 0.030619 0.126015
vt 0.030619 0.017375
vt 0.057113 0.017375
vt 0.825418 0.126014
vt 0.825418 0.017374
vt 0.851911 0.017374
vt 0.772431 0.017375
vt 0.798925 0.017375
vt 0.798925 0.126014
vt 0.719445 0.126014
vt 0.719445 0.017374
vt 0.745939 0.017374
vt 0.666459 0.017374
vt 0.692952 0.017374
vt 0.692952 0.126014
vt 0.613473 0.017374
vt 0.639966 0.017374
vt 0.639966 0.126014
vt 0.560486 0.017374
vt 0.586979 0.017374
vt 0.586979 0.126014
vt 0.507499 0.017374
vt 0.533993 0.017374
vt 0.533993 0.126014
vt 0.348539 0.126014
vt 0.348539 0.017373
vt 0.375032 0.017373
vt 0.401526 0.017373
vt 0.428019 0.017373
vt 0.428019 0.126014
vt 0.454513 0.017373
vt 0.481006 0.017373
vt 0.481006 0.126014
vt 0.295552 0.126014
vt 0.375032 0.126014
vt 0.401526 0.126014
vt 0.441266 0.302056
vt 0.454513 0.126014
vt 0.507499 0.126014
vt 0.560486 0.126014
vt 0.613473 0.126014
vt 0.666459 0.126014
vt 0.745939 0.126014
vt 0.772432 0.126014
vt 0.851911 0.126014
vt 0.057113 0.126015
vt 0.110099 0.126015
vt 0.123346 0.302057
vt 0.136592 0.126014
vt 0.216072 0.126014
vt 0.269059 0.126014
vt 0.982471 0.397613
vt 0.899905 0.397613
vt 0.899905 0.017373
vt 0.397613 0.932002
vt 0.017373 0.932003
vt 0.017373 0.849436
vt 0.865158 0.302056
vt 0.733487 0.929278
vt 0.723349 0.953755
vt 0.704615 0.972488
vt 0.680139 0.982627
vt 0.629169 0.972488
vt 0.610435 0.953755
vt 0.600297 0.929278
vt 0.610435 0.878308
vt 0.629169 0.859575
vt 0.653645 0.849436
vt 0.704615 0.859575
vt 0.723349 0.878308
vt 0.733487 0.902785
vt 0.772432 0.814690
vt 0.719445 0.814690
vt 0.666459 0.814690
vt 0.613472 0.814690
vt 0.560485 0.814690
vt 0.507499 0.814689
vt 0.454512 0.814689
vt 0.401526 0.814689
vt 0.512202 0.849436
vt 0.565550 0.902785
vt 0.536678 0.859575
vt 0.555412 0.878308
vt 0.565550 0.929278
vt 0.555412 0.953755
vt 0.536678 0.972488
vt 0.485708 0.982627
vt 0.461232 0.972488
vt 0.442498 0.953755
vt 0.432360 0.902785
vt 0.442498 0.878308
vt 0.461232 0.859575
vt 0.982471 0.017373
vt 0.397613 0.849436
vn 0.831500 0.555600 0.000000
vn 0.980800 0.195100 0.000000
vn 0.980800 -0.195100 0.000000
vn 0.831500 -0.555600 0.000000
vn 0.555600 -0.831500 -0.000000
vn 0.195100 -0.980800 -0.000000
vn -0.195100 -0.980800 -0.000000
vn -0.555600 -0.831500 -0.000000
vn -0.831500 -0.555600 -0.000000
vn -0.980800 -0.195100 -0.000000
vn -0.980800 0.195100 -0.000000
vn -0.831500 0.555600 -0.000000
vn -0.555600 0.831500 0.000000
vn -0.195100 0.980800 0.000000
vn 0.555600 0.831500 0.000000
vn 0.195100 0.980800 0.000000
vn 0.643800 0.430200 0.632800
vn 0.759400 0.151100 0.632800
vn 0.759400 -0.151100 0.632800
vn -0.000000 -0.000000 1.000000
vn 0.643800 -0.430200 0.632800
vn 0.430200 -0.643800 0.632800
vn 0.151100 -0.759400 0.632800
vn -0.151100 -0.759400 0.632800
vn -0.430200 -0.643800 0.632800
vn -0.643800 -0.430200 0.632800
vn -0.759400 -0.151100 0.632800
vn -0.759400 0.151100 0.632800
vn -0.643800 0.430200 0.632800
vn -0.430200 0.643800 0.632800
vn -0.151100 0.759400 0.632800
vn 0.151100 0.759400 0.632800
vn 0.430200 0.643800 0.632800
vn 0.000000 0.000000 -1.000000
vn 0.769700 0.514300 -0.378300
vn 0.514300 0.769700 -0.378300
vn 0.180600 0.907900 -0.378300
vn -0.180600 0.907900 -0.378300
vn -0.514300 0.769700 -0.378300
vn -0.769700 0.514300 -0.378300
vn -0.907900 0.180600 -0.378300
vn -0.907900 -0.180600 -0.378300
vn -0.769700 -0.514300 -0.378300
vn -0.514300 -0.769700 -0.378300
vn -0.180600 -0.907900 -0.378300
vn 0.180600 -0.907900 -0.378300
vn 0.514300 -0.769700 -0.378300
vn 0.769700 -0.514300 -0.378300
vn 0.907900 -0.180600 -0.378300
vn 0.907900 0.180600 -0.378300
vn 0.707100 0.707100 0.000000
vn -0.707100 0.707100 0.000000
s off
f 2/1/1 4/2/1 3/3/1
f 4/2/2 6/4/2 5/5/2
f 6/4/3 8/6/3 7/7/3
f 7/7/4 8/6/4 10/8/4
f 10/8/5 12/9/5 11/10/5
f 12/9/6 14/11/6 13/12/6
f 14/13/7 16/14/7 15/15/7
f 16/14/8 18/16/8 17/17/8
f 18/16/9 20/18/9 19/19/9
f 20/18/10 22/20/10 21/21/10
f 22/20/11 24/22/11 23/23/11
f 24/22/12 26/24/12 25/25/12
f 26/24/13 28/26/13 27/27/13
f 27/27/14 28/26/14 30/28/14
f 32/29/15 2/1/15 1/30/15
f 30/28/16 32/29/16 31/31/16
f 2/1/17 33/32/17 48/33/17
f 4/2/18 48/34/18 47/35/18
f 6/4/19 47/36/19 46/37/19
f 41/38/20 45/39/20 37/40/20
f 8/6/21 46/41/21 45/42/21
f 10/8/22 45/43/22 44/44/22
f 12/9/23 44/45/23 43/46/23
f 14/13/24 43/47/24 42/48/24
f 18/16/25 16/14/25 42/49/25
f 20/18/26 18/16/26 41/50/26
f 22/20/27 20/18/27 40/51/27
f 24/22/28 22/20/28 39/52/28
f 26/24/29 24/22/29 38/53/29
f 28/26/30 26/24/30 37/54/30
f 30/28/31 28/26/31 36/55/31
f 32/29/32 30/28/32 35/56/32
f 32/29/33 34/57/33 33/58/33
f 75/59/34 71/60/34 67/61/34
f 80/62/1 65/63/1 49/64/1
f 63/65/2 79/66/2 80/67/2
f 62/68/3 78/69/3 79/70/3
f 77/71/4 78/72/4 62/73/4
f 60/74/5 76/75/5 77/76/5
f 59/77/6 75/78/6 76/79/6
f 58/80/7 74/81/7 75/82/7
f 73/83/8 74/84/8 58/85/8
f 56/86/9 72/87/9 73/88/9
f 71/89/10 72/90/10 56/91/10
f 70/92/11 71/93/11 55/94/11
f 69/95/12 70/96/12 54/97/12
f 68/98/13 69/99/13 53/100/13
f 49/101/15 65/102/15 66/103/15
f 66/104/16 67/105/16 51/106/16
f 67/107/14 68/108/14 52/109/14
f 64/110/35 49/64/35 1/30/35
f 49/101/36 50/111/36 31/31/36
f 50/112/37 51/106/37 29/113/37
f 51/114/38 52/109/38 27/27/38
f 52/115/39 53/100/39 25/25/39
f 53/116/40 54/97/40 23/23/40
f 54/117/41 55/94/41 21/21/41
f 55/118/42 56/91/42 19/19/42
f 19/19/43 56/86/43 57/119/43
f 57/120/44 58/85/44 15/15/44
f 15/15/45 58/80/45 59/121/45
f 13/12/46 59/77/46 60/122/46
f 11/10/47 60/74/47 61/123/47
f 9/124/48 61/125/48 62/73/48
f 7/7/49 62/68/49 63/126/49
f 5/5/50 63/65/50 64/127/50
f 82/128/51 84/129/51 83/130/51
f 87/131/52 88/132/52 86/133/52
f 1/30/1 2/1/1 3/3/1
f 3/3/2 4/2/2 5/5/2
f 5/5/3 6/4/3 7/7/3
f 9/124/4 7/7/4 10/8/4
f 9/124/5 10/8/5 11/10/5
f 11/10/6 12/9/6 13/12/6
f 13/134/7 14/13/7 15/15/7
f 15/15/8 16/14/8 17/17/8
f 17/17/9 18/16/9 19/19/9
f 19/19/10 20/18/10 21/21/10
f 21/21/11 22/20/11 23/23/11
f 23/23/12 24/22/12 25/25/12
f 25/25/13 26/24/13 27/27/13
f 29/113/14 27/27/14 30/28/14
f 31/31/15 32/29/15 1/30/15
f 29/113/16 30/28/16 31/31/16
f 4/2/17 2/1/17 48/33/17
f 6/4/18 4/2/18 47/35/18
f 8/6/19 6/4/19 46/37/19
f 33/135/20 34/136/20 35/137/20
f 35/137/20 36/138/20 33/135/20
f 37/40/20 38/139/20 39/140/20
f 39/140/20 40/141/20 37/40/20
f 41/38/20 42/142/20 43/143/20
f 43/143/20 44/144/20 41/38/20
f 45/39/20 46/145/20 33/135/20
f 47/146/20 48/147/20 33/135/20
f 33/135/20 36/138/20 37/40/20
f 37/40/20 40/141/20 41/38/20
f 41/38/20 44/144/20 45/39/20
f 46/145/20 47/146/20 33/135/20
f 33/135/20 37/40/20 45/39/20
f 10/8/21 8/6/21 45/42/21
f 12/9/22 10/8/22 44/44/22
f 14/11/23 12/9/23 43/46/23
f 16/14/24 14/13/24 42/48/24
f 41/148/25 18/16/25 42/49/25
f 40/149/26 20/18/26 41/50/26
f 39/150/27 22/20/27 40/51/27
f 38/151/28 24/22/28 39/52/28
f 37/152/29 26/24/29 38/53/29
f 36/153/30 28/26/30 37/54/30
f 35/154/31 30/28/31 36/55/31
f 34/155/32 32/29/32 35/56/32
f 2/1/33 32/29/33 33/58/33
f 67/61/34 66/156/34 79/157/34
f 65/158/34 80/159/34 79/157/34
f 79/157/34 78/160/34 75/59/34
f 77/161/34 76/162/34 75/59/34
f 75/59/34 74/163/34 73/164/34
f 73/164/34 72/165/34 75/59/34
f 71/60/34 70/166/34 69/167/34
f 69/167/34 68/168/34 71/60/34
f 66/156/34 65/158/34 79/157/34
f 78/160/34 77/161/34 75/59/34
f 75/59/34 72/165/34 71/60/34
f 71/60/34 68/168/34 67/61/34
f 67/61/34 79/157/34 75/59/34
f 64/110/1 80/62/1 49/64/1
f 64/127/2 63/65/2 80/67/2
f 63/126/3 62/68/3 79/70/3
f 61/125/4 77/71/4 62/73/4
f 61/123/5 60/74/5 77/76/5
f 60/122/6 59/77/6 76/79/6
f 59/121/7 58/80/7 75/82/7
f 57/120/8 73/83/8 58/85/8
f 57/119/9 56/86/9 73/88/9
f 55/118/10 71/89/10 56/91/10
f 54/117/11 70/92/11 55/94/11
f 53/116/12 69/95/12 54/97/12
f 52/115/13 68/98/13 53/100/13
f 50/111/15 49/101/15 66/103/15
f 50/112/16 66/104/16 51/106/16
f 51/114/14 67/107/14 52/109/14
f 3/3/35 64/110/35 1/30/35
f 1/30/36 49/101/36 31/31/36
f 31/31/37 50/112/37 29/113/37
f 29/113/38 51/114/38 27/27/38
f 27/27/39 52/115/39 25/25/39
f 25/25/40 53/116/40 23/23/40
f 23/23/41 54/117/41 21/21/41
f 21/21/42 55/118/42 19/19/42
f 17/17/43 19/19/43 57/119/43
f 17/17/44 57/120/44 15/15/44
f 13/134/45 15/15/45 59/121/45
f 11/10/46 13/12/46 60/122/46
f 9/124/47 11/10/47 61/123/47
f 7/7/48 9/124/48 62/73/48
f 5/5/49 7/7/49 63/126/49
f 3/3/50 5/5/50 64/127/50
f 81/169/51 82/128/51 83/130/51
f 85/170/52 87/131/52 86/133/52
