# Blender v2.76 (sub 0) OBJ File: 'core_injector.blend'
# www.blender.org
o Cube_Cube.001
v -0.500000 0.000000 0.500000
v -0.500000 1.000000 0.500000
v -0.500000 0.000000 -0.500000
v -0.500000 1.000000 -0.500000
v 0.500000 0.000000 0.500000
v 0.500000 1.000000 0.500000
v 0.500000 0.000000 -0.500000
v 0.500000 1.000000 -0.500000
v -0.500000 0.125000 0.375000
v -0.500000 0.875000 0.375000
v -0.500000 0.125000 -0.375000
v -0.500000 0.875000 -0.375000
v 0.500000 0.125000 0.375000
v 0.500000 0.875000 0.375000
v 0.500000 0.125000 -0.375000
v 0.500000 0.875000 -0.375000
v -0.375000 0.000000 0.375000
v -0.375000 1.000000 0.375000
v -0.375000 0.000000 -0.375000
v -0.375000 1.000000 -0.375000
v 0.375000 0.000000 0.375000
v 0.375000 1.000000 0.375000
v 0.375000 0.000000 -0.375000
v 0.375000 1.000000 -0.375000
v -0.375000 0.125000 0.500000
v -0.375000 0.875000 0.500000
v -0.375000 0.125000 -0.500000
v -0.375000 0.875000 -0.500000
v 0.375000 0.125000 0.500000
v 0.375000 0.875000 0.500000
v 0.375000 0.125000 -0.500000
v 0.375000 0.875000 -0.500000
v -0.437500 0.875000 0.375000
v -0.437500 0.875000 -0.375000
v -0.437500 0.125000 -0.375000
v -0.437500 0.125000 0.375000
v 0.437500 0.875000 -0.375000
v 0.437500 0.875000 0.375000
v 0.437500 0.125000 0.375000
v 0.437500 0.125000 -0.375000
v -0.375000 0.062500 0.375000
v -0.375000 0.062500 -0.375000
v 0.375000 0.062500 -0.375000
v 0.375000 0.062500 0.375000
v 0.375000 0.937500 0.375000
v 0.375000 0.937500 -0.375000
v -0.375000 0.937500 -0.375000
v -0.375000 0.937500 0.375000
v -0.375000 0.875000 -0.437500
v 0.375000 0.875000 -0.437500
v 0.375000 0.125000 -0.437500
v -0.375000 0.125000 -0.437500
v 0.375000 0.875000 0.437500
v -0.375000 0.875000 0.437500
v -0.375000 0.125000 0.437500
v 0.375000 0.125000 0.437500
v -0.156250 0.000000 0.156250
v 0.156250 0.000000 0.156250
v -0.156250 0.000000 -0.156250
v 0.156250 0.000000 -0.156250
v -0.156250 0.062500 0.156250
v 0.156250 0.062500 0.156250
v -0.156250 0.062500 -0.156250
v 0.156250 0.062500 -0.156250
v -0.156250 1.000000 0.156250
v 0.156250 1.000000 0.156250
v -0.156250 1.000000 -0.156250
v 0.156250 1.000000 -0.156250
v -0.156250 0.937500 0.156250
v 0.156250 0.937500 0.156250
v -0.156250 0.937500 -0.156250
v 0.156250 0.937500 -0.156250
v -0.156250 0.343750 -0.500000
v 0.156250 0.343750 -0.500000
v -0.156250 0.656250 -0.500000
v 0.156250 0.656250 -0.500000
v -0.156250 0.343750 -0.437500
v 0.156250 0.343750 -0.437500
v -0.156250 0.656250 -0.437500
v 0.156250 0.656250 -0.437500
v -0.500000 0.343750 0.156250
v -0.500000 0.343750 -0.156250
v -0.500000 0.656250 0.156250
v -0.500000 0.656250 -0.156250
v -0.437500 0.343750 0.156250
v -0.437500 0.343750 -0.156250
v -0.437500 0.656250 0.156250
v -0.437500 0.656250 -0.156250
v 0.500000 0.343750 0.156250
v 0.500000 0.343750 -0.156250
v 0.500000 0.656250 0.156250
v 0.500000 0.656250 -0.156250
v 0.437500 0.343750 0.156250
v 0.437500 0.343750 -0.156250
v 0.437500 0.656250 0.156250
v 0.437500 0.656250 -0.156250
v 0.000000 0.625000 0.437500
v -0.088388 0.588388 0.437500
v -0.125000 0.500000 0.437500
v -0.088388 0.411612 0.437500
v 0.000000 0.375000 0.437500
v 0.088388 0.411612 0.437500
v 0.125000 0.500000 0.437500
v 0.088388 0.588388 0.437500
v -0.088388 0.588388 0.750000
v 0.000000 0.625000 0.750000
v -0.125000 0.500000 0.750000
v -0.088388 0.411612 0.750000
v 0.000000 0.375000 0.750000
v 0.088388 0.411612 0.750000
v 0.125000 0.500000 0.750000
v 0.088388 0.588388 0.750000
v -0.066291 0.566291 0.750000
v 0.000000 0.593750 0.750000
v -0.093750 0.500000 0.750000
v -0.066291 0.433709 0.750000
v 0.000000 0.406250 0.750000
v 0.066291 0.433709 0.750000
v 0.093750 0.500000 0.750000
v 0.066291 0.566291 0.750000
v -0.066291 0.566291 1.000000
v 0.000000 0.593750 1.000000
v -0.093750 0.500000 1.000000
v -0.066291 0.433709 1.000000
v 0.000000 0.406250 1.000000
v 0.066291 0.433709 1.000000
v 0.093750 0.500000 1.000000
v 0.066291 0.566291 1.000000
vt 0.062500 0.437500
vt 0.437500 0.437500
vt 0.500000 0.500000
vt 0.437500 0.062500
vt 0.062500 0.062500
vt -0.000000 0.000000
vt 0.000000 0.500000
vt 0.500000 0.000000
vt 0.375000 0.500000
vt 0.375000 0.531250
vt -0.000000 0.531250
vt 0.156250 0.687500
vt 0.156250 0.718750
vt 0.000000 0.718750
vt -0.000000 0.687500
vt 0.156250 0.531250
vt 0.468750 0.531250
vt 0.437500 0.531250
vt 0.500000 0.375000
vt 0.500000 0.250000
vt 0.656250 0.250000
vt 0.500000 0.625000
vt 0.656250 0.625000
vt 0.656250 0.750000
vt 0.500000 0.875000
vt 0.656250 0.875000
vt 0.656250 1.000000
vt 0.500000 0.125000
vt 0.656250 0.125000
vt 0.656250 0.375000
vt 0.656250 0.500000
vt 0.500000 0.750000
vt 0.656250 0.000000
vt 0.656250 0.312500
vt 0.781250 0.312500
vt 0.781250 0.375000
vt 0.406250 0.531250
vt 0.406250 0.562500
vt 0.375000 0.625000
vt 0.406250 0.593750
vt 0.437500 0.593750
vt 0.437500 0.625000
vt 0.468750 0.593750
vt 0.500000 0.562500
vt 0.468750 0.562500
vt 0.437500 0.500000
vt 0.375000 0.562500
vt 0.656250 0.437500
vt 0.781250 0.437500
vt 0.781250 0.500000
vt 0.656250 0.062500
vt 0.781250 0.062500
vt 0.781250 0.125000
vt 0.656250 0.187500
vt 0.781250 0.187500
vt 0.781250 0.250000
vt 0.781250 0.000000
vt 0.500000 1.000000
vn -1.000000 0.000000 0.000000
vn 0.000000 0.000000 -1.000000
vn 0.000000 -1.000000 0.000000
vn 0.000000 0.000000 1.000000
vn 1.000000 0.000000 0.000000
vn 0.000000 1.000000 0.000000
vn -0.923900 0.382700 0.000000
vn 0.923900 0.382700 0.000000
vn 0.382700 -0.923900 0.000000
vn -0.923900 -0.382700 0.000000
vn -0.382700 0.923900 -0.000000
vn 0.382700 0.923900 0.000000
vn 0.923900 -0.382700 0.000000
vn -0.382700 -0.923900 0.000000
s off
f 12/1/1 10/2/1 2/3/1
f 27/4/2 31/5/2 7/6/2
f 11/5/1 12/1/1 4/7/1
f 31/5/2 32/1/2 8/7/2
f 7/8/3 23/4/3 19/5/3
f 3/6/3 19/5/3 17/1/3
f 4/3/2 28/2/2 27/4/2
f 32/1/2 28/2/2 4/3/2
f 26/1/4 30/2/4 6/3/4
f 6/3/4 30/2/4 29/4/4
f 29/4/4 25/5/4 1/6/4
f 1/6/4 25/5/4 26/1/4
f 10/2/1 9/4/1 1/8/1
f 9/4/1 11/5/1 3/6/1
f 14/1/5 16/2/5 8/3/5
f 13/5/5 14/1/5 6/7/5
f 15/4/5 13/5/5 5/6/5
f 8/3/5 16/2/5 15/4/5
f 5/3/3 21/2/3 23/4/3
f 1/7/3 17/1/3 21/2/3
f 8/6/6 24/5/6 22/1/6
f 6/7/6 22/1/6 18/2/6
f 2/3/6 18/2/6 20/4/6
f 4/8/6 20/4/6 24/5/6
f 34/7/3 33/9/3 10/10/3
f 35/7/4 34/9/4 12/10/4
f 36/10/6 35/11/6 11/7/6
f 33/10/2 36/11/2 9/7/2
f 38/7/3 37/9/3 16/10/3
f 39/7/2 38/9/2 14/10/2
f 40/10/6 39/11/6 13/7/6
f 37/10/4 40/11/4 15/7/4
f 95/12/6 91/13/6 92/14/6
f 42/7/5 41/9/5 17/10/5
f 43/10/4 42/11/4 19/7/4
f 44/10/1 43/11/1 23/7/1
f 41/7/2 44/9/2 21/10/2
f 95/15/4 93/12/4 89/13/4
f 46/10/1 45/11/1 22/7/1
f 47/7/4 46/9/4 24/10/4
f 48/7/5 47/9/5 20/10/5
f 45/10/2 48/11/2 18/7/2
f 90/13/3 89/14/3 93/15/3
f 50/7/3 49/9/3 28/10/3
f 51/7/1 50/9/1 32/10/1
f 52/10/6 51/11/6 31/7/6
f 49/10/5 52/11/5 27/7/5
f 54/1/4 55/5/4 56/4/4
f 54/7/3 53/9/3 30/10/3
f 55/7/5 54/9/5 26/10/5
f 56/10/6 55/11/6 25/7/6
f 53/10/1 56/11/1 29/7/1
f 59/11/3 60/16/3 58/12/3
f 66/15/6 68/11/6 67/16/6
f 75/12/2 76/15/2 74/11/2
f 90/16/5 92/12/5 91/15/5
f 83/12/1 84/15/1 82/11/1
f 96/12/2 92/13/2 90/14/2
f 79/15/6 80/12/6 76/13/6
f 77/15/1 79/12/1 75/13/1
f 78/15/3 77/12/3 73/13/3
f 76/14/5 80/15/5 78/12/5
f 86/15/3 85/12/3 81/13/3
f 85/15/4 87/12/4 83/13/4
f 83/14/6 87/15/6 88/12/6
f 84/14/2 88/15/2 86/12/2
f 43/4/3 44/2/3 41/1/3
f 62/15/4 61/12/4 57/13/4
f 61/15/1 63/12/1 59/13/1
f 64/15/5 62/12/5 58/13/5
f 63/15/2 64/12/2 60/13/2
f 35/5/1 36/4/1 33/2/1
f 51/5/2 52/4/2 49/2/2
f 39/5/5 40/4/5 37/2/5
f 47/4/6 48/2/6 45/1/6
f 68/14/2 72/15/2 71/12/2
f 67/14/1 71/15/1 69/12/1
f 65/14/4 69/15/4 70/12/4
f 66/14/5 70/15/5 72/12/5
f 110/3/4 118/17/4 117/18/4
f 98/19/7 99/20/7 107/21/7
f 104/22/8 112/23/8 111/24/8
f 102/25/9 110/26/9 109/27/9
f 100/28/10 108/29/10 107/21/10
f 98/19/11 105/30/11 106/31/11
f 97/3/12 106/31/12 112/23/12
f 103/32/13 111/24/13 110/26/13
f 101/8/14 109/33/14 108/29/14
f 120/34/8 128/35/8 127/36/8
f 108/9/4 116/37/4 115/38/4
f 105/39/4 113/40/4 114/41/4
f 106/42/4 114/41/4 120/43/4
f 111/44/4 119/45/4 118/17/4
f 109/46/4 117/18/4 116/37/4
f 107/47/4 115/38/4 113/40/4
f 112/22/4 120/43/4 119/45/4
f 125/18/4 127/45/4 122/41/4
f 118/48/9 126/49/9 125/50/9
f 116/51/10 124/52/10 123/53/10
f 113/54/11 121/55/11 122/56/11
f 114/21/12 122/56/12 128/35/12
f 119/30/13 127/36/13 126/49/13
f 117/33/14 125/57/14 124/52/14
f 115/29/7 123/53/7 121/55/7
f 4/7/1 12/1/1 2/3/1
f 3/8/2 27/4/2 7/6/2
f 3/6/1 11/5/1 4/7/1
f 7/6/2 31/5/2 8/7/2
f 3/6/3 7/8/3 19/5/3
f 1/7/3 3/6/3 17/1/3
f 3/8/2 4/3/2 27/4/2
f 8/7/2 32/1/2 4/3/2
f 2/7/4 26/1/4 6/3/4
f 5/8/4 6/3/4 29/4/4
f 5/8/4 29/4/4 1/6/4
f 2/7/4 1/6/4 26/1/4
f 2/3/1 10/2/1 1/8/1
f 1/8/1 9/4/1 3/6/1
f 6/7/5 14/1/5 8/3/5
f 5/6/5 13/5/5 6/7/5
f 7/8/5 15/4/5 5/6/5
f 7/8/5 8/3/5 15/4/5
f 7/8/3 5/3/3 23/4/3
f 5/3/3 1/7/3 21/2/3
f 6/7/6 8/6/6 22/1/6
f 2/3/6 6/7/6 18/2/6
f 4/8/6 2/3/6 20/4/6
f 8/6/6 4/8/6 24/5/6
f 12/11/3 34/7/3 10/10/3
f 11/11/4 35/7/4 12/10/4
f 9/9/6 36/10/6 11/7/6
f 10/9/2 33/10/2 9/7/2
f 14/11/3 38/7/3 16/10/3
f 13/11/2 39/7/2 14/10/2
f 15/9/6 40/10/6 13/7/6
f 16/9/4 37/10/4 15/7/4
f 96/15/6 95/12/6 92/14/6
f 19/11/5 42/7/5 17/10/5
f 23/9/4 43/10/4 19/7/4
f 21/9/1 44/10/1 23/7/1
f 17/11/2 41/7/2 21/10/2
f 91/14/4 95/15/4 89/13/4
f 24/9/1 46/10/1 22/7/1
f 20/11/4 47/7/4 24/10/4
f 18/11/5 48/7/5 20/10/5
f 22/9/2 45/10/2 18/7/2
f 94/12/3 90/13/3 93/15/3
f 32/11/3 50/7/3 28/10/3
f 31/11/1 51/7/1 32/10/1
f 27/9/6 52/10/6 31/7/6
f 28/9/5 49/10/5 27/7/5
f 53/2/4 54/1/4 56/4/4
f 26/11/3 54/7/3 30/10/3
f 25/11/5 55/7/5 26/10/5
f 29/9/6 56/10/6 25/7/6
f 30/9/1 53/10/1 29/7/1
f 57/15/3 59/11/3 58/12/3
f 65/12/6 66/15/6 67/16/6
f 73/16/2 75/12/2 74/11/2
f 89/11/5 90/16/5 91/15/5
f 81/16/1 83/12/1 82/11/1
f 94/15/2 96/12/2 90/14/2
f 75/14/6 79/15/6 76/13/6
f 73/14/1 77/15/1 75/13/1
f 74/14/3 78/15/3 73/13/3
f 74/13/5 76/14/5 78/12/5
f 82/14/3 86/15/3 81/13/3
f 81/14/4 85/15/4 83/13/4
f 84/13/6 83/14/6 88/12/6
f 82/13/2 84/14/2 86/12/2
f 42/5/3 43/4/3 41/1/3
f 58/14/4 62/15/4 57/13/4
f 57/14/1 61/15/1 59/13/1
f 60/14/5 64/15/5 58/13/5
f 59/14/2 63/15/2 60/13/2
f 34/1/1 35/5/1 33/2/1
f 50/1/2 51/5/2 49/2/2
f 38/1/5 39/5/5 37/2/5
f 46/5/6 47/4/6 45/1/6
f 67/13/2 68/14/2 71/12/2
f 65/13/1 67/14/1 69/12/1
f 66/13/4 65/14/4 70/12/4
f 68/13/5 66/14/5 72/12/5
f 109/46/4 110/3/4 117/18/4
f 105/30/7 98/19/7 107/21/7
f 103/32/8 104/22/8 111/24/8
f 101/58/9 102/25/9 109/27/9
f 99/20/10 100/28/10 107/21/10
f 97/3/11 98/19/11 106/31/11
f 104/22/12 97/3/12 112/23/12
f 102/25/13 103/32/13 110/26/13
f 100/28/14 101/8/14 108/29/14
f 119/30/8 120/34/8 127/36/8
f 107/47/4 108/9/4 115/38/4
f 106/42/4 105/39/4 114/41/4
f 112/22/4 106/42/4 120/43/4
f 110/3/4 111/44/4 118/17/4
f 108/9/4 109/46/4 116/37/4
f 105/39/4 107/47/4 113/40/4
f 111/44/4 112/22/4 119/45/4
f 122/41/4 121/40/4 123/38/4
f 123/38/4 124/37/4 125/18/4
f 125/18/4 126/17/4 127/45/4
f 127/45/4 128/43/4 122/41/4
f 122/41/4 123/38/4 125/18/4
f 117/31/9 118/48/9 125/50/9
f 115/29/10 116/51/10 123/53/10
f 114/21/11 113/54/11 122/56/11
f 120/34/12 114/21/12 128/35/12
f 118/48/13 119/30/13 126/49/13
f 116/51/14 117/33/14 124/52/14
f 113/54/7 115/29/7 121/55/7
