# Blender v2.76 (sub 0) OBJ File: 'core_receiver.blend'
# www.blender.org
o Cube_Cube.001
v -0.500000 0.000000 0.500000
v -0.500000 1.000000 0.500000
v -0.500000 0.000000 -0.500000
v -0.500000 1.000000 -0.500000
v 0.500000 0.000000 0.500000
v 0.500000 1.000000 0.500000
v 0.500000 0.000000 -0.500000
v 0.500000 1.000000 -0.500000
v -0.500000 0.125000 0.375000
v -0.500000 0.875000 0.375000
v -0.500000 0.125000 -0.375000
v -0.500000 0.875000 -0.375000
v 0.500000 0.125000 0.375000
v 0.500000 0.875000 0.375000
v 0.500000 0.125000 -0.375000
v 0.500000 0.875000 -0.375000
v -0.375000 0.125000 0.500000
v -0.375000 0.875000 0.500000
v -0.375000 0.125000 -0.500000
v -0.375000 0.875000 -0.500000
v 0.375000 0.125000 0.500000
v 0.375000 0.875000 0.500000
v 0.375000 0.125000 -0.500000
v 0.375000 0.875000 -0.500000
v -0.375000 0.000000 0.375000
v -0.375000 1.000000 0.375000
v -0.375000 0.000000 -0.375000
v -0.375000 1.000000 -0.375000
v 0.375000 0.000000 0.375000
v 0.375000 1.000000 0.375000
v 0.375000 0.000000 -0.375000
v 0.375000 1.000000 -0.375000
v -0.375000 0.125000 0.375000
v -0.375000 0.125000 -0.375000
v 0.375000 0.125000 0.375000
v 0.375000 0.125000 -0.375000
v -0.375000 0.875000 0.375000
v -0.375000 0.875000 -0.375000
v 0.375000 0.875000 0.375000
v 0.375000 0.875000 -0.375000
v -0.000000 0.875000 -0.500000
v -0.000000 0.875000 0.500000
v 0.143506 0.846455 -0.500000
v 0.143506 0.846455 0.500000
v 0.265165 0.765165 -0.500000
v 0.265165 0.765165 0.500000
v 0.346455 0.643506 -0.500000
v 0.346455 0.643506 0.500000
v 0.375000 0.500000 -0.500000
v 0.375000 0.500000 0.500000
v 0.346455 0.356494 -0.500000
v 0.346455 0.356494 0.500000
v 0.265165 0.234835 -0.500000
v 0.265165 0.234835 0.500000
v 0.143506 0.153545 -0.500000
v 0.143506 0.153545 0.500000
v 0.000000 0.125000 -0.500000
v 0.000000 0.125000 0.500000
v -0.143506 0.153545 -0.500000
v -0.143506 0.153545 0.500000
v -0.265165 0.234835 -0.500000
v -0.265165 0.234835 0.500000
v -0.346455 0.356494 -0.500000
v -0.346455 0.356494 0.500000
v -0.375000 0.500000 -0.500000
v -0.375000 0.500000 0.500000
v -0.346455 0.643506 -0.500000
v -0.346455 0.643506 0.500000
v -0.265165 0.765165 -0.500000
v -0.265165 0.765165 0.500000
v -0.143506 0.846455 -0.500000
v -0.143506 0.846455 0.500000
v 0.000000 0.750000 0.500000
v -0.095671 0.730970 0.500000
v -0.176777 0.676777 0.500000
v -0.230970 0.595671 0.500000
v -0.250000 0.500000 0.500000
v -0.230970 0.404329 0.500000
v -0.176777 0.323223 0.500000
v -0.095671 0.269030 0.500000
v -0.000000 0.250000 0.500000
v 0.095671 0.269030 0.500000
v 0.176777 0.323223 0.500000
v 0.230970 0.404329 0.500000
v 0.250000 0.500000 0.500000
v 0.230970 0.595671 0.500000
v 0.176777 0.676777 0.500000
v 0.095671 0.730970 0.500000
v -0.095671 0.730970 0.750000
v -0.000000 0.750000 0.750000
v -0.176777 0.676777 0.750000
v -0.230970 0.595671 0.750000
v -0.250000 0.500000 0.750000
v -0.230970 0.404329 0.750000
v -0.176777 0.323223 0.750000
v -0.095671 0.269030 0.750000
v -0.000000 0.250000 0.750000
v 0.095671 0.269030 0.750000
v 0.176777 0.323223 0.750000
v 0.230970 0.404329 0.750000
v 0.250000 0.500000 0.750000
v 0.230970 0.595671 0.750000
v 0.176777 0.676777 0.750000
v 0.095671 0.730970 0.750000
v -0.071753 0.673227 0.750000
v -0.000000 0.687500 0.750000
v -0.132583 0.632583 0.750000
v -0.173227 0.571753 0.750000
v -0.187500 0.500000 0.750000
v -0.173227 0.428247 0.750000
v -0.132583 0.367417 0.750000
v -0.071753 0.326773 0.750000
v -0.000000 0.312500 0.750000
v 0.071753 0.326773 0.750000
v 0.132582 0.367417 0.750000
v 0.173227 0.428247 0.750000
v 0.187500 0.500000 0.750000
v 0.173227 0.571753 0.750000
v 0.132582 0.632583 0.750000
v 0.071753 0.673227 0.750000
v -0.071753 0.673227 0.500000
v -0.000000 0.687500 0.500000
v -0.132583 0.632583 0.500000
v -0.173227 0.571753 0.500000
v -0.187500 0.500000 0.500000
v -0.173227 0.428247 0.500000
v -0.132583 0.367417 0.500000
v -0.071753 0.326773 0.500000
v -0.000000 0.312500 0.500000
v 0.071753 0.326773 0.500000
v 0.132582 0.367417 0.500000
v 0.173227 0.428247 0.500000
v 0.187500 0.500000 0.500000
v 0.173227 0.571753 0.500000
v 0.132582 0.632583 0.500000
v 0.071753 0.673227 0.500000
v -0.500000 0.343750 0.156250
v -0.500000 0.656250 0.156250
v -0.500000 0.343750 -0.156250
v -0.500000 0.656250 -0.156250
v 0.500000 0.343750 0.156250
v 0.500000 0.656250 0.156250
v 0.500000 0.343750 -0.156250
v 0.500000 0.656250 -0.156250
v -0.156250 0.000000 0.156250
v -0.156250 1.000000 0.156250
v -0.156250 0.000000 -0.156250
v -0.156250 1.000000 -0.156250
v 0.156250 0.000000 0.156250
v 0.156250 1.000000 0.156250
v 0.156250 0.000000 -0.156250
v 0.156250 1.000000 -0.156250
v 0.375000 0.656250 -0.156250
v 0.375000 0.343750 -0.156250
v 0.375000 0.656250 0.156250
v 0.375000 0.343750 0.156250
v -0.156250 0.875000 0.156250
v -0.156250 0.875000 -0.156250
v 0.156250 0.875000 0.156250
v 0.156250 0.875000 -0.156250
v -0.375000 0.343750 0.156250
v -0.375000 0.656250 0.156250
v -0.375000 0.343750 -0.156250
v -0.375000 0.656250 -0.156250
v -0.156250 0.125000 0.156250
v -0.156250 0.125000 -0.156250
v 0.156250 0.125000 0.156250
v 0.156250 0.125000 -0.156250
v -0.500000 0.125000 0.375000
v -0.500000 0.875000 0.375000
v -0.500000 0.125000 -0.375000
v -0.500000 0.875000 -0.375000
v 0.500000 0.125000 0.375000
v 0.500000 0.875000 0.375000
v 0.500000 0.125000 -0.375000
v 0.500000 0.875000 -0.375000
v -0.375000 0.000000 0.375000
v -0.375000 1.000000 0.375000
v -0.375000 0.000000 -0.375000
v -0.375000 1.000000 -0.375000
v 0.375000 0.000000 0.375000
v 0.375000 1.000000 0.375000
v 0.375000 0.000000 -0.375000
v 0.375000 1.000000 -0.375000
v -0.375000 0.125000 0.375000
v -0.375000 0.125000 -0.375000
v 0.375000 0.125000 0.375000
v 0.375000 0.125000 -0.375000
v -0.375000 0.875000 0.375000
v -0.375000 0.875000 -0.375000
v 0.375000 0.875000 0.375000
v 0.375000 0.875000 -0.375000
v -0.500000 0.343750 0.156250
v -0.500000 0.656250 0.156250
v -0.500000 0.343750 -0.156250
v -0.500000 0.656250 -0.156250
v 0.500000 0.343750 0.156250
v 0.500000 0.656250 0.156250
v 0.500000 0.343750 -0.156250
v 0.500000 0.656250 -0.156250
v -0.156250 0.000000 0.156250
v -0.156250 1.000000 0.156250
v -0.156250 0.000000 -0.156250
v -0.156250 1.000000 -0.156250
v 0.156250 0.000000 0.156250
v 0.156250 1.000000 0.156250
v 0.156250 0.000000 -0.156250
v 0.156250 1.000000 -0.156250
v 0.375000 0.656250 -0.156250
v 0.375000 0.343750 -0.156250
v 0.375000 0.656250 0.156250
v 0.375000 0.343750 0.156250
v -0.156250 0.875000 0.156250
v -0.156250 0.875000 -0.156250
v 0.156250 0.875000 0.156250
v 0.156250 0.875000 -0.156250
v -0.375000 0.343750 0.156250
v -0.375000 0.656250 0.156250
v -0.375000 0.343750 -0.156250
v -0.375000 0.656250 -0.156250
v -0.156250 0.125000 0.156250
v -0.156250 0.125000 -0.156250
v 0.156250 0.125000 0.156250
v 0.156250 0.125000 -0.156250
vt 0.842105 0.421053
vt 0.789474 0.368421
vt 0.789474 0.052632
vt 0.473684 0.052632
vt 0.421053 0.000000
vt 0.421053 0.421053
vt 0.473684 0.368421
vt 0.421053 0.526316
vt 0.421053 0.473684
vt 0.736842 0.473684
vt 0.842105 -0.000000
vt 0.736842 0.421053
vt 0.736842 0.526316
vt 0.000000 0.421053
vt 0.000000 0.368421
vt 0.421053 0.368421
vt 0.000000 0.315789
vt 0.421053 0.315789
vt 0.000000 0.263158
vt 0.000000 0.210526
vt 0.421053 0.210526
vt 0.000000 0.157895
vt 0.000000 0.105263
vt 0.421053 0.105263
vt 0.000000 0.052632
vt 0.421053 0.052632
vt 0.000000 -0.000000
vt 0.000000 0.842105
vt 0.000000 0.789474
vt 0.421053 0.789474
vt 0.000000 0.736842
vt 0.421053 0.736842
vt 0.000000 0.684211
vt 0.421053 0.684211
vt 0.000000 0.631579
vt 0.421053 0.631579
vt 0.000000 0.578947
vt 0.421053 0.578947
vt 0.000000 0.526316
vt 0.552632 0.078947
vt 0.578947 0.105263
vt 0.552632 0.131579
vt 0.000000 0.473684
vt 0.763158 0.289474
vt 0.710526 0.342105
vt 0.631579 0.052632
vt 0.631579 0.105263
vt 0.710526 0.078947
vt 0.684211 0.105263
vt 0.736842 0.105263
vt 0.710526 0.131579
vt 0.763158 0.131579
vt 0.736842 0.157895
vt 0.789474 0.210526
vt 0.736842 0.210526
vt 0.736842 0.263158
vt 0.736842 0.315789
vt 0.710526 0.289474
vt 0.684211 0.315789
vt 0.631579 0.368421
vt 0.631579 0.315789
vt 0.552632 0.342105
vt 0.578947 0.315789
vt 0.526316 0.315789
vt 0.552632 0.289474
vt 0.500000 0.289474
vt 0.526316 0.263158
vt 0.473684 0.210526
vt 0.526316 0.210526
vt 0.500000 0.131579
vt 0.526316 0.157895
vt 0.526316 0.105263
vt 0.078947 0.842105
vt 0.078947 0.947368
vt 0.052632 0.947368
vt 0.631579 0.289474
vt 0.657895 0.289474
vt 0.315789 0.842105
vt 0.315789 0.947368
vt 0.289474 0.947368
vt 0.105263 0.842105
vt 0.105263 0.947368
vt 0.342105 0.842105
vt 0.342105 0.947368
vt 0.131579 0.842105
vt 0.131579 0.947368
vt 0.368421 0.842105
vt 0.368421 0.947368
vt 0.157895 0.842105
vt 0.157895 0.947368
vt 0.394737 0.842105
vt 0.394737 0.947368
vt 0.184211 0.842105
vt 0.184211 0.947368
vt 0.421053 0.842105
vt 0.421053 0.947368
vt 0.236842 0.842105
vt 0.236842 0.947368
vt 0.210526 0.947368
vt 0.210526 0.842105
vt 0.026316 0.842105
vt 0.026316 0.947368
vt 0.000000 0.947368
vt 0.263158 0.842105
vt 0.263158 0.947368
vt 0.052632 0.842105
vt 0.289474 0.842105
vt 0.684211 0.263158
vt 0.631579 0.131579
vt 0.605263 0.131579
vt 0.605263 0.289474
vt 0.657895 0.131579
vt 0.578947 0.263158
vt 0.684211 0.157895
vt 0.552632 0.236842
vt 0.710526 0.184211
vt 0.552632 0.210526
vt 0.710526 0.210526
vt 0.552632 0.184211
vt 0.710526 0.236842
vt 0.578947 0.157895
vt 0.421053 0.657895
vt 0.552632 0.526316
vt 0.973684 0.000000
vt 0.973684 0.421053
vt 0.552632 0.657895
vt 0.421053 0.710526
vt 0.552632 0.710526
vt 1.421053 0.263158
vt 1.421053 0.131579
vt 1.736842 0.131579
vt 1.421053 0.552632
vt 1.421053 0.421053
vt 1.736842 0.421053
vt 1.421053 0.289474
vt 1.736842 0.289474
vt 0.421053 0.263158
vt 0.421053 0.157895
vt 1.736842 0.263158
vt 1.736842 0.552632
vn 1.000000 0.000000 0.000000
vn 0.000000 0.000000 -1.000000
vn 0.000000 1.000000 0.000000
vn 0.000000 0.000000 1.000000
vn 0.000000 -1.000000 0.000000
vn -1.000000 0.000000 0.000000
vn 0.195100 0.980800 0.000000
vn 0.555600 0.831500 -0.000000
vn 0.831500 0.555600 0.000000
vn 0.980800 0.195100 -0.000000
vn 0.980800 -0.195100 0.000000
vn 0.831500 -0.555600 0.000000
vn 0.555600 -0.831500 0.000000
vn 0.195100 -0.980800 0.000000
vn -0.195100 -0.980800 0.000000
vn -0.555600 -0.831500 0.000000
vn -0.831500 -0.555600 0.000000
vn -0.980800 -0.195100 0.000000
vn -0.980800 0.195100 -0.000000
vn -0.831500 0.555600 -0.000000
vn -0.195100 0.980800 -0.000000
vn -0.555600 0.831500 -0.000000
vn 0.000000 0.707100 -0.707100
vn 0.000000 -0.707100 -0.707100
vn 0.000000 -0.707100 0.707100
vn 0.000000 0.707100 0.707100
vn 0.707100 0.000000 -0.707100
vn 0.707100 0.000000 0.707100
vn -0.707100 0.000000 0.707100
vn -0.707100 0.000000 -0.707100
s off
f 8/1/1 16/2/1 15/3/1
f 4/1/2 20/2/2 19/3/2
f 15/3/1 13/4/1 5/5/1
f 19/3/2 23/4/2 7/5/2
f 6/6/3 30/7/3 26/2/3
f 8/5/3 32/4/3 30/7/3
f 28/8/4 38/9/4 40/10/4
f 2/1/3 26/2/3 28/3/3
f 4/11/3 28/3/3 32/4/3
f 7/11/5 31/3/5 27/4/5
f 3/5/5 27/4/5 25/7/5
f 1/6/5 25/7/5 29/2/5
f 5/1/5 29/2/5 31/3/5
f 14/7/1 16/2/1 8/1/1
f 13/4/1 14/7/1 6/6/1
f 11/4/6 12/7/6 4/6/6
f 12/7/6 10/2/6 2/1/6
f 10/2/6 9/3/6 1/11/6
f 9/3/6 11/4/6 3/5/6
f 24/7/2 20/2/2 4/1/2
f 23/4/2 24/7/2 8/6/2
f 18/7/4 22/2/4 6/1/4
f 6/1/4 22/2/4 21/3/4
f 21/3/4 17/4/4 1/5/4
f 1/5/4 17/4/4 18/7/4
f 25/12/2 33/10/2 35/9/2
f 35/9/3 33/10/3 17/13/3
f 29/12/6 35/10/6 36/9/6
f 36/9/3 35/10/3 13/13/3
f 36/10/4 34/9/4 27/6/4
f 27/12/1 34/10/1 33/9/1
f 33/9/3 34/10/3 11/13/3
f 19/8/3 34/9/3 36/10/3
f 18/12/5 37/10/5 39/9/5
f 39/9/2 37/10/2 26/13/2
f 26/8/1 37/9/1 38/10/1
f 32/8/6 40/9/6 39/10/6
f 39/10/5 40/9/5 16/6/5
f 40/10/5 38/9/5 20/6/5
f 38/10/5 37/9/5 10/6/5
f 17/8/1 33/9/1 37/10/1
f 39/9/6 35/10/6 21/13/6
f 13/12/2 35/10/2 39/9/2
f 40/10/4 36/9/4 15/6/4
f 23/8/6 36/9/6 40/10/6
f 38/9/1 34/10/1 19/13/1
f 11/12/4 34/10/4 38/9/4
f 37/10/2 33/9/2 9/6/2
f 42/14/7 44/15/7 43/16/7
f 43/16/8 44/15/8 46/17/8
f 45/18/9 46/17/9 48/19/9
f 48/19/10 50/20/10 49/21/10
f 49/21/11 50/20/11 52/22/11
f 52/22/12 54/23/12 53/24/12
f 54/23/13 56/25/13 55/26/13
f 55/26/14 56/25/14 58/27/14
f 58/28/15 60/29/15 59/30/15
f 60/29/16 62/31/16 61/32/16
f 62/31/17 64/33/17 63/34/17
f 64/33/18 66/35/18 65/36/18
f 66/35/19 68/37/19 67/38/19
f 68/37/20 70/39/20 69/8/20
f 60/40/4 80/41/4 79/42/4
f 72/43/21 42/14/21 41/6/21
f 70/39/22 72/43/22 71/9/22
f 55/40/2 67/44/2 71/45/2
f 60/40/4 58/46/4 81/47/4
f 58/46/4 56/48/4 82/49/4
f 56/48/4 54/50/4 83/51/4
f 54/50/4 52/52/4 84/53/4
f 52/52/4 50/54/4 85/55/4
f 48/44/4 86/56/4 85/55/4
f 46/57/4 87/58/4 86/56/4
f 44/45/4 88/59/4 87/58/4
f 42/60/4 73/61/4 88/59/4
f 72/62/4 74/63/4 73/61/4
f 70/64/4 75/65/4 74/63/4
f 68/66/4 76/67/4 75/65/4
f 66/68/4 77/69/4 76/67/4
f 64/70/4 78/71/4 77/69/4
f 62/72/4 79/42/4 78/71/4
f 84/73/12 100/74/12 99/75/12
f 89/61/4 105/76/4 106/77/4
f 77/78/19 93/79/19 92/80/19
f 85/81/11 101/82/11 100/74/11
f 78/83/18 94/84/18 93/79/18
f 86/85/10 102/86/10 101/82/10
f 79/87/17 95/88/17 94/84/17
f 87/89/9 103/90/9 102/86/9
f 80/91/16 96/92/16 95/88/16
f 88/93/8 104/94/8 103/90/8
f 81/95/15 97/96/15 96/92/15
f 74/97/21 89/98/21 90/99/21
f 73/100/7 90/99/7 104/94/7
f 82/101/14 98/102/14 97/103/14
f 75/104/22 91/105/22 89/98/22
f 83/106/13 99/75/13 98/102/13
f 76/107/20 92/80/20 91/105/20
f 111/75/9 127/106/9 126/73/9
f 90/59/4 106/77/4 120/108/4
f 98/47/4 114/109/4 113/110/4
f 91/63/4 107/111/4 105/76/4
f 99/49/4 115/112/4 114/109/4
f 92/65/4 108/113/4 107/111/4
f 100/51/4 116/114/4 115/112/4
f 93/67/4 109/115/4 108/113/4
f 101/53/4 117/116/4 116/114/4
f 93/67/4 94/69/4 110/117/4
f 101/53/4 102/55/4 118/118/4
f 94/69/4 95/71/4 111/119/4
f 103/56/4 119/120/4 118/118/4
f 96/42/4 112/121/4 111/119/4
f 104/58/4 120/108/4 119/120/4
f 97/41/4 113/110/4 112/121/4
f 129/109/4 135/108/4 122/76/4
f 119/105/17 135/104/17 134/107/17
f 112/102/8 128/101/8 127/106/8
f 119/105/16 120/98/16 136/97/16
f 113/103/7 129/28/7 128/101/7
f 105/94/14 121/93/14 122/100/14
f 106/99/15 122/100/15 136/97/15
f 114/92/21 130/91/21 129/95/21
f 107/90/13 123/89/13 121/93/13
f 115/88/22 131/87/22 130/91/22
f 108/86/12 124/85/12 123/89/12
f 116/84/20 132/83/20 131/87/20
f 109/82/11 125/81/11 124/85/11
f 117/79/19 133/78/19 132/83/19
f 110/74/10 126/73/10 125/81/10
f 118/80/18 134/107/18 133/78/18
f 140/122/6 139/8/6 137/123/6
f 144/11/2 143/124/2 139/125/2
f 142/122/1 141/8/1 143/123/1
f 138/125/4 137/1/4 141/11/4
f 139/1/5 143/11/5 141/124/5
f 144/124/3 140/125/3 138/1/3
f 148/1/6 147/11/6 145/124/6
f 152/1/2 151/11/2 147/124/2
f 150/1/1 149/11/1 151/124/1
f 146/1/4 145/11/4 149/124/4
f 147/8/5 151/123/5 149/126/5
f 152/8/3 148/123/3 146/126/3
f 39/127/23 14/122/23 142/126/23
f 156/126/24 141/128/24 13/127/24
f 36/126/25 15/128/25 143/127/25
f 153/127/26 144/122/26 16/126/26
f 159/126/27 150/128/27 30/127/27
f 40/126/28 32/128/28 152/127/28
f 158/126/29 148/128/29 28/127/29
f 37/126/30 26/128/30 146/127/30
f 164/129/24 140/130/24 12/131/24
f 37/127/25 10/122/25 138/126/25
f 161/126/26 137/128/26 9/127/26
f 34/127/23 11/122/23 139/126/23
f 36/132/30 31/133/30 151/134/30
f 35/127/27 29/122/27 149/126/27
f 165/127/30 145/122/30 25/126/30
f 34/133/29 27/135/29 147/136/29
f 198/126/25 174/122/25 191/127/25
f 173/127/26 197/128/26 212/126/26
f 199/127/23 175/128/23 188/126/23
f 176/126/24 200/122/24 209/127/24
f 182/127/29 206/128/29 215/126/29
f 208/127/30 184/128/30 192/126/30
f 180/127/27 204/128/27 214/126/27
f 202/127/28 178/128/28 189/126/28
f 172/131/26 196/130/26 220/129/26
f 194/126/23 170/122/23 189/127/23
f 169/127/24 193/128/24 217/126/24
f 195/126/25 171/122/25 186/127/25
f 207/134/28 183/133/28 188/132/28
f 205/126/29 181/122/29 187/127/29
f 177/126/28 201/122/28 221/127/28
f 203/136/27 179/135/27 186/133/27
f 7/11/1 8/1/1 15/3/1
f 3/11/2 4/1/2 19/3/2
f 7/11/1 15/3/1 5/5/1
f 3/11/2 19/3/2 7/5/2
f 2/1/3 6/6/3 26/2/3
f 6/6/3 8/5/3 30/7/3
f 32/13/4 28/8/4 40/10/4
f 4/11/3 2/1/3 28/3/3
f 8/5/3 4/11/3 32/4/3
f 3/5/5 7/11/5 27/4/5
f 1/6/5 3/5/5 25/7/5
f 5/1/5 1/6/5 29/2/5
f 7/11/5 5/1/5 31/3/5
f 6/6/1 14/7/1 8/1/1
f 5/5/1 13/4/1 6/6/1
f 3/5/6 11/4/6 4/6/6
f 4/6/6 12/7/6 2/1/6
f 2/1/6 10/2/6 1/11/6
f 1/11/6 9/3/6 3/5/6
f 8/6/2 24/7/2 4/1/2
f 7/5/2 23/4/2 8/6/2
f 2/6/4 18/7/4 6/1/4
f 5/11/4 6/1/4 21/3/4
f 5/11/4 21/3/4 1/5/4
f 2/6/4 1/5/4 18/7/4
f 29/6/2 25/12/2 35/9/2
f 21/8/3 35/9/3 17/13/3
f 31/6/6 29/12/6 36/9/6
f 15/8/3 36/9/3 13/13/3
f 31/12/4 36/10/4 27/6/4
f 25/6/1 27/12/1 33/9/1
f 9/8/3 33/9/3 11/13/3
f 23/13/3 19/8/3 36/10/3
f 22/6/5 18/12/5 39/9/5
f 30/8/2 39/9/2 26/13/2
f 28/13/1 26/8/1 38/10/1
f 30/13/6 32/8/6 39/10/6
f 14/12/5 39/10/5 16/6/5
f 24/12/5 40/10/5 20/6/5
f 12/12/5 38/10/5 10/6/5
f 18/13/1 17/8/1 37/10/1
f 22/8/6 39/9/6 21/13/6
f 14/6/2 13/12/2 39/9/2
f 16/12/4 40/10/4 15/6/4
f 24/13/6 23/8/6 40/10/6
f 20/8/1 38/9/1 19/13/1
f 12/6/4 11/12/4 38/9/4
f 10/12/2 37/10/2 9/6/2
f 41/6/7 42/14/7 43/16/7
f 45/18/8 43/16/8 46/17/8
f 47/137/9 45/18/9 48/19/9
f 47/137/10 48/19/10 49/21/10
f 51/138/11 49/21/11 52/22/11
f 51/138/12 52/22/12 53/24/12
f 53/24/13 54/23/13 55/26/13
f 57/5/14 55/26/14 58/27/14
f 57/95/15 58/28/15 59/30/15
f 59/30/16 60/29/16 61/32/16
f 61/32/17 62/31/17 63/34/17
f 63/34/18 64/33/18 65/36/18
f 65/36/19 66/35/19 67/38/19
f 67/38/20 68/37/20 69/8/20
f 62/72/4 60/40/4 79/42/4
f 71/9/21 72/43/21 41/6/21
f 69/8/22 70/39/22 71/9/22
f 71/45/2 41/60/2 47/66/2
f 43/62/2 45/64/2 47/66/2
f 47/66/2 49/68/2 55/40/2
f 51/70/2 53/72/2 55/40/2
f 55/40/2 57/46/2 59/48/2
f 59/48/2 61/50/2 63/52/2
f 63/52/2 65/54/2 67/44/2
f 67/44/2 69/57/2 71/45/2
f 41/60/2 43/62/2 47/66/2
f 49/68/2 51/70/2 55/40/2
f 55/40/2 59/48/2 63/52/2
f 63/52/2 67/44/2 55/40/2
f 71/45/2 47/66/2 55/40/2
f 80/41/4 60/40/4 81/47/4
f 81/47/4 58/46/4 82/49/4
f 82/49/4 56/48/4 83/51/4
f 83/51/4 54/50/4 84/53/4
f 84/53/4 52/52/4 85/55/4
f 50/54/4 48/44/4 85/55/4
f 48/44/4 46/57/4 86/56/4
f 46/57/4 44/45/4 87/58/4
f 44/45/4 42/60/4 88/59/4
f 42/60/4 72/62/4 73/61/4
f 72/62/4 70/64/4 74/63/4
f 70/64/4 68/66/4 75/65/4
f 68/66/4 66/68/4 76/67/4
f 66/68/4 64/70/4 77/69/4
f 64/70/4 62/72/4 78/71/4
f 83/106/12 84/73/12 99/75/12
f 90/59/4 89/61/4 106/77/4
f 76/107/19 77/78/19 92/80/19
f 84/73/11 85/81/11 100/74/11
f 77/78/18 78/83/18 93/79/18
f 85/81/10 86/85/10 101/82/10
f 78/83/17 79/87/17 94/84/17
f 86/85/9 87/89/9 102/86/9
f 79/87/16 80/91/16 95/88/16
f 87/89/8 88/93/8 103/90/8
f 80/91/15 81/95/15 96/92/15
f 73/100/21 74/97/21 90/99/21
f 88/93/7 73/100/7 104/94/7
f 81/28/14 82/101/14 97/103/14
f 74/97/22 75/104/22 89/98/22
f 82/101/13 83/106/13 98/102/13
f 75/104/20 76/107/20 91/105/20
f 110/74/9 111/75/9 126/73/9
f 104/58/4 90/59/4 120/108/4
f 97/41/4 98/47/4 113/110/4
f 89/61/4 91/63/4 105/76/4
f 98/47/4 99/49/4 114/109/4
f 91/63/4 92/65/4 107/111/4
f 99/49/4 100/51/4 115/112/4
f 92/65/4 93/67/4 108/113/4
f 100/51/4 101/53/4 116/114/4
f 109/115/4 93/67/4 110/117/4
f 117/116/4 101/53/4 118/118/4
f 110/117/4 94/69/4 111/119/4
f 102/55/4 103/56/4 118/118/4
f 95/71/4 96/42/4 111/119/4
f 103/56/4 104/58/4 119/120/4
f 96/42/4 97/41/4 112/121/4
f 122/76/4 121/111/4 123/113/4
f 123/113/4 124/115/4 122/76/4
f 125/117/4 126/119/4 129/109/4
f 127/121/4 128/110/4 129/109/4
f 129/109/4 130/112/4 131/114/4
f 131/114/4 132/116/4 129/109/4
f 133/118/4 134/120/4 135/108/4
f 135/108/4 136/77/4 122/76/4
f 122/76/4 124/115/4 125/117/4
f 126/119/4 127/121/4 129/109/4
f 129/109/4 132/116/4 133/118/4
f 133/118/4 135/108/4 129/109/4
f 122/76/4 125/117/4 129/109/4
f 118/80/17 119/105/17 134/107/17
f 111/75/8 112/102/8 127/106/8
f 135/104/16 119/105/16 136/97/16
f 112/102/7 113/103/7 128/101/7
f 106/99/14 105/94/14 122/100/14
f 120/98/15 106/99/15 136/97/15
f 113/96/21 114/92/21 129/95/21
f 105/94/13 107/90/13 121/93/13
f 114/92/22 115/88/22 130/91/22
f 107/90/12 108/86/12 123/89/12
f 115/88/20 116/84/20 131/87/20
f 108/86/11 109/82/11 124/85/11
f 116/84/19 117/79/19 132/83/19
f 109/82/10 110/74/10 125/81/10
f 117/79/18 118/80/18 133/78/18
f 138/126/6 140/122/6 137/123/6
f 140/1/2 144/11/2 139/125/2
f 144/126/1 142/122/1 143/123/1
f 142/124/4 138/125/4 141/11/4
f 137/125/5 139/1/5 141/124/5
f 142/11/3 144/124/3 138/1/3
f 146/125/6 148/1/6 145/124/6
f 148/125/2 152/1/2 147/124/2
f 152/125/1 150/1/1 151/124/1
f 150/125/4 146/1/4 149/124/4
f 145/122/5 147/8/5 149/126/5
f 150/122/3 152/8/3 146/126/3
f 155/128/23 39/127/23 142/126/23
f 35/122/24 156/126/24 13/127/24
f 154/122/25 36/126/25 143/127/25
f 40/128/26 153/127/26 16/126/26
f 39/122/27 159/126/27 30/127/27
f 160/122/28 40/126/28 152/127/28
f 38/122/29 158/126/29 28/127/29
f 157/122/30 37/126/30 146/127/30
f 38/139/24 164/129/24 12/131/24
f 162/128/25 37/127/25 138/126/25
f 33/122/26 161/126/26 9/127/26
f 163/128/23 34/127/23 139/126/23
f 168/140/30 36/132/30 151/134/30
f 167/128/27 35/127/27 149/126/27
f 33/128/30 165/127/30 25/126/30
f 166/134/29 34/133/29 147/136/29
f 211/128/25 198/126/25 191/127/25
f 187/122/26 173/127/26 212/126/26
f 210/122/23 199/127/23 188/126/23
f 192/128/24 176/126/24 209/127/24
f 191/122/29 182/127/29 215/126/29
f 216/122/30 208/127/30 192/126/30
f 190/122/27 180/127/27 214/126/27
f 213/122/28 202/127/28 189/126/28
f 190/139/26 172/131/26 220/129/26
f 218/128/23 194/126/23 189/127/23
f 185/122/24 169/127/24 217/126/24
f 219/128/25 195/126/25 186/127/25
f 224/140/28 207/134/28 188/132/28
f 223/128/29 205/126/29 187/127/29
f 185/128/28 177/126/28 221/127/28
f 222/134/27 203/136/27 186/133/27
