# Blender v2.79 (sub 0) OBJ File: 'dropship.blend'
# www.blender.org
o Leg
v 0.437500 1.625000 0.125000
v 0.437500 1.875000 0.125000
v 0.437500 1.625000 -0.125000
v 0.437500 1.875000 -0.125000
v 0.687500 1.625000 0.125000
v 0.687500 1.875000 0.125000
v 0.687500 1.625000 -0.125000
v 0.687500 1.875000 -0.125000
v 0.468750 1.625000 0.093750
v 0.468750 1.625000 -0.093750
v 0.656250 1.625000 0.093750
v 0.656250 1.625000 -0.093750
v 0.968750 0.125000 0.093750
v 0.968750 0.125000 -0.093750
v 1.156250 0.125000 0.093750
v 1.156250 0.125000 -0.093750
v 0.937500 0.125000 0.125000
v 1.187500 0.125000 0.125000
v 0.937500 0.125000 -0.125000
v 1.187500 0.125000 -0.125000
v 0.937500 0.000000 -0.125000
v 0.937500 0.000000 0.125000
v 1.187500 0.000000 0.125000
v 1.187500 0.000000 -0.125000
vt 0.787879 0.581395
vt 0.727273 0.627907
vt 0.727273 0.581395
vt 0.772727 0.906977
vt 0.818182 0.627907
vt 0.818182 0.906977
vt 0.666667 0.581395
vt 0.666667 0.627907
vt 0.606061 0.581395
vt 0.606061 0.627907
vt 0.545455 0.581395
vt 0.606061 0.534884
vt 0.666667 0.534884
vt 0.606061 0.674419
vt 0.863636 0.906977
vt 0.909091 0.627907
vt 0.909091 0.906977
vt 0.727273 0.627907
vt 0.772727 0.627907
vt 0.863636 0.627907
vt 0.606061 0.488372
vt 0.666667 0.534884
vt 0.606061 0.534884
vt 0.666667 0.418605
vt 0.606061 0.465116
vt 0.606061 0.418605
vt 0.666667 0.488372
vt 0.727273 0.465116
vt 0.727273 0.488372
vt 0.545455 0.488372
vt 0.666667 0.465116
vt 0.787879 0.465116
vt 0.787879 0.488372
vt 0.787879 0.627907
vt 0.545455 0.627907
vt 0.666667 0.674419
vt 0.727273 0.906977
vt 0.545455 0.465116
vn -1.0000 0.0000 0.0000
vn 0.9487 0.3162 -0.0000
vn 0.0000 0.0000 -1.0000
vn 1.0000 0.0000 -0.0000
vn 0.0000 0.0000 1.0000
vn 0.0000 -1.0000 0.0000
vn 0.0000 1.0000 0.0000
vn -0.9487 -0.3162 0.0000
s off
f 1/1/1 4/2/1 3/3/1
f 11/4/2 16/5/2 12/6/2
f 4/2/3 7/7/3 3/3/3
f 8/8/4 5/9/4 7/7/4
f 6/10/5 1/11/5 5/9/5
f 7/7/6 1/12/6 3/13/6
f 8/8/7 2/14/7 6/10/7
f 10/15/8 13/16/8 9/17/8
f 11/4/5 13/18/5 15/19/5
f 12/6/3 14/20/3 10/15/3
f 18/21/7 19/22/7 17/23/7
f 21/24/6 23/25/6 22/26/6
f 20/27/3 21/28/3 19/29/3
f 17/30/5 23/25/5 18/21/5
f 18/21/4 24/31/4 20/27/4
f 19/29/1 22/32/1 17/33/1
f 1/1/1 2/34/1 4/2/1
f 11/4/2 15/19/2 16/5/2
f 4/2/3 8/8/3 7/7/3
f 8/8/4 6/10/4 5/9/4
f 6/10/5 2/35/5 1/11/5
f 7/7/6 5/9/6 1/12/6
f 8/8/7 4/36/7 2/14/7
f 10/15/8 14/20/8 13/16/8
f 11/4/5 9/37/5 13/18/5
f 12/6/3 16/5/3 14/20/3
f 18/21/7 20/27/7 19/22/7
f 21/24/6 24/31/6 23/25/6
f 20/27/3 24/31/3 21/28/3
f 17/30/5 22/38/5 23/25/5
f 18/21/4 23/25/4 24/31/4
f 19/29/1 21/28/1 22/32/1
o Pod
v 0.000000 1.250000 -0.500000
v -0.250000 1.250000 -0.433013
v -0.433013 1.250000 -0.250000
v -0.500000 1.250000 0.000000
v -0.433013 1.250000 0.250000
v -0.250000 1.250000 0.433013
v -0.000000 1.250000 0.500000
v 0.250000 1.250000 0.433013
v 0.433013 1.250000 0.250000
v 0.500000 1.250000 0.000000
v 0.433013 1.250000 -0.250000
v 0.250000 1.250000 -0.433013
v 0.000000 2.750000 -0.500000
v -0.250000 2.750000 -0.433013
v -0.433013 2.750000 -0.250000
v -0.500000 2.750000 0.000000
v -0.433013 2.750000 0.250000
v -0.250000 2.750000 0.433013
v -0.000000 2.750000 0.500000
v 0.250000 2.750000 0.433013
v 0.433013 2.750000 0.250000
v 0.500000 2.750000 0.000000
v 0.433013 2.750000 -0.250000
v 0.250000 2.750000 -0.433013
v 0.000000 4.250000 -0.375000
v -0.187500 4.250000 -0.324759
v -0.324760 4.250000 -0.187500
v -0.375000 4.250000 0.000000
v -0.324760 4.250000 0.187500
v -0.187500 4.250000 0.324760
v -0.000000 4.250000 0.375000
v 0.187500 4.250000 0.324760
v 0.324759 4.250000 0.187500
v 0.375000 4.250000 0.000000
v 0.324760 4.250000 -0.187500
v 0.187500 4.250000 -0.324759
v 0.187500 2.750000 -0.324759
v 0.324760 2.750000 -0.187500
v 0.375000 2.750000 0.000000
v 0.324759 2.750000 0.187500
v 0.187500 2.750000 0.324760
v -0.000000 2.750000 0.375000
v -0.187500 2.750000 0.324760
v -0.324760 2.750000 0.187500
v -0.375000 2.750000 0.000000
v -0.324760 2.750000 -0.187500
v -0.187500 2.750000 -0.324759
v 0.000000 2.750000 -0.375000
v 0.000000 4.250000 -0.500000
v -0.250000 4.250000 -0.433013
v -0.433013 4.250000 -0.250000
v -0.500000 4.250000 0.000000
v -0.433013 4.250000 0.250000
v -0.250000 4.250000 0.433013
v -0.000000 4.250000 0.500000
v 0.250000 4.250000 0.433013
v 0.433013 4.250000 0.250000
v 0.500000 4.250000 0.000000
v 0.433013 4.250000 -0.250000
v 0.250000 4.250000 -0.433013
v 0.000000 5.250000 -0.500000
v -0.250000 5.250000 -0.433013
v -0.433013 5.250000 -0.250000
v -0.500000 5.250000 0.000000
v -0.433013 5.250000 0.250000
v -0.250000 5.250000 0.433013
v -0.000000 5.250000 0.500000
v 0.250000 5.250000 0.433013
v 0.433013 5.250000 0.250000
v 0.500000 5.250000 0.000000
v 0.433013 5.250000 -0.250000
v 0.250000 5.250000 -0.433013
v -0.000000 5.750000 0.000000
v 0.240000 4.125000 0.062500
v 0.240000 2.875000 0.062500
v 0.240000 4.125000 -0.062500
v 0.240000 2.875000 -0.062500
v 0.740000 4.125000 -0.062500
v 0.740000 4.125000 0.062500
v 0.740000 2.875000 0.062500
v 0.740000 2.875000 -0.062500
v -0.240000 4.125000 -0.062500
v -0.240000 2.875000 -0.062500
v -0.240000 4.125000 0.062500
v -0.240000 2.875000 0.062500
v -0.740000 4.125000 0.062500
v -0.740000 4.125000 -0.062500
v -0.740000 2.875000 -0.062500
v -0.740000 2.875000 0.062500
v 0.062500 4.125000 -0.240000
v 0.062500 2.875000 -0.240000
v -0.062500 4.125000 -0.240000
v -0.062500 2.875000 -0.240000
v -0.062500 4.125000 -0.740000
v 0.062500 4.125000 -0.740000
v 0.062500 2.875000 -0.740000
v -0.062500 2.875000 -0.740000
v -0.062500 4.125000 0.240000
v -0.062500 2.875000 0.240000
v 0.062500 4.125000 0.240000
v 0.062500 2.875000 0.240000
v 0.062500 4.125000 0.740000
v -0.062500 4.125000 0.740000
v -0.062500 2.875000 0.740000
v 0.062500 2.875000 0.740000
v 0.213900 4.125000 -0.125511
v 0.213900 2.875000 -0.125511
v 0.125512 4.125000 -0.213900
v 0.125512 2.875000 -0.213900
v 0.479065 4.125000 -0.567453
v 0.567453 4.125000 -0.479065
v 0.567453 2.875000 -0.479065
v 0.479065 2.875000 -0.567453
v -0.213900 4.125000 0.125511
v -0.213900 2.875000 0.125511
v -0.125512 4.125000 0.213900
v -0.125512 2.875000 0.213900
v -0.479065 4.125000 0.567453
v -0.567453 4.125000 0.479065
v -0.567453 2.875000 0.479065
v -0.479065 2.875000 0.567453
v -0.125511 4.125000 -0.213900
v -0.125511 2.875000 -0.213900
v -0.213900 4.125000 -0.125512
v -0.213900 2.875000 -0.125512
v -0.567453 4.125000 -0.479065
v -0.479065 4.125000 -0.567453
v -0.479065 2.875000 -0.567453
v -0.567453 2.875000 -0.479065
v 0.125511 4.125000 0.213900
v 0.125511 2.875000 0.213900
v 0.213900 4.125000 0.125512
v 0.213900 2.875000 0.125512
v 0.567453 4.125000 0.479065
v 0.479065 4.125000 0.567453
v 0.479065 2.875000 0.567453
v 0.567453 2.875000 0.479065
v 0.000000 1.250000 -0.375000
v -0.187500 1.250000 -0.324759
v -0.324760 1.250000 -0.187500
v -0.375000 1.250000 0.000000
v -0.324760 1.250000 0.187500
v -0.187500 1.250000 0.324760
v -0.000000 1.250000 0.375000
v 0.187500 1.250000 0.324760
v 0.324759 1.250000 0.187500
v 0.375000 1.250000 0.000000
v 0.324760 1.250000 -0.187500
v 0.187500 1.250000 -0.324759
v 0.000000 0.750000 -0.375000
v -0.187500 0.750000 -0.324759
v -0.324760 0.750000 -0.187500
v -0.375000 0.750000 0.000000
v -0.324760 0.750000 0.187500
v -0.187500 0.750000 0.324760
v -0.000000 0.750000 0.375000
v 0.187500 0.750000 0.324760
v 0.324759 0.750000 0.187500
v 0.375000 0.750000 0.000000
v 0.324760 0.750000 -0.187500
v 0.187500 0.750000 -0.324759
vt 0.863593 0.130130
vt 0.727359 0.069767
vt 0.863593 0.009405
vt 0.424242 0.720930
vt 0.477273 0.697674
vt 0.484848 0.720930
vt 0.537879 0.697674
vt 0.545455 0.720930
vt 0.553030 0.697674
vt 0.606061 0.720930
vt 0.613636 0.697674
vt 0.666667 0.720930
vt 0.674242 0.697674
vt 0.727273 0.720930
vt 0.007576 0.697674
vt 0.060606 0.720930
vt 0.000000 0.720930
vt 0.068182 0.697674
vt 0.121212 0.720930
vt 0.128788 0.697674
vt 0.181818 0.720930
vt 0.189394 0.697674
vt 0.242424 0.720930
vt 0.295455 0.697674
vt 0.303030 0.720930
vt 0.356061 0.697674
vt 0.363636 0.720930
vt 0.416667 0.697674
vt 0.363636 0.395349
vt 0.416667 0.418605
vt 0.371212 0.418605
vt 0.424242 0.395349
vt 0.477273 0.418605
vt 0.431818 0.418605
vt 0.484848 0.395349
vt 0.537879 0.418605
vt 0.492424 0.418605
vt 0.606061 0.395349
vt 0.553030 0.418605
vt 0.545455 0.395349
vt 0.666667 0.395349
vt 0.613636 0.418605
vt 0.727273 0.395349
vt 0.674242 0.418605
vt 0.060606 0.395349
vt 0.007576 0.418605
vt 0.000000 0.395349
vt 0.121212 0.395349
vt 0.068182 0.418605
vt 0.181818 0.395349
vt 0.128788 0.418605
vt 0.242424 0.395349
vt 0.189394 0.418605
vt 0.295455 0.418605
vt 0.250000 0.418605
vt 0.303030 0.395349
vt 0.356061 0.418605
vt 0.310606 0.418605
vt 0.848485 0.232558
vt 0.878788 0.465116
vt 0.848485 0.465116
vt 0.848485 0.232558
vt 0.878788 0.465116
vt 0.848485 0.465116
vt 0.878788 0.139535
vt 0.848485 0.139535
vt 0.848485 0.558140
vt 0.878788 0.558140
vt 1.000000 0.465116
vt 0.878788 0.232558
vt 1.000000 0.232558
vt 0.727273 0.232558
vt 0.727273 0.465116
vt 0.878788 0.139535
vt 0.848485 0.139535
vt 0.848485 0.558140
vt 0.878788 0.558140
vt 1.000000 0.465116
vt 0.878788 0.232558
vt 1.000000 0.232558
vt 0.727273 0.232558
vt 0.727273 0.465116
vt 0.848485 0.232558
vt 0.878788 0.465116
vt 0.848485 0.465116
vt 0.848485 0.232558
vt 0.878788 0.465116
vt 0.848485 0.465116
vt 0.878788 0.139535
vt 0.848485 0.139535
vt 0.848485 0.558140
vt 0.878788 0.558140
vt 1.000000 0.465116
vt 0.878788 0.232558
vt 1.000000 0.232558
vt 0.727273 0.232558
vt 0.727273 0.465116
vt 0.878788 0.139535
vt 0.848485 0.139535
vt 0.848485 0.558140
vt 0.878788 0.558140
vt 1.000000 0.465116
vt 0.878788 0.232558
vt 1.000000 0.232558
vt 0.727273 0.232558
vt 0.727273 0.465116
vt 0.848485 0.232558
vt 0.878788 0.465116
vt 0.848485 0.465116
vt 0.848485 0.232558
vt 0.878788 0.465116
vt 0.848485 0.465116
vt 0.878788 0.139535
vt 0.848485 0.139535
vt 0.848485 0.558140
vt 0.878788 0.558140
vt 1.000000 0.465116
vt 0.878788 0.232558
vt 1.000000 0.232558
vt 0.727273 0.232558
vt 0.727273 0.465116
vt 0.848485 0.139535
vt 0.878788 0.232558
vt 0.878788 0.558140
vt 1.000000 0.465116
vt 1.000000 0.232558
vt 0.727273 0.232558
vt 0.727273 0.465116
vt 0.848485 0.232558
vt 0.878788 0.465116
vt 0.848485 0.465116
vt 0.848485 0.232558
vt 0.878788 0.465116
vt 0.848485 0.465116
vt 0.848485 0.139535
vt 0.878788 0.232558
vt 0.848485 0.558140
vt 0.878788 0.558140
vt 1.000000 0.465116
vt 1.000000 0.232558
vt 0.727273 0.232558
vt 0.727273 0.465116
vt 0.878788 0.139535
vt 0.848485 0.139535
vt 0.878788 0.558140
vt 1.000000 0.465116
vt 0.878788 0.232558
vt 1.000000 0.232558
vt 0.727273 0.232558
vt 0.727273 0.465116
vt 0.303030 0.116279
vt 0.356061 0.093023
vt 0.363636 0.116279
vt 0.416667 0.093023
vt 0.424242 0.116279
vt 0.477273 0.093023
vt 0.484848 0.116279
vt 0.537879 0.093023
vt 0.545455 0.116279
vt 0.553030 0.093023
vt 0.606061 0.116279
vt 0.613636 0.093023
vt 0.666667 0.116279
vt 0.674242 0.093023
vt 0.727273 0.116279
vt 0.007576 0.093023
vt 0.060606 0.116279
vt -0.000000 0.116279
vt 0.068182 0.093023
vt 0.121212 0.116279
vt 0.128788 0.093023
vt 0.181818 0.116279
vt 0.189394 0.093023
vt 0.242424 0.116279
vt 0.295455 0.093023
vt 0.896837 0.034917
vt 0.909004 0.069767
vt 0.896837 0.104618
vt 0.818182 0.139468
vt 0.772771 0.130130
vt 0.739527 0.104618
vt 0.739527 0.034917
vt 0.772771 0.009405
vt 0.818182 0.000066
vt 0.431818 0.697674
vt 0.492424 0.697674
vt 0.598485 0.697674
vt 0.659091 0.697674
vt 0.719697 0.697674
vt 0.053030 0.697674
vt 0.113636 0.697674
vt 0.174242 0.697674
vt 0.234848 0.697674
vt 0.250000 0.697674
vt 0.310606 0.697674
vt 0.371212 0.697674
vt 0.598485 0.418605
vt 0.659091 0.418605
vt 0.719697 0.418605
vt 0.053030 0.418605
vt 0.113636 0.418605
vt 0.174242 0.418605
vt 0.234848 0.418605
vt 0.878788 0.139535
vt 0.848485 0.558140
vt 0.878788 0.139535
vt 0.848485 0.558140
vt 0.310606 0.093023
vt 0.371212 0.093023
vt 0.431818 0.093023
vt 0.492424 0.093023
vt 0.598485 0.093023
vt 0.659091 0.093023
vt 0.719697 0.093023
vt 0.053030 0.093023
vt 0.113636 0.093023
vt 0.174242 0.093023
vt 0.234848 0.093023
vt 0.250000 0.093023
vt 0.409091 0.418605
vt 0.363636 0.697674
vt 0.363636 0.418605
vt 0.500000 0.418605
vt 0.454545 0.697674
vt 0.454545 0.418605
vt 0.272727 0.418605
vt 0.227273 0.697674
vt 0.227273 0.418605
vt 0.136364 0.418605
vt 0.090909 0.697674
vt 0.090909 0.418605
vt 0.545455 0.418605
vt 0.500000 0.697674
vt 0.318182 0.418605
vt 0.272727 0.697674
vt 0.181818 0.418605
vt 0.136364 0.697674
vt 0.045455 0.418605
vt 0.000000 0.697674
vt 0.000000 0.418605
vt 0.318182 0.697674
vt 0.409091 0.697674
vt 0.181818 0.697674
vt 0.045455 0.697674
vt 0.303030 0.906977
vt 0.121212 0.906977
vt 0.666667 0.906977
vt 0.363636 0.906977
vt 0.181818 0.906977
vt -0.000000 0.906977
vt 0.424242 0.906977
vt 0.545455 0.906977
vt 0.242424 0.906977
vt 0.060606 0.906977
vt 0.484848 0.906977
vt 0.606061 0.906977
vt 0.636364 1.000000
vt 0.727273 0.906977
vt 0.696970 1.000000
vt 0.030303 1.000000
vt 0.090909 1.000000
vt 0.151515 1.000000
vt 0.212121 1.000000
vt 0.272727 1.000000
vt 0.333333 1.000000
vt 0.393939 1.000000
vt 0.454545 1.000000
vt 0.515152 1.000000
vt 0.575758 1.000000
vt 0.227273 0.093023
vt 0.272727 0.000000
vt 0.272727 0.093023
vt 0.090909 0.093023
vt 0.136364 0.000000
vt 0.136364 0.093023
vt 0.500000 0.093023
vt 0.545455 0.000000
vt 0.545455 0.093023
vt 0.318182 0.000000
vt 0.318182 0.093023
vt 0.181818 0.000000
vt 0.181818 0.093023
vt 0.000000 0.093023
vt 0.045455 0.000000
vt 0.045455 0.093023
vt 0.363636 0.000000
vt 0.363636 0.093023
vt 0.409091 0.093023
vt 0.454545 0.000000
vt 0.454545 0.093023
vt 0.227273 0.000000
vt 0.090909 0.000000
vt 0.409091 0.000000
vt 0.500000 0.000000
vt 0.545455 0.697674
vt 0.000000 0.000000
vn 0.0000 -1.0000 -0.0000
vn 0.0000 1.0000 0.0000
vn -1.0000 0.0000 0.0000
vn 1.0000 0.0000 0.0000
vn 0.0000 0.0000 -1.0000
vn 0.0000 0.0000 1.0000
vn -0.7071 0.0000 0.7071
vn 0.7071 0.0000 -0.7071
vn -0.7071 0.0000 -0.7071
vn 0.7071 0.0000 0.7071
vn -0.5000 0.0000 0.8660
vn -0.8660 0.0000 0.5000
vn 0.5000 0.0000 -0.8660
vn -0.8660 0.0000 -0.5000
vn -0.5000 0.0000 -0.8660
vn 0.8660 0.0000 0.5000
vn 0.8660 0.0000 -0.5000
vn 0.5000 0.0000 0.8660
vn -0.3536 0.7071 -0.6124
vn -0.6124 0.7071 -0.3536
vn -0.7071 0.7071 -0.0000
vn -0.6124 0.7071 0.3536
vn -0.3536 0.7071 0.6124
vn -0.0000 0.7071 0.7071
vn 0.3536 0.7071 0.6124
vn 0.6124 0.7071 0.3536
vn 0.7071 0.7071 0.0000
vn 0.6124 0.7071 -0.3536
vn 0.3536 0.7071 -0.6124
vn 0.0000 0.7071 -0.7071
s off
f 184/39/9 180/40/9 176/41/9
f 83/42/9 60/43/9 84/44/9
f 84/44/9 49/45/9 73/46/9
f 49/47/9 74/48/9 73/46/9
f 50/49/9 75/50/9 74/48/9
f 51/51/9 76/52/9 75/50/9
f 52/53/9 77/54/9 76/55/9
f 53/56/9 78/57/9 77/54/9
f 54/58/9 79/59/9 78/57/9
f 55/60/9 80/61/9 79/59/9
f 80/61/9 57/62/9 81/63/9
f 81/63/9 58/64/9 82/65/9
f 82/65/9 59/66/9 83/42/9
f 46/67/10 62/68/10 63/69/10
f 47/70/10 61/71/10 62/72/10
f 48/73/10 72/74/10 61/75/10
f 38/76/10 72/77/10 37/78/10
f 39/79/10 71/80/10 38/76/10
f 40/81/10 70/82/10 39/79/10
f 41/83/10 69/84/10 40/85/10
f 42/86/10 68/87/10 41/83/10
f 43/88/10 67/89/10 42/86/10
f 44/90/10 66/91/10 43/88/10
f 44/90/10 64/92/10 65/93/10
f 45/94/10 63/95/10 64/96/10
f 112/97/11 110/98/11 111/99/11
f 104/100/12 102/101/12 103/102/12
f 101/103/9 104/100/9 99/104/9
f 98/105/10 102/101/10 100/106/10
f 100/107/13 105/108/13 101/109/13
f 99/110/14 103/102/14 98/111/14
f 109/112/9 112/97/9 107/113/9
f 106/114/10 110/98/10 108/115/10
f 108/116/14 113/117/14 109/118/14
f 107/119/13 111/99/13 106/120/13
f 128/121/14 126/122/14 127/123/14
f 120/124/13 118/125/13 119/126/13
f 117/127/9 120/124/9 115/128/9
f 114/129/10 118/125/10 116/130/10
f 116/131/11 121/132/11 117/133/11
f 115/134/12 119/126/12 114/135/12
f 125/136/9 128/121/9 123/137/9
f 122/138/10 126/122/10 124/139/10
f 124/140/12 129/141/12 125/142/12
f 123/143/11 127/123/11 122/144/11
f 144/145/15 142/146/15 143/147/15
f 136/148/16 134/149/16 135/150/16
f 133/151/9 136/148/9 131/152/9
f 130/153/10 134/149/10 132/154/10
f 132/155/17 137/156/17 133/157/17
f 131/158/18 135/150/18 130/159/18
f 139/160/9 145/161/9 144/145/9
f 140/162/10 143/147/10 142/146/10
f 140/163/18 145/161/18 141/164/18
f 139/165/17 143/147/17 138/166/17
f 160/167/18 158/168/18 159/169/18
f 152/170/17 150/171/17 151/172/17
f 147/173/9 153/174/9 152/170/9
f 146/175/10 150/171/10 148/176/10
f 148/177/15 153/174/15 149/178/15
f 147/179/16 151/172/16 146/180/16
f 157/181/9 160/167/9 155/182/9
f 156/183/10 159/169/10 158/168/10
f 156/184/16 161/185/16 157/186/16
f 155/187/15 159/169/15 154/188/15
f 33/189/9 171/190/9 34/191/9
f 34/191/9 172/192/9 35/193/9
f 35/193/9 173/194/9 36/195/9
f 36/195/9 162/196/9 25/197/9
f 162/198/9 26/199/9 25/197/9
f 163/200/9 27/201/9 26/199/9
f 164/202/9 28/203/9 27/201/9
f 165/204/9 29/205/9 28/206/9
f 166/207/9 30/208/9 29/205/9
f 167/209/9 31/210/9 30/208/9
f 168/211/9 32/212/9 31/210/9
f 32/212/9 170/213/9 33/189/9
f 176/41/9 175/214/9 184/39/9
f 175/214/9 174/215/9 184/39/9
f 174/215/9 185/216/9 184/39/9
f 184/39/9 183/217/9 182/218/9
f 182/218/9 181/219/9 180/40/9
f 180/40/9 179/220/9 178/221/9
f 178/221/9 177/222/9 176/41/9
f 184/39/9 182/218/9 180/40/9
f 180/40/9 178/221/9 176/41/9
f 83/42/9 59/223/9 60/43/9
f 84/44/9 60/224/9 49/45/9
f 49/47/9 50/225/9 74/48/9
f 50/49/9 51/226/9 75/50/9
f 51/51/9 52/227/9 76/52/9
f 52/53/9 53/228/9 77/54/9
f 53/56/9 54/229/9 78/57/9
f 54/58/9 55/230/9 79/59/9
f 55/60/9 56/231/9 80/61/9
f 80/61/9 56/232/9 57/62/9
f 81/63/9 57/233/9 58/64/9
f 82/65/9 58/234/9 59/66/9
f 46/67/10 47/70/10 62/68/10
f 47/70/10 48/73/10 61/71/10
f 48/73/10 37/78/10 72/74/10
f 38/76/10 71/235/10 72/77/10
f 39/79/10 70/236/10 71/80/10
f 40/81/10 69/237/10 70/82/10
f 41/83/10 68/238/10 69/84/10
f 42/86/10 67/239/10 68/87/10
f 43/88/10 66/240/10 67/89/10
f 44/90/10 65/241/10 66/91/10
f 44/90/10 45/94/10 64/92/10
f 45/94/10 46/67/10 63/95/10
f 112/97/11 113/117/11 110/98/11
f 104/100/12 105/108/12 102/101/12
f 101/103/9 105/108/9 104/100/9
f 98/105/10 103/102/10 102/101/10
f 100/107/13 102/101/13 105/108/13
f 99/110/14 104/100/14 103/102/14
f 109/112/9 113/117/9 112/97/9
f 106/114/10 111/99/10 110/98/10
f 108/116/14 110/98/14 113/117/14
f 107/119/13 112/97/13 111/99/13
f 128/121/14 129/141/14 126/122/14
f 120/124/13 121/132/13 118/125/13
f 117/127/9 121/132/9 120/124/9
f 114/129/10 119/126/10 118/125/10
f 116/131/11 118/125/11 121/132/11
f 115/134/12 120/124/12 119/126/12
f 125/136/9 129/141/9 128/121/9
f 122/138/10 127/123/10 126/122/10
f 124/140/12 126/122/12 129/141/12
f 123/143/11 128/121/11 127/123/11
f 144/145/15 145/161/15 142/146/15
f 136/148/16 137/156/16 134/149/16
f 133/151/9 137/156/9 136/148/9
f 130/153/10 135/150/10 134/149/10
f 132/155/17 134/149/17 137/156/17
f 131/158/18 136/148/18 135/150/18
f 139/160/9 141/242/9 145/161/9
f 140/162/10 138/243/10 143/147/10
f 140/163/18 142/146/18 145/161/18
f 139/165/17 144/145/17 143/147/17
f 160/167/18 161/185/18 158/168/18
f 152/170/17 153/174/17 150/171/17
f 147/173/9 149/244/9 153/174/9
f 146/175/10 151/172/10 150/171/10
f 148/177/15 150/171/15 153/174/15
f 147/179/16 152/170/16 151/172/16
f 157/181/9 161/185/9 160/167/9
f 156/183/10 154/245/10 159/169/10
f 156/184/16 158/168/16 161/185/16
f 155/187/15 160/167/15 159/169/15
f 33/189/9 170/246/9 171/190/9
f 34/191/9 171/247/9 172/192/9
f 35/193/9 172/248/9 173/194/9
f 36/195/9 173/249/9 162/196/9
f 162/198/9 163/250/9 26/199/9
f 163/200/9 164/251/9 27/201/9
f 164/202/9 165/252/9 28/203/9
f 165/204/9 166/253/9 29/205/9
f 166/207/9 167/254/9 30/208/9
f 167/209/9 168/255/9 31/210/9
f 168/211/9 169/256/9 32/212/9
f 32/212/9 169/257/9 170/213/9
s 1
f 30/208/19 41/83/20 29/205/20
f 25/197/13 48/73/21 36/195/21
f 27/201/22 38/76/23 26/199/23
f 34/191/12 45/94/24 33/189/24
f 31/210/14 42/86/19 30/208/19
f 28/203/11 39/79/22 27/201/22
f 35/193/25 46/67/12 34/191/12
f 32/212/26 43/88/14 31/210/14
f 29/205/20 40/85/11 28/206/11
f 36/195/21 47/70/25 35/193/25
f 26/199/23 37/78/13 25/197/13
f 33/189/24 44/90/26 32/212/26
f 72/258/13 60/259/21 61/260/21
f 70/261/22 50/262/23 71/263/23
f 63/264/12 57/265/24 64/266/24
f 66/267/14 54/268/19 67/269/19
f 69/270/11 51/271/22 70/261/22
f 62/272/25 58/273/12 63/264/12
f 65/274/26 55/275/14 66/267/14
f 68/276/20 52/277/11 69/278/11
f 61/260/21 59/279/25 62/272/25
f 71/263/23 49/280/13 72/258/13
f 64/266/24 56/281/26 65/274/26
f 67/269/19 53/282/20 68/276/20
f 82/65/12 93/283/24 81/63/24
f 79/59/14 90/284/19 78/57/19
f 76/52/11 87/285/22 75/50/22
f 83/42/25 94/286/12 82/65/12
f 80/61/26 91/287/14 79/59/14
f 77/54/20 88/288/11 76/55/11
f 84/44/21 95/289/25 83/42/25
f 74/48/23 85/290/13 73/46/13
f 81/63/24 92/291/26 80/61/26
f 78/57/19 89/292/20 77/54/20
f 73/46/13 96/293/21 84/44/21
f 75/50/22 86/294/23 74/48/23
f 86/294/27 87/285/28 97/295/10
f 87/285/28 88/296/29 97/297/10
f 88/288/29 89/292/30 97/298/10
f 89/292/30 90/284/31 97/299/10
f 90/284/31 91/287/32 97/300/10
f 91/287/32 92/291/33 97/301/10
f 92/291/33 93/283/34 97/302/10
f 93/283/34 94/286/35 97/303/10
f 94/286/35 95/289/36 97/304/10
f 95/289/36 96/293/37 97/305/10
f 96/293/37 85/290/38 97/306/10
f 85/290/38 86/294/27 97/307/10
f 170/308/24 183/309/12 171/310/12
f 167/311/19 180/312/14 168/313/14
f 164/314/22 177/315/11 165/316/11
f 171/310/12 184/317/25 172/318/25
f 168/313/14 181/319/26 169/320/26
f 165/321/11 178/322/20 166/323/20
f 172/318/25 185/324/21 173/325/21
f 162/326/13 175/327/23 163/328/23
f 169/320/26 182/329/24 170/308/24
f 166/323/20 179/330/19 167/311/19
f 173/325/21 174/331/13 162/326/13
f 163/328/23 176/332/22 164/314/22
f 30/208/19 42/86/19 41/83/20
f 25/197/13 37/78/13 48/73/21
f 27/201/22 39/79/22 38/76/23
f 34/191/12 46/67/12 45/94/24
f 31/210/14 43/88/14 42/86/19
f 28/203/11 40/81/11 39/79/22
f 35/193/25 47/70/25 46/67/12
f 32/212/26 44/90/26 43/88/14
f 29/205/20 41/83/20 40/85/11
f 36/195/21 48/73/21 47/70/25
f 26/199/23 38/76/23 37/78/13
f 33/189/24 45/94/24 44/90/26
f 72/258/13 49/280/13 60/259/21
f 70/261/22 51/271/22 50/262/23
f 63/264/12 58/273/12 57/265/24
f 66/267/14 55/275/14 54/268/19
f 69/270/11 52/333/11 51/271/22
f 62/272/25 59/279/25 58/273/12
f 65/274/26 56/281/26 55/275/14
f 68/276/20 53/282/20 52/277/11
f 61/260/21 60/259/21 59/279/25
f 71/263/23 50/262/23 49/280/13
f 64/266/24 57/265/24 56/281/26
f 67/269/19 54/268/19 53/282/20
f 82/65/12 94/286/12 93/283/24
f 79/59/14 91/287/14 90/284/19
f 76/52/11 88/296/11 87/285/22
f 83/42/25 95/289/25 94/286/12
f 80/61/26 92/291/26 91/287/14
f 77/54/20 89/292/20 88/288/11
f 84/44/21 96/293/21 95/289/25
f 74/48/23 86/294/23 85/290/13
f 81/63/24 93/283/24 92/291/26
f 78/57/19 90/284/19 89/292/20
f 73/46/13 85/290/13 96/293/21
f 75/50/22 87/285/22 86/294/23
f 170/308/24 182/329/24 183/309/12
f 167/311/19 179/330/19 180/312/14
f 164/314/22 176/332/22 177/315/11
f 171/310/12 183/309/12 184/317/25
f 168/313/14 180/312/14 181/319/26
f 165/321/11 177/334/11 178/322/20
f 172/318/25 184/317/25 185/324/21
f 162/326/13 174/331/13 175/327/23
f 169/320/26 181/319/26 182/329/24
f 166/323/20 178/322/20 179/330/19
f 173/325/21 185/324/21 174/331/13
f 163/328/23 175/327/23 176/332/22
