# Blender v2.76 (sub 0) OBJ File: 'emp.blend'
# www.blender.org
o Rotor
v -0.250000 1.250000 0.562500
v -0.250000 2.750000 0.562500
v -0.250000 1.250000 0.437500
v -0.250000 2.750000 0.437500
v 0.250000 1.250000 0.562500
v 0.250000 2.750000 0.562500
v 0.250000 1.250000 0.437500
v 0.250000 2.750000 0.437500
v -0.062500 1.437500 0.437500
v 0.062500 1.437500 0.437500
v -0.062500 1.312500 0.437500
v 0.062500 1.312500 0.437500
v 0.062500 1.437500 0.062500
v -0.062500 1.437500 0.062500
v 0.062500 1.312500 0.062500
v -0.062500 1.312500 0.062500
v -0.062500 2.687500 0.437500
v 0.062500 2.687500 0.437500
v -0.062500 2.562500 0.437500
v 0.062500 2.562500 0.437500
v 0.062500 2.687500 0.062500
v -0.062500 2.687500 0.062500
v 0.062500 2.562500 0.062500
v -0.062500 2.562500 0.062500
vt 0.944444 0.307692
vt 0.944444 -0.000000
vt 1.000000 0.000000
vt 0.722222 0.307692
vt 0.722222 -0.000000
vt 0.944444 0.333333
vt 0.722222 0.333333
vt 0.444444 0.128205
vt 0.611111 0.128205
vt 0.611111 0.153846
vt 1.000000 0.307692
vt 0.444444 0.153846
vn -1.000000 0.000000 0.000000
vn 0.000000 0.000000 -1.000000
vn 1.000000 0.000000 0.000000
vn 0.000000 0.000000 1.000000
vn 0.000000 -1.000000 0.000000
vn 0.000000 1.000000 0.000000
s off
f 4/1/1 3/2/1 1/3/1
f 8/4/2 7/5/2 3/2/2
f 6/1/3 5/2/3 7/3/3
f 2/4/4 1/5/4 5/2/4
f 3/4/5 7/1/5 5/6/5
f 8/6/6 4/7/6 2/4/6
f 19/8/5 24/9/5 23/10/5
f 17/8/1 22/9/1 24/10/1
f 9/8/1 14/9/1 16/10/1
f 11/8/5 16/9/5 15/10/5
f 12/8/3 15/9/3 13/10/3
f 10/8/6 13/9/6 14/10/6
f 20/8/3 23/9/3 21/10/3
f 18/8/6 21/9/6 22/10/6
f 2/11/1 4/1/1 1/3/1
f 4/1/2 8/4/2 3/2/2
f 8/11/3 6/1/3 7/3/3
f 6/1/4 2/4/4 5/2/4
f 1/7/5 3/4/5 5/6/5
f 6/1/6 8/6/6 2/4/6
f 20/12/5 19/8/5 23/10/5
f 19/12/1 17/8/1 24/10/1
f 11/12/1 9/8/1 16/10/1
f 12/12/5 11/8/5 15/10/5
f 10/12/3 12/8/3 13/10/3
f 9/12/6 10/8/6 14/10/6
f 18/12/3 20/8/3 21/10/3
f 17/12/6 18/8/6 22/10/6
o Body
v -0.500000 0.000000 0.500000
v -0.500000 0.125000 0.500000
v -0.500000 0.000000 -0.500000
v -0.500000 0.125000 -0.500000
v 0.500000 0.000000 0.500000
v 0.500000 0.125000 0.500000
v 0.500000 0.000000 -0.500000
v 0.500000 0.125000 -0.500000
v -0.375000 1.000000 0.375000
v -0.375000 1.000000 -0.375000
v 0.375000 1.000000 0.375000
v 0.375000 1.000000 -0.375000
v -0.375000 0.125000 0.375000
v -0.375000 0.125000 -0.375000
v 0.375000 0.125000 -0.375000
v 0.375000 0.125000 0.375000
v -0.125000 1.250000 0.125000
v 0.125000 1.250000 0.125000
v -0.125000 1.250000 -0.125000
v 0.125000 1.250000 -0.125000
v -0.125000 1.500000 -0.125000
v -0.125000 1.500000 0.125000
v 0.125000 1.500000 0.125000
v 0.125000 1.500000 -0.125000
v -0.187500 1.500000 -0.187500
v -0.187500 1.500000 0.187500
v 0.187500 1.500000 0.187500
v 0.187500 1.500000 -0.187500
v -0.187500 2.500000 -0.187500
v -0.187500 2.500000 0.187500
v 0.187500 2.500000 0.187500
v 0.187500 2.500000 -0.187500
v -0.125000 2.500000 -0.125000
v -0.125000 2.500000 0.125000
v 0.125000 2.500000 0.125000
v 0.125000 2.500000 -0.125000
v -0.125000 2.750000 -0.125000
v -0.125000 2.750000 0.125000
v 0.125000 2.750000 0.125000
v 0.125000 2.750000 -0.125000
v -0.500000 0.687500 0.187500
v -0.500000 0.312500 0.187500
v -0.500000 0.687500 -0.187500
v -0.500000 0.312500 -0.187500
v -0.375000 0.687500 -0.187500
v -0.375000 0.687500 0.187500
v -0.375000 0.312500 0.187500
v -0.375000 0.312500 -0.187500
v 0.375000 0.687500 0.187500
v 0.375000 0.312500 0.187500
v 0.375000 0.687500 -0.187500
v 0.375000 0.312500 -0.187500
v 0.500000 0.687500 -0.187500
v 0.500000 0.687500 0.187500
v 0.500000 0.312500 0.187500
v 0.500000 0.312500 -0.187500
v 0.187500 0.687500 0.500000
v 0.187500 0.312500 0.500000
v -0.187500 0.687500 0.500000
v -0.187500 0.312500 0.500000
v -0.187500 0.687500 0.375000
v 0.187500 0.687500 0.375000
v 0.187500 0.312500 0.375000
v -0.187500 0.312500 0.375000
v 0.187500 0.687500 -0.375000
v 0.187500 0.312500 -0.375000
v -0.187500 0.687500 -0.375000
v -0.187500 0.312500 -0.375000
v -0.187500 0.687500 -0.500000
v 0.187500 0.687500 -0.500000
v 0.187500 0.312500 -0.500000
v -0.187500 0.312500 -0.500000
vt 0.000000 0.230769
vt 0.000000 0.205128
vt 0.444444 0.205128
vt 0.000000 -0.000000
vt 0.444444 0.000000
vt 0.277778 0.487179
vt 0.166667 0.487179
vt 0.055556 0.410256
vt 0.055556 0.243590
vt 0.388889 0.243590
vt 0.055556 0.230769
vt 0.388889 0.230769
vt 0.277778 0.538462
vt 0.166667 0.538462
vt 0.138889 0.538462
vt 0.305556 0.538462
vt 0.305556 0.615385
vt 0.305556 0.820513
vt 0.305556 0.897436
vt 0.138889 0.897436
vt 0.138889 0.820513
vt 0.277778 0.948718
vt 0.277778 1.000000
vt 0.166667 1.000000
vt 0.277778 0.897436
vt 0.166667 0.948718
vt 0.500000 0.102564
vt 0.500000 0.025641
vt 0.666667 0.025641
vt 0.444444 0.025641
vt 0.722222 0.025641
vt 0.722222 0.102564
vt 0.500000 0.000000
vt 0.666667 0.000000
vt 0.666667 0.102564
vt 0.666667 0.128205
vt 0.500000 0.128205
vt 0.444444 0.102564
vt 0.444444 0.230769
vt 0.388889 0.410256
vt 0.138889 0.615385
vt 0.166667 0.897436
vn -1.000000 0.000000 0.000000
vn 0.000000 0.000000 -1.000000
vn 1.000000 0.000000 0.000000
vn 0.000000 0.000000 1.000000
vn 0.000000 -1.000000 0.000000
vn 0.000000 1.000000 0.000000
vn 0.000000 0.707100 0.707100
vn 0.707100 0.707100 0.000000
vn 0.000000 0.707100 -0.707100
vn -0.707100 0.707100 0.000000
s off
f 28/13/7 27/14/7 25/15/7
f 32/13/8 31/14/8 27/15/8
f 30/13/9 29/14/9 31/15/9
f 26/13/10 25/14/10 29/15/10
f 27/14/11 31/16/11 29/17/11
f 32/17/12 28/15/12 26/14/12
f 42/18/13 41/19/13 33/20/13
f 33/20/10 37/21/10 40/22/10
f 36/20/8 39/21/8 38/22/8
f 35/20/9 40/23/9 39/24/9
f 34/20/7 38/23/7 37/24/7
f 44/18/9 48/25/9 47/26/9
f 41/18/7 46/25/7 45/26/7
f 43/18/8 45/25/8 48/26/8
f 42/18/10 47/25/10 46/26/10
f 49/27/11 52/28/11 51/29/11
f 55/30/12 56/31/12 53/32/12
f 49/29/8 53/30/8 56/33/8
f 51/29/10 55/30/10 54/33/10
f 52/29/9 56/30/9 55/33/9
f 50/29/7 54/30/7 53/33/7
f 63/34/12 64/35/12 61/36/12
f 60/37/9 64/34/9 63/38/9
f 58/37/7 62/34/7 61/38/7
f 57/37/8 61/34/8 64/38/8
f 59/37/10 63/34/10 62/38/10
f 67/39/7 68/40/7 66/41/7
f 74/42/10 79/40/10 78/39/10
f 66/41/10 71/43/10 70/44/10
f 68/40/11 72/45/11 71/46/11
f 65/47/12 70/48/12 69/49/12
f 67/39/8 69/50/8 72/42/8
f 76/46/11 80/41/11 79/40/11
f 73/49/12 78/39/12 77/47/12
f 75/44/8 77/47/8 80/41/8
f 78/39/9 79/40/9 80/41/9
f 83/39/10 84/40/10 82/41/10
f 90/42/9 95/40/9 94/39/9
f 82/41/9 87/43/9 86/44/9
f 82/41/11 84/40/11 88/45/11
f 81/47/12 86/48/12 85/49/12
f 83/39/7 85/50/7 88/42/7
f 90/45/11 92/46/11 96/41/11
f 89/49/12 94/39/12 93/47/12
f 91/44/7 93/47/7 96/41/7
f 94/39/8 95/40/8 96/41/8
f 44/18/14 42/19/14 35/20/14
f 43/18/15 44/19/15 36/20/15
f 41/18/16 43/19/16 34/20/16
f 26/51/7 28/13/7 25/15/7
f 28/51/8 32/13/8 27/15/8
f 32/51/9 30/13/9 31/15/9
f 30/51/10 26/13/10 29/15/10
f 25/15/11 27/14/11 29/17/11
f 30/16/12 32/17/12 26/14/12
f 35/52/13 42/18/13 33/20/13
f 35/52/10 33/20/10 40/22/10
f 34/52/8 36/20/8 38/22/8
f 36/52/9 35/20/9 39/24/9
f 33/52/7 34/20/7 37/24/7
f 42/19/9 44/18/9 47/26/9
f 43/19/7 41/18/7 45/26/7
f 44/19/8 43/18/8 48/26/8
f 41/19/10 42/18/10 46/26/10
f 50/53/11 49/27/11 51/29/11
f 54/33/12 55/30/12 53/32/12
f 52/53/8 49/29/8 56/33/8
f 50/53/10 51/29/10 54/33/10
f 51/53/9 52/29/9 55/33/9
f 49/53/7 50/29/7 53/33/7
f 62/38/12 63/34/12 61/36/12
f 59/54/9 60/37/9 63/38/9
f 57/54/7 58/37/7 61/38/7
f 60/54/8 57/37/8 64/38/8
f 58/54/10 59/37/10 62/38/10
f 65/47/7 67/39/7 66/41/7
f 73/50/10 74/42/10 78/39/10
f 65/47/10 66/41/10 70/44/10
f 66/41/11 68/40/11 71/46/11
f 67/39/12 65/47/12 69/49/12
f 68/40/8 67/39/8 72/42/8
f 74/45/11 76/46/11 79/40/11
f 75/48/12 73/49/12 77/47/12
f 76/43/8 75/44/8 80/41/8
f 77/47/9 78/39/9 80/41/9
f 81/47/10 83/39/10 82/41/10
f 89/50/9 90/42/9 94/39/9
f 81/47/9 82/41/9 86/44/9
f 87/46/11 82/41/11 88/45/11
f 83/39/12 81/47/12 85/49/12
f 84/40/7 83/39/7 88/42/7
f 95/40/11 90/45/11 96/41/11
f 91/48/12 89/49/12 93/47/12
f 92/43/7 91/44/7 96/41/7
f 93/47/8 94/39/8 96/41/8
f 36/52/14 44/18/14 35/20/14
f 34/52/15 43/18/15 36/20/15
f 33/52/16 41/18/16 34/20/16
