# Blender v2.76 (sub 0) OBJ File: 'epress_body.blend'
# www.blender.org
o Cube_Cube.001
v -0.500000 0.000000 0.500000
v -0.500000 1.000000 0.500000
v -0.500000 0.000000 -0.500000
v -0.500000 1.000000 -0.500000
v 0.500000 0.000000 0.500000
v 0.500000 1.000000 0.500000
v 0.500000 0.000000 -0.500000
v 0.500000 1.000000 -0.500000
v -0.166667 1.000000 -0.500000
v -0.500000 2.000000 -0.500000
v -0.500000 2.000000 0.500000
v -0.166667 1.000000 0.500000
v -0.166667 2.000000 0.500000
v -0.166667 2.000000 -0.500000
v 0.500000 2.000000 0.500000
v 0.500000 2.000000 -0.500000
v 0.500000 3.000000 0.500000
v 0.500000 3.000000 -0.500000
v -0.166667 3.000000 0.500000
v -0.166667 3.000000 -0.500000
v -0.166667 2.500000 -0.500000
v -0.166667 2.500000 0.500000
v -0.156250 0.343750 0.500000
v -0.156250 0.656250 0.500000
v -0.156250 0.343750 -0.500000
v -0.156250 0.656250 -0.500000
v 0.156250 0.343750 0.500000
v 0.156250 0.656250 0.500000
v 0.500000 0.343750 -0.156250
v 0.500000 0.656250 -0.156250
v -0.500000 0.343750 0.156250
v -0.500000 0.656250 0.156250
v 0.156250 0.656250 -0.500000
v 0.156250 0.343750 -0.500000
v -0.500000 0.656250 -0.156250
v -0.500000 0.343750 -0.156250
v 0.500000 0.656250 0.156250
v 0.500000 0.343750 0.156250
v -0.250000 0.250000 0.500000
v -0.250000 0.750000 0.500000
v -0.250000 0.250000 -0.500000
v -0.250000 0.750000 -0.500000
v 0.250000 0.250000 0.500000
v 0.250000 0.750000 0.500000
v 0.250000 0.250000 -0.500000
v 0.250000 0.750000 -0.500000
v -0.500000 0.750000 0.250000
v -0.500000 0.750000 -0.250000
v -0.500000 0.250000 -0.250000
v -0.500000 0.250000 0.250000
v 0.500000 0.250000 0.250000
v 0.500000 0.250000 -0.250000
v 0.500000 0.750000 -0.250000
v 0.500000 0.750000 0.250000
v 0.450000 0.750000 -0.250000
v 0.450000 0.250000 -0.250000
v 0.450000 0.750000 0.250000
v 0.450000 0.250000 0.250000
v 0.450000 0.656250 -0.156250
v 0.450000 0.656250 0.156250
v 0.450000 0.343750 0.156250
v 0.450000 0.343750 -0.156250
v -0.156250 0.656250 -0.450000
v 0.156250 0.656250 -0.450000
v 0.156250 0.343750 -0.450000
v -0.156250 0.343750 -0.450000
v -0.250000 0.750000 -0.450000
v -0.250000 0.250000 -0.450000
v 0.250000 0.750000 -0.450000
v 0.250000 0.250000 -0.450000
v -0.450000 0.250000 0.250000
v -0.450000 0.750000 0.250000
v -0.450000 0.750000 -0.250000
v -0.450000 0.250000 -0.250000
v -0.450000 0.343750 0.156250
v -0.450000 0.656250 0.156250
v -0.450000 0.656250 -0.156250
v -0.450000 0.343750 -0.156250
v 0.156250 0.656250 0.450000
v -0.156250 0.656250 0.450000
v -0.156250 0.343750 0.450000
v 0.156250 0.343750 0.450000
v -0.250000 0.250000 0.450000
v -0.250000 0.750000 0.450000
v 0.250000 0.750000 0.450000
v 0.250000 0.250000 0.450000
v 0.500000 2.175000 -0.325000
v 0.500000 2.175000 0.325000
v 0.500000 2.825000 -0.325000
v 0.500000 2.825000 0.325000
v 0.350000 2.175000 -0.325000
v 0.350000 2.175000 0.325000
v 0.350000 2.825000 -0.325000
v 0.350000 2.825000 0.325000
v 0.350000 2.175000 -0.151667
v 0.350000 2.825000 -0.151667
v 0.350000 2.175000 0.281667
v 0.350000 2.175000 0.151667
v 0.350000 2.825000 0.151667
v 0.350000 2.825000 0.281667
v 0.350000 2.175000 0.065000
v 0.350000 2.175000 -0.065000
v 0.350000 2.825000 -0.065000
v 0.350000 2.825000 0.065000
v 0.400000 2.175000 -0.151667
v 0.400000 2.175000 -0.281667
v 0.400000 2.825000 -0.281667
v 0.400000 2.825000 -0.151667
v 0.400000 2.175000 0.281667
v 0.400000 2.175000 0.151667
v 0.400000 2.825000 0.151667
v 0.400000 2.825000 0.281667
v 0.400000 2.175000 0.065000
v 0.400000 2.175000 -0.065000
v 0.400000 2.825000 -0.065000
v 0.400000 2.825000 0.065000
v 0.450000 2.175000 -0.184167
v 0.450000 2.175000 -0.249167
v 0.450000 2.825000 -0.249167
v 0.450000 2.825000 -0.184167
v 0.450000 2.175000 0.249167
v 0.450000 2.175000 0.184167
v 0.450000 2.825000 0.184167
v 0.450000 2.825000 0.249167
v 0.450000 2.175000 0.032500
v 0.450000 2.175000 -0.032500
v 0.450000 2.825000 -0.032500
v 0.450000 2.825000 0.032500
v 0.350000 2.825000 -0.281667
v 0.350000 2.175000 -0.281667
vt 0.645833 0.520833
vt 0.645833 0.635417
vt 0.489583 0.635417
vt 0.427083 0.020833
vt 0.593750 0.020833
vt 0.593750 0.187500
vt 0.395833 0.520833
vt 0.395833 0.687500
vt 0.229167 0.687500
vt 0.291667 0.020833
vt 0.291667 0.135417
vt 0.125000 0.135417
vt 0.229167 0.520833
vt 0.177083 0.687500
vt 0.447917 0.520833
vt 0.447917 0.687500
vt 0.177083 0.520833
vt 0.010417 0.687500
vt 0.260417 0.166667
vt 0.156250 0.166667
vt 0.291667 0.302083
vt 0.291667 0.416667
vt 0.125000 0.416667
vt 0.177083 0.770833
vt 0.406250 0.218750
vt 0.291667 0.500000
vt 0.125000 0.500000
vt 0.229167 0.791667
vt 0.447917 0.770833
vt 0.125000 0.302083
vt 0.010417 0.302083
vt 0.010417 0.218750
vt 0.822917 0.531250
vt 0.822917 0.583333
vt 0.770833 0.583333
vt 0.812500 0.375000
vt 0.812500 0.427083
vt 0.760417 0.427083
vt 0.437500 0.468750
vt 0.437500 0.416667
vt 0.489583 0.416667
vt 0.770833 0.083333
vt 0.770833 0.031250
vt 0.822917 0.031250
vt 0.218750 0.947917
vt 0.302083 0.947917
vt 0.343750 0.989583
vt 0.218750 0.864583
vt 0.177083 0.822917
vt 0.343750 0.822917
vt 0.177083 0.989583
vt 0.135417 0.947917
vt 0.062500 0.989583
vt 0.135417 0.864583
vt 0.052083 0.864583
vt 0.010417 0.822917
vt 0.052083 0.947917
vt 0.010417 0.989583
vt 0.635417 0.947917
vt 0.677083 0.989583
vt 0.510417 0.989583
vt 0.552083 0.864583
vt 0.510417 0.822917
vt 0.677083 0.822917
vt 0.552083 0.947917
vt 0.458333 0.989583
vt 0.385417 0.947917
vt 0.468750 0.947917
vt 0.468750 0.864583
vt 0.385417 0.864583
vt 0.729167 0.114583
vt 0.718750 0.114583
vt 0.718750 0.031250
vt 0.760417 0.083333
vt 0.760417 0.031250
vt 0.718750 0.020833
vt 0.635417 0.031250
vt 0.625000 0.031250
vt 0.635417 0.114583
vt 0.718750 0.218750
vt 0.718750 0.229167
vt 0.635417 0.229167
vt 0.635417 0.322917
vt 0.635417 0.312500
vt 0.718750 0.312500
vt 0.489583 0.468750
vt 0.489583 0.479167
vt 0.437500 0.479167
vt 0.437500 0.406250
vt 0.489583 0.406250
vt 0.750000 0.427083
vt 0.750000 0.375000
vt 0.822917 0.375000
vt 0.822917 0.427083
vt 0.489583 0.677083
vt 0.500000 0.677083
vt 0.500000 0.760417
vt 0.593750 0.760417
vt 0.583333 0.760417
vt 0.583333 0.677083
vt 0.770833 0.531250
vt 0.770833 0.520833
vt 0.822917 0.520833
vt 0.822917 0.593750
vt 0.770833 0.593750
vt 0.625000 0.364583
vt 0.635417 0.364583
vt 0.635417 0.447917
vt 0.729167 0.447917
vt 0.718750 0.447917
vt 0.718750 0.364583
vt 0.708333 0.302083
vt 0.645833 0.239583
vt 0.645833 0.302083
vt 0.708333 0.239583
vt 0.729167 0.312500
vt 0.427083 0.468750
vt 0.427083 0.416667
vt 0.500000 0.416667
vt 0.500000 0.468750
vt 0.625000 0.229167
vt 0.510417 0.750000
vt 0.510417 0.687500
vt 0.572917 0.687500
vt 0.583333 0.666667
vt 0.500000 0.770833
vt 0.812500 0.437500
vt 0.760417 0.437500
vt 0.760417 0.375000
vt 0.760417 0.364583
vt 0.812500 0.364583
vt 0.708333 0.375000
vt 0.645833 0.375000
vt 0.708333 0.437500
vt 0.645833 0.437500
vt 0.635417 0.458333
vt 0.718750 0.354167
vt 0.833333 0.531250
vt 0.833333 0.583333
vt 0.760417 0.583333
vt 0.760417 0.531250
vt 0.708333 0.104167
vt 0.645833 0.041667
vt 0.822917 0.083333
vt 0.822917 0.093750
vt 0.770833 0.093750
vt 0.833333 0.031250
vt 0.833333 0.083333
vt 0.635417 0.125000
vt 0.770833 0.020833
vt 0.822917 0.020833
vt 0.427083 0.250000
vt 0.458333 0.250000
vt 0.458333 0.354167
vt 0.156250 0.270833
vt 0.260417 0.270833
vt 0.718750 0.635417
vt 0.718750 0.520833
vt 0.729167 0.520833
vt 0.593750 0.354167
vt 0.562500 0.354167
vt 0.562500 0.250000
vt 0.708333 0.635417
vt 0.708333 0.520833
vt 0.458333 0.218750
vt 0.697917 0.635417
vt 0.687500 0.520833
vt 0.687500 0.635417
vt 0.677083 0.635417
vt 0.791667 0.333333
vt 0.791667 0.218750
vt 0.802083 0.218750
vt 0.760417 0.218750
vt 0.760417 0.333333
vt 0.750000 0.333333
vt 0.718750 0.770833
vt 0.718750 0.666667
vt 0.729167 0.666667
vt 0.687500 0.666667
vt 0.687500 0.770833
vt 0.677083 0.770833
vt 0.697917 0.520833
vt 0.781250 0.218750
vt 0.781250 0.333333
vt 0.770833 0.333333
vt 0.770833 0.218750
vt 0.708333 0.666667
vt 0.708333 0.770833
vt 0.697917 0.770833
vt 0.697917 0.666667
vt 0.458333 0.385417
vt 0.489583 0.520833
vt 0.427083 0.187500
vt 0.125000 0.020833
vt 0.010417 0.520833
vt 0.406250 0.135417
vt 0.406250 0.302083
vt 0.395833 0.791667
vt 0.010417 0.135417
vt 0.302083 0.864583
vt 0.635417 0.864583
vt 0.729167 0.031250
vt 0.635417 0.020833
vt 0.625000 0.114583
vt 0.635417 0.218750
vt 0.718750 0.322917
vt 0.489583 0.760417
vt 0.593750 0.677083
vt 0.625000 0.447917
vt 0.729167 0.364583
vt 0.729167 0.229167
vt 0.625000 0.312500
vt 0.572917 0.750000
vt 0.500000 0.666667
vt 0.583333 0.770833
vt 0.718750 0.458333
vt 0.635417 0.354167
vt 0.645833 0.104167
vt 0.708333 0.041667
vt 0.718750 0.125000
vt 0.427083 0.354167
vt 0.729167 0.635417
vt 0.593750 0.250000
vt 0.562500 0.218750
vt 0.677083 0.520833
vt 0.802083 0.333333
vt 0.750000 0.218750
vt 0.729167 0.770833
vt 0.677083 0.666667
vt 0.562500 0.385417
vn 0.000000 1.000000 0.000000
vn 0.000000 -1.000000 0.000000
vn -1.000000 0.000000 0.000000
vn 0.000000 0.000000 -1.000000
vn 0.000000 0.000000 1.000000
vn 1.000000 0.000000 0.000000
vn -0.832100 0.554700 0.000000
vn 0.545000 0.000000 -0.838400
vn 0.545000 0.000000 0.838400
s off
f 8/1/1 9/2/1 12/3/1
f 3/4/2 7/5/2 5/6/2
f 2/7/3 11/8/3 10/9/3
f 14/10/2 16/11/2 15/12/2
f 4/13/4 10/9/4 14/14/4
f 12/15/5 13/16/5 11/8/5
f 9/17/6 14/14/6 13/18/6
f 16/11/6 87/19/6 88/20/6
f 18/21/1 20/22/1 19/23/1
f 14/14/4 10/9/4 21/24/4
f 21/25/4 18/21/4 16/11/4
f 20/22/3 21/26/3 22/27/3
f 21/28/7 10/9/7 11/8/7
f 11/8/5 13/16/5 22/29/5
f 17/30/5 19/31/5 22/32/5
f 35/33/3 36/34/3 31/35/3
f 33/36/4 34/37/4 25/38/4
f 37/39/6 38/40/6 29/41/6
f 24/42/5 23/43/5 27/44/5
f 54/45/6 53/46/6 8/47/6
f 51/48/6 5/49/6 7/50/6
f 54/45/6 6/51/6 5/49/6
f 44/52/5 6/51/5 12/53/5
f 5/49/5 6/51/5 44/52/5
f 43/54/5 39/55/5 1/56/5
f 40/57/5 2/58/5 1/56/5
f 47/59/3 2/60/3 4/61/3
f 49/62/3 3/63/3 1/64/3
f 1/64/3 2/60/3 47/59/3
f 48/65/3 4/61/3 3/63/3
f 9/66/4 46/67/4 42/68/4
f 3/63/4 4/61/4 42/68/4
f 41/69/4 45/70/4 7/50/4
f 46/67/4 8/47/4 7/50/4
f 7/50/6 8/47/6 53/46/6
f 44/71/3 85/72/3 86/73/3
f 24/42/3 80/74/3 81/75/3
f 43/76/1 86/73/1 83/77/1
f 39/78/6 83/77/6 84/79/6
f 52/80/1 56/81/1 58/82/1
f 54/83/2 57/84/2 55/85/2
f 30/86/1 59/87/1 60/88/1
f 38/40/2 61/89/2 62/90/2
f 25/38/3 66/91/3 63/92/3
f 33/36/6 64/93/6 65/94/6
f 46/95/2 69/96/2 67/97/2
f 41/98/1 68/99/1 70/100/1
f 32/101/1 76/102/1 77/103/1
f 36/34/2 78/104/2 75/105/2
f 47/106/4 72/107/4 71/108/4
f 49/109/5 74/110/5 73/111/5
f 59/112/6 55/85/6 57/84/6
f 61/113/6 60/114/6 57/84/6
f 62/115/6 61/113/6 58/82/6
f 55/85/6 59/112/6 62/115/6
f 53/116/5 55/85/5 56/81/5
f 37/39/5 60/117/5 61/118/5
f 29/41/4 62/119/4 59/120/4
f 51/121/4 58/82/4 57/84/4
f 63/122/4 67/97/4 69/96/4
f 64/123/4 69/96/4 70/100/4
f 65/124/4 70/100/4 68/99/4
f 68/99/4 67/97/4 63/122/4
f 45/125/3 70/100/3 69/96/3
f 42/126/6 67/97/6 68/99/6
f 34/37/2 65/127/2 66/128/2
f 26/129/1 63/130/1 64/131/1
f 77/132/3 76/133/3 72/107/3
f 78/134/3 77/132/3 73/111/3
f 75/135/3 78/134/3 74/110/3
f 76/133/3 75/135/3 71/108/3
f 50/136/1 71/108/1 74/110/1
f 48/137/2 73/111/2 72/107/2
f 35/33/4 77/138/4 78/139/4
f 31/35/5 75/140/5 76/141/5
f 79/142/5 85/72/5 84/79/5
f 86/73/5 85/72/5 79/142/5
f 81/143/5 83/77/5 86/73/5
f 84/79/5 83/77/5 81/143/5
f 28/144/1 79/145/1 80/146/1
f 27/44/6 82/147/6 79/148/6
f 40/149/2 84/79/2 85/72/2
f 23/43/2 81/150/2 82/151/2
f 88/152/4 92/153/4 94/154/4
f 15/12/6 88/20/6 90/155/6
f 17/30/6 90/155/6 89/156/6
f 18/21/6 89/156/6 87/19/6
f 107/157/4 106/158/4 130/159/4
f 89/160/5 93/161/5 91/162/5
f 119/163/8 118/164/8 106/158/8
f 91/162/1 92/153/1 88/165/1
f 118/164/6 119/163/6 120/166/6
f 105/167/5 108/168/5 96/169/5
f 111/170/4 110/171/4 98/172/4
f 109/173/5 112/174/5 100/175/5
f 115/176/4 114/177/4 102/178/4
f 113/179/5 116/180/5 104/181/5
f 117/182/9 120/166/9 108/168/9
f 122/183/6 123/184/6 124/185/6
f 123/184/8 122/183/8 110/171/8
f 121/186/9 124/185/9 112/174/9
f 126/187/6 127/188/6 128/189/6
f 127/188/8 126/187/8 114/177/8
f 125/190/9 128/189/9 116/180/9
f 90/191/2 94/154/2 93/161/2
f 94/154/6 92/153/6 91/162/6
f 6/192/1 8/1/1 12/3/1
f 1/193/2 3/4/2 5/6/2
f 4/13/3 2/7/3 10/9/3
f 13/194/2 14/10/2 15/12/2
f 9/17/4 4/13/4 14/14/4
f 2/7/5 12/15/5 11/8/5
f 12/195/6 9/17/6 13/18/6
f 15/12/6 16/11/6 88/20/6
f 17/30/1 18/21/1 19/23/1
f 16/11/4 14/196/4 21/25/4
f 21/25/4 20/197/4 18/21/4
f 19/23/3 20/22/3 22/27/3
f 22/198/7 21/28/7 11/8/7
f 22/32/5 13/199/5 15/12/5
f 15/12/5 17/30/5 22/32/5
f 32/101/3 35/33/3 31/35/3
f 26/129/4 33/36/4 25/38/4
f 30/86/6 37/39/6 29/41/6
f 28/144/5 24/42/5 27/44/5
f 6/51/6 54/45/6 8/47/6
f 52/200/6 51/48/6 7/50/6
f 51/48/6 54/45/6 5/49/6
f 12/53/5 2/58/5 40/57/5
f 40/57/5 44/52/5 12/53/5
f 43/54/5 5/49/5 44/52/5
f 5/49/5 43/54/5 1/56/5
f 39/55/5 40/57/5 1/56/5
f 48/65/3 47/59/3 4/61/3
f 50/201/3 49/62/3 1/64/3
f 50/201/3 1/64/3 47/59/3
f 49/62/3 48/65/3 3/63/3
f 42/68/4 4/61/4 9/66/4
f 9/66/4 8/47/4 46/67/4
f 41/69/4 3/63/4 42/68/4
f 3/63/4 41/69/4 7/50/4
f 45/70/4 46/67/4 7/50/4
f 52/200/6 7/50/6 53/46/6
f 43/202/3 44/71/3 86/73/3
f 23/43/3 24/42/3 81/75/3
f 39/203/1 43/76/1 83/77/1
f 40/204/6 39/78/6 84/79/6
f 51/205/1 52/80/1 58/82/1
f 53/206/2 54/83/2 55/85/2
f 37/39/1 30/86/1 60/88/1
f 29/41/2 38/40/2 62/90/2
f 26/129/3 25/38/3 63/92/3
f 34/37/6 33/36/6 65/94/6
f 42/207/2 46/95/2 67/97/2
f 45/208/1 41/98/1 70/100/1
f 35/33/1 32/101/1 77/103/1
f 31/35/2 36/34/2 75/105/2
f 50/209/4 47/106/4 71/108/4
f 48/210/5 49/109/5 73/111/5
f 60/114/6 59/112/6 57/84/6
f 58/82/6 61/113/6 57/84/6
f 56/81/6 62/115/6 58/82/6
f 56/81/6 55/85/6 62/115/6
f 52/211/5 53/116/5 56/81/5
f 38/40/5 37/39/5 61/118/5
f 30/86/4 29/41/4 59/120/4
f 54/212/4 51/121/4 57/84/4
f 64/123/4 63/122/4 69/96/4
f 65/124/4 64/123/4 70/100/4
f 66/213/4 65/124/4 68/99/4
f 66/213/4 68/99/4 63/122/4
f 46/214/3 45/125/3 69/96/3
f 41/215/6 42/126/6 68/99/6
f 25/38/2 34/37/2 66/128/2
f 33/36/1 26/129/1 64/131/1
f 73/111/3 77/132/3 72/107/3
f 74/110/3 78/134/3 73/111/3
f 71/108/3 75/135/3 74/110/3
f 72/107/3 76/133/3 71/108/3
f 49/216/1 50/136/1 74/110/1
f 47/217/2 48/137/2 72/107/2
f 36/34/4 35/33/4 78/139/4
f 32/101/5 31/35/5 76/141/5
f 80/218/5 79/142/5 84/79/5
f 82/219/5 86/73/5 79/142/5
f 82/219/5 81/143/5 86/73/5
f 80/218/5 84/79/5 81/143/5
f 24/42/1 28/144/1 80/146/1
f 28/144/6 27/44/6 79/148/6
f 44/220/2 40/149/2 85/72/2
f 27/44/2 23/43/2 82/151/2
f 90/221/4 88/152/4 94/154/4
f 17/30/6 15/12/6 90/155/6
f 18/21/6 17/30/6 89/156/6
f 16/11/6 18/21/6 87/19/6
f 129/222/4 107/157/4 130/159/4
f 87/223/5 89/160/5 91/162/5
f 107/157/8 119/163/8 106/158/8
f 87/224/1 91/162/1 88/165/1
f 117/182/6 118/164/6 120/166/6
f 95/225/5 105/167/5 96/169/5
f 99/226/4 111/170/4 98/172/4
f 97/227/5 109/173/5 100/175/5
f 103/228/4 115/176/4 102/178/4
f 101/229/5 113/179/5 104/181/5
f 105/167/9 117/182/9 108/168/9
f 121/186/6 122/183/6 124/185/6
f 111/170/8 123/184/8 110/171/8
f 109/173/9 121/186/9 112/174/9
f 125/190/6 126/187/6 128/189/6
f 115/176/8 127/188/8 114/177/8
f 113/179/9 125/190/9 116/180/9
f 89/230/2 90/191/2 93/161/2
f 93/161/6 94/154/6 91/162/6
