# Blender v2.76 (sub 0) OBJ File: 'press_head.blend'
# www.blender.org
o Cube.001_Cube.002
v -0.375000 1.005685 -0.375000
v 0.375000 1.005685 -0.375000
v -0.375000 1.005685 0.375000
v 0.375000 1.005685 0.375000
v 0.250000 2.005685 0.250000
v 0.250000 2.005685 -0.250000
v -0.250000 2.005685 0.250000
v -0.250000 2.005685 -0.250000
v 0.250000 1.130685 -0.250000
v 0.250000 1.130685 0.250000
v -0.250000 1.130685 0.250000
v -0.250000 1.130685 -0.250000
v 0.375000 1.130685 0.375000
v -0.375000 1.130685 0.375000
v 0.375000 1.130685 -0.375000
v -0.375000 1.130685 -0.375000
vt 0.229633 0.395056
vt 0.229633 0.688899
vt 0.061723 0.688899
vt 0.646922 0.103700
vt 0.646922 0.397543
vt 0.479011 0.397543
vt 0.313588 0.229633
vt 0.019745 0.229633
vt 0.019745 0.061723
vt 0.187655 0.728389
vt 0.187655 0.896300
vt 0.019745 0.896300
vt 0.355566 0.271610
vt 0.313588 0.061723
vt 0.646922 0.520989
vt 0.479011 0.520989
vt 0.437034 0.479011
vt 0.479011 0.103700
vt 0.437034 0.061723
vt 0.061723 0.395056
vt 0.019745 0.353078
vt 0.271611 0.311101
vt 0.271611 0.353078
vt 0.688899 0.437034
vt 0.688899 0.479011
vt 0.688899 0.019745
vt 0.688899 0.061723
vt 0.397543 0.271611
vt 0.355566 0.019745
vt 0.646922 0.814832
vt 0.479011 0.814832
vt 0.980255 0.019745
vt 0.980255 0.271611
vt 0.728389 0.271611
vt 0.019745 0.728389
vt 0.019745 0.311101
vt 0.437034 0.437034
vt 0.437034 0.019745
vt 0.397543 0.019745
vt 0.728389 0.019745
vn -1.000000 0.000000 0.000000
vn 0.000000 0.000000 1.000000
vn 0.000000 0.000000 -1.000000
vn 0.000000 1.000000 0.000000
vn 1.000000 0.000000 0.000000
vn 0.000000 -1.000000 0.000000
s off
f 11/1/1 7/2/1 8/3/1
f 10/4/2 5/5/2 7/6/2
f 12/7/3 8/8/3 6/9/3
f 5/10/4 6/11/4 8/12/4
f 16/13/4 12/7/4 9/14/4
f 9/15/4 10/16/4 13/17/4
f 10/4/4 11/18/4 14/19/4
f 11/1/4 12/20/4 16/21/4
f 3/22/1 14/23/1 16/21/1
f 2/24/5 15/25/5 13/17/5
f 4/26/2 13/27/2 14/19/2
f 1/28/3 16/13/3 15/29/3
f 9/15/5 6/30/5 5/31/5
f 3/32/6 1/33/6 2/34/6
f 12/20/1 11/1/1 8/3/1
f 11/18/2 10/4/2 7/6/2
f 9/14/3 12/7/3 6/9/3
f 7/35/4 5/10/4 8/12/4
f 15/29/4 16/13/4 9/14/4
f 15/25/4 9/15/4 13/17/4
f 13/27/4 10/4/4 14/19/4
f 14/23/4 11/1/4 16/21/4
f 1/36/1 3/22/1 16/21/1
f 4/37/5 2/24/5 13/17/5
f 3/38/2 4/26/2 14/19/2
f 2/39/3 1/28/3 15/29/3
f 10/16/5 9/15/5 5/31/5
f 4/40/6 3/32/6 2/34/6
