# Blender v2.76 (sub 0) OBJ File: 'press_body.blend'
# www.blender.org
o Cube_Cube.000
v 0.375000 0.000000 -0.500000
v 0.500000 0.000000 -0.500000
v 0.500000 0.000000 -0.375000
v 0.375000 -0.000000 0.375000
v 0.500000 -0.000000 0.375000
v 0.500000 -0.000000 0.500000
v -0.500000 -0.000000 0.375000
v -0.375000 -0.000000 0.375000
v -0.375000 -0.000000 0.500000
v -0.500000 0.000000 -0.500000
v -0.375000 0.000000 -0.500000
v -0.375000 0.000000 -0.375000
v -0.375000 1.000000 -0.375000
v -0.375000 1.000000 0.375000
v 0.375000 1.000000 0.375000
v 0.500000 1.000000 0.375000
v 0.500000 1.000000 -0.375000
v 0.375000 1.000000 -0.375000
v 0.375000 1.000000 -0.500000
v -0.375000 1.000000 -0.500000
v -0.500000 1.000000 -0.375000
v -0.375000 1.000000 0.500000
v 0.375000 2.000000 0.375000
v -0.375000 2.000000 0.375000
v -0.375000 2.000000 -0.375000
v 0.500000 2.000000 -0.375000
v 0.500000 2.000000 0.375000
v 0.375000 1.000000 0.500000
v -0.375000 0.875000 0.500000
v 0.500000 0.875000 0.375000
v 0.375000 0.875000 -0.500000
v -0.500000 1.000000 0.375000
v -0.500000 0.875000 -0.375000
v -0.375000 0.875000 0.375000
v -0.375000 -0.000000 0.375000
v 0.375000 -0.000000 0.375000
v -0.375000 0.875000 -0.375000
v -0.375000 0.000000 -0.375000
v -0.375000 0.875000 -0.500000
v 0.375000 0.000000 -0.375000
v -0.500000 0.000000 -0.375000
v 0.375000 0.875000 0.375000
v 0.375000 0.875000 -0.375000
v 0.500000 0.875000 -0.375000
v -0.500000 0.875000 0.375000
v 0.375000 0.875000 0.500000
v -0.250000 2.500000 0.250000
v -0.250000 2.500000 -0.250000
v -0.500000 2.500000 -0.375000
v 0.250000 2.500000 0.250000
v -0.375000 2.500000 0.500000
v 0.250000 2.500000 -0.250000
v 0.500000 2.500000 0.375000
v 0.375000 2.500000 -0.500000
v -0.375000 2.000000 -0.500000
v 0.375000 2.000000 -0.500000
v 0.375000 2.000000 -0.375000
v -0.500000 2.000000 0.375000
v 0.375000 2.000000 0.500000
v -0.375000 2.000000 0.500000
v -0.500000 2.500000 0.375000
v -0.500000 2.500000 0.500000
v 0.500000 1.000000 -0.500000
v 0.500000 0.875000 -0.500000
v 0.375000 2.500000 0.500000
v -0.375000 2.500000 -0.500000
v 0.500000 2.500000 -0.375000
v 0.250000 3.000000 0.250000
v -0.250000 3.000000 0.250000
v -0.250000 3.000000 -0.250000
v 0.250000 3.000000 -0.250000
v 0.500000 1.000000 0.500000
v 0.500000 0.875000 0.500000
v -0.500000 1.000000 0.500000
v -0.500000 0.875000 0.500000
v -0.500000 0.875000 -0.500000
v -0.500000 1.000000 -0.500000
v -0.500000 2.000000 -0.375000
v 0.375000 -0.000000 0.500000
v -0.500000 2.000000 0.500000
v 0.500000 2.000000 0.500000
v 0.500000 2.500000 0.500000
v 0.500000 2.000000 -0.500000
v 0.500000 2.500000 -0.500000
v -0.500000 2.500000 -0.500000
v -0.500000 2.000000 -0.500000
v 0.375000 0.000000 -0.375000
v -0.500000 -0.000000 0.500000
vt 0.173913 0.347826
vt 0.173913 0.304348
vt 0.217391 0.304348
vt 0.956522 0.304348
vt 0.695652 0.304348
vt 0.695652 0.043478
vt 0.695652 0.000000
vt 0.956522 -0.000000
vt 0.956522 0.043478
vt 1.000000 0.043478
vt 1.000000 0.304348
vt 0.956522 0.347826
vt 0.652174 0.304348
vt 0.956522 0.391304
vt 0.956522 0.652174
vt 0.695652 0.652174
vt 0.695652 0.347826
vt 0.565217 0.347826
vt 0.304348 0.347826
vt 0.304348 0.304348
vt 0.652174 0.347826
vt 0.608696 0.347826
vt 0.608696 0.000000
vt 0.304348 -0.000000
vt 0.565217 -0.000000
vt 0.565217 0.304348
vt 0.260870 0.260870
vt -0.000000 0.260870
vt 0.000000 -0.000000
vt 0.652174 0.000000
vt 0.260870 0.304348
vt 0.347826 0.782609
vt 0.521739 0.782609
vt 0.565217 0.869565
vt 0.347826 0.608696
vt 0.260870 0.826087
vt 0.521739 0.608696
vt 0.304348 0.521739
vt 0.608696 0.565217
vt 0.652174 0.652174
vt 0.652174 0.391304
vt 0.695652 0.391304
vt 0.956522 0.695652
vt 1.000000 0.391304
vt 1.000000 0.652174
vt 0.304348 0.869565
vt 0.260870 0.869565
vt 0.260870 0.347826
vt 0.260870 0.565217
vt 0.608696 0.826087
vt 0.565217 0.521739
vt 0.173913 0.652174
vt 0.173913 0.826087
vt 0.000000 0.826087
vt 0.173913 1.000000
vt -0.000000 1.000000
vt 0.608696 0.304348
vt 0.043478 0.652174
vt -0.000000 0.652174
vt 0.000000 0.304348
vt 0.130435 0.652174
vt 0.130435 0.304348
vt 0.043478 0.304348
vt 0.260870 0.521739
vt 0.608696 0.521739
vt 0.086957 0.304348
vt 0.086957 0.652174
vt 0.217391 0.347826
vt 0.652174 0.043478
vt 0.260870 0.000000
vt 0.695652 0.695652
vt 0.608696 0.869565
vn 0.000000 -1.000000 -0.000000
vn 0.000000 1.000000 0.000000
vn 0.000000 0.000000 1.000000
vn 1.000000 0.000000 0.000000
vn 0.000000 0.000000 -1.000000
vn -1.000000 0.000000 0.000000
s 1
f 1/1/1 2/2/1 3/3/1
f 4/1/1 5/2/1 6/3/1
f 7/1/1 8/2/1 9/3/1
f 10/1/1 11/2/1 12/3/1
f 13/4/2 14/5/2 15/6/2
f 16/7/2 17/8/2 18/9/2
f 19/10/2 20/11/2 13/4/2
f 14/5/2 13/4/2 21/12/2
f 15/6/2 14/5/2 22/13/2
f 23/14/1 24/15/1 25/16/1
f 26/17/1 27/12/1 23/14/1
f 28/18/3 22/19/3 29/20/3
f 17/18/4 16/19/4 30/20/4
f 20/18/5 19/19/5 31/20/5
f 32/18/6 21/19/6 33/20/6
f 34/21/4 29/22/4 9/23/4
f 34/20/3 35/24/3 36/25/3
f 37/20/6 38/24/6 35/25/6
f 39/21/4 37/22/4 12/23/4
f 40/24/5 38/25/5 37/26/5
f 35/27/1 38/28/1 40/29/1
f 41/23/3 12/30/3 37/21/3
f 42/28/1 43/27/1 44/31/1
f 43/28/1 37/27/1 39/31/1
f 37/28/1 34/27/1 45/31/1
f 34/28/1 42/27/1 46/31/1
f 47/32/2 48/33/2 49/34/2
f 50/35/2 47/32/2 51/36/2
f 52/37/2 50/35/2 53/38/2
f 48/33/2 52/37/2 54/39/2
f 45/21/5 34/22/5 8/23/5
f 36/24/4 40/25/4 43/26/4
f 55/40/1 56/41/1 57/42/1
f 25/16/1 24/15/1 58/43/1
f 59/44/1 60/45/1 24/15/1
f 61/46/2 62/47/2 51/36/2
f 19/19/5 63/48/5 64/31/5
f 53/38/2 50/35/2 65/49/2
f 49/34/2 48/33/2 66/50/2
f 54/39/2 52/37/2 67/51/2
f 50/52/3 68/53/3 69/54/3
f 70/55/2 69/56/2 68/54/2
f 47/52/6 69/53/6 70/54/6
f 52/52/4 71/53/4 68/54/4
f 48/52/5 70/53/5 71/54/5
f 58/18/6 61/51/6 49/38/6
f 51/38/3 60/19/3 59/18/3
f 53/38/4 27/19/4 26/18/4
f 54/38/5 56/19/5 55/18/5
f 64/57/4 63/22/4 17/18/4
f 16/19/4 72/48/4 73/31/4
f 73/57/3 72/22/3 28/18/3
f 22/19/3 74/48/3 75/31/3
f 75/57/6 74/22/6 32/18/6
f 76/57/5 77/22/5 20/18/5
f 55/58/4 25/59/4 13/60/4
f 25/52/3 78/61/3 21/62/3
f 21/19/6 77/48/6 76/31/6
f 59/58/6 23/59/6 15/60/6
f 15/2/5 23/52/5 27/61/5
f 26/58/3 57/59/3 18/60/3
f 18/2/6 57/52/6 56/61/6
f 14/2/4 24/52/4 60/61/4
f 32/63/5 58/58/5 24/59/5
f 73/57/3 46/26/3 79/25/3
f 5/24/4 30/20/4 73/31/4
f 64/57/4 44/26/4 3/25/4
f 1/24/5 31/20/5 64/31/5
f 76/57/5 39/26/5 11/25/5
f 41/24/6 33/20/6 76/31/6
f 75/57/6 45/26/6 7/25/6
f 9/24/3 29/20/3 75/31/3
f 61/51/6 58/18/6 80/22/6
f 51/38/3 62/64/3 80/48/3
f 81/48/4 27/19/4 53/38/4
f 81/22/3 82/65/3 65/51/3
f 83/48/5 56/19/5 54/38/5
f 83/22/4 84/65/4 67/51/4
f 78/19/6 49/38/6 85/64/6
f 66/51/5 55/18/5 86/22/5
f 20/63/5 77/66/5 86/67/5
f 86/67/6 77/66/6 21/62/6
f 32/63/6 74/66/6 80/67/6
f 80/67/3 74/66/3 22/62/3
f 28/63/3 72/66/3 81/67/3
f 81/67/4 72/66/4 16/62/4
f 17/63/4 63/66/4 83/67/4
f 83/67/5 63/66/5 19/62/5
f 42/21/5 30/22/5 5/23/5
f 46/21/6 42/22/6 4/23/6
f 87/30/6 43/21/6 31/22/6
f 3/30/3 44/21/3 43/22/3
f 87/68/1 1/1/1 3/3/1
f 79/68/1 4/1/1 6/3/1
f 88/68/1 7/1/1 9/3/1
f 41/68/1 10/1/1 12/3/1
f 18/9/2 13/4/2 15/6/2
f 15/6/2 16/7/2 18/9/2
f 18/9/2 19/10/2 13/4/2
f 32/17/2 14/5/2 21/12/2
f 28/69/2 15/6/2 22/13/2
f 57/42/1 23/14/1 25/16/1
f 57/42/1 26/17/1 23/14/1
f 46/26/3 28/18/3 29/20/3
f 44/26/4 17/18/4 30/20/4
f 39/26/5 20/18/5 31/20/5
f 45/26/6 32/18/6 33/20/6
f 8/30/4 34/21/4 9/23/4
f 42/26/3 34/20/3 36/25/3
f 34/26/6 37/20/6 35/25/6
f 11/30/4 39/21/4 12/23/4
f 43/20/5 40/24/5 37/26/5
f 36/70/1 35/27/1 40/29/1
f 33/22/3 41/23/3 37/21/3
f 30/60/1 42/28/1 44/31/1
f 31/60/1 43/28/1 39/31/1
f 33/60/1 37/28/1 45/31/1
f 29/60/1 34/28/1 46/31/1
f 61/46/2 47/32/2 49/34/2
f 65/49/2 50/35/2 51/36/2
f 67/51/2 52/37/2 53/38/2
f 66/50/2 48/33/2 54/39/2
f 7/30/5 45/21/5 8/23/5
f 42/20/4 36/24/4 43/26/4
f 25/16/1 55/40/1 57/42/1
f 78/71/1 25/16/1 58/43/1
f 23/14/1 59/44/1 24/15/1
f 47/32/2 61/46/2 51/36/2
f 31/20/5 19/19/5 64/31/5
f 82/64/2 53/38/2 65/49/2
f 85/72/2 49/34/2 66/50/2
f 84/65/2 54/39/2 67/51/2
f 47/59/3 50/52/3 69/54/3
f 71/53/2 70/55/2 68/54/2
f 48/59/6 47/52/6 70/54/6
f 50/59/4 52/52/4 68/54/4
f 52/59/5 48/52/5 71/54/5
f 78/19/6 58/18/6 49/38/6
f 65/51/3 51/38/3 59/18/3
f 67/51/4 53/38/4 26/18/4
f 66/51/5 54/38/5 55/18/5
f 44/26/4 64/57/4 17/18/4
f 30/20/4 16/19/4 73/31/4
f 46/26/3 73/57/3 28/18/3
f 29/20/3 22/19/3 75/31/3
f 45/26/6 75/57/6 32/18/6
f 39/26/5 76/57/5 20/18/5
f 20/63/4 55/58/4 13/60/4
f 13/2/3 25/52/3 21/62/3
f 33/20/6 21/19/6 76/31/6
f 28/63/6 59/58/6 15/60/6
f 16/62/5 15/2/5 27/61/5
f 17/63/3 26/58/3 18/60/3
f 19/62/6 18/2/6 56/61/6
f 22/62/4 14/2/4 60/61/4
f 14/60/5 32/63/5 24/59/5
f 6/23/3 73/57/3 79/25/3
f 6/70/4 5/24/4 73/31/4
f 2/23/4 64/57/4 3/25/4
f 2/70/5 1/24/5 64/31/5
f 10/23/5 76/57/5 11/25/5
f 10/70/6 41/24/6 76/31/6
f 88/23/6 75/57/6 7/25/6
f 88/70/3 9/24/3 75/31/3
f 62/65/6 61/51/6 80/22/6
f 60/19/3 51/38/3 80/48/3
f 82/64/4 81/48/4 53/38/4
f 59/18/3 81/22/3 65/51/3
f 84/64/5 83/48/5 54/38/5
f 26/18/4 83/22/4 67/51/4
f 86/48/6 78/19/6 85/64/6
f 85/65/5 66/51/5 86/22/5
f 55/58/5 20/63/5 86/67/5
f 78/61/6 86/67/6 21/62/6
f 58/58/6 32/63/6 80/67/6
f 60/61/3 80/67/3 22/62/3
f 59/58/3 28/63/3 81/67/3
f 27/61/4 81/67/4 16/62/4
f 26/58/4 17/63/4 83/67/4
f 56/61/5 83/67/5 19/62/5
f 4/30/5 42/21/5 5/23/5
f 79/30/6 46/21/6 4/23/6
f 1/23/6 87/30/6 31/22/6
f 87/23/3 3/30/3 43/22/3
