# Blender v2.76 (sub 0) OBJ File: 'rad_gen_body.blend'
# www.blender.org
o Cube
v 1.500000 0.000000 1.500000
v -1.500000 0.000000 1.500000
v -1.500000 0.000000 -2.500000
v 1.500000 3.000000 -2.500000
v 1.499999 3.000000 1.500000
v -1.500000 3.000000 1.500000
v -1.500000 3.000000 -2.500000
v 1.500000 0.000000 -2.500000
v -1.500000 0.000000 -2.500000
v 1.500000 1.500000 -2.500000
v -1.500000 1.500000 -2.500000
v 1.500000 0.000000 -4.500000
v -1.500000 0.000000 -4.500000
v 1.500000 1.500000 -4.500000
v -1.500000 1.500000 -4.500000
v -1.500000 2.500000 -2.500000
v -1.500000 2.500000 -4.500000
v -1.000000 3.000000 -2.500000
v -1.000000 3.000000 -4.500000
v 0.000000 2.500000 -2.500000
v 0.000000 2.500000 -4.500000
v -0.500000 3.000000 -2.500000
v -0.500000 3.000000 -4.500000
v 0.000000 1.500000 -2.500000
v 0.000000 1.500000 -4.500000
v 0.156250 0.343750 -4.500000
v -0.156250 0.343750 -4.500000
v 0.156250 0.656250 -4.500000
v -0.156250 0.656250 -4.500000
v -0.375000 0.875000 -4.500000
v 0.375000 0.875000 -4.500000
v -0.375000 0.125000 -4.500000
v 0.375000 0.125000 -4.500000
v -0.375000 0.875000 -4.375000
v 0.375000 0.875000 -4.375000
v -0.375000 0.125000 -4.375000
v 0.375000 0.125000 -4.375000
v 0.156250 0.343750 -4.375000
v -0.156250 0.343750 -4.375000
v 0.156250 0.656250 -4.375000
v -0.156250 0.656250 -4.375000
v 0.750000 2.661612 -3.088388
v 0.750000 2.750000 -3.125000
v 1.000000 1.500000 -3.125000
v 1.000000 2.500000 -3.125000
v 1.088388 1.500000 -3.088388
v 1.088388 2.500000 -3.088388
v 1.125000 1.500000 -3.000000
v 1.125000 2.500000 -3.000000
v 1.088388 1.500000 -2.911612
v 1.088388 2.500000 -2.911612
v 1.000000 1.500000 -2.875000
v 1.000000 2.500000 -2.875000
v 0.911612 1.500000 -2.911612
v 0.911612 2.500000 -2.911612
v 0.875000 1.500000 -3.000000
v 0.875000 2.500000 -3.000000
v 0.911612 1.500000 -3.088388
v 0.911612 2.500000 -3.088388
v 0.750000 2.625000 -3.000000
v 0.750000 2.661612 -2.911612
v 0.750000 2.750000 -2.875000
v 0.750000 2.838388 -2.911612
v 0.750000 2.875000 -3.000000
v 0.750000 2.838388 -3.088388
v -0.400000 2.750000 -3.125000
v -0.400000 2.838388 -3.088388
v -0.400000 2.875000 -3.000000
v -0.400000 2.838388 -2.911612
v -0.400000 2.750000 -2.875000
v -0.400000 2.661612 -2.911612
v -0.400000 2.625000 -3.000000
v -0.400000 2.661612 -3.088388
v 0.750000 2.661612 -3.588388
v 0.750000 2.750000 -3.625000
v 1.000000 1.500000 -3.625000
v 1.000000 2.500000 -3.625000
v 1.088388 1.500000 -3.588388
v 1.088388 2.500000 -3.588388
v 1.125000 1.500000 -3.500000
v 1.125000 2.500000 -3.500000
v 1.088388 1.500000 -3.411612
v 1.088388 2.500000 -3.411612
v 1.000000 1.500000 -3.375000
v 1.000000 2.500000 -3.375000
v 0.911612 1.500000 -3.411612
v 0.911612 2.500000 -3.411612
v 0.875000 1.500000 -3.500000
v 0.875000 2.500000 -3.500000
v 0.911612 1.500000 -3.588388
v 0.911612 2.500000 -3.588388
v 0.750000 2.625000 -3.500000
v 0.750000 2.661612 -3.411612
v 0.750000 2.750000 -3.375000
v 0.750000 2.838388 -3.411612
v 0.750000 2.875000 -3.500000
v 0.750000 2.838388 -3.588388
v -0.400000 2.750000 -3.625000
v -0.400000 2.838388 -3.588388
v -0.400000 2.875000 -3.500000
v -0.400000 2.838388 -3.411612
v -0.400000 2.750000 -3.375000
v -0.400000 2.661612 -3.411612
v -0.400000 2.625000 -3.500000
v -0.400000 2.661612 -3.588388
v 0.750000 2.661612 -4.088388
v 0.750000 2.750000 -4.125000
v 1.000000 1.500000 -4.125000
v 1.000000 2.500000 -4.125000
v 1.088388 1.500000 -4.088388
v 1.088388 2.500000 -4.088388
v 1.125000 1.500000 -4.000000
v 1.125000 2.500000 -4.000000
v 1.088388 1.500000 -3.911612
v 1.088388 2.500000 -3.911612
v 1.000000 1.500000 -3.875000
v 1.000000 2.500000 -3.875000
v 0.911612 1.500000 -3.911612
v 0.911612 2.500000 -3.911612
v 0.875000 1.500000 -4.000000
v 0.875000 2.500000 -4.000000
v 0.911612 1.500000 -4.088388
v 0.911612 2.500000 -4.088388
v 0.750000 2.625000 -4.000000
v 0.750000 2.661612 -3.911612
v 0.750000 2.750000 -3.875000
v 0.750000 2.838388 -3.911612
v 0.750000 2.875000 -4.000000
v 0.750000 2.838388 -4.088388
v -0.400000 2.750000 -4.125000
v -0.400000 2.838388 -4.088388
v -0.400000 2.875000 -4.000000
v -0.400000 2.838388 -3.911612
v -0.400000 2.750000 -3.875000
v -0.400000 2.661612 -3.911612
v -0.400000 2.625000 -4.000000
v -0.400000 2.661612 -4.088388
v 1.500000 2.500000 -0.250000
v 1.500000 0.500000 -0.250000
v 1.500000 2.500000 -0.750000
v 1.500000 0.500000 -0.750000
v 1.500000 2.500000 0.750000
v 1.500000 0.500000 0.750000
v 1.500000 2.500000 0.250000
v 1.500000 0.500000 0.250000
v 1.500000 2.500000 -1.250000
v 1.500000 0.500000 -1.250000
v 1.500000 2.500000 -1.750000
v 1.500000 0.500000 -1.750000
v -1.500000 0.500000 -0.250000
v -1.500000 2.500000 -0.250000
v -1.500000 0.500000 -0.750000
v -1.500000 2.500000 -0.750000
v -1.500000 0.500000 0.750000
v -1.500000 2.500000 0.750000
v -1.500000 0.500000 0.250000
v -1.500000 2.500000 0.250000
v -1.500000 0.500000 -1.250000
v -1.500000 2.500000 -1.250000
v -1.500000 0.500000 -1.750000
v -1.500000 2.500000 -1.750000
v -1.250000 0.500000 -0.250000
v -1.250000 2.500000 -0.250000
v -1.250000 2.500000 -0.750000
v -1.250000 0.500000 -0.750000
v 1.250000 2.500000 -0.250000
v 1.250000 0.500000 -0.250000
v 1.250000 0.500000 -0.750000
v 1.250000 2.500000 -0.750000
v 1.250000 2.500000 0.750000
v 1.250000 0.500000 0.750000
v 1.250000 0.500000 0.250000
v 1.250000 2.500000 0.250000
v 1.250000 2.500000 -1.250000
v 1.250000 0.500000 -1.250000
v 1.250000 0.500000 -1.750000
v 1.250000 2.500000 -1.750000
v -1.250000 0.500000 0.750000
v -1.250000 2.500000 0.750000
v -1.250000 2.500000 0.250000
v -1.250000 0.500000 0.250000
v -1.250000 0.500000 -1.250000
v -1.250000 2.500000 -1.250000
v -1.250000 2.500000 -1.750000
v -1.250000 0.500000 -1.750000
v 0.000000 2.500000 1.500000
v -0.382683 2.423880 1.500000
v -0.707107 2.207107 1.500000
v -0.923880 1.882683 1.500000
v -1.000000 1.500000 1.500000
v -0.923880 1.117316 1.500000
v -0.707107 0.792893 1.500000
v -0.382683 0.576120 1.500000
v -0.000000 0.500000 1.500000
v 0.382683 0.576120 1.500000
v 0.707107 0.792893 1.500000
v 0.923880 1.117316 1.500000
v 1.000000 1.500000 1.500000
v 0.923879 1.882684 1.500000
v 0.707107 2.207107 1.500000
v 0.382683 2.423880 1.500000
v -0.382683 2.423880 1.000000
v 0.000000 2.500000 1.000000
v -0.707107 2.207107 1.000000
v -0.923880 1.882683 1.000000
v -1.000000 1.500000 1.000000
v -0.923880 1.117316 1.000000
v -0.707107 0.792893 1.000000
v -0.382683 0.576120 1.000000
v -0.000000 0.500000 1.000000
v 0.382683 0.576120 1.000000
v 0.707107 0.792893 1.000000
v 0.923880 1.117316 1.000000
v 1.000000 1.500000 1.000000
v 0.923879 1.882684 1.000000
v 0.707107 2.207107 1.000000
v 0.382683 2.423880 1.000000
v 0.000000 1.650000 1.000000
v -0.106066 1.606066 1.000000
v -0.150000 1.500000 1.000000
v -0.106066 1.393934 1.000000
v 0.000000 1.350000 1.000000
v 0.106066 1.393934 1.000000
v 0.150000 1.500000 1.000000
v 0.106066 1.606066 1.000000
v -0.106066 1.606066 1.500000
v 0.000000 1.650000 1.500000
v -0.150000 1.500000 1.500000
v -0.106066 1.393934 1.500000
v 0.000000 1.350000 1.500000
v 0.106066 1.393934 1.500000
v 0.150000 1.500000 1.500000
v 0.106066 1.606066 1.500000
vn 0.000000 1.000000 0.000000
vn 0.195100 -0.980800 0.000000
vn 1.000000 0.000000 0.000000
vn -1.000000 0.000000 -0.000000
vn -0.000000 0.000000 -1.000000
vn -0.707100 0.707100 0.000000
vn 0.707100 0.707100 0.000000
vn 0.000000 -1.000000 0.000000
vn 0.382700 0.000000 -0.923900
vn 0.923900 0.000000 -0.382700
vn 0.923900 0.000000 0.382700
vn 0.382700 0.000000 0.923900
vn -0.382700 0.000000 0.923900
vn -0.923900 0.000000 0.382700
vn -0.382700 0.000000 -0.923900
vn -0.923900 0.000000 -0.382700
vn -0.678600 -0.678600 -0.281100
vn -0.357400 -0.357400 -0.862900
vn 0.357400 0.357400 -0.862900
vn 0.678600 0.678600 -0.281100
vn -0.678600 -0.678600 0.281100
vn -0.357400 -0.357400 0.862900
vn 0.357400 0.357400 0.862900
vn 0.678600 0.678600 0.281100
vn 0.000000 -0.382700 0.923900
vn 0.000000 0.923900 -0.382700
vn 0.000000 0.382700 0.923900
vn 0.000000 0.923900 0.382700
vn 0.000000 -0.382700 -0.923900
vn 0.000000 -0.923900 -0.382700
vn 0.000000 0.382700 -0.923900
vn 0.000000 -0.923900 0.382700
vn 0.000000 0.000000 1.000000
vn -0.195100 -0.980800 0.000000
vn -0.195100 0.980800 0.000000
vn 0.555600 -0.831500 0.000000
vn -0.555600 0.831500 0.000000
vn 0.831500 -0.555600 0.000000
vn -0.831500 0.555600 0.000000
vn 0.980800 -0.195100 0.000000
vn -0.980800 0.195100 0.000000
vn 0.980800 0.195100 0.000000
vn -0.980800 -0.195100 0.000000
vn 0.831500 0.555600 0.000000
vn -0.831500 -0.555600 0.000000
vn 0.555600 0.831500 0.000000
vn -0.555600 -0.831500 0.000000
vn 0.195100 0.980800 0.000000
vn -0.382700 0.923900 0.000000
vn 0.382700 0.923900 0.000000
vn 0.923900 -0.382700 0.000000
vn -0.382700 -0.923900 0.000000
vn -0.923900 0.382700 0.000000
vn 0.923900 0.382700 0.000000
vn 0.382700 -0.923900 0.000000
vn -0.923900 -0.382700 0.000000
s off
f 22//1 6//1 5//1
f 187//2 202//2 203//2
f 24//3 25//3 21//3
f 11//4 15//4 13//4
f 16//5 7//5 18//5
f 8//3 12//3 14//3
f 16//6 18//6 19//6
f 15//4 11//4 16//4
f 18//1 22//1 23//1
f 23//7 22//7 20//7
f 12//8 8//8 9//8
f 24//1 10//1 14//1
f 144//3 145//3 139//3
f 2//8 9//8 8//8
f 21//5 25//5 17//5
f 22//5 4//5 20//5
f 20//5 4//5 10//5
f 27//5 29//5 28//5
f 35//8 34//8 30//8
f 34//3 36//3 32//3
f 36//1 37//1 33//1
f 37//4 35//4 31//4
f 28//3 40//3 38//3
f 26//8 38//8 39//8
f 27//4 39//4 41//4
f 29//1 41//1 40//1
f 40//5 41//5 34//5
f 41//5 39//5 36//5
f 39//5 38//5 37//5
f 38//5 40//5 35//5
f 30//5 15//5 25//5
f 13//5 32//5 33//5
f 12//5 33//5 31//5
f 30//5 32//5 13//5
f 45//9 47//9 46//9
f 47//10 49//10 48//10
f 49//11 51//11 50//11
f 51//12 53//12 52//12
f 53//13 55//13 54//13
f 55//14 57//14 56//14
f 59//15 45//15 44//15
f 57//16 59//16 58//16
f 42//17 59//17 57//17
f 42//18 43//18 45//18
f 43//19 65//19 47//19
f 64//20 49//20 47//20
f 61//21 60//21 57//21
f 61//22 55//22 53//22
f 62//23 53//23 51//23
f 63//24 51//24 49//24
f 62//25 70//25 71//25
f 77//9 79//9 78//9
f 65//26 67//26 68//26
f 63//27 69//27 70//27
f 64//28 68//28 69//28
f 42//29 73//29 66//29
f 60//30 72//30 73//30
f 43//31 66//31 67//31
f 61//32 71//32 72//32
f 79//10 81//10 80//10
f 81//11 83//11 82//11
f 83//12 85//12 84//12
f 85//13 87//13 86//13
f 87//14 89//14 88//14
f 91//15 77//15 76//15
f 89//16 91//16 90//16
f 74//17 91//17 89//17
f 74//18 75//18 77//18
f 75//19 97//19 79//19
f 96//20 81//20 79//20
f 93//21 92//21 89//21
f 93//22 87//22 85//22
f 94//23 85//23 83//23
f 95//24 83//24 81//24
f 94//25 102//25 103//25
f 97//26 99//26 100//26
f 95//27 101//27 102//27
f 96//28 100//28 101//28
f 74//29 105//29 98//29
f 92//30 104//30 105//30
f 75//31 98//31 99//31
f 93//32 103//32 104//32
f 109//9 111//9 110//9
f 111//10 113//10 112//10
f 113//11 115//11 114//11
f 115//12 117//12 116//12
f 117//13 119//13 118//13
f 119//14 121//14 120//14
f 123//15 109//15 108//15
f 121//16 123//16 122//16
f 106//17 123//17 121//17
f 106//18 107//18 109//18
f 107//19 129//19 111//19
f 128//20 113//20 111//20
f 125//21 124//21 121//21
f 125//22 119//22 117//22
f 126//23 117//23 115//23
f 127//24 115//24 113//24
f 126//25 134//25 135//25
f 129//26 131//26 132//26
f 127//27 133//27 134//27
f 128//28 132//28 133//28
f 106//29 137//29 130//29
f 124//30 136//30 137//30
f 107//31 130//31 131//31
f 125//32 135//32 136//32
f 147//3 146//3 140//3
f 10//3 148//3 149//3
f 140//3 146//3 4//3
f 139//3 145//3 1//3
f 143//3 142//3 5//3
f 159//4 158//4 152//4
f 156//4 157//4 151//4
f 155//4 154//4 2//4
f 151//4 157//4 6//4
f 161//4 16//4 11//4
f 152//4 158//4 3//4
f 163//4 164//4 165//4
f 163//5 162//5 150//5
f 164//8 163//8 151//8
f 165//33 164//33 153//33
f 162//1 165//1 152//1
f 167//3 168//3 169//3
f 167//5 166//5 138//5
f 168//1 167//1 139//1
f 169//33 168//33 141//33
f 166//8 169//8 140//8
f 171//3 172//3 173//3
f 171//5 170//5 142//5
f 172//1 171//1 143//1
f 173//33 172//33 145//33
f 170//8 173//8 144//8
f 175//3 176//3 177//3
f 175//5 174//5 146//5
f 176//1 175//1 147//1
f 177//33 176//33 149//33
f 174//8 177//8 148//8
f 179//4 180//4 181//4
f 179//5 178//5 154//5
f 180//8 179//8 155//8
f 181//33 180//33 157//33
f 178//1 181//1 156//1
f 183//4 184//4 185//4
f 183//5 182//5 158//5
f 184//8 183//8 159//8
f 185//33 184//33 161//33
f 182//1 185//1 160//1
f 6//33 186//33 5//33
f 5//33 198//33 1//33
f 1//33 194//33 2//33
f 2//33 190//33 6//33
f 212//33 214//33 203//33
f 186//34 203//34 217//34
f 195//35 211//35 210//35
f 187//36 188//36 204//36
f 196//37 212//37 211//37
f 189//38 205//38 204//38
f 197//39 213//39 212//39
f 190//40 206//40 205//40
f 198//41 214//41 213//41
f 191//42 207//42 206//42
f 199//43 215//43 214//43
f 192//44 208//44 207//44
f 200//45 216//45 215//45
f 193//46 209//46 208//46
f 201//47 217//47 216//47
f 194//48 210//48 209//48
f 230//33 232//33 227//33
f 219//49 226//49 227//49
f 218//50 227//50 233//50
f 224//51 232//51 231//51
f 222//52 230//52 229//52
f 220//53 228//53 226//53
f 225//54 233//54 232//54
f 223//55 231//55 230//55
f 221//56 229//56 228//56
f 5//1 4//1 22//1
f 22//1 18//1 6//1
f 7//1 6//1 18//1
f 186//2 187//2 203//2
f 20//3 24//3 21//3
f 9//4 11//4 13//4
f 10//3 8//3 14//3
f 17//6 16//6 19//6
f 17//4 15//4 16//4
f 19//1 18//1 23//1
f 21//7 23//7 20//7
f 13//8 12//8 9//8
f 25//1 24//1 14//1
f 138//3 144//3 139//3
f 8//8 1//8 2//8
f 2//33 3//33 9//33
f 17//5 19//5 23//5
f 23//5 21//5 17//5
f 25//5 15//5 17//5
f 24//5 20//5 10//5
f 26//5 27//5 28//5
f 31//8 35//8 30//8
f 30//3 34//3 32//3
f 32//1 36//1 33//1
f 33//4 37//4 31//4
f 26//3 28//3 38//3
f 27//8 26//8 39//8
f 29//4 27//4 41//4
f 28//1 29//1 40//1
f 35//5 40//5 34//5
f 34//5 41//5 36//5
f 36//5 39//5 37//5
f 37//5 38//5 35//5
f 25//5 14//5 31//5
f 31//5 30//5 25//5
f 12//5 13//5 33//5
f 14//5 12//5 31//5
f 15//5 30//5 13//5
f 44//9 45//9 46//9
f 46//10 47//10 48//10
f 48//11 49//11 50//11
f 50//12 51//12 52//12
f 52//13 53//13 54//13
f 54//14 55//14 56//14
f 58//15 59//15 44//15
f 56//16 57//16 58//16
f 60//17 42//17 57//17
f 59//18 42//18 45//18
f 45//19 43//19 47//19
f 65//20 64//20 47//20
f 55//21 61//21 57//21
f 62//22 61//22 53//22
f 63//23 62//23 51//23
f 64//24 63//24 49//24
f 61//25 62//25 71//25
f 76//9 77//9 78//9
f 64//26 65//26 68//26
f 62//27 63//27 70//27
f 63//28 64//28 69//28
f 43//29 42//29 66//29
f 42//30 60//30 73//30
f 65//31 43//31 67//31
f 60//32 61//32 72//32
f 78//10 79//10 80//10
f 80//11 81//11 82//11
f 82//12 83//12 84//12
f 84//13 85//13 86//13
f 86//14 87//14 88//14
f 90//15 91//15 76//15
f 88//16 89//16 90//16
f 92//17 74//17 89//17
f 91//18 74//18 77//18
f 77//19 75//19 79//19
f 97//20 96//20 79//20
f 87//21 93//21 89//21
f 94//22 93//22 85//22
f 95//23 94//23 83//23
f 96//24 95//24 81//24
f 93//25 94//25 103//25
f 96//26 97//26 100//26
f 94//27 95//27 102//27
f 95//28 96//28 101//28
f 75//29 74//29 98//29
f 74//30 92//30 105//30
f 97//31 75//31 99//31
f 92//32 93//32 104//32
f 108//9 109//9 110//9
f 110//10 111//10 112//10
f 112//11 113//11 114//11
f 114//12 115//12 116//12
f 116//13 117//13 118//13
f 118//14 119//14 120//14
f 122//15 123//15 108//15
f 120//16 121//16 122//16
f 124//17 106//17 121//17
f 123//18 106//18 109//18
f 109//19 107//19 111//19
f 129//20 128//20 111//20
f 119//21 125//21 121//21
f 126//22 125//22 117//22
f 127//23 126//23 115//23
f 128//24 127//24 113//24
f 125//25 126//25 135//25
f 128//26 129//26 132//26
f 126//27 127//27 134//27
f 127//28 128//28 133//28
f 107//29 106//29 130//29
f 106//30 124//30 137//30
f 129//31 107//31 131//31
f 124//32 125//32 136//32
f 141//3 147//3 140//3
f 149//3 8//3 10//3
f 10//3 4//3 148//3
f 4//3 5//3 140//3
f 144//3 138//3 5//3
f 5//3 142//3 144//3
f 146//3 148//3 4//3
f 138//3 140//3 5//3
f 1//3 8//3 141//3
f 149//3 147//3 8//3
f 141//3 139//3 1//3
f 145//3 143//3 1//3
f 8//3 147//3 141//3
f 1//3 143//3 5//3
f 153//4 159//4 152//4
f 150//4 156//4 151//4
f 6//4 155//4 2//4
f 6//4 7//4 153//4
f 161//4 159//4 7//4
f 153//4 151//4 6//4
f 157//4 155//4 6//4
f 7//4 159//4 153//4
f 11//4 9//4 160//4
f 160//4 161//4 11//4
f 7//4 16//4 161//4
f 3//4 2//4 150//4
f 154//4 156//4 2//4
f 150//4 152//4 3//4
f 160//33 9//33 3//33
f 156//4 150//4 2//4
f 158//4 160//4 3//4
f 162//4 163//4 165//4
f 151//5 163//5 150//5
f 153//8 164//8 151//8
f 152//33 165//33 153//33
f 150//1 162//1 152//1
f 166//3 167//3 169//3
f 139//5 167//5 138//5
f 141//1 168//1 139//1
f 140//33 169//33 141//33
f 138//8 166//8 140//8
f 170//3 171//3 173//3
f 143//5 171//5 142//5
f 145//1 172//1 143//1
f 144//33 173//33 145//33
f 142//8 170//8 144//8
f 174//3 175//3 177//3
f 147//5 175//5 146//5
f 149//1 176//1 147//1
f 148//33 177//33 149//33
f 146//8 174//8 148//8
f 178//4 179//4 181//4
f 155//5 179//5 154//5
f 157//8 180//8 155//8
f 156//33 181//33 157//33
f 154//1 178//1 156//1
f 182//4 183//4 185//4
f 159//5 183//5 158//5
f 161//8 184//8 159//8
f 160//33 185//33 161//33
f 158//1 182//1 160//1
f 201//33 200//33 5//33
f 6//33 188//33 187//33
f 201//33 5//33 186//33
f 6//33 187//33 186//33
f 197//33 196//33 1//33
f 5//33 200//33 199//33
f 197//33 1//33 198//33
f 5//33 199//33 198//33
f 193//33 192//33 2//33
f 1//33 196//33 195//33
f 193//33 2//33 194//33
f 1//33 195//33 194//33
f 189//33 188//33 6//33
f 2//33 192//33 191//33
f 189//33 6//33 190//33
f 2//33 191//33 190//33
f 203//33 202//33 204//33
f 204//33 205//33 203//33
f 206//33 207//33 210//33
f 208//33 209//33 210//33
f 210//33 211//33 212//33
f 212//33 213//33 214//33
f 214//33 215//33 216//33
f 216//33 217//33 214//33
f 203//33 205//33 206//33
f 207//33 208//33 210//33
f 210//33 212//33 203//33
f 214//33 217//33 203//33
f 203//33 206//33 210//33
f 201//34 186//34 217//34
f 194//35 195//35 210//35
f 202//36 187//36 204//36
f 195//37 196//37 211//37
f 188//38 189//38 204//38
f 196//39 197//39 212//39
f 189//40 190//40 205//40
f 197//41 198//41 213//41
f 190//42 191//42 206//42
f 198//43 199//43 214//43
f 191//44 192//44 207//44
f 199//45 200//45 215//45
f 192//46 193//46 208//46
f 200//47 201//47 216//47
f 193//48 194//48 209//48
f 227//33 226//33 228//33
f 228//33 229//33 230//33
f 230//33 231//33 232//33
f 232//33 233//33 227//33
f 227//33 228//33 230//33
f 218//49 219//49 227//49
f 225//50 218//50 233//50
f 223//51 224//51 231//51
f 221//52 222//52 229//52
f 219//53 220//53 226//53
f 224//54 225//54 232//54
f 222//55 223//55 230//55
f 220//56 221//56 228//56
