# Blender v2.76 (sub 0) OBJ File: 'radar_head.blend'
# www.blender.org
o Torus
v 0.578906 1.584721 -0.000000
v 0.601365 1.806898 -0.000000
v 0.546068 1.962747 -0.000000
v 0.361454 1.273760 -0.000000
v 0.487268 1.381080 -0.000000
v 0.548050 1.592989 -0.242643
v 0.571688 1.814850 -0.233375
v 0.519476 1.969872 -0.209110
v 0.334863 1.280885 -0.209110
v 0.457591 1.389032 -0.233375
v 0.457584 1.617229 -0.468750
v 0.484678 1.838164 -0.450845
v 0.441513 1.990763 -0.403970
v 0.256899 1.301775 -0.403970
v 0.370581 1.412347 -0.450845
v 0.313675 1.655789 -0.662913
v 0.346265 1.875252 -0.637592
v 0.317491 2.023994 -0.571300
v 0.132877 1.335007 -0.571300
v 0.232168 1.449434 -0.637592
v 0.126128 1.706043 -0.811899
v 0.165882 1.923585 -0.780887
v 0.155863 2.067302 -0.699697
v -0.028751 1.378315 -0.699697
v 0.051785 1.497768 -0.780887
v 0.126128 1.706043 0.811899
v 0.165882 1.923585 0.780887
v 0.155863 2.067302 0.699697
v -0.028751 1.378315 0.699697
v 0.051785 1.497768 0.780887
v 0.313674 1.655790 0.662913
v 0.346265 1.875252 0.637592
v 0.317491 2.023994 0.571301
v 0.132877 1.335007 0.571301
v 0.232168 1.449434 0.637592
v 0.457584 1.617229 0.468750
v 0.484678 1.838164 0.450845
v 0.441513 1.990763 0.403970
v 0.256899 1.301775 0.403970
v 0.370581 1.412347 0.450845
v 0.548050 1.592989 0.242643
v 0.571688 1.814850 0.233374
v 0.519476 1.969872 0.209110
v 0.334863 1.280885 0.209110
v 0.457591 1.389032 0.233374
v -0.100000 1.000000 0.100000
v -0.100000 1.200000 0.100000
v -0.100000 1.000000 -0.100000
v -0.100000 1.200000 -0.100000
v 0.100000 1.000000 0.100000
v 0.100000 1.200000 0.100000
v 0.100000 1.000000 -0.100000
v 0.100000 1.200000 -0.100000
v -0.500000 1.550000 0.050000
v -0.500000 1.700000 0.050000
v -0.500000 1.700000 -0.050000
v -0.500000 1.550000 -0.050000
v -0.450000 1.518750 -0.025000
v -0.450000 1.881250 -0.025000
v -0.450000 1.518750 0.025000
v -0.450000 1.881250 0.025000
v -0.467678 1.518750 0.017678
v -0.467678 1.881250 0.017678
v -0.475000 1.518750 -0.000000
v -0.475000 1.881250 -0.000000
v -0.467678 1.518750 -0.017678
v -0.467678 1.881250 -0.017678
v -0.400000 1.518750 -0.025000
v -0.400000 1.881250 -0.025000
v -0.382322 1.518750 -0.017678
v -0.382322 1.881250 -0.017678
v -0.375000 1.518750 0.000000
v -0.375000 1.881250 0.000000
v -0.382322 1.518750 0.017678
v -0.382322 1.881250 0.017678
v -0.400000 1.518750 0.025000
v -0.400000 1.881250 0.025000
vt 0.749477 0.177462
vt 0.851663 0.177461
vt 0.849712 0.270681
vt 0.751428 0.270681
vt 0.844603 0.339539
vt 0.844602 0.015383
vt 0.849712 0.084242
vt 0.751428 0.084242
vt 0.718710 0.177464
vt 0.716756 0.270683
vt 0.618472 0.270681
vt 0.711645 0.339542
vt 0.623580 0.339539
vt 0.623588 0.015383
vt 0.711653 0.015385
vt 0.716761 0.084244
vt 0.616523 0.177461
vt 0.271242 0.713845
vt 0.373429 0.713845
vt 0.371477 0.807065
vt 0.366368 0.875923
vt 0.278303 0.875923
vt 0.366368 0.551767
vt 0.371477 0.620625
vt 0.273194 0.620625
vt 0.851663 0.532386
vt 0.849712 0.625606
vt 0.751428 0.625606
vt 0.844603 0.694464
vt 0.756538 0.694464
vt 0.844603 0.370308
vt 0.849712 0.439167
vt 0.751428 0.439167
vt 0.984617 0.177461
vt 0.982665 0.270681
vt 0.884382 0.270681
vt 0.977556 0.339539
vt 0.977556 0.015383
vt 0.982665 0.084242
vt 0.884382 0.084242
vt 0.882430 0.177461
vt 0.117570 0.599110
vt 0.115619 0.692329
vt 0.017335 0.692329
vt 0.110509 0.761188
vt 0.022444 0.761188
vt 0.022444 0.437032
vt 0.110510 0.437032
vt 0.115619 0.505890
vt 0.017335 0.505890
vt 0.718710 0.532386
vt 0.716759 0.625606
vt 0.618475 0.625606
vt 0.711649 0.694464
vt 0.623584 0.694465
vt 0.711649 0.370308
vt 0.716758 0.439167
vt 0.618475 0.439167
vt 0.616523 0.532386
vt 0.506382 0.713845
vt 0.504430 0.807065
vt 0.406147 0.807065
vt 0.499321 0.875923
vt 0.411256 0.875923
vt 0.499321 0.551767
vt 0.504431 0.620625
vt 0.406147 0.620625
vt 0.404195 0.713845
vt 0.041881 0.130470
vt 0.086176 0.059678
vt 0.107053 0.343634
vt 0.213977 0.130470
vt 0.169683 0.059678
vt 0.240475 0.015383
vt 0.502249 0.098891
vt 0.502249 0.015383
vt 0.585757 0.015383
vt 0.015383 0.015383
vt 0.585757 0.098891
vt 0.585757 0.182399
vt 0.502249 0.182399
vt 0.107052 0.406265
vt 0.148806 0.343634
vt 0.182027 0.396728
vt 0.564880 0.449753
vt 0.523126 0.449753
vt 0.469735 0.433464
vt 0.271242 0.406604
vt 0.340291 0.359638
vt 0.471482 0.120906
vt 0.445258 0.204975
vt 0.334736 0.180122
vt 0.292959 0.252428
vt 0.306677 0.283195
vt 0.452868 0.347029
vt 0.179652 0.437032
vt 0.187033 0.440089
vt 0.187033 0.454851
vt 0.685335 0.876611
vt 0.677346 0.876608
vt 0.677397 0.725251
vt 0.669357 0.876605
vt 0.669408 0.725249
vt 0.632552 0.725236
vt 0.653429 0.725243
vt 0.653378 0.876600
vt 0.661367 0.876603
vt 0.661418 0.725246
vt 0.706212 0.876618
vt 0.685387 0.725254
vt 0.632501 0.876593
vt 0.624512 0.876590
vt 0.624562 0.725234
vt 0.616523 0.876588
vt 0.616573 0.725231
vt 0.722190 0.876623
vt 0.714201 0.876621
vt 0.714253 0.725264
vt 0.706263 0.725261
vt 0.300577 0.521000
vt 0.460098 0.521000
vt 0.271242 0.125882
vt 0.312920 0.015383
vt 0.471482 0.032841
vt 0.756538 0.339540
vt 0.756537 0.015383
vt 0.618477 0.084242
vt 0.273193 0.807065
vt 0.278303 0.551767
vt 0.749477 0.532386
vt 0.756538 0.370308
vt 0.889491 0.339539
vt 0.889491 0.015383
vt 0.015383 0.599110
vt 0.623584 0.370308
vt 0.411256 0.551767
vt 0.073832 0.396728
vt 0.148806 0.406265
vt 0.179652 0.457908
vt 0.158775 0.457908
vt 0.151394 0.454851
vt 0.148337 0.447470
vt 0.151394 0.440089
vt 0.158775 0.437032
vt 0.190091 0.447470
vt 0.722242 0.725267
vn 0.986600 -0.099700 -0.128900
vn 0.936900 0.332400 -0.107800
vn 0.645200 -0.756400 -0.107800
vn 0.904300 -0.406900 -0.128900
vn 0.922200 -0.082500 -0.377800
vn 0.883000 0.346900 -0.316100
vn 0.591300 -0.741900 -0.316100
vn 0.839900 -0.389700 -0.377800
vn 0.797700 -0.049100 -0.601000
vn 0.778900 0.374800 -0.502900
vn 0.487100 -0.714000 -0.502900
vn 0.715400 -0.356300 -0.601000
vn 0.621700 -0.002000 -0.783300
vn 0.631600 0.414300 -0.655300
vn 0.339900 -0.674600 -0.655300
vn 0.539400 -0.309200 -0.783300
vn 0.621700 -0.002000 0.783300
vn 0.631600 0.414300 0.655300
vn 0.339900 -0.674600 0.655300
vn 0.539400 -0.309200 0.783300
vn 0.797700 -0.049100 0.601000
vn 0.778900 0.374800 0.502900
vn 0.487100 -0.714000 0.502900
vn 0.715400 -0.356300 0.601000
vn 0.922200 -0.082500 0.377800
vn 0.883000 0.346900 0.316100
vn 0.591300 -0.741900 0.316100
vn 0.839900 -0.389700 0.377800
vn 0.986600 -0.099700 0.128900
vn 0.936900 0.332400 0.107800
vn 0.645200 -0.756400 0.107800
vn 0.904300 -0.406900 0.128900
vn -0.124000 0.000000 -0.992300
vn 0.000000 0.000000 1.000000
vn 1.000000 0.000000 0.000000
vn 0.000000 0.000000 -1.000000
vn 0.000000 1.000000 0.000000
vn -1.000000 0.000000 0.000000
vn -0.124000 0.000000 0.992300
vn -0.808700 -0.588200 0.000000
vn 0.780900 0.624700 0.000000
vn 0.000000 0.948300 0.317500
vn -0.236400 0.951600 -0.196600
vn 0.421300 0.000000 -0.906900
vn 0.421300 0.000000 0.906900
vn -0.382700 0.000000 0.923900
vn -0.923900 0.000000 0.382700
vn -0.382700 0.000000 -0.923900
vn -0.923900 0.000000 -0.382700
vn 0.382700 0.000000 -0.923900
vn 0.923900 0.000000 -0.382700
vn 0.923900 0.000000 0.382700
vn 0.382700 0.000000 0.923900
vn -0.483500 -0.483500 -0.729600
vn 0.654900 -0.677600 -0.334700
vn -0.483500 -0.483500 0.729600
vn 0.654900 -0.677600 0.334700
vn -0.236400 0.951600 0.196600
vn 0.000000 0.948300 -0.317500
s off
f 1/1/1 6/2/1 7/3/1
f 2/4/2 7/3/2 8/5/2
f 9/6/3 10/7/3 5/8/3
f 5/8/4 10/7/4 6/2/4
f 11/9/5 12/10/5 7/11/5
f 12/10/6 13/12/6 8/13/6
f 9/14/7 14/15/7 15/16/7
f 15/16/8 11/9/8 6/17/8
f 11/18/9 16/19/9 17/20/9
f 17/20/10 18/21/10 13/22/10
f 19/23/11 20/24/11 15/25/11
f 20/24/12 16/19/12 11/18/12
f 21/26/13 22/27/13 17/28/13
f 22/27/14 23/29/14 18/30/14
f 24/31/15 25/32/15 20/33/15
f 20/33/16 25/32/16 21/26/16
f 31/34/17 32/35/17 27/36/17
f 27/36/18 32/35/18 33/37/18
f 34/38/19 35/39/19 30/40/19
f 35/39/20 31/34/20 26/41/20
f 36/42/21 37/43/21 32/44/21
f 37/43/22 38/45/22 33/46/22
f 34/47/23 39/48/23 40/49/23
f 35/50/24 40/49/24 36/42/24
f 41/51/25 42/52/25 37/53/25
f 42/52/26 43/54/26 38/55/26
f 44/56/27 45/57/27 40/58/27
f 45/57/28 41/51/28 36/59/28
f 1/60/29 2/61/29 42/62/29
f 2/61/30 3/63/30 43/64/30
f 4/65/31 5/66/31 45/67/31
f 5/66/32 1/60/32 41/68/32
f 49/69/33 48/70/33 57/71/33
f 47/72/34 46/73/34 50/74/34
f 51/75/35 50/76/35 52/77/35
f 48/70/36 49/69/36 52/78/36
f 53/79/37 49/80/37 47/81/37
f 56/82/38 57/71/38 54/83/38
f 47/72/39 55/84/39 54/83/39
f 46/73/40 54/83/40 57/71/40
f 49/80/41 56/85/41 55/86/41
f 14/87/42 49/88/42 53/89/42
f 39/90/43 44/91/43 51/92/43
f 50/93/44 51/92/44 44/91/44
f 52/94/45 9/95/45 53/89/45
f 77/96/37 75/97/37 71/98/37
f 61/99/46 63/100/46 62/101/46
f 63/100/47 65/102/47 64/103/47
f 68/104/36 58/105/36 59/106/36
f 67/107/48 59/106/48 58/105/48
f 65/102/49 67/107/49 66/108/49
f 77/109/34 61/99/34 60/110/34
f 69/111/50 71/112/50 70/113/50
f 71/112/51 73/114/51 72/115/51
f 73/116/52 75/117/52 74/118/52
f 75/117/53 77/109/53 76/119/53
f 49/88/54 14/87/54 52/120/54
f 9/121/55 52/120/55 14/87/55
f 47/122/56 50/123/56 39/90/56
f 39/90/57 50/123/57 44/124/57
f 2/4/1 1/1/1 7/3/1
f 3/125/2 2/4/2 8/5/2
f 4/126/3 9/6/3 5/8/3
f 1/1/4 5/8/4 6/2/4
f 6/17/5 11/9/5 7/11/5
f 7/11/6 12/10/6 8/13/6
f 10/127/7 9/14/7 15/16/7
f 10/127/8 15/16/8 6/17/8
f 12/128/9 11/18/9 17/20/9
f 12/128/10 17/20/10 13/22/10
f 14/129/11 19/23/11 15/25/11
f 15/25/12 20/24/12 11/18/12
f 16/130/13 21/26/13 17/28/13
f 17/28/14 22/27/14 18/30/14
f 19/131/15 24/31/15 20/33/15
f 16/130/16 20/33/16 21/26/16
f 26/41/17 31/34/17 27/36/17
f 28/132/18 27/36/18 33/37/18
f 29/133/19 34/38/19 30/40/19
f 30/40/20 35/39/20 26/41/20
f 31/134/21 36/42/21 32/44/21
f 32/44/22 37/43/22 33/46/22
f 35/50/23 34/47/23 40/49/23
f 31/134/24 35/50/24 36/42/24
f 36/59/25 41/51/25 37/53/25
f 37/53/26 42/52/26 38/55/26
f 39/135/27 44/56/27 40/58/27
f 40/58/28 45/57/28 36/59/28
f 41/68/29 1/60/29 42/62/29
f 42/62/30 2/61/30 43/64/30
f 44/136/31 4/65/31 45/67/31
f 45/67/32 5/66/32 41/68/32
f 56/137/33 49/69/33 57/71/33
f 53/79/35 51/75/35 52/77/35
f 51/75/37 53/79/37 47/81/37
f 55/138/38 56/82/38 54/83/38
f 46/73/39 47/72/39 54/83/39
f 48/70/40 46/73/40 57/71/40
f 47/81/41 49/80/41 55/86/41
f 9/95/58 14/87/58 53/89/58
f 47/122/59 39/90/59 51/92/59
f 71/98/37 69/139/37 77/96/37
f 59/140/37 67/141/37 65/142/37
f 65/142/37 63/143/37 61/144/37
f 61/144/37 77/96/37 69/139/37
f 75/97/37 73/145/37 71/98/37
f 69/139/37 59/140/37 61/144/37
f 65/142/37 61/144/37 59/140/37
f 60/110/46 61/99/46 62/101/46
f 62/101/47 63/100/47 64/103/47
f 69/111/36 68/104/36 59/106/36
f 66/108/48 67/107/48 58/105/48
f 64/103/49 65/102/49 66/108/49
f 76/119/34 77/109/34 60/110/34
f 68/104/50 69/111/50 70/113/50
f 70/113/51 71/112/51 72/115/51
f 72/146/52 73/116/52 74/118/52
f 74/118/53 75/117/53 76/119/53
