# Blender v2.76 (sub 0) OBJ File: 'sat_mapper.blend'
# www.blender.org
o Circle
v 0.000000 5.250000 -1.250000
v -0.625000 5.250000 -1.082532
v -1.082532 5.250000 -0.625000
v -1.250000 5.250000 0.000000
v -1.082532 5.250000 0.625000
v -0.625000 5.250000 1.082532
v -0.000000 5.250000 1.250000
v 0.625000 5.250000 1.082532
v 1.082531 5.250000 0.625000
v 1.250000 5.250000 0.000001
v 1.082532 5.250000 -0.624999
v 0.625001 5.250000 -1.082531
v -0.468750 5.750000 -0.811899
v 0.000000 5.750000 -0.937500
v -0.811899 5.750000 -0.468750
v -0.937500 5.750000 0.000000
v -0.811899 5.750000 0.468750
v -0.468750 5.750000 0.811899
v -0.000000 5.750000 0.937500
v 0.468750 5.750000 0.811899
v 0.811899 5.750000 0.468750
v 0.937500 5.750000 0.000000
v 0.811899 5.750000 -0.468749
v 0.468751 5.750000 -0.811899
v 0.329610 5.750000 -0.554328
v -0.329610 5.750000 -0.554328
v -0.654328 5.750000 -0.229610
v -0.654328 5.750000 0.229610
v -0.329610 5.750000 0.554328
v 0.329610 5.750000 0.554328
v 0.654328 5.750000 0.229610
v 0.654328 5.750000 -0.229610
v -0.329610 7.250000 -0.554328
v 0.329610 7.250000 -0.554328
v -0.654328 7.250000 -0.229610
v -0.654328 7.250000 0.229610
v -0.329610 7.250000 0.554328
v 0.329610 7.250000 0.554328
v 0.654328 7.250000 0.229610
v 0.654328 7.250000 -0.229610
v -0.250000 8.250000 -0.150000
v -0.143934 8.250000 -0.106066
v -0.250000 7.250000 -0.200000
v -0.250000 8.250000 -0.200000
v -0.108579 7.250000 -0.141421
v -0.108579 8.250000 -0.141421
v -0.050000 7.250000 0.000000
v -0.050000 8.250000 0.000000
v -0.108579 7.250000 0.141421
v -0.108579 8.250000 0.141421
v -0.250000 7.250000 0.200000
v -0.250000 8.250000 0.200000
v -0.391421 7.250000 0.141421
v -0.391421 8.250000 0.141421
v -0.450000 7.250000 -0.000000
v -0.450000 8.250000 -0.000000
v -0.391421 7.250000 -0.141421
v -0.391421 8.250000 -0.141421
v -0.100000 8.250000 0.000000
v -0.143934 8.250000 0.106066
v -0.250000 8.250000 0.150000
v -0.356066 8.250000 0.106066
v -0.400000 8.250000 -0.000000
v -0.356066 8.250000 -0.106066
v -0.250000 8.200000 -0.150000
v -0.356066 8.200000 -0.106066
v -0.400000 8.200000 -0.000000
v -0.356066 8.200000 0.106066
v -0.250000 8.200000 0.150000
v -0.143934 8.200000 0.106066
v -0.100000 8.200000 0.000000
v -0.143934 8.200000 -0.106066
v -0.250000 8.225000 -0.075000
v -0.303033 8.225000 -0.053033
v -0.325000 8.225000 -0.000000
v -0.303033 8.225000 0.053033
v -0.250000 8.225000 0.075000
v -0.196967 8.225000 0.053033
v -0.175000 8.225000 0.000000
v -0.196967 8.225000 -0.053033
v 0.050000 7.250000 0.400000
v 0.050000 7.400000 0.400000
v 0.050000 7.250000 -0.400000
v 0.050000 7.400000 -0.400000
v 0.300000 7.250000 -0.400000
v 0.550000 7.250000 -0.150000
v 0.550000 7.250000 0.150000
v 0.300000 7.250000 0.400000
v 0.300000 7.400000 0.400000
v 0.550000 7.400000 0.150000
v 0.550000 7.400000 -0.150000
v 0.300000 7.400000 -0.400000
vt 0.133648 0.335860
vt 0.335860 0.133648
vt 0.409875 0.409875
vt 0.491830 0.473640
vt 0.452607 0.335860
vt 0.350104 0.555466
vt 0.236151 0.555466
vt 0.250395 0.452607
vt 0.473640 0.094425
vt 0.409875 0.176381
vt 0.037448 0.211302
vt 0.094425 0.112615
vt 0.176381 0.176380
vt 0.112615 0.491830
vt 0.176380 0.409875
vt 0.548807 0.211302
vt 0.452607 0.250395
vt 0.211302 0.037448
vt 0.250396 0.133648
vt 0.037448 0.374953
vt 0.555465 0.350104
vt 0.473639 0.491831
vt 0.374953 0.548807
vt 0.335860 0.452607
vt 0.350104 0.030790
vt 0.030790 0.236151
vt 0.133648 0.250395
vt 0.790329 0.030790
vt 0.847515 0.087977
vt 0.790329 0.226038
vt 0.551258 0.617045
vt 0.551258 0.881214
vt 0.470384 0.881214
vt 0.389509 0.617045
vt 0.389509 0.881214
vt 0.308635 0.881214
vt 0.111664 0.617045
vt 0.111664 0.881214
vt 0.030790 0.881214
vt 0.667355 0.617045
vt 0.667355 0.881214
vt 0.470384 0.617045
vt 0.308635 0.617045
vt 0.192538 0.881214
vt 0.192538 0.617045
vt 0.748229 0.617045
vt 0.748229 0.881214
vt 0.802382 0.471865
vt 0.802382 0.480671
vt 0.782164 0.480671
vt 0.832710 0.463730
vt 0.829340 0.471865
vt 0.809122 0.471865
vt 0.670961 0.463730
vt 0.644003 0.463730
vt 0.644003 0.287617
vt 0.829340 0.480671
vt 0.809122 0.480671
vt 0.667591 0.471865
vt 0.647373 0.471865
vt 0.617045 0.463730
vt 0.617045 0.287617
vt 0.775424 0.471865
vt 0.775424 0.480671
vt 0.755205 0.480671
vt 0.724877 0.463730
vt 0.751836 0.463730
vt 0.748466 0.471865
vt 0.805752 0.463730
vt 0.805752 0.287617
vt 0.721508 0.471865
vt 0.721508 0.480671
vt 0.701289 0.480671
vt 0.640633 0.471865
vt 0.778794 0.463730
vt 0.778794 0.287617
vt 0.640633 0.480671
vt 0.620415 0.480671
vt 0.755205 0.471865
vt 0.751836 0.287617
vt 0.860161 0.801966
vt 0.847188 0.796912
vt 0.847188 0.786802
vt 0.697919 0.463730
vt 0.694550 0.471865
vt 0.674331 0.471865
vt 0.724877 0.287617
vt 0.670961 0.287617
vt 0.697919 0.287617
vt 0.667591 0.480671
vt 0.647373 0.480671
vt 0.701289 0.471865
vt 0.728247 0.471865
vt 0.748466 0.480671
vt 0.694550 0.480671
vt 0.674331 0.480671
vt 0.822782 0.786802
vt 0.840039 0.779654
vt 0.829930 0.804060
vt 0.824875 0.766681
vt 0.845094 0.766681
vt 0.809809 0.801966
vt 0.809809 0.781748
vt 0.845639 0.816807
vt 0.840039 0.804060
vt 0.845639 0.766906
vt 0.859935 0.781203
vt 0.824331 0.766906
vt 0.829930 0.779654
vt 0.810034 0.802511
vt 0.822782 0.796912
vt 0.824875 0.817033
vt 0.189917 0.969210
vt 0.189917 0.942793
vt 0.330806 0.942793
vt 0.809809 0.705101
vt 0.853837 0.617045
vt 0.950699 0.705101
vt 0.030790 0.969210
vt 0.030790 0.942793
vt 0.083623 0.942793
vt 0.145889 0.942793
vt 0.145889 0.969210
vt 0.083623 0.969210
vt 0.374834 0.942793
vt 0.374834 0.969210
vt 0.330806 0.969210
vt 0.437100 0.969210
vt 0.548807 0.374954
vt 0.374954 0.037448
vt 0.211301 0.548807
vt 0.491831 0.112616
vt 0.112616 0.094424
vt 0.094424 0.473639
vt 0.555465 0.236151
vt 0.236152 0.030790
vt 0.030790 0.350104
vt 0.674232 0.226038
vt 0.674232 0.030790
vt 0.617045 0.168851
vt 0.617045 0.087977
vt 0.847515 0.168851
vt 0.030790 0.617045
vt 0.782164 0.471865
vt 0.832710 0.287617
vt 0.620415 0.471865
vt 0.860161 0.781748
vt 0.728247 0.480671
vt 0.859935 0.802511
vt 0.810034 0.781203
vt 0.824331 0.816807
vt 0.845094 0.817033
vt 0.950699 0.661073
vt 0.906671 0.617045
vt 0.809809 0.661073
vt 0.437100 0.942793
vn 0.000000 1.000000 0.000000
vn 0.221600 0.516800 -0.826900
vn -0.605300 0.516800 -0.605300
vn 0.826900 0.516800 0.221600
vn -0.221600 0.516800 0.826900
vn -0.826900 0.516800 -0.221600
vn 0.826900 0.516800 -0.221600
vn 0.221600 0.516800 0.826900
vn -0.826900 0.516800 0.221600
vn 0.605300 0.516800 -0.605300
vn -0.221600 0.516800 -0.826900
vn 0.605300 0.516800 0.605300
vn -0.605300 0.516800 0.605300
vn -0.707100 0.000000 0.707100
vn -0.707100 0.000000 -0.707100
vn 1.000000 0.000000 -0.000000
vn 0.000000 0.000000 1.000000
vn -1.000000 0.000000 0.000000
vn 0.000000 0.000000 -1.000000
vn 0.707100 0.000000 -0.707100
vn 0.707100 0.000000 0.707100
vn -0.382700 0.000000 -0.923900
vn 0.382700 0.000000 -0.923900
vn -0.923900 0.000000 -0.382700
vn 0.923900 0.000000 -0.382700
vn 0.923900 0.000000 0.382700
vn 0.382700 0.000000 0.923900
vn -0.923900 0.000000 0.382700
vn -0.382700 0.000000 0.923900
vn 0.313600 0.940600 0.129900
vn -0.129900 0.940600 0.313600
vn -0.313600 0.940600 -0.129900
vn 0.313600 0.940600 -0.129900
vn 0.129900 0.940600 0.313500
vn -0.313600 0.940600 0.129900
vn -0.129900 0.940600 -0.313600
vn 0.129900 0.940600 -0.313600
vn 0.129900 0.940600 0.313600
vn 0.129900 0.940600 -0.313500
s off
f 17/1/1 21/2/1 14/3/1
f 1/4/2 14/3/2 24/5/2
f 2/6/3 3/7/3 15/8/3
f 10/9/4 22/10/4 21/2/4
f 6/11/5 7/12/5 19/13/5
f 4/14/6 16/15/6 15/8/6
f 11/16/7 23/17/7 22/10/7
f 8/18/8 20/19/8 19/13/8
f 5/20/9 17/1/9 16/15/9
f 12/21/10 24/5/10 23/17/10
f 1/22/11 2/23/11 13/24/11
f 9/25/12 21/2/12 20/19/12
f 6/26/13 18/27/13 17/1/13
f 38/28/1 39/29/1 34/30/1
f 29/31/14 37/32/14 36/33/14
f 27/34/15 35/35/15 33/36/15
f 32/37/16 40/38/16 39/39/16
f 30/40/17 38/41/17 37/32/17
f 28/42/18 36/33/18 35/35/18
f 26/43/19 33/36/19 34/44/19
f 25/45/20 34/44/20 40/38/20
f 31/46/21 39/47/21 38/41/21
f 60/48/22 70/49/22 69/50/22
f 48/51/1 59/52/1 60/53/1
f 44/54/23 46/55/23 45/56/23
f 59/52/24 71/57/24 70/58/24
f 44/54/1 41/59/1 42/60/1
f 46/55/25 48/61/25 47/62/25
f 61/63/23 69/64/23 68/65/23
f 56/66/1 54/67/1 62/68/1
f 48/51/26 50/69/26 49/70/26
f 63/71/26 67/72/26 66/73/26
f 48/61/1 46/55/1 42/74/1
f 50/69/27 52/75/27 51/76/27
f 42/74/28 72/77/28 71/78/28
f 52/75/1 61/63/1 62/79/1
f 52/75/29 54/67/29 53/80/29
f 71/81/30 79/82/30 78/83/30
f 58/84/1 64/85/1 41/86/1
f 54/67/28 56/66/28 55/87/28
f 52/75/1 50/69/1 60/48/1
f 58/84/22 44/54/22 43/88/22
f 56/66/24 58/84/24 57/89/24
f 41/59/29 65/90/29 72/91/29
f 56/66/1 63/71/1 64/92/1
f 63/93/25 62/68/25 68/94/25
f 64/85/27 66/95/27 65/96/27
f 75/97/1 77/98/1 73/99/1
f 68/100/31 69/101/31 77/98/31
f 66/102/32 67/103/32 75/97/32
f 72/104/33 80/105/33 79/82/33
f 69/106/34 70/107/34 78/83/34
f 68/108/35 76/109/35 75/97/35
f 66/110/36 74/111/36 73/99/36
f 65/112/37 73/99/37 80/105/37
f 84/113/18 83/114/18 81/115/18
f 82/116/1 90/117/1 84/118/1
f 90/119/16 87/120/16 86/121/16
f 85/122/20 92/123/20 91/124/20
f 88/125/17 89/126/17 82/127/17
f 90/128/21 89/126/21 88/125/21
f 92/123/19 85/122/19 83/114/19
f 14/3/1 13/24/1 15/8/1
f 15/8/1 16/15/1 17/1/1
f 17/1/1 18/27/1 19/13/1
f 19/13/1 20/19/1 17/1/1
f 21/2/1 22/10/1 23/17/1
f 23/17/1 24/5/1 14/3/1
f 14/3/1 15/8/1 17/1/1
f 17/1/1 20/19/1 21/2/1
f 21/2/1 23/17/1 14/3/1
f 12/129/2 1/4/2 24/5/2
f 13/24/3 2/6/3 15/8/3
f 9/130/4 10/9/4 21/2/4
f 18/27/5 6/11/5 19/13/5
f 3/131/6 4/14/6 15/8/6
f 10/132/7 11/16/7 22/10/7
f 7/133/8 8/18/8 19/13/8
f 4/134/9 5/20/9 16/15/9
f 11/135/10 12/21/10 23/17/10
f 14/3/11 1/22/11 13/24/11
f 8/136/12 9/25/12 20/19/12
f 5/137/13 6/26/13 17/1/13
f 34/30/1 33/138/1 37/139/1
f 35/140/1 36/141/1 37/139/1
f 37/139/1 38/28/1 34/30/1
f 39/29/1 40/142/1 34/30/1
f 33/138/1 35/140/1 37/139/1
f 28/42/14 29/31/14 36/33/14
f 26/43/15 27/34/15 33/36/15
f 31/143/16 32/37/16 39/39/16
f 29/31/17 30/40/17 37/32/17
f 27/34/18 28/42/18 35/35/18
f 25/45/19 26/43/19 34/44/19
f 32/37/20 25/45/20 40/38/20
f 30/40/21 31/46/21 38/41/21
f 61/144/22 60/48/22 69/50/22
f 50/69/1 48/51/1 60/53/1
f 43/88/23 44/54/23 45/56/23
f 60/53/24 59/52/24 70/58/24
f 46/55/1 44/54/1 42/60/1
f 45/56/25 46/55/25 47/62/25
f 62/79/23 61/63/23 68/65/23
f 63/93/1 56/66/1 62/68/1
f 47/145/26 48/51/26 49/70/26
f 64/92/26 63/71/26 66/73/26
f 59/146/1 48/61/1 42/74/1
f 49/70/27 50/69/27 51/76/27
f 59/146/28 42/74/28 71/78/28
f 54/67/1 52/75/1 62/79/1
f 51/76/29 52/75/29 53/80/29
f 70/147/30 71/81/30 78/83/30
f 44/54/1 58/84/1 41/86/1
f 53/80/28 54/67/28 55/87/28
f 61/144/1 52/75/1 60/48/1
f 57/89/22 58/84/22 43/88/22
f 55/87/24 56/66/24 57/89/24
f 42/60/29 41/59/29 72/91/29
f 58/84/1 56/66/1 64/92/1
f 67/148/25 63/93/25 68/94/25
f 41/86/27 64/85/27 65/96/27
f 79/82/1 80/105/1 73/99/1
f 73/99/1 74/111/1 75/97/1
f 75/97/1 76/109/1 77/98/1
f 77/98/1 78/83/1 79/82/1
f 79/82/1 73/99/1 77/98/1
f 76/109/31 68/100/31 77/98/31
f 74/111/32 66/102/32 75/97/32
f 71/149/33 72/104/33 79/82/33
f 77/98/38 69/106/38 78/83/38
f 67/150/35 68/108/35 75/97/35
f 65/151/36 66/110/36 73/99/36
f 72/152/39 65/112/39 80/105/39
f 82/127/18 84/113/18 81/115/18
f 92/153/1 84/118/1 91/154/1
f 82/116/1 89/155/1 90/117/1
f 90/117/1 91/154/1 84/118/1
f 91/124/16 90/119/16 86/121/16
f 86/121/20 85/122/20 91/124/20
f 81/115/17 88/125/17 82/127/17
f 87/156/21 90/128/21 88/125/21
f 84/113/19 92/123/19 83/114/19
