# Blender v2.76 (sub 0) OBJ File: 'selenium_engine_piston.blend'
# www.blender.org
o Cube_Cube.001
v 0.088388 0.650000 0.088388
v 0.088388 0.250000 0.088388
v 0.125000 0.650000 0.000000
v 0.125000 0.250000 0.000000
v 0.088388 0.650000 -0.088388
v 0.088388 0.250000 -0.088388
v -0.000000 0.650000 -0.125000
v -0.000000 0.250000 -0.125000
v -0.088389 0.650000 -0.088388
v -0.088388 0.250000 -0.088388
v -0.125000 0.650000 -0.000000
v -0.125000 0.250000 -0.000000
v -0.088389 0.650000 0.088388
v -0.088388 0.250000 0.088388
v -0.000000 0.650000 0.125000
v -0.000000 0.250000 0.125000
v -0.000000 0.650000 0.156250
v -0.000000 0.775000 0.156250
v -0.110486 0.650000 0.110485
v -0.110486 0.775000 0.110485
v -0.156250 0.650000 -0.000000
v -0.156250 0.775000 -0.000000
v -0.110486 0.650000 -0.110485
v -0.110486 0.775000 -0.110485
v -0.000000 0.650000 -0.156250
v -0.000000 0.775000 -0.156250
v 0.110485 0.650000 -0.110485
v 0.110485 0.775000 -0.110485
v 0.156250 0.650000 0.000000
v 0.156250 0.775000 0.000000
v 0.110485 0.650000 0.110485
v 0.110485 0.775000 0.110485
v 0.200000 0.750000 0.050000
v 0.135000 0.750000 -0.050000
v 0.200000 0.750000 -0.050000
v 0.135000 0.750000 0.050000
v 0.235000 0.715000 0.050000
v 0.235000 0.715000 -0.050000
v 0.235000 0.615000 0.050000
v 0.235000 0.615000 -0.050000
v 0.160000 0.465000 0.050000
v 0.160000 0.465000 -0.050000
v 0.160000 0.265000 0.050000
v 0.160000 0.265000 -0.050000
v -0.125000 0.300000 0.107322
v -0.125000 0.650000 0.107322
v -0.107322 0.300000 0.125000
v -0.107323 0.650000 0.125000
v -0.142678 0.300000 0.125000
v -0.142678 0.650000 0.125000
v -0.125000 0.300000 0.142678
v -0.125000 0.650000 0.142678
v -0.125000 0.650000 0.098483
v -0.098484 0.650000 0.125000
v -0.151517 0.650000 0.125000
v -0.125000 0.650000 0.151516
v -0.110000 0.750000 0.083483
v -0.083484 0.750000 0.110000
v -0.110000 0.750000 0.136516
v -0.136517 0.750000 0.110000
v 0.125000 0.300000 0.107322
v 0.125000 0.650000 0.107322
v 0.142678 0.300000 0.125000
v 0.142677 0.650000 0.125000
v 0.107322 0.300000 0.125000
v 0.107322 0.650000 0.125000
v 0.125000 0.300000 0.142678
v 0.125000 0.650000 0.142678
v 0.125000 0.650000 0.098484
v 0.151516 0.650000 0.125000
v 0.098483 0.650000 0.125000
v 0.125000 0.650000 0.151517
v 0.110000 0.750000 0.083484
v 0.136516 0.750000 0.110000
v 0.110000 0.750000 0.136517
v 0.083483 0.750000 0.110000
v 0.125000 0.300000 -0.142678
v 0.125000 0.650000 -0.142678
v 0.142678 0.300000 -0.125000
v 0.142678 0.650000 -0.125000
v 0.107322 0.300000 -0.125000
v 0.107322 0.650000 -0.125000
v 0.125000 0.300000 -0.107322
v 0.125000 0.650000 -0.107322
v 0.125000 0.650000 -0.151516
v 0.151516 0.650000 -0.125000
v 0.098483 0.650000 -0.125000
v 0.125000 0.650000 -0.098483
v 0.110000 0.750000 -0.136516
v 0.136516 0.750000 -0.110000
v 0.110000 0.750000 -0.083483
v 0.083483 0.750000 -0.110000
v -0.125000 0.300000 -0.142678
v -0.125000 0.650000 -0.142678
v -0.107322 0.300000 -0.125000
v -0.107322 0.650000 -0.125000
v -0.142678 0.300000 -0.125000
v -0.142678 0.650000 -0.125000
v -0.125000 0.300000 -0.107322
v -0.125000 0.650000 -0.107322
v -0.125000 0.650000 -0.151517
v -0.098484 0.650000 -0.125000
v -0.151517 0.650000 -0.125000
v -0.125000 0.650000 -0.098484
v -0.110000 0.750000 -0.136517
v -0.083484 0.750000 -0.110000
v -0.110000 0.750000 -0.083484
v -0.136517 0.750000 -0.110000
v -0.100000 0.200000 -0.075000
v -0.100000 0.712500 -0.075000
v -0.100000 0.200000 0.075000
v -0.100000 0.712500 0.075000
v -0.200000 0.200000 -0.075000
v -0.200000 0.612500 -0.075000
v -0.200000 0.200000 0.075000
v -0.200000 0.612500 0.075000
vt 0.420709 0.299122
vt 0.353866 0.299122
vt 0.353866 0.019654
vt 0.554394 0.299122
vt 0.487551 0.299122
vt 0.487552 0.019654
vt 0.287024 0.299122
vt 0.220182 0.299122
vt 0.220182 0.019654
vt 0.153339 0.299122
vt 0.153339 0.019654
vt 0.420709 0.019654
vt 0.086497 0.299123
vt 0.019654 0.299123
vt 0.019654 0.019654
vt 0.287024 0.019654
vt 0.086496 0.019654
vt 0.186760 0.872253
vt 0.103207 0.872253
vt 0.103207 0.784919
vt 0.019654 0.872253
vt 0.019654 0.784919
vt 0.688079 0.872253
vt 0.604526 0.872253
vt 0.604526 0.784919
vt 0.520973 0.872253
vt 0.520973 0.784919
vt 0.437420 0.872253
vt 0.437420 0.784919
vt 0.353867 0.872253
vt 0.353866 0.784919
vt 0.408297 0.397511
vt 0.610013 0.397511
vt 0.610013 0.481064
vt 0.270313 0.872253
vt 0.186760 0.784919
vt 0.270313 0.784919
vt 0.362222 0.764747
vt 0.429064 0.764747
vt 0.345511 0.764747
vt 0.195116 0.764747
vt 0.261958 0.764747
vt 0.178405 0.764747
vt 0.028009 0.764747
vt 0.094852 0.764747
vt 0.679724 0.764747
vt 0.688079 0.784919
vt 0.529328 0.764747
vt 0.596171 0.764747
vt 0.512617 0.764747
vt 0.719188 0.494732
vt 0.719188 0.540145
vt 0.649321 0.540145
vt 0.649321 0.494732
vt 0.649321 0.460149
vt 0.719188 0.460149
vt 0.649321 0.390282
vt 0.719188 0.390282
vt 0.649320 0.273112
vt 0.719188 0.273111
vt 0.649320 0.133377
vt 0.719188 0.133377
vt 0.920071 0.661756
vt 0.920071 0.417221
vt 0.937537 0.417221
vt 0.902605 0.661756
vt 0.902604 0.417221
vt 0.885138 0.661756
vt 0.885137 0.417221
vt 0.867671 0.661756
vt 0.867671 0.417221
vt 0.529281 0.592250
vt 0.533648 0.596617
vt 0.507448 0.596617
vt 0.433353 0.591439
vt 0.450440 0.587814
vt 0.455618 0.591180
vt 0.504082 0.591439
vt 0.481818 0.591180
vt 0.477451 0.586813
vt 0.429988 0.596616
vt 0.455617 0.662601
vt 0.533648 0.694239
vt 0.507447 0.694239
vt 0.507447 0.668038
vt 0.481818 0.662601
vt 0.533648 0.668039
vt 0.793429 0.377913
vt 0.793429 0.133377
vt 0.810896 0.133377
vt 0.775962 0.377913
vt 0.775962 0.133377
vt 0.758496 0.377913
vt 0.758496 0.133377
vt 0.810896 0.377913
vt 0.828362 0.133377
vt 0.808277 0.730813
vt 0.811642 0.735990
vt 0.786013 0.730554
vt 0.833476 0.731624
vt 0.837843 0.735990
vt 0.781646 0.726187
vt 0.759812 0.730554
vt 0.754635 0.727188
vt 0.734183 0.735990
vt 0.837843 0.807412
vt 0.837843 0.833613
vt 0.811642 0.833613
vt 0.786013 0.801975
vt 0.759812 0.801975
vt 0.811642 0.807412
vt 0.885138 0.377913
vt 0.885137 0.133377
vt 0.902604 0.133377
vt 0.867671 0.377913
vt 0.867671 0.133377
vt 0.920071 0.377913
vt 0.920071 0.133377
vt 0.937537 0.133377
vt 0.902605 0.377913
vt 0.781646 0.872920
vt 0.786013 0.877287
vt 0.759812 0.877287
vt 0.791190 0.873922
vt 0.808277 0.877546
vt 0.811642 0.882724
vt 0.737548 0.877546
vt 0.754635 0.873922
vt 0.833476 0.878357
vt 0.837843 0.882724
vt 0.811642 0.954146
vt 0.786013 0.948709
vt 0.811642 0.980346
vt 0.837843 0.954146
vt 0.734183 0.882724
vt 0.759812 0.948709
vt 0.758496 0.661756
vt 0.758496 0.417221
vt 0.775962 0.417221
vt 0.810896 0.661756
vt 0.810896 0.417221
vt 0.828362 0.417221
vt 0.793429 0.661756
vt 0.793429 0.417221
vt 0.775962 0.661756
vt 0.594580 0.584079
vt 0.611667 0.580455
vt 0.616845 0.583820
vt 0.621211 0.579453
vt 0.638678 0.579453
vt 0.643045 0.583820
vt 0.690508 0.584890
vt 0.694875 0.589257
vt 0.668675 0.589257
vt 0.648223 0.580455
vt 0.665309 0.584079
vt 0.643045 0.655242
vt 0.616845 0.655242
vt 0.668675 0.686879
vt 0.668675 0.660679
vt 0.694875 0.660679
vt 0.591215 0.589257
vt 0.264189 0.696500
vt 0.264189 0.338430
vt 0.368990 0.338430
vt 0.194322 0.626632
vt 0.194322 0.338430
vt 0.089521 0.626632
vt 0.089521 0.338430
vt 0.019654 0.696499
vt 0.019654 0.338430
vt 0.194322 0.725439
vt 0.089521 0.725439
vt 0.554394 0.019654
vt 0.550932 0.540146
vt 0.467378 0.540146
vt 0.408297 0.481064
vt 0.467378 0.338430
vt 0.550932 0.338430
vt 0.278669 0.764747
vt 0.111562 0.764747
vt 0.612881 0.764747
vt 0.445775 0.764747
vt 0.937538 0.661756
vt 0.511814 0.592250
vt 0.486996 0.587814
vt 0.459984 0.586813
vt 0.429988 0.668038
vt 0.828363 0.377913
vt 0.791190 0.727188
vt 0.816009 0.731624
vt 0.764179 0.726187
vt 0.737548 0.730813
vt 0.734183 0.807412
vt 0.937538 0.377913
vt 0.764179 0.872920
vt 0.816009 0.878357
vt 0.837843 0.980346
vt 0.734183 0.954146
vt 0.828363 0.661756
vt 0.673041 0.584890
vt 0.694875 0.686879
vt 0.591215 0.660679
vt 0.368990 0.696500
vn 0.382700 0.000000 -0.923900
vn -0.923900 -0.000000 -0.382700
vn 0.923900 0.000000 0.382700
vn 0.382700 0.000000 0.923900
vn -0.382700 -0.000000 -0.923900
vn -0.923900 -0.000000 0.382700
vn 0.923900 0.000000 -0.382700
vn -0.382700 -0.000000 0.923900
vn -0.000000 1.000000 -0.000000
vn 0.000000 -1.000000 -0.000000
vn 0.707100 0.707100 0.000000
vn 1.000000 0.000000 0.000000
vn 0.894400 -0.447200 0.000000
vn 0.707100 0.000000 -0.707100
vn 0.707100 0.000000 0.707100
vn -0.707100 -0.000000 0.707100
vn -0.707100 -0.000000 -0.707100
vn -0.691700 0.207500 0.691700
vn 0.691700 -0.207500 -0.691700
vn -0.691700 -0.207500 -0.691700
vn 0.691700 0.207500 0.691700
vn -0.691700 -0.207500 0.691700
vn 0.691700 0.207500 -0.691700
vn -0.691700 0.207500 -0.691700
vn 0.691700 -0.207500 0.691700
vn -0.000000 -0.000000 1.000000
vn -1.000000 -0.000000 -0.000000
vn 0.000000 0.000000 -1.000000
vn -0.707100 0.707100 -0.000000
s off
f 7/1/1 5/2/1 6/3/1
f 11/4/2 9/5/2 10/6/2
f 3/7/3 1/8/3 2/9/3
f 1/8/4 15/10/4 16/11/4
f 9/5/5 7/1/5 8/12/5
f 13/13/6 11/14/6 12/15/6
f 5/2/7 3/7/7 4/16/7
f 15/10/8 13/13/8 14/17/8
f 18/18/8 20/19/8 19/20/8
f 20/19/6 22/21/6 21/22/6
f 22/23/2 24/24/2 23/25/2
f 24/24/5 26/26/5 25/27/5
f 26/26/1 28/28/1 27/29/1
f 28/28/7 30/30/7 29/31/7
f 30/32/9 24/33/9 22/34/9
f 32/35/4 18/18/4 17/36/4
f 30/30/3 32/35/3 31/37/3
f 3/38/10 5/39/10 27/29/10
f 3/40/10 29/31/10 31/37/10
f 15/41/10 1/42/10 31/37/10
f 15/43/10 17/36/10 19/20/10
f 11/44/10 13/45/10 19/20/10
f 11/46/10 21/47/10 23/25/10
f 7/48/10 9/49/10 23/25/10
f 7/50/10 25/27/10 27/29/10
f 35/51/9 34/52/9 36/53/9
f 33/54/11 37/55/11 38/56/11
f 39/57/12 40/58/12 38/56/12
f 41/59/13 42/60/13 40/58/13
f 43/61/12 44/62/12 42/60/12
f 48/63/14 47/64/14 45/65/14
f 52/66/15 51/67/15 47/64/15
f 50/68/16 49/69/16 51/67/16
f 46/70/17 45/71/17 49/69/17
f 46/72/10 53/73/10 54/74/10
f 46/75/10 50/76/10 55/77/10
f 48/78/10 54/74/10 56/79/10
f 52/80/10 56/79/10 55/77/10
f 53/81/17 55/77/17 60/82/17
f 60/83/9 59/84/9 58/85/9
f 54/74/15 58/85/15 59/86/15
f 56/79/18 59/86/18 60/82/18
f 54/74/19 53/73/19 57/87/19
f 64/88/14 63/89/14 61/90/14
f 68/91/15 67/92/15 63/89/15
f 66/93/16 65/94/16 67/92/16
f 62/95/17 61/90/17 65/96/17
f 62/97/10 69/98/10 70/99/10
f 66/100/10 71/101/10 69/98/10
f 64/102/10 70/99/10 72/103/10
f 68/104/10 72/103/10 71/105/10
f 69/98/20 71/101/20 76/106/20
f 76/106/9 75/107/9 74/108/9
f 70/99/21 74/109/21 75/110/21
f 71/105/16 72/103/16 75/110/16
f 69/98/14 73/111/14 74/109/14
f 80/112/14 79/113/14 77/114/14
f 84/115/15 83/116/15 79/113/15
f 82/117/16 81/118/16 83/119/16
f 78/120/17 77/114/17 81/118/17
f 78/121/10 85/122/10 86/123/10
f 78/124/10 82/125/10 87/126/10
f 84/127/10 80/128/10 86/123/10
f 84/129/10 88/130/10 87/126/10
f 87/126/17 92/131/17 89/132/17
f 89/133/9 92/131/9 91/134/9
f 88/135/15 86/123/15 90/136/15
f 88/130/22 91/134/22 92/131/22
f 86/123/23 85/122/23 89/132/23
f 96/137/14 95/138/14 93/139/14
f 100/140/15 99/141/15 95/142/15
f 98/143/16 97/144/16 99/141/16
f 94/145/17 93/139/17 97/144/17
f 96/146/10 94/147/10 101/148/10
f 94/149/10 98/150/10 103/151/10
f 96/152/10 102/153/10 104/154/10
f 98/155/10 100/156/10 104/154/10
f 103/151/24 108/157/24 105/158/24
f 108/159/9 107/160/9 106/161/9
f 102/153/25 106/161/25 107/160/25
f 104/154/16 107/160/16 108/157/16
f 102/162/14 101/148/14 105/158/14
f 112/163/12 111/164/12 109/165/12
f 116/166/26 115/167/26 111/164/26
f 114/168/27 113/169/27 115/167/27
f 114/168/28 110/170/28 109/171/28
f 116/166/29 112/172/29 110/173/29
f 8/12/1 7/1/1 6/3/1
f 12/174/2 11/4/2 10/6/2
f 4/16/3 3/7/3 2/9/3
f 2/9/4 1/8/4 16/11/4
f 10/6/5 9/5/5 8/12/5
f 14/17/6 13/13/6 12/15/6
f 6/3/7 5/2/7 4/16/7
f 16/11/8 15/10/8 14/17/8
f 17/36/8 18/18/8 19/20/8
f 19/20/6 20/19/6 21/22/6
f 21/47/2 22/23/2 23/25/2
f 23/25/5 24/24/5 25/27/5
f 25/27/1 26/26/1 27/29/1
f 27/29/7 28/28/7 29/31/7
f 22/34/9 20/175/9 30/32/9
f 18/176/9 32/177/9 30/32/9
f 30/32/9 28/178/9 26/179/9
f 26/179/9 24/33/9 30/32/9
f 20/175/9 18/176/9 30/32/9
f 31/37/4 32/35/4 17/36/4
f 29/31/3 30/30/3 31/37/3
f 29/31/10 3/38/10 27/29/10
f 1/180/10 3/40/10 31/37/10
f 17/36/10 15/41/10 31/37/10
f 13/181/10 15/43/10 19/20/10
f 21/22/10 11/44/10 19/20/10
f 9/182/10 11/46/10 23/25/10
f 25/27/10 7/48/10 23/25/10
f 5/183/10 7/50/10 27/29/10
f 33/54/9 35/51/9 36/53/9
f 35/51/11 33/54/11 38/56/11
f 37/55/12 39/57/12 38/56/12
f 39/57/13 41/59/13 40/58/13
f 41/59/12 43/61/12 42/60/12
f 46/184/14 48/63/14 45/65/14
f 48/63/15 52/66/15 47/64/15
f 52/66/16 50/68/16 51/67/16
f 50/68/17 46/70/17 49/69/17
f 48/185/10 46/72/10 54/74/10
f 53/81/10 46/75/10 55/77/10
f 52/186/10 48/78/10 56/79/10
f 50/187/10 52/80/10 55/77/10
f 57/188/17 53/81/17 60/82/17
f 57/87/9 60/83/9 58/85/9
f 56/79/15 54/74/15 59/86/15
f 55/77/18 56/79/18 60/82/18
f 58/85/19 54/74/19 57/87/19
f 62/95/14 64/88/14 61/90/14
f 64/88/15 68/91/15 63/89/15
f 68/91/16 66/93/16 67/92/16
f 66/189/17 62/95/17 65/96/17
f 64/190/10 62/97/10 70/99/10
f 62/191/10 66/100/10 69/98/10
f 68/192/10 64/102/10 72/103/10
f 66/193/10 68/104/10 71/105/10
f 73/111/20 69/98/20 76/106/20
f 73/111/9 76/106/9 74/108/9
f 72/103/21 70/99/21 75/110/21
f 76/194/16 71/105/16 75/110/16
f 70/99/14 69/98/14 74/109/14
f 78/120/14 80/112/14 77/114/14
f 80/112/15 84/115/15 79/113/15
f 84/195/16 82/117/16 83/119/16
f 82/117/17 78/120/17 81/118/17
f 80/196/10 78/121/10 86/123/10
f 85/122/10 78/124/10 87/126/10
f 88/135/10 84/127/10 86/123/10
f 82/197/10 84/129/10 87/126/10
f 85/122/17 87/126/17 89/132/17
f 90/198/9 89/133/9 91/134/9
f 91/199/15 88/135/15 90/136/15
f 87/126/22 88/130/22 92/131/22
f 90/136/23 86/123/23 89/132/23
f 94/145/14 96/137/14 93/139/14
f 96/200/15 100/140/15 95/142/15
f 100/140/16 98/143/16 99/141/16
f 98/143/17 94/145/17 97/144/17
f 102/162/10 96/146/10 101/148/10
f 101/148/10 94/149/10 103/151/10
f 100/201/10 96/152/10 104/154/10
f 103/151/10 98/155/10 104/154/10
f 101/148/24 103/151/24 105/158/24
f 105/202/9 108/159/9 106/161/9
f 104/154/25 102/153/25 107/160/25
f 103/151/16 104/154/16 108/157/16
f 106/203/14 102/162/14 105/158/14
f 110/204/12 112/163/12 109/165/12
f 112/163/26 116/166/26 111/164/26
f 116/166/27 114/168/27 115/167/27
f 113/169/28 114/168/28 109/171/28
f 114/168/29 116/166/29 110/173/29
