# Blender v2.76 (sub 0) OBJ File: 'shimmer_sledge.blend'
# www.blender.org
o Cylinder.002
v 0.000000 0.000000 -0.025000
v 0.012500 0.000000 -0.021651
v 0.021651 0.000000 -0.012500
v 0.025000 0.000000 0.000000
v 0.021651 0.000000 0.012500
v 0.012500 0.000000 0.021651
v 0.000000 0.000000 0.025000
v -0.012500 0.000000 0.021651
v -0.021651 0.000000 0.012500
v -0.025000 0.000000 0.000000
v -0.021651 0.000000 -0.012500
v -0.012500 0.000000 -0.021651
l 1 2
l 2 3
l 3 4
l 4 5
l 5 6
l 6 7
l 7 8
l 8 9
l 9 10
l 10 11
l 11 12
l 12 1
o Cylinder.001
v 0.000000 0.750000 -0.025000
v -0.012500 0.000000 -0.021650
v 0.012500 0.750000 -0.021651
v -0.021651 0.000000 -0.012499
v 0.021651 0.750000 -0.012500
v -0.025000 0.000000 0.000001
v 0.025000 0.750000 -0.000000
v -0.021651 0.000000 0.012501
v 0.021651 0.750000 0.012500
v -0.012500 0.000000 0.021651
v 0.012500 0.750000 0.021651
v 0.000000 0.000000 0.025001
v 0.000000 0.750000 0.025000
v 0.012500 0.000000 0.021651
v -0.012500 0.750000 0.021651
v 0.021651 0.000000 0.012501
v -0.021651 0.750000 0.012500
v 0.025000 0.000000 0.000001
v -0.025000 0.750000 0.000000
v 0.021651 0.000000 -0.012499
v -0.021651 0.750000 -0.012500
v 0.012500 0.000000 -0.021650
v -0.012500 0.750000 -0.021651
v 0.000000 0.000000 -0.024999
v -0.125000 0.750000 -0.065000
v 0.125000 0.750000 -0.065000
v -0.125000 0.725126 -0.060052
v 0.125000 0.725126 -0.060052
v -0.125000 0.704038 -0.045962
v 0.125000 0.704038 -0.045962
v -0.125000 0.689948 -0.024874
v 0.125000 0.689948 -0.024874
v -0.125000 0.685000 -0.000000
v 0.125000 0.685000 0.000000
v -0.125000 0.689948 0.024874
v 0.125000 0.689948 0.024874
v -0.125000 0.704038 0.045962
v 0.125000 0.704038 0.045962
v -0.125000 0.725126 0.060052
v 0.125000 0.725126 0.060052
v -0.125000 0.750000 0.065000
v 0.125000 0.750000 0.065000
v -0.125000 0.774874 0.060052
v 0.125000 0.774874 0.060052
v -0.125000 0.795962 0.045962
v 0.125000 0.795962 0.045962
v -0.125000 0.810052 0.024874
v 0.125000 0.810052 0.024874
v -0.125000 0.815000 -0.000000
v 0.125000 0.815000 0.000000
v -0.125000 0.810052 -0.024874
v 0.125000 0.810052 -0.024874
v -0.125000 0.795962 -0.045962
v 0.125000 0.795962 -0.045962
v -0.125000 0.774874 -0.060052
v 0.125000 0.774874 -0.060052
v 0.150000 0.732588 -0.042037
v 0.150000 0.750000 -0.045500
v 0.150000 0.767412 -0.042037
v 0.150000 0.782173 -0.032173
v 0.150000 0.792037 -0.017412
v 0.150000 0.795500 0.000000
v 0.150000 0.792037 0.017412
v 0.150000 0.782173 0.032173
v 0.150000 0.767412 0.042037
v 0.150000 0.750000 0.045500
v 0.150000 0.732588 0.042037
v 0.150000 0.717827 0.032173
v 0.150000 0.707964 0.017412
v 0.150000 0.704500 0.000000
v 0.150000 0.707964 -0.017412
v 0.150000 0.717827 -0.032173
v -0.150000 0.750000 -0.045500
v -0.150000 0.732588 -0.042037
v -0.150000 0.717827 -0.032173
v -0.150000 0.707963 -0.017412
v -0.150000 0.704500 -0.000000
v -0.150000 0.707963 0.017412
v -0.150000 0.717827 0.032173
v -0.150000 0.732588 0.042036
v -0.150000 0.750000 0.045500
v -0.150000 0.767412 0.042036
v -0.150000 0.782173 0.032173
v -0.150000 0.792036 0.017412
v -0.150000 0.795500 -0.000000
v -0.150000 0.792036 -0.017412
v -0.150000 0.782173 -0.032173
v -0.150000 0.767412 -0.042037
vt 0.020688 0.204740
vt 0.979279 0.204739
vt 0.979276 0.221471
vt 0.020691 0.188008
vt 0.979282 0.188007
vt 0.020694 0.171275
vt 0.979286 0.171274
vt 0.020698 0.154543
vt 0.979289 0.154542
vt 0.020711 0.087614
vt 0.979302 0.087613
vt 0.979299 0.104346
vt 0.020701 0.137811
vt 0.979292 0.137810
vt 0.020714 0.070882
vt 0.979306 0.070881
vt 0.020708 0.104347
vt 0.979295 0.121078
vt 0.020704 0.121079
vt 0.020718 0.054150
vt 0.979309 0.054149
vt 0.020721 0.037418
vt 0.979312 0.037417
vt 0.020725 0.020685
vt 0.979316 0.020684
vt 0.718366 0.575925
vt 0.749409 0.584243
vt 0.735002 0.638011
vt 0.020685 0.393254
vt 0.020685 0.360650
vt 0.342065 0.360650
vt 0.020685 0.328047
vt 0.342065 0.328047
vt 0.020685 0.295444
vt 0.342065 0.295444
vt 0.020685 0.262841
vt 0.342065 0.262841
vt 0.020685 0.784491
vt 0.020685 0.751887
vt 0.342065 0.751887
vt 0.020684 0.719284
vt 0.342065 0.719284
vt 0.020684 0.686681
vt 0.020685 0.654078
vt 0.342065 0.654078
vt 0.020685 0.621475
vt 0.020685 0.588872
vt 0.342065 0.588872
vt 0.020685 0.556269
vt 0.342065 0.556269
vt 0.020685 0.523666
vt 0.342065 0.523666
vt 0.020685 0.491063
vt 0.342065 0.491063
vt 0.020685 0.458460
vt 0.342065 0.458460
vt 0.020685 0.425857
vt 0.342065 0.393253
vt 0.342065 0.425856
vt 0.392168 0.600797
vt 0.473297 0.584659
vt 0.489435 0.665789
vt 0.719842 0.518681
vt 0.738963 0.482686
vt 0.760257 0.490897
vt 0.720239 0.469639
vt 0.705162 0.452506
vt 0.693093 0.500041
vt 0.656467 0.446663
vt 0.694601 0.432274
vt 0.689164 0.410109
vt 0.689164 0.387287
vt 0.648700 0.414999
vt 0.656468 0.350732
vt 0.694601 0.365122
vt 0.671556 0.321830
vt 0.705163 0.344890
vt 0.720240 0.327758
vt 0.738965 0.314710
vt 0.693094 0.297355
vt 0.750264 0.266986
vt 0.760259 0.306500
vt 0.782896 0.303598
vt 0.805572 0.306174
vt 0.782602 0.262841
vt 0.814995 0.530878
vt 0.805571 0.491224
vt 0.826981 0.483321
vt 0.782600 0.534556
vt 0.782894 0.493799
vt 0.750262 0.530411
vt 0.645539 0.665789
vt 0.564409 0.681926
vt 0.629401 0.584659
vt 0.562938 0.500042
vt 0.535792 0.469639
vt 0.550869 0.452506
vt 0.517067 0.482686
vt 0.495773 0.490898
vt 0.536189 0.518681
vt 0.473136 0.493799
vt 0.505769 0.530411
vt 0.429050 0.314077
vt 0.410139 0.326853
vt 0.383434 0.296062
vt 0.450460 0.306173
vt 0.410449 0.277810
vt 0.473430 0.262841
vt 0.473136 0.303598
vt 0.495773 0.306500
vt 0.536188 0.278716
vt 0.517067 0.314711
vt 0.562938 0.297355
vt 0.535792 0.327758
vt 0.550869 0.344891
vt 0.561430 0.365122
vt 0.584476 0.321830
vt 0.607331 0.382397
vt 0.566867 0.387287
vt 0.607331 0.415000
vt 0.566867 0.410109
vt 0.561430 0.432275
vt 0.599564 0.446664
vt 0.020684 0.221472
vt 0.718366 0.638011
vt 0.703959 0.629693
vt 0.695641 0.615286
vt 0.695641 0.598650
vt 0.703959 0.584243
vt 0.735002 0.575925
vt 0.757727 0.598650
vt 0.757727 0.615286
vt 0.749409 0.629693
vt 0.342065 0.784490
vt 0.342065 0.686681
vt 0.342065 0.621475
vt 0.473298 0.681926
vt 0.452213 0.690660
vt 0.429390 0.690660
vt 0.408305 0.681926
vt 0.392168 0.665789
vt 0.383434 0.644704
vt 0.383434 0.621882
vt 0.408305 0.584659
vt 0.429390 0.575925
vt 0.452212 0.575925
vt 0.489435 0.600797
vt 0.498169 0.621882
vt 0.498169 0.644704
vt 0.671554 0.475566
vt 0.648700 0.382396
vt 0.719844 0.278715
vt 0.814997 0.266520
vt 0.845581 0.519588
vt 0.548271 0.600797
vt 0.564409 0.584659
vt 0.585494 0.575925
vt 0.608316 0.575925
vt 0.645539 0.600797
vt 0.654272 0.621882
vt 0.654272 0.644704
vt 0.629401 0.681926
vt 0.608316 0.690660
vt 0.585494 0.690660
vt 0.548271 0.665789
vt 0.539538 0.644704
vt 0.539538 0.621882
vt 0.584477 0.475566
vt 0.473430 0.534556
vt 0.441035 0.266520
vt 0.505768 0.266986
vt 0.599564 0.350733
vn -0.258800 0.000000 0.965900
vn -0.707100 0.000000 0.707100
vn -0.965900 0.000000 0.258800
vn -0.965900 -0.000000 -0.258800
vn 0.707100 -0.000000 -0.707100
vn -0.707100 -0.000000 -0.707100
vn 0.965900 -0.000000 -0.258800
vn 0.258800 -0.000000 -0.965900
vn -0.258800 -0.000000 -0.965900
vn 0.965900 0.000000 0.258800
vn 0.707100 0.000000 0.707100
vn 0.258800 0.000000 0.965900
vn 0.000000 -1.000000 0.000000
vn 0.000000 -0.195100 -0.980800
vn 0.000000 -0.555600 -0.831500
vn 0.000000 -0.831500 -0.555600
vn 0.000000 -0.980800 -0.195100
vn -0.000000 -0.980800 0.195100
vn -0.000000 -0.831500 0.555600
vn 0.000000 -0.555600 0.831500
vn -0.000000 -0.195100 0.980800
vn -0.000000 0.195100 0.980800
vn -0.000000 0.555600 0.831500
vn -0.000000 0.831500 0.555600
vn -0.000000 0.980800 0.195100
vn 0.000000 0.980800 -0.195100
vn 0.000000 0.831500 -0.555600
vn 0.000000 0.195100 -0.980800
vn 0.000000 0.555600 -0.831500
vn 1.000000 0.000000 0.000000
vn 0.607600 -0.154900 -0.779000
vn 0.607600 0.154900 -0.779000
vn 0.607600 0.441300 -0.660400
vn 0.607600 0.660400 -0.441300
vn 0.607600 0.779000 -0.154900
vn 0.607600 0.779000 0.154900
vn 0.607600 0.660400 0.441300
vn 0.607600 0.441300 0.660400
vn 0.607600 0.154900 0.779000
vn 0.607600 -0.154900 0.779000
vn 0.607600 -0.441300 0.660400
vn 0.607600 -0.660400 0.441300
vn 0.607600 -0.779000 0.154900
vn 0.607600 -0.779000 -0.154900
vn 0.607600 -0.660400 -0.441300
vn 0.607600 -0.441300 -0.660400
vn -1.000000 0.000000 -0.000000
vn -0.607600 -0.154900 -0.779000
vn -0.607600 -0.441300 -0.660400
vn -0.607600 -0.660400 -0.441300
vn -0.607600 -0.779000 -0.154900
vn -0.607600 -0.779000 0.154900
vn -0.607600 -0.660400 0.441300
vn -0.607600 -0.441300 0.660400
vn -0.607600 -0.154900 0.779000
vn -0.607600 0.154900 0.779000
vn -0.607600 0.441300 0.660400
vn -0.607600 0.660400 0.441300
vn -0.607600 0.779000 0.154900
vn -0.607600 0.779000 -0.154900
vn -0.607600 0.660400 -0.441300
vn -0.607600 0.441300 -0.660400
vn -0.607600 0.154900 -0.779000
vn 0.607600 0.779000 -0.155000
vn 0.607600 0.779000 0.155000
vn 0.607600 -0.155000 0.779000
vn -0.607600 -0.779000 0.155000
s off
f 27/1/1 22/2/1 24/3/1
f 29/4/2 20/5/2 22/2/2
f 29/4/3 31/6/3 18/7/3
f 33/8/4 16/9/4 18/7/4
f 17/10/5 32/11/5 34/12/5
f 35/13/6 14/14/6 16/9/6
f 19/15/7 30/16/7 32/11/7
f 15/17/8 34/12/8 36/18/8
f 13/19/9 36/18/9 14/14/9
f 21/20/10 28/21/10 30/16/10
f 21/20/11 23/22/11 26/23/11
f 25/24/12 24/25/12 26/23/12
f 26/26/13 22/27/13 14/28/13
f 38/29/14 40/30/14 39/31/14
f 40/30/15 42/32/15 41/33/15
f 42/32/16 44/34/16 43/35/16
f 44/34/17 46/36/17 45/37/17
f 46/38/18 48/39/18 47/40/18
f 47/40/19 48/39/19 50/41/19
f 49/42/20 50/41/20 52/43/20
f 52/43/21 54/44/21 53/45/21
f 53/45/22 54/44/22 56/46/22
f 56/46/23 58/47/23 57/48/23
f 58/47/24 60/49/24 59/50/24
f 60/49/25 62/51/25 61/52/25
f 62/51/26 64/53/26 63/54/26
f 64/53/27 66/55/27 65/56/27
f 68/57/28 38/29/28 37/58/28
f 66/55/29 68/57/29 67/59/29
f 76/60/30 80/61/30 84/62/30
f 38/63/31 70/64/31 69/65/31
f 71/66/32 70/64/32 38/63/32
f 72/67/33 71/66/33 68/68/33
f 64/69/34 73/70/34 72/67/34
f 74/71/35 73/70/35 64/69/35
f 75/72/36 74/71/36 62/73/36
f 58/74/37 76/75/37 75/72/37
f 56/76/38 77/77/38 76/75/38
f 78/78/39 77/77/39 56/76/39
f 79/79/40 78/78/40 54/80/40
f 50/81/41 80/82/41 79/79/41
f 81/83/42 80/82/42 50/81/42
f 82/84/43 81/83/43 48/85/43
f 44/86/44 83/87/44 82/88/44
f 42/89/45 84/90/45 83/87/45
f 40/91/46 69/65/46 84/90/46
f 92/92/47 96/93/47 88/94/47
f 39/95/48 86/96/48 85/97/48
f 87/98/49 86/96/49 39/95/49
f 88/99/50 87/98/50 41/100/50
f 89/101/51 88/99/51 43/102/51
f 90/103/52 89/104/52 45/105/52
f 91/106/53 90/103/53 47/107/53
f 51/108/54 92/109/54 91/106/54
f 93/110/55 92/109/55 51/108/55
f 55/111/56 94/112/56 93/110/56
f 57/113/57 95/114/57 94/112/57
f 96/115/58 95/114/58 57/113/58
f 97/116/59 96/115/59 59/117/59
f 63/118/60 98/119/60 97/116/60
f 65/120/61 99/121/61 98/119/61
f 100/122/62 99/121/62 65/120/62
f 85/97/63 100/122/63 67/123/63
f 25/124/1 27/1/1 24/3/1
f 27/1/2 29/4/2 22/2/2
f 20/5/3 29/4/3 18/7/3
f 31/6/4 33/8/4 18/7/4
f 15/17/5 17/10/5 34/12/5
f 33/8/6 35/13/6 16/9/6
f 17/10/7 19/15/7 32/11/7
f 13/19/8 15/17/8 36/18/8
f 35/13/9 13/19/9 14/14/9
f 19/15/10 21/20/10 30/16/10
f 28/21/11 21/20/11 26/23/11
f 23/22/12 25/24/12 26/23/12
f 14/28/13 36/125/13 34/126/13
f 34/126/13 32/127/13 14/28/13
f 30/128/13 28/129/13 26/26/13
f 26/26/13 24/130/13 22/27/13
f 22/27/13 20/131/13 18/132/13
f 18/132/13 16/133/13 22/27/13
f 14/28/13 32/127/13 30/128/13
f 30/128/13 26/26/13 14/28/13
f 22/27/13 16/133/13 14/28/13
f 37/58/14 38/29/14 39/31/14
f 39/31/15 40/30/15 41/33/15
f 41/33/16 42/32/16 43/35/16
f 43/35/17 44/34/17 45/37/17
f 45/134/18 46/38/18 47/40/18
f 49/42/19 47/40/19 50/41/19
f 51/135/20 49/42/20 52/43/20
f 51/135/21 52/43/21 53/45/21
f 55/136/22 53/45/22 56/46/22
f 55/136/23 56/46/23 57/48/23
f 57/48/24 58/47/24 59/50/24
f 59/50/25 60/49/25 61/52/25
f 61/52/26 62/51/26 63/54/26
f 63/54/27 64/53/27 65/56/27
f 67/59/28 68/57/28 37/58/28
f 65/56/29 66/55/29 67/59/29
f 84/62/30 69/137/30 70/138/30
f 70/138/30 71/139/30 72/140/30
f 72/140/30 73/141/30 74/142/30
f 74/142/30 75/143/30 72/140/30
f 76/60/30 77/144/30 80/61/30
f 78/145/30 79/146/30 80/61/30
f 80/61/30 81/147/30 84/62/30
f 82/148/30 83/149/30 84/62/30
f 84/62/30 70/138/30 72/140/30
f 72/140/30 75/143/30 76/60/30
f 77/144/30 78/145/30 80/61/30
f 81/147/30 82/148/30 84/62/30
f 84/62/30 72/140/30 76/60/30
f 40/91/31 38/63/31 69/65/31
f 68/68/32 71/66/32 38/63/32
f 66/150/33 72/67/33 68/68/33
f 66/150/34 64/69/34 72/67/34
f 62/73/64 74/71/64 64/69/64
f 60/151/65 75/72/65 62/73/65
f 60/151/37 58/74/37 75/72/37
f 58/74/38 56/76/38 76/75/38
f 54/80/39 78/78/39 56/76/39
f 52/152/66 79/79/66 54/80/66
f 52/152/41 50/81/41 79/79/41
f 48/85/42 81/83/42 50/81/42
f 46/153/43 82/84/43 48/85/43
f 46/154/44 44/86/44 82/88/44
f 44/86/45 42/89/45 83/87/45
f 42/89/46 40/91/46 84/90/46
f 100/155/47 85/156/47 86/157/47
f 86/157/47 87/158/47 100/155/47
f 88/94/47 89/159/47 90/160/47
f 90/160/47 91/161/47 88/94/47
f 92/92/47 93/162/47 96/93/47
f 94/163/47 95/164/47 96/93/47
f 96/93/47 97/165/47 98/166/47
f 98/166/47 99/167/47 100/155/47
f 100/155/47 87/158/47 88/94/47
f 88/94/47 91/161/47 92/92/47
f 93/162/47 94/163/47 96/93/47
f 96/93/47 98/166/47 100/155/47
f 100/155/47 88/94/47 96/93/47
f 37/168/48 39/95/48 85/97/48
f 41/100/49 87/98/49 39/95/49
f 43/102/50 88/99/50 41/100/50
f 45/169/51 89/101/51 43/102/51
f 47/107/67 90/103/67 45/105/67
f 49/170/53 91/106/53 47/107/53
f 49/170/54 51/108/54 91/106/54
f 53/171/55 93/110/55 51/108/55
f 53/171/56 55/111/56 93/110/56
f 55/111/57 57/113/57 94/112/57
f 59/117/58 96/115/58 57/113/58
f 61/172/59 97/116/59 59/117/59
f 61/172/60 63/118/60 97/116/60
f 63/118/61 65/120/61 98/119/61
f 67/123/62 100/122/62 65/120/62
f 37/168/63 85/97/63 67/123/63
