# Blender 3.4.1
# www.blender.org
mtllib soyuz_lander_neo.mtl
o Capsule
v 0.311409 -0.127531 -0.751807
v 0.000000 -0.127531 -0.813750
v 0.000000 -0.002531 -1.085000
v 0.000000 1.487469 -0.922250
v 0.415212 -0.002531 -1.002409
v 0.352930 1.487469 -0.852048
v 0.767211 -0.002531 -0.767211
v 0.652129 1.487469 -0.652129
v 1.002409 -0.002531 -0.415212
v 0.852048 1.487469 -0.352930
v 1.085000 -0.002531 0.000000
v 0.922250 1.487469 0.000000
v 1.002409 -0.002531 0.415212
v 0.852048 1.487469 0.352930
v 0.767211 -0.002531 0.767211
v 0.652129 1.487469 0.652129
v 0.415212 -0.002531 1.002409
v 0.352930 1.487469 0.852048
v 0.000000 -0.002531 1.085000
v 0.000000 1.487469 0.922250
v -0.415211 -0.002531 1.002409
v -0.352930 1.487469 0.852048
v -0.767211 -0.002531 0.767211
v -0.652129 1.487469 0.652129
v -1.002409 -0.002531 0.415212
v -0.852048 1.487469 0.352930
v -1.085000 -0.002531 0.000000
v -0.922250 1.487469 0.000000
v -1.002409 -0.002531 -0.415212
v -0.852048 1.487469 -0.352930
v -0.767211 -0.002531 -0.767211
v -0.652129 1.487469 -0.652129
v -0.415211 -0.002531 -1.002410
v -0.352929 1.487469 -0.852048
v 0.575408 -0.127531 -0.575408
v 0.751807 -0.127531 -0.311409
v 0.813750 -0.127531 0.000000
v 0.751807 -0.127531 0.311409
v 0.575408 -0.127531 0.575408
v 0.311409 -0.127531 0.751807
v 0.000000 -0.127531 0.813750
v -0.311408 -0.127531 0.751807
v -0.575408 -0.127531 0.575408
v -0.751807 -0.127531 0.311409
v -0.813750 -0.127531 0.000000
v -0.751807 -0.127531 -0.311409
v -0.575408 -0.127531 -0.575408
v -0.311408 -0.127531 -0.751807
v -0.103803 -0.119418 -0.250602
v 0.000000 -0.119418 -0.271250
v -0.191803 -0.119418 -0.191803
v -0.250602 -0.119418 -0.103803
v -0.271250 -0.119418 0.000000
v -0.250602 -0.119418 0.103803
v -0.191803 -0.119418 0.191803
v -0.103803 -0.119418 0.250602
v 0.000000 -0.119418 0.271250
v 0.103803 -0.119418 0.250602
v 0.191803 -0.119418 0.191803
v 0.250602 -0.119418 0.103803
v 0.271250 -0.119418 0.000000
v 0.250602 -0.119418 -0.103803
v 0.191803 -0.119418 -0.191803
v 0.103803 -0.119418 -0.250602
v 0.207606 1.862469 -0.501205
v 0.000000 1.862469 -0.542500
v 0.383605 1.862469 -0.383605
v 0.501205 1.862469 -0.207606
v 0.542500 1.862469 0.000000
v 0.501205 1.862469 0.207606
v 0.383605 1.862469 0.383605
v 0.207606 1.862469 0.501205
v 0.000000 1.862469 0.542500
v -0.207606 1.862469 0.501205
v -0.383605 1.862469 0.383606
v -0.501205 1.862469 0.207606
v -0.542500 1.862469 0.000000
v -0.501205 1.862469 -0.207606
v -0.383605 1.862469 -0.383606
v -0.207605 1.862469 -0.501205
v 0.207606 1.987469 -0.501205
v 0.000000 1.987469 -0.542500
v 0.383605 1.987469 -0.383605
v 0.501205 1.987469 -0.207606
v 0.542500 1.987469 0.000000
v 0.501205 1.987469 0.207606
v 0.383605 1.987469 0.383605
v 0.207606 1.987469 0.501205
v 0.000000 1.987469 0.542500
v -0.207606 1.987469 0.501205
v -0.383605 1.987469 0.383606
v -0.501205 1.987469 0.207606
v -0.542500 1.987469 0.000000
v -0.501205 1.987469 -0.207606
v -0.383605 1.987469 -0.383606
v -0.207606 1.987469 -0.501205
v 0.155704 1.987469 -0.375903
v 0.000000 1.987469 -0.406875
v 0.287704 1.987469 -0.287704
v 0.375904 1.987469 -0.155704
v 0.406875 1.987469 0.000000
v 0.375904 1.987469 0.155704
v 0.287704 1.987469 0.287704
v 0.155704 1.987469 0.375903
v 0.000000 1.987469 0.406875
v -0.155704 1.987469 0.375904
v -0.287704 1.987469 0.287704
v -0.375903 1.987469 0.155704
v -0.406875 1.987469 0.000000
v -0.375903 1.987469 -0.155704
v -0.287704 1.987469 -0.287704
v -0.155704 1.987469 -0.375904
v 0.155704 1.862469 -0.375903
v 0.000000 1.862469 -0.406875
v 0.287704 1.862469 -0.287704
v 0.375904 1.862469 -0.155704
v 0.406875 1.862469 0.000000
v 0.375904 1.862469 0.155704
v 0.287704 1.862469 0.287704
v 0.155704 1.862469 0.375903
v 0.000000 1.862469 0.406875
v -0.155704 1.862469 0.375904
v -0.287704 1.862469 0.287704
v -0.375903 1.862469 0.155704
v -0.406875 1.862469 0.000000
v -0.375903 1.862469 -0.155704
v -0.287704 1.862469 -0.287704
v -0.155704 1.862469 -0.375904
vn -0.0000 1.0000 -0.0000
vn -0.0000 -0.9724 0.2331
vn -0.0000 -1.0000 -0.0084
vn -0.0032 -1.0000 -0.0078
vn 0.4185 -0.9082 -0.0000
vn 0.2331 -0.9724 -0.0000
vn 0.2154 -0.9724 -0.0892
vn -0.0000 0.4197 -0.9077
vn 0.3474 0.4197 -0.8386
vn 0.3804 0.1086 -0.9184
vn 0.2154 -0.9724 0.0892
vn -0.0078 -1.0000 -0.0032
vn -0.0084 -1.0000 -0.0000
vn -0.0000 -0.9082 -0.4185
vn -0.0000 -0.9724 -0.2331
vn -0.0892 -0.9724 -0.2154
vn 0.6418 0.4197 -0.6418
vn 0.7029 0.1086 -0.7029
vn -0.2154 -0.9724 0.0892
vn 0.0078 -1.0000 -0.0032
vn 0.0059 -1.0000 -0.0059
vn -0.2959 -0.9082 -0.2959
vn -0.1648 -0.9724 -0.1648
vn -0.2154 -0.9724 -0.0892
vn 0.8386 0.4197 -0.3474
vn 0.9184 0.1086 -0.3804
vn 0.0059 -1.0000 0.0059
vn -0.2959 -0.9082 0.2959
vn -0.3867 -0.9082 0.1602
vn 0.9077 0.4197 -0.0000
vn 0.0892 -0.9724 -0.2154
vn -0.0032 -1.0000 0.0078
vn -0.0000 -1.0000 0.0084
vn 0.1602 -0.9082 0.3867
vn -0.0000 -0.9082 0.4185
vn 0.8386 0.4197 0.3474
vn 0.9184 0.1086 0.3804
vn 0.1602 -0.9082 -0.3867
vn 0.6418 0.4197 0.6418
vn 0.7029 0.1086 0.7029
vn 0.0892 -0.9724 0.2154
vn -0.0059 -1.0000 -0.0059
vn 0.3867 -0.9082 0.1602
vn 0.3474 0.4197 0.8386
vn 0.3804 0.1086 0.9184
vn -0.1648 -0.9724 0.1648
vn 0.0032 -1.0000 -0.0078
vn 0.2959 -0.9082 -0.2959
vn 0.1648 -0.9724 -0.1648
vn -0.0000 0.4197 0.9077
vn -0.0000 0.1086 0.9941
vn 0.0078 -1.0000 0.0032
vn 0.0084 -1.0000 -0.0000
vn -0.1602 -0.9082 -0.3867
vn -0.3474 0.4197 0.8386
vn -0.3804 0.1086 0.9184
vn -0.0078 -1.0000 0.0032
vn -0.4185 -0.9082 -0.0000
vn -0.2331 -0.9724 -0.0000
vn -0.6418 0.4197 0.6418
vn -0.7029 0.1086 0.7029
vn 0.1648 -0.9724 0.1648
vn -0.1602 -0.9082 0.3867
vn -0.0892 -0.9724 0.2154
vn -0.8386 0.4197 0.3474
vn -0.9184 0.1086 0.3804
vn 0.2959 -0.9082 0.2959
vn -0.9077 0.4197 -0.0000
vn -0.9941 0.1086 -0.0000
vn 0.3867 -0.9082 -0.1602
vn -0.8386 0.4197 -0.3474
vn -0.9184 0.1086 -0.3804
vn -0.6418 0.4197 -0.6418
vn -0.7029 0.1086 -0.7029
vn -0.3474 0.4197 -0.8386
vn -0.2689 0.7115 -0.6492
vn -0.0000 0.7115 -0.7026
vn -0.3804 0.1086 -0.9184
vn 0.0032 -1.0000 0.0078
vn -0.3867 -0.9082 -0.1602
vn -0.0059 -1.0000 0.0059
vn 1.0000 -0.0000 -0.0000
vn 0.9239 -0.0000 0.3827
vn 0.2689 0.7115 -0.6492
vn 0.6492 0.7115 -0.2689
vn 0.4968 0.7115 0.4968
vn 0.2689 0.7115 0.6492
vn -0.2689 0.7115 0.6492
vn -0.4968 0.7115 0.4968
vn -0.7026 0.7115 -0.0000
vn -0.6492 0.7115 -0.2689
vn 0.4968 0.7115 -0.4968
vn 0.6492 0.7115 0.2689
vn -0.0000 0.7115 0.7026
vn -0.6492 0.7115 0.2689
vn -0.4968 0.7115 -0.4968
vn 0.7026 0.7115 -0.0000
vn -1.0000 -0.0000 -0.0000
vn -0.9239 -0.0000 -0.3827
vn 0.7071 -0.0000 0.7071
vn -0.7071 -0.0000 -0.7071
vn 0.3827 -0.0000 0.9239
vn -0.3827 -0.0000 -0.9239
vn -0.0000 -0.0000 1.0000
vn -0.0000 -0.0000 -1.0000
vn 0.3827 -0.0000 -0.9239
vn -0.3827 -0.0000 0.9239
vn 0.7071 -0.0000 -0.7071
vn -0.7071 -0.0000 0.7071
vn 0.9239 -0.0000 -0.3827
vn -0.9239 -0.0000 0.3827
vn -0.0000 0.1086 -0.9941
vn 0.9941 0.1086 -0.0000
vt 0.053571 0.843137
vt 0.008929 0.843137
vt 0.008929 0.843137
vt 0.053571 0.843137
vt 0.062500 0.745098
vt -0.000000 0.745098
vt 0.750000 -0.000000
vt 0.758929 0.470588
vt 0.741071 0.470588
vt 0.687500 0.000000
vt 0.062500 0.745098
vt -0.000000 0.745098
vt 0.678711 0.470894
vt 0.696468 0.470773
vt 0.678571 0.470588
vt 0.625000 -0.000000
vt 0.062500 0.745098
vt -0.000000 0.745098
vt 0.616041 0.470601
vt 0.633898 0.470831
vt 0.633929 0.470588
vt -0.000000 0.745098
vt 0.562500 0.000000
vt 0.062500 0.745098
vt 0.553571 0.470588
vt 0.571429 0.470588
vt 0.062500 0.745098
vt 0.500000 0.000000
vt -0.000000 0.745098
vt 0.508929 0.470588
vt 0.491071 0.470588
vt 0.062500 0.745098
vt 0.437500 0.000000
vt -0.000000 0.745098
vt 0.428571 0.470588
vt 0.446429 0.470588
vt 0.062500 0.745098
vt 0.375000 -0.000000
vt -0.000000 0.745098
vt 0.366071 0.470588
vt 0.383929 0.470588
vt -0.000000 0.745098
vt 0.312500 0.000000
vt 0.062500 0.745098
vt 0.321429 0.470588
vt 0.303571 0.470588
vt 0.062500 0.745098
vt 0.250000 -0.000000
vt -0.000000 0.745098
vt 0.241071 0.470588
vt 0.258929 0.470588
vt 0.062500 0.745098
vt 0.187500 0.000000
vt -0.000000 0.745098
vt 0.178571 0.470588
vt 0.196429 0.470588
vt -0.000000 0.745098
vt 0.125000 -0.000000
vt 0.062500 0.745098
vt 0.133929 0.470588
vt 0.116071 0.470588
vt 0.062500 0.745098
vt -0.000000 0.745098
vt 0.062500 -0.000000
vt 0.053571 0.470588
vt 0.071429 0.470588
vt 0.062500 0.745098
vt -0.000000 -0.000000
vt 1.000000 -0.000000
vt -0.000000 0.745098
vt 0.991071 0.470588
vt 0.008929 0.470588
vt 0.062500 0.745098
vt -0.000000 0.745098
vt 0.937500 0.000000
vt 0.928571 0.470588
vt 0.946429 0.470588
vt 0.062500 0.745098
vt -0.000000 0.745098
vt 0.875000 -0.000000
vt 0.866071 0.470588
vt 0.883929 0.470588
vt 0.062500 0.745098
vt -0.000000 0.745098
vt 0.812500 0.000000
vt 0.803571 0.470588
vt 0.821429 0.470588
vt 0.008929 0.843137
vt 0.053571 0.843137
vt 0.053571 0.843137
vt 0.008929 0.843137
vt 0.053571 0.843137
vt 0.008929 0.843137
vt 0.053571 0.843137
vt 0.008929 0.843137
vt 0.053571 0.843137
vt 0.008929 0.843137
vt 0.008929 0.843137
vt 0.053571 0.843137
vt 0.053571 0.843137
vt 0.008929 0.843137
vt 0.053571 0.843137
vt 0.008929 0.843137
vt 0.008929 0.843137
vt 0.053571 0.843137
vt 0.053571 0.843137
vt 0.008929 0.843137
vt 0.053571 0.843137
vt 0.008929 0.843137
vt 0.008929 0.843137
vt 0.053571 0.843137
vt 0.053571 0.843137
vt 0.008929 0.843137
vt 0.008929 0.843137
vt 0.053571 0.843137
vt 0.035714 1.000000
vt 0.072894 0.799489
vt 0.017857 1.000000
vt 0.035714 1.000000
vt 0.017857 1.000000
vt 0.087137 0.768210
vt 0.035714 1.000000
vt 0.065186 0.840357
vt 0.017857 1.000000
vt 0.035714 1.000000
vt 0.017857 1.000000
vt 0.065186 0.884593
vt 0.035714 1.000000
vt 0.017857 1.000000
vt 0.072894 0.925461
vt 0.035714 1.000000
vt 0.087137 0.956740
vt 0.017857 1.000000
vt 0.035714 1.000000
vt 0.017857 1.000000
vt 0.105747 0.973669
vt 0.035714 1.000000
vt 0.017857 1.000000
vt 0.125890 0.973669
vt 0.035714 1.000000
vt 0.017857 1.000000
vt 0.144499 0.956740
vt 0.035714 1.000000
vt 0.017857 1.000000
vt 0.158743 0.925461
vt 0.035714 1.000000
vt 0.017857 1.000000
vt 0.166451 0.884593
vt 0.035714 1.000000
vt 0.017857 1.000000
vt 0.166451 0.840358
vt 0.017857 1.000000
vt 0.035714 1.000000
vt 0.158743 0.799489
vt 0.017857 1.000000
vt 0.035714 1.000000
vt 0.144499 0.768210
vt 0.035714 1.000000
vt 0.017857 1.000000
vt 0.125890 0.751282
vt 0.035714 1.000000
vt 0.105747 0.751282
vt 0.017857 1.000000
vt 0.669643 0.627451
vt 0.705357 0.627451
vt 0.294643 0.627451
vt 0.732143 0.627451
vt 0.767857 0.627451
vt 0.321429 0.627451
vt 0.607143 0.627451
vt 0.642857 0.627451
vt 0.267857 0.627451
vt 0.544643 0.627451
vt 0.580357 0.627451
vt 0.241071 0.627451
vt 0.482143 0.627451
vt 0.517857 0.627451
vt 0.214286 0.627451
vt 0.419643 0.627451
vt 0.455357 0.627451
vt 0.187500 0.627451
vt 0.357143 0.627451
vt 0.392857 0.627451
vt 0.160714 0.627451
vt 0.294643 0.627451
vt 0.330357 0.627451
vt 0.133929 0.627451
vt 0.232143 0.627451
vt 0.267857 0.627451
vt 0.107143 0.627451
vt 0.169643 0.627451
vt 0.205357 0.627451
vt 0.080357 0.627451
vt 0.107143 0.627451
vt 0.142857 0.627451
vt 0.053571 0.627451
vt 0.044643 0.627451
vt 0.080357 0.627451
vt 0.026786 0.627451
vt 0.982143 0.627451
vt 0.017857 0.627451
vt 0.428571 0.627451
vt -0.000000 0.627451
vt 0.955357 0.627451
vt 0.919643 0.627451
vt 0.401786 0.627451
vt 0.857143 0.627451
vt 0.892857 0.627451
vt 0.375000 0.627451
vt 0.794643 0.627451
vt 0.830357 0.627451
vt 0.348214 0.627451
vt 0.294643 0.666667
vt 0.321429 0.666667
vt 0.267857 0.666667
vt 0.241071 0.666667
vt 0.214286 0.666667
vt 0.187500 0.666667
vt 0.160714 0.666667
vt 0.133929 0.666667
vt 0.107143 0.666667
vt 0.080357 0.666667
vt 0.053571 0.666667
vt 0.026786 0.666667
vt 0.428571 0.666667
vt -0.000000 0.666667
vt 0.401786 0.666667
vt 0.375000 0.666667
vt 0.348214 0.666667
vt 0.294643 0.705882
vt 0.285714 0.705882
vt 0.312500 0.705882
vt 0.321429 0.705882
vt 0.267857 0.705882
vt 0.258929 0.705882
vt 0.241071 0.705882
vt 0.232143 0.705882
vt 0.214286 0.705882
vt 0.205357 0.705882
vt 0.187500 0.705882
vt 0.178571 0.705882
vt 0.160714 0.705882
vt 0.151786 0.705882
vt 0.125000 0.705882
vt 0.133929 0.705882
vt 0.107143 0.705882
vt 0.098214 0.705882
vt 0.080357 0.705882
vt 0.071429 0.705882
vt 0.053571 0.705882
vt 0.044643 0.705882
vt 0.026786 0.705882
vt 0.017857 0.705882
vt -0.000000 0.705882
vt 0.419643 0.705882
vt 0.401786 0.705882
vt 0.392857 0.705882
vt 0.366071 0.705882
vt 0.375000 0.705882
vt 0.348214 0.705882
vt 0.339286 0.705882
vt 0.523883 0.972942
vt 0.285714 0.745098
vt 0.294643 0.745098
vt 0.493310 0.972942
vt 0.312500 0.745098
vt 0.321429 0.745098
vt 0.552128 0.947248
vt 0.258929 0.745098
vt 0.267857 0.745098
vt 0.573747 0.899772
vt 0.232143 0.745098
vt 0.241071 0.745098
vt 0.585447 0.837743
vt 0.205357 0.745098
vt 0.214286 0.745098
vt 0.585447 0.770602
vt 0.178571 0.745098
vt 0.187500 0.745098
vt 0.573747 0.708572
vt 0.151786 0.745098
vt 0.160714 0.745098
vt 0.552128 0.661096
vt 0.125000 0.745098
vt 0.133929 0.745098
vt 0.523883 0.635403
vt 0.098214 0.745098
vt 0.107143 0.745098
vt 0.493310 0.635403
vt 0.071429 0.745098
vt 0.080357 0.745098
vt 0.465064 0.661096
vt 0.044643 0.745098
vt 0.053571 0.745098
vt 0.443446 0.708572
vt 0.017857 0.745098
vt 0.026786 0.745098
vt 0.431746 0.770602
vt 0.419643 0.745098
vt -0.000000 0.745098
vt 0.431746 0.837742
vt 0.392857 0.745098
vt 0.401786 0.745098
vt 0.443445 0.899772
vt 0.366071 0.745098
vt 0.375000 0.745098
vt 0.465064 0.947248
vt 0.339286 0.745098
vt 0.348214 0.745098
s 0
usemtl Material.001
f 90/222/1 106/249/1 107/250/1
f 83/215/1 99/235/1 100/236/1
f 91/223/1 107/251/1 108/252/1
f 84/216/1 100/237/1 101/238/1
f 92/224/1 108/253/1 109/254/1
f 85/217/1 101/239/1 102/240/1
f 93/225/1 109/255/1 110/256/1
f 87/219/1 86/218/1 102/241/1
f 94/227/1 110/257/1 111/259/1
f 87/219/1 103/243/1 104/245/1
f 95/228/1 111/258/1 112/260/1
f 88/220/1 104/244/1 105/246/1
f 82/214/1 98/232/1 97/230/1
f 82/214/1 96/229/1 112/261/1
f 89/221/1 105/247/1 106/248/1
f 81/213/1 97/231/1 99/234/1
f 121/286/1 119/280/1 115/268/1
f 91/223/1 90/222/1 107/250/1
f 84/216/1 83/215/1 100/236/1
f 92/224/1 91/223/1 108/252/1
f 85/217/1 84/216/1 101/238/1
f 93/226/1 92/224/1 109/254/1
f 86/218/1 85/217/1 102/240/1
f 94/227/1 93/225/1 110/256/1
f 103/242/1 87/219/1 102/241/1
f 95/228/1 94/227/1 111/259/1
f 88/220/1 87/219/1 104/245/1
f 96/229/1 95/228/1 112/260/1
f 89/221/1 88/220/1 105/246/1
f 81/213/1 82/214/1 97/230/1
f 98/233/1 82/214/1 112/261/1
f 90/222/1 89/221/1 106/248/1
f 83/215/1 81/213/1 99/234/1
f 115/268/1 113/262/1 127/304/1
f 114/265/1 128/307/1 127/304/1
f 127/304/1 126/301/1 123/292/1
f 125/298/1 124/295/1 123/292/1
f 123/292/1 122/289/1 121/286/1
f 121/286/1 120/283/1 119/280/1
f 119/280/1 118/277/1 117/274/1
f 117/274/1 116/271/1 115/268/1
f 113/262/1 114/265/1 127/304/1
f 126/301/1 125/298/1 123/292/1
f 123/292/1 121/286/1 115/268/1
f 119/280/1 117/274/1 115/268/1
f 115/268/1 127/304/1 123/292/1
s 1
f 41/100/2 57/140/3 58/144/4
f 11/27/5 37/92/6 36/91/7
f 4/9/8 6/13/9 5/10/10
f 38/94/11 60/149/12 61/152/13
f 3/5/14 2/4/15 48/114/16
f 6/15/9 8/21/17 7/16/18
f 44/106/19 54/131/20 55/135/21
f 31/78/22 47/112/23 46/110/24
f 8/20/17 10/26/25 9/23/26
f 46/110/24 47/112/23 51/122/27
f 23/57/28 25/62/29 44/106/19
f 9/23/26 10/25/25 12/30/30
f 1/1/31 64/161/32 50/120/33
f 17/42/34 19/47/35 41/100/2
f 12/31/30 14/36/36 13/33/37
f 36/91/7 37/92/6 61/153/13
f 5/11/38 1/1/31 2/3/15
f 14/35/36 16/41/39 15/38/40
f 40/99/41 58/143/4 59/147/42
f 11/29/5 13/32/43 38/94/11
f 16/40/39 18/45/44 17/43/45
f 43/105/46 55/134/21 56/138/47
f 7/17/48 35/89/49 1/2/31
f 18/46/44 20/51/50 19/48/51
f 46/111/24 52/125/52 53/129/53
f 31/79/22 33/83/54 48/115/16
f 20/50/50 22/56/55 21/53/56
f 35/88/49 36/90/7 62/156/57
f 27/67/58 45/108/59 44/107/19
f 22/55/55 24/60/60 23/58/61
f 39/96/62 59/146/42 60/150/12
f 19/49/35 21/52/63 42/102/64
f 24/61/60 26/66/65 25/64/66
f 42/102/64 56/137/47 57/141/3
f 13/34/43 15/37/67 39/96/62
f 26/65/65 28/72/68 27/68/69
f 58/145/4 54/132/20 62/157/57
f 9/24/70 36/90/7 35/88/49
f 28/71/68 30/77/71 29/75/72
f 23/59/28 43/105/46 42/103/64
f 45/108/59 53/128/53 54/133/20
f 30/76/71 32/82/73 31/80/74
f 34/86/75 80/210/76 66/168/77
f 33/85/78 34/86/75 4/8/8
f 32/81/73 34/87/75 33/85/78
f 2/4/15 50/119/33 49/118/79
f 17/44/34 40/99/41 39/97/62
f 27/70/58 29/73/80 46/111/24
f 35/89/49 63/158/81 64/163/32
f 48/115/16 49/116/79 51/124/27
f 69/178/82 85/217/82 86/218/83
f 4/9/8 66/167/77 65/165/84
f 12/30/30 10/25/25 68/173/85
f 16/40/39 71/182/86 72/186/87
f 22/55/55 74/191/88 75/195/89
f 28/71/68 77/200/90 78/204/91
f 10/26/25 8/19/17 67/170/92
f 14/35/36 70/179/93 71/183/86
f 20/50/50 73/188/94 74/192/88
f 26/65/65 76/197/95 77/201/90
f 32/81/73 79/207/96 80/211/76
f 6/15/9 65/164/84 67/171/92
f 12/31/30 69/176/97 70/180/93
f 18/46/44 72/185/87 73/189/94
f 24/61/60 75/194/89 76/198/95
f 32/82/73 30/76/71 78/205/91
f 77/202/98 93/225/98 94/227/99
f 70/181/83 86/218/83 87/219/100
f 78/206/99 94/227/99 95/228/101
f 71/184/100 87/219/100 88/220/102
f 79/209/101 95/228/101 96/229/103
f 72/187/102 88/220/102 89/221/104
f 66/169/105 82/214/105 81/213/106
f 80/212/103 96/229/103 82/214/105
f 73/190/104 89/221/104 90/222/107
f 65/166/106 81/213/106 83/215/108
f 74/193/107 90/222/107 91/223/109
f 67/172/108 83/215/108 84/216/110
f 75/196/109 91/223/109 92/224/111
f 68/175/110 84/216/110 85/217/82
f 76/199/111 92/224/111 93/226/98
f 111/258/100 127/305/100 128/309/102
f 104/244/103 120/284/103 121/288/105
f 98/232/104 114/266/104 113/264/107
f 112/261/102 128/308/102 114/267/104
f 105/247/105 121/287/105 122/291/106
f 97/231/107 113/263/107 115/270/109
f 106/249/106 122/290/106 123/294/108
f 99/235/109 115/269/109 116/273/111
f 107/251/108 123/293/108 124/297/110
f 100/237/111 116/272/111 117/276/98
f 108/253/110 124/296/110 125/300/82
f 101/239/98 117/275/98 118/279/99
f 109/255/82 125/299/82 126/303/83
f 102/241/99 118/278/99 119/282/101
f 110/257/83 126/302/83 127/306/100
f 103/243/101 119/281/101 120/285/103
f 40/98/41 41/100/2 58/144/4
f 9/22/70 11/27/5 36/91/7
f 3/7/112 4/9/8 5/10/10
f 37/93/6 38/94/11 61/152/13
f 33/84/54 3/5/14 48/114/16
f 5/10/10 6/15/9 7/16/18
f 43/104/46 44/106/19 55/135/21
f 29/74/80 31/78/22 46/110/24
f 7/16/18 8/20/17 9/23/26
f 52/126/52 46/110/24 51/122/27
f 43/104/46 23/57/28 44/106/19
f 11/28/113 9/23/26 12/30/30
f 2/3/15 1/1/31 50/120/33
f 40/98/41 17/42/34 41/100/2
f 11/28/113 12/31/30 13/33/37
f 62/155/57 36/91/7 61/153/13
f 3/6/14 5/11/38 2/3/15
f 13/33/37 14/35/36 15/38/40
f 39/97/62 40/99/41 59/147/42
f 37/93/6 11/29/5 38/94/11
f 15/38/40 16/40/39 17/43/45
f 42/103/64 43/105/46 56/138/47
f 5/12/38 7/17/48 1/2/31
f 17/43/45 18/46/44 19/48/51
f 45/109/59 46/111/24 53/129/53
f 47/113/23 31/79/22 48/115/16
f 19/48/51 20/50/50 21/53/56
f 63/159/81 35/88/49 62/156/57
f 25/63/29 27/67/58 44/107/19
f 21/53/56 22/55/55 23/58/61
f 38/95/11 39/96/62 60/150/12
f 41/101/2 19/49/35 42/102/64
f 23/58/61 24/61/60 25/64/66
f 41/101/2 42/102/64 57/141/3
f 38/95/11 13/34/43 39/96/62
f 25/64/66 26/65/65 27/68/69
f 49/117/79 50/121/33 64/162/32
f 64/162/32 63/160/81 49/117/79
f 62/157/57 61/154/13 60/151/12
f 60/151/12 59/148/42 62/157/57
f 58/145/4 57/142/3 54/132/20
f 56/139/47 55/136/21 54/132/20
f 54/132/20 53/130/53 49/117/79
f 52/127/52 51/123/27 49/117/79
f 49/117/79 63/160/81 62/157/57
f 62/157/57 59/148/42 58/145/4
f 57/142/3 56/139/47 54/132/20
f 53/130/53 52/127/52 49/117/79
f 49/117/79 62/157/57 54/132/20
f 7/18/48 9/24/70 35/88/49
f 27/69/69 28/71/68 29/75/72
f 21/54/63 23/59/28 42/103/64
f 44/107/19 45/108/59 54/133/20
f 29/75/72 30/76/71 31/80/74
f 4/8/8 34/86/75 66/168/77
f 3/7/112 33/85/78 4/8/8
f 31/80/74 32/81/73 33/85/78
f 48/114/16 2/4/15 49/118/79
f 15/39/67 17/44/34 39/97/62
f 45/109/59 27/70/58 46/111/24
f 1/2/31 35/89/49 64/163/32
f 47/113/23 48/115/16 51/124/27
f 70/181/83 69/178/82 86/218/83
f 6/14/9 4/9/8 65/165/84
f 69/177/97 12/30/30 68/173/85
f 18/45/44 16/40/39 72/186/87
f 24/60/60 22/55/55 75/195/89
f 30/77/71 28/71/68 78/204/91
f 68/174/85 10/26/25 67/170/92
f 16/41/39 14/35/36 71/183/86
f 22/56/55 20/50/50 74/192/88
f 28/72/68 26/65/65 77/201/90
f 34/87/75 32/81/73 80/211/76
f 8/21/17 6/15/9 67/171/92
f 14/36/36 12/31/30 70/180/93
f 20/51/50 18/46/44 73/189/94
f 26/66/65 24/61/60 76/198/95
f 79/208/96 32/82/73 78/205/91
f 78/206/99 77/202/98 94/227/99
f 71/184/100 70/181/83 87/219/100
f 79/209/101 78/206/99 95/228/101
f 72/187/102 71/184/100 88/220/102
f 80/212/103 79/209/101 96/229/103
f 73/190/104 72/187/102 89/221/104
f 65/166/106 66/169/105 81/213/106
f 66/169/105 80/212/103 82/214/105
f 74/193/107 73/190/104 90/222/107
f 67/172/108 65/166/106 83/215/108
f 75/196/109 74/193/107 91/223/109
f 68/175/110 67/172/108 84/216/110
f 76/199/111 75/196/109 92/224/111
f 69/178/82 68/175/110 85/217/82
f 77/203/98 76/199/111 93/226/98
f 112/260/102 111/258/100 128/309/102
f 105/246/105 104/244/103 121/288/105
f 97/230/107 98/232/104 113/264/107
f 98/233/104 112/261/102 114/267/104
f 106/248/106 105/247/105 122/291/106
f 99/234/109 97/231/107 115/270/109
f 107/250/108 106/249/106 123/294/108
f 100/236/111 99/235/109 116/273/111
f 108/252/110 107/251/108 124/297/110
f 101/238/98 100/237/111 117/276/98
f 109/254/82 108/253/110 125/300/82
f 102/240/99 101/239/98 118/279/99
f 110/256/83 109/255/82 126/303/83
f 103/242/101 102/241/99 119/282/101
f 111/259/100 110/257/83 127/306/100
f 104/245/103 103/243/101 120/285/103
