# Blender v2.76 (sub 0) OBJ File: 'turret_light_gun.blend'
# www.blender.org
o Cylinder.001
v 0.150000 0.200000 -0.650000
v 0.150000 -0.100000 -0.650000
v 0.150000 0.200000 0.150000
v 0.150000 -0.200000 0.150000
v -0.150000 0.200000 -0.650000
v -0.150000 -0.100000 -0.650000
v -0.150000 0.200000 0.150000
v -0.150000 -0.200000 0.150000
v -0.090000 -0.120000 0.150000
v 0.090000 -0.120000 0.150000
v 0.090000 0.170000 0.150000
v -0.090000 0.170000 0.150000
v -0.090000 -0.070000 0.650000
v 0.090000 -0.070000 0.650000
v 0.090000 0.170000 0.650000
v -0.090000 0.170000 0.650000
v 0.000000 0.125000 0.650000
v 0.000000 0.125000 1.650000
v 0.017678 0.117678 0.650000
v 0.017678 0.117678 1.650000
v 0.025000 0.100000 0.650000
v 0.025000 0.100000 1.650000
v 0.017678 0.082322 0.650000
v 0.017678 0.082322 1.650000
v -0.000000 0.075000 0.650000
v -0.000000 0.075000 1.650000
v -0.017678 0.082322 0.650000
v -0.017678 0.082322 1.650000
v -0.025000 0.100000 0.650000
v -0.025000 0.100000 1.650000
v -0.017678 0.117678 0.650000
v -0.017678 0.117678 1.650000
v 0.000000 0.065000 0.650000
v 0.000000 0.065000 1.200000
v 0.010607 0.060607 0.650000
v 0.010607 0.060607 1.200000
v 0.015000 0.050000 0.650000
v 0.015000 0.050000 1.200000
v 0.010607 0.039393 0.650000
v 0.010607 0.039393 1.200000
v -0.000000 0.035000 0.650000
v -0.000000 0.035000 1.200000
v -0.010607 0.039393 0.650000
v -0.010607 0.039393 1.200000
v -0.015000 0.050000 0.650000
v -0.015000 0.050000 1.200000
v -0.010607 0.060607 0.650000
v -0.010607 0.060607 1.200000
v -0.200000 -0.150000 0.500000
v -0.200000 0.050000 0.500000
v -0.200000 -0.150000 0.200000
v -0.200000 0.050000 0.200000
v -0.100000 -0.150000 0.500000
v -0.100000 0.050000 0.500000
v -0.100000 -0.150000 0.200000
v -0.100000 0.050000 0.200000
v -0.145000 0.050000 0.360000
v -0.145000 0.050000 0.240000
v -0.105000 0.050000 0.240000
v -0.105000 0.050000 0.360000
v -0.144754 0.083129 0.360000
v -0.144754 0.083129 0.240000
v -0.105246 0.076871 0.240000
v -0.105246 0.076871 0.360000
v -0.139328 0.115811 0.360000
v -0.139328 0.115811 0.240000
v -0.101286 0.103450 0.240000
v -0.101286 0.103450 0.360000
v -0.128857 0.147242 0.360000
v -0.128857 0.147242 0.240000
v -0.093216 0.129083 0.240000
v -0.093216 0.129083 0.360000
v -0.113597 0.176648 0.360000
v -0.113597 0.176648 0.240000
v -0.081236 0.153137 0.240000
v -0.081236 0.153137 0.360000
v -0.087918 0.207434 0.360000
v -0.087918 0.207434 0.240000
v -0.071648 0.170892 0.240000
v -0.071648 0.170892 0.360000
v -0.052028 0.221362 0.360000
v -0.052028 0.221362 0.240000
v -0.052726 0.181368 0.240000
v -0.052726 0.181368 0.360000
v -0.012081 0.217985 0.360000
v -0.012081 0.217985 0.240000
v -0.032682 0.183698 0.240000
v -0.032682 0.183698 0.360000
v 0.019914 0.196574 0.360000
v 0.019914 0.196574 0.240000
v -0.013247 0.174207 0.240000
v -0.013247 0.174207 0.360000
v 0.039863 0.163648 0.360000
v 0.039863 0.163648 0.240000
v 0.000356 0.157391 0.240000
v 0.000356 0.157391 0.360000
v -0.200000 -0.150000 -0.475000
v -0.200000 0.150000 -0.475000
v -0.200000 -0.150000 -0.525000
v -0.200000 0.150000 -0.525000
v 0.200000 -0.150000 -0.475000
v 0.200000 0.150000 -0.475000
v 0.200000 -0.150000 -0.525000
v 0.200000 0.150000 -0.525000
v -0.050000 -0.025000 -0.200000
v -0.050000 0.225000 -0.200000
v -0.050000 -0.025000 -0.700000
v -0.050000 0.225000 -0.700000
v 0.050000 -0.025000 -0.200000
v 0.050000 0.225000 -0.200000
v 0.050000 -0.025000 -0.700000
v 0.050000 0.225000 -0.700000
v -0.375000 0.000000 -0.100000
v 0.375000 0.000000 -0.100000
v -0.375000 -0.070711 -0.070711
v 0.375000 -0.070711 -0.070711
v -0.375000 -0.100000 0.000000
v 0.375000 -0.100000 0.000000
v -0.375000 -0.070711 0.070711
v 0.375000 -0.070711 0.070711
v -0.375000 0.000000 0.100000
v 0.375000 0.000000 0.100000
v -0.375000 0.070711 0.070711
v 0.375000 0.070711 0.070711
v -0.375000 0.100000 -0.000000
v 0.375000 0.100000 -0.000000
v -0.375000 0.070711 -0.070711
v 0.375000 0.070711 -0.070711
vt 0.409216 0.148396
vt 0.409216 0.246203
vt 0.148396 0.246203
vt 0.507024 0.246204
vt 0.507024 0.148396
vt 0.769874 0.148396
vt 0.148396 0.148396
vt 0.138615 0.167957
vt 0.044067 0.167957
vt 0.148396 0.017985
vt 0.409216 0.050588
vt 0.409216 0.344011
vt 0.260057 0.412584
vt 0.260057 0.575597
vt 0.181811 0.575597
vt 0.138615 0.226642
vt 0.017985 0.148395
vt 0.044067 0.226642
vt 0.017985 0.246203
vt 0.260057 0.634281
vt 0.181811 0.634281
vt 0.017985 0.575597
vt 0.260057 0.797294
vt 0.165510 0.797294
vt 0.423070 0.634281
vt 0.017986 0.858219
vt 0.017986 0.851981
vt 0.344029 0.851991
vt 0.017986 0.845742
vt 0.344029 0.845753
vt 0.017986 0.839503
vt 0.344029 0.839516
vt 0.017986 0.833265
vt 0.344030 0.833279
vt 0.017985 0.883174
vt 0.017985 0.876935
vt 0.344029 0.876939
vt 0.017985 0.870696
vt 0.344029 0.870702
vt 0.468077 0.897383
vt 0.468077 0.893640
vt 0.647390 0.893639
vt 0.017986 0.864458
vt 0.344029 0.858228
vt 0.344029 0.864465
vt 0.468077 0.889897
vt 0.647390 0.889896
vt 0.468077 0.886154
vt 0.647389 0.886153
vt 0.468077 0.882411
vt 0.647389 0.882410
vt 0.468077 0.912355
vt 0.468077 0.908612
vt 0.647390 0.908611
vt 0.468077 0.904869
vt 0.468077 0.901126
vt 0.647390 0.897382
vt 0.647390 0.901125
vt 0.465430 0.879764
vt 0.465430 0.888801
vt 0.902544 0.741978
vt 0.902544 0.807183
vt 0.804736 0.807183
vt 0.902544 0.709376
vt 0.967748 0.709375
vt 0.967748 0.741978
vt 0.804736 0.709375
vt 0.804736 0.644170
vt 0.902544 0.644171
vt 0.804736 0.741978
vt 0.739530 0.741978
vt 0.739530 0.709375
vt 0.902544 0.839786
vt 0.804736 0.839786
vt 0.889503 0.724047
vt 0.740128 0.942905
vt 0.739889 0.929866
vt 0.748650 0.929785
vt 0.889503 0.711006
vt 0.850380 0.711006
vt 0.850380 0.724047
vt 0.750328 0.890466
vt 0.759089 0.890386
vt 0.759447 0.929507
vt 0.739530 0.877703
vt 0.750331 0.877784
vt 0.748291 0.890664
vt 0.739530 0.890744
vt 0.750925 0.942626
vt 0.751933 0.981737
vt 0.761723 0.942348
vt 0.772520 0.942070
vt 0.773528 0.981180
vt 0.762731 0.981458
vt 0.750686 0.929588
vt 0.750328 0.877425
vt 0.761129 0.877505
vt 0.772281 0.929031
vt 0.781042 0.928951
vt 0.761484 0.929309
vt 0.770245 0.929229
vt 0.761125 0.877147
vt 0.771926 0.877227
vt 0.769886 0.890108
vt 0.761125 0.890188
vt 0.790639 0.890232
vt 0.797118 0.891373
vt 0.790333 0.929903
vt 0.771923 0.876869
vt 0.782724 0.876949
vt 0.780684 0.889829
vt 0.771923 0.889910
vt 0.783318 0.941792
vt 0.784326 0.980902
vt 0.796384 0.941455
vt 0.796683 0.928418
vt 0.803692 0.929189
vt 0.797391 0.980565
vt 0.783854 0.928762
vt 0.794586 0.877802
vt 0.806751 0.882582
vt 0.820199 0.877142
vt 0.832364 0.881922
vt 0.822731 0.890713
vt 0.803510 0.876739
vt 0.815687 0.879785
vt 0.807975 0.890301
vt 0.800965 0.889530
vt 0.808931 0.941132
vt 0.809939 0.980242
vt 0.826578 0.888870
vt 0.833588 0.889642
vt 0.829305 0.928530
vt 0.816252 0.889572
vt 0.815946 0.929243
vt 0.821997 0.940795
vt 0.823005 0.979905
vt 0.809467 0.928102
vt 0.834544 0.940472
vt 0.834843 0.927434
vt 0.841852 0.928206
vt 0.835552 0.979582
vt 0.822296 0.927758
vt 0.829123 0.876079
vt 0.841300 0.879125
vt 0.805844 0.229902
vt 0.805844 0.132094
vt 0.822146 0.132094
vt 0.841671 0.875756
vt 0.853847 0.878802
vt 0.846135 0.889318
vt 0.839126 0.888546
vt 0.847091 0.940149
vt 0.848099 0.979259
vt 0.952556 0.017985
vt 0.952556 0.115793
vt 0.822146 0.115793
vt 0.952556 0.229902
vt 0.952556 0.132094
vt 0.968857 0.132094
vt 0.822146 0.229902
vt 0.952556 0.246203
vt 0.822146 0.246203
vt 0.703560 0.494090
vt 0.703560 0.412584
vt 0.866573 0.412584
vt 0.703560 0.526693
vt 0.622054 0.526693
vt 0.622054 0.494090
vt 0.866573 0.526693
vt 0.866573 0.608199
vt 0.703560 0.608199
vt 0.866573 0.494090
vt 0.948079 0.494090
vt 0.948079 0.526693
vt 0.459041 0.526693
vt 0.703560 0.793888
vt 0.703560 0.818841
vt 0.459041 0.818841
vt 0.703560 0.843794
vt 0.459041 0.843794
vt 0.703560 0.644170
vt 0.703560 0.669123
vt 0.459041 0.669123
vt 0.703560 0.694076
vt 0.459041 0.694076
vt 0.703560 0.719029
vt 0.459041 0.719029
vt 0.703560 0.743982
vt 0.459041 0.743982
vt 0.703560 0.768935
vt 0.459041 0.793888
vt 0.459041 0.768935
vt 0.769874 0.246204
vt 0.148395 0.376613
vt 0.165510 0.412584
vt 0.017985 0.634281
vt 0.423070 0.575597
vt 0.344029 0.883176
vt 0.647390 0.912354
vt 0.647390 0.904868
vt 0.461687 0.888801
vt 0.459041 0.886154
vt 0.459041 0.882411
vt 0.461687 0.879765
vt 0.741136 0.982015
vt 0.822146 0.017985
vt 0.968857 0.229902
vt 0.459041 0.494090
vt 0.459041 0.644170
vn 0.000000 1.000000 0.000000
vn 0.000000 -0.992300 -0.124000
vn -0.000000 0.000000 1.000000
vn 1.000000 0.000000 0.000000
vn 0.000000 0.000000 -1.000000
vn -1.000000 0.000000 0.000000
vn 0.000000 -0.995000 0.099500
vn 0.382700 0.923900 -0.000000
vn 0.923900 0.382700 -0.000000
vn 0.923900 -0.382700 0.000000
vn 0.382700 -0.923900 0.000000
vn -0.382700 -0.923900 0.000000
vn -0.923900 -0.382700 0.000000
vn -0.382700 0.923900 -0.000000
vn -0.923900 0.382700 -0.000000
vn 0.000000 -1.000000 0.000000
vn 0.989100 -0.147400 0.000000
vn 1.000000 0.009200 0.000000
vn -1.000000 0.007400 0.000000
vn -0.948700 0.316100 0.000000
vn -0.986500 0.163800 0.000000
vn 0.953800 -0.300300 0.000000
vn 0.879900 -0.475200 0.000000
vn 0.895100 -0.445800 0.000000
vn -0.887600 0.460600 0.000000
vn -0.767900 0.640500 0.000000
vn 0.484400 -0.874900 0.000000
vn -0.361800 0.932300 0.000000
vn -0.438800 -0.898600 0.000000
vn 0.115500 -0.993300 0.000000
vn 0.084200 0.996400 0.000000
vn 0.556200 0.831100 0.000000
vn -0.777500 -0.628900 0.000000
vn 0.855300 0.518200 0.000000
vn 0.000000 -0.382700 -0.923900
vn 0.000000 -0.923900 -0.382700
vn 0.000000 -0.923900 0.382700
vn 0.000000 -0.382700 0.923900
vn -0.000000 0.382700 0.923900
vn -0.000000 0.923900 0.382700
vn -0.000000 0.382700 -0.923900
vn -0.000000 0.923900 -0.382700
vn 0.556100 0.831100 0.000000
s off
f 1/1/1 5/2/1 7/3/1
f 6/4/2 2/5/2 4/6/2
f 3/7/3 11/8/3 10/9/3
f 3/7/4 4/10/4 2/11/4
f 1/1/5 2/5/5 6/4/5
f 7/3/6 5/2/6 6/12/6
f 11/13/4 15/14/4 14/15/4
f 7/3/3 12/16/3 11/8/3
f 4/17/3 10/9/3 9/18/3
f 7/3/3 8/19/3 9/18/3
f 16/20/3 13/21/3 14/15/3
f 10/22/7 14/15/7 13/21/7
f 12/23/6 9/24/6 13/21/6
f 12/25/1 16/20/1 15/14/1
f 18/26/8 20/27/8 19/28/8
f 20/27/9 22/29/9 21/30/9
f 22/29/10 24/31/10 23/32/10
f 24/31/11 26/33/11 25/34/11
f 26/35/12 28/36/12 27/37/12
f 28/36/13 30/38/13 29/39/13
f 34/40/8 36/41/8 35/42/8
f 32/43/14 18/26/14 17/44/14
f 30/38/15 32/43/15 31/45/15
f 36/41/9 38/46/9 37/47/9
f 38/46/10 40/48/10 39/49/10
f 40/48/11 42/50/11 41/51/11
f 42/52/12 44/53/12 43/54/12
f 43/54/13 44/53/13 46/55/13
f 48/56/14 34/40/14 33/57/14
f 46/55/15 48/56/15 47/58/15
f 44/59/3 42/50/3 38/60/3
f 52/61/6 51/62/6 49/63/6
f 56/64/5 55/65/5 51/66/5
f 54/67/4 53/68/4 55/69/4
f 50/70/3 49/71/3 53/72/3
f 51/62/16 55/73/16 53/74/16
f 56/64/1 52/61/1 58/75/1
f 57/76/3 60/77/3 64/78/3
f 56/64/1 59/79/1 60/80/1
f 52/61/1 50/70/1 57/81/1
f 54/67/1 60/80/1 57/81/1
f 63/82/17 67/83/17 68/84/17
f 58/85/5 62/86/5 63/87/5
f 59/88/18 63/87/18 64/78/18
f 57/76/19 61/89/19 62/90/19
f 65/91/20 69/92/20 70/93/20
f 61/89/21 65/91/21 66/94/21
f 61/89/3 64/95/3 68/84/3
f 62/96/5 66/97/5 67/83/5
f 69/92/3 72/98/3 76/99/3
f 65/91/3 68/100/3 72/101/3
f 66/102/5 70/103/5 71/104/5
f 67/105/22 71/104/22 72/101/22
f 75/106/23 79/107/23 80/108/23
f 70/109/5 74/110/5 75/111/5
f 71/112/24 75/111/24 76/99/24
f 69/92/25 73/113/25 74/114/25
f 77/115/3 80/116/3 84/117/3
f 73/113/26 77/115/26 78/118/26
f 73/113/3 76/119/3 80/108/3
f 74/120/5 78/121/5 79/107/5
f 82/122/5 86/123/5 87/124/5
f 78/125/5 82/126/5 83/127/5
f 79/128/27 83/127/27 84/117/27
f 77/115/28 81/129/28 82/130/28
f 87/131/29 91/132/29 92/133/29
f 83/134/30 87/124/30 88/135/30
f 81/129/31 85/136/31 86/137/31
f 81/129/3 84/138/3 88/135/3
f 89/139/3 92/140/3 96/141/3
f 85/136/32 89/139/32 90/142/32
f 85/136/3 88/143/3 92/133/3
f 86/144/5 90/145/5 91/132/5
f 100/146/6 99/147/6 97/148/6
f 90/149/5 94/150/5 95/151/5
f 91/152/33 95/151/33 96/141/33
f 89/139/34 93/153/34 94/154/34
f 104/155/5 103/156/5 99/157/5
f 102/158/4 101/159/4 103/160/4
f 98/161/3 97/148/3 101/159/3
f 99/157/16 103/156/16 101/159/16
f 104/162/1 100/163/1 98/161/1
f 108/164/6 107/165/6 105/166/6
f 112/167/5 111/168/5 107/169/5
f 110/170/4 109/171/4 111/172/4
f 106/173/3 105/174/3 109/175/3
f 107/169/16 111/168/16 109/176/16
f 112/167/1 108/164/1 106/173/1
f 114/177/35 116/178/35 115/179/35
f 116/178/36 118/180/36 117/181/36
f 118/182/37 120/183/37 119/184/37
f 120/183/38 122/185/38 121/186/38
f 122/185/39 124/187/39 123/188/39
f 124/187/40 126/189/40 125/190/40
f 128/191/41 114/177/41 113/192/41
f 126/189/42 128/191/42 127/193/42
f 3/7/1 1/1/1 7/3/1
f 8/194/2 6/4/2 4/6/2
f 4/17/3 3/7/3 10/9/3
f 1/1/4 3/7/4 2/11/4
f 5/2/5 1/1/5 6/4/5
f 8/195/6 7/3/6 6/12/6
f 10/196/4 11/13/4 14/15/4
f 3/7/3 7/3/3 11/8/3
f 8/19/3 4/17/3 9/18/3
f 12/16/3 7/3/3 9/18/3
f 15/14/3 16/20/3 14/15/3
f 9/197/7 10/22/7 13/21/7
f 16/20/6 12/23/6 13/21/6
f 11/198/1 12/25/1 15/14/1
f 17/44/8 18/26/8 19/28/8
f 19/28/9 20/27/9 21/30/9
f 21/30/10 22/29/10 23/32/10
f 23/32/11 24/31/11 25/34/11
f 25/199/12 26/35/12 27/37/12
f 27/37/13 28/36/13 29/39/13
f 33/57/8 34/40/8 35/42/8
f 31/45/14 32/43/14 17/44/14
f 29/39/15 30/38/15 31/45/15
f 35/42/9 36/41/9 37/47/9
f 37/47/10 38/46/10 39/49/10
f 39/49/11 40/48/11 41/51/11
f 41/200/12 42/52/12 43/54/12
f 45/201/13 43/54/13 46/55/13
f 47/58/14 48/56/14 33/57/14
f 45/201/15 46/55/15 47/58/15
f 38/60/3 36/202/3 34/203/3
f 34/203/3 48/204/3 38/60/3
f 46/205/3 44/59/3 38/60/3
f 42/50/3 40/48/3 38/60/3
f 38/60/3 48/204/3 46/205/3
f 50/70/6 52/61/6 49/63/6
f 52/61/5 56/64/5 51/66/5
f 56/64/4 54/67/4 55/69/4
f 54/67/3 50/70/3 53/72/3
f 49/63/16 51/62/16 53/74/16
f 59/79/1 56/64/1 58/75/1
f 61/89/3 57/76/3 64/78/3
f 54/67/1 56/64/1 60/80/1
f 58/75/1 52/61/1 57/81/1
f 50/70/1 54/67/1 57/81/1
f 64/95/17 63/82/17 68/84/17
f 59/88/5 58/85/5 63/87/5
f 60/77/18 59/88/18 64/78/18
f 58/206/19 57/76/19 62/90/19
f 66/94/20 65/91/20 70/93/20
f 62/90/21 61/89/21 66/94/21
f 65/91/3 61/89/3 68/84/3
f 63/82/5 62/96/5 67/83/5
f 73/113/3 69/92/3 76/99/3
f 69/92/3 65/91/3 72/101/3
f 67/105/5 66/102/5 71/104/5
f 68/100/22 67/105/22 72/101/22
f 76/119/23 75/106/23 80/108/23
f 71/112/5 70/109/5 75/111/5
f 72/98/24 71/112/24 76/99/24
f 70/93/25 69/92/25 74/114/25
f 81/129/3 77/115/3 84/117/3
f 74/114/26 73/113/26 78/118/26
f 77/115/3 73/113/3 80/108/3
f 75/106/5 74/120/5 79/107/5
f 83/134/5 82/122/5 87/124/5
f 79/128/5 78/125/5 83/127/5
f 80/116/27 79/128/27 84/117/27
f 78/118/28 77/115/28 82/130/28
f 88/143/29 87/131/29 92/133/29
f 84/138/30 83/134/30 88/135/30
f 82/130/31 81/129/31 86/137/31
f 85/136/3 81/129/3 88/135/3
f 93/153/3 89/139/3 96/141/3
f 86/137/43 85/136/43 90/142/43
f 89/139/3 85/136/3 92/133/3
f 87/131/5 86/144/5 91/132/5
f 98/161/6 100/146/6 97/148/6
f 91/152/5 90/149/5 95/151/5
f 92/140/33 91/152/33 96/141/33
f 90/142/34 89/139/34 94/154/34
f 100/207/5 104/155/5 99/157/5
f 104/208/4 102/158/4 103/160/4
f 102/158/3 98/161/3 101/159/3
f 97/148/16 99/157/16 101/159/16
f 102/158/1 104/162/1 98/161/1
f 106/173/6 108/164/6 105/166/6
f 108/164/5 112/167/5 107/169/5
f 112/167/4 110/170/4 111/172/4
f 110/170/3 106/173/3 109/175/3
f 105/209/16 107/169/16 109/176/16
f 110/170/1 112/167/1 106/173/1
f 113/192/35 114/177/35 115/179/35
f 115/179/36 116/178/36 117/181/36
f 117/210/37 118/182/37 119/184/37
f 119/184/38 120/183/38 121/186/38
f 121/186/39 122/185/39 123/188/39
f 123/188/40 124/187/40 125/190/40
f 127/193/41 128/191/41 113/192/41
f 125/190/42 126/189/42 127/193/42
