# Blender v2.76 (sub 0) OBJ File: 'turret_cheapo_base.blend'
# www.blender.org
o Grid.001_Grid.003
v -0.500000 0.062500 0.500000
v -0.375000 0.062500 0.500000
v 0.375000 0.062500 0.500000
v 0.500000 0.062500 0.500000
v -0.500000 0.062500 0.375000
v -0.375000 0.062500 0.375000
v 0.375000 0.062500 0.375000
v 0.500000 0.062500 0.375000
v -0.125000 0.875000 0.125000
v 0.000000 0.875000 0.125000
v 0.125000 0.875000 0.125000
v -0.125000 0.875000 0.000000
v 0.000000 0.875000 0.000000
v 0.125000 0.875000 0.000000
v -0.125000 0.875000 -0.125000
v 0.000000 0.875000 -0.125000
v 0.125000 0.875000 -0.125000
v -0.500000 0.062500 -0.375000
v -0.375000 0.062500 -0.375000
v 0.375000 0.062500 -0.375000
v 0.500000 0.062500 -0.375000
v -0.500000 0.062500 -0.500000
v -0.375000 0.062500 -0.500000
v 0.375000 0.062500 -0.500000
v 0.500000 0.062500 -0.500000
v -0.562500 0.062500 0.312500
v -0.562500 0.062500 0.562500
v -0.312500 0.062500 0.562500
v -0.312500 0.062500 0.312500
v 0.312500 0.062500 0.562500
v 0.312500 0.062500 0.312500
v 0.562500 0.062500 0.562500
v 0.562500 0.062500 0.312500
v -0.312500 0.062500 -0.312500
v -0.562500 0.062500 -0.312500
v 0.562500 0.062500 -0.312500
v 0.312500 0.062500 -0.312500
v -0.562500 0.062500 -0.562500
v -0.312500 0.062500 -0.562500
v 0.312500 0.062500 -0.562500
v 0.562500 0.062500 -0.562500
v -0.562500 0.000000 0.312500
v -0.562500 0.000000 0.562500
v -0.312500 0.000000 0.562500
v -0.312500 0.000000 0.312500
v 0.312500 0.000000 0.562500
v 0.312500 0.000000 0.312500
v 0.562500 0.000000 0.562500
v 0.562500 0.000000 0.312500
v -0.312500 0.000000 -0.312500
v -0.562500 0.000000 -0.312500
v 0.562500 0.000000 -0.312500
v 0.312500 0.000000 -0.312500
v -0.562500 0.000000 -0.562500
v -0.312500 0.000000 -0.562500
v 0.312500 0.000000 -0.562500
v 0.562500 0.000000 -0.562500
v -0.125000 1.000000 0.125000
v -0.125000 1.000000 -0.125000
v 0.125000 1.000000 0.125000
v 0.125000 1.000000 -0.125000
vt 0.824881 0.881975
vt 0.795084 0.911772
vt 0.795084 0.792586
vt 0.388946 0.701344
vt 0.388946 0.743483
vt 0.304668 0.659206
vt 0.429963 0.038108
vt 0.429962 0.500675
vt 0.375000 0.477643
vt 0.265076 0.061140
vt 0.320038 0.038108
vt 0.320038 0.500675
vt 0.484925 0.061140
vt 0.875000 0.477643
vt 0.875000 0.015075
vt 0.929962 0.038108
vt 0.820038 0.500675
vt 0.820038 0.038108
vt 0.629790 0.617067
vt 0.629790 0.574928
vt 0.714067 0.659205
vt 0.765076 0.061140
vt 0.984925 0.061140
vt 0.984925 0.523708
vt 0.929962 0.500675
vt 0.625000 0.477643
vt 0.570038 0.500675
vt 0.570038 0.038108
vt 0.515076 0.523708
vt 0.515076 0.061140
vt 0.625000 0.015075
vt 0.679962 0.038108
vt 0.734925 0.061140
vt 0.734925 0.523708
vt 0.679963 0.500675
vt 0.884474 0.673045
vt 0.914270 0.702842
vt 0.795084 0.702842
vt 0.375000 0.015075
vt 0.015076 0.061140
vt 0.070038 0.038108
vt 0.070038 0.500675
vt 0.234925 0.061140
vt 0.234924 0.523708
vt 0.179962 0.500675
vt 0.179962 0.038108
vt 0.125000 0.477643
vt 0.125000 0.015075
vt 0.283599 0.638136
vt 0.367876 0.553859
vt 0.795084 0.762789
vt 0.914270 0.762789
vt 0.629790 0.743483
vt 0.608721 0.764552
vt 0.524443 0.680275
vt 0.367876 0.764552
vt 0.283599 0.680275
vt 0.671929 0.659205
vt 0.346807 0.659206
vt 0.388946 0.574928
vt 0.884474 0.822382
vt 0.914270 0.792586
vt 0.914270 0.911772
vt 0.629790 0.701344
vt 0.545512 0.659205
vt 0.388946 0.617067
vt 0.473223 0.659205
vt 0.884474 0.881975
vt 0.431084 0.659205
vt 0.824881 0.673045
vt 0.795084 0.583655
vt 0.824881 0.613452
vt 0.914270 0.583655
vt 0.824881 0.822382
vt 0.884474 0.613452
vt 0.587651 0.659205
vt 0.582273 0.794703
vt 0.701459 0.794703
vt 0.701459 0.913889
vt 0.283599 0.794703
vt 0.402785 0.794703
vt 0.402785 0.913889
vt 0.015075 0.822382
vt 0.134262 0.822382
vt 0.134262 0.941568
vt 0.432936 0.794703
vt 0.552122 0.794703
vt 0.552122 0.913889
vt 0.650859 0.553859
vt 0.735137 0.638136
vt 0.410015 0.553859
vt 0.494292 0.638136
vt 0.765288 0.911772
vt 0.765288 0.792586
vt 0.494292 0.680275
vt 0.410015 0.764552
vt 0.944067 0.792586
vt 0.944067 0.911772
vt 0.765288 0.702842
vt 0.765288 0.583655
vt 0.914270 0.941568
vt 0.795084 0.941568
vt 0.795084 0.553859
vt 0.914270 0.553859
vt 0.524443 0.638136
vt 0.608721 0.553859
vt 0.944067 0.583655
vt 0.944067 0.702842
vt 0.735137 0.680275
vt 0.650859 0.764552
vt 0.914270 0.732638
vt 0.795084 0.732638
vt 0.074669 0.732638
vt 0.193855 0.732638
vt 0.134262 0.792231
vt 0.015075 0.732638
vt 0.015075 0.673045
vt 0.193855 0.613452
vt 0.074669 0.613452
vt 0.134262 0.553859
vt 0.253448 0.673045
vt 0.253448 0.732638
vt 0.265076 0.523708
vt 0.484924 0.523708
vt 0.765076 0.523708
vt 0.015075 0.523708
vt 0.582273 0.913889
vt 0.283599 0.913889
vt 0.015075 0.941568
vt 0.432936 0.913889
vt 0.193855 0.792231
vt 0.074669 0.792231
vt 0.015075 0.613452
vt 0.074669 0.553859
vt 0.193855 0.553859
vt 0.253448 0.613452
vn 0.000000 1.000000 0.000000
vn 0.000000 0.419100 0.908000
vn 0.000000 -0.419100 -0.908000
vn 0.908000 -0.419100 0.000000
vn -0.908000 0.419100 0.000000
vn 0.000000 0.419100 -0.908000
vn 0.000000 -0.419100 0.908000
vn 0.908000 0.419100 0.000000
vn -0.908000 -0.419100 0.000000
vn 0.000000 0.000000 1.000000
vn 0.000000 0.000000 -1.000000
vn -1.000000 0.000000 0.000000
vn 0.000000 -1.000000 0.000000
vn 1.000000 0.000000 0.000000
s off
f 22/1/1 38/2/1 35/3/1
f 5/4/1 26/5/1 27/6/1
f 2/7/2 10/8/2 9/9/2
f 6/10/3 5/11/3 12/12/3
f 10/8/4 2/7/4 6/13/4
f 15/14/5 22/15/5 18/16/5
f 15/14/6 16/17/6 23/18/6
f 20/19/1 37/20/1 36/21/1
f 19/22/4 23/18/4 16/17/4
f 19/23/7 13/24/7 12/25/7
f 17/26/8 14/27/8 21/28/8
f 14/27/7 13/29/7 20/30/7
f 17/26/6 25/31/6 24/32/6
f 20/33/9 13/34/9 16/35/9
f 8/36/1 33/37/1 31/38/1
f 5/11/5 1/39/5 9/9/5
f 7/40/9 3/41/9 10/42/9
f 7/43/3 13/44/3 14/45/3
f 8/46/8 14/45/8 11/47/8
f 3/41/2 4/48/2 11/47/2
f 27/6/10 43/49/10 44/50/10
f 35/3/10 51/51/10 50/52/10
f 41/53/11 57/54/11 56/55/11
f 26/5/12 42/56/12 43/57/12
f 21/58/1 36/21/1 41/53/1
f 1/59/1 27/6/1 28/60/1
f 19/61/1 34/62/1 39/63/1
f 25/64/1 41/53/1 40/65/1
f 2/66/1 28/60/1 29/67/1
f 23/68/1 39/63/1 38/2/1
f 6/69/1 29/67/1 26/5/1
f 7/70/1 31/38/1 30/71/1
f 3/72/1 30/71/1 32/73/1
f 18/74/1 35/3/1 34/62/1
f 4/75/1 32/73/1 33/37/1
f 24/76/1 40/65/1 37/20/1
f 42/77/13 45/78/13 44/79/13
f 47/80/13 49/81/13 48/82/13
f 54/83/13 55/84/13 50/85/13
f 56/86/13 57/87/13 52/88/13
f 37/20/10 53/89/10 52/90/10
f 28/60/14 44/91/14 45/92/14
f 38/2/12 54/93/12 51/94/12
f 29/67/11 45/95/11 42/96/11
f 34/62/14 50/97/14 55/98/14
f 31/38/12 47/99/12 46/100/12
f 39/63/11 55/101/11 54/102/11
f 30/71/10 46/103/10 48/104/10
f 40/65/12 56/105/12 53/106/12
f 32/73/14 48/107/14 49/108/14
f 36/21/14 52/109/14 57/110/14
f 33/37/11 49/111/11 47/112/11
f 59/113/11 61/114/11 16/115/11
f 59/113/12 15/116/12 12/117/12
f 60/118/10 58/119/10 10/120/10
f 60/118/1 61/114/1 59/113/1
f 14/121/14 17/122/14 61/114/14
f 18/74/1 22/1/1 35/3/1
f 1/59/1 5/4/1 27/6/1
f 1/39/2 2/7/2 9/9/2
f 13/123/3 6/10/3 12/12/3
f 13/124/4 10/8/4 6/13/4
f 12/25/5 15/14/5 18/16/5
f 22/15/6 15/14/6 23/18/6
f 21/58/1 20/19/1 36/21/1
f 13/125/4 19/22/4 16/17/4
f 18/16/7 19/23/7 12/25/7
f 25/31/8 17/26/8 21/28/8
f 21/28/7 14/27/7 20/30/7
f 16/35/6 17/26/6 24/32/6
f 24/32/9 20/33/9 16/35/9
f 7/70/1 8/36/1 31/38/1
f 12/12/5 5/11/5 9/9/5
f 13/126/9 7/40/9 10/42/9
f 8/46/3 7/43/3 14/45/3
f 4/48/8 8/46/8 11/47/8
f 10/42/2 3/41/2 11/47/2
f 28/60/10 27/6/10 44/50/10
f 34/62/10 35/3/10 50/52/10
f 40/65/11 41/53/11 56/55/11
f 27/6/12 26/5/12 43/57/12
f 25/64/1 21/58/1 41/53/1
f 2/66/1 1/59/1 28/60/1
f 23/68/1 19/61/1 39/63/1
f 24/76/1 25/64/1 40/65/1
f 6/69/1 2/66/1 29/67/1
f 22/1/1 23/68/1 38/2/1
f 5/4/1 6/69/1 26/5/1
f 3/72/1 7/70/1 30/71/1
f 4/75/1 3/72/1 32/73/1
f 19/61/1 18/74/1 34/62/1
f 8/36/1 4/75/1 33/37/1
f 20/19/1 24/76/1 37/20/1
f 43/127/13 42/77/13 44/79/13
f 46/128/13 47/80/13 48/82/13
f 51/129/13 54/83/13 50/85/13
f 53/130/13 56/86/13 52/88/13
f 36/21/10 37/20/10 52/90/10
f 29/67/14 28/60/14 45/92/14
f 35/3/12 38/2/12 51/94/12
f 26/5/11 29/67/11 42/96/11
f 39/63/14 34/62/14 55/98/14
f 30/71/12 31/38/12 46/100/12
f 38/2/11 39/63/11 54/102/11
f 32/73/10 30/71/10 48/104/10
f 37/20/12 40/65/12 53/106/12
f 33/37/14 32/73/14 49/108/14
f 41/53/14 36/21/14 57/110/14
f 31/38/11 33/37/11 47/112/11
f 17/131/11 16/115/11 61/114/11
f 15/132/11 59/113/11 16/115/11
f 12/117/12 9/133/12 58/119/12
f 58/119/12 59/113/12 12/117/12
f 9/134/10 10/120/10 58/119/10
f 11/135/10 60/118/10 10/120/10
f 58/119/1 60/118/1 59/113/1
f 61/114/14 60/118/14 14/121/14
f 11/136/14 14/121/14 60/118/14
