# Blender v2.76 (sub 0) OBJ File: 'turret_cheapo_head.blend'
# www.blender.org
o Cube_Cube.002
v -0.125000 0.375000 0.125000
v -0.125000 0.375000 -0.125000
v 0.125000 0.375000 0.125000
v 0.125000 0.375000 -0.125000
v 0.125000 0.125000 0.125000
v 0.125000 0.125000 -0.125000
v -0.125000 0.125000 -0.125000
v -0.125000 0.125000 0.125000
v 0.000000 0.125000 -0.125000
v 0.000000 0.125000 0.125000
v -0.125000 -0.000000 -0.125000
v -0.000000 0.000000 -0.125000
v -0.125000 -0.088388 -0.088388
v -0.000000 -0.088388 -0.088388
v -0.125000 -0.125000 0.000000
v 0.000000 -0.125000 0.000000
v -0.125000 -0.088388 0.088388
v -0.000000 -0.088388 0.088388
v -0.125000 0.000000 0.125000
v -0.000000 0.000000 0.125000
v 0.000000 0.375000 -0.125000
v 0.000000 0.375000 -0.500000
v 0.000000 0.375000 0.125000
v 0.000000 0.375000 0.375000
v 0.088388 0.338388 0.125000
v 0.088388 0.338388 0.375000
v 0.125000 0.250000 0.125000
v 0.125000 0.250000 0.375000
v 0.088388 0.161612 0.125000
v 0.088388 0.161612 0.375000
v -0.000000 0.125000 0.125000
v -0.000000 0.125000 0.375000
v -0.088388 0.161612 0.125000
v -0.088388 0.161612 0.375000
v -0.125000 0.250000 0.125000
v -0.125000 0.250000 0.375000
v -0.088388 0.338388 0.125000
v -0.088388 0.338388 0.375000
v 0.088388 0.338388 -0.500000
v 0.088388 0.338388 -0.125000
v 0.125000 0.250000 -0.500000
v 0.125000 0.250000 -0.125000
v 0.088388 0.161612 -0.500000
v 0.088388 0.161612 -0.125000
v -0.000000 0.125000 -0.500000
v -0.000000 0.125000 -0.125000
v -0.088388 0.161612 -0.500000
v -0.088388 0.161612 -0.125000
v -0.125000 0.250000 -0.500000
v -0.125000 0.250000 -0.125000
v -0.088388 0.338388 -0.500000
v -0.088388 0.338388 -0.125000
v -0.225000 0.225000 -0.500000
v -0.225000 0.375000 -0.500000
v -0.225000 0.225000 -0.650000
v -0.225000 0.375000 -0.650000
v 0.225000 0.225000 -0.500000
v 0.225000 0.375000 -0.500000
v 0.225000 0.225000 -0.650000
v 0.225000 0.375000 -0.650000
v -0.090000 0.125000 -0.650000
v -0.090000 0.125000 -0.500000
v 0.090000 0.125000 -0.650000
v 0.090000 0.125000 -0.500000
v 0.125000 0.100000 0.112500
v 0.125000 0.300000 0.112500
v 0.125000 0.100000 -0.012500
v 0.125000 0.300000 -0.012500
v 0.475000 0.100000 0.112500
v 0.475000 0.300000 0.112500
v 0.475000 0.100000 -0.012500
v 0.475000 0.300000 -0.012500
v 0.175000 0.300000 0.087500
v 0.175000 0.300000 0.012500
v 0.162500 0.350000 0.087500
v 0.162500 0.350000 0.012500
v 0.112500 0.400000 0.087500
v 0.112500 0.400000 0.012500
v 0.062500 0.400000 0.087500
v 0.062500 0.400000 0.012500
v 0.025000 0.375000 0.087500
v 0.025000 0.375000 0.012500
v 0.070711 0.320711 0.375000
v -0.000000 0.350000 0.375000
v 0.100000 0.250000 0.375000
v 0.070711 0.179289 0.375000
v -0.000000 0.150000 0.375000
v -0.070711 0.179289 0.375000
v -0.100000 0.250000 0.375000
v -0.070711 0.320711 0.375000
v 0.070711 0.320711 0.400000
v -0.000000 0.350000 0.400000
v 0.100000 0.250000 0.400000
v 0.070711 0.179289 0.400000
v -0.000000 0.150000 0.400000
v -0.070711 0.179289 0.400000
v -0.100000 0.250000 0.400000
v -0.070711 0.320711 0.400000
v -0.075000 0.475000 -0.175000
v -0.075000 0.475000 0.175000
v -0.039645 0.460355 -0.175000
v -0.039645 0.460355 0.175000
v -0.025000 0.425000 -0.175000
v -0.025000 0.425000 0.175000
v -0.039645 0.389645 -0.175000
v -0.039645 0.389645 0.175000
v -0.075000 0.375000 -0.175000
v -0.075000 0.375000 0.175000
v -0.110355 0.389645 -0.175000
v -0.110355 0.389645 0.175000
v -0.125000 0.425000 -0.175000
v -0.125000 0.425000 0.175000
v -0.110355 0.460355 -0.175000
v -0.110355 0.460355 0.175000
vt 0.821962 0.650392
vt 0.775508 0.650392
vt 0.775508 0.580710
vt 0.752281 0.836267
vt 0.821962 0.836267
vt 0.801553 0.856676
vt 0.821962 0.511028
vt 0.775508 0.511028
vt 0.775508 0.441347
vt 0.092938 0.738769
vt 0.092938 0.788509
vt 0.023256 0.788509
vt 0.092938 0.814706
vt 0.023256 0.814706
vt 0.092938 0.840903
vt 0.023256 0.840903
vt 0.092938 0.890643
vt 0.023256 0.890643
vt 0.821962 0.720074
vt 0.815159 0.769346
vt 0.782311 0.769346
vt 0.775508 0.092937
vt 0.782311 0.043665
vt 0.815159 0.043665
vt 0.023256 0.738769
vt 0.023256 0.669087
vt 0.092937 0.960325
vt 0.868474 0.289916
vt 0.868474 0.236584
vt 0.938155 0.236584
vt 0.881349 0.709753
vt 0.881349 0.656420
vt 0.927804 0.656420
vt 0.868474 0.396581
vt 0.868474 0.343248
vt 0.938155 0.343248
vt 0.881349 0.603088
vt 0.927804 0.603088
vt 0.868474 0.449913
vt 0.938155 0.396581
vt 0.881349 0.549756
vt 0.927804 0.549756
vt 0.868474 0.076588
vt 0.868474 0.023256
vt 0.938155 0.023256
vt 0.881349 0.496424
vt 0.927804 0.496424
vt 0.868474 0.129920
vt 0.938155 0.076588
vt 0.927804 0.923081
vt 0.881349 0.923081
vt 0.881349 0.869749
vt 0.868474 0.183252
vt 0.938155 0.129920
vt 0.881349 0.816417
vt 0.927804 0.816417
vt 0.868474 0.704419
vt 0.868474 0.661754
vt 0.881349 0.763085
vt 0.927804 0.709753
vt 0.927804 0.763085
vt 0.938155 0.289916
vt 0.938155 0.183252
vt 0.775508 0.232301
vt 0.775508 0.162619
vt 0.821962 0.232301
vt 0.536236 0.669087
vt 0.573830 0.707022
vt 0.562648 0.733675
vt 0.626139 0.706326
vt 0.690727 0.732578
vt 0.627236 0.707263
vt 0.679546 0.706567
vt 0.716042 0.669087
vt 0.821962 0.905949
vt 0.426702 0.856756
vt 0.377430 0.877166
vt 0.426702 0.827893
vt 0.475975 0.877166
vt 0.191705 0.669087
vt 0.252644 0.721342
vt 0.252084 0.722279
vt 0.194248 0.702241
vt 0.139449 0.730026
vt 0.681292 0.780186
vt 0.660883 0.829459
vt 0.632020 0.829459
vt 0.681292 0.878731
vt 0.330919 0.730026
vt 0.293580 0.709473
vt 0.296123 0.686546
vt 0.536236 0.780186
vt 0.585509 0.829459
vt 0.556646 0.829459
vt 0.536236 0.878731
vt 0.821962 0.371665
vt 0.775508 0.371665
vt 0.775508 0.301983
vt 0.274110 0.162619
vt 0.357728 0.162619
vt 0.357728 0.190492
vt 0.023256 0.162619
vt 0.023256 0.079001
vt 0.274110 0.079001
vt 0.728996 0.190492
vt 0.645378 0.190492
vt 0.645378 0.162619
vt 0.274110 0.190492
vt 0.274110 0.274110
vt 0.023256 0.274110
vt 0.451382 0.162619
vt 0.451382 0.190492
vt 0.551724 0.162619
vt 0.551724 0.190492
vt 0.098512 0.023256
vt 0.198854 0.023256
vt 0.198854 0.329856
vt 0.098512 0.329856
vt 0.329857 0.511085
vt 0.218365 0.511085
vt 0.218365 0.487858
vt 0.524966 0.511085
vt 0.524966 0.622576
vt 0.329857 0.622576
vt 0.524966 0.487858
vt 0.636456 0.487858
vt 0.636456 0.511085
vt 0.329857 0.487858
vt 0.329857 0.376367
vt 0.524966 0.376367
vt 0.023256 0.511085
vt 0.023256 0.487858
vt 0.231864 0.902021
vt 0.231864 0.888085
vt 0.260595 0.888085
vt 0.192446 0.902021
vt 0.192446 0.888085
vt 0.164574 0.902021
vt 0.164574 0.888085
vt 0.139449 0.902021
vt 0.139449 0.888085
vt 0.377430 0.703902
vt 0.382075 0.703902
vt 0.382075 0.746567
vt 0.868474 0.597755
vt 0.868474 0.555089
vt 0.868474 0.811084
vt 0.868474 0.544423
vt 0.868474 0.501757
vt 0.868474 0.757752
vt 0.868474 0.715086
vt 0.868474 0.917748
vt 0.868474 0.875082
vt 0.868474 0.651087
vt 0.868474 0.608422
vt 0.868474 0.864416
vt 0.868474 0.821750
vt 0.454910 0.673732
vt 0.485079 0.746567
vt 0.454910 0.669087
vt 0.412245 0.673732
vt 0.489725 0.746567
vt 0.485080 0.703902
vt 0.412245 0.781382
vt 0.412245 0.776736
vt 0.454910 0.776736
vt 0.378790 0.749852
vt 0.408960 0.670447
vt 0.488364 0.700617
vt 0.458195 0.780021
vt 0.224781 0.841573
vt 0.203448 0.841573
vt 0.203448 0.776537
vt 0.182115 0.841573
vt 0.182115 0.776537
vt 0.160782 0.841573
vt 0.160782 0.776537
vt 0.139449 0.841573
vt 0.139449 0.776537
vt 0.310112 0.776537
vt 0.310112 0.841573
vt 0.288779 0.841573
vt 0.267447 0.841573
vt 0.267447 0.776537
vt 0.536236 0.940327
vt 0.572654 0.925242
vt 0.587738 0.961660
vt 0.246114 0.841573
vt 0.224781 0.776537
vt 0.246114 0.776537
vt 0.392515 0.923677
vt 0.428932 0.938762
vt 0.377430 0.960094
vt 0.821962 0.580710
vt 0.821962 0.441347
vt 0.775508 0.720074
vt 0.798735 0.789756
vt 0.821962 0.092937
vt 0.821962 0.162619
vt 0.798735 0.023256
vt 0.092938 0.669087
vt 0.023256 0.960325
vt 0.938155 0.449913
vt 0.927804 0.869749
vt 0.821962 0.301983
vt 0.728996 0.162619
vt 0.023256 0.190492
vt 0.260595 0.902021
vt 0.377430 0.746567
vt 0.868474 0.768418
vt 0.412245 0.669087
vt 0.489725 0.703902
vt 0.454910 0.781382
vt 0.408960 0.780021
vt 0.378791 0.700617
vt 0.458195 0.670448
vt 0.488364 0.749852
vt 0.288779 0.776537
vt 0.572654 0.976744
vt 0.551321 0.976744
vt 0.536236 0.961660
vt 0.551321 0.925242
vt 0.587738 0.940327
vt 0.413847 0.975179
vt 0.392515 0.975179
vt 0.377430 0.938761
vt 0.413847 0.923677
vt 0.428932 0.960094
vn 0.000000 -1.000000 0.000000
vn 0.000000 0.000000 -1.000000
vn 1.000000 -0.000000 0.000000
vn 0.000000 -0.382700 -0.923900
vn 0.000000 -0.923900 -0.382700
vn 0.000000 -0.923900 0.382700
vn 0.000000 -0.382700 0.923900
vn -1.000000 -0.000000 0.000000
vn 0.000000 0.000000 1.000000
vn -0.382700 0.923900 0.000000
vn 0.382700 0.923900 0.000000
vn -0.923900 -0.382700 0.000000
vn 0.923900 0.382700 0.000000
vn -0.382700 -0.923900 0.000000
vn 0.923900 -0.382700 0.000000
vn 0.382700 -0.923900 0.000000
vn -0.923900 0.382700 0.000000
vn 0.000000 -0.942200 -0.335000
vn 0.000000 -0.978000 -0.208600
vn 0.000000 1.000000 0.000000
vn -0.595200 -0.803600 0.000000
vn 0.595200 -0.803600 0.000000
vn 0.970100 0.242500 0.000000
vn 0.707100 0.707100 0.000000
vn -0.554700 0.832100 0.000000
vn 0.441700 -0.780900 -0.441700
s off
f 10/1/1 9/2/1 6/3/1
f 21/4/2 4/5/2 40/6/2
f 27/7/3 42/8/3 4/9/3
f 12/10/4 14/11/4 13/12/4
f 14/11/5 16/13/5 15/14/5
f 16/13/6 18/15/6 17/16/6
f 18/15/7 20/17/7 19/18/7
f 20/19/3 18/20/3 14/21/3
f 11/22/8 13/23/8 17/24/8
f 12/10/2 11/25/2 7/26/2
f 19/18/9 20/17/9 10/27/9
f 52/28/10 21/29/10 22/30/10
f 24/31/11 26/32/11 25/33/11
f 48/34/12 50/35/12 49/36/12
f 26/32/13 28/37/13 27/38/13
f 46/39/14 48/34/14 47/40/14
f 28/37/15 30/41/15 29/42/15
f 44/43/16 46/44/16 45/45/16
f 30/41/16 32/46/16 31/47/16
f 42/48/15 44/43/15 43/49/15
f 31/50/14 32/51/14 34/52/14
f 40/53/13 42/48/13 41/54/13
f 34/52/12 36/55/12 35/56/12
f 24/31/9 84/57/9 83/58/9
f 38/59/10 24/31/10 23/60/10
f 36/55/17 38/59/17 37/61/17
f 50/35/17 52/28/17 51/62/17
f 21/29/11 40/53/11 39/63/11
f 50/64/8 7/65/8 35/66/8
f 50/67/2 48/68/2 7/69/2
f 7/69/2 48/68/2 46/70/2
f 6/71/18 9/72/18 46/70/18
f 44/73/2 42/74/2 6/71/2
f 42/75/2 40/6/2 4/5/2
f 52/76/2 50/77/2 2/78/2
f 52/76/2 2/78/2 21/79/2
f 8/80/19 10/81/19 31/82/19
f 33/83/9 35/84/9 8/80/9
f 35/85/9 37/86/9 1/87/9
f 37/86/9 23/88/9 1/87/9
f 27/89/9 29/90/9 5/91/9
f 10/81/9 5/91/9 29/90/9
f 27/92/9 3/93/9 25/94/9
f 25/94/9 3/93/9 23/95/9
f 23/96/20 21/97/20 2/98/20
f 56/99/8 55/100/8 53/101/8
f 60/102/2 59/103/2 55/104/2
f 58/105/3 57/106/3 59/107/3
f 54/108/9 53/109/9 57/110/9
f 55/100/21 61/111/21 62/112/21
f 60/102/20 56/99/20 54/108/20
f 61/111/1 63/113/1 64/114/1
f 59/103/2 63/115/2 61/116/2
f 53/109/9 62/117/9 64/118/9
f 57/106/22 64/114/22 63/113/22
f 68/119/8 67/120/8 65/121/8
f 72/122/2 71/123/2 67/124/2
f 70/125/3 69/126/3 71/127/3
f 66/128/9 65/129/9 69/130/9
f 67/120/1 71/131/1 69/132/1
f 72/122/20 68/119/20 66/128/20
f 76/133/23 75/134/23 73/135/23
f 78/136/24 77/137/24 75/134/24
f 80/138/20 79/139/20 77/137/20
f 82/140/25 81/141/25 79/139/25
f 89/142/17 97/143/17 98/144/17
f 28/37/9 85/145/9 86/146/9
f 38/59/9 36/55/9 89/147/9
f 30/41/9 86/148/9 87/149/9
f 38/59/9 90/150/9 84/151/9
f 32/51/9 87/152/9 88/153/9
f 26/32/9 83/154/9 85/155/9
f 34/52/9 88/156/9 89/157/9
f 97/143/9 95/158/9 93/159/9
f 87/160/14 95/158/14 96/161/14
f 85/162/15 93/159/15 94/163/15
f 84/164/11 92/165/11 91/166/11
f 90/167/10 98/144/10 92/165/10
f 88/168/12 96/161/12 97/143/12
f 86/169/16 94/163/16 95/158/16
f 83/170/13 91/166/13 93/159/13
f 100/171/11 102/172/11 101/173/11
f 102/172/13 104/174/13 103/175/13
f 104/174/15 106/176/15 105/177/15
f 106/176/16 108/178/16 107/179/16
f 107/180/14 108/181/14 110/182/14
f 110/182/12 112/183/12 111/184/12
f 112/185/9 108/186/9 104/187/9
f 114/188/10 100/171/10 99/189/10
f 112/183/17 114/188/17 113/190/17
f 105/191/2 109/192/2 101/193/2
f 5/194/1 10/1/1 6/3/1
f 4/9/3 3/195/3 27/7/3
f 27/7/3 5/194/3 6/3/3
f 6/3/3 42/8/3 27/7/3
f 11/25/4 12/10/4 13/12/4
f 13/12/5 14/11/5 15/14/5
f 15/14/6 16/13/6 17/16/6
f 17/16/7 18/15/7 19/18/7
f 12/196/3 9/2/3 10/1/3
f 10/1/3 20/19/3 12/196/3
f 18/20/3 16/197/3 14/21/3
f 14/21/3 12/196/3 20/19/3
f 19/198/8 8/199/8 7/65/8
f 7/65/8 11/22/8 19/198/8
f 13/23/8 15/200/8 17/24/8
f 17/24/8 19/198/8 11/22/8
f 9/201/2 12/10/2 7/26/2
f 8/202/9 19/18/9 10/27/9
f 51/62/10 52/28/10 22/30/10
f 23/60/11 24/31/11 25/33/11
f 47/40/12 48/34/12 49/36/12
f 25/33/13 26/32/13 27/38/13
f 45/203/14 46/39/14 47/40/14
f 27/38/15 28/37/15 29/42/15
f 43/49/16 44/43/16 45/45/16
f 29/42/16 30/41/16 31/47/16
f 41/54/15 42/48/15 43/49/15
f 33/204/14 31/50/14 34/52/14
f 39/63/13 40/53/13 41/54/13
f 33/204/12 34/52/12 35/56/12
f 26/32/9 24/31/9 83/58/9
f 37/61/10 38/59/10 23/60/10
f 35/56/17 36/55/17 37/61/17
f 49/36/17 50/35/17 51/62/17
f 22/30/11 21/29/11 39/63/11
f 35/66/8 1/205/8 2/98/8
f 2/98/8 50/64/8 35/66/8
f 7/65/8 8/199/8 35/66/8
f 9/72/1 7/69/1 46/70/1
f 44/73/2 6/71/2 46/70/2
f 33/83/9 8/80/9 31/82/9
f 31/82/26 10/81/26 29/90/26
f 2/98/20 1/205/20 23/96/20
f 23/96/20 3/195/20 4/9/20
f 4/9/20 21/97/20 23/96/20
f 54/108/8 56/99/8 53/101/8
f 56/99/2 60/102/2 55/104/2
f 60/206/3 58/105/3 59/107/3
f 58/207/9 54/108/9 57/110/9
f 53/101/21 55/100/21 62/112/21
f 58/207/20 60/102/20 54/108/20
f 62/112/1 61/111/1 64/114/1
f 55/104/2 59/103/2 61/116/2
f 57/110/9 53/109/9 64/118/9
f 59/107/22 57/106/22 63/113/22
f 66/128/8 68/119/8 65/121/8
f 68/119/2 72/122/2 67/124/2
f 72/122/3 70/125/3 71/127/3
f 70/125/9 66/128/9 69/130/9
f 65/121/1 67/120/1 69/132/1
f 70/125/20 72/122/20 66/128/20
f 74/208/23 76/133/23 73/135/23
f 76/133/24 78/136/24 75/134/24
f 78/136/20 80/138/20 77/137/20
f 80/138/25 82/140/25 79/139/25
f 90/209/17 89/142/17 98/144/17
f 30/41/9 28/37/9 86/146/9
f 90/210/9 38/59/9 89/147/9
f 32/46/9 30/41/9 87/149/9
f 24/31/9 38/59/9 84/151/9
f 34/52/9 32/51/9 88/153/9
f 28/37/9 26/32/9 85/155/9
f 36/55/9 34/52/9 89/157/9
f 93/159/9 91/166/9 92/165/9
f 92/165/9 98/144/9 93/159/9
f 97/143/9 96/161/9 95/158/9
f 95/158/9 94/163/9 93/159/9
f 93/159/9 98/144/9 97/143/9
f 88/211/14 87/160/14 96/161/14
f 86/212/15 85/162/15 94/163/15
f 83/213/11 84/164/11 91/166/11
f 84/214/10 90/167/10 92/165/10
f 89/215/12 88/168/12 97/143/12
f 87/216/16 86/169/16 95/158/16
f 85/217/13 83/170/13 93/159/13
f 99/189/11 100/171/11 101/173/11
f 101/173/13 102/172/13 103/175/13
f 103/175/15 104/174/15 105/177/15
f 105/177/16 106/176/16 107/179/16
f 109/218/14 107/180/14 110/182/14
f 109/218/12 110/182/12 111/184/12
f 104/187/9 102/219/9 100/220/9
f 100/220/9 114/221/9 104/187/9
f 112/185/9 110/222/9 108/186/9
f 108/186/9 106/223/9 104/187/9
f 104/187/9 114/221/9 112/185/9
f 113/190/10 114/188/10 99/189/10
f 111/184/17 112/183/17 113/190/17
f 113/224/2 99/225/2 101/193/2
f 101/193/2 103/226/2 105/191/2
f 105/191/2 107/227/2 109/192/2
f 109/192/2 111/228/2 113/224/2
f 113/224/2 101/193/2 109/192/2
