# Blender v2.79 (sub 0) OBJ File: 'stinger.blend'
# www.blender.org
o Mag_Cube.002
v -0.089029 2.933951 -0.760703
v -0.089029 1.301304 -1.115814
v -0.089029 1.283170 -0.753593
v 0.138329 2.939292 -1.161489
v -0.089029 2.939292 -1.161489
v 0.138329 2.933951 -0.760703
v 0.110239 1.325914 -0.657225
v 0.138329 1.283170 -0.753593
v -0.060939 3.704485 -0.669529
v 0.110239 3.704485 -0.669529
v 0.138329 3.754883 -1.150658
v -0.089029 3.752410 -0.837243
v 0.138329 3.752410 -0.837243
v -0.089029 3.732157 -0.767971
v 0.138329 3.732157 -0.767971
v 0.138329 2.961623 -0.842189
v 0.138329 2.966964 -1.161489
v -0.089029 2.966964 -1.161489
v -0.089029 2.961623 -0.842189
v -0.089029 3.754883 -1.150658
v -0.089029 3.752410 -0.763026
v 0.138329 3.752410 -0.763026
v -0.060939 1.325914 -0.657225
v 0.138329 1.301304 -1.115814
vt 0.832504 0.337653
vt 0.866722 0.059183
vt 0.831819 0.056090
vt 0.836432 0.315214
vt 0.851387 0.264253
vt 0.851387 0.315214
vt 0.832504 0.337653
vt 0.822533 0.063381
vt 0.831819 0.056090
vt 0.862646 0.264253
vt 0.851387 0.337897
vt 0.851387 0.264253
vt 0.852658 0.180430
vt 0.837703 0.171830
vt 0.852658 0.171830
vt 0.867566 0.223086
vt 0.856749 0.233730
vt 0.856749 0.223086
vt 0.844313 0.232814
vt 0.847847 0.242143
vt 0.844313 0.243458
vt 0.840356 0.342373
vt 0.823718 0.469077
vt 0.836432 0.316075
vt 0.851387 0.316075
vt 0.840356 0.342373
vt 0.871123 0.338564
vt 0.839879 0.477252
vt 0.871123 0.343284
vt 0.836432 0.340586
vt 0.851387 0.340586
vt 0.839879 0.477252
vt 0.833204 0.473797
vt 0.846791 0.232242
vt 0.845893 0.221598
vt 0.846791 0.221598
vt 0.871123 0.343284
vt 0.870079 0.477673
vt 0.833204 0.473797
vt 0.832728 0.477252
vt 0.823718 0.469077
vt 0.871123 0.338564
vt 0.854191 0.233730
vt 0.854191 0.223086
vt 0.839550 0.169214
vt 0.850810 0.169214
vt 0.866722 0.059183
vt 0.822533 0.063381
vt 0.836432 0.264253
vt 0.862646 0.337897
vt 0.837703 0.180430
vt 0.867566 0.233730
vt 0.847847 0.234129
vt 0.870079 0.477673
vt 0.832728 0.477252
vt 0.845893 0.232242
vn -1.0000 -0.0000 0.0000
vn 0.0000 -0.0279 -0.9996
vn 0.9599 0.0013 0.2804
vn 0.9594 0.0014 0.2820
vn 0.9602 0.0012 0.2793
vn 0.0000 0.0052 1.0000
vn 0.0000 -0.9987 -0.0500
vn 0.0000 1.0000 0.0079
vn 0.0000 1.0000 -0.0000
vn 0.0000 0.9627 0.2706
vn 0.9993 0.0350 0.0119
vn 0.0000 0.0000 -1.0000
vn 0.0000 0.0137 -0.9999
vn 1.0000 0.0000 0.0000
vn 0.0000 -0.2372 0.9715
vn -0.9632 -0.0258 0.2676
vn 0.0000 -0.9141 0.4055
vn -0.9599 0.0013 0.2804
vn -0.9594 0.0014 0.2820
vn -0.9591 0.0015 0.2831
vn 0.9591 0.0015 0.2831
vn 0.9632 -0.0258 0.2676
vn -0.9993 0.0350 0.0119
vn -0.9602 0.0012 0.2793
s 1
f 1/1/1 2/2/1 3/3/1
f 4/4/2 2/5/2 5/6/2
f 6/7/3 7/8/4 8/9/5
f 9/10/6 7/11/6 10/12/6
f 2/13/7 8/14/7 3/15/7
f 11/16/8 12/17/8 13/18/9
f 14/19/10 10/20/10 15/21/10
f 16/22/11 10/23/11 6/7/11
f 17/24/12 5/6/12 18/25/13
f 19/26/1 5/27/1 1/1/1
f 12/28/1 18/29/1 19/26/1
f 11/30/13 18/25/13 20/31/13
f 13/32/14 15/33/14 16/22/14
f 21/34/15 15/35/15 22/36/15
f 13/32/14 17/37/14 11/38/14
f 12/28/1 14/39/1 21/40/1
f 19/26/16 9/41/16 14/39/16
f 16/22/14 4/42/14 17/37/14
f 13/18/9 21/43/9 22/44/9
f 3/15/17 7/45/17 23/46/17
f 6/7/14 24/47/14 4/42/14
f 1/1/18 23/48/19 9/41/20
f 1/1/1 5/27/1 2/2/1
f 4/4/2 24/49/2 2/5/2
f 6/7/3 10/23/21 7/8/4
f 9/10/6 23/50/6 7/11/6
f 2/13/7 24/51/7 8/14/7
f 11/16/8 20/52/8 12/17/8
f 14/19/10 9/53/10 10/20/10
f 16/22/22 15/33/22 10/23/22
f 17/24/12 4/4/12 5/6/12
f 19/26/1 18/29/1 5/27/1
f 12/28/1 20/54/1 18/29/1
f 11/30/13 17/24/12 18/25/13
f 13/32/14 22/55/14 15/33/14
f 21/34/15 14/56/15 15/35/15
f 13/32/14 16/22/14 17/37/14
f 12/28/1 19/26/1 14/39/1
f 19/26/23 1/1/23 9/41/23
f 16/22/14 6/7/14 4/42/14
f 13/18/9 12/17/8 21/43/9
f 3/15/17 8/14/17 7/45/17
f 6/7/14 8/9/14 24/47/14
f 1/1/18 3/3/24 23/48/19
o Cube.001_Cube.002
v 0.393889 3.128783 -9.337228
v 0.393890 1.846543 -5.892444
v 0.393889 1.846542 -9.337228
v -0.393894 3.128783 -5.892444
v -0.393895 1.846542 -9.337228
v -0.393894 1.846543 -5.892444
v -0.393895 3.128783 -9.337228
v -0.000002 3.303435 -5.049528
v -0.382998 1.728983 -5.208168
v -0.000002 1.728983 -5.049528
v -0.382998 3.303435 -5.208168
v -0.541638 1.728983 -5.591164
v -0.541638 3.303435 -5.591164
v -0.382998 1.728983 -5.974160
v -0.382998 3.303435 -5.974160
v -0.000002 1.728983 -6.132800
v -0.000002 3.303435 -6.132800
v 0.382994 1.728983 -5.974160
v 0.382994 3.303435 -5.974160
v 0.541634 1.728983 -5.591164
v 0.541634 3.303435 -5.591164
v 0.382994 1.728983 -5.208168
v 0.382994 3.303435 -5.208168
v -1.403786 4.699999 -5.797567
v -1.686627 4.582843 -7.948311
v -1.686626 4.582843 -5.797567
v -1.803787 4.300000 -7.948311
v -1.803786 4.300000 -5.797567
v -1.686626 4.017156 -5.797567
v -1.686627 4.017156 -7.948311
v -1.403786 3.899999 -5.797567
v -1.403787 3.899999 -7.948311
v -1.120942 4.017156 -5.797567
v -1.003787 4.300000 -7.948312
v -1.003786 4.300000 -5.797568
v -1.883787 4.300000 -7.982080
v -1.743199 3.960587 -7.982080
v -1.120943 4.582843 -7.948312
v -1.120942 4.582843 -5.797568
v -0.923786 4.300000 -5.755472
v -0.923787 4.300000 -7.982080
v -1.064375 4.639411 -8.277956
v -1.064375 4.639411 -7.982080
v -1.120943 4.017156 -7.948311
v -1.403787 3.819999 -7.982080
v -1.064375 3.960587 -7.982080
v -1.403787 4.699999 -7.948311
v -1.403787 4.779999 -7.982080
v -1.743199 4.639411 -7.982080
v -0.923787 4.300000 -8.277956
v -1.743199 3.960588 -8.277955
v -1.883787 4.300000 -8.277955
v -1.403787 3.819999 -8.277956
v -1.064375 3.960588 -8.277956
v -1.743199 4.639411 -8.277956
v -1.403787 4.779999 -8.277956
v -1.403786 4.779999 -5.755472
v -1.064374 4.639411 -5.489088
v -1.064374 4.639411 -5.755472
v -1.883786 4.300000 -5.755472
v -1.743198 4.639411 -5.755472
v -1.064374 3.960587 -5.755472
v -1.403786 3.819999 -5.755472
v -1.743198 3.960587 -5.755472
v -1.743198 3.960587 -5.489088
v -0.923786 4.300000 -5.489088
v -1.883786 4.300000 -5.489088
v -1.064374 3.960587 -5.489088
v -1.743198 4.639411 -5.489088
v -1.403786 3.819999 -5.489088
v -1.403786 4.779999 -5.489088
v -1.473919 4.208779 -7.811895
v -0.447114 3.729971 -5.941060
v -0.447115 3.729971 -7.811896
v 0.128767 2.756387 -3.983544
v 0.128767 1.614719 -3.555136
v 0.128767 1.614719 -3.983544
v 0.128767 2.756387 -3.555136
v -0.128769 1.614719 -3.555136
v -0.128769 2.756387 -3.555136
v -0.128769 1.614719 -3.983544
v -0.128769 2.756387 -3.983544
v 0.190951 3.077327 -3.167776
v -0.208109 2.727468 -3.531600
v 0.197875 2.727295 -3.523528
v -0.198185 2.731559 -4.030576
v 0.207799 2.731387 -4.022504
v -0.191081 3.087375 -4.380480
v 0.214907 3.087207 -4.372408
v -0.207801 3.932427 -3.521620
v -0.190953 3.586487 -4.376348
v -0.214909 3.576612 -3.171716
v 0.215035 3.586319 -4.368276
v 0.198183 3.932260 -3.513548
v 0.191079 3.576439 -3.163644
v 0.771273 5.530663 -9.417193
v 0.771274 4.098263 -6.669316
v 0.771273 4.098262 -9.417192
v 0.771274 5.530663 -6.669315
v -0.771278 4.098263 -6.669316
v -0.771278 5.530663 -6.669315
v -0.771279 4.098262 -9.417192
v -0.000003 4.089743 -9.779048
v -0.346641 3.977118 9.779048
v 0.000003 4.089749 9.779048
v -0.346647 3.977114 -9.779048
v -0.560881 3.682245 9.779048
v -0.560887 3.682239 -9.779048
v -0.560881 3.317761 9.779048
v -0.560887 3.317755 -9.779048
v -0.346641 3.022886 9.779048
v -0.346647 3.022882 -9.779048
v 0.000003 2.910254 9.779048
v -0.000003 2.910250 -9.779048
v 0.346647 3.022886 9.779048
v 0.346641 3.022882 -9.779048
v 0.560887 3.317761 9.779048
v 0.560881 3.317755 -9.779048
v 0.560887 3.682245 9.779048
v -0.381311 4.024827 -9.822908
v 0.560881 3.682239 -9.779048
v 0.346647 3.977118 9.779048
v 0.346641 3.977114 -9.779048
v 0.519971 4.215672 9.897908
v -0.841321 3.226638 9.897908
v 0.841327 3.773365 9.897908
v -0.841321 3.773365 9.897908
v 0.841327 3.226638 9.897908
v 0.519971 2.784329 9.897908
v 0.000003 2.615381 9.897908
v -0.519965 2.784329 9.897908
v -0.519965 4.215672 9.897908
v 0.000003 4.384622 9.897908
v -0.616975 3.299531 -9.822908
v -0.616975 3.700463 -10.379472
v -0.616975 3.299531 -10.379472
v -0.616975 3.700463 -9.822908
v 0.381305 4.024827 -9.822908
v -0.000003 4.148718 -9.822908
v 0.616969 3.700463 -9.822908
v 0.616969 3.299531 -9.822908
v 0.381305 2.975170 -9.822908
v -0.381311 2.975170 -9.822908
v -0.000003 2.851279 -9.822908
v 0.616969 3.700463 -10.379472
v -0.000003 4.148718 -10.379472
v 0.381305 2.975170 -10.379472
v 0.616969 3.299531 -10.379472
v -0.381311 2.975170 -10.379472
v -0.381311 4.024827 -10.379472
v -0.000003 2.851279 -10.379472
v 0.381305 4.024827 -10.379472
v 0.393890 3.128783 -5.892444
v -1.473918 4.208779 -5.941060
v -0.215037 3.077499 -3.175848
v -0.197877 3.936519 -4.020596
v 0.208107 3.936351 -4.012524
v -0.771279 5.530663 -9.417192
v 0.771273 5.530663 -9.417193
v 0.771274 4.098263 -6.669316
v 0.771273 4.098262 -9.417192
v 0.771274 5.530663 -6.669315
v -0.771278 4.098263 -6.669316
v -0.771278 5.530663 -6.669315
v -0.771279 4.098262 -9.417192
v -0.771279 5.530663 -9.417192
vt 0.753049 0.842514
vt 0.834948 0.720802
vt 0.753049 0.720802
vt 0.451379 0.751158
vt 0.526386 0.644688
vt 0.526386 0.751158
vt 0.647089 0.751158
vt 0.691237 0.645292
vt 0.691237 0.751158
vt 0.571440 0.645292
vt 0.571440 0.751158
vt 0.834948 0.720802
vt 0.753049 0.842514
vt 0.753049 0.720802
vt 0.865118 0.914045
vt 0.954494 0.939246
vt 0.954494 0.914045
vt 0.677183 0.265008
vt 0.751320 0.315075
vt 0.677205 0.365127
vt 0.647089 0.645292
vt 0.451379 0.644688
vt 0.526386 0.619409
vt 0.916847 0.720802
vt 0.834948 0.842514
vt 0.998746 0.720802
vt 0.916847 0.842514
vt 0.998746 0.842514
vt 0.451532 0.904025
vt 0.527579 0.938195
vt 0.451532 0.938195
vt 1.000067 0.939246
vt 1.000067 0.914045
vt 0.997335 0.982124
vt 0.821713 0.957571
vt 0.997853 0.957571
vt 0.948519 0.999611
vt 0.821154 0.982062
vt 0.999562 0.982062
vt 0.872418 0.999486
vt 0.821195 0.982124
vt 0.916847 0.720802
vt 0.527579 0.999529
vt 0.818514 0.938957
vt 0.818514 0.999529
vt 0.751346 0.193282
vt 0.452761 0.263765
vt 0.751346 0.263765
vt 0.834948 0.665046
vt 0.916847 0.665046
vt 0.527579 0.843077
vt 0.818514 0.903517
vt 0.527579 0.904025
vt 0.820207 0.914045
vt 0.865118 0.939246
vt 0.916847 0.842514
vt 0.998746 0.720802
vt 0.998746 0.842514
vt 0.489352 0.892690
vt 0.453239 0.868198
vt 0.489628 0.844584
vt 0.834948 0.665046
vt 0.916847 0.665046
vt 0.118655 0.010018
vt 0.144918 0.065072
vt 0.075492 0.100143
vt 0.872853 0.939693
vt 0.947243 0.939693
vt 0.999034 0.957243
vt 0.874129 0.999611
vt 0.820625 0.957243
vt 0.873670 0.940209
vt 0.946630 0.940209
vt 0.945378 0.999486
vt 0.526680 0.264262
vt 0.601536 0.314798
vt 0.526683 0.365331
vt 0.181571 0.010473
vt 0.295940 0.065362
vt 0.224605 0.099890
vt 0.834948 0.842514
vt 0.624787 0.350459
vt 0.603068 0.315060
vt 0.624771 0.279664
vt 0.729601 0.279675
vt 0.729617 0.350470
vt 0.451379 0.619409
vt 0.452761 0.193282
vt 0.818514 0.843077
vt 0.820207 0.939246
vt 0.515221 0.851940
vt 0.525741 0.869077
vt 0.515026 0.885956
vt 0.463759 0.885334
vt 0.463954 0.851318
vt 0.006322 0.066764
vt 0.006436 0.036153
vt 0.032998 0.011064
vt 0.075862 0.001081
vt 0.145032 0.034460
vt 0.118356 0.090161
vt 0.032699 0.091207
vt 0.473752 0.350529
vt 0.451827 0.314796
vt 0.473750 0.279063
vt 0.579610 0.279064
vt 0.579613 0.350531
vt 0.180808 0.090618
vt 0.153921 0.065967
vt 0.154212 0.035355
vt 0.225547 0.000826
vt 0.269344 0.010099
vt 0.296232 0.034750
vt 0.268581 0.090244
vt 0.150367 0.999948
vt 0.187849 0.959827
vt 0.150367 0.959827
vt 0.564045 0.751835
vt 0.601607 0.842170
vt 0.601607 0.751835
vt 0.337775 0.955040
vt 0.300293 0.116603
vt 0.300293 0.955040
vt 0.639188 0.365688
vt 0.601692 0.385823
vt 0.639188 0.385823
vt 0.676683 0.619244
vt 0.714179 0.593980
vt 0.676683 0.593980
vt 0.489206 0.365688
vt 0.451711 0.385823
vt 0.489206 0.385823
vt 0.526858 0.751835
vt 0.564045 0.842170
vt 0.526701 0.385823
vt 0.112886 0.959827
vt 0.714179 0.583813
vt 0.676683 0.396030
vt 0.676683 0.583813
vt 0.075404 0.955040
vt 0.037923 0.116603
vt 0.037923 0.955040
vt 0.526701 0.583813
vt 0.564197 0.396030
vt 0.526701 0.396030
vt 0.601692 0.583813
vt 0.639188 0.396030
vt 0.601692 0.396030
vt 0.639188 0.593980
vt 0.639188 0.583813
vt 0.112886 0.955040
vt 0.075404 0.116603
vt 0.489206 0.396030
vt 0.451711 0.396030
vt 0.601692 0.365688
vt 0.564197 0.385823
vt 0.601692 0.593980
vt 0.489206 0.583813
vt 0.526701 0.593980
vt 0.451711 0.593980
vt 0.451711 0.583813
vt 0.564197 0.583813
vt 0.564197 0.593980
vt 0.751674 0.593980
vt 0.751674 0.583813
vt 0.714295 0.751835
vt 0.751857 0.842170
vt 0.751857 0.751835
vt 0.639545 0.842170
vt 0.639545 0.751835
vt 0.452109 0.751835
vt 0.490047 0.842170
vt 0.490047 0.751835
vt 0.714179 0.365688
vt 0.676683 0.385823
vt 0.714179 0.385823
vt 0.751674 0.365688
vt 0.751674 0.385823
vt 0.375256 0.959827
vt 0.337775 0.999948
vt 0.375256 0.999948
vt 0.714179 0.619244
vt 0.676356 0.751835
vt 0.714295 0.842170
vt 0.714179 0.396030
vt 0.751674 0.396030
vt 0.526858 0.842170
vt 0.676356 0.842170
vt 0.564197 0.619244
vt 0.262812 0.999948
vt 0.300293 0.959827
vt 0.262812 0.959827
vt 0.225330 0.999948
vt 0.225330 0.959827
vt 0.526701 0.365688
vt 0.037923 0.959827
vt 0.075404 0.999948
vt 0.075404 0.959827
vt 0.412738 0.999948
vt 0.412738 0.959827
vt 0.225330 0.955040
vt 0.187849 0.116603
vt 0.187849 0.955040
vt 0.187849 0.999948
vt 0.412738 0.955040
vt 0.375256 0.116603
vt 0.375256 0.955040
vt 0.150367 0.955040
vt 0.112886 0.116603
vt 0.262812 0.955040
vt 0.262812 0.116603
vt 0.337775 0.116603
vt 0.225330 0.116603
vt 0.601692 0.619244
vt 0.262812 0.101602
vt 0.225330 0.101602
vt 0.337775 0.101602
vt 0.300293 0.101602
vt 0.037923 0.101602
vt 0.187849 0.101602
vt 0.150367 0.116603
vt 0.150367 0.101602
vt 0.112886 0.101602
vt 0.412738 0.101602
vt 0.412738 0.116603
vt 0.075404 0.101602
vt 0.489206 0.619244
vt 0.489206 0.593980
vt 0.112886 0.999948
vt 0.526701 0.619244
vt 0.337775 0.959827
vt 0.300293 0.999948
vt 0.676683 0.365688
vt 0.451711 0.365688
vt 0.564197 0.365688
vt 0.452109 0.842170
vt 0.751674 0.619244
vt 0.037923 0.999948
vt 0.639188 0.619244
vt 0.375256 0.101602
vt 0.451711 0.619244
vn -1.0000 -0.0000 0.0000
vn 0.0000 0.0000 -1.0000
vn 0.0000 -0.0000 1.0000
vn 1.0000 0.0000 -0.0000
vn -0.0003 -1.0000 -0.0082
vn 0.0000 -1.0000 0.0000
vn 0.0000 1.0000 -0.0000
vn 0.0139 -0.7012 -0.7128
vn 0.9998 -0.0004 0.0199
vn -0.9998 0.0004 -0.0199
vn 0.4226 0.9063 -0.0000
vn -0.0142 -0.7129 0.7011
vn 0.9511 0.3090 0.0000
vn 0.5878 0.8090 0.0000
vn -0.7071 0.0000 0.7071
vn -0.9511 -0.3090 0.0000
vn -0.9511 0.3090 0.0000
vn -0.7071 0.7071 0.0000
vn -0.7071 -0.7071 -0.0000
vn 0.7071 -0.7071 0.0000
vn 0.9511 -0.3090 0.0000
vn 0.5878 -0.8090 -0.0000
vn 0.7071 0.7071 -0.0000
vn -0.2750 0.2750 0.9213
vn -0.3889 0.0000 0.9213
vn 0.3293 -0.3293 -0.8850
vn -0.0000 -0.4657 -0.8850
vn -0.0000 0.3889 0.9213
vn 0.2750 -0.2750 0.9213
vn 0.3889 0.0000 0.9213
vn -0.0000 -0.3889 0.9213
vn 0.2750 0.2750 0.9213
vn -0.2750 -0.2750 0.9213
vn 0.7071 0.0000 -0.7071
vn 0.7071 0.0000 0.7071
vn -0.7071 0.0000 -0.7071
vn -0.5878 -0.8090 0.0000
vn 0.3293 0.3293 -0.8850
vn 0.4657 -0.0000 -0.8850
vn -0.3293 0.3293 -0.8850
vn 0.0000 0.4657 -0.8850
vn -0.3292 -0.3293 -0.8850
vn -0.4657 0.0000 -0.8850
vn -0.5878 0.8090 0.0000
vn -0.5676 0.1844 0.8024
vn -0.5676 -0.1844 0.8024
vn -0.5675 0.1844 0.8024
vn -0.3293 -0.3293 -0.8850
vn -0.3556 0.1155 -0.9275
vn -0.2198 0.3025 -0.9275
vn -0.2197 0.3025 -0.9275
vn 0.0000 0.3739 -0.9275
vn -0.2197 -0.3025 -0.9275
vn -0.3556 -0.1155 -0.9275
vn 0.2197 -0.3025 -0.9275
vn -0.0000 -0.3739 -0.9275
vn 0.2198 0.3025 -0.9275
vn 0.3556 0.1155 -0.9275
vn 0.3556 -0.1155 -0.9275
vn 0.5676 -0.1844 0.8024
vn 0.5676 0.1844 0.8024
vn 0.3508 0.4828 0.8024
vn -0.0000 0.5968 0.8024
vn -0.3508 0.4828 0.8024
vn -0.0000 -0.5968 0.8024
vn 0.3508 -0.4828 0.8024
vn -0.3508 -0.4828 0.8024
s off
f 182/57/25 124/58/25 125/59/25
f 106/60/25 103/61/25 104/62/25
f 99/63/26 105/64/26 106/65/26
f 104/62/27 100/66/27 102/67/27
f 187/68/28 190/69/28 188/70/28
f 109/71/29 110/72/29 111/73/29
f 94/74/27 90/75/27 95/76/27
f 102/67/28 101/77/28 99/63/28
f 105/78/30 100/79/30 103/61/30
f 184/80/31 189/81/31 187/68/31
f 123/82/28 122/83/28 120/84/28
f 25/85/26 29/86/26 31/87/26
f 111/73/32 112/88/32 113/89/32
f 117/90/33 107/91/33 113/92/33
f 114/93/34 115/94/34 116/95/34
f 117/90/33 118/96/33 119/97/33
f 124/58/30 122/83/30 121/98/30
f 31/99/25 30/100/25 28/101/25
f 96/102/35 97/103/35 98/104/35
f 125/105/27 121/98/27 123/106/27
f 25/107/28 26/108/28 27/109/28
f 30/100/30 27/109/30 26/108/30
f 107/110/36 108/111/36 109/71/36
f 185/112/25 186/113/25 183/114/25
f 44/115/30 34/116/30 36/117/30
f 184/80/26 188/118/26 186/119/26
f 156/120/27 149/121/27 154/122/27
f 110/123/34 108/124/34 179/125/34
f 114/93/34 180/126/34 115/94/34
f 110/123/34 179/125/34 112/127/34
f 115/94/34 179/125/34 116/95/34
f 109/128/33 111/129/33 107/91/33
f 181/130/33 118/96/33 117/90/33
f 107/91/33 111/129/33 113/92/33
f 77/131/26 76/132/26 80/133/26
f 171/134/26 159/135/26 170/136/26
f 182/57/25 126/137/25 124/58/25
f 106/60/25 105/78/25 103/61/25
f 99/63/26 101/77/26 105/64/26
f 104/62/27 103/61/27 100/66/27
f 187/68/28 189/81/28 190/69/28
f 109/71/29 108/111/29 110/72/29
f 95/76/27 93/138/27 91/139/27
f 91/139/27 89/140/27 94/74/27
f 94/74/27 92/141/27 90/75/27
f 90/75/27 82/142/27 95/76/27
f 95/76/27 91/139/27 94/74/27
f 102/67/28 100/66/28 101/77/28
f 105/78/30 101/143/30 100/79/30
f 184/80/31 185/112/31 189/81/31
f 123/82/28 121/98/28 122/83/28
f 25/85/26 27/109/26 29/86/26
f 111/73/32 110/72/32 112/88/32
f 117/90/33 119/97/33 107/91/33
f 124/58/30 126/137/30 122/83/30
f 31/99/25 29/86/25 30/100/25
f 96/102/35 178/144/35 97/103/35
f 125/105/27 124/58/27 121/98/27
f 25/107/28 177/145/28 26/108/28
f 30/100/30 29/86/30 27/109/30
f 107/110/36 179/146/36 108/111/36
f 185/112/25 184/80/25 186/113/25
f 36/117/30 38/147/30 40/148/30
f 40/148/30 42/149/30 44/115/30
f 44/115/30 46/150/30 34/116/30
f 34/116/30 33/151/30 36/117/30
f 36/117/30 40/148/30 44/115/30
f 184/80/26 187/68/26 188/118/26
f 152/152/27 150/153/27 148/154/27
f 148/154/27 157/155/27 156/120/27
f 156/120/27 151/156/27 149/121/27
f 149/121/27 155/157/27 154/122/27
f 154/122/27 153/158/27 152/152/27
f 152/152/27 148/154/27 154/122/27
f 148/154/27 156/120/27 154/122/27
f 115/94/34 112/127/34 179/125/34
f 80/133/26 66/159/26 74/160/26
f 74/160/26 78/161/26 77/131/26
f 77/131/26 75/162/26 76/132/26
f 76/132/26 79/163/26 80/133/26
f 80/133/26 74/160/26 77/131/26
f 170/136/26 176/164/26 169/165/26
f 169/165/26 172/166/26 171/134/26
f 171/134/26 175/167/26 159/135/26
f 175/167/26 173/168/26 159/135/26
f 173/168/26 160/169/26 159/135/26
f 159/135/26 174/170/26 170/136/26
f 170/136/26 169/165/26 171/134/26
s 1
f 169/171/37 162/172/38 164/173/37
f 35/174/39 34/175/27 32/176/27
f 134/177/40 131/178/41 132/179/41
f 93/180/42 81/181/31 85/182/42
f 76/183/25 61/184/43 60/185/25
f 92/186/44 87/187/30 86/188/44
f 37/189/25 33/190/39 35/174/39
f 64/191/28 92/186/44 86/188/44
f 165/192/45 169/171/37 164/173/37
f 54/193/43 52/194/25 51/195/25
f 140/196/46 137/197/30 138/198/30
f 58/199/28 63/200/47 59/201/28
f 71/202/31 50/203/42 48/204/31
f 73/205/48 51/195/49 49/206/48
f 49/206/42 52/194/25 50/203/42
f 142/207/45 139/208/46 140/196/46
f 57/209/50 87/187/51 55/210/51
f 95/211/31 83/212/47 81/181/31
f 72/213/52 49/206/48 71/202/52
f 68/214/53 65/215/54 58/199/54
f 69/216/55 68/214/53 56/217/55
f 62/218/56 72/213/52 71/202/52
f 62/218/56 65/215/54 67/219/56
f 54/193/57 69/220/55 56/221/55
f 43/222/58 40/223/26 41/224/26
f 32/176/27 46/225/59 47/226/59
f 41/227/26 38/228/60 39/229/60
f 89/230/43 84/231/25 88/232/43
f 94/233/30 88/232/43 87/234/30
f 167/235/61 160/236/40 173/237/61
f 75/238/43 69/220/30 61/184/43
f 45/239/28 42/240/58 43/222/58
f 63/200/62 64/191/63 59/201/63
f 57/209/50 64/191/63 86/188/50
f 50/203/64 81/181/65 48/204/65
f 87/234/51 53/241/66 55/242/51
f 52/194/67 85/182/64 50/203/64
f 81/181/65 63/200/62 48/204/65
f 51/195/49 61/184/57 54/193/57
f 68/214/44 59/201/28 57/209/44
f 39/229/60 36/243/25 37/189/25
f 47/226/59 44/244/28 45/239/28
f 66/245/47 72/213/31 67/219/47
f 174/246/68 161/247/41 144/248/68
f 170/249/31 144/248/68 163/250/31
f 83/212/47 90/251/28 64/191/28
f 168/252/30 171/253/46 166/254/46
f 167/235/61 175/255/30 168/256/30
f 127/257/31 146/258/38 147/259/38
f 68/214/44 55/210/30 56/217/30
f 176/260/38 163/250/31 162/172/38
f 138/261/30 135/262/61 136/263/61
f 145/264/37 141/265/45 142/207/45
f 71/202/31 63/200/47 62/218/47
f 130/266/68 131/178/41 128/267/68
f 56/221/30 53/241/43 54/193/43
f 161/247/69 134/177/70 132/179/71
f 136/263/61 133/268/40 134/177/40
f 130/266/68 129/269/31 127/257/31
f 88/232/72 52/194/67 53/241/66
f 80/270/31 73/205/42 72/213/31
f 131/178/73 156/271/74 128/267/75
f 128/267/75 157/272/76 129/269/76
f 135/262/77 149/273/78 133/268/78
f 133/268/78 151/274/73 131/178/73
f 139/208/79 154/275/80 137/197/80
f 148/276/81 143/277/82 146/258/81
f 157/272/76 146/258/81 129/269/76
f 141/265/83 150/278/82 152/279/83
f 154/280/80 135/262/77 137/281/80
f 73/205/42 76/183/25 60/185/25
f 165/192/84 145/264/85 142/207/84
f 147/259/86 164/173/85 162/172/86
f 127/257/87 144/248/88 130/266/88
f 139/208/79 152/279/83 153/282/79
f 168/252/89 140/196/90 138/198/89
f 130/266/88 161/247/69 132/179/71
f 136/263/91 168/256/89 138/261/89
f 134/177/70 167/235/91 136/263/91
f 166/254/90 142/207/84 140/196/90
f 69/216/30 78/283/44 70/284/44
f 147/259/38 143/277/37 145/264/37
f 166/254/46 172/285/45 165/192/45
f 74/286/28 67/219/47 65/215/28
f 158/287/40 159/288/41 160/236/40
f 78/283/44 65/215/28 70/284/44
f 91/289/25 85/182/42 84/231/25
f 127/257/87 162/172/86 163/250/87
f 169/171/37 176/260/38 162/172/38
f 35/174/39 33/190/39 34/175/27
f 134/177/40 133/268/40 131/178/41
f 93/180/42 95/211/31 81/181/31
f 76/183/25 75/238/43 61/184/43
f 92/186/44 94/290/30 87/187/30
f 37/189/25 36/243/25 33/190/39
f 64/191/28 90/251/28 92/186/44
f 165/192/45 172/285/45 169/171/37
f 54/193/43 53/241/43 52/194/25
f 140/196/46 139/208/46 137/197/30
f 58/199/28 62/218/47 63/200/47
f 71/202/31 49/206/42 50/203/42
f 73/205/48 60/185/49 51/195/49
f 49/206/42 51/195/25 52/194/25
f 142/207/45 141/265/45 139/208/46
f 57/209/50 86/188/50 87/187/51
f 95/211/31 82/291/47 83/212/47
f 72/213/52 73/205/48 49/206/48
f 68/214/53 70/284/53 65/215/54
f 69/216/55 70/284/53 68/214/53
f 62/218/56 67/219/56 72/213/52
f 62/218/56 58/199/54 65/215/54
f 54/193/57 61/184/57 69/220/55
f 43/222/58 42/240/58 40/223/26
f 32/176/27 34/175/27 46/225/59
f 41/227/26 40/292/26 38/228/60
f 89/230/43 91/289/25 84/231/25
f 94/233/30 89/230/43 88/232/43
f 167/235/61 158/287/40 160/236/40
f 75/238/43 77/293/30 69/220/30
f 45/239/28 44/244/28 42/240/58
f 63/200/62 83/212/62 64/191/63
f 57/209/50 59/201/63 64/191/63
f 50/203/64 85/182/64 81/181/65
f 87/234/51 88/232/72 53/241/66
f 52/194/67 84/231/67 85/182/64
f 81/181/65 83/212/62 63/200/62
f 51/195/49 60/185/49 61/184/57
f 68/214/44 58/199/28 59/201/28
f 39/229/60 38/228/60 36/243/25
f 47/226/59 46/225/59 44/244/28
f 66/245/47 80/270/31 72/213/31
f 174/246/68 159/288/41 161/247/41
f 170/249/31 174/246/68 144/248/68
f 83/212/47 82/291/47 90/251/28
f 168/252/30 175/294/30 171/253/46
f 167/235/61 173/237/61 175/255/30
f 127/257/31 129/269/31 146/258/38
f 68/214/44 57/209/44 55/210/30
f 176/260/38 170/249/31 163/250/31
f 138/261/30 137/281/30 135/262/61
f 145/264/37 143/277/37 141/265/45
f 71/202/31 48/204/31 63/200/47
f 130/266/68 132/179/41 131/178/41
f 56/221/30 55/242/30 53/241/43
f 161/247/69 158/287/70 134/177/70
f 136/263/61 135/262/61 133/268/40
f 130/266/68 128/267/68 129/269/31
f 88/232/72 84/231/67 52/194/67
f 80/270/31 79/295/42 73/205/42
f 131/178/73 151/274/73 156/271/74
f 128/267/75 156/271/74 157/272/76
f 135/262/77 155/296/77 149/273/78
f 133/268/78 149/273/78 151/274/73
f 139/208/79 153/282/79 154/275/80
f 148/276/81 150/278/82 143/277/82
f 157/272/76 148/276/81 146/258/81
f 141/265/83 143/277/82 150/278/82
f 154/280/80 155/296/77 135/262/77
f 73/205/42 79/295/42 76/183/25
f 165/192/84 164/173/85 145/264/85
f 147/259/86 145/264/85 164/173/85
f 127/257/87 163/250/87 144/248/88
f 139/208/79 141/265/83 152/279/83
f 168/252/89 166/254/90 140/196/90
f 130/266/88 144/248/88 161/247/69
f 136/263/91 167/235/91 168/256/89
f 134/177/70 158/287/70 167/235/91
f 166/254/90 165/192/84 142/207/84
f 69/216/30 77/297/30 78/283/44
f 147/259/38 146/258/38 143/277/37
f 166/254/46 171/253/46 172/285/45
f 74/286/28 66/245/47 67/219/47
f 158/287/40 161/247/41 159/288/41
f 78/283/44 74/286/28 65/215/28
f 91/289/25 93/180/42 85/182/42
f 127/257/87 147/259/86 162/172/86
