# Blender v2.76 (sub 0) OBJ File: 'assembler_new_slider.blend'
# www.blender.org
o Cube.001_Cube
v -0.062500 1.312500 0.500000
v -0.062500 1.375000 0.500000
v -0.062500 1.312500 -0.500000
v -0.062500 1.375000 -0.500000
v 0.062500 1.312500 0.500000
v 0.062500 1.375000 0.500000
v 0.062500 1.312500 -0.500000
v 0.062500 1.375000 -0.500000
vt 1.000000 0.000000
vt 1.000000 0.062500
vt 0.000000 0.062500
vt 0.812500 0.437500
vt 0.812500 0.375000
vt 0.937500 0.375000
vt -0.000000 0.125000
vt 0.062500 0.437500
vt 0.062500 0.375000
vt 0.187500 0.375000
vt 1.000000 0.125000
vt 1.000000 0.250000
vt 0.000000 0.250000
vt 1.000000 0.375000
vt 0.000000 0.375000
vt 0.000000 0.000000
vt 0.937500 0.437500
vt 0.187500 0.437500
vn -1.000000 0.000000 0.000000
vn 0.000000 0.000000 -1.000000
vn 1.000000 0.000000 0.000000
vn 0.000000 0.000000 1.000000
vn 0.000000 -1.000000 0.000000
vn 0.000000 1.000000 0.000000
s off
f 4/1/1 3/2/1 1/3/1
f 8/4/2 7/5/2 3/6/2
f 6/7/3 5/3/3 7/2/3
f 2/8/4 1/9/4 5/10/4
f 3/11/5 7/12/5 5/13/5
f 8/12/6 4/14/6 2/15/6
f 2/16/1 4/1/1 1/3/1
f 4/17/2 8/4/2 3/6/2
f 8/11/3 6/7/3 7/2/3
f 6/18/4 2/8/4 5/10/4
f 1/7/5 3/11/5 5/13/5
f 6/13/6 8/12/6 2/15/6
