# Blender v2.76 (sub 0) OBJ File: 'blast_door_block.blend'
# www.blender.org
o Cube.003_Cube.004
v -0.500000 3.000000 0.500000
v -0.500000 4.000000 0.500000
v -0.500000 3.000000 -0.500000
v -0.500000 4.000000 -0.500000
v 0.500000 3.000000 0.500000
v 0.500000 4.000000 0.500000
v 0.500000 3.000000 -0.500000
v 0.500000 4.000000 -0.500000
v -0.375000 3.875000 -0.750000
v 0.375000 3.875000 -0.750000
v 0.375000 3.125000 -0.750000
v -0.375000 3.125000 -0.750000
v 0.375000 3.875000 0.750000
v -0.375000 3.875000 0.750000
v -0.375000 3.125000 0.750000
v 0.375000 3.125000 0.750000
v 0.300000 3.000000 0.500000
v 0.300000 3.000000 -0.500000
v -0.300000 3.000000 0.500000
v -0.300000 3.000000 -0.500000
vt 0.261012 0.256902
vt 0.022204 0.256902
vt 0.022204 0.018094
vt 0.499820 0.018094
vt 0.738628 0.018094
vt 0.738628 0.256902
vt 0.250367 0.613434
vt 0.090555 0.547258
vt 0.268124 0.547258
vt 0.499820 0.256902
vt 0.261012 0.018094
vt 0.268124 0.369689
vt 0.090555 0.369689
vt 0.060961 0.303513
vt 0.334300 0.340094
vt 0.971758 0.253591
vt 0.924331 0.253591
vt 0.924331 0.016455
vt 0.024379 0.576852
vt 0.438442 0.547258
vt 0.438442 0.369689
vt 0.616011 0.369689
vt 0.616011 0.547258
vt 0.645606 0.613434
vt 0.372266 0.576852
vt 0.786389 0.018094
vt 0.786389 0.256902
vt 0.682187 0.340094
vt 0.456199 0.303513
vt 0.598254 0.303513
vt 0.297719 0.613434
vt 0.108312 0.613434
vt 0.060960 0.613434
vt 0.297719 0.303513
vt 0.334300 0.576852
vt 0.971758 0.016455
vt 0.024379 0.340094
vt 0.408848 0.613434
vt 0.372266 0.340094
vt 0.682187 0.576852
vt 0.645606 0.303513
vt 0.408848 0.303513
vn -1.000000 0.000000 0.000000
vn 1.000000 0.000000 0.000000
vn 0.000000 -0.894400 -0.447200
vn 0.000000 1.000000 0.000000
vn 0.000000 0.000000 -1.000000
vn 0.000000 0.894400 -0.447200
vn 0.894400 0.000000 -0.447200
vn 0.000000 -1.000000 0.000000
vn -0.894400 0.000000 -0.447200
vn 0.000000 0.000000 1.000000
vn 0.000000 0.894400 0.447200
vn -0.894400 0.000000 0.447200
vn 0.894400 0.000000 0.447200
vn 0.000000 -0.894400 0.447200
s off
f 4/1/1 3/2/1 1/3/1
f 6/4/2 5/5/2 7/6/2
f 18/7/3 12/8/3 11/9/3
f 8/10/4 4/1/4 2/11/4
f 10/12/5 11/9/5 12/8/5
f 10/12/6 9/13/6 4/14/6
f 11/9/7 10/12/7 8/15/7
f 3/16/8 20/17/8 19/18/8
f 9/13/9 12/8/9 3/19/9
f 14/20/10 15/21/10 16/22/10
f 14/20/11 13/23/11 6/24/11
f 15/21/12 14/20/12 2/25/12
f 5/5/8 17/26/8 18/27/8
f 13/23/13 16/22/13 5/28/13
f 15/21/14 19/29/14 17/30/14
f 2/11/1 4/1/1 1/3/1
f 8/10/2 6/4/2 7/6/2
f 11/9/3 7/31/3 18/7/3
f 18/7/3 20/32/3 12/8/3
f 3/33/3 12/8/3 20/32/3
f 6/4/4 8/10/4 2/11/4
f 9/13/5 10/12/5 12/8/5
f 8/34/6 10/12/6 4/14/6
f 7/35/7 11/9/7 8/15/7
f 1/36/8 3/16/8 19/18/8
f 4/37/9 9/13/9 3/19/9
f 13/23/10 14/20/10 16/22/10
f 2/38/11 14/20/11 6/24/11
f 1/39/12 15/21/12 2/25/12
f 7/6/8 5/5/8 18/27/8
f 6/40/13 13/23/13 5/28/13
f 17/30/14 5/41/14 16/22/14
f 16/22/14 15/21/14 17/30/14
f 1/42/14 19/29/14 15/21/14
