# Blender v2.76 (sub 0) OBJ File: 'chemplant_new_spinner.blend'
# www.blender.org
o Cylinder
v 0.000000 0.875000 -0.062500
v 0.000000 2.937500 -0.062500
v 0.044194 0.875000 -0.044194
v 0.044194 2.937500 -0.044194
v 0.062500 0.875000 0.000000
v 0.062500 2.937500 0.000000
v 0.044194 0.875000 0.044194
v 0.044194 2.937500 0.044194
v -0.000000 0.875000 0.062500
v -0.000000 2.937500 0.062500
v -0.044194 0.875000 0.044194
v -0.044194 2.937500 0.044194
v -0.062500 0.875000 -0.000000
v -0.062500 2.937500 -0.000000
v -0.044194 0.875000 -0.044194
v -0.044194 2.937500 -0.044194
v 0.000000 0.875000 -0.437500
v 0.000000 2.875000 -0.437500
v 0.437500 0.875000 0.000000
v 0.437500 2.875000 0.000000
v -0.000000 0.875000 0.437500
v -0.000000 2.875000 0.437500
v -0.437500 0.875000 -0.000000
v -0.437500 2.875000 -0.000000
v 0.000000 0.875000 -0.062500
v 0.000000 2.875000 -0.062500
v 0.062500 0.875000 0.000000
v 0.062500 2.875000 0.000000
v -0.000000 0.875000 0.062500
v -0.000000 2.875000 0.062500
v -0.062500 0.875000 -0.000000
v -0.062500 2.875000 -0.000000
v 0.000000 0.875000 -0.437500
v 0.000000 2.875000 -0.437500
v 0.437500 0.875000 0.000000
v 0.437500 2.875000 0.000000
v -0.000000 0.875000 0.437500
v -0.000000 2.875000 0.437500
v -0.437500 0.875000 -0.000000
v -0.437500 2.875000 -0.000000
v 0.000000 0.875000 -0.062500
v 0.000000 2.875000 -0.062500
v 0.062500 0.875000 0.000000
v 0.062500 2.875000 0.000000
v -0.000000 0.875000 0.062500
v -0.000000 2.875000 0.062500
v -0.062500 0.875000 -0.000000
v -0.062500 2.875000 -0.000000
vt 0.166667 0.916667
vt 0.138889 0.916667
vt 0.138889 -0.000000
vt 0.111111 0.916667
vt 0.111111 -0.000000
vt 0.083333 0.916667
vt 0.083333 -0.000000
vt 0.055556 0.916667
vt 0.055556 -0.000000
vt 0.027778 0.916667
vt 0.027778 -0.000000
vt -0.000000 0.916667
vt -0.000000 -0.000000
vt -0.000000 0.944444
vt 0.027778 0.972222
vt 0.194444 0.916667
vt 0.166667 -0.000000
vt 0.222222 0.916667
vt 0.194444 -0.000000
vt 0.555556 0.888889
vt 0.555556 -0.000000
vt 0.722222 -0.000000
vt 0.388889 0.888889
vt 0.388889 -0.000000
vt 0.222222 0.888889
vt 0.222222 -0.000000
vt 0.888889 0.888889
vt 0.888889 0.000000
vt 0.055556 0.944444
vt 0.055556 0.972222
vt 0.000000 0.972222
vt 0.722222 0.888889
vn 0.382700 0.000000 -0.923900
vn 0.923900 0.000000 -0.382700
vn 0.923900 0.000000 0.382700
vn 0.382700 0.000000 0.923900
vn -0.382700 0.000000 0.923900
vn -0.923900 0.000000 0.382700
vn 0.000000 1.000000 -0.000000
vn -0.382700 0.000000 -0.923900
vn -0.923900 0.000000 -0.382700
vn 0.000000 0.000000 -1.000000
vn -1.000000 0.000000 -0.000000
vn -0.000000 0.000000 1.000000
vn 1.000000 0.000000 0.000000
s off
f 2/1/1 4/2/1 3/3/1
f 4/2/2 6/4/2 5/5/2
f 6/4/3 8/6/3 7/7/3
f 8/6/4 10/8/4 9/9/4
f 10/8/5 12/10/5 11/11/5
f 12/10/6 14/12/6 13/13/6
f 14/14/7 10/10/7 2/15/7
f 16/16/8 2/1/8 1/17/8
f 14/18/9 16/16/9 15/19/9
f 32/20/10 31/21/10 23/22/10
f 30/23/11 29/24/11 21/21/11
f 28/25/12 27/26/12 19/24/12
f 18/27/11 17/28/11 25/22/11
f 39/22/12 47/21/12 48/20/12
f 37/21/13 45/24/13 46/23/13
f 35/24/10 43/26/10 44/25/10
f 41/22/13 33/28/13 34/27/13
f 1/17/1 2/1/1 3/3/1
f 3/3/2 4/2/2 5/5/2
f 5/5/3 6/4/3 7/7/3
f 7/7/4 8/6/4 9/9/4
f 9/9/5 10/8/5 11/11/5
f 11/11/6 12/10/6 13/13/6
f 6/29/7 4/30/7 2/15/7
f 2/15/7 16/31/7 14/14/7
f 14/14/7 12/12/7 10/10/7
f 10/10/7 8/8/7 6/29/7
f 6/29/7 2/15/7 10/10/7
f 15/19/8 16/16/8 1/17/8
f 13/26/9 14/18/9 15/19/9
f 24/32/10 32/20/10 23/22/10
f 22/20/11 30/23/11 21/21/11
f 20/23/12 28/25/12 19/24/12
f 26/32/11 18/27/11 25/22/11
f 40/32/12 39/22/12 48/20/12
f 38/20/13 37/21/13 46/23/13
f 36/23/10 35/24/10 44/25/10
f 42/32/13 41/22/13 34/27/13
