# Blender v2.76 (sub 0) OBJ File: 'chemplant_new_piston.blend'
# www.blender.org
o Cube.001_Cube.004
v 0.375000 2.750000 -0.375000
v 0.375000 3.000000 -0.375000
v 0.375000 2.750000 -0.875000
v 0.375000 3.000000 -0.875000
v 0.875000 2.750000 -0.375000
v 0.875000 3.000000 -0.375000
v 0.875000 2.750000 -0.875000
v 0.875000 3.000000 -0.875000
v 0.500000 2.750000 -0.750000
v 0.500000 2.750000 -0.500000
v 0.750000 2.750000 -0.750000
v 0.750000 2.750000 -0.500000
v 0.500000 2.250000 -0.750000
v 0.500000 2.250000 -0.500000
v 0.750000 2.250000 -0.750000
v 0.750000 2.250000 -0.500000
vt 0.500000 0.125000
vt 0.500000 0.000000
vt 0.750000 0.000000
vt 0.250000 0.125000
vt 0.250000 0.000000
vt 0.000000 0.125000
vt 0.000000 0.000000
vt 0.750000 0.125000
vt 1.000000 0.000000
vt 0.500000 0.375000
vt 0.437500 0.312500
vt 0.437500 0.187500
vt 0.000000 0.375000
vt 0.625000 0.375000
vt 0.625000 0.125000
vt 0.312500 0.187500
vt 0.312500 0.312500
vt 0.250000 0.375000
vt 0.875000 0.375000
vt 0.875000 0.125000
vt 1.000000 0.125000
vt 0.750000 0.375000
vt 1.000000 0.375000
vn -1.000000 0.000000 0.000000
vn 0.000000 0.000000 -1.000000
vn 1.000000 0.000000 0.000000
vn 0.000000 0.000000 1.000000
vn 0.000000 -1.000000 0.000000
vn 0.000000 1.000000 0.000000
s off
f 4/1/1 3/2/1 1/3/1
f 8/4/2 7/5/2 3/2/2
f 6/6/3 5/7/3 7/5/3
f 2/8/4 1/3/4 5/9/4
f 7/10/5 11/11/5 9/12/5
f 8/13/6 4/6/6 2/4/6
f 10/14/4 14/15/4 16/8/4
f 1/4/5 10/16/5 12/17/5
f 5/18/5 12/17/5 11/11/5
f 3/1/5 9/12/5 10/16/5
f 11/19/2 15/20/2 13/21/2
f 12/22/3 16/8/3 15/20/3
f 9/10/1 13/1/1 14/15/1
f 2/8/1 4/1/1 1/3/1
f 4/1/2 8/4/2 3/2/2
f 8/4/3 6/6/3 7/5/3
f 6/21/4 2/8/4 5/9/4
f 3/1/5 7/10/5 9/12/5
f 6/18/6 8/13/6 2/4/6
f 12/22/4 10/14/4 16/8/4
f 5/18/5 1/4/5 12/17/5
f 7/10/5 5/18/5 11/11/5
f 1/4/5 3/1/5 10/16/5
f 9/23/2 11/19/2 13/21/2
f 11/19/3 12/22/3 15/20/3
f 10/14/1 9/10/1 14/15/1
