# Blender v2.76 (sub 0) OBJ File: 'LilBoy1.blend'
# www.blender.org
o Cylinder_Cylinder.002
v 1.061563 0.002500 0.108750
v 1.061563 0.002500 -0.108750
v 2.638438 0.002500 -0.108750
v 2.638438 0.002500 0.108750
v 1.061563 0.147500 0.108750
v 1.061563 0.147500 -0.108750
v 2.638438 0.147500 -0.108750
v 2.638438 0.147500 0.108750
v 1.050000 0.424999 -0.350000
v 1.050000 0.291060 -0.323358
v 1.050000 0.177512 -0.247487
v 1.050000 0.101642 -0.133939
v 1.050000 0.074999 0.000000
v 1.050000 0.101642 0.133939
v 1.050000 0.177512 0.247487
v 1.050000 0.291060 0.323358
v 1.050000 0.424999 0.350000
v 1.050000 0.558939 0.323358
v 1.050000 0.672487 0.247487
v 1.050000 0.748357 0.133939
v 1.050000 0.774999 -0.000000
v 1.050000 0.748357 -0.133939
v 1.050000 0.672487 -0.247487
v 1.050000 0.558938 -0.323358
v -0.350000 0.424999 -0.150000
v -0.350000 0.367597 -0.138582
v -0.350000 0.318933 -0.106066
v -0.350000 0.286417 -0.057403
v -0.350000 0.274999 0.000000
v -0.350000 0.286417 0.057403
v -0.350000 0.318933 0.106066
v -0.350000 0.367597 0.138582
v -0.350000 0.424999 0.150000
v -0.350000 0.482402 0.138582
v -0.350000 0.531065 0.106066
v -0.350000 0.563581 0.057403
v -0.350000 0.574999 -0.000000
v -0.350000 0.563581 -0.057403
v -0.350000 0.531065 -0.106066
v -0.350000 0.482402 -0.138582
v -0.350000 0.100000 -0.325000
v 0.350000 0.100000 -0.325000
v -0.350000 0.000000 0.425000
v 0.350000 0.000000 0.425000
v -0.350000 0.850000 0.425000
v 0.350000 0.850000 0.425000
v -0.350000 0.000000 -0.425000
v 0.350000 0.000000 -0.425000
v -0.350000 0.850000 -0.425000
v 0.350000 0.850000 -0.425000
v -0.350000 0.750000 0.000000
v 0.350000 0.750000 0.000000
v -0.350000 0.100000 0.000000
v 0.350000 0.100000 0.000000
v 0.350000 0.425000 0.325000
v -0.350000 0.425000 0.325000
v 0.350000 0.425000 -0.325000
v -0.350000 0.425000 -0.325000
v 0.350000 0.425000 -0.150000
v 0.350000 0.367598 -0.138582
v 0.350000 0.318934 -0.106066
v 0.350000 0.286418 -0.057403
v 0.350000 0.275000 0.000000
v 0.350000 0.286418 0.057403
v 0.350000 0.318934 0.106066
v 0.350000 0.367598 0.138582
v 0.350000 0.425000 0.150000
v 0.350000 0.482403 0.138582
v 0.350000 0.531066 0.106066
v 0.350000 0.563582 0.057403
v 0.350000 0.575000 -0.000000
v 0.350000 0.563582 -0.057403
v 0.350000 0.531066 -0.106066
v 0.350000 0.482403 -0.138582
v 2.850000 0.425000 -0.175000
v 2.850000 0.491970 -0.161679
v 2.850000 0.548744 -0.123744
v 2.850000 0.586679 -0.066970
v 2.850000 0.600000 0.000000
v 2.850000 0.586679 0.066970
v 2.850000 0.548744 0.123744
v 2.850000 0.491970 0.161679
v 2.850000 0.425000 0.175000
v 2.850000 0.358031 0.161679
v 2.850000 0.301256 0.123744
v 2.850000 0.263321 0.066970
v 2.850000 0.250000 -0.000000
v 2.850000 0.263321 -0.066970
v 2.850000 0.301256 -0.123744
v 2.850000 0.358031 -0.161679
v 2.675000 0.425001 -0.350000
v 2.675000 0.291062 -0.323358
v 2.675000 0.177513 -0.247487
v 2.675000 0.101643 -0.133939
v 2.675000 0.075001 0.000000
v 2.675000 0.101643 0.133939
v 2.675000 0.177513 0.247487
v 2.675000 0.291062 0.323358
v 2.675000 0.425001 0.350000
v 2.675000 0.558940 0.323358
v 2.675000 0.672488 0.247487
v 2.675000 0.748359 0.133939
v 2.675000 0.775001 -0.000000
v 2.675000 0.748359 -0.133939
v 2.675000 0.672488 -0.247487
v 2.675000 0.558940 -0.323358
v 2.125000 0.036091 0.388909
v 2.375000 0.036091 0.388909
v 2.125000 0.212868 0.212132
v 2.375000 0.212868 0.212132
v 2.125000 0.637132 -0.212132
v 2.375000 0.637132 -0.212132
v 2.125000 0.813909 -0.388909
v 2.375000 0.813909 -0.388909
v 2.125000 0.036091 -0.388909
v 2.375000 0.036091 -0.388909
v 2.125000 0.212868 -0.212132
v 2.375000 0.212868 -0.212132
v 2.125000 0.637132 0.212132
v 2.375000 0.637132 0.212132
v 2.125000 0.813909 0.388909
v 2.375000 0.813909 0.388909
v -0.350000 0.424999 -0.150000
v 0.350000 0.425000 -0.325000
v -0.350000 0.425000 -0.325000
v 0.350000 0.425000 -0.150000
v -0.350000 0.274999 0.000000
v -0.350000 0.100000 0.000000
v 0.350000 0.100000 0.000000
v 0.350000 0.275000 0.000000
v -0.350000 0.424999 0.150000
v 0.350000 0.425000 0.325000
v -0.350000 0.425000 0.325000
v 0.350000 0.425000 0.150000
v -0.350000 0.574999 -0.000000
v -0.350000 0.750000 0.000000
v 0.350000 0.750000 0.000000
v 0.350000 0.575000 -0.000000
v -0.350000 0.531065 -0.106066
v 0.350000 0.531066 -0.106066
v -0.350000 0.750000 -0.325000
v 0.350000 0.750000 -0.325000
v -0.350000 0.531065 0.106066
v 0.350000 0.531066 0.106066
v -0.350000 0.750000 0.325000
v 0.350000 0.750000 0.325000
v -0.350000 0.318933 0.106066
v 0.350000 0.318934 0.106066
v -0.350000 0.100000 0.325000
v 0.350000 0.100000 0.325000
v -0.350000 0.318933 -0.106066
v -0.350000 0.100000 -0.325000
v 0.350000 0.100000 -0.325000
v 0.350000 0.318934 -0.106066
v -0.350000 0.750000 -0.325000
v 0.350000 0.750000 -0.325000
v -0.350000 0.750000 0.325000
v 0.350000 0.750000 0.325000
v -0.350000 0.100000 0.325000
v 0.350000 0.100000 0.325000
v 2.125000 0.036091 0.388909
v 2.375000 0.036091 0.388909
v 2.125000 0.212868 0.212132
v 2.375000 0.212868 0.212132
v 2.125000 0.637132 -0.212132
v 2.375000 0.637132 -0.212132
v 2.125000 0.813909 -0.388909
v 2.375000 0.813909 -0.388909
v 2.125000 0.036091 -0.388909
v 2.375000 0.036091 -0.388909
v 2.125000 0.212868 -0.212132
v 2.375000 0.212868 -0.212132
v 2.125000 0.637132 0.212132
v 2.375000 0.637132 0.212132
v 2.125000 0.813909 0.388909
v 2.375000 0.813909 0.388909
v -0.350000 0.424999 -0.150000
v 0.350000 0.425000 -0.325000
v -0.350000 0.425000 -0.325000
v 0.350000 0.425000 -0.150000
v -0.350000 0.274999 0.000000
v -0.350000 0.100000 0.000000
v 0.350000 0.100000 0.000000
v 0.350000 0.275000 0.000000
v -0.350000 0.424999 0.150000
v 0.350000 0.425000 0.325000
v -0.350000 0.425000 0.325000
v 0.350000 0.425000 0.150000
v -0.350000 0.574999 -0.000000
v -0.350000 0.750000 0.000000
v 0.350000 0.750000 0.000000
v 0.350000 0.575000 -0.000000
v -0.350000 0.531065 -0.106066
v 0.350000 0.531066 -0.106066
v -0.350000 0.750000 -0.325000
v 0.350000 0.750000 -0.325000
v -0.350000 0.531065 0.106066
v 0.350000 0.531066 0.106066
v -0.350000 0.750000 0.325000
v 0.350000 0.750000 0.325000
v -0.350000 0.318933 0.106066
v 0.350000 0.318934 0.106066
v -0.350000 0.100000 0.325000
v 0.350000 0.100000 0.325000
v -0.350000 0.318933 -0.106066
v -0.350000 0.100000 -0.325000
v 0.350000 0.100000 -0.325000
v 0.350000 0.318934 -0.106066
vt 0.630435 0.607143
vt 0.652174 0.607143
vt 0.652174 0.678571
vt 0.913043 0.571429
vt 0.913043 0.607143
vt 0.934783 0.678571
vt 0.913043 0.678571
vt 0.652174 0.714286
vt 0.622155 0.607621
vt 0.608405 0.664969
vt 0.573497 0.642379
vt 0.130435 0.857143
vt -0.000000 0.857143
vt -0.000000 0.750000
vt 0.282609 0.500000
vt 0.282609 0.250000
vt 0.413043 0.250000
vt 0.282609 0.750000
vt 0.413043 0.750000
vt 0.413043 1.000000
vt 0.130435 0.107143
vt 0.000000 0.107143
vt 0.000000 0.000000
vt 0.543478 0.214286
vt 0.543478 0.232143
vt 0.413043 0.232143
vt 0.543478 0.250000
vt 0.543478 0.267857
vt 0.413043 0.267857
vt 0.543478 0.285714
vt 0.413043 0.285714
vt 0.543478 -0.000000
vt 0.543478 0.017857
vt 0.413043 0.017857
vt 0.543478 0.035714
vt 0.413043 0.035714
vt 0.543478 0.053571
vt 0.543478 0.071429
vt 0.413043 0.071429
vt 0.543478 0.089286
vt 0.413043 0.089286
vt 0.543478 0.107143
vt 0.413043 0.107143
vt 0.543478 0.125000
vt 0.543478 0.142857
vt 0.413043 0.142857
vt 0.543478 0.160714
vt 0.413043 0.160714
vt 0.543478 0.178571
vt 0.413043 0.178571
vt 0.543478 0.196429
vt 0.413043 0.214286
vt 0.413043 0.196429
vt 0.673913 0.250000
vt 0.673913 0.285714
vt 0.673913 0.214286
vt 0.673913 0.178571
vt 0.673913 0.142857
vt 0.673913 0.107143
vt 0.673913 0.071429
vt 0.673913 0.035714
vt 0.673913 0.535714
vt 0.673913 0.571429
vt 0.543478 0.571429
vt 0.673913 0.500000
vt 0.543478 0.535714
vt 0.673913 0.464286
vt 0.543478 0.500000
vt 0.673913 0.428571
vt 0.543478 0.464286
vt 0.673913 0.392857
vt 0.543478 0.428571
vt 0.673913 0.357143
vt 0.543478 0.392857
vt 0.673913 0.321429
vt 0.543478 0.357143
vt 0.543478 0.321429
vt 0.282609 -0.000000
vt 0.413043 -0.000000
vt 0.937764 0.625000
vt 0.967391 0.576327
vt 0.997018 0.625000
vt 0.478261 0.285714
vt 0.413043 0.392857
vt 1.000000 0.285714
vt 0.956522 0.285714
vt 0.956522 0.250000
vt 1.000000 0.303571
vt 1.000000 0.321429
vt 0.956522 0.321429
vt 1.000000 0.357143
vt 0.956522 0.357143
vt 1.000000 0.375000
vt 1.000000 0.392857
vt 0.956522 0.392857
vt 1.000000 0.410714
vt 1.000000 0.428571
vt 0.956522 0.428571
vt 1.000000 0.446429
vt 1.000000 0.464286
vt 0.956522 0.464286
vt 1.000000 0.500000
vt 0.956522 0.500000
vt 1.000000 0.517857
vt 1.000000 0.535714
vt 0.956522 0.535714
vt 1.000000 0.571429
vt 0.956522 0.571429
vt 1.000000 0.035714
vt 0.956522 0.035714
vt 0.956522 0.000000
vt 1.000000 0.071429
vt 0.956522 0.071429
vt 1.000000 0.107143
vt 0.956522 0.107143
vt 1.000000 0.142857
vt 0.956522 0.142857
vt 1.000000 0.178571
vt 0.956522 0.178571
vt 1.000000 0.214286
vt 0.956522 0.214286
vt 1.000000 0.250000
vt 0.478261 0.392857
vt 0.141304 0.500000
vt 0.271739 0.500000
vt 0.271739 0.607143
vt 0.141304 0.607143
vt 0.130435 0.214286
vt 0.000000 0.214286
vt 0.000000 0.321429
vt 0.130435 0.428571
vt 0.000000 0.428571
vt 0.130435 0.535714
vt 0.130435 0.642857
vt -0.000000 0.642857
vt 0.130435 0.750000
vt 0.206522 0.214286
vt 0.260870 0.214286
vt 0.260870 0.125000
vt 0.260870 0.035714
vt 0.152174 0.125000
vt 0.152174 0.214286
vt 0.130435 0.250000
vt 0.206522 0.035714
vt 0.206522 0.285714
vt 0.152174 0.285714
vt 0.152174 0.375000
vt 0.152174 0.464286
vt 0.130435 0.500000
vt 0.206522 0.464286
vt 0.260870 0.375000
vt 0.630435 0.678571
vt 0.652174 0.571429
vt 0.934783 0.607143
vt 0.913043 0.714286
vt 0.571301 0.625761
vt 0.573143 0.609026
vt 0.578743 0.594724
vt 0.587248 0.585031
vt 0.597363 0.581423
vt 0.607549 0.584449
vt 0.616255 0.593649
vt 0.624351 0.624239
vt 0.622509 0.640974
vt 0.616910 0.655276
vt 0.598289 0.668577
vt 0.588103 0.665551
vt 0.579397 0.656351
vt 0.413043 0.500000
vt 0.282609 1.000000
vt 0.130435 0.000000
vt 0.413043 0.053571
vt 0.413043 0.125000
vt 0.673913 -0.000000
vt 0.543478 0.553571
vt 0.543478 0.517857
vt 0.543478 0.482143
vt 0.543478 0.446429
vt 0.543478 0.410714
vt 0.543478 0.375000
vt 0.543478 0.339286
vt 0.543478 0.303571
vt 0.994763 0.643627
vt 0.988341 0.659417
vt 0.978729 0.669968
vt 0.967391 0.673673
vt 0.956053 0.669968
vt 0.946442 0.659417
vt 0.940019 0.643626
vt 0.940019 0.606374
vt 0.946442 0.590583
vt 0.956053 0.580032
vt 0.978729 0.580032
vt 0.988341 0.590583
vt 0.994763 0.606374
vt 1.000000 0.267857
vt 1.000000 0.339286
vt 1.000000 0.482143
vt 1.000000 0.553571
vt 1.000000 0.017857
vt 1.000000 0.053571
vt 1.000000 0.089286
vt 1.000000 0.125000
vt 1.000000 0.160714
vt 1.000000 0.196429
vt 1.000000 0.232143
vt 0.130435 0.321429
vt -0.000000 0.535714
vt 0.152174 0.035714
vt 0.260870 0.285714
vt 0.260870 0.464286
vn -1.000000 0.000000 0.000000
vn 0.000000 0.000000 -1.000000
vn 1.000000 0.000000 0.000000
vn 0.000000 0.000000 1.000000
vn 0.000000 -1.000000 0.000000
vn 0.000000 1.000000 0.000000
vn 0.000000 -0.195100 -0.980800
vn 0.000000 -0.555600 -0.831500
vn 0.000000 -0.831500 -0.555600
vn 0.000000 -0.980800 -0.195100
vn 0.000000 -0.980800 0.195100
vn 0.000000 -0.831500 0.555600
vn 0.000000 -0.555600 0.831500
vn 0.000000 -0.195100 0.980800
vn -0.000000 0.195100 0.980800
vn -0.000000 0.555600 0.831500
vn -0.000000 0.831500 0.555600
vn -0.000000 0.980800 0.195100
vn -0.000000 0.980800 -0.195100
vn -0.000000 0.831500 -0.555600
vn -0.000000 0.195100 -0.980800
vn -0.000000 0.555600 -0.831500
vn -0.269800 0.944400 0.187900
vn -0.269800 0.800600 0.535000
vn -0.269800 0.535000 0.800600
vn -0.269800 0.187900 0.944400
vn -0.269800 -0.187900 0.944400
vn -0.269800 -0.535000 0.800600
vn -0.269800 -0.800600 0.535000
vn -0.269800 -0.944400 0.187900
vn -0.269800 -0.944400 -0.187900
vn -0.269800 -0.800600 -0.535000
vn -0.269800 -0.535000 -0.800600
vn -0.269800 -0.187900 -0.944400
vn -0.269800 0.187900 -0.944400
vn -0.269800 0.535000 -0.800600
vn -0.269800 0.800600 -0.535000
vn -0.269800 0.944400 -0.187900
vn -0.000000 -0.707100 -0.707100
vn 0.700200 0.700200 0.139300
vn 0.700200 0.700200 -0.139300
vn 0.700200 0.593600 -0.396600
vn 0.700200 0.396600 -0.593600
vn 0.700200 0.139300 -0.700200
vn 0.700200 -0.139300 -0.700200
vn 0.700200 -0.396600 -0.593600
vn 0.700200 -0.593600 -0.396600
vn 0.700200 -0.700200 -0.139300
vn 0.700200 -0.700200 0.139300
vn 0.700200 -0.593600 0.396600
vn 0.700200 -0.396600 0.593600
vn 0.700200 -0.139300 0.700200
vn 0.700200 0.139300 0.700200
vn 0.700200 0.396600 0.593600
vn 0.700200 0.593600 0.396600
vn 0.000000 0.707100 0.707100
vn 0.000000 -0.707100 0.707100
vn -0.000000 0.707100 -0.707100
s off
f 6/1/1 2/2/1 1/3/1
f 7/4/2 3/5/2 2/2/2
f 8/6/3 4/7/3 3/5/3
f 5/8/4 1/3/4 4/7/4
f 2/2/5 3/5/5 4/7/5
f 32/9/1 36/10/1 40/11/1
f 42/12/6 41/13/6 53/14/6
f 45/15/4 43/16/4 44/17/4
f 49/18/2 50/19/2 48/20/2
f 50/19/6 49/18/6 45/15/6
f 57/21/4 58/22/4 41/23/4
f 59/24/7 60/25/7 26/26/7
f 60/25/8 61/27/8 27/17/8
f 61/27/9 62/28/9 28/29/9
f 62/28/10 63/30/10 29/31/10
f 63/32/11 64/33/11 30/34/11
f 30/34/12 64/33/12 65/35/12
f 31/36/13 65/35/13 66/37/13
f 66/37/14 67/38/14 33/39/14
f 67/38/15 68/40/15 34/41/15
f 34/41/16 68/40/16 69/42/16
f 35/43/17 69/42/17 70/44/17
f 70/44/18 71/45/18 37/46/18
f 71/45/19 72/47/19 38/48/19
f 72/47/20 73/49/20 39/50/20
f 74/51/21 59/24/21 25/52/21
f 73/49/22 74/51/22 40/53/22
f 70/28/23 20/54/23 21/55/23
f 19/56/24 20/54/24 70/27/24
f 19/56/25 69/24/25 68/51/25
f 18/57/26 68/49/26 67/47/26
f 17/58/27 67/45/27 66/44/27
f 16/59/28 66/42/28 65/40/28
f 15/60/29 65/38/29 64/37/29
f 14/61/30 64/35/30 63/33/30
f 12/62/31 13/63/31 63/64/31
f 11/65/32 12/62/32 62/66/32
f 10/67/33 11/65/33 61/68/33
f 9/69/34 10/67/34 60/70/34
f 24/71/35 9/69/35 59/72/35
f 23/73/36 24/71/36 74/74/36
f 22/75/37 23/73/37 73/76/37
f 21/55/38 22/75/38 72/77/38
f 47/78/5 48/79/5 44/17/5
f 83/80/3 87/81/3 75/82/3
f 163/83/39 164/31/39 162/84/39
f 79/85/40 103/86/40 102/87/40
f 79/88/41 78/89/41 104/90/41
f 77/91/42 105/92/42 104/90/42
f 77/93/43 76/94/43 106/95/43
f 76/96/44 75/97/44 91/98/44
f 75/99/45 90/100/45 92/101/45
f 89/102/46 93/103/46 92/101/46
f 89/104/47 88/105/47 94/106/47
f 87/107/48 95/108/48 94/106/48
f 86/109/49 96/110/49 95/111/49
f 85/112/50 97/113/50 96/110/50
f 84/114/51 98/115/51 97/113/51
f 83/116/52 99/117/52 98/115/52
f 82/118/53 100/119/53 99/117/53
f 81/120/54 101/121/54 100/119/54
f 80/122/55 102/87/55 101/121/55
f 99/117/15 100/119/15 18/57/15
f 98/115/14 99/117/14 17/58/14
f 97/113/13 98/115/13 16/59/13
f 96/110/12 97/113/12 15/60/12
f 95/111/11 96/110/11 14/61/11
f 13/63/10 12/62/10 94/106/10
f 103/86/19 104/90/19 22/75/19
f 104/90/20 105/92/20 23/73/20
f 105/92/22 106/95/22 24/71/22
f 106/95/21 91/98/21 9/69/21
f 91/98/7 92/101/7 10/67/7
f 93/103/9 94/106/9 12/62/9
f 92/101/8 93/103/8 11/65/8
f 100/119/16 101/121/16 19/56/16
f 101/121/17 102/87/17 20/54/17
f 102/87/18 103/86/18 21/55/18
f 108/84/56 110/31/56 109/83/56
f 112/83/56 114/123/56 113/84/56
f 116/84/57 118/31/57 117/83/57
f 120/83/57 122/123/57 121/84/57
f 123/124/6 126/125/6 124/126/6
f 127/125/4 128/126/4 129/127/4
f 133/126/6 132/127/6 134/124/6
f 138/125/4 137/126/4 136/127/4
f 141/126/39 142/127/39 140/124/39
f 145/126/58 146/127/58 144/124/58
f 147/125/56 149/126/56 150/127/56
f 151/125/57 152/126/57 153/127/57
f 124/125/39 129/126/39 128/127/39
f 133/125/57 128/126/57 129/127/57
f 136/126/58 137/127/58 124/124/58
f 133/124/56 132/125/56 137/126/56
f 57/21/4 156/128/4 155/129/4
f 51/130/5 155/129/5 156/128/5
f 158/131/5 157/132/5 51/130/5
f 157/132/2 158/131/2 55/133/2
f 55/133/2 160/134/2 159/135/2
f 159/135/6 160/134/6 54/136/6
f 51/137/1 157/138/1 45/16/1
f 56/139/1 159/140/1 43/78/1
f 58/141/1 155/142/1 49/143/1
f 43/78/1 159/140/1 53/144/1
f 54/145/3 160/146/3 44/143/3
f 55/147/3 158/148/3 46/149/3
f 46/149/3 52/150/3 50/15/3
f 50/15/3 57/151/3 48/16/3
f 167/84/39 168/123/39 166/83/39
f 169/123/58 171/83/58 172/31/58
f 175/84/58 176/123/58 174/83/58
f 178/126/5 180/125/5 177/124/5
f 181/125/2 184/124/2 183/127/2
f 188/124/5 186/127/5 187/126/5
f 190/127/2 191/126/2 192/125/2
f 194/124/56 196/127/56 195/126/56
f 198/124/57 200/127/57 199/126/57
f 201/125/39 202/124/39 204/127/39
f 205/125/58 208/124/58 207/127/58
f 182/127/56 183/126/56 178/125/56
f 183/127/58 182/126/58 187/125/58
f 178/124/57 191/127/57 190/126/57
f 190/127/39 191/126/39 186/125/39
f 5/152/1 6/1/1 1/3/1
f 6/153/2 7/4/2 2/2/2
f 7/154/3 8/6/3 3/5/3
f 8/155/4 5/8/4 4/7/4
f 1/3/5 2/2/5 4/7/5
f 40/11/1 25/156/1 26/157/1
f 26/157/1 27/158/1 28/159/1
f 28/159/1 29/160/1 30/161/1
f 30/161/1 31/162/1 28/159/1
f 32/9/1 33/163/1 36/10/1
f 34/164/1 35/165/1 36/10/1
f 36/10/1 37/166/1 40/11/1
f 38/167/1 39/168/1 40/11/1
f 40/11/1 26/157/1 32/9/1
f 28/159/1 31/162/1 32/9/1
f 33/163/1 34/164/1 36/10/1
f 37/166/1 38/167/1 40/11/1
f 26/157/1 28/159/1 32/9/1
f 54/136/6 42/12/6 53/14/6
f 46/169/4 45/15/4 44/17/4
f 47/170/2 49/18/2 48/20/2
f 46/169/6 50/19/6 45/15/6
f 42/171/4 57/21/4 41/23/4
f 25/52/7 59/24/7 26/26/7
f 26/26/8 60/25/8 27/17/8
f 27/17/9 61/27/9 28/29/9
f 28/29/10 62/28/10 29/31/10
f 29/79/11 63/32/11 30/34/11
f 31/36/12 30/34/12 65/35/12
f 32/172/13 31/36/13 66/37/13
f 32/172/14 66/37/14 33/39/14
f 33/39/15 67/38/15 34/41/15
f 35/43/16 34/41/16 69/42/16
f 36/173/17 35/43/17 70/44/17
f 36/173/18 70/44/18 37/46/18
f 37/46/19 71/45/19 38/48/19
f 38/48/20 72/47/20 39/50/20
f 40/53/21 74/51/21 25/52/21
f 39/50/22 73/49/22 40/53/22
f 71/30/23 70/28/23 21/55/23
f 69/25/24 19/56/24 70/27/24
f 18/57/25 19/56/25 68/51/25
f 17/58/26 18/57/26 67/47/26
f 16/59/27 17/58/27 66/44/27
f 15/60/28 16/59/28 65/40/28
f 14/61/29 15/60/29 64/37/29
f 13/174/30 14/61/30 63/33/30
f 62/175/31 12/62/31 63/64/31
f 61/176/32 11/65/32 62/66/32
f 60/177/33 10/67/33 61/68/33
f 59/178/34 9/69/34 60/70/34
f 74/179/35 24/71/35 59/72/35
f 73/180/36 23/73/36 74/74/36
f 72/181/37 22/75/37 73/76/37
f 71/182/38 21/55/38 72/77/38
f 43/16/5 47/78/5 44/17/5
f 75/82/3 76/183/3 77/184/3
f 77/184/3 78/185/3 79/186/3
f 79/186/3 80/187/3 81/188/3
f 81/188/3 82/189/3 83/80/3
f 83/80/3 84/190/3 87/81/3
f 85/191/3 86/192/3 87/81/3
f 87/81/3 88/193/3 89/194/3
f 89/194/3 90/195/3 87/81/3
f 75/82/3 77/184/3 79/186/3
f 79/186/3 81/188/3 83/80/3
f 84/190/3 85/191/3 87/81/3
f 87/81/3 90/195/3 75/82/3
f 75/82/3 79/186/3 83/80/3
f 161/123/39 163/83/39 162/84/39
f 80/196/40 79/85/40 102/87/40
f 103/86/41 79/88/41 104/90/41
f 78/197/42 77/91/42 104/90/42
f 105/92/43 77/93/43 106/95/43
f 106/95/44 76/96/44 91/98/44
f 91/98/45 75/99/45 92/101/45
f 90/198/46 89/102/46 92/101/46
f 93/103/47 89/104/47 94/106/47
f 88/199/48 87/107/48 94/106/48
f 87/200/49 86/109/49 95/111/49
f 86/201/50 85/112/50 96/110/50
f 85/202/51 84/114/51 97/113/51
f 84/203/52 83/116/52 98/115/52
f 83/204/53 82/118/53 99/117/53
f 82/205/54 81/120/54 100/119/54
f 81/206/55 80/122/55 101/121/55
f 17/58/15 99/117/15 18/57/15
f 16/59/14 98/115/14 17/58/14
f 15/60/13 97/113/13 16/59/13
f 14/61/12 96/110/12 15/60/12
f 13/174/11 95/111/11 14/61/11
f 95/108/10 13/63/10 94/106/10
f 21/55/19 103/86/19 22/75/19
f 22/75/20 104/90/20 23/73/20
f 23/73/22 105/92/22 24/71/22
f 24/71/21 106/95/21 9/69/21
f 9/69/7 91/98/7 10/67/7
f 11/65/9 93/103/9 12/62/9
f 10/67/8 92/101/8 11/65/8
f 18/57/16 100/119/16 19/56/16
f 19/56/17 101/121/17 20/54/17
f 20/54/18 102/87/18 21/55/18
f 107/123/56 108/84/56 109/83/56
f 111/31/56 112/83/56 113/84/56
f 115/123/57 116/84/57 117/83/57
f 119/31/57 120/83/57 121/84/57
f 125/127/6 123/124/6 124/126/6
f 130/124/4 127/125/4 129/127/4
f 131/125/6 133/126/6 134/124/6
f 135/124/4 138/125/4 136/127/4
f 139/125/39 141/126/39 140/124/39
f 143/125/58 145/126/58 144/124/58
f 148/124/56 147/125/56 150/127/56
f 154/124/57 151/125/57 153/127/57
f 125/124/39 124/125/39 128/127/39
f 132/124/57 133/125/57 129/127/57
f 125/125/58 136/126/58 124/124/58
f 136/127/56 133/124/56 137/126/56
f 58/22/4 57/21/4 155/129/4
f 52/207/5 51/130/5 156/128/5
f 52/207/5 158/131/5 51/130/5
f 56/208/2 157/132/2 55/133/2
f 56/208/2 55/133/2 159/135/2
f 53/14/6 159/135/6 54/136/6
f 45/16/1 49/143/1 51/137/1
f 155/142/1 51/137/1 49/143/1
f 43/78/1 45/16/1 56/139/1
f 157/138/1 56/139/1 45/16/1
f 49/143/1 47/171/1 58/141/1
f 41/209/1 58/141/1 47/171/1
f 53/144/1 41/209/1 47/171/1
f 47/171/1 43/78/1 53/144/1
f 44/143/3 48/16/3 54/145/3
f 42/210/3 54/145/3 48/16/3
f 46/149/3 44/143/3 55/147/3
f 160/146/3 55/147/3 44/143/3
f 156/211/3 50/15/3 52/150/3
f 46/149/3 158/148/3 52/150/3
f 42/210/3 48/16/3 57/151/3
f 50/15/3 156/211/3 57/151/3
f 165/31/39 167/84/39 166/83/39
f 170/84/58 169/123/58 172/31/58
f 173/31/58 175/84/58 174/83/58
f 179/127/5 178/126/5 177/124/5
f 182/126/2 181/125/2 183/127/2
f 185/125/5 188/124/5 187/126/5
f 189/124/2 190/127/2 192/125/2
f 193/125/56 194/124/56 195/126/56
f 197/125/57 198/124/57 199/126/57
f 203/126/39 201/125/39 204/127/39
f 206/126/58 205/125/58 207/127/58
f 179/124/56 182/127/56 178/125/56
f 186/124/58 183/127/58 187/125/58
f 179/125/57 178/124/57 190/126/57
f 187/124/39 190/127/39 186/125/39
