# Blender v2.76 (sub 0) OBJ File: 'mine_he.blend'
# www.blender.org
o Cylinder
v 0.000000 0.000000 -0.250000
v 0.000000 0.125000 -0.250000
v 0.125000 0.000000 -0.216506
v 0.125000 0.125000 -0.216506
v 0.216506 0.000000 -0.125000
v 0.216506 0.125000 -0.125000
v 0.250000 0.000000 0.000000
v 0.250000 0.125000 0.000000
v 0.216506 0.000000 0.125000
v 0.216506 0.125000 0.125000
v 0.125000 0.000000 0.216506
v 0.125000 0.125000 0.216506
v 0.000000 0.000000 0.250000
v 0.000000 0.125000 0.250000
v -0.125000 0.000000 0.216506
v -0.125000 0.125000 0.216506
v -0.216506 0.000000 0.125000
v -0.216506 0.125000 0.125000
v -0.250000 0.000000 0.000000
v -0.250000 0.125000 0.000000
v -0.216506 0.000000 -0.125000
v -0.216506 0.125000 -0.125000
v -0.125000 0.000000 -0.216506
v -0.125000 0.125000 -0.216506
v 0.100000 0.125000 -0.173205
v -0.000000 0.125000 -0.200000
v 0.173205 0.125000 -0.100000
v 0.200000 0.125000 0.000000
v 0.173205 0.125000 0.100000
v 0.100000 0.125000 0.173205
v 0.000000 0.125000 0.200000
v -0.100000 0.125000 0.173205
v -0.173205 0.125000 0.100000
v -0.200000 0.125000 0.000000
v -0.173205 0.125000 -0.100000
v -0.100000 0.125000 -0.173205
v 0.100000 0.110000 -0.173205
v -0.000000 0.110000 -0.200000
v 0.173205 0.110000 -0.100000
v 0.200000 0.110000 0.000000
v 0.173205 0.110000 0.100000
v 0.100000 0.110000 0.173205
v 0.000000 0.110000 0.200000
v -0.100000 0.110000 0.173205
v -0.173205 0.110000 0.100000
v -0.200000 0.110000 0.000000
v -0.173205 0.110000 -0.100000
v -0.100000 0.110000 -0.173205
v 0.070000 0.110000 -0.121244
v -0.000000 0.110000 -0.140000
v 0.121244 0.110000 -0.070000
v 0.140000 0.110000 0.000000
v 0.121244 0.110000 0.070000
v 0.070000 0.110000 0.121244
v 0.000000 0.110000 0.140000
v -0.070000 0.110000 0.121244
v -0.121244 0.110000 0.070000
v -0.140000 0.110000 0.000000
v -0.121244 0.110000 -0.070000
v -0.070000 0.110000 -0.121244
v 0.070000 0.125000 -0.121244
v -0.000000 0.125000 -0.140000
v 0.121244 0.125000 -0.070000
v 0.140000 0.125000 0.000000
v 0.121244 0.125000 0.070000
v 0.070000 0.125000 0.121244
v 0.000000 0.125000 0.140000
v -0.070000 0.125000 0.121244
v -0.121244 0.125000 0.070000
v -0.140000 0.125000 0.000000
v -0.121244 0.125000 -0.070000
v -0.070000 0.125000 -0.121244
v 0.035000 0.125000 -0.060622
v -0.000000 0.125000 -0.070000
v 0.060622 0.125000 -0.035000
v 0.070000 0.125000 0.000000
v 0.060622 0.125000 0.035000
v 0.035000 0.125000 0.060622
v 0.000000 0.125000 0.070000
v -0.035000 0.125000 0.060622
v -0.060622 0.125000 0.035000
v -0.070000 0.125000 0.000000
v -0.060622 0.125000 -0.035000
v -0.035000 0.125000 -0.060622
v 0.021000 0.150000 -0.036373
v -0.000000 0.150000 -0.042000
v 0.036373 0.150000 -0.021000
v 0.042000 0.150000 0.000000
v 0.036373 0.150000 0.021000
v 0.021000 0.150000 0.036373
v 0.000000 0.150000 0.042000
v -0.021000 0.150000 0.036373
v -0.036373 0.150000 0.021000
v -0.042000 0.150000 0.000000
v -0.036373 0.150000 -0.021000
v -0.021000 0.150000 -0.036373
vt 0.960752 0.210383
vt 0.779713 0.210383
vt 0.779713 0.035513
vt 0.942646 0.277949
vt 0.694075 0.517821
vt 0.018428 0.336781
vt 0.265732 0.089478
vt 0.942648 0.298932
vt 0.797817 0.298932
vt 0.797814 0.277947
vt 0.920923 0.380009
vt 0.819542 0.380009
vt 0.920923 0.400994
vt 0.819542 0.400994
vt 0.895578 0.495584
vt 0.844887 0.495584
vt 0.762072 0.729031
vt 0.791336 0.772633
vt 0.769830 0.794139
vt 0.761958 0.823517
vt 0.879471 0.823517
vt 0.850093 0.874402
vt 0.915201 0.764875
vt 0.871599 0.794139
vt 0.850093 0.772633
vt 0.879357 0.918004
vt 0.871599 0.852895
vt 0.709566 0.819974
vt 0.722685 0.771011
vt 0.873221 0.725488
vt 0.820715 0.764761
vt 0.931864 0.827060
vt 0.918744 0.876024
vt 0.709566 0.827060
vt 0.769830 0.852895
vt 0.768208 0.921547
vt 0.791336 0.874402
vt 0.820715 0.882274
vt 0.817172 0.712368
vt 0.918744 0.771011
vt 0.931864 0.819974
vt 0.762072 0.918004
vt 0.726228 0.882160
vt 0.824257 0.934666
vt 0.960752 0.035512
vt 0.446771 0.089478
vt 0.603555 0.179997
vt 0.694075 0.336782
vt 0.603555 0.674605
vt 0.446771 0.765124
vt 0.265732 0.765124
vt 0.108948 0.674605
vt 0.018428 0.517820
vt 0.108948 0.179997
vt 0.726228 0.764875
vt 0.879357 0.729031
vt 0.915201 0.882160
vt 0.824257 0.712368
vt 0.722685 0.876024
vt 0.817172 0.934666
vt 0.768208 0.725488
vt 0.873221 0.921547
vn 0.258800 0.000000 -0.965900
vn 0.707100 0.000000 -0.707100
vn 0.965900 0.000000 -0.258800
vn 0.965900 0.000000 0.258800
vn 0.707100 0.000000 0.707100
vn 0.258800 0.000000 0.965900
vn -0.258800 0.000000 0.965900
vn -0.707100 0.000000 0.707100
vn -0.965900 0.000000 0.258800
vn -0.965900 0.000000 -0.258800
vn 0.000000 1.000000 0.000000
vn -0.258800 0.000000 -0.965900
vn -0.707100 0.000000 -0.707100
vn 0.000000 -1.000000 0.000000
vn -0.655700 0.734300 0.175700
vn 0.175700 0.734300 0.655700
vn 0.655700 0.734300 -0.175700
vn -0.655700 0.734300 -0.175700
vn -0.175700 0.734300 0.655700
vn 0.655700 0.734300 0.175700
vn -0.480000 0.734300 -0.480000
vn 0.175700 0.734300 -0.655700
vn -0.480000 0.734300 0.480000
vn 0.480000 0.734300 0.480000
vn -0.175700 0.734300 -0.655700
vn 0.480000 0.734300 -0.480000
s off
f 2/1/1 4/2/1 3/3/1
f 4/1/2 6/2/2 5/3/2
f 6/1/3 8/2/3 7/3/3
f 8/1/4 10/2/4 9/3/4
f 10/1/5 12/2/5 11/3/5
f 12/1/6 14/2/6 13/3/6
f 14/1/7 16/2/7 15/3/7
f 16/1/8 18/2/8 17/3/8
f 18/1/9 20/2/9 19/3/9
f 20/1/10 22/2/10 21/3/10
f 10/2/11 8/1/11 28/4/11
f 24/1/12 2/2/12 1/3/12
f 22/1/13 24/2/13 23/3/13
f 7/5/14 19/6/14 23/7/14
f 27/4/9 39/8/9 40/9/9
f 24/1/11 36/4/11 26/10/11
f 2/1/11 26/4/11 25/10/11
f 8/2/11 6/1/11 27/4/11
f 22/1/11 35/4/11 36/10/11
f 4/1/11 25/4/11 27/10/11
f 20/1/11 34/4/11 35/10/11
f 18/1/11 33/4/11 34/10/11
f 16/1/11 32/4/11 33/10/11
f 14/1/11 31/4/11 32/10/11
f 14/2/11 12/1/11 30/4/11
f 12/2/11 10/1/11 29/4/11
f 39/8/11 51/11/11 52/12/11
f 34/4/4 46/8/4 47/9/4
f 31/4/1 43/8/1 44/9/1
f 28/4/10 40/8/10 41/9/10
f 35/4/5 47/8/5 48/9/5
f 26/4/7 38/8/7 37/9/7
f 32/4/2 44/8/2 45/9/2
f 29/4/13 41/8/13 42/9/13
f 36/4/6 48/8/6 38/9/6
f 25/4/8 37/8/8 39/9/8
f 33/4/3 45/8/3 46/9/3
f 30/4/12 42/8/12 43/9/12
f 54/11/6 66/13/6 67/14/6
f 46/8/11 58/11/11 59/12/11
f 43/8/11 55/11/11 56/12/11
f 40/8/11 52/11/11 53/12/11
f 47/8/11 59/11/11 60/12/11
f 37/9/11 38/8/11 50/11/11
f 44/8/11 56/11/11 57/12/11
f 42/9/11 41/8/11 53/11/11
f 38/9/11 48/8/11 60/11/11
f 37/8/11 49/11/11 51/12/11
f 45/8/11 57/11/11 58/12/11
f 42/8/11 54/11/11 55/12/11
f 66/13/11 78/15/11 79/16/11
f 51/11/3 63/13/3 64/14/3
f 58/11/10 70/13/10 71/14/10
f 55/11/7 67/13/7 68/14/7
f 52/11/4 64/13/4 65/14/4
f 59/11/13 71/13/13 72/14/13
f 50/11/1 62/13/1 61/14/1
f 56/11/8 68/13/8 69/14/8
f 53/11/5 65/13/5 66/14/5
f 60/11/12 72/13/12 62/14/12
f 49/11/2 61/13/2 63/14/2
f 57/11/9 69/13/9 70/14/9
f 81/17/15 93/18/15 94/19/15
f 63/13/11 75/15/11 76/16/11
f 70/13/11 82/15/11 83/16/11
f 67/13/11 79/15/11 80/16/11
f 64/13/11 76/15/11 77/16/11
f 71/13/11 83/15/11 84/16/11
f 62/13/11 74/15/11 73/16/11
f 68/13/11 80/15/11 81/16/11
f 66/14/11 65/13/11 77/15/11
f 62/14/11 72/13/11 84/15/11
f 61/13/11 73/15/11 75/16/11
f 69/13/11 81/15/11 82/16/11
f 95/20/11 89/21/11 87/22/11
f 78/23/16 90/24/16 91/25/16
f 75/26/17 87/22/17 88/27/17
f 83/28/18 82/29/18 94/19/18
f 79/30/19 91/25/19 92/31/19
f 77/32/20 76/33/20 88/27/20
f 83/34/21 95/20/21 96/35/21
f 74/36/22 86/37/22 85/38/22
f 80/39/23 92/31/23 93/18/23
f 78/40/24 77/41/24 89/21/24
f 74/42/25 84/43/25 96/35/25
f 73/44/26 85/38/26 87/22/26
f 1/45/1 2/1/1 3/3/1
f 3/45/2 4/1/2 5/3/2
f 5/45/3 6/1/3 7/3/3
f 7/45/4 8/1/4 9/3/4
f 9/45/5 10/1/5 11/3/5
f 11/45/6 12/1/6 13/3/6
f 13/45/7 14/1/7 15/3/7
f 15/45/8 16/1/8 17/3/8
f 17/45/9 18/1/9 19/3/9
f 19/45/10 20/1/10 21/3/10
f 29/10/11 10/2/11 28/4/11
f 23/45/12 24/1/12 1/3/12
f 21/45/13 22/1/13 23/3/13
f 23/7/14 1/46/14 3/47/14
f 3/47/14 5/48/14 7/5/14
f 7/5/14 9/49/14 11/50/14
f 11/50/14 13/51/14 15/52/14
f 15/52/14 17/53/14 19/6/14
f 19/6/14 21/54/14 23/7/14
f 23/7/14 3/47/14 7/5/14
f 7/5/14 11/50/14 15/52/14
f 15/52/14 19/6/14 7/5/14
f 28/10/9 27/4/9 40/9/9
f 2/2/11 24/1/11 26/10/11
f 4/2/11 2/1/11 25/10/11
f 28/10/11 8/2/11 27/4/11
f 24/2/11 22/1/11 36/10/11
f 6/2/11 4/1/11 27/10/11
f 22/2/11 20/1/11 35/10/11
f 20/2/11 18/1/11 34/10/11
f 18/2/11 16/1/11 33/10/11
f 16/2/11 14/1/11 32/10/11
f 31/10/11 14/2/11 30/4/11
f 30/10/11 12/2/11 29/4/11
f 40/9/11 39/8/11 52/12/11
f 35/10/4 34/4/4 47/9/4
f 32/10/1 31/4/1 44/9/1
f 29/10/10 28/4/10 41/9/10
f 36/10/5 35/4/5 48/9/5
f 25/10/7 26/4/7 37/9/7
f 33/10/2 32/4/2 45/9/2
f 30/10/13 29/4/13 42/9/13
f 26/10/6 36/4/6 38/9/6
f 27/10/8 25/4/8 39/9/8
f 34/10/3 33/4/3 46/9/3
f 31/10/12 30/4/12 43/9/12
f 55/12/6 54/11/6 67/14/6
f 47/9/11 46/8/11 59/12/11
f 44/9/11 43/8/11 56/12/11
f 41/9/11 40/8/11 53/12/11
f 48/9/11 47/8/11 60/12/11
f 49/12/11 37/9/11 50/11/11
f 45/9/11 44/8/11 57/12/11
f 54/12/11 42/9/11 53/11/11
f 50/12/11 38/9/11 60/11/11
f 39/9/11 37/8/11 51/12/11
f 46/9/11 45/8/11 58/12/11
f 43/9/11 42/8/11 55/12/11
f 67/14/11 66/13/11 79/16/11
f 52/12/3 51/11/3 64/14/3
f 59/12/10 58/11/10 71/14/10
f 56/12/7 55/11/7 68/14/7
f 53/12/4 52/11/4 65/14/4
f 60/12/13 59/11/13 72/14/13
f 49/12/1 50/11/1 61/14/1
f 57/12/8 56/11/8 69/14/8
f 54/12/5 53/11/5 66/14/5
f 50/12/12 60/11/12 62/14/12
f 51/12/2 49/11/2 63/14/2
f 58/12/9 57/11/9 70/14/9
f 82/55/15 81/17/15 94/19/15
f 64/14/11 63/13/11 76/16/11
f 71/14/11 70/13/11 83/16/11
f 68/14/11 67/13/11 80/16/11
f 65/14/11 64/13/11 77/16/11
f 72/14/11 71/13/11 84/16/11
f 61/14/11 62/13/11 73/16/11
f 69/14/11 68/13/11 81/16/11
f 78/16/11 66/14/11 77/15/11
f 74/16/11 62/14/11 84/15/11
f 63/14/11 61/13/11 75/16/11
f 70/14/11 69/13/11 82/16/11
f 87/22/11 85/38/11 95/20/11
f 86/37/11 96/35/11 95/20/11
f 95/20/11 94/19/11 93/18/11
f 93/18/11 92/31/11 95/20/11
f 91/25/11 90/24/11 89/21/11
f 89/21/11 88/27/11 87/22/11
f 85/38/11 86/37/11 95/20/11
f 95/20/11 92/31/11 91/25/11
f 91/25/11 89/21/11 95/20/11
f 79/56/16 78/23/16 91/25/16
f 76/57/17 75/26/17 88/27/17
f 95/20/18 83/28/18 94/19/18
f 80/58/19 79/30/19 92/31/19
f 89/21/20 77/32/20 88/27/20
f 84/59/21 83/34/21 96/35/21
f 73/60/22 74/36/22 85/38/22
f 81/61/23 80/39/23 93/18/23
f 90/24/24 78/40/24 89/21/24
f 86/37/25 74/42/25 96/35/25
f 75/62/26 73/44/26 87/22/26
