# Blender v2.76 (sub 0) OBJ File: 'missileDoomsday.blend'
# www.blender.org
o Cylinder_Cylinder.002
v 0.000000 0.500000 -0.500000
v -0.000000 6.000000 -0.075000
v 0.250000 0.500000 -0.433013
v 0.037500 6.000000 -0.064952
v 0.433013 0.500000 -0.250000
v 0.064952 6.000000 -0.037500
v 0.500000 0.500000 0.000000
v 0.075000 6.000000 0.000000
v 0.433013 0.500000 0.250000
v 0.064952 6.000000 0.037500
v 0.250000 0.500000 0.433013
v 0.037500 6.000000 0.064952
v 0.000000 0.500000 0.500000
v 0.000000 6.000000 0.075000
v -0.250000 0.500000 0.433013
v -0.037500 6.000000 0.064952
v -0.433013 0.500000 0.250000
v -0.064952 6.000000 0.037500
v -0.500000 0.500000 0.000000
v -0.075000 6.000000 0.000000
v -0.433013 0.500000 -0.250000
v -0.064952 6.000000 -0.037500
v -0.250000 0.500000 -0.433013
v -0.037500 6.000000 -0.064952
v 0.000000 3.000000 -0.500000
v 0.250000 3.000000 -0.433013
v 0.433013 3.000000 -0.250000
v 0.500000 3.000000 0.000000
v 0.433013 3.000000 0.250000
v 0.250000 3.000000 0.433013
v 0.000000 3.000000 0.500000
v -0.250000 3.000000 0.433013
v -0.433013 3.000000 0.250000
v -0.500000 3.000000 0.000000
v -0.433013 3.000000 -0.250000
v -0.250000 3.000000 -0.433013
v 0.000000 4.500000 -0.500000
v 0.250000 4.500000 -0.433013
v 0.433013 4.500000 -0.250000
v 0.500000 4.500000 0.000000
v 0.433013 4.500000 0.250000
v 0.250000 4.500000 0.433013
v 0.000000 4.500000 0.500000
v -0.250000 4.500000 0.433013
v -0.433013 4.500000 0.250000
v -0.500000 4.500000 0.000000
v -0.433013 4.500000 -0.250000
v -0.250000 4.500000 -0.433013
v -0.000000 5.250000 -0.400000
v 0.200000 5.250000 -0.346410
v 0.346410 5.250000 -0.200000
v 0.400000 5.250000 0.000000
v 0.346410 5.250000 0.200000
v 0.200000 5.250000 0.346410
v 0.000000 5.250000 0.400000
v -0.200000 5.250000 0.346410
v -0.346410 5.250000 0.200000
v -0.400000 5.250000 0.000000
v -0.346410 5.250000 -0.200000
v -0.200000 5.250000 -0.346410
v -0.000000 5.825000 -0.250000
v 0.125000 5.825000 -0.216506
v 0.216506 5.825000 -0.125000
v 0.250000 5.825000 0.000000
v 0.216506 5.825000 0.125000
v 0.125000 5.825000 0.216506
v 0.000000 5.825000 0.250000
v -0.125000 5.825000 0.216506
v -0.216506 5.825000 0.125000
v -0.250000 5.825000 0.000000
v -0.216506 5.825000 -0.125000
v -0.125000 5.825000 -0.216506
v 0.250000 0.500000 -0.375000
v 0.161612 0.500000 -0.338388
v 0.125000 0.500000 -0.250000
v 0.161612 0.500000 -0.161612
v 0.250000 0.500000 -0.125000
v 0.338388 0.500000 -0.161612
v 0.375000 0.500000 -0.250000
v 0.338388 0.500000 -0.338388
v 0.073223 0.000000 -0.426777
v 0.250000 0.000000 -0.500000
v 0.000000 0.000000 -0.250000
v 0.073223 0.000000 -0.073223
v 0.250000 0.000000 0.000000
v 0.426777 0.000000 -0.073223
v 0.500000 0.000000 -0.250000
v 0.426777 0.000000 -0.426777
v -0.250000 0.500000 -0.375000
v -0.338388 0.500000 -0.338388
v -0.375000 0.500000 -0.250000
v -0.338388 0.500000 -0.161612
v -0.250000 0.500000 -0.125000
v -0.161612 0.500000 -0.161612
v -0.125000 0.500000 -0.250000
v -0.161612 0.500000 -0.338388
v -0.426777 0.000000 -0.426777
v -0.250000 0.000000 -0.500000
v -0.500000 0.000000 -0.250000
v -0.426777 0.000000 -0.073223
v -0.250000 0.000000 0.000000
v -0.073223 0.000000 -0.073223
v 0.000000 0.000000 -0.250000
v -0.073223 0.000000 -0.426777
v -0.250000 0.500000 0.125000
v -0.338388 0.500000 0.161612
v -0.375000 0.500000 0.250000
v -0.338388 0.500000 0.338388
v -0.250000 0.500000 0.375000
v -0.161612 0.500000 0.338388
v -0.125000 0.500000 0.250000
v -0.161612 0.500000 0.161612
v -0.426777 0.000000 0.073223
v -0.250000 0.000000 0.000000
v -0.500000 0.000000 0.250000
v -0.426777 0.000000 0.426777
v -0.250000 0.000000 0.500000
v -0.073223 0.000000 0.426777
v 0.000000 0.000000 0.250000
v -0.073223 0.000000 0.073223
v 0.250000 0.500000 0.125000
v 0.161612 0.500000 0.161612
v 0.125000 0.500000 0.250000
v 0.161612 0.500000 0.338388
v 0.250000 0.500000 0.375000
v 0.338388 0.500000 0.338388
v 0.375000 0.500000 0.250000
v 0.338388 0.500000 0.161612
v 0.073223 0.000000 0.073223
v 0.250000 0.000000 0.000000
v 0.000000 0.000000 0.250000
v 0.073223 0.000000 0.426777
v 0.250000 0.000000 0.500000
v 0.426777 0.000000 0.426777
v 0.500000 0.000000 0.250000
v 0.426777 0.000000 0.073223
v -0.000000 0.250000 -0.750000
v 0.750000 0.250000 -0.000000
v 0.000000 0.250000 0.750000
v -0.750000 0.250000 0.000000
v -0.000000 2.750000 -0.750000
v 0.750000 2.750000 -0.000000
v 0.000000 2.750000 0.750000
v -0.750000 2.750000 0.000000
vt 0.236482 0.807753
vt 0.229780 0.843753
vt 0.224036 0.843753
vt 0.198187 0.807753
vt 0.191485 0.843753
vt 0.185741 0.843753
vt 0.153190 0.843753
vt 0.147446 0.843753
vt 0.140744 0.807753
vt 0.121596 0.807753
vt 0.114895 0.843753
vt 0.109151 0.843753
vt 0.076600 0.843753
vt 0.070855 0.843753
vt 0.064154 0.807753
vt 0.038304 0.843753
vt 0.032560 0.843753
vt 0.025859 0.807752
vt 0.459551 0.843752
vt 0.453807 0.843753
vt 0.447105 0.807752
vt 0.421256 0.843752
vt 0.415512 0.843752
vt 0.408810 0.807752
vt 0.382961 0.843752
vt 0.377217 0.843752
vt 0.370515 0.807752
vt 0.351367 0.807752
vt 0.344666 0.843752
vt 0.338922 0.843752
vt 0.511269 0.605874
vt 0.516243 0.587308
vt 0.521988 0.608746
vt 0.268076 0.843752
vt 0.262331 0.843752
vt 0.255630 0.807752
vt 0.306371 0.843753
vt 0.300626 0.843753
vt 0.293925 0.807753
vt 0.800919 0.677915
vt 0.658000 0.639620
vt 0.710312 0.587308
vt 0.322645 0.386187
vt 0.284350 0.386187
vt 0.284350 0.016285
vt 0.246055 0.386187
vt 0.246055 0.016285
vt 0.360941 0.386187
vt 0.322645 0.016285
vt 0.399236 0.386187
vt 0.360940 0.016285
vt 0.437531 0.386187
vt 0.399235 0.016285
vt 0.475826 0.386187
vt 0.437529 0.016285
vt 0.054580 0.386187
vt 0.016285 0.386187
vt 0.016285 0.016286
vt 0.092875 0.386187
vt 0.054580 0.016286
vt 0.131170 0.386187
vt 0.092875 0.016286
vt 0.169465 0.386187
vt 0.131170 0.016286
vt 0.207760 0.386187
vt 0.169465 0.016286
vt 0.207760 0.016286
vt 0.322646 0.608128
vt 0.284351 0.608128
vt 0.246056 0.608128
vt 0.360941 0.608128
vt 0.399236 0.608128
vt 0.437531 0.608128
vt 0.475826 0.608128
vt 0.054580 0.608128
vt 0.016285 0.608128
vt 0.092875 0.608128
vt 0.131170 0.608128
vt 0.169465 0.608128
vt 0.207761 0.608128
vt 0.318816 0.720016
vt 0.288180 0.720016
vt 0.280521 0.720016
vt 0.249885 0.720016
vt 0.357112 0.720015
vt 0.326476 0.720016
vt 0.395407 0.720015
vt 0.364771 0.720015
vt 0.433702 0.720015
vt 0.403066 0.720015
vt 0.471997 0.720015
vt 0.441361 0.720015
vt 0.050751 0.720016
vt 0.020114 0.720016
vt 0.089046 0.720016
vt 0.058410 0.720016
vt 0.127341 0.720016
vt 0.096705 0.720016
vt 0.165636 0.720016
vt 0.135000 0.720016
vt 0.203931 0.720016
vt 0.173295 0.720016
vt 0.242226 0.720016
vt 0.211590 0.720016
vt 0.313072 0.807753
vt 0.274777 0.807752
vt 0.332220 0.807752
vt 0.389663 0.807752
vt 0.427958 0.807752
vt 0.466253 0.807752
vt 0.045006 0.807752
vt 0.083301 0.807753
vt 0.102449 0.807753
vt 0.159892 0.807753
vt 0.179039 0.807753
vt 0.217334 0.807753
vt 0.726349 0.321816
vt 0.726349 0.350127
vt 0.678019 0.370146
vt 0.726349 0.036304
vt 0.726349 0.064615
vt 0.678019 0.084634
vt 0.757037 0.145006
vt 0.690356 0.108008
vt 0.706330 0.084634
vt 0.748152 0.171758
vt 0.672586 0.161512
vt 0.678977 0.133932
vt 0.747560 0.185901
vt 0.671403 0.189798
vt 0.749593 0.199910
vt 0.754179 0.213301
vt 0.684641 0.244600
vt 0.775033 0.123309
vt 0.765024 0.133319
vt 0.751348 0.157968
vt 0.675468 0.217816
vt 0.761162 0.225615
vt 0.698607 0.269226
vt 0.765024 0.418830
vt 0.757037 0.430517
vt 0.690356 0.393520
vt 0.748152 0.457269
vt 0.672586 0.447024
vt 0.678977 0.419443
vt 0.747560 0.471413
vt 0.671403 0.475310
vt 0.749593 0.485421
vt 0.754179 0.498813
vt 0.684641 0.530111
vt 0.706330 0.370146
vt 0.751348 0.443479
vt 0.675468 0.503328
vt 0.761162 0.511126
vt 0.698607 0.554738
vt 0.576745 0.321816
vt 0.576745 0.350127
vt 0.528416 0.370146
vt 0.615420 0.418830
vt 0.607433 0.430517
vt 0.540753 0.393520
vt 0.598549 0.457269
vt 0.522983 0.447024
vt 0.529374 0.419444
vt 0.597957 0.471412
vt 0.521799 0.475310
vt 0.599989 0.485421
vt 0.604576 0.498813
vt 0.535038 0.530111
vt 0.625430 0.408821
vt 0.556727 0.370146
vt 0.601744 0.443479
vt 0.525864 0.503328
vt 0.611559 0.511126
vt 0.549004 0.554738
vt 0.576745 0.036304
vt 0.576745 0.064615
vt 0.528416 0.084634
vt 0.607433 0.145006
vt 0.540753 0.108008
vt 0.556727 0.084634
vt 0.598549 0.171758
vt 0.522983 0.161512
vt 0.529374 0.133932
vt 0.597957 0.185901
vt 0.521799 0.189799
vt 0.599989 0.199910
vt 0.604576 0.213301
vt 0.535038 0.244600
vt 0.625430 0.123309
vt 0.615420 0.133319
vt 0.601744 0.157967
vt 0.525864 0.217816
vt 0.611559 0.225615
vt 0.549004 0.269226
vt 0.844594 0.386187
vt 0.807604 0.423177
vt 0.807604 0.053275
vt 0.877164 0.386187
vt 0.877164 0.016285
vt 0.914154 0.053275
vt 0.946725 0.386187
vt 0.946725 0.016285
vt 0.983715 0.053275
vt 0.877164 0.825649
vt 0.877164 0.455747
vt 0.914154 0.492737
vt 0.529834 0.600899
vt 0.526962 0.605874
vt 0.516243 0.608746
vt 0.508397 0.600899
vt 0.508397 0.595155
vt 0.511269 0.590180
vt 0.521988 0.587308
vt 0.526962 0.590180
vt 0.529834 0.595155
vt 0.748607 0.587308
vt 0.781772 0.606456
vt 0.800919 0.639620
vt 0.781772 0.711080
vt 0.748607 0.730227
vt 0.710312 0.730227
vt 0.677148 0.711080
vt 0.658000 0.677915
vt 0.677148 0.606456
vt 0.475824 0.016285
vt 0.658000 0.350127
vt 0.658000 0.321816
vt 0.678019 0.301797
vt 0.706330 0.301797
vt 0.658000 0.064615
vt 0.658000 0.036304
vt 0.678019 0.016285
vt 0.706330 0.016285
vt 0.775033 0.408821
vt 0.508397 0.350127
vt 0.508397 0.321816
vt 0.528416 0.301797
vt 0.556727 0.301797
vt 0.508397 0.064615
vt 0.508397 0.036304
vt 0.528416 0.016285
vt 0.556727 0.016285
vt 0.844594 0.016285
vt 0.914154 0.423177
vt 0.983715 0.423177
vt 0.914154 0.862639
vn 0.186200 0.694700 -0.694700
vn 0.508600 0.694700 -0.508600
vn 0.694700 0.694700 -0.186100
vn 0.694700 0.694700 0.186100
vn 0.508600 0.694700 0.508600
vn 0.186200 0.694700 0.694700
vn -0.186200 0.694700 0.694800
vn -0.508600 0.694700 0.508600
vn -0.694700 0.694700 0.186100
vn -0.694700 0.694700 -0.186200
vn 0.000000 1.000000 -0.000000
vn -0.186200 0.694700 -0.694700
vn -0.508600 0.694700 -0.508600
vn 0.000000 -1.000000 0.000000
vn -0.707100 0.000000 -0.707100
vn -0.258800 0.000000 -0.965900
vn -0.965900 0.000000 -0.258800
vn -0.965900 0.000000 0.258800
vn -0.707100 0.000000 0.707100
vn -0.258800 0.000000 0.965900
vn 0.258800 0.000000 0.965900
vn 0.707100 0.000000 0.707100
vn 0.965900 0.000000 0.258800
vn 0.965900 0.000000 -0.258800
vn 0.707100 0.000000 -0.707100
vn 0.258800 0.000000 -0.965900
vn -0.701300 0.127700 -0.701300
vn -0.256700 0.127700 -0.958000
vn -0.958000 0.127700 -0.256700
vn -0.958000 0.127700 0.256700
vn -0.701300 0.127700 0.701300
vn -0.256700 0.127700 0.958000
vn 0.256700 0.127700 0.958000
vn 0.701300 0.127700 0.701300
vn 0.958000 0.127700 0.256700
vn 0.958000 0.127700 -0.256700
vn 0.701300 0.127700 -0.701300
vn 0.256700 0.127700 -0.958000
vn -0.685700 0.244300 -0.685700
vn -0.251000 0.244300 -0.936600
vn -0.936600 0.244300 -0.251000
vn -0.936600 0.244300 0.251000
vn -0.685700 0.244300 0.685700
vn -0.251000 0.244300 0.936600
vn 0.251000 0.244300 0.936600
vn 0.685700 0.244300 0.685700
vn 0.936600 0.244300 0.251000
vn 0.936600 0.244300 -0.251000
vn 0.685700 0.244300 -0.685700
vn 0.251000 0.244300 -0.936600
vn -0.900200 0.225000 0.372900
vn -0.372900 0.225000 -0.900200
vn 0.372900 0.225000 -0.900200
vn 0.900200 0.225000 0.372900
vn -0.372900 0.225000 0.900200
vn -0.900200 0.225000 -0.372900
vn 0.900200 0.225000 -0.372900
vn 0.372900 0.225000 0.900200
vn 1.000000 0.000000 -0.000000
vn 0.000000 0.000000 1.000000
vn -0.000000 0.000000 -1.000000
vn 0.694700 0.694700 -0.186200
vn 0.694700 0.694700 0.186200
vn -0.186200 0.694700 0.694700
vn -0.694700 0.694700 0.186200
vn 0.000000 1.000000 -0.000100
vn 0.000000 1.000000 0.000100
s off
f 61/1/1 2/2/1 4/3/1
f 62/4/2 4/5/2 6/6/2
f 6/7/3 8/8/3 64/9/3
f 64/10/4 8/11/4 10/12/4
f 10/13/5 12/14/5 66/15/5
f 12/16/6 14/17/6 67/18/6
f 14/19/7 16/20/7 68/21/7
f 16/22/8 18/23/8 69/24/8
f 18/25/9 20/26/9 70/27/9
f 70/28/10 20/29/10 22/30/10
f 22/31/11 14/32/11 2/33/11
f 24/34/12 2/35/12 61/36/12
f 22/37/13 24/38/13 72/39/13
f 7/40/14 19/41/14 23/42/14
f 35/43/15 36/44/15 23/45/15
f 36/44/16 25/46/16 1/47/16
f 34/48/17 35/43/17 21/49/17
f 33/50/18 34/48/18 19/51/18
f 32/52/19 33/50/19 17/53/19
f 31/54/20 32/52/20 15/55/20
f 30/56/21 31/57/21 13/58/21
f 29/59/22 30/56/22 11/60/22
f 28/61/23 29/59/23 9/62/23
f 27/63/24 28/61/24 7/64/24
f 26/65/25 27/63/25 5/66/25
f 25/46/26 26/65/26 3/67/26
f 47/68/15 48/69/15 36/44/15
f 48/69/16 37/70/16 25/46/16
f 46/71/17 47/68/17 35/43/17
f 45/72/18 46/71/18 34/48/18
f 44/73/19 45/72/19 33/50/19
f 43/74/20 44/73/20 32/52/20
f 42/75/21 43/76/21 31/57/21
f 41/77/22 42/75/22 30/56/22
f 40/78/23 41/77/23 29/59/23
f 39/79/24 40/78/24 28/61/24
f 38/80/25 39/79/25 27/63/25
f 37/70/26 38/80/26 26/65/26
f 47/68/27 59/81/27 60/82/27
f 60/83/28 49/84/28 37/70/28
f 58/85/29 59/86/29 47/68/29
f 57/87/30 58/88/30 46/71/30
f 44/73/31 56/89/31 57/90/31
f 43/74/32 55/91/32 56/92/32
f 54/93/33 55/94/33 43/76/33
f 53/95/34 54/96/34 42/75/34
f 40/78/35 52/97/35 53/98/35
f 51/99/36 52/100/36 40/78/36
f 50/101/37 51/102/37 39/79/37
f 37/70/38 49/103/38 50/104/38
f 59/81/39 71/105/39 72/39/39
f 72/106/40 61/36/40 49/84/40
f 70/28/41 71/107/41 59/86/41
f 57/87/42 69/108/42 70/27/42
f 68/109/43 69/24/43 57/90/43
f 55/91/44 67/110/44 68/21/44
f 66/111/45 67/18/45 55/94/45
f 53/95/46 65/112/46 66/15/46
f 64/10/47 65/113/47 53/98/47
f 51/99/48 63/114/48 64/9/48
f 62/4/49 63/115/49 51/102/49
f 49/103/50 61/1/50 62/116/50
f 102/117/14 101/118/14 99/119/14
f 86/120/14 85/121/14 83/122/14
f 75/123/51 83/124/51 84/125/51
f 73/126/52 82/127/52 81/128/52
f 73/126/53 80/129/53 88/130/53
f 79/131/54 78/132/54 86/133/54
f 77/134/55 76/135/55 84/125/55
f 74/136/56 81/128/56 83/124/56
f 79/131/57 87/137/57 88/130/57
f 78/132/58 77/138/58 85/139/58
f 92/140/51 91/141/51 99/142/51
f 89/143/52 98/144/52 97/145/52
f 96/146/53 104/147/53 98/144/53
f 95/148/54 94/149/54 102/150/54
f 92/140/55 100/151/55 101/118/55
f 90/152/56 97/145/56 99/142/56
f 95/148/57 103/153/57 104/147/57
f 94/149/58 93/154/58 101/155/58
f 118/156/14 117/157/14 115/158/14
f 108/159/51 107/160/51 115/161/51
f 105/162/52 114/163/52 113/164/52
f 112/165/53 120/166/53 114/163/53
f 111/167/54 110/168/54 118/169/54
f 109/170/55 108/159/55 116/171/55
f 106/172/56 113/164/56 115/161/56
f 111/167/57 119/173/57 120/166/57
f 110/168/58 109/174/58 117/175/58
f 134/176/14 133/177/14 131/178/14
f 123/179/51 131/180/51 132/181/51
f 121/182/52 130/183/52 129/184/52
f 128/185/53 136/186/53 130/183/53
f 127/187/54 126/188/54 134/189/54
f 125/190/55 124/191/55 132/181/55
f 123/179/56 122/192/56 129/184/56
f 127/187/57 135/193/57 136/186/57
f 126/188/58 125/194/58 133/195/58
f 141/196/59 25/197/59 1/198/59
f 144/199/60 140/200/60 19/201/60
f 143/202/59 139/203/59 13/204/59
f 142/205/61 138/206/61 7/207/61
f 62/116/1 61/1/1 4/3/1
f 63/115/2 62/4/2 6/6/2
f 63/114/62 6/7/62 64/9/62
f 65/113/63 64/10/63 10/12/63
f 65/112/5 10/13/5 66/15/5
f 66/111/6 12/16/6 67/18/6
f 67/110/64 14/19/64 68/21/64
f 68/109/8 16/22/8 69/24/8
f 69/108/65 18/25/65 70/27/65
f 71/107/10 70/28/10 22/30/10
f 6/208/66 4/209/66 2/33/66
f 2/33/67 24/210/67 22/31/67
f 22/31/11 20/211/11 18/212/11
f 18/212/11 16/213/11 14/32/11
f 14/32/11 12/214/11 10/215/11
f 10/215/11 8/216/11 14/32/11
f 6/208/11 2/33/11 14/32/11
f 22/31/11 18/212/11 14/32/11
f 14/32/11 8/216/11 6/208/11
f 72/106/12 24/34/12 61/36/12
f 71/105/13 22/37/13 72/39/13
f 23/42/14 1/217/14 3/218/14
f 3/218/14 5/219/14 7/40/14
f 7/40/14 9/220/14 11/221/14
f 11/221/14 13/222/14 15/223/14
f 15/223/14 17/224/14 19/41/14
f 19/41/14 21/225/14 23/42/14
f 23/42/14 3/218/14 7/40/14
f 7/40/14 11/221/14 15/223/14
f 15/223/14 19/41/14 7/40/14
f 21/49/15 35/43/15 23/45/15
f 23/45/16 36/44/16 1/47/16
f 19/51/17 34/48/17 21/49/17
f 17/53/18 33/50/18 19/51/18
f 15/55/19 32/52/19 17/53/19
f 13/226/20 31/54/20 15/55/20
f 11/60/21 30/56/21 13/58/21
f 9/62/22 29/59/22 11/60/22
f 7/64/23 28/61/23 9/62/23
f 5/66/24 27/63/24 7/64/24
f 3/67/25 26/65/25 5/66/25
f 1/47/26 25/46/26 3/67/26
f 35/43/15 47/68/15 36/44/15
f 36/44/16 48/69/16 25/46/16
f 34/48/17 46/71/17 35/43/17
f 33/50/18 45/72/18 34/48/18
f 32/52/19 44/73/19 33/50/19
f 31/54/20 43/74/20 32/52/20
f 30/56/21 42/75/21 31/57/21
f 29/59/22 41/77/22 30/56/22
f 28/61/23 40/78/23 29/59/23
f 27/63/24 39/79/24 28/61/24
f 26/65/25 38/80/25 27/63/25
f 25/46/26 37/70/26 26/65/26
f 48/69/27 47/68/27 60/82/27
f 48/69/28 60/83/28 37/70/28
f 46/71/29 58/85/29 47/68/29
f 45/72/30 57/87/30 46/71/30
f 45/72/31 44/73/31 57/90/31
f 44/73/32 43/74/32 56/92/32
f 42/75/33 54/93/33 43/76/33
f 41/77/34 53/95/34 42/75/34
f 41/77/35 40/78/35 53/98/35
f 39/79/36 51/99/36 40/78/36
f 38/80/37 50/101/37 39/79/37
f 38/80/38 37/70/38 50/104/38
f 60/82/39 59/81/39 72/39/39
f 60/83/40 72/106/40 49/84/40
f 58/85/41 70/28/41 59/86/41
f 58/88/42 57/87/42 70/27/42
f 56/89/43 68/109/43 57/90/43
f 56/92/44 55/91/44 68/21/44
f 54/93/45 66/111/45 55/94/45
f 54/96/46 53/95/46 66/15/46
f 52/97/47 64/10/47 53/98/47
f 52/100/48 51/99/48 64/9/48
f 50/101/49 62/4/49 51/102/49
f 50/104/50 49/103/50 62/116/50
f 99/119/14 97/227/14 98/228/14
f 98/228/14 104/229/14 99/119/14
f 103/230/14 102/117/14 99/119/14
f 101/118/14 100/151/14 99/119/14
f 99/119/14 104/229/14 103/230/14
f 83/122/14 81/231/14 82/232/14
f 82/232/14 88/233/14 83/122/14
f 87/234/14 86/120/14 83/122/14
f 85/121/14 84/125/14 83/122/14
f 83/122/14 88/233/14 87/234/14
f 76/135/51 75/123/51 84/125/51
f 74/136/52 73/126/52 81/128/52
f 82/127/53 73/126/53 88/130/53
f 87/137/54 79/131/54 86/133/54
f 85/121/55 77/134/55 84/125/55
f 75/123/56 74/136/56 83/124/56
f 80/129/57 79/131/57 88/130/57
f 86/133/58 78/132/58 85/139/58
f 100/151/51 92/140/51 99/142/51
f 90/152/52 89/143/52 97/145/52
f 89/143/53 96/146/53 98/144/53
f 103/153/54 95/148/54 102/150/54
f 93/235/55 92/140/55 101/118/55
f 91/141/56 90/152/56 99/142/56
f 96/146/57 95/148/57 104/147/57
f 102/150/58 94/149/58 101/155/58
f 115/158/14 113/236/14 114/237/14
f 114/237/14 120/238/14 115/158/14
f 119/239/14 118/156/14 115/158/14
f 117/157/14 116/171/14 115/158/14
f 115/158/14 120/238/14 119/239/14
f 116/171/51 108/159/51 115/161/51
f 106/172/52 105/162/52 113/164/52
f 105/162/53 112/165/53 114/163/53
f 119/173/54 111/167/54 118/169/54
f 117/157/55 109/170/55 116/171/55
f 107/160/56 106/172/56 115/161/56
f 112/165/57 111/167/57 120/166/57
f 118/169/58 110/168/58 117/175/58
f 131/178/14 129/240/14 130/241/14
f 130/241/14 136/242/14 131/178/14
f 135/243/14 134/176/14 131/178/14
f 133/177/14 132/181/14 131/178/14
f 131/178/14 136/242/14 135/243/14
f 124/191/51 123/179/51 132/181/51
f 122/192/52 121/182/52 129/184/52
f 121/182/53 128/185/53 130/183/53
f 135/193/54 127/187/54 134/189/54
f 133/177/55 125/190/55 132/181/55
f 131/180/56 123/179/56 129/184/56
f 128/185/57 127/187/57 136/186/57
f 134/189/58 126/188/58 133/195/58
f 137/244/59 141/196/59 1/198/59
f 34/245/60 144/199/60 19/201/60
f 31/246/59 143/202/59 13/204/59
f 28/247/61 142/205/61 7/207/61
