# Blender v2.76 (sub 0) OBJ File: 'sat_dock.blend'
# www.blender.org
o Cube_Cube.001
v -1.500000 0.000000 1.500000
v -1.500000 0.500000 1.500000
v -1.500000 0.000000 -1.500000
v -1.500000 0.500000 -1.500000
v 1.500000 0.000000 1.500000
v 1.500000 0.500000 1.500000
v 1.500000 0.000000 -1.500000
v 1.500000 0.500000 -1.500000
v -0.500000 0.500000 0.500000
v -0.500000 0.750000 0.500000
v -0.500000 0.500000 -0.500000
v -0.500000 0.750000 -0.500000
v 0.500000 0.500000 0.500000
v 0.500000 0.750000 0.500000
v 0.500000 0.500000 -0.500000
v 0.500000 0.750000 -0.500000
vt 0.492188 0.507812
vt 0.492188 0.570312
vt 0.117188 0.570312
vt 0.492188 0.132812
vt 0.554688 0.132812
vt 0.554688 0.507812
vt 0.117188 0.132812
vt 0.117188 0.070312
vt 0.492188 0.070312
vt 0.117188 0.507812
vt 0.054688 0.507812
vt 0.054688 0.132812
vt 0.539062 0.562500
vt 0.914062 0.562500
vt 0.914062 0.937500
vt 0.835938 0.367188
vt 0.835938 0.398438
vt 0.710938 0.398438
vt 0.835938 0.242188
vt 0.867188 0.242188
vt 0.867188 0.367188
vt 0.710938 0.242188
vt 0.710938 0.210938
vt 0.835938 0.210938
vt 0.710938 0.367188
vt 0.679688 0.367188
vt 0.679688 0.242188
vt 0.367188 0.257812
vt 0.242188 0.257812
vt 0.367188 0.382812
vt 0.242188 0.382812
vt 0.539062 0.937500
vn -1.000000 0.000000 0.000000
vn 0.000000 0.000000 -1.000000
vn 1.000000 0.000000 0.000000
vn 0.000000 0.000000 1.000000
vn 0.000000 -1.000000 0.000000
vn 0.000000 1.000000 0.000000
s off
f 4/1/1 3/2/1 1/3/1
f 8/4/2 7/5/2 3/6/2
f 6/7/3 5/8/3 7/9/3
f 2/10/4 1/11/4 5/12/4
f 3/13/5 7/14/5 5/15/5
f 12/16/1 11/17/1 9/18/1
f 16/19/2 15/20/2 11/21/2
f 14/22/3 13/23/3 15/24/3
f 10/25/4 9/26/4 13/27/4
f 15/28/6 13/29/6 6/7/6
f 16/19/6 12/16/6 10/25/6
f 11/30/6 15/28/6 8/4/6
f 9/31/6 11/30/6 4/1/6
f 13/29/6 9/31/6 2/10/6
f 2/10/1 4/1/1 1/3/1
f 4/1/2 8/4/2 3/6/2
f 8/4/3 6/7/3 7/9/3
f 6/7/4 2/10/4 5/12/4
f 1/32/5 3/13/5 5/15/5
f 10/25/1 12/16/1 9/18/1
f 12/16/2 16/19/2 11/21/2
f 16/19/3 14/22/3 15/24/3
f 14/22/4 10/25/4 13/27/4
f 8/4/6 15/28/6 6/7/6
f 14/22/6 16/19/6 10/25/6
f 4/1/6 11/30/6 8/4/6
f 2/10/6 9/31/6 4/1/6
f 6/7/6 13/29/6 2/10/6
