# Blender v2.76 (sub 0) OBJ File: 'turret_heavy_rotor.blend'
# www.blender.org
o Cylinder
v -0.282588 1.117500 -0.222228
v -0.282588 0.250000 -0.222229
v 0.332588 0.250000 -0.222228
v 0.332588 1.117500 -0.222228
v 0.369552 0.250000 -0.153073
v 0.369552 1.192500 -0.153073
v 0.392314 0.250000 -0.078036
v 0.392314 1.237500 -0.078036
v 0.400000 0.250000 -0.000000
v 0.400000 1.250000 -0.000000
v 0.392314 0.250000 0.078036
v 0.392314 1.237500 0.078036
v 0.369552 0.250000 0.153073
v 0.369552 1.192500 0.153073
v 0.332588 0.250000 0.222228
v 0.332588 1.117500 0.222228
v -0.319552 1.192500 0.153073
v -0.319552 0.250000 0.153073
v -0.282588 1.117500 0.222228
v -0.282588 0.250000 0.222228
v 0.282588 1.117500 0.222228
v 0.282588 0.250000 0.222228
v 0.319552 1.192500 0.153073
v 0.319552 0.250000 0.153073
v 0.342314 1.237500 0.078036
v 0.342314 0.250000 0.078036
v 0.350000 1.250000 -0.000000
v 0.350000 0.250000 -0.000000
v 0.342314 1.237500 -0.078036
v 0.342314 0.250000 -0.078036
v 0.319552 1.192500 -0.153073
v 0.319552 0.250000 -0.153073
v 0.282588 1.117500 -0.222228
v 0.282588 0.250000 -0.222228
v -0.332588 0.250000 0.222228
v -0.332588 1.117500 0.222228
v -0.369552 0.250000 0.153073
v -0.369552 1.192500 0.153073
v -0.392314 0.250000 0.078036
v -0.392314 1.237500 0.078036
v -0.400000 0.250000 -0.000000
v -0.400000 1.250000 -0.000000
v -0.392314 0.250000 -0.078037
v -0.392314 1.237500 -0.078037
v -0.369552 0.250000 -0.153074
v -0.369552 1.192500 -0.153074
v -0.332588 0.250000 -0.222229
v -0.332588 1.117500 -0.222228
v -0.319552 1.192500 -0.153074
v -0.319552 0.250000 -0.153074
v -0.342314 1.237500 -0.078037
v -0.342314 0.250000 -0.078037
v -0.350000 1.250000 -0.000000
v -0.350000 0.250000 -0.000000
v -0.342314 1.237500 0.078036
v -0.342314 0.250000 0.078036
v -0.700000 0.507596 0.386824
v -0.200000 0.507596 0.386824
v -0.700000 1.342404 0.213176
v -0.200000 1.492404 0.213176
v 0.200000 0.507596 0.386824
v 0.700000 0.507596 0.386824
v 0.200000 1.492404 0.213176
v 0.700000 1.342404 0.213176
vt 0.471550 0.978182
vt 0.442112 0.981045
vt 0.442112 0.962420
vt 0.412674 0.978182
vt 0.412674 0.959558
vt 0.752477 0.642507
vt 0.780414 0.671715
vt 0.429349 0.671715
vt 0.797175 0.700923
vt 0.429349 0.700923
vt 0.801831 0.730131
vt 0.429349 0.730131
vt 0.797175 0.759339
vt 0.429349 0.759339
vt 0.780413 0.788547
vt 0.429349 0.788547
vt 0.752477 0.817754
vt 0.018956 0.516973
vt 0.018956 0.487765
vt 0.386782 0.487765
vt 0.391438 0.516973
vt 0.386782 0.546181
vt 0.018956 0.546180
vt 0.370020 0.575389
vt 0.018955 0.575388
vt 0.342084 0.604596
vt 0.018955 0.671715
vt 0.018955 0.642508
vt 0.342084 0.642507
vt 0.018955 0.700923
vt 0.370020 0.671715
vt 0.018956 0.730131
vt 0.386782 0.700923
vt 0.391438 0.730131
vt 0.386782 0.759339
vt 0.018956 0.759339
vt 0.370020 0.788547
vt 0.018956 0.788546
vt 0.342084 0.817754
vt 0.752477 0.429349
vt 0.780414 0.458557
vt 0.429349 0.458557
vt 0.797175 0.487765
vt 0.429349 0.487765
vt 0.801831 0.516972
vt 0.429349 0.516973
vt 0.797175 0.546180
vt 0.429349 0.546181
vt 0.780413 0.575388
vt 0.429349 0.575389
vt 0.752478 0.604596
vt 0.380083 0.969703
vt 0.380083 0.951079
vt 0.342084 0.955935
vt 0.342084 0.937311
vt 0.018955 0.937311
vt 0.018955 0.458557
vt 0.018955 0.429349
vt 0.342084 0.429349
vt 0.370020 0.458557
vt 0.471550 0.959558
vt 0.504140 0.951079
vt 0.504140 0.969703
vt 0.542140 0.937311
vt 0.542140 0.955935
vt 0.865269 0.937310
vt 0.542140 0.899399
vt 0.542140 0.880775
vt 0.865269 0.880774
vt 0.504141 0.885631
vt 0.504141 0.867006
vt 0.471550 0.877152
vt 0.471550 0.858528
vt 0.442112 0.874289
vt 0.442112 0.855665
vt 0.412674 0.877152
vt 0.412674 0.858528
vt 0.380084 0.885631
vt 0.380084 0.867007
vt 0.342084 0.899399
vt 0.342084 0.880775
vt 0.018955 0.899399
vt 0.205197 0.018955
vt 0.205493 0.391438
vt 0.018955 0.336563
vt 0.243700 0.018955
vt 0.429942 0.018955
vt 0.429942 0.336563
vt 0.429349 0.642507
vt 0.429349 0.817754
vt 0.018955 0.604596
vt 0.018955 0.817754
vt 0.429349 0.429349
vt 0.429349 0.604596
vt 0.018955 0.955935
vt 0.865269 0.955935
vt 0.865269 0.899399
vt 0.018955 0.880775
vt 0.018955 0.018955
vt 0.243404 0.391438
vn 0.000000 0.987400 0.158200
vn 0.000000 0.987400 -0.158200
vn 0.881900 -0.000000 -0.471400
vn 0.956900 0.000000 -0.290300
vn 0.995200 0.000000 -0.098000
vn 0.995200 0.000000 0.098000
vn 0.956900 0.000000 0.290300
vn 0.881900 -0.000000 0.471400
vn -0.881900 -0.000000 -0.471400
vn -0.956900 0.000000 -0.290300
vn -0.995200 0.000000 -0.098000
vn -0.995200 0.000000 0.098000
vn -0.956900 0.000000 0.290300
vn -0.881900 -0.000000 0.471400
vn 0.000000 0.857600 -0.514300
vn 0.000000 0.677900 -0.735200
vn 0.000000 0.000000 -1.000000
vn 0.000000 0.857600 0.514300
vn 0.000000 0.677900 0.735200
vn 0.000000 -0.000000 1.000000
vn -0.052000 0.173400 0.983500
vn 0.000000 0.203700 0.979000
vn 0.052000 0.173400 0.983500
s off
f 12/1/1 10/2/1 27/3/1
f 8/4/2 29/5/2 27/3/2
f 4/6/3 6/7/3 5/8/3
f 6/7/4 8/9/4 7/10/4
f 8/9/5 10/11/5 9/12/5
f 9/12/6 10/11/6 12/13/6
f 11/14/7 12/13/7 14/15/7
f 13/16/8 14/15/8 16/17/8
f 54/18/6 52/19/6 51/20/6
f 54/18/5 53/21/5 55/22/5
f 56/23/4 55/22/4 17/24/4
f 18/25/3 17/24/3 19/26/3
f 24/27/9 22/28/9 21/29/9
f 26/30/10 24/27/10 23/31/10
f 28/32/11 26/30/11 25/33/11
f 28/32/12 27/34/12 29/35/12
f 30/36/13 29/35/13 31/37/13
f 32/38/14 31/37/14 33/39/14
f 36/40/14 38/41/14 37/42/14
f 38/41/13 40/43/13 39/44/13
f 40/43/12 42/45/12 41/46/12
f 41/46/11 42/45/11 44/47/11
f 43/48/10 44/47/10 46/49/10
f 45/50/9 46/49/9 48/51/9
f 6/52/15 31/53/15 29/5/15
f 4/54/16 33/55/16 31/53/16
f 34/56/17 33/55/17 4/54/17
f 50/57/8 2/58/8 1/59/8
f 52/19/7 50/57/7 49/60/7
f 25/61/18 23/62/18 14/63/18
f 23/62/19 21/64/19 16/65/19
f 16/65/20 21/64/20 22/66/20
f 19/67/20 36/68/20 35/69/20
f 17/70/19 38/71/19 36/68/19
f 55/72/18 40/73/18 38/71/18
f 53/74/1 42/75/1 40/73/1
f 53/74/2 51/76/2 44/77/2
f 51/76/15 49/78/15 46/79/15
f 49/78/16 1/80/16 48/81/16
f 48/81/17 1/80/17 2/82/17
f 58/83/21 60/84/21 59/85/21
f 61/86/22 62/87/22 64/88/22
f 25/61/1 12/1/1 27/3/1
f 10/2/2 8/4/2 27/3/2
f 3/89/3 4/6/3 5/8/3
f 5/8/4 6/7/4 7/10/4
f 7/10/5 8/9/5 9/12/5
f 11/14/6 9/12/6 12/13/6
f 13/16/7 11/14/7 14/15/7
f 15/90/8 13/16/8 16/17/8
f 53/21/6 54/18/6 51/20/6
f 56/23/5 54/18/5 55/22/5
f 18/25/4 56/23/4 17/24/4
f 20/91/3 18/25/3 19/26/3
f 23/31/9 24/27/9 21/29/9
f 25/33/10 26/30/10 23/31/10
f 27/34/11 28/32/11 25/33/11
f 30/36/12 28/32/12 29/35/12
f 32/38/13 30/36/13 31/37/13
f 34/92/14 32/38/14 33/39/14
f 35/93/14 36/40/14 37/42/14
f 37/42/13 38/41/13 39/44/13
f 39/44/12 40/43/12 41/46/12
f 43/48/11 41/46/11 44/47/11
f 45/50/10 43/48/10 46/49/10
f 47/94/9 45/50/9 48/51/9
f 8/4/15 6/52/15 29/5/15
f 6/52/16 4/54/16 31/53/16
f 3/95/17 34/56/17 4/54/17
f 49/60/8 50/57/8 1/59/8
f 51/20/7 52/19/7 49/60/7
f 12/1/18 25/61/18 14/63/18
f 14/63/19 23/62/19 16/65/19
f 15/96/20 16/65/20 22/66/20
f 20/97/20 19/67/20 35/69/20
f 19/67/19 17/70/19 36/68/19
f 17/70/18 55/72/18 38/71/18
f 55/72/1 53/74/1 40/73/1
f 42/75/2 53/74/2 44/77/2
f 44/77/15 51/76/15 46/79/15
f 46/79/16 49/78/16 48/81/16
f 47/98/17 48/81/17 2/82/17
f 57/99/22 58/83/22 59/85/22
f 63/100/23 61/86/23 64/88/23
