# Blender v2.76 (sub 0) OBJ File: 'mp_f_10.blend'
# www.blender.org
o Cylinder
v 0.000000 0.000000 -0.500000
v 0.000000 4.000000 -0.500000
v 0.250000 0.000000 -0.433013
v 0.250000 4.000000 -0.433013
v 0.433013 0.000000 -0.250000
v 0.433013 4.000000 -0.250000
v 0.500000 0.000000 0.000000
v 0.500000 4.000000 0.000000
v 0.433013 0.000000 0.250000
v 0.433013 4.000000 0.250000
v 0.250000 0.000000 0.433013
v 0.250000 4.000000 0.433013
v 0.000000 0.000000 0.500000
v 0.000000 4.000000 0.500000
v -0.250000 0.000000 0.433013
v -0.250000 4.000000 0.433013
v -0.433013 0.000000 0.250000
v -0.433013 4.000000 0.250000
v -0.500000 0.000000 0.000000
v -0.500000 4.000000 0.000000
v -0.433013 0.000000 -0.250000
v -0.433013 4.000000 -0.250000
v -0.250000 0.000000 -0.433013
v -0.250000 4.000000 -0.433013
vt 0.562500 1.000000
vt 0.500000 1.000000
vt 0.500000 0.000000
vt 0.437500 1.000000
vt 0.437500 0.000000
vt 0.375000 1.000000
vt 0.375000 0.000000
vt 0.312500 1.000000
vt 0.312500 0.000000
vt 0.250000 1.000000
vt 0.250000 0.000000
vt 0.187500 1.000000
vt 0.187500 0.000000
vt 0.125000 1.000000
vt 0.125000 0.000000
vt 0.062500 1.000000
vt 0.062500 0.000000
vt 0.000000 1.000000
vt 0.000000 0.000000
vt 0.750000 1.000000
vt 0.687500 1.000000
vt 0.687500 0.000000
vt 0.765625 0.312500
vt 0.875000 0.500000
vt 0.984375 0.312500
vt 0.625000 1.000000
vt 0.562500 0.000000
vt 0.625000 0.000000
vt 0.875000 0.000000
vt 0.875000 0.250000
vt 0.984375 0.187500
vt 0.750000 0.000000
vt 0.937500 0.265625
vt 0.812500 0.265625
vt 0.750000 0.375000
vt 0.765625 0.437500
vt 0.812500 0.484375
vt 0.937500 0.484375
vt 0.984375 0.437500
vt 1.000000 0.375000
vt 1.000000 0.125000
vt 0.984375 0.062500
vt 0.937500 0.015625
vt 0.812500 0.015625
vt 0.765625 0.062500
vt 0.750000 0.125000
vt 0.765625 0.187500
vt 0.812500 0.234375
vt 0.937500 0.234375
vn 0.258800 0.000000 -0.965900
vn 0.707100 0.000000 -0.707100
vn 0.965900 0.000000 -0.258800
vn 0.965900 0.000000 0.258800
vn 0.707100 0.000000 0.707100
vn 0.258800 0.000000 0.965900
vn -0.258800 0.000000 0.965900
vn -0.707100 0.000000 0.707100
vn -0.965900 0.000000 0.258800
vn -0.965900 0.000000 -0.258800
vn 0.000000 1.000000 0.000000
vn -0.258800 0.000000 -0.965900
vn -0.707100 0.000000 -0.707100
vn 0.000000 -1.000000 0.000000
s off
f 2/1/1 4/2/1 3/3/1
f 4/2/2 6/4/2 5/5/2
f 6/4/3 8/6/3 7/7/3
f 8/6/4 10/8/4 9/9/4
f 10/8/5 12/10/5 11/11/5
f 12/10/6 14/12/6 13/13/6
f 14/12/7 16/14/7 15/15/7
f 16/14/8 18/16/8 17/17/8
f 18/16/9 20/18/9 19/19/9
f 20/20/10 22/21/10 21/22/10
f 22/23/11 14/24/11 6/25/11
f 24/26/12 2/1/12 1/27/12
f 22/21/13 24/26/13 23/28/13
f 7/29/14 19/30/14 23/31/14
f 1/27/1 2/1/1 3/3/1
f 3/3/2 4/2/2 5/5/2
f 5/5/3 6/4/3 7/7/3
f 7/7/4 8/6/4 9/9/4
f 9/9/5 10/8/5 11/11/5
f 11/11/6 12/10/6 13/13/6
f 13/13/7 14/12/7 15/15/7
f 15/15/8 16/14/8 17/17/8
f 17/17/9 18/16/9 19/19/9
f 19/32/10 20/20/10 21/22/10
f 6/25/11 4/33/11 2/30/11
f 2/30/11 24/34/11 6/25/11
f 22/23/11 20/35/11 18/36/11
f 18/36/11 16/37/11 14/24/11
f 14/24/11 12/38/11 10/39/11
f 10/39/11 8/40/11 6/25/11
f 6/25/11 24/34/11 22/23/11
f 22/23/11 18/36/11 14/24/11
f 14/24/11 10/39/11 6/25/11
f 23/28/12 24/26/12 1/27/12
f 21/22/13 22/21/13 23/28/13
f 23/31/14 1/41/14 3/42/14
f 3/42/14 5/43/14 7/29/14
f 7/29/14 9/44/14 11/45/14
f 11/45/14 13/46/14 15/47/14
f 15/47/14 17/48/14 19/30/14
f 19/30/14 21/49/14 23/31/14
f 23/31/14 3/42/14 7/29/14
f 7/29/14 11/45/14 15/47/14
f 15/47/14 19/30/14 7/29/14
