# Blender v2.76 (sub 0) OBJ File: 'mp_s_15.blend'
# www.blender.org
o Cube
v 0.093750 1.000000 -1.406250
v 0.093750 1.000000 1.406250
v -0.093750 1.000000 1.406250
v -0.093750 1.000000 -1.406250
v 0.093750 2.500000 -1.125000
v 0.093750 2.500000 1.125001
v -0.093750 2.500000 1.125000
v -0.093750 2.500000 -1.125000
v -1.406250 1.000000 -0.093750
v 1.406250 1.000000 -0.093750
v 1.406250 1.000000 0.093750
v -1.406250 1.000000 0.093750
v -1.125000 2.500000 -0.093750
v 1.125001 2.500000 -0.093750
v 1.125000 2.500000 0.093750
v -1.125000 2.500000 0.093750
vn 0.000000 -1.000000 0.000000
vn 0.000000 1.000000 0.000000
vn 1.000000 0.000000 0.000000
vn -0.000000 0.184300 0.982900
vn -1.000000 -0.000000 0.000000
vn 0.000000 0.184300 -0.982900
vn 0.000000 0.000000 -1.000000
vn 0.982900 0.184300 0.000000
vn -0.000000 -0.000000 1.000000
vn -0.982900 0.184300 -0.000000
s off
f 1//1 2//1 3//1
f 5//2 8//2 7//2
f 5//3 6//3 2//3
f 6//4 7//4 3//4
f 7//5 8//5 4//5
f 1//6 4//6 8//6
f 9//1 10//1 11//1
f 13//2 16//2 15//2
f 13//7 14//7 10//7
f 14//8 15//8 11//8
f 11//9 15//9 16//9
f 9//10 12//10 16//10
f 4//1 1//1 3//1
f 6//2 5//2 7//2
f 1//3 5//3 2//3
f 2//4 6//4 3//4
f 3//5 7//5 4//5
f 5//6 1//6 8//6
f 12//1 9//1 11//1
f 14//2 13//2 15//2
f 9//7 13//7 10//7
f 10//8 14//8 11//8
f 12//9 11//9 16//9
f 13//10 9//10 16//10
