# Blender v2.76 (sub 0) OBJ File: 'mp_s_20.blend'
# www.blender.org
o Cube
v 0.105469 1.000000 -1.582031
v 0.105469 1.000000 1.582031
v -0.105469 1.000000 1.582031
v -0.105469 1.000000 -1.582032
v 0.105469 2.500000 -1.265625
v 0.105469 2.500000 1.265626
v -0.105469 2.500000 1.265625
v -0.105469 2.500000 -1.265625
v -1.582031 1.000000 -0.105469
v 1.582031 1.000000 -0.105469
v 1.582031 1.000000 0.105469
v -1.582032 1.000000 0.105469
v -1.265625 2.500000 -0.105469
v 1.265626 2.500000 -0.105469
v 1.265625 2.500000 0.105469
v -1.265625 2.500000 0.105469
v 0.105469 3.500000 -0.632812
v 0.105469 3.500000 0.632813
v -0.105469 3.500000 -0.632812
v -0.105469 3.500000 0.632812
v -0.632812 3.500000 -0.105469
v 0.632813 3.500000 -0.105469
v -0.632812 3.500000 0.105469
v 0.632812 3.500000 0.105469
vn 0.000000 -1.000000 0.000000
vn -0.845000 0.534700 -0.000000
vn 1.000000 -0.000000 0.000000
vn -0.000000 0.206400 0.978500
vn -1.000000 -0.000000 0.000000
vn 0.000000 0.206400 -0.978500
vn -0.000000 -0.000000 1.000000
vn 0.000000 0.000000 -1.000000
vn 0.978500 0.206400 0.000000
vn -0.978500 0.206400 -0.000000
vn 0.000000 1.000000 0.000000
vn -0.000000 0.534700 0.845000
vn 0.845000 0.534700 0.000000
vn 0.000000 0.534700 -0.845000
s off
f 1//1 2//1 3//1
f 13//2 16//2 23//2
f 5//3 6//3 2//3
f 6//4 7//4 3//4
f 7//5 8//5 4//5
f 1//6 4//6 8//6
f 9//1 10//1 11//1
f 15//7 24//7 23//7
f 13//8 14//8 10//8
f 14//9 15//9 11//9
f 15//7 16//7 12//7
f 9//10 12//10 16//10
f 17//11 19//11 20//11
f 21//11 23//11 24//11
f 7//12 6//12 18//12
f 5//3 17//3 18//3
f 15//13 14//13 22//13
f 7//5 20//5 19//5
f 13//8 21//8 22//8
f 5//14 8//14 19//14
f 4//1 1//1 3//1
f 21//2 13//2 23//2
f 1//3 5//3 2//3
f 2//4 6//4 3//4
f 3//5 7//5 4//5
f 5//6 1//6 8//6
f 12//1 9//1 11//1
f 16//7 15//7 23//7
f 9//8 13//8 10//8
f 10//9 14//9 11//9
f 11//7 15//7 12//7
f 13//10 9//10 16//10
f 18//11 17//11 20//11
f 22//11 21//11 24//11
f 20//12 7//12 18//12
f 6//3 5//3 18//3
f 24//13 15//13 22//13
f 8//5 7//5 19//5
f 14//8 13//8 22//8
f 17//14 5//14 19//14
