# Blender v2.76 (sub 0) OBJ File: 'mp_s_15_thin.blend'
# www.blender.org
o Cube_Cube.001
v -0.031250 1.000000 0.750000
v -0.031250 3.000000 0.750000
v -0.031250 1.000000 -0.750000
v -0.031250 3.000000 -0.750000
v 0.031250 1.000000 0.750000
v 0.031250 3.000000 0.750000
v 0.031250 1.000000 -0.750000
v 0.031250 3.000000 -0.750000
v 0.750000 1.000000 0.031250
v 0.750000 3.000000 0.031250
v -0.750000 1.000000 0.031250
v -0.750000 3.000000 0.031250
v 0.750000 1.000000 -0.031250
v 0.750000 3.000000 -0.031250
v -0.750000 1.000000 -0.031250
v -0.750000 3.000000 -0.031250
v -0.031250 2.500000 -1.250000
v 0.031250 2.500000 -1.250000
v 0.031250 1.000000 -1.500000
v -0.031250 1.000000 -1.500000
v 0.031250 2.500000 1.250000
v -0.031250 2.500000 1.250000
v -0.031250 1.000000 1.500000
v 0.031250 1.000000 1.500000
v 1.250000 2.500000 -0.031250
v 1.250000 2.500000 0.031250
v 1.500000 1.000000 0.031250
v 1.500000 1.000000 -0.031250
v -1.250000 2.500000 0.031250
v -1.250000 2.500000 -0.031250
v -1.500000 1.000000 -0.031250
v -1.500000 1.000000 0.031250
v -0.031250 1.000000 0.687500
v -0.031250 3.000000 0.687500
v 0.031250 3.000000 0.687500
v 0.031250 1.000000 0.687500
v 0.687500 1.000000 0.031250
v 0.687500 3.000000 0.031250
v 0.687500 3.000000 -0.031250
v 0.687500 1.000000 -0.031250
v -0.031250 1.000000 -0.687500
v 0.031250 1.000000 -0.687500
v 0.031250 3.000000 -0.687500
v -0.031250 3.000000 -0.687500
v -0.687500 1.000000 -0.031250
v -0.687500 3.000000 -0.031250
v -0.687500 3.000000 0.031250
v -0.687500 1.000000 0.031250
vn 0.000000 0.164400 -0.986400
vn 0.000000 0.707100 -0.707100
vn 1.000000 0.000000 0.000000
vn 0.000000 -1.000000 0.000000
vn -1.000000 0.000000 0.000000
vn 0.000000 0.164400 0.986400
vn 0.000000 0.707100 0.707100
vn 0.986400 0.164400 0.000000
vn 0.707100 0.707100 0.000000
vn 0.000000 0.000000 1.000000
vn 0.000000 0.000000 -1.000000
vn -0.986400 0.164400 0.000000
vn -0.707100 0.707100 0.000000
vn 0.000000 1.000000 0.000000
s off
f 18//1 19//1 20//1
f 18//2 17//2 4//2
f 7//3 19//3 18//3
f 20//4 19//4 7//4
f 17//5 20//5 3//5
f 22//6 23//6 24//6
f 22//7 21//7 6//7
f 1//5 23//5 22//5
f 24//4 23//4 1//4
f 21//3 24//3 5//3
f 26//8 27//8 28//8
f 26//9 25//9 14//9
f 9//10 27//10 26//10
f 28//4 27//4 9//4
f 25//11 28//11 13//11
f 30//12 31//12 32//12
f 30//13 29//13 12//13
f 15//11 31//11 30//11
f 32//4 31//4 15//4
f 29//10 32//10 11//10
f 34//11 35//11 36//11
f 34//5 33//5 1//5
f 35//14 34//14 2//14
f 36//3 35//3 6//3
f 33//4 36//4 5//4
f 38//5 39//5 40//5
f 38//10 37//10 9//10
f 39//14 38//14 10//14
f 40//11 39//11 14//11
f 37//4 40//4 13//4
f 42//10 43//10 44//10
f 42//4 41//4 3//4
f 43//3 42//3 7//3
f 44//14 43//14 8//14
f 41//5 44//5 4//5
f 46//3 47//3 48//3
f 46//11 45//11 15//11
f 47//14 46//14 16//14
f 48//10 47//10 12//10
f 45//4 48//4 11//4
f 17//1 18//1 20//1
f 8//2 18//2 4//2
f 8//3 7//3 18//3
f 3//4 20//4 7//4
f 4//5 17//5 3//5
f 21//6 22//6 24//6
f 2//7 22//7 6//7
f 2//5 1//5 22//5
f 5//4 24//4 1//4
f 6//3 21//3 5//3
f 25//8 26//8 28//8
f 10//9 26//9 14//9
f 10//10 9//10 26//10
f 13//4 28//4 9//4
f 14//11 25//11 13//11
f 29//12 30//12 32//12
f 16//13 30//13 12//13
f 16//11 15//11 30//11
f 11//4 32//4 15//4
f 12//10 29//10 11//10
f 33//11 34//11 36//11
f 2//5 34//5 1//5
f 6//14 35//14 2//14
f 5//3 36//3 6//3
f 1//4 33//4 5//4
f 37//5 38//5 40//5
f 10//10 38//10 9//10
f 14//14 39//14 10//14
f 13//11 40//11 14//11
f 9//4 37//4 13//4
f 41//10 42//10 44//10
f 7//4 42//4 3//4
f 8//3 43//3 7//3
f 4//14 44//14 8//14
f 3//5 41//5 4//5
f 45//3 46//3 48//3
f 16//11 46//11 15//11
f 12//14 47//14 16//14
f 11//10 48//10 12//10
f 15//4 45//4 11//4
