# Blender v2.76 (sub 0) OBJ File: 'mp_t_10_xenon.blend'
# www.blender.org
o Cylinder
v -0.000000 0.250000 -0.375000
v 0.000000 0.500000 -0.500000
v 0.187500 0.250000 -0.324760
v 0.250000 0.500000 -0.433013
v 0.324760 0.250000 -0.187500
v 0.433013 0.500000 -0.250000
v 0.375000 0.250000 0.000000
v 0.500000 0.500000 0.000000
v 0.324760 0.250000 0.187500
v 0.433013 0.500000 0.250000
v 0.187500 0.250000 0.324760
v 0.250000 0.500000 0.433013
v 0.000000 0.250000 0.375000
v 0.000000 0.500000 0.500000
v -0.187500 0.250000 0.324760
v -0.250000 0.500000 0.433013
v -0.324759 0.250000 0.187500
v -0.433013 0.500000 0.250000
v -0.375000 0.250000 0.000000
v -0.500000 0.500000 0.000000
v -0.324760 0.250000 -0.187500
v -0.433013 0.500000 -0.250000
v -0.187500 0.250000 -0.324759
v -0.250000 0.500000 -0.433013
v 0.000000 0.000000 -0.375000
v 0.187500 0.000000 -0.324760
v 0.324760 0.000000 -0.187500
v 0.375000 0.000000 0.000000
v 0.324760 0.000000 0.187500
v 0.187500 0.000000 0.324760
v 0.000000 0.000000 0.375000
v -0.187500 0.000000 0.324760
v -0.324759 0.000000 0.187500
v -0.375000 0.000000 0.000000
v -0.324760 0.000000 -0.187500
v -0.187500 0.000000 -0.324759
v -0.000000 0.000000 -0.325000
v 0.162500 0.000000 -0.281458
v 0.281458 0.000000 -0.162500
v 0.325000 0.000000 0.000000
v 0.281458 0.000000 0.162500
v 0.162500 0.000000 0.281458
v 0.000000 0.000000 0.325000
v -0.162500 0.000000 0.281458
v -0.281458 0.000000 0.162500
v -0.325000 0.000000 0.000000
v -0.281458 0.000000 -0.162500
v -0.162500 0.000000 -0.281458
v -0.000000 0.000000 -0.175000
v 0.087500 0.000000 -0.151554
v 0.151554 0.000000 -0.087500
v 0.175000 0.000000 0.000000
v 0.151554 0.000000 0.087500
v 0.087500 0.000000 0.151554
v 0.000000 0.000000 0.175000
v -0.087500 0.000000 0.151554
v -0.151554 0.000000 0.087500
v -0.175000 0.000000 0.000000
v -0.151554 0.000000 -0.087500
v -0.087500 0.000000 -0.151554
v 0.162500 0.050000 -0.281458
v -0.000000 0.050000 -0.325000
v 0.281458 0.050000 -0.162500
v 0.325000 0.050000 0.000000
v 0.281458 0.050000 0.162500
v 0.162500 0.050000 0.281458
v 0.000000 0.050000 0.325000
v -0.162500 0.050000 0.281458
v -0.281458 0.050000 0.162500
v -0.325000 0.050000 0.000000
v -0.281458 0.050000 -0.162500
v -0.162500 0.050000 -0.281458
v 0.087500 0.050000 -0.151554
v -0.000000 0.050000 -0.175000
v 0.151554 0.050000 -0.087500
v 0.175000 0.050000 0.000000
v 0.151554 0.050000 0.087500
v 0.087500 0.050000 0.151554
v 0.000000 0.050000 0.175000
v -0.087500 0.050000 0.151554
v -0.151554 0.050000 0.087500
v -0.175000 0.050000 0.000000
v -0.151554 0.050000 -0.087500
v -0.087500 0.050000 -0.151554
vt 0.750000 0.083333
vt 0.666667 0.083333
vt 0.666667 0.000000
vt 0.583333 0.083333
vt 0.583333 -0.000000
vt 0.500000 0.083333
vt 0.500000 -0.000000
vt 0.416667 0.083333
vt 0.333333 0.083333
vt 0.333333 -0.000000
vt 0.250000 0.083333
vt 0.250000 0.000000
vt 0.166667 0.083333
vt 0.083333 0.083333
vt 0.083333 0.000000
vt 0.000000 0.083333
vt 0.000000 -0.000000
vt 1.000000 0.083333
vt 0.916667 0.083333
vt 0.916667 0.000000
vt 0.020833 0.250000
vt 0.166667 0.500000
vt 0.312500 0.250000
vt 0.833333 0.083333
vt 0.750000 -0.000000
vt 0.833333 0.000000
vt 0.625000 0.166667
vt 0.625000 0.083333
vt 0.687500 0.083333
vt 0.437500 0.166667
vt 0.437500 0.083333
vt 0.687500 0.166667
vt 0.000000 0.166667
vt 0.062500 0.083333
vt 0.062500 0.166667
vt 0.125000 0.083333
vt 0.125000 0.166667
vt 0.187500 0.083333
vt 0.187500 0.166667
vt 0.250000 0.166667
vt 0.312500 0.083333
vt 0.312500 0.166667
vt 0.375000 0.083333
vt 0.562500 0.166667
vt 0.562500 0.083333
vt 0.500000 0.166667
vt 0.375000 0.166667
vt 0.395833 0.395833
vt 0.354167 0.354167
vt 0.375000 0.354167
vt 0.333333 0.291667
vt 0.354167 0.291667
vt 0.354167 0.229167
vt 0.375000 0.229167
vt 0.395833 0.187500
vt 0.395833 0.208333
vt 0.458333 0.166667
vt 0.458333 0.187500
vt 0.520833 0.187500
vt 0.520833 0.208333
vt 0.562500 0.229167
vt 0.541667 0.229167
vt 0.583333 0.291667
vt 0.562500 0.291667
vt 0.562500 0.354167
vt 0.541667 0.354167
vt 0.520833 0.395833
vt 0.520833 0.375000
vt 0.458333 0.416667
vt 0.458333 0.395833
vt 0.395833 0.375000
vt 0.250000 0.104167
vt 0.125000 0.520833
vt 0.125000 0.500000
vt 0.416667 0.520833
vt 0.416667 0.500000
vt 0.458333 0.500000
vt 0.312500 0.104167
vt 0.625000 0.104167
vt 0.500000 0.291667
vt 0.416667 0.291667
vt 0.437500 0.333333
vt 0.375000 0.520833
vt 0.375000 0.500000
vt 0.375000 0.104167
vt 0.687500 0.104167
vt 0.333333 0.520833
vt 0.333333 0.500000
vt 0.437500 0.104167
vt 0.000000 0.104167
vt 0.291667 0.520833
vt 0.291667 0.500000
vt 0.770833 0.250000
vt 0.812500 0.208333
vt 0.833333 0.229167
vt 0.750000 0.187500
vt 0.812500 0.187500
vt 0.770833 0.125000
vt 0.812500 0.166667
vt 0.791667 0.104167
vt 0.833333 0.145833
vt 0.854167 0.083333
vt 0.854167 0.145833
vt 0.916667 0.104167
vt 0.875000 0.145833
vt 0.937500 0.125000
vt 0.895833 0.166667
vt 0.958333 0.187500
vt 0.895833 0.187500
vt 0.937500 0.250000
vt 0.895833 0.208333
vt 0.916667 0.270833
vt 0.875000 0.229167
vt 0.854167 0.291667
vt 0.854167 0.229167
vt 0.791667 0.270833
vt 0.458333 0.520833
vt 0.500000 0.500000
vt 0.166667 0.520833
vt 0.208333 0.500000
vt 0.187500 0.104167
vt -0.000000 0.520833
vt -0.000000 0.500000
vt 0.041667 0.500000
vt 0.208333 0.520833
vt 0.250000 0.500000
vt 0.125000 0.104167
vt 0.041667 0.520833
vt 0.083333 0.500000
vt 0.562500 0.104167
vt 0.250000 0.520833
vt 0.062500 0.104167
vt 0.083333 0.520833
vt 0.500000 0.104167
vt 0.416667 -0.000000
vt 0.166667 0.000000
vt 1.000000 -0.000000
vt 0.250000 0.187500
vt 0.166667 0.166667
vt 0.083333 0.187500
vt -0.000000 0.333333
vt 0.020833 0.416667
vt 0.083333 0.479167
vt 0.250000 0.479167
vt 0.312500 0.416667
vt 0.333333 0.333333
vt 0.750000 0.166667
vt 0.458333 0.333333
vt 0.479167 0.333333
vt 0.500000 0.312500
vt 0.500000 0.270833
vt 0.479167 0.250000
vt 0.458333 0.250000
vt 0.437500 0.250000
vt 0.416667 0.270833
vt 0.416667 0.312500
vt 0.750000 0.104167
vt 0.500000 0.520833
vn 0.233100 -0.434900 -0.869800
vn 0.636700 -0.434900 -0.636700
vn 0.869800 -0.434900 -0.233100
vn 0.869800 -0.434900 0.233100
vn 0.636700 -0.434900 0.636700
vn 0.233100 -0.434900 0.869800
vn -0.233100 -0.434900 0.869800
vn -0.636700 -0.434900 0.636700
vn -0.869800 -0.434900 0.233100
vn -0.869800 -0.434900 -0.233100
vn 0.000000 1.000000 0.000000
vn -0.233100 -0.434900 -0.869800
vn -0.636700 -0.434900 -0.636700
vn -0.707100 0.000000 -0.707100
vn 0.707100 0.000000 -0.707100
vn -0.965900 0.000000 -0.258800
vn -0.965900 0.000000 0.258800
vn -0.707100 0.000000 0.707100
vn -0.258800 0.000000 0.965900
vn 0.258800 0.000000 0.965900
vn 0.707100 0.000000 0.707100
vn 0.965900 0.000000 0.258800
vn -0.258800 0.000000 -0.965900
vn 0.258800 0.000000 -0.965900
vn 0.965900 0.000000 -0.258800
vn 0.000000 -1.000000 0.000000
s off
f 2/1/1 4/2/1 3/3/1
f 4/2/2 6/4/2 5/5/2
f 5/5/3 6/4/3 8/6/3
f 7/7/4 8/6/4 10/8/4
f 10/8/5 12/9/5 11/10/5
f 12/9/6 14/11/6 13/12/6
f 13/12/7 14/11/7 16/13/7
f 16/13/8 18/14/8 17/15/8
f 18/14/9 20/16/9 19/17/9
f 20/18/10 22/19/10 21/20/10
f 22/21/11 14/22/11 6/23/11
f 24/24/12 2/1/12 1/25/12
f 22/19/13 24/24/13 23/26/13
f 23/27/14 36/28/14 35/29/14
f 5/30/15 27/31/15 26/6/15
f 21/32/16 35/29/16 34/1/16
f 19/33/17 34/16/17 33/34/17
f 17/35/18 33/34/18 32/36/18
f 15/37/19 32/36/19 31/38/19
f 13/39/20 31/38/20 30/11/20
f 11/40/21 30/11/21 29/41/21
f 9/42/22 29/41/22 28/43/22
f 1/44/23 25/45/23 36/28/23
f 3/46/24 26/6/24 25/45/24
f 7/47/25 28/43/25 27/31/25
f 32/48/26 33/49/26 45/50/26
f 33/49/26 34/51/26 46/52/26
f 35/53/26 47/54/26 46/52/26
f 36/55/26 48/56/26 47/54/26
f 25/57/26 37/58/26 48/56/26
f 25/57/26 26/59/26 38/60/26
f 26/59/26 27/61/26 39/62/26
f 27/61/26 28/63/26 40/64/26
f 29/65/26 41/66/26 40/64/26
f 30/67/26 42/68/26 41/66/26
f 31/69/26 43/70/26 42/68/26
f 32/48/26 44/71/26 43/70/26
f 43/72/23 67/11/23 66/41/23
f 49/73/24 74/74/24 73/22/24
f 56/75/18 80/76/18 81/77/18
f 42/78/14 66/41/14 65/43/14
f 37/79/20 62/28/20 72/29/20
f 53/80/26 59/81/26 49/82/26
f 55/83/19 79/84/19 80/76/19
f 41/85/16 65/43/16 64/31/16
f 48/86/21 72/29/21 71/1/21
f 54/87/20 78/88/20 79/84/20
f 40/89/17 64/31/17 63/6/17
f 47/90/22 71/16/22 70/34/22
f 53/91/21 77/92/21 78/88/21
f 69/93/26 81/94/26 80/95/26
f 69/93/26 70/96/26 82/97/26
f 71/98/26 83/99/26 82/97/26
f 72/100/26 84/101/26 83/99/26
f 62/102/26 74/103/26 84/101/26
f 61/104/26 73/105/26 74/103/26
f 61/104/26 63/106/26 75/107/26
f 64/108/26 76/109/26 75/107/26
f 65/110/26 77/111/26 76/109/26
f 66/112/26 78/113/26 77/111/26
f 67/114/26 79/115/26 78/113/26
f 68/116/26 80/95/26 79/115/26
f 57/117/17 81/77/17 82/118/17
f 50/119/15 73/22/15 75/120/15
f 44/121/24 68/38/24 67/11/24
f 58/122/16 82/123/16 83/124/16
f 51/125/25 75/120/25 76/126/25
f 45/127/15 69/36/15 68/38/15
f 59/128/14 83/124/14 84/129/14
f 38/130/19 61/45/19 62/28/19
f 52/131/22 76/126/22 77/92/22
f 46/132/25 70/34/25 69/36/25
f 60/133/23 84/129/23 74/74/23
f 39/134/18 63/6/18 61/45/18
f 1/25/1 2/1/1 3/3/1
f 3/3/2 4/2/2 5/5/2
f 7/7/3 5/5/3 8/6/3
f 9/135/4 7/7/4 10/8/4
f 9/135/5 10/8/5 11/10/5
f 11/10/6 12/9/6 13/12/6
f 15/136/7 13/12/7 16/13/7
f 15/136/8 16/13/8 17/15/8
f 17/15/9 18/14/9 19/17/9
f 19/137/10 20/18/10 21/20/10
f 6/23/11 4/138/11 2/139/11
f 2/139/11 24/140/11 22/21/11
f 22/21/11 20/141/11 18/142/11
f 18/142/11 16/143/11 14/22/11
f 14/22/11 12/144/11 10/145/11
f 10/145/11 8/146/11 6/23/11
f 6/23/11 2/139/11 22/21/11
f 22/21/11 18/142/11 14/22/11
f 14/22/11 10/145/11 6/23/11
f 23/26/12 24/24/12 1/25/12
f 21/20/13 22/19/13 23/26/13
f 21/32/14 23/27/14 35/29/14
f 3/46/15 5/30/15 26/6/15
f 19/147/16 21/32/16 34/1/16
f 17/35/17 19/33/17 33/34/17
f 15/37/18 17/35/18 32/36/18
f 13/39/19 15/37/19 31/38/19
f 11/40/20 13/39/20 30/11/20
f 9/42/21 11/40/21 29/41/21
f 7/47/22 9/42/22 28/43/22
f 23/27/23 1/44/23 36/28/23
f 1/44/24 3/46/24 25/45/24
f 5/30/25 7/47/25 27/31/25
f 44/71/26 32/48/26 45/50/26
f 45/50/26 33/49/26 46/52/26
f 34/51/26 35/53/26 46/52/26
f 35/53/26 36/55/26 47/54/26
f 36/55/26 25/57/26 48/56/26
f 37/58/26 25/57/26 38/60/26
f 38/60/26 26/59/26 39/62/26
f 39/62/26 27/61/26 40/64/26
f 28/63/26 29/65/26 40/64/26
f 29/65/26 30/67/26 41/66/26
f 30/67/26 31/69/26 42/68/26
f 31/69/26 32/48/26 43/70/26
f 42/78/23 43/72/23 66/41/23
f 50/119/24 49/73/24 73/22/24
f 57/117/18 56/75/18 81/77/18
f 41/85/14 42/78/14 65/43/14
f 48/86/20 37/79/20 72/29/20
f 49/82/26 50/148/26 53/80/26
f 51/149/26 52/150/26 53/80/26
f 53/80/26 54/151/26 55/152/26
f 55/152/26 56/153/26 53/80/26
f 57/154/26 58/155/26 59/81/26
f 59/81/26 60/156/26 49/82/26
f 50/148/26 51/149/26 53/80/26
f 53/80/26 56/153/26 57/154/26
f 57/154/26 59/81/26 53/80/26
f 56/75/19 55/83/19 80/76/19
f 40/89/16 41/85/16 64/31/16
f 47/157/21 48/86/21 71/1/21
f 55/83/20 54/87/20 79/84/20
f 39/134/17 40/89/17 63/6/17
f 46/132/22 47/90/22 70/34/22
f 54/87/21 53/91/21 78/88/21
f 68/116/26 69/93/26 80/95/26
f 81/94/26 69/93/26 82/97/26
f 70/96/26 71/98/26 82/97/26
f 71/98/26 72/100/26 83/99/26
f 72/100/26 62/102/26 84/101/26
f 62/102/26 61/104/26 74/103/26
f 73/105/26 61/104/26 75/107/26
f 63/106/26 64/108/26 75/107/26
f 64/108/26 65/110/26 76/109/26
f 65/110/26 66/112/26 77/111/26
f 66/112/26 67/114/26 78/113/26
f 67/114/26 68/116/26 79/115/26
f 58/158/17 57/117/17 82/118/17
f 51/125/15 50/119/15 75/120/15
f 43/72/24 44/121/24 67/11/24
f 59/128/16 58/122/16 83/124/16
f 52/131/25 51/125/25 76/126/25
f 44/121/15 45/127/15 68/38/15
f 60/133/14 59/128/14 84/129/14
f 37/79/19 38/130/19 62/28/19
f 53/91/22 52/131/22 77/92/22
f 45/127/25 46/132/25 69/36/25
f 49/73/23 60/133/23 74/74/23
f 38/130/18 39/134/18 61/45/18
