# Blender v2.76 (sub 0) OBJ File: 'mp_t_15_balefire_large.blend'
# www.blender.org
o Cylinder
v 0.000000 2.875000 -0.750000
v 0.000000 3.000000 -0.750000
v 0.375000 2.875000 -0.649519
v 0.375000 3.000000 -0.649519
v 0.649519 2.875000 -0.375000
v 0.649519 3.000000 -0.375000
v 0.750000 2.875000 0.000000
v 0.750000 3.000000 0.000000
v 0.649519 2.875000 0.375000
v 0.649519 3.000000 0.375000
v 0.375000 2.875000 0.649519
v 0.375000 3.000000 0.649519
v 0.000000 2.875000 0.750000
v 0.000000 3.000000 0.750000
v -0.375000 2.875000 0.649519
v -0.375000 3.000000 0.649519
v -0.649519 2.875000 0.375000
v -0.649519 3.000000 0.375000
v -0.750000 2.875000 0.000000
v -0.750000 3.000000 0.000000
v -0.649519 2.875000 -0.375000
v -0.649519 3.000000 -0.375000
v -0.375000 2.875000 -0.649519
v -0.375000 3.000000 -0.649519
v -0.000000 1.500000 -0.637500
v -0.000000 2.750000 -0.637500
v 0.318750 1.500000 -0.552091
v 0.318750 2.750000 -0.552091
v 0.552091 1.500000 -0.318750
v 0.552091 2.750000 -0.318750
v 0.637500 1.500000 0.000000
v 0.637500 2.750000 0.000000
v 0.552091 1.500000 0.318750
v 0.552091 2.750000 0.318750
v 0.318750 1.500000 0.552091
v 0.318750 2.750000 0.552091
v 0.000000 1.500000 0.637500
v 0.000000 2.750000 0.637500
v -0.318750 1.500000 0.552091
v -0.318750 2.750000 0.552091
v -0.552091 1.500000 0.318750
v -0.552091 2.750000 0.318750
v -0.637500 1.500000 0.000000
v -0.637500 2.750000 0.000000
v -0.552091 1.500000 -0.318750
v -0.552091 2.750000 -0.318750
v -0.318750 1.500000 -0.552091
v -0.318750 2.750000 -0.552091
v -0.318750 0.125000 -0.552091
v -0.552091 0.125000 -0.318750
v -0.637500 0.125000 0.000000
v -0.552091 0.125000 0.318750
v -0.318750 0.125000 0.552091
v 0.000000 0.125000 0.637500
v 0.318750 0.125000 0.552091
v 0.552091 0.125000 0.318750
v 0.637500 0.125000 0.000000
v 0.552091 0.125000 -0.318750
v 0.318750 0.125000 -0.552091
v -0.000000 0.125000 -0.637500
v 0.270938 2.875000 -0.469278
v -0.000000 2.875000 -0.541875
v 0.469278 2.875000 -0.270937
v 0.541875 2.875000 0.000000
v 0.469278 2.875000 0.270938
v 0.270938 2.875000 0.469278
v 0.000000 2.875000 0.541875
v -0.270937 2.875000 0.469278
v -0.469278 2.875000 0.270938
v -0.541875 2.875000 0.000000
v -0.469278 2.875000 -0.270937
v -0.270938 2.875000 -0.469277
v -0.000000 1.250000 -0.318750
v 0.159375 1.250000 -0.276046
v 0.276046 1.250000 -0.159375
v 0.318750 1.250000 0.000000
v 0.276046 1.250000 0.159375
v 0.159375 1.250000 0.276046
v 0.000000 1.250000 0.318750
v -0.159375 1.250000 0.276046
v -0.276046 1.250000 0.159375
v -0.318750 1.250000 0.000000
v -0.276046 1.250000 -0.159375
v -0.159375 1.250000 -0.276045
v -0.000000 0.725000 -0.541875
v 0.270937 0.725000 -0.469278
v 0.469277 0.725000 -0.270937
v 0.541875 0.725000 0.000000
v 0.469277 0.725000 0.270938
v 0.270938 0.725000 0.469278
v 0.000000 0.725000 0.541875
v -0.270937 0.725000 0.469278
v -0.469278 0.725000 0.270938
v -0.541875 0.725000 0.000000
v -0.469278 0.725000 -0.270937
v -0.270938 0.725000 -0.469277
v -0.270938 0.125000 -0.469277
v -0.000000 0.125000 -0.541875
v -0.469278 0.125000 -0.270937
v -0.541875 0.125000 0.000000
v -0.469278 0.125000 0.270938
v -0.270937 0.125000 0.469278
v 0.000000 0.125000 0.541875
v 0.270938 0.125000 0.469278
v 0.469278 0.125000 0.270938
v 0.541875 0.125000 0.000000
v 0.469278 0.125000 -0.270937
v 0.270938 0.125000 -0.469278
v -0.270938 0.000000 -0.469277
v -0.000000 0.000000 -0.541875
v -0.469278 0.000000 -0.270937
v -0.541875 0.000000 0.000000
v -0.469278 0.000000 0.270938
v -0.270937 0.000000 0.469278
v 0.000000 0.000000 0.541875
v 0.270938 0.000000 0.469278
v 0.469278 0.000000 0.270938
v 0.541875 0.000000 0.000000
v 0.469278 0.000000 -0.270937
v 0.270938 0.000000 -0.469278
v -0.176110 0.000000 -0.305030
v -0.000000 0.000000 -0.352219
v -0.305031 0.000000 -0.176109
v -0.352219 0.000000 0.000000
v -0.305030 0.000000 0.176110
v -0.176109 0.000000 0.305030
v 0.000000 0.000000 0.352219
v 0.176109 0.000000 0.305030
v 0.305030 0.000000 0.176109
v 0.352219 0.000000 0.000000
v 0.305030 0.000000 -0.176109
v 0.176109 0.000000 -0.305030
v -0.088055 1.000000 -0.152515
v 0.000000 1.000000 -0.176109
v -0.152515 1.000000 -0.088055
v -0.176109 1.000000 0.000000
v -0.152515 1.000000 0.088055
v -0.088055 1.000000 0.152515
v 0.000000 1.000000 0.176109
v 0.088055 1.000000 0.152515
v 0.152515 1.000000 0.088055
v 0.176109 1.000000 0.000000
v 0.152515 1.000000 -0.088055
v 0.088055 1.000000 -0.152515
vn 0.258800 0.000000 -0.965900
vn 0.707100 0.000000 -0.707100
vn 0.965900 0.000000 -0.258800
vn 0.965900 0.000000 0.258800
vn 0.707100 0.000000 0.707100
vn 0.258800 0.000000 0.965900
vn -0.258800 0.000000 0.965900
vn -0.707100 0.000000 0.707100
vn -0.965900 0.000000 0.258800
vn -0.965900 0.000000 -0.258800
vn 0.000000 1.000000 0.000000
vn -0.258800 0.000000 -0.965900
vn -0.707100 0.000000 -0.707100
vn 0.000000 -1.000000 0.000000
vn 0.568700 0.594300 0.568700
vn 0.776800 0.594300 0.208200
vn -0.208200 0.594300 -0.776800
vn 0.208200 0.594300 -0.776800
vn 0.776800 0.594300 -0.208200
vn -0.568700 0.594300 -0.568700
vn 0.568700 0.594300 -0.568700
vn -0.776800 0.594300 -0.208200
vn -0.776800 0.594300 0.208200
vn -0.568700 0.594300 0.568700
vn -0.208200 0.594300 0.776800
vn 0.208200 0.594300 0.776800
vn -0.445700 -0.776300 -0.445700
vn -0.654100 0.379800 -0.654100
vn 0.445700 -0.776300 -0.445700
vn -0.608900 -0.776300 -0.163100
vn -0.608900 -0.776300 0.163100
vn -0.445700 -0.776300 0.445700
vn -0.163100 -0.776300 0.608900
vn 0.163100 -0.776300 0.608900
vn 0.445700 -0.776300 0.445700
vn 0.608900 -0.776300 0.163100
vn -0.163100 -0.776300 -0.608900
vn 0.163100 -0.776300 -0.608900
vn 0.608900 -0.776300 -0.163100
vn -0.255800 0.152200 0.954700
vn 0.239400 0.379800 -0.893600
vn -0.654100 0.379800 0.654100
vn 0.654100 0.379800 0.654100
vn -0.239400 0.379800 -0.893600
vn 0.654100 0.379800 -0.654100
vn -0.893600 0.379800 0.239400
vn 0.239400 0.379800 0.893600
vn 0.893600 0.379800 -0.239400
vn -0.893600 0.379800 -0.239400
vn -0.239400 0.379800 0.893600
vn 0.893600 0.379800 0.239400
vn 0.255800 0.152200 0.954700
vn 0.698900 0.152200 0.698900
vn 0.954700 0.152200 0.255800
vn 0.954700 0.152200 -0.255800
vn 0.698900 0.152200 -0.698900
vn 0.255800 0.152200 -0.954700
vn -0.255800 0.152200 -0.954700
vn -0.698900 0.152200 -0.698900
vn -0.954700 0.152200 -0.255800
vn -0.954700 0.152200 0.255800
vn -0.698900 0.152200 0.698900
vn 0.952200 -0.167700 -0.255200
vn -0.697100 -0.167700 0.697100
vn 0.255200 -0.167700 0.952200
vn -0.697100 -0.167700 -0.697100
vn 0.697100 -0.167700 -0.697100
vn -0.255200 -0.167700 0.952200
vn 0.697100 -0.167700 0.697100
vn -0.952200 -0.167700 -0.255200
vn 0.255200 -0.167700 -0.952200
vn 0.952200 -0.167700 0.255200
vn -0.952200 -0.167700 0.255200
vn -0.255200 -0.167700 -0.952200
s off
f 2//1 4//1 3//1
f 4//2 6//2 5//2
f 6//3 8//3 7//3
f 8//4 10//4 9//4
f 10//5 12//5 11//5
f 12//6 14//6 13//6
f 14//7 16//7 15//7
f 16//8 18//8 17//8
f 18//9 20//9 19//9
f 20//10 22//10 21//10
f 22//11 14//11 6//11
f 24//12 2//12 1//12
f 22//13 24//13 23//13
f 7//14 15//14 23//14
f 26//1 28//1 27//1
f 28//2 30//2 29//2
f 30//3 32//3 31//3
f 32//4 34//4 33//4
f 34//5 36//5 35//5
f 36//6 38//6 37//6
f 38//7 40//7 39//7
f 40//8 42//8 41//8
f 42//9 44//9 43//9
f 44//10 46//10 45//10
f 34//15 65//15 66//15
f 48//12 26//12 25//12
f 46//13 48//13 47//13
f 52//14 101//14 102//14
f 34//16 32//16 64//16
f 48//17 72//17 62//17
f 28//18 26//18 62//18
f 30//19 63//19 64//19
f 48//20 46//20 71//20
f 30//21 28//21 61//21
f 44//22 70//22 71//22
f 42//23 69//23 70//23
f 40//24 68//24 69//24
f 38//25 67//25 68//25
f 36//26 66//26 67//26
f 45//27 47//27 84//27
f 84//28 96//28 95//28
f 29//29 75//29 74//29
f 45//30 83//30 82//30
f 41//31 43//31 82//31
f 39//32 41//32 81//32
f 37//33 39//33 80//33
f 37//34 79//34 78//34
f 35//35 78//35 77//35
f 33//36 77//36 76//36
f 25//37 73//37 84//37
f 27//38 74//38 73//38
f 31//39 76//39 75//39
f 53//40 54//40 91//40
f 73//41 74//41 86//41
f 81//42 93//42 92//42
f 78//43 90//43 89//43
f 73//44 85//44 96//44
f 74//45 75//45 87//45
f 82//46 94//46 93//46
f 79//47 91//47 90//47
f 75//48 76//48 88//48
f 83//49 95//49 94//49
f 80//50 92//50 91//50
f 76//51 77//51 89//51
f 55//52 90//52 91//52
f 55//53 56//53 89//53
f 57//54 88//54 89//54
f 57//55 58//55 87//55
f 59//56 86//56 87//56
f 60//57 85//57 86//57
f 49//58 96//58 85//58
f 50//59 95//59 96//59
f 51//60 94//60 95//60
f 52//61 93//61 94//61
f 53//62 92//62 93//62
f 107//2 119//2 120//2
f 59//14 108//14 98//14
f 50//14 49//14 97//14
f 56//14 105//14 106//14
f 53//14 102//14 103//14
f 51//14 50//14 99//14
f 57//14 106//14 107//14
f 54//14 103//14 104//14
f 51//14 100//14 101//14
f 58//14 107//14 108//14
f 60//14 98//14 97//14
f 55//14 104//14 105//14
f 112//14 124//14 125//14
f 98//12 110//12 109//12
f 104//5 116//5 117//5
f 101//8 113//8 114//8
f 108//1 120//1 110//1
f 97//13 109//13 111//13
f 105//4 117//4 118//4
f 102//7 114//7 115//7
f 99//10 111//10 112//10
f 106//3 118//3 119//3
f 103//6 115//6 116//6
f 100//9 112//9 113//9
f 125//63 124//63 136//63
f 119//14 131//14 132//14
f 109//14 110//14 122//14
f 116//14 128//14 129//14
f 114//14 113//14 125//14
f 120//14 132//14 122//14
f 111//14 109//14 121//14
f 117//14 129//14 130//14
f 115//14 114//14 126//14
f 112//14 111//14 123//14
f 118//14 130//14 131//14
f 115//14 127//14 128//14
f 143//14 139//14 135//14
f 132//64 131//64 143//64
f 122//65 134//65 133//65
f 128//66 140//66 141//66
f 125//67 137//67 138//67
f 122//68 132//68 144//68
f 121//69 133//69 135//69
f 129//70 141//70 142//70
f 126//71 138//71 139//71
f 123//72 135//72 136//72
f 130//73 142//73 143//73
f 127//74 139//74 140//74
f 1//1 2//1 3//1
f 3//2 4//2 5//2
f 5//3 6//3 7//3
f 7//4 8//4 9//4
f 9//5 10//5 11//5
f 11//6 12//6 13//6
f 13//7 14//7 15//7
f 15//8 16//8 17//8
f 17//9 18//9 19//9
f 19//10 20//10 21//10
f 6//11 4//11 22//11
f 2//11 24//11 22//11
f 22//11 20//11 18//11
f 18//11 16//11 22//11
f 14//11 12//11 10//11
f 10//11 8//11 14//11
f 4//11 2//11 22//11
f 22//11 16//11 14//11
f 14//11 8//11 6//11
f 23//12 24//12 1//12
f 21//13 22//13 23//13
f 23//14 1//14 3//14
f 3//14 5//14 23//14
f 7//14 9//14 11//14
f 11//14 13//14 7//14
f 15//14 17//14 19//14
f 19//14 21//14 15//14
f 23//14 5//14 7//14
f 7//14 13//14 15//14
f 15//14 21//14 23//14
f 25//1 26//1 27//1
f 27//2 28//2 29//2
f 29//3 30//3 31//3
f 31//4 32//4 33//4
f 33//5 34//5 35//5
f 35//6 36//6 37//6
f 37//7 38//7 39//7
f 39//8 40//8 41//8
f 41//9 42//9 43//9
f 43//10 44//10 45//10
f 36//15 34//15 66//15
f 47//12 48//12 25//12
f 45//13 46//13 47//13
f 53//14 52//14 102//14
f 65//16 34//16 64//16
f 26//17 48//17 62//17
f 61//18 28//18 62//18
f 32//19 30//19 64//19
f 72//20 48//20 71//20
f 63//21 30//21 61//21
f 46//22 44//22 71//22
f 44//23 42//23 70//23
f 42//24 40//24 69//24
f 40//25 38//25 68//25
f 38//26 36//26 67//26
f 83//27 45//27 84//27
f 83//28 84//28 95//28
f 27//29 29//29 74//29
f 43//30 45//30 82//30
f 81//31 41//31 82//31
f 80//32 39//32 81//32
f 79//33 37//33 80//33
f 35//34 37//34 78//34
f 33//35 35//35 77//35
f 31//36 33//36 76//36
f 47//37 25//37 84//37
f 25//38 27//38 73//38
f 29//39 31//39 75//39
f 92//40 53//40 91//40
f 85//41 73//41 86//41
f 80//42 81//42 92//42
f 77//43 78//43 89//43
f 84//44 73//44 96//44
f 86//45 74//45 87//45
f 81//46 82//46 93//46
f 78//47 79//47 90//47
f 87//48 75//48 88//48
f 82//49 83//49 94//49
f 79//50 80//50 91//50
f 88//51 76//51 89//51
f 54//52 55//52 91//52
f 90//53 55//53 89//53
f 56//54 57//54 89//54
f 88//55 57//55 87//55
f 58//56 59//56 87//56
f 59//57 60//57 86//57
f 60//58 49//58 85//58
f 49//59 50//59 96//59
f 50//60 51//60 95//60
f 51//61 52//61 94//61
f 52//62 53//62 93//62
f 108//2 107//2 120//2
f 60//14 59//14 98//14
f 99//14 50//14 97//14
f 57//14 56//14 106//14
f 54//14 53//14 103//14
f 100//14 51//14 99//14
f 58//14 57//14 107//14
f 55//14 54//14 104//14
f 52//14 51//14 101//14
f 59//14 58//14 108//14
f 49//14 60//14 97//14
f 56//14 55//14 105//14
f 113//14 112//14 125//14
f 97//12 98//12 109//12
f 105//5 104//5 117//5
f 102//8 101//8 114//8
f 98//1 108//1 110//1
f 99//13 97//13 111//13
f 106//4 105//4 118//4
f 103//7 102//7 115//7
f 100//10 99//10 112//10
f 107//3 106//3 119//3
f 104//6 103//6 116//6
f 101//9 100//9 113//9
f 137//63 125//63 136//63
f 120//14 119//14 132//14
f 121//14 109//14 122//14
f 117//14 116//14 129//14
f 126//14 114//14 125//14
f 110//14 120//14 122//14
f 123//14 111//14 121//14
f 118//14 117//14 130//14
f 127//14 115//14 126//14
f 124//14 112//14 123//14
f 119//14 118//14 131//14
f 116//14 115//14 128//14
f 135//14 133//14 134//14
f 134//14 144//14 143//14
f 143//14 142//14 141//14
f 141//14 140//14 143//14
f 139//14 138//14 135//14
f 137//14 136//14 135//14
f 135//14 134//14 143//14
f 143//14 140//14 139//14
f 138//14 137//14 135//14
f 144//64 132//64 143//64
f 121//65 122//65 133//65
f 129//66 128//66 141//66
f 126//67 125//67 138//67
f 134//68 122//68 144//68
f 123//69 121//69 135//69
f 130//70 129//70 142//70
f 127//71 126//71 139//71
f 124//72 123//72 136//72
f 131//73 130//73 143//73
f 128//74 127//74 140//74
