# Blender v2.76 (sub 0) OBJ File: 'mp_w_10_in.blend'
# www.blender.org
o Cone
v -0.000000 0.250000 -0.375000
v 0.000000 2.500000 0.000000
v 0.187500 0.250000 -0.324760
v 0.324760 0.250000 -0.187500
v 0.375000 0.250000 0.000000
v 0.324760 0.250000 0.187500
v 0.187500 0.250000 0.324760
v 0.000000 0.250000 0.375000
v -0.187500 0.250000 0.324760
v -0.324759 0.250000 0.187500
v -0.375000 0.250000 0.000000
v -0.324760 0.250000 -0.187500
v -0.187500 0.250000 -0.324759
v 0.000000 0.000000 -0.500000
v 0.250000 0.000000 -0.433013
v 0.433013 0.000000 -0.250000
v 0.500000 0.000000 0.000000
v 0.433013 0.000000 0.250000
v 0.250000 0.000000 0.433013
v 0.000000 0.000000 0.500000
v -0.250000 0.000000 0.433013
v -0.433013 0.000000 0.250000
v -0.500000 0.000000 0.000000
v -0.433013 0.000000 -0.250000
v -0.250000 0.000000 -0.433013
v 0.000000 0.125000 -0.475000
v 0.237500 0.125000 -0.411362
v 0.411362 0.125000 -0.237500
v 0.475000 0.125000 0.000000
v 0.411362 0.125000 0.237500
v 0.237500 0.125000 0.411362
v 0.000000 0.125000 0.475000
v -0.237500 0.125000 0.411362
v -0.411362 0.125000 0.237500
v -0.475000 0.125000 0.000000
v -0.411362 0.125000 -0.237500
v -0.237500 0.125000 -0.411362
vt 0.634615 0.096154
vt 0.596154 0.788462
vt 0.576923 0.096154
vt 0.519231 0.096154
vt 0.480769 0.788462
vt 0.461538 0.096154
vt 0.692308 0.096154
vt 0.653846 0.788462
vt 0.057692 0.096154
vt 0.019231 0.788462
vt 0.000000 0.096154
vt 0.115385 0.096154
vt 0.076923 0.788462
vt 0.173077 0.096154
vt 0.134615 0.788462
vt 0.230769 0.096154
vt 0.192308 0.788462
vt 0.288462 0.096154
vt 0.250000 0.788462
vt 0.346154 0.096154
vt 0.307692 0.788462
vt 0.403846 0.096154
vt 0.365385 0.788462
vt 0.538462 0.788462
vt 0.423077 0.788462
vt 0.384615 0.096154
vt 0.384615 0.038462
vt 0.461538 0.038462
vt 0.846154 0.096154
vt 0.846154 0.403846
vt 0.980769 0.326923
vt 0.538462 0.038462
vt 0.538462 0.096154
vt 0.384615 0.000000
vt 0.307692 0.038462
vt 0.692308 0.000000
vt 0.769231 -0.000000
vt 0.769231 0.038462
vt 0.615385 0.000000
vt 0.615385 0.038462
vt 0.076923 -0.000000
vt 0.076923 0.038462
vt -0.000000 0.038462
vt 0.307692 0.000000
vt 0.230769 0.038462
vt 0.538462 0.000000
vt 0.923077 0.000000
vt 0.923077 0.038462
vt 0.846154 0.038462
vt 0.230769 0.000000
vt 0.153846 0.038462
vt 0.461538 0.000000
vt 0.846154 -0.000000
vt 0.692308 0.038462
vt 0.153846 0.000000
vt 0.769231 0.096154
vt 0.923077 0.096154
vt 0.076923 0.096154
vt 0.153846 0.096154
vt 1.000000 0.250000
vt 0.980769 0.173077
vt 0.923077 0.115385
vt 0.769231 0.115385
vt 0.711538 0.173077
vt 0.692308 0.250000
vt 0.711538 0.326923
vt 0.769231 0.384615
vt 0.923077 0.384615
vt -0.000000 0.000000
vt 0.615385 0.096154
vt 0.307692 0.096154
vn -0.698100 0.158900 -0.698100
vn 0.255500 0.158900 -0.953600
vn -0.953600 0.158900 -0.255500
vn -0.953600 0.158900 0.255500
vn -0.698100 0.158900 0.698100
vn -0.255500 0.158900 0.953600
vn 0.255500 0.158900 0.953600
vn 0.698100 0.158900 0.698100
vn 0.953600 0.158900 0.255500
vn 0.953600 0.158900 -0.255500
vn -0.255500 0.158900 -0.953600
vn 0.698100 0.158900 -0.698100
vn 0.764300 0.611500 0.204800
vn 0.000000 -1.000000 0.000000
vn 0.764300 0.611500 -0.204800
vn 0.694300 0.189700 0.694300
vn -0.254100 0.189700 -0.948400
vn 0.694300 0.189700 -0.694300
vn -0.948400 0.189700 0.254100
vn 0.254100 0.189700 0.948400
vn 0.948400 0.189700 -0.254100
vn -0.948400 0.189700 -0.254100
vn -0.254100 0.189700 0.948400
vn 0.948400 0.189700 0.254100
vn -0.694300 0.189700 -0.694300
vn 0.254100 0.189700 -0.948400
vn -0.694300 0.189700 0.694300
vn 0.559500 0.611500 -0.559500
vn 0.204800 0.611500 -0.764300
vn -0.204800 0.611500 -0.764300
vn -0.559500 0.611500 -0.559500
vn -0.764300 0.611500 -0.204800
vn -0.764300 0.611500 0.204800
vn -0.559500 0.611500 0.559500
vn -0.204800 0.611500 0.764300
vn 0.204800 0.611500 0.764300
vn 0.559500 0.611500 0.559500
s off
f 12/1/1 2/2/1 13/3/1
f 1/4/2 2/5/2 3/6/2
f 11/7/3 2/8/3 12/1/3
f 10/9/4 2/10/4 11/11/4
f 9/12/5 2/13/5 10/9/5
f 8/14/6 2/15/6 9/12/6
f 7/16/7 2/17/7 8/14/7
f 6/18/8 2/19/8 7/16/8
f 5/20/9 2/21/9 6/18/9
f 4/22/10 2/23/10 5/20/10
f 13/3/11 2/24/11 1/4/11
f 3/6/12 2/25/12 4/22/12
f 6/26/13 30/27/13 29/28/13
f 17/29/14 23/30/14 25/31/14
f 29/28/15 28/32/15 4/33/15
f 18/34/16 30/27/16 31/35/16
f 14/36/17 25/37/17 37/38/17
f 15/39/18 27/40/18 28/32/18
f 22/41/19 34/42/19 35/43/19
f 19/44/20 31/35/20 32/45/20
f 16/46/21 28/32/21 29/28/21
f 23/47/22 35/48/22 36/49/22
f 20/50/23 32/45/23 33/51/23
f 17/52/24 29/28/24 30/27/24
f 24/53/25 36/49/25 37/38/25
f 14/36/26 26/54/26 27/40/26
f 21/55/27 33/51/27 34/42/27
f 4/33/28 28/32/28 27/40/28
f 27/40/29 26/54/29 1/7/29
f 26/54/30 37/38/30 13/56/30
f 13/56/31 37/38/31 36/49/31
f 36/49/32 35/48/32 11/57/32
f 35/43/33 34/42/33 10/58/33
f 34/42/34 33/51/34 9/59/34
f 33/51/35 32/45/35 8/16/35
f 8/16/36 32/45/36 31/35/36
f 31/35/37 30/27/37 6/26/37
f 5/6/13 6/26/13 29/28/13
f 25/31/14 14/60/14 15/61/14
f 15/61/14 16/62/14 17/29/14
f 17/29/14 18/63/14 19/64/14
f 19/64/14 20/65/14 21/66/14
f 21/66/14 22/67/14 23/30/14
f 23/30/14 24/68/14 25/31/14
f 25/31/14 15/61/14 17/29/14
f 17/29/14 19/64/14 21/66/14
f 21/66/14 23/30/14 17/29/14
f 5/6/15 29/28/15 4/33/15
f 19/44/16 18/34/16 31/35/16
f 26/54/17 14/36/17 37/38/17
f 16/46/18 15/39/18 28/32/18
f 23/69/19 22/41/19 35/43/19
f 20/50/20 19/44/20 32/45/20
f 17/52/21 16/46/21 29/28/21
f 24/53/22 23/47/22 36/49/22
f 21/55/23 20/50/23 33/51/23
f 18/34/24 17/52/24 30/27/24
f 25/37/25 24/53/25 37/38/25
f 15/39/26 14/36/26 27/40/26
f 22/41/27 21/55/27 34/42/27
f 3/70/28 4/33/28 27/40/28
f 3/70/29 27/40/29 1/7/29
f 1/7/30 26/54/30 13/56/30
f 12/29/31 13/56/31 36/49/31
f 12/29/32 36/49/32 11/57/32
f 11/11/33 35/43/33 10/58/33
f 10/58/34 34/42/34 9/59/34
f 9/59/35 33/51/35 8/16/35
f 7/71/36 8/16/36 31/35/36
f 7/71/37 31/35/37 6/26/37
