# Blender v2.76 (sub 0) OBJ File: 'mp_w_15_he.blend'
# www.blender.org
o Cone
v 0.000000 0.000000 -0.750000
v 0.000000 1.000000 -0.500000
v 0.375000 0.000000 -0.649519
v 0.250000 1.000000 -0.433013
v 0.649519 0.000000 -0.375000
v 0.433013 1.000000 -0.250000
v 0.750000 0.000000 0.000000
v 0.500000 1.000000 0.000000
v 0.649519 0.000000 0.375000
v 0.433013 1.000000 0.250000
v 0.375000 0.000000 0.649519
v 0.250000 1.000000 0.433013
v 0.000000 0.000000 0.750000
v 0.000000 1.000000 0.500000
v -0.375000 0.000000 0.649519
v -0.250000 1.000000 0.433013
v -0.649519 0.000000 0.375000
v -0.433013 1.000000 0.250000
v -0.750000 0.000000 0.000000
v -0.500000 1.000000 0.000000
v -0.649519 0.000000 -0.375000
v -0.433013 1.000000 -0.250000
v -0.375000 0.000000 -0.649519
v -0.250000 1.000000 -0.433013
v 0.000000 2.000000 0.000000
v 0.000000 2.000000 0.000000
v 0.000000 2.000000 0.000000
v 0.000000 2.000000 0.000000
v 0.000000 2.000000 0.000000
v 0.000000 2.000000 0.000000
v 0.000000 2.000000 0.000000
v 0.000000 2.000000 0.000000
v 0.000000 2.000000 0.000000
v 0.000000 2.000000 0.000000
v 0.000000 2.000000 0.000000
v 0.000000 2.000000 0.000000
vn 0.251600 0.234700 -0.938900
vn 0.687300 0.234700 -0.687300
vn 0.938900 0.234700 -0.251600
vn 0.938900 0.234700 0.251600
vn 0.687300 0.234700 0.687400
vn 0.251600 0.234700 0.938900
vn -0.251600 0.234700 0.938900
vn -0.687300 0.234700 0.687400
vn -0.938900 0.234700 0.251600
vn -0.938900 0.234700 -0.251600
vn -0.251600 0.234700 -0.938900
vn -0.687400 0.234700 -0.687300
vn 0.000000 -1.000000 0.000000
vn 0.000000 1.000000 0.000000
vn 0.869800 0.434900 0.233100
vn 0.869800 0.434900 -0.233100
vn 0.636700 0.434900 -0.636700
vn 0.233100 0.434900 -0.869800
vn -0.233100 0.434900 -0.869800
vn -0.636700 0.434900 -0.636700
vn -0.869800 0.434900 -0.233100
vn -0.869800 0.434900 0.233100
vn -0.636700 0.434900 0.636700
vn -0.233100 0.434900 0.869800
vn 0.233100 0.434900 0.869800
vn 0.636700 0.434900 0.636700
vn 0.687300 0.234700 0.687300
vn 0.000000 0.000000 1.000000
s off
f 2//1 4//1 3//1
f 3//2 4//2 6//2
f 6//3 8//3 7//3
f 8//4 10//4 9//4
f 10//5 12//5 11//5
f 12//6 14//6 13//6
f 14//7 16//7 15//7
f 15//8 16//8 18//8
f 17//9 18//9 20//9
f 19//10 20//10 22//10
f 24//11 2//11 1//11
f 22//12 24//12 23//12
f 7//13 15//13 23//13
f 33//14 32//14 27//14
f 8//15 29//15 10//15
f 6//16 29//16 8//16
f 4//17 29//17 6//17
f 2//18 29//18 4//18
f 24//19 29//19 2//19
f 22//20 29//20 24//20
f 20//21 29//21 22//21
f 18//22 29//22 20//22
f 16//23 29//23 18//23
f 14//24 29//24 16//24
f 12//25 29//25 14//25
f 10//26 29//26 12//26
f 1//1 2//1 3//1
f 5//2 3//2 6//2
f 5//3 6//3 7//3
f 7//4 8//4 9//4
f 9//27 10//27 11//27
f 11//6 12//6 13//6
f 13//7 14//7 15//7
f 17//8 15//8 18//8
f 19//9 17//9 20//9
f 21//10 19//10 22//10
f 23//11 24//11 1//11
f 21//12 22//12 23//12
f 23//13 1//13 7//13
f 3//13 5//13 7//13
f 7//13 9//13 11//13
f 11//13 13//13 7//13
f 15//13 17//13 19//13
f 19//13 21//13 15//13
f 1//13 3//13 7//13
f 7//13 13//13 15//13
f 15//13 21//13 23//13
f 27//14 25//14 26//14
f 29//28 28//28 27//28
f 27//13 26//13 36//13
f 30//28 29//28 27//28
f 27//28 36//28 35//28
f 31//13 30//13 27//13
f 27//28 35//28 34//28
f 32//13 31//13 27//13
f 27//28 34//28 33//28
