# Blender v2.76 (sub 0) OBJ File: 'mp_w_15_n2.blend'
# www.blender.org
o Cone
v 0.000000 1.000000 -0.750000
v 0.000000 3.000000 0.000000
v 0.375000 1.000000 -0.649519
v 0.649519 1.000000 -0.375000
v 0.750000 1.000000 0.000000
v 0.649519 1.000000 0.375000
v 0.375000 1.000000 0.649519
v 0.000000 1.000000 0.750000
v -0.375000 1.000000 0.649519
v -0.649519 1.000000 0.375000
v -0.750000 1.000000 0.000000
v -0.649519 1.000000 -0.375000
v -0.375000 1.000000 -0.649519
v -0.000000 0.000000 -0.750000
v 0.375000 0.000000 -0.649519
v 0.649519 0.000000 -0.375000
v 0.750000 0.000000 0.000000
v 0.649519 0.000000 0.375000
v 0.375000 0.000000 0.649519
v 0.000000 0.000000 0.750000
v -0.375000 0.000000 0.649519
v -0.649519 0.000000 0.375000
v -0.750000 0.000000 0.000000
v -0.649519 0.000000 -0.375000
v -0.375000 0.000000 -0.649519
vt 0.891892 0.216216
vt 0.851351 0.675676
vt 0.810811 0.216216
vt 0.729730 0.216216
vt 0.689189 0.675676
vt 0.648649 0.216216
vt 0.972973 0.216216
vt 0.932432 0.675676
vt 0.081081 0.216216
vt 0.040541 0.675676
vt 0.000000 0.216216
vt 0.162162 0.216216
vt 0.121622 0.675676
vt 0.243243 0.216216
vt 0.202703 0.675676
vt 0.324324 0.216216
vt 0.283784 0.675676
vt 0.405405 0.216216
vt 0.364865 0.675676
vt 0.486486 0.216216
vt 0.445946 0.675676
vt 0.567568 0.216216
vt 0.527027 0.675676
vt 0.770270 0.675676
vt 0.608108 0.675676
vt 0.891892 0.000000
vt 0.972973 0.000000
vt 0.318543 0.837838
vt 0.083972 0.973267
vt 0.083972 0.702408
vt 0.324324 0.000000
vt 0.405405 0.000000
vt 0.648649 0.000000
vt 0.729730 0.000000
vt 0.162162 0.000000
vt 0.243243 0.000000
vt 0.567568 0.000000
vt 0.000000 0.000000
vt 0.081081 0.000000
vt 0.486486 0.000000
vt 0.810811 0.000000
vt 0.162162 0.681457
vt 0.240353 0.702408
vt 0.297592 0.759648
vt 0.297592 0.916028
vt 0.240352 0.973267
vt 0.162162 0.994218
vt 0.026733 0.916028
vt 0.005782 0.837838
vt 0.026733 0.759648
vn -0.664800 0.340600 -0.664800
vn 0.243300 0.340600 -0.908200
vn -0.908200 0.340600 -0.243300
vn -0.908200 0.340600 0.243300
vn -0.664800 0.340600 0.664800
vn -0.243300 0.340600 0.908200
vn 0.243300 0.340600 0.908200
vn 0.664800 0.340600 0.664800
vn 0.908200 0.340600 0.243300
vn 0.908200 0.340600 -0.243300
vn -0.243300 0.340600 -0.908200
vn 0.664800 0.340600 -0.664800
vn -0.965900 0.000000 -0.258800
vn 0.000000 -1.000000 0.000000
vn 0.707100 0.000000 0.707100
vn 0.258800 -0.000000 -0.965900
vn -0.258800 0.000000 0.965900
vn 0.707100 0.000000 -0.707100
vn -0.965900 0.000000 0.258800
vn 0.965900 0.000000 0.258800
vn -0.707100 0.000000 -0.707100
vn 0.258800 -0.000000 0.965900
vn -0.707100 0.000000 0.707100
vn -0.258800 0.000000 -0.965900
vn 0.965900 0.000000 -0.258800
s off
f 12/1/1 2/2/1 13/3/1
f 1/4/2 2/5/2 3/6/2
f 11/7/3 2/8/3 12/1/3
f 10/9/4 2/10/4 11/11/4
f 9/12/5 2/13/5 10/9/5
f 8/14/6 2/15/6 9/12/6
f 7/16/7 2/17/7 8/14/7
f 6/18/8 2/19/8 7/16/8
f 5/20/9 2/21/9 6/18/9
f 4/22/10 2/23/10 5/20/10
f 13/3/11 2/24/11 1/4/11
f 3/6/12 2/25/12 4/22/12
f 12/1/13 24/26/13 23/27/13
f 17/28/14 21/29/14 25/30/14
f 7/16/15 19/31/15 18/32/15
f 3/6/16 15/33/16 14/34/16
f 9/12/17 21/35/17 20/36/17
f 4/22/18 16/37/18 15/33/18
f 11/11/19 23/38/19 22/39/19
f 6/18/20 18/32/20 17/40/20
f 13/3/21 25/41/21 24/26/21
f 8/14/22 20/36/22 19/31/22
f 10/9/23 22/39/23 21/35/23
f 1/4/24 14/34/24 25/41/24
f 5/20/25 17/40/25 16/37/25
f 11/7/13 12/1/13 23/27/13
f 25/30/14 14/42/14 17/28/14
f 15/43/14 16/44/14 17/28/14
f 17/28/14 18/45/14 19/46/14
f 19/46/14 20/47/14 17/28/14
f 21/29/14 22/48/14 25/30/14
f 23/49/14 24/50/14 25/30/14
f 14/42/14 15/43/14 17/28/14
f 17/28/14 20/47/14 21/29/14
f 22/48/14 23/49/14 25/30/14
f 6/18/15 7/16/15 18/32/15
f 1/4/16 3/6/16 14/34/16
f 8/14/17 9/12/17 20/36/17
f 3/6/18 4/22/18 15/33/18
f 10/9/19 11/11/19 22/39/19
f 5/20/20 6/18/20 17/40/20
f 12/1/21 13/3/21 24/26/21
f 7/16/22 8/14/22 19/31/22
f 9/12/23 10/9/23 21/35/23
f 13/3/24 1/4/24 25/41/24
f 4/22/25 5/20/25 16/37/25
