# Blender v2.76 (sub 0) OBJ File: 'mp_w_10.blend'
# www.blender.org
o Circle
v -0.000000 1.000000 -0.375000
v 0.000000 2.000000 0.000000
v 0.187500 1.000000 -0.324760
v 0.324760 1.000000 -0.187500
v 0.375000 1.000000 0.000000
v 0.324760 1.000000 0.187500
v 0.187500 1.000000 0.324760
v 0.000000 1.000000 0.375000
v -0.187500 1.000000 0.324760
v -0.324759 1.000000 0.187500
v -0.375000 1.000000 0.000000
v -0.324760 1.000000 -0.187500
v -0.187500 1.000000 -0.324759
v 0.000000 0.000000 -0.500000
v 0.250000 0.000000 -0.433013
v 0.433013 0.000000 -0.250000
v 0.500000 0.000000 0.000000
v 0.433013 0.000000 0.250000
v 0.250000 0.000000 0.433013
v 0.000000 0.000000 0.500000
v -0.250000 0.000000 0.433013
v -0.433013 0.000000 0.250000
v -0.500000 0.000000 0.000000
v -0.433013 0.000000 -0.250000
v -0.250000 0.000000 -0.433013
vt 0.515625 0.250000
vt 0.484375 0.515625
vt 0.468750 0.250000
vt 0.421875 0.250000
vt 0.390625 0.515625
vt 0.375000 0.250000
vt 0.562500 0.250000
vt 0.531250 0.515625
vt 0.062500 0.250000
vt 0.015625 0.515625
vt 0.000000 0.250000
vt 0.093750 0.250000
vt 0.062500 0.515625
vt 0.140625 0.250000
vt 0.109375 0.515625
vt 0.187500 0.250000
vt 0.156250 0.515625
vt 0.234375 0.250000
vt 0.203125 0.515625
vt 0.281250 0.250000
vt 0.250000 0.515625
vt 0.328125 0.250000
vt 0.296875 0.515625
vt 0.437500 0.515625
vt 0.343750 0.515625
vt 0.500000 0.250000
vt 0.500000 0.000000
vt 0.687500 0.250000
vt 0.687500 0.500000
vt 0.796875 0.437500
vt 0.125000 0.250000
vt 0.125000 -0.000000
vt 0.187500 0.000000
vt 0.437500 0.250000
vt 0.437500 -0.000000
vt 0.000000 -0.000000
vt 0.312500 0.250000
vt 0.312500 0.000000
vt 0.375000 -0.000000
vt 0.625000 0.250000
vt 0.625000 -0.000000
vt 0.687500 -0.000000
vt 0.250000 -0.000000
vt 0.062500 -0.000000
vt 0.562500 -0.000000
vt 0.750000 0.000000
vt 0.250000 0.250000
vt 0.812500 0.375000
vt 0.796875 0.312500
vt 0.750000 0.265625
vt 0.625000 0.265625
vt 0.578125 0.312500
vt 0.562500 0.375000
vt 0.578125 0.437500
vt 0.625000 0.484375
vt 0.750000 0.484375
vt 0.750000 0.250000
vn -0.664800 0.340600 -0.664800
vn 0.243300 0.340600 -0.908200
vn -0.908200 0.340600 -0.243300
vn -0.908200 0.340600 0.243300
vn -0.664800 0.340600 0.664800
vn -0.243300 0.340600 0.908200
vn 0.243300 0.340600 0.908200
vn 0.664800 0.340600 0.664800
vn 0.908200 0.340600 0.243300
vn 0.908200 0.340600 -0.243300
vn -0.243300 0.340600 -0.908200
vn 0.664800 0.340600 -0.664800
vn 0.257000 0.119900 -0.959000
vn 0.000000 -1.000000 0.000000
vn -0.257000 0.119900 0.959000
vn 0.702000 0.119900 -0.702000
vn -0.959000 0.119900 0.257000
vn 0.959000 0.119900 0.257000
vn -0.702000 0.119900 -0.702000
vn 0.257000 0.119900 0.959000
vn -0.702000 0.119900 0.702000
vn -0.257000 0.119900 -0.959000
vn 0.959000 0.119900 -0.257000
vn -0.959000 0.119900 -0.257000
vn 0.702000 0.119900 0.702000
s off
f 12/1/1 2/2/1 13/3/1
f 1/4/2 2/5/2 3/6/2
f 11/7/3 2/8/3 12/1/3
f 10/9/4 2/10/4 11/11/4
f 9/12/5 2/13/5 10/9/5
f 8/14/6 2/15/6 9/12/6
f 7/16/7 2/17/7 8/14/7
f 6/18/8 2/19/8 7/16/8
f 5/20/9 2/21/9 6/18/9
f 4/22/10 2/23/10 5/20/10
f 13/3/11 2/24/11 1/4/11
f 3/6/12 2/25/12 4/22/12
f 1/7/13 3/26/13 15/27/13
f 17/28/14 23/29/14 25/30/14
f 9/31/15 21/32/15 20/33/15
f 4/34/16 16/35/16 15/27/16
f 10/9/17 11/11/17 23/36/17
f 6/37/18 18/38/18 17/39/18
f 13/40/19 25/41/19 24/42/19
f 8/16/20 20/33/20 19/43/20
f 10/9/21 22/44/21 21/32/21
f 1/7/22 14/45/22 25/41/22
f 4/34/23 5/6/23 17/39/23
f 12/28/24 24/42/24 23/46/24
f 7/47/25 19/43/25 18/38/25
f 14/45/13 1/7/13 15/27/13
f 25/30/14 14/48/14 15/49/14
f 15/49/14 16/50/14 17/28/14
f 17/28/14 18/51/14 19/52/14
f 19/52/14 20/53/14 21/54/14
f 21/54/14 22/55/14 23/29/14
f 23/29/14 24/56/14 25/30/14
f 25/30/14 15/49/14 17/28/14
f 17/28/14 19/52/14 21/54/14
f 21/54/14 23/29/14 17/28/14
f 8/16/15 9/31/15 20/33/15
f 3/26/16 4/34/16 15/27/16
f 22/44/17 10/9/17 23/36/17
f 5/6/18 6/37/18 17/39/18
f 12/28/19 13/40/19 24/42/19
f 7/47/20 8/16/20 19/43/20
f 9/31/21 10/9/21 21/32/21
f 13/40/22 1/7/22 25/41/22
f 16/35/23 4/34/23 17/39/23
f 11/57/24 12/28/24 23/46/24
f 6/37/25 7/47/25 18/38/25
