# Blender v2.76 (sub 0) OBJ File: 'mp_w_10_nuclear_large.blend'
# www.blender.org
o Cylinder
v 0.000000 0.000000 -0.500000
v 0.000000 0.500000 -0.500000
v 0.250000 0.000000 -0.433013
v 0.250000 0.500000 -0.433013
v 0.433013 0.000000 -0.250000
v 0.433013 0.500000 -0.250000
v 0.500000 0.000000 0.000000
v 0.500000 0.500000 0.000000
v 0.433013 0.000000 0.250000
v 0.433013 0.500000 0.250000
v 0.250000 0.000000 0.433013
v 0.250000 0.500000 0.433013
v 0.000000 0.000000 0.500000
v 0.000000 0.500000 0.500000
v -0.250000 0.000000 0.433013
v -0.250000 0.500000 0.433013
v -0.433013 0.000000 0.250000
v -0.433013 0.500000 0.250000
v -0.500000 0.000000 0.000000
v -0.500000 0.500000 0.000000
v -0.433013 0.000000 -0.250000
v -0.433013 0.500000 -0.250000
v -0.250000 0.000000 -0.433013
v -0.250000 0.500000 -0.433013
v 0.213473 1.375000 -0.369746
v -0.000000 1.375000 -0.426946
v 0.369746 1.375000 -0.213473
v 0.426946 1.375000 0.000000
v 0.369746 1.375000 0.213473
v 0.213473 1.375000 0.369746
v 0.000000 1.375000 0.426946
v -0.213473 1.375000 0.369746
v -0.369746 1.375000 0.213473
v -0.426946 1.375000 0.000000
v -0.369746 1.375000 -0.213473
v -0.213473 1.375000 -0.369746
v 0.103483 2.125000 -0.179238
v -0.000000 2.125000 -0.206966
v 0.179238 2.125000 -0.103483
v 0.206966 2.125000 0.000000
v 0.179238 2.125000 0.103483
v 0.103483 2.125000 0.179238
v 0.000000 2.125000 0.206966
v -0.103483 2.125000 0.179238
v -0.179238 2.125000 0.103483
v -0.206966 2.125000 0.000000
v -0.179238 2.125000 -0.103483
v -0.103483 2.125000 -0.179238
v 0.022753 2.500000 -0.039409
v 0.000000 2.500000 -0.045505
v 0.039409 2.500000 -0.022753
v 0.045505 2.500000 0.000000
v 0.039409 2.500000 0.022753
v 0.022753 2.500000 0.039409
v 0.000000 2.500000 0.045505
v -0.022753 2.500000 0.039409
v -0.039409 2.500000 0.022753
v -0.045505 2.500000 0.000000
v -0.039409 2.500000 -0.022753
v -0.022753 2.500000 -0.039409
vn 0.258800 0.000000 -0.965900
vn 0.707100 0.000000 -0.707100
vn 0.965900 0.000000 -0.258800
vn 0.965900 0.000000 0.258800
vn 0.707100 0.000000 0.707100
vn 0.258800 0.000000 0.965900
vn -0.258800 0.000000 0.965900
vn -0.707100 0.000000 0.707100
vn -0.965900 0.000000 0.258800
vn -0.965900 0.000000 -0.258800
vn -0.704800 0.080400 -0.704800
vn -0.258800 0.000000 -0.965900
vn -0.707100 0.000000 -0.707100
vn 0.000000 -1.000000 0.000000
vn 0.929300 0.272600 0.249000
vn 0.704800 0.080400 -0.704800
vn -0.962800 0.080400 -0.258000
vn -0.962800 0.080400 0.258000
vn -0.704800 0.080400 0.704800
vn -0.258000 0.080400 0.962800
vn 0.258000 0.080400 0.962800
vn 0.704800 0.080400 0.704800
vn 0.962800 0.080400 0.258000
vn -0.258000 0.080400 -0.962800
vn 0.258000 0.080400 -0.962800
vn 0.962800 0.080400 -0.258000
vn -0.239000 0.384000 0.891900
vn -0.680300 0.272600 -0.680300
vn 0.249000 0.272600 -0.929300
vn -0.680300 0.272600 0.680300
vn 0.680300 0.272600 0.680300
vn -0.249000 0.272600 -0.929300
vn 0.680300 0.272600 -0.680300
vn -0.929300 0.272600 0.249000
vn 0.249000 0.272600 0.929300
vn 0.929300 0.272600 -0.249000
vn -0.929300 0.272600 -0.249000
vn -0.249000 0.272600 0.929300
vn 0.000000 1.000000 0.000000
vn 0.891900 0.384000 0.239000
vn -0.652900 0.384000 -0.652900
vn 0.239000 0.384000 -0.891900
vn -0.652900 0.384000 0.652900
vn 0.652900 0.384000 0.652900
vn -0.239000 0.384000 -0.891900
vn 0.652900 0.384000 -0.652900
vn -0.891900 0.384000 0.239000
vn 0.239000 0.384000 0.891900
vn 0.891900 0.384000 -0.239000
vn -0.891900 0.384000 -0.239000
s off
f 2//1 4//1 3//1
f 4//2 6//2 5//2
f 6//3 8//3 7//3
f 8//4 10//4 9//4
f 10//5 12//5 11//5
f 12//6 14//6 13//6
f 14//7 16//7 15//7
f 16//8 18//8 17//8
f 18//9 20//9 19//9
f 20//10 22//10 21//10
f 22//11 35//11 36//11
f 24//12 2//12 1//12
f 22//13 24//13 23//13
f 7//14 19//14 23//14
f 29//15 28//15 40//15
f 4//16 25//16 27//16
f 20//17 34//17 35//17
f 18//18 33//18 34//18
f 18//19 16//19 32//19
f 14//20 31//20 32//20
f 14//21 12//21 30//21
f 10//22 29//22 30//22
f 8//23 28//23 29//23
f 24//24 36//24 26//24
f 4//25 2//25 26//25
f 6//26 27//26 28//26
f 43//27 55//27 56//27
f 35//28 47//28 48//28
f 26//29 38//29 37//29
f 32//30 44//30 45//30
f 29//31 41//31 42//31
f 36//32 48//32 38//32
f 27//33 25//33 37//33
f 33//34 45//34 46//34
f 30//35 42//35 43//35
f 27//36 39//36 40//36
f 34//37 46//37 47//37
f 31//38 43//38 44//38
f 59//39 55//39 51//39
f 41//40 40//40 52//40
f 47//41 59//41 60//41
f 37//42 38//42 50//42
f 45//43 44//43 56//43
f 42//44 41//44 53//44
f 48//45 60//45 50//45
f 37//46 49//46 51//46
f 46//47 45//47 57//47
f 42//48 54//48 55//48
f 39//49 51//49 52//49
f 46//50 58//50 59//50
f 1//1 2//1 3//1
f 3//2 4//2 5//2
f 5//3 6//3 7//3
f 7//4 8//4 9//4
f 9//5 10//5 11//5
f 11//6 12//6 13//6
f 13//7 14//7 15//7
f 15//8 16//8 17//8
f 17//9 18//9 19//9
f 19//10 20//10 21//10
f 24//11 22//11 36//11
f 23//12 24//12 1//12
f 21//13 22//13 23//13
f 23//14 1//14 3//14
f 3//14 5//14 7//14
f 7//14 9//14 11//14
f 11//14 13//14 15//14
f 15//14 17//14 19//14
f 19//14 21//14 23//14
f 23//14 3//14 7//14
f 7//14 11//14 15//14
f 15//14 19//14 7//14
f 41//15 29//15 40//15
f 6//16 4//16 27//16
f 22//17 20//17 35//17
f 20//18 18//18 34//18
f 33//19 18//19 32//19
f 16//20 14//20 32//20
f 31//21 14//21 30//21
f 12//22 10//22 30//22
f 10//23 8//23 29//23
f 2//24 24//24 26//24
f 25//25 4//25 26//25
f 8//26 6//26 28//26
f 44//27 43//27 56//27
f 36//28 35//28 48//28
f 25//29 26//29 37//29
f 33//30 32//30 45//30
f 30//31 29//31 42//31
f 26//32 36//32 38//32
f 39//33 27//33 37//33
f 34//34 33//34 46//34
f 31//35 30//35 43//35
f 28//36 27//36 40//36
f 35//37 34//37 47//37
f 32//38 31//38 44//38
f 51//39 49//39 59//39
f 50//39 60//39 59//39
f 59//39 58//39 57//39
f 57//39 56//39 55//39
f 55//39 54//39 51//39
f 53//39 52//39 51//39
f 49//39 50//39 59//39
f 59//39 57//39 55//39
f 54//39 53//39 51//39
f 53//40 41//40 52//40
f 48//41 47//41 60//41
f 49//42 37//42 50//42
f 57//43 45//43 56//43
f 54//44 42//44 53//44
f 38//45 48//45 50//45
f 39//46 37//46 51//46
f 58//47 46//47 57//47
f 43//48 42//48 55//48
f 40//49 39//49 52//49
f 47//50 46//50 59//50
