# Blender v2.76 (sub 0) OBJ File: 'mp_w_10_nuclear.blend'
# www.blender.org
o Cone
v -0.000000 1.750000 -0.175000
v 0.000000 2.000000 0.000000
v 0.087500 1.750000 -0.151554
v 0.151554 1.750000 -0.087500
v 0.175000 1.750000 0.000000
v 0.151554 1.750000 0.087500
v 0.087500 1.750000 0.151554
v 0.000000 1.750000 0.175000
v -0.087500 1.750000 0.151554
v -0.151554 1.750000 0.087500
v -0.175000 1.750000 0.000000
v -0.151554 1.750000 -0.087500
v -0.087500 1.750000 -0.151554
v 0.000000 0.000000 -0.500000
v 0.250000 0.000000 -0.433013
v 0.433013 0.000000 -0.250000
v 0.500000 0.000000 0.000000
v 0.433013 0.000000 0.250000
v 0.250000 0.000000 0.433013
v 0.000000 0.000000 0.500000
v -0.250000 0.000000 0.433013
v -0.433012 0.000000 0.250000
v -0.500000 0.000000 0.000000
v -0.433013 0.000000 -0.250000
v -0.250000 0.000000 -0.433013
vt 0.458333 0.583333
vt 0.437500 0.666667
vt 0.416667 0.583333
vt 0.375000 0.583333
vt 0.354167 0.666667
vt 0.333333 0.583333
vt 0.500000 0.583333
vt 0.479167 0.666667
vt 0.041667 0.583333
vt 0.020833 0.666667
vt -0.000000 0.583333
vt 0.083333 0.583333
vt 0.062500 0.666667
vt 0.125000 0.583333
vt 0.104167 0.666667
vt 0.166667 0.583333
vt 0.145833 0.666667
vt 0.208333 0.583333
vt 0.187500 0.666667
vt 0.250000 0.583333
vt 0.229167 0.666667
vt 0.291667 0.583333
vt 0.270833 0.666667
vt 0.395833 0.666667
vt 0.312500 0.666667
vt 0.229167 0.583333
vt 0.187500 0.583333
vt 0.166667 0.000000
vt 0.666667 0.583333
vt 0.666667 0.916667
vt 0.812500 0.833333
vt 0.604167 0.583333
vt 0.583333 0.000000
vt 0.666667 -0.000000
vt 0.020833 0.583333
vt -0.000000 -0.000000
vt 0.083333 0.000000
vt 0.479167 0.583333
vt 0.437500 0.583333
vt 0.416667 0.000000
vt 0.854167 0.583333
vt 0.833333 0.000000
vt 0.916667 0.000000
vt 0.312500 0.583333
vt 0.270833 0.583333
vt 0.250000 0.000000
vt 0.145833 0.583333
vt 0.104167 0.583333
vt 0.770833 0.583333
vt 0.750000 -0.000000
vt 0.520833 0.583333
vt 0.500000 0.000000
vt 0.937500 0.583333
vt 1.000000 0.000000
vt 0.354167 0.583333
vt 0.333333 -0.000000
vt 0.687500 0.583333
vt 0.833333 0.750000
vt 0.812500 0.666667
vt 0.750000 0.604167
vt 0.583333 0.604167
vt 0.520833 0.666667
vt 0.500000 0.750000
vt 0.520833 0.833333
vt 0.583333 0.895833
vt 0.750000 0.895833
vt 0.645833 0.583333
vt 0.062500 0.583333
vt 0.895833 0.583333
vt 0.812500 0.583333
vt 0.562500 0.583333
vt 0.979167 0.583333
vt 0.395833 0.583333
vt 0.729167 0.583333
vn -0.585800 0.560100 -0.585800
vn 0.214400 0.560100 -0.800200
vn -0.800200 0.560100 -0.214400
vn -0.800200 0.560100 0.214400
vn -0.585800 0.560100 0.585800
vn -0.214400 0.560100 0.800200
vn 0.214400 0.560100 0.800200
vn 0.585800 0.560100 0.585800
vn 0.800200 0.560100 0.214400
vn 0.800200 0.560100 -0.214400
vn -0.214400 0.560100 -0.800200
vn 0.585800 0.560100 -0.585800
vn -0.254800 0.176600 0.950700
vn 0.000000 -1.000000 0.000000
vn 0.696000 0.176600 -0.696000
vn -0.950700 0.176600 0.254800
vn 0.950700 0.176600 0.254800
vn -0.696000 0.176600 -0.696000
vn 0.254800 0.176600 0.950700
vn -0.696000 0.176600 0.696000
vn -0.254800 0.176600 -0.950700
vn 0.950700 0.176600 -0.254800
vn -0.950700 0.176600 -0.254800
vn 0.696000 0.176600 0.696000
vn 0.254800 0.176600 -0.950700
s off
f 12/1/1 2/2/1 13/3/1
f 1/4/2 2/5/2 3/6/2
f 11/7/3 2/8/3 12/1/3
f 10/9/4 2/10/4 11/11/4
f 9/12/5 2/13/5 10/9/5
f 8/14/6 2/15/6 9/12/6
f 7/16/7 2/17/7 8/14/7
f 6/18/8 2/19/8 7/16/8
f 5/20/9 2/21/9 6/18/9
f 4/22/10 2/23/10 5/20/10
f 13/3/11 2/24/11 1/4/11
f 3/6/12 2/25/12 4/22/12
f 8/26/13 9/27/13 21/28/13
f 17/29/14 23/30/14 25/31/14
f 4/32/15 16/33/15 15/34/15
f 11/35/16 23/36/16 22/37/16
f 5/38/17 6/39/17 18/40/17
f 13/41/18 25/42/18 24/43/18
f 7/44/19 8/45/19 20/46/19
f 9/47/20 10/48/20 22/37/20
f 1/49/21 14/50/21 25/42/21
f 5/51/22 17/52/22 16/33/22
f 12/53/23 24/43/23 23/54/23
f 7/55/24 19/56/24 18/40/24
f 3/57/25 15/34/25 14/50/25
f 20/46/13 8/26/13 21/28/13
f 25/31/14 14/58/14 15/59/14
f 15/59/14 16/60/14 17/29/14
f 17/29/14 18/61/14 19/62/14
f 19/62/14 20/63/14 21/64/14
f 21/64/14 22/65/14 23/30/14
f 23/30/14 24/66/14 25/31/14
f 25/31/14 15/59/14 17/29/14
f 17/29/14 19/62/14 21/64/14
f 21/64/14 23/30/14 17/29/14
f 3/67/15 4/32/15 15/34/15
f 10/68/16 11/35/16 22/37/16
f 17/52/17 5/38/17 18/40/17
f 12/69/18 13/41/18 24/43/18
f 19/56/19 7/44/19 20/46/19
f 21/28/20 9/47/20 22/37/20
f 13/70/21 1/49/21 25/42/21
f 4/71/22 5/51/22 16/33/22
f 11/72/23 12/53/23 23/54/23
f 6/73/24 7/55/24 18/40/24
f 1/74/25 3/57/25 14/50/25
