# Blender v2.76 (sub 0) OBJ File: 'mp_w_10_taint.blend'
# www.blender.org
o Cylinder
v 0.000000 0.000000 -0.500000
v 0.000000 0.750000 -0.500000
v 0.250000 0.000000 -0.433013
v 0.250000 0.750000 -0.433013
v 0.433013 0.000000 -0.250000
v 0.433013 0.750000 -0.250000
v 0.500000 0.000000 0.000000
v 0.500000 0.750000 0.000000
v 0.433013 0.000000 0.250000
v 0.433013 0.750000 0.250000
v 0.250000 0.000000 0.433013
v 0.250000 0.750000 0.433013
v 0.000000 0.000000 0.500000
v 0.000000 0.750000 0.500000
v -0.250000 0.000000 0.433013
v -0.250000 0.750000 0.433013
v -0.433013 0.000000 0.250000
v -0.433013 0.750000 0.250000
v -0.500000 0.000000 0.000000
v -0.500000 0.750000 0.000000
v -0.433013 0.000000 -0.250000
v -0.433013 0.750000 -0.250000
v -0.250000 0.000000 -0.433013
v -0.250000 0.750000 -0.433013
v 0.223421 1.250000 -0.386976
v 0.000000 1.250000 -0.446841
v 0.386976 1.250000 -0.223421
v 0.446841 1.250000 0.000000
v 0.386976 1.250000 0.223421
v 0.223421 1.250000 0.386976
v 0.000000 1.250000 0.446841
v -0.223421 1.250000 0.386976
v -0.386976 1.250000 0.223421
v -0.446841 1.250000 0.000000
v -0.386976 1.250000 -0.223420
v -0.223421 1.250000 -0.386976
v 0.171690 1.750000 -0.297376
v 0.000000 1.750000 -0.343380
v 0.297376 1.750000 -0.171690
v 0.343380 1.750000 0.000000
v 0.297376 1.750000 0.171690
v 0.171690 1.750000 0.297376
v 0.000000 1.750000 0.343380
v -0.171690 1.750000 0.297376
v -0.297376 1.750000 0.171690
v -0.343380 1.750000 0.000000
v -0.297376 1.750000 -0.171690
v -0.171690 1.750000 -0.297376
v 0.114020 2.000000 -0.197488
v 0.000000 2.000000 -0.228040
v 0.197488 2.000000 -0.114020
v 0.228040 2.000000 0.000000
v 0.197488 2.000000 0.114020
v 0.114020 2.000000 0.197488
v 0.000000 2.000000 0.228040
v -0.114020 2.000000 0.197488
v -0.197488 2.000000 0.114020
v -0.228040 2.000000 0.000000
v -0.197488 2.000000 -0.114020
v -0.114020 2.000000 -0.197488
v 0.029487 2.250000 -0.051072
v 0.000000 2.250000 -0.058973
v 0.051073 2.250000 -0.029487
v 0.058974 2.250000 0.000000
v 0.051073 2.250000 0.029487
v 0.029487 2.250000 0.051073
v 0.000000 2.250000 0.058973
v -0.029487 2.250000 0.051073
v -0.051072 2.250000 0.029487
v -0.058973 2.250000 0.000000
v -0.051072 2.250000 -0.029487
v -0.029487 2.250000 -0.051072
vt 0.642857 0.214286
vt 0.571429 0.214286
vt 0.571429 0.000000
vt 0.500000 0.214286
vt 0.500000 0.000000
vt 0.428571 0.214286
vt 0.428571 0.000000
vt 0.357143 0.214286
vt 0.357143 0.000000
vt 0.285714 0.214286
vt 0.285714 0.000000
vt 0.214286 0.214286
vt 0.214286 0.000000
vt 0.142857 0.214286
vt 0.142857 0.000000
vt 0.071429 0.214286
vt 0.071429 0.000000
vt -0.000000 0.214286
vt -0.000000 0.000000
vt 0.857143 0.214286
vt 0.785714 0.214286
vt 0.785714 0.000000
vt 0.071429 0.357143
vt -0.000000 0.357143
vt 0.714286 0.214286
vt 0.642857 0.000000
vt 0.714286 0.000000
vt 0.285714 0.839286
vt 0.000000 0.839286
vt 0.071429 0.714286
vt 0.571429 0.357143
vt 0.642857 0.357143
vt 0.625000 0.517857
vt 0.142857 0.357143
vt 0.214286 0.357143
vt 0.285714 0.357143
vt 0.357143 0.357143
vt 0.428571 0.357143
vt 0.714286 0.357143
vt 0.500000 0.357143
vt 0.785714 0.357143
vt 0.857143 0.357143
vt 0.714286 0.517857
vt 0.767857 0.517857
vt 0.767857 0.589286
vt 0.125000 0.517857
vt 0.339286 0.517857
vt 0.285714 0.517857
vt 0.696429 0.517857
vt 0.642857 0.517857
vt 0.553571 0.517857
vt 0.053571 0.517857
vt -0.000000 0.517857
vt 0.267857 0.517857
vt 0.482143 0.517857
vt 0.839286 0.517857
vt 0.196429 0.517857
vt 0.410714 0.517857
vt 0.410714 0.589286
vt 0.392857 0.696429
vt 0.375000 0.696429
vt 0.571429 0.517857
vt 0.625000 0.589286
vt 0.071429 0.517857
vt 0.125000 0.589286
vt 0.339286 0.589286
vt 0.303571 0.589286
vt 0.696429 0.589286
vt 0.660714 0.589286
vt 0.553571 0.589286
vt 0.517857 0.589286
vt 0.053571 0.589286
vt 0.017857 0.589286
vt 0.267857 0.589286
vt 0.232143 0.589286
vt 0.428571 0.517857
vt 0.482143 0.589286
vt 0.839286 0.589286
vt 0.803571 0.589286
vt 0.196429 0.589286
vt 0.160714 0.589286
vt 0.357143 0.517857
vt 0.312022 0.699693
vt 0.295528 0.699693
vt 0.295528 0.728262
vt 0.732143 0.589286
vt 0.750000 0.696429
vt 0.589286 0.589286
vt 0.607143 0.696429
vt 0.107143 0.696429
vt 0.089286 0.696429
vt 0.321429 0.696429
vt 0.303571 0.696429
vt 0.678571 0.696429
vt 0.535714 0.696429
vt 0.517857 0.696429
vt 0.035714 0.696429
vt 0.017857 0.696429
vt 0.250000 0.696429
vt 0.232143 0.696429
vt 0.446429 0.589286
vt 0.464286 0.696429
vt 0.821429 0.696429
vt 0.803571 0.696429
vt 0.178571 0.696429
vt 0.160714 0.696429
vt 0.857143 0.000000
vt 0.142857 0.696429
vt 0.214286 0.714286
vt 0.267857 0.767857
vt 0.267857 0.910714
vt 0.214286 0.964286
vt 0.142857 0.982143
vt 0.071429 0.964286
vt 0.017857 0.910714
vt 0.017857 0.767857
vt 0.500000 0.517857
vt 0.214286 0.517857
vt 0.785714 0.517857
vt 0.142857 0.517857
vt 0.375000 0.589286
vt 0.089286 0.589286
vt 0.303775 0.730472
vt 0.312022 0.728262
vt 0.318059 0.722225
vt 0.320269 0.713978
vt 0.318059 0.705731
vt 0.303775 0.697484
vt 0.289490 0.705731
vt 0.287280 0.713978
vt 0.289490 0.722225
vt 0.732143 0.696429
vt 0.589286 0.696429
vt 0.660714 0.696429
vt 0.446429 0.696429
vn 0.258800 0.000000 -0.965900
vn 0.707100 0.000000 -0.707100
vn 0.965900 0.000000 -0.258800
vn 0.965900 0.000000 0.258800
vn 0.707100 0.000000 0.707100
vn 0.258800 0.000000 0.965900
vn -0.258800 0.000000 0.965900
vn -0.707100 0.000000 0.707100
vn -0.965900 0.000000 0.258800
vn -0.965900 0.000000 -0.258800
vn -0.960900 0.102200 0.257500
vn -0.258800 0.000000 -0.965900
vn -0.707100 0.000000 -0.707100
vn 0.000000 -1.000000 0.000000
vn 0.253800 0.196000 -0.947200
vn -0.703400 0.102200 0.703400
vn -0.257500 0.102200 0.960900
vn 0.257500 0.102200 0.960900
vn 0.703400 0.102200 0.703400
vn 0.960900 0.102200 0.257500
vn -0.257500 0.102200 -0.960900
vn 0.257500 0.102200 -0.960900
vn 0.960900 0.102200 -0.257500
vn -0.703400 0.102200 -0.703400
vn 0.703400 0.102200 -0.703400
vn -0.960900 0.102200 -0.257500
vn -0.645900 0.407100 -0.645900
vn -0.693400 0.196000 0.693400
vn 0.693400 0.196000 0.693400
vn -0.253800 0.196000 -0.947200
vn 0.693400 0.196000 -0.693400
vn -0.947200 0.196000 0.253800
vn 0.253800 0.196000 0.947200
vn 0.947200 0.196000 -0.253800
vn -0.947200 0.196000 -0.253800
vn -0.253800 0.196000 0.947200
vn 0.947200 0.196000 0.253800
vn -0.693400 0.196000 -0.693400
vn 0.808700 0.546900 0.216700
vn 0.236400 0.407100 -0.882300
vn -0.645900 0.407100 0.645900
vn 0.645900 0.407100 0.645900
vn -0.236400 0.407100 -0.882300
vn 0.645900 0.407100 -0.645900
vn -0.882300 0.407100 0.236400
vn 0.236400 0.407000 0.882300
vn 0.882300 0.407100 -0.236400
vn -0.882300 0.407100 -0.236400
vn -0.236400 0.407100 0.882300
vn 0.882300 0.407100 0.236400
vn 0.000000 1.000000 0.000000
vn -0.592000 0.546900 -0.592000
vn 0.216700 0.546900 -0.808700
vn -0.592000 0.546900 0.592000
vn 0.592000 0.546900 0.592000
vn -0.216700 0.546900 -0.808700
vn 0.592000 0.546900 -0.592000
vn -0.808700 0.546900 0.216700
vn 0.216700 0.546900 0.808700
vn 0.808700 0.546900 -0.216700
vn -0.808700 0.546900 -0.216700
vn -0.216700 0.546900 0.808700
vn 0.236400 0.407100 0.882300
s off
f 2/1/1 4/2/1 3/3/1
f 4/2/2 6/4/2 5/5/2
f 6/4/3 8/6/3 7/7/3
f 8/6/4 10/8/4 9/9/4
f 10/8/5 12/10/5 11/11/5
f 12/10/6 14/12/6 13/13/6
f 14/12/7 16/14/7 15/15/7
f 16/14/8 18/16/8 17/17/8
f 18/16/9 20/18/9 19/19/9
f 20/20/10 22/21/10 21/22/10
f 18/16/11 33/23/11 34/24/11
f 24/25/12 2/1/12 1/26/12
f 22/21/13 24/25/13 23/27/13
f 7/28/14 19/29/14 23/30/14
f 25/31/15 26/32/15 38/33/15
f 16/14/16 32/34/16 33/23/16
f 14/12/17 31/35/17 32/34/17
f 12/10/18 30/36/18 31/35/18
f 10/8/19 29/37/19 30/36/19
f 8/6/20 28/38/20 29/37/20
f 24/25/21 36/39/21 26/32/21
f 4/2/22 2/1/22 26/32/22
f 8/6/23 6/4/23 27/40/23
f 22/21/24 35/41/24 36/39/24
f 4/2/25 25/31/25 27/40/25
f 20/20/26 34/42/26 35/41/26
f 48/43/27 47/44/27 59/45/27
f 33/23/28 32/34/28 44/46/28
f 29/37/29 41/47/29 42/48/29
f 36/39/30 48/49/30 38/50/30
f 27/40/31 25/31/31 37/51/31
f 33/23/32 45/52/32 46/53/32
f 31/35/33 30/36/33 42/54/33
f 28/38/34 27/40/34 39/55/34
f 35/41/35 34/42/35 46/56/35
f 32/34/36 31/35/36 43/57/36
f 29/37/37 28/38/37 40/58/37
f 35/41/38 47/44/38 48/43/38
f 52/59/39 64/60/39 65/61/39
f 37/62/40 38/33/40 50/63/40
f 45/64/41 44/46/41 56/65/41
f 41/47/42 53/66/42 54/67/42
f 48/49/43 60/68/43 50/69/43
f 37/51/44 49/70/44 51/71/44
f 45/52/45 57/72/45 58/73/45
f 42/54/46 54/74/46 55/75/46
f 40/76/47 39/55/47 51/77/47
f 46/56/48 58/78/48 59/79/48
f 43/57/49 55/80/49 56/81/49
f 41/82/50 40/58/50 52/59/50
f 69/83/51 67/84/51 63/85/51
f 60/86/52 59/45/52 71/87/52
f 49/88/53 50/63/53 62/89/53
f 56/65/54 68/90/54 69/91/54
f 53/66/55 65/92/55 66/93/55
f 50/69/56 60/68/56 72/94/56
f 49/70/57 61/95/57 63/96/57
f 57/72/58 69/97/58 70/98/58
f 54/74/59 66/99/59 67/100/59
f 52/101/60 51/77/60 63/102/60
f 58/78/61 70/103/61 71/104/61
f 55/80/62 67/105/62 68/106/62
f 1/26/1 2/1/1 3/3/1
f 3/3/2 4/2/2 5/5/2
f 5/5/3 6/4/3 7/7/3
f 7/7/4 8/6/4 9/9/4
f 9/9/5 10/8/5 11/11/5
f 11/11/6 12/10/6 13/13/6
f 13/13/7 14/12/7 15/15/7
f 15/15/8 16/14/8 17/17/8
f 17/17/9 18/16/9 19/19/9
f 19/107/10 20/20/10 21/22/10
f 20/18/11 18/16/11 34/24/11
f 23/27/12 24/25/12 1/26/12
f 21/22/13 22/21/13 23/27/13
f 23/30/14 1/108/14 3/109/14
f 3/109/14 5/110/14 7/28/14
f 7/28/14 9/111/14 11/112/14
f 11/112/14 13/113/14 15/114/14
f 15/114/14 17/115/14 19/29/14
f 19/29/14 21/116/14 23/30/14
f 23/30/14 3/109/14 7/28/14
f 7/28/14 11/112/14 15/114/14
f 15/114/14 19/29/14 7/28/14
f 37/62/15 25/31/15 38/33/15
f 18/16/16 16/14/16 33/23/16
f 16/14/17 14/12/17 32/34/17
f 14/12/18 12/10/18 31/35/18
f 12/10/19 10/8/19 30/36/19
f 10/8/20 8/6/20 29/37/20
f 2/1/21 24/25/21 26/32/21
f 25/31/22 4/2/22 26/32/22
f 28/38/23 8/6/23 27/40/23
f 24/25/24 22/21/24 36/39/24
f 6/4/25 4/2/25 27/40/25
f 22/21/26 20/20/26 35/41/26
f 60/86/27 48/43/27 59/45/27
f 45/64/28 33/23/28 44/46/28
f 30/36/29 29/37/29 42/48/29
f 26/32/30 36/39/30 38/50/30
f 39/117/31 27/40/31 37/51/31
f 34/24/32 33/23/32 46/53/32
f 43/118/33 31/35/33 42/54/33
f 40/76/34 28/38/34 39/55/34
f 47/119/35 35/41/35 46/56/35
f 44/120/36 32/34/36 43/57/36
f 41/82/37 29/37/37 40/58/37
f 36/39/38 35/41/38 48/43/38
f 53/121/39 52/59/39 65/61/39
f 49/88/40 37/62/40 50/63/40
f 57/122/41 45/64/41 56/65/41
f 42/48/42 41/47/42 54/67/42
f 38/50/43 48/49/43 50/69/43
f 39/117/44 37/51/44 51/71/44
f 46/53/45 45/52/45 58/73/45
f 43/118/63 42/54/63 55/75/63
f 52/101/47 40/76/47 51/77/47
f 47/119/48 46/56/48 59/79/48
f 44/120/49 43/57/49 56/81/49
f 53/121/50 41/82/50 52/59/50
f 63/85/51 61/123/51 62/124/51
f 62/124/51 72/125/51 63/85/51
f 71/126/51 70/127/51 69/83/51
f 69/83/51 68/128/51 67/84/51
f 67/84/51 66/129/51 65/130/51
f 65/130/51 64/131/51 63/85/51
f 63/85/51 72/125/51 71/126/51
f 71/126/51 69/83/51 63/85/51
f 67/84/51 65/130/51 63/85/51
f 72/132/52 60/86/52 71/87/52
f 61/133/53 49/88/53 62/89/53
f 57/122/54 56/65/54 69/91/54
f 54/67/55 53/66/55 66/93/55
f 62/134/56 50/69/56 72/94/56
f 51/71/57 49/70/57 63/96/57
f 58/73/58 57/72/58 70/98/58
f 55/75/59 54/74/59 67/100/59
f 64/135/60 52/101/60 63/102/60
f 59/79/61 58/78/61 71/104/61
f 56/81/62 55/80/62 68/106/62
