# Blender v2.76 (sub 0) OBJ File: 'assembler_new_cog.blend'
# www.blender.org
o Cylinder_Cylinder.001
v 0.000000 -0.500000 0.050000
v 0.000000 -0.500000 -0.050000
v 0.129410 -0.482963 0.050000
v 0.129410 -0.482963 -0.050000
v 0.250000 -0.433013 0.050000
v 0.250000 -0.433013 -0.050000
v 0.353553 -0.353553 0.050000
v 0.353553 -0.353553 -0.050000
v 0.433013 -0.250000 0.050000
v 0.433013 -0.250000 -0.050000
v 0.482963 -0.129410 0.050000
v 0.482963 -0.129410 -0.050000
v 0.500000 -0.000000 0.050000
v 0.500000 -0.000000 -0.050000
v 0.482963 0.129409 0.050000
v 0.482963 0.129409 -0.050000
v 0.433013 0.250000 0.050000
v 0.433013 0.250000 -0.050000
v 0.353553 0.353553 0.050000
v 0.353553 0.353553 -0.050000
v 0.250000 0.433013 0.050000
v 0.250000 0.433013 -0.050000
v 0.129410 0.482963 0.050000
v 0.129410 0.482963 -0.050000
v 0.000000 0.500000 0.050000
v 0.000000 0.500000 -0.050000
v -0.129409 0.482963 0.050000
v -0.129409 0.482963 -0.050000
v -0.250000 0.433013 0.050000
v -0.250000 0.433013 -0.050000
v -0.353553 0.353554 0.050000
v -0.353553 0.353554 -0.050000
v -0.433013 0.250000 0.050000
v -0.433013 0.250000 -0.050000
v -0.482963 0.129410 0.050000
v -0.482963 0.129410 -0.050000
v -0.500000 0.000000 0.050000
v -0.500000 0.000000 -0.050000
v -0.482963 -0.129409 0.050000
v -0.482963 -0.129409 -0.050000
v -0.433013 -0.250000 0.050000
v -0.433013 -0.250000 -0.050000
v -0.353554 -0.353553 0.050000
v -0.353554 -0.353553 -0.050000
v -0.250000 -0.433013 0.050000
v -0.250000 -0.433013 -0.050000
v -0.129410 -0.482963 0.050000
v -0.129410 -0.482963 -0.050000
v 0.019579 -0.648717 0.050000
v 0.019579 -0.648717 -0.050000
v 0.148988 -0.631680 -0.050000
v 0.148988 -0.631680 0.050000
v 0.341314 -0.552016 0.050000
v 0.341314 -0.552016 -0.050000
v 0.444868 -0.472556 -0.050000
v 0.444868 -0.472556 0.050000
v 0.571595 -0.307402 0.050000
v 0.571595 -0.307402 -0.050000
v 0.621545 -0.186812 -0.050000
v 0.621545 -0.186812 0.050000
v 0.648717 0.019579 0.050000
v 0.648717 0.019579 -0.050000
v 0.631680 0.148988 -0.050000
v 0.631680 0.148988 0.050000
v 0.552016 0.341314 0.050000
v 0.552016 0.341314 -0.050000
v 0.472557 0.444867 -0.050000
v 0.472557 0.444867 0.050000
v 0.307403 0.571595 0.050000
v 0.307403 0.571595 -0.050000
v 0.186812 0.621545 -0.050000
v 0.186812 0.621545 0.050000
v -0.019579 0.648717 0.050000
v -0.019579 0.648717 -0.050000
v -0.148988 0.631680 -0.050000
v -0.148988 0.631680 0.050000
v -0.341314 0.552016 0.050000
v -0.341314 0.552016 -0.050000
v -0.444867 0.472557 -0.050000
v -0.444867 0.472557 0.050000
v -0.571595 0.307403 0.050000
v -0.571595 0.307403 -0.050000
v -0.621545 0.186812 -0.050000
v -0.621545 0.186812 0.050000
v -0.648717 -0.019579 0.050000
v -0.648717 -0.019579 -0.050000
v -0.631680 -0.148988 -0.050000
v -0.631680 -0.148988 0.050000
v -0.552016 -0.341314 0.050000
v -0.552016 -0.341314 -0.050000
v -0.472557 -0.444867 -0.050000
v -0.472557 -0.444867 0.050000
v -0.307403 -0.571594 0.050000
v -0.307403 -0.571594 -0.050000
v -0.186812 -0.621545 -0.050000
v -0.186812 -0.621545 0.050000
v -0.000000 -0.375000 0.050000
v 0.097057 -0.362222 0.050000
v 0.097057 -0.362222 -0.050000
v -0.000000 -0.375000 -0.050000
v 0.187500 -0.324760 0.050000
v 0.187500 -0.324760 -0.050000
v 0.265165 -0.265165 0.050000
v 0.265165 -0.265165 -0.050000
v 0.324760 -0.187500 0.050000
v 0.324760 -0.187500 -0.050000
v 0.362222 -0.097057 0.050000
v 0.362222 -0.097057 -0.050000
v 0.375000 -0.000000 0.050000
v 0.375000 -0.000000 -0.050000
v 0.362222 0.097057 0.050000
v 0.362222 0.097057 -0.050000
v 0.324760 0.187500 0.050000
v 0.324760 0.187500 -0.050000
v 0.265165 0.265165 0.050000
v 0.265165 0.265165 -0.050000
v 0.187500 0.324760 0.050000
v 0.187500 0.324760 -0.050000
v 0.097057 0.362222 0.050000
v 0.097057 0.362222 -0.050000
v 0.000000 0.375000 0.050000
v 0.000000 0.375000 -0.050000
v -0.097057 0.362222 0.050000
v -0.097057 0.362222 -0.050000
v -0.187500 0.324760 0.050000
v -0.187500 0.324760 -0.050000
v -0.265165 0.265165 0.050000
v -0.265165 0.265165 -0.050000
v -0.324759 0.187500 0.050000
v -0.324759 0.187500 -0.050000
v -0.362222 0.097057 0.050000
v -0.362222 0.097057 -0.050000
v -0.375000 0.000000 0.050000
v -0.375000 0.000000 -0.050000
v -0.362222 -0.097057 0.050000
v -0.362222 -0.097057 -0.050000
v -0.324760 -0.187500 0.050000
v -0.324760 -0.187500 -0.050000
v -0.265165 -0.265165 0.050000
v -0.265165 -0.265165 -0.050000
v -0.187500 -0.324759 0.050000
v -0.187500 -0.324759 -0.050000
v -0.097057 -0.362222 0.050000
v -0.097057 -0.362222 -0.050000
v 0.000000 -0.187500 0.050000
v 0.048529 -0.181111 0.050000
v 0.048529 -0.181111 -0.050000
v 0.000000 -0.187500 -0.050000
v 0.093750 -0.162380 0.050000
v 0.093750 -0.162380 -0.050000
v 0.132583 -0.132582 0.050000
v 0.132583 -0.132582 -0.050000
v 0.162380 -0.093750 0.050000
v 0.162380 -0.093750 -0.050000
v 0.181111 -0.048529 0.050000
v 0.181111 -0.048529 -0.050000
v 0.187500 0.000000 0.050000
v 0.187500 0.000000 -0.050000
v 0.181111 0.048529 0.050000
v 0.181111 0.048529 -0.050000
v 0.162380 0.093750 0.050000
v 0.162380 0.093750 -0.050000
v 0.132583 0.132583 0.050000
v 0.132583 0.132583 -0.050000
v 0.093750 0.162380 0.050000
v 0.093750 0.162380 -0.050000
v 0.048529 0.181111 0.050000
v 0.048529 0.181111 -0.050000
v 0.000000 0.187500 0.050000
v 0.000000 0.187500 -0.050000
v -0.048528 0.181111 0.050000
v -0.048528 0.181111 -0.050000
v -0.093750 0.162380 0.050000
v -0.093750 0.162380 -0.050000
v -0.132582 0.132583 0.050000
v -0.132582 0.132583 -0.050000
v -0.162380 0.093750 0.050000
v -0.162380 0.093750 -0.050000
v -0.181111 0.048529 0.050000
v -0.181111 0.048529 -0.050000
v -0.187500 0.000000 0.050000
v -0.187500 0.000000 -0.050000
v -0.181111 -0.048528 0.050000
v -0.181111 -0.048528 -0.050000
v -0.162380 -0.093750 0.050000
v -0.162380 -0.093750 -0.050000
v -0.132583 -0.132582 0.050000
v -0.132583 -0.132582 -0.050000
v -0.093750 -0.162380 0.050000
v -0.093750 -0.162380 -0.050000
v -0.048529 -0.181111 0.050000
v -0.048529 -0.181111 -0.050000
v 0.000000 0.000000 -0.050000
v 0.000000 0.000000 0.050000
vt 0.333333 0.750000
vt 0.166667 0.750000
vt 0.166667 0.583333
vt 0.333333 0.333333
vt 0.500000 0.333333
vt 0.500000 0.500000
vt 0.333333 0.583333
vt 0.333333 0.500000
vt 0.833333 0.750000
vt 0.666667 0.750000
vt 0.666667 0.583333
vt 0.500000 0.583333
vt 0.833333 0.583333
vt 1.000000 0.583333
vt 0.000000 0.750000
vt 0.000000 0.583333
vt 0.500000 0.750000
vt 0.833333 0.166667
vt 0.833333 0.333333
vt 0.666667 0.333333
vt 0.500000 0.166667
vt 0.666667 0.166667
vt 0.333333 0.166667
vt 0.166667 0.333333
vt 0.500000 1.000000
vt 0.333333 1.000000
vt 0.166667 1.000000
vt 0.000000 1.000000
vt 0.833333 1.000000
vt 0.666667 1.000000
vt 1.000000 0.750000
vt 1.000000 0.333333
vt 1.000000 0.166667
vt -0.000000 0.083333
vt 0.166667 0.083333
vt 0.000000 0.333333
vt 0.250000 0.166667
vt 0.166667 0.166667
vt 0.166667 0.000000
vt 0.416667 0.166667
vt 0.333333 0.000000
vt 0.250000 0.000000
vt 0.416667 0.000000
vt 0.083333 0.333333
vt 0.083333 0.583333
vn 0.000000 -0.000000 -1.000000
vn 0.382700 -0.923900 0.000000
vn 0.000000 0.000000 1.000000
vn 0.793400 -0.608800 0.000000
vn 0.991400 -0.130500 0.000000
vn 0.923900 0.382700 0.000000
vn 0.608800 0.793400 0.000000
vn 0.130500 0.991400 0.000000
vn -0.382700 0.923900 0.000000
vn -0.793400 0.608800 0.000000
vn -0.991400 0.130500 -0.000000
vn -0.923900 -0.382700 0.000000
vn -0.608800 -0.793400 0.000000
vn -0.130500 -0.991400 0.000000
vn 0.130500 -0.991400 0.000000
vn -0.991400 -0.130500 0.000000
vn 0.991400 0.130500 0.000000
vn 0.608800 -0.793400 0.000000
vn -0.793400 -0.608800 0.000000
vn 0.793400 0.608800 0.000000
vn 0.923900 -0.382700 0.000000
vn -0.382700 -0.923900 0.000000
vn 0.382700 0.923900 0.000000
vn -0.130500 0.991400 0.000000
vn -0.608800 0.793400 0.000000
vn -0.923900 0.382700 0.000000
vn -0.258800 0.965900 -0.000000
vn -0.866000 0.500000 0.000000
vn 0.866000 -0.500000 0.000000
vn 0.965900 0.258800 0.000000
vn -0.500000 -0.866000 0.000000
vn -0.965900 -0.258800 0.000000
vn 0.500000 0.866000 0.000000
vn 0.258800 -0.965900 0.000000
s off
f 14/1/1 12/2/1 108/3/1
f 4/4/2 6/5/2 5/6/2
f 1/2/3 97/3/3 143/7/3
f 8/6/4 10/8/4 9/4/4
f 29/9/3 31/10/3 127/11/3
f 12/6/5 14/8/5 13/4/5
f 13/2/3 109/3/3 107/7/3
f 16/6/6 18/8/6 17/4/6
f 38/1/1 134/7/1 136/12/1
f 20/6/7 22/8/7 21/4/7
f 20/9/1 116/13/1 118/14/1
f 24/6/8 26/8/8 25/4/8
f 37/2/3 39/15/3 135/16/3
f 27/5/9 28/6/9 30/8/9
f 21/17/3 117/12/3 115/11/3
f 32/4/10 34/5/10 33/6/10
f 2/1/1 100/7/1 99/12/1
f 36/4/11 38/5/11 37/6/11
f 46/15/1 142/16/1 144/3/1
f 40/4/12 42/5/12 41/6/12
f 133/18/5 134/19/5 132/20/5
f 44/4/13 46/5/13 45/6/13
f 28/17/1 124/12/1 126/11/1
f 48/4/14 2/5/14 1/6/14
f 123/5/15 124/21/15 122/22/15
f 10/15/1 106/16/1 108/3/1
f 50/23/15 51/21/15 52/5/15
f 50/7/16 49/3/16 1/24/16
f 51/25/1 50/26/1 2/1/1
f 3/4/17 52/7/17 51/3/17
f 49/27/3 52/28/3 3/15/3
f 54/23/18 55/21/18 56/5/18
f 54/7/19 53/3/19 5/24/19
f 55/29/1 54/30/1 6/10/1
f 56/7/20 55/3/20 8/24/20
f 5/9/3 53/29/3 56/30/3
f 58/5/21 59/4/21 60/23/21
f 58/7/22 57/3/22 9/24/22
f 59/27/1 58/28/1 10/15/1
f 60/7/23 59/3/23 12/24/23
f 9/17/3 57/25/3 60/26/3
f 62/5/17 63/4/17 64/23/17
f 62/7/15 61/3/15 13/24/15
f 63/25/1 62/26/1 14/1/1
f 64/7/24 63/3/24 16/24/24
f 61/27/3 64/28/3 15/15/3
f 66/5/20 67/4/20 68/23/20
f 18/4/18 66/7/18 65/3/18
f 67/29/1 66/30/1 18/10/1
f 68/7/25 67/3/25 20/24/25
f 17/9/3 65/29/3 68/30/3
f 70/5/23 71/4/23 72/23/23
f 70/7/21 69/3/21 21/24/21
f 71/27/1 70/28/1 22/15/1
f 72/7/26 71/3/26 24/24/26
f 69/25/3 72/26/3 23/1/3
f 73/21/24 74/5/24 75/4/24
f 74/7/17 73/3/17 25/24/17
f 75/25/1 74/26/1 26/1/1
f 76/7/16 75/3/16 28/24/16
f 25/2/3 73/27/3 76/28/3
f 78/5/25 79/4/25 80/23/25
f 30/4/20 78/7/20 77/3/20
f 79/29/1 78/30/1 30/10/1
f 80/7/19 79/3/19 32/24/19
f 29/9/3 77/29/3 80/30/3
f 82/23/26 83/21/26 84/5/26
f 82/7/23 81/3/23 33/24/23
f 83/27/1 82/28/1 34/15/1
f 84/7/22 83/3/22 36/24/22
f 81/25/3 84/26/3 35/1/3
f 86/23/16 87/21/16 88/5/16
f 86/7/24 85/3/24 37/24/24
f 87/25/1 86/26/1 38/1/1
f 88/7/15 87/3/15 40/24/15
f 37/2/3 85/27/3 88/28/3
f 90/23/19 91/21/19 92/5/19
f 90/7/25 89/3/25 41/24/25
f 44/9/1 91/29/1 90/30/1
f 92/7/18 91/3/18 44/24/18
f 89/29/3 92/30/3 43/10/3
f 94/23/22 95/21/22 96/5/22
f 94/7/26 93/3/26 45/24/26
f 95/27/1 94/28/1 46/15/1
f 47/4/21 96/7/21 95/3/21
f 93/25/3 96/26/3 47/1/3
f 30/10/1 126/11/1 128/13/1
f 2/1/1 48/2/1 144/3/1
f 5/9/3 101/13/3 98/14/3
f 23/1/3 119/7/3 117/12/3
f 39/31/3 41/9/3 137/13/3
f 4/17/1 99/12/1 102/11/1
f 24/2/1 22/15/1 118/16/1
f 40/17/1 136/12/1 138/11/1
f 15/15/3 111/16/3 109/3/3
f 33/17/3 129/12/3 127/11/3
f 16/17/1 14/1/1 110/7/1
f 34/31/1 32/9/1 128/13/1
f 7/10/3 103/11/3 101/13/3
f 25/2/3 121/3/3 119/7/3
f 41/9/3 43/10/3 139/11/3
f 8/9/1 6/10/1 102/11/1
f 24/2/1 120/3/1 122/7/1
f 42/10/1 138/11/1 140/13/1
f 17/9/3 113/13/3 111/14/3
f 35/1/3 131/7/3 129/12/3
f 16/17/1 112/12/1 114/11/1
f 34/15/1 130/16/1 132/3/1
f 9/17/3 105/12/3 103/11/3
f 27/15/3 123/16/3 121/3/3
f 45/17/3 141/12/3 139/11/3
f 8/9/1 104/13/1 106/14/1
f 26/1/1 122/7/1 124/12/1
f 44/9/1 140/13/1 142/14/1
f 19/10/3 115/11/3 113/13/3
f 37/2/3 133/3/3 131/7/3
f 20/9/1 18/10/1 114/11/1
f 36/2/1 132/3/1 134/7/1
f 11/1/3 107/7/3 105/12/3
f 29/9/3 125/13/3 123/14/3
f 45/17/3 47/1/3 143/7/3
f 1/2/3 3/15/3 98/16/3
f 104/13/1 152/19/1 154/32/1
f 121/20/14 122/22/14 120/18/14
f 135/33/17 136/32/17 134/19/17
f 119/19/22 120/18/22 118/33/22
f 183/34/27 184/35/27 136/24/27
f 117/24/28 118/36/28 166/34/28
f 182/37/16 184/38/16 183/39/16
f 166/40/23 168/23/23 167/41/23
f 98/33/24 99/32/24 100/19/24
f 168/23/8 170/37/8 169/42/8
f 97/18/8 100/19/8 144/20/8
f 170/37/24 172/38/24 171/39/24
f 143/22/23 144/20/23 142/5/23
f 137/13/3 185/19/3 183/32/3
f 190/34/29 189/35/29 141/24/29
f 171/34/30 172/35/30 124/24/30
f 136/12/1 184/5/1 186/20/1
f 125/13/3 173/19/3 171/32/3
f 190/39/22 192/42/22 191/37/22
f 139/11/3 187/20/3 185/19/3
f 178/40/26 180/23/26 179/41/26
f 126/11/1 124/12/1 172/5/1
f 113/13/3 161/19/3 159/32/3
f 138/11/1 186/20/1 188/19/1
f 192/42/14 148/41/14 145/23/14
f 125/13/3 127/11/3 175/20/3
f 114/11/1 112/12/1 160/5/1
f 139/11/3 141/12/3 189/5/3
f 101/13/3 149/19/3 146/32/3
f 126/11/1 174/20/1 176/19/1
f 115/11/3 163/20/3 161/19/3
f 140/13/1 188/19/1 190/32/1
f 102/11/1 99/12/1 147/5/1
f 129/12/3 177/5/3 175/20/3
f 114/11/1 162/20/1 164/19/1
f 180/23/11 182/37/11 181/42/11
f 103/11/3 151/20/3 149/19/3
f 128/13/1 176/19/1 178/32/1
f 115/11/3 117/12/3 165/5/3
f 148/41/15 147/43/15 146/40/15
f 104/13/1 102/11/1 150/20/1
f 177/35/31 129/24/31 130/36/31
f 118/14/1 116/13/1 164/19/1
f 131/22/21 132/20/21 130/5/21
f 105/12/3 153/5/3 151/20/3
f 99/24/32 98/36/32 146/34/32
f 156/23/5 158/37/5 157/42/5
f 158/37/17 160/38/17 159/39/17
f 154/40/21 156/23/21 155/41/21
f 154/34/33 153/35/33 105/24/33
f 111/36/34 159/34/34 160/35/34
f 111/5/16 112/21/16 110/22/16
f 107/19/26 108/18/26 106/33/26
f 107/19/11 109/20/11 110/22/11
f 193/44/1 147/3/1 148/45/1
f 193/44/1 192/3/1 190/45/1
f 193/44/1 188/3/1 186/45/1
f 193/44/1 184/3/1 182/45/1
f 193/44/1 180/3/1 178/45/1
f 193/44/1 176/3/1 174/45/1
f 193/44/1 172/3/1 170/45/1
f 193/44/1 168/3/1 166/45/1
f 193/44/1 164/3/1 162/45/1
f 193/44/1 160/3/1 158/45/1
f 193/44/1 156/3/1 154/45/1
f 193/44/1 152/3/1 150/45/1
f 194/44/3 191/3/3 145/45/3
f 189/45/3 191/16/3 194/44/3
f 185/45/3 187/16/3 194/44/3
f 181/45/3 183/16/3 194/44/3
f 177/45/3 179/16/3 194/44/3
f 173/45/3 175/16/3 194/44/3
f 169/45/3 171/16/3 194/44/3
f 165/45/3 167/16/3 194/44/3
f 161/45/3 163/16/3 194/44/3
f 157/45/3 159/16/3 194/44/3
f 153/45/3 155/16/3 194/44/3
f 149/45/3 151/16/3 194/44/3
f 110/7/1 14/1/1 108/3/1
f 3/8/2 4/4/2 5/6/2
f 47/1/3 1/2/3 143/7/3
f 7/5/4 8/6/4 9/4/4
f 125/13/3 29/9/3 127/11/3
f 11/5/5 12/6/5 13/4/5
f 11/1/3 13/2/3 107/7/3
f 15/5/6 16/6/6 17/4/6
f 40/17/1 38/1/1 136/12/1
f 19/5/7 20/6/7 21/4/7
f 22/31/1 20/9/1 118/14/1
f 23/5/8 24/6/8 25/4/8
f 133/3/3 37/2/3 135/16/3
f 29/4/9 27/5/9 30/8/9
f 19/10/3 21/17/3 115/11/3
f 31/8/10 32/4/10 33/6/10
f 4/17/1 2/1/1 99/12/1
f 35/8/11 36/4/11 37/6/11
f 48/2/1 46/15/1 144/3/1
f 39/8/12 40/4/12 41/6/12
f 131/22/5 133/18/5 132/20/5
f 43/8/13 44/4/13 45/6/13
f 30/10/1 28/17/1 126/11/1
f 47/8/14 48/4/14 1/6/14
f 121/20/15 123/5/15 122/22/15
f 12/2/1 10/15/1 108/3/1
f 49/4/15 50/23/15 52/5/15
f 2/4/16 50/7/16 1/24/16
f 4/17/1 51/25/1 2/1/1
f 4/24/17 3/4/17 51/3/17
f 1/2/3 49/27/3 3/15/3
f 53/4/18 54/23/18 56/5/18
f 6/4/19 54/7/19 5/24/19
f 8/9/1 55/29/1 6/10/1
f 7/4/20 56/7/20 8/24/20
f 7/10/3 5/9/3 56/30/3
f 57/21/21 58/5/21 60/23/21
f 10/4/22 58/7/22 9/24/22
f 12/2/1 59/27/1 10/15/1
f 11/4/23 60/7/23 12/24/23
f 11/1/3 9/17/3 60/26/3
f 61/21/17 62/5/17 64/23/17
f 14/4/15 62/7/15 13/24/15
f 16/17/1 63/25/1 14/1/1
f 15/4/24 64/7/24 16/24/24
f 13/2/3 61/27/3 15/15/3
f 65/21/20 66/5/20 68/23/20
f 17/24/18 18/4/18 65/3/18
f 20/9/1 67/29/1 18/10/1
f 19/4/25 68/7/25 20/24/25
f 19/10/3 17/9/3 68/30/3
f 69/21/23 70/5/23 72/23/23
f 22/4/21 70/7/21 21/24/21
f 24/2/1 71/27/1 22/15/1
f 23/4/26 72/7/26 24/24/26
f 21/17/3 69/25/3 23/1/3
f 76/23/24 73/21/24 75/4/24
f 26/4/17 74/7/17 25/24/17
f 28/17/1 75/25/1 26/1/1
f 27/4/16 76/7/16 28/24/16
f 27/15/3 25/2/3 76/28/3
f 77/21/25 78/5/25 80/23/25
f 29/24/20 30/4/20 77/3/20
f 32/9/1 79/29/1 30/10/1
f 31/4/19 80/7/19 32/24/19
f 31/10/3 29/9/3 80/30/3
f 81/4/26 82/23/26 84/5/26
f 34/4/23 82/7/23 33/24/23
f 36/2/1 83/27/1 34/15/1
f 35/4/22 84/7/22 36/24/22
f 33/17/3 81/25/3 35/1/3
f 85/4/16 86/23/16 88/5/16
f 38/4/24 86/7/24 37/24/24
f 40/17/1 87/25/1 38/1/1
f 39/4/15 88/7/15 40/24/15
f 39/15/3 37/2/3 88/28/3
f 89/4/19 90/23/19 92/5/19
f 42/4/25 90/7/25 41/24/25
f 42/10/1 44/9/1 90/30/1
f 43/4/18 92/7/18 44/24/18
f 41/9/3 89/29/3 43/10/3
f 93/4/22 94/23/22 96/5/22
f 46/4/26 94/7/26 45/24/26
f 48/2/1 95/27/1 46/15/1
f 48/24/21 47/4/21 95/3/21
f 45/17/3 93/25/3 47/1/3
f 32/9/1 30/10/1 128/13/1
f 100/7/1 2/1/1 144/3/1
f 3/31/3 5/9/3 98/14/3
f 21/17/3 23/1/3 117/12/3
f 135/14/3 39/31/3 137/13/3
f 6/10/1 4/17/1 102/11/1
f 120/3/1 24/2/1 118/16/1
f 42/10/1 40/17/1 138/11/1
f 13/2/3 15/15/3 109/3/3
f 31/10/3 33/17/3 127/11/3
f 112/12/1 16/17/1 110/7/1
f 130/14/1 34/31/1 128/13/1
f 5/9/3 7/10/3 101/13/3
f 23/1/3 25/2/3 119/7/3
f 137/13/3 41/9/3 139/11/3
f 104/13/1 8/9/1 102/11/1
f 26/1/1 24/2/1 122/7/1
f 44/9/1 42/10/1 140/13/1
f 15/31/3 17/9/3 111/14/3
f 33/17/3 35/1/3 129/12/3
f 18/10/1 16/17/1 114/11/1
f 36/2/1 34/15/1 132/3/1
f 7/10/3 9/17/3 103/11/3
f 25/2/3 27/15/3 121/3/3
f 43/10/3 45/17/3 139/11/3
f 10/31/1 8/9/1 106/14/1
f 28/17/1 26/1/1 124/12/1
f 46/31/1 44/9/1 142/14/1
f 17/9/3 19/10/3 113/13/3
f 35/1/3 37/2/3 131/7/3
f 116/13/1 20/9/1 114/11/1
f 38/1/1 36/2/1 134/7/1
f 9/17/3 11/1/3 105/12/3
f 27/31/3 29/9/3 123/14/3
f 141/12/3 45/17/3 143/7/3
f 97/3/3 1/2/3 98/16/3
f 106/14/1 104/13/1 154/32/1
f 119/19/14 121/20/14 120/18/14
f 133/18/17 135/33/17 134/19/17
f 117/32/22 119/19/22 118/33/22
f 135/36/27 183/34/27 136/24/27
f 165/35/28 117/24/28 166/34/28
f 181/42/16 182/37/16 183/39/16
f 165/43/23 166/40/23 167/41/23
f 97/18/24 98/33/24 100/19/24
f 167/41/8 168/23/8 169/42/8
f 143/22/8 97/18/8 144/20/8
f 169/42/24 170/37/24 171/39/24
f 141/21/23 143/22/23 142/5/23
f 135/14/3 137/13/3 183/32/3
f 142/36/29 190/34/29 141/24/29
f 123/36/30 171/34/30 124/24/30
f 138/11/1 136/12/1 186/20/1
f 123/14/3 125/13/3 171/32/3
f 189/38/22 190/39/22 191/37/22
f 137/13/3 139/11/3 185/19/3
f 177/43/26 178/40/26 179/41/26
f 174/20/1 126/11/1 172/5/1
f 111/14/3 113/13/3 159/32/3
f 140/13/1 138/11/1 188/19/1
f 191/37/14 192/42/14 145/23/14
f 173/19/3 125/13/3 175/20/3
f 162/20/1 114/11/1 160/5/1
f 187/20/3 139/11/3 189/5/3
f 98/14/3 101/13/3 146/32/3
f 128/13/1 126/11/1 176/19/1
f 113/13/3 115/11/3 161/19/3
f 142/14/1 140/13/1 190/32/1
f 150/20/1 102/11/1 147/5/1
f 127/11/3 129/12/3 175/20/3
f 116/13/1 114/11/1 164/19/1
f 179/41/11 180/23/11 181/42/11
f 101/13/3 103/11/3 149/19/3
f 130/14/1 128/13/1 178/32/1
f 163/20/3 115/11/3 165/5/3
f 145/23/15 148/41/15 146/40/15
f 152/19/1 104/13/1 150/20/1
f 178/34/31 177/35/31 130/36/31
f 166/32/1 118/14/1 164/19/1
f 129/21/21 131/22/21 130/5/21
f 103/11/3 105/12/3 151/20/3
f 147/35/32 99/24/32 146/34/32
f 155/41/5 156/23/5 157/42/5
f 157/42/17 158/37/17 159/39/17
f 153/43/21 154/40/21 155/41/21
f 106/36/33 154/34/33 105/24/33
f 112/24/34 111/36/34 160/35/34
f 109/20/16 111/5/16 110/22/16
f 105/32/26 107/19/26 106/33/26
f 108/18/11 107/19/11 110/22/11
f 192/16/1 193/44/1 148/45/1
f 188/16/1 193/44/1 190/45/1
f 184/16/1 193/44/1 186/45/1
f 180/16/1 193/44/1 182/45/1
f 176/16/1 193/44/1 178/45/1
f 172/16/1 193/44/1 174/45/1
f 168/16/1 193/44/1 170/45/1
f 164/16/1 193/44/1 166/45/1
f 160/16/1 193/44/1 162/45/1
f 156/16/1 193/44/1 158/45/1
f 152/16/1 193/44/1 154/45/1
f 147/16/1 193/44/1 150/45/1
f 146/16/3 194/44/3 145/45/3
f 187/3/3 189/45/3 194/44/3
f 183/3/3 185/45/3 194/44/3
f 179/3/3 181/45/3 194/44/3
f 175/3/3 177/45/3 194/44/3
f 171/3/3 173/45/3 194/44/3
f 167/3/3 169/45/3 194/44/3
f 163/3/3 165/45/3 194/44/3
f 159/3/3 161/45/3 194/44/3
f 155/3/3 157/45/3 194/44/3
f 151/3/3 153/45/3 194/44/3
f 146/3/3 149/45/3 194/44/3
