# Blender v2.76 (sub 0) OBJ File: 'epress_head.blend'
# www.blender.org
o Cube.001_Cube.002
v -0.100000 0.000000 0.375000
v -0.100000 0.125000 0.375000
v -0.100000 0.000000 -0.375000
v -0.100000 0.125000 -0.375000
v 0.400000 0.000000 0.375000
v 0.400000 0.125000 0.375000
v 0.400000 0.000000 -0.375000
v 0.400000 0.125000 -0.375000
v -0.100000 0.125000 0.000000
v 0.400000 0.125000 0.000000
v 0.300000 0.125000 -0.075000
v 0.300000 0.125000 -0.300000
v 0.000000 0.125000 -0.300000
v 0.000000 0.125000 -0.075000
v 0.300000 0.125000 0.300000
v 0.300000 0.125000 0.075000
v 0.000000 0.125000 0.075000
v 0.000000 0.125000 0.300000
v 0.300000 1.000000 -0.300000
v 0.300000 1.000000 -0.075000
v 0.000000 1.000000 -0.300000
v 0.000000 1.000000 -0.075000
v 0.300000 1.000000 0.075000
v 0.300000 1.000000 0.300000
v 0.000000 1.000000 0.075000
v 0.000000 1.000000 0.300000
vt 0.026199 0.239343
vt 0.079485 0.079485
vt 0.079485 0.399201
vt 0.292629 0.026199
vt 0.292629 0.079485
vt 0.345915 0.239343
vt 0.292629 0.399201
vt 0.079485 0.452487
vt 0.377886 0.504884
vt 0.377887 0.877887
vt 0.250000 0.877887
vt 0.388544 0.111456
vt 0.388544 0.207371
vt 0.516430 0.111457
vt 0.345915 0.079485
vt 0.516430 0.207371
vt 0.559059 0.079485
vt 0.559059 0.239343
vt 0.154085 0.504884
vt 0.154085 0.877887
vt 0.026199 0.877887
vt 0.388544 0.271315
vt 0.388544 0.367229
vt 0.345915 0.399201
vt 0.516430 0.271315
vt 0.516430 0.367229
vt 0.559059 0.399201
vt 0.973801 0.504884
vt 0.973801 0.877887
vt 0.877887 0.877887
vt 0.750000 0.504884
vt 0.750000 0.877887
vt 0.654085 0.877887
vt 0.473801 0.504884
vt 0.473801 0.877886
vt 0.654085 0.504884
vt 0.526199 0.877887
vt 0.250000 0.504884
vt 0.877887 0.504884
vt 0.026199 0.399201
vt 0.026199 0.079485
vt 0.079485 0.026199
vt 0.292629 0.452487
vt 0.026199 0.504884
vt 0.526199 0.504884
vn -1.000000 0.000000 0.000000
vn 0.000000 0.000000 -1.000000
vn 1.000000 0.000000 0.000000
vn 0.000000 0.000000 1.000000
vn 0.000000 -1.000000 0.000000
vn 0.000000 1.000000 0.000000
s off
f 9/1/1 3/2/1 1/3/1
f 8/4/2 7/5/2 3/2/2
f 10/6/3 5/7/3 7/5/3
f 2/8/4 1/3/4 5/7/4
f 3/2/5 7/5/5 5/7/5
f 13/9/2 21/10/2 19/11/2
f 12/12/6 11/13/6 10/6/6
f 13/14/6 12/12/6 8/15/6
f 14/16/6 13/14/6 4/17/6
f 11/13/6 14/16/6 9/18/6
f 11/19/4 20/20/4 22/21/4
f 16/22/6 15/23/6 6/24/6
f 17/25/6 16/22/6 10/6/6
f 18/26/6 17/25/6 9/18/6
f 15/23/6 18/26/6 2/27/6
f 18/28/1 26/29/1 25/30/1
f 16/31/3 23/32/3 24/33/3
f 14/34/1 22/35/1 21/10/1
f 15/36/4 24/33/4 26/37/4
f 12/38/3 19/11/3 20/20/3
f 17/39/2 25/30/2 23/32/2
f 1/3/1 2/40/1 9/1/1
f 9/1/1 4/41/1 3/2/1
f 4/42/2 8/4/2 3/2/2
f 7/5/3 8/15/3 10/6/3
f 10/6/3 6/24/3 5/7/3
f 6/43/4 2/8/4 5/7/4
f 1/3/5 3/2/5 5/7/5
f 12/38/2 13/9/2 19/11/2
f 8/15/6 12/12/6 10/6/6
f 4/17/6 13/14/6 8/15/6
f 9/18/6 14/16/6 4/17/6
f 10/6/6 11/13/6 9/18/6
f 14/44/4 11/19/4 22/21/4
f 10/6/6 16/22/6 6/24/6
f 9/18/6 17/25/6 10/6/6
f 2/27/6 18/26/6 9/18/6
f 6/24/6 15/23/6 2/27/6
f 17/39/1 18/28/1 25/30/1
f 15/36/3 16/31/3 24/33/3
f 13/9/1 14/34/1 21/10/1
f 18/45/4 15/36/4 26/37/4
f 11/19/3 12/38/3 20/20/3
f 16/31/2 17/39/2 23/32/2
