# Blender v2.76 (sub 0) OBJ File: 'MissileHuge.blend'
# www.blender.org
o Cylinder
v 0.264256 0.500000 -0.178243
v 0.352341 0.000000 -0.237657
v 0.234573 0.000000 -0.354401
v -0.264256 0.500000 0.178243
v -0.352341 -0.000000 0.237657
v -0.234573 -0.000000 0.354402
v 0.312351 0.500000 -0.063548
v 0.416468 0.000000 -0.084731
v -0.312351 0.500000 0.063548
v -0.416468 -0.000000 0.084731
v 0.312894 0.500000 0.060821
v 0.417192 -0.000000 0.081094
v -0.312894 0.500000 -0.060820
v -0.417192 0.000000 -0.081094
v 0.265801 0.500000 0.175930
v 0.354401 -0.000000 0.234573
v -0.265801 0.500000 -0.175930
v -0.354401 0.000000 -0.234573
v 0.178243 0.500000 0.264256
v 0.237657 -0.000000 0.352341
v -0.178243 0.500000 -0.264256
v -0.237657 0.000000 -0.352341
v 0.063548 0.500000 0.312351
v 0.084731 -0.000000 0.416468
v 0.060820 0.500000 -0.312894
v 0.081094 0.000000 -0.417192
v -0.084731 0.000000 -0.416468
v -0.063548 0.500000 -0.312351
v -0.060820 0.500000 0.312894
v -0.081094 -0.000000 0.417192
v 0.279597 0.500000 0.414519
v 0.099684 0.500000 0.489962
v 0.095404 0.500000 -0.490814
v -0.175930 0.500000 0.265802
v -0.490814 0.500000 -0.095405
v -0.490814 2.500000 -0.095405
v -0.416943 2.500000 -0.275969
v -0.279596 0.500000 -0.414519
v -0.416943 0.500000 -0.275969
v 0.416943 0.500000 0.275968
v -0.489962 0.500000 0.099684
v 0.490814 0.500000 0.095405
v 0.414519 0.500000 -0.279596
v 0.489962 0.500000 -0.099684
v -0.414519 0.500000 0.279597
v 0.275968 0.500000 -0.416943
v -0.095404 0.500000 0.490814
v -0.275968 0.500000 0.416943
v 0.175930 0.500000 -0.265801
v -0.099684 0.500000 -0.489962
v 0.414519 2.500000 -0.279596
v 0.310889 4.000000 -0.209697
v 0.367472 4.000000 -0.074763
v 0.416943 2.500000 0.275968
v 0.279596 2.500000 0.414519
v -0.279596 2.500000 -0.414519
v 0.099684 2.500000 0.489962
v -0.099684 2.500000 -0.489962
v 0.095404 2.500000 -0.490814
v -0.095404 2.500000 0.490814
v 0.275968 2.500000 -0.416943
v -0.275968 2.500000 0.416943
v -0.414519 2.500000 0.279597
v 0.489962 2.500000 -0.099684
v -0.489962 2.500000 0.099684
v 0.490814 2.500000 0.095405
v 0.074763 5.500000 0.367472
v 0.056072 6.000000 0.275604
v -0.053665 6.000000 0.276083
v -0.310889 4.000000 0.209697
v 0.368110 4.000000 0.071553
v -0.367472 4.000000 0.074763
v -0.368110 4.000000 -0.071553
v 0.312707 4.000000 0.206976
v 0.209697 4.000000 0.310889
v -0.312707 4.000000 -0.206976
v -0.209697 4.000000 -0.310889
v 0.074763 4.000000 0.367472
v -0.074763 4.000000 -0.367472
v -0.071553 4.000000 0.368110
v 0.071553 4.000000 -0.368110
v -0.206976 4.000000 0.312707
v 0.206976 4.000000 -0.312707
v 0.233166 6.000000 -0.157273
v 0.155232 6.000000 -0.234530
v 0.000000 6.500000 0.000000
v 0.206976 5.500000 -0.312707
v 0.071553 5.500000 -0.368110
v 0.053665 6.000000 -0.276083
v -0.206977 5.500000 0.312707
v -0.071554 5.500000 0.368110
v -0.155233 6.000000 0.234530
v -0.233167 6.000000 0.157273
v 0.310889 5.500000 -0.209697
v 0.275603 6.000000 -0.056072
v -0.367472 5.500000 0.074763
v -0.310889 5.500000 0.209697
v 0.367471 5.500000 -0.074763
v 0.276082 6.000000 0.053665
v -0.368110 5.500000 -0.071553
v -0.275604 6.000000 0.056072
v 0.368110 5.500000 0.071553
v 0.234530 6.000000 0.155232
v -0.276083 6.000000 -0.053665
v -0.234531 6.000000 -0.155232
v 0.312707 5.500000 0.206976
v 0.157273 6.000000 0.233167
v -0.312707 5.500000 -0.206976
v -0.157273 6.000000 -0.233167
v 0.209697 5.500000 0.310889
v -0.074763 5.500000 -0.367472
v -0.056073 6.000000 -0.275604
v -0.209697 5.500000 -0.310889
vt 0.149260 0.839187
vt 0.109237 0.763560
vt 0.134278 0.751582
vt 0.310796 0.812746
vt 0.324618 0.728305
vt 0.351807 0.733896
vt 0.131270 0.849663
vt 0.085250 0.777529
vt 0.290131 0.810219
vt 0.297065 0.724936
vt 0.114187 0.861563
vt 0.062473 0.793394
vt 0.269330 0.809375
vt 0.269330 0.723810
vt 0.407390 0.849663
vt 0.453410 0.777529
vt 0.476186 0.793394
vt 0.248528 0.810219
vt 0.241595 0.724936
vt 0.389399 0.839187
vt 0.429422 0.763560
vt 0.227864 0.812746
vt 0.214042 0.728305
vt 0.370619 0.830203
vt 0.404382 0.751582
vt 0.187487 0.822771
vt 0.160206 0.741672
vt 0.186853 0.733896
vt 0.207472 0.816939
vt 0.351172 0.822771
vt 0.378453 0.741672
vt 0.914489 0.049954
vt 0.881833 0.049954
vt 0.887752 0.020197
vt 0.840254 0.735366
vt 0.923908 0.679471
vt 0.979803 0.763125
vt 0.587926 0.049954
vt 0.593845 0.020198
vt 0.614663 0.020198
vt 0.331187 0.816939
vt 0.718551 0.049954
vt 0.718551 0.384736
vt 0.685895 0.384736
vt 0.653238 0.049954
vt 0.659157 0.020198
vt 0.679976 0.020197
vt 0.920408 0.020197
vt 0.941227 0.020197
vt 0.685895 0.049954
vt 0.691814 0.020197
vt 0.712632 0.020198
vt 0.947146 0.049954
vt 0.953064 0.020197
vt 0.973883 0.020197
vt 0.751207 0.049954
vt 0.724470 0.020198
vt 0.457300 0.049954
vt 0.463219 0.020197
vt 0.484038 0.020197
vt 0.757126 0.020198
vt 0.777945 0.020197
vt 0.522613 0.049954
vt 0.489957 0.049954
vt 0.495875 0.020197
vt 0.783864 0.049954
vt 0.789783 0.020197
vt 0.810601 0.020198
vt 0.555269 0.049954
vt 0.528532 0.020197
vt 0.849177 0.049954
vt 0.816520 0.049954
vt 0.822439 0.020198
vt 0.561188 0.020197
vt 0.582007 0.020198
vt 0.855095 0.020197
vt 0.875914 0.020197
vt 0.168041 0.830203
vt 0.620582 0.049954
vt 0.626501 0.020198
vt 0.647319 0.020198
vt 0.522612 0.384736
vt 0.518530 0.636659
vt 0.494038 0.636659
vt 0.947147 0.384735
vt 0.914490 0.384735
vt 0.653238 0.384736
vt 0.881834 0.384736
vt 0.620582 0.384736
vt 0.587925 0.384736
vt 0.849177 0.384736
vt 0.555269 0.384736
vt 0.816521 0.384736
vt 0.783864 0.384736
vt 0.489956 0.384736
vt 0.751208 0.384736
vt 0.457300 0.384736
vt 0.979802 0.049954
vt 0.979803 0.384735
vt 0.341013 0.271283
vt 0.337952 0.356383
vt 0.319582 0.356383
vt 0.779783 0.636660
vt 0.485874 0.636661
vt 0.461382 0.636661
vt 0.747126 0.636660
vt 0.722634 0.636660
vt 0.975722 0.636658
vt 0.714469 0.636661
vt 0.943066 0.636659
vt 0.918573 0.636659
vt 0.681813 0.636661
vt 0.657320 0.636661
vt 0.910409 0.636660
vt 0.885917 0.636660
vt 0.616500 0.636662
vt 0.649156 0.636659
vt 0.877753 0.636661
vt 0.853261 0.636661
vt 0.583843 0.636661
vt 0.845096 0.636661
vt 0.820604 0.636661
vt 0.551187 0.636660
vt 0.526694 0.636660
vt 0.812439 0.636661
vt 0.074658 0.356383
vt 0.093028 0.356383
vt 0.083843 0.451970
vt 0.096089 0.271283
vt 0.120582 0.271283
vt 0.117520 0.356383
vt 0.292028 0.271283
vt 0.316521 0.271283
vt 0.313459 0.356382
vt 0.288967 0.356382
vt 0.270598 0.356382
vt 0.071597 0.271283
vt 0.068535 0.356382
vt 0.050166 0.356382
vt 0.243044 0.271283
vt 0.267536 0.271283
vt 0.264475 0.356383
vt 0.047105 0.271283
vt 0.044043 0.356383
vt 0.025674 0.356383
vt 0.218551 0.271283
vt 0.239982 0.356383
vt 0.414490 0.271283
vt 0.411429 0.356382
vt 0.393060 0.356382
vt 0.215490 0.356383
vt 0.197121 0.356383
vt 0.389998 0.271283
vt 0.386937 0.356382
vt 0.368567 0.356382
vt 0.194059 0.271283
vt 0.190997 0.356383
vt 0.172628 0.356383
vt 0.365505 0.271283
vt 0.362444 0.356383
vt 0.344075 0.356383
vt 0.145074 0.271283
vt 0.142013 0.356383
vt 0.123643 0.356383
vt 0.169567 0.271283
vt 0.166505 0.356383
vt 0.059350 0.451969
vt 0.034858 0.451971
vt 0.402245 0.451970
vt 0.377753 0.451970
vt 0.099151 0.356383
vt 0.108335 0.451971
vt 0.353260 0.451971
vt 0.328767 0.451971
vt 0.304275 0.451969
vt 0.295090 0.356382
vt 0.279783 0.451970
vt 0.255291 0.451971
vt 0.246106 0.356383
vt 0.230798 0.451971
vt 0.221613 0.356383
vt 0.206306 0.451971
vt 0.181813 0.451970
vt 0.157321 0.451971
vt 0.148136 0.356383
vt 0.132828 0.451972
vt 0.169567 0.020197
vt 0.145075 0.020197
vt 0.365505 0.020197
vt 0.194059 0.020197
vt 0.389997 0.020197
vt 0.218551 0.020197
vt 0.414489 0.020197
vt 0.243043 0.020197
vt 0.047106 0.020197
vt 0.022612 0.271283
vt 0.267536 0.020197
vt 0.071598 0.020197
vt 0.292028 0.020197
vt 0.096090 0.020197
vt 0.316520 0.020197
vt 0.120582 0.020197
vt 0.341012 0.020197
vt 0.424472 0.861563
vt 0.908570 0.020197
vt 0.969181 0.788769
vt 0.949553 0.808397
vt 0.923908 0.819020
vt 0.896150 0.819020
vt 0.870505 0.808397
vt 0.850877 0.788769
vt 0.840254 0.763124
vt 0.850877 0.709721
vt 0.870505 0.690094
vt 0.896150 0.679471
vt 0.949553 0.690094
vt 0.969180 0.709722
vt 0.979803 0.735366
vt 0.745288 0.020198
vt 0.516694 0.020197
vt 0.549350 0.020197
vt 0.843257 0.020197
vt 0.755291 0.636661
vt 0.951230 0.636658
vt 0.689977 0.636661
vt 0.592008 0.636662
vt 0.624664 0.636659
vt 0.559351 0.636661
vt 0.787947 0.636661
vt 0.022613 0.020197
vn 0.689200 0.204000 -0.695200
vn -0.689200 0.204000 0.695200
vn 0.902800 0.204000 -0.378600
vn -0.902800 0.204000 0.378600
vn 0.979000 0.204000 -0.004300
vn -0.979000 0.204000 0.004300
vn 0.906100 0.204000 0.370700
vn -0.906100 0.204000 -0.370700
vn 0.695200 0.204000 0.689200
vn -0.695200 0.204000 -0.689200
vn 0.378600 0.204000 0.902800
vn -0.004300 0.204000 -0.979000
vn -0.378600 0.204000 -0.902800
vn 0.004300 0.204000 0.979000
vn -0.000000 -1.000000 -0.000000
vn -0.370700 0.204000 0.906100
vn -0.925500 0.000000 -0.378700
vn -0.925500 0.000000 -0.378600
vn 0.370700 0.204000 -0.906100
vn 0.919100 0.081500 -0.385400
vn 0.710200 0.000000 0.704000
vn -0.710200 0.000000 -0.704000
vn 0.386700 -0.000000 0.922200
vn -0.004400 0.000000 -1.000000
vn -0.386700 0.000000 -0.922200
vn 0.004400 -0.000000 1.000000
vn 0.378600 0.000000 -0.925500
vn -0.378700 -0.000000 0.925500
vn 0.704000 0.000000 -0.710200
vn -0.704000 -0.000000 0.710200
vn 0.922200 0.000000 -0.386700
vn -0.922200 -0.000000 0.386700
vn 1.000000 0.000000 -0.004400
vn -1.000000 0.000000 0.004400
vn 0.925500 -0.000000 0.378700
vn 0.004300 0.180900 0.983500
vn -0.919100 0.081500 0.385400
vn 0.996700 0.081500 -0.004400
vn 0.996700 0.081500 -0.004300
vn -0.996700 0.081500 0.004400
vn -0.996700 0.081500 0.004300
vn 0.922500 0.081500 0.377400
vn -0.922500 0.081500 -0.377400
vn 0.707800 0.081500 0.701700
vn -0.707800 0.081500 -0.701700
vn 0.385400 0.081500 0.919100
vn -0.004400 0.081500 -0.996700
vn -0.004300 0.081500 -0.996700
vn -0.385400 0.081500 -0.919100
vn 0.004400 0.081500 0.996700
vn 0.004300 0.081500 0.996700
vn 0.377400 0.081500 -0.922500
vn -0.377400 0.081500 0.922500
vn 0.701700 0.081500 -0.707800
vn -0.701700 0.081500 0.707800
vn 0.616400 0.483100 -0.621800
vn 0.372400 0.180900 -0.910300
vn -0.372400 0.180900 0.910300
vn 0.692400 0.180900 -0.698500
vn -0.692400 0.180900 0.698500
vn 0.907000 0.180900 -0.380300
vn -0.907000 0.180900 0.380300
vn 0.983500 0.180900 -0.004300
vn -0.983500 0.180900 0.004300
vn 0.910300 0.180900 0.372400
vn -0.910300 0.180900 -0.372400
vn 0.698500 0.180900 0.692400
vn -0.698500 0.180900 -0.692400
vn 0.380300 0.180900 0.907000
vn -0.004300 0.180900 -0.983500
vn -0.380300 0.180900 -0.907000
vn 0.807500 0.483100 -0.338600
vn 0.875600 0.483100 -0.003800
vn 0.810400 0.483100 0.331500
vn 0.621800 0.483100 0.616400
vn 0.331500 0.483100 -0.810400
vn 0.338600 0.483100 0.807500
vn 0.003800 0.483100 0.875600
vn -0.331500 0.483100 0.810400
vn -0.616400 0.483100 0.621800
vn -0.807500 0.483100 0.338600
vn -0.875600 0.483100 0.003800
vn -0.810400 0.483100 -0.331500
vn -0.621800 0.483100 -0.616400
vn -0.338600 0.483100 -0.807500
vn -0.003800 0.483100 -0.875600
vn 0.925500 -0.000000 0.378600
vn -0.378600 -0.000000 0.925500
s 1
f 1/1/1 2/2/1 3/3/1
f 4/4/2 5/5/2 6/6/2
f 7/7/3 8/8/3 2/2/3
f 9/9/4 10/10/4 5/5/4
f 11/11/5 12/12/5 8/8/5
f 13/13/6 14/14/6 10/10/6
f 15/15/7 16/16/7 12/17/7
f 17/18/8 18/19/8 14/14/8
f 19/20/9 20/21/9 16/16/9
f 21/22/10 22/23/10 18/19/10
f 23/24/11 24/25/11 20/21/11
f 25/26/12 26/27/12 27/28/12
f 28/29/13 27/28/13 22/23/13
f 29/30/14 30/31/14 24/25/14
f 31/32/15 32/33/15 23/34/15
f 24/35/15 10/36/15 27/37/15
f 33/38/15 25/39/15 28/40/15
f 34/41/16 6/6/16 30/31/16
f 35/42/17 36/43/18 37/44/18
f 38/45/15 21/46/15 17/47/15
f 31/32/15 19/48/15 15/49/15
f 39/50/15 17/51/15 13/52/15
f 40/53/15 15/54/15 11/55/15
f 41/56/15 35/42/15 13/57/15
f 42/58/15 11/59/15 7/60/15
f 41/56/15 9/61/15 4/62/15
f 43/63/15 44/64/15 7/65/15
f 45/66/15 4/67/15 34/68/15
f 46/69/15 43/63/15 1/70/15
f 47/71/15 48/72/15 34/73/15
f 46/69/15 49/74/15 25/75/15
f 47/71/15 29/76/15 23/77/15
f 49/78/19 3/3/19 26/27/19
f 50/79/15 28/80/15 21/81/15
f 51/82/20 52/83/20 53/84/20
f 40/53/21 54/85/21 55/86/21
f 39/50/22 37/44/22 56/87/22
f 31/32/23 55/86/23 57/88/23
f 50/79/24 58/89/24 59/90/24
f 50/79/25 38/45/25 56/87/25
f 32/33/26 57/88/26 60/91/26
f 33/38/27 59/90/27 61/92/27
f 47/71/28 60/91/28 62/93/28
f 46/69/29 61/92/29 51/82/29
f 48/72/30 62/93/30 63/94/30
f 43/63/31 51/82/31 64/95/31
f 45/66/32 63/94/32 65/96/32
f 44/64/33 64/95/33 66/97/33
f 41/56/34 65/96/34 36/43/34
f 42/98/35 66/99/35 54/85/35
f 67/100/36 68/101/36 69/102/36
f 65/96/37 63/94/37 70/103/37
f 64/95/38 53/104/39 71/105/39
f 65/96/40 72/106/41 73/107/41
f 54/85/42 66/99/42 71/108/42
f 37/44/43 36/43/43 73/109/43
f 54/85/44 74/110/44 75/111/44
f 37/44/45 76/112/45 77/113/45
f 55/86/46 75/114/46 78/115/46
f 59/90/47 58/89/47 79/116/48
f 58/89/49 56/87/49 77/117/49
f 57/88/50 78/118/51 80/119/51
f 61/92/52 59/90/52 81/120/52
f 60/91/53 80/121/53 82/122/53
f 61/92/54 83/123/54 52/124/54
f 63/94/55 62/93/55 82/125/55
f 84/126/56 85/127/56 86/128/56
f 87/129/57 88/130/57 89/131/57
f 90/132/58 91/133/58 69/134/58
f 87/129/59 85/127/59 84/126/59
f 90/132/60 92/135/60 93/136/60
f 94/137/61 84/138/61 95/139/61
f 96/140/62 97/141/62 93/142/62
f 98/143/63 95/144/63 99/145/63
f 100/146/64 96/140/64 101/147/64
f 102/148/65 99/149/65 103/150/65
f 100/146/66 104/151/66 105/152/66
f 106/153/67 103/154/67 107/155/67
f 108/156/68 105/157/68 109/158/68
f 110/159/69 107/160/69 68/161/69
f 111/162/70 112/163/70 89/164/70
f 111/162/71 113/165/71 109/166/71
f 84/138/72 86/167/72 95/139/72
f 95/144/73 86/168/73 99/145/73
f 99/149/74 86/169/74 103/150/74
f 103/154/75 86/170/75 107/155/75
f 85/171/76 89/131/76 86/172/76
f 107/160/77 86/173/77 68/161/77
f 68/101/78 86/174/78 69/102/78
f 69/134/79 86/175/79 92/176/79
f 92/135/80 86/177/80 93/136/80
f 93/142/81 86/178/81 101/179/81
f 101/147/82 86/180/82 104/181/82
f 104/151/83 86/182/83 105/152/83
f 105/157/84 86/183/84 109/158/84
f 109/166/85 86/184/85 112/185/85
f 112/163/86 86/186/86 89/164/86
f 77/187/25 113/165/25 111/162/25
f 79/188/24 111/162/24 88/130/24
f 75/189/23 110/159/23 67/100/23
f 76/190/22 108/156/22 113/165/22
f 74/191/21 106/153/21 110/159/21
f 73/192/18 100/146/18 108/156/18
f 71/193/87 102/148/87 106/153/87
f 72/194/34 96/140/34 100/146/34
f 53/195/33 98/143/33 102/196/33
f 70/197/32 97/141/32 96/140/32
f 52/198/31 94/137/31 98/143/31
f 82/199/30 90/132/30 97/141/30
f 83/200/29 87/129/29 94/137/29
f 80/201/88 91/133/88 90/132/88
f 81/202/27 88/130/27 87/129/27
f 80/201/26 78/203/26 67/100/26
f 49/78/1 1/1/1 3/3/1
f 34/41/2 4/4/2 6/6/2
f 1/1/3 7/7/3 2/2/3
f 4/4/4 9/9/4 5/5/4
f 7/7/5 11/11/5 8/8/5
f 9/9/6 13/13/6 10/10/6
f 11/204/7 15/15/7 12/17/7
f 13/13/8 17/18/8 14/14/8
f 15/15/9 19/20/9 16/16/9
f 17/18/10 21/22/10 18/19/10
f 19/20/11 23/24/11 20/21/11
f 28/29/12 25/26/12 27/28/12
f 21/22/13 28/29/13 22/23/13
f 23/24/14 29/30/14 24/25/14
f 19/205/15 31/32/15 23/34/15
f 27/37/15 26/206/15 3/207/15
f 3/207/15 2/208/15 8/209/15
f 8/209/15 12/210/15 16/211/15
f 16/211/15 20/212/15 24/35/15
f 24/35/15 30/213/15 10/36/15
f 6/214/15 5/215/15 10/36/15
f 10/36/15 14/216/15 18/217/15
f 18/217/15 22/218/15 10/36/15
f 27/37/15 3/207/15 8/209/15
f 8/209/15 16/211/15 24/35/15
f 30/213/15 6/214/15 10/36/15
f 10/36/15 22/218/15 27/37/15
f 27/37/15 8/209/15 24/35/15
f 50/79/15 33/38/15 28/40/15
f 29/30/16 34/41/16 30/31/16
f 39/50/17 35/42/17 37/44/18
f 39/50/15 38/45/15 17/47/15
f 40/53/15 31/32/15 15/49/15
f 35/42/15 39/50/15 13/52/15
f 42/98/15 40/53/15 11/55/15
f 9/219/15 41/56/15 13/57/15
f 44/64/15 42/58/15 7/60/15
f 45/66/15 41/56/15 4/62/15
f 1/220/15 43/63/15 7/65/15
f 48/72/15 45/66/15 34/68/15
f 49/221/15 46/69/15 1/70/15
f 29/222/15 47/71/15 34/73/15
f 33/38/15 46/69/15 25/75/15
f 32/33/15 47/71/15 23/77/15
f 25/26/19 49/78/19 26/27/19
f 38/45/15 50/79/15 21/81/15
f 64/95/20 51/82/20 53/84/20
f 31/32/21 40/53/21 55/86/21
f 38/45/22 39/50/22 56/87/22
f 32/33/23 31/32/23 57/88/23
f 33/38/24 50/79/24 59/90/24
f 58/89/25 50/79/25 56/87/25
f 47/71/26 32/33/26 60/91/26
f 46/69/27 33/38/27 61/92/27
f 48/72/28 47/71/28 62/93/28
f 43/63/29 46/69/29 51/82/29
f 45/66/30 48/72/30 63/94/30
f 44/64/31 43/63/31 64/95/31
f 41/56/32 45/66/32 65/96/32
f 42/58/33 44/64/33 66/97/33
f 35/42/34 41/56/34 36/43/34
f 40/53/35 42/98/35 54/85/35
f 91/133/36 67/100/36 69/102/36
f 72/223/37 65/96/37 70/103/37
f 66/97/38 64/95/38 71/105/39
f 36/43/40 65/96/40 73/107/41
f 74/224/42 54/85/42 71/108/42
f 76/225/43 37/44/43 73/109/43
f 55/86/44 54/85/44 75/111/44
f 56/87/45 37/44/45 77/113/45
f 57/88/46 55/86/46 78/115/46
f 81/226/48 59/90/47 79/116/48
f 79/227/49 58/89/49 77/117/49
f 60/91/50 57/88/50 80/119/51
f 83/228/52 61/92/52 81/120/52
f 62/93/53 60/91/53 82/122/53
f 51/82/54 61/92/54 52/124/54
f 70/229/55 63/94/55 82/125/55
f 85/171/57 87/129/57 89/131/57
f 92/176/58 90/132/58 69/134/58
f 94/137/59 87/129/59 84/126/59
f 97/141/60 90/132/60 93/136/60
f 98/143/61 94/137/61 95/139/61
f 101/179/62 96/140/62 93/142/62
f 102/196/63 98/143/63 99/145/63
f 104/181/64 100/146/64 101/147/64
f 106/153/65 102/148/65 103/150/65
f 108/156/66 100/146/66 105/152/66
f 110/159/67 106/153/67 107/155/67
f 113/165/68 108/156/68 109/158/68
f 67/100/69 110/159/69 68/161/69
f 88/130/70 111/162/70 89/164/70
f 112/185/71 111/162/71 109/166/71
f 79/188/25 77/187/25 111/162/25
f 81/202/24 79/188/24 88/130/24
f 78/203/23 75/189/23 67/100/23
f 77/187/22 76/190/22 113/165/22
f 75/189/21 74/191/21 110/159/21
f 76/190/18 73/192/18 108/156/18
f 74/191/87 71/193/87 106/153/87
f 73/192/34 72/194/34 100/146/34
f 71/230/33 53/195/33 102/196/33
f 72/194/32 70/197/32 96/140/32
f 53/195/31 52/198/31 98/143/31
f 70/197/30 82/199/30 97/141/30
f 52/198/29 83/200/29 94/137/29
f 82/199/88 80/201/88 90/132/88
f 83/200/27 81/202/27 87/129/27
f 91/133/26 80/201/26 67/100/26
