# Blender v2.76 (sub 0) OBJ File: 'strut.blend'
# www.blender.org
o Cube_Cube.001
v -0.187500 0.125000 0.187500
v -0.187500 1.500000 0.187500
v -0.187500 0.125000 -0.187500
v -0.187500 1.500000 -0.187500
v 0.187500 0.125000 0.187500
v 0.187500 1.500000 0.187500
v 0.187500 0.125000 -0.187500
v 0.187500 1.500000 -0.187500
v -0.250000 0.125000 -0.250000
v -0.250000 0.125000 0.250000
v 0.250000 0.125000 -0.250000
v 0.250000 0.125000 0.250000
v -0.250000 0.000000 -0.250000
v -0.250000 0.000000 0.250000
v 0.250000 0.000000 -0.250000
v 0.250000 0.000000 0.250000
vt 0.812500 0.750000
vt 0.812500 0.062500
vt 1.000000 0.062500
vt 0.625000 0.750000
vt 0.625000 0.062500
vt 0.437500 0.750000
vt 0.437500 0.062500
vt 0.250000 0.750000
vt 0.250000 0.062500
vt 0.500000 0.062500
vt 0.500000 0.000000
vt 0.750000 0.000000
vt -0.000000 0.312500
vt 0.000000 0.062500
vt -0.000000 0.562500
vt 0.250000 0.312500
vt 0.250000 -0.000000
vt 0.750000 0.062500
vt 1.000000 0.000000
vt 0.000000 -0.000000
vt 1.000000 0.750000
vt 0.250000 0.562500
vn -1.000000 0.000000 0.000000
vn 0.000000 0.000000 -1.000000
vn 1.000000 0.000000 0.000000
vn 0.000000 0.000000 1.000000
vn 0.000000 1.000000 0.000000
vn 0.000000 -1.000000 0.000000
s off
f 4/1/1 3/2/1 1/3/1
f 8/4/2 7/5/2 3/2/2
f 6/6/3 5/7/3 7/5/3
f 2/8/4 1/9/4 5/7/4
f 11/10/2 15/11/2 13/12/2
f 10/13/5 12/14/5 11/9/5
f 13/15/6 15/13/6 16/16/6
f 12/9/3 16/17/3 15/11/3
f 9/18/1 13/12/1 14/19/1
f 10/14/4 14/20/4 16/17/4
f 2/21/1 4/1/1 1/3/1
f 4/1/2 8/4/2 3/2/2
f 8/4/3 6/6/3 7/5/3
f 6/6/4 2/8/4 5/7/4
f 9/18/2 11/10/2 13/12/2
f 9/16/5 10/13/5 11/9/5
f 14/22/6 13/15/6 16/16/6
f 11/10/3 12/9/3 15/11/3
f 10/3/1 9/18/1 14/19/1
f 12/9/4 10/14/4 16/17/4
