# Blender v2.79 (sub 0) OBJ File: 'hat.blend'
# www.blender.org
o Cube_Cube.001
v -3.622264 -5.999999 -4.500001
v -4.500000 -5.999999 -3.622266
v -4.500000 -6.000001 3.717191
v -3.717192 -6.000001 4.499999
v -5.500000 -5.500001 4.622263
v 4.500000 -5.999999 -3.622266
v 3.622264 -5.999999 -4.500001
v 3.622264 -6.000001 4.499999
v 4.500000 -6.000001 3.622263
v 4.622264 -5.500002 5.499999
v 5.500000 -5.500001 4.622263
v 5.500000 -5.499999 -4.622266
v 4.622264 -5.499998 -5.500001
v -4.622264 -5.499998 -5.500001
v -5.500000 -5.499999 -4.622266
v -5.046750 -13.999999 -4.169019
v -4.169014 -13.999998 -5.046754
v -4.263942 -14.000002 5.046746
v -5.046750 -14.000001 4.263938
v 4.169014 -13.999998 -5.046754
v 5.046750 -13.999999 -4.169019
v 5.046750 -14.000001 4.169010
v 4.169014 -14.000002 5.046746
v -4.622264 -5.500002 5.499999
vt 0.900000 0.055556
vt 0.100000 0.444444
vt 0.100000 0.055556
vt 0.900000 0.055556
vt 0.100000 0.444444
vt 0.100000 0.055556
vt 1.000000 0.500000
vt 0.900000 1.000000
vt 0.900000 0.055556
vt 0.100000 0.444444
vt 0.100000 0.055556
vt 0.100000 0.000000
vt 0.100000 0.000000
vt 0.900000 0.000000
vt 1.000000 0.055556
vt 0.900000 0.055556
vt 1.000000 0.000000
vt 1.000000 0.055556
vt 0.900000 0.000000
vt 1.000000 0.055556
vt 1.000000 0.444444
vt 0.900000 0.444444
vt 1.000000 0.444444
vt 1.000000 0.444444
vt 0.900000 0.444444
vt 1.000000 0.444444
vt 0.100000 0.444444
vt 0.100000 0.055556
vt 0.900000 0.000000
vt 1.000000 0.055556
vt 0.100000 0.000000
vt 0.100000 0.000000
vt 0.000000 0.944444
vt 0.000000 0.500000
vt 1.000000 0.944444
vt 0.100000 1.000000
vt 0.900000 0.444444
vt 0.900000 0.000000
vt 1.000000 0.000000
vt 1.000000 0.000000
vt 0.900000 0.444444
vt 1.000000 0.000000
vn 0.0000 0.0682 -0.9977
vn 0.0000 0.0682 0.9977
vn -0.0000 -1.0000 -0.0000
vn 0.9977 0.0682 0.0000
vn 0.4472 -0.8944 -0.0000
vn 0.0000 -0.8944 -0.4472
vn -0.2357 -0.9428 -0.2357
vn 0.2357 -0.9428 -0.2357
vn 0.2357 -0.9428 0.2357
vn 0.7038 0.0962 -0.7038
vn 0.7038 0.0962 0.7038
vn -0.7038 0.0962 0.7038
vn -0.7038 0.0962 -0.7038
vn -0.9977 0.0682 0.0000
vn -0.2461 -0.9375 0.2461
vn -0.4472 -0.8944 -0.0000
vn 0.0000 -0.8944 0.4472
s off
f 7/1/1 17/2/1 1/3/1
f 4/4/2 23/5/2 8/6/2
f 17/2/3 21/7/3 23/8/3
f 9/9/4 21/10/4 6/11/4
f 12/12/5 9/9/5 6/11/5
f 14/13/6 7/1/6 1/3/6
f 15/14/7 1/15/7 2/16/7
f 7/1/8 12/17/8 6/18/8
f 11/19/9 8/20/9 9/9/9
f 7/1/10 21/21/10 20/22/10
f 23/23/11 9/9/11 8/20/11
f 4/4/12 19/24/12 18/25/12
f 17/26/13 2/16/13 1/15/13
f 2/16/14 19/27/14 3/28/14
f 24/29/15 3/30/15 4/4/15
f 2/16/16 5/31/16 15/14/16
f 24/29/17 8/6/17 10/32/17
f 7/1/1 20/22/1 17/2/1
f 4/4/2 18/25/2 23/5/2
f 19/33/3 16/34/3 23/8/3
f 16/34/3 17/2/3 23/8/3
f 17/2/3 20/22/3 21/7/3
f 21/7/3 22/35/3 23/8/3
f 23/8/3 18/36/3 19/33/3
f 9/9/4 22/37/4 21/10/4
f 12/12/5 11/19/5 9/9/5
f 14/13/6 13/38/6 7/1/6
f 15/14/7 14/39/7 1/15/7
f 7/1/8 13/38/8 12/17/8
f 11/19/9 10/40/9 8/20/9
f 7/1/10 6/18/10 21/21/10
f 23/23/11 22/37/11 9/9/11
f 4/4/12 3/30/12 19/24/12
f 17/26/13 16/41/13 2/16/13
f 2/16/14 16/41/14 19/27/14
f 24/29/15 5/42/15 3/30/15
f 2/16/16 3/28/16 5/31/16
f 24/29/17 4/4/17 8/6/17
