# Blender v2.76 (sub 0) OBJ File: 'mp_f_10_long.blend'
# www.blender.org
o Cylinder
v 0.000000 0.000000 -0.500000
v 0.000000 7.000000 -0.500000
v 0.250000 0.000000 -0.433013
v 0.250000 7.000000 -0.433013
v 0.433013 0.000000 -0.250000
v 0.433013 7.000000 -0.250000
v 0.500000 0.000000 0.000000
v 0.500000 7.000000 0.000000
v 0.433013 0.000000 0.250000
v 0.433013 7.000000 0.250000
v 0.250000 0.000000 0.433013
v 0.250000 7.000000 0.433013
v 0.000000 0.000000 0.500000
v 0.000000 7.000000 0.500000
v -0.250000 0.000000 0.433013
v -0.250000 7.000000 0.433013
v -0.433013 0.000000 0.250000
v -0.433013 7.000000 0.250000
v -0.500000 0.000000 0.000000
v -0.500000 7.000000 0.000000
v -0.433013 0.000000 -0.250000
v -0.433013 7.000000 -0.250000
v -0.250000 0.000000 -0.433013
v -0.250000 7.000000 -0.433013
vt 0.321429 1.000000
vt 0.285714 1.000000
vt 0.285714 0.000000
vt 0.250000 1.000000
vt 0.250000 -0.000000
vt 0.214286 1.000000
vt 0.214286 -0.000000
vt 0.178571 1.000000
vt 0.178571 -0.000000
vt 0.142857 1.000000
vt 0.142857 -0.000000
vt 0.107143 1.000000
vt 0.107143 -0.000000
vt 0.071429 1.000000
vt 0.071429 0.000000
vt 0.035714 1.000000
vt 0.035714 0.000000
vt 0.000000 1.000000
vt 0.000000 0.000000
vt 0.428571 1.000000
vt 0.392857 1.000000
vt 0.392857 0.000000
vt 0.437500 0.178571
vt 0.500000 0.285714
vt 0.562500 0.178571
vt 0.357143 1.000000
vt 0.321429 0.000000
vt 0.357143 -0.000000
vt 0.500000 0.000000
vt 0.500000 0.142857
vt 0.562500 0.107143
vt 0.428571 0.000000
vt 0.535714 0.151786
vt 0.464286 0.151786
vt 0.428571 0.214286
vt 0.437500 0.250000
vt 0.464286 0.276786
vt 0.535714 0.276786
vt 0.562500 0.250000
vt 0.571429 0.214286
vt 0.571429 0.071429
vt 0.562500 0.035714
vt 0.535714 0.008929
vt 0.464286 0.008929
vt 0.437500 0.035714
vt 0.428571 0.071429
vt 0.437500 0.107143
vt 0.464286 0.133929
vt 0.535714 0.133929
vn 0.258800 0.000000 -0.965900
vn 0.707100 0.000000 -0.707100
vn 0.965900 0.000000 -0.258800
vn 0.965900 0.000000 0.258800
vn 0.707100 0.000000 0.707100
vn 0.258800 0.000000 0.965900
vn -0.258800 0.000000 0.965900
vn -0.707100 0.000000 0.707100
vn -0.965900 0.000000 0.258800
vn -0.965900 0.000000 -0.258800
vn 0.000000 1.000000 0.000000
vn -0.258800 0.000000 -0.965900
vn -0.707100 0.000000 -0.707100
vn 0.000000 -1.000000 0.000000
s off
f 2/1/1 4/2/1 3/3/1
f 4/2/2 6/4/2 5/5/2
f 6/4/3 8/6/3 7/7/3
f 8/6/4 10/8/4 9/9/4
f 10/8/5 12/10/5 11/11/5
f 12/10/6 14/12/6 13/13/6
f 14/12/7 16/14/7 15/15/7
f 16/14/8 18/16/8 17/17/8
f 18/16/9 20/18/9 19/19/9
f 20/20/10 22/21/10 21/22/10
f 22/23/11 14/24/11 6/25/11
f 24/26/12 2/1/12 1/27/12
f 22/21/13 24/26/13 23/28/13
f 7/29/14 19/30/14 23/31/14
f 1/27/1 2/1/1 3/3/1
f 3/3/2 4/2/2 5/5/2
f 5/5/3 6/4/3 7/7/3
f 7/7/4 8/6/4 9/9/4
f 9/9/5 10/8/5 11/11/5
f 11/11/6 12/10/6 13/13/6
f 13/13/7 14/12/7 15/15/7
f 15/15/8 16/14/8 17/17/8
f 17/17/9 18/16/9 19/19/9
f 19/32/10 20/20/10 21/22/10
f 6/25/11 4/33/11 2/30/11
f 2/30/11 24/34/11 6/25/11
f 22/23/11 20/35/11 18/36/11
f 18/36/11 16/37/11 14/24/11
f 14/24/11 12/38/11 10/39/11
f 10/39/11 8/40/11 6/25/11
f 6/25/11 24/34/11 22/23/11
f 22/23/11 18/36/11 14/24/11
f 14/24/11 10/39/11 6/25/11
f 23/28/12 24/26/12 1/27/12
f 21/22/13 22/21/13 23/28/13
f 23/31/14 1/41/14 3/42/14
f 3/42/14 5/43/14 7/29/14
f 7/29/14 9/44/14 11/45/14
f 11/45/14 13/46/14 15/47/14
f 15/47/14 17/48/14 19/30/14
f 19/30/14 21/49/14 23/31/14
f 23/31/14 3/42/14 7/29/14
f 7/29/14 11/45/14 15/47/14
f 15/47/14 19/30/14 7/29/14
