# Blender v2.79 (sub 0) OBJ File: 'deb_fuel.blend'
# www.blender.org
o Rods
v -0.124900 0.187500 0.062500
v -0.062400 0.187500 0.125000
v -0.124900 0.187500 -0.062500
v -0.062400 0.187500 -0.125000
v 0.062600 0.187500 0.125000
v 0.062600 0.187500 -0.125000
v 0.125100 0.187500 0.062500
v 0.125100 0.187500 -0.062500
v -0.062400 -0.137429 0.125000
v -0.124900 -0.120417 0.062500
v -0.124900 -0.149949 -0.062500
v -0.062400 -0.196493 -0.125000
v 0.062600 -0.207658 -0.125000
v 0.062600 -0.177681 0.125000
v 0.125100 -0.199964 -0.062500
v 0.125100 -0.184975 0.062500
v -0.039796 -0.207986 -0.125000
v 0.017052 -0.177827 0.125000
vt 0.750000 0.875000
vt 0.781250 0.968750
vt 0.687500 1.000000
vt 0.562500 0.846042
vt 0.593750 1.000000
vt 0.562500 1.000000
vt 0.562500 0.806268
vt 0.593750 1.000000
vt 0.562500 1.000000
vt 0.593750 0.813762
vt 0.656250 1.000000
vt 0.593750 1.000000
vt 0.656250 0.846042
vt 0.593750 1.000000
vt 0.593750 0.831276
vt 0.562500 0.817409
vt 0.562500 1.000000
vt 0.656250 0.808003
vt 0.593750 0.802421
vt 0.562500 1.000000
vt 0.562500 0.808003
vt 0.656250 1.000000
vt 0.593750 0.837535
vt 0.656250 0.817409
vt 0.732267 0.989095
vt 0.703867 0.889561
vt 0.771292 0.911091
vt 0.696850 0.993873
vt 0.668225 0.971893
vt 0.656250 0.968750
vt 0.656250 0.906250
vt 0.687500 0.875000
vt 0.781250 0.906250
vt 0.750000 1.000000
vt 0.656250 0.806268
vt 0.656250 1.000000
vt 0.644948 0.802257
vt 0.656250 1.000000
vt 0.633476 0.817336
vt 0.744861 0.887282
vt 0.774113 0.961491
vt 0.750502 0.988081
vt 0.666696 0.920417
vt 0.693792 0.890920
vn 0.0000 1.0000 0.0000
vn -0.7071 0.0000 0.7071
vn 0.7071 0.0000 -0.7071
vn 1.0000 0.0000 0.0000
vn -1.0000 0.0000 0.0000
vn 0.7071 0.0000 0.7071
vn 0.0000 0.0000 -1.0000
vn -0.7071 0.0000 -0.7071
vn 0.0000 0.0000 1.0000
vn 0.0032 -0.9929 0.1191
vn -0.4435 -0.8723 0.2061
s off
f 8/1/1 4/2/1 1/3/1
f 10/4/2 2/5/2 1/6/2
f 15/7/3 6/8/3 8/9/3
f 16/10/4 8/11/4 7/12/4
f 10/13/5 3/14/5 11/15/5
f 14/16/6 7/12/6 5/17/6
f 12/18/7 6/8/7 13/19/7
f 11/15/8 4/20/8 12/21/8
f 5/22/9 9/23/9 14/24/9
f 18/25/10 17/26/10 15/27/10
f 18/25/11 9/28/11 10/29/11
f 1/3/1 2/30/1 5/31/1
f 5/31/1 7/32/1 8/1/1
f 8/1/1 6/33/1 4/2/1
f 4/2/1 3/34/1 1/3/1
f 1/3/1 5/31/1 8/1/1
f 10/4/2 9/23/2 2/5/2
f 15/7/3 13/19/3 6/8/3
f 16/10/4 15/35/4 8/11/4
f 10/13/5 1/36/5 3/14/5
f 14/16/6 16/10/6 7/12/6
f 13/19/7 17/37/7 12/18/7
f 12/18/7 4/38/7 6/8/7
f 11/15/8 3/14/8 4/20/8
f 2/5/9 9/23/9 5/22/9
f 9/23/9 18/39/9 14/24/9
f 13/40/10 15/27/10 17/26/10
f 15/27/10 16/41/10 18/25/10
f 16/41/10 14/42/10 18/25/10
f 10/29/11 11/43/11 18/25/11
f 11/43/11 12/44/11 17/26/11
f 18/25/11 11/43/11 17/26/11
