# Blender v2.79 (sub 0) OBJ File: 'deb_lid.blend'
# www.blender.org
o Lid
v -0.500000 -0.125000 0.500000
v -0.500000 0.125000 0.500000
v -0.500000 -0.125000 -0.500000
v -0.500000 0.125000 -0.500000
v 0.500000 -0.125000 0.500000
v 0.500000 0.125000 0.500000
v 0.500000 -0.125000 -0.500000
v 0.500000 0.125000 -0.500000
vt 1.000000 0.625000
vt 0.000000 0.375000
vt 1.000000 0.375000
vt 1.000000 0.625000
vt 0.000000 0.375000
vt 1.000000 0.375000
vt 1.000000 0.625000
vt 0.000000 0.375000
vt 1.000000 0.375000
vt 1.000000 0.625000
vt 0.000000 0.375000
vt 1.000000 0.375000
vt 0.000100 0.999900
vt 0.999900 0.000100
vt 0.999900 0.999900
vt 0.999900 0.000100
vt 0.000100 0.999900
vt 0.000100 0.000100
vt 0.000000 0.625000
vt 0.000000 0.625000
vt 0.000000 0.625000
vt 0.000000 0.625000
vt 0.000100 0.000100
vt 0.999900 0.999900
vn -1.0000 0.0000 0.0000
vn 0.0000 0.0000 -1.0000
vn 1.0000 0.0000 0.0000
vn 0.0000 0.0000 1.0000
vn 0.0000 1.0000 0.0000
vn 0.0000 -1.0000 0.0000
s off
f 2/1/1 3/2/1 1/3/1
f 4/4/2 7/5/2 3/6/2
f 8/7/3 5/8/3 7/9/3
f 6/10/4 1/11/4 5/12/4
f 4/13/5 6/14/5 8/15/5
f 7/16/6 1/17/6 3/18/6
f 2/1/1 4/19/1 3/2/1
f 4/4/2 8/20/2 7/5/2
f 8/7/3 6/21/3 5/8/3
f 6/10/4 2/22/4 1/11/4
f 4/13/5 2/23/5 6/14/5
f 7/16/6 5/24/6 1/17/6
