# Blender v2.79 (sub 0) OBJ File: 'deb_lid.blend'
# www.blender.org
o Lid
v -0.500000 0.000000 0.500000
v -0.500000 0.125000 0.500000
v -0.500000 0.000000 -0.500000
v -0.500000 0.125000 -0.500000
v 0.500000 0.000000 0.500000
v 0.500000 0.125000 0.500000
v 0.500000 0.000000 -0.500000
v 0.500000 0.125000 -0.500000
v -0.375000 0.000000 -0.375000
v -0.375000 0.000000 0.375000
v 0.375000 0.000000 -0.375000
v 0.375000 0.000000 0.375000
v -0.375000 -0.125000 -0.375000
v -0.375000 -0.125000 0.375000
v 0.375000 -0.125000 -0.375000
v 0.375000 -0.125000 0.375000
vt 0.500000 1.000000
vt 0.562500 0.500000
vt 0.562500 1.000000
vt 0.500000 1.000000
vt 0.562500 0.500000
vt 0.562500 1.000000
vt 0.500000 1.000000
vt 0.562500 0.500000
vt 0.562500 1.000000
vt 0.500000 1.000000
vt 0.562500 0.500000
vt 0.562500 1.000000
vt 0.000000 1.000000
vt 0.437500 0.937500
vt 0.500000 1.000000
vt 0.000100 0.999900
vt 0.500000 0.500000
vt 0.500000 0.500000
vt 0.562500 1.000000
vt 0.500000 1.000000
vt 0.437500 0.562500
vt 0.500000 0.500000
vt 0.000000 0.500000
vt 0.062500 0.937500
vt 0.062500 0.562500
vt 0.437500 0.562500
vt 0.062500 0.937500
vt 0.062500 0.562500
vt 0.500000 0.500000
vt 0.562500 1.000000
vt 0.500000 1.000000
vt 0.500000 0.500000
vt 0.562500 1.000000
vt 0.500000 1.000000
vt 0.500000 0.500000
vt 0.562500 1.000000
vt 0.500000 1.000000
vt 0.500000 0.500000
vt 0.500000 0.500000
vt 0.500000 0.500000
vt 0.000000 0.500000
vt 0.562500 0.500000
vt 0.437500 0.937500
vt 0.562500 0.500000
vt 0.562500 0.500000
vt 0.562500 0.500000
vn -1.0000 0.0000 0.0000
vn 0.0000 0.0000 -1.0000
vn 1.0000 0.0000 0.0000
vn 0.0000 0.0000 1.0000
vn 0.0000 -1.0000 0.0000
vn 0.0000 1.0000 0.0000
s off
f 2/1/1 3/2/1 1/3/1
f 4/4/2 7/5/2 3/6/2
f 8/7/3 5/8/3 7/9/3
f 6/10/4 1/11/4 5/12/4
f 7/13/5 9/14/5 3/15/5
f 4/16/6 6/17/6 8/7/6
f 10/18/4 16/19/4 12/20/4
f 3/15/5 10/21/5 1/22/5
f 5/23/5 11/24/5 7/13/5
f 1/22/5 12/25/5 5/23/5
f 15/26/5 14/27/5 13/28/5
f 11/29/2 13/30/2 9/31/2
f 12/32/3 15/33/3 11/34/3
f 9/35/1 14/36/1 10/37/1
f 2/1/1 4/38/1 3/2/1
f 4/4/2 8/39/2 7/5/2
f 8/7/3 6/17/3 5/8/3
f 6/10/4 2/40/4 1/11/4
f 7/13/5 11/24/5 9/14/5
f 4/16/6 2/41/6 6/17/6
f 10/18/4 14/42/4 16/19/4
f 3/15/5 9/14/5 10/21/5
f 5/23/5 12/25/5 11/24/5
f 1/22/5 10/21/5 12/25/5
f 15/26/5 16/43/5 14/27/5
f 11/29/2 15/44/2 13/30/2
f 12/32/3 16/45/3 15/33/3
f 9/35/1 13/46/1 14/36/1
