# Blender v2.79 (sub 0) OBJ File: 'deb_blank.blend'
# www.blender.org
o Column
v -0.093750 -0.500000 0.093750
v -0.093750 0.500000 0.093750
v -0.093750 0.500000 -0.093750
v -0.093750 -0.500000 -0.093750
v 0.093750 0.500000 0.093750
v 0.093750 -0.500000 0.093750
v -0.031250 0.500000 -0.093750
v 0.093750 0.500000 0.031250
v -0.031250 -0.500000 -0.093750
v 0.093750 -0.500000 0.031250
vt 0.406250 0.500000
vt 0.500000 0.000000
vt 0.500000 0.500000
vt 0.531250 0.500000
vt 0.500000 1.000000
vt 0.500000 0.500000
vt 0.406250 0.531250
vt 0.406250 0.500000
vt 0.500000 0.500000
vt 0.031250 0.593750
vt 0.000000 0.593750
vt 0.000000 0.500000
vt 0.093750 0.000000
vt 0.093750 0.500000
vt 0.531250 1.000000
vt 0.500000 0.500000
vt 0.531250 0.500000
vt 0.343750 0.500000
vt 0.281250 -0.000000
vt 0.343750 -0.000000
vt 0.406250 0.000000
vt 0.531250 1.000000
vt 0.500000 0.593750
vt 0.468750 0.593750
vt 0.093750 0.531250
vt 0.000000 0.000000
vt 0.500000 1.000000
vt 0.281250 0.500000
vn -1.0000 0.0000 0.0000
vn 0.0000 0.0000 -1.0000
vn 0.0000 -1.0000 0.0000
vn 0.0000 1.0000 0.0000
vn 0.0000 0.0000 1.0000
vn 1.0000 0.0000 0.0000
vn 0.7071 0.0000 -0.7071
s off
f 3/1/1 1/2/1 2/3/1
f 4/4/2 7/5/2 9/6/2
f 10/7/3 6/8/3 1/9/3
f 7/10/4 3/11/4 2/12/4
f 2/12/5 6/13/5 5/14/5
f 8/15/6 6/16/6 10/17/6
f 7/18/7 10/19/7 9/20/7
f 3/1/1 4/21/1 1/2/1
f 4/4/2 3/22/2 7/5/2
f 1/9/3 4/23/3 9/24/3
f 9/24/3 10/7/3 1/9/3
f 2/12/4 5/14/4 8/25/4
f 8/25/4 7/10/4 2/12/4
f 2/12/5 1/26/5 6/13/5
f 8/15/6 5/27/6 6/16/6
f 7/18/7 8/28/7 10/19/7
