# Blender v2.79 (sub 0) OBJ File: 'flow_control_pump.blend'
# www.blender.org
o Rotor
v 0.000000 0.687500 0.125000
v -0.132582 0.632583 0.125000
v -0.187500 0.500000 0.125000
v -0.132582 0.367417 0.125000
v 0.000000 0.312500 0.125000
v 0.132583 0.367418 0.125000
v 0.187500 0.500000 0.125000
v 0.132583 0.632582 0.125000
v 0.000000 0.687500 0.375000
v -0.132582 0.632583 0.375000
v -0.187500 0.500000 0.375000
v -0.132582 0.367417 0.375000
v 0.000000 0.312500 0.375000
v 0.132583 0.367418 0.375000
v 0.187500 0.500000 0.375000
v 0.132583 0.632582 0.375000
vt 0.553191 0.590909
vt 0.510638 0.545455
vt 0.553191 0.545455
vt 0.553191 0.500000
vt 0.510638 0.454545
vt 0.553191 0.454545
vt 0.553191 0.772727
vt 0.510638 0.727273
vt 0.553191 0.727273
vt 0.553191 0.681818
vt 0.510638 0.636364
vt 0.553191 0.636364
vt 0.510638 0.500000
vt 0.510638 0.409091
vt 0.553191 0.409091
vt 0.510638 0.681818
vt 0.510638 0.590909
vt 0.510638 0.772727
vn -0.0000 1.0000 0.0000
vn 0.7071 0.7071 0.0000
vn 1.0000 0.0000 0.0000
vn 0.7071 -0.7071 0.0000
vn -0.0000 -1.0000 0.0000
vn -0.7071 -0.7071 0.0000
vn -1.0000 -0.0000 0.0000
vn -0.7071 0.7071 0.0000
s 1
f 1/1/1 16/2/2 8/3/2
f 7/4/3 14/5/4 6/6/4
f 5/7/5 12/8/6 4/9/6
f 3/10/7 10/11/8 2/12/8
f 8/3/2 15/13/3 7/4/3
f 6/6/4 13/14/5 5/15/5
f 4/9/6 11/16/7 3/10/7
f 2/12/8 9/17/1 1/1/1
f 1/1/1 9/17/1 16/2/2
f 7/4/3 15/13/3 14/5/4
f 5/7/5 13/18/5 12/8/6
f 3/10/7 11/16/7 10/11/8
f 8/3/2 16/2/2 15/13/3
f 6/6/4 14/5/4 13/14/5
f 4/9/6 12/8/6 11/16/7
f 2/12/8 10/11/8 9/17/1
o RailBottom
v 0.500000 0.000000 -1.500000
v 0.500000 0.000000 1.500000
v 0.500000 0.125000 -1.500000
v 0.500000 0.125000 1.500000
v 0.437500 0.000000 1.500000
v 0.437500 0.125000 1.500000
v 0.437500 0.125000 -1.500000
v 0.437500 0.000000 -1.500000
v -0.437500 0.000000 -1.500000
v -0.437500 0.000000 1.500000
v -0.437500 0.125000 -1.500000
v -0.437500 0.125000 1.500000
v -0.500000 0.000000 1.500000
v -0.500000 0.125000 1.500000
v -0.500000 0.125000 -1.500000
v -0.500000 0.000000 -1.500000
v 0.437500 0.125000 1.437500
v 0.437500 0.062500 1.437500
v 0.312500 0.250000 1.437500
v 0.312500 0.187500 1.437500
v 0.437500 0.125000 1.187500
v 0.437500 0.062500 1.187500
v 0.312500 0.250000 1.187500
v 0.312500 0.187500 1.187500
v 0.437500 0.125000 -1.187500
v 0.437500 0.062500 -1.187500
v 0.312500 0.250000 -1.187500
v 0.312500 0.187500 -1.187500
v 0.437500 0.125000 -1.437500
v 0.437500 0.062500 -1.437500
v 0.312500 0.250000 -1.437500
v 0.312500 0.187500 -1.437500
v -0.437500 0.125000 -1.437500
v -0.437500 0.062500 -1.437500
v -0.312500 0.250000 -1.437500
v -0.312500 0.187500 -1.437500
v -0.437500 0.125000 -1.187500
v -0.437500 0.062500 -1.187500
v -0.312500 0.250000 -1.187500
v -0.312500 0.187500 -1.187500
v -0.437500 0.125000 1.187500
v -0.437500 0.062500 1.187500
v -0.312500 0.250000 1.187500
v -0.312500 0.187500 1.187500
v -0.437500 0.125000 1.437500
v -0.437500 0.062500 1.437500
v -0.312500 0.250000 1.437500
v -0.312500 0.187500 1.437500
v 0.437500 0.125000 0.750000
v 0.437500 0.062500 0.750000
v 0.312500 0.250000 0.750000
v 0.312500 0.187500 0.750000
v 0.437500 0.125000 0.500000
v 0.437500 0.062500 0.500000
v 0.312500 0.250000 0.500000
v 0.312500 0.187500 0.500000
v -0.437500 0.125000 0.500000
v -0.437500 0.062500 0.500000
v -0.312500 0.250000 0.500000
v -0.312500 0.187500 0.500000
v -0.437500 0.125000 0.750000
v -0.437500 0.062500 0.750000
v -0.312500 0.250000 0.750000
v -0.312500 0.187500 0.750000
vt 0.702128 0.704545
vt 0.723404 0.727273
vt 0.702128 0.727273
vt 0.521277 0.068182
vt 0.010638 0.090909
vt 0.010638 0.068182
vt 0.521277 0.068182
vt 0.010638 0.090909
vt 0.010638 0.068182
vt 0.010638 0.022727
vt 0.521277 0.022727
vt 0.521277 0.022727
vt 0.531915 0.068182
vt 0.010638 0.136364
vt 0.521277 0.090909
vt 0.521277 0.136364
vt 0.000000 0.022727
vt 0.010638 0.022727
vt 0.521277 0.000000
vt 0.521277 0.000000
vt 0.000000 0.022727
vt 0.010638 0.136364
vt 0.521277 0.090909
vt 0.521277 0.136364
vt 0.531915 0.068182
vt 0.723404 0.590909
vt 0.702128 0.613636
vt 0.702128 0.590909
vt 0.723404 0.613636
vt 0.723404 0.704545
vt 0.723404 0.727273
vt 0.702128 0.818182
vt 0.702128 0.727273
vt 0.702128 0.818182
vt 0.702128 0.704545
vt 0.723404 0.613636
vt 0.723404 0.704545
vt 0.702128 0.704545
vt 0.723404 0.727273
vt 0.702128 0.727273
vt 0.723404 0.590909
vt 0.702128 0.613636
vt 0.702128 0.590909
vt 0.723404 0.613636
vt 0.723404 0.704545
vt 0.723404 0.590909
vt 0.702128 0.613636
vt 0.702128 0.590909
vt 0.702128 0.818182
vt 0.702128 0.704545
vt 0.723404 0.727273
vt 0.702128 0.727273
vt 0.723404 0.590909
vt 0.702128 0.613636
vt 0.702128 0.590909
vt 0.723404 0.613636
vt 0.723404 0.704545
vt 0.702128 0.818182
vt 0.702128 0.704545
vt 0.723404 0.727273
vt 0.702128 0.727273
vt 0.723404 0.590909
vt 0.702128 0.613636
vt 0.702128 0.590909
vt 0.723404 0.613636
vt 0.723404 0.704545
vt 0.702128 0.818182
vt 0.702128 0.704545
vt 0.723404 0.727273
vt 0.702128 0.727273
vt 0.723404 0.590909
vt 0.702128 0.613636
vt 0.702128 0.590909
vt 0.723404 0.613636
vt 0.723404 0.704545
vt 0.702128 0.818182
vt 0.531915 0.022727
vt 0.000000 0.068182
vt 0.010638 0.000000
vt 0.010638 0.000000
vt 0.000000 0.068182
vt 0.531915 0.022727
vt 0.723404 0.818182
vt 0.723404 0.818182
vt 0.723404 0.818182
vt 0.723404 0.818182
vt 0.723404 0.818182
vt 0.723404 0.818182
vn 0.0000 0.0000 1.0000
vn 0.0000 1.0000 0.0000
vn 1.0000 0.0000 0.0000
vn 0.0000 0.0000 -1.0000
vn -1.0000 0.0000 0.0000
vn 0.0000 -1.0000 0.0000
vn 0.7071 0.7071 0.0000
vn 0.7071 -0.7071 0.0000
vn -0.7071 -0.7071 0.0000
vn -0.7071 0.7071 0.0000
s off
f 33/19/9 36/20/9 34/21/9
f 27/22/10 30/23/10 28/24/10
f 19/25/10 22/26/10 20/27/10
f 27/22/11 26/28/11 25/29/11
f 17/30/12 23/31/12 19/25/12
f 29/32/13 31/33/13 32/34/13
f 20/27/9 21/35/9 18/36/9
f 26/28/14 32/37/14 25/29/14
f 18/36/14 24/38/14 17/30/14
f 28/24/9 29/39/9 26/28/9
f 21/40/13 23/41/13 24/42/13
f 19/25/11 18/36/11 17/30/11
f 25/29/12 31/43/12 27/22/12
f 40/44/12 37/45/12 38/46/12
f 33/19/15 39/47/15 35/48/15
f 52/49/16 54/50/16 50/51/16
f 36/20/17 38/52/17 34/21/17
f 49/53/18 55/54/18 51/55/18
f 41/56/9 44/57/9 42/58/9
f 48/59/12 45/60/12 46/61/12
f 41/56/15 47/62/15 43/63/15
f 56/64/9 53/65/9 54/66/9
f 44/57/17 46/67/17 42/58/17
f 49/53/12 52/49/12 50/51/12
f 57/68/12 60/69/12 58/70/12
f 64/71/9 61/72/9 62/73/9
f 57/68/18 63/74/18 59/75/18
f 60/69/16 62/76/16 58/70/16
f 65/77/9 68/78/9 66/79/9
f 72/80/12 69/81/12 70/82/12
f 65/77/15 71/83/15 67/84/15
f 68/78/17 70/85/17 66/79/17
f 73/86/12 76/87/12 74/88/12
f 80/89/9 77/90/9 78/91/9
f 73/86/18 79/92/18 75/93/18
f 76/87/16 78/94/16 74/88/16
f 33/19/9 35/48/9 36/20/9
f 27/22/10 31/33/10 30/23/10
f 19/25/10 23/41/10 22/26/10
f 27/22/11 28/24/11 26/28/11
f 17/30/12 24/95/12 23/31/12
f 29/32/13 30/23/13 31/33/13
f 20/27/9 22/96/9 21/35/9
f 26/28/14 29/97/14 32/37/14
f 18/36/14 21/98/14 24/38/14
f 28/24/9 30/99/9 29/39/9
f 21/40/13 22/26/13 23/41/13
f 19/25/11 20/27/11 18/36/11
f 25/29/12 32/100/12 31/43/12
f 40/44/12 39/47/12 37/45/12
f 33/19/15 37/45/15 39/47/15
f 52/49/16 56/101/16 54/50/16
f 36/20/17 40/102/17 38/52/17
f 49/53/18 53/65/18 55/54/18
f 41/56/9 43/63/9 44/57/9
f 48/59/12 47/62/12 45/60/12
f 41/56/15 45/60/15 47/62/15
f 56/64/9 55/54/9 53/65/9
f 44/57/17 48/103/17 46/67/17
f 49/53/12 51/55/12 52/49/12
f 57/68/12 59/75/12 60/69/12
f 64/71/9 63/74/9 61/72/9
f 57/68/18 61/72/18 63/74/18
f 60/69/16 64/104/16 62/76/16
f 65/77/9 67/84/9 68/78/9
f 72/80/12 71/83/12 69/81/12
f 65/77/15 69/81/15 71/83/15
f 68/78/17 72/105/17 70/85/17
f 73/86/12 75/93/12 76/87/12
f 80/89/9 79/92/9 77/90/9
f 73/86/18 77/90/18 79/92/18
f 76/87/16 80/106/16 78/94/16
o RailTop
v 0.500000 0.875000 -1.500000
v 0.500000 0.875000 1.500000
v 0.500000 1.000000 -1.500000
v 0.500000 1.000000 1.500000
v 0.437500 0.875000 1.500000
v 0.437500 1.000000 1.500000
v 0.437500 1.000000 -1.500000
v 0.437500 0.875000 -1.500000
v -0.437500 0.875000 -1.500000
v -0.437500 0.875000 1.500000
v -0.437500 1.000000 -1.500000
v -0.437500 1.000000 1.500000
v -0.500000 0.875000 1.500000
v -0.500000 1.000000 1.500000
v -0.500000 1.000000 -1.500000
v -0.500000 0.875000 -1.500000
v 0.437500 0.937500 1.437500
v 0.437500 0.875000 1.437500
v 0.312500 0.812500 1.437500
v 0.312500 0.750000 1.437500
v 0.437500 0.937500 1.187500
v 0.437500 0.875000 1.187500
v 0.312500 0.812500 1.187500
v 0.312500 0.750000 1.187500
v 0.437500 0.937500 -1.187500
v 0.437500 0.875000 -1.187500
v 0.312500 0.812500 -1.187500
v 0.312500 0.750000 -1.187500
v 0.437500 0.937500 -1.437500
v 0.437500 0.875000 -1.437500
v 0.312500 0.812500 -1.437500
v 0.312500 0.750000 -1.437500
v -0.437500 0.937500 -1.437500
v -0.437500 0.875000 -1.437500
v -0.312500 0.812500 -1.437500
v -0.312500 0.750000 -1.437500
v -0.437500 0.937500 -1.187500
v -0.437500 0.875000 -1.187500
v -0.312500 0.812500 -1.187500
v -0.312500 0.750000 -1.187500
v -0.437500 0.937500 1.187500
v -0.437500 0.875000 1.187500
v -0.312500 0.812500 1.187500
v -0.312500 0.750000 1.187500
v -0.437500 0.937500 1.437500
v -0.437500 0.875000 1.437500
v -0.312500 0.812500 1.437500
v -0.312500 0.750000 1.437500
v 0.437500 0.937500 0.750000
v 0.437500 0.875000 0.750000
v 0.312500 0.812500 0.750000
v 0.312500 0.750000 0.750000
v 0.437500 0.937500 0.500000
v 0.437500 0.875000 0.500000
v 0.312500 0.812500 0.500000
v 0.312500 0.750000 0.500000
v -0.437500 0.937500 0.500000
v -0.437500 0.875000 0.500000
v -0.312500 0.812500 0.500000
v -0.312500 0.750000 0.500000
v -0.437500 0.937500 0.750000
v -0.437500 0.875000 0.750000
v -0.312500 0.812500 0.750000
v -0.312500 0.750000 0.750000
vt 0.702128 0.727273
vt 0.723404 0.704545
vt 0.723404 0.727273
vt 0.521277 0.068182
vt 0.010638 0.090909
vt 0.010638 0.068182
vt 0.521277 0.068182
vt 0.010638 0.090909
vt 0.010638 0.068182
vt 0.010638 0.022727
vt 0.521277 0.022727
vt 0.521277 0.022727
vt 0.531915 0.068182
vt 0.010638 0.136364
vt 0.521277 0.090909
vt 0.521277 0.136364
vt 0.000000 0.022727
vt 0.010638 0.022727
vt 0.521277 0.000000
vt 0.521277 0.000000
vt 0.000000 0.022727
vt 0.010638 0.136364
vt 0.521277 0.090909
vt 0.521277 0.136364
vt 0.531915 0.068182
vt 0.702128 0.590909
vt 0.723404 0.613636
vt 0.702128 0.613636
vt 0.702128 0.704545
vt 0.723404 0.727273
vt 0.702128 0.818182
vt 0.702128 0.727273
vt 0.702128 0.818182
vt 0.702128 0.704545
vt 0.723404 0.613636
vt 0.723404 0.704545
vt 0.702128 0.727273
vt 0.723404 0.704545
vt 0.723404 0.727273
vt 0.702128 0.590909
vt 0.723404 0.613636
vt 0.702128 0.613636
vt 0.702128 0.704545
vt 0.702128 0.590909
vt 0.702128 0.613636
vt 0.702128 0.818182
vt 0.702128 0.727273
vt 0.723404 0.704545
vt 0.723404 0.727273
vt 0.702128 0.590909
vt 0.723404 0.613636
vt 0.702128 0.613636
vt 0.702128 0.704545
vt 0.702128 0.818182
vt 0.702128 0.727273
vt 0.723404 0.704545
vt 0.723404 0.727273
vt 0.702128 0.590909
vt 0.723404 0.613636
vt 0.702128 0.613636
vt 0.702128 0.704545
vt 0.702128 0.818182
vt 0.702128 0.727273
vt 0.723404 0.704545
vt 0.723404 0.727273
vt 0.702128 0.590909
vt 0.723404 0.613636
vt 0.702128 0.613636
vt 0.702128 0.704545
vt 0.702128 0.818182
vt 0.531915 0.022727
vt 0.000000 0.068182
vt 0.010638 0.000000
vt 0.010638 0.000000
vt 0.000000 0.068182
vt 0.531915 0.022727
vt 0.723404 0.590909
vt 0.723404 0.818182
vt 0.723404 0.818182
vt 0.723404 0.590909
vt 0.723404 0.590909
vt 0.723404 0.818182
vt 0.723404 0.590909
vt 0.723404 0.818182
vt 0.723404 0.590909
vt 0.723404 0.818182
vt 0.723404 0.590909
vt 0.723404 0.818182
vn 0.0000 0.0000 1.0000
vn 0.0000 1.0000 0.0000
vn 1.0000 0.0000 0.0000
vn 0.0000 0.0000 -1.0000
vn -1.0000 0.0000 0.0000
vn 0.0000 -1.0000 0.0000
vn -0.7071 0.7071 0.0000
vn -0.7071 -0.7071 0.0000
vn 0.7071 -0.7071 0.0000
vn 0.7071 0.7071 0.0000
s off
f 98/107/19 99/108/19 100/109/19
f 91/110/20 94/111/20 92/112/20
f 83/113/20 86/114/20 84/115/20
f 91/110/21 90/116/21 89/117/21
f 81/118/22 87/119/22 83/113/22
f 93/120/23 95/121/23 96/122/23
f 84/115/19 85/123/19 82/124/19
f 90/116/24 96/125/24 89/117/24
f 82/124/24 88/126/24 81/118/24
f 92/112/19 93/127/19 90/116/19
f 85/128/23 87/129/23 88/130/23
f 83/113/21 82/124/21 81/118/21
f 89/117/22 95/131/22 91/110/22
f 102/132/22 103/133/22 101/134/22
f 97/135/25 103/133/25 99/108/25
f 116/136/26 118/137/26 114/138/26
f 100/109/27 102/139/27 98/107/27
f 113/140/28 119/141/28 115/142/28
f 106/143/19 107/144/19 108/145/19
f 110/146/22 111/147/22 109/148/22
f 105/149/25 111/147/25 107/144/25
f 118/150/19 119/141/19 117/151/19
f 108/145/27 110/152/27 106/143/27
f 114/138/22 115/142/22 116/136/22
f 122/153/22 123/154/22 124/155/22
f 126/156/19 127/157/19 125/158/19
f 121/159/28 127/157/28 123/154/28
f 124/155/26 126/160/26 122/153/26
f 130/161/19 131/162/19 132/163/19
f 134/164/22 135/165/22 133/166/22
f 129/167/25 135/165/25 131/162/25
f 132/163/27 134/168/27 130/161/27
f 138/169/22 139/170/22 140/171/22
f 142/172/19 143/173/19 141/174/19
f 137/175/28 143/173/28 139/170/28
f 140/171/26 142/176/26 138/169/26
f 98/107/19 97/135/19 99/108/19
f 91/110/20 95/121/20 94/111/20
f 83/113/20 87/129/20 86/114/20
f 91/110/21 92/112/21 90/116/21
f 81/118/22 88/177/22 87/119/22
f 93/120/23 94/111/23 95/121/23
f 84/115/19 86/178/19 85/123/19
f 90/116/24 93/179/24 96/125/24
f 82/124/24 85/180/24 88/126/24
f 92/112/19 94/181/19 93/127/19
f 85/128/23 86/114/23 87/129/23
f 83/113/21 84/115/21 82/124/21
f 89/117/22 96/182/22 95/131/22
f 102/132/22 104/183/22 103/133/22
f 97/135/25 101/134/25 103/133/25
f 116/136/26 120/184/26 118/137/26
f 100/109/27 104/185/27 102/139/27
f 113/140/28 117/151/28 119/141/28
f 106/143/19 105/149/19 107/144/19
f 110/146/22 112/186/22 111/147/22
f 105/149/25 109/148/25 111/147/25
f 118/150/19 120/187/19 119/141/19
f 108/145/27 112/188/27 110/152/27
f 114/138/22 113/140/22 115/142/22
f 122/153/22 121/159/22 123/154/22
f 126/156/19 128/189/19 127/157/19
f 121/159/28 125/158/28 127/157/28
f 124/155/26 128/190/26 126/160/26
f 130/161/19 129/167/19 131/162/19
f 134/164/22 136/191/22 135/165/22
f 129/167/25 133/166/25 135/165/25
f 132/163/27 136/192/27 134/168/27
f 138/169/22 137/175/22 139/170/22
f 142/172/19 144/193/19 143/173/19
f 137/175/28 141/174/28 143/173/28
f 140/171/26 144/194/26 142/176/26
o Pump
v 0.132583 0.367417 -1.125000
v 0.187500 0.500000 -1.125000
v 0.132583 0.632583 -1.125000
v 0.000000 0.687500 -1.125000
v 0.250000 0.875000 -1.125000
v 0.375000 0.750000 -1.125000
v -0.375000 0.750000 -1.125000
v -0.250000 0.875000 -1.125000
v 0.375000 0.250000 -1.125000
v 0.250000 0.125000 -1.125000
v -0.250000 0.125000 -1.125000
v -0.375000 0.250000 -1.125000
v -0.375000 0.250000 1.500000
v -0.250000 0.125000 1.500000
v 0.250000 0.125000 1.500000
v 0.375000 0.250000 1.500000
v -0.250000 0.875000 1.500000
v -0.375000 0.750000 1.500000
v 0.375000 0.750000 1.500000
v 0.250000 0.875000 1.500000
v -0.375000 0.750000 1.125000
v -0.250000 0.875000 1.125000
v -0.250000 0.125000 1.125000
v -0.375000 0.250000 1.125000
v 0.375000 0.250000 1.125000
v 0.250000 0.125000 1.125000
v 0.250000 0.875000 1.125000
v 0.375000 0.750000 1.125000
v -0.375000 0.750000 -1.500000
v -0.250000 0.875000 -1.500000
v -0.250000 0.125000 -1.500000
v -0.375000 0.250000 -1.500000
v 0.375000 0.250000 -1.500000
v 0.250000 0.125000 -1.500000
v 0.250000 0.875000 -1.500000
v 0.375000 0.750000 -1.500000
v 0.000000 0.750000 -1.000000
v 0.000000 0.750000 0.125000
v 0.176777 0.676777 -1.000000
v 0.176777 0.676777 0.125000
v 0.250000 0.500000 -1.000000
v 0.250000 0.500000 0.125000
v 0.176777 0.323223 -1.000000
v 0.176777 0.323223 0.125000
v 0.000000 0.250000 -1.000000
v 0.000000 0.250000 0.125000
v -0.176777 0.323223 -1.000000
v -0.176777 0.323223 0.125000
v -0.250000 0.500000 -1.000000
v -0.250000 0.500000 0.125000
v -0.176777 0.676777 -1.000000
v -0.176777 0.676777 0.125000
v 0.000000 0.312500 -1.125000
v -0.132583 0.367418 -1.125000
v -0.187500 0.500000 -1.125000
v -0.132583 0.632582 -1.125000
v -0.312500 0.812500 0.875000
v 0.312500 0.812500 0.875000
v -0.312500 0.187500 0.875000
v 0.312500 0.187500 0.875000
v -0.312500 0.187500 0.375000
v -0.312500 0.812500 0.375000
v 0.312500 0.812500 0.375000
v 0.312500 0.187500 0.375000
v -0.062500 0.875000 1.375000
v 0.062500 0.875000 1.375000
v -0.062500 0.875000 1.250000
v 0.062500 0.875000 1.250000
v -0.062500 0.937500 1.250000
v -0.062500 0.937500 1.375000
v 0.062500 0.937500 1.375000
v 0.062500 0.937500 1.250000
v -0.062500 1.062500 1.250000
v 0.125000 0.625000 0.875000
v -0.125000 0.625000 0.875000
v 0.062500 1.062500 1.250000
v 0.062500 0.937500 0.000000
v -0.062500 0.937500 0.000000
v 0.062500 1.062500 0.000000
v -0.062500 1.062500 0.000000
v 0.062500 0.937500 -0.125000
v -0.062500 0.937500 -0.125000
v 0.125000 0.375000 0.875000
v -0.125000 0.375000 0.875000
v 0.062500 0.625000 0.000000
v -0.062500 0.625000 0.000000
v 0.062500 0.625000 -0.125000
v -0.062500 0.625000 -0.125000
v 0.125000 0.625000 1.125000
v -0.125000 0.625000 1.125000
v 0.125000 0.375000 1.125000
v -0.125000 0.375000 1.125000
vt 0.085106 0.272727
vt 0.170213 0.136364
vt 0.170213 0.272727
vt 0.340426 0.272727
vt 0.425532 0.136364
vt 0.425532 0.272727
vt 0.170213 0.545455
vt 0.085106 0.681818
vt 0.085106 0.545455
vt 0.191489 0.318182
vt 0.063830 0.500000
vt 0.191489 0.727273
vt 0.170213 0.954545
vt 0.255319 0.500000
vt 0.191489 0.500000
vt 0.255319 0.272727
vt 0.191489 0.272727
vt 0.191489 0.545455
vt 0.255319 0.545455
vt 0.000000 0.545455
vt 0.063830 0.545455
vt 0.063830 0.272727
vt 0.000000 0.318182
vt 0.000000 0.272727
vt 0.063830 0.318182
vt 0.425532 0.545455
vt 0.340426 0.681818
vt 0.340426 0.545455
vt 0.446809 0.318182
vt 0.319149 0.500000
vt 0.446809 0.727273
vt 0.425532 0.954545
vt 0.510638 0.500000
vt 0.446809 0.500000
vt 0.510638 0.272727
vt 0.446809 0.272727
vt 0.446809 0.545455
vt 0.510638 0.545455
vt 0.255319 0.545455
vt 0.319149 0.545455
vt 0.319149 0.272727
vt 0.255319 0.318182
vt 0.255319 0.272727
vt 0.319149 0.318182
vt 0.744681 0.409198
vt 0.774735 0.435794
vt 0.787184 0.500000
vt 0.595745 0.181818
vt 0.702128 0.409091
vt 0.595745 0.409091
vt 0.702128 0.590909
vt 0.595745 0.818182
vt 0.595745 0.590909
vt 0.702128 -0.000000
vt 0.702128 0.181818
vt 0.787234 0.409091
vt 0.510638 0.181818
vt 0.595745 0.590909
vt 0.553191 0.500000
vt 0.595745 0.500000
vt 0.446809 0.818182
vt 0.457447 0.863636
vt 0.446809 0.863636
vt 0.446809 0.909091
vt 0.457447 0.954545
vt 0.446809 0.954545
vt 0.457447 0.909091
vt 0.457447 1.000000
vt 0.446809 1.000000
vt 0.691489 0.909091
vt 0.712766 0.954545
vt 0.691489 0.954545
vt 0.478723 0.863636
vt 0.478723 1.000000
vt 0.478723 0.954545
vt 0.691489 1.000000
vt 0.478723 1.000000
vt 0.712766 1.000000
vt 0.691489 1.000000
vt 0.478723 0.909091
vt 0.478723 0.818182
vt 0.691489 0.863636
vt 0.478723 0.863636
vt 0.691489 0.863636
vt 0.712766 0.863636
vt 0.712766 0.909091
vt 0.765957 0.954545
vt 0.765957 0.909091
vt 0.765957 1.000000
vt 0.712766 0.818182
vt 0.765957 0.863636
vt 0.595745 0.681818
vt 0.553191 0.590909
vt 0.553191 0.409091
vt 0.595745 0.409091
vt 0.595745 0.772727
vt 0.553191 0.681818
vt 0.085106 0.136364
vt 0.340426 0.136364
vt 0.170213 0.681818
vt 0.085106 0.954545
vt 0.063830 0.909091
vt 0.063830 0.727273
vt 0.191489 0.909091
vt 0.255319 0.318182
vt 0.000000 0.500000
vt 0.425532 0.681818
vt 0.340426 0.954545
vt 0.319149 0.909091
vt 0.319149 0.727273
vt 0.446809 0.909091
vt 0.510638 0.318182
vt 0.255319 0.500000
vt 0.774735 0.564206
vt 0.744681 0.590802
vt 0.714627 0.564206
vt 0.702178 0.500000
vt 0.714627 0.435793
vt 0.702128 0.818182
vt 0.595745 -0.000000
vt 0.787234 0.181818
vt 0.510638 0.409091
vt 0.457447 0.818182
vt 0.691489 0.818182
vt 0.765957 0.818182
vt 0.553191 0.772727
vt 0.978723 0.136364
vt 1.000000 0.193182
vt 0.978723 0.204545
vt 0.787234 0.272727
vt 0.978723 0.272727
vt 0.978723 0.477273
vt 1.000000 0.420455
vt 1.000000 0.465909
vt 0.787234 0.204545
vt 0.787234 0.136364
vt 0.978723 0.068182
vt 0.787234 0.068182
vt 0.978723 0.000000
vt 0.787234 0.545455
vt 0.978723 0.545455
vt 0.787234 0.477273
vt 0.978723 0.409091
vt 0.787234 0.409091
vt 0.978723 0.340909
vt 1.000000 0.261364
vt 0.787234 0.340909
vt 1.000000 0.534091
vt 1.000000 0.284091
vt 1.000000 0.329545
vt 1.000000 0.079545
vt 1.000000 0.125000
vt 1.000000 0.397727
vt 1.000000 0.011364
vt 1.000000 0.056818
vt 1.000000 0.147727
vt 0.787234 0.000000
vt 1.000000 0.215909
vt 1.000000 0.488636
vt 1.000000 0.352273
vn 0.0000 -1.0000 0.0000
vn 0.0000 1.0000 0.0000
vn 0.0000 0.0000 1.0000
vn 0.0000 0.0000 -1.0000
vn 1.0000 0.0000 0.0000
vn 0.7071 -0.7071 0.0000
vn 0.7071 0.7071 0.0000
vn -0.7071 0.7071 0.0000
vn -0.7071 -0.7071 0.0000
vn -1.0000 0.0000 0.0000
vn 0.0000 0.7071 -0.7071
vn 0.0000 0.7071 0.7071
vn 0.8944 0.0000 -0.4472
vn 0.6325 0.6325 -0.4472
vn -0.6325 -0.6325 -0.4472
vn -0.8944 0.0000 -0.4472
vn -0.0000 0.8944 -0.4472
vn -0.0000 -0.8944 -0.4472
vn -0.6325 0.6325 -0.4472
vn 0.6325 -0.6325 -0.4472
s off
f 158/195/29 170/196/29 159/197/29
f 155/198/29 178/199/29 154/200/29
f 164/201/30 166/202/30 161/203/30
f 160/204/31 164/201/31 162/205/31
f 166/202/32 172/206/32 170/207/32
f 160/204/33 172/208/33 163/209/33
f 170/210/34 160/204/34 159/211/34
f 164/212/35 172/208/35 171/213/35
f 166/214/36 162/205/36 161/215/36
f 158/216/37 168/217/37 167/218/37
f 162/205/38 168/217/38 157/219/38
f 149/220/30 174/221/30 152/222/30
f 153/223/31 149/220/31 151/224/31
f 174/221/32 180/225/32 178/226/32
f 153/223/33 180/227/33 150/228/33
f 178/229/34 153/223/34 154/230/34
f 149/231/35 180/227/35 179/232/35
f 174/233/36 151/224/36 152/234/36
f 155/235/37 176/236/37 175/237/37
f 151/224/38 176/236/38 156/238/38
f 190/239/31 188/240/31 186/241/31
f 203/242/31 202/243/31 201/244/31
f 207/245/32 205/246/32 206/247/32
f 203/242/29 208/248/29 204/249/29
f 202/243/30 206/247/30 201/244/30
f 204/249/33 207/250/33 202/243/33
f 201/244/38 205/251/38 203/242/38
f 218/252/33 235/253/33 227/254/33
f 211/255/32 216/256/32 212/257/32
f 210/258/31 214/259/31 209/260/31
f 212/257/33 215/261/33 210/258/33
f 209/260/38 213/262/38 211/263/38
f 223/264/39 226/265/39 224/266/39
f 215/261/33 216/256/33 220/267/33
f 213/262/38 214/259/38 217/268/38
f 217/269/38 222/270/38 213/271/38
f 222/272/38 224/273/38 226/265/38
f 220/274/30 224/266/30 217/269/30
f 213/275/29 221/276/29 216/277/29
f 216/277/33 223/264/33 220/274/33
f 223/278/33 221/279/33 225/280/33
f 225/280/32 232/281/32 226/265/32
f 215/261/40 217/269/40 214/259/40
f 221/279/33 231/282/33 225/280/33
f 226/265/38 230/283/38 222/272/38
f 222/284/31 229/285/31 221/279/31
f 219/286/30 233/287/30 218/252/30
f 227/254/29 236/288/29 228/289/29
f 228/290/38 234/291/38 219/286/38
f 158/195/29 167/292/29 170/196/29
f 155/198/29 175/293/29 178/199/29
f 164/201/30 171/294/30 166/202/30
f 162/205/31 157/219/31 158/195/31
f 158/195/31 159/197/31 160/204/31
f 160/204/31 163/209/31 164/201/31
f 164/201/31 161/203/31 162/205/31
f 162/205/31 158/195/31 160/204/31
f 170/207/32 167/295/32 168/296/32
f 168/296/32 165/297/32 166/202/32
f 166/202/32 171/294/32 172/206/32
f 172/206/32 169/298/32 170/207/32
f 170/207/32 168/296/32 166/202/32
f 160/204/33 169/299/33 172/208/33
f 170/210/34 169/299/34 160/204/34
f 164/212/35 163/209/35 172/208/35
f 166/214/36 165/300/36 162/205/36
f 158/216/37 157/219/37 168/217/37
f 162/205/38 165/300/38 168/217/38
f 149/220/30 179/301/30 174/221/30
f 151/224/31 156/238/31 155/198/31
f 155/198/31 154/200/31 153/223/31
f 153/223/31 150/228/31 149/220/31
f 149/220/31 152/222/31 151/224/31
f 151/224/31 155/198/31 153/223/31
f 178/226/32 175/302/32 176/303/32
f 176/303/32 173/304/32 174/221/32
f 174/221/32 179/301/32 180/225/32
f 180/225/32 177/305/32 178/226/32
f 178/226/32 176/303/32 174/221/32
f 153/223/33 177/306/33 180/227/33
f 178/229/34 177/306/34 153/223/34
f 149/231/35 150/228/35 180/227/35
f 174/233/36 173/307/36 151/224/36
f 155/235/37 156/238/37 176/236/37
f 151/224/38 173/307/38 176/236/38
f 186/241/31 184/308/31 182/309/31
f 182/309/31 196/310/31 186/241/31
f 196/310/31 194/311/31 186/241/31
f 194/311/31 192/312/31 186/241/31
f 192/312/31 190/239/31 186/241/31
f 203/242/31 204/249/31 202/243/31
f 207/245/32 208/313/32 205/246/32
f 203/242/29 205/314/29 208/248/29
f 202/243/30 207/245/30 206/247/30
f 204/249/33 208/315/33 207/250/33
f 201/244/38 206/316/38 205/251/38
f 218/252/33 233/287/33 235/253/33
f 211/255/32 213/317/32 216/256/32
f 210/258/31 215/261/31 214/259/31
f 212/257/33 216/256/33 215/261/33
f 209/260/38 214/259/38 213/262/38
f 223/264/39 225/280/39 226/265/39
f 217/269/38 224/266/38 222/270/38
f 220/274/30 223/264/30 224/266/30
f 213/275/29 222/318/29 221/276/29
f 216/277/33 221/276/33 223/264/33
f 225/280/32 231/282/32 232/281/32
f 215/261/40 220/274/40 217/269/40
f 221/279/33 229/285/33 231/282/33
f 226/265/38 232/281/38 230/283/38
f 222/284/31 230/319/31 229/285/31
f 219/286/30 234/291/30 233/287/30
f 227/254/29 235/253/29 236/288/29
f 228/290/38 236/320/38 234/291/38
s 1
f 185/321/41 147/322/42 183/323/42
f 182/324/30 183/323/35 181/325/30
f 191/326/43 199/327/44 198/328/43
f 184/329/35 185/321/33 183/323/35
f 186/330/33 187/331/34 185/321/33
f 188/332/34 189/333/29 187/331/34
f 190/334/29 191/326/37 189/335/29
f 192/336/37 193/337/38 191/326/37
f 194/338/38 195/339/36 193/337/38
f 183/323/42 148/340/45 181/325/45
f 196/341/36 181/325/30 195/339/36
f 191/326/43 197/342/46 189/335/46
f 195/339/47 148/343/45 200/344/47
f 185/321/41 145/345/48 146/346/41
f 195/339/47 199/347/44 193/337/44
f 187/331/48 197/348/46 145/349/48
f 185/321/41 146/350/41 147/322/42
f 182/324/30 184/329/35 183/323/35
f 191/326/43 193/337/44 199/327/44
f 184/329/35 186/330/33 185/321/33
f 186/330/33 188/332/34 187/331/34
f 188/332/34 190/351/29 189/333/29
f 190/334/29 192/336/37 191/326/37
f 192/336/37 194/338/38 193/337/38
f 194/338/38 196/341/36 195/339/36
f 183/323/42 147/352/42 148/340/45
f 196/341/36 182/324/30 181/325/30
f 191/326/43 198/353/43 197/342/46
f 195/339/47 181/325/45 148/343/45
f 185/321/41 187/331/48 145/345/48
f 195/339/47 200/354/47 199/347/44
f 187/331/48 189/333/46 197/348/46
