# Blender v2.79 (sub 0) OBJ File: 'network_separator.blend'
# www.blender.org
o Plane
v -0.500000 0.500000 1.375000
v 0.500000 0.500000 1.375000
v -0.500000 0.500000 -1.375000
v 0.500000 0.500000 -1.375000
v -0.375000 1.250000 -1.000000
v -0.375000 1.250000 1.000000
v 0.375000 1.250000 1.000000
v 0.375000 1.250000 -1.000000
v -0.187500 0.312500 1.500000
v 0.187500 0.312500 1.500000
v -0.187500 0.687500 1.500000
v 0.187500 0.687500 1.500000
v -0.500000 0.500000 1.125000
v 0.500000 0.500000 1.125000
v -0.500000 0.500000 -1.125000
v 0.500000 0.500000 -1.125000
v -0.500000 0.000000 1.125000
v 0.500000 0.000000 1.125000
v -0.500000 0.000000 -1.125000
v 0.500000 0.000000 -1.125000
v -0.187500 0.687500 1.125000
v -0.187500 0.312500 1.125000
v 0.187500 0.312500 1.125000
v 0.187500 0.687500 1.125000
v -0.312500 0.125000 1.125000
v -0.187500 0.125000 1.125000
v -0.312500 0.250000 1.125000
v -0.187500 0.250000 1.125000
v -0.312500 0.250000 1.375000
v -0.312500 0.125000 1.375000
v -0.187500 0.125000 1.375000
v -0.187500 0.250000 1.375000
v -0.500000 1.375000 0.750000
v 0.500000 1.375000 0.750000
v -0.500000 1.375000 -0.750000
v 0.500000 1.375000 -0.750000
v -0.500000 2.000000 -0.750000
v -0.500000 2.000000 0.750000
v 0.500000 2.000000 0.750000
v 0.500000 2.000000 -0.750000
v -0.500000 1.250000 -1.375000
v -0.500000 1.250000 1.375000
v 0.500000 1.250000 1.375000
v 0.500000 1.250000 -1.375000
v -0.375000 1.375000 -1.000000
v -0.375000 1.375000 1.000000
v 0.375000 1.375000 1.000000
v 0.375000 1.375000 -1.000000
v -0.312500 1.250000 1.125000
v -0.187500 1.250000 1.125000
v -0.312500 1.250000 0.750000
v -0.187500 1.250000 0.750000
v -0.312500 1.875000 0.750000
v -0.312500 1.875000 1.125000
v -0.187500 1.875000 1.125000
v -0.187500 1.875000 0.750000
v -0.062500 0.125000 1.125000
v 0.062500 0.125000 1.125000
v -0.062500 0.250000 1.125000
v 0.062500 0.250000 1.125000
v -0.062500 0.250000 1.375000
v -0.062500 0.125000 1.375000
v 0.062500 0.125000 1.375000
v 0.062500 0.250000 1.375000
v -0.062500 1.250000 1.125000
v 0.062500 1.250000 1.125000
v -0.062500 1.250000 0.750000
v 0.062500 1.250000 0.750000
v -0.062500 1.875000 0.750000
v -0.062500 1.875000 1.125000
v 0.062500 1.875000 1.125000
v 0.062500 1.875000 0.750000
v 0.187500 0.125000 1.125000
v 0.312500 0.125000 1.125000
v 0.187500 0.250000 1.125000
v 0.312500 0.250000 1.125000
v 0.187500 0.250000 1.375000
v 0.187500 0.125000 1.375000
v 0.312500 0.125000 1.375000
v 0.312500 0.250000 1.375000
v 0.187500 1.250000 1.125000
v 0.312500 1.250000 1.125000
v 0.187500 1.250000 0.750000
v 0.312500 1.250000 0.750000
v 0.187500 1.875000 0.750000
v 0.187500 1.875000 1.125000
v 0.312500 1.875000 1.125000
v 0.312500 1.875000 0.750000
v 0.187500 0.312500 -1.500000
v -0.187500 0.312500 -1.500000
v 0.187500 0.687500 -1.500000
v -0.187500 0.687500 -1.500000
v 0.187500 0.687500 -1.125000
v 0.187500 0.312500 -1.125000
v -0.187500 0.312500 -1.125000
v -0.187500 0.687500 -1.125000
v 0.312500 0.125000 -1.125000
v 0.187500 0.125000 -1.125000
v 0.312500 0.250000 -1.125000
v 0.187500 0.250000 -1.125000
v 0.312500 0.250000 -1.375000
v 0.312500 0.125000 -1.375000
v 0.187500 0.125000 -1.375000
v 0.187500 0.250000 -1.375000
v 0.312500 1.250000 -1.125000
v 0.187500 1.250000 -1.125000
v 0.312500 1.250000 -0.750000
v 0.187500 1.250000 -0.750000
v 0.312500 1.875000 -0.750000
v 0.312500 1.875000 -1.125000
v 0.187500 1.875000 -1.125000
v 0.187500 1.875000 -0.750000
v 0.062500 0.125000 -1.125000
v -0.062500 0.125000 -1.125000
v 0.062500 0.250000 -1.125000
v -0.062500 0.250000 -1.125000
v 0.062500 0.250000 -1.375000
v 0.062500 0.125000 -1.375000
v -0.062500 0.125000 -1.375000
v -0.062500 0.250000 -1.375000
v 0.062500 1.250000 -1.125000
v -0.062500 1.250000 -1.125000
v 0.062500 1.250000 -0.750000
v -0.062500 1.250000 -0.750000
v 0.062500 1.875000 -0.750000
v 0.062500 1.875000 -1.125000
v -0.062500 1.875000 -1.125000
v -0.062500 1.875000 -0.750000
v -0.187500 0.125000 -1.125000
v -0.312500 0.125000 -1.125000
v -0.187500 0.250000 -1.125000
v -0.312500 0.250000 -1.125000
v -0.187500 0.250000 -1.375000
v -0.187500 0.125000 -1.375000
v -0.312500 0.125000 -1.375000
v -0.312500 0.250000 -1.375000
v -0.187500 1.250000 -1.125000
v -0.312500 1.250000 -1.125000
v -0.187500 1.250000 -0.750000
v -0.312500 1.250000 -0.750000
v -0.187500 1.875000 -0.750000
v -0.187500 1.875000 -1.125000
v -0.312500 1.875000 -1.125000
v -0.312500 1.875000 -0.750000
vt 0.720588 0.722222
vt 0.676471 0.805556
vt 0.676471 0.722222
vt 0.617647 0.500000
vt 0.676471 0.722222
vt 0.617647 0.722222
vt 0.588235 0.500000
vt 0.588235 0.722222
vt 0.500000 0.500000
vt 0.088235 0.722222
vt 0.058824 0.500000
vt 0.088235 0.500000
vt 0.176471 0.722222
vt 0.735294 0.194444
vt 0.720588 0.027778
vt 0.735294 0.027778
vt 0.058824 0.722222
vt 0.000000 0.500000
vt 0.205882 0.000000
vt 0.470588 0.222222
vt 0.205882 0.222222
vt 0.470588 0.888889
vt 0.205882 0.888889
vt 0.205882 0.333333
vt 0.470588 0.333333
vt 0.176471 0.500000
vt 0.720588 0.805556
vt 0.676471 0.888889
vt 0.720588 0.638889
vt 0.764706 0.805556
vt 0.632353 0.722222
vt 0.544118 0.722222
vt 0.529412 0.750000
vt 0.529412 0.722222
vt 0.544118 0.805556
vt 0.558824 0.750000
vt 0.558824 0.805556
vt 0.514706 0.805556
vt 0.529412 0.805556
vt 0.544118 0.750000
vt 0.500000 0.805556
vt 0.514706 0.750000
vt 0.926471 0.000000
vt 0.750000 0.222222
vt 0.750000 0.000000
vt 0.750000 0.361111
vt 0.926471 0.583333
vt 0.750000 0.583333
vt 0.676471 0.361111
vt 0.676471 0.583333
vt 0.926471 0.222222
vt 0.750000 0.722222
vt 0.926471 0.722222
vt 1.000000 0.583333
vt 0.926471 0.361111
vt 1.000000 0.361111
vt 0.455882 0.694444
vt 0.220588 0.694444
vt 0.220588 0.527778
vt 0.455882 0.527778
vt 0.500000 0.722222
vt 0.485294 0.027778
vt 0.720588 0.194444
vt 0.485294 0.194444
vt 0.485294 0.222222
vt 0.720588 0.222222
vt 0.470588 0.027778
vt 0.470588 0.194444
vt 0.720588 -0.000000
vt 0.485294 -0.000000
vt 0.602941 0.222222
vt 0.558824 0.361111
vt 0.558824 0.222222
vt 0.544118 0.444444
vt 0.544118 0.361111
vt 0.544118 0.222222
vt 0.500000 0.361111
vt 0.500000 0.222222
vt 0.544118 0.722222
vt 0.529412 0.750000
vt 0.529412 0.722222
vt 0.544118 0.805556
vt 0.558824 0.750000
vt 0.558824 0.805556
vt 0.514706 0.805556
vt 0.529412 0.805556
vt 0.544118 0.750000
vt 0.500000 0.805556
vt 0.514706 0.750000
vt 0.602941 0.222222
vt 0.558824 0.361111
vt 0.558824 0.222222
vt 0.544118 0.444444
vt 0.544118 0.361111
vt 0.544118 0.222222
vt 0.500000 0.361111
vt 0.500000 0.222222
vt 0.544118 0.722222
vt 0.529412 0.750000
vt 0.529412 0.722222
vt 0.544118 0.805556
vt 0.558824 0.750000
vt 0.558824 0.805556
vt 0.514706 0.805556
vt 0.529412 0.805556
vt 0.544118 0.750000
vt 0.500000 0.805556
vt 0.514706 0.750000
vt 0.602941 0.222222
vt 0.558824 0.361111
vt 0.558824 0.222222
vt 0.544118 0.444444
vt 0.544118 0.361111
vt 0.544118 0.222222
vt 0.500000 0.361111
vt 0.500000 0.222222
vt 0.720588 0.722222
vt 0.676471 0.805556
vt 0.676471 0.722222
vt 0.720588 0.805556
vt 0.676471 0.888889
vt 0.720588 0.638889
vt 0.764706 0.805556
vt 0.632353 0.722222
vt 0.544118 0.722222
vt 0.529412 0.750000
vt 0.529412 0.722222
vt 0.544118 0.805556
vt 0.558824 0.750000
vt 0.558824 0.805556
vt 0.514706 0.805556
vt 0.529412 0.805556
vt 0.544118 0.750000
vt 0.500000 0.805556
vt 0.514706 0.750000
vt 0.602941 0.222222
vt 0.558824 0.361111
vt 0.558824 0.222222
vt 0.544118 0.361111
vt 0.558824 0.444444
vt 0.544118 0.444444
vt 0.544118 0.222222
vt 0.500000 0.361111
vt 0.500000 0.222222
vt 0.544118 0.722222
vt 0.529412 0.750000
vt 0.529412 0.722222
vt 0.544118 0.805556
vt 0.558824 0.750000
vt 0.558824 0.805556
vt 0.514706 0.805556
vt 0.529412 0.805556
vt 0.544118 0.750000
vt 0.500000 0.805556
vt 0.514706 0.750000
vt 0.602941 0.222222
vt 0.558824 0.361111
vt 0.558824 0.222222
vt 0.544118 0.444444
vt 0.544118 0.361111
vt 0.544118 0.222222
vt 0.500000 0.361111
vt 0.500000 0.222222
vt 0.544118 0.722222
vt 0.529412 0.750000
vt 0.529412 0.722222
vt 0.544118 0.805556
vt 0.558824 0.750000
vt 0.558824 0.805556
vt 0.514706 0.805556
vt 0.529412 0.805556
vt 0.544118 0.750000
vt 0.500000 0.805556
vt 0.514706 0.750000
vt 0.602941 0.222222
vt 0.558824 0.361111
vt 0.558824 0.222222
vt 0.544118 0.361111
vt 0.558824 0.444444
vt 0.544118 0.444444
vt 0.544118 0.222222
vt 0.500000 0.361111
vt 0.500000 0.222222
vt 0.676471 0.500000
vt 0.000000 0.722222
vt 0.470588 -0.000000
vt 0.500000 0.888889
vt 0.470588 1.000000
vt 0.205882 1.000000
vt 0.176471 0.888889
vt 0.500000 0.333333
vt 0.176471 0.333333
vt 0.720588 0.888889
vt 0.676471 0.638889
vt 0.764706 0.722222
vt 0.632353 0.805556
vt 0.500000 0.750000
vt 0.602941 0.361111
vt 0.558824 0.444444
vt 0.500000 0.750000
vt 0.602941 0.361111
vt 0.558824 0.444444
vt 0.500000 0.750000
vt 0.602941 0.361111
vt 0.558824 0.444444
vt 0.720588 0.888889
vt 0.676471 0.638889
vt 0.764706 0.722222
vt 0.632353 0.805556
vt 0.500000 0.750000
vt 0.602941 0.361111
vt 0.500000 0.750000
vt 0.602941 0.361111
vt 0.558824 0.444444
vt 0.500000 0.750000
vt 0.602941 0.361111
vn 0.0000 0.0000 1.0000
vn 0.0000 0.0000 -1.0000
vn 0.0000 -1.0000 0.0000
vn -1.0000 0.0000 0.0000
vn 1.0000 0.0000 0.0000
vn 0.0000 1.0000 0.0000
s off
f 10/1/1 11/2/1 9/3/1
f 16/4/2 19/5/2 15/6/2
f 4/7/3 15/6/3 3/8/3
f 3/8/2 44/9/2 4/7/2
f 1/10/3 14/11/3 2/12/3
f 2/12/1 42/13/1 1/10/1
f 5/14/2 48/15/2 8/16/2
f 13/17/1 18/18/1 14/11/1
f 17/19/3 20/20/3 18/21/3
f 15/22/4 13/23/4 42/13/4
f 14/24/5 16/25/5 43/26/5
f 12/27/6 21/28/6 11/2/6
f 9/3/3 23/29/3 10/1/3
f 10/1/5 24/30/5 12/27/5
f 11/2/4 22/31/4 9/3/4
f 31/32/1 29/33/1 30/34/1
f 28/35/5 31/36/5 26/37/5
f 25/38/4 29/33/4 27/39/4
f 27/39/6 32/40/6 28/35/6
f 26/41/3 30/42/3 25/38/3
f 35/43/3 34/44/3 33/45/3
f 39/46/6 37/47/6 38/48/6
f 34/49/1 38/48/1 33/50/1
f 36/51/5 39/46/5 34/44/5
f 33/52/4 37/47/4 35/53/4
f 35/54/2 40/55/2 36/56/2
f 5/57/6 42/13/6 6/58/6
f 7/59/6 44/9/6 8/60/6
f 8/60/6 41/61/6 5/57/6
f 6/58/6 43/26/6 7/59/6
f 47/62/6 45/63/6 46/64/6
f 6/65/4 45/63/4 5/66/4
f 7/67/1 46/64/1 6/68/1
f 8/69/5 47/62/5 7/70/5
f 52/71/5 55/72/5 50/73/5
f 55/72/6 53/74/6 54/75/6
f 49/76/4 53/77/4 51/78/4
f 50/73/1 54/75/1 49/76/1
f 63/79/1 61/80/1 62/81/1
f 60/82/5 63/83/5 58/84/5
f 57/85/4 61/80/4 59/86/4
f 59/86/6 64/87/6 60/82/6
f 58/88/3 62/89/3 57/85/3
f 68/90/5 71/91/5 66/92/5
f 71/91/6 69/93/6 70/94/6
f 65/95/4 69/96/4 67/97/4
f 66/92/1 70/94/1 65/95/1
f 79/98/1 77/99/1 78/100/1
f 76/101/5 79/102/5 74/103/5
f 73/104/4 77/99/4 75/105/4
f 75/105/6 80/106/6 76/101/6
f 74/107/3 78/108/3 73/104/3
f 84/109/5 87/110/5 82/111/5
f 87/110/6 85/112/6 86/113/6
f 81/114/4 85/115/4 83/116/4
f 82/111/1 86/113/1 81/114/1
f 90/117/2 91/118/2 89/119/2
f 92/120/6 93/121/6 91/118/6
f 89/119/3 95/122/3 90/117/3
f 90/117/4 96/123/4 92/120/4
f 91/118/5 94/124/5 89/119/5
f 103/125/2 101/126/2 102/127/2
f 100/128/4 103/129/4 98/130/4
f 97/131/5 101/126/5 99/132/5
f 99/132/6 104/133/6 100/128/6
f 98/134/3 102/135/3 97/131/3
f 108/136/4 111/137/4 106/138/4
f 110/139/6 112/140/6 109/141/6
f 105/142/5 109/143/5 107/144/5
f 106/138/2 110/139/2 105/142/2
f 119/145/2 117/146/2 118/147/2
f 116/148/4 119/149/4 114/150/4
f 113/151/5 117/146/5 115/152/5
f 115/152/6 120/153/6 116/148/6
f 114/154/3 118/155/3 113/151/3
f 124/156/4 127/157/4 122/158/4
f 127/157/6 125/159/6 126/160/6
f 121/161/5 125/162/5 123/163/5
f 122/158/2 126/160/2 121/161/2
f 135/164/2 133/165/2 134/166/2
f 132/167/4 135/168/4 130/169/4
f 129/170/5 133/165/5 131/171/5
f 131/171/6 136/172/6 132/167/6
f 130/173/3 134/174/3 129/170/3
f 140/175/4 143/176/4 138/177/4
f 142/178/6 144/179/6 141/180/6
f 137/181/5 141/182/5 139/183/5
f 138/177/2 142/178/2 137/181/2
f 10/1/1 12/27/1 11/2/1
f 16/4/2 20/184/2 19/5/2
f 4/7/3 16/4/3 15/6/3
f 3/8/2 41/61/2 44/9/2
f 1/10/3 13/17/3 14/11/3
f 2/12/1 43/26/1 42/13/1
f 5/14/2 45/63/2 48/15/2
f 13/17/1 17/185/1 18/18/1
f 17/19/3 19/186/3 20/20/3
f 42/13/4 41/61/4 15/22/4
f 41/61/4 3/187/4 15/22/4
f 15/22/4 19/188/4 17/189/4
f 13/23/4 1/190/4 42/13/4
f 15/22/4 17/189/4 13/23/4
f 14/24/5 18/21/5 20/20/5
f 16/25/5 4/191/5 44/9/5
f 14/24/5 20/20/5 16/25/5
f 43/26/5 2/192/5 14/24/5
f 16/25/5 44/9/5 43/26/5
f 12/27/6 24/193/6 21/28/6
f 9/3/3 22/194/3 23/29/3
f 10/1/5 23/195/5 24/30/5
f 11/2/4 21/196/4 22/31/4
f 31/32/1 32/40/1 29/33/1
f 28/35/5 32/40/5 31/36/5
f 25/38/4 30/42/4 29/33/4
f 27/39/6 29/33/6 32/40/6
f 26/41/3 31/197/3 30/42/3
f 35/43/3 36/51/3 34/44/3
f 39/46/6 40/55/6 37/47/6
f 34/49/1 39/46/1 38/48/1
f 36/51/5 40/55/5 39/46/5
f 33/52/4 38/48/4 37/47/4
f 35/54/2 37/47/2 40/55/2
f 5/57/6 41/61/6 42/13/6
f 7/59/6 43/26/6 44/9/6
f 8/60/6 44/9/6 41/61/6
f 6/58/6 42/13/6 43/26/6
f 47/62/6 48/15/6 45/63/6
f 6/65/4 46/64/4 45/63/4
f 7/67/1 47/62/1 46/64/1
f 8/69/5 48/15/5 47/62/5
f 52/71/5 56/198/5 55/72/5
f 55/72/6 56/199/6 53/74/6
f 49/76/4 54/75/4 53/77/4
f 50/73/1 55/72/1 54/75/1
f 63/79/1 64/87/1 61/80/1
f 60/82/5 64/87/5 63/83/5
f 57/85/4 62/89/4 61/80/4
f 59/86/6 61/80/6 64/87/6
f 58/88/3 63/200/3 62/89/3
f 68/90/5 72/201/5 71/91/5
f 71/91/6 72/202/6 69/93/6
f 65/95/4 70/94/4 69/96/4
f 66/92/1 71/91/1 70/94/1
f 79/98/1 80/106/1 77/99/1
f 76/101/5 80/106/5 79/102/5
f 73/104/4 78/108/4 77/99/4
f 75/105/6 77/99/6 80/106/6
f 74/107/3 79/203/3 78/108/3
f 84/109/5 88/204/5 87/110/5
f 87/110/6 88/205/6 85/112/6
f 81/114/4 86/113/4 85/115/4
f 82/111/1 87/110/1 86/113/1
f 90/117/2 92/120/2 91/118/2
f 92/120/6 96/206/6 93/121/6
f 89/119/3 94/207/3 95/122/3
f 90/117/4 95/208/4 96/123/4
f 91/118/5 93/209/5 94/124/5
f 103/125/2 104/133/2 101/126/2
f 100/128/4 104/133/4 103/129/4
f 97/131/5 102/135/5 101/126/5
f 99/132/6 101/126/6 104/133/6
f 98/134/3 103/210/3 102/135/3
f 108/136/4 112/211/4 111/137/4
f 110/139/6 111/137/6 112/140/6
f 105/142/5 110/139/5 109/143/5
f 106/138/2 111/137/2 110/139/2
f 119/145/2 120/153/2 117/146/2
f 116/148/4 120/153/4 119/149/4
f 113/151/5 118/155/5 117/146/5
f 115/152/6 117/146/6 120/153/6
f 114/154/3 119/212/3 118/155/3
f 124/156/4 128/213/4 127/157/4
f 127/157/6 128/214/6 125/159/6
f 121/161/5 126/160/5 125/162/5
f 122/158/2 127/157/2 126/160/2
f 135/164/2 136/172/2 133/165/2
f 132/167/4 136/172/4 135/168/4
f 129/170/5 134/174/5 133/165/5
f 131/171/6 133/165/6 136/172/6
f 130/173/3 135/215/3 134/174/3
f 140/175/4 144/216/4 143/176/4
f 142/178/6 143/176/6 144/179/6
f 137/181/5 142/178/5 141/182/5
f 138/177/2 143/176/2 142/178/2
