# Blender v2.79 (sub 0) OBJ File: ''
# www.blender.org
o Anchor
v 0.187500 0.687500 0.250000
v -0.187500 0.312500 0.250000
v 0.187500 0.312500 0.250000
v 0.250000 0.687500 -0.187500
v 0.250000 0.312500 0.187500
v 0.250000 0.312500 -0.187500
v -0.187500 0.750000 -0.187500
v 0.187500 0.750000 0.187500
v 0.187500 0.750000 -0.187500
v -0.250000 0.687500 0.187500
v -0.250000 0.312500 -0.187500
v -0.250000 0.312500 0.187500
v -0.187500 0.687500 -0.250000
v 0.187500 0.312500 -0.250000
v -0.187500 0.312500 -0.250000
v -0.187500 0.250000 0.187500
v -0.187500 0.687500 0.250000
v -0.187500 0.750000 0.187500
v -0.187500 0.250000 -0.187500
v -0.250000 0.687500 -0.187500
v 0.187500 0.250000 0.187500
v 0.250000 0.687500 0.187500
v 0.187500 0.250000 -0.187500
v 0.187500 0.687500 -0.250000
v 0.187500 0.000000 -0.187500
v 0.187500 0.062500 0.187500
v 0.187500 -0.000000 0.187500
v -0.187500 -0.000000 0.187500
v -0.187500 0.062500 -0.187500
v -0.187500 0.000000 -0.187500
v -0.187500 0.062500 0.187500
v 0.187500 0.062500 -0.187500
v 0.125000 0.062500 -0.125000
v 0.125000 0.250000 0.125000
v 0.125000 0.062500 0.125000
v -0.125000 0.062500 -0.125000
v -0.125000 0.062500 0.125000
v -0.125000 0.250000 -0.125000
v 0.125000 0.250000 -0.125000
v -0.125000 0.250000 0.125000
vt 0.937500 0.937500
vt 0.562500 0.562500
vt 0.937500 0.562500
vt 0.937500 0.937500
vt 0.562500 0.562500
vt 0.937500 0.562500
vt 0.937500 0.937500
vt 0.562500 0.562500
vt 0.937500 0.562500
vt 0.937500 0.937500
vt 0.562500 0.562500
vt 0.937500 0.562500
vt 0.937500 0.937500
vt 0.562500 0.562500
vt 0.937500 0.562500
vt 0.937500 0.937500
vt 1.000000 0.937500
vt 0.937500 1.000000
vt 1.000000 0.937500
vt 0.937500 1.000000
vt 0.937500 0.937500
vt 1.000000 0.937500
vt 0.937500 1.000000
vt 0.937500 1.000000
vt 1.000000 0.937500
vt 0.937500 0.937500
vt 1.000000 0.937500
vt 0.937500 1.000000
vt 0.937500 1.000000
vt 1.000000 0.937500
vt 0.937500 0.937500
vt 1.000000 0.937500
vt 0.937500 1.000000
vt 0.937500 1.000000
vt 1.000000 0.937500
vt 0.562500 1.000000
vt 0.562500 0.937500
vt 1.000000 0.562500
vt 0.562500 1.000000
vt 0.562500 1.000000
vt 0.562500 0.937500
vt 0.562500 1.000000
vt 0.562500 1.000000
vt 0.562500 0.937500
vt 0.562500 1.000000
vt 0.562500 1.000000
vt 0.562500 0.937500
vt 0.562500 1.000000
vt 0.562500 0.562500
vt 0.937500 0.562500
vt 0.375000 0.375000
vt 0.000000 0.437500
vt 0.000000 0.375000
vt 0.375000 0.375000
vt -0.000000 0.437500
vt -0.000000 0.375000
vt 0.375000 0.375000
vt 0.000000 0.437500
vt 0.000000 0.375000
vt 0.375000 0.375000
vt -0.000000 0.437500
vt -0.000000 0.375000
vt 0.312500 0.500000
vt 0.375000 0.437500
vt 0.000000 -0.000000
vt 0.375000 -0.000000
vt 0.062500 0.687500
vt 0.062500 0.500000
vt 0.312500 0.500000
vt 0.375000 0.437500
vt 0.312500 0.500000
vt 0.375000 0.437500
vt 0.312500 0.500000
vt 0.375000 0.437500
vt 0.062500 0.687500
vt 0.062500 0.500000
vt 0.062500 0.687500
vt 0.062500 0.500000
vt 0.062500 0.687500
vt 0.062500 0.500000
vt 0.562500 0.937500
vt 0.562500 0.937500
vt 0.562500 0.937500
vt 0.562500 0.937500
vt 0.562500 0.937500
vt 1.000000 0.562500
vt 1.000000 0.562500
vt 1.000000 0.562500
vt 0.312500 0.687500
vt 0.312500 0.687500
vt 0.312500 0.687500
vt 0.312500 0.687500
vn 0.0000 -0.0000 1.0000
vn 1.0000 0.0000 0.0000
vn 0.0000 1.0000 0.0000
vn -1.0000 -0.0000 0.0000
vn 0.0000 0.0000 -1.0000
vn -0.5774 -0.5774 0.5774
vn -0.5774 0.5774 0.5774
vn -0.5774 -0.5774 -0.5774
vn -0.5774 0.5774 -0.5774
vn 0.5774 -0.5774 0.5774
vn 0.5774 0.5774 0.5774
vn 0.5774 -0.5774 -0.5774
vn 0.5774 0.5774 -0.5774
vn -0.7071 -0.7071 0.0000
vn -0.7071 -0.0000 0.7071
vn -0.7071 0.7071 0.0000
vn -0.7071 0.0000 -0.7071
vn 0.0000 -0.7071 -0.7071
vn 0.0000 0.7071 -0.7071
vn 0.7071 0.0000 -0.7071
vn 0.7071 -0.7071 0.0000
vn 0.7071 0.7071 0.0000
vn 0.7071 -0.0000 0.7071
vn 0.0000 -0.7071 0.7071
vn 0.0000 0.7071 0.7071
vn 0.0000 -1.0000 -0.0000
s 1
f 1/1/1 2/2/1 3/3/1
f 4/4/2 5/5/2 6/6/2
f 7/7/3 8/8/3 9/9/3
f 10/10/4 11/11/4 12/12/4
f 13/13/5 14/14/5 15/15/5
f 16/16/6 2/17/6 12/18/6
f 17/19/7 18/20/7 10/10/7
f 19/21/8 11/22/8 15/23/8
f 7/24/9 13/13/9 20/25/9
f 21/26/10 5/27/10 3/28/10
f 8/29/11 1/1/11 22/30/11
f 23/31/12 14/32/12 6/33/12
f 9/34/13 4/4/13 24/35/13
f 16/16/14 11/36/14 19/37/14
f 17/19/15 12/12/15 2/38/15
f 7/39/16 10/10/16 18/20/16
f 15/15/17 20/25/17 13/13/17
f 19/21/18 14/40/18 23/41/18
f 9/42/19 13/13/19 7/24/19
f 6/6/20 24/35/20 4/4/20
f 23/31/21 5/43/21 21/44/21
f 8/45/22 4/4/22 9/34/22
f 3/3/23 22/30/23 1/1/23
f 21/26/24 2/46/24 16/47/24
f 18/48/25 1/1/25 8/29/25
f 23/31/26 16/49/26 19/50/26
f 25/51/2 26/52/2 27/53/2
f 28/54/4 29/55/4 30/56/4
f 27/57/1 31/58/1 28/59/1
f 30/60/5 32/61/5 25/62/5
f 33/63/3 26/52/3 32/64/3
f 25/51/26 28/65/26 30/66/26
f 33/63/2 34/67/2 35/68/2
f 36/69/3 32/61/3 29/70/3
f 37/71/3 29/55/3 31/72/3
f 35/73/3 31/58/3 26/74/3
f 37/71/4 38/75/4 36/76/4
f 36/69/5 39/77/5 33/78/5
f 35/73/1 40/79/1 37/80/1
f 1/1/1 17/81/1 2/2/1
f 4/4/2 22/82/2 5/5/2
f 7/7/3 18/83/3 8/8/3
f 10/10/4 20/84/4 11/11/4
f 13/13/5 24/85/5 14/14/5
f 16/16/14 12/18/14 11/36/14
f 17/19/15 10/10/15 12/12/15
f 7/39/16 20/84/16 10/10/16
f 15/15/17 11/86/17 20/25/17
f 19/21/18 15/23/18 14/40/18
f 9/42/19 24/85/19 13/13/19
f 6/6/20 14/87/20 24/35/20
f 23/31/21 6/33/21 5/43/21
f 8/45/22 22/82/22 4/4/22
f 3/3/23 5/88/23 22/30/23
f 21/26/24 3/28/24 2/46/24
f 18/48/25 17/81/25 1/1/25
f 23/31/26 21/44/26 16/49/26
f 25/51/2 32/64/2 26/52/2
f 28/54/4 31/72/4 29/55/4
f 27/57/1 26/74/1 31/58/1
f 30/60/5 29/70/5 32/61/5
f 33/63/3 35/68/3 26/52/3
f 25/51/26 27/53/26 28/65/26
f 33/63/2 39/89/2 34/67/2
f 36/69/3 33/78/3 32/61/3
f 37/71/3 36/76/3 29/55/3
f 35/73/3 37/80/3 31/58/3
f 37/71/4 40/90/4 38/75/4
f 36/69/5 38/91/5 39/77/5
f 35/73/1 34/92/1 40/79/1
o Ring
v 0.149155 1.437500 0.149155
v 0.000000 1.437500 0.187500
v 0.000000 1.437500 0.210938
v -0.149155 1.437500 0.149155
v -0.132583 1.437500 0.132583
v -0.210938 1.437500 0.000000
v -0.187500 1.437500 0.000000
v -0.149155 1.437500 -0.149155
v 0.000000 1.437500 -0.187500
v 0.000000 1.437500 -0.210938
v 0.149155 1.437500 -0.149155
v 0.187500 1.437500 0.000000
v 0.210937 1.437500 0.000000
v 0.149155 1.562500 0.149155
v 0.187500 1.562500 0.000000
v 0.210937 1.562500 0.000000
v 0.149155 1.562500 -0.149155
v 0.132583 1.562500 -0.132583
v 0.000000 1.562500 -0.210938
v 0.000000 1.562500 -0.187500
v -0.149155 1.562500 -0.149155
v -0.132583 1.562500 -0.132583
v -0.210938 1.562500 0.000000
v -0.187500 1.562500 0.000000
v -0.149155 1.562500 0.149155
v -0.132583 1.562500 0.132583
v 0.000000 1.562500 0.210938
v 0.132583 1.562500 0.132583
v 0.132583 1.437500 0.132583
v -0.132583 1.437500 -0.132583
v 0.132583 1.437500 -0.132583
v 0.000000 1.562500 0.187500
vt 0.812500 0.125000
vt 1.000000 0.062500
vt 0.812500 0.062500
vt 1.000000 0.125000
vt 0.812500 0.062500
vt 0.812500 0.125000
vt 0.812500 0.125000
vt 1.000000 0.062500
vt 0.812500 0.062500
vt 0.812500 0.125000
vt 0.625000 0.062500
vt 0.625000 0.125000
vt 0.625000 0.062500
vt 0.625000 0.062500
vt 0.812500 0.125000
vt 0.812500 0.062500
vt 0.812500 0.125000
vt 1.000000 0.062500
vt 0.812500 0.062500
vt 0.625000 0.125000
vt 0.812500 0.062500
vt 0.625000 0.062500
vt 0.625000 0.062500
vt 0.625000 0.125000
vt 0.625000 0.062500
vt 1.000000 0.125000
vt 0.812500 0.125000
vt 0.625000 0.062500
vt 0.812500 0.125000
vt 0.812500 0.062500
vt 1.000000 0.062500
vt 0.625000 0.062500
vt 1.000000 0.062500
vt 0.812500 0.125000
vt 0.812500 0.125000
vt 0.812500 0.125000
vt 0.812500 0.125000
vt 0.812500 0.062500
vt 1.000000 0.062500
vt 1.000000 0.125000
vt 1.000000 0.125000
vt 1.000000 0.125000
vt 1.000000 0.062500
vt 1.000000 0.125000
vt 1.000000 0.125000
vt 1.000000 0.062500
vt 1.000000 0.125000
vt 0.625000 0.125000
vt 0.625000 0.125000
vt 1.000000 0.125000
vt 0.625000 0.125000
vt 0.625000 0.125000
vt 1.000000 0.125000
vt 0.625000 0.125000
vt 1.000000 0.125000
vt 0.625000 0.125000
vt 0.625000 0.125000
vt 0.625000 0.125000
vt 0.625000 0.125000
vt 1.000000 0.125000
vn 0.0000 1.0000 0.0000
vn 0.0000 -1.0000 0.0000
vn 0.7071 -0.0000 0.7071
vn 1.0000 0.0000 -0.0000
vn 0.7071 0.0000 -0.7071
vn -0.0000 0.0000 -1.0000
vn -0.7071 0.0000 -0.7071
vn -1.0000 0.0000 -0.0000
vn -0.7071 -0.0000 0.7071
vn 0.0000 -0.0000 1.0000
s 1
f 60/93/27 57/94/27 59/95/27
f 71/96/28 53/97/28 52/98/28
f 64/99/27 61/100/27 63/101/27
f 72/102/27 54/103/27 68/104/27
f 61/105/27 60/93/27 59/95/27
f 48/106/28 47/107/28 46/108/28
f 42/109/28 41/110/28 43/111/28
f 58/112/27 56/113/27 57/114/27
f 44/115/28 42/109/28 43/111/28
f 69/116/28 53/97/28 41/117/28
f 68/118/27 56/113/27 55/119/27
f 51/120/28 49/121/28 50/122/28
f 47/107/28 44/123/28 46/108/28
f 65/124/27 64/99/27 63/101/27
f 49/121/28 48/125/28 50/122/28
f 54/103/29 53/126/30 56/113/30
f 57/114/31 50/127/32 59/95/32
f 61/105/33 46/128/34 63/101/34
f 65/124/35 43/129/36 67/130/36
f 72/102/27 65/131/27 67/130/27
f 56/113/30 51/132/31 57/94/31
f 63/101/34 44/133/35 65/131/35
f 67/130/36 41/134/29 54/135/29
f 59/95/32 48/136/33 61/100/33
f 60/93/27 58/137/27 57/94/27
f 71/96/28 51/138/28 53/97/28
f 64/99/27 62/139/27 61/100/27
f 72/102/27 67/130/27 54/103/27
f 61/105/27 62/140/27 60/93/27
f 48/106/28 70/141/28 47/107/28
f 42/109/28 69/142/28 41/110/28
f 58/112/27 55/119/27 56/113/27
f 44/115/28 45/143/28 42/109/28
f 69/116/28 52/98/28 53/97/28
f 68/118/27 54/135/27 56/113/27
f 51/120/28 71/144/28 49/121/28
f 47/107/28 45/145/28 44/123/28
f 65/124/27 66/146/27 64/99/27
f 49/121/28 70/147/28 48/125/28
f 54/103/29 41/148/29 53/126/30
f 57/114/31 51/149/31 50/127/32
f 61/105/33 48/150/33 46/128/34
f 65/124/35 44/151/35 43/129/36
f 72/102/27 66/152/27 65/131/27
f 56/113/30 53/126/30 51/132/31
f 63/101/34 46/128/34 44/133/35
f 67/130/36 43/129/36 41/134/29
f 59/95/32 50/127/32 48/136/33
o Pipe
v 0.000000 1.500000 -0.187500
v 0.132583 0.500000 -0.132583
v 0.000000 0.500000 -0.187500
v 0.132583 1.500000 -0.132583
v 0.187500 0.500000 0.000000
v 0.187500 1.500000 0.000000
v 0.132583 0.500000 0.132583
v 0.132583 1.500000 0.132583
v 0.000000 0.500000 0.187500
v 0.000000 1.500000 0.187500
v -0.132583 0.500000 0.132583
v -0.132583 1.500000 0.132583
v -0.187500 0.500000 0.000000
v -0.187500 1.500000 0.000000
v -0.132583 0.500000 -0.132583
v -0.132583 1.500000 -0.132583
vt 0.625000 0.062500
vt 0.812500 -0.000000
vt 0.812500 0.062500
vt 0.625000 0.062500
vt 0.812500 0.000000
vt 0.812500 0.062500
vt 1.000000 -0.000000
vt 1.000000 0.062500
vt 1.000000 -0.000000
vt 1.000000 0.062500
vt 0.625000 0.062500
vt 0.812500 -0.000000
vt 0.812500 0.062500
vt 0.812500 0.062500
vt 1.000000 -0.000000
vt 1.000000 0.062500
vt 0.625000 0.062500
vt 0.812500 -0.000000
vt 1.000000 -0.000000
vt 1.000000 0.062500
vt 0.625000 -0.000000
vt 0.625000 0.000000
vt 0.625000 -0.000000
vt 0.625000 -0.000000
vn 0.7071 -0.0000 0.7071
vn 1.0000 -0.0000 -0.0000
vn -0.7071 0.0000 -0.7071
vn -1.0000 -0.0000 -0.0000
vn -0.7071 -0.0000 0.7071
vn 0.7071 0.0000 -0.7071
vn -0.0000 -0.0000 1.0000
vn 0.0000 0.0000 -1.0000
s 1
f 80/153/37 77/154/38 78/155/38
f 88/156/39 85/157/40 86/158/40
f 86/158/40 83/159/41 84/160/41
f 78/155/38 74/161/42 76/162/42
f 84/163/41 81/164/43 82/165/43
f 73/166/44 87/167/39 88/168/39
f 76/169/42 75/170/44 73/166/44
f 82/165/43 79/171/37 80/172/37
f 80/153/37 79/173/37 77/154/38
f 88/156/39 87/174/39 85/157/40
f 86/158/40 85/157/40 83/159/41
f 78/155/38 77/154/38 74/161/42
f 84/163/41 83/175/41 81/164/43
f 73/166/44 75/170/44 87/167/39
f 76/169/42 74/176/42 75/170/44
f 82/165/43 81/164/43 79/171/37
