# Blender v2.76 (sub 0) OBJ File: 'launch_table_base.blend'
# www.blender.org
o Cube_Cube.001
v -4.500000 0.000000 4.500000
v -4.500000 1.000000 4.500000
v -4.500000 0.000000 0.500000
v -4.500000 1.000000 0.500000
v 4.500000 0.000000 4.500000
v 4.500000 1.000000 4.500000
v 4.500000 0.000000 0.500000
v 4.500000 1.000000 0.500000
v -4.500000 0.000000 -0.500000
v -4.500000 1.000000 -0.500000
v -4.500000 0.000000 -4.500000
v -4.500000 1.000000 -4.500000
v 4.500000 0.000000 -0.500000
v 4.500000 1.000000 -0.500000
v 4.500000 0.000000 -4.500000
v 4.500000 1.000000 -4.500000
v -0.500000 0.000000 0.500000
v 0.500000 0.000000 0.500000
v -0.500000 0.000000 -0.500000
v 0.500000 0.000000 -0.500000
v 0.000000 0.500000 0.500000
v 0.000000 0.500000 -0.500000
v -0.500000 1.000000 0.500000
v 0.500000 1.000000 0.500000
v -0.500000 1.000000 -0.500000
v 0.500000 1.000000 -0.500000
v 4.500000 1.000000 0.500000
v 4.500000 1.000000 -0.500000
v -4.500000 1.000000 0.500000
v -4.500000 1.000000 -0.500000
v -0.500000 1.000000 0.500000
v 0.500000 1.000000 0.500000
v -0.500000 1.000000 -0.500000
v 0.500000 1.000000 -0.500000
v 4.500000 1.000000 0.500000
v 4.500000 1.000000 -0.500000
v -4.500000 1.000000 0.500000
v -4.500000 1.000000 -0.500000
vt 0.722222 0.333333
vt 0.722222 0.277778
vt 0.944444 0.277778
vt 0.500000 0.222222
vt 0.500000 0.166667
vt 1.000000 0.166667
vt 0.500000 0.277778
vt 0.722222 0.222222
vt 0.500000 0.111111
vt 0.500000 0.055556
vt 1.000000 0.055556
vt 0.222222 1.000000
vt 0.222222 0.500000
vt 0.444444 0.500000
vt 0.222222 0.000000
vt 0.000000 0.500000
vt 0.500000 0.333333
vt 0.500000 -0.000000
vt 1.000000 -0.000000
vt 0.944444 0.222222
vt 1.000000 0.111111
vt -0.000000 1.000000
vt 0.500000 0.500000
vt 0.277778 0.500000
vt 0.555556 0.361111
vt 0.611111 0.361111
vt 0.611111 0.388889
vt 0.555556 0.333333
vt 0.277778 0.277778
vt 0.222222 0.222222
vt 0.277778 0.000000
vt 0.555556 0.388889
vt 0.944444 0.333333
vt 1.000000 0.222222
vt 0.444444 1.000000
vt 0.000000 0.000000
vt 0.611111 0.333333
vt 0.222222 0.277778
vt 0.277778 0.222222
vt 0.500000 0.388889
vn -1.000000 0.000000 0.000000
vn 0.000000 0.000000 -1.000000
vn 1.000000 0.000000 0.000000
vn 0.000000 0.000000 1.000000
vn 0.000000 -1.000000 0.000000
vn 0.000000 1.000000 0.000000
vn -0.707100 0.707100 0.000000
vn 0.707100 0.707100 0.000000
s off
f 4/1/1 3/2/1 1/3/1
f 8/4/2 7/5/2 3/6/2
f 6/7/3 5/4/3 7/8/3
f 2/9/4 1/10/4 5/11/4
f 3/12/5 7/13/5 5/14/5
f 8/15/6 4/13/6 2/16/6
f 12/17/1 11/7/1 9/2/1
f 16/10/2 15/18/2 11/19/2
f 14/2/3 13/8/3 15/20/3
f 10/5/4 9/9/4 13/21/4
f 11/22/5 15/16/5 13/13/5
f 16/18/6 12/23/6 10/24/6
f 21/25/7 22/26/7 19/27/7
f 22/26/8 21/25/8 18/28/8
f 25/29/6 30/24/6 29/13/6
f 24/30/6 27/15/6 28/31/6
f 20/17/5 18/28/5 17/32/5
f 37/13/5 38/24/5 33/29/5
f 36/31/5 35/15/5 32/30/5
f 2/33/1 4/1/1 1/3/1
f 4/34/2 8/4/2 3/6/2
f 8/2/3 6/7/3 7/8/3
f 6/21/4 2/9/4 5/11/4
f 1/35/5 3/12/5 5/14/5
f 6/36/6 8/15/6 2/16/6
f 10/1/1 12/17/1 9/2/1
f 12/11/2 16/10/2 11/19/2
f 16/3/3 14/2/3 15/20/3
f 14/6/4 10/5/4 13/21/4
f 9/12/5 11/22/5 13/13/5
f 14/31/6 16/18/6 10/24/6
f 17/32/7 21/25/7 19/27/7
f 20/37/8 22/26/8 18/28/8
f 23/38/6 25/29/6 29/13/6
f 26/39/6 24/30/6 28/31/6
f 19/40/5 20/17/5 17/32/5
f 31/38/5 37/13/5 33/29/5
f 34/39/5 36/31/5 32/30/5
