# Blender v2.76 (sub 0) OBJ File: 'launch_table_small_scaffold_base.blend'
# www.blender.org
o Cube.006_Cube.007
v 0.500000 0.000000 0.375000
v 0.500000 1.000000 0.375000
v 0.500000 0.000000 0.500000
v 0.500000 1.000000 0.500000
v 0.375000 0.000000 0.375000
v 0.375000 1.000000 0.375000
v 0.375000 0.000000 0.500000
v 0.375000 1.000000 0.500000
v 0.500000 0.000000 -0.500000
v 0.500000 1.000000 -0.500000
v 0.500000 0.000000 -0.375000
v 0.500000 1.000000 -0.375000
v 0.375000 0.000000 -0.500000
v 0.375000 1.000000 -0.500000
v 0.375000 0.000000 -0.375000
v 0.375000 1.000000 -0.375000
v -0.375000 0.000000 -0.500000
v -0.375000 1.000000 -0.500000
v -0.375000 0.000000 -0.375000
v -0.375000 1.000000 -0.375000
v -0.500000 0.000000 -0.500000
v -0.500000 1.000000 -0.500000
v -0.500000 0.000000 -0.375000
v -0.500000 1.000000 -0.375000
v -0.375000 0.000000 0.375000
v -0.375000 1.000000 0.375000
v -0.375000 0.000000 0.500000
v -0.375000 1.000000 0.500000
v -0.500000 0.000000 0.375000
v -0.500000 1.000000 0.375000
v -0.500000 0.000000 0.500000
v -0.500000 1.000000 0.500000
v 0.375000 0.000000 0.437500
v 0.375000 1.000000 0.437500
v -0.375000 0.000000 0.437500
v -0.375000 1.000000 0.437500
v 0.375000 0.000000 -0.437500
v 0.375000 1.000000 -0.437500
v -0.375000 0.000000 -0.437500
v -0.375000 1.000000 -0.437500
v 0.437500 0.000000 -0.375000
v 0.437500 1.000000 -0.375000
v 0.437500 0.000000 0.375000
v 0.437500 1.000000 0.375000
v -0.437500 0.000000 -0.375000
v -0.437500 1.000000 -0.375000
v -0.437500 0.000000 0.375000
v -0.437500 1.000000 0.375000
v 0.406250 0.000000 -0.156250
v 0.406250 1.000000 -0.156250
v 0.406250 0.000000 0.156250
v 0.406250 1.000000 0.156250
v 0.093750 0.000000 -0.156250
v 0.093750 1.000000 -0.156250
v 0.093750 0.000000 0.156250
v 0.093750 1.000000 0.156250
v -0.250000 1.000000 0.375000
v -0.250000 0.000000 0.375000
v -0.250000 0.000000 -0.125000
v -0.250000 1.000000 -0.125000
v -0.338388 0.000000 -0.161612
v -0.338388 1.000000 -0.161612
v -0.375000 0.000000 -0.250000
v -0.375000 1.000000 -0.250000
v -0.338388 0.000000 -0.338388
v -0.338388 1.000000 -0.338388
v -0.250000 0.000000 -0.375000
v -0.250000 1.000000 -0.375000
v -0.161612 0.000000 -0.338388
v -0.161612 1.000000 -0.338388
v -0.125000 0.000000 -0.250000
v -0.125000 1.000000 -0.250000
v -0.161612 0.000000 -0.161612
v -0.161612 1.000000 -0.161612
v -0.338388 0.000000 0.338388
v -0.338388 1.000000 0.338388
v -0.375000 0.000000 0.250000
v -0.375000 1.000000 0.250000
v -0.338388 0.000000 0.161612
v -0.338388 1.000000 0.161612
v -0.250000 0.000000 0.125000
v -0.250000 1.000000 0.125000
v -0.161612 0.000000 0.161612
v -0.161612 1.000000 0.161612
v -0.125000 0.000000 0.250000
v -0.125000 1.000000 0.250000
v -0.161612 0.000000 0.338388
v -0.161612 1.000000 0.338388
v 0.375000 0.000000 0.437500
v 0.375000 1.000000 0.437500
v -0.375000 0.000000 0.437500
v -0.375000 1.000000 0.437500
v 0.375000 0.000000 -0.437500
v 0.375000 1.000000 -0.437500
v -0.375000 0.000000 -0.437500
v -0.375000 1.000000 -0.437500
v 0.437500 0.000000 -0.375000
v 0.437500 1.000000 -0.375000
v 0.437500 0.000000 0.375000
v 0.437500 1.000000 0.375000
v -0.437500 0.000000 -0.375000
v -0.437500 1.000000 -0.375000
v -0.437500 0.000000 0.375000
v -0.437500 1.000000 0.375000
vt 0.107143 0.285714
vt 0.107143 -0.000000
vt 0.142857 0.000000
vt 0.071429 0.285714
vt 0.071429 0.000000
vt 0.035714 0.285714
vt 0.035714 0.000000
vt 0.000000 0.285714
vt 0.000000 0.000000
vt 0.035714 0.321429
vt -0.000000 0.321429
vt 0.428571 0.714286
vt 0.214286 0.714286
vt 0.214286 0.428571
vt -0.000000 0.714286
vt 0.428571 1.000000
vt 0.214286 1.000000
vt -0.000000 1.000000
vt 0.607143 0.714286
vt 0.607143 0.428571
vt 0.696429 0.428571
vt 0.517857 0.714286
vt 0.517857 0.428571
vt 0.428571 0.428571
vt 0.696429 0.714286
vt 0.785714 0.428571
vt 0.517857 0.803571
vt 0.428571 0.803571
vt 0.196429 0.285714
vt 0.142857 0.285714
vt 0.892857 0.285714
vt 0.839286 0.285714
vt 0.839286 0.000000
vt 0.250000 0.285714
vt 0.196429 -0.000000
vt 0.785714 0.285714
vt 0.785714 0.000000
vt 0.303571 0.285714
vt 0.250000 -0.000000
vt 0.732143 0.285714
vt 0.732143 0.000000
vt 0.357143 0.285714
vt 0.303571 -0.000000
vt 0.678571 0.285714
vt 0.678571 0.000000
vt 0.571429 0.285714
vt 0.517857 0.285714
vt 0.517857 -0.000000
vt 0.410714 0.285714
vt 0.357143 -0.000000
vt 0.625000 0.285714
vt 0.625000 0.000000
vt 0.464286 0.285714
vt 0.464286 -0.000000
vt 0.410714 -0.000000
vt 0.571429 0.000000
vt 0.571429 0.357143
vt 0.642857 0.285714
vt 0.642857 0.428571
vt 0.946429 0.285714
vt 0.892857 -0.000000
vt 1.000000 0.285714
vt 0.946429 -0.000000
vt 0.142857 0.357143
vt 0.267857 0.303571
vt 0.285714 0.357143
vt -0.000000 0.428571
vt 0.785714 0.714286
vt 0.714286 0.357143
vt 0.696429 0.410714
vt 0.589286 0.410714
vt 0.589286 0.303571
vt 0.696429 0.303571
vt 1.000000 -0.000000
vt 0.267857 0.410714
vt 0.160714 0.410714
vt 0.160714 0.303571
vt 0.214286 0.285714
vn 1.000000 0.000000 0.000000
vn 0.000000 0.000000 1.000000
vn -1.000000 0.000000 -0.000000
vn 0.000000 0.000000 -1.000000
vn 0.000000 1.000000 0.000000
vn 0.923900 0.000000 -0.382700
vn -0.382700 0.000000 0.923900
vn 0.382700 0.000000 -0.923900
vn -0.923900 0.000000 0.382700
vn -0.382700 0.000000 -0.923900
vn -0.923900 0.000000 -0.382700
vn 0.923900 0.000000 0.382700
vn 0.382700 0.000000 0.923900
s off
f 4/1/1 3/2/1 1/3/1
f 8/4/2 7/5/2 3/2/2
f 6/6/3 5/7/3 7/5/3
f 2/8/4 1/9/4 5/7/4
f 6/6/5 8/10/5 4/11/5
f 12/1/1 11/2/1 9/3/1
f 16/4/2 15/5/2 11/2/2
f 14/6/3 13/7/3 15/5/3
f 10/8/4 9/9/4 13/7/4
f 16/10/5 12/11/5 10/8/5
f 20/1/1 19/2/1 17/3/1
f 24/4/2 23/5/2 19/2/2
f 22/6/3 21/7/3 23/5/3
f 18/8/4 17/9/4 21/7/4
f 22/6/5 24/10/5 20/11/5
f 28/1/1 27/2/1 25/3/1
f 32/4/2 31/5/2 27/2/2
f 30/6/3 29/7/3 31/5/3
f 26/8/4 25/9/4 29/7/4
f 32/10/5 28/11/5 26/8/5
f 34/12/2 36/13/2 35/14/2
f 39/14/4 40/13/4 38/15/4
f 42/16/1 44/17/1 43/13/1
f 47/13/3 48/17/3 46/18/3
f 52/19/1 51/20/1 49/21/1
f 56/22/2 55/23/2 51/20/2
f 54/12/3 53/24/3 55/23/3
f 50/25/4 49/21/4 53/26/4
f 56/27/5 52/28/5 50/12/5
f 84/29/6 86/30/6 85/3/6
f 60/31/7 62/32/7 61/33/7
f 82/34/8 84/29/8 83/35/8
f 62/32/9 64/36/9 63/37/9
f 80/38/10 82/34/10 81/39/10
f 64/36/11 66/40/11 65/41/11
f 78/42/11 80/38/11 79/43/11
f 66/40/10 68/44/10 67/45/10
f 86/46/12 88/47/12 87/48/12
f 76/49/9 78/42/9 77/50/9
f 68/44/8 70/51/8 69/52/8
f 88/47/13 57/53/13 58/54/13
f 57/53/7 76/49/7 75/55/7
f 70/51/6 72/46/6 71/56/6
f 72/57/5 68/58/5 60/59/5
f 74/60/13 60/31/13 59/61/13
f 72/62/12 74/60/12 73/63/12
f 86/64/5 80/65/5 78/66/5
f 91/14/4 92/13/4 90/12/4
f 94/15/2 96/13/2 95/14/2
f 99/13/3 100/17/3 98/16/3
f 102/18/1 104/17/1 103/13/1
f 2/30/1 4/1/1 1/3/1
f 4/1/2 8/4/2 3/2/2
f 8/4/3 6/6/3 7/5/3
f 6/6/4 2/8/4 5/7/4
f 2/8/5 6/6/5 4/11/5
f 10/30/1 12/1/1 9/3/1
f 12/1/2 16/4/2 11/2/2
f 16/4/3 14/6/3 15/5/3
f 14/6/4 10/8/4 13/7/4
f 14/6/5 16/10/5 10/8/5
f 18/30/1 20/1/1 17/3/1
f 20/1/2 24/4/2 19/2/2
f 24/4/3 22/6/3 23/5/3
f 22/6/4 18/8/4 21/7/4
f 18/8/5 22/6/5 20/11/5
f 26/30/1 28/1/1 25/3/1
f 28/1/2 32/4/2 27/2/2
f 32/4/3 30/6/3 31/5/3
f 30/6/4 26/8/4 29/7/4
f 30/6/5 32/10/5 26/8/5
f 33/24/2 34/12/2 35/14/2
f 37/67/4 39/14/4 38/15/4
f 41/12/1 42/16/1 43/13/1
f 45/15/3 47/13/3 46/18/3
f 50/25/1 52/19/1 49/21/1
f 52/19/2 56/22/2 51/20/2
f 56/22/3 54/12/3 55/23/3
f 54/68/4 50/25/4 53/26/4
f 54/22/5 56/27/5 50/12/5
f 83/35/6 84/29/6 85/3/6
f 59/61/7 60/31/7 61/33/7
f 81/39/8 82/34/8 83/35/8
f 61/33/9 62/32/9 63/37/9
f 79/43/10 80/38/10 81/39/10
f 63/37/11 64/36/11 65/41/11
f 77/50/11 78/42/11 79/43/11
f 65/41/10 66/40/10 67/45/10
f 85/56/12 86/46/12 87/48/12
f 75/55/9 76/49/9 77/50/9
f 67/45/8 68/44/8 69/52/8
f 87/48/13 88/47/13 58/54/13
f 58/54/7 57/53/7 75/55/7
f 69/52/6 70/51/6 71/56/6
f 64/69/5 62/70/5 60/59/5
f 60/59/5 74/71/5 72/57/5
f 72/57/5 70/72/5 68/58/5
f 68/58/5 66/73/5 64/69/5
f 64/69/5 60/59/5 68/58/5
f 73/63/13 74/60/13 59/61/13
f 71/74/12 72/62/12 73/63/12
f 78/66/5 76/75/5 57/14/5
f 57/14/5 88/76/5 86/64/5
f 86/64/5 84/77/5 82/78/5
f 82/78/5 80/65/5 86/64/5
f 78/66/5 57/14/5 86/64/5
f 89/24/4 91/14/4 90/12/4
f 93/67/2 94/15/2 95/14/2
f 97/12/3 99/13/3 98/16/3
f 101/15/1 102/18/1 103/13/1
