# Blender v2.76 (sub 0) OBJ File: 'soyuz_launcher_tower_base.blend'
# www.blender.org
o Cube.007_Cube
v -1.500000 0.000000 9.500000
v -1.500000 5.500000 9.500000
v -1.500000 0.000000 4.500000
v -1.500000 5.500000 4.500000
v 1.500000 0.000000 9.500000
v 1.500000 5.500000 9.500000
v 1.500000 0.000000 4.500000
v 1.500000 5.500000 4.500000
v -2.500000 0.000000 8.500000
v -2.500000 5.500000 8.500000
v -2.500000 0.000000 5.500000
v -2.500000 5.500000 5.500000
v 2.500000 0.000000 8.500000
v 2.500000 5.500000 8.500000
v 2.500000 0.000000 5.500000
v 2.500000 5.500000 5.500000
v -1.500000 5.500000 5.500000
v 1.500000 5.500000 5.500000
v -1.500000 5.000000 9.500000
v 1.500000 5.000000 9.500000
v -1.500000 3.000000 4.500000
v 1.500000 3.000000 4.500000
v -2.500000 3.000000 5.500000
v 2.500000 3.000000 5.500000
v -1.500000 5.000000 4.500000
v 1.500000 5.000000 4.500000
v -2.500000 5.000000 5.500000
v 2.500000 5.000000 5.500000
vt 0.062500 0.187500
vt 0.000000 0.187500
vt -0.000000 0.000000
vt 0.812500 0.187500
vt 0.812500 0.000000
vt 1.000000 0.000000
vt 0.750000 0.187500
vt 0.062500 0.312500
vt 0.250000 0.343750
vt 0.750000 0.312500
vt 0.562500 0.343750
vt 0.250000 0.656250
vt 0.000000 0.593750
vt 0.062500 0.343750
vt 0.312500 0.406250
vt 0.375000 0.593750
vt 0.312500 0.593750
vt 0.562500 0.593750
vt 0.562500 0.656250
vt 0.625000 0.406250
vt 0.312500 0.312500
vt 0.312500 -0.000000
vt 0.500000 0.000000
vt 0.500000 0.312500
vt 0.562500 0.000000
vt 0.312500 0.343750
vt 0.875000 0.343750
vt 0.875000 0.593750
vt 0.687500 0.593750
vt 0.906250 0.343750
vt 0.906250 0.593750
vt 0.656250 0.593750
vt 0.656250 0.343750
vt 0.687500 0.343750
vt -0.000000 0.343750
vt -0.000000 0.312500
vt 0.812500 0.312500
vt 1.000000 0.312500
vt 1.000000 0.343750
vt 0.812500 0.343750
vt 0.062500 -0.000000
vt 1.000000 0.187500
vt 0.750000 0.000000
vt 0.250000 0.000000
vt 0.750000 0.343750
vt 0.062500 0.656250
vt 0.000000 0.406250
vt 0.375000 0.656250
vt 0.375000 0.343750
vt 0.625000 0.593750
vt 0.500000 0.343750
vn -0.707100 0.000000 -0.707100
vn 0.000000 0.000000 -1.000000
vn 0.707100 0.000000 -0.707100
vn -1.000000 0.000000 0.000000
vn 1.000000 0.000000 0.000000
vn 0.000000 -1.000000 0.000000
vn 0.000000 1.000000 0.000000
vn 0.000000 0.000000 1.000000
vn 0.707100 0.000000 0.707100
vn -0.707100 0.000000 0.707100
vn 0.000000 0.992300 0.124000
s off
f 23/1/1 21/2/1 3/3/1
f 22/4/2 7/5/2 3/6/2
f 7/5/3 22/4/3 24/7/3
f 27/8/4 23/1/4 10/9/4
f 28/10/5 14/11/5 24/7/5
f 5/12/6 9/13/6 3/14/6
f 10/15/7 17/16/7 12/17/7
f 17/16/7 18/18/7 8/19/7
f 18/18/7 6/11/7 14/20/7
f 19/21/8 1/22/8 5/23/8
f 14/11/9 20/24/9 13/25/9
f 19/21/10 2/26/10 10/9/10
f 20/27/11 18/28/11 17/29/11
f 6/30/4 18/31/4 20/27/4
f 17/32/5 2/33/5 19/34/5
f 4/35/1 25/36/1 27/8/1
f 26/37/2 25/38/2 4/39/2
f 28/10/3 26/37/3 8/40/3
f 11/41/1 23/1/1 3/3/1
f 21/42/2 22/4/2 3/6/2
f 15/43/3 7/5/3 24/7/3
f 9/44/4 10/9/4 23/1/4
f 12/14/4 27/8/4 10/9/4
f 23/1/4 11/41/4 9/44/4
f 15/43/5 24/7/5 13/25/5
f 28/10/5 16/45/5 14/11/5
f 14/11/5 13/25/5 24/7/5
f 3/14/6 7/9/6 15/15/6
f 15/15/6 13/17/6 5/12/6
f 5/12/6 1/46/6 9/13/6
f 9/13/6 11/47/6 3/14/6
f 3/14/6 15/15/6 5/12/6
f 4/48/7 12/17/7 17/16/7
f 10/15/7 2/49/7 17/16/7
f 4/48/7 17/16/7 8/19/7
f 14/20/7 16/50/7 18/18/7
f 8/19/7 18/18/7 16/50/7
f 20/24/8 19/21/8 5/23/8
f 5/23/9 13/25/9 20/24/9
f 14/11/9 6/51/9 20/24/9
f 10/9/10 9/44/10 19/21/10
f 1/22/10 19/21/10 9/44/10
f 19/34/11 20/27/11 17/29/11
f 12/14/1 4/35/1 27/8/1
f 8/40/2 26/37/2 4/39/2
f 16/45/3 28/10/3 8/40/3
