# Blender v2.76 (sub 0) OBJ File: 'mining_laser.blend'
# www.blender.org
o Laser
v -0.250000 -1.500000 0.250000
v 0.250000 -0.500000 -0.125000
v -0.250000 -1.500000 -0.250000
v 0.250000 -0.500000 0.125000
v 0.250000 -1.500000 0.250000
v -0.250000 -0.500000 -0.125000
v 0.250000 -1.500000 -0.250000
v -0.250000 -0.500000 0.125000
v -0.250000 -0.750000 0.250000
v -0.250000 -0.750000 -0.250000
v 0.250000 -0.750000 0.250000
v 0.250000 -0.750000 -0.250000
v -0.062500 -0.750000 0.250000
v -0.062500 -0.750000 -0.250000
v 0.062500 -0.750000 0.250000
v 0.062500 -0.750000 -0.250000
v -0.062500 -0.500000 0.125000
v -0.062500 -0.500000 -0.125000
v 0.062500 -0.500000 0.125000
v 0.062500 -0.500000 -0.125000
v -0.062500 -1.250000 0.250000
v -0.062500 -1.250000 -0.250000
v 0.062500 -1.250000 0.250000
v 0.062500 -1.250000 -0.250000
v 0.312500 -1.000000 0.250000
v 0.312500 -2.250000 0.250000
v -0.000000 -2.500000 -0.125000
v -0.000000 -1.500000 -0.125000
v 0.088388 -2.500000 -0.088388
v 0.088388 -1.500000 -0.088388
v 0.125000 -2.500000 0.000000
v 0.125000 -1.500000 0.000000
v 0.088388 -2.500000 0.088388
v 0.088388 -1.500000 0.088388
v -0.000000 -2.500000 0.125000
v -0.000000 -1.500000 0.125000
v -0.088388 -2.500000 0.088388
v -0.088388 -1.500000 0.088388
v -0.125000 -2.500000 -0.000000
v -0.125000 -1.500000 -0.000000
v -0.088388 -2.500000 -0.088388
v -0.088388 -1.500000 -0.088388
v 0.312500 -2.250000 -0.250000
v 0.312500 -1.000000 -0.250000
v 0.375000 -2.250000 0.250000
v 0.375000 -1.000000 0.250000
v 0.375000 -2.250000 -0.250000
v 0.375000 -1.000000 -0.250000
v -0.375000 -1.000000 0.250000
v -0.375000 -2.250000 0.250000
v -0.375000 -2.250000 -0.250000
v -0.375000 -1.000000 -0.250000
v -0.312500 -2.250000 0.250000
v -0.312500 -1.000000 0.250000
v -0.312500 -2.250000 -0.250000
v -0.312500 -1.000000 -0.250000
v 0.125000 -1.250000 -0.312500
v 0.125000 -2.250000 -0.312500
v -0.125000 -2.250000 -0.312500
v -0.125000 -1.250000 -0.312500
v 0.125000 -2.250000 -0.375000
v 0.125000 -1.250000 -0.375000
v -0.125000 -2.250000 -0.375000
v -0.125000 -1.250000 -0.375000
v 0.125000 -1.250000 0.375000
v 0.125000 -2.250000 0.375000
v -0.125000 -2.250000 0.375000
v -0.125000 -1.250000 0.375000
v 0.125000 -2.250000 0.312500
v 0.125000 -1.250000 0.312500
v -0.125000 -2.250000 0.312500
v -0.125000 -1.250000 0.312500
v 0.031250 -1.500000 -0.312500
v 0.031250 -2.125000 -0.312500
v -0.031250 -2.125000 -0.312500
v -0.031250 -1.500000 -0.312500
v -0.031250 -2.125000 -0.112500
v 0.031250 -2.125000 -0.112500
v 0.031250 -1.500000 -0.112500
v -0.031250 -1.500000 -0.112500
v -0.312500 -1.500000 -0.031250
v -0.312500 -2.125000 -0.031250
v -0.312500 -2.125000 0.031250
v -0.312500 -1.500000 0.031250
v -0.112500 -2.125000 0.031250
v -0.112500 -2.125000 -0.031250
v -0.112500 -1.500000 -0.031250
v -0.112500 -1.500000 0.031250
v -0.031250 -1.500000 0.312500
v -0.031250 -2.125000 0.312500
v 0.031250 -2.125000 0.312500
v 0.031250 -1.500000 0.312500
v 0.031250 -2.125000 0.112500
v -0.031250 -2.125000 0.112500
v -0.031250 -1.500000 0.112500
v 0.031250 -1.500000 0.112500
v 0.312500 -1.500000 0.031250
v 0.312500 -2.125000 0.031250
v 0.312500 -2.125000 -0.031250
v 0.312500 -1.500000 -0.031250
v 0.112500 -2.125000 -0.031250
v 0.112500 -2.125000 0.031250
v 0.112500 -1.500000 0.031250
v 0.112500 -1.500000 -0.031250
vt 0.166667 0.904762
vt 0.166667 1.000000
vt 0.104167 1.000000
vt 0.500000 0.809524
vt 0.666667 0.809524
vt 0.625000 0.904762
vt -0.000000 1.000000
vt 0.000000 0.904762
vt 0.062500 0.904762
vt 0.541667 0.904762
vt 0.666667 0.523810
vt 0.833333 0.523810
vt 0.833333 0.714286
vt 0.166667 0.809524
vt 0.333333 0.809524
vt 0.291667 0.904762
vt 0.208333 0.904762
vt 0.166667 0.619048
vt 0.333333 0.619048
vt 0.062500 0.619048
vt 0.104167 0.619048
vt 0.104167 0.809524
vt 0.500000 0.619048
vt 0.666667 0.619048
vt 0.333333 0.523810
vt 0.437500 0.904762
vt 0.437500 0.809524
vt -0.000000 0.809524
vt 0.062500 0.809524
vt 0.333333 0.904762
vt 0.395833 0.809524
vt 0.395833 0.619048
vt 0.437500 0.619048
vt 0.500000 0.523810
vt 0.000000 0.523810
vt 0.166667 0.523810
vt 0.375000 0.404762
vt 0.375000 0.428571
vt 0.458333 0.428571
vt 0.166667 0.500000
vt 0.916667 0.380952
vt 0.875000 0.380952
vt 0.875000 0.000000
vt 0.375000 0.000000
vt 0.375000 0.023810
vt 0.458333 0.023810
vt 0.166667 0.000000
vt 0.166667 0.023810
vt -0.000000 0.023810
vt 0.833333 0.380952
vt 0.833333 0.000000
vt 0.187500 0.500000
vt 0.187500 0.023810
vt 0.354167 0.500000
vt 0.354167 0.023810
vt 0.791667 0.380952
vt 0.791667 0.000000
vt -0.000000 0.500000
vt 0.750000 0.380952
vt 0.750000 0.000000
vt 0.375000 0.500000
vt 0.708333 0.380952
vt 0.708333 0.000000
vt -0.000000 0.000000
vt 0.666667 0.380952
vt 0.666667 0.000000
vt 0.958333 0.380952
vt 0.916667 0.000000
vt 1.000000 0.380952
vt 0.958333 0.000000
vt 0.608693 0.378325
vt 0.585632 0.314697
vt 0.641307 0.288342
vt 0.562500 0.404762
vt 0.562500 0.023810
vt 0.583333 0.023810
vt 0.479167 0.404762
vt 0.479167 0.023810
vt 0.458333 0.404762
vt 0.583333 0.404762
vt 0.458333 0.000000
vt 0.666667 0.261905
vt 0.583333 0.261905
vt 0.666667 0.285714
vt 0.583333 0.285714
vt 0.666667 0.023810
vt 0.104167 0.904762
vt 0.062500 1.000000
vt 0.666667 0.714286
vt 0.500000 0.904762
vt 0.395833 0.904762
vt 1.000000 0.000000
vt 0.664368 0.314697
vt 0.664368 0.351969
vt 0.641307 0.378325
vt 0.585632 0.351969
vt 0.608693 0.288342
vn 0.000000 1.000000 0.000000
vn -1.000000 0.000000 0.000000
vn 1.000000 0.000000 0.000000
vn 0.000000 -1.000000 0.000000
vn 0.000000 0.447200 -0.894400
vn 0.000000 0.447200 0.894400
vn 0.000000 0.000000 -1.000000
vn 0.000000 0.000000 1.000000
vn 0.382700 0.000000 -0.923900
vn 0.923900 0.000000 -0.382700
vn 0.923900 0.000000 0.382700
vn 0.382700 0.000000 0.923900
vn -0.382700 0.000000 0.923900
vn -0.923900 0.000000 0.382700
vn -0.382700 0.000000 -0.923900
vn -0.923900 0.000000 -0.382700
s off
f 4/1/1 2/2/1 20/3/1
f 10/4/2 9/5/2 8/6/2
f 6/7/1 8/8/1 17/9/1
f 17/10/3 13/4/3 14/5/3
f 3/11/4 7/12/4 5/13/4
f 11/14/3 12/15/3 2/16/3
f 20/17/2 16/14/2 15/15/2
f 16/14/2 24/18/2 23/19/2
f 21/20/1 23/21/1 24/22/1
f 13/4/3 21/23/3 22/24/3
f 7/25/3 12/15/3 11/14/3
f 1/11/2 9/5/2 10/4/2
f 18/26/5 14/27/5 10/4/5
f 9/28/6 13/29/6 17/9/6
f 15/22/6 11/14/6 4/1/6
f 2/30/5 12/15/5 16/31/5
f 12/15/7 7/25/7 24/32/7
f 22/33/7 3/34/7 10/4/7
f 9/28/8 1/35/8 21/20/8
f 23/21/8 5/36/8 11/14/8
f 23/21/8 21/20/8 1/35/8
f 3/34/7 22/33/7 24/32/7
f 64/37/1 60/38/1 57/39/1
f 48/40/1 44/36/1 25/35/1
f 28/41/9 30/42/9 29/43/9
f 59/44/4 63/45/4 61/46/4
f 43/47/4 47/48/4 45/49/4
f 30/42/10 32/50/10 31/51/10
f 56/52/7 55/53/7 51/48/7
f 25/54/8 26/55/8 45/45/8
f 32/50/11 34/56/11 33/57/11
f 54/54/3 53/55/3 55/53/3
f 46/58/3 45/49/3 47/48/3
f 34/56/12 36/59/12 35/60/12
f 49/61/8 50/45/8 53/55/8
f 48/40/7 47/48/7 43/53/7
f 36/59/13 38/62/13 37/63/13
f 51/48/4 55/47/4 53/64/4
f 44/52/2 43/53/2 26/55/2
f 38/62/14 40/65/14 39/66/14
f 42/67/15 28/41/15 27/68/15
f 40/69/16 42/67/16 41/70/16
f 52/40/2 51/48/2 50/49/2
f 56/36/1 52/40/1 49/58/1
f 33/71/4 37/72/4 41/73/4
f 72/74/2 71/75/2 67/76/2
f 57/77/3 58/78/3 61/46/3
f 70/77/7 69/78/7 71/75/7
f 62/79/7 61/46/7 63/45/7
f 65/79/3 66/46/3 69/78/3
f 64/80/2 63/76/2 59/75/2
f 67/45/4 71/44/4 69/81/4
f 60/74/8 59/75/8 58/78/8
f 68/37/8 67/45/8 66/46/8
f 72/38/1 68/37/1 65/79/1
f 81/82/7 87/83/7 86/76/7
f 84/83/1 88/82/1 87/84/1
f 73/82/3 79/83/3 78/76/3
f 73/82/1 76/84/1 80/85/1
f 75/76/2 77/86/2 80/82/2
f 74/84/4 78/85/4 77/83/4
f 83/76/8 85/86/8 88/82/8
f 82/83/4 86/82/4 85/84/4
f 89/82/2 95/83/2 94/76/2
f 92/83/1 96/82/1 95/84/1
f 91/76/3 93/86/3 96/82/3
f 91/85/4 90/83/4 94/82/4
f 97/82/8 103/83/8 102/76/8
f 100/84/1 104/85/1 103/83/1
f 99/76/7 101/86/7 104/82/7
f 98/84/4 102/85/4 101/83/4
f 19/87/1 4/1/1 20/3/1
f 6/10/2 10/4/2 8/6/2
f 18/88/1 6/7/1 17/9/1
f 18/6/3 17/10/3 14/5/3
f 1/89/4 3/11/4 5/13/4
f 4/17/3 11/14/3 2/16/3
f 19/16/2 20/17/2 15/15/2
f 15/15/2 16/14/2 23/19/2
f 22/29/1 21/20/1 24/22/1
f 14/5/3 13/4/3 22/24/3
f 5/36/3 7/25/3 11/14/3
f 3/34/2 1/11/2 10/4/2
f 6/90/5 18/26/5 10/4/5
f 8/8/6 9/28/6 17/9/6
f 19/87/6 15/22/6 4/1/6
f 20/91/5 2/30/5 16/31/5
f 16/31/7 12/15/7 24/32/7
f 14/27/7 22/33/7 10/4/7
f 13/29/8 9/28/8 21/20/8
f 15/22/8 23/21/8 11/14/8
f 5/36/8 23/21/8 1/35/8
f 7/25/7 3/34/7 24/32/7
f 62/79/1 64/37/1 57/39/1
f 46/58/1 48/40/1 25/35/1
f 27/68/9 28/41/9 29/43/9
f 58/81/4 59/44/4 61/46/4
f 26/64/4 43/47/4 45/49/4
f 29/43/10 30/42/10 31/51/10
f 52/40/7 56/52/7 51/48/7
f 46/61/8 25/54/8 45/45/8
f 31/51/11 32/50/11 33/57/11
f 56/52/3 54/54/3 55/53/3
f 48/40/3 46/58/3 47/48/3
f 33/57/12 34/56/12 35/60/12
f 54/54/8 49/61/8 53/55/8
f 44/52/7 48/40/7 43/53/7
f 35/60/13 36/59/13 37/63/13
f 50/49/4 51/48/4 53/64/4
f 25/54/2 44/52/2 26/55/2
f 37/63/14 38/62/14 39/66/14
f 41/70/15 42/67/15 27/68/15
f 39/92/16 40/69/16 41/70/16
f 49/58/2 52/40/2 50/49/2
f 54/35/1 56/36/1 49/58/1
f 41/73/4 27/93/4 29/94/4
f 29/94/4 31/95/4 41/73/4
f 33/71/4 35/96/4 37/72/4
f 37/72/4 39/97/4 41/73/4
f 41/73/4 31/95/4 33/71/4
f 68/80/2 72/74/2 67/76/2
f 62/79/3 57/77/3 61/46/3
f 72/74/7 70/77/7 71/75/7
f 64/37/7 62/79/7 63/45/7
f 70/77/3 65/79/3 69/78/3
f 60/74/2 64/80/2 59/75/2
f 66/46/4 67/45/4 69/81/4
f 57/77/8 60/74/8 58/78/8
f 65/79/8 68/37/8 66/46/8
f 70/39/1 72/38/1 65/79/1
f 82/86/7 81/82/7 86/76/7
f 81/85/1 84/83/1 87/84/1
f 74/86/3 73/82/3 78/76/3
f 79/83/1 73/82/1 80/85/1
f 76/83/2 75/76/2 80/82/2
f 75/82/4 74/84/4 77/83/4
f 84/83/8 83/76/8 88/82/8
f 83/85/4 82/83/4 85/84/4
f 90/86/2 89/82/2 94/76/2
f 89/85/1 92/83/1 95/84/1
f 92/83/3 91/76/3 96/82/3
f 93/84/4 91/85/4 94/82/4
f 98/86/8 97/82/8 102/76/8
f 97/82/1 100/84/1 103/83/1
f 100/83/7 99/76/7 104/82/7
f 99/82/4 98/84/4 101/83/4
o Pivot
v 0.000000 -0.125000 -0.500000
v 0.000000 0.000000 -0.500000
v 0.191342 -0.125000 -0.461940
v 0.191342 0.000000 -0.461940
v 0.353553 -0.125000 -0.353553
v 0.353553 0.000000 -0.353553
v 0.461940 -0.125000 -0.191342
v 0.461940 0.000000 -0.191342
v 0.500000 -0.125000 0.000000
v 0.500000 0.000000 0.000000
v 0.461940 -0.125000 0.191342
v 0.461940 0.000000 0.191342
v 0.353553 -0.125000 0.353553
v 0.353553 0.000000 0.353553
v 0.191342 -0.125000 0.461940
v 0.191342 0.000000 0.461940
v 0.000000 -0.125000 0.500000
v 0.000000 0.000000 0.500000
v -0.191342 -0.125000 0.461940
v -0.191342 0.000000 0.461940
v -0.353553 -0.125000 0.353554
v -0.353553 0.000000 0.353554
v -0.461940 -0.125000 0.191342
v -0.461940 0.000000 0.191342
v -0.500000 -0.125000 -0.000000
v -0.500000 0.000000 -0.000000
v -0.461940 -0.125000 -0.191342
v -0.461940 0.000000 -0.191342
v -0.353553 -0.125000 -0.353554
v -0.353553 0.000000 -0.353554
v -0.191341 -0.125000 -0.461940
v -0.191341 0.000000 -0.461940
v -0.062500 -1.000000 -0.250000
v 0.062500 -1.000000 -0.250000
v -0.062500 -1.176777 -0.176777
v 0.062500 -1.176777 -0.176777
v -0.062500 -1.250000 0.000000
v 0.062500 -1.250000 0.000000
v -0.062500 -1.176777 0.176777
v 0.062500 -1.176777 0.176777
v -0.062500 -1.000000 0.250000
v 0.062500 -1.000000 0.250000
v 0.062500 -0.500000 0.250000
v -0.062500 -0.500000 0.250000
v 0.062500 -0.500000 -0.250000
v -0.062500 -0.500000 -0.250000
v 0.000000 -0.125000 -0.312500
v -0.220971 -0.125000 -0.220971
v -0.312500 -0.125000 0.000000
v -0.220971 -0.125000 0.220971
v 0.000000 -0.125000 0.312500
v 0.220971 -0.125000 0.220971
v 0.312500 -0.125000 -0.000000
v 0.220971 -0.125000 -0.220971
v -0.220971 -0.500000 -0.220971
v -0.000000 -0.500000 -0.312500
v -0.312500 -0.500000 0.000000
v -0.220971 -0.500000 0.220971
v 0.000000 -0.500000 0.312500
v 0.220971 -0.500000 0.220971
v 0.312500 -0.500000 -0.000000
v 0.220971 -0.500000 -0.220971
vt 0.750000 0.100000
vt 0.687500 0.100000
vt 0.687500 0.000000
vt 0.625000 0.100000
vt 0.625000 0.000000
vt 0.562500 0.100000
vt 0.562500 0.000000
vt 0.500000 0.100000
vt 0.500000 0.000000
vt 0.437500 0.100000
vt 0.437500 0.000000
vt 0.375000 0.100000
vt 0.375000 0.000000
vt 0.312500 0.100000
vt 0.312500 0.000000
vt 0.250000 0.100000
vt 0.250000 0.000000
vt 0.187500 0.100000
vt 0.187500 0.000000
vt 0.125000 0.100000
vt 0.125000 0.000000
vt 0.062500 0.100000
vt 0.062500 0.000000
vt 0.000000 0.100000
vt 0.000000 0.000000
vt 1.000000 0.100000
vt 0.937500 0.100000
vt 0.937500 0.000000
vt 0.875000 0.100000
vt 0.875000 0.000000
vt 0.812500 0.100000
vt 0.750000 0.000000
vt 0.812500 0.000000
vt 0.134245 0.891194
vt 0.003669 0.422187
vt 0.329664 0.577813
vt 0.791667 0.800000
vt 0.791667 0.900000
vt 0.750000 0.900000
vt 0.791667 1.000000
vt 0.750000 1.000000
vt 0.750000 0.800000
vt 0.750000 0.400000
vt 0.791667 0.400000
vt 0.729167 0.950000
vt 0.583333 0.800000
vt 0.578862 0.580181
vt 0.408409 0.989268
vt 0.337805 0.819819
vt 0.500000 0.400000
vt 0.583333 0.100000
vt 0.333333 0.400000
vt 0.333333 0.100000
vt 0.416667 0.100000
vt 0.833333 0.400000
vt 0.833333 0.100000
vt 0.916667 0.100000
vt 0.583333 0.400000
vt 0.666667 0.100000
vt 0.416667 0.400000
vt 0.916667 0.400000
vt 0.666667 0.400000
vt 1.000000 0.000000
vt 0.199089 0.108806
vt 0.258997 0.168362
vt 0.304849 0.278406
vt 0.329664 0.422187
vt 0.304849 0.721594
vt 0.258997 0.831638
vt 0.199089 0.891194
vt 0.074336 0.831638
vt 0.028484 0.721594
vt 0.003669 0.577813
vt 0.028484 0.278406
vt 0.074336 0.168362
vt 0.134244 0.108806
vt 0.666667 1.000000
vt 0.604167 0.950000
vt 0.337805 0.580181
vt 0.408409 0.410732
vt 0.508258 0.410732
vt 0.578862 0.819819
vt 0.508258 0.989268
vt 1.000000 0.400000
vn 0.195100 0.000000 -0.980800
vn 0.555600 0.000000 -0.831500
vn 0.831500 0.000000 -0.555600
vn 0.980800 0.000000 -0.195100
vn 0.980800 0.000000 0.195100
vn 0.831500 0.000000 0.555600
vn 0.555600 0.000000 0.831500
vn 0.195100 0.000000 0.980800
vn -0.195100 0.000000 0.980800
vn -0.555600 0.000000 0.831500
vn -0.831500 0.000000 0.555600
vn -0.980800 0.000000 0.195100
vn -0.980800 0.000000 -0.195100
vn -0.831500 0.000000 -0.555600
vn -0.195100 0.000000 -0.980800
vn -0.555600 0.000000 -0.831500
vn 0.000000 -1.000000 0.000000
vn 0.000000 -0.382700 -0.923900
vn 0.000000 -0.923900 -0.382700
vn 0.000000 -0.923900 0.382700
vn 0.000000 -0.382700 0.923900
vn 0.000000 0.000000 -1.000000
vn 0.000000 0.000000 1.000000
vn -1.000000 -0.000000 0.000000
vn 1.000000 0.000000 0.000000
vn 0.382700 -0.000000 0.923900
vn -0.923900 0.000000 0.382700
vn -0.382700 0.000000 -0.923900
vn 0.382700 0.000000 -0.923900
vn 0.923900 0.000000 0.382700
vn -0.382700 0.000000 0.923900
vn -0.923900 0.000000 -0.382700
vn 0.923900 0.000000 -0.382700
s off
f 106/98/17 108/99/17 107/100/17
f 108/99/18 110/101/18 109/102/18
f 110/101/19 112/103/19 111/104/19
f 112/103/20 114/105/20 113/106/20
f 114/105/21 116/107/21 115/108/21
f 116/107/22 118/109/22 117/110/22
f 118/109/23 120/111/23 119/112/23
f 120/111/24 122/113/24 121/114/24
f 122/113/25 124/115/25 123/116/25
f 124/115/26 126/117/26 125/118/26
f 126/117/27 128/119/27 127/120/27
f 128/119/28 130/121/28 129/122/28
f 130/123/29 132/124/29 131/125/29
f 132/124/30 134/126/30 133/127/30
f 136/128/31 106/98/31 105/129/31
f 134/126/32 136/128/32 135/130/32
f 119/131/33 127/132/33 111/133/33
f 138/134/34 140/135/34 139/136/34
f 140/135/35 142/137/35 141/138/35
f 142/138/36 144/136/36 143/135/36
f 144/136/37 146/139/37 145/134/37
f 137/139/38 150/140/38 149/141/38
f 146/139/39 147/140/39 148/141/39
f 139/142/40 145/143/40 137/139/40
f 138/143/41 146/139/41 144/142/41
f 165/144/33 162/145/33 161/146/33
f 155/147/42 163/105/42 164/148/42
f 153/149/43 161/150/43 162/151/43
f 151/152/44 160/153/44 159/154/44
f 158/140/45 166/98/45 160/153/45
f 156/155/46 164/148/46 165/156/46
f 154/157/47 162/151/47 163/105/47
f 152/158/48 159/154/48 161/123/48
f 157/159/49 165/156/49 166/98/49
f 105/129/17 106/98/17 107/100/17
f 107/100/18 108/99/18 109/102/18
f 109/102/19 110/101/19 111/104/19
f 111/104/20 112/103/20 113/106/20
f 113/106/21 114/105/21 115/108/21
f 115/108/22 116/107/22 117/110/22
f 117/110/23 118/109/23 119/112/23
f 119/112/24 120/111/24 121/114/24
f 121/114/25 122/113/25 123/116/25
f 123/116/26 124/115/26 125/118/26
f 125/118/27 126/117/27 127/120/27
f 127/120/28 128/119/28 129/122/28
f 129/160/29 130/123/29 131/125/29
f 131/125/30 132/124/30 133/127/30
f 135/130/31 136/128/31 105/129/31
f 133/127/32 134/126/32 135/130/32
f 135/161/33 105/162/33 107/163/33
f 107/163/33 109/164/33 135/161/33
f 111/133/33 113/165/33 115/166/33
f 115/166/33 117/167/33 111/133/33
f 119/131/33 121/168/33 127/132/33
f 123/169/33 125/170/33 127/132/33
f 127/132/33 129/171/33 131/172/33
f 131/172/33 133/173/33 135/161/33
f 135/161/33 109/164/33 111/133/33
f 111/133/33 117/167/33 119/131/33
f 121/168/33 123/169/33 127/132/33
f 127/132/33 131/172/33 135/161/33
f 135/161/33 111/133/33 127/132/33
f 137/139/34 138/134/34 139/136/34
f 139/136/35 140/135/35 141/138/35
f 141/137/36 142/138/36 143/135/36
f 143/135/37 144/136/37 145/134/37
f 138/134/38 137/139/38 149/141/38
f 145/134/39 146/139/39 148/141/39
f 150/140/40 137/139/40 148/155/40
f 139/142/40 141/174/40 143/175/40
f 143/175/40 145/143/40 139/142/40
f 148/155/40 137/139/40 145/143/40
f 142/174/41 140/175/41 138/143/41
f 138/143/41 149/155/41 147/140/41
f 147/140/41 146/139/41 138/143/41
f 144/142/41 142/174/41 138/143/41
f 161/146/33 159/176/33 160/177/33
f 160/177/33 166/178/33 161/146/33
f 165/144/33 164/179/33 163/180/33
f 163/180/33 162/145/33 165/144/33
f 161/146/33 166/178/33 165/144/33
f 156/155/42 155/147/42 164/148/42
f 154/157/43 153/149/43 162/151/43
f 152/158/44 151/152/44 159/154/44
f 151/152/45 158/140/45 160/153/45
f 157/159/46 156/155/46 165/156/46
f 155/147/47 154/157/47 163/105/47
f 153/181/48 152/158/48 161/123/48
f 158/140/49 157/159/49 166/98/49
o Base
v -1.500000 3.000000 0.500000
v -1.500000 3.000000 -0.500000
v -1.500000 0.000000 -0.500000
v -1.500000 0.000000 0.500000
v -0.500000 3.000000 -1.500000
v 0.500000 3.000000 -1.500000
v 0.500000 0.000000 -1.500000
v -0.500000 0.000000 -1.500000
v 1.500000 3.000000 -0.500000
v 1.500000 3.000000 0.500000
v 1.500000 0.000000 0.500000
v 1.500000 0.000000 -0.500000
v 0.500000 3.000000 1.500000
v -0.500000 3.000000 1.500000
v -0.500000 0.000000 1.500000
v 0.500000 0.000000 1.500000
v -1.000000 3.000000 -0.500000
v -1.000000 3.000000 0.500000
v -1.000000 0.000000 -0.500000
v -1.000000 0.000000 0.500000
v 0.500000 3.000000 -1.000000
v -0.500000 3.000000 -1.000000
v 0.500000 0.000000 -1.000000
v -0.500000 0.000000 -1.000000
v 1.000000 3.000000 0.500000
v 1.000000 3.000000 -0.500000
v 1.000000 0.000000 0.500000
v 1.000000 0.000000 -0.500000
v -0.500000 3.000000 1.000000
v 0.500000 3.000000 1.000000
v -0.500000 0.000000 1.000000
v 0.500000 0.000000 1.000000
vt 0.166667 0.583333
vt 0.416667 0.666667
vt 0.333333 0.916667
vt 0.083333 0.500000
vt 0.000000 0.500000
vt 0.000000 -0.000000
vt 0.166667 0.500000
vt 0.166667 -0.000000
vt 0.333333 -0.000000
vt 0.333333 1.000000
vt 0.166667 1.000000
vt 0.166667 0.916667
vt 0.666667 0.500000
vt 0.833333 0.500000
vt 0.833333 0.583333
vt 0.333333 0.500000
vt 0.416667 -0.000000
vt 0.500000 0.666667
vt 0.500000 0.833333
vt 0.416667 0.833333
vt 1.000000 0.666667
vt 1.000000 0.833333
vt 0.916667 0.833333
vt 0.333333 0.583333
vt 0.833333 1.000000
vt 0.666667 1.000000
vt 0.666667 0.916667
vt -0.000000 0.833333
vt -0.000000 0.666667
vt 0.083333 0.666667
vt 0.583333 0.666667
vt 0.083333 -0.000000
vt 0.083333 0.833333
vt 0.666667 0.583333
vt 0.416667 0.500000
vt 0.916667 0.666667
vt 0.833333 0.916667
vt 0.583333 0.833333
vn 0.000000 1.000000 0.000000
vn -0.707100 0.000000 -0.707100
vn -1.000000 0.000000 0.000000
vn 0.000000 0.000000 -1.000000
vn 0.000000 -1.000000 0.000000
vn 0.000000 0.000000 1.000000
vn 1.000000 0.000000 0.000000
vn 0.707100 0.000000 0.707100
vn -0.707100 0.000000 0.707100
vn 0.707100 0.000000 -0.707100
s off
f 191/182/50 187/183/50 183/184/50
f 183/185/51 188/186/51 190/187/51
f 168/188/52 169/189/52 170/190/52
f 168/191/50 167/192/50 184/193/50
f 169/189/53 168/188/53 183/185/53
f 170/194/54 169/195/54 185/196/54
f 167/197/55 170/190/55 186/198/55
f 172/188/53 173/189/53 174/190/53
f 172/199/50 171/200/50 188/201/50
f 173/189/56 172/188/56 187/185/56
f 174/202/54 173/203/54 189/204/54
f 171/197/52 174/190/52 190/198/52
f 176/188/56 177/189/56 178/190/56
f 176/188/50 175/197/50 192/205/50
f 177/189/55 176/188/55 191/185/55
f 178/206/54 177/207/54 193/208/54
f 175/197/53 178/190/53 194/198/53
f 180/188/55 181/189/55 182/190/55
f 180/209/50 179/210/50 196/211/50
f 181/189/52 180/188/52 195/185/52
f 182/200/54 181/199/54 197/212/54
f 179/197/56 182/190/56 198/198/56
f 198/187/57 193/213/57 191/185/57
f 189/204/54 193/208/54 197/212/54
f 186/187/58 197/213/58 195/185/58
f 194/187/59 189/213/59 187/185/59
f 183/184/50 184/193/50 195/214/50
f 195/214/50 196/211/50 191/182/50
f 191/182/50 192/205/50 187/183/50
f 187/183/50 188/201/50 183/184/50
f 183/184/50 195/214/50 191/182/50
f 185/213/51 183/185/51 190/187/51
f 167/197/52 168/188/52 170/190/52
f 183/184/50 168/191/50 184/193/50
f 185/213/53 169/189/53 183/185/53
f 186/215/54 170/194/54 185/196/54
f 184/216/55 167/197/55 186/198/55
f 171/197/53 172/188/53 174/190/53
f 187/183/50 172/199/50 188/201/50
f 189/213/56 173/189/56 187/185/56
f 190/217/54 174/202/54 189/204/54
f 188/216/52 171/197/52 190/198/52
f 175/197/56 176/188/56 178/190/56
f 191/182/50 176/188/50 192/205/50
f 193/213/55 177/189/55 191/185/55
f 194/218/54 178/206/54 193/208/54
f 192/216/53 175/197/53 194/198/53
f 179/197/55 180/188/55 182/190/55
f 195/214/50 180/209/50 196/211/50
f 197/213/52 181/189/52 195/185/52
f 198/219/54 182/200/54 197/212/54
f 196/216/56 179/197/56 198/198/56
f 196/186/57 198/187/57 191/185/57
f 197/212/54 186/215/54 185/196/54
f 185/196/54 190/217/54 189/204/54
f 189/204/54 194/218/54 193/208/54
f 193/208/54 198/219/54 197/212/54
f 197/212/54 185/196/54 189/204/54
f 184/186/58 186/187/58 195/185/58
f 192/186/59 194/187/59 187/185/59
