# Blender v2.76 (sub 0) OBJ File: 'mp_f_10.blend'
# www.blender.org
o Cylinder
v 0.000000 0.000000 -0.500000
v 0.000000 4.000000 -0.500000
v 0.250000 0.000000 -0.433013
v 0.250000 4.000000 -0.433013
v 0.433013 0.000000 -0.250000
v 0.433013 4.000000 -0.250000
v 0.500000 0.000000 0.000000
v 0.500000 4.000000 0.000000
v 0.433013 0.000000 0.250000
v 0.433013 4.000000 0.250000
v 0.250000 0.000000 0.433013
v 0.250000 4.000000 0.433013
v 0.000000 0.000000 0.500000
v 0.000000 4.000000 0.500000
v -0.250000 0.000000 0.433013
v -0.250000 4.000000 0.433013
v -0.433013 0.000000 0.250000
v -0.433013 4.000000 0.250000
v -0.500000 0.000000 0.000000
v -0.500000 4.000000 0.000000
v -0.433013 0.000000 -0.250000
v -0.433013 4.000000 -0.250000
v -0.250000 0.000000 -0.433013
v -0.250000 4.000000 -0.433013
vt 0.765625 0.312500
vt 0.875000 0.500000
vt 0.984375 0.312500
vt 0.875000 0.000000
vt 0.875000 0.250000
vt 0.984375 0.187500
vt 0.937500 0.265625
vt 0.812500 0.265625
vt 0.750000 0.375000
vt 0.765625 0.437500
vt 0.812500 0.484375
vt 0.937500 0.484375
vt 0.984375 0.437500
vt 1.000000 0.375000
vt 1.000000 0.125000
vt 0.984375 0.062500
vt 0.937500 0.015625
vt 0.812500 0.015625
vt 0.765625 0.062500
vt 0.750000 0.125000
vt 0.765625 0.187500
vt 0.812500 0.234375
vt 0.937500 0.234375
vt 0.562500 1.000000
vt 0.500000 1.000000
vt 0.500000 0.000000
vt 0.437500 1.000000
vt 0.437500 0.000000
vt 0.375000 1.000000
vt 0.375000 0.000000
vt 0.312500 1.000000
vt 0.312500 0.000000
vt 0.250000 1.000000
vt 0.250000 0.000000
vt 0.187500 1.000000
vt 0.187500 0.000000
vt 0.125000 1.000000
vt 0.125000 0.000000
vt 0.062500 1.000000
vt 0.062500 0.000000
vt 0.000000 1.000000
vt 0.000000 0.000000
vt 0.750000 1.000000
vt 0.687500 1.000000
vt 0.687500 0.000000
vt 0.625000 1.000000
vt 0.562500 0.000000
vt 0.625000 0.000000
vt 0.750000 0.000000
vn 0.000000 1.000000 0.000000
vn 0.000000 -1.000000 0.000000
vn 0.000000 0.653200 -0.757100
vn 0.378600 0.653200 -0.655700
vn 0.378600 -0.653200 -0.655700
vn 0.655700 0.653200 -0.378600
vn 0.655700 -0.653200 -0.378600
vn 0.757100 0.653200 0.000000
vn 0.757100 -0.653200 0.000000
vn 0.655700 0.653200 0.378600
vn 0.655700 -0.653200 0.378600
vn 0.378600 0.653200 0.655700
vn 0.378600 -0.653200 0.655700
vn 0.000000 0.653200 0.757100
vn 0.000000 -0.653200 0.757100
vn -0.378600 0.653200 0.655700
vn -0.378600 -0.653200 0.655700
vn -0.655700 0.653200 0.378600
vn -0.655700 -0.653200 0.378600
vn -0.757100 0.653200 0.000000
vn -0.757100 -0.653200 0.000000
vn -0.655700 0.653200 -0.378600
vn -0.655700 -0.653200 -0.378600
vn -0.378600 0.653200 -0.655700
vn 0.000000 -0.653200 -0.757100
vn -0.378600 -0.653200 -0.655700
s off
f 22/1/1 14/2/1 6/3/1
f 7/4/2 19/5/2 23/6/2
f 6/3/1 4/7/1 2/5/1
f 2/5/1 24/8/1 6/3/1
f 22/1/1 20/9/1 18/10/1
f 18/10/1 16/11/1 14/2/1
f 14/2/1 12/12/1 10/13/1
f 10/13/1 8/14/1 6/3/1
f 6/3/1 24/8/1 22/1/1
f 22/1/1 18/10/1 14/2/1
f 14/2/1 10/13/1 6/3/1
f 23/6/2 1/15/2 3/16/2
f 3/16/2 5/17/2 7/4/2
f 7/4/2 9/18/2 11/19/2
f 11/19/2 13/20/2 15/21/2
f 15/21/2 17/22/2 19/5/2
f 19/5/2 21/23/2 23/6/2
f 23/6/2 3/16/2 7/4/2
f 7/4/2 11/19/2 15/21/2
f 15/21/2 19/5/2 7/4/2
s 1
f 2/24/3 4/25/4 3/26/5
f 4/25/4 6/27/6 5/28/7
f 6/27/6 8/29/8 7/30/9
f 8/29/8 10/31/10 9/32/11
f 10/31/10 12/33/12 11/34/13
f 12/33/12 14/35/14 13/36/15
f 14/35/14 16/37/16 15/38/17
f 16/37/16 18/39/18 17/40/19
f 18/39/18 20/41/20 19/42/21
f 20/43/20 22/44/22 21/45/23
f 24/46/24 2/24/3 1/47/25
f 22/44/22 24/46/24 23/48/26
f 1/47/25 2/24/3 3/26/5
f 3/26/5 4/25/4 5/28/7
f 5/28/7 6/27/6 7/30/9
f 7/30/9 8/29/8 9/32/11
f 9/32/11 10/31/10 11/34/13
f 11/34/13 12/33/12 13/36/15
f 13/36/15 14/35/14 15/38/17
f 15/38/17 16/37/16 17/40/19
f 17/40/19 18/39/18 19/42/21
f 19/49/21 20/43/20 21/45/23
f 23/48/26 24/46/24 1/47/25
f 21/45/23 22/44/22 23/48/26
