# Blender v2.76 (sub 0) OBJ File: 'mp_s_15_soyuz.blend'
# www.blender.org
o Cube.001_Cube.002
v 0.062500 0.125000 -0.750000
v 0.062500 0.875000 -0.750000
v -0.062500 0.125000 -0.750000
v -0.062500 0.875000 -0.750000
v 0.000000 0.125000 -1.750000
v -0.062500 0.875000 -0.687500
v -0.062500 0.125000 -0.687500
v 0.062500 0.125000 -0.687500
v 0.062500 0.875000 -0.687500
v -0.062500 0.125000 0.750000
v -0.062500 0.875000 0.750000
v 0.062500 0.125000 0.750000
v 0.062500 0.875000 0.750000
v -0.000000 0.125000 1.750000
v 0.062500 0.875000 0.687500
v 0.062500 0.125000 0.687500
v -0.062500 0.125000 0.687500
v -0.062500 0.875000 0.687500
v -0.750000 0.125000 -0.062500
v -0.750000 0.875000 -0.062500
v -0.750000 0.125000 0.062500
v -0.750000 0.875000 0.062500
v -1.750000 0.125000 -0.000000
v -0.687500 0.875000 0.062500
v -0.687500 0.125000 0.062500
v -0.687500 0.125000 -0.062500
v -0.687500 0.875000 -0.062500
v 0.750000 0.125000 0.062500
v 0.750000 0.875000 0.062500
v 0.750000 0.125000 -0.062500
v 0.750000 0.875000 -0.062500
v 1.750000 0.125000 0.000000
v 0.687500 0.875000 -0.062500
v 0.687500 0.125000 -0.062500
v 0.687500 0.125000 0.062500
v 0.687500 0.875000 0.062500
vt 0.444444 0.388889
vt -0.000000 0.361111
vt 0.444444 0.333333
vt 0.527778 0.333333
vt 0.527778 0.000000
vt 0.972222 -0.000000
vt 0.444444 0.444444
vt 0.000000 0.416667
vt 0.444444 0.000000
vt 0.000000 0.000000
vt 0.472222 0.000000
vt 0.500000 0.000000
vt 0.500000 0.333333
vt 0.472222 0.333333
vt 0.472222 0.388889
vt 0.472222 0.444444
vn 0.000000 -1.000000 0.000000
vn 0.998100 0.000000 -0.062400
vn 0.000000 0.800000 -0.600000
vn -0.998100 0.000000 -0.062400
vn 0.000000 0.000000 1.000000
vn -1.000000 0.000000 -0.000000
vn 1.000000 0.000000 0.000000
vn 0.000000 1.000000 0.000000
vn -0.998100 0.000000 0.062400
vn 0.000000 0.800000 0.600000
vn 0.998100 0.000000 0.062400
vn 0.000000 0.000000 -1.000000
vn -0.062400 0.000000 -0.998100
vn -0.600000 0.800000 0.000000
vn -0.062400 0.000000 0.998100
vn 0.062400 0.000000 0.998100
vn 0.600000 0.800000 0.000000
vn 0.062400 0.000000 -0.998100
s off
f 3/1/1 5/2/1 1/3/1
f 2/4/2 1/5/2 5/6/2
f 2/7/3 5/8/3 4/1/3
f 3/9/4 4/3/4 5/10/4
f 7/11/5 8/12/5 9/13/5
f 7/11/6 6/14/6 4/3/6
f 8/14/1 7/15/1 3/1/1
f 9/13/7 8/12/7 1/5/7
f 6/15/8 9/16/8 2/7/8
f 12/1/1 14/2/1 10/3/1
f 11/4/9 10/5/9 14/6/9
f 11/7/10 14/8/10 13/1/10
f 12/9/11 13/3/11 14/10/11
f 16/11/12 17/12/12 18/13/12
f 16/11/7 15/14/7 13/3/7
f 17/14/1 16/15/1 12/1/1
f 18/13/6 17/12/6 10/5/6
f 15/15/8 18/16/8 11/7/8
f 21/1/1 23/2/1 19/3/1
f 20/4/13 19/5/13 23/6/13
f 20/7/14 23/8/14 22/1/14
f 21/9/15 22/3/15 23/10/15
f 25/11/7 26/12/7 27/13/7
f 25/11/5 24/14/5 22/3/5
f 26/14/1 25/15/1 21/1/1
f 27/13/12 26/12/12 19/5/12
f 24/15/8 27/16/8 20/7/8
f 30/1/1 32/2/1 28/3/1
f 29/4/16 28/5/16 32/6/16
f 29/7/17 32/8/17 31/1/17
f 30/9/18 31/3/18 32/10/18
f 34/11/6 35/12/6 36/13/6
f 34/11/12 33/14/12 31/3/12
f 35/14/1 34/15/1 30/1/1
f 36/13/5 35/12/5 28/5/5
f 33/15/8 36/16/8 29/7/8
f 6/14/5 7/11/5 9/13/5
f 3/9/6 7/11/6 4/3/6
f 1/3/1 8/14/1 3/1/1
f 2/4/7 9/13/7 1/5/7
f 4/1/8 6/15/8 2/7/8
f 15/14/12 16/11/12 18/13/12
f 12/9/7 16/11/7 13/3/7
f 10/3/1 17/14/1 12/1/1
f 11/4/6 18/13/6 10/5/6
f 13/1/8 15/15/8 11/7/8
f 24/14/7 25/11/7 27/13/7
f 21/9/5 25/11/5 22/3/5
f 19/3/1 26/14/1 21/1/1
f 20/4/12 27/13/12 19/5/12
f 22/1/8 24/15/8 20/7/8
f 33/14/6 34/11/6 36/13/6
f 30/9/12 34/11/12 31/3/12
f 28/3/1 35/14/1 30/1/1
f 29/4/5 36/13/5 28/5/5
f 31/1/8 33/15/8 29/7/8
