# Blender v2.76 (sub 0) OBJ File: 'mp_s_15_thin.blend'
# www.blender.org
o Cube_Cube.001
v -0.031250 1.000000 0.750000
v -0.031250 3.000000 0.750000
v -0.031250 1.000000 -0.750000
v -0.031250 3.000000 -0.750000
v 0.031250 1.000000 0.750000
v 0.031250 3.000000 0.750000
v 0.031250 1.000000 -0.750000
v 0.031250 3.000000 -0.750000
v 0.750000 1.000000 0.031250
v 0.750000 3.000000 0.031250
v -0.750000 1.000000 0.031250
v -0.750000 3.000000 0.031250
v 0.750000 1.000000 -0.031250
v 0.750000 3.000000 -0.031250
v -0.750000 1.000000 -0.031250
v -0.750000 3.000000 -0.031250
v -0.031250 2.500000 -1.250000
v 0.031250 2.500000 -1.250000
v 0.031250 1.000000 -1.500000
v -0.031250 1.000000 -1.500000
v 0.031250 2.500000 1.250000
v -0.031250 2.500000 1.250000
v -0.031250 1.000000 1.500000
v 0.031250 1.000000 1.500000
v 1.250000 2.500000 -0.031250
v 1.250000 2.500000 0.031250
v 1.500000 1.000000 0.031250
v 1.500000 1.000000 -0.031250
v -1.250000 2.500000 0.031250
v -1.250000 2.500000 -0.031250
v -1.500000 1.000000 -0.031250
v -1.500000 1.000000 0.031250
v -0.031250 1.000000 0.687500
v -0.031250 3.000000 0.687500
v 0.031250 3.000000 0.687500
v 0.031250 1.000000 0.687500
v 0.687500 1.000000 0.031250
v 0.687500 3.000000 0.031250
v 0.687500 3.000000 -0.031250
v 0.687500 1.000000 -0.031250
v -0.031250 1.000000 -0.687500
v 0.031250 1.000000 -0.687500
v 0.031250 3.000000 -0.687500
v -0.031250 3.000000 -0.687500
v -0.687500 1.000000 -0.031250
v -0.687500 3.000000 -0.031250
v -0.687500 3.000000 0.031250
v -0.687500 1.000000 0.031250
vt -0.000000 0.705882
vt 0.000000 0.000000
vt 0.029412 0.000000
vt 0.029412 0.705882
vt 0.029412 0.941176
vt 0.470588 -0.000000
vt 0.823529 0.000000
vt 0.705882 0.705882
vt 0.029412 0.970588
vt 0.382353 0.941176
vt 0.147059 0.705882
vt 0.382353 0.000000
vt 0.470588 0.941176
vt 0.411765 0.941176
vt 0.411765 -0.000000
vt 0.000000 0.970588
vt 0.000000 0.941176
vt 0.411765 0.970588
vt 0.382353 0.970588
vt 0.441176 0.941176
vt 0.441176 0.000000
vn 0.000000 0.164400 -0.986400
vn 0.000000 0.707100 -0.707100
vn 1.000000 0.000000 0.000000
vn 0.000000 -1.000000 0.000000
vn -1.000000 0.000000 0.000000
vn 0.000000 0.164400 0.986400
vn 0.000000 0.707100 0.707100
vn 0.986400 0.164400 0.000000
vn 0.707100 0.707100 0.000000
vn 0.000000 0.000000 1.000000
vn 0.000000 0.000000 -1.000000
vn -0.986400 0.164400 0.000000
vn -0.707100 0.707100 0.000000
vn 0.000000 1.000000 0.000000
s off
f 18/1/1 19/2/1 20/3/1
f 18/1/2 17/4/2 4/5/2
f 7/6/3 19/7/3 18/8/3
f 20/9/4 19/5/4 7/10/4
f 17/11/5 20/3/5 3/12/5
f 22/1/6 23/2/6 24/3/6
f 22/1/7 21/4/7 6/5/7
f 1/6/5 23/7/5 22/8/5
f 24/9/4 23/5/4 1/10/4
f 21/11/3 24/3/3 5/12/3
f 26/1/8 27/2/8 28/3/8
f 26/1/9 25/4/9 14/5/9
f 9/6/10 27/7/10 26/8/10
f 28/9/4 27/5/4 9/10/4
f 25/11/11 28/3/11 13/12/11
f 30/1/12 31/2/12 32/3/12
f 30/1/13 29/4/13 12/5/13
f 15/6/11 31/7/11 30/8/11
f 32/9/4 31/5/4 15/10/4
f 29/11/10 32/3/10 11/12/10
f 34/13/11 35/14/11 36/15/11
f 34/13/5 33/6/5 1/6/5
f 35/9/14 34/16/14 2/17/14
f 36/15/3 35/14/3 6/10/3
f 33/14/4 36/18/4 5/19/4
f 38/20/5 39/14/5 40/15/5
f 38/20/10 37/21/10 9/6/10
f 39/9/14 38/16/14 10/17/14
f 40/15/11 39/14/11 14/10/11
f 37/14/4 40/18/4 13/19/4
f 42/12/10 43/10/10 44/10/10
f 42/14/4 41/18/4 3/19/4
f 43/10/3 42/12/3 7/6/3
f 44/9/14 43/16/14 8/17/14
f 41/12/5 44/10/5 4/10/5
f 46/20/3 47/14/3 48/15/3
f 46/20/11 45/21/11 15/6/11
f 47/9/14 46/16/14 16/17/14
f 48/15/10 47/14/10 12/10/10
f 45/14/4 48/18/4 11/19/4
f 17/4/1 18/1/1 20/3/1
f 8/17/2 18/1/2 4/5/2
f 8/13/3 7/6/3 18/8/3
f 3/19/4 20/9/4 7/10/4
f 4/10/5 17/11/5 3/12/5
f 21/4/6 22/1/6 24/3/6
f 2/17/7 22/1/7 6/5/7
f 2/13/5 1/6/5 22/8/5
f 5/19/4 24/9/4 1/10/4
f 6/10/3 21/11/3 5/12/3
f 25/4/8 26/1/8 28/3/8
f 10/17/9 26/1/9 14/5/9
f 10/13/10 9/6/10 26/8/10
f 13/19/4 28/9/4 9/10/4
f 14/10/11 25/11/11 13/12/11
f 29/4/12 30/1/12 32/3/12
f 16/17/13 30/1/13 12/5/13
f 16/13/11 15/6/11 30/8/11
f 11/19/4 32/9/4 15/10/4
f 12/10/10 29/11/10 11/12/10
f 33/6/11 34/13/11 36/15/11
f 2/13/5 34/13/5 1/6/5
f 6/5/14 35/9/14 2/17/14
f 5/12/3 36/15/3 6/10/3
f 1/10/4 33/14/4 5/19/4
f 37/21/5 38/20/5 40/15/5
f 10/13/10 38/20/10 9/6/10
f 14/5/14 39/9/14 10/17/14
f 13/12/11 40/15/11 14/10/11
f 9/10/4 37/14/4 13/19/4
f 41/12/10 42/12/10 44/10/10
f 7/10/4 42/14/4 3/19/4
f 8/13/3 43/10/3 7/6/3
f 4/5/14 44/9/14 8/17/14
f 3/12/5 41/12/5 4/10/5
f 45/21/3 46/20/3 48/15/3
f 16/13/11 46/20/11 15/6/11
f 12/5/14 47/9/14 16/17/14
f 11/12/10 48/15/10 12/10/10
f 15/10/4 45/14/4 11/19/4
