# Blender v2.76 (sub 0) OBJ File: 'mp_t_15_solid.blend'
# www.blender.org
o Cylinder
v -0.000000 0.250000 -0.562500
v 0.000000 0.500000 -0.750000
v 0.281250 0.250000 -0.487139
v 0.375000 0.500000 -0.649519
v 0.487139 0.250000 -0.281250
v 0.649519 0.500000 -0.375000
v 0.562500 0.250000 0.000000
v 0.750000 0.500000 0.000000
v 0.487139 0.250000 0.281250
v 0.649519 0.500000 0.375000
v 0.281250 0.250000 0.487139
v 0.375000 0.500000 0.649519
v 0.000000 0.250000 0.562500
v 0.000000 0.500000 0.750000
v -0.281250 0.250000 0.487139
v -0.375000 0.500000 0.649519
v -0.487139 0.250000 0.281250
v -0.649519 0.500000 0.375000
v -0.562500 0.250000 0.000000
v -0.750000 0.500000 0.000000
v -0.487139 0.250000 -0.281250
v -0.649519 0.500000 -0.375000
v -0.281250 0.250000 -0.487139
v -0.375000 0.500000 -0.649519
v -0.000000 0.000000 -0.562500
v 0.281250 0.000000 -0.487139
v 0.487139 0.000000 -0.281250
v 0.562500 0.000000 0.000000
v 0.487139 0.000000 0.281250
v 0.281250 0.000000 0.487139
v 0.000000 0.000000 0.562500
v -0.281250 0.000000 0.487139
v -0.487139 0.000000 0.281250
v -0.562500 0.000000 0.000000
v -0.487139 0.000000 -0.281250
v -0.281250 0.000000 -0.487139
v 0.000000 0.250000 -0.421875
v 0.210938 0.250000 -0.365354
v 0.365354 0.250000 -0.210937
v 0.421875 0.250000 0.000000
v 0.365354 0.250000 0.210938
v 0.210938 0.250000 0.365354
v 0.000000 0.250000 0.421875
v -0.210937 0.250000 0.365355
v -0.365354 0.250000 0.210938
v -0.421875 0.250000 0.000000
v -0.365355 0.250000 -0.210937
v -0.210938 0.250000 -0.365354
v -0.000000 0.000000 -0.421875
v 0.210937 0.000000 -0.365354
v 0.365354 0.000000 -0.210937
v 0.421875 0.000000 0.000000
v 0.365354 0.000000 0.210938
v 0.210938 0.000000 0.365354
v 0.000000 0.000000 0.421875
v -0.210937 0.000000 0.365355
v -0.365354 0.000000 0.210938
v -0.421875 0.000000 0.000000
v -0.365355 0.000000 -0.210937
v -0.210938 0.000000 -0.365354
v 0.000000 0.250000 -0.210937
v 0.105469 0.250000 -0.182677
v 0.182677 0.250000 -0.105469
v 0.210938 0.250000 0.000000
v 0.182677 0.250000 0.105469
v 0.105469 0.250000 0.182677
v 0.000000 0.250000 0.210938
v -0.105469 0.250000 0.182677
v -0.182677 0.250000 0.105469
v -0.210937 0.250000 0.000000
v -0.182677 0.250000 -0.105469
v -0.105469 0.250000 -0.182677
vt 0.750000 0.069444
vt 0.666667 0.069444
vt 0.666667 -0.000000
vt 0.583333 0.069444
vt 0.583333 0.000000
vt 0.500000 0.069444
vt 0.500000 0.000000
vt 0.416667 0.069444
vt 0.416667 0.000000
vt 0.333333 0.069444
vt 0.250000 0.069444
vt 0.250000 -0.000000
vt 0.166667 0.069444
vt 0.166667 -0.000000
vt 0.083333 0.069444
vt 0.000000 0.069444
vt -0.000000 0.000000
vt 1.000000 0.069444
vt 0.916667 0.069444
vt 0.916667 0.000000
vt 0.027778 0.152778
vt 0.166667 0.402778
vt 0.305556 0.152778
vt 0.833333 0.069444
vt 0.750000 0.000000
vt 0.833333 -0.000000
vt 0.527778 0.083333
vt 0.388889 0.083333
vt 0.388889 0.305556
vt 0.638889 0.305556
vt 0.666667 0.263889
vt 0.708333 0.277778
vt 0.277778 0.402778
vt 0.277778 0.472222
vt 0.208333 0.472222
vt 0.486111 0.402778
vt 0.486111 0.472222
vt 0.416667 0.472222
vt 0.833333 0.402778
vt 0.833333 0.472222
vt 0.763889 0.472222
vt 0.208333 0.402778
vt 0.138889 0.472222
vt 0.416667 0.402778
vt 0.347222 0.472222
vt 0.694444 0.402778
vt 0.763889 0.402778
vt 0.555556 0.402778
vt 0.625000 0.402778
vt 0.625000 0.472222
vt 0.138889 0.402778
vt 0.069444 0.472222
vt 0.347222 0.402778
vt 0.694444 0.472222
vt 0.555556 0.472222
vt 0.069444 0.402778
vt 0.000000 0.472222
vt 0.291667 0.472222
vt 0.291667 0.541667
vt 0.250000 0.541667
vt 0.833333 0.194444
vt 0.819444 0.263889
vt 0.777778 0.236111
vt 0.597222 0.125000
vt 0.638889 0.083333
vt 0.666667 0.125000
vt 0.597222 0.263889
vt 0.638889 0.236111
vt 0.777778 0.305556
vt 0.750000 0.263889
vt 0.708333 0.069444
vt 0.708333 0.111111
vt 0.819444 0.125000
vt 0.777778 0.152778
vt 0.750000 0.125000
vt 0.583333 0.194444
vt 0.625000 0.194444
vt 0.708333 0.319444
vt 0.777778 0.083333
vt 0.791667 0.194444
vt 0.638889 0.152778
vt 0.041667 0.472222
vt 0.083333 0.472222
vt 0.083333 0.541667
vt 0.166667 0.472222
vt 0.166667 0.541667
vt 0.125000 0.541667
vt 0.458333 0.472222
vt 0.458333 0.541667
vt 0.416667 0.541667
vt 0.333333 0.472222
vt 0.333333 0.541667
vt 0.125000 0.472222
vt 0.208333 0.541667
vt 0.500000 0.472222
vt 0.500000 0.541667
vt 0.375000 0.472222
vt 0.375000 0.541667
vt 0.250000 0.472222
vt 0.041667 0.541667
vt 0.000000 0.541667
vt 0.333333 0.000000
vt 0.083333 -0.000000
vt 1.000000 -0.000000
vt 0.250000 0.097222
vt 0.083333 0.097222
vt 0.000000 0.236111
vt 0.027778 0.319444
vt 0.083333 0.375000
vt 0.250000 0.375000
vt 0.305556 0.319444
vt 0.333333 0.236111
vt 0.458333 0.319444
vt 0.527778 0.305556
vt 0.569444 0.263889
vt 0.569444 0.125000
vt 0.458333 0.069444
vt 0.347222 0.125000
vt 0.333333 0.194444
vt 0.347222 0.263889
vt 0.000000 0.402778
vn 0.209600 -0.586700 -0.782200
vn 0.572600 -0.586700 -0.572600
vn 0.782200 -0.586700 -0.209600
vn 0.782200 -0.586700 0.209600
vn 0.572600 -0.586700 0.572600
vn 0.209600 -0.586700 0.782200
vn -0.209600 -0.586700 0.782200
vn -0.572600 -0.586700 0.572600
vn -0.782200 -0.586700 0.209600
vn -0.782200 -0.586700 -0.209600
vn 0.000000 1.000000 0.000000
vn -0.209600 -0.586700 -0.782200
vn -0.572600 -0.586700 -0.572600
vn 0.000000 -1.000000 0.000000
vn 0.227400 0.477400 0.848700
vn 0.848700 0.477400 -0.227400
vn -0.848700 0.477400 -0.227400
vn -0.227400 0.477400 0.848700
vn 0.848700 0.477400 0.227400
vn -0.621300 0.477400 -0.621300
vn 0.227400 0.477400 -0.848700
vn -0.621300 0.477400 0.621300
vn 0.621300 0.477400 0.621300
vn -0.227400 0.477400 -0.848700
vn 0.621300 0.477400 -0.621300
vn -0.848700 0.477400 0.227400
vn -0.748800 -0.631800 -0.200600
vn 0.548100 -0.631800 0.548100
vn -0.200600 -0.631800 0.748800
vn 0.548100 -0.631800 -0.548100
vn -0.548100 -0.631800 -0.548100
vn 0.200600 -0.631800 0.748800
vn -0.548100 -0.631800 0.548100
vn 0.748800 -0.631800 -0.200600
vn -0.200600 -0.631800 -0.748800
vn -0.748800 -0.631800 0.200600
vn 0.748800 -0.631800 0.200600
vn 0.200600 -0.631800 -0.748800
s off
f 2/1/1 4/2/1 3/3/1
f 4/2/2 6/4/2 5/5/2
f 6/4/3 8/6/3 7/7/3
f 8/6/4 10/8/4 9/9/4
f 9/9/5 10/8/5 12/10/5
f 12/10/6 14/11/6 13/12/6
f 14/11/7 16/13/7 15/14/7
f 15/14/8 16/13/8 18/15/8
f 18/15/9 20/16/9 19/17/9
f 20/18/10 22/19/10 21/20/10
f 22/21/11 14/22/11 6/23/11
f 24/24/12 2/1/12 1/25/12
f 22/19/13 24/24/13 23/26/13
f 11/27/14 15/28/14 23/29/14
f 31/30/14 55/31/14 54/32/14
f 30/33/15 42/34/15 43/35/15
f 27/36/16 39/37/16 40/38/16
f 34/39/17 46/40/17 47/41/17
f 31/42/18 43/35/18 44/43/18
f 28/44/19 40/38/19 41/45/19
f 36/46/20 35/47/20 47/41/20
f 26/48/21 25/49/21 37/50/21
f 32/51/22 44/43/22 45/52/22
f 29/53/23 41/45/23 42/34/23
f 36/46/24 48/54/24 37/50/24
f 26/48/25 38/55/25 39/37/25
f 33/56/26 45/52/26 46/57/26
f 53/58/27 65/59/27 64/60/27
f 27/61/14 28/62/14 52/63/14
f 34/64/14 35/65/14 59/66/14
f 32/67/14 56/68/14 55/31/14
f 29/69/14 53/70/14 52/63/14
f 35/65/14 36/71/14 60/72/14
f 26/73/14 50/74/14 49/75/14
f 33/76/14 57/77/14 56/68/14
f 30/78/14 54/32/14 53/70/14
f 25/79/14 49/75/14 60/72/14
f 27/61/14 51/80/14 50/74/14
f 33/76/14 34/64/14 58/81/14
f 59/82/28 60/83/28 72/84/28
f 50/85/29 62/86/29 61/87/29
f 57/88/30 69/89/30 68/90/30
f 54/91/31 66/92/31 65/59/31
f 60/83/32 49/93/32 61/87/32
f 50/85/33 51/35/33 63/94/33
f 58/95/34 70/96/34 69/89/34
f 54/91/35 55/97/35 67/98/35
f 51/35/36 52/99/36 64/60/36
f 59/82/37 71/100/37 70/101/37
f 56/38/38 68/90/38 67/98/38
f 1/25/1 2/1/1 3/3/1
f 3/3/2 4/2/2 5/5/2
f 5/5/3 6/4/3 7/7/3
f 7/7/4 8/6/4 9/9/4
f 11/102/5 9/9/5 12/10/5
f 11/102/6 12/10/6 13/12/6
f 13/12/7 14/11/7 15/14/7
f 17/103/8 15/14/8 18/15/8
f 17/103/9 18/15/9 19/17/9
f 19/104/10 20/18/10 21/20/10
f 6/23/11 4/105/11 22/21/11
f 2/13/11 24/106/11 22/21/11
f 22/21/11 20/107/11 18/108/11
f 18/108/11 16/109/11 22/21/11
f 14/22/11 12/110/11 10/111/11
f 10/111/11 8/112/11 6/23/11
f 4/105/11 2/13/11 22/21/11
f 22/21/11 16/109/11 14/22/11
f 14/22/11 10/111/11 6/23/11
f 23/26/12 24/24/12 1/25/12
f 21/20/13 22/19/13 23/26/13
f 23/29/14 1/113/14 7/76/14
f 3/114/14 5/115/14 7/76/14
f 7/76/14 9/116/14 11/27/14
f 11/27/14 13/117/14 15/28/14
f 15/28/14 17/118/14 23/29/14
f 19/119/14 21/120/14 23/29/14
f 1/113/14 3/114/14 7/76/14
f 7/76/14 11/27/14 23/29/14
f 17/118/14 19/119/14 23/29/14
f 30/78/14 31/30/14 54/32/14
f 31/42/15 30/33/15 43/35/15
f 28/44/16 27/36/16 40/38/16
f 35/47/17 34/39/17 47/41/17
f 32/51/18 31/42/18 44/43/18
f 29/53/19 28/44/19 41/45/19
f 48/54/20 36/46/20 47/41/20
f 38/55/21 26/48/21 37/50/21
f 33/56/22 32/51/22 45/52/22
f 30/33/23 29/53/23 42/34/23
f 25/49/24 36/46/24 37/50/24
f 27/36/25 26/48/25 39/37/25
f 34/121/26 33/56/26 46/57/26
f 52/99/27 53/58/27 64/60/27
f 51/80/14 27/61/14 52/63/14
f 58/81/14 34/64/14 59/66/14
f 31/30/14 32/67/14 55/31/14
f 28/62/14 29/69/14 52/63/14
f 59/66/14 35/65/14 60/72/14
f 25/79/14 26/73/14 49/75/14
f 32/67/14 33/76/14 56/68/14
f 29/69/14 30/78/14 53/70/14
f 36/71/14 25/79/14 60/72/14
f 26/73/14 27/61/14 50/74/14
f 57/77/14 33/76/14 58/81/14
f 71/100/28 59/82/28 72/84/28
f 49/93/29 50/85/29 61/87/29
f 56/38/30 57/88/30 68/90/30
f 53/58/31 54/91/31 65/59/31
f 72/84/32 60/83/32 61/87/32
f 62/86/33 50/85/33 63/94/33
f 57/88/34 58/95/34 69/89/34
f 66/92/35 54/91/35 67/98/35
f 63/94/36 51/35/36 64/60/36
f 58/57/37 59/82/37 70/101/37
f 55/97/38 56/38/38 67/98/38
