# Blender v2.76 (sub 0) OBJ File: 'mp_t_15_balefire_short.blend'
# www.blender.org
o Cylinder
v 0.000000 1.875000 -0.750000
v 0.000000 2.000000 -0.750000
v 0.375000 1.875000 -0.649519
v 0.375000 2.000000 -0.649519
v 0.649519 1.875000 -0.375000
v 0.649519 2.000000 -0.375000
v 0.750000 1.875000 0.000000
v 0.750000 2.000000 0.000000
v 0.649519 1.875000 0.375000
v 0.649519 2.000000 0.375000
v 0.375000 1.875000 0.649519
v 0.375000 2.000000 0.649519
v 0.000000 1.875000 0.750000
v 0.000000 2.000000 0.750000
v -0.375000 1.875000 0.649519
v -0.375000 2.000000 0.649519
v -0.649519 1.875000 0.375000
v -0.649519 2.000000 0.375000
v -0.750000 1.875000 0.000000
v -0.750000 2.000000 0.000000
v -0.649519 1.875000 -0.375000
v -0.649519 2.000000 -0.375000
v -0.375000 1.875000 -0.649519
v -0.375000 2.000000 -0.649519
v -0.000000 1.250000 -0.637500
v -0.000000 1.750000 -0.637500
v 0.318750 1.250000 -0.552091
v 0.318750 1.750000 -0.552091
v 0.552091 1.250000 -0.318750
v 0.552091 1.750000 -0.318750
v 0.637500 1.250000 0.000000
v 0.637500 1.750000 0.000000
v 0.552091 1.250000 0.318750
v 0.552091 1.750000 0.318750
v 0.318750 1.250000 0.552091
v 0.318750 1.750000 0.552091
v 0.000000 1.250000 0.637500
v 0.000000 1.750000 0.637500
v -0.318750 1.250000 0.552091
v -0.318750 1.750000 0.552091
v -0.552091 1.250000 0.318750
v -0.552091 1.750000 0.318750
v -0.637500 1.250000 0.000000
v -0.637500 1.750000 0.000000
v -0.552091 1.250000 -0.318750
v -0.552091 1.750000 -0.318750
v -0.318750 1.250000 -0.552091
v -0.318750 1.750000 -0.552091
v 0.000000 1.000000 -0.187500
v -0.093750 1.000000 -0.162380
v -0.162380 1.000000 -0.093750
v -0.187500 1.000000 0.000000
v -0.162380 1.000000 0.093750
v -0.093750 1.000000 0.162380
v -0.000000 1.000000 0.187500
v 0.093750 1.000000 0.162380
v 0.162380 1.000000 0.093750
v 0.187500 1.000000 0.000000
v 0.162380 1.000000 -0.093750
v 0.093750 1.000000 -0.162380
v -0.093750 0.750000 -0.162380
v 0.000000 0.750000 -0.187500
v -0.162380 0.750000 -0.093750
v -0.187500 0.750000 0.000000
v -0.162380 0.750000 0.093750
v -0.093750 0.750000 0.162380
v -0.000000 0.750000 0.187500
v 0.093750 0.750000 0.162380
v 0.162380 0.750000 0.093750
v 0.187500 0.750000 0.000000
v 0.162380 0.750000 -0.093750
v 0.093750 0.750000 -0.162380
v -0.187500 0.000000 -0.324759
v 0.000000 0.000000 -0.375000
v -0.324760 0.000000 -0.187500
v -0.375000 0.000000 0.000000
v -0.324759 0.000000 0.187500
v -0.187500 0.000000 0.324760
v -0.000000 0.000000 0.375000
v 0.187500 0.000000 0.324760
v 0.324759 0.000000 0.187500
v 0.375000 0.000000 0.000000
v 0.324760 0.000000 -0.187500
v 0.187500 0.000000 -0.324759
v -0.140625 0.000000 -0.243570
v 0.000000 0.000000 -0.281250
v -0.243570 0.000000 -0.140625
v -0.281250 0.000000 0.000000
v -0.243570 0.000000 0.140625
v -0.140625 0.000000 0.243570
v -0.000000 0.000000 0.281250
v 0.140625 0.000000 0.243570
v 0.243570 0.000000 0.140625
v 0.281250 0.000000 0.000000
v 0.243570 0.000000 -0.140625
v 0.140625 0.000000 -0.243569
v -0.070313 0.750000 -0.121785
v -0.000000 0.750000 -0.140625
v -0.121785 0.750000 -0.070312
v -0.140625 0.750000 0.000000
v -0.121785 0.750000 0.070313
v -0.070313 0.750000 0.121785
v -0.000000 0.750000 0.140625
v 0.070312 0.750000 0.121785
v 0.121785 0.750000 0.070313
v 0.140625 0.750000 0.000000
v 0.121785 0.750000 -0.070312
v 0.070313 0.750000 -0.121785
v 0.270938 1.875000 -0.469278
v -0.000000 1.875000 -0.541875
v 0.469278 1.875000 -0.270937
v 0.541875 1.875000 0.000000
v 0.469278 1.875000 0.270938
v 0.270938 1.875000 0.469278
v 0.000000 1.875000 0.541875
v -0.270937 1.875000 0.469278
v -0.469278 1.875000 0.270938
v -0.541875 1.875000 0.000000
v -0.469278 1.875000 -0.270937
v -0.270938 1.875000 -0.469277
vt 0.750000 0.361111
vt 0.666667 0.361111
vt 0.666667 0.333333
vt 0.583333 0.361111
vt 0.583333 0.333333
vt 0.500000 0.361111
vt 0.500000 0.333333
vt 0.416667 0.361111
vt 0.416667 0.333333
vt 0.333333 0.361111
vt 0.333333 0.333333
vt 0.250000 0.361111
vt 0.250000 0.333333
vt 0.166667 0.361111
vt 0.166667 0.333333
vt 0.083333 0.361111
vt 0.083333 0.333333
vt -0.000000 0.361111
vt -0.000000 0.333333
vt 1.000000 0.361111
vt 0.916667 0.361111
vt 0.916667 0.333333
vt 0.247017 0.305838
vt 0.005965 0.166667
vt 0.247018 0.027495
vt 0.833333 0.361111
vt 0.750000 0.333333
vt 0.833333 0.333333
vt 0.666667 0.166667
vt 0.416667 0.305556
vt 0.416667 0.027778
vt 0.625000 0.583333
vt 0.555556 0.583333
vt 0.555556 0.472222
vt 0.486111 0.583333
vt 0.486111 0.472222
vt 0.416667 0.583333
vt 0.416667 0.472222
vt 0.347222 0.583333
vt 0.347222 0.472222
vt 0.277778 0.583333
vt 0.277778 0.472222
vt 0.208333 0.583333
vt 0.208333 0.472222
vt 0.138889 0.583333
vt 0.138889 0.472222
vt 0.069444 0.583333
vt 0.069444 0.472222
vt 0.000000 0.583333
vt -0.000000 0.472222
vt 0.833333 0.583333
vt 0.763889 0.583333
vt 0.763889 0.472222
vt 0.333333 0.611111
vt 0.291667 0.611111
vt 0.694444 0.583333
vt 0.625000 0.472222
vt 0.694444 0.472222
vt 0.361111 0.361111
vt 0.402778 0.361111
vt 0.430556 0.361111
vt 0.472222 0.361111
vt 0.541667 0.361111
vt 0.569444 0.361111
vt 0.611111 0.361111
vt 0.638889 0.361111
vt 0.680556 0.361111
vt 0.708333 0.361111
vt 0.777778 0.361111
vt 0.819444 0.361111
vt 0.013889 0.361111
vt 0.055556 0.361111
vt 0.125000 0.361111
vt 0.152778 0.361111
vt 0.194444 0.361111
vt 0.222222 0.361111
vt 0.263889 0.361111
vt 0.291667 0.361111
vt 0.972222 0.222222
vt 0.972222 0.166667
vt 1.000000 0.166667
vt 0.111111 1.000000
vt 0.083333 1.000000
vt 0.083333 0.833333
vt 0.833333 0.222222
vt 0.833333 0.166667
vt 0.861111 0.166667
vt 0.750000 0.222222
vt 0.750000 0.166667
vt 0.777778 0.166667
vt 0.666667 0.222222
vt 0.694444 0.166667
vt 0.861111 0.222222
vt 0.888889 0.166667
vt 0.916667 0.222222
vt 0.916667 0.166667
vt 0.944444 0.166667
vt 0.777778 0.222222
vt 0.805556 0.166667
vt 0.694444 0.222222
vt 0.722222 0.166667
vt 0.888889 0.222222
vt 0.944444 0.222222
vt 0.805556 0.222222
vt 0.722222 0.222222
vt 0.542560 0.987288
vt 0.552753 0.969633
vt 0.583333 0.977827
vt 0.458333 1.000000
vt 0.458333 0.833333
vt 0.500000 0.833333
vt 0.250000 1.000000
vt 0.250000 0.833333
vt 0.291667 0.833333
vt 0.125000 1.000000
vt 0.125000 0.833333
vt 0.166667 0.833333
vt 0.000000 1.000000
vt -0.000000 0.833333
vt 0.041667 0.833333
vt 0.291667 1.000000
vt 0.333333 0.833333
vt 0.402778 1.000000
vt 0.375000 1.000000
vt 0.375000 0.833333
vt 0.166667 1.000000
vt 0.208333 0.833333
vt 0.041667 1.000000
vt 0.361111 1.000000
vt 0.333333 1.000000
vt 0.416667 1.000000
vt 0.416667 0.833333
vt 0.236111 1.000000
vt 0.208333 1.000000
vt 0.861111 0.000000
vt 0.512712 0.875893
vt 0.530367 0.886087
vt 0.522173 0.916667
vt 0.664880 0.916667
vt 0.644493 0.916667
vt 0.636299 0.886087
vt 0.583333 0.998213
vt 0.613913 0.969633
vt 0.501787 0.916667
vt 0.530367 0.947247
vt 0.653955 0.875893
vt 0.613913 0.863701
vt 0.583333 0.835120
vt 0.583333 0.855507
vt 0.552753 0.863701
vt 0.624107 0.987288
vt 0.636299 0.947247
vt 0.512712 0.957440
vt 0.624107 0.846045
vt 0.542560 0.846045
vt 0.653955 0.957440
vt 0.719940 0.867492
vt 0.701192 0.886240
vt 0.668721 0.853768
vt 0.944444 0.000000
vt 0.694444 0.000000
vt 0.833333 -0.000000
vt 0.888889 0.000000
vt 0.916667 0.000000
vt 1.000000 -0.000000
vt 0.805556 -0.000000
vt 0.750000 -0.000000
vt 0.972222 -0.000000
vt 0.777778 -0.000000
vt 0.722222 0.000000
vt 0.402778 0.611111
vt 0.680556 0.611111
vt 0.611111 0.611111
vt 0.472222 0.611111
vt 0.430556 0.611111
vt 0.750000 0.611111
vt 0.708333 0.611111
vt 0.541667 0.611111
vt 0.500000 0.611111
vt 0.819444 0.611111
vt 0.777778 0.611111
vt 0.055556 0.611111
vt 0.013889 0.611111
vt 0.125000 0.611111
vt 0.194444 0.611111
vt 0.152778 0.611111
vt 0.263889 0.611111
vt 1.000000 0.333333
vt 0.305838 0.086316
vt 0.327368 0.166667
vt 0.305838 0.247017
vt 0.166667 0.327368
vt 0.086316 0.305838
vt 0.027495 0.247017
vt 0.027495 0.086316
vt 0.086316 0.027495
vt 0.166667 0.005965
vt 0.500000 0.000000
vt 0.583333 0.027778
vt 0.638889 0.083333
vt 0.638889 0.250000
vt 0.583333 0.305556
vt 0.361111 0.250000
vt 0.333333 0.166667
vt 0.361111 0.083333
vt 0.833333 0.472222
vt 1.000000 0.222222
vt 0.486111 1.000000
vt 0.277778 1.000000
vt 0.152778 1.000000
vt 0.027778 1.000000
vt 0.319444 1.000000
vt 0.194444 1.000000
vt 0.069444 1.000000
vt 0.444444 1.000000
vt 0.675583 0.841882
vt 0.687468 0.835020
vt 0.701192 0.835020
vt 0.713078 0.841882
vt 0.719940 0.853768
vt 0.713078 0.879377
vt 0.687468 0.886240
vt 0.675583 0.879377
vt 0.668721 0.867492
vt 0.666667 0.000000
vt 0.361111 0.611111
vt 0.638889 0.611111
vt 0.569444 0.611111
vt 0.083333 0.611111
vt 0.222222 0.611111
vn 0.258800 0.000000 -0.965900
vn 0.707100 0.000000 -0.707100
vn 0.965900 0.000000 -0.258800
vn 0.965900 0.000000 0.258800
vn 0.707100 0.000000 0.707100
vn 0.258800 0.000000 0.965900
vn -0.258800 0.000000 0.965900
vn -0.707100 0.000000 0.707100
vn -0.965900 0.000000 0.258800
vn -0.965900 0.000000 -0.258800
vn 0.000000 1.000000 0.000000
vn -0.258800 0.000000 -0.965900
vn -0.707100 0.000000 -0.707100
vn 0.000000 -1.000000 -0.000000
vn 0.568700 0.594300 0.568700
vn 0.481600 -0.866800 0.129000
vn 0.481600 -0.866800 -0.129000
vn 0.352500 -0.866800 -0.352500
vn 0.129000 -0.866800 -0.481600
vn -0.129000 -0.866800 -0.481600
vn -0.352500 -0.866800 -0.352500
vn -0.481600 -0.866800 -0.129000
vn -0.481600 -0.866800 0.129000
vn -0.352500 -0.866800 0.352500
vn -0.129000 -0.866800 0.481600
vn 0.129000 -0.866800 0.481600
vn 0.352500 -0.866800 0.352500
vn -0.251600 0.234700 0.938900
vn -0.938900 0.234700 -0.251600
vn 0.938900 0.234700 -0.251600
vn 0.251600 0.234700 0.938900
vn -0.938900 0.234700 0.251600
vn 0.687400 0.234700 -0.687300
vn -0.251600 0.234700 -0.938900
vn 0.687300 0.234700 0.687400
vn -0.687300 0.234700 0.687300
vn 0.251600 0.234700 -0.938900
vn -0.687300 0.234700 -0.687300
vn 0.938900 0.234700 0.251600
vn -0.950500 -0.178200 -0.254700
vn 0.254700 -0.178200 -0.950500
vn 0.950500 -0.178200 0.254700
vn -0.950500 -0.178200 0.254700
vn -0.254700 -0.178200 -0.950500
vn 0.950500 -0.178200 -0.254700
vn -0.695800 -0.178200 0.695800
vn 0.254700 -0.178200 0.950500
vn -0.695800 -0.178200 -0.695800
vn 0.695800 -0.178200 -0.695800
vn -0.254700 -0.178200 0.950500
vn 0.695800 -0.178200 0.695800
vn 0.776800 0.594300 0.208200
vn -0.208200 0.594300 -0.776800
vn 0.208200 0.594300 -0.776800
vn 0.776800 0.594300 -0.208200
vn -0.568700 0.594300 -0.568700
vn 0.568700 0.594300 -0.568700
vn -0.776800 0.594300 -0.208200
vn -0.776800 0.594300 0.208200
vn -0.568700 0.594300 0.568700
vn -0.208200 0.594300 0.776800
vn 0.208200 0.594300 0.776800
vn 0.687300 0.234700 0.687300
vn -0.687400 0.234700 -0.687300
s off
f 2/1/1 4/2/1 3/3/1
f 4/2/2 6/4/2 5/5/2
f 6/4/3 8/6/3 7/7/3
f 8/6/4 10/8/4 9/9/4
f 10/8/5 12/10/5 11/11/5
f 12/10/6 14/12/6 13/13/6
f 14/12/7 16/14/7 15/15/7
f 16/14/8 18/16/8 17/17/8
f 18/16/9 20/18/9 19/19/9
f 20/20/10 22/21/10 21/22/10
f 22/23/11 14/24/11 6/25/11
f 24/26/12 2/1/12 1/27/12
f 22/21/13 24/26/13 23/28/13
f 7/29/14 15/30/14 23/31/14
f 26/32/1 28/33/1 27/34/1
f 28/33/2 30/35/2 29/36/2
f 30/35/3 32/37/3 31/38/3
f 32/37/4 34/39/4 33/40/4
f 34/39/5 36/41/5 35/42/5
f 36/41/6 38/43/6 37/44/6
f 38/43/7 40/45/7 39/46/7
f 40/45/8 42/47/8 41/48/8
f 42/47/9 44/49/9 43/50/9
f 44/51/10 46/52/10 45/53/10
f 34/39/15 113/54/15 114/55/15
f 48/56/12 26/32/12 25/57/12
f 46/52/13 48/56/13 47/58/13
f 33/40/16 57/59/16 58/60/16
f 31/38/17 58/61/17 59/62/17
f 29/36/18 59/6/18 60/63/18
f 27/34/19 60/64/19 49/65/19
f 49/66/20 50/67/20 47/58/20
f 50/68/21 51/1/21 45/53/21
f 45/53/22 51/69/22 52/70/22
f 52/71/23 53/72/23 41/48/23
f 41/48/24 53/16/24 54/73/24
f 39/46/25 54/74/25 55/75/25
f 37/44/26 55/76/26 56/77/26
f 56/78/27 57/10/27 33/40/27
f 51/79/10 63/80/10 64/81/10
f 67/82/28 66/83/28 78/84/28
f 58/85/3 70/86/3 71/87/3
f 55/88/6 67/89/6 68/90/6
f 52/91/9 64/29/9 65/92/9
f 59/93/2 71/87/2 72/94/2
f 49/95/12 62/96/12 61/97/12
f 56/98/5 68/90/5 69/99/5
f 53/100/8 65/92/8 66/101/8
f 60/102/1 72/94/1 62/96/1
f 50/103/13 61/97/13 63/80/13
f 57/104/4 69/99/4 70/86/4
f 54/105/7 66/101/7 67/89/7
f 78/106/14 90/107/14 91/108/14
f 63/109/29 75/110/29 76/111/29
f 70/112/30 82/113/30 83/114/30
f 67/115/31 79/116/31 80/117/31
f 64/118/32 76/119/32 77/120/32
f 71/121/33 83/114/33 84/122/33
f 61/123/34 62/124/34 74/125/34
f 68/126/35 80/117/35 81/127/35
f 65/128/36 77/120/36 78/84/36
f 62/129/37 72/130/37 84/122/37
f 61/131/38 73/132/38 75/110/38
f 70/133/39 69/134/39 81/127/39
f 93/135/40 105/87/40 106/86/40
f 75/136/14 87/137/14 88/138/14
f 82/139/14 94/140/14 95/141/14
f 79/142/14 91/108/14 92/143/14
f 76/144/14 88/138/14 89/145/14
f 83/146/14 95/141/14 96/147/14
f 74/148/14 86/149/14 85/150/14
f 80/151/14 92/143/14 93/152/14
f 77/153/14 89/145/14 90/107/14
f 84/154/14 96/147/14 86/149/14
f 75/136/14 73/155/14 85/150/14
f 81/156/14 93/152/14 94/140/14
f 105/157/14 103/158/14 99/159/14
f 90/160/41 102/97/41 103/96/41
f 87/161/42 99/92/42 100/29/42
f 94/162/43 106/86/43 107/99/43
f 92/163/44 91/164/44 103/96/44
f 88/165/45 100/81/45 101/80/45
f 95/166/46 107/99/46 108/90/46
f 86/167/47 98/89/47 97/101/47
f 92/163/48 104/94/48 105/87/48
f 89/168/49 101/80/49 102/97/49
f 86/167/50 96/169/50 108/90/50
f 85/170/51 97/101/51 99/92/51
f 34/39/52 32/37/52 112/171/52
f 26/32/53 48/56/53 120/172/53
f 28/33/54 26/32/54 110/173/54
f 30/35/55 111/174/55 112/175/55
f 46/52/56 119/176/56 120/177/56
f 28/33/57 109/178/57 111/179/57
f 44/51/58 118/180/58 119/181/58
f 42/47/59 117/182/59 118/183/59
f 42/47/60 40/45/60 116/184/60
f 38/43/61 115/185/61 116/186/61
f 38/43/62 36/41/62 114/187/62
f 1/27/1 2/1/1 3/3/1
f 3/3/2 4/2/2 5/5/2
f 5/5/3 6/4/3 7/7/3
f 7/7/4 8/6/4 9/9/4
f 9/9/5 10/8/5 11/11/5
f 11/11/6 12/10/6 13/13/6
f 13/13/7 14/12/7 15/15/7
f 15/15/8 16/14/8 17/17/8
f 17/17/9 18/16/9 19/19/9
f 19/188/10 20/20/10 21/22/10
f 6/25/11 4/189/11 22/23/11
f 2/190/11 24/191/11 22/23/11
f 22/23/11 20/192/11 18/193/11
f 18/193/11 16/194/11 22/23/11
f 14/24/11 12/195/11 10/196/11
f 10/196/11 8/197/11 14/24/11
f 4/189/11 2/190/11 22/23/11
f 22/23/11 16/194/11 14/24/11
f 14/24/11 8/197/11 6/25/11
f 23/28/12 24/26/12 1/27/12
f 21/22/13 22/21/13 23/28/13
f 23/31/14 1/198/14 3/199/14
f 3/199/14 5/200/14 23/31/14
f 7/29/14 9/201/14 11/202/14
f 11/202/14 13/7/14 7/29/14
f 15/30/14 17/203/14 19/204/14
f 19/204/14 21/205/14 15/30/14
f 23/31/14 5/200/14 7/29/14
f 7/29/14 13/7/14 15/30/14
f 15/30/14 21/205/14 23/31/14
f 25/57/1 26/32/1 27/34/1
f 27/34/2 28/33/2 29/36/2
f 29/36/3 30/35/3 31/38/3
f 31/38/4 32/37/4 33/40/4
f 33/40/5 34/39/5 35/42/5
f 35/42/6 36/41/6 37/44/6
f 37/44/7 38/43/7 39/46/7
f 39/46/8 40/45/8 41/48/8
f 41/48/9 42/47/9 43/50/9
f 43/206/10 44/51/10 45/53/10
f 36/41/15 34/39/15 114/55/15
f 47/58/12 48/56/12 25/57/12
f 45/53/13 46/52/13 47/58/13
f 31/38/16 33/40/16 58/60/16
f 29/36/17 31/38/17 59/62/17
f 27/34/18 29/36/18 60/63/18
f 25/57/19 27/34/19 49/65/19
f 25/57/20 49/66/20 47/58/20
f 47/58/21 50/68/21 45/53/21
f 43/206/22 45/53/22 52/70/22
f 43/50/23 52/71/23 41/48/23
f 39/46/24 41/48/24 54/73/24
f 37/44/25 39/46/25 55/75/25
f 35/42/26 37/44/26 56/77/26
f 35/42/27 56/78/27 33/40/27
f 52/207/10 51/79/10 64/81/10
f 79/116/28 67/82/28 78/84/28
f 59/93/3 58/85/3 71/87/3
f 56/98/6 55/88/6 68/90/6
f 53/100/9 52/91/9 65/92/9
f 60/102/2 59/93/2 72/94/2
f 50/103/12 49/95/12 61/97/12
f 57/104/5 56/98/5 69/99/5
f 54/105/8 53/100/8 66/101/8
f 49/95/1 60/102/1 62/96/1
f 51/79/13 50/103/13 63/80/13
f 58/85/4 57/104/4 70/86/4
f 55/88/7 54/105/7 67/89/7
f 79/142/14 78/106/14 91/108/14
f 64/208/29 63/109/29 76/111/29
f 71/209/30 70/112/30 83/114/30
f 68/210/31 67/115/31 80/117/31
f 65/211/32 64/118/32 77/120/32
f 72/212/33 71/121/33 84/122/33
f 73/132/34 61/123/34 74/125/34
f 69/213/63 68/126/63 81/127/63
f 66/214/36 65/128/36 78/84/36
f 74/125/37 62/129/37 84/122/37
f 63/215/64 61/131/64 75/110/64
f 82/113/39 70/133/39 81/127/39
f 94/162/40 93/135/40 106/86/40
f 76/144/14 75/136/14 88/138/14
f 83/146/14 82/139/14 95/141/14
f 80/151/14 79/142/14 92/143/14
f 77/153/14 76/144/14 89/145/14
f 84/154/14 83/146/14 96/147/14
f 73/155/14 74/148/14 85/150/14
f 81/156/14 80/151/14 93/152/14
f 78/106/14 77/153/14 90/107/14
f 74/148/14 84/154/14 86/149/14
f 87/137/14 75/136/14 85/150/14
f 82/139/14 81/156/14 94/140/14
f 99/159/14 97/216/14 98/217/14
f 98/217/14 108/218/14 107/219/14
f 107/219/14 106/220/14 105/157/14
f 105/157/14 104/221/14 103/158/14
f 103/158/14 102/222/14 99/159/14
f 101/223/14 100/224/14 99/159/14
f 99/159/14 98/217/14 107/219/14
f 107/219/14 105/157/14 99/159/14
f 102/222/14 101/223/14 99/159/14
f 91/164/41 90/160/41 103/96/41
f 88/225/42 87/161/42 100/29/42
f 95/166/43 94/162/43 107/99/43
f 104/94/44 92/163/44 103/96/44
f 89/168/45 88/165/45 101/80/45
f 96/169/46 95/166/46 108/90/46
f 85/170/47 86/167/47 97/101/47
f 93/135/48 92/163/48 105/87/48
f 90/160/49 89/168/49 102/97/49
f 98/89/50 86/167/50 108/90/50
f 87/161/51 85/170/51 99/92/51
f 113/226/52 34/39/52 112/171/52
f 110/227/53 26/32/53 120/172/53
f 109/228/54 28/33/54 110/173/54
f 32/37/55 30/35/55 112/175/55
f 48/56/56 46/52/56 120/177/56
f 30/35/57 28/33/57 111/179/57
f 46/52/58 44/51/58 119/181/58
f 44/49/59 42/47/59 118/183/59
f 117/229/60 42/47/60 116/184/60
f 40/45/61 38/43/61 116/186/61
f 115/230/62 38/43/62 114/187/62
