# Blender v2.76 (sub 0) OBJ File: 'mp_f_15_20.blend'
# www.blender.org
o Cylinder
v 0.000000 0.000000 -1.000000
v 0.000000 12.000000 -1.000000
v 0.500000 0.000000 -0.866025
v 0.500000 12.000000 -0.866025
v 0.866025 0.000000 -0.500000
v 0.866025 12.000000 -0.500000
v 1.000000 0.000000 0.000000
v 1.000000 12.000000 0.000000
v 0.866025 0.000000 0.500000
v 0.866025 12.000000 0.500000
v 0.500000 0.000000 0.866025
v 0.500000 12.000000 0.866025
v 0.000000 0.000000 1.000000
v 0.000000 12.000000 1.000000
v -0.500000 0.000000 0.866026
v -0.500000 12.000000 0.866026
v -0.866025 0.000000 0.500000
v -0.866025 12.000000 0.500000
v -1.000000 0.000000 0.000000
v -1.000000 12.000000 0.000000
v -0.866026 0.000000 -0.499999
v -0.866026 12.000000 -0.499999
v -0.500001 0.000000 -0.866025
v -0.500001 12.000000 -0.866025
v 0.000000 13.500000 -0.750000
v -0.375000 13.500000 -0.649519
v -0.649519 13.500000 -0.375000
v -0.750000 13.500000 0.000000
v -0.649519 13.500000 0.375000
v -0.375000 13.500000 0.649519
v -0.000000 13.500000 0.750000
v 0.375000 13.500000 0.649519
v 0.649519 13.500000 0.375000
v 0.750000 13.500000 0.000000
v 0.649519 13.500000 -0.375000
v 0.375000 13.500000 -0.649519
v -0.374999 16.000000 -0.649519
v 0.000001 16.000000 -0.750000
v -0.649518 16.000000 -0.375000
v -0.749999 16.000000 0.000000
v -0.649518 16.000000 0.375000
v -0.374999 16.000000 0.649519
v 0.000001 16.000000 0.750000
v 0.375001 16.000000 0.649519
v 0.649520 16.000000 0.375000
v 0.750001 16.000000 0.000000
v 0.649521 16.000000 -0.375000
v 0.375002 16.000000 -0.649519
vt 0.281250 0.750000
vt 0.250000 0.750000
vt 0.250000 0.000000
vt 0.218750 0.750000
vt 0.218750 0.000000
vt 0.187500 0.750000
vt 0.187500 0.000000
vt 0.156250 0.750000
vt 0.156250 0.000000
vt 0.125000 0.750000
vt 0.125000 0.000000
vt 0.093750 0.750000
vt 0.093750 0.000000
vt 0.062500 0.750000
vt 0.062500 0.000000
vt 0.031250 0.750000
vt 0.031250 0.000000
vt -0.000000 0.750000
vt 0.000062 0.000063
vt 0.375000 0.750000
vt 0.343750 0.750000
vt 0.343750 0.000000
vt 0.312500 0.750000
vt 0.281250 0.000000
vt 0.312500 0.000000
vt 0.499536 0.062500
vt 0.375464 0.062500
vt 0.406482 0.008776
vt 0.375000 0.843750
vt 0.343750 0.843750
vt 0.312500 0.843750
vt 0.281250 0.843750
vt 0.250000 0.843750
vt 0.218750 0.843750
vt 0.187500 0.843750
vt 0.156250 0.843750
vt 0.125000 0.843750
vt 0.093750 0.843750
vt 0.062500 0.843750
vt 0.031250 0.843750
vt -0.000000 0.843750
vt 0.031250 1.000000
vt 0.000000 1.000000
vt 0.399265 0.211037
vt 0.399265 0.132713
vt 0.467095 0.171875
vt 0.250000 1.000000
vt 0.218750 1.000000
vt 0.312500 1.000000
vt 0.281250 1.000000
vt 0.156250 1.000000
vt 0.125000 1.000000
vt 0.062500 1.000000
vt 0.343750 1.000000
vt 0.187500 1.000000
vt 0.093750 1.000000
vt 0.375000 1.000000
vt 0.375000 0.000000
vt 0.437500 0.000464
vt 0.468518 0.008776
vt 0.491224 0.031482
vt 0.491224 0.093518
vt 0.468518 0.116224
vt 0.437500 0.124536
vt 0.406482 0.116224
vt 0.383776 0.093518
vt 0.383776 0.031482
vt 0.461037 0.194485
vt 0.444485 0.211037
vt 0.421875 0.217095
vt 0.382713 0.194485
vt 0.376655 0.171875
vt 0.382713 0.149265
vt 0.421875 0.126655
vt 0.444485 0.132713
vt 0.461037 0.149265
vn 0.258800 0.000000 -0.965900
vn 0.707100 0.000000 -0.707100
vn 0.965900 0.000000 -0.258800
vn 0.965900 0.000000 0.258800
vn 0.707100 0.000000 0.707100
vn 0.258800 0.000000 0.965900
vn -0.258800 0.000000 0.965900
vn -0.707100 0.000000 0.707100
vn -0.965900 0.000000 0.258800
vn -0.965900 0.000000 -0.258800
vn -0.258800 0.000000 -0.965900
vn -0.707100 0.000000 -0.707100
vn 0.000000 -1.000000 0.000000
vn -0.953600 0.158900 -0.255500
vn -0.698100 0.158900 -0.698100
vn -0.255500 0.158900 -0.953600
vn 0.255500 0.158900 -0.953600
vn 0.698100 0.158900 -0.698100
vn 0.953600 0.158900 -0.255500
vn 0.953600 0.158900 0.255500
vn 0.698100 0.158900 0.698100
vn 0.255500 0.158900 0.953600
vn -0.255500 0.158900 0.953600
vn -0.698100 0.158900 0.698100
vn -0.953600 0.158900 0.255500
vn 0.000000 1.000000 0.000000
s off
f 2/1/1 4/2/1 3/3/1
f 4/2/2 6/4/2 5/5/2
f 6/4/3 8/6/3 7/7/3
f 8/6/4 10/8/4 9/9/4
f 10/8/5 12/10/5 11/11/5
f 12/10/6 14/12/6 13/13/6
f 14/12/7 16/14/7 15/15/7
f 16/14/8 18/16/8 17/17/8
f 18/16/9 20/18/9 19/19/9
f 20/20/10 22/21/10 21/22/10
f 24/23/11 2/1/11 1/24/11
f 22/21/12 24/23/12 23/25/12
f 7/26/13 19/27/13 23/28/13
f 22/21/14 20/20/14 28/29/14
f 24/23/15 22/21/15 27/30/15
f 2/1/16 24/23/16 26/31/16
f 2/1/17 25/32/17 36/33/17
f 4/2/18 36/33/18 35/34/18
f 6/4/19 35/34/19 34/35/19
f 10/8/20 8/6/20 34/35/20
f 12/10/21 10/8/21 33/36/21
f 12/10/22 32/37/22 31/38/22
f 14/12/23 31/38/23 30/39/23
f 16/14/24 30/39/24 29/40/24
f 18/16/25 29/40/25 28/41/25
f 29/40/9 41/42/9 40/43/9
f 41/44/26 45/45/26 38/46/26
f 36/33/2 48/47/2 47/48/2
f 26/31/11 37/49/11 38/50/11
f 33/36/5 45/51/5 44/52/5
f 30/39/8 42/53/8 41/42/8
f 25/32/1 38/50/1 48/47/1
f 27/30/12 39/54/12 37/49/12
f 34/35/4 46/55/4 45/51/4
f 31/38/7 43/56/7 42/53/7
f 28/29/10 40/57/10 39/54/10
f 35/34/3 47/48/3 46/55/3
f 31/38/6 32/37/6 44/52/6
f 1/24/1 2/1/1 3/3/1
f 3/3/2 4/2/2 5/5/2
f 5/5/3 6/4/3 7/7/3
f 7/7/4 8/6/4 9/9/4
f 9/9/5 10/8/5 11/11/5
f 11/11/6 12/10/6 13/13/6
f 13/13/7 14/12/7 15/15/7
f 15/15/8 16/14/8 17/17/8
f 17/17/9 18/16/9 19/19/9
f 19/58/10 20/20/10 21/22/10
f 23/25/11 24/23/11 1/24/11
f 21/22/12 22/21/12 23/25/12
f 23/28/13 1/59/13 3/60/13
f 3/60/13 5/61/13 7/26/13
f 7/26/13 9/62/13 11/63/13
f 11/63/13 13/64/13 15/65/13
f 15/65/13 17/66/13 19/27/13
f 19/27/13 21/67/13 23/28/13
f 23/28/13 3/60/13 7/26/13
f 7/26/13 11/63/13 15/65/13
f 15/65/13 19/27/13 7/26/13
f 27/30/14 22/21/14 28/29/14
f 26/31/15 24/23/15 27/30/15
f 25/32/16 2/1/16 26/31/16
f 4/2/17 2/1/17 36/33/17
f 6/4/18 4/2/18 35/34/18
f 8/6/19 6/4/19 34/35/19
f 33/36/20 10/8/20 34/35/20
f 32/37/21 12/10/21 33/36/21
f 14/12/22 12/10/22 31/38/22
f 16/14/23 14/12/23 30/39/23
f 18/16/24 16/14/24 29/40/24
f 20/18/25 18/16/25 28/41/25
f 28/41/9 29/40/9 40/43/9
f 38/46/26 37/68/26 39/69/26
f 39/69/26 40/70/26 38/46/26
f 41/44/26 42/71/26 43/72/26
f 43/72/26 44/73/26 45/45/26
f 45/45/26 46/74/26 47/75/26
f 47/75/26 48/76/26 45/45/26
f 38/46/26 40/70/26 41/44/26
f 41/44/26 43/72/26 45/45/26
f 45/45/26 48/76/26 38/46/26
f 35/34/2 36/33/2 47/48/2
f 25/32/11 26/31/11 38/50/11
f 32/37/5 33/36/5 44/52/5
f 29/40/8 30/39/8 41/42/8
f 36/33/1 25/32/1 48/47/1
f 26/31/12 27/30/12 37/49/12
f 33/36/4 34/35/4 45/51/4
f 30/39/7 31/38/7 42/53/7
f 27/30/10 28/29/10 39/54/10
f 34/35/3 35/34/3 46/55/3
f 43/56/6 31/38/6 44/52/6
