# Blender 3.4.1
# www.blender.org
mtllib mp_f_20_usa.mtl
o Cylinder_selection_selection
v 1.000000 12.000000 0.000002
v -1.000000 12.000000 0.000002
v -0.500000 12.000000 -0.866023
v 0.000000 12.000000 -0.999998
v 0.500000 12.000000 -0.866023
v 0.866025 12.000000 -0.499998
v 0.866025 12.000000 0.500002
v 0.500000 12.000000 0.866027
v 0.000000 12.000000 1.000002
v -0.500000 12.000000 0.866028
v -0.866026 12.000000 0.500002
v -0.866026 12.000000 -0.499997
v 1.000000 0.000000 0.000000
v -1.000000 0.000000 0.000000
v -0.500001 0.000000 -0.866025
v 0.000000 0.000000 -1.000000
v 0.500000 0.000000 -0.866025
v 0.866025 0.000000 -0.500000
v 0.866025 -0.000000 0.500000
v 0.500000 -0.000000 0.866025
v 0.000000 -0.000000 1.000000
v -0.500000 -0.000000 0.866026
v -0.866025 -0.000000 0.500000
v -0.866026 0.000000 -0.499999
vn -0.0000 1.0000 -0.0000
vn -0.0000 -1.0000 -0.0000
vn 0.2588 -0.0000 -0.9659
vn 0.7071 -0.0000 -0.7071
vn 0.9659 -0.0000 -0.2588
vn 0.9659 -0.0000 0.2588
vn 0.7071 -0.0000 0.7071
vn 0.2588 -0.0000 0.9659
vn -0.2588 -0.0000 0.9659
vn -0.7071 -0.0000 0.7071
vn -0.9659 -0.0000 0.2588
vn -0.9659 -0.0000 -0.2588
vn -0.2588 -0.0000 -0.9659
vn -0.7071 -0.0000 -0.7071
vt 0.499536 0.249100
vt 0.187500 1.000000
vt 0.375464 0.249100
vt 0.000000 1.000000
vt 0.375000 1.000000
vt 0.406482 0.320518
vt 0.312500 1.000000
vt 0.437500 0.331567
vt 0.281250 1.000000
vt 0.468518 0.320518
vt 0.250000 1.000000
vt 0.491224 0.290334
vt 0.218750 1.000000
vt 0.491224 0.207866
vt 0.156250 1.000000
vt 0.468518 0.177682
vt 0.125000 1.000000
vt 0.437500 0.166632
vt 0.093750 1.000000
vt 0.406482 0.177682
vt 0.062500 1.000000
vt 0.383776 0.207866
vt 0.031250 1.000000
vt 0.383776 0.290334
vt 0.343750 1.000000
vt 0.499536 0.082931
vt 0.187500 0.000000
vt 0.375464 0.082931
vt 0.000062 0.000084
vt 0.375000 0.000000
vt 0.406482 0.011514
vt 0.312500 0.000000
vt 0.437500 0.000464
vt 0.281250 0.000000
vt 0.468518 0.011514
vt 0.250000 0.000000
vt 0.491224 0.041698
vt 0.218750 0.000000
vt 0.491224 0.124165
vt 0.156250 0.000000
vt 0.468518 0.154349
vt 0.125000 0.000000
vt 0.437500 0.165399
vt 0.093750 0.000000
vt 0.406482 0.154349
vt 0.062500 0.000000
vt 0.383776 0.124165
vt 0.031250 0.000000
vt 0.383776 0.041698
vt 0.343750 0.000000
s 0
usemtl 
f 1/1/1 2/3/1 10/20/1
f 10/20/1 9/18/1 8/16/1
f 8/16/1 7/14/1 1/1/1
f 1/1/1 6/12/1 5/10/1
f 5/10/1 4/8/1 3/6/1
f 3/6/1 12/24/1 2/3/1
f 2/3/1 11/22/1 10/20/1
f 10/20/1 8/16/1 1/1/1
f 1/1/1 5/10/1 3/6/1
f 3/6/1 2/3/1 1/1/1
f 13/26/2 14/28/2 15/31/2
f 15/31/2 16/33/2 17/35/2
f 17/35/2 18/37/2 13/26/2
f 13/26/2 19/39/2 20/41/2
f 20/41/2 21/43/2 22/45/2
f 22/45/2 23/47/2 14/28/2
f 14/28/2 24/49/2 15/31/2
f 15/31/2 17/35/2 13/26/2
f 13/26/2 20/41/2 22/45/2
f 22/45/2 14/28/2 13/26/2
f 4/9/3 5/11/3 17/36/3
f 5/11/4 6/13/4 18/38/4
f 6/13/5 1/2/5 13/27/5
f 1/2/6 7/15/6 19/40/6
f 7/15/7 8/17/7 20/42/7
f 8/17/8 9/19/8 21/44/8
f 9/19/9 10/21/9 22/46/9
f 10/21/10 11/23/10 23/48/10
f 11/23/11 2/4/11 14/29/11
f 2/5/12 12/25/12 24/50/12
f 3/7/13 4/9/13 16/34/13
f 12/25/14 3/7/14 15/32/14
f 16/34/3 4/9/3 17/36/3
f 17/36/4 5/11/4 18/38/4
f 18/38/5 6/13/5 13/27/5
f 13/27/6 1/2/6 19/40/6
f 19/40/7 7/15/7 20/42/7
f 20/42/8 8/17/8 21/44/8
f 21/44/9 9/19/9 22/46/9
f 22/46/10 10/21/10 23/48/10
f 23/48/11 11/23/11 14/29/11
f 14/30/12 2/5/12 24/50/12
f 15/32/13 3/7/13 16/34/13
f 24/50/14 12/25/14 15/32/14
