# Blender v2.76 (sub 0) OBJ File: 'mp_f_10_15.blend'
# www.blender.org
o Cylinder.001
v 0.000000 5.500000 -0.500000
v 0.000000 9.000000 -0.500000
v 0.250000 5.500000 -0.433013
v 0.250000 9.000000 -0.433013
v 0.433013 5.500000 -0.250000
v 0.433013 9.000000 -0.250000
v 0.500000 5.500000 0.000000
v 0.500000 9.000000 0.000000
v 0.433013 5.500000 0.250000
v 0.433013 9.000000 0.250000
v 0.250000 5.500000 0.433013
v 0.250000 9.000000 0.433013
v 0.000000 5.500000 0.500000
v 0.000000 9.000000 0.500000
v -0.250000 5.500000 0.433013
v -0.250000 9.000000 0.433013
v -0.433013 5.500000 0.250000
v -0.433013 9.000000 0.250000
v -0.500000 5.500000 0.000000
v -0.500000 9.000000 0.000000
v -0.433013 5.500000 -0.250000
v -0.433013 9.000000 -0.250000
v -0.250000 5.500000 -0.433012
v -0.250000 9.000000 -0.433012
v 0.000000 4.500000 -0.750000
v 0.375000 4.500000 -0.649519
v 0.649519 4.500000 -0.375000
v 0.750000 4.500000 -0.000000
v 0.649519 4.500000 0.375000
v 0.375000 4.500000 0.649519
v 0.000000 4.500000 0.750000
v -0.375000 4.500000 0.649519
v -0.649519 4.500000 0.375000
v -0.750000 4.500000 0.000000
v -0.649519 4.500000 -0.375000
v -0.375000 4.500000 -0.649519
v -0.000000 0.000000 -0.750000
v 0.375000 0.000000 -0.649519
v 0.649519 0.000000 -0.375000
v 0.750000 0.000000 -0.000000
v 0.649519 0.000000 0.375000
v 0.375000 0.000000 0.649519
v 0.000000 0.000000 0.750000
v -0.375000 0.000000 0.649519
v -0.649519 0.000000 0.375000
v -0.750000 0.000000 0.000000
v -0.649519 0.000000 -0.375000
v -0.375001 0.000000 -0.649519
vt 0.321429 1.000000
vt 0.285714 1.000000
vt 0.285714 0.523810
vt 0.250000 1.000000
vt 0.250000 0.523810
vt 0.214286 1.000000
vt 0.214286 0.523810
vt 0.178571 1.000000
vt 0.178571 0.523810
vt 0.142857 1.000000
vt 0.142857 0.523810
vt 0.107143 1.000000
vt 0.107143 0.523810
vt 0.071429 1.000000
vt 0.071429 0.523810
vt 0.035714 1.000000
vt 0.035714 0.523810
vt -0.000000 1.000000
vt -0.000000 0.523810
vt 0.428571 1.000000
vt 0.392857 1.000000
vt 0.392857 0.523810
vt 0.434524 0.166667
vt 0.517857 0.214286
vt 0.517857 0.166667
vt 0.357143 1.000000
vt 0.321429 0.523810
vt 0.357143 0.523810
vt 0.178571 0.428571
vt 0.214286 0.428571
vt 0.250000 0.428571
vt 0.250000 -0.000000
vt 0.285714 -0.000000
vt 0.321429 0.428571
vt 0.357143 0.428571
vt 0.285714 0.428571
vt 0.392857 0.428571
vt 0.428571 0.428571
vt 0.000000 0.428571
vt 0.035714 0.428571
vt 0.071429 0.428571
vt 0.107143 0.428571
vt 0.142857 0.428571
vt 0.440476 0.035714
vt 0.440476 0.107143
vt 0.559524 0.107143
vt 0.000000 0.000000
vt 0.035714 0.000000
vt 0.107143 0.000000
vt 0.142857 0.000000
vt 0.214286 -0.000000
vt 0.392857 0.000000
vt 0.071429 0.000000
vt 0.178571 -0.000000
vt 0.357143 -0.000000
vt 0.321429 -0.000000
vt 0.428571 0.523810
vt 0.500000 0.148810
vt 0.476190 0.142857
vt 0.452381 0.148810
vt 0.428571 0.190476
vt 0.434524 0.214286
vt 0.452381 0.232143
vt 0.476190 0.238095
vt 0.500000 0.232143
vt 0.523810 0.190476
vt 0.571429 0.071429
vt 0.559524 0.035714
vt 0.535714 0.011905
vt 0.500000 -0.000000
vt 0.464286 0.011905
vt 0.428571 0.071429
vt 0.464286 0.130952
vt 0.500000 0.142857
vt 0.535714 0.130952
vt 0.428571 0.000000
vn 0.258800 0.000000 -0.965900
vn 0.707100 0.000000 -0.707100
vn 0.965900 0.000000 -0.258800
vn 0.965900 0.000000 0.258800
vn 0.707100 0.000000 0.707100
vn 0.258800 0.000000 0.965900
vn -0.258800 0.000000 0.965900
vn -0.707100 0.000000 0.707100
vn -0.965900 0.000000 0.258800
vn -0.965900 0.000000 -0.258800
vn 0.000000 1.000000 -0.000000
vn -0.258800 0.000000 -0.965900
vn -0.707100 0.000000 -0.707100
vn 0.938900 0.234700 0.251600
vn -0.251600 0.234700 -0.938900
vn 0.251600 0.234700 -0.938900
vn 0.938900 0.234700 -0.251600
vn -0.687400 0.234700 -0.687300
vn 0.687400 0.234700 -0.687300
vn -0.938900 0.234700 -0.251600
vn -0.938900 0.234700 0.251600
vn -0.687300 0.234700 0.687400
vn -0.251600 0.234700 0.938900
vn 0.251600 0.234700 0.938900
vn 0.687300 0.234700 0.687300
vn 0.000000 -1.000000 0.000000
vn 0.687400 0.234700 0.687300
s off
f 2/1/1 4/2/1 3/3/1
f 4/2/2 6/4/2 5/5/2
f 6/4/3 8/6/3 7/7/3
f 8/6/4 10/8/4 9/9/4
f 10/8/5 12/10/5 11/11/5
f 12/10/6 14/12/6 13/13/6
f 14/12/7 16/14/7 15/15/7
f 16/14/8 18/16/8 17/17/8
f 18/16/9 20/18/9 19/19/9
f 20/20/10 22/21/10 21/22/10
f 22/23/11 10/24/11 6/25/11
f 24/26/12 2/1/12 1/27/12
f 22/21/13 24/26/13 23/28/13
f 9/9/14 29/29/14 28/30/14
f 27/31/2 39/32/2 38/33/2
f 1/27/15 25/34/15 36/35/15
f 1/27/16 3/3/16 26/36/16
f 5/5/17 7/7/17 28/30/17
f 23/28/18 36/35/18 35/37/18
f 5/5/19 27/31/19 26/36/19
f 21/22/20 35/37/20 34/38/20
f 19/19/21 34/39/21 33/40/21
f 17/17/22 33/40/22 32/41/22
f 13/13/23 15/15/23 32/41/23
f 13/13/24 31/42/24 30/43/24
f 11/11/25 30/43/25 29/29/25
f 42/44/26 44/45/26 48/46/26
f 34/39/9 46/47/9 45/48/9
f 31/42/6 43/49/6 42/50/6
f 28/30/3 40/51/3 39/32/3
f 34/38/10 35/37/10 47/52/10
f 32/41/7 44/53/7 43/49/7
f 29/29/4 41/54/4 40/51/4
f 36/35/13 48/55/13 47/52/13
f 26/36/1 38/33/1 37/56/1
f 33/40/8 45/48/8 44/53/8
f 30/43/5 42/50/5 41/54/5
f 25/34/12 37/56/12 48/55/12
f 1/27/1 2/1/1 3/3/1
f 3/3/2 4/2/2 5/5/2
f 5/5/3 6/4/3 7/7/3
f 7/7/4 8/6/4 9/9/4
f 9/9/5 10/8/5 11/11/5
f 11/11/6 12/10/6 13/13/6
f 13/13/7 14/12/7 15/15/7
f 15/15/8 16/14/8 17/17/8
f 17/17/9 18/16/9 19/19/9
f 19/57/10 20/20/10 21/22/10
f 6/25/11 4/58/11 2/59/11
f 2/59/11 24/60/11 22/23/11
f 22/23/11 20/61/11 18/62/11
f 18/62/11 16/63/11 22/23/11
f 14/64/11 12/65/11 10/24/11
f 10/24/11 8/66/11 6/25/11
f 6/25/11 2/59/11 22/23/11
f 22/23/11 16/63/11 14/64/11
f 14/64/11 10/24/11 22/23/11
f 23/28/12 24/26/12 1/27/12
f 21/22/13 22/21/13 23/28/13
f 7/7/14 9/9/14 28/30/14
f 26/36/2 27/31/2 38/33/2
f 23/28/15 1/27/15 36/35/15
f 25/34/16 1/27/16 26/36/16
f 27/31/17 5/5/17 28/30/17
f 21/22/18 23/28/18 35/37/18
f 3/3/19 5/5/19 26/36/19
f 19/57/20 21/22/20 34/38/20
f 17/17/21 19/19/21 33/40/21
f 15/15/22 17/17/22 32/41/22
f 31/42/23 13/13/23 32/41/23
f 11/11/24 13/13/24 30/43/24
f 9/9/27 11/11/27 29/29/27
f 48/46/26 37/67/26 38/68/26
f 38/68/26 39/69/26 40/70/26
f 40/70/26 41/71/26 42/44/26
f 42/44/26 43/72/26 44/45/26
f 44/45/26 45/73/26 46/74/26
f 46/74/26 47/75/26 48/46/26
f 48/46/26 38/68/26 40/70/26
f 40/70/26 42/44/26 48/46/26
f 44/45/26 46/74/26 48/46/26
f 33/40/9 34/39/9 45/48/9
f 30/43/6 31/42/6 42/50/6
f 27/31/3 28/30/3 39/32/3
f 46/76/10 34/38/10 47/52/10
f 31/42/7 32/41/7 43/49/7
f 28/30/4 29/29/4 40/51/4
f 35/37/13 36/35/13 47/52/13
f 25/34/1 26/36/1 37/56/1
f 32/41/8 33/40/8 44/53/8
f 29/29/5 30/43/5 41/54/5
f 36/35/12 25/34/12 48/55/12
