# Blender 4.0.1
# www.blender.org
o mp_f_20_6_usa
v -1.000000 6.000000 0.000001
v 0.866025 6.000000 -0.499999
v 0.500000 6.000000 0.866026
v -0.866026 6.000000 0.500001
v -0.866026 6.000000 -0.499998
v 1.000000 0.000000 0.000000
v -1.000000 0.000000 0.000000
v -0.500001 -0.000000 -0.866025
v 0.000000 -0.000000 -1.000000
v 0.500000 -0.000000 -0.866025
v 0.866025 -0.000000 -0.500000
v 0.866025 0.000000 0.500000
v 0.500000 0.000000 0.866025
v 0.000000 0.000000 1.000000
v -0.500000 0.000000 0.866026
v -0.866025 0.000000 0.500000
v -0.866026 -0.000000 -0.499999
v 1.000000 6.000000 0.000001
v -0.500000 6.000000 -0.866024
v 0.000000 6.000000 -0.999999
v 0.500000 6.000000 -0.866024
v 0.866025 6.000000 0.500001
v 0.000000 6.000000 1.000000
v -0.500000 6.000000 0.866027
vn -0.0000 1.0000 -0.0000
vn -0.0000 -1.0000 -0.0000
vn -0.0000 -0.0000 1.0000
vn -0.5000 -0.0000 0.8660
vn -0.8660 -0.0000 0.5000
vn -0.8660 -0.0000 -0.5000
vn -0.5000 -0.0000 -0.8660
vn -0.0000 -0.0000 -1.0000
vn -1.0000 -0.0000 -0.0000
vn 0.5000 -0.0000 0.8660
vn 0.5000 -0.0000 -0.8660
vn 1.0000 -0.0000 -0.0000
vn 0.8660 -0.0000 0.5000
vn 0.8660 -0.0000 -0.5000
vt 0.499536 0.249100
vt 0.375464 0.249100
vt 0.406482 0.177682
vt 0.437500 0.166632
vt 0.468518 0.177682
vt 0.491224 0.207866
vt 0.491224 0.290334
vt 0.468518 0.320518
vt 0.437500 0.331567
vt 0.406482 0.320518
vt 0.383776 0.290334
vt 0.383776 0.207866
vt 0.499536 0.082931
vt 0.375464 0.082931
vt 0.406482 0.011514
vt 0.437500 0.000464
vt 0.468518 0.011514
vt 0.491224 0.041698
vt 0.491224 0.124165
vt 0.468518 0.154349
vt 0.437500 0.165399
vt 0.406482 0.154349
vt 0.383776 0.124165
vt 0.383776 0.041698
vt 0.093750 0.500000
vt 0.062500 0.000000
vt 0.093750 0.000000
vt 0.062500 0.500000
vt 0.031250 0.000000
vt 0.343750 0.000000
vt 0.312500 0.500000
vt 0.312500 0.000000
vt 0.281250 0.500000
vt 0.281250 0.000000
vt 0.031250 0.500000
vt 0.000062 0.000084
vt 0.125000 0.500000
vt 0.125000 0.000000
vt 0.250000 0.000000
vt 0.187500 0.500000
vt 0.156250 0.000000
vt 0.187500 0.000000
vt 0.218750 0.500000
vt 0.218750 0.000000
vt 0.375000 0.500000
vt 0.375000 0.000000
vt 0.156250 0.500000
vt 0.343750 0.500000
vt 0.000031 0.500042
vt 0.250000 0.500000
s 1
f 18/1/1 1/2/1 24/3/1
f 24/3/1 23/4/1 3/5/1
f 3/5/1 22/6/1 18/1/1
f 18/1/1 2/7/1 21/8/1
f 21/8/1 20/9/1 19/10/1
f 19/10/1 5/11/1 1/2/1
f 1/2/1 4/12/1 24/3/1
f 24/3/1 3/5/1 18/1/1
f 18/1/1 21/8/1 19/10/1
f 19/10/1 1/2/1 18/1/1
f 6/13/2 7/14/2 8/15/2
f 8/15/2 9/16/2 10/17/2
f 10/17/2 11/18/2 6/13/2
f 6/13/2 12/19/2 13/20/2
f 13/20/2 14/21/2 15/22/2
f 15/22/2 16/23/2 7/14/2
f 7/14/2 17/24/2 8/15/2
f 8/15/2 10/17/2 6/13/2
f 6/13/2 13/20/2 15/22/2
f 15/22/2 7/14/2 6/13/2
f 23/25/3 15/26/4 14/27/3
f 24/28/4 16/29/5 15/26/4
f 17/30/6 19/31/7 8/32/7
f 8/32/7 20/33/8 9/34/8
f 4/35/5 7/36/9 16/29/5
f 3/37/10 14/27/3 13/38/10
f 20/33/8 10/39/11 9/34/8
f 18/40/12 12/41/13 6/42/12
f 2/43/14 6/42/12 11/44/14
f 10/39/11 2/43/14 11/44/14
f 1/45/9 17/30/6 7/46/9
f 22/47/13 13/38/10 12/41/13
f 23/25/3 24/28/4 15/26/4
f 24/28/4 4/35/5 16/29/5
f 17/30/6 5/48/6 19/31/7
f 8/32/7 19/31/7 20/33/8
f 4/35/5 1/49/9 7/36/9
f 3/37/10 23/25/3 14/27/3
f 20/33/8 21/50/11 10/39/11
f 18/40/12 22/47/13 12/41/13
f 2/43/14 18/40/12 6/42/12
f 10/39/11 21/50/11 2/43/14
f 1/45/9 5/48/6 17/30/6
f 22/47/13 3/37/10 13/38/10
