# Blender v2.76 (sub 0) OBJ File: 'mp_f_15_hydrogen.blend'
# www.blender.org
o Cylinder
v 0.000000 0.000000 -0.750000
v 0.000000 4.500000 -0.750000
v 0.375000 0.000000 -0.649519
v 0.375000 4.500000 -0.649519
v 0.649519 0.000000 -0.375000
v 0.649519 4.500000 -0.375000
v 0.750000 0.000000 -0.000000
v 0.750000 4.500000 -0.000000
v 0.649519 0.000000 0.375000
v 0.649519 4.500000 0.375000
v 0.375000 0.000000 0.649519
v 0.375000 4.500000 0.649519
v 0.000000 0.000000 0.750000
v 0.000000 4.500000 0.750000
v -0.375000 0.000000 0.649519
v -0.375000 4.500000 0.649519
v -0.649519 0.000000 0.375000
v -0.649519 4.500000 0.375000
v -0.750000 0.000000 0.000000
v -0.750000 4.500000 0.000000
v -0.649519 0.000000 -0.375000
v -0.649519 4.500000 -0.375000
v -0.375000 0.000000 -0.649519
v -0.375000 4.500000 -0.649519
v 0.000000 5.500000 -0.750000
v 0.000000 10.000000 -0.750000
v 0.375000 5.500000 -0.649519
v 0.375000 10.000000 -0.649519
v 0.649519 5.500000 -0.375000
v 0.649519 10.000000 -0.375000
v 0.750000 5.500000 -0.000000
v 0.750000 10.000000 -0.000000
v 0.649519 5.500000 0.375000
v 0.649519 10.000000 0.375000
v 0.375000 5.500000 0.649519
v 0.375000 10.000000 0.649519
v 0.000000 5.500000 0.750000
v 0.000000 10.000000 0.750000
v -0.375000 5.500000 0.649519
v -0.375000 10.000000 0.649519
v -0.649519 5.500000 0.375000
v -0.649519 10.000000 0.375000
v -0.750000 5.500000 0.000000
v -0.750000 10.000000 0.000000
v -0.649519 5.500000 -0.375000
v -0.649519 10.000000 -0.375000
v -0.375000 5.500000 -0.649519
v -0.375000 10.000000 -0.649519
v 0.281250 4.500000 -0.487139
v 0.000000 4.500000 -0.562500
v 0.487139 4.500000 -0.281250
v 0.562500 4.500000 0.000000
v 0.487139 4.500000 0.281250
v 0.281250 4.500000 0.487139
v 0.000000 4.500000 0.562500
v -0.281250 4.500000 0.487139
v -0.487139 4.500000 0.281250
v -0.562500 4.500000 0.000000
v -0.487139 4.500000 -0.281250
v -0.281250 4.500000 -0.487139
v 0.000000 5.500000 -0.562500
v 0.281250 5.500000 -0.487139
v 0.487139 5.500000 -0.281250
v 0.562500 5.500000 0.000000
v 0.487139 5.500000 0.281250
v 0.281250 5.500000 0.487139
v 0.000000 5.500000 0.562500
v -0.281250 5.500000 0.487139
v -0.487139 5.500000 0.281250
v -0.562500 5.500000 0.000000
v -0.487139 5.500000 -0.281250
v -0.281250 5.500000 -0.487139
v 0.281250 4.375000 -0.487139
v -0.000000 4.375000 -0.562500
v 0.487139 4.375000 -0.281250
v 0.562500 4.375000 0.000000
v 0.487139 4.375000 0.281250
v 0.281250 4.375000 0.487139
v 0.000000 4.375000 0.562500
v -0.281250 4.375000 0.487139
v -0.487139 4.375000 0.281250
v -0.562500 4.375000 0.000000
v -0.487139 4.375000 -0.281250
v -0.281250 4.375000 -0.487139
v -0.000000 5.625000 -0.562500
v 0.281250 5.625000 -0.487139
v 0.487139 5.625000 -0.281250
v 0.562500 5.625000 0.000000
v 0.487139 5.625000 0.281250
v 0.281250 5.625000 0.487139
v 0.000000 5.625000 0.562500
v -0.281250 5.625000 0.487139
v -0.487139 5.625000 0.281250
v -0.562500 5.625000 0.000000
v -0.487139 5.625000 -0.281250
v -0.281250 5.625000 -0.487139
v 0.225000 4.437500 -0.389711
v -0.000000 4.437500 -0.450000
v 0.389711 4.437500 -0.225000
v 0.450000 4.437500 0.000000
v 0.389711 4.437500 0.225000
v 0.225000 4.437500 0.389711
v 0.000000 4.437500 0.450000
v -0.225000 4.437500 0.389711
v -0.389711 4.437500 0.225000
v -0.450000 4.437500 0.000000
v -0.389712 4.437500 -0.225000
v -0.225000 4.437500 -0.389711
v 0.112500 4.500000 -0.194856
v 0.000000 4.500000 -0.225000
v 0.194856 4.500000 -0.112500
v 0.225000 4.500000 0.000000
v 0.194856 4.500000 0.112500
v 0.112500 4.500000 0.194856
v 0.000000 4.500000 0.225000
v -0.112500 4.500000 0.194856
v -0.194856 4.500000 0.112500
v -0.225000 4.500000 0.000000
v -0.194856 4.500000 -0.112500
v -0.112500 4.500000 -0.194856
v -0.000000 5.562500 -0.450000
v 0.225000 5.562500 -0.389711
v 0.389711 5.562500 -0.225000
v 0.450000 5.562500 0.000000
v 0.389711 5.562500 0.225000
v 0.225000 5.562500 0.389711
v 0.000000 5.562500 0.450000
v -0.225000 5.562500 0.389711
v -0.389711 5.562500 0.225000
v -0.450000 5.562500 0.000000
v -0.389712 5.562500 -0.225000
v -0.225000 5.562500 -0.389711
v -0.000000 5.500000 -0.225000
v 0.112500 5.500000 -0.194856
v 0.194856 5.500000 -0.112500
v 0.225000 5.500000 0.000000
v 0.194856 5.500000 0.112500
v 0.112500 5.500000 0.194856
v 0.000000 5.500000 0.225000
v -0.112500 5.500000 0.194856
v -0.194856 5.500000 0.112500
v -0.225000 5.500000 0.000000
v -0.194856 5.500000 -0.112500
v -0.112500 5.500000 -0.194856
v 0.000000 4.500000 -0.750000
v 0.375000 4.500000 -0.649519
v 0.649519 4.500000 -0.375000
v 0.750000 4.500000 -0.000000
v 0.649519 4.500000 0.375000
v 0.375000 4.500000 0.649519
v 0.000000 4.500000 0.750000
v -0.375000 4.500000 0.649519
v -0.649519 4.500000 0.375000
v -0.750000 4.500000 0.000000
v -0.649519 4.500000 -0.375000
v -0.375000 4.500000 -0.649519
v 0.000000 5.500000 -0.750000
v 0.375000 5.500000 -0.649519
v 0.649519 5.500000 -0.375000
v 0.750000 5.500000 -0.000000
v 0.649519 5.500000 0.375000
v 0.375000 5.500000 0.649519
v 0.000000 5.500000 0.750000
v -0.375000 5.500000 0.649519
v -0.649519 5.500000 0.375000
v -0.750000 5.500000 0.000000
v -0.649519 5.500000 -0.375000
v -0.375000 5.500000 -0.649519
vt 0.337500 0.450000
vt 0.300000 0.450000
vt 0.300000 0.000000
vt 0.262500 0.450000
vt 0.262500 0.000000
vt 0.225000 0.450000
vt 0.225000 0.000000
vt 0.187500 0.450000
vt 0.187500 0.000000
vt 0.150000 0.450000
vt 0.150000 0.000000
vt 0.112500 0.450000
vt 0.112500 0.000000
vt 0.075000 0.450000
vt 0.075000 0.000000
vt 0.037500 0.450000
vt 0.037500 0.000000
vt -0.000000 0.450000
vt -0.000000 0.000000
vt 0.450000 0.450000
vt 0.412500 0.450000
vt 0.412500 0.000000
vt 0.637500 0.012500
vt 0.650000 0.025000
vt 0.625000 0.050000
vt 0.375000 0.450000
vt 0.337500 0.000000
vt 0.375000 0.000000
vt 0.525000 0.000000
vt 0.462500 0.112500
vt 0.587500 0.037500
vt 0.337500 1.000000
vt 0.300000 1.000000
vt 0.300000 0.550000
vt 0.262500 1.000000
vt 0.262500 0.550000
vt 0.225000 1.000000
vt 0.225000 0.550000
vt 0.187500 1.000000
vt 0.187500 0.550000
vt 0.150000 1.000000
vt 0.150000 0.550000
vt 0.112500 1.000000
vt 0.112500 0.550000
vt 0.075000 1.000000
vt 0.075000 0.550000
vt 0.037500 1.000000
vt 0.037500 0.550000
vt -0.000000 1.000000
vt -0.000000 0.550000
vt 0.450000 1.000000
vt 0.412500 1.000000
vt 0.412500 0.550000
vt 0.462500 0.187500
vt 0.525000 0.300000
vt 0.587500 0.187500
vt 0.375000 1.000000
vt 0.337500 0.550000
vt 0.375000 0.550000
vt 0.750000 0.075000
vt 0.737500 0.112500
vt 0.725000 0.100000
vt 0.187500 0.437500
vt 0.225000 0.437500
vt 0.300000 0.562500
vt 0.675000 0.150000
vt 0.675000 0.131250
vt 0.700000 0.125000
vt 0.750000 0.225000
vt 0.737500 0.262500
vt 0.725000 0.250000
vt 0.612500 0.262500
vt 0.600000 0.225000
vt 0.618750 0.225000
vt 0.712500 0.012500
vt 0.700000 0.025000
vt 0.675000 0.018750
vt 0.612500 0.112500
vt 0.625000 0.100000
vt 0.650000 0.125000
vt 0.712500 0.162500
vt 0.737500 0.187500
vt 0.725000 0.200000
vt 0.637500 0.287500
vt 0.650000 0.275000
vt 0.675000 0.281250
vt 0.675000 0.168750
vt 0.650000 0.175000
vt 0.731250 0.075000
vt 0.725000 0.050000
vt 0.612500 0.037500
vt 0.618750 0.075000
vt 0.712500 0.287500
vt 0.700000 0.275000
vt 0.612500 0.187500
vt 0.625000 0.200000
vt 0.712500 0.137500
vt 0.675000 0.000000
vt 0.637500 0.137500
vt 0.731250 0.225000
vt 0.625000 0.250000
vt 0.700000 0.175000
vt 0.737500 0.037500
vt 0.600000 0.075000
vt 0.675000 0.300000
vt 0.637500 0.162500
vt 0.531250 0.300000
vt 0.562500 0.312500
vt 0.550000 0.325000
vt -0.000000 0.437500
vt 0.037500 0.437500
vt 0.337500 0.437500
vt 0.375000 0.437500
vt 0.262500 0.437500
vt 0.075000 0.437500
vt 0.112500 0.437500
vt 0.150000 0.437500
vt 0.412500 0.437500
vt 0.300000 0.437500
vt 0.450000 0.437500
vt 0.493750 0.550000
vt 0.462500 0.537500
vt 0.475000 0.525000
vt 0.037500 0.562500
vt 0.150000 0.562500
vt 0.337500 0.562500
vt 0.262500 0.562500
vt -0.000000 0.562500
vt 0.112500 0.562500
vt 0.225000 0.562500
vt 0.412500 0.562500
vt 0.450000 0.550000
vt 0.075000 0.562500
vt 0.187500 0.562500
vt 0.375000 0.562500
vt 0.525000 0.412500
vt 0.518750 0.387500
vt 0.531250 0.381250
vt 0.575000 0.381250
vt 0.562500 0.412500
vt 0.550000 0.400000
vt 0.450000 0.343750
vt 0.462500 0.350000
vt 0.462500 0.375000
vt 0.525000 0.312500
vt 0.500000 0.312500
vt 0.562500 0.375000
vt 0.562500 0.350000
vt 0.462500 0.412500
vt 0.450000 0.381250
vt 0.531250 0.425000
vt 0.493750 0.425000
vt 0.500000 0.412500
vt 0.493750 0.300000
vt 0.475000 0.325000
vt 0.575000 0.343750
vt 0.475000 0.400000
vt 0.462500 0.312500
vt 0.493750 0.343750
vt 0.518750 0.337500
vt 0.487500 0.356250
vt 0.531250 0.343750
vt 0.537500 0.368750
vt 0.487500 0.368750
vt 0.506250 0.337500
vt 0.493750 0.381250
vt 0.506250 0.387500
vt 0.537500 0.356250
vt 0.562500 0.500000
vt 0.537500 0.493750
vt 0.537500 0.481250
vt 0.562500 0.537500
vt 0.550000 0.525000
vt 0.562500 0.437500
vt 0.550000 0.450000
vt 0.450000 0.506250
vt 0.462500 0.500000
vt 0.531250 0.550000
vt 0.525000 0.537500
vt 0.575000 0.468750
vt 0.562500 0.475000
vt 0.450000 0.468750
vt 0.462500 0.475000
vt 0.500000 0.437500
vt 0.475000 0.450000
vt 0.500000 0.537500
vt 0.575000 0.506250
vt 0.462500 0.437500
vt 0.525000 0.437500
vt 0.531250 0.468750
vt 0.493750 0.506250
vt 0.487500 0.481250
vt 0.493750 0.468750
vt 0.518750 0.462500
vt 0.506250 0.512500
vt 0.531250 0.506250
vt 0.487500 0.493750
vt 0.518750 0.512500
vt 0.506250 0.462500
vt 0.450000 0.000000
vt 0.587500 0.112500
vt 0.562500 0.012500
vt 0.487500 0.012500
vt 0.462500 0.037500
vt 0.450000 0.075000
vt 0.487500 0.137500
vt 0.525000 0.150000
vt 0.562500 0.137500
vt 0.562500 0.162500
vt 0.487500 0.162500
vt 0.450000 0.225000
vt 0.462500 0.262500
vt 0.487500 0.287500
vt 0.562500 0.287500
vt 0.587500 0.262500
vt 0.450000 0.562500
vn 0.258800 0.000000 -0.965900
vn 0.707100 0.000000 -0.707100
vn 0.965900 0.000000 -0.258800
vn 0.965900 0.000000 0.258800
vn 0.707100 0.000000 0.707100
vn 0.258800 0.000000 0.965900
vn -0.258800 0.000000 0.965900
vn -0.707100 0.000000 0.707100
vn -0.965900 0.000000 0.258800
vn -0.965900 0.000000 -0.258800
vn 0.000000 1.000000 0.000000
vn -0.258800 0.000000 -0.965900
vn -0.707100 0.000000 -0.707100
vn 0.000000 -1.000000 0.000000
vn 0.129000 0.866800 0.481600
vn -0.481600 -0.866800 0.129000
vn 0.195400 0.961000 -0.195400
vn 0.481600 0.866800 -0.129000
vn -0.481600 0.866800 -0.129000
vn -0.129000 0.866800 0.481600
vn 0.481600 0.866800 0.129000
vn -0.352500 0.866800 -0.352500
vn 0.129000 0.866800 -0.481600
vn -0.352500 0.866800 0.352500
vn 0.352500 0.866800 0.352500
vn -0.129000 0.866800 -0.481600
vn 0.352500 0.866800 -0.352500
vn -0.481600 0.866800 0.129000
vn -0.267000 0.961000 0.071500
vn 0.071500 0.961100 0.267000
vn 0.267000 0.961000 -0.071500
vn -0.267000 0.961000 -0.071500
vn -0.071500 0.961100 0.267000
vn 0.267000 0.961000 0.071500
vn -0.195400 0.961000 -0.195400
vn 0.071500 0.961000 -0.267000
vn -0.195400 0.961000 0.195400
vn 0.195400 0.961000 0.195400
vn -0.071500 0.961100 -0.267000
vn 0.195400 -0.961000 0.195400
vn 0.129000 -0.866800 0.481600
vn 0.481600 -0.866800 -0.129000
vn -0.481600 -0.866800 -0.129000
vn -0.129000 -0.866800 0.481600
vn 0.481600 -0.866800 0.129000
vn -0.352500 -0.866800 -0.352500
vn 0.129000 -0.866900 -0.481600
vn -0.352500 -0.866800 0.352500
vn 0.352500 -0.866800 0.352500
vn -0.129000 -0.866900 -0.481600
vn 0.352500 -0.866800 -0.352500
vn -0.071500 -0.961100 -0.267000
vn 0.195400 -0.961000 -0.195400
vn -0.267000 -0.961100 0.071500
vn 0.071500 -0.961000 0.267000
vn 0.267000 -0.961000 -0.071500
vn -0.267000 -0.961000 -0.071500
vn -0.071500 -0.961000 0.267000
vn 0.267000 -0.961000 0.071500
vn -0.195400 -0.961100 -0.195400
vn 0.071500 -0.961100 -0.267000
vn -0.195400 -0.961000 0.195400
vn -0.129000 0.866900 0.481600
vn 0.129000 0.866900 -0.481600
vn 0.071500 0.961000 0.267000
vn -0.071500 0.961000 0.267000
vn 0.071500 0.961100 -0.267000
vn -0.071500 0.961000 -0.267000
vn -0.129000 -0.866900 0.481600
vn -0.352500 -0.866900 -0.352500
vn 0.129000 -0.866800 -0.481600
vn -0.352500 -0.866900 0.352500
vn -0.129000 -0.866800 -0.481600
vn -0.071500 -0.961000 -0.267000
vn -0.267000 -0.961000 0.071500
vn 0.071500 -0.961100 0.267000
vn -0.195400 -0.961000 -0.195400
vn 0.071500 -0.961000 -0.267000
s off
f 2/1/1 4/2/1 3/3/1
f 4/2/2 6/4/2 5/5/2
f 6/4/3 8/6/3 7/7/3
f 8/6/4 10/8/4 9/9/4
f 10/8/5 12/10/5 11/11/5
f 12/10/6 14/12/6 13/13/6
f 14/12/7 16/14/7 15/15/7
f 16/14/8 18/16/8 17/17/8
f 18/16/9 20/18/9 19/19/9
f 20/20/10 22/21/10 21/22/10
f 16/23/11 56/24/11 57/25/11
f 24/26/12 2/1/12 1/27/12
f 22/21/13 24/26/13 23/28/13
f 7/29/14 15/30/14 3/31/14
f 26/32/1 28/33/1 27/34/1
f 28/33/2 30/35/2 29/36/2
f 30/35/3 32/37/3 31/38/3
f 32/37/4 34/39/4 33/40/4
f 34/39/5 36/41/5 35/42/5
f 36/41/6 38/43/6 37/44/6
f 38/43/7 40/45/7 39/46/7
f 40/45/8 42/47/8 41/48/8
f 42/47/9 44/49/9 43/50/9
f 44/51/10 46/52/10 45/53/10
f 46/54/11 38/55/11 30/56/11
f 48/57/12 26/32/12 25/58/12
f 46/52/13 48/57/13 47/59/13
f 8/60/11 6/61/11 51/62/11
f 51/8/9 75/63/9 76/64/9
f 62/65/7 86/34/7 85/58/7
f 2/66/11 50/67/11 49/68/11
f 31/69/14 33/70/14 65/71/14
f 41/72/14 43/73/14 70/74/14
f 12/75/11 54/76/11 55/77/11
f 22/78/11 59/79/11 60/80/11
f 27/81/14 29/82/14 63/83/14
f 39/84/14 68/85/14 67/86/14
f 25/66/14 61/87/14 72/88/14
f 8/60/11 52/89/11 53/90/11
f 18/91/11 57/25/11 58/92/11
f 35/93/14 66/94/14 65/71/14
f 43/73/14 45/95/14 71/96/14
f 4/97/11 49/68/11 51/62/11
f 14/98/11 55/77/11 56/24/11
f 24/99/11 60/80/11 50/67/11
f 31/69/14 64/100/14 63/83/14
f 39/84/14 41/72/14 69/101/14
f 27/81/14 62/102/14 61/87/14
f 10/103/11 53/90/11 54/76/11
f 20/104/11 58/92/11 59/79/11
f 37/105/14 67/86/14 66/94/14
f 47/106/14 72/88/14 71/96/14
f 79/107/15 78/108/15 102/109/15
f 58/18/4 82/110/4 83/111/4
f 55/1/1 79/112/1 80/113/1
f 52/6/10 76/64/10 77/114/10
f 59/16/5 83/111/5 84/115/5
f 50/12/7 74/116/7 73/117/7
f 56/26/2 80/113/2 81/118/2
f 53/4/13 77/114/13 78/119/13
f 50/12/6 60/14/6 84/115/6
f 49/10/8 73/117/8 75/63/8
f 57/21/3 81/118/3 82/120/3
f 54/2/12 78/119/12 79/112/12
f 93/121/16 94/122/16 130/123/16
f 69/124/2 93/48/2 92/46/2
f 66/125/13 90/42/13 89/40/13
f 61/126/6 85/58/6 96/59/6
f 63/127/8 87/36/8 86/34/8
f 70/128/3 94/50/3 93/48/3
f 67/129/12 91/44/12 90/42/12
f 64/130/9 88/38/9 87/36/9
f 71/131/4 95/53/4 94/132/4
f 68/133/1 92/46/1 91/44/1
f 65/134/10 89/40/10 88/38/10
f 72/135/5 96/59/5 95/53/5
f 97/136/17 109/137/17 111/138/17
f 76/139/18 75/140/18 99/141/18
f 82/142/19 106/143/19 107/144/19
f 79/107/20 103/145/20 104/146/20
f 76/139/21 100/147/21 101/148/21
f 84/149/22 83/150/22 107/144/22
f 73/151/23 74/152/23 98/153/23
f 80/154/24 104/146/24 105/155/24
f 77/156/25 101/148/25 102/109/25
f 84/149/26 108/157/26 98/153/26
f 73/151/27 97/136/27 99/141/27
f 81/158/28 105/155/28 106/143/28
f 117/159/11 115/160/11 111/138/11
f 105/155/29 117/159/29 118/161/29
f 103/145/30 102/109/30 114/162/30
f 99/141/31 111/138/31 112/163/31
f 106/143/32 118/161/32 119/164/32
f 103/145/33 115/160/33 116/165/33
f 101/148/34 100/147/34 112/163/34
f 107/144/35 119/164/35 120/166/35
f 97/136/36 98/153/36 110/167/36
f 105/155/37 104/146/37 116/165/37
f 102/109/38 101/148/38 113/168/38
f 108/157/39 120/166/39 110/167/39
f 126/169/40 138/170/40 137/171/40
f 91/172/41 127/173/41 126/169/41
f 87/151/42 88/174/42 124/175/42
f 95/176/43 131/177/43 130/123/43
f 91/172/44 92/178/44 128/179/44
f 88/174/45 89/180/45 125/181/45
f 95/176/46 96/182/46 132/183/46
f 86/152/47 122/184/47 121/185/47
f 93/121/48 129/186/48 128/179/48
f 90/187/49 126/169/49 125/181/49
f 96/182/50 85/188/50 121/185/50
f 87/151/51 123/189/51 122/184/51
f 136/190/14 142/191/14 144/192/14
f 121/185/52 133/193/52 144/192/52
f 122/184/53 123/189/53 135/194/53
f 130/123/54 142/191/54 141/195/54
f 127/173/55 139/196/55 138/170/55
f 124/175/56 136/190/56 135/194/56
f 130/123/57 131/177/57 143/197/57
f 128/179/58 140/198/58 139/196/58
f 125/181/59 137/171/59 136/190/59
f 132/183/60 144/192/60 143/197/60
f 122/184/61 134/199/61 133/193/61
f 128/179/62 129/186/62 141/195/62
f 18/16/9 41/48/9 43/50/9
f 16/14/8 39/46/8 41/48/8
f 14/12/7 37/44/7 39/46/7
f 12/10/6 35/42/6 37/44/6
f 10/8/5 33/40/5 35/42/5
f 8/6/4 31/38/4 33/40/4
f 6/4/3 29/36/3 31/38/3
f 4/2/2 27/34/2 29/36/2
f 2/1/1 25/58/1 27/34/1
f 24/26/12 47/59/12 25/58/12
f 22/21/13 45/53/13 47/59/13
f 20/20/10 43/132/10 45/53/10
f 166/50/3 165/48/3 153/16/3
f 165/48/2 164/46/2 152/14/2
f 164/46/1 163/44/1 151/12/1
f 163/44/12 162/42/12 150/10/12
f 162/42/13 161/40/13 149/8/13
f 161/40/10 160/38/10 148/6/10
f 160/38/9 159/36/9 147/4/9
f 159/36/8 158/34/8 146/2/8
f 158/34/7 157/58/7 145/1/7
f 157/58/6 168/59/6 156/26/6
f 168/59/5 167/53/5 155/21/5
f 167/53/4 166/132/4 154/20/4
f 1/27/1 2/1/1 3/3/1
f 3/3/2 4/2/2 5/5/2
f 5/5/3 6/4/3 7/7/3
f 7/7/4 8/6/4 9/9/4
f 9/9/5 10/8/5 11/11/5
f 11/11/6 12/10/6 13/13/6
f 13/13/7 14/12/7 15/15/7
f 15/15/8 16/14/8 17/17/8
f 17/17/9 18/16/9 19/19/9
f 19/200/10 20/20/10 21/22/10
f 18/91/11 16/23/11 57/25/11
f 23/28/12 24/26/12 1/27/12
f 21/22/13 22/21/13 23/28/13
f 23/201/14 1/104/14 3/31/14
f 3/31/14 5/202/14 7/29/14
f 7/29/14 9/203/14 11/204/14
f 11/204/14 13/205/14 7/29/14
f 15/30/14 17/206/14 19/207/14
f 19/207/14 21/208/14 23/201/14
f 23/201/14 3/31/14 15/30/14
f 7/29/14 13/205/14 15/30/14
f 15/30/14 19/207/14 23/201/14
f 25/58/1 26/32/1 27/34/1
f 27/34/2 28/33/2 29/36/2
f 29/36/3 30/35/3 31/38/3
f 31/38/4 32/37/4 33/40/4
f 33/40/5 34/39/5 35/42/5
f 35/42/6 36/41/6 37/44/6
f 37/44/7 38/43/7 39/46/7
f 39/46/8 40/45/8 41/48/8
f 41/48/9 42/47/9 43/50/9
f 43/132/10 44/51/10 45/53/10
f 30/56/11 28/209/11 46/54/11
f 26/207/11 48/210/11 46/54/11
f 46/54/11 44/211/11 42/212/11
f 42/212/11 40/213/11 46/54/11
f 38/55/11 36/214/11 34/215/11
f 34/215/11 32/73/11 38/55/11
f 28/209/11 26/207/11 46/54/11
f 46/54/11 40/213/11 38/55/11
f 38/55/11 32/73/11 30/56/11
f 47/59/12 48/57/12 25/58/12
f 45/53/13 46/52/13 47/59/13
f 52/89/11 8/60/11 51/62/11
f 52/6/9 51/8/9 76/64/9
f 61/126/7 62/65/7 85/58/7
f 4/97/11 2/66/11 49/68/11
f 64/100/14 31/69/14 65/71/14
f 69/101/14 41/72/14 70/74/14
f 14/98/11 12/75/11 55/77/11
f 24/99/11 22/78/11 60/80/11
f 62/102/14 27/81/14 63/83/14
f 37/105/14 39/84/14 67/86/14
f 47/106/14 25/66/14 72/88/14
f 10/103/11 8/60/11 53/90/11
f 20/104/11 18/91/11 58/92/11
f 33/70/14 35/93/14 65/71/14
f 70/74/14 43/73/14 71/96/14
f 6/61/11 4/97/11 51/62/11
f 16/23/11 14/98/11 56/24/11
f 2/66/11 24/99/11 50/67/11
f 29/82/14 31/69/14 63/83/14
f 68/85/14 39/84/14 69/101/14
f 25/66/14 27/81/14 61/87/14
f 12/75/11 10/103/11 54/76/11
f 22/78/11 20/104/11 59/79/11
f 35/93/14 37/105/14 66/94/14
f 45/95/14 47/106/14 71/96/14
f 103/145/15 79/107/15 102/109/15
f 59/16/4 58/18/4 83/111/4
f 56/26/1 55/1/1 80/113/1
f 53/4/10 52/6/10 77/114/10
f 60/14/5 59/16/5 84/115/5
f 49/10/7 50/12/7 73/117/7
f 57/21/2 56/26/2 81/118/2
f 54/2/13 53/4/13 78/119/13
f 74/116/6 50/12/6 84/115/6
f 51/8/8 49/10/8 75/63/8
f 58/20/3 57/21/3 82/120/3
f 55/1/12 54/2/12 79/112/12
f 129/186/16 93/121/16 130/123/16
f 68/133/2 69/124/2 92/46/2
f 65/134/13 66/125/13 89/40/13
f 72/135/6 61/126/6 96/59/6
f 62/65/8 63/127/8 86/34/8
f 69/124/3 70/128/3 93/48/3
f 66/125/12 67/129/12 90/42/12
f 63/127/9 64/130/9 87/36/9
f 70/216/4 71/131/4 94/132/4
f 67/129/1 68/133/1 91/44/1
f 64/130/10 65/134/10 88/38/10
f 71/131/5 72/135/5 95/53/5
f 99/141/17 97/136/17 111/138/17
f 100/147/18 76/139/18 99/141/18
f 83/150/19 82/142/19 107/144/19
f 80/154/63 79/107/63 104/146/63
f 77/156/21 76/139/21 101/148/21
f 108/157/22 84/149/22 107/144/22
f 97/136/64 73/151/64 98/153/64
f 81/158/24 80/154/24 105/155/24
f 78/108/25 77/156/25 102/109/25
f 74/152/26 84/149/26 98/153/26
f 75/140/27 73/151/27 99/141/27
f 82/142/28 81/158/28 106/143/28
f 111/138/11 109/137/11 110/167/11
f 110/167/11 120/166/11 111/138/11
f 119/164/11 118/161/11 117/159/11
f 117/159/11 116/165/11 115/160/11
f 115/160/11 114/162/11 111/138/11
f 113/168/11 112/163/11 111/138/11
f 111/138/11 120/166/11 119/164/11
f 119/164/11 117/159/11 111/138/11
f 114/162/11 113/168/11 111/138/11
f 106/143/29 105/155/29 118/161/29
f 115/160/65 103/145/65 114/162/65
f 100/147/31 99/141/31 112/163/31
f 107/144/32 106/143/32 119/164/32
f 104/146/66 103/145/66 116/165/66
f 113/168/34 101/148/34 112/163/34
f 108/157/35 107/144/35 120/166/35
f 109/137/67 97/136/67 110/167/67
f 117/159/37 105/155/37 116/165/37
f 114/162/38 102/109/38 113/168/38
f 98/153/68 108/157/68 110/167/68
f 125/181/40 126/169/40 137/171/40
f 90/187/41 91/172/41 126/169/41
f 123/189/42 87/151/42 124/175/42
f 94/122/43 95/176/43 130/123/43
f 127/173/69 91/172/69 128/179/69
f 124/175/45 88/174/45 125/181/45
f 131/177/70 95/176/70 132/183/70
f 85/188/71 86/152/71 121/185/71
f 92/178/72 93/121/72 128/179/72
f 89/180/49 90/187/49 125/181/49
f 132/183/73 96/182/73 121/185/73
f 86/152/51 87/151/51 122/184/51
f 144/192/14 133/193/14 134/199/14
f 134/199/14 135/194/14 136/190/14
f 136/190/14 137/171/14 138/170/14
f 138/170/14 139/196/14 136/190/14
f 140/198/14 141/195/14 142/191/14
f 142/191/14 143/197/14 144/192/14
f 144/192/14 134/199/14 136/190/14
f 136/190/14 139/196/14 140/198/14
f 140/198/14 142/191/14 136/190/14
f 132/183/74 121/185/74 144/192/74
f 134/199/53 122/184/53 135/194/53
f 129/186/75 130/123/75 141/195/75
f 126/169/76 127/173/76 138/170/76
f 123/189/56 124/175/56 135/194/56
f 142/191/57 130/123/57 143/197/57
f 127/173/58 128/179/58 139/196/58
f 124/175/59 125/181/59 136/190/59
f 131/177/77 132/183/77 143/197/77
f 121/185/78 122/184/78 133/193/78
f 140/198/62 128/179/62 141/195/62
f 20/18/9 18/16/9 43/50/9
f 18/16/8 16/14/8 41/48/8
f 16/14/7 14/12/7 39/46/7
f 14/12/6 12/10/6 37/44/6
f 12/10/5 10/8/5 35/42/5
f 10/8/4 8/6/4 33/40/4
f 8/6/3 6/4/3 31/38/3
f 6/4/2 4/2/2 29/36/2
f 4/2/1 2/1/1 27/34/1
f 2/1/12 24/26/12 25/58/12
f 24/26/13 22/21/13 47/59/13
f 22/21/10 20/20/10 45/53/10
f 154/18/3 166/50/3 153/16/3
f 153/16/2 165/48/2 152/14/2
f 152/14/1 164/46/1 151/12/1
f 151/12/12 163/44/12 150/10/12
f 150/10/13 162/42/13 149/8/13
f 149/8/10 161/40/10 148/6/10
f 148/6/9 160/38/9 147/4/9
f 147/4/8 159/36/8 146/2/8
f 146/2/7 158/34/7 145/1/7
f 145/1/6 157/58/6 156/26/6
f 156/26/5 168/59/5 155/21/5
f 155/21/4 167/53/4 154/20/4
