# Blender 4.0.1
# www.blender.org
o mp_f_20_3_usa
v 1.000000 0.000000 0.000000
v -1.000000 0.000000 0.000000
v -0.500001 -0.000000 -0.866025
v 0.000000 -0.000000 -1.000000
v 0.500000 -0.000000 -0.866025
v 0.866025 -0.000000 -0.500000
v 0.866025 0.000000 0.500000
v 0.500000 0.000000 0.866025
v 0.000000 0.000000 1.000000
v -0.500000 0.000000 0.866026
v -0.866025 0.000000 0.500000
v -0.866026 -0.000000 -0.499999
v 0.500000 3.000000 -0.866025
v 0.866025 3.000000 -0.500000
v 1.000000 3.000000 -0.000000
v 0.866025 3.000000 0.500000
v 0.500000 3.000000 0.866025
v 0.000000 3.000000 1.000000
v -0.500000 3.000000 0.866026
v -0.866025 3.000000 0.500000
v -1.000000 3.000000 -0.000000
v -0.866026 3.000000 -0.499999
v 0.000000 3.000000 -1.000000
v -0.500001 3.000000 -0.866025
vn -0.0000 -1.0000 -0.0000
vn 0.5000 -0.0000 -0.8660
vn -0.0000 -0.0000 -1.0000
vn 0.8660 -0.0000 -0.5000
vn 1.0000 -0.0000 -0.0000
vn 0.8660 -0.0000 0.5000
vn 0.5000 -0.0000 0.8660
vn -0.0000 -0.0000 1.0000
vn -0.5000 -0.0000 0.8660
vn -0.8660 -0.0000 0.5000
vn -1.0000 -0.0000 -0.0000
vn -0.8660 -0.0000 -0.5000
vn -0.5000 -0.0000 -0.8660
vn -0.0000 1.0000 -0.0000
vt 0.598607 0.103765
vt 0.462807 0.103765
vt 0.496757 0.015835
vt 0.530707 0.002232
vt 0.564657 0.015835
vt 0.589510 0.052999
vt 0.589510 0.154531
vt 0.564657 0.191694
vt 0.530707 0.205297
vt 0.496757 0.191695
vt 0.471904 0.154531
vt 0.471904 0.052999
vt 0.412338 0.055653
vt 0.449822 0.363955
vt 0.412338 0.363955
vt 0.374854 0.363955
vt 0.374854 0.055653
vt 0.337371 0.363955
vt 0.337371 0.055653
vt 0.299887 0.363955
vt 0.299887 0.055653
vt 0.262403 0.363955
vt 0.224919 0.055653
vt 0.224919 0.363955
vt 0.187435 0.363955
vt 0.149951 0.055653
vt 0.187435 0.055653
vt 0.149951 0.363955
vt 0.112467 0.055653
vt 0.074984 0.363955
vt 0.074984 0.055653
vt 0.037500 0.055653
vt 0.000016 0.363955
vt 0.000016 0.055653
vt 0.037500 0.363955
vt 0.599294 0.326908
vt 0.498424 0.413993
vt 0.498424 0.239824
vt 0.449822 0.055653
vt 0.262403 0.055653
vt 0.112467 0.363955
vt 0.532047 0.226352
vt 0.565671 0.239824
vt 0.590285 0.276630
vt 0.590285 0.377187
vt 0.565671 0.413993
vt 0.532047 0.427465
vt 0.473809 0.377186
vt 0.464800 0.326908
vt 0.473810 0.276630
s 1
f 1/1/1 2/2/1 3/3/1
f 3/3/1 4/4/1 5/5/1
f 5/5/1 6/6/1 1/1/1
f 1/1/1 7/7/1 8/8/1
f 8/8/1 9/9/1 10/10/1
f 10/10/1 11/11/1 2/2/1
f 2/2/1 12/12/1 3/3/1
f 3/3/1 5/5/1 1/1/1
f 1/1/1 8/8/1 10/10/1
f 10/10/1 2/2/1 1/1/1
f 5/13/2 23/14/3 13/15/2
f 5/13/2 14/16/4 6/17/4
f 6/17/4 15/18/5 1/19/5
f 1/19/5 16/20/6 7/21/6
f 17/22/7 7/21/6 16/20/6
f 9/23/8 17/22/7 18/24/8
f 19/25/9 11/26/10 10/27/9
f 20/28/10 2/29/11 11/26/10
f 2/29/11 22/30/12 12/31/12
f 3/32/13 23/33/3 4/34/3
f 12/31/12 24/35/13 3/32/13
f 15/36/14 24/37/14 19/38/14
f 10/27/9 18/24/8 19/25/9
f 5/13/2 4/39/3 23/14/3
f 5/13/2 13/15/2 14/16/4
f 6/17/4 14/16/4 15/18/5
f 1/19/5 15/18/5 16/20/6
f 17/22/7 8/40/7 7/21/6
f 9/23/8 8/40/7 17/22/7
f 19/25/9 20/28/10 11/26/10
f 20/28/10 21/41/11 2/29/11
f 2/29/11 21/41/11 22/30/12
f 3/32/13 24/35/13 23/33/3
f 12/31/12 22/30/12 24/35/13
f 19/38/14 18/42/14 17/43/14
f 17/43/14 16/44/14 15/36/14
f 15/36/14 14/45/14 13/46/14
f 13/46/14 23/47/14 24/37/14
f 24/37/14 22/48/14 21/49/14
f 21/49/14 20/50/14 19/38/14
f 19/38/14 17/43/14 15/36/14
f 15/36/14 13/46/14 24/37/14
f 24/37/14 21/49/14 19/38/14
f 10/27/9 9/23/8 18/24/8
