# Blender v2.76 (sub 0) OBJ File: 'mp_w_15_nuclear.blend'
# www.blender.org
o Cylinder
v 0.000000 0.000000 -0.750000
v 0.000000 0.500000 -0.750000
v 0.375000 0.000000 -0.649519
v 0.375000 0.500000 -0.649519
v 0.649519 0.000000 -0.375000
v 0.649519 0.500000 -0.375000
v 0.750000 0.000000 0.000000
v 0.750000 0.500000 0.000000
v 0.649519 0.000000 0.375000
v 0.649519 0.500000 0.375000
v 0.375000 0.000000 0.649519
v 0.375000 0.500000 0.649519
v 0.000000 0.000000 0.750000
v 0.000000 0.500000 0.750000
v -0.375000 0.000000 0.649519
v -0.375000 0.500000 0.649519
v -0.649519 0.000000 0.375000
v -0.649519 0.500000 0.375000
v -0.750000 0.000000 0.000000
v -0.750000 0.500000 0.000000
v -0.649519 0.000000 -0.375000
v -0.649519 0.500000 -0.375000
v -0.375000 0.000000 -0.649519
v -0.375000 0.500000 -0.649519
v 0.332945 1.500000 -0.576678
v -0.000000 1.500000 -0.665890
v 0.576678 1.500000 -0.332945
v 0.665890 1.500000 0.000000
v 0.576678 1.500000 0.332945
v 0.332945 1.500000 0.576678
v 0.000000 1.500000 0.665890
v -0.332945 1.500000 0.576678
v -0.576678 1.500000 0.332945
v -0.665890 1.500000 0.000000
v -0.576678 1.500000 -0.332945
v -0.332945 1.500000 -0.576678
v 0.233371 2.500000 -0.404210
v -0.000000 2.500000 -0.466741
v 0.404210 2.500000 -0.233371
v 0.466741 2.500000 0.000000
v 0.404210 2.500000 0.233371
v 0.233371 2.500000 0.404210
v -0.000000 2.500000 0.466741
v -0.233371 2.500000 0.404210
v -0.404210 2.500000 0.233371
v -0.466741 2.500000 0.000000
v -0.404210 2.500000 -0.233370
v -0.233371 2.500000 -0.404210
v 0.114812 3.250000 -0.198861
v -0.000000 3.250000 -0.229625
v 0.198861 3.250000 -0.114812
v 0.229625 3.250000 0.000000
v 0.198861 3.250000 0.114812
v 0.114812 3.250000 0.198861
v -0.000000 3.250000 0.229625
v -0.114812 3.250000 0.198861
v -0.198861 3.250000 0.114812
v -0.229625 3.250000 0.000000
v -0.198861 3.250000 -0.114812
v -0.114813 3.250000 -0.198861
v 0.034329 3.500000 -0.059459
v -0.000000 3.500000 -0.068657
v 0.059459 3.500000 -0.034329
v 0.068657 3.500000 0.000000
v 0.059459 3.500000 0.034329
v 0.034329 3.500000 0.059459
v -0.000000 3.500000 0.068657
v -0.034329 3.500000 0.059459
v -0.059459 3.500000 0.034329
v -0.068657 3.500000 0.000000
v -0.059459 3.500000 -0.034329
v -0.034329 3.500000 -0.059459
vt 0.562500 0.083333
vt 0.500000 0.083333
vt 0.500000 0.000000
vt 0.437500 0.083333
vt 0.437500 0.000000
vt 0.375000 0.083333
vt 0.375000 0.000000
vt 0.312500 0.083333
vt 0.312500 0.000000
vt 0.250000 0.083333
vt 0.250000 0.000000
vt 0.187500 0.083333
vt 0.187500 0.000000
vt 0.125000 0.083333
vt 0.125000 0.000000
vt 0.062500 0.083333
vt 0.062500 0.000000
vt 0.000000 0.083333
vt 0.000000 0.000000
vt 0.750000 0.083333
vt 0.687500 0.083333
vt 0.687500 0.000000
vt 0.125000 0.250000
vt 0.062500 0.250000
vt 0.625000 0.083333
vt 0.562500 0.000000
vt 0.625000 0.000000
vt 0.875000 0.000000
vt 0.770833 0.187500
vt 0.979167 0.187500
vt 0.312500 0.250000
vt 0.302083 0.416667
vt 0.260417 0.416667
vt 0.187500 0.250000
vt 0.250000 0.250000
vt 0.375000 0.250000
vt 0.625000 0.250000
vt 0.562500 0.250000
vt 0.500000 0.250000
vt 0.437500 0.250000
vt 0.687500 0.250000
vt 0.750000 0.250000
vt 0.000000 0.250000
vt 0.291667 0.541667
vt 0.614583 0.416667
vt 0.572917 0.416667
vt 0.489583 0.416667
vt 0.447917 0.416667
vt 0.052083 0.416667
vt 0.010417 0.416667
vt 0.239583 0.416667
vt 0.197917 0.416667
vt 0.427083 0.416667
vt 0.385417 0.416667
vt 0.739583 0.416667
vt 0.697917 0.416667
vt 0.177083 0.416667
vt 0.135417 0.416667
vt 0.364583 0.416667
vt 0.322917 0.416667
vt 0.677083 0.416667
vt 0.635417 0.416667
vt 0.552083 0.416667
vt 0.510417 0.416667
vt 0.114583 0.416667
vt 0.104167 0.541667
vt 0.104167 0.593750
vt 0.083333 0.593750
vt 0.604167 0.541667
vt 0.583333 0.541667
vt 0.479167 0.541667
vt 0.458333 0.541667
vt 0.041667 0.541667
vt 0.020833 0.541667
vt 0.229167 0.541667
vt 0.208333 0.541667
vt 0.416667 0.541667
vt 0.395833 0.541667
vt 0.729167 0.541667
vt 0.166667 0.541667
vt 0.145833 0.541667
vt 0.354167 0.541667
vt 0.666667 0.541667
vt 0.645833 0.541667
vt 0.541667 0.541667
vt 0.520833 0.541667
vt 0.072917 0.416667
vt 0.760417 0.312500
vt 0.802083 0.312500
vt 0.802083 0.250000
vt 0.270833 0.541667
vt 0.291667 0.593750
vt 0.604167 0.593750
vt 0.583333 0.593750
vt 0.479167 0.593750
vt 0.458333 0.593750
vt 0.041667 0.593750
vt 0.020833 0.593750
vt 0.229167 0.593750
vt 0.416667 0.593750
vt 0.395833 0.593750
vt 0.729167 0.593750
vt 0.708333 0.593750
vt 0.166667 0.593750
vt 0.145833 0.593750
vt 0.354167 0.593750
vt 0.333333 0.593750
vt 0.666667 0.593750
vt 0.645833 0.593750
vt 0.541667 0.593750
vt 0.520833 0.593750
vt 0.750000 0.000000
vt 1.000000 0.125000
vt 0.979167 0.062500
vt 0.937500 0.020833
vt 0.812500 0.020833
vt 0.770833 0.062500
vt 0.750000 0.125000
vt 0.812500 0.229167
vt 0.875000 0.250000
vt 0.937500 0.229167
vt 0.083333 0.541667
vt 0.708333 0.541667
vt 0.333333 0.541667
vt 0.781250 0.250000
vt 0.760417 0.250000
vt 0.750000 0.260417
vt 0.750000 0.281250
vt 0.750000 0.302083
vt 0.781250 0.312500
vt 0.812500 0.302083
vt 0.812500 0.281250
vt 0.812500 0.260417
vt 0.270833 0.593750
vt 0.208333 0.593750
vn 0.258800 0.000000 -0.965900
vn 0.707100 0.000000 -0.707100
vn 0.965900 0.000000 -0.258800
vn 0.965900 0.000000 0.258800
vn 0.707100 0.000000 0.707100
vn 0.258800 0.000000 0.965900
vn -0.258800 0.000000 0.965900
vn -0.707100 0.000000 0.707100
vn -0.965900 0.000000 0.258800
vn -0.965900 0.000000 -0.258800
vn -0.704800 0.081000 0.704800
vn -0.258800 0.000000 -0.965900
vn -0.707100 0.000000 -0.707100
vn 0.000000 -1.000000 0.000000
vn 0.694400 0.188900 0.694400
vn -0.258000 0.081000 0.962800
vn 0.258000 0.081000 0.962800
vn 0.704800 0.081000 0.704800
vn 0.962800 0.081000 0.258000
vn -0.258000 0.081000 -0.962800
vn 0.258000 0.081000 -0.962800
vn 0.962800 0.081000 -0.258000
vn -0.704800 0.081000 -0.704800
vn 0.704800 0.081000 -0.704800
vn -0.962800 0.081000 -0.258000
vn -0.962800 0.081000 0.258000
vn 0.676300 0.292100 0.676300
vn -0.254200 0.188900 -0.948500
vn 0.694400 0.188900 -0.694400
vn -0.948500 0.188900 0.254200
vn 0.254200 0.188900 0.948500
vn 0.948500 0.188900 -0.254200
vn -0.948500 0.188900 -0.254200
vn -0.254200 0.188900 0.948500
vn 0.948500 0.188900 0.254200
vn -0.694400 0.188900 -0.694400
vn 0.254200 0.188900 -0.948500
vn -0.694400 0.188900 0.694400
vn -0.600500 0.528100 0.600500
vn -0.247500 0.292100 -0.923800
vn 0.676300 0.292100 -0.676300
vn -0.923800 0.292100 0.247500
vn 0.247500 0.292100 0.923800
vn 0.923800 0.292100 -0.247500
vn -0.923800 0.292100 -0.247500
vn -0.247500 0.292100 0.923800
vn 0.923800 0.292100 0.247500
vn -0.676300 0.292100 -0.676300
vn 0.247500 0.292100 -0.923800
vn -0.676300 0.292100 0.676300
vn 0.000000 1.000000 0.000000
vn 0.600500 0.528100 0.600500
vn -0.219800 0.528100 -0.820200
vn 0.600500 0.528100 -0.600500
vn -0.820200 0.528100 0.219800
vn 0.219800 0.528100 0.820200
vn 0.820200 0.528100 -0.219800
vn -0.820200 0.528100 -0.219800
vn -0.219800 0.528100 0.820200
vn 0.820200 0.528100 0.219800
vn -0.600500 0.528100 -0.600500
vn 0.219800 0.528100 -0.820200
s off
f 2/1/1 4/2/1 3/3/1
f 4/2/2 6/4/2 5/5/2
f 6/4/3 8/6/3 7/7/3
f 8/6/4 10/8/4 9/9/4
f 10/8/5 12/10/5 11/11/5
f 12/10/6 14/12/6 13/13/6
f 14/12/7 16/14/7 15/15/7
f 16/14/8 18/16/8 17/17/8
f 18/16/9 20/18/9 19/19/9
f 20/20/10 22/21/10 21/22/10
f 16/14/11 32/23/11 33/24/11
f 24/25/12 2/1/12 1/26/12
f 22/21/13 24/25/13 23/27/13
f 7/28/14 15/29/14 23/30/14
f 29/31/15 41/32/15 42/33/15
f 14/12/16 31/34/16 32/23/16
f 12/10/17 30/35/17 31/34/17
f 12/10/18 10/8/18 29/31/18
f 8/6/19 28/36/19 29/31/19
f 24/25/20 36/37/20 26/38/20
f 2/1/21 26/38/21 25/39/21
f 6/4/22 27/40/22 28/36/22
f 22/21/23 35/41/23 36/37/23
f 4/2/24 25/39/24 27/40/24
f 20/20/25 34/42/25 35/41/25
f 18/16/26 33/24/26 34/43/26
f 42/33/27 41/32/27 53/44/27
f 36/37/28 48/45/28 38/46/28
f 25/39/29 37/47/29 39/48/29
f 33/24/30 45/49/30 46/50/30
f 30/35/31 42/51/31 43/52/31
f 27/40/32 39/53/32 40/54/32
f 34/42/33 46/55/33 47/56/33
f 31/34/34 43/57/34 44/58/34
f 28/36/35 40/59/35 41/60/35
f 35/41/36 47/61/36 48/62/36
f 26/38/37 38/63/37 37/64/37
f 33/24/38 32/23/38 44/65/38
f 56/66/39 68/67/39 69/68/39
f 48/45/40 60/69/40 50/70/40
f 37/47/41 49/71/41 51/72/41
f 45/49/42 57/73/42 58/74/42
f 42/51/43 54/75/43 55/76/43
f 39/53/44 51/77/44 52/78/44
f 47/56/45 46/55/45 58/79/45
f 43/57/46 55/80/46 56/81/46
f 41/60/47 40/59/47 52/82/47
f 47/61/48 59/83/48 60/84/48
f 38/63/49 50/85/49 49/86/49
f 45/87/50 44/65/50 56/66/50
f 69/88/51 67/89/51 63/90/51
f 54/91/52 53/44/52 65/92/52
f 60/69/53 72/93/53 62/94/53
f 49/71/54 61/95/54 63/96/54
f 57/73/55 69/97/55 70/98/55
f 55/76/56 54/75/56 66/99/56
f 51/77/57 63/100/57 64/101/57
f 58/79/58 70/102/58 71/103/58
f 55/80/59 67/104/59 68/105/59
f 52/82/60 64/106/60 65/107/60
f 59/83/61 71/108/61 72/109/61
f 50/85/62 62/110/62 61/111/62
f 1/26/1 2/1/1 3/3/1
f 3/3/2 4/2/2 5/5/2
f 5/5/3 6/4/3 7/7/3
f 7/7/4 8/6/4 9/9/4
f 9/9/5 10/8/5 11/11/5
f 11/11/6 12/10/6 13/13/6
f 13/13/7 14/12/7 15/15/7
f 15/15/8 16/14/8 17/17/8
f 17/17/9 18/16/9 19/19/9
f 19/112/10 20/20/10 21/22/10
f 18/16/11 16/14/11 33/24/11
f 23/27/12 24/25/12 1/26/12
f 21/22/13 22/21/13 23/27/13
f 23/30/14 1/113/14 7/28/14
f 3/114/14 5/115/14 7/28/14
f 7/28/14 9/116/14 11/117/14
f 11/117/14 13/118/14 7/28/14
f 15/29/14 17/119/14 19/120/14
f 19/120/14 21/121/14 15/29/14
f 1/113/14 3/114/14 7/28/14
f 7/28/14 13/118/14 15/29/14
f 15/29/14 21/121/14 23/30/14
f 30/35/15 29/31/15 42/33/15
f 16/14/16 14/12/16 32/23/16
f 14/12/17 12/10/17 31/34/17
f 30/35/18 12/10/18 29/31/18
f 10/8/19 8/6/19 29/31/19
f 2/1/20 24/25/20 26/38/20
f 4/2/21 2/1/21 25/39/21
f 8/6/22 6/4/22 28/36/22
f 24/25/23 22/21/23 36/37/23
f 6/4/24 4/2/24 27/40/24
f 22/21/25 20/20/25 35/41/25
f 20/18/26 18/16/26 34/43/26
f 54/91/27 42/33/27 53/44/27
f 26/38/28 36/37/28 38/46/28
f 27/40/29 25/39/29 39/48/29
f 34/43/30 33/24/30 46/50/30
f 31/34/31 30/35/31 43/52/31
f 28/36/32 27/40/32 40/54/32
f 35/41/33 34/42/33 47/56/33
f 32/23/34 31/34/34 44/58/34
f 29/31/35 28/36/35 41/60/35
f 36/37/36 35/41/36 48/62/36
f 25/39/37 26/38/37 37/64/37
f 45/87/38 33/24/38 44/65/38
f 57/122/39 56/66/39 69/68/39
f 38/46/40 48/45/40 50/70/40
f 39/48/41 37/47/41 51/72/41
f 46/50/42 45/49/42 58/74/42
f 43/52/43 42/51/43 55/76/43
f 40/54/44 39/53/44 52/78/44
f 59/123/45 47/56/45 58/79/45
f 44/58/46 43/57/46 56/81/46
f 53/124/47 41/60/47 52/82/47
f 48/62/48 47/61/48 60/84/48
f 37/64/49 38/63/49 49/86/49
f 57/122/50 45/87/50 56/66/50
f 63/90/51 61/125/51 62/126/51
f 62/126/51 72/127/51 71/128/51
f 71/128/51 70/129/51 69/88/51
f 69/88/51 68/130/51 67/89/51
f 67/89/51 66/131/51 65/132/51
f 65/132/51 64/133/51 63/90/51
f 63/90/51 62/126/51 71/128/51
f 71/128/51 69/88/51 63/90/51
f 67/89/51 65/132/51 63/90/51
f 66/134/52 54/91/52 65/92/52
f 50/70/53 60/69/53 62/94/53
f 51/72/54 49/71/54 63/96/54
f 58/74/55 57/73/55 70/98/55
f 67/135/56 55/76/56 66/99/56
f 52/78/57 51/77/57 64/101/57
f 59/123/58 58/79/58 71/103/58
f 56/81/59 55/80/59 68/105/59
f 53/124/60 52/82/60 65/107/60
f 60/84/61 59/83/61 72/109/61
f 49/86/62 50/85/62 61/111/62
