# Blender 4.0.1
# www.blender.org
o Fairing
v 0.500000 7.000000 -0.866026
v 1.000000 0.000000 0.000000
v -1.000000 0.000000 0.000000
v -0.500001 -0.000000 -0.866025
v 0.000000 -0.000000 -1.000000
v 0.500000 -0.000000 -0.866025
v 0.866025 -0.000000 -0.500000
v 0.866025 0.000000 0.500000
v 0.500000 0.000000 0.866025
v 0.000000 0.000000 1.000000
v -0.500000 0.000000 0.866026
v -0.866025 0.000000 0.500000
v -0.866026 -0.000000 -0.499999
v 0.000000 0.500000 -1.000000
v 0.500000 0.500000 -0.866025
v 0.866025 0.500000 -0.500000
v 1.000000 0.500000 -0.000000
v 0.866025 0.500000 0.500000
v 0.500000 0.500000 0.866025
v 0.000000 0.500000 1.000000
v -0.500000 0.500000 0.866025
v -0.866025 0.500000 0.500000
v -1.000000 0.500000 -0.000000
v -2.000000 1.500000 -0.000000
v -0.866025 0.500000 -0.500000
v -0.500000 0.500000 -0.866025
v -1.000000 1.500000 1.732051
v -1.732051 5.000000 1.000000
v -1.732051 1.500000 1.000000
v 0.000000 1.500000 2.000000
v 1.000000 1.500000 1.732051
v 1.732051 1.500000 1.000000
v 0.000000 1.500000 -2.000000
v 1.000000 1.500000 -1.732051
v 2.000000 1.500000 -0.000000
v -1.000000 1.500000 -1.732051
v 1.732051 1.500000 -1.000000
v -1.732051 1.500000 -1.000000
v 0.000000 5.000000 -2.000000
v 1.000000 5.000000 -1.732051
v 1.000000 5.000000 1.732051
v 1.732051 5.000000 -1.000000
v -2.000000 5.000000 -0.000000
v 0.000000 5.000000 2.000000
v 2.000000 5.000000 -0.000000
v -1.732051 5.000000 -1.000000
v -1.000000 5.000000 1.732051
v 1.732051 5.000000 1.000000
v -1.000000 5.000000 -1.732051
v -0.500000 7.000000 -0.866026
v -0.866025 7.000000 -0.500001
v 0.000000 7.500000 -0.000001
v -0.500000 7.000000 0.866024
v -0.866025 7.000000 0.499999
v 0.500000 7.000000 0.866024
v 0.000000 7.000000 -1.000000
v 0.866025 7.000000 -0.500001
v -1.000000 7.000000 -0.000001
v 0.000000 7.000000 0.999999
v 1.000000 7.000000 -0.000001
v 0.866025 7.000000 0.499999
vn -0.0000 -1.0000 -0.0000
vn -0.0000 -0.0000 -1.0000
vn 0.5000 -0.0000 -0.8660
vn 0.8660 -0.0000 -0.5000
vn 1.0000 -0.0000 -0.0000
vn 0.8660 -0.0000 0.5000
vn 0.5000 -0.0000 0.8660
vn -0.0000 -0.0000 1.0000
vn -0.5000 -0.0000 0.8660
vn -0.8660 -0.0000 0.5000
vn -1.0000 -0.0000 -0.0000
vn -0.8660 -0.0000 -0.5000
vn -0.6124 -0.7071 0.3536
vn -0.7071 -0.7071 -0.0000
vn -0.5000 -0.0000 -0.8660
vn -0.8445 0.2217 0.4876
vn -0.3536 -0.7071 0.6124
vn -0.0000 -0.7071 0.7071
vn 0.3536 -0.7071 0.6124
vn 0.6124 -0.7071 0.3536
vn 0.7071 -0.7071 -0.0000
vn -0.3536 -0.7071 -0.6124
vn -0.0000 -0.7071 -0.7071
vn 0.3536 -0.7071 -0.6124
vn 0.6124 -0.7071 -0.3536
vn -0.6124 -0.7071 -0.3536
vn -0.0000 0.2217 -0.9751
vn 0.3657 0.6819 -0.6335
vn 0.4876 0.2217 -0.8445
vn 0.4876 0.2217 0.8445
vn 0.8445 0.2217 -0.4876
vn -0.9751 0.2217 -0.0000
vn -0.0000 0.2217 0.9751
vn 0.9751 0.2217 -0.0000
vn -0.8445 0.2217 -0.4876
vn -0.4876 0.2217 0.8445
vn 0.8445 0.2217 0.4876
vn -0.4876 0.2217 -0.8445
vn -0.3657 0.6819 -0.6335
vn -0.6335 0.6819 -0.3657
vn -0.0000 1.0000 -0.0000
vn 0.3657 0.6819 0.6335
vn -0.0000 0.6819 -0.7315
vn 0.6335 0.6819 -0.3657
vn -0.7315 0.6819 -0.0000
vn -0.0000 0.6819 0.7315
vn 0.7315 0.6819 -0.0000
vn -0.3657 0.6819 0.6335
vn 0.6335 0.6819 0.3657
vn -0.6335 0.6819 0.3657
vt 1.000000 0.125000
vt 0.857143 0.125000
vt 0.892857 0.015625
vt 0.928571 0.000000
vt 0.964286 0.015625
vt 0.991071 0.062500
vt 0.991071 0.187500
vt 0.964286 0.234375
vt 0.928571 0.250000
vt 0.892857 0.234375
vt 0.866071 0.187500
vt 0.866071 0.062500
vt 0.839286 0.062500
vt 0.803571 0.000000
vt 0.839286 0.000000
vt 0.767857 0.062500
vt 0.732143 0.000000
vt 0.767857 0.000000
vt 0.696429 0.062500
vt 0.660714 0.000000
vt 0.696429 0.000000
vt 0.625000 0.062500
vt 0.589286 0.000000
vt 0.625000 0.000000
vt 0.553571 0.062500
vt 0.517857 0.000000
vt 0.553571 0.000000
vt 0.482143 0.062500
vt 0.446429 0.000000
vt 0.482143 0.000000
vt 0.410714 0.062500
vt 0.375000 0.000000
vt 0.410714 0.000000
vt 0.339286 0.062500
vt 0.303571 0.000000
vt 0.339286 0.000000
vt 0.267857 0.062500
vt 0.232143 0.000000
vt 0.267857 0.000000
vt 0.196429 0.062500
vt 0.160714 0.000000
vt 0.196429 0.000000
vt 0.214286 0.187500
vt 0.232143 0.062500
vt 0.125000 0.062500
vt 0.089286 0.000000
vt 0.125000 0.000000
vt 0.053571 0.062500
vt 0.017857 0.000000
vt 0.053571 0.000000
vt 0.357143 0.187500
vt 0.285714 0.625000
vt 0.285714 0.187500
vt 0.303571 0.062500
vt 0.375000 0.062500
vt 0.428571 0.187500
vt 0.446429 0.062500
vt 0.500000 0.187500
vt 0.517857 0.062500
vt 0.571429 0.187500
vt 0.589286 0.062500
vt 0.000000 0.187500
vt 0.017857 0.062500
vt 0.785714 0.187500
vt 0.803571 0.062500
vt 0.642857 0.187500
vt 0.660714 0.062500
vt 0.071429 0.187500
vt 0.089286 0.062500
vt 0.714286 0.187500
vt 0.732143 0.062500
vt 0.142857 0.187500
vt 0.160714 0.062500
vt 0.857143 0.625000
vt 0.803571 0.875000
vt 0.785714 0.625000
vt 0.500000 0.625000
vt 0.000000 0.625000
vt 0.714286 0.625000
vt 0.214286 0.625000
vt 0.428571 0.625000
vt 0.642857 0.625000
vt 0.142857 0.625000
vt 0.357143 0.625000
vt 0.571429 0.625000
vt 0.071429 0.625000
vt 0.857143 0.187500
vt 0.089286 0.875000
vt 0.125000 0.875000
vt 0.107143 1.000000
vt 0.517857 0.875000
vt 0.017857 0.875000
vt 0.732143 0.875000
vt 0.232143 0.875000
vt 0.446429 0.875000
vt 0.660714 0.875000
vt 0.160714 0.875000
vt 0.375000 0.875000
vt 0.589286 0.875000
vt 0.839286 0.875000
vt 0.821429 1.000000
vt 0.303571 0.875000
vt 0.339286 0.875000
vt 0.321429 1.000000
vt 0.553571 0.875000
vt 0.535714 1.000000
vt 0.053571 0.875000
vt 0.035714 1.000000
vt 0.767857 0.875000
vt 0.750000 1.000000
vt 0.267857 0.875000
vt 0.250000 1.000000
vt 0.482143 0.875000
vt 0.464286 1.000000
vt 0.696429 0.875000
vt 0.678571 1.000000
vt 0.196429 0.875000
vt 0.178571 1.000000
vt 0.410714 0.875000
vt 0.392857 1.000000
vt 0.625000 0.875000
vt 0.607143 1.000000
s 1
f 2/1/1 3/2/1 4/3/1
f 4/3/1 5/4/1 6/5/1
f 6/5/1 7/6/1 2/1/1
f 2/1/1 8/7/1 9/8/1
f 9/8/1 10/9/1 11/10/1
f 11/10/1 12/11/1 3/2/1
f 3/2/1 13/12/1 4/3/1
f 4/3/1 6/5/1 2/1/1
f 2/1/1 9/8/1 11/10/1
f 11/10/1 3/2/1 2/1/1
f 14/13/2 6/14/3 5/15/2
f 15/16/3 7/17/4 6/18/3
f 16/19/4 2/20/5 7/21/4
f 17/22/5 8/23/6 2/24/5
f 18/25/6 9/26/7 8/27/6
f 19/28/7 10/29/8 9/30/7
f 20/31/8 11/32/9 10/33/8
f 21/34/9 12/35/10 11/36/9
f 22/37/10 3/38/11 12/39/10
f 23/40/11 13/41/12 3/42/11
f 22/37/13 24/43/14 23/44/14
f 25/45/12 4/46/15 13/47/12
f 26/48/15 5/49/2 4/50/15
f 27/51/9 28/52/16 29/53/10
f 21/34/17 29/53/13 22/54/13
f 20/31/18 27/51/17 21/55/17
f 19/28/19 30/56/18 20/57/18
f 18/25/20 31/58/19 19/59/19
f 17/22/21 32/60/20 18/61/20
f 26/48/22 33/62/23 14/63/23
f 14/13/23 34/64/24 15/65/24
f 16/19/25 35/66/21 17/67/21
f 25/45/26 36/68/22 26/69/22
f 15/16/24 37/70/25 16/71/25
f 23/40/14 38/72/26 25/73/26
f 39/74/27 1/75/28 40/76/29
f 32/60/6 41/77/30 31/58/7
f 36/68/15 39/78/27 33/62/2
f 34/64/3 42/79/31 37/70/4
f 29/53/10 43/80/32 24/43/11
f 31/58/7 44/81/33 30/56/8
f 37/70/4 45/82/34 35/66/5
f 24/43/11 46/83/35 38/72/12
f 30/56/8 47/84/36 27/51/9
f 35/66/5 48/85/37 32/60/6
f 38/72/12 49/86/38 36/68/15
f 33/87/2 40/76/29 34/64/3
f 50/88/39 51/89/40 52/90/41
f 48/85/37 55/91/42 41/77/30
f 49/86/38 56/92/43 39/78/27
f 40/76/29 57/93/44 42/79/31
f 28/52/16 58/94/45 43/80/32
f 41/77/30 59/95/46 44/81/33
f 42/79/31 60/96/47 45/82/34
f 43/80/32 51/97/40 46/83/35
f 44/81/33 53/98/48 47/84/36
f 45/82/34 61/99/49 48/85/37
f 46/83/35 50/88/39 49/86/38
f 1/75/28 56/100/43 52/101/41
f 54/102/50 53/103/48 52/104/41
f 55/91/42 61/105/49 52/106/41
f 56/92/43 50/107/39 52/108/41
f 57/93/44 1/109/28 52/110/41
f 58/94/45 54/111/50 52/112/41
f 59/95/46 55/113/42 52/114/41
f 60/96/47 57/115/44 52/116/41
f 51/97/40 58/117/45 52/118/41
f 53/98/48 59/119/46 52/120/41
f 61/99/49 60/121/47 52/122/41
f 14/13/2 15/65/3 6/14/3
f 15/16/3 16/71/4 7/17/4
f 16/19/4 17/67/5 2/20/5
f 17/22/5 18/61/6 8/23/6
f 18/25/6 19/59/7 9/26/7
f 19/28/7 20/57/8 10/29/8
f 20/31/8 21/55/9 11/32/9
f 21/34/9 22/54/10 12/35/10
f 22/37/10 23/44/11 3/38/11
f 23/40/11 25/73/12 13/41/12
f 22/37/13 29/53/13 24/43/14
f 25/45/12 26/69/15 4/46/15
f 26/48/15 14/63/2 5/49/2
f 27/51/9 47/84/36 28/52/16
f 21/34/17 27/51/17 29/53/13
f 20/31/18 30/56/18 27/51/17
f 19/28/19 31/58/19 30/56/18
f 18/25/20 32/60/20 31/58/19
f 17/22/21 35/66/21 32/60/20
f 26/48/22 36/68/22 33/62/23
f 14/13/23 33/87/23 34/64/24
f 16/19/25 37/70/25 35/66/21
f 25/45/26 38/72/26 36/68/22
f 15/16/24 34/64/24 37/70/25
f 23/40/14 24/43/14 38/72/26
f 39/74/27 56/100/43 1/75/28
f 32/60/6 48/85/37 41/77/30
f 36/68/15 49/86/38 39/78/27
f 34/64/3 40/76/29 42/79/31
f 29/53/10 28/52/16 43/80/32
f 31/58/7 41/77/30 44/81/33
f 37/70/4 42/79/31 45/82/34
f 24/43/11 43/80/32 46/83/35
f 30/56/8 44/81/33 47/84/36
f 35/66/5 45/82/34 48/85/37
f 38/72/12 46/83/35 49/86/38
f 33/87/2 39/74/27 40/76/29
f 48/85/37 61/105/49 55/91/42
f 49/86/38 50/107/39 56/92/43
f 40/76/29 1/109/28 57/93/44
f 28/52/16 54/111/50 58/94/45
f 41/77/30 55/113/42 59/95/46
f 42/79/31 57/115/44 60/96/47
f 43/80/32 58/117/45 51/97/40
f 44/81/33 59/119/46 53/98/48
f 45/82/34 60/121/47 61/99/49
f 46/83/35 51/89/40 50/88/39
f 54/102/50 28/52/16 47/84/36
f 53/103/48 54/102/50 47/84/36
