# Blender 4.0.1
# www.blender.org
o rp_s_leggy
v -0.849992 0.033045 0.496439
v -0.849992 0.533045 0.496439
v -0.496439 0.033045 0.849992
v -0.496439 0.533045 0.849992
v -1.003856 0.033045 0.650302
v -1.062124 0.115450 0.708571
v -1.062124 0.450641 0.708571
v -1.003856 0.533045 0.650302
v -0.708571 0.115450 1.062124
v -0.650302 0.033045 1.003856
v -0.650302 0.533045 1.003856
v -0.708571 0.450641 1.062124
v -0.789770 3.272812 0.948462
v -0.804877 3.293595 0.882275
v -0.688566 0.267564 0.765965
v -0.672714 0.294310 0.831406
v -0.882275 3.293595 0.804877
v -0.948462 3.272812 0.789770
v -0.831406 0.294310 0.672714
v -0.765965 0.267564 0.688566
v -0.941251 3.182619 1.018649
v -0.874748 3.203660 1.033440
v -0.770931 0.400260 0.929623
v -0.835733 0.426317 0.913132
v -1.033440 3.203660 0.874748
v -1.018650 3.182619 0.941251
v -0.913132 0.426317 0.835733
v -0.929623 0.400260 0.770931
v -0.763342 3.384128 0.859843
v -0.761954 3.358202 0.924907
v -0.924907 3.358202 0.761954
v -0.859843 3.384128 0.763342
v -1.029848 3.245692 0.933347
v -1.030841 3.271940 0.867888
v -0.867889 3.271940 1.030841
v -0.933347 3.245692 1.029848
v -0.630406 3.380933 0.842210
v -0.622362 3.299396 1.050514
v -1.050514 3.299396 0.622362
v -0.842210 3.380933 0.630405
v -1.180607 3.105823 0.968008
v -1.187816 3.187843 0.759352
v -0.759352 3.187843 1.187816
v -0.968008 3.105823 1.180607
v -0.650090 3.429279 0.861894
v -0.642047 3.347742 1.070199
v -1.070199 3.347742 0.642047
v -0.861895 3.429279 0.650090
v -1.200292 3.154169 0.987692
v -1.207500 3.236189 0.779037
v -0.779037 3.236189 1.207500
v -0.987692 3.154169 1.200292
v 0.849992 0.033045 0.496439
v 0.849992 0.533045 0.496439
v 0.496439 0.033045 0.849992
v 0.496439 0.533045 0.849992
v 1.003856 0.033045 0.650302
v 1.062124 0.115450 0.708571
v 1.062124 0.450641 0.708571
v 1.003856 0.533045 0.650302
v 0.708571 0.115450 1.062124
v 0.650302 0.033045 1.003856
v 0.650302 0.533045 1.003856
v 0.708571 0.450641 1.062124
v 0.789770 3.272812 0.948462
v 0.804877 3.293595 0.882275
v 0.688566 0.267564 0.765965
v 0.672714 0.294310 0.831406
v 0.882275 3.293595 0.804877
v 0.948462 3.272812 0.789770
v 0.831406 0.294310 0.672714
v 0.765965 0.267564 0.688566
v 0.941251 3.182619 1.018649
v 0.874748 3.203660 1.033440
v 0.770931 0.400260 0.929623
v 0.835733 0.426317 0.913132
v 1.033440 3.203660 0.874748
v 1.018650 3.182619 0.941251
v 0.913132 0.426317 0.835733
v 0.929623 0.400260 0.770931
v 0.763342 3.384128 0.859843
v 0.761954 3.358202 0.924907
v 0.924907 3.358202 0.761954
v 0.859843 3.384128 0.763342
v 1.029848 3.245692 0.933347
v 1.030841 3.271940 0.867888
v 0.867889 3.271940 1.030841
v 0.933347 3.245692 1.029848
v 0.630406 3.380933 0.842210
v 0.622362 3.299396 1.050514
v 1.050514 3.299396 0.622362
v 0.842210 3.380933 0.630405
v 1.180607 3.105823 0.968008
v 1.187816 3.187843 0.759352
v 0.759352 3.187843 1.187816
v 0.968008 3.105823 1.180607
v 0.650090 3.429279 0.861894
v 0.642047 3.347742 1.070199
v 1.070199 3.347742 0.642047
v 0.861895 3.429279 0.650090
v 1.200292 3.154169 0.987692
v 1.207500 3.236189 0.779037
v 0.779037 3.236189 1.207500
v 0.987692 3.154169 1.200292
v -0.849992 0.033045 -0.496439
v -0.849992 0.533045 -0.496439
v -0.496439 0.033045 -0.849992
v -0.496439 0.533045 -0.849992
v -1.003856 0.033045 -0.650302
v -1.062124 0.115450 -0.708571
v -1.062124 0.450641 -0.708571
v -1.003856 0.533045 -0.650302
v -0.708571 0.115450 -1.062124
v -0.650302 0.033045 -1.003856
v -0.650302 0.533045 -1.003856
v -0.708571 0.450641 -1.062124
v -0.789770 3.272812 -0.948462
v -0.804877 3.293595 -0.882275
v -0.688566 0.267564 -0.765965
v -0.672714 0.294310 -0.831406
v -0.882275 3.293595 -0.804877
v -0.948462 3.272812 -0.789770
v -0.831406 0.294310 -0.672714
v -0.765965 0.267564 -0.688566
v -0.941251 3.182619 -1.018649
v -0.874748 3.203660 -1.033440
v -0.770931 0.400260 -0.929623
v -0.835733 0.426317 -0.913132
v -1.033440 3.203660 -0.874748
v -1.018650 3.182619 -0.941251
v -0.913132 0.426317 -0.835733
v -0.929623 0.400260 -0.770931
v -0.763342 3.384128 -0.859843
v -0.761954 3.358202 -0.924907
v -0.924907 3.358202 -0.761954
v -0.859843 3.384128 -0.763342
v -1.029848 3.245692 -0.933347
v -1.030841 3.271940 -0.867888
v -0.867889 3.271940 -1.030841
v -0.933347 3.245692 -1.029848
v -0.630406 3.380933 -0.842210
v -0.622362 3.299396 -1.050514
v -1.050514 3.299396 -0.622362
v -0.842210 3.380933 -0.630405
v -1.180607 3.105823 -0.968008
v -1.187816 3.187843 -0.759352
v -0.759352 3.187843 -1.187816
v -0.968008 3.105823 -1.180607
v -0.650090 3.429279 -0.861894
v -0.642047 3.347742 -1.070199
v -1.070199 3.347742 -0.642047
v -0.861895 3.429279 -0.650090
v -1.200292 3.154169 -0.987692
v -1.207500 3.236189 -0.779037
v -0.779037 3.236189 -1.207500
v -0.987692 3.154169 -1.200292
v 0.849992 0.033045 -0.496439
v 0.849992 0.533045 -0.496439
v 0.496439 0.033045 -0.849992
v 0.496439 0.533045 -0.849992
v 1.003856 0.033045 -0.650302
v 1.062124 0.115450 -0.708571
v 1.062124 0.450641 -0.708571
v 1.003856 0.533045 -0.650302
v 0.708571 0.115450 -1.062124
v 0.650302 0.033045 -1.003856
v 0.650302 0.533045 -1.003856
v 0.708571 0.450641 -1.062124
v 0.789770 3.272812 -0.948462
v 0.804877 3.293595 -0.882275
v 0.688566 0.267564 -0.765965
v 0.672714 0.294310 -0.831406
v 0.882275 3.293595 -0.804877
v 0.948462 3.272812 -0.789770
v 0.831406 0.294310 -0.672714
v 0.765965 0.267564 -0.688566
v 0.941251 3.182619 -1.018649
v 0.874748 3.203660 -1.033440
v 0.770931 0.400260 -0.929623
v 0.835733 0.426317 -0.913132
v 1.033440 3.203660 -0.874748
v 1.018650 3.182619 -0.941251
v 0.913132 0.426317 -0.835733
v 0.929623 0.400260 -0.770931
v 0.763342 3.384128 -0.859843
v 0.761954 3.358202 -0.924907
v 0.924907 3.358202 -0.761954
v 0.859843 3.384128 -0.763342
v 1.029848 3.245692 -0.933347
v 1.030841 3.271940 -0.867888
v 0.867889 3.271940 -1.030841
v 0.933347 3.245692 -1.029848
v 0.630406 3.380933 -0.842210
v 0.622362 3.299396 -1.050514
v 1.050514 3.299396 -0.622362
v 0.842210 3.380933 -0.630405
v 1.180607 3.105823 -0.968008
v 1.187816 3.187843 -0.759352
v 0.759352 3.187843 -1.187816
v 0.968008 3.105823 -1.180607
v 0.650090 3.429279 -0.861894
v 0.642047 3.347742 -1.070199
v 1.070199 3.347742 -0.642047
v 0.861895 3.429279 -0.650090
v 1.200292 3.154169 -0.987692
v 1.207500 3.236189 -0.779037
v 0.779037 3.236189 -1.207500
v 0.987692 3.154169 -1.200292
vn -0.7071 -0.0000 0.7071
vn 0.7071 -0.0000 0.7071
vn -0.0000 1.0000 -0.0000
vn -0.7071 -0.0000 -0.7071
vn -0.5000 -0.7071 0.5000
vn -0.5000 0.7071 0.5000
vn -0.0000 -1.0000 -0.0000
vn -0.7061 -0.0541 0.7061
vn 0.7061 0.0543 -0.7061
vn 0.9769 0.0466 -0.2084
vn 0.2532 0.0469 -0.9663
vn -0.9636 -0.0454 0.2635
vn -0.2635 -0.0454 0.9636
vn 0.3528 -0.8666 -0.3528
vn -0.3528 0.8666 0.3528
vn 0.3527 -0.8666 -0.3529
vn -0.3527 0.8668 0.3524
vn 0.3527 -0.8667 -0.3527
vn 0.3527 -0.8667 -0.3529
vn -0.3521 0.8672 0.3521
vn 0.1012 -0.3396 0.9351
vn -0.9351 -0.3395 -0.1012
vn 0.7077 0.0005 0.7065
vn -0.7065 0.0005 -0.7077
vn -0.0974 0.3410 -0.9350
vn 0.9350 0.3410 0.0974
vn -0.6128 -0.4990 0.6128
vn 0.6128 0.4990 -0.6128
vn -0.3524 0.8666 0.3532
vn -0.3520 0.8669 0.3529
vn 0.3525 -0.8668 -0.3526
vn 0.3526 -0.8667 -0.3529
vn -0.3529 0.8669 0.3520
vn 0.3528 -0.8667 -0.3525
vn 0.7071 -0.0000 -0.7071
vn 0.5000 -0.7071 0.5000
vn 0.5000 0.7071 0.5000
vn 0.7061 -0.0541 0.7061
vn -0.7061 0.0543 -0.7061
vn -0.9769 0.0466 -0.2084
vn -0.2084 0.0466 -0.9769
vn 0.9781 -0.0452 0.2032
vn 0.2635 -0.0454 0.9636
vn -0.3528 -0.8666 -0.3528
vn 0.3528 0.8666 0.3528
vn -0.3529 -0.8667 -0.3527
vn 0.3532 0.8666 0.3524
vn -0.3527 -0.8667 -0.3527
vn -0.3527 -0.8667 -0.3529
vn 0.3521 0.8672 0.3521
vn -0.1012 -0.3396 0.9351
vn 0.9351 -0.3395 -0.1012
vn -0.7077 0.0005 0.7065
vn 0.7065 0.0005 -0.7077
vn 0.0974 0.3410 -0.9350
vn -0.9350 0.3410 0.0974
vn 0.6128 -0.4990 0.6128
vn -0.6128 0.4990 -0.6128
vn 0.3524 0.8666 0.3532
vn 0.3520 0.8669 0.3529
vn -0.3525 -0.8667 -0.3528
vn 0.3529 0.8669 0.3520
vn -0.3528 -0.8667 -0.3525
vn -0.5000 -0.7071 -0.5000
vn -0.5000 0.7071 -0.5000
vn -0.7061 -0.0541 -0.7061
vn 0.7061 0.0543 0.7061
vn 0.9769 0.0466 0.2084
vn 0.2084 0.0466 0.9769
vn -0.9781 -0.0452 -0.2032
vn -0.2635 -0.0454 -0.9636
vn 0.3528 -0.8666 0.3528
vn -0.3528 0.8666 -0.3528
vn 0.3529 -0.8667 0.3527
vn -0.3532 0.8666 -0.3524
vn 0.3527 -0.8667 0.3527
vn 0.3527 -0.8667 0.3529
vn -0.3521 0.8672 -0.3521
vn 0.1012 -0.3396 -0.9351
vn -0.9351 -0.3395 0.1012
vn 0.7077 0.0005 -0.7065
vn -0.7065 0.0005 0.7077
vn -0.0974 0.3410 0.9350
vn 0.9350 0.3410 -0.0974
vn -0.6128 -0.4990 -0.6128
vn 0.6128 0.4990 0.6128
vn -0.3524 0.8666 -0.3532
vn -0.3520 0.8669 -0.3529
vn 0.3525 -0.8667 0.3528
vn -0.3529 0.8669 -0.3520
vn 0.3528 -0.8667 0.3525
vn 0.5000 -0.7071 -0.5000
vn 0.5000 0.7071 -0.5000
vn 0.7061 -0.0541 -0.7061
vn -0.7061 0.0543 0.7061
vn -0.9769 0.0466 0.2084
vn -0.2532 0.0469 0.9663
vn 0.9636 -0.0454 -0.2635
vn 0.2635 -0.0454 -0.9636
vn -0.3528 -0.8666 0.3528
vn 0.3528 0.8666 -0.3528
vn -0.3527 -0.8666 0.3529
vn 0.3527 0.8668 -0.3524
vn -0.3527 -0.8667 0.3527
vn -0.3527 -0.8667 0.3529
vn 0.3521 0.8672 -0.3521
vn -0.1012 -0.3396 -0.9351
vn 0.9351 -0.3395 0.1012
vn -0.7077 0.0005 -0.7065
vn 0.7065 0.0005 0.7077
vn 0.0974 0.3410 0.9350
vn -0.9350 0.3410 -0.0974
vn 0.6128 -0.4990 -0.6128
vn -0.6128 0.4990 0.6128
vn 0.3524 0.8666 -0.3532
vn 0.3520 0.8669 -0.3529
vn -0.3525 -0.8668 0.3526
vn -0.3526 -0.8667 0.3529
vn 0.3529 0.8669 -0.3520
vn -0.3528 -0.8667 0.3525
vn 0.9663 0.0469 -0.2532
vn 0.2084 0.0466 -0.9769
vn -0.9781 -0.0452 0.2032
vn -0.2032 -0.0452 0.9781
vn 0.3529 -0.8667 -0.3527
vn -0.3532 0.8666 0.3524
vn 0.3529 -0.8667 -0.3526
vn 0.3529 -0.8666 -0.3527
vn -0.3524 0.8668 0.3527
vn 0.3525 -0.8667 -0.3528
vn 0.3526 -0.8668 -0.3525
vn -0.9663 0.0469 -0.2532
vn -0.2532 0.0469 -0.9663
vn 0.9636 -0.0454 0.2635
vn 0.2032 -0.0452 0.9781
vn -0.3527 -0.8666 -0.3529
vn 0.3527 0.8668 0.3524
vn -0.3529 -0.8667 -0.3526
vn -0.3529 -0.8666 -0.3527
vn 0.3524 0.8668 0.3527
vn -0.3525 -0.8668 -0.3526
vn -0.3526 -0.8667 -0.3529
vn -0.3526 -0.8668 -0.3525
vn 0.9663 0.0469 0.2532
vn 0.2532 0.0469 0.9663
vn -0.9636 -0.0454 -0.2635
vn -0.2032 -0.0452 -0.9781
vn 0.3527 -0.8666 0.3529
vn -0.3527 0.8668 -0.3524
vn 0.3529 -0.8667 0.3526
vn 0.3529 -0.8666 0.3527
vn -0.3524 0.8668 -0.3527
vn 0.3525 -0.8668 0.3526
vn 0.3526 -0.8667 0.3529
vn 0.3526 -0.8668 0.3525
vn -0.9663 0.0469 0.2532
vn -0.2084 0.0466 0.9769
vn 0.9781 -0.0452 -0.2032
vn 0.2032 -0.0452 -0.9781
vn -0.3529 -0.8667 0.3527
vn 0.3532 0.8666 -0.3524
vn -0.3529 -0.8667 0.3526
vn -0.3529 -0.8666 0.3527
vn 0.3524 0.8668 -0.3527
vn -0.3525 -0.8667 0.3528
vn -0.3526 -0.8668 0.3525
vt 0.320312 0.500000
vt 0.453125 0.562500
vt 0.320312 0.562500
vt 0.000000 0.226562
vt 0.031250 1.000000
vt 0.000000 0.976562
vt 0.273438 0.648438
vt 0.210938 0.515625
vt 0.273438 0.515625
vt 0.335938 0.296875
vt 0.359375 0.187500
vt 0.421875 0.320312
vt 0.335938 0.351562
vt 0.414062 0.375000
vt 0.398438 0.484375
vt 0.453125 0.593750
vt 0.210938 0.648438
vt 0.187500 0.515625
vt 0.453125 0.632812
vt 0.320312 0.593750
vt 0.117188 0.195312
vt 0.148438 0.914062
vt 0.117188 0.914062
vt 0.187500 0.554688
vt 0.164062 0.187500
vt 0.187500 0.187500
vt 0.062500 1.000000
vt 0.101562 0.226562
vt 0.101562 0.976562
vt 0.031250 0.195312
vt 0.046875 1.000000
vt 0.062500 0.195312
vt 0.046875 0.195312
vt 0.101562 0.921875
vt 0.101562 0.187500
vt 0.164062 0.921875
vt 0.148438 0.195312
vt 0.289062 0.250000
vt 0.335938 0.304688
vt 0.289062 0.281250
vt 0.273438 0.414062
vt 0.257812 0.460938
vt 0.218750 0.445312
vt 0.273438 0.445312
vt 0.304688 0.390625
vt 0.304688 0.468750
vt 0.281250 0.296875
vt 0.296875 0.351562
vt 0.257812 0.398438
vt 0.234375 0.351562
vt 0.273438 0.351562
vt 0.242188 0.296875
vt 0.187500 0.304688
vt 0.234375 0.281250
vt 0.281250 0.234375
vt 0.335938 0.226562
vt 0.218750 0.414062
vt 0.203125 0.468750
vt 0.203125 0.390625
vt 0.304688 0.500000
vt 0.320312 0.453125
vt 0.335938 0.500000
vt 0.335938 0.453125
vt 0.304688 0.453125
vt 0.320312 0.390625
vt 0.335938 0.390625
vt 0.320312 0.351562
vt 0.320312 0.578125
vt 0.304688 0.578125
vt 0.187500 0.468750
vt 0.234375 0.515625
vt 0.226562 0.460938
vt 0.234375 0.187500
vt 0.296875 0.187500
vt 0.242188 0.234375
vt 0.187500 0.226562
vt 0.226562 0.398438
vt 0.234375 0.250000
vt 0.320312 0.632812
vt 0.304688 0.351562
vt 0.187500 0.390625
vt 0.453125 0.500000
vt 0.359375 0.320312
vt 0.335938 0.210938
vt 0.421875 0.187500
vt 0.335938 0.484375
vt 0.398438 0.351562
vt 0.414062 0.460938
vt 0.187500 0.648438
vt 0.164062 0.554688
s 0
f 12/1/1 6/2/1 9/3/1
f 23/4/2 13/5/2 22/6/2
f 2/7/3 11/8/3 4/9/3
f 6/10/4 8/11/4 1/12/4
f 4/13/2 12/14/2 10/15/2
f 5/16/5 9/3/5 6/2/5
f 8/17/6 12/18/6 11/8/6
f 1/19/7 10/20/7 5/16/7
f 27/21/8 21/22/8 26/23/8
f 15/24/9 17/25/9 14/26/9
f 18/27/4 28/28/4 25/29/4
f 16/30/10 14/31/10 13/5/10
f 19/32/11 17/31/11 20/33/11
f 27/21/12 25/34/12 28/35/12
f 22/36/13 24/37/13 23/25/13
f 17/38/14 37/39/14 14/40/14
f 33/41/15 35/42/15 29/43/15
f 36/44/15 49/45/15 52/46/15
f 13/47/16 37/39/16 38/48/16
f 34/49/17 47/50/17 50/51/17
f 22/52/18 44/53/18 21/54/18
f 18/55/19 40/56/19 17/38/19
f 32/57/20 45/58/20 48/59/20
f 36/44/15 51/9/15 35/42/15
f 44/60/21 51/61/21 52/1/21
f 41/62/22 50/61/22 42/63/22
f 43/64/23 46/65/23 51/61/23
f 42/63/24 47/65/24 39/66/24
f 39/66/25 48/67/25 40/13/25
f 38/45/26 45/67/26 46/65/26
f 44/60/27 49/68/27 41/69/27
f 37/70/28 48/59/28 45/58/28
f 35/42/29 46/71/29 30/72/29
f 30/72/30 45/58/30 29/43/30
f 18/55/31 42/73/31 39/74/31
f 25/75/32 41/76/32 42/73/32
f 31/77/33 48/59/33 47/50/33
f 26/78/18 44/53/18 41/76/18
f 33/41/15 50/51/15 49/45/15
f 13/47/34 43/50/34 22/52/34
f 58/2/2 64/1/2 61/3/2
f 65/5/1 75/4/1 74/6/1
f 63/8/3 54/7/3 56/9/3
f 53/12/35 60/11/35 58/10/35
f 62/15/1 64/14/1 56/13/1
f 58/2/36 62/20/36 57/16/36
f 64/18/37 60/17/37 63/8/37
f 53/19/7 62/20/7 55/79/7
f 73/22/38 79/21/38 78/23/38
f 69/25/39 67/24/39 66/26/39
f 70/27/35 80/28/35 71/32/35
f 66/31/40 68/30/40 65/5/40
f 71/32/41 69/31/41 70/27/41
f 79/21/42 77/34/42 78/23/42
f 76/37/43 74/36/43 75/25/43
f 89/39/44 69/38/44 66/40/44
f 87/42/45 85/41/45 83/77/45
f 88/44/45 101/45/45 85/41/45
f 65/47/46 89/39/46 66/40/46
f 86/49/47 99/50/47 83/77/47
f 96/53/48 74/52/48 73/54/48
f 92/56/49 70/55/49 69/38/49
f 84/57/50 97/58/50 81/43/50
f 103/9/45 88/44/45 87/42/45
f 96/60/51 103/61/51 95/64/51
f 102/61/52 93/62/52 94/63/52
f 95/64/53 98/65/53 90/45/53
f 99/65/54 94/63/54 91/66/54
f 100/67/55 91/66/55 92/13/55
f 90/45/56 97/67/56 89/80/56
f 101/68/57 96/60/57 93/69/57
f 89/70/58 100/59/58 92/81/58
f 98/71/59 87/42/59 82/72/59
f 97/58/60 82/72/60 81/43/60
f 70/55/61 94/73/61 77/75/61
f 77/75/48 93/76/48 78/78/48
f 83/77/62 100/59/62 84/57/62
f 78/78/48 96/53/48 73/54/48
f 85/41/45 102/51/45 86/49/45
f 95/50/63 65/47/63 74/52/63
f 110/2/4 116/1/4 113/3/4
f 117/5/35 127/4/35 126/6/35
f 115/8/3 106/7/3 108/9/3
f 105/12/1 112/11/1 110/10/1
f 114/15/35 116/14/35 108/13/35
f 110/2/64 114/20/64 109/16/64
f 116/18/65 112/17/65 115/8/65
f 105/19/7 114/20/7 107/79/7
f 125/22/66 131/21/66 130/23/66
f 121/25/67 119/24/67 118/26/67
f 122/27/1 132/28/1 123/32/1
f 118/31/68 120/30/68 117/5/68
f 123/32/69 121/31/69 122/27/69
f 131/21/70 129/34/70 130/23/70
f 128/37/71 126/36/71 127/25/71
f 141/39/72 121/38/72 118/40/72
f 139/42/73 137/41/73 135/77/73
f 140/44/73 153/45/73 137/41/73
f 117/47/74 141/39/74 118/40/74
f 138/49/75 151/50/75 135/77/75
f 148/53/76 126/52/76 125/54/76
f 144/56/77 122/55/77 121/38/77
f 136/57/78 149/58/78 133/43/78
f 155/9/73 140/44/73 139/42/73
f 148/60/79 155/61/79 147/64/79
f 154/61/80 145/62/80 146/63/80
f 147/64/81 150/65/81 142/45/81
f 151/65/82 146/63/82 143/66/82
f 152/67/83 143/66/83 144/13/83
f 142/45/84 149/67/84 141/80/84
f 153/68/85 148/60/85 145/69/85
f 141/70/86 152/59/86 144/81/86
f 150/71/87 139/42/87 134/72/87
f 149/58/88 134/72/88 133/43/88
f 122/55/89 146/73/89 129/75/89
f 129/75/76 145/76/76 130/78/76
f 135/77/90 152/59/90 136/57/90
f 130/78/76 148/53/76 125/54/76
f 137/41/73 154/51/73 138/49/73
f 147/50/91 117/47/91 126/52/91
f 168/1/35 162/2/35 165/3/35
f 179/4/4 169/5/4 178/6/4
f 158/7/3 167/8/3 160/9/3
f 162/10/2 164/11/2 157/12/2
f 160/13/4 168/14/4 166/15/4
f 161/16/92 165/3/92 162/2/92
f 164/17/93 168/18/93 167/8/93
f 157/19/7 166/20/7 161/16/7
f 183/21/94 177/22/94 182/23/94
f 171/24/95 173/25/95 170/26/95
f 174/27/2 184/28/2 181/29/2
f 172/30/96 170/31/96 169/5/96
f 175/32/97 173/31/97 176/33/97
f 183/21/98 181/34/98 184/35/98
f 178/36/99 180/37/99 179/25/99
f 173/38/100 193/39/100 170/40/100
f 189/41/101 191/42/101 185/43/101
f 192/44/101 205/45/101 208/46/101
f 169/47/102 193/39/102 194/48/102
f 190/49/103 203/50/103 206/51/103
f 178/52/104 200/53/104 177/54/104
f 174/55/105 196/56/105 173/38/105
f 188/57/106 201/58/106 204/59/106
f 192/44/101 207/9/101 191/42/101
f 200/60/107 207/61/107 208/1/107
f 197/62/108 206/61/108 198/63/108
f 199/64/109 202/65/109 207/61/109
f 198/63/110 203/65/110 195/66/110
f 195/66/111 204/67/111 196/13/111
f 194/45/112 201/67/112 202/65/112
f 200/60/113 205/68/113 197/69/113
f 193/70/114 204/59/114 201/58/114
f 191/42/115 202/71/115 186/72/115
f 186/72/116 201/58/116 185/43/116
f 174/55/117 198/73/117 195/74/117
f 181/75/118 197/76/118 198/73/118
f 187/77/119 204/59/119 203/50/119
f 182/78/104 200/53/104 197/76/104
f 189/41/101 206/51/101 205/45/101
f 169/47/120 199/50/120 178/52/120
f 12/1/1 7/82/1 6/2/1
f 23/4/2 16/30/2 13/5/2
f 2/7/3 8/17/3 11/8/3
f 1/12/4 5/83/4 6/10/4
f 6/10/4 7/84/4 8/11/4
f 8/11/4 2/85/4 1/12/4
f 10/15/2 3/86/2 4/13/2
f 4/13/2 11/87/2 12/14/2
f 12/14/2 9/88/2 10/15/2
f 5/16/5 10/20/5 9/3/5
f 8/17/6 7/89/6 12/18/6
f 1/19/7 3/79/7 10/20/7
f 27/21/8 24/37/8 21/22/8
f 15/24/9 20/90/9 17/25/9
f 18/27/4 19/32/4 28/28/4
f 16/30/121 15/33/121 14/31/121
f 19/32/122 18/27/122 17/31/122
f 27/21/123 26/23/123 25/34/123
f 22/36/124 21/22/124 24/37/124
f 17/38/14 40/56/14 37/39/14
f 29/43/15 32/57/15 31/77/15
f 31/77/15 34/49/15 33/41/15
f 33/41/15 36/44/15 35/42/15
f 35/42/15 30/72/15 29/43/15
f 29/43/15 31/77/15 33/41/15
f 36/44/15 33/41/15 49/45/15
f 13/47/125 14/40/125 37/39/125
f 34/49/126 31/77/126 47/50/126
f 22/52/127 43/50/127 44/53/127
f 18/55/128 39/74/128 40/56/128
f 32/57/20 29/43/20 45/58/20
f 36/44/15 52/46/15 51/9/15
f 44/60/21 43/64/21 51/61/21
f 41/62/22 49/1/22 50/61/22
f 43/64/23 38/45/23 46/65/23
f 42/63/24 50/61/24 47/65/24
f 39/66/25 47/65/25 48/67/25
f 38/45/26 37/80/26 45/67/26
f 44/60/27 52/1/27 49/68/27
f 37/70/28 40/81/28 48/59/28
f 35/42/129 51/9/129 46/71/129
f 30/72/30 46/71/30 45/58/30
f 18/55/130 25/75/130 42/73/130
f 25/75/18 26/78/18 41/76/18
f 31/77/33 32/57/33 48/59/33
f 26/78/18 21/54/18 44/53/18
f 33/41/15 34/49/15 50/51/15
f 13/47/131 38/48/131 43/50/131
f 58/2/2 59/82/2 64/1/2
f 65/5/1 68/30/1 75/4/1
f 63/8/3 60/17/3 54/7/3
f 58/10/35 57/83/35 53/12/35
f 53/12/35 54/85/35 60/11/35
f 60/11/35 59/84/35 58/10/35
f 56/13/1 55/86/1 62/15/1
f 62/15/1 61/88/1 64/14/1
f 64/14/1 63/87/1 56/13/1
f 58/2/36 61/3/36 62/20/36
f 64/18/37 59/89/37 60/17/37
f 53/19/7 57/16/7 62/20/7
f 73/22/38 76/37/38 79/21/38
f 69/25/39 72/90/39 67/24/39
f 70/27/35 77/29/35 80/28/35
f 66/31/132 67/33/132 68/30/132
f 71/32/133 72/33/133 69/31/133
f 79/21/134 80/35/134 77/34/134
f 76/37/135 73/22/135 74/36/135
f 89/39/44 92/56/44 69/38/44
f 83/77/45 84/57/45 81/43/45
f 81/43/45 82/72/45 87/42/45
f 87/42/45 88/44/45 85/41/45
f 85/41/45 86/49/45 83/77/45
f 83/77/45 81/43/45 87/42/45
f 88/44/45 104/46/45 101/45/45
f 65/47/136 90/48/136 89/39/136
f 86/49/137 102/51/137 99/50/137
f 96/53/138 95/50/138 74/52/138
f 92/56/139 91/74/139 70/55/139
f 84/57/50 100/59/50 97/58/50
f 103/9/45 104/46/45 88/44/45
f 96/60/51 104/1/51 103/61/51
f 102/61/52 101/1/52 93/62/52
f 95/64/53 103/61/53 98/65/53
f 99/65/54 102/61/54 94/63/54
f 100/67/55 99/65/55 91/66/55
f 90/45/56 98/65/56 97/67/56
f 101/68/57 104/1/57 96/60/57
f 89/70/58 97/58/58 100/59/58
f 98/71/140 103/9/140 87/42/140
f 97/58/60 98/71/60 82/72/60
f 70/55/141 91/74/141 94/73/141
f 77/75/142 94/73/142 93/76/142
f 83/77/62 99/50/62 100/59/62
f 78/78/48 93/76/48 96/53/48
f 85/41/45 101/45/45 102/51/45
f 95/50/143 90/48/143 65/47/143
f 110/2/4 111/82/4 116/1/4
f 117/5/35 120/30/35 127/4/35
f 115/8/3 112/17/3 106/7/3
f 110/10/1 109/83/1 105/12/1
f 105/12/1 106/85/1 112/11/1
f 112/11/1 111/84/1 110/10/1
f 108/13/35 107/86/35 114/15/35
f 114/15/35 113/88/35 116/14/35
f 116/14/35 115/87/35 108/13/35
f 110/2/64 113/3/64 114/20/64
f 116/18/65 111/89/65 112/17/65
f 105/19/7 109/16/7 114/20/7
f 125/22/66 128/37/66 131/21/66
f 121/25/67 124/90/67 119/24/67
f 122/27/1 129/29/1 132/28/1
f 118/31/144 119/33/144 120/30/144
f 123/32/145 124/33/145 121/31/145
f 131/21/146 132/35/146 129/34/146
f 128/37/147 125/22/147 126/36/147
f 141/39/72 144/56/72 121/38/72
f 135/77/73 136/57/73 133/43/73
f 133/43/73 134/72/73 139/42/73
f 139/42/73 140/44/73 137/41/73
f 137/41/73 138/49/73 135/77/73
f 135/77/73 133/43/73 139/42/73
f 140/44/73 156/46/73 153/45/73
f 117/47/148 142/48/148 141/39/148
f 138/49/149 154/51/149 151/50/149
f 148/53/150 147/50/150 126/52/150
f 144/56/151 143/74/151 122/55/151
f 136/57/78 152/59/78 149/58/78
f 155/9/73 156/46/73 140/44/73
f 148/60/79 156/1/79 155/61/79
f 154/61/80 153/1/80 145/62/80
f 147/64/81 155/61/81 150/65/81
f 151/65/82 154/61/82 146/63/82
f 152/67/83 151/65/83 143/66/83
f 142/45/84 150/65/84 149/67/84
f 153/68/85 156/1/85 148/60/85
f 141/70/86 149/58/86 152/59/86
f 150/71/152 155/9/152 139/42/152
f 149/58/88 150/71/88 134/72/88
f 122/55/153 143/74/153 146/73/153
f 129/75/154 146/73/154 145/76/154
f 135/77/90 151/50/90 152/59/90
f 130/78/76 145/76/76 148/53/76
f 137/41/73 153/45/73 154/51/73
f 147/50/155 142/48/155 117/47/155
f 168/1/35 163/82/35 162/2/35
f 179/4/4 172/30/4 169/5/4
f 158/7/3 164/17/3 167/8/3
f 157/12/2 161/83/2 162/10/2
f 162/10/2 163/84/2 164/11/2
f 164/11/2 158/85/2 157/12/2
f 166/15/4 159/86/4 160/13/4
f 160/13/4 167/87/4 168/14/4
f 168/14/4 165/88/4 166/15/4
f 161/16/92 166/20/92 165/3/92
f 164/17/93 163/89/93 168/18/93
f 157/19/7 159/79/7 166/20/7
f 183/21/94 180/37/94 177/22/94
f 171/24/95 176/90/95 173/25/95
f 174/27/2 175/32/2 184/28/2
f 172/30/156 171/33/156 170/31/156
f 175/32/157 174/27/157 173/31/157
f 183/21/158 182/23/158 181/34/158
f 178/36/159 177/22/159 180/37/159
f 173/38/100 196/56/100 193/39/100
f 185/43/101 188/57/101 187/77/101
f 187/77/101 190/49/101 189/41/101
f 189/41/101 192/44/101 191/42/101
f 191/42/101 186/72/101 185/43/101
f 185/43/101 187/77/101 189/41/101
f 192/44/101 189/41/101 205/45/101
f 169/47/160 170/40/160 193/39/160
f 190/49/161 187/77/161 203/50/161
f 178/52/162 199/50/162 200/53/162
f 174/55/163 195/74/163 196/56/163
f 188/57/106 185/43/106 201/58/106
f 192/44/101 208/46/101 207/9/101
f 200/60/107 199/64/107 207/61/107
f 197/62/108 205/1/108 206/61/108
f 199/64/109 194/45/109 202/65/109
f 198/63/110 206/61/110 203/65/110
f 195/66/111 203/65/111 204/67/111
f 194/45/112 193/80/112 201/67/112
f 200/60/113 208/1/113 205/68/113
f 193/70/114 196/81/114 204/59/114
f 191/42/164 207/9/164 202/71/164
f 186/72/116 202/71/116 201/58/116
f 174/55/165 181/75/165 198/73/165
f 181/75/104 182/78/104 197/76/104
f 187/77/119 188/57/119 204/59/119
f 182/78/104 177/54/104 200/53/104
f 189/41/101 190/49/101 206/51/101
f 169/47/166 194/48/166 199/50/166
