# Blender v2.79 (sub 0) OBJ File: 'debris.blend'
# www.blender.org
o Cube
v 0.500000 0.000000 -0.500000
v 0.500000 0.000000 0.500000
v -0.500000 0.000000 0.500000
v -0.500000 0.000000 -0.500000
v 0.500000 1.000000 -0.500000
v 0.500000 1.000000 0.500000
v -0.500000 1.000000 0.500000
v -0.500000 1.000000 -0.500000
v 0.581912 -0.022128 -0.012755
v -0.010436 -0.034891 -0.517703
v 0.481928 0.507906 -0.488355
v -0.010436 -0.034891 0.482297
v 0.481928 0.507906 0.511645
v -0.418088 -0.022128 -0.012755
v -0.518072 0.507906 0.511645
v -0.518072 0.507906 -0.488355
v 0.581912 0.977872 -0.012754
v -0.010436 0.965109 -0.517702
v -0.010436 0.965109 0.482298
v -0.418088 0.977872 -0.012755
v 0.062320 0.478107 -0.430166
v -0.593986 0.498937 0.027902
v 0.062319 0.478107 0.569834
v 0.406014 0.498937 0.027903
v -0.000000 1.000000 0.000000
v 0.000000 0.000000 -0.000000
vt 0.500000 0.500000
vt 0.500000 0.999900
vt 0.000100 0.999900
vt 0.500000 0.500000
vt 0.000100 0.500000
vt 0.000100 0.000100
vt 0.500000 0.500000
vt 0.500000 0.999900
vt 0.000100 0.999900
vt 0.500000 0.500000
vt 0.500000 0.999900
vt 0.000100 0.999900
vt 0.500000 0.500000
vt 0.500000 0.000100
vt 0.999900 0.000100
vt 0.500000 0.500000
vt 0.000100 0.999900
vt 0.000100 0.500000
vt 0.500000 0.000100
vt 0.000100 0.000100
vt 0.999900 0.000100
vt 0.999900 0.500000
vt 0.999900 0.999900
vt 0.500000 0.999900
vt 0.999900 0.999900
vt 0.000100 0.500000
vt 0.500000 0.000100
vt 0.000100 0.000100
vt 0.999900 0.000100
vt 0.999900 0.500000
vt 0.999900 0.999900
vt 0.500000 0.000100
vt 0.000100 0.000100
vt 0.999900 0.000100
vt 0.999900 0.999900
vt 0.999900 0.500000
vt 0.999899 0.000100
vt 0.500000 0.999900
vt 0.000100 0.999900
vt 0.500000 0.000100
vt 0.000100 0.000100
vt 0.999900 0.500000
vt 0.999900 0.999900
vt 0.000100 0.500000
vt 0.999900 0.500000
vt 0.500000 0.999900
vt 0.500000 0.000100
vt 0.000100 0.500000
vn -0.0735 -0.9946 -0.0735
vn -0.0512 0.9974 -0.0512
vn 0.9306 -0.3279 0.1628
vn 0.0486 0.1837 0.9818
vn -0.9201 0.3524 0.1707
vn 0.1011 0.0264 -0.9945
vn -0.0486 -0.1837 -0.9818
vn -0.1361 -0.0184 -0.9905
vn -0.1386 0.0178 -0.9902
vn -0.9344 -0.3265 0.1423
vn -0.9871 -0.0387 0.1556
vn -0.9872 0.0399 0.1542
vn 0.0234 -0.1714 0.9849
vn 0.1386 -0.0178 0.9902
vn 0.1361 0.0184 0.9905
vn 0.9417 0.3072 0.1372
vn 0.9888 0.0318 0.1459
vn 0.9889 -0.0329 0.1448
vn 0.0372 0.9986 -0.0372
vn -0.0658 0.9957 -0.0658
vn 0.0685 0.9953 -0.0685
vn -0.0685 -0.9953 0.0685
vn -0.0388 -0.9985 -0.0388
vn -0.0372 -0.9986 0.0372
vn 0.9872 -0.0399 -0.1542
vn 0.9344 0.3265 -0.1423
vn 0.9201 -0.3524 -0.1707
vn 0.9871 0.0387 -0.1556
vn -0.0983 0.0272 0.9948
vn -0.0458 0.1701 0.9844
vn -0.0229 -0.1650 0.9860
vn -0.1011 -0.0264 0.9945
vn -0.9417 -0.3072 -0.1372
vn -0.9888 -0.0318 -0.1459
vn -0.9889 0.0329 -0.1448
vn -0.9306 0.3279 -0.1628
vn 0.0229 0.1650 -0.9860
vn -0.0234 0.1714 -0.9849
vn 0.0983 -0.0272 -0.9948
vn 0.0458 -0.1701 -0.9844
vn -0.0705 0.9950 0.0705
vn 0.0735 0.9946 0.0735
vn -0.0544 0.9970 0.0544
vn 0.0388 0.9985 0.0388
vn 0.0512 -0.9974 0.0512
vn 0.0544 -0.9970 -0.0544
vn 0.0705 -0.9950 -0.0705
vn 0.0658 -0.9957 0.0658
s off
f 26/1/1 12/2/1 3/3/1
f 25/4/2 20/5/2 7/6/2
f 24/7/3 17/8/3 6/9/3
f 23/10/4 19/11/4 7/12/4
f 22/13/5 20/14/5 8/15/5
f 21/16/6 4/17/6 16/18/6
f 18/19/7 21/16/7 8/20/7
f 5/21/8 11/22/8 21/16/8
f 11/22/9 1/23/9 21/16/9
f 14/24/10 22/13/10 4/25/10
f 3/3/11 15/26/11 22/13/11
f 15/26/12 7/6/12 22/13/12
f 12/27/13 23/10/13 3/28/13
f 2/29/14 13/30/14 23/10/14
f 13/30/15 6/31/15 23/10/15
f 9/32/16 24/7/16 2/33/16
f 1/34/17 11/22/17 24/7/17
f 11/22/18 5/35/18 24/7/18
f 17/36/19 25/4/19 6/37/19
f 5/35/20 18/38/20 25/4/20
f 18/38/21 8/39/21 25/4/21
f 10/40/22 26/1/22 4/41/22
f 1/34/23 9/42/23 26/1/23
f 9/42/24 2/43/24 26/1/24
f 6/9/25 13/44/25 24/7/25
f 24/7/26 9/32/26 1/34/26
f 24/7/27 5/35/27 17/8/27
f 2/33/28 24/7/28 13/44/28
f 7/12/29 15/26/29 23/10/29
f 23/10/30 6/31/30 19/11/30
f 23/10/31 12/27/31 2/29/31
f 3/28/32 23/10/32 15/26/32
f 22/13/33 14/24/33 3/3/33
f 4/25/34 22/13/34 16/45/34
f 8/15/35 16/45/35 22/13/35
f 22/13/36 7/6/36 20/14/36
f 21/16/37 1/23/37 10/46/37
f 4/17/38 21/16/38 10/46/38
f 8/20/39 21/16/39 16/18/39
f 21/16/40 18/19/40 5/21/40
f 6/37/41 25/4/41 19/47/41
f 7/6/42 19/47/42 25/4/42
f 25/4/43 8/39/43 20/5/43
f 25/4/44 17/36/44 5/35/44
f 3/3/45 14/48/45 26/1/45
f 4/41/46 26/1/46 14/48/46
f 26/1/47 2/43/47 12/2/47
f 26/1/48 10/40/48 1/34/48
