# Blender v2.79 (sub 0) OBJ File: ''
# www.blender.org
o Lever
v 0.093750 0.812500 -0.062500
v 0.093750 0.500000 -0.062500
v 0.156250 0.812500 -0.062500
v 0.156250 0.500000 -0.062500
v 0.093750 0.500000 -0.125000
v 0.093750 0.875000 -0.125000
v 0.156250 0.500000 -0.125000
v 0.156250 0.875000 -0.125000
v 0.093750 0.875000 0.125000
v 0.093750 0.500000 0.125000
v 0.156250 0.875000 0.125000
v 0.156250 0.500000 0.125000
v 0.093750 0.500000 0.062500
v 0.093750 0.812500 0.062500
v 0.156250 0.500000 0.062500
v 0.156250 0.812500 0.062500
v 0.093750 0.875000 0.031250
v 0.156250 0.875000 0.031250
v 0.093750 0.875000 -0.031250
v 0.156250 0.875000 -0.031250
v 0.093750 1.062500 0.031250
v 0.156250 1.062500 0.031250
v 0.093750 1.062500 -0.031250
v 0.156250 1.062500 -0.031250
v 0.093750 0.593750 -0.156250
v 0.093750 0.531250 -0.156250
v 0.156250 0.593750 -0.156250
v 0.156250 0.531250 -0.156250
v 0.093750 0.531250 -0.187500
v 0.093750 0.593750 -0.187500
v 0.156250 0.531250 -0.187500
v 0.156250 0.593750 -0.187500
v 0.093750 0.593750 0.187500
v 0.093750 0.531250 0.187500
v 0.156250 0.593750 0.187500
v 0.156250 0.531250 0.187500
v 0.093750 0.531250 0.156250
v 0.093750 0.593750 0.156250
v 0.156250 0.531250 0.156250
v 0.156250 0.593750 0.156250
vt 0.600000 0.066667
vt 0.550000 0.400000
vt 0.550000 0.066667
vt 0.700000 0.466667
vt 0.650000 0.066667
vt 0.700000 0.066667
vt 0.500000 0.400000
vt 0.650000 0.466667
vt 0.450000 0.466667
vt 0.450000 0.066667
vt 0.500000 0.066667
vt 0.600000 0.000000
vt 0.600000 0.400000
vt 0.650000 0.466667
vt 0.450000 0.066667
vt 0.400000 0.466667
vt 0.400000 0.066667
vt 0.550000 0.400000
vt 0.500000 0.066667
vt 0.550000 0.066667
vt 0.500000 0.400000
vt 0.600000 0.333333
vt 0.650000 0.066667
vt 0.600000 0.400000
vt 0.600000 0.066667
vt 0.450000 0.000000
vt 0.450000 0.466667
vt 0.650000 0.533333
vt 0.900000 0.200000
vt 0.850000 0.000000
vt 0.900000 0.000000
vt 0.850000 0.200000
vt 0.800000 0.000000
vt 0.750000 0.200000
vt 0.700000 0.000000
vt 0.750000 0.000000
vt 0.800000 0.200000
vt 0.750000 0.266667
vt 0.800000 0.266667
vt 0.400000 0.533333
vt 0.450000 0.466667
vt 0.450000 0.533333
vt 0.450000 0.600000
vt 0.400000 0.533333
vt 0.450000 0.533333
vt 0.450000 0.466667
vt 0.400000 0.466667
vt 0.350000 0.533333
vt 0.400000 0.600000
vt 0.350000 0.600000
vt 0.400000 0.666667
vt 0.450000 0.666667
vt 0.500000 0.600000
vt 0.500000 0.533333
vt 0.500000 0.600000
vt 0.450000 0.600000
vt 0.400000 0.666667
vt 0.400000 0.600000
vt 0.350000 0.533333
vt 0.650000 0.000000
vt 0.500000 0.333333
vt 0.500000 0.000000
vt 0.450000 0.533333
vt 0.700000 0.200000
vt 0.400000 0.466667
vt 0.500000 0.533333
vt 0.450000 0.666667
vt 0.350000 0.600000
vn 0.0000 0.0000 1.0000
vn 0.0000 0.0000 -1.0000
vn -1.0000 0.0000 0.0000
vn 0.0000 -1.0000 0.0000
vn 1.0000 0.0000 0.0000
vn 0.0000 1.0000 0.0000
s off
f 4/1/1 1/2/1 2/3/1
f 6/4/2 7/5/2 5/6/2
f 1/7/3 9/8/3 6/9/3
f 1/7/3 5/10/3 2/11/3
f 2/12/4 7/5/4 4/1/4
f 3/13/5 7/5/5 8/14/5
f 12/15/1 9/16/1 10/17/1
f 14/18/2 15/19/2 13/20/2
f 16/21/4 1/22/4 3/13/4
f 10/23/3 14/24/3 13/25/3
f 10/26/4 15/19/4 12/15/4
f 12/15/5 16/21/5 11/27/5
f 6/28/6 11/27/6 8/14/6
f 8/14/5 16/21/5 3/13/5
f 21/29/3 19/30/3 17/31/3
f 23/32/2 20/33/2 19/30/2
f 22/34/1 17/35/1 18/36/1
f 24/37/5 18/36/5 20/33/5
f 21/38/6 24/37/6 23/39/6
f 34/40/4 39/41/4 36/42/4
f 30/43/2 31/44/2 29/45/2
f 26/46/4 31/44/4 28/47/4
f 28/48/5 32/49/5 27/50/5
f 27/51/6 30/43/6 25/52/6
f 25/53/3 29/45/3 26/54/3
f 36/42/5 40/55/5 35/56/5
f 35/56/6 38/57/6 33/58/6
f 33/58/3 37/59/3 34/40/3
f 34/40/1 35/56/1 33/58/1
f 4/1/1 3/13/1 1/2/1
f 6/4/2 8/14/2 7/5/2
f 1/7/3 14/24/3 9/8/3
f 1/7/3 6/9/3 5/10/3
f 2/12/4 5/60/4 7/5/4
f 3/13/5 4/1/5 7/5/5
f 12/15/1 11/27/1 9/16/1
f 14/18/2 16/21/2 15/19/2
f 16/21/4 14/61/4 1/22/4
f 10/23/3 9/8/3 14/24/3
f 10/26/4 13/62/4 15/19/4
f 12/15/5 15/19/5 16/21/5
f 6/28/6 9/63/6 11/27/6
f 8/14/5 11/27/5 16/21/5
f 21/29/3 23/32/3 19/30/3
f 23/32/2 24/37/2 20/33/2
f 22/34/1 21/64/1 17/35/1
f 24/37/5 22/34/5 18/36/5
f 21/38/6 22/34/6 24/37/6
f 34/40/4 37/65/4 39/41/4
f 30/43/2 32/49/2 31/44/2
f 26/46/4 29/45/4 31/44/4
f 28/48/5 31/44/5 32/49/5
f 27/51/6 32/49/6 30/43/6
f 25/53/3 30/43/3 29/45/3
f 36/42/5 39/66/5 40/55/5
f 35/56/6 40/67/6 38/57/6
f 33/58/3 38/68/3 37/59/3
f 34/40/1 36/42/1 35/56/1
o Base
v 0.000000 0.968750 0.156250
v 0.000000 0.156250 0.156250
v 0.000000 0.968750 -0.156250
v 0.000000 0.156250 -0.156250
v 0.062500 0.968750 -0.156250
v 0.062500 0.968750 0.156250
v 0.062500 0.156250 0.156250
v 0.062500 0.156250 -0.156250
v 0.062500 0.625000 0.062500
v 0.062500 0.500000 0.062500
v 0.062500 0.625000 -0.062500
v 0.062500 0.500000 -0.062500
v 0.187500 0.625000 -0.062500
v 0.187500 0.625000 0.062500
v 0.187500 0.500000 0.062500
v 0.187500 0.500000 -0.062500
v 0.062500 0.437500 0.156250
v 0.062500 0.375000 0.156250
v 0.062500 0.437500 0.031250
v 0.062500 0.375000 0.031250
v 0.156250 0.437500 0.031250
v 0.156250 0.437500 0.156250
v 0.156250 0.375000 0.156250
v 0.156250 0.375000 0.031250
v 0.156250 0.437500 0.062500
v 0.093750 0.437500 0.125000
v 0.156250 0.437500 0.125000
v 0.156250 0.375000 0.125000
v 0.093750 0.437500 0.062500
v 0.156250 0.375000 0.062500
v 0.093750 0.375000 0.125000
v 0.093750 0.375000 0.062500
v 0.062500 0.625000 0.156250
v 0.062500 0.500000 0.156250
v 0.062500 0.625000 0.125000
v 0.062500 0.500000 0.125000
v 0.187500 0.625000 0.125000
v 0.187500 0.625000 0.156250
v 0.187500 0.500000 0.156250
v 0.187500 0.500000 0.125000
v 0.062500 0.625000 -0.125000
v 0.062500 0.500000 -0.125000
v 0.062500 0.625000 -0.156250
v 0.062500 0.500000 -0.156250
v 0.187500 0.625000 -0.156250
v 0.187500 0.625000 -0.125000
v 0.187500 0.500000 -0.125000
v 0.187500 0.500000 -0.156250
v 0.062500 0.437500 -0.031250
v 0.062500 0.375000 -0.031250
v 0.062500 0.437500 -0.156250
v 0.062500 0.375000 -0.156250
v 0.156250 0.437500 -0.156250
v 0.156250 0.437500 -0.031250
v 0.156250 0.375000 -0.031250
v 0.156250 0.375000 -0.156250
v 0.156250 0.437500 -0.125000
v 0.093750 0.437500 -0.062500
v 0.156250 0.437500 -0.062500
v 0.156250 0.375000 -0.062500
v 0.093750 0.437500 -0.125000
v 0.156250 0.375000 -0.125000
v 0.093750 0.375000 -0.062500
v 0.093750 0.375000 -0.125000
v 0.062500 0.750000 0.156250
v 0.062500 0.687500 0.156250
v 0.062500 0.750000 0.031250
v 0.062500 0.687500 0.031250
v 0.156250 0.750000 0.031250
v 0.156250 0.750000 0.156250
v 0.156250 0.687500 0.156250
v 0.156250 0.687500 0.031250
v 0.156250 0.750000 0.062500
v 0.093750 0.750000 0.125000
v 0.156250 0.750000 0.125000
v 0.156250 0.687500 0.125000
v 0.093750 0.750000 0.062500
v 0.156250 0.687500 0.062500
v 0.093750 0.687500 0.125000
v 0.093750 0.687500 0.062500
v 0.062500 0.750000 -0.031250
v 0.062500 0.687500 -0.031250
v 0.062500 0.750000 -0.156250
v 0.062500 0.687500 -0.156250
v 0.156250 0.750000 -0.156250
v 0.156250 0.750000 -0.031250
v 0.156250 0.687500 -0.031250
v 0.156250 0.687500 -0.156250
v 0.156250 0.750000 -0.125000
v 0.093750 0.750000 -0.062500
v 0.156250 0.750000 -0.062500
v 0.156250 0.687500 -0.062500
v 0.093750 0.750000 -0.125000
v 0.156250 0.687500 -0.125000
v 0.093750 0.687500 -0.062500
v 0.093750 0.687500 -0.125000
vt 0.050000 0.066667
vt 0.300000 0.933333
vt 0.050000 0.933333
vt 0.300000 0.000000
vt 0.050000 0.000000
vt 0.050000 1.000000
vt 0.300000 1.000000
vt 0.350000 0.933333
vt 0.300000 0.066667
vt 0.350000 0.066667
vt 0.000000 0.066667
vt 0.000000 0.933333
vt 0.450000 0.733333
vt 0.550000 0.866667
vt 0.450000 0.866667
vt 0.650000 0.866667
vt 0.550000 0.733333
vt 0.650000 0.733333
vt 0.350000 0.733333
vt 0.350000 0.866667
vt 0.550000 0.600000
vt 0.450000 0.600000
vt 0.450000 1.000000
vt 0.550000 1.000000
vt 0.875000 0.533333
vt 0.900000 0.600000
vt 0.875000 0.600000
vt 1.000000 0.600000
vt 0.925000 0.533333
vt 1.000000 0.533333
vt 0.700000 0.533333
vt 0.775000 0.600000
vt 0.700000 0.600000
vt 0.975000 0.600000
vt 0.925000 0.533333
vt 0.975000 0.533333
vt 0.825000 0.533333
vt 0.875000 0.600000
vt 0.825000 0.600000
vt 0.800000 0.533333
vt 0.825000 0.600000
vt 0.800000 0.600000
vt 0.825000 0.700000
vt 0.900000 0.733333
vt 0.800000 0.733333
vt 0.725000 0.533333
vt 0.775000 0.600000
vt 0.725000 0.600000
vt 0.800000 0.633333
vt 0.825000 0.633333
vt 0.875000 0.700000
vt 0.900000 0.633333
vt 0.875000 0.433333
vt 0.900000 0.500000
vt 0.875000 0.500000
vt 0.800000 0.500000
vt 0.825000 0.433333
vt 0.825000 0.500000
vt 0.800000 0.400000
vt 0.900000 0.400000
vt 0.750000 0.733333
vt 0.800000 0.866667
vt 0.750000 0.866667
vt 0.900000 0.866667
vt 0.800000 0.733333
vt 0.900000 0.733333
vt 0.650000 0.733333
vt 0.650000 0.866667
vt 0.800000 0.600000
vt 0.750000 0.600000
vt 0.750000 1.000000
vt 0.800000 1.000000
vt 0.750000 0.733333
vt 0.800000 0.866667
vt 0.750000 0.866667
vt 0.900000 0.866667
vt 0.800000 0.733333
vt 0.900000 0.733333
vt 0.650000 0.733333
vt 0.650000 0.866667
vt 0.800000 0.600000
vt 0.750000 0.600000
vt 0.750000 1.000000
vt 0.800000 1.000000
vt 0.875000 0.533333
vt 0.900000 0.600000
vt 0.875000 0.600000
vt 1.000000 0.600000
vt 0.925000 0.533333
vt 1.000000 0.533333
vt 0.700000 0.533333
vt 0.775000 0.600000
vt 0.700000 0.600000
vt 0.975000 0.600000
vt 0.925000 0.533333
vt 0.975000 0.533333
vt 0.825000 0.533333
vt 0.875000 0.600000
vt 0.825000 0.600000
vt 0.800000 0.533333
vt 0.825000 0.600000
vt 0.800000 0.600000
vt 0.825000 0.700000
vt 0.900000 0.733333
vt 0.800000 0.733333
vt 0.725000 0.533333
vt 0.775000 0.600000
vt 0.725000 0.600000
vt 0.800000 0.633333
vt 0.825000 0.633333
vt 0.875000 0.700000
vt 0.900000 0.633333
vt 0.875000 0.433333
vt 0.900000 0.500000
vt 0.875000 0.500000
vt 0.800000 0.500000
vt 0.825000 0.433333
vt 0.825000 0.500000
vt 0.800000 0.400000
vt 0.900000 0.400000
vt 0.875000 0.533333
vt 0.900000 0.600000
vt 0.875000 0.600000
vt 1.000000 0.600000
vt 0.925000 0.533333
vt 1.000000 0.533333
vt 0.700000 0.533333
vt 0.775000 0.600000
vt 0.700000 0.600000
vt 0.975000 0.600000
vt 0.925000 0.533333
vt 0.975000 0.533333
vt 0.825000 0.533333
vt 0.875000 0.600000
vt 0.825000 0.600000
vt 0.800000 0.533333
vt 0.825000 0.600000
vt 0.800000 0.600000
vt 0.825000 0.700000
vt 0.900000 0.733333
vt 0.800000 0.733333
vt 0.725000 0.533333
vt 0.775000 0.600000
vt 0.725000 0.600000
vt 0.800000 0.633333
vt 0.825000 0.633333
vt 0.875000 0.700000
vt 0.900000 0.633333
vt 0.875000 0.433333
vt 0.900000 0.500000
vt 0.875000 0.500000
vt 0.800000 0.500000
vt 0.825000 0.433333
vt 0.825000 0.500000
vt 0.800000 0.400000
vt 0.900000 0.400000
vt 0.875000 0.533333
vt 0.900000 0.600000
vt 0.875000 0.600000
vt 1.000000 0.600000
vt 0.925000 0.533333
vt 1.000000 0.533333
vt 0.700000 0.533333
vt 0.775000 0.600000
vt 0.700000 0.600000
vt 0.975000 0.600000
vt 0.925000 0.533333
vt 0.975000 0.533333
vt 0.825000 0.533333
vt 0.875000 0.600000
vt 0.825000 0.600000
vt 0.800000 0.533333
vt 0.825000 0.600000
vt 0.800000 0.600000
vt 0.825000 0.700000
vt 0.900000 0.733333
vt 0.800000 0.733333
vt 0.725000 0.533333
vt 0.775000 0.600000
vt 0.725000 0.600000
vt 0.800000 0.633333
vt 0.825000 0.633333
vt 0.875000 0.700000
vt 0.900000 0.633333
vt 0.875000 0.433333
vt 0.900000 0.500000
vt 0.875000 0.500000
vt 0.800000 0.500000
vt 0.825000 0.433333
vt 0.825000 0.500000
vt 0.800000 0.400000
vt 0.900000 0.400000
vt 0.900000 0.533333
vt 0.925000 0.600000
vt 0.775000 0.533333
vt 0.925000 0.600000
vt 0.875000 0.533333
vt 0.825000 0.533333
vt 0.775000 0.533333
vt 0.875000 0.633333
vt 0.900000 0.533333
vt 0.925000 0.600000
vt 0.775000 0.533333
vt 0.925000 0.600000
vt 0.875000 0.533333
vt 0.825000 0.533333
vt 0.775000 0.533333
vt 0.875000 0.633333
vt 0.900000 0.533333
vt 0.925000 0.600000
vt 0.775000 0.533333
vt 0.925000 0.600000
vt 0.875000 0.533333
vt 0.825000 0.533333
vt 0.775000 0.533333
vt 0.875000 0.633333
vt 0.900000 0.533333
vt 0.925000 0.600000
vt 0.775000 0.533333
vt 0.925000 0.600000
vt 0.875000 0.533333
vt 0.825000 0.533333
vt 0.775000 0.533333
vt 0.875000 0.633333
vn 1.0000 0.0000 0.0000
vn 0.0000 -1.0000 0.0000
vn 0.0000 1.0000 0.0000
vn 0.0000 0.0000 -1.0000
vn 0.0000 0.0000 1.0000
s off
f 47/69/7 45/70/7 46/71/7
f 44/72/8 47/69/8 42/73/8
f 41/74/9 45/70/9 43/75/9
f 43/76/10 48/77/10 44/78/10
f 42/79/11 46/71/11 41/80/11
f 55/81/7 53/82/7 54/83/7
f 51/84/10 56/85/10 52/86/10
f 50/87/11 54/83/11 49/88/11
f 52/89/8 55/81/8 50/90/8
f 49/91/9 53/82/9 51/92/9
f 70/93/7 61/94/7 65/95/7
f 59/96/10 64/97/10 60/98/10
f 58/99/11 62/100/11 57/101/11
f 65/102/11 72/103/11 70/104/11
f 71/105/7 69/106/7 66/107/7
f 63/108/7 67/109/7 62/110/7
f 66/111/9 59/112/9 57/113/9
f 68/114/10 66/115/10 67/116/10
f 66/111/9 62/117/9 67/118/9
f 69/119/9 61/120/9 59/112/9
f 72/121/8 64/122/8 70/123/8
f 63/124/8 71/125/8 68/126/8
f 72/121/8 58/127/8 60/128/8
f 79/129/7 77/130/7 78/131/7
f 75/132/10 80/133/10 76/134/10
f 74/135/11 78/131/11 73/136/11
f 76/137/8 79/129/8 74/138/8
f 73/139/9 77/130/9 75/140/9
f 87/141/7 85/142/7 86/143/7
f 83/144/10 88/145/10 84/146/10
f 82/147/11 86/143/11 81/148/11
f 84/149/8 87/141/8 82/150/8
f 81/151/9 85/142/9 83/152/9
f 102/153/7 93/154/7 97/155/7
f 91/156/10 96/157/10 92/158/10
f 90/159/11 94/160/11 89/161/11
f 97/162/11 104/163/11 102/164/11
f 103/165/7 101/166/7 98/167/7
f 95/168/7 99/169/7 94/170/7
f 98/171/9 91/172/9 89/173/9
f 100/174/10 98/175/10 99/176/10
f 98/171/9 94/177/9 99/178/9
f 101/179/9 93/180/9 91/172/9
f 104/181/8 96/182/8 102/183/8
f 95/184/8 103/185/8 100/186/8
f 104/181/8 90/187/8 92/188/8
f 118/189/7 109/190/7 113/191/7
f 107/192/10 112/193/10 108/194/10
f 106/195/11 110/196/11 105/197/11
f 113/198/11 120/199/11 118/200/11
f 119/201/7 117/202/7 114/203/7
f 111/204/7 115/205/7 110/206/7
f 114/207/9 107/208/9 105/209/9
f 116/210/10 114/211/10 115/212/10
f 114/207/9 110/213/9 115/214/9
f 117/215/9 109/216/9 107/208/9
f 120/217/8 112/218/8 118/219/8
f 111/220/8 119/221/8 116/222/8
f 120/217/8 106/223/8 108/224/8
f 134/225/7 125/226/7 129/227/7
f 123/228/10 128/229/10 124/230/10
f 122/231/11 126/232/11 121/233/11
f 129/234/11 136/235/11 134/236/11
f 135/237/7 133/238/7 130/239/7
f 127/240/7 131/241/7 126/242/7
f 130/243/9 123/244/9 121/245/9
f 132/246/10 130/247/10 131/248/10
f 130/243/9 126/249/9 131/250/9
f 133/251/9 125/252/9 123/244/9
f 136/253/8 128/254/8 134/255/8
f 127/256/8 135/257/8 132/258/8
f 136/253/8 122/259/8 124/260/8
f 47/69/7 48/77/7 45/70/7
f 44/72/8 48/77/8 47/69/8
f 41/74/9 46/71/9 45/70/9
f 43/76/10 45/70/10 48/77/10
f 42/79/11 47/69/11 46/71/11
f 55/81/7 56/85/7 53/82/7
f 51/84/10 53/82/10 56/85/10
f 50/87/11 55/81/11 54/83/11
f 52/89/8 56/85/8 55/81/8
f 49/91/9 54/83/9 53/82/9
f 70/93/7 64/261/7 61/94/7
f 59/96/10 61/262/10 64/97/10
f 58/99/11 63/263/11 62/100/11
f 65/102/11 69/264/11 72/103/11
f 71/105/7 72/265/7 69/106/7
f 63/108/7 68/266/7 67/109/7
f 66/111/9 69/119/9 59/112/9
f 68/114/10 71/267/10 66/115/10
f 66/111/9 57/113/9 62/117/9
f 69/119/9 65/268/9 61/120/9
f 72/121/8 60/128/8 64/122/8
f 63/124/8 58/127/8 71/125/8
f 72/121/8 71/125/8 58/127/8
f 79/129/7 80/133/7 77/130/7
f 75/132/10 77/130/10 80/133/10
f 74/135/11 79/129/11 78/131/11
f 76/137/8 80/133/8 79/129/8
f 73/139/9 78/131/9 77/130/9
f 87/141/7 88/145/7 85/142/7
f 83/144/10 85/142/10 88/145/10
f 82/147/11 87/141/11 86/143/11
f 84/149/8 88/145/8 87/141/8
f 81/151/9 86/143/9 85/142/9
f 102/153/7 96/269/7 93/154/7
f 91/156/10 93/270/10 96/157/10
f 90/159/11 95/271/11 94/160/11
f 97/162/11 101/272/11 104/163/11
f 103/165/7 104/273/7 101/166/7
f 95/168/7 100/274/7 99/169/7
f 98/171/9 101/179/9 91/172/9
f 100/174/10 103/275/10 98/175/10
f 98/171/9 89/173/9 94/177/9
f 101/179/9 97/276/9 93/180/9
f 104/181/8 92/188/8 96/182/8
f 95/184/8 90/187/8 103/185/8
f 104/181/8 103/185/8 90/187/8
f 118/189/7 112/277/7 109/190/7
f 107/192/10 109/278/10 112/193/10
f 106/195/11 111/279/11 110/196/11
f 113/198/11 117/280/11 120/199/11
f 119/201/7 120/281/7 117/202/7
f 111/204/7 116/282/7 115/205/7
f 114/207/9 117/215/9 107/208/9
f 116/210/10 119/283/10 114/211/10
f 114/207/9 105/209/9 110/213/9
f 117/215/9 113/284/9 109/216/9
f 120/217/8 108/224/8 112/218/8
f 111/220/8 106/223/8 119/221/8
f 120/217/8 119/221/8 106/223/8
f 134/225/7 128/285/7 125/226/7
f 123/228/10 125/286/10 128/229/10
f 122/231/11 127/287/11 126/232/11
f 129/234/11 133/288/11 136/235/11
f 135/237/7 136/289/7 133/238/7
f 127/240/7 132/290/7 131/241/7
f 130/243/9 133/251/9 123/244/9
f 132/246/10 135/291/10 130/247/10
f 130/243/9 121/245/9 126/249/9
f 133/251/9 129/292/9 125/252/9
f 136/253/8 124/260/8 128/254/8
f 127/256/8 122/259/8 135/257/8
f 136/253/8 135/257/8 122/259/8
