# Blender v2.79 (sub 0) OBJ File: 'rbmk_reflector.blend'
# www.blender.org
o Column
v -0.500000 0.000000 0.500000
v -0.500000 1.000000 0.500000
v -0.500000 0.000000 -0.500000
v -0.500000 1.000000 -0.500000
v 0.500000 0.000000 0.500000
v 0.500000 1.000000 0.500000
v 0.500000 0.000000 -0.500000
v 0.500000 1.000000 -0.500000
v 0.312500 1.000000 -0.500000
v 0.312500 0.000000 -0.500000
v -0.312500 1.000000 -0.500000
v -0.312500 0.000000 -0.500000
v -0.500000 1.000000 -0.312500
v -0.500000 0.000000 -0.312500
v -0.500000 1.000000 0.312500
v -0.500000 0.000000 0.312500
v -0.312500 1.000000 0.500000
v -0.312500 0.000000 0.500000
v 0.312500 1.000000 0.500000
v 0.312500 0.000000 0.500000
v 0.500000 1.000000 0.312500
v 0.500000 0.000000 0.312500
v 0.500000 1.000000 -0.312500
v 0.500000 0.000000 -0.312500
v -0.437500 1.000000 0.312500
v -0.437500 1.000000 -0.312500
v 0.312500 1.000000 -0.437500
v -0.312500 1.000000 -0.437500
v -0.312500 1.000000 0.437500
v 0.312500 1.000000 0.437500
v 0.437500 1.000000 0.312500
v 0.437500 1.000000 -0.312500
v -0.437500 0.000000 0.312500
v -0.437500 0.000000 -0.312500
v -0.312500 0.000000 0.437500
v 0.312500 0.000000 0.437500
v 0.437500 0.000000 0.312500
v 0.437500 0.000000 -0.312500
v -0.312500 0.000000 -0.437500
v 0.312500 0.000000 -0.437500
vt 0.406250 0.500000
vt 0.500000 0.000000
vt 0.500000 0.500000
vt 0.406250 0.531250
vt 0.468750 0.593750
vt 0.093750 0.968750
vt 0.000000 1.000000
vt 0.031250 0.906250
vt 0.531250 1.000000
vt 0.500000 0.500000
vt 0.531250 0.500000
vt 0.000000 0.500000
vt 0.093750 0.000000
vt 0.093750 0.500000
vt 0.406250 0.500000
vt 0.500000 0.000000
vt 0.500000 0.500000
vt 0.843750 0.500000
vt 0.000000 0.500000
vt 0.093750 0.000000
vt 0.093750 0.500000
vt 0.406250 0.500000
vt 0.500000 0.000000
vt 0.500000 0.500000
vt 0.031250 0.593750
vt 0.000000 0.593750
vt 0.000000 0.500000
vt 0.531250 0.500000
vt 0.500000 1.000000
vt 0.500000 0.500000
vt 0.406250 0.531250
vt 0.406250 0.500000
vt 0.500000 0.500000
vt 0.500000 0.500000
vt 0.531250 1.000000
vt 0.500000 1.000000
vt 0.843750 0.500000
vt 0.531250 0.500000
vt 0.468750 0.906250
vt 0.500000 0.906250
vt 0.500000 1.000000
vt 0.093750 0.968750
vt 0.093750 1.000000
vt 0.000000 1.000000
vt 0.031250 0.593750
vt 0.000000 0.593750
vt 0.000000 0.500000
vt 0.531250 1.000000
vt 0.500000 0.500000
vt 0.531250 0.500000
vt 0.093750 0.000000
vt 0.093750 0.500000
vt 0.531250 1.000000
vt 0.500000 0.500000
vt 0.531250 0.500000
vt 0.000000 0.500000
vt 0.093750 0.000000
vt 0.093750 0.500000
vt 0.406250 0.500000
vt 0.500000 0.000000
vt 0.500000 0.500000
vt 0.468750 0.906250
vt 0.500000 0.906250
vt 0.500000 1.000000
vt 0.843750 1.000000
vt 0.531250 1.000000
vt 0.500000 0.500000
vt 0.531250 0.500000
vt 0.093750 0.531250
vt 0.531250 1.000000
vt 0.500000 0.500000
vt 0.531250 0.500000
vt 0.843750 0.500000
vt 0.531250 1.000000
vt 0.500000 0.500000
vt 0.531250 0.500000
vt 0.406250 0.000000
vt 0.500000 0.593750
vt 0.093750 1.000000
vt 0.000000 0.906250
vt 0.500000 1.000000
vt 0.000000 0.000000
vt 0.406250 0.000000
vt 0.843750 1.000000
vt 0.000000 0.000000
vt 0.406250 0.000000
vt 0.093750 0.500000
vt 0.093750 0.531250
vt 0.531250 1.000000
vt 0.500000 0.593750
vt 0.468750 0.593750
vt 0.843750 1.000000
vt 0.406250 1.000000
vt 0.406250 0.968750
vt 0.000000 0.906250
vt 0.031250 0.906250
vt 0.500000 1.000000
vt 0.000000 0.000000
vt 0.500000 1.000000
vt 0.000000 0.000000
vt 0.406250 0.000000
vt 0.406250 1.000000
vt 0.406250 0.968750
vt 0.843750 0.500000
vt 0.500000 1.000000
vt 0.500000 1.000000
vt 0.843750 1.000000
vt 0.500000 1.000000
vn 0.0000 0.0000 1.0000
vn 0.0000 1.0000 0.0000
vn 0.0000 -1.0000 0.0000
vn 0.0000 0.0000 -1.0000
vn -1.0000 0.0000 0.0000
vn 1.0000 0.0000 0.0000
s off
f 19/1/1 5/2/1 6/3/1
f 30/4/2 6/3/2 31/5/2
f 40/6/3 7/7/3 38/8/3
f 26/9/1 14/10/1 34/11/1
f 8/12/4 10/13/4 9/14/4
f 11/15/4 3/16/4 4/17/4
f 33/18/5 26/9/5 34/11/5
f 4/19/5 14/20/5 13/21/5
f 15/22/5 1/23/5 2/24/5
f 37/25/3 22/26/3 5/27/3
f 16/28/4 25/29/4 33/30/4
f 35/31/3 18/32/3 1/33/3
f 10/34/5 27/35/5 9/36/5
f 39/37/4 27/35/4 40/38/4
f 32/39/2 23/40/2 8/41/2
f 28/42/2 11/43/2 4/44/2
f 25/45/2 15/46/2 2/47/2
f 11/48/6 39/49/6 12/50/6
f 2/47/1 18/51/1 17/52/1
f 31/53/4 22/54/4 37/55/4
f 6/56/6 22/57/6 21/58/6
f 23/59/6 7/60/6 8/61/6
f 34/62/3 14/63/3 3/64/3
f 37/55/6 32/65/6 31/53/6
f 23/66/1 38/67/1 24/68/1
f 25/45/2 29/69/2 30/4/2
f 29/70/6 18/71/6 35/72/6
f 36/73/1 29/70/1 35/72/1
f 37/25/3 35/31/3 34/62/3
f 19/74/5 36/75/5 20/76/5
f 19/1/1 20/77/1 5/2/1
f 19/1/2 6/3/2 30/4/2
f 6/3/2 21/78/2 31/5/2
f 10/79/3 7/7/3 40/6/3
f 7/7/3 24/80/3 38/8/3
f 26/9/1 13/81/1 14/10/1
f 8/12/4 7/82/4 10/13/4
f 11/15/4 12/83/4 3/16/4
f 33/18/5 25/84/5 26/9/5
f 4/19/5 3/85/5 14/20/5
f 15/22/5 16/86/5 1/23/5
f 5/27/3 20/87/3 36/88/3
f 36/88/3 37/25/3 5/27/3
f 16/28/4 15/89/4 25/29/4
f 1/33/3 16/90/3 33/91/3
f 33/91/3 35/31/3 1/33/3
f 10/34/5 40/38/5 27/35/5
f 39/37/4 28/92/4 27/35/4
f 9/93/2 27/94/2 8/41/2
f 27/94/2 32/39/2 8/41/2
f 4/44/2 13/95/2 26/96/2
f 26/96/2 28/42/2 4/44/2
f 2/47/2 17/52/2 29/69/2
f 29/69/2 25/45/2 2/47/2
f 11/48/6 28/97/6 39/49/6
f 2/47/1 1/98/1 18/51/1
f 31/53/4 21/99/4 22/54/4
f 6/56/6 5/100/6 22/57/6
f 23/59/6 24/101/6 7/60/6
f 3/64/3 12/102/3 39/103/3
f 39/103/3 34/62/3 3/64/3
f 37/55/6 38/104/6 32/65/6
f 23/66/1 32/105/1 38/67/1
f 30/4/2 31/5/2 28/42/2
f 31/5/2 32/39/2 28/42/2
f 32/39/2 27/94/2 28/42/2
f 28/42/2 26/96/2 30/4/2
f 26/96/2 25/45/2 30/4/2
f 29/70/6 17/106/6 18/71/6
f 36/73/1 30/107/1 29/70/1
f 40/6/3 38/8/3 37/25/3
f 37/25/3 36/88/3 35/31/3
f 35/31/3 33/91/3 34/62/3
f 34/62/3 39/103/3 40/6/3
f 40/6/3 37/25/3 34/62/3
f 19/74/5 30/108/5 36/75/5
