# Blender v2.79 (sub 0) OBJ File: 'rbmk_rods.blend'
# www.blender.org
o Lid
v -0.500000 1.125000 0.500000
v -0.500000 1.250000 0.500000
v -0.500000 1.125000 -0.500000
v -0.500000 1.250000 -0.500000
v 0.500000 1.125000 0.500000
v 0.500000 1.250000 0.500000
v 0.500000 1.125000 -0.500000
v 0.500000 1.250000 -0.500000
v -0.375000 1.125000 0.375000
v -0.375000 1.125000 0.125000
v -0.125000 1.125000 0.375000
v -0.125000 1.125000 0.125000
v -0.375000 0.125000 0.375000
v -0.375000 0.125000 0.125000
v -0.125000 0.125000 0.375000
v -0.125000 0.125000 0.125000
v 0.125000 1.125000 -0.125000
v 0.125000 1.125000 -0.375000
v 0.375000 1.125000 -0.125000
v 0.375000 1.125000 -0.375000
v 0.125000 0.125000 -0.125000
v 0.125000 0.125000 -0.375000
v 0.375000 0.125000 -0.125000
v 0.375000 0.125000 -0.375000
v -0.125000 0.125000 -0.375000
v -0.125000 0.125000 -0.125000
v -0.375000 0.125000 -0.375000
v -0.375000 0.125000 -0.125000
v -0.125000 1.125000 -0.375000
v -0.125000 1.125000 -0.125000
v -0.375000 1.125000 -0.375000
v -0.375000 1.125000 -0.125000
v 0.125000 1.125000 0.375000
v 0.125000 1.125000 0.125000
v 0.375000 1.125000 0.375000
v 0.375000 1.125000 0.125000
v 0.125000 0.125000 0.375000
v 0.125000 0.125000 0.125000
v 0.375000 0.125000 0.375000
v 0.375000 0.125000 0.125000
vt 1.000000 0.000000
vt 0.500000 0.062500
vt 0.500000 0.000000
vt 1.000000 0.000000
vt 0.500000 0.062500
vt 0.500000 0.000000
vt 0.500000 0.062500
vt 1.000000 0.000000
vt 1.000000 0.062500
vt 0.500000 0.062500
vt 1.000000 0.000000
vt 1.000000 0.062500
vt 0.000000 0.500000
vt 0.500000 1.000000
vt 0.000000 1.000000
vt 0.500000 1.000000
vt 0.000000 0.500000
vt 0.500000 0.500000
vt 0.500000 1.000000
vt 0.625000 0.500000
vt 0.625000 1.000000
vt 0.500000 1.000000
vt 0.625000 0.500000
vt 0.625000 1.000000
vt 0.500000 1.000000
vt 0.625000 0.500000
vt 0.625000 1.000000
vt 0.500000 1.000000
vt 0.625000 0.500000
vt 0.625000 1.000000
vt 0.500000 1.000000
vt 0.625000 0.500000
vt 0.625000 1.000000
vt 0.500000 1.000000
vt 0.625000 0.500000
vt 0.625000 1.000000
vt 0.500000 1.000000
vt 0.625000 0.500000
vt 0.625000 1.000000
vt 0.500000 1.000000
vt 0.625000 0.500000
vt 0.625000 1.000000
vt 0.500000 1.000000
vt 0.625000 0.500000
vt 0.625000 1.000000
vt 0.500000 1.000000
vt 0.625000 0.500000
vt 0.625000 1.000000
vt 0.500000 1.000000
vt 0.625000 0.500000
vt 0.625000 1.000000
vt 0.500000 1.000000
vt 0.625000 0.500000
vt 0.625000 1.000000
vt 0.500000 1.000000
vt 0.625000 0.500000
vt 0.625000 1.000000
vt 0.500000 1.000000
vt 0.625000 0.500000
vt 0.625000 1.000000
vt 0.500000 1.000000
vt 0.625000 0.500000
vt 0.625000 1.000000
vt 0.500000 1.000000
vt 0.625000 0.500000
vt 0.625000 1.000000
vt 1.000000 0.062500
vt 1.000000 0.062500
vt 0.500000 0.000000
vt 0.500000 0.000000
vt 0.500000 0.500000
vt 0.000000 1.000000
vt 0.500000 0.500000
vt 0.500000 0.500000
vt 0.500000 0.500000
vt 0.500000 0.500000
vt 0.500000 0.500000
vt 0.500000 0.500000
vt 0.500000 0.500000
vt 0.500000 0.500000
vt 0.500000 0.500000
vt 0.500000 0.500000
vt 0.500000 0.500000
vt 0.500000 0.500000
vt 0.500000 0.500000
vt 0.500000 0.500000
vt 0.500000 0.500000
vt 0.500000 0.500000
vn -1.0000 0.0000 0.0000
vn 0.0000 0.0000 -1.0000
vn 1.0000 0.0000 0.0000
vn 0.0000 0.0000 1.0000
vn 0.0000 -1.0000 0.0000
vn 0.0000 1.0000 0.0000
s off
f 4/1/1 1/2/1 2/3/1
f 8/4/2 3/5/2 4/6/2
f 6/7/3 7/8/3 8/9/3
f 2/10/4 5/11/4 6/12/4
f 3/13/5 5/14/5 1/15/5
f 8/16/6 2/17/6 6/18/6
f 9/19/4 15/20/4 11/21/4
f 10/22/1 13/23/1 9/24/1
f 12/25/2 14/26/2 10/27/2
f 11/28/3 16/29/3 12/30/3
f 17/31/4 23/32/4 19/33/4
f 18/34/1 21/35/1 17/36/1
f 20/37/2 22/38/2 18/39/2
f 19/40/3 24/41/3 20/42/3
f 30/43/3 25/44/3 29/45/3
f 29/46/2 27/47/2 31/48/2
f 31/49/1 28/50/1 32/51/1
f 32/52/4 26/53/4 30/54/4
f 33/55/4 39/56/4 35/57/4
f 34/58/1 37/59/1 33/60/1
f 36/61/2 38/62/2 34/63/2
f 35/64/3 40/65/3 36/66/3
f 4/1/1 3/67/1 1/2/1
f 8/4/2 7/68/2 3/5/2
f 6/7/3 5/69/3 7/8/3
f 2/10/4 1/70/4 5/11/4
f 3/13/5 7/71/5 5/14/5
f 8/16/6 4/72/6 2/17/6
f 9/19/4 13/73/4 15/20/4
f 10/22/1 14/74/1 13/23/1
f 12/25/2 16/75/2 14/26/2
f 11/28/3 15/76/3 16/29/3
f 17/31/4 21/77/4 23/32/4
f 18/34/1 22/78/1 21/35/1
f 20/37/2 24/79/2 22/38/2
f 19/40/3 23/80/3 24/41/3
f 30/43/3 26/81/3 25/44/3
f 29/46/2 25/82/2 27/47/2
f 31/49/1 27/83/1 28/50/1
f 32/52/4 28/84/4 26/53/4
f 33/55/4 37/85/4 39/56/4
f 34/58/1 38/86/1 37/59/1
f 36/61/2 40/87/2 38/62/2
f 35/64/3 39/88/3 40/65/3
o Column
v -0.500000 0.000000 0.500000
v -0.500000 1.000000 0.500000
v -0.500000 0.000000 -0.500000
v -0.500000 1.000000 -0.500000
v 0.500000 0.000000 0.500000
v 0.500000 1.000000 0.500000
v 0.500000 0.000000 -0.500000
v 0.500000 1.000000 -0.500000
v -0.437500 1.125000 0.437500
v -0.437500 1.125000 0.062500
v -0.062500 1.125000 0.437500
v -0.062500 1.125000 0.062500
v -0.437500 1.000000 0.437500
v -0.437500 1.000000 0.062500
v -0.062500 1.000000 0.437500
v -0.062500 1.000000 0.062500
v -0.437500 1.125000 -0.062500
v -0.437500 1.125000 -0.437500
v -0.062500 1.125000 -0.062500
v -0.062500 1.125000 -0.437500
v -0.437500 1.000000 -0.062500
v -0.437500 1.000000 -0.437500
v -0.062500 1.000000 -0.062500
v -0.062500 1.000000 -0.437500
v 0.062500 1.125000 -0.062500
v 0.062500 1.125000 -0.437500
v 0.437500 1.125000 -0.062500
v 0.437500 1.125000 -0.437500
v 0.062500 1.000000 -0.062500
v 0.062500 1.000000 -0.437500
v 0.437500 1.000000 -0.062500
v 0.437500 1.000000 -0.437500
v 0.062500 1.125000 0.437500
v 0.062500 1.125000 0.062500
v 0.437500 1.125000 0.437500
v 0.437500 1.125000 0.062500
v 0.062500 1.000000 0.437500
v 0.062500 1.000000 0.062500
v 0.437500 1.000000 0.437500
v 0.437500 1.000000 0.062500
vt 0.500000 -0.000000
vt 0.000000 0.500000
vt 0.000000 -0.000000
vt 0.500000 -0.000000
vt -0.000000 0.500000
vt -0.000000 -0.000000
vt 0.000000 0.500000
vt 0.500000 0.000000
vt 0.500000 0.500000
vt -0.000000 0.500000
vt 0.500000 -0.000000
vt 0.500000 0.500000
vt 0.000100 0.500100
vt 0.499900 0.999900
vt 0.000100 0.999900
vt 0.500000 1.000000
vt 0.500000 0.125000
vt 0.687500 0.312500
vt 0.500000 0.312500
vt 0.687500 0.062500
vt 0.687500 0.125000
vt 0.687500 0.062500
vt 0.500000 0.125000
vt 0.500000 0.062500
vt 0.687500 0.062500
vt 0.500000 0.125000
vt 0.500000 0.062500
vt 0.500000 0.125000
vt 0.687500 0.062500
vt 0.687500 0.125000
vt 0.500000 0.125000
vt 0.687500 0.312500
vt 0.500000 0.312500
vt 0.687500 0.062500
vt 0.687500 0.125000
vt 0.687500 0.062500
vt 0.500000 0.125000
vt 0.500000 0.062500
vt 0.687500 0.062500
vt 0.500000 0.125000
vt 0.500000 0.062500
vt 0.500000 0.125000
vt 0.687500 0.062500
vt 0.687500 0.125000
vt 0.500000 0.125000
vt 0.687500 0.312500
vt 0.500000 0.312500
vt 0.687500 0.062500
vt 0.687500 0.125000
vt 0.687500 0.062500
vt 0.500000 0.125000
vt 0.500000 0.062500
vt 0.687500 0.062500
vt 0.500000 0.125000
vt 0.500000 0.062500
vt 0.500000 0.125000
vt 0.687500 0.062500
vt 0.687500 0.125000
vt 0.500000 0.125000
vt 0.687500 0.312500
vt 0.500000 0.312500
vt 0.687500 0.062500
vt 0.687500 0.125000
vt 0.687500 0.062500
vt 0.500000 0.125000
vt 0.500000 0.062500
vt 0.687500 0.062500
vt 0.500000 0.125000
vt 0.500000 0.062500
vt 0.500000 0.125000
vt 0.687500 0.062500
vt 0.687500 0.125000
vt 0.500000 0.500000
vt 0.500000 0.500000
vt 0.000000 0.000000
vt -0.000000 -0.000000
vt 0.499900 0.500100
vt -0.000000 1.000000
vt 0.500000 0.062500
vt 0.687500 0.125000
vt 0.687500 0.125000
vt 0.500000 0.062500
vt 0.500000 0.062500
vt 0.687500 0.125000
vt 0.687500 0.125000
vt 0.500000 0.062500
vt 0.500000 0.062500
vt 0.687500 0.125000
vt 0.687500 0.125000
vt 0.500000 0.062500
vt 0.500000 0.062500
vt 0.687500 0.125000
vt 0.687500 0.125000
vt 0.500000 0.062500
vn -1.0000 0.0000 0.0000
vn 0.0000 0.0000 -1.0000
vn 1.0000 0.0000 0.0000
vn 0.0000 0.0000 1.0000
vn 0.0000 -1.0000 0.0000
vn 0.0000 1.0000 0.0000
s off
f 44/89/7 41/90/7 42/91/7
f 48/92/8 43/93/8 44/94/8
f 46/95/9 47/96/9 48/97/9
f 42/98/10 45/99/10 46/100/10
f 43/101/11 45/102/11 41/103/11
f 48/104/12 42/98/12 46/100/12
f 49/105/12 52/106/12 50/107/12
f 49/105/10 55/108/10 51/109/10
f 50/110/7 53/111/7 49/112/7
f 52/113/8 54/114/8 50/115/8
f 51/116/9 56/117/9 52/118/9
f 57/119/12 60/120/12 58/121/12
f 57/119/10 63/122/10 59/123/10
f 58/124/7 61/125/7 57/126/7
f 60/127/8 62/128/8 58/129/8
f 59/130/9 64/131/9 60/132/9
f 65/133/12 68/134/12 66/135/12
f 65/133/10 71/136/10 67/137/10
f 66/138/7 69/139/7 65/140/7
f 68/141/8 70/142/8 66/143/8
f 67/144/9 72/145/9 68/146/9
f 73/147/12 76/148/12 74/149/12
f 73/147/10 79/150/10 75/151/10
f 74/152/7 77/153/7 73/154/7
f 76/155/8 78/156/8 74/157/8
f 75/158/9 80/159/9 76/160/9
f 44/89/7 43/161/7 41/90/7
f 48/92/8 47/162/8 43/93/8
f 46/95/9 45/163/9 47/96/9
f 42/98/10 41/164/10 45/99/10
f 43/101/11 47/165/11 45/102/11
f 48/104/12 44/166/12 42/98/12
f 49/105/12 51/109/12 52/106/12
f 49/105/10 53/167/10 55/108/10
f 50/110/7 54/168/7 53/111/7
f 52/113/8 56/169/8 54/114/8
f 51/116/9 55/170/9 56/117/9
f 57/119/12 59/123/12 60/120/12
f 57/119/10 61/171/10 63/122/10
f 58/124/7 62/172/7 61/125/7
f 60/127/8 64/173/8 62/128/8
f 59/130/9 63/174/9 64/131/9
f 65/133/12 67/137/12 68/134/12
f 65/133/10 69/175/10 71/136/10
f 66/138/7 70/176/7 69/139/7
f 68/141/8 72/177/8 70/142/8
f 67/144/9 71/178/9 72/145/9
f 73/147/12 75/151/12 76/148/12
f 73/147/10 77/179/10 79/150/10
f 74/152/7 78/180/7 77/153/7
f 76/155/8 80/181/8 78/156/8
f 75/158/9 79/182/9 80/159/9
