# Blender v2.79 (sub 0) OBJ File: 'rbmk_element.blend'
# www.blender.org
o Rods
v -0.374900 0.000000 0.312500
v -0.374900 0.000000 0.187500
v -0.312400 0.000000 0.375000
v -0.312400 0.000000 0.125000
v -0.187400 0.000000 0.375000
v -0.187400 0.000000 0.125000
v -0.124900 0.000000 0.312500
v -0.124900 0.000000 0.187500
v -0.374900 1.000000 0.312500
v -0.312400 1.000000 0.375000
v -0.374900 1.000000 0.187500
v -0.312400 1.000000 0.125000
v -0.187400 1.000000 0.375000
v -0.187400 1.000000 0.125000
v -0.124900 1.000000 0.312500
v -0.124900 1.000000 0.187500
v -0.374900 0.000000 -0.187500
v -0.374900 0.000000 -0.312500
v -0.312400 0.000000 -0.125000
v -0.312400 0.000000 -0.375000
v -0.187400 0.000000 -0.125000
v -0.187400 0.000000 -0.375000
v -0.124900 0.000000 -0.187500
v -0.124900 0.000000 -0.312500
v -0.374900 1.000000 -0.187500
v -0.312400 1.000000 -0.125000
v -0.374900 1.000000 -0.312500
v -0.312400 1.000000 -0.375000
v -0.187400 1.000000 -0.125000
v -0.187400 1.000000 -0.375000
v -0.124900 1.000000 -0.187500
v -0.124900 1.000000 -0.312500
v 0.125100 0.000000 -0.187500
v 0.125100 0.000000 -0.312500
v 0.187600 0.000000 -0.125000
v 0.187600 0.000000 -0.375000
v 0.312600 0.000000 -0.125000
v 0.312600 0.000000 -0.375000
v 0.375100 0.000000 -0.187500
v 0.375100 0.000000 -0.312500
v 0.125100 1.000000 -0.187500
v 0.187600 1.000000 -0.125000
v 0.125100 1.000000 -0.312500
v 0.187600 1.000000 -0.375000
v 0.312600 1.000000 -0.125000
v 0.312600 1.000000 -0.375000
v 0.375100 1.000000 -0.187500
v 0.375100 1.000000 -0.312500
v 0.125100 0.000000 0.312500
v 0.125100 0.000000 0.187500
v 0.187600 0.000000 0.375000
v 0.187600 0.000000 0.125000
v 0.312600 0.000000 0.375000
v 0.312600 0.000000 0.125000
v 0.375100 0.000000 0.312500
v 0.375100 0.000000 0.187500
v 0.125100 1.000000 0.312500
v 0.187600 1.000000 0.375000
v 0.125100 1.000000 0.187500
v 0.187600 1.000000 0.125000
v 0.312600 1.000000 0.375000
v 0.312600 1.000000 0.125000
v 0.375100 1.000000 0.312500
v 0.375100 1.000000 0.187500
vt 0.656250 0.968750
vt 0.687500 0.875000
vt 0.781250 0.906250
vt 0.750000 0.875000
vt 0.781250 0.968750
vt 0.687500 1.000000
vt 0.593750 0.500000
vt 0.562500 1.000000
vt 0.562500 0.500000
vt 0.593750 0.500000
vt 0.562500 1.000000
vt 0.562500 0.500000
vt 0.656250 0.500000
vt 0.593750 1.000000
vt 0.593750 0.500000
vt 0.656250 0.500000
vt 0.593750 1.000000
vt 0.656250 0.500000
vt 0.593750 1.000000
vt 0.593750 0.500000
vt 0.562500 1.000000
vt 0.562500 0.500000
vt 0.656250 0.500000
vt 0.593750 1.000000
vt 0.562500 1.000000
vt 0.562500 0.500000
vt 0.656250 0.968750
vt 0.687500 0.875000
vt 0.781250 0.906250
vt 0.750000 0.875000
vt 0.781250 0.968750
vt 0.687500 1.000000
vt 0.593750 0.500000
vt 0.562500 1.000000
vt 0.562500 0.500000
vt 0.593750 0.500000
vt 0.562500 1.000000
vt 0.562500 0.500000
vt 0.656250 0.500000
vt 0.593750 1.000000
vt 0.593750 0.500000
vt 0.656250 0.500000
vt 0.593750 1.000000
vt 0.656250 0.500000
vt 0.593750 1.000000
vt 0.593750 0.500000
vt 0.562500 1.000000
vt 0.562500 0.500000
vt 0.656250 0.500000
vt 0.593750 1.000000
vt 0.562500 1.000000
vt 0.562500 0.500000
vt 0.656250 0.968750
vt 0.687500 0.875000
vt 0.781250 0.906250
vt 0.750000 0.875000
vt 0.781250 0.968750
vt 0.687500 1.000000
vt 0.593750 0.500000
vt 0.562500 1.000000
vt 0.562500 0.500000
vt 0.593750 0.500000
vt 0.562500 1.000000
vt 0.562500 0.500000
vt 0.656250 0.500000
vt 0.593750 1.000000
vt 0.593750 0.500000
vt 0.656250 0.500000
vt 0.593750 1.000000
vt 0.656250 0.500000
vt 0.593750 1.000000
vt 0.593750 0.500000
vt 0.562500 1.000000
vt 0.562500 0.500000
vt 0.656250 0.500000
vt 0.593750 1.000000
vt 0.562500 1.000000
vt 0.562500 0.500000
vt 0.656250 0.968750
vt 0.687500 0.875000
vt 0.781250 0.906250
vt 0.750000 0.875000
vt 0.781250 0.968750
vt 0.687500 1.000000
vt 0.593750 0.500000
vt 0.562500 1.000000
vt 0.562500 0.500000
vt 0.593750 0.500000
vt 0.562500 1.000000
vt 0.562500 0.500000
vt 0.656250 0.500000
vt 0.593750 1.000000
vt 0.593750 0.500000
vt 0.656250 0.500000
vt 0.593750 1.000000
vt 0.656250 0.500000
vt 0.593750 1.000000
vt 0.593750 0.500000
vt 0.562500 1.000000
vt 0.562500 0.500000
vt 0.656250 0.500000
vt 0.593750 1.000000
vt 0.562500 1.000000
vt 0.562500 0.500000
vt 0.781250 0.968750
vt 0.750000 1.000000
vt 0.687500 1.000000
vt 0.656250 0.906250
vt 0.750000 0.875000
vt 0.656250 0.968750
vt 0.656250 0.906250
vt 0.687500 0.875000
vt 0.781250 0.906250
vt 0.750000 1.000000
vt 0.656250 1.000000
vt 0.656250 1.000000
vt 0.656250 1.000000
vt 0.656250 1.000000
vt 0.781250 0.968750
vt 0.750000 1.000000
vt 0.687500 1.000000
vt 0.656250 0.906250
vt 0.750000 0.875000
vt 0.656250 0.968750
vt 0.656250 0.906250
vt 0.687500 0.875000
vt 0.781250 0.906250
vt 0.750000 1.000000
vt 0.656250 1.000000
vt 0.656250 1.000000
vt 0.656250 1.000000
vt 0.656250 1.000000
vt 0.781250 0.968750
vt 0.750000 1.000000
vt 0.687500 1.000000
vt 0.656250 0.906250
vt 0.750000 0.875000
vt 0.656250 0.968750
vt 0.656250 0.906250
vt 0.687500 0.875000
vt 0.781250 0.906250
vt 0.750000 1.000000
vt 0.656250 1.000000
vt 0.656250 1.000000
vt 0.656250 1.000000
vt 0.656250 1.000000
vt 0.781250 0.968750
vt 0.750000 1.000000
vt 0.687500 1.000000
vt 0.656250 0.906250
vt 0.750000 0.875000
vt 0.656250 0.968750
vt 0.656250 0.906250
vt 0.687500 0.875000
vt 0.781250 0.906250
vt 0.750000 1.000000
vt 0.656250 1.000000
vt 0.656250 1.000000
vt 0.656250 1.000000
vt 0.656250 1.000000
vn 0.0000 -1.0000 0.0000
vn 0.0000 1.0000 0.0000
vn -0.7071 0.0000 0.7071
vn 0.7071 0.0000 -0.7071
vn 1.0000 0.0000 0.0000
vn 0.0000 0.0000 1.0000
vn -1.0000 0.0000 0.0000
vn 0.7071 0.0000 0.7071
vn 0.0000 0.0000 -1.0000
vn -0.7071 0.0000 -0.7071
s off
f 4/1/1 8/2/1 5/3/1
f 16/4/2 12/5/2 9/6/2
f 3/7/3 9/8/3 1/9/3
f 6/10/4 16/11/4 8/12/4
f 8/13/5 15/14/5 7/15/5
f 5/16/6 10/17/6 3/7/6
f 1/18/7 11/19/7 2/20/7
f 7/15/8 13/21/8 5/22/8
f 4/23/9 14/24/9 6/10/9
f 2/20/10 12/25/10 4/26/10
f 20/27/1 24/28/1 21/29/1
f 32/30/2 28/31/2 25/32/2
f 19/33/3 25/34/3 17/35/3
f 22/36/4 32/37/4 24/38/4
f 24/39/5 31/40/5 23/41/5
f 21/42/6 26/43/6 19/33/6
f 17/44/7 27/45/7 18/46/7
f 23/41/8 29/47/8 21/48/8
f 20/49/9 30/50/9 22/36/9
f 18/46/10 28/51/10 20/52/10
f 36/53/1 40/54/1 37/55/1
f 48/56/2 44/57/2 41/58/2
f 35/59/3 41/60/3 33/61/3
f 38/62/4 48/63/4 40/64/4
f 40/65/5 47/66/5 39/67/5
f 37/68/6 42/69/6 35/59/6
f 33/70/7 43/71/7 34/72/7
f 39/67/8 45/73/8 37/74/8
f 36/75/9 46/76/9 38/62/9
f 34/72/10 44/77/10 36/78/10
f 52/79/1 56/80/1 53/81/1
f 64/82/2 60/83/2 57/84/2
f 51/85/3 57/86/3 49/87/3
f 54/88/4 64/89/4 56/90/4
f 56/91/5 63/92/5 55/93/5
f 53/94/6 58/95/6 51/85/6
f 49/96/7 59/97/7 50/98/7
f 55/93/8 61/99/8 53/100/8
f 52/101/9 62/102/9 54/88/9
f 50/98/10 60/103/10 52/104/10
f 5/3/1 3/105/1 1/106/1
f 1/106/1 2/107/1 4/1/1
f 4/1/1 6/108/1 8/2/1
f 8/2/1 7/109/1 5/3/1
f 5/3/1 1/106/1 4/1/1
f 9/6/2 10/110/2 13/111/2
f 13/111/2 15/112/2 16/4/2
f 16/4/2 14/113/2 12/5/2
f 12/5/2 11/114/2 9/6/2
f 9/6/2 13/111/2 16/4/2
f 3/7/3 10/17/3 9/8/3
f 6/10/4 14/24/4 16/11/4
f 8/13/5 16/115/5 15/14/5
f 5/16/6 13/116/6 10/17/6
f 1/18/7 9/117/7 11/19/7
f 7/15/8 15/14/8 13/21/8
f 4/23/9 12/118/9 14/24/9
f 2/20/10 11/19/10 12/25/10
f 21/29/1 19/119/1 17/120/1
f 17/120/1 18/121/1 20/27/1
f 20/27/1 22/122/1 24/28/1
f 24/28/1 23/123/1 21/29/1
f 21/29/1 17/120/1 20/27/1
f 25/32/2 26/124/2 29/125/2
f 29/125/2 31/126/2 32/30/2
f 32/30/2 30/127/2 28/31/2
f 28/31/2 27/128/2 25/32/2
f 25/32/2 29/125/2 32/30/2
f 19/33/3 26/43/3 25/34/3
f 22/36/4 30/50/4 32/37/4
f 24/39/5 32/129/5 31/40/5
f 21/42/6 29/130/6 26/43/6
f 17/44/7 25/131/7 27/45/7
f 23/41/8 31/40/8 29/47/8
f 20/49/9 28/132/9 30/50/9
f 18/46/10 27/45/10 28/51/10
f 37/55/1 35/133/1 33/134/1
f 33/134/1 34/135/1 36/53/1
f 36/53/1 38/136/1 40/54/1
f 40/54/1 39/137/1 37/55/1
f 37/55/1 33/134/1 36/53/1
f 41/58/2 42/138/2 45/139/2
f 45/139/2 47/140/2 48/56/2
f 48/56/2 46/141/2 44/57/2
f 44/57/2 43/142/2 41/58/2
f 41/58/2 45/139/2 48/56/2
f 35/59/3 42/69/3 41/60/3
f 38/62/4 46/76/4 48/63/4
f 40/65/5 48/143/5 47/66/5
f 37/68/6 45/144/6 42/69/6
f 33/70/7 41/145/7 43/71/7
f 39/67/8 47/66/8 45/73/8
f 36/75/9 44/146/9 46/76/9
f 34/72/10 43/71/10 44/77/10
f 53/81/1 51/147/1 49/148/1
f 49/148/1 50/149/1 52/79/1
f 52/79/1 54/150/1 56/80/1
f 56/80/1 55/151/1 53/81/1
f 53/81/1 49/148/1 52/79/1
f 57/84/2 58/152/2 61/153/2
f 61/153/2 63/154/2 64/82/2
f 64/82/2 62/155/2 60/83/2
f 60/83/2 59/156/2 57/84/2
f 57/84/2 61/153/2 64/82/2
f 51/85/3 58/95/3 57/86/3
f 54/88/4 62/102/4 64/89/4
f 56/91/5 64/157/5 63/92/5
f 53/94/6 61/158/6 58/95/6
f 49/96/7 57/159/7 59/97/7
f 55/93/8 63/92/8 61/99/8
f 52/101/9 60/160/9 62/102/9
f 50/98/10 59/97/10 60/103/10
