# Blender v2.90.1 OBJ File: ''
# www.blender.org
mtllib rbmk_rods.mtl
o Lid
v -0.500000 1.250000 -0.500000
v -0.500000 1.125000 0.500000
v -0.500000 1.250000 0.500000
v 0.500000 1.250000 -0.500000
v -0.500000 1.125000 -0.500000
v 0.500000 1.250000 0.500000
v 0.500000 1.125000 -0.500000
v 0.500000 1.125000 0.500000
v -0.375000 1.125000 0.375000
v -0.125000 0.125000 0.375000
v -0.125000 1.125000 0.375000
v -0.375000 1.125000 0.125000
v -0.375000 0.125000 0.375000
v -0.125000 1.125000 0.125000
v -0.375000 0.125000 0.125000
v -0.125000 0.125000 0.125000
v 0.125000 1.125000 -0.125000
v 0.375000 0.125000 -0.125000
v 0.375000 1.125000 -0.125000
v 0.125000 1.125000 -0.375000
v 0.125000 0.125000 -0.125000
v 0.375000 1.125000 -0.375000
v 0.125000 0.125000 -0.375000
v 0.375000 0.125000 -0.375000
v -0.125000 1.125000 -0.125000
v -0.125000 0.125000 -0.375000
v -0.125000 1.125000 -0.375000
v -0.375000 0.125000 -0.375000
v -0.375000 1.125000 -0.375000
v -0.375000 0.125000 -0.125000
v -0.375000 1.125000 -0.125000
v -0.125000 0.125000 -0.125000
v 0.125000 1.125000 0.375000
v 0.375000 0.125000 0.375000
v 0.375000 1.125000 0.375000
v 0.125000 1.125000 0.125000
v 0.125000 0.125000 0.375000
v 0.375000 1.125000 0.125000
v 0.125000 0.125000 0.125000
v 0.375000 0.125000 0.125000
vt 1.000000 0.000000
vt 0.500000 0.062500
vt 0.500000 0.000000
vt 1.000000 0.000000
vt 0.500000 0.062500
vt 0.500000 0.000000
vt 0.500000 0.062500
vt 1.000000 0.000000
vt 1.000000 0.062500
vt 0.500000 0.062500
vt 1.000000 0.000000
vt 1.000000 0.062500
vt 0.500000 0.500000
vt 1.000000 1.000000
vt 0.500000 1.000000
vt 0.500000 1.000000
vt 0.000000 0.500000
vt 0.500000 0.500000
vt 1.000000 0.500000
vt 0.500000 0.375000
vt 1.000000 0.375000
vt 1.000000 0.500000
vt 0.500000 0.375000
vt 1.000000 0.375000
vt 1.000000 0.500000
vt 0.500000 0.375000
vt 1.000000 0.375000
vt 1.000000 0.500000
vt 0.500000 0.375000
vt 1.000000 0.375000
vt 1.000000 0.500000
vt 0.500000 0.375000
vt 1.000000 0.375000
vt 1.000000 0.500000
vt 0.500000 0.375000
vt 1.000000 0.375000
vt 1.000000 0.500000
vt 0.500000 0.375000
vt 1.000000 0.375000
vt 1.000000 0.500000
vt 0.500000 0.375000
vt 1.000000 0.375000
vt 1.000000 0.500000
vt 0.500000 0.375000
vt 1.000000 0.375000
vt 1.000000 0.500000
vt 0.500000 0.375000
vt 1.000000 0.375000
vt 1.000000 0.500000
vt 0.500000 0.375000
vt 1.000000 0.375000
vt 1.000000 0.500000
vt 0.500000 0.375000
vt 1.000000 0.375000
vt 1.000000 0.500000
vt 0.500000 0.375000
vt 1.000000 0.375000
vt 1.000000 0.500000
vt 0.500000 0.375000
vt 1.000000 0.375000
vt 1.000000 0.500000
vt 0.500000 0.375000
vt 1.000000 0.375000
vt 1.000000 0.500000
vt 0.500000 0.375000
vt 1.000000 0.375000
vt 1.000000 0.062500
vt 1.000000 0.062500
vt 0.500000 0.000000
vt 0.500000 0.000000
vt 1.000000 0.500000
vt 0.000000 1.000000
vt 0.500000 0.500000
vt 0.500000 0.500000
vt 0.500000 0.500000
vt 0.500000 0.500000
vt 0.500000 0.500000
vt 0.500000 0.500000
vt 0.500000 0.500000
vt 0.500000 0.500000
vt 0.500000 0.500000
vt 0.500000 0.500000
vt 0.500000 0.500000
vt 0.500000 0.500000
vt 0.500000 0.500000
vt 0.500000 0.500000
vt 0.500000 0.500000
vt 0.500000 0.500000
vn -1.0000 0.0000 0.0000
vn 0.0000 0.0000 -1.0000
vn 1.0000 -0.0000 0.0000
vn 0.0000 0.0000 1.0000
vn 0.0000 -1.0000 -0.0000
vn 0.0000 1.0000 0.0000
usemtl Default_OBJ.001
s 1
f 1/1/1 2/2/1 3/3/1
f 4/4/2 5/5/2 1/6/2
f 6/7/3 7/8/3 4/9/3
f 3/10/4 8/11/4 6/12/4
f 5/13/5 8/14/5 2/15/5
f 4/16/6 3/17/6 6/18/6
f 9/19/4 10/20/4 11/21/4
f 12/22/1 13/23/1 9/24/1
f 14/25/2 15/26/2 12/27/2
f 11/28/3 16/29/3 14/30/3
f 17/31/4 18/32/4 19/33/4
f 20/34/1 21/35/1 17/36/1
f 22/37/2 23/38/2 20/39/2
f 19/40/3 24/41/3 22/42/3
f 25/43/3 26/44/3 27/45/3
f 27/46/2 28/47/2 29/48/2
f 29/49/1 30/50/1 31/51/1
f 31/52/4 32/53/4 25/54/4
f 33/55/4 34/56/4 35/57/4
f 36/58/1 37/59/1 33/60/1
f 38/61/2 39/62/2 36/63/2
f 35/64/3 40/65/3 38/66/3
f 1/1/1 5/67/1 2/2/1
f 4/4/2 7/68/2 5/5/2
f 6/7/3 8/69/3 7/8/3
f 3/10/4 2/70/4 8/11/4
f 5/13/5 7/71/5 8/14/5
f 4/16/6 1/72/6 3/17/6
f 9/19/4 13/73/4 10/20/4
f 12/22/1 15/74/1 13/23/1
f 14/25/2 16/75/2 15/26/2
f 11/28/3 10/76/3 16/29/3
f 17/31/4 21/77/4 18/32/4
f 20/34/1 23/78/1 21/35/1
f 22/37/2 24/79/2 23/38/2
f 19/40/3 18/80/3 24/41/3
f 25/43/3 32/81/3 26/44/3
f 27/46/2 26/82/2 28/47/2
f 29/49/1 28/83/1 30/50/1
f 31/52/4 30/84/4 32/53/4
f 33/55/4 37/85/4 34/56/4
f 36/58/1 39/86/1 37/59/1
f 38/61/2 40/87/2 39/62/2
f 35/64/3 34/88/3 40/65/3
o Column
v -0.500000 1.000000 -0.500000
v -0.500000 -0.000000 0.500000
v -0.500000 1.000000 0.500000
v 0.500000 1.000000 -0.500000
v -0.500000 0.000000 -0.500000
v 0.500000 1.000000 0.500000
v 0.500000 0.000000 -0.500000
v 0.500000 -0.000000 0.500000
v -0.437500 1.125000 0.437500
v -0.062500 1.125000 0.062500
v -0.437500 1.125000 0.062500
v -0.062500 1.000000 0.437500
v -0.062500 1.125000 0.437500
v -0.437500 1.000000 0.437500
v -0.437500 1.000000 0.062500
v -0.062500 1.000000 0.062500
v -0.437500 1.125000 -0.062500
v -0.062500 1.125000 -0.437500
v -0.437500 1.125000 -0.437500
v -0.062500 1.000000 -0.062500
v -0.062500 1.125000 -0.062500
v -0.437500 1.000000 -0.062500
v -0.437500 1.000000 -0.437500
v -0.062500 1.000000 -0.437500
v 0.062500 1.125000 -0.062500
v 0.437500 1.125000 -0.437500
v 0.062500 1.125000 -0.437500
v 0.437500 1.000000 -0.062500
v 0.437500 1.125000 -0.062500
v 0.062500 1.000000 -0.062500
v 0.062500 1.000000 -0.437500
v 0.437500 1.000000 -0.437500
v 0.062500 1.125000 0.437500
v 0.437500 1.125000 0.062500
v 0.062500 1.125000 0.062500
v 0.437500 1.000000 0.437500
v 0.437500 1.125000 0.437500
v 0.062500 1.000000 0.437500
v 0.062500 1.000000 0.062500
v 0.437500 1.000000 0.062500
vt 0.500000 -0.000000
vt 0.000000 0.500000
vt 0.000000 -0.000000
vt 0.500000 -0.000000
vt -0.000000 0.500000
vt -0.000000 -0.000000
vt 0.000000 0.500000
vt 0.500000 0.000000
vt 0.500000 0.500000
vt -0.000000 0.500000
vt 0.500000 -0.000000
vt 0.500000 0.500000
vt 0.000100 0.500100
vt 0.499900 0.999900
vt 0.000100 0.999900
vt 1.000000 1.000000
vt 0.500000 0.500000
vt 1.000000 0.500000
vt 0.500000 0.125000
vt 0.687500 0.312500
vt 0.500000 0.312500
vt 0.687500 0.062500
vt 0.687500 0.125000
vt 0.687500 0.062500
vt 0.500000 0.125000
vt 0.500000 0.062500
vt 0.687500 0.062500
vt 0.500000 0.125000
vt 0.500000 0.062500
vt 0.500000 0.125000
vt 0.687500 0.062500
vt 0.687500 0.125000
vt 0.500000 0.125000
vt 0.687500 0.312500
vt 0.500000 0.312500
vt 0.687500 0.062500
vt 0.687500 0.125000
vt 0.687500 0.062500
vt 0.500000 0.125000
vt 0.500000 0.062500
vt 0.687500 0.062500
vt 0.500000 0.125000
vt 0.500000 0.062500
vt 0.500000 0.125000
vt 0.687500 0.062500
vt 0.687500 0.125000
vt 0.500000 0.125000
vt 0.687500 0.312500
vt 0.500000 0.312500
vt 0.687500 0.062500
vt 0.687500 0.125000
vt 0.687500 0.062500
vt 0.500000 0.125000
vt 0.500000 0.062500
vt 0.687500 0.062500
vt 0.500000 0.125000
vt 0.500000 0.062500
vt 0.500000 0.125000
vt 0.687500 0.062500
vt 0.687500 0.125000
vt 0.500000 0.125000
vt 0.687500 0.312500
vt 0.500000 0.312500
vt 0.687500 0.062500
vt 0.687500 0.125000
vt 0.687500 0.062500
vt 0.500000 0.125000
vt 0.500000 0.062500
vt 0.687500 0.062500
vt 0.500000 0.125000
vt 0.500000 0.062500
vt 0.500000 0.125000
vt 0.687500 0.062500
vt 0.687500 0.125000
vt 0.500000 0.500000
vt 0.500000 0.500000
vt 0.000000 0.000000
vt -0.000000 -0.000000
vt 0.499900 0.500100
vt 0.500000 1.000000
vt 0.500000 0.062500
vt 0.687500 0.125000
vt 0.687500 0.125000
vt 0.500000 0.062500
vt 0.500000 0.062500
vt 0.687500 0.125000
vt 0.687500 0.125000
vt 0.500000 0.062500
vt 0.500000 0.062500
vt 0.687500 0.125000
vt 0.687500 0.125000
vt 0.500000 0.062500
vt 0.500000 0.062500
vt 0.687500 0.125000
vt 0.687500 0.125000
vt 0.500000 0.062500
vn -1.0000 0.0000 0.0000
vn 0.0000 0.0000 -1.0000
vn 1.0000 0.0000 0.0000
vn 0.0000 -0.0000 1.0000
vn 0.0000 -1.0000 -0.0000
vn 0.0000 1.0000 0.0000
usemtl Default_OBJ.001
s 1
f 41/89/7 42/90/7 43/91/7
f 44/92/8 45/93/8 41/94/8
f 46/95/9 47/96/9 44/97/9
f 43/98/10 48/99/10 46/100/10
f 45/101/11 48/102/11 42/103/11
f 44/104/12 43/105/12 46/106/12
f 49/107/12 50/108/12 51/109/12
f 49/107/10 52/110/10 53/111/10
f 51/112/7 54/113/7 49/114/7
f 50/115/8 55/116/8 51/117/8
f 53/118/9 56/119/9 50/120/9
f 57/121/12 58/122/12 59/123/12
f 57/121/10 60/124/10 61/125/10
f 59/126/7 62/127/7 57/128/7
f 58/129/8 63/130/8 59/131/8
f 61/132/9 64/133/9 58/134/9
f 65/135/12 66/136/12 67/137/12
f 65/135/10 68/138/10 69/139/10
f 67/140/7 70/141/7 65/142/7
f 66/143/8 71/144/8 67/145/8
f 69/146/9 72/147/9 66/148/9
f 73/149/12 74/150/12 75/151/12
f 73/149/10 76/152/10 77/153/10
f 75/154/7 78/155/7 73/156/7
f 74/157/8 79/158/8 75/159/8
f 77/160/9 80/161/9 74/162/9
f 41/89/7 45/163/7 42/90/7
f 44/92/8 47/164/8 45/93/8
f 46/95/9 48/165/9 47/96/9
f 43/98/10 42/166/10 48/99/10
f 45/101/11 47/167/11 48/102/11
f 44/104/12 41/168/12 43/105/12
f 49/107/12 53/111/12 50/108/12
f 49/107/10 54/169/10 52/110/10
f 51/112/7 55/170/7 54/113/7
f 50/115/8 56/171/8 55/116/8
f 53/118/9 52/172/9 56/119/9
f 57/121/12 61/125/12 58/122/12
f 57/121/10 62/173/10 60/124/10
f 59/126/7 63/174/7 62/127/7
f 58/129/8 64/175/8 63/130/8
f 61/132/9 60/176/9 64/133/9
f 65/135/12 69/139/12 66/136/12
f 65/135/10 70/177/10 68/138/10
f 67/140/7 71/178/7 70/141/7
f 66/143/8 72/179/8 71/144/8
f 69/146/9 68/180/9 72/147/9
f 73/149/12 77/153/12 74/150/12
f 73/149/10 78/181/10 76/152/10
f 75/154/7 79/182/7 78/155/7
f 74/157/8 80/183/8 79/158/8
f 77/160/9 76/184/9 80/161/9
