# Blender v2.79 (sub 0) OBJ File: 'meteor.blend'
# www.blender.org
o Cube
v 0.500000 -0.171667 -0.171667
v 0.171667 -0.500000 -0.171667
v 0.171667 -0.171667 -0.500000
v 0.500000 -0.171667 0.171667
v 0.171667 -0.171667 0.500000
v 0.171667 -0.500000 0.171667
v -0.171667 -0.171667 0.500000
v -0.500000 -0.171667 0.171667
v -0.171667 -0.500000 0.171667
v -0.171667 -0.171667 -0.500000
v -0.171667 -0.500000 -0.171667
v -0.500000 -0.171667 -0.171667
v 0.171667 0.171667 -0.500000
v 0.171667 0.500000 -0.171667
v 0.500000 0.171667 -0.171667
v 0.171667 0.171667 0.500000
v 0.500000 0.171667 0.171668
v 0.171667 0.500000 0.171667
v -0.500000 0.171667 0.171667
v -0.171667 0.171667 0.500000
v -0.171667 0.500000 0.171667
v -0.500000 0.171667 -0.171667
v -0.171667 0.500000 -0.171667
v -0.171667 0.171667 -0.500000
vt 0.671633 0.328367
vt 0.328367 0.671633
vt 0.328367 0.328367
vt 0.671633 0.671633
vt 0.328367 0.328367
vt 0.671633 0.328367
vt 0.328367 0.328367
vt 0.671633 0.671633
vt 0.328367 0.671633
vt 0.328367 0.671633
vt 0.671633 0.328367
vt 0.671633 0.671633
vt 0.671633 0.671633
vt 0.328367 0.328367
vt 0.671633 0.328367
vt 0.671633 0.328367
vt 0.671633 0.000100
vt 0.999900 0.328367
vt 0.328367 0.328367
vt 0.000100 0.328367
vt 0.328367 0.000100
vt 0.000100 0.328367
vt 0.328367 0.000100
vt 0.328367 0.999900
vt 0.000100 0.671633
vt 0.671633 0.000100
vt 0.999900 0.328367
vt 0.999900 0.671633
vt 0.671633 0.999900
vt 0.000100 0.328367
vt 0.328367 0.000100
vt 0.671633 0.328367
vt 0.671633 0.000100
vt 0.999900 0.328367
vt 0.671633 0.000100
vt 0.999900 0.671633
vt 0.671633 0.671633
vt 0.671633 0.000100
vt 0.328367 0.671633
vt 0.328367 0.999900
vt 0.328367 0.671633
vt 0.999900 0.671633
vt 0.999900 0.671633
vt 0.328367 0.328367
vt 0.671633 0.000100
vt 0.000100 0.328367
vt 0.671633 0.671633
vt 0.328367 0.671633
vt 0.328367 0.000100
vt 0.000100 0.671633
vt 0.671633 0.999900
vt 0.000100 0.671633
vt 0.999900 0.328367
vt 0.328367 0.000100
vt 0.328367 0.000100
vt 0.000100 0.671633
vn 0.0000 0.0000 -1.0000
vn 0.0000 -1.0000 0.0000
vn -1.0000 0.0000 -0.0000
vn 0.0000 1.0000 0.0000
vn -0.0000 -0.0000 1.0000
vn 0.5774 -0.5774 -0.5774
vn 0.5774 -0.5774 0.5774
vn -0.5774 -0.5774 0.5774
vn -0.5774 -0.5774 -0.5774
vn 0.5774 0.5774 -0.5774
vn 0.5773 0.5774 0.5774
vn -0.5774 0.5774 0.5774
vn -0.5774 0.5774 -0.5774
vn 0.7071 -0.7071 -0.0000
vn 0.0000 -0.7071 -0.7071
vn 0.7071 0.0000 -0.7071
vn 0.0000 -0.7071 0.7071
vn 0.7071 -0.0000 0.7071
vn -0.7071 -0.7071 -0.0000
vn -0.7071 -0.0000 0.7071
vn -0.7071 0.0000 -0.7071
vn 0.7071 0.7071 0.0000
vn 0.0000 0.7071 -0.7071
vn -0.0000 0.7071 0.7071
vn -0.7071 0.7071 -0.0000
vn 1.0000 -0.0000 0.0000
s off
f 13/1/1 10/2/1 24/3/1
f 6/4/2 11/5/2 2/6/2
f 19/7/3 12/8/3 8/9/3
f 23/10/4 18/11/4 14/12/4
f 16/13/5 7/14/5 5/15/5
f 1/16/6 2/17/6 3/18/6
f 4/19/7 5/20/7 6/21/7
f 7/14/8 8/22/8 9/23/8
f 10/2/9 11/24/9 12/25/9
f 13/1/10 14/26/10 15/27/10
f 16/13/11 17/28/11 18/29/11
f 19/7/12 20/30/12 21/31/12
f 22/32/13 23/33/13 24/34/13
f 1/16/14 6/21/14 2/17/14
f 11/5/15 3/35/15 2/6/15
f 13/1/16 1/36/16 3/37/16
f 5/15/17 9/23/17 6/38/17
f 17/39/18 5/20/18 4/19/18
f 12/8/19 9/40/19 8/9/19
f 20/41/20 8/22/20 7/14/20
f 22/32/21 10/42/21 12/8/21
f 18/11/22 15/43/22 14/12/22
f 24/3/23 14/26/23 13/1/23
f 21/44/24 16/45/24 18/11/24
f 23/10/25 19/46/25 21/44/25
f 15/47/26 4/19/26 1/16/26
f 13/1/1 3/37/1 10/2/1
f 6/4/2 9/48/2 11/5/2
f 19/7/3 22/32/3 12/8/3
f 23/10/4 21/44/4 18/11/4
f 16/13/5 20/41/5 7/14/5
f 1/16/14 4/19/14 6/21/14
f 11/5/15 10/49/15 3/35/15
f 13/1/16 15/27/16 1/36/16
f 5/15/17 7/14/17 9/23/17
f 17/39/18 16/50/18 5/20/18
f 12/8/19 11/51/19 9/40/19
f 20/41/20 19/52/20 8/22/20
f 22/32/21 24/34/21 10/42/21
f 18/11/22 17/53/22 15/43/22
f 24/3/23 23/54/23 14/26/23
f 21/44/24 20/55/24 16/45/24
f 23/10/25 22/56/25 19/46/25
f 15/47/26 17/39/26 4/19/26
