# Blender v2.79 (sub 0) OBJ File: 'autocal.blend'
# www.blender.org
o Plane
v 0.500000 0.125000 0.375000
v 0.500000 0.125000 -0.375000
v 0.500000 1.500000 0.375000
v 0.500000 1.500000 -0.375000
v -0.500000 0.125000 0.375000
v 0.500000 0.000000 0.500000
v 0.500000 0.000000 -0.500000
v -0.500000 0.125000 -0.375000
v -0.500000 1.500000 0.375000
v 0.500000 2.000000 0.500000
v 0.500000 2.000000 -0.500000
v -0.500000 1.500000 -0.375000
v -0.500000 0.000000 -0.500000
v -0.500000 0.000000 0.500000
v -0.500000 2.000000 -0.500000
v -0.500000 2.000000 0.500000
v 0.437500 0.125000 0.375000
v 0.437500 0.125000 -0.375000
v 0.437500 1.500000 0.375000
v 0.437500 1.500000 -0.375000
v -0.437500 0.125000 -0.375000
v -0.437500 0.125000 0.375000
v -0.437500 1.500000 -0.375000
v -0.437500 1.500000 0.375000
v 0.501000 1.671875 0.375000
v 0.501000 1.578125 0.375000
v 0.501000 1.671875 -0.375000
v 0.501000 1.578125 -0.375000
vt 0.428571 0.000000
vt 0.285714 0.250000
vt 0.285714 0.000000
vt 0.285714 0.750000
vt 0.428571 1.000000
vt 0.285714 1.000000
vt 0.580357 0.640625
vt 0.687500 0.625000
vt 0.687500 0.640625
vt 0.821429 0.625000
vt 0.812500 0.281250
vt 0.821429 0.281250
vt 0.687500 0.265625
vt 0.580357 0.281250
vt 0.580357 0.265625
vt 0.303571 0.281250
vt 0.428571 0.250000
vt 0.410714 0.281250
vt 0.410714 0.625000
vt 0.303571 0.625000
vt 0.428571 0.750000
vt 0.571429 0.250000
vt 0.571429 0.750000
vt 0.142857 0.750000
vt 0.017857 0.281250
vt 0.142857 0.250000
vt 0.125000 0.281250
vt 0.125000 0.625000
vt 0.000000 0.750000
vt 0.017857 0.625000
vt 0.000000 0.250000
vt 0.705357 0.625000
vt 0.705357 0.281250
vt 0.687500 0.281250
vt 0.580357 0.625000
vt 0.696429 0.281250
vt 0.696429 0.625000
vt 0.571429 0.281250
vt 0.571429 0.625000
vt 0.696429 0.625000
vt 0.696429 0.281250
vt 0.812500 0.265625
vt 0.705357 0.265625
vt 0.705357 0.640625
vt 0.812500 0.625000
vt 0.812500 0.640625
vt 0.428571 0.750000
vt 1.000000 0.875000
vt 0.428571 0.875000
vt 1.000000 0.750000
vn 0.0000 -1.0000 0.0000
vn 0.0000 1.0000 0.0000
vn 0.0000 0.0000 1.0000
vn 1.0000 0.0000 0.0000
vn 0.0000 0.0000 -1.0000
vn -1.0000 0.0000 0.0000
s off
f 13/1/1 6/2/1 14/3/1
f 10/4/2 15/5/2 16/6/2
f 12/7/1 24/8/1 9/9/1
f 4/10/3 18/11/3 2/12/3
f 5/13/2 21/14/2 8/15/2
f 1/16/4 7/17/4 2/18/4
f 4/19/4 10/4/4 3/20/4
f 4/19/4 7/17/4 11/21/4
f 3/20/4 6/2/4 1/16/4
f 11/21/5 13/22/5 15/23/5
f 16/24/3 6/2/3 10/4/3
f 8/25/6 14/26/6 5/27/6
f 9/28/6 15/29/6 12/30/6
f 12/30/6 13/31/6 8/25/6
f 9/28/6 14/26/6 16/24/6
f 18/11/4 19/32/4 17/33/4
f 22/34/6 23/35/6 21/14/6
f 1/36/5 19/32/5 3/37/5
f 8/38/3 23/35/3 12/39/3
f 9/40/5 22/34/5 5/41/5
f 2/42/2 17/33/2 1/43/2
f 3/44/1 20/45/1 4/46/1
f 26/47/4 27/48/4 25/49/4
f 13/1/1 7/17/1 6/2/1
f 10/4/2 11/21/2 15/5/2
f 12/7/1 23/35/1 24/8/1
f 4/10/3 20/45/3 18/11/3
f 5/13/2 22/34/2 21/14/2
f 1/16/4 6/2/4 7/17/4
f 4/19/4 11/21/4 10/4/4
f 4/19/4 2/18/4 7/17/4
f 3/20/4 10/4/4 6/2/4
f 11/21/5 7/17/5 13/22/5
f 16/24/3 14/26/3 6/2/3
f 8/25/6 13/31/6 14/26/6
f 9/28/6 16/24/6 15/29/6
f 12/30/6 15/29/6 13/31/6
f 9/28/6 5/27/6 14/26/6
f 18/11/4 20/45/4 19/32/4
f 22/34/6 24/8/6 23/35/6
f 1/36/5 17/33/5 19/32/5
f 8/38/3 21/14/3 23/35/3
f 9/40/5 24/8/5 22/34/5
f 2/42/2 18/11/2 17/33/2
f 3/44/1 19/32/1 20/45/1
f 26/47/4 28/50/4 27/48/4
