# Blender v2.79 (sub 0) OBJ File: 'battery.blend'
# www.blender.org
o Supports
v 0.875000 0.250000 -0.875000
v 1.000000 0.250000 -0.875000
v 0.875000 0.250000 -1.000000
v 1.000000 0.250000 -1.000000
v 0.875000 2.000000 -0.875000
v 1.000000 2.000000 -0.875000
v 0.875000 2.000000 -1.000000
v 1.000000 2.000000 -1.000000
v -0.875000 0.250000 0.875000
v -1.000000 0.250000 0.875000
v -0.875000 0.250000 1.000000
v -1.000000 0.250000 1.000000
v -0.875000 2.000000 0.875000
v -1.000000 2.000000 0.875000
v -0.875000 2.000000 1.000000
v -1.000000 2.000000 1.000000
v -0.875000 0.250000 -0.875000
v -0.875000 0.250000 -1.000000
v -1.000000 0.250000 -0.875000
v -1.000000 0.250000 -1.000000
v -0.875000 2.000000 -0.875000
v -0.875000 2.000000 -1.000000
v -1.000000 2.000000 -0.875000
v -1.000000 2.000000 -1.000000
v 0.875000 0.250000 0.875000
v 0.875000 0.250000 1.000000
v 1.000000 0.250000 0.875000
v 1.000000 0.250000 1.000000
v 0.875000 2.000000 0.875000
v 0.875000 2.000000 1.000000
v 1.000000 2.000000 0.875000
v 1.000000 2.000000 1.000000
vt 0.864865 0.694444
vt 0.486486 0.722222
vt 0.486486 0.694444
vt 0.864865 0.722222
vt 0.486486 0.750000
vt 0.864865 0.777778
vt 0.486486 0.805556
vt 0.486486 0.777778
vt 0.864865 0.750000
vt 0.702703 0.777778
vt 0.729730 0.805556
vt 0.702703 0.805556
vt 0.864865 0.694444
vt 0.486486 0.722222
vt 0.486486 0.694444
vt 0.864865 0.722222
vt 0.486486 0.750000
vt 0.864865 0.777778
vt 0.486486 0.805556
vt 0.486486 0.777778
vt 0.864865 0.750000
vt 0.702703 0.777778
vt 0.729730 0.805556
vt 0.702703 0.805556
vt 0.864865 0.694444
vt 0.486486 0.722222
vt 0.486486 0.694444
vt 0.864865 0.722222
vt 0.486486 0.750000
vt 0.864865 0.777778
vt 0.486486 0.805556
vt 0.486486 0.777778
vt 0.864865 0.750000
vt 0.702703 0.777778
vt 0.729730 0.805556
vt 0.702703 0.805556
vt 0.864865 0.694444
vt 0.486486 0.722222
vt 0.486486 0.694444
vt 0.864865 0.722222
vt 0.486486 0.750000
vt 0.864865 0.777778
vt 0.486486 0.805556
vt 0.486486 0.777778
vt 0.864865 0.750000
vt 0.702703 0.777778
vt 0.729730 0.805556
vt 0.702703 0.805556
vt 0.864865 0.805556
vt 0.729730 0.777778
vt 0.864865 0.805556
vt 0.729730 0.777778
vt 0.864865 0.805556
vt 0.729730 0.777778
vt 0.864865 0.805556
vt 0.729730 0.777778
vn -1.0000 0.0000 0.0000
vn 0.0000 0.0000 -1.0000
vn 0.0000 0.0000 1.0000
vn 1.0000 0.0000 0.0000
vn 0.0000 1.0000 0.0000
s off
f 5/1/1 3/2/1 1/3/1
f 7/4/2 4/5/2 3/2/2
f 6/6/3 1/7/3 2/8/3
f 8/9/4 2/8/4 4/5/4
f 5/10/5 8/11/5 7/12/5
f 13/13/4 11/14/4 9/15/4
f 15/16/3 12/17/3 11/14/3
f 14/18/2 9/19/2 10/20/2
f 16/21/1 10/20/1 12/17/1
f 13/22/5 16/23/5 15/24/5
f 21/25/3 19/26/3 17/27/3
f 23/28/1 20/29/1 19/26/1
f 22/30/4 17/31/4 18/32/4
f 24/33/2 18/32/2 20/29/2
f 21/34/5 24/35/5 23/36/5
f 29/37/2 27/38/2 25/39/2
f 31/40/4 28/41/4 27/38/4
f 30/42/1 25/43/1 26/44/1
f 32/45/3 26/44/3 28/41/3
f 29/46/5 32/47/5 31/48/5
f 5/1/1 7/4/1 3/2/1
f 7/4/2 8/9/2 4/5/2
f 6/6/3 5/49/3 1/7/3
f 8/9/4 6/6/4 2/8/4
f 5/10/5 6/50/5 8/11/5
f 13/13/4 15/16/4 11/14/4
f 15/16/3 16/21/3 12/17/3
f 14/18/2 13/51/2 9/19/2
f 16/21/1 14/18/1 10/20/1
f 13/22/5 14/52/5 16/23/5
f 21/25/3 23/28/3 19/26/3
f 23/28/1 24/33/1 20/29/1
f 22/30/4 21/53/4 17/31/4
f 24/33/2 22/30/2 18/32/2
f 21/34/5 22/54/5 24/35/5
f 29/37/2 31/40/2 27/38/2
f 31/40/4 32/45/4 28/41/4
f 30/42/1 29/55/1 25/43/1
f 32/45/3 30/42/3 26/44/3
f 29/46/5 30/56/5 32/47/5
o Capacitor
v -0.875000 0.125000 0.875000
v 0.875000 0.125000 0.875000
v -0.875000 0.125000 -0.875000
v 0.875000 0.125000 -0.875000
v -0.875000 1.875000 -0.875000
v -0.875000 1.875000 0.875000
v 0.875000 1.875000 0.875000
v 0.875000 1.875000 -0.875000
v -0.750000 0.250000 0.750000
v 0.750000 0.250000 0.750000
v -0.750000 0.250000 -0.750000
v 0.750000 0.250000 -0.750000
v -0.750000 1.750000 -0.750000
v -0.750000 1.750000 0.750000
v 0.750000 1.750000 0.750000
v 0.750000 1.750000 -0.750000
v -0.875000 0.125000 0.875000
v 0.875000 0.125000 0.875000
v -0.875000 0.125000 -0.875000
v 0.875000 0.125000 -0.875000
v -0.875000 1.875000 -0.875000
v -0.875000 1.875000 0.875000
v 0.875000 1.875000 0.875000
v 0.875000 1.875000 -0.875000
vt 0.269231 0.000000
vt 0.000000 0.333333
vt 0.000000 0.000000
vt 0.000000 0.666667
vt 0.269231 1.000000
vt 0.000000 1.000000
vt 0.269231 0.333333
vt -0.000000 0.666667
vt -0.000000 0.333333
vt 0.538462 0.333333
vt 0.269231 0.666667
vt 0.269231 0.333333
vt 0.538462 0.333333
vt 0.269231 0.666667
vt 0.769231 -0.000000
vt 0.538462 0.285714
vt 0.538462 -0.000000
vt 0.538462 0.571429
vt 0.769231 0.857143
vt 0.538462 0.857143
vt 0.769231 0.285714
vt 0.769231 0.285714
vt 0.538462 0.571429
vt 0.538462 0.285714
vt 1.000000 0.285714
vt 0.769231 0.571429
vt 1.000000 0.285714
vt 0.769231 0.571429
vt 0.000000 0.333333
vt 0.269231 0.000000
vt 0.000000 0.000000
vt 0.269231 1.000000
vt 0.000000 0.666667
vt 0.000000 1.000000
vt -0.000000 0.666667
vt 0.269231 0.333333
vt -0.000000 0.333333
vt 0.269231 0.666667
vt 0.538462 0.333333
vt 0.269231 0.333333
vt 0.269231 0.666667
vt 0.538462 0.333333
vt 0.538462 0.666667
vt 0.538462 0.666667
vt 1.000000 0.571429
vt 1.000000 0.571429
vt 0.538462 0.666667
vt 0.538462 0.666667
vn 0.0000 -1.0000 0.0000
vn 0.0000 1.0000 0.0000
vn -1.0000 0.0000 0.0000
vn 0.0000 0.0000 -1.0000
vn 0.0000 0.0000 1.0000
vn 1.0000 0.0000 0.0000
s off
f 35/57/6 34/58/6 33/59/6
f 39/60/7 37/61/7 38/62/7
f 33/63/8 37/64/8 35/65/8
f 35/66/9 40/67/9 36/68/9
f 34/69/10 38/70/10 33/63/10
f 36/68/11 39/60/11 34/58/11
f 43/71/6 42/72/6 41/73/6
f 47/74/7 45/75/7 46/76/7
f 44/77/11 47/74/11 42/72/11
f 41/78/8 45/79/8 43/80/8
f 43/81/9 48/82/9 44/77/9
f 42/83/10 46/84/10 41/78/10
f 50/85/7 51/86/7 49/87/7
f 53/88/6 55/89/6 54/90/6
f 53/91/11 49/92/11 51/93/11
f 56/94/10 51/95/10 52/96/10
f 54/97/9 50/98/9 49/92/9
f 55/89/8 52/96/8 50/85/8
f 35/57/6 36/68/6 34/58/6
f 39/60/7 40/67/7 37/61/7
f 33/63/8 38/70/8 37/64/8
f 35/66/9 37/99/9 40/67/9
f 34/69/10 39/100/10 38/70/10
f 36/68/11 40/67/11 39/60/11
f 43/71/6 44/77/6 42/72/6
f 47/74/7 48/82/7 45/75/7
f 44/77/11 48/82/11 47/74/11
f 41/78/8 46/84/8 45/79/8
f 43/81/9 45/101/9 48/82/9
f 42/83/10 47/102/10 46/84/10
f 50/85/7 52/96/7 51/86/7
f 53/88/6 56/94/6 55/89/6
f 53/91/11 54/97/11 49/92/11
f 56/94/10 53/103/10 51/95/10
f 54/97/9 55/104/9 50/98/9
f 55/89/8 56/94/8 52/96/8
o Battery
v 0.687500 1.875000 -0.875000
v 0.875000 1.875000 -0.687500
v 0.000000 1.875000 -0.187500
v -0.875000 1.875000 -0.187500
v 0.875000 0.125000 -0.187500
v 0.875000 1.875000 -0.187500
v 0.687500 1.875000 0.875000
v 0.875000 1.875000 0.687500
v 0.875000 0.125000 0.687500
v 0.687500 0.125000 0.875000
v 0.000000 1.875000 0.687500
v 0.187500 1.875000 0.875000
v 0.875000 1.875000 0.187500
v 0.687500 1.875000 0.000000
v 0.687500 0.125000 0.000000
v 0.875000 0.125000 0.187500
v 0.187500 0.125000 0.875000
v 0.000000 0.125000 0.687500
v 0.000000 0.125000 0.187500
v 0.187500 0.125000 0.000000
v 0.187500 1.875000 0.000000
v 0.000000 1.875000 0.187500
v 0.687500 0.125000 -0.875000
v 0.875000 0.125000 -0.687500
v -0.187500 1.875000 -0.875000
v 0.000000 0.125000 -0.187500
v 0.000000 0.125000 -0.687500
v 0.187500 0.125000 -0.875000
v 0.187500 1.875000 -0.875000
v 0.000000 1.875000 -0.687500
v -0.187500 1.875000 0.875000
v -0.187500 0.125000 0.875000
v -0.875000 1.875000 0.687500
v -0.687500 1.875000 0.875000
v -0.187500 1.875000 0.000000
v -0.187500 0.125000 0.000000
v -0.687500 0.125000 0.875000
v -0.875000 0.125000 0.687500
v -0.875000 0.125000 0.187500
v -0.687500 0.125000 0.000000
v -0.687500 1.875000 0.000000
v -0.875000 1.875000 0.187500
v -0.187500 0.125000 -0.875000
v -0.875000 0.125000 -0.187500
v -0.875000 0.125000 -0.687500
v -0.687500 0.125000 -0.875000
v -0.687500 1.875000 -0.875000
v -0.875000 1.875000 -0.687500
v -0.937500 1.625000 0.687500
v -0.687500 1.625000 0.937500
v 0.687500 1.625000 0.937500
v 0.937500 1.625000 0.687500
v -0.687500 1.625000 -0.937500
v -0.937500 1.625000 -0.687500
v 0.937500 1.625000 -0.687500
v 0.687500 1.625000 -0.937500
v 0.687500 1.375000 -0.937500
v 0.937500 1.375000 -0.687500
v -0.937500 1.375000 -0.687500
v -0.687500 1.375000 -0.937500
v 0.937500 1.375000 0.687500
v 0.687500 1.375000 0.937500
v -0.687500 1.375000 0.937500
v -0.937500 1.375000 0.687500
v -0.937500 0.625000 0.687500
v -0.687500 0.625000 0.937500
v 0.687500 0.625000 0.937500
v 0.937500 0.625000 0.687500
v -0.687500 0.625000 -0.937500
v -0.937500 0.625000 -0.687500
v 0.937500 0.625000 -0.687500
v 0.687500 0.625000 -0.937500
v 0.687500 0.375000 -0.937500
v 0.937500 0.375000 -0.687500
v -0.937500 0.375000 -0.687500
v -0.687500 0.375000 -0.937500
v 0.937500 0.375000 0.687500
v 0.687500 0.375000 0.937500
v -0.687500 0.375000 0.937500
v -0.937500 0.375000 0.687500
vt 0.597561 0.617647
vt 0.731707 0.661765
vt 0.695122 0.823529
vt 0.560976 0.617647
vt 0.597561 0.205882
vt 0.597561 0.617647
vt 1.000000 0.205882
vt 0.963415 0.617647
vt 0.963415 0.205882
vt 0.731707 0.044118
vt 0.695122 0.205882
vt 0.560976 0.161765
vt 0.695122 0.205882
vt 0.560976 0.161765
vt 0.597561 -0.000000
vt 0.560976 0.205882
vt 0.463415 0.617647
vt 0.463415 0.205882
vt 0.560976 0.617647
vt 1.000000 0.617647
vt 0.963415 0.205882
vt 1.000000 0.205882
vt 0.865854 0.617647
vt 0.829268 0.205882
vt 0.865854 0.205882
vt 0.731707 0.617647
vt 0.731707 0.205882
vt 0.597561 0.205882
vt 0.695122 0.205882
vt 0.731707 0.617647
vt 0.695122 0.617647
vt 0.829268 0.617647
vt 0.731707 0.205882
vt 0.829268 0.205882
vt 0.560976 0.205882
vt 0.597561 0.617647
vt 0.560976 0.617647
vt 0.560976 0.161765
vt 0.597561 0.000000
vt 0.560976 0.661765
vt 0.695122 0.617647
vt 0.731707 0.779412
vt 0.865854 0.617647
vt 0.963415 0.205882
vt 0.963415 0.617647
vt 0.865854 0.617647
vt 0.865854 0.205882
vt 0.731707 0.617647
vt 0.597561 0.205882
vt 1.000000 0.205882
vt 0.963415 0.617647
vt 0.963415 0.205882
vt 0.597561 0.617647
vt 0.560976 0.205882
vt 0.597561 0.205882
vt 0.463415 0.617647
vt 0.463415 0.205882
vt 0.560976 0.661765
vt 0.731707 0.779412
vt 1.000000 0.617647
vt 1.000000 0.205882
vt 0.829268 0.205882
vt 0.865854 0.205882
vt 0.695122 0.205882
vt 0.731707 0.617647
vt 0.695122 0.617647
vt 0.560976 0.044118
vt 0.695122 -0.000000
vt 0.731707 0.161765
vt 0.865854 0.617647
vt 0.829268 0.617647
vt 0.731707 0.205882
vt 0.829268 0.205882
vt 0.731707 0.779412
vt 0.597561 0.823529
vt 0.560976 0.661765
vt 0.865854 0.205882
vt 0.463415 0.882353
vt 0.414634 0.558824
vt 0.463415 0.558824
vt 0.097561 0.500000
vt 0.365854 0.941176
vt 0.414634 0.058824
vt 0.365854 0.441176
vt 0.048780 0.382353
vt 0.097561 1.000000
vt 0.365854 1.000000
vt 0.097561 0.441176
vt 0.414634 0.500000
vt 0.365854 0.500000
vt 0.414634 0.941176
vt 0.463415 0.941176
vt 0.048780 0.941176
vt 0.097561 0.941176
vt 0.048780 0.500000
vt 0.000000 0.558824
vt 0.000000 0.500000
vt 0.048780 0.882353
vt 0.000000 0.882353
vt 0.463415 0.882353
vt 0.414634 0.558824
vt 0.463415 0.558824
vt 0.097561 0.500000
vt 0.365854 0.941176
vt 0.414634 0.058824
vt 0.365854 0.441176
vt 0.048780 0.382353
vt 0.097561 1.000000
vt 0.365854 1.000000
vt 0.097561 0.441176
vt 0.414634 0.500000
vt 0.365854 0.500000
vt 0.414634 0.941176
vt 0.463415 0.941176
vt 0.048780 0.941176
vt 0.097561 0.941176
vt 0.048780 0.500000
vt 0.000000 0.558824
vt 0.000000 0.500000
vt 0.048780 0.882353
vt 0.000000 0.882353
vt 0.597561 0.823529
vt 0.560976 0.779412
vt 0.560976 0.661765
vt 0.695122 0.617647
vt 0.731707 0.779412
vt 0.560976 0.205882
vt 1.000000 0.617647
vt 0.560976 0.044118
vt 0.597561 -0.000000
vt 0.695122 -0.000000
vt 0.731707 0.161765
vt 0.695122 -0.000000
vt 0.731707 0.044118
vt 0.731707 0.161765
vt 0.560976 0.044118
vt 0.963415 0.617647
vt 0.829268 0.617647
vt 0.695122 0.000000
vt 0.731707 0.044118
vt 0.731707 0.161765
vt 0.560976 0.044118
vt 0.695122 0.823529
vt 0.597561 0.823529
vt 0.560976 0.779412
vt 0.731707 0.661765
vt 1.000000 0.617647
vt 0.560976 0.617647
vt 0.695122 0.823529
vt 0.597561 0.823529
vt 0.560976 0.779412
vt 0.731707 0.661765
vt 0.829268 0.617647
vt 0.731707 0.205882
vt 0.560976 0.161765
vt 0.597561 -0.000000
vt 0.731707 0.044118
vt 0.731707 0.661765
vt 0.695122 0.823529
vt 0.560976 0.779412
vt 0.414634 0.882353
vt 0.048780 0.558824
vt 0.048780 0.058824
vt 0.097561 -0.000000
vt 0.365854 -0.000000
vt 0.414634 0.382353
vt 0.414634 0.441176
vt 0.048780 1.000000
vt 0.414634 0.882353
vt 0.048780 0.558824
vt 0.048780 0.058824
vt 0.097561 -0.000000
vt 0.365854 -0.000000
vt 0.414634 0.382353
vt 0.414634 0.441176
vt 0.048780 1.000000
vn 0.0000 1.0000 0.0000
vn 0.7071 0.0000 0.7071
vn -0.7071 0.0000 0.7071
vn 0.0000 -1.0000 0.0000
vn 0.0000 0.0000 1.0000
vn -0.7071 0.0000 -0.7071
vn 0.7071 0.0000 -0.7071
vn 1.0000 0.0000 0.0000
vn 0.0000 0.0000 -1.0000
vn -1.0000 0.0000 0.0000
s off
f 64/105/12 70/106/12 78/107/12
f 91/108/13 82/109/13 59/110/13
f 76/111/14 59/112/14 82/113/14
f 76/114/15 72/115/15 66/116/15
f 80/117/15 71/118/15 82/119/15
f 66/120/16 68/121/16 73/122/16
f 66/120/13 64/105/13 63/123/13
f 68/124/14 74/125/14 73/126/14
f 78/127/17 76/128/17 75/129/17
f 70/130/18 72/115/18 71/131/18
f 72/115/19 64/105/19 65/132/19
f 83/133/18 81/134/18 86/135/18
f 85/136/20 79/137/20 84/138/20
f 71/139/13 62/140/13 70/141/13
f 83/133/15 92/142/15 100/143/15
f 70/144/12 58/145/12 85/146/12
f 98/147/21 94/148/21 89/149/21
f 86/150/17 84/138/17 83/151/17
f 57/152/18 80/117/18 79/137/18
f 80/117/19 62/140/19 61/153/19
f 96/154/14 60/155/14 100/156/14
f 67/157/13 88/158/13 74/159/13
f 88/158/16 90/160/16 93/161/16
f 91/162/12 86/135/12 103/163/12
f 90/164/14 94/148/14 93/165/14
f 98/147/17 96/166/17 95/167/17
f 75/168/18 91/169/18 78/170/18
f 93/171/15 95/172/15 92/173/15
f 104/174/21 100/156/21 60/155/21
f 103/175/20 99/176/20 102/177/20
f 97/178/12 89/179/12 87/180/12
f 104/174/17 102/177/17 101/181/17
f 116/182/20 112/183/20 113/184/20
f 108/185/12 112/183/12 110/186/12
f 116/187/15 114/188/15 118/189/15
f 120/190/21 110/186/21 115/191/21
f 114/188/19 108/185/19 117/192/19
f 114/188/18 112/193/18 111/194/18
f 110/195/17 116/182/17 115/196/17
f 120/190/14 106/197/14 105/198/14
f 108/199/13 118/200/13 117/201/13
f 118/200/16 106/202/16 119/203/16
f 132/204/20 128/205/20 129/206/20
f 124/207/12 128/205/12 126/208/12
f 132/209/15 130/210/15 134/211/15
f 136/212/21 126/208/21 131/213/21
f 130/210/19 124/207/19 133/214/19
f 130/210/18 128/215/18 127/216/18
f 126/217/17 132/204/17 131/218/17
f 136/212/14 122/219/14 121/220/14
f 124/221/13 134/222/13 133/223/13
f 134/222/16 122/224/16 135/225/16
f 78/107/12 67/226/12 68/227/12
f 68/227/12 63/228/12 64/105/12
f 64/105/12 69/229/12 70/106/12
f 70/106/12 77/230/12 78/107/12
f 78/107/12 68/227/12 64/105/12
f 91/108/13 92/231/13 82/109/13
f 76/111/14 77/232/14 59/112/14
f 66/116/15 73/233/15 74/234/15
f 74/234/15 75/235/15 76/114/15
f 76/114/15 71/236/15 72/115/15
f 72/115/15 65/132/15 66/116/15
f 66/116/15 74/234/15 76/114/15
f 82/119/15 83/237/15 84/238/15
f 84/238/15 79/239/15 80/117/15
f 80/117/15 61/153/15 71/118/15
f 71/118/15 76/240/15 82/119/15
f 82/119/15 84/238/15 80/117/15
f 66/120/16 63/123/16 68/121/16
f 66/120/13 65/132/13 64/105/13
f 68/124/14 67/241/14 74/125/14
f 78/127/17 77/242/17 76/128/17
f 70/130/18 69/229/18 72/115/18
f 72/115/19 69/229/19 64/105/19
f 83/133/18 99/176/18 81/134/18
f 85/136/20 57/152/20 79/137/20
f 71/139/13 61/153/13 62/140/13
f 100/143/15 101/243/15 102/244/15
f 102/244/15 99/245/15 83/133/15
f 83/133/15 82/109/15 92/142/15
f 92/142/15 96/246/15 100/143/15
f 100/143/15 102/244/15 83/133/15
f 85/146/12 86/247/12 59/248/12
f 59/248/12 77/249/12 70/144/12
f 70/144/12 62/140/12 58/145/12
f 58/145/12 57/250/12 85/146/12
f 85/146/12 59/248/12 70/144/12
f 98/147/21 95/167/21 94/148/21
f 86/150/17 85/136/17 84/138/17
f 57/152/18 58/145/18 80/117/18
f 80/117/19 58/145/19 62/140/19
f 96/154/14 97/251/14 60/155/14
f 67/157/13 87/252/13 88/158/13
f 88/158/16 87/252/16 90/160/16
f 103/163/12 104/253/12 60/254/12
f 60/254/12 97/255/12 91/162/12
f 91/162/12 59/110/12 86/135/12
f 86/135/12 81/256/12 103/163/12
f 103/163/12 60/254/12 91/162/12
f 90/164/14 89/149/14 94/148/14
f 98/147/17 97/257/17 96/166/17
f 75/168/18 92/258/18 91/169/18
f 92/173/15 75/168/15 74/159/15
f 74/159/15 88/259/15 93/171/15
f 93/171/15 94/260/15 95/172/15
f 95/172/15 96/261/15 92/173/15
f 92/173/15 74/159/15 93/171/15
f 104/174/21 101/181/21 100/156/21
f 103/175/20 81/134/20 99/176/20
f 87/180/12 67/157/12 78/170/12
f 78/170/12 91/262/12 97/178/12
f 97/178/12 98/263/12 89/179/12
f 89/179/12 90/264/12 87/180/12
f 87/180/12 78/170/12 97/178/12
f 104/174/17 103/175/17 102/177/17
f 116/182/20 109/265/20 112/183/20
f 110/186/12 105/198/12 106/202/12
f 106/202/12 107/266/12 108/185/12
f 108/185/12 111/194/12 112/183/12
f 112/183/12 109/265/12 110/186/12
f 110/186/12 106/202/12 108/185/12
f 118/189/15 119/267/15 120/268/15
f 120/268/15 115/269/15 116/187/15
f 116/187/15 113/270/15 114/188/15
f 114/188/15 117/192/15 118/189/15
f 118/189/15 120/268/15 116/187/15
f 120/190/21 105/198/21 110/186/21
f 114/188/19 111/194/19 108/185/19
f 114/188/18 113/271/18 112/193/18
f 110/195/17 109/265/17 116/182/17
f 120/190/14 119/272/14 106/197/14
f 108/199/13 107/266/13 118/200/13
f 118/200/16 107/266/16 106/202/16
f 132/204/20 125/273/20 128/205/20
f 126/208/12 121/220/12 122/224/12
f 122/224/12 123/274/12 124/207/12
f 124/207/12 127/216/12 128/205/12
f 128/205/12 125/273/12 126/208/12
f 126/208/12 122/224/12 124/207/12
f 134/211/15 135/275/15 136/276/15
f 136/276/15 131/277/15 132/209/15
f 132/209/15 129/278/15 130/210/15
f 130/210/15 133/214/15 134/211/15
f 134/211/15 136/276/15 132/209/15
f 136/212/21 121/220/21 126/208/21
f 130/210/19 127/216/19 124/207/19
f 130/210/18 129/279/18 128/215/18
f 126/217/17 125/273/17 132/204/17
f 136/212/14 135/280/14 122/219/14
f 124/221/13 123/274/13 134/222/13
f 134/222/16 123/274/16 122/224/16
o Socket
v -1.000000 0.000000 1.000000
v 1.000000 0.000000 1.000000
v -1.000000 0.000000 -1.000000
v 1.000000 0.000000 -1.000000
v -0.875000 0.250000 0.875000
v 0.875000 0.250000 0.875000
v -0.875000 0.250000 -0.875000
v 0.875000 0.250000 -0.875000
v -1.000000 0.250000 -1.000000
v -1.000000 0.250000 1.000000
v 1.000000 0.250000 1.000000
v 1.000000 0.250000 -1.000000
v 1.000000 0.750000 -0.250000
v 1.000000 0.250000 -0.250000
v 1.000000 0.750000 -0.750000
v 1.000000 0.250000 -0.750000
v 0.875000 0.750000 -0.750000
v 0.875000 0.750000 -0.250000
v 0.875000 0.250000 -0.250000
v 0.875000 0.250000 -0.750000
v -0.875000 0.125000 -0.875000
v -0.875000 0.125000 0.875000
v 0.875000 0.125000 0.875000
v 0.875000 0.125000 -0.875000
v 1.000000 0.750000 0.750000
v 1.000000 0.250000 0.750000
v 1.000000 0.750000 0.250000
v 1.000000 0.250000 0.250000
v 0.875000 0.750000 0.250000
v 0.875000 0.750000 0.750000
v 0.875000 0.250000 0.750000
v 0.875000 0.250000 0.250000
v -1.000000 0.750000 0.250000
v -1.000000 0.250000 0.250000
v -1.000000 0.750000 0.750000
v -1.000000 0.250000 0.750000
v -0.875000 0.750000 0.750000
v -0.875000 0.750000 0.250000
v -0.875000 0.250000 0.250000
v -0.875000 0.250000 0.750000
v -1.000000 0.750000 -0.750000
v -1.000000 0.250000 -0.750000
v -1.000000 0.750000 -0.250000
v -1.000000 0.250000 -0.250000
v -0.875000 0.750000 -0.250000
v -0.875000 0.750000 -0.750000
v -0.875000 0.250000 -0.750000
v -0.875000 0.250000 -0.250000
v -0.250000 0.750000 -1.000000
v -0.250000 0.250000 -1.000000
v -0.750000 0.750000 -1.000000
v -0.750000 0.250000 -1.000000
v -0.750000 0.750000 -0.875000
v -0.250000 0.750000 -0.875000
v -0.250000 0.250000 -0.875000
v -0.750000 0.250000 -0.875000
v 0.750000 0.750000 -1.000000
v 0.750000 0.250000 -1.000000
v 0.250000 0.750000 -1.000000
v 0.250000 0.250000 -1.000000
v 0.250000 0.750000 -0.875000
v 0.750000 0.750000 -0.875000
v 0.750000 0.250000 -0.875000
v 0.250000 0.250000 -0.875000
v 0.250000 0.750000 1.000000
v 0.250000 0.250000 1.000000
v 0.750000 0.750000 1.000000
v 0.750000 0.250000 1.000000
v 0.750000 0.750000 0.875000
v 0.250000 0.750000 0.875000
v 0.250000 0.250000 0.875000
v 0.750000 0.250000 0.875000
v -0.750000 0.750000 1.000000
v -0.750000 0.250000 1.000000
v -0.250000 0.750000 1.000000
v -0.250000 0.250000 1.000000
v -0.250000 0.750000 0.875000
v -0.750000 0.750000 0.875000
v -0.750000 0.250000 0.875000
v -0.250000 0.250000 0.875000
v 0.562500 1.875000 -0.562500
v 0.312500 1.875000 -0.562500
v 0.562500 1.875000 -0.312500
v 0.312500 1.875000 -0.312500
v -0.843750 1.937500 0.500000
v 0.312500 1.875000 0.562500
v 0.562500 1.875000 0.562500
v 0.312500 1.875000 0.312500
v 0.562500 1.875000 0.312500
v 0.312500 2.000000 0.312500
v 0.312500 2.000000 0.562500
v 0.562500 2.000000 0.562500
v 0.562500 2.000000 0.312500
v 0.312500 2.000000 -0.562500
v 0.312500 2.000000 -0.312500
v 0.562500 2.000000 -0.312500
v 0.562500 2.000000 -0.562500
v -0.312500 1.875000 -0.562500
v -0.562500 1.875000 -0.562500
v -0.312500 1.875000 -0.312500
v -0.562500 1.875000 -0.312500
v -0.562500 1.875000 0.562500
v -0.312500 1.875000 0.562500
v -0.562500 1.875000 0.312500
v -0.312500 1.875000 0.312500
v -0.562500 2.000000 0.312500
v -0.562500 2.000000 0.562500
v -0.312500 2.000000 0.562500
v -0.312500 2.000000 0.312500
v -0.562500 2.000000 -0.562500
v -0.562500 2.000000 -0.312500
v -0.312500 2.000000 -0.312500
v -0.312500 2.000000 -0.562500
v 0.843750 1.937500 0.500000
v -0.843750 1.937500 0.375000
v 0.843750 1.937500 0.375000
v 0.968750 1.812500 0.500000
v 0.968750 1.812500 0.375000
v 0.968750 0.750000 0.500000
v 0.968750 0.750000 0.375000
v -0.968750 1.811500 0.500000
v -0.968750 1.811500 0.375000
v -0.968750 0.749000 0.500000
v -0.968750 0.749000 0.375000
v -0.843750 1.937500 -0.375000
v 0.843750 1.937500 -0.375000
v -0.843750 1.937500 -0.500000
v 0.843750 1.937500 -0.500000
v 0.968750 1.812500 -0.375000
v 0.968750 1.812500 -0.500000
v 0.968750 0.750000 -0.375000
v 0.968750 0.750000 -0.500000
v -0.968750 1.811500 -0.375000
v -0.968750 1.811500 -0.500000
v -0.968750 0.749000 -0.375000
v -0.968750 0.749000 -0.500000
v -0.968750 0.749000 -0.500000
v -0.968750 0.749000 -0.375000
v -0.968750 1.811500 -0.500000
v -0.968750 1.811500 -0.375000
v 0.968750 0.750000 -0.500000
v 0.968750 0.750000 -0.375000
v 0.968750 1.812500 -0.500000
v 0.968750 1.812500 -0.375000
v 0.843750 1.937500 -0.500000
v -0.843750 1.937500 -0.500000
v 0.843750 1.937500 -0.375000
v -0.843750 1.937500 -0.375000
v -0.968750 0.749000 0.375000
v -0.968750 0.749000 0.500000
v -0.968750 1.811500 0.375000
v -0.968750 1.811500 0.500000
v 0.968750 0.750000 0.375000
v 0.968750 0.750000 0.500000
v 0.968750 1.812500 0.375000
v 0.968750 1.812500 0.500000
v 0.843750 1.937500 0.375000
v -0.843750 1.937500 0.375000
v 0.843750 1.937500 0.500000
v -0.843750 1.937500 0.500000
vt 0.486486 0.055556
vt 0.054054 0.500000
vt 0.054054 0.055556
vt 0.945946 -0.000000
vt 0.567568 0.027778
vt 0.567568 -0.000000
vt 0.540541 0.500000
vt 0.486486 0.500000
vt 0.000000 0.055556
vt 0.054054 0.555556
vt 0.486486 0.000000
vt 0.459459 0.972222
vt 0.054054 1.000000
vt 0.081081 0.972222
vt 0.081081 0.583333
vt 0.486486 0.555556
vt 0.459459 0.583333
vt 0.486486 1.000000
vt 0.594595 0.444444
vt 0.702703 0.555556
vt 0.594595 0.555556
vt 0.702703 0.583333
vt 0.594595 0.694444
vt 0.594595 0.583333
vt 0.945946 0.416667
vt 0.567568 0.416667
vt 0.810811 0.555556
vt 0.486486 0.583333
vt 0.486486 0.555556
vt 0.567568 0.444444
vt 0.945946 0.444444
vt 0.972973 0.416667
vt 0.945946 0.027778
vt 0.972973 0.027778
vt 0.540541 0.027778
vt 0.540541 0.416667
vt 0.594595 0.444444
vt 0.702703 0.555556
vt 0.594595 0.555556
vt 0.702703 0.583333
vt 0.594595 0.694444
vt 0.594595 0.583333
vt 0.810811 0.555556
vt 0.486486 0.583333
vt 0.486486 0.555556
vt 0.594595 0.444444
vt 0.702703 0.555556
vt 0.594595 0.555556
vt 0.702703 0.583333
vt 0.594595 0.694444
vt 0.594595 0.583333
vt 0.810811 0.555556
vt 0.486486 0.583333
vt 0.486486 0.555556
vt 0.594595 0.444444
vt 0.702703 0.555556
vt 0.594595 0.555556
vt 0.702703 0.583333
vt 0.594595 0.694444
vt 0.594595 0.583333
vt 0.810811 0.555556
vt 0.486486 0.583333
vt 0.486486 0.555556
vt 0.594595 0.444444
vt 0.702703 0.555556
vt 0.594595 0.555556
vt 0.702703 0.583333
vt 0.594595 0.694444
vt 0.594595 0.583333
vt 0.810811 0.555556
vt 0.486486 0.583333
vt 0.486486 0.555556
vt 0.594595 0.444444
vt 0.702703 0.555556
vt 0.594595 0.555556
vt 0.702703 0.583333
vt 0.594595 0.694444
vt 0.594595 0.583333
vt 0.810811 0.555556
vt 0.486486 0.583333
vt 0.486486 0.555556
vt 0.594595 0.444444
vt 0.702703 0.555556
vt 0.594595 0.555556
vt 0.702703 0.583333
vt 0.594595 0.694444
vt 0.594595 0.583333
vt 0.810811 0.555556
vt 0.486486 0.583333
vt 0.486486 0.555556
vt 0.594595 0.444444
vt 0.702703 0.555556
vt 0.594595 0.555556
vt 0.702703 0.583333
vt 0.594595 0.694444
vt 0.594595 0.583333
vt 0.810811 0.555556
vt 0.486486 0.583333
vt 0.486486 0.555556
vt 0.918919 0.500000
vt 0.864865 0.527778
vt 0.864865 0.500000
vt 0.810811 0.527778
vt 0.864865 0.583333
vt 0.810811 0.583333
vt 0.810811 0.527778
vt 0.864865 0.583333
vt 0.810811 0.583333
vt 0.918919 0.500000
vt 0.864865 0.527778
vt 0.864865 0.500000
vt 0.810811 0.500000
vt 0.756757 0.527778
vt 0.756757 0.500000
vt 0.972973 0.500000
vt 0.918919 0.527778
vt 0.810811 0.500000
vt 0.756757 0.527778
vt 0.756757 0.500000
vt 0.972973 0.500000
vt 0.918919 0.527778
vt 0.918919 0.500000
vt 0.864865 0.527778
vt 0.864865 0.500000
vt 0.810811 0.527778
vt 0.864865 0.583333
vt 0.810811 0.583333
vt 0.810811 0.527778
vt 0.864865 0.583333
vt 0.810811 0.583333
vt 0.918919 0.500000
vt 0.864865 0.527778
vt 0.864865 0.500000
vt 0.810811 0.500000
vt 0.756757 0.527778
vt 0.756757 0.500000
vt 0.972973 0.500000
vt 0.918919 0.527778
vt 0.810811 0.500000
vt 0.756757 0.527778
vt 0.756757 0.500000
vt 0.972973 0.500000
vt 0.918919 0.527778
vt 0.972973 0.263889
vt 1.000000 0.638889
vt 0.972973 0.638889
vt 1.000000 0.236111
vt 1.000000 0.263889
vt 0.972973 0.236111
vt 1.000000 0.000000
vt 0.972973 0.666667
vt 1.000000 0.666667
vt 0.972973 0.902778
vt 0.972973 0.263889
vt 1.000000 0.638889
vt 0.972973 0.638889
vt 1.000000 0.236111
vt 1.000000 0.263889
vt 0.972973 0.236111
vt 1.000000 0.000000
vt 0.972973 0.666667
vt 1.000000 0.666667
vt 0.972973 0.902778
vt 0.810811 0.444444
vt 0.864865 0.444444
vt 0.810811 0.444444
vt 0.864865 0.444444
vt 0.864865 0.444444
vt 0.864865 0.444444
vt 0.972973 0.902778
vt 1.000000 0.666667
vt 0.972973 0.666667
vt 1.000000 0.638889
vt 0.972973 0.638889
vt 1.000000 0.000000
vt 0.972973 0.236111
vt 1.000000 0.236111
vt 0.972973 0.263889
vt 1.000000 0.263889
vt 0.972973 0.902778
vt 1.000000 0.666667
vt 0.972973 0.666667
vt 1.000000 0.638889
vt 0.972973 0.638889
vt 1.000000 0.000000
vt 0.972973 0.236111
vt 1.000000 0.236111
vt 0.972973 0.263889
vt 1.000000 0.263889
vt 0.540541 0.055556
vt 0.000000 0.500000
vt 0.054054 0.000000
vt 0.702703 0.444444
vt 0.702703 0.694444
vt 0.810811 0.583333
vt 0.702703 0.444444
vt 0.702703 0.694444
vt 0.810811 0.583333
vt 0.702703 0.444444
vt 0.702703 0.694444
vt 0.810811 0.583333
vt 0.702703 0.444444
vt 0.702703 0.694444
vt 0.810811 0.583333
vt 0.702703 0.444444
vt 0.702703 0.694444
vt 0.810811 0.583333
vt 0.702703 0.444444
vt 0.702703 0.694444
vt 0.810811 0.583333
vt 0.702703 0.444444
vt 0.702703 0.694444
vt 0.810811 0.583333
vt 0.702703 0.444444
vt 0.702703 0.694444
vt 0.810811 0.583333
vt 0.972973 0.527778
vt 0.972973 0.527778
vt 0.972973 0.527778
vt 0.972973 0.527778
vt 0.972973 0.000000
vt 1.000000 0.902778
vt 0.972973 0.000000
vt 1.000000 0.902778
vt 0.810811 0.444444
vt 0.810811 0.444444
vt 1.000000 0.902778
vt 0.972973 0.000000
vt 1.000000 0.902778
vt 0.972973 0.000000
vn 0.0000 -1.0000 0.0000
vn -1.0000 0.0000 0.0000
vn 0.0000 0.0000 -1.0000
vn 0.0000 0.0000 1.0000
vn 1.0000 0.0000 0.0000
vn 0.0000 1.0000 0.0000
vn 0.7071 0.7071 0.0000
vn -0.7099 0.7043 0.0000
vn 0.7099 -0.7043 0.0000
vn -0.7071 -0.7071 0.0000
s off
f 139/281/22 138/282/22 137/283/22
f 144/284/23 159/285/23 142/286/23
f 139/281/24 148/287/24 140/288/24
f 138/282/25 146/289/25 137/283/25
f 140/288/26 147/290/26 138/282/26
f 137/283/23 145/291/23 139/281/23
f 143/292/27 146/293/27 141/294/27
f 141/294/27 147/290/27 142/295/27
f 142/295/27 148/296/27 144/297/27
f 144/297/27 145/298/27 143/292/27
f 150/299/26 151/300/26 149/301/26
f 153/302/23 155/303/23 154/304/23
f 159/285/27 157/305/27 158/306/27
f 151/300/27 154/304/27 149/301/27
f 152/307/24 153/302/24 151/300/24
f 149/301/25 155/308/25 150/309/25
f 141/310/26 157/305/26 143/311/26
f 143/312/25 160/313/25 144/314/25
f 142/315/24 158/306/24 141/316/24
f 162/317/26 163/318/26 161/319/26
f 165/320/23 167/321/23 166/322/23
f 163/318/27 166/322/27 161/319/27
f 164/323/24 165/320/24 163/318/24
f 161/319/25 167/324/25 162/325/25
f 170/326/23 171/327/23 169/328/23
f 173/329/26 175/330/26 174/331/26
f 171/327/27 174/331/27 169/328/27
f 172/332/25 173/329/25 171/327/25
f 169/328/24 175/333/24 170/334/24
f 178/335/23 179/336/23 177/337/23
f 181/338/26 183/339/26 182/340/26
f 179/336/27 182/340/27 177/337/27
f 180/341/25 181/338/25 179/336/25
f 177/337/24 183/342/24 178/343/24
f 186/344/24 187/345/24 185/346/24
f 189/347/25 191/348/25 190/349/25
f 187/345/27 190/349/27 185/346/27
f 188/350/23 189/347/23 187/345/23
f 185/346/26 191/351/26 186/352/26
f 194/353/24 195/354/24 193/355/24
f 197/356/25 199/357/25 198/358/25
f 195/354/27 198/358/27 193/355/27
f 196/359/23 197/356/23 195/354/23
f 193/355/26 199/360/26 194/361/26
f 202/362/25 203/363/25 201/364/25
f 205/365/24 207/366/24 206/367/24
f 203/363/27 206/367/27 201/364/27
f 204/368/26 205/365/26 203/363/26
f 201/364/23 207/369/23 202/370/23
f 210/371/25 211/372/25 209/373/25
f 213/374/24 215/375/24 214/376/24
f 211/372/27 214/376/27 209/373/27
f 212/377/26 213/374/26 211/372/26
f 209/373/23 215/378/23 210/379/23
f 218/380/24 233/381/24 217/382/24
f 232/383/27 230/384/27 231/385/27
f 228/386/27 226/387/27 227/388/27
f 224/389/24 229/390/24 225/391/24
f 223/392/25 227/393/25 222/394/25
f 225/391/26 228/386/26 223/392/26
f 222/395/23 226/396/23 224/389/23
f 219/397/25 231/398/25 220/399/25
f 217/382/26 232/383/26 219/397/26
f 220/400/23 230/401/23 218/380/23
f 235/402/24 249/403/24 234/404/24
f 248/405/27 246/406/27 247/407/27
f 244/408/27 242/409/27 243/410/27
f 240/411/24 245/412/24 241/413/24
f 239/414/25 243/415/25 238/416/25
f 241/413/26 244/408/26 239/414/26
f 238/417/23 242/418/23 240/411/23
f 236/419/25 247/420/25 237/421/25
f 234/404/26 248/405/26 236/419/26
f 237/422/23 246/423/23 235/402/23
f 250/424/27 251/425/27 221/426/27
f 250/424/28 254/427/28 252/428/28
f 253/429/26 256/430/26 254/427/26
f 251/425/29 257/431/29 221/426/29
f 258/432/23 259/433/23 257/431/23
f 262/434/27 263/435/27 261/436/27
f 262/434/28 266/437/28 264/438/28
f 265/439/26 268/440/26 266/437/26
f 263/435/29 269/441/29 261/436/29
f 270/442/23 271/443/23 269/441/23
f 225/391/22 222/444/22 224/445/22
f 241/413/22 238/446/22 240/447/22
f 236/419/22 235/448/22 234/404/22
f 219/397/22 218/449/22 217/382/22
f 274/450/26 275/451/26 276/452/26
f 276/452/30 282/453/30 284/454/30
f 277/455/23 280/456/23 279/457/23
f 279/457/31 283/458/31 281/459/31
f 282/453/22 283/458/22 284/454/22
f 286/460/26 287/461/26 288/462/26
f 288/462/30 294/463/30 296/464/30
f 289/465/23 292/466/23 291/467/23
f 291/467/31 295/468/31 293/469/31
f 294/463/22 295/468/22 296/464/22
f 139/281/22 140/288/22 138/282/22
f 144/284/23 160/313/23 159/285/23
f 139/281/24 145/470/24 148/287/24
f 138/282/25 147/471/25 146/289/25
f 140/288/26 148/296/26 147/290/26
f 137/283/23 146/472/23 145/291/23
f 143/292/27 145/298/27 146/293/27
f 141/294/27 146/293/27 147/290/27
f 142/295/27 147/290/27 148/296/27
f 144/297/27 148/296/27 145/298/27
f 150/299/26 152/473/26 151/300/26
f 153/302/23 156/474/23 155/303/23
f 159/285/27 160/313/27 157/305/27
f 151/300/27 153/302/27 154/304/27
f 152/307/24 156/475/24 153/302/24
f 149/301/25 154/304/25 155/308/25
f 141/310/26 158/306/26 157/305/26
f 143/312/25 157/305/25 160/313/25
f 142/315/24 159/285/24 158/306/24
f 162/317/26 164/476/26 163/318/26
f 165/320/23 168/477/23 167/321/23
f 163/318/27 165/320/27 166/322/27
f 164/323/24 168/478/24 165/320/24
f 161/319/25 166/322/25 167/324/25
f 170/326/23 172/479/23 171/327/23
f 173/329/26 176/480/26 175/330/26
f 171/327/27 173/329/27 174/331/27
f 172/332/25 176/481/25 173/329/25
f 169/328/24 174/331/24 175/333/24
f 178/335/23 180/482/23 179/336/23
f 181/338/26 184/483/26 183/339/26
f 179/336/27 181/338/27 182/340/27
f 180/341/25 184/484/25 181/338/25
f 177/337/24 182/340/24 183/342/24
f 186/344/24 188/485/24 187/345/24
f 189/347/25 192/486/25 191/348/25
f 187/345/27 189/347/27 190/349/27
f 188/350/23 192/487/23 189/347/23
f 185/346/26 190/349/26 191/351/26
f 194/353/24 196/488/24 195/354/24
f 197/356/25 200/489/25 199/357/25
f 195/354/27 197/356/27 198/358/27
f 196/359/23 200/490/23 197/356/23
f 193/355/26 198/358/26 199/360/26
f 202/362/25 204/491/25 203/363/25
f 205/365/24 208/492/24 207/366/24
f 203/363/27 205/365/27 206/367/27
f 204/368/26 208/493/26 205/365/26
f 201/364/23 206/367/23 207/369/23
f 210/371/25 212/494/25 211/372/25
f 213/374/24 216/495/24 215/375/24
f 211/372/27 213/374/27 214/376/27
f 212/377/26 216/496/26 213/374/26
f 209/373/23 214/376/23 215/378/23
f 218/380/24 230/401/24 233/381/24
f 232/383/27 233/381/27 230/384/27
f 228/386/27 229/390/27 226/387/27
f 224/389/24 226/396/24 229/390/24
f 223/392/25 228/386/25 227/393/25
f 225/391/26 229/390/26 228/386/26
f 222/395/23 227/497/23 226/396/23
f 219/397/25 232/383/25 231/398/25
f 217/382/26 233/381/26 232/383/26
f 220/400/23 231/498/23 230/401/23
f 235/402/24 246/423/24 249/403/24
f 248/405/27 249/403/27 246/406/27
f 244/408/27 245/412/27 242/409/27
f 240/411/24 242/418/24 245/412/24
f 239/414/25 244/408/25 243/415/25
f 241/413/26 245/412/26 244/408/26
f 238/417/23 243/499/23 242/418/23
f 236/419/25 248/405/25 247/420/25
f 234/404/26 249/403/26 248/405/26
f 237/422/23 247/500/23 246/423/23
f 250/424/27 252/428/27 251/425/27
f 250/424/28 253/429/28 254/427/28
f 253/429/26 255/501/26 256/430/26
f 251/425/29 258/432/29 257/431/29
f 258/432/23 260/502/23 259/433/23
f 262/434/27 264/438/27 263/435/27
f 262/434/28 265/439/28 266/437/28
f 265/439/26 267/503/26 268/440/26
f 263/435/29 270/442/29 269/441/29
f 270/442/23 272/504/23 271/443/23
f 225/391/22 223/392/22 222/444/22
f 241/413/22 239/414/22 238/446/22
f 236/419/22 237/505/22 235/448/22
f 219/397/22 220/506/22 218/449/22
f 274/450/26 273/507/26 275/451/26
f 276/452/30 275/451/30 282/453/30
f 277/455/23 278/508/23 280/456/23
f 279/457/31 280/456/31 283/458/31
f 282/453/22 281/459/22 283/458/22
f 286/460/26 285/509/26 287/461/26
f 288/462/30 287/461/30 294/463/30
f 289/465/23 290/510/23 292/466/23
f 291/467/31 292/466/31 295/468/31
f 294/463/22 293/469/22 295/468/22
