# Blender v2.79 (sub 0) OBJ File: 'blast_furnace.blend'
# www.blender.org
o Plane
v 1.250000 0.000000 -1.250000
v -1.250000 0.000000 -1.250000
v 1.250000 0.000000 1.250000
v -1.250000 0.000000 1.250000
v -0.500000 0.000000 1.500000
v 0.500000 0.000000 1.500000
v -0.500000 0.000000 1.250000
v 0.500000 0.000000 1.250000
v -0.500000 1.000000 1.500000
v 0.500000 1.000000 1.500000
v -0.500000 1.250000 1.250000
v 0.500000 1.250000 1.250000
v -0.500000 0.000000 -1.250000
v 0.500000 0.000000 -1.250000
v -0.500000 0.000000 -1.500000
v 0.500000 0.000000 -1.500000
v -0.500000 1.250000 -1.250000
v 0.500000 1.250000 -1.250000
v -0.500000 1.000000 -1.500000
v 0.500000 1.000000 -1.500000
v -1.500000 2.000000 1.500000
v 1.500000 2.000000 1.500000
v -1.500000 2.000000 -1.500000
v 1.500000 2.000000 -1.500000
v 1.250000 0.000000 -0.500000
v 1.250000 0.000000 0.500000
v 1.500000 0.000000 -0.500000
v 1.500000 0.000000 0.500000
v -0.750000 6.500000 -0.750000
v -0.750000 6.500000 0.750000
v 0.750000 6.500000 0.750000
v 0.750000 6.500000 -0.750000
v -0.500000 7.000000 0.500000
v 0.500000 7.000000 0.500000
v -0.500000 7.000000 -0.500000
v 0.500000 7.000000 -0.500000
v 1.250000 1.375000 -1.250000
v -1.250000 1.375000 -1.250000
v 1.250000 1.375000 1.250000
v -1.250000 1.375000 1.250000
v 1.500000 1.000000 0.500000
v 1.500000 1.000000 -0.500000
v 1.250000 1.250000 0.500000
v 1.250000 1.250000 -0.500000
v -1.250000 0.000000 0.500000
v -1.250000 0.000000 -0.500000
v -1.500000 0.000000 0.500000
v -1.500000 0.000000 -0.500000
v -1.250000 1.250000 0.500000
v -1.250000 1.250000 -0.500000
v -1.500000 1.000000 0.500000
v -1.500000 1.000000 -0.500000
v 0.875000 6.500000 -0.875000
v -0.875000 6.500000 -0.875000
v 0.875000 6.500000 0.875000
v -0.875000 6.500000 0.875000
v 1.500000 2.000000 0.500000
v 1.500000 2.000000 -0.500000
v 1.500000 6.000000 0.500000
v 1.500000 6.000000 -0.500000
v 0.750000 2.000000 0.500000
v 0.750000 2.000000 -0.500000
v 0.750000 6.500000 0.500000
v 0.750000 6.500000 -0.500000
v -0.875000 7.000000 -0.875000
v -0.875000 7.000000 0.875000
v 0.875000 7.000000 0.875000
v 0.875000 7.000000 -0.875000
v -0.625000 7.000000 -0.625000
v -0.625000 7.000000 0.625000
v 0.625000 7.000000 0.625000
v 0.625000 7.000000 -0.625000
v -0.625000 6.875000 -0.625000
v -0.625000 6.875000 0.625000
v 0.625000 6.875000 0.625000
v 0.625000 6.875000 -0.625000
v -0.500000 6.875000 -0.500000
v -0.500000 6.875000 0.500000
v 0.500000 6.875000 0.500000
v 0.500000 6.875000 -0.500000
vt 0.137931 -0.000000
vt 0.206897 0.027778
vt 0.137931 0.027778
vt 0.137931 0.138889
vt 0.224138 0.027778
vt 0.206897 0.138889
vt 0.120690 0.027778
vt 0.120690 0.166667
vt 0.206897 0.027778
vt 0.137931 -0.000000
vt 0.206897 -0.000000
vt 0.120690 0.027778
vt 0.137931 0.138889
vt 0.120690 0.166667
vt 0.224138 0.027778
vt 0.206897 0.138889
vt 0.137931 0.027778
vt 0.413793 0.500000
vt 0.258621 1.000000
vt 0.206897 0.500000
vt 0.396552 0.000000
vt 0.224138 0.277778
vt 0.224138 -0.000000
vt 0.603448 0.430556
vt 0.620690 0.500000
vt 0.810345 0.430556
vt 0.827586 0.500000
vt 0.000000 0.500000
vt 0.189655 0.430556
vt 0.396552 0.430556
vt 0.672414 1.000000
vt 0.465517 1.000000
vt 0.051724 1.000000
vt 0.810345 0.277778
vt 0.637931 0.430556
vt 0.637931 0.277778
vt 0.637931 0.013889
vt 0.517241 0.069444
vt 0.517241 0.013889
vt 0.879310 0.013889
vt 0.758621 0.069444
vt 0.758621 0.013889
vt 0.396552 0.277778
vt 0.224138 0.430556
vt 0.189655 0.277778
vt 0.017241 0.430556
vt 0.017241 0.277778
vt 0.603448 0.277778
vt 0.431034 0.430556
vt 0.431034 0.277778
vt 0.137931 -0.000000
vt 0.206897 0.027778
vt 0.137931 0.027778
vt 0.137931 0.138889
vt 0.224138 0.027778
vt 0.206897 0.138889
vt 0.120690 0.027778
vt 0.120690 0.166667
vt 0.206897 0.027778
vt 0.137931 -0.000000
vt 0.206897 -0.000000
vt 0.120690 0.027778
vt 0.137931 0.138889
vt 0.120690 0.166667
vt 0.224138 0.027778
vt 0.206897 0.138889
vt 0.137931 0.027778
vt 0.637931 0.069444
vt 0.396552 0.069444
vt 0.396552 0.013889
vt 0.543103 0.138889
vt 0.612069 0.250000
vt 0.543103 0.250000
vt 0.405172 0.000000
vt 0.508621 0.000000
vt 0.206897 0.166667
vt 0.137931 0.166667
vt 0.206897 0.166667
vt 0.137931 0.166667
vt 0.137931 0.166667
vt 0.206897 0.166667
vt 0.948276 0.138889
vt 0.879310 0.583333
vt 0.879310 0.138889
vt 0.948276 0.583333
vt 0.879310 0.666667
vt 1.000000 0.138889
vt 1.000000 0.638889
vt 0.827586 0.138889
vt 0.775862 0.097222
vt 0.879310 0.069444
vt 0.862069 0.097222
vt 0.413793 0.097222
vt 0.500000 0.097222
vt 0.534483 0.097222
vt 0.620690 0.097222
vt 0.655172 0.097222
vt 0.741379 0.097222
vt 0.534483 0.111111
vt 0.784483 0.138889
vt 0.853448 0.125000
vt 0.853448 0.138889
vt 0.612069 0.125000
vt 0.612069 0.138889
vt 0.413793 0.111111
vt 0.784483 0.125000
vt 0.862069 0.111111
vt 0.422414 0.125000
vt 0.500000 0.111111
vt 0.491379 0.125000
vt 0.543103 0.125000
vt 0.620690 0.111111
vt 0.663793 0.125000
vt 0.741379 0.111111
vt 0.732759 0.125000
vt 0.663793 0.138889
vt 0.732759 0.138889
vt 0.775862 0.111111
vt 0.422414 0.138889
vt 0.491379 0.138889
vt 0.655172 0.111111
vt 0.525862 -0.000000
vt 0.629310 -0.000000
vt 0.646552 -0.000000
vt 0.750000 -0.000000
vt 0.767241 -0.000000
vt 0.870690 -0.000000
vt 0.206897 -0.000000
vt 0.224138 0.166667
vt 0.224138 0.166667
vt 0.362069 1.000000
vt 0.775862 1.000000
vt 0.568965 1.000000
vt 0.155172 1.000000
vt 0.206897 -0.000000
vt 0.224138 0.166667
vt 0.224138 0.166667
vt 0.137931 0.166667
vt 0.206897 0.166667
vt 0.948276 0.666667
vt 0.827586 0.638889
vn 0.0000 -1.0000 0.0000
vn 0.0000 0.0000 1.0000
vn 1.0000 0.0000 0.0000
vn -1.0000 0.0000 0.0000
vn 0.0000 0.0000 -1.0000
vn 0.9864 0.1644 0.0000
vn 0.0000 -0.3714 -0.9285
vn -0.9285 -0.3714 0.0000
vn 0.0000 -0.3714 0.9285
vn 0.9285 -0.3714 0.0000
vn -0.9864 0.1644 0.0000
vn 0.0000 0.1644 -0.9864
vn 0.0000 0.1644 0.9864
vn 0.0000 1.0000 0.0000
vn 0.0000 0.7071 -0.7071
vn -0.7071 0.7071 0.0000
vn 0.0000 0.7071 0.7071
vn 0.7071 0.7071 0.0000
vn 0.5547 0.8321 0.0000
s off
f 7/1/1 6/2/1 5/3/1
f 6/2/2 9/4/2 5/3/2
f 8/5/3 10/6/3 6/2/3
f 7/7/4 9/4/4 11/8/4
f 15/9/1 14/10/1 13/11/1
f 14/12/3 20/13/3 18/14/3
f 13/15/4 19/16/4 15/9/4
f 15/9/5 20/13/5 16/17/5
f 24/18/6 31/19/6 22/20/6
f 2/21/1 3/22/1 4/23/1
f 24/18/7 38/24/7 23/25/7
f 23/25/8 40/26/8 21/27/8
f 21/28/9 39/29/9 22/20/9
f 22/20/10 37/30/10 24/18/10
f 21/27/11 29/31/11 23/25/11
f 23/25/12 32/32/12 24/18/12
f 22/20/13 30/33/13 21/28/13
f 4/34/4 38/35/4 2/36/4
f 53/37/3 67/38/3 55/39/3
f 56/40/4 65/41/4 54/42/4
f 1/43/3 39/44/3 3/22/3
f 3/45/2 40/46/2 4/47/2
f 2/48/5 37/49/5 1/50/5
f 26/51/1 27/52/1 28/53/1
f 27/52/3 41/54/3 28/53/3
f 25/55/5 42/56/5 27/52/5
f 26/57/2 41/54/2 43/58/2
f 47/59/1 46/60/1 45/61/1
f 46/62/5 52/63/5 50/64/5
f 45/65/2 51/66/2 47/59/2
f 47/59/4 52/63/4 48/67/4
f 54/42/5 68/68/5 53/37/5
f 55/39/2 66/69/2 56/70/2
f 34/71/14 35/72/14 33/73/14
f 55/39/1 30/74/1 31/75/1
f 17/76/15 20/13/15 19/16/15
f 51/66/16 50/77/16 52/63/16
f 9/4/17 12/78/17 11/79/17
f 43/80/18 42/56/18 44/81/18
f 58/82/3 59/83/3 57/84/3
f 60/85/19 63/86/19 59/83/19
f 60/85/5 62/87/5 64/88/5
f 59/83/2 61/89/2 57/84/2
f 69/90/14 66/91/14 70/92/14
f 70/93/14 67/38/14 71/94/14
f 71/95/14 68/68/14 72/96/14
f 72/97/14 65/41/14 69/98/14
f 72/96/4 75/99/4 71/95/4
f 35/100/4 78/101/4 33/102/4
f 34/71/3 80/103/3 36/104/3
f 71/94/5 74/105/5 70/93/5
f 77/106/14 74/107/14 78/101/14
f 78/108/14 75/109/14 79/110/14
f 79/111/14 76/112/14 80/103/14
f 80/113/14 73/114/14 77/115/14
f 36/116/5 77/115/5 35/117/5
f 70/92/3 73/118/3 69/90/3
f 33/119/2 79/110/2 34/120/2
f 69/98/2 76/121/2 72/97/2
f 53/37/1 31/122/1 32/123/1
f 54/42/1 32/124/1 29/125/1
f 56/40/1 29/126/1 30/127/1
f 7/1/1 8/128/1 6/2/1
f 6/2/2 10/6/2 9/4/2
f 8/5/3 12/129/3 10/6/3
f 7/7/4 5/3/4 9/4/4
f 15/9/1 16/17/1 14/10/1
f 14/12/3 16/17/3 20/13/3
f 13/15/4 17/130/4 19/16/4
f 15/9/5 19/16/5 20/13/5
f 24/18/6 32/131/6 31/19/6
f 2/21/1 1/43/1 3/22/1
f 24/18/7 37/49/7 38/24/7
f 23/25/8 38/35/8 40/26/8
f 21/28/9 40/46/9 39/29/9
f 22/20/10 39/44/10 37/30/10
f 21/27/11 30/132/11 29/31/11
f 23/25/12 29/133/12 32/32/12
f 22/20/13 31/134/13 30/33/13
f 4/34/4 40/26/4 38/35/4
f 53/37/3 68/68/3 67/38/3
f 56/40/4 66/91/4 65/41/4
f 1/43/3 37/30/3 39/44/3
f 3/45/2 39/29/2 40/46/2
f 2/48/5 38/24/5 37/49/5
f 26/51/1 25/135/1 27/52/1
f 27/52/3 42/56/3 41/54/3
f 25/55/5 44/136/5 42/56/5
f 26/57/2 28/53/2 41/54/2
f 47/59/1 48/67/1 46/60/1
f 46/62/5 48/67/5 52/63/5
f 45/65/2 49/137/2 51/66/2
f 47/59/4 51/66/4 52/63/4
f 54/42/5 65/41/5 68/68/5
f 55/39/2 67/38/2 66/69/2
f 34/71/14 36/104/14 35/72/14
f 55/39/1 56/70/1 30/74/1
f 17/76/15 18/138/15 20/13/15
f 51/66/16 49/139/16 50/77/16
f 9/4/17 10/6/17 12/78/17
f 43/80/18 41/54/18 42/56/18
f 58/82/3 60/85/3 59/83/3
f 60/85/19 64/140/19 63/86/19
f 60/85/5 58/82/5 62/87/5
f 59/83/2 63/141/2 61/89/2
f 69/90/14 65/41/14 66/91/14
f 70/93/14 66/69/14 67/38/14
f 71/95/14 67/38/14 68/68/14
f 72/97/14 68/68/14 65/41/14
f 72/96/4 76/112/4 75/99/4
f 35/100/4 77/106/4 78/101/4
f 34/71/3 79/111/3 80/103/3
f 71/94/5 75/109/5 74/105/5
f 77/106/14 73/118/14 74/107/14
f 78/108/14 74/105/14 75/109/14
f 79/111/14 75/99/14 76/112/14
f 80/113/14 76/121/14 73/114/14
f 36/116/5 80/113/5 77/115/5
f 70/92/3 74/107/3 73/118/3
f 33/119/2 78/108/2 79/110/2
f 69/98/2 73/114/2 76/121/2
f 53/37/1 55/39/1 31/122/1
f 54/42/1 53/37/1 32/124/1
f 56/40/1 54/42/1 29/126/1
