# Blender v2.79 (sub 0) OBJ File: 'cargo_pad.blend'
# www.blender.org
o Plane
v -1.500000 0.000000 1.500000
v 1.500000 0.000000 1.500000
v -1.500000 0.000000 -1.500000
v 1.500000 0.000000 -1.500000
v -0.500000 1.000000 0.500000
v 0.500000 1.000000 0.500000
v -0.500000 1.000000 -0.500000
v 0.500000 1.000000 -0.500000
v -0.625000 1.000000 0.625000
v 0.625000 1.000000 0.625000
v -0.625000 1.000000 -0.625000
v 0.625000 1.000000 -0.625000
v -1.500000 1.000000 -1.500000
v -1.500000 1.000000 1.500000
v 1.500000 1.000000 1.500000
v 1.500000 1.000000 -1.500000
v -0.500000 0.875000 -0.500000
v -0.500000 0.875000 0.500000
v 0.500000 0.875000 0.500000
v 0.500000 0.875000 -0.500000
v -0.625000 0.875000 -0.625000
v -0.625000 0.875000 0.625000
v 0.625000 0.875000 0.625000
v 0.625000 0.875000 -0.625000
vt 0.631579 0.000000
vt -0.000000 0.428571
vt -0.000000 0.000000
vt 0.710526 0.053571
vt 0.921053 0.196429
vt 0.710526 0.196429
vt 1.000000 0.214286
vt 0.973684 0.035714
vt 1.000000 0.035714
vt 0.710526 0.214286
vt 0.921053 0.035714
vt 0.921053 0.053571
vt 0.684211 0.250000
vt 0.947368 0.232143
vt 0.947368 0.250000
vt 0.184211 0.875000
vt -0.000000 0.571429
vt 0.184211 0.696429
vt 0.631579 0.428571
vt 0.631579 0.428571
vt -0.000000 0.571429
vt -0.000000 0.428571
vt 0.631579 0.428571
vt 0.000000 0.571429
vt 0.000000 0.428571
vt 0.631579 0.428571
vt -0.000000 0.571429
vt -0.000000 0.428571
vt 0.631579 0.571429
vt 0.447368 0.696429
vt 0.631579 1.000000
vt 0.447368 0.875000
vt -0.000000 1.000000
vt 0.684211 0.196429
vt 0.657895 0.035714
vt 0.684211 0.053571
vt 0.710526 0.035714
vt 0.947368 0.017857
vt 0.947368 0.053571
vt 0.973684 0.214286
vt 0.947368 0.196429
vt 0.921053 0.214286
vt 0.684211 0.232143
vt 0.631579 0.035714
vt 0.657895 0.214286
vt 0.631579 0.214286
vt 0.947368 -0.000000
vt 0.684211 0.017857
vt 0.684211 -0.000000
vt 0.631579 0.571429
vt 0.631579 0.571429
vt 0.631579 0.571429
vn 0.0000 -1.0000 0.0000
vn 0.0000 1.0000 0.0000
vn 0.0000 0.0000 1.0000
vn -1.0000 0.0000 0.0000
vn 1.0000 0.0000 0.0000
vn 0.0000 0.0000 -1.0000
s off
f 3/1/1 2/2/1 1/3/1
f 6/4/2 7/5/2 5/6/2
f 11/7/3 24/8/3 12/9/3
f 7/5/4 18/10/4 5/6/4
f 6/4/5 20/11/5 8/12/5
f 9/13/5 21/14/5 11/15/5
f 9/16/2 15/17/2 10/18/2
f 4/19/5 15/17/5 2/2/5
f 1/20/4 13/21/4 3/22/4
f 3/23/6 16/24/6 4/25/6
f 2/26/3 14/27/3 1/28/3
f 10/18/2 16/29/2 12/30/2
f 12/30/2 13/31/2 11/32/2
f 11/32/2 14/33/2 9/16/2
f 18/34/2 23/35/2 19/36/2
f 19/37/2 24/38/2 20/11/2
f 20/39/2 21/40/2 17/41/2
f 17/42/2 22/43/2 18/10/2
f 10/44/6 22/45/6 9/46/6
f 8/12/6 17/41/6 7/5/6
f 5/6/3 19/36/3 6/4/3
f 12/47/4 23/48/4 10/49/4
f 3/1/1 4/19/1 2/2/1
f 6/4/2 8/12/2 7/5/2
f 11/7/3 21/40/3 24/8/3
f 7/5/4 17/42/4 18/10/4
f 6/4/5 19/37/5 20/11/5
f 9/13/5 22/43/5 21/14/5
f 9/16/2 14/33/2 15/17/2
f 4/19/5 16/29/5 15/17/5
f 1/20/4 14/50/4 13/21/4
f 3/23/6 13/51/6 16/24/6
f 2/26/3 15/52/3 14/27/3
f 10/18/2 15/17/2 16/29/2
f 12/30/2 16/29/2 13/31/2
f 11/32/2 13/31/2 14/33/2
f 18/34/2 22/45/2 23/35/2
f 19/37/2 23/48/2 24/38/2
f 20/39/2 24/8/2 21/40/2
f 17/42/2 21/14/2 22/43/2
f 10/44/6 23/35/6 22/45/6
f 8/12/6 20/39/6 17/41/6
f 5/6/3 18/34/3 19/36/3
f 12/47/4 24/38/4 23/48/4
