# Blender v2.79 (sub 0) OBJ File: 'dieselgen.blend'
# www.blender.org
o Engine
v 0.125000 0.125000 0.343750
v 0.125000 0.500000 -0.031250
v 0.125000 0.500000 0.343750
v -0.375000 0.500000 -0.031250
v -0.375000 0.125000 0.343750
v -0.375000 0.500000 0.343750
v 0.125000 0.125000 -0.031250
v -0.375000 0.125000 -0.031250
v -0.500000 0.213063 0.255687
v -0.375000 0.171875 0.156250
v -0.375000 0.213063 0.255687
v 0.375000 0.312500 0.343750
v 0.375000 0.125000 0.156250
v 0.375000 0.312500 -0.031250
v 0.125000 0.312500 -0.031250
v 0.375000 0.179917 0.023668
v 0.125000 0.179917 0.023668
v 0.125000 0.179917 0.288832
v 0.375000 0.179917 0.288832
v 0.125000 0.445083 0.288832
v 0.375000 0.445082 0.288832
v 0.125000 0.445083 0.023667
v 0.375000 0.500000 0.156250
v 0.375000 0.445082 0.023667
v 0.125000 0.125000 0.156250
v 0.125000 0.312500 0.343750
v 0.125000 0.500000 0.156250
v 0.500000 0.312500 0.296875
v 0.500000 0.171875 0.156250
v 0.500000 0.312500 0.015625
v 0.375000 0.312500 0.015625
v 0.500000 0.213063 0.056813
v 0.375000 0.213063 0.056813
v 0.375000 0.213063 0.255687
v 0.500000 0.213063 0.255687
v 0.375000 0.312500 0.296875
v 0.500000 0.411937 0.255687
v 0.375000 0.411937 0.255687
v 0.375000 0.411937 0.056813
v 0.500000 0.453125 0.156250
v 0.500000 0.411937 0.056813
v 0.375000 0.171875 0.156250
v 0.375000 0.453125 0.156250
v -0.500000 0.411937 0.255687
v -0.375000 0.312500 0.296875
v -0.375000 0.411937 0.255687
v -0.500000 0.411937 0.056813
v -0.375000 0.453125 0.156250
v -0.375000 0.411937 0.056813
v -0.500000 0.171875 0.156250
v -0.375000 0.213063 0.056813
v -0.500000 0.312500 0.296875
v -0.500000 0.453125 0.156250
v -0.500000 0.312500 0.015625
v -0.375000 0.312500 0.015625
v -0.500000 0.213063 0.056813
vt 0.400000 0.736842
vt 0.285714 0.894737
vt 0.285714 0.736842
vt 0.421429 0.119901
vt 0.400657 0.104052
vt 0.442200 0.027527
vt 0.987281 0.023430
vt 0.987281 0.134464
vt 0.927005 0.134464
vt 0.400000 0.578947
vt 0.285714 0.578947
vt 0.085714 0.894737
vt 0.200000 0.736842
vt 0.200000 0.894737
vt 0.485714 0.894737
vt 0.400000 0.894737
vt 0.350128 0.119901
vt 0.329320 0.104219
vt 0.370680 0.027360
vt 0.392054 0.065789
vt 0.400657 0.027527
vt 0.421429 0.011678
vt 0.450804 0.065790
vt 0.442200 0.104052
vt 0.914522 0.078947
vt 0.927005 0.023430
vt 0.957143 0.000434
vt 0.999764 0.078947
vt 0.957143 0.157460
vt 0.085714 0.736842
vt 0.485714 0.736842
vt 0.320625 0.066026
vt 0.329138 0.027694
vt 0.349872 0.011678
vt 0.379375 0.065553
vt 0.370862 0.103885
vt 0.114286 1.000000
vt 0.085714 0.894737
vt 0.114286 0.894737
vt 0.514286 0.947368
vt 0.542857 0.894737
vt 0.542857 0.947368
vt 0.600000 0.947368
vt 0.628571 0.894737
vt 0.628571 0.947368
vt 0.514286 0.894737
vt 0.485714 0.947368
vt 0.485714 0.894737
vt 0.714286 0.947368
vt 0.742857 0.894737
vt 0.742857 0.947368
vt 0.400000 0.894737
vt 0.371429 0.947368
vt 0.371429 0.894737
vt 0.457143 0.947368
vt 0.428571 0.894737
vt 0.457143 0.894737
vt 0.142857 1.000000
vt 0.142857 0.894737
vt 0.657143 0.947368
vt 0.685714 0.894737
vt 0.685714 0.947368
vt 0.171429 1.000000
vt 0.200000 0.894737
vt 0.171429 0.894737
vt 0.342857 0.947368
vt 0.314286 0.894737
vt 0.342857 0.894737
vt 0.714286 0.894737
vt 0.285714 0.894737
vt 0.257143 1.000000
vt 0.257143 0.894737
vt 0.057143 1.000000
vt 0.057143 0.894737
vt 0.657143 0.894737
vt 0.571429 0.947368
vt 0.600000 0.894737
vt 0.228571 0.894737
vt 0.200000 1.000000
vt 0.428571 0.947368
vt 0.571429 0.894737
vt 0.314286 0.947368
vt 0.285714 0.894737
vt 0.228571 1.000000
vt 0.085714 1.000000
vt 0.514286 0.894737
vt 0.514286 0.947368
vt 0.400000 0.947368
vt 0.285714 1.000000
vt 0.285714 0.947368
vn 0.0000 0.0000 -1.0000
vn -1.0000 0.0000 0.0000
vn 1.0000 0.0000 0.0000
vn 0.0000 -1.0000 -0.0000
vn 0.0000 -0.0000 1.0000
vn 0.0000 -0.7071 -0.7071
vn 0.0000 -0.7071 0.7071
vn 0.0000 0.7071 0.7071
vn 0.0000 1.0000 -0.0000
vn 0.0000 0.7071 -0.7071
s off
f 8/1/1 2/2/1 7/3/1
f 50/4/2 9/5/2 47/6/2
f 16/7/3 24/8/3 21/9/3
f 5/10/4 7/3/4 1/11/4
f 6/12/5 1/13/5 3/14/5
f 7/3/3 3/14/3 1/13/3
f 8/1/2 6/15/2 4/16/2
f 40/17/3 37/18/3 32/19/3
f 8/1/1 4/16/1 2/2/1
f 9/5/2 52/20/2 44/21/2
f 44/21/2 53/22/2 9/5/2
f 53/22/2 47/6/2 9/5/2
f 47/6/2 54/23/2 56/24/2
f 56/24/2 50/4/2 47/6/2
f 21/9/3 12/25/3 19/26/3
f 19/26/3 13/27/3 21/9/3
f 13/27/3 16/7/3 21/9/3
f 16/7/3 14/28/3 24/8/3
f 24/8/3 23/29/3 21/9/3
f 5/10/4 8/1/4 7/3/4
f 6/12/5 5/30/5 1/13/5
f 7/3/3 2/2/3 3/14/3
f 8/1/2 5/31/2 6/15/2
f 37/18/3 28/32/3 35/33/3
f 35/33/3 29/34/3 37/18/3
f 29/34/3 32/19/3 37/18/3
f 32/19/3 30/35/3 41/36/3
f 41/36/3 40/17/3 32/19/3
s 1
f 14/37/1 17/38/6 15/39/1
f 50/40/4 11/41/7 9/42/7
f 44/43/8 48/44/9 53/45/9
f 42/46/4 35/47/7 34/48/7
f 56/49/6 10/50/4 50/51/4
f 43/52/9 41/53/10 39/54/10
f 28/55/5 38/56/8 36/57/5
f 24/58/10 15/39/1 22/59/10
f 47/60/10 55/61/1 54/62/1
f 22/59/10 23/63/9 24/58/10
f 20/64/8 23/63/9 27/65/9
f 30/66/1 33/67/6 31/68/1
f 54/62/1 51/69/6 56/49/6
f 25/70/4 19/71/7 18/72/7
f 17/38/6 13/73/4 25/74/4
f 53/45/9 49/75/10 47/60/10
f 52/76/5 46/77/8 44/43/8
f 26/78/5 21/79/8 20/64/8
f 37/80/8 43/52/9 38/56/8
f 35/47/7 36/57/5 34/48/7
f 41/53/10 31/68/1 39/54/10
f 9/42/7 45/81/5 52/76/5
f 32/82/6 42/83/4 33/67/6
f 18/72/7 12/84/5 26/78/5
f 14/37/1 16/85/6 17/38/6
f 50/40/4 10/86/4 11/41/7
f 44/43/8 46/77/8 48/44/9
f 42/46/4 29/87/4 35/47/7
f 56/49/6 51/69/6 10/50/4
f 43/52/9 40/88/9 41/53/10
f 28/55/5 37/80/8 38/56/8
f 24/58/10 14/37/1 15/39/1
f 47/60/10 49/75/10 55/61/1
f 22/59/10 27/65/9 23/63/9
f 20/64/8 21/79/8 23/63/9
f 30/66/1 32/82/6 33/67/6
f 54/62/1 55/61/1 51/69/6
f 25/70/4 13/89/4 19/71/7
f 17/38/6 16/85/6 13/73/4
f 53/45/9 48/44/9 49/75/10
f 52/76/5 45/81/5 46/77/8
f 26/78/5 12/84/5 21/79/8
f 37/80/8 40/88/9 43/52/9
f 35/47/7 28/55/5 36/57/5
f 41/53/10 30/66/1 31/68/1
f 9/42/7 11/41/7 45/81/5
f 32/82/6 29/90/4 42/83/4
f 18/72/7 19/71/7 12/84/5
o Generator
v 0.500000 0.062500 -0.500000
v 0.437500 0.937500 -0.500000
v 0.500000 0.937500 -0.500000
v 0.437500 0.937500 0.500000
v 0.500000 0.062500 0.500000
v 0.500000 0.937500 0.500000
v -0.500000 0.062500 0.500000
v -0.437500 0.937500 0.500000
v -0.500000 0.937500 0.500000
v -0.437500 0.937500 -0.500000
v -0.500000 0.062500 -0.500000
v -0.500000 0.937500 -0.500000
v 0.500000 0.062500 0.437500
v -0.437500 0.062500 0.500000
v -0.437500 0.937500 0.437500
v 0.437500 0.937500 0.437500
v 0.437500 0.062500 0.500000
v -0.500000 0.062500 0.437500
v 0.437500 0.062500 -0.500000
v 0.437500 0.937500 -0.437500
v 0.500000 0.062500 -0.437500
v -0.500000 0.062500 -0.437500
v -0.437500 0.937500 -0.437500
v -0.437500 0.062500 -0.500000
v 0.437500 0.062500 -0.437500
v 0.500000 0.937500 -0.437500
v -0.500000 0.937500 -0.437500
v -0.500000 0.937500 0.437500
v 0.500000 0.937500 0.437500
v 0.437500 0.062500 0.437500
v -0.437500 0.062500 -0.437500
v -0.437500 0.062500 0.437500
v -0.437500 -0.000000 0.437500
v 0.437500 -0.000000 0.500000
v 0.437500 0.000000 -0.437500
v -0.437500 0.000000 -0.500000
v 0.437500 0.000000 -0.500000
v -0.437500 0.000000 -0.437500
v -0.437500 -0.000000 0.500000
v 0.437500 -0.000000 0.437500
v 0.437500 1.000000 -0.437500
v -0.437500 1.000000 0.437500
v 0.500000 1.000000 0.437500
v -0.500000 1.000000 -0.437500
v 0.437500 1.000000 0.437500
v -0.500000 1.000000 0.437500
v -0.437500 1.000000 -0.437500
v 0.500000 1.000000 -0.437500
v 0.500000 0.875000 0.312500
v -0.500000 0.875000 -0.312500
v -0.500000 0.875000 0.312500
v 0.500000 0.625000 -0.375000
v 0.500000 0.625000 0.375000
v -0.500000 0.625000 0.375000
v -0.500000 0.625000 -0.375000
v 0.500000 0.875000 -0.312500
v 0.500000 0.625000 -0.437500
v -0.500000 0.625000 0.437500
v 0.500000 0.625000 0.437500
v 0.500000 0.250000 -0.437500
v -0.500000 0.625000 -0.437500
v -0.500000 0.250000 0.437500
v -0.500000 0.250000 0.375000
v 0.500000 0.250000 0.437500
v 0.500000 0.250000 -0.375000
v -0.500000 0.250000 -0.437500
v 0.500000 0.500000 -0.375000
v -0.500000 0.250000 -0.375000
v -0.500000 0.500000 0.375000
v 0.500000 0.250000 0.375000
v 0.500000 0.500000 0.375000
v -0.500000 0.500000 -0.375000
v -0.250000 0.062500 -0.500000
v -0.187500 0.062500 0.500000
v -0.250000 0.062500 0.500000
v -0.187500 0.125000 0.437500
v -0.250000 0.125000 -0.437500
v -0.250000 0.125000 0.437500
v -0.187500 0.062500 -0.500000
v -0.187500 0.125000 -0.437500
v 0.187500 0.062500 -0.500000
v 0.250000 0.062500 0.500000
v 0.187500 0.062500 0.500000
v 0.250000 0.125000 0.437500
v 0.187500 0.125000 -0.437500
v 0.187500 0.125000 0.437500
v 0.250000 0.062500 -0.500000
v 0.250000 0.125000 -0.437500
v 0.125000 0.937500 0.125000
v 0.250000 0.937500 0.000000
v 0.125000 0.937500 -0.125000
v 0.125000 0.875000 -0.125000
v 0.213388 0.937500 -0.088388
v 0.213388 0.875000 -0.088388
v 0.250000 0.875000 0.000000
v 0.213388 0.937500 0.088388
v 0.213388 0.875000 0.088388
v 0.125000 0.875000 0.125000
v 0.036612 0.937500 0.088388
v 0.036612 0.875000 0.088388
v 0.000000 0.875000 0.000000
v 0.036612 0.937500 -0.088388
v 0.036612 0.875000 -0.088388
v 0.000000 0.937500 0.000000
v -0.437500 0.125000 -0.343750
v 0.437500 0.125000 -0.093750
v -0.437500 0.125000 -0.093750
v 0.437500 0.500000 -0.093750
v -0.437500 0.500000 -0.343750
v -0.437500 0.500000 -0.093750
v 0.437500 0.500000 -0.343750
v 0.437500 0.125000 -0.343750
v 0.437500 0.937500 0.187500
v -0.437500 1.000000 0.187500
v 0.437500 1.000000 0.187500
v -0.437500 1.000000 0.250000
v 0.437500 0.937500 0.250000
v 0.437500 1.000000 0.250000
v -0.437500 1.000000 -0.187500
v 0.437500 0.937500 -0.187500
v 0.437500 1.000000 -0.187500
v 0.437500 0.937500 -0.250000
v -0.437500 1.000000 -0.250000
v 0.437500 1.000000 -0.250000
v -0.437500 0.937500 0.250000
v -0.437500 0.937500 0.187500
v -0.437500 0.937500 -0.187500
v -0.437500 0.937500 -0.250000
vt 0.057143 0.394737
vt 0.042857 0.763158
vt 0.042857 0.394737
vt 0.057143 0.394737
vt 0.042857 0.763158
vt 0.042857 0.394737
vt 0.028571 0.368421
vt 0.042857 0.000000
vt 0.042857 0.368421
vt -0.000000 0.000000
vt 0.014286 0.368421
vt -0.000000 0.368421
vt 0.014286 0.000000
vt -0.000000 0.368421
vt -0.000000 0.000000
vt 0.014286 0.763158
vt 0.028571 0.394737
vt 0.028571 0.763158
vt 0.285714 0.657895
vt 0.057143 0.631579
vt 0.285714 0.631579
vt 0.028571 0.394737
vt -0.000000 0.368421
vt 0.014286 0.000000
vt 0.014286 0.368421
vt 0.742857 0.894737
vt 0.685714 0.736842
vt 0.742857 0.736842
vt 0.028571 0.368421
vt 0.014286 0.394737
vt 0.014286 0.368421
vt 0.014286 0.000000
vt -0.000000 0.368421
vt -0.000000 0.000000
vt 0.271429 0.710526
vt 0.285714 0.684211
vt 0.285714 0.710526
vt 0.385714 0.157895
vt 0.471429 0.578947
vt 0.385714 0.578947
vt 0.757143 0.578947
vt 0.671429 0.157895
vt 0.757143 0.157895
vt 0.942857 0.894737
vt 0.942857 0.736842
vt 0.057143 0.000000
vt 0.042857 0.368421
vt 0.042857 0.000000
vt -0.000000 0.000000
vt 0.014286 0.368421
vt -0.000000 0.368421
vt 0.257143 0.526316
vt 0.314286 0.105263
vt 0.314286 0.526316
vt 0.028571 0.000000
vt 0.014286 0.368421
vt 0.014286 0.394737
vt 0.028571 0.368421
vt 0.028571 0.394737
vt 0.014286 0.000000
vt 0.028571 0.000000
vt 0.014286 0.368421
vt 0.014286 0.000000
vt 0.042857 0.368421
vt 0.028571 0.000000
vt 0.042857 0.000000
vt 0.028571 0.394737
vt 0.028571 0.368421
vt 0.257143 0.105263
vt 0.114286 0.526316
vt 0.114286 0.105263
vt -0.000000 0.394737
vt 0.042857 0.394737
vt 0.028571 0.368421
vt 0.042857 0.368421
vt 0.057143 0.000000
vt 0.057143 0.368421
vt -0.000000 0.368421
vt -0.000000 0.394737
vt 0.042857 0.368421
vt 0.042857 0.394737
vt 0.028571 0.000000
vt 0.014286 0.368421
vt 0.014286 0.000000
vt 0.042857 0.368421
vt 0.042857 0.394737
vt -0.000000 0.394737
vt 0.042857 0.000000
vt 0.014286 0.368421
vt -0.000000 0.394737
vt 0.042857 0.394737
vt 0.028571 0.368421
vt 0.028571 0.394737
vt 0.014286 0.394737
vt 0.042857 0.394737
vt -0.000000 0.368421
vt -0.000000 0.394737
vt 0.042857 0.394737
vt -0.000000 0.394737
vt 0.028571 0.368421
vt 0.042857 0.000000
vt 0.042857 0.368421
vt -0.000000 0.394737
vt 0.042857 0.394737
vt 0.028571 0.368421
vt 0.042857 0.000000
vt 0.042857 0.368421
vt -0.000000 0.368421
vt -0.000000 0.394737
vt 0.042857 0.394737
vt 0.100000 0.000000
vt 0.271429 0.000000
vt 0.371429 0.157895
vt 0.371429 0.578947
vt 0.057143 0.000000
vt 0.042857 0.000000
vt 0.057143 0.000000
vt 0.057143 0.368421
vt 0.028571 0.394737
vt 0.014286 0.394737
vt 0.014286 0.394737
vt 0.028571 0.394737
vt 0.057143 0.368421
vt 0.057143 0.000000
vt 0.028571 0.000000
vt -0.000000 0.763158
vt 0.014286 0.394737
vt 0.014286 0.763158
vt 0.271429 0.684211
vt 0.057143 0.657895
vt 0.771429 0.578947
vt 0.771429 0.157895
vt -0.000000 0.000000
vt 0.828571 0.578947
vt 1.000000 0.157895
vt 1.000000 0.578947
vt 0.014286 0.000000
vt 0.028571 0.000000
vt 0.014286 0.000000
vt 0.057143 0.368421
vt 0.271429 0.631579
vt 0.100000 0.631579
vt 0.057143 0.368421
vt 0.057143 0.000000
vt 0.028571 0.394737
vt 0.014286 0.394737
vt -0.000000 0.763158
vt 0.014286 0.394737
vt 0.828571 0.157895
vt 0.028571 0.000000
vt 0.271429 0.684211
vt 0.071429 0.710526
vt 0.071429 0.684211
vt 0.057143 0.526316
vt 0.057143 0.105263
vt -0.000000 0.000000
vt 0.057143 0.710526
vt 0.057143 0.684211
vt 0.285714 0.657895
vt 0.057143 0.631579
vt 0.285714 0.631579
vt 0.057143 0.000000
vt 0.057143 0.368421
vt 0.057143 0.657895
vt 0.071429 0.684211
vt 0.057143 0.710526
vt 0.057143 0.684211
vt 0.285714 0.736842
vt 0.057143 0.736842
vt 0.071429 0.710526
vt 0.471429 0.736842
vt 0.485714 0.631579
vt 0.485714 0.736842
vt 0.271429 0.710526
vt 0.285714 0.684211
vt 0.285714 0.710526
vt 1.000000 0.894737
vt 1.000000 0.736842
vt 0.014286 0.394737
vt 0.028571 0.394737
vt 0.942857 0.631579
vt 0.042857 0.000000
vt 0.685714 0.894737
vt 0.485714 0.736842
vt 0.314286 0.157895
vt 0.314286 0.578947
vt 0.671429 0.000000
vt 0.657143 0.105263
vt 0.657143 0.000000
vt 0.285714 0.736842
vt 0.057143 0.736842
vt 0.471429 0.000000
vt 0.485714 0.105263
vt 0.471429 0.157895
vt 0.720149 0.116064
vt 0.679851 0.116065
vt 0.679851 0.041831
vt 0.028571 0.763158
vt 0.671429 0.736842
vt 0.657143 0.631579
vt 0.671429 0.578947
vt 0.057143 0.763158
vt 0.057143 0.763158
vt -0.000000 0.000000
vt 0.028571 0.394737
vt 0.057143 0.368421
vt 0.028571 0.000000
vt 0.014286 0.394737
vt 0.057143 0.368421
vt -0.000000 0.394737
vt 0.057143 0.000000
vt -0.000000 0.394737
vt -0.000000 0.000000
vt 0.742857 0.631579
vt 0.485714 0.894737
vt 0.485714 0.000000
vt 0.700000 0.026456
vt 0.720149 0.041830
vt 0.728495 0.078947
vt 0.700000 0.131439
vt 0.671505 0.078948
vt 0.657143 0.736842
vt 0.900000 0.026316
vt 0.871429 0.000000
vt 0.900000 0.000000
vt 0.785714 0.026316
vt 0.757143 0.000000
vt 0.785714 0.000000
vt 0.842857 0.026316
vt 0.842857 0.000000
vt 0.814286 0.000000
vt 0.728571 0.026316
vt 0.700000 0.000000
vt 0.728571 0.000000
vt 0.700000 0.026316
vt 0.671429 0.000000
vt 0.814286 0.026316
vt 0.757143 0.026316
vt 0.871429 0.026316
vt 0.671429 0.026316
vn 0.0000 -1.0000 0.0000
vn 0.0000 0.0000 1.0000
vn -1.0000 0.0000 0.0000
vn 0.0000 1.0000 0.0000
vn 0.0000 0.0000 -1.0000
vn 1.0000 0.0000 0.0000
vn 0.0000 0.7071 0.7071
vn 0.0000 0.7071 -0.7071
vn 0.0000 0.2425 -0.9701
vn -0.7071 -0.7071 -0.0000
vn 0.7071 -0.7071 -0.0000
vn 0.0000 0.2425 0.9701
vn -0.7071 0.0000 -0.7071
vn 0.7071 0.0000 0.7071
vn 0.7071 0.0000 -0.7071
vn -0.7071 -0.0000 0.7071
s off
f 173/91/11 182/92/11 169/93/11
f 176/94/11 184/95/11 178/96/11
f 94/97/12 81/98/12 87/99/12
f 86/100/13 60/101/13 72/102/13
f 101/103/13 76/104/13 72/105/13
f 172/106/14 171/107/14 170/108/14
f 143/109/11 139/110/11 137/111/11
f 184/95/15 180/112/15 178/96/15
f 70/113/12 65/114/12 63/115/12
f 167/116/16 162/117/16 168/118/16
f 102/119/17 64/120/17 98/121/17
f 95/122/12 73/123/12 70/124/12
f 133/125/18 135/126/18 129/127/18
f 120/128/12 114/129/12 118/130/12
f 122/131/15 113/132/15 116/133/15
f 165/134/15 168/118/15 161/135/15
f 72/136/11 82/137/11 85/138/11
f 87/139/16 66/140/16 79/141/16
f 106/142/19 108/143/19 111/144/19
f 89/145/11 90/146/11 95/122/11
f 95/147/20 74/148/20 89/149/20
f 103/150/14 102/119/14 98/121/14
f 82/151/16 57/152/16 59/153/16
f 85/154/16 61/155/16 69/156/16
f 100/157/18 66/140/18 68/158/18
f 112/159/14 107/160/14 105/161/14
f 60/101/13 101/162/13 72/102/13
f 85/154/16 99/163/16 62/164/16
f 88/165/16 64/166/16 70/167/16
f 71/168/16 98/121/16 64/169/16
f 84/170/13 65/171/13 102/119/13
f 91/172/11 92/173/11 93/174/11
f 83/175/13 100/176/13 68/158/13
f 66/140/16 103/177/16 79/141/16
f 102/119/13 83/178/13 84/170/13
f 76/104/13 97/179/13 58/180/13
f 82/137/16 59/181/16 104/182/16
f 97/179/18 59/183/18 58/184/18
f 87/99/12 78/185/12 94/97/12
f 80/186/15 92/173/15 67/187/15
f 88/165/15 89/188/15 74/148/15
f 70/113/12 63/115/12 95/189/12
f 96/190/15 88/191/15 86/192/15
f 73/123/12 90/146/12 61/193/12
f 69/194/15 96/190/15 86/192/15
f 77/195/12 76/196/12 81/197/12
f 75/198/15 57/152/15 93/199/15
f 81/197/12 91/200/12 77/195/12
f 112/159/16 109/201/16 108/202/16
f 126/203/11 118/130/11 119/204/11
f 87/205/12 83/175/12 78/206/12
f 81/197/13 58/207/13 75/208/13
f 90/146/21 69/209/21 61/210/21
f 101/211/17 62/164/17 99/212/17
f 73/213/14 88/191/14 70/214/14
f 84/215/13 63/115/13 65/114/13
f 183/216/12 177/217/12 175/218/12
f 144/219/16 138/220/16 143/109/16
f 124/221/11 116/133/11 121/222/11
f 103/150/16 71/168/16 79/223/16
f 128/224/11 127/225/11 125/226/11
f 73/227/12 62/164/12 60/101/12
f 83/175/13 67/228/13 78/206/13
f 80/229/15 68/158/15 66/140/15
f 69/156/15 72/230/15 85/154/15
f 107/160/13 111/231/13 110/232/13
f 80/233/14 81/98/14 75/234/14
f 92/173/20 78/235/20 67/236/20
f 181/237/12 174/238/12 172/106/12
f 128/224/12 121/222/12 123/239/12
f 104/182/14 101/103/14 99/240/14
f 75/198/15 59/153/15 57/152/15
f 182/92/15 171/107/15 169/93/15
f 136/241/14 134/242/14 132/243/14
f 105/161/22 110/244/22 109/245/22
f 93/174/15 80/186/15 75/246/15
f 132/243/17 131/247/17 130/248/17
f 135/249/11 131/250/11 129/251/11
f 84/170/11 79/252/11 71/253/11
f 136/241/16 130/254/16 135/249/16
f 140/255/17 139/256/17 138/257/17
f 134/242/13 129/258/13 131/259/13
f 144/219/14 142/260/14 140/255/14
f 104/182/16 85/138/16 82/137/16
f 118/261/13 125/262/13 119/263/13
f 141/264/18 143/265/18 137/266/18
f 166/267/13 161/135/13 163/268/13
f 93/269/21 77/195/21 91/270/21
f 168/118/11 163/271/11 161/135/11
f 88/165/15 84/215/15 71/272/15
f 164/273/12 163/274/12 162/117/12
f 127/275/15 119/204/15 125/276/15
f 116/277/16 123/278/16 121/279/16
f 142/260/13 137/280/13 139/281/13
f 120/282/16 127/283/16 115/284/16
f 158/285/14 155/286/14 152/287/14
f 175/218/14 180/112/14 179/288/14
f 122/289/13 128/290/13 117/291/13
f 113/132/16 127/283/16 123/278/16
f 117/291/14 115/284/14 113/132/14
f 114/129/13 128/290/13 125/262/13
f 173/91/11 181/292/11 182/92/11
f 176/94/11 183/293/11 184/95/11
f 94/97/12 91/172/12 81/98/12
f 86/100/13 73/227/13 60/101/13
f 101/103/13 97/179/13 76/104/13
f 172/106/14 174/238/14 171/107/14
f 143/109/11 138/220/11 139/110/11
f 184/95/15 179/288/15 180/112/15
f 70/113/12 64/294/12 65/114/12
f 167/116/16 164/273/16 162/117/16
f 102/119/17 65/295/17 64/120/17
f 95/122/12 90/146/12 73/123/12
f 133/125/18 136/241/18 135/126/18
f 120/128/12 115/284/12 114/129/12
f 122/131/15 117/291/15 113/132/15
f 165/134/15 167/116/15 168/118/15
f 72/136/11 76/296/11 82/137/11
f 87/139/16 80/229/16 66/140/16
f 106/142/19 112/159/19 108/143/19
f 89/145/11 96/190/11 90/146/11
f 95/147/20 63/115/20 74/148/20
f 103/150/14 100/297/14 102/119/14
f 82/151/16 77/195/16 57/152/16
f 85/154/16 62/164/16 61/155/16
f 100/157/18 103/298/18 66/140/18
f 112/159/14 106/142/14 107/160/14
f 88/165/16 71/272/16 64/166/16
f 91/172/11 94/97/11 92/173/11
f 102/119/13 100/297/13 83/178/13
f 97/179/18 104/182/18 59/183/18
f 96/190/15 89/145/15 88/191/15
f 77/195/12 82/151/12 76/196/12
f 112/159/16 105/161/16 109/201/16
f 126/203/11 120/128/11 118/130/11
f 87/205/12 79/299/12 83/175/12
f 81/197/13 76/196/13 58/207/13
f 90/146/21 96/190/21 69/209/21
f 101/211/17 60/101/17 62/164/17
f 73/213/14 86/192/14 88/191/14
f 84/215/13 74/148/13 63/115/13
f 183/216/12 176/300/12 177/217/12
f 144/219/16 140/255/16 138/220/16
f 124/221/11 122/131/11 116/133/11
f 103/150/16 98/121/16 71/168/16
f 128/224/11 123/239/11 127/225/11
f 73/227/12 61/155/12 62/164/12
f 83/175/13 68/158/13 67/228/13
f 80/229/15 67/228/15 68/158/15
f 69/156/15 86/301/15 72/230/15
f 107/160/13 106/142/13 111/231/13
f 80/233/14 87/99/14 81/98/14
f 92/173/20 94/97/20 78/235/20
f 181/237/12 173/302/12 174/238/12
f 128/224/12 124/221/12 121/222/12
f 104/182/14 97/179/14 101/103/14
f 75/198/15 58/303/15 59/153/15
f 182/92/15 170/108/15 171/107/15
f 136/241/14 133/125/14 134/242/14
f 105/161/22 107/160/22 110/244/22
f 93/174/15 92/173/15 80/186/15
f 132/243/17 134/242/17 131/247/17
f 135/249/11 130/254/11 131/250/11
f 84/170/11 83/178/11 79/252/11
f 136/241/16 132/243/16 130/254/16
f 140/255/17 142/260/17 139/256/17
f 134/242/13 133/125/13 129/258/13
f 144/219/14 141/264/14 142/260/14
f 104/182/16 99/240/16 85/138/16
f 118/261/13 114/129/13 125/262/13
f 141/264/18 144/219/18 143/265/18
f 166/267/13 165/134/13 161/135/13
f 93/269/21 57/152/21 77/195/21
f 168/118/11 162/304/11 163/271/11
f 88/165/15 74/148/15 84/215/15
f 164/273/12 166/305/12 163/274/12
f 127/275/15 126/203/15 119/204/15
f 116/277/16 113/132/16 123/278/16
f 142/260/13 141/264/13 137/280/13
f 120/282/16 126/306/16 127/283/16
f 152/287/14 146/307/14 149/308/14
f 149/308/14 147/309/14 158/285/14
f 158/285/14 160/310/14 155/286/14
f 155/286/14 145/311/14 152/287/14
f 152/287/14 149/308/14 158/285/14
f 175/218/14 177/217/14 180/112/14
f 122/289/13 124/312/13 128/290/13
f 113/132/16 115/284/16 127/283/16
f 117/291/14 114/129/14 115/284/14
f 114/129/13 117/291/13 128/290/13
s 1
f 160/313/13 159/314/23 157/315/13
f 146/316/16 153/317/24 151/318/16
f 159/314/23 147/319/15 148/320/15
f 147/319/15 150/321/25 148/320/15
f 145/322/12 156/323/26 154/324/12
f 155/325/26 157/326/13 156/323/26
f 149/327/25 151/318/16 150/321/25
f 152/328/24 154/324/12 153/317/24
f 160/313/13 158/329/23 159/314/23
f 146/316/16 152/328/24 153/317/24
f 159/314/23 158/329/23 147/319/15
f 147/319/15 149/327/25 150/321/25
f 145/322/12 155/325/26 156/323/26
f 155/325/26 160/330/13 157/326/13
f 149/327/25 146/316/16 151/318/16
f 152/328/24 145/322/12 154/324/12
