# Blender 4.0.1
# www.blender.org
o Drive
v 0.356694 0.856694 -1.312500
v 0.294194 0.919194 -1.312500
v 0.356694 0.856694 -0.937500
v 0.294194 0.919194 -0.937500
v 0.445083 0.945082 -1.312500
v 0.382583 1.007583 -1.312500
v 0.445083 0.945083 -0.937500
v 0.382583 1.007583 -0.937500
vn 0.7071 0.7071 -0.0000
vn 0.7071 -0.7071 -0.0000
vn -0.0000 -0.0000 -1.0000
vn -0.7071 0.7071 -0.0000
vn -0.0000 -0.0000 1.0000
vt 0.312500 0.906250
vt 0.218750 0.921875
vt 0.218750 0.906250
vt 0.312500 0.875000
vt 0.218750 0.921875
vt 0.187500 0.906250
vt 0.218750 0.906250
vt 0.218750 0.875000
vt 0.187500 0.921875
vt 0.312500 0.921875
s 0
f 5/1/1 8/2/1 7/3/1
f 7/3/2 1/4/2 5/1/2
f 5/5/3 2/6/3 6/7/3
f 6/1/4 4/8/4 8/3/4
f 7/7/5 4/9/5 3/6/5
f 5/1/1 6/10/1 8/2/1
f 7/3/2 3/8/2 1/4/2
f 5/5/3 1/9/3 2/6/3
f 6/1/4 2/4/4 4/8/4
f 7/7/5 8/5/5 4/9/5
o Base
v 0.125000 1.000000 0.500000
v -0.500000 1.000000 0.500000
v -0.500000 0.000000 0.500000
v 0.500000 0.000000 0.500000
v 0.500000 0.625000 0.250000
v 0.500000 0.625000 0.500000
v 0.125000 1.000000 0.250000
v 0.125000 0.625000 0.250000
v 0.125000 0.625000 -0.625000
v 0.500000 0.625000 -0.625000
v 0.125000 1.000000 -0.625000
v 0.500000 0.625000 -1.500000
v 0.125000 1.000000 -1.500000
v 0.500000 -0.000000 -1.500000
v -0.500000 -0.000000 -1.500000
v -0.500000 1.000000 -1.500000
v 0.062500 1.500000 -0.937500
v 0.062500 1.500000 -1.437500
v 0.062500 1.000000 -0.937500
v 0.062500 1.000000 -1.437500
v -0.312500 1.500000 -0.937500
v -0.312500 1.500000 -1.437500
v -0.312500 1.000000 -0.937500
v -0.312500 1.000000 -1.437500
v -0.312500 1.437500 -1.000000
v -0.312500 1.437500 -1.375000
v -0.312500 1.062500 -1.000000
v -0.312500 1.062500 -1.375000
v -0.437500 1.437500 -1.000000
v -0.437500 1.437500 -1.375000
v -0.437500 1.062500 -1.000000
v -0.437500 1.062500 -1.375000
v 0.125000 1.500000 0.250000
v 0.125000 1.500000 -0.625000
v 0.125000 1.000000 0.250000
v 0.125000 1.000000 -0.625000
v -0.250000 1.500000 0.250000
v -0.250000 1.500000 -0.625000
v -0.250000 1.000000 0.250000
v -0.250000 1.000000 -0.625000
v -0.250000 1.437500 0.187500
v -0.250000 1.437500 -0.562500
v -0.250000 1.000000 0.187500
v -0.250000 1.000000 -0.562500
v -0.312500 1.437500 0.187500
v -0.312500 1.437500 -0.562500
v -0.312500 1.000000 0.187500
v -0.312500 1.000000 -0.562500
v -0.312500 1.125000 -0.312500
v -0.312500 1.125000 -0.375000
v -0.312500 1.000000 -0.312500
v -0.312500 1.000000 -0.375000
v -0.375000 1.125000 -0.312500
v -0.375000 1.125000 -0.375000
v -0.312500 1.062500 -0.312500
v -0.375000 1.062500 -0.312500
v -0.375000 1.062500 -0.375000
v -0.312500 1.062500 -0.375000
v -0.500000 1.000000 -0.312500
v -0.500000 1.062500 -0.312500
v -0.500000 1.062500 -0.375000
v -0.437500 1.062500 -0.375000
v -0.437500 1.000000 -0.375000
v -0.500000 1.062500 -1.062500
v -0.437500 1.062500 -1.062500
v -0.500000 1.000000 -1.062500
v -0.437500 1.062500 -1.125000
v -0.437500 1.000000 -1.125000
v -0.500000 1.000000 -1.125000
v -0.437500 1.187500 -1.125000
v -0.500000 1.187500 -1.125000
v -0.500000 1.187500 -1.062500
v -0.437500 1.187500 -1.062500
v 0.375000 0.750000 -0.875000
v 0.187500 0.937500 -0.875000
v 0.375000 0.750000 -1.375000
v 0.187500 0.937500 -1.375000
v 0.419194 0.794194 -1.375000
v 0.231694 0.981694 -1.375000
v 0.419194 0.794194 -0.875000
v 0.231694 0.981694 -0.875000
vn -0.0000 -0.0000 -1.0000
vn -0.0000 -0.0000 1.0000
vn 0.7071 0.7071 -0.0000
vn -0.0000 1.0000 -0.0000
vn 1.0000 -0.0000 -0.0000
vn -0.0000 -1.0000 -0.0000
vn -1.0000 -0.0000 -0.0000
vn 0.7071 -0.7071 -0.0000
vn -0.7071 0.7071 -0.0000
vt 0.687500 0.500000
vt 0.687500 0.593750
vt 0.593750 0.500000
vt 0.500000 0.500000
vt 0.500000 0.593750
vt 0.500000 0.156250
vt 0.281250 0.250000
vt 0.281250 0.156250
vt 0.000000 0.250000
vt 0.062500 0.156250
vt 0.062500 0.250000
vt 1.000000 0.343750
vt 1.000000 0.500000
vt 0.750000 0.156250
vt 1.000000 0.250000
vt 0.843750 0.250000
vt 0.750000 0.000000
vt 1.000000 0.000000
vt 0.656250 0.250000
vt 0.500000 0.250000
vt 0.500000 0.000000
vt 0.000000 0.156250
vt 0.000000 0.000000
vt 0.000000 0.750000
vt 0.000000 0.500000
vt 0.812500 0.250000
vt 0.593750 0.343750
vt 0.593750 0.250000
vt 0.000000 0.875000
vt 0.125000 0.750000
vt 0.125000 0.875000
vt 0.109375 0.984375
vt 0.015625 0.890625
vt 0.109375 0.890625
vt 0.218750 0.750000
vt 0.218750 0.875000
vt 0.125000 1.000000
vt 0.000000 1.000000
vt 0.015625 0.984375
vt 0.093750 0.890625
vt 0.125000 0.984375
vt 0.093750 0.984375
vt 0.109375 0.968750
vt 0.015625 1.000000
vt 0.015625 0.968750
vt 0.031250 0.984375
vt 0.000000 0.890625
vt 0.031250 0.890625
vt 0.015625 0.906250
vt 0.109375 0.875000
vt 0.109375 0.906250
vt 0.531250 0.875000
vt 0.750000 0.750000
vt 0.750000 0.875000
vt 0.515625 0.859375
vt 0.328125 0.750000
vt 0.515625 0.750000
vt 0.531250 0.968750
vt 0.312500 0.875000
vt 0.312500 0.750000
vt 0.531250 0.750000
vt 0.328125 0.859375
vt 0.500000 0.750000
vt 0.500000 0.859375
vt 0.328125 0.843750
vt 0.343750 0.859375
vt 0.343750 0.750000
vt 0.734375 0.906250
vt 0.718750 0.921875
vt 0.718750 0.906250
vt 0.734375 0.921875
vt 0.703125 0.906250
vt 0.734375 0.890625
vt 0.703125 0.890625
vt 0.687500 0.890625
vt 0.687500 0.906250
vt 0.671875 0.890625
vt 0.687500 0.921875
vt 0.671875 0.921875
vt 0.546875 0.875000
vt 0.718750 0.890625
vt 0.546875 0.890625
vt 0.531250 0.921875
vt 0.546875 0.906250
vt 0.546875 0.921875
vt 0.468750 0.187500
vt 0.343750 0.234375
vt 0.343750 0.187500
vt 0.703125 0.515625
vt 0.828125 0.500000
vt 0.828125 0.515625
vt 0.703125 0.546875
vt 0.687500 0.546875
vt 0.703125 0.500000
vt 0.500000 0.343750
vt 0.812500 0.343750
vt 0.125000 0.890625
vt 0.109375 1.000000
vt 0.000000 0.984375
vt 0.015625 0.875000
vt 0.312500 0.968750
vt 0.515625 0.843750
vt 0.718750 0.875000
vt 0.734375 0.875000
vt 0.531250 0.906250
vt 0.531250 0.890625
vt 0.468750 0.234375
vt 0.703125 0.500000
s 0
f 16/11/6 15/12/6 13/13/6
f 17/14/7 18/13/7 19/15/7
f 20/16/8 19/17/8 18/18/8
f 9/19/8 13/20/8 15/21/8
f 10/14/9 21/22/9 24/23/9
f 20/24/6 24/25/6 21/26/6
f 22/27/6 23/28/6 24/25/6
f 9/29/7 12/27/7 14/24/7
f 12/27/7 10/30/7 11/31/7
f 22/31/10 14/32/10 12/33/10
f 23/14/11 12/34/11 11/35/11
f 11/30/12 24/35/12 23/19/12
f 15/21/10 17/18/10 19/17/10
f 18/36/9 16/37/9 13/38/9
f 25/39/10 28/40/10 26/41/10
f 37/42/12 40/43/12 39/44/12
f 25/45/9 30/41/9 29/40/9
f 25/46/7 31/40/7 27/45/7
f 26/41/6 32/45/6 30/46/6
f 35/44/12 29/47/12 33/42/12
f 33/42/12 30/48/12 34/49/12
f 34/49/12 32/39/12 36/43/12
f 36/43/12 31/41/12 35/44/12
f 39/50/7 33/51/7 37/52/7
f 37/53/9 34/54/9 38/55/9
f 38/56/6 36/57/6 40/58/6
f 40/59/11 35/60/11 39/61/11
f 41/62/10 44/63/10 42/64/10
f 53/65/12 56/66/12 55/67/12
f 41/68/9 46/69/9 45/62/9
f 41/69/7 47/45/7 43/70/7
f 42/46/6 48/70/6 46/69/6
f 49/65/12 47/71/12 45/62/12
f 49/65/12 46/69/12 50/72/12
f 50/72/12 48/70/12 52/66/12
f 55/73/7 49/65/7 53/74/7
f 53/65/9 50/75/9 54/72/9
f 54/76/6 52/66/6 56/77/6
f 57/78/9 62/79/9 61/80/9
f 64/80/7 57/81/7 61/79/7
f 66/80/6 62/81/6 58/79/6
f 65/80/12 61/81/12 62/79/12
f 70/82/6 60/83/6 71/84/6
f 67/85/7 63/78/7 68/86/7
f 69/87/9 64/88/9 65/89/9
f 72/90/9 70/91/9 73/92/9
f 74/90/12 68/83/12 72/92/12
f 79/93/9 81/94/9 78/95/9
f 78/93/6 77/90/6 79/95/6
f 79/93/12 74/90/12 80/95/12
f 80/93/7 73/92/7 81/95/7
f 71/90/10 75/83/10 70/92/10
f 86/96/8 89/97/8 88/98/8
f 88/99/13 84/100/13 86/101/13
f 87/102/6 84/11/6 85/103/6
f 87/99/14 83/100/14 89/101/14
f 89/102/7 82/11/7 88/104/7
f 20/16/8 21/30/8 19/17/8
f 9/19/8 14/32/8 13/20/8
f 10/14/9 9/105/9 21/22/9
f 20/24/6 22/27/6 24/25/6
f 9/29/7 10/30/7 12/27/7
f 22/31/10 20/16/10 14/32/10
f 23/14/11 22/73/11 12/34/11
f 11/30/12 10/14/12 24/35/12
f 15/21/10 16/20/10 17/18/10
f 18/36/9 17/106/9 16/37/9
f 25/39/10 27/34/10 28/40/10
f 37/42/12 38/49/12 40/43/12
f 25/45/9 26/46/9 30/41/9
f 25/46/7 29/41/7 31/40/7
f 26/41/6 28/40/6 32/45/6
f 35/44/12 31/41/12 29/47/12
f 33/42/12 29/47/12 30/48/12
f 34/49/12 30/48/12 32/39/12
f 36/43/12 32/39/12 31/41/12
f 39/50/7 35/107/7 33/51/7
f 37/53/9 33/108/9 34/54/9
f 38/56/6 34/109/6 36/57/6
f 40/59/11 36/110/11 35/60/11
f 41/62/10 43/71/10 44/63/10
f 53/65/12 54/72/12 56/66/12
f 41/68/9 42/111/9 46/69/9
f 41/69/7 45/46/7 47/45/7
f 42/46/6 44/45/6 48/70/6
f 49/65/12 51/67/12 47/71/12
f 49/65/12 45/62/12 46/69/12
f 50/72/12 46/69/12 48/70/12
f 55/73/7 51/67/7 49/65/7
f 53/65/9 49/112/9 50/75/9
f 54/76/6 50/72/6 52/66/6
f 57/78/9 58/81/9 62/79/9
f 64/80/7 63/78/7 57/81/7
f 66/80/6 65/78/6 62/81/6
f 65/80/12 64/78/12 61/81/12
f 70/82/6 66/78/6 60/83/6
f 67/85/7 59/83/7 63/78/7
f 69/87/9 68/85/9 64/88/9
f 72/90/9 69/113/9 70/91/9
f 74/90/12 67/114/12 68/83/12
f 79/93/9 80/115/9 81/94/9
f 78/93/6 76/62/6 77/90/6
f 79/93/12 77/62/12 74/90/12
f 80/93/7 72/116/7 73/92/7
f 71/90/10 76/114/10 75/83/10
f 86/96/8 87/117/8 89/97/8
f 88/99/13 82/118/13 84/100/13
f 87/102/6 86/104/6 84/11/6
f 87/99/14 85/118/14 83/100/14
f 89/102/7 83/103/7 82/11/7
