# Blender 5.2.0 LTS
# www.blender.org
o Piston
v 0.187500 1.875000 -0.187500
v 0.250000 1.875000 0.250000
v 0.250000 1.875000 -0.250000
v -0.250000 1.750000 -0.250000
v 0.250000 1.750000 0.250000
v -0.250000 1.750000 0.250000
v 0.250000 1.750000 -0.250000
v -0.250000 1.875000 -0.250000
v -0.250000 1.875000 0.250000
v -0.187500 2.625000 -0.187500
v -0.187500 1.875000 -0.187500
v 0.187500 2.625000 0.187500
v -0.187500 1.875000 0.187500
v 0.187500 1.875000 0.187500
v 0.187500 2.625000 -0.187500
v -0.187500 2.625000 0.187500
vn -0.0000 1.0000 -0.0000
vn -0.0000 -1.0000 -0.0000
vn 1.0000 -0.0000 -0.0000
vn -1.0000 -0.0000 -0.0000
vn -0.0000 -0.0000 -1.0000
vn -0.0000 -0.0000 1.0000
vt 0.553571 0.528846
vt 0.428571 0.519231
vt 0.571429 0.519231
vt 0.571429 0.423077
vt 0.428571 0.500000
vt 0.428571 0.423077
vt 0.571429 0.500000
vt 0.553571 0.644231
vt 0.446429 0.528846
vt 0.446429 0.644231
s 1
usemtl m_7d0978c5-6ddf-d119-1f84-bec3baf6f6b0
f 1/1/1 2/2/1 3/3/1
f 4/4/2 5/5/2 6/6/2
f 2/2/3 7/7/3 3/3/3
f 8/2/4 6/7/4 9/3/4
f 3/2/5 4/7/5 8/3/5
f 9/2/6 5/7/6 2/3/6
f 10/8/5 1/9/5 11/1/5
f 12/8/6 13/9/6 14/1/6
f 15/8/3 14/9/3 1/1/3
f 16/8/4 11/9/4 13/1/4
f 11/1/1 3/2/1 8/3/1
f 13/1/1 8/2/1 9/3/1
f 14/1/1 9/2/1 2/3/1
f 1/1/1 14/9/1 2/2/1
f 4/4/2 7/7/2 5/5/2
f 2/2/3 5/5/3 7/7/3
f 8/2/4 4/5/4 6/7/4
f 3/2/5 7/5/5 4/7/5
f 9/2/6 6/5/6 5/7/6
f 10/8/5 15/10/5 1/9/5
f 12/8/6 16/10/6 13/9/6
f 15/8/3 12/10/3 14/9/3
f 16/8/4 10/10/4 11/9/4
f 11/1/1 1/9/1 3/2/1
f 13/1/1 11/9/1 8/2/1
f 14/1/1 13/9/1 9/2/1
o Press
v -0.500000 0.000000 0.500000
v -0.375000 0.875000 0.500000
v -0.500000 1.000000 0.500000
v -0.500000 -0.000000 -0.500000
v -0.500000 0.875000 -0.375000
v -0.500000 1.000000 -0.500000
v -0.375000 0.875000 -0.500000
v -0.375000 -0.000000 -0.500000
v 0.500000 -0.000000 -0.500000
v 0.375000 0.875000 -0.500000
v 0.500000 1.000000 -0.500000
v -0.500000 0.875000 0.375000
v 0.500000 0.000000 0.500000
v 0.375000 0.875000 0.500000
v 0.375000 0.000000 0.500000
v 0.500000 0.875000 0.375000
v 0.500000 1.000000 0.500000
v 0.500000 0.875000 -0.375000
v 0.500000 -0.000000 -0.375000
v -0.437500 0.875000 0.375000
v -0.437500 -0.000000 -0.375000
v -0.437500 0.000000 0.375000
v -0.500000 0.000000 0.375000
v -0.437500 0.875000 -0.375000
v -0.500000 -0.000000 -0.375000
v 0.375000 0.875000 0.437500
v -0.375000 0.000000 0.437500
v 0.375000 0.000000 0.437500
v -0.375000 0.000000 0.500000
v -0.375000 0.875000 0.437500
v 0.437500 -0.000000 -0.375000
v 0.437500 0.875000 0.375000
v 0.437500 0.000000 0.375000
v 0.500000 0.000000 0.375000
v 0.437500 0.875000 -0.375000
v -0.375000 -0.000000 -0.437500
v 0.375000 0.875000 -0.437500
v 0.375000 -0.000000 -0.437500
v -0.375000 0.875000 -0.437500
v 0.375000 -0.000000 -0.500000
v -0.375000 1.750000 0.375000
v 0.250000 1.750000 0.250000
v 0.375000 1.750000 0.375000
v 0.375000 2.750000 0.375000
v -0.375000 2.750000 -0.375000
v -0.375000 2.750000 0.375000
v 0.375000 1.750000 -0.375000
v -0.375000 1.750000 -0.375000
v 0.375000 2.750000 -0.375000
v 0.250000 1.750000 -0.250000
v -0.250000 1.875000 -0.250000
v -0.250000 1.750000 -0.250000
v -0.250000 1.750000 0.250000
v 0.250000 1.875000 0.250000
v -0.250000 1.875000 0.250000
v 0.250000 1.875000 -0.250000
v 0.750000 0.000000 0.375000
v 0.625000 0.000000 0.500000
v 0.625000 0.000000 0.375000
v -0.750000 2.000000 0.375000
v -0.500000 2.125000 0.375000
v -0.625000 2.000000 0.375000
v 0.750000 0.000000 0.500000
v 0.625000 2.000000 0.500000
v 0.750000 2.000000 0.500000
v 0.750000 2.000000 0.375000
v 0.625000 2.000000 0.375000
v -0.500000 2.125000 0.500000
v -0.625000 2.000000 0.500000
v -0.625000 0.000000 0.375000
v -0.750000 0.000000 0.500000
v -0.750000 0.000000 0.375000
v 0.500000 2.250000 0.500000
v -0.625000 0.000000 0.500000
v -0.750000 2.000000 0.500000
v 0.500000 2.125000 0.375000
v -0.500000 2.250000 0.375000
v 0.500000 2.250000 0.375000
v -0.500000 2.250000 0.500000
v 0.500000 2.125000 0.500000
v 0.750000 -0.000000 -0.500000
v 0.625000 -0.000000 -0.375000
v 0.625000 -0.000000 -0.500000
v -0.750000 2.000000 -0.500000
v -0.500000 2.125000 -0.500000
v -0.625000 2.000000 -0.500000
v 0.750000 -0.000000 -0.375000
v 0.625000 2.000000 -0.375000
v 0.750000 2.000000 -0.375000
v 0.750000 2.000000 -0.500000
v 0.625000 2.000000 -0.500000
v -0.500000 2.125000 -0.375000
v -0.625000 2.000000 -0.375000
v -0.625000 -0.000000 -0.500000
v -0.750000 -0.000000 -0.375000
v -0.750000 -0.000000 -0.500000
v 0.500000 2.250000 -0.375000
v -0.625000 -0.000000 -0.375000
v -0.750000 2.000000 -0.375000
v 0.500000 2.125000 -0.500000
v -0.500000 2.250000 -0.500000
v 0.500000 2.250000 -0.500000
v -0.500000 2.250000 -0.375000
v 0.500000 2.125000 -0.375000
v 0.250000 2.500000 -0.437500
v 0.250000 2.250000 -0.375000
v 0.250000 2.250000 -0.437500
v 0.250000 2.250000 0.437500
v -0.250000 2.500000 0.437500
v -0.250000 2.250000 0.437500
v -0.250000 2.500000 0.375000
v 0.250000 2.500000 0.437500
v 0.250000 2.500000 0.375000
v -0.250000 2.500000 -0.437500
v 0.250000 2.500000 -0.375000
v 0.250000 2.250000 0.375000
v -0.250000 2.250000 0.375000
v -0.250000 2.250000 -0.437500
v -0.250000 2.500000 -0.375000
v 0.500000 0.312500 0.187500
v 0.500000 0.687500 -0.187500
v 0.500000 0.687500 0.187500
v -0.500000 0.312500 -0.187500
v -0.500000 0.687500 0.187500
v -0.500000 0.687500 -0.187500
v 0.500000 0.312500 -0.187500
v 0.437500 0.687500 -0.187500
v 0.437500 0.312500 0.187500
v 0.437500 0.312500 -0.187500
v 0.437500 0.687500 0.187500
v -0.500000 0.312500 0.187500
v -0.437500 0.687500 0.187500
v -0.437500 0.312500 -0.187500
v -0.437500 0.312500 0.187500
v -0.437500 0.687500 -0.187500
v 0.187500 0.312500 -0.500000
v -0.187500 0.687500 -0.500000
v 0.187500 0.687500 -0.500000
v -0.187500 0.312500 0.500000
v 0.187500 0.687500 0.500000
v -0.187500 0.687500 0.500000
v -0.187500 0.312500 -0.500000
v -0.187500 0.687500 -0.437500
v 0.187500 0.312500 -0.437500
v -0.187500 0.312500 -0.437500
v 0.187500 0.687500 -0.437500
v 0.187500 0.312500 0.500000
v 0.187500 0.687500 0.437500
v -0.187500 0.312500 0.437500
v 0.187500 0.312500 0.437500
v -0.187500 0.687500 0.437500
v 0.625000 0.093750 0.406250
v 0.500000 0.031250 0.406250
v 0.500000 0.093750 0.406250
v 0.625000 0.031250 0.468750
v 0.500000 0.093750 0.468750
v 0.500000 0.031250 0.468750
v 0.625000 0.031250 0.406250
v 0.625000 0.093750 0.468750
v 0.625000 0.968750 0.406250
v 0.500000 0.906250 0.406250
v 0.500000 0.968750 0.406250
v 0.625000 0.906250 0.468750
v 0.500000 0.968750 0.468750
v 0.500000 0.906250 0.468750
v 0.625000 0.906250 0.406250
v 0.625000 0.968750 0.468750
v 0.625000 0.093750 -0.468750
v 0.500000 0.031250 -0.468750
v 0.500000 0.093750 -0.468750
v 0.625000 0.031250 -0.406250
v 0.500000 0.093750 -0.406250
v 0.500000 0.031250 -0.406250
v 0.625000 0.031250 -0.468750
v 0.625000 0.093750 -0.406250
v 0.625000 0.968750 -0.468750
v 0.500000 0.906250 -0.468750
v 0.500000 0.968750 -0.468750
v 0.625000 0.906250 -0.406250
v 0.500000 0.968750 -0.406250
v 0.500000 0.906250 -0.406250
v 0.625000 0.906250 -0.468750
v 0.625000 0.968750 -0.406250
v -0.500000 0.093750 0.406250
v -0.625000 0.031250 0.406250
v -0.625000 0.093750 0.406250
v -0.500000 0.031250 0.468750
v -0.625000 0.093750 0.468750
v -0.625000 0.031250 0.468750
v -0.500000 0.031250 0.406250
v -0.500000 0.093750 0.468750
v -0.500000 0.968750 0.406250
v -0.625000 0.906250 0.406250
v -0.625000 0.968750 0.406250
v -0.500000 0.906250 0.468750
v -0.625000 0.968750 0.468750
v -0.625000 0.906250 0.468750
v -0.500000 0.906250 0.406250
v -0.500000 0.968750 0.468750
v -0.500000 0.093750 -0.468750
v -0.625000 0.031250 -0.468750
v -0.625000 0.093750 -0.468750
v -0.500000 0.031250 -0.406250
v -0.625000 0.093750 -0.406250
v -0.625000 0.031250 -0.406250
v -0.500000 0.031250 -0.468750
v -0.500000 0.093750 -0.406250
v -0.500000 0.968750 -0.468750
v -0.625000 0.906250 -0.468750
v -0.625000 0.968750 -0.468750
v -0.500000 0.906250 -0.406250
v -0.625000 0.968750 -0.406250
v -0.625000 0.906250 -0.406250
v -0.500000 0.906250 -0.468750
v -0.500000 0.968750 -0.406250
v -0.250000 2.250000 -0.375000
v 0.500000 1.000000 -0.500000
v -0.500000 1.000000 0.500000
v -0.500000 1.000000 -0.500000
v 0.500000 1.000000 0.500000
vn -0.0000 -0.0000 1.0000
vn -1.0000 -0.0000 -0.0000
vn -0.0000 -0.0000 -1.0000
vn 1.0000 -0.0000 -0.0000
vn -0.0000 -1.0000 -0.0000
vn -0.0000 1.0000 -0.0000
vn 0.7071 -0.7071 -0.0000
vn 0.7071 0.7071 -0.0000
vn -0.7071 -0.7071 -0.0000
vn -0.7071 0.7071 -0.0000
vt 0.285714 0.000000
vt 0.321429 0.134615
vt 0.285714 0.153846
vt 0.571429 0.000000
vt 0.535714 0.134615
vt 0.535714 0.000000
vt 0.571429 0.153846
vt 0.803571 0.134615
vt 0.589286 0.000000
vt 0.803571 0.000000
vt 0.821429 0.000000
vt 0.821429 0.134615
vt 0.589286 0.134615
vt 0.803571 0.144231
vt 0.589286 0.144231
vt 0.571429 0.134615
vt 0.017857 0.019231
vt 0.250000 0.009615
vt 0.267857 0.019231
vt 0.214286 0.153846
vt 0.250000 0.250000
vt 0.214286 0.269231
vt 0.214286 0.423077
vt 0.428571 0.538462
vt 0.214286 0.538462
vt 0.428571 0.269231
vt 0.857143 0.269231
vt 0.642857 0.423077
vt 0.642857 0.269231
vt 0.428571 0.423077
vt 0.000000 0.423077
vt 0.000000 0.269231
vt 0.142857 0.250000
vt 0.000000 0.250000
vt 0.392857 0.250000
vt 0.392857 0.173077
vt 0.428571 0.153846
vt 0.250000 0.173077
vt 0.928571 0.019231
vt 0.892857 0.000000
vt 0.928571 0.000000
vt 0.928571 0.596153
vt 0.964286 0.548076
vt 0.964286 0.586538
vt 0.892857 0.019231
vt 0.857143 0.326923
vt 0.857143 0.019231
vt 0.928571 0.019231
vt 0.892857 0.326923
vt 0.964286 0.019231
vt 0.928571 0.326923
vt 1.000000 0.019231
vt 0.964286 0.326923
vt 1.000000 0.548076
vt 1.000000 0.586538
vt 0.928571 0.923077
vt 0.892857 0.903846
vt 0.928571 0.903846
vt 0.892857 0.384615
vt 0.857143 0.336538
vt 0.857143 0.903846
vt 0.892857 0.596154
vt 0.964286 0.903846
vt 1.000000 0.596154
vt 1.000000 0.903846
vt 0.964286 0.596154
vt 0.928571 0.596154
vt 0.964286 0.384615
vt 0.928571 0.538461
vt 0.928571 0.384615
vt 0.892857 0.538461
vt 0.857143 0.384615
vt 0.964286 0.336538
vt 1.000000 0.538461
vt 0.964286 0.538461
vt 0.892857 0.596153
vt 0.857143 0.548076
vt 0.857143 0.586538
vt 1.000000 0.375000
vt 1.000000 0.336538
vt 0.446429 0.192308
vt 0.446429 0.153846
vt 0.589286 0.153846
vt 0.446429 0.201923
vt 0.589286 0.192308
vt 0.589286 0.201923
vt 0.607143 0.192308
vt 0.607143 0.153846
vt 0.428571 0.192308
vt 0.017857 0.163462
vt 0.125000 0.221154
vt 0.017857 0.221154
vt 0.125000 0.163462
vt 0.142857 0.221154
vt 0.000000 0.163462
vt 0.125000 0.153846
vt 0.017857 0.230769
vt 0.053571 0.423077
vt 0.071429 0.442308
vt 0.053571 0.442308
vt 0.017857 0.423077
vt 0.035714 0.442308
vt 0.017857 0.442308
vt 0.000000 0.442308
vt 0.035714 0.423077
vt 0.321429 0.000000
vt 0.035714 0.153846
vt 0.000000 0.153846
vt 0.035714 0.144231
vt 0.000000 0.134615
vt 0.017857 0.134615
vt 0.000000 0.019231
vt 0.000000 0.000000
vt 0.250000 0.144231
vt 0.250000 0.153846
vt 0.035714 0.009615
vt 0.035714 0.000000
vt 0.267857 0.134615
vt 0.285714 0.134615
vt 0.285714 0.019231
vt 0.250000 0.000000
vt 0.857143 0.423077
vt 0.142857 0.269231
vt 0.892857 0.019231
vt 1.000000 0.326923
vt 0.892857 0.923077
vt 0.857143 0.375000
vt 0.857143 0.596154
vt 0.857143 0.538461
vt 0.964286 0.375000
vt 1.000000 0.384615
vt 0.142857 0.163462
vt 0.000000 0.221154
vt 0.017857 0.153846
vt 0.125000 0.230769
vt 0.071429 0.423077
vt 0.571429 0.576923
vt 0.857143 0.423077
vt 0.857143 0.576923
vt 0.571429 0.423077
s 1
usemtl m_7d0978c5-6ddf-d119-1f84-bec3baf6f6b0
f 17/11/7 18/12/7 19/13/7
f 20/11/8 21/12/8 22/13/8
f 20/14/9 23/15/9 24/16/9
f 25/11/9 26/12/9 27/13/9
f 28/15/8 17/14/8 19/17/8
f 29/14/7 30/15/7 31/16/7
f 29/11/10 32/12/10 33/13/10
f 25/14/10 34/15/10 35/16/10
f 33/13/10 34/15/10 27/17/10
f 19/13/7 30/15/7 33/17/7
f 22/17/9 26/12/9 23/15/9
f 22/13/8 28/15/8 19/17/8
f 36/18/8 37/19/8 38/20/8
f 36/18/9 39/21/9 28/22/9
f 40/23/11 28/24/11 21/25/11
f 37/19/7 21/26/7 41/14/7
f 42/18/7 43/19/7 44/20/7
f 45/14/10 46/23/10 18/26/10
f 18/25/11 42/18/11 30/24/11
f 30/22/8 44/20/8 31/21/8
f 47/20/10 48/23/10 49/19/10
f 50/14/9 48/23/9 32/26/9
f 32/25/11 51/18/11 34/24/11
f 34/22/7 47/20/7 35/21/7
f 52/20/9 53/23/9 54/19/9
f 54/27/11 49/28/11 44/29/11
f 55/18/10 24/21/10 23/22/10
f 53/23/11 23/24/11 26/25/11
f 54/19/8 26/26/8 56/14/8
f 57/30/11 58/31/11 59/32/11
f 60/33/12 61/34/12 62/35/12
f 63/36/10 60/33/10 59/32/10
f 57/37/8 61/38/8 64/39/8
f 64/39/9 65/40/9 63/36/9
f 59/32/7 62/41/7 57/42/7
f 66/43/7 67/42/7 68/44/7
f 59/32/11 66/45/11 63/36/11
f 63/36/11 68/46/11 64/47/11
f 64/47/11 69/48/11 57/30/11
f 67/46/11 70/31/11 71/48/11
f 69/43/9 70/42/9 58/44/9
f 58/43/8 72/42/8 66/44/8
f 68/43/10 71/42/10 69/44/10
f 73/49/11 74/50/11 75/51/11
f 76/52/9 77/53/9 78/54/9
f 79/55/7 80/56/7 74/57/7
f 73/58/10 81/59/10 79/55/10
f 75/60/9 82/61/9 73/58/9
f 74/62/8 83/63/8 75/60/8
f 78/54/13 84/64/13 85/65/13
f 86/66/11 87/67/11 88/68/11
f 89/69/7 80/70/7 81/59/7
f 90/71/7 91/72/7 87/67/7
f 86/73/10 85/74/10 90/75/10
f 88/68/9 78/76/9 86/73/9
f 87/67/8 76/77/8 88/68/8
f 82/61/14 89/69/14 81/59/14
f 92/78/9 93/79/9 94/80/9
f 95/81/7 96/82/7 89/69/7
f 83/83/9 94/80/9 82/61/9
f 92/78/11 84/84/11 77/85/11
f 96/65/15 83/53/15 80/64/15
f 93/79/12 89/69/12 94/80/12
f 91/86/16 93/79/16 76/52/16
f 84/87/7 91/86/7 85/88/7
f 97/49/11 98/50/11 99/51/11
f 100/52/9 101/53/9 102/54/9
f 103/55/7 104/56/7 98/57/7
f 97/58/10 105/59/10 103/55/10
f 99/60/9 106/61/9 97/58/9
f 98/62/8 107/63/8 99/60/8
f 102/54/13 108/64/13 109/65/13
f 110/66/11 111/67/11 112/68/11
f 113/69/7 104/70/7 105/59/7
f 114/71/7 115/72/7 111/67/7
f 110/73/10 109/74/10 114/75/10
f 112/68/9 102/76/9 110/73/9
f 111/67/8 100/77/8 112/68/8
f 106/61/14 113/69/14 105/59/14
f 116/78/9 117/79/9 118/80/9
f 119/81/7 120/82/7 113/69/7
f 107/83/9 118/80/9 106/61/9
f 116/78/11 108/84/11 101/85/11
f 120/89/15 107/83/15 104/90/15
f 117/79/12 113/69/12 118/80/12
f 115/86/16 117/79/16 100/52/16
f 108/87/7 115/86/7 109/88/7
f 121/91/10 122/47/10 123/92/10
f 124/93/7 125/91/7 126/92/7
f 127/94/12 128/95/12 129/96/12
f 130/95/12 131/94/12 121/91/12
f 129/97/10 124/93/10 132/98/10
f 133/47/8 125/91/8 127/99/8
f 134/93/8 135/97/8 130/95/8
f 121/91/9 134/93/9 130/95/9
f 136/100/10 137/101/10 138/102/10
f 139/100/8 140/101/8 141/102/8
f 142/103/9 143/104/9 137/101/9
f 138/102/7 144/105/7 136/100/7
f 136/100/11 145/106/11 142/103/11
f 137/101/12 146/107/12 138/102/12
f 147/103/7 148/104/7 140/101/7
f 141/102/9 149/105/9 139/100/9
f 139/100/11 150/106/11 147/103/11
f 140/101/12 151/107/12 141/102/12
f 152/100/9 153/101/9 154/102/9
f 155/100/7 156/101/7 157/102/7
f 158/103/8 159/104/8 153/101/8
f 154/102/10 160/105/10 152/100/10
f 152/100/11 161/106/11 158/103/11
f 153/101/12 162/107/12 154/102/12
f 163/103/10 164/104/10 156/101/10
f 157/102/8 165/105/8 155/100/8
f 155/100/11 166/106/11 163/103/11
f 156/101/12 167/107/12 157/102/12
f 168/108/9 169/109/9 170/110/9
f 171/111/7 172/112/7 173/113/7
f 174/41/11 173/113/11 169/114/11
f 175/115/12 170/110/12 172/112/12
f 176/108/9 177/109/9 178/110/9
f 179/111/7 180/112/7 181/113/7
f 182/41/11 181/113/11 177/114/11
f 183/115/12 178/110/12 180/112/12
f 184/108/9 185/109/9 186/110/9
f 187/111/7 188/112/7 189/113/7
f 190/41/11 189/113/11 185/114/11
f 191/115/12 186/110/12 188/112/12
f 192/108/9 193/109/9 194/110/9
f 195/111/7 196/112/7 197/113/7
f 198/41/11 197/113/11 193/114/11
f 199/115/12 194/110/12 196/112/12
f 200/108/9 201/109/9 202/110/9
f 203/111/7 204/112/7 205/113/7
f 206/41/11 205/113/11 201/114/11
f 207/115/12 202/110/12 204/112/12
f 208/108/9 209/109/9 210/110/9
f 211/111/7 212/112/7 213/113/7
f 214/41/11 213/113/11 209/114/11
f 215/115/12 210/110/12 212/112/12
f 216/108/9 217/109/9 218/110/9
f 219/111/7 220/112/7 221/113/7
f 222/41/11 221/113/11 217/114/11
f 223/115/12 218/110/12 220/112/12
f 224/108/9 225/109/9 226/110/9
f 227/111/7 228/112/7 229/113/7
f 230/41/11 229/113/11 225/114/11
f 231/115/12 226/110/12 228/112/12
f 17/11/7 45/116/7 18/12/7
f 20/11/8 41/116/8 21/12/8
f 20/14/9 22/17/9 23/15/9
f 25/11/9 56/116/9 26/12/9
f 28/15/8 39/16/8 17/14/8
f 29/14/7 33/17/7 30/15/7
f 29/11/10 50/116/10 32/12/10
f 25/14/10 27/17/10 34/15/10
f 33/13/10 32/12/10 34/15/10
f 19/13/7 18/12/7 30/15/7
f 22/17/9 27/13/9 26/12/9
f 22/13/8 21/12/8 28/15/8
f 36/18/8 40/23/8 37/19/8
f 36/18/9 38/20/9 39/21/9
f 40/23/11 36/18/11 28/24/11
f 37/19/7 40/23/7 21/26/7
f 42/18/7 46/23/7 43/19/7
f 45/14/10 43/19/10 46/23/10
f 18/25/11 46/23/11 42/18/11
f 30/22/8 42/18/8 44/20/8
f 47/20/10 51/18/10 48/23/10
f 50/14/9 49/19/9 48/23/9
f 32/25/11 48/23/11 51/18/11
f 34/22/7 51/18/7 47/20/7
f 52/20/9 55/18/9 53/23/9
f 41/117/11 20/118/11 37/119/11
f 20/118/11 24/120/11 52/121/11
f 20/118/11 52/121/11 37/119/11
f 54/27/11 56/122/11 25/123/11
f 37/119/11 52/121/11 38/124/11
f 52/121/11 54/27/11 38/124/11
f 17/13/11 39/125/11 38/124/11
f 54/27/11 25/123/11 47/126/11
f 25/123/11 35/127/11 47/126/11
f 17/13/11 38/124/11 43/128/11
f 38/124/11 54/27/11 43/128/11
f 43/128/11 45/129/11 17/13/11
f 29/11/11 31/130/11 44/29/11
f 50/131/11 29/11/11 49/28/11
f 29/11/11 44/29/11 49/28/11
f 44/29/11 43/128/11 54/27/11
f 54/27/11 47/126/11 49/28/11
f 55/18/10 52/20/10 24/21/10
f 53/23/11 55/18/11 23/24/11
f 54/19/8 53/23/8 26/26/8
f 57/30/11 69/48/11 58/31/11
f 60/33/12 65/40/12 61/34/12
f 63/36/10 65/40/10 60/33/10
f 57/37/8 62/132/8 61/38/8
f 64/39/9 61/38/9 65/40/9
f 59/32/7 60/33/7 62/41/7
f 66/43/7 72/133/7 67/42/7
f 59/32/11 58/31/11 66/45/11
f 63/36/11 66/45/11 68/46/11
f 64/47/11 68/46/11 69/48/11
f 67/46/11 72/45/11 70/31/11
f 69/43/9 71/133/9 70/42/9
f 58/43/8 70/133/8 72/42/8
f 68/43/10 67/133/10 71/42/10
f 73/49/11 79/134/11 74/50/11
f 76/52/9 93/79/9 77/53/9
f 79/55/7 81/59/7 80/56/7
f 73/58/10 82/61/10 81/59/10
f 75/60/9 83/63/9 82/61/9
f 74/62/8 80/135/8 83/63/8
f 78/54/13 77/53/13 84/64/13
f 86/66/11 90/136/11 87/67/11
f 89/69/7 96/137/7 80/70/7
f 90/71/7 85/138/7 91/72/7
f 86/73/10 78/76/10 85/74/10
f 88/68/9 76/77/9 78/76/9
f 87/67/8 91/72/8 76/77/8
f 82/61/14 94/80/14 89/69/14
f 92/78/9 77/85/9 93/79/9
f 95/81/7 84/139/7 96/82/7
f 83/83/9 92/140/9 94/80/9
f 92/78/11 96/141/11 84/84/11
f 96/65/15 92/54/15 83/53/15
f 93/79/12 95/81/12 89/69/12
f 91/86/16 95/81/16 93/79/16
f 84/87/7 95/81/7 91/86/7
f 97/49/11 103/134/11 98/50/11
f 100/52/9 117/79/9 101/53/9
f 103/55/7 105/59/7 104/56/7
f 97/58/10 106/61/10 105/59/10
f 99/60/9 107/63/9 106/61/9
f 98/62/8 104/135/8 107/63/8
f 102/54/13 101/53/13 108/64/13
f 110/66/11 114/136/11 111/67/11
f 113/69/7 120/137/7 104/70/7
f 114/71/7 109/138/7 115/72/7
f 110/73/10 102/76/10 109/74/10
f 112/68/9 100/77/9 102/76/9
f 111/67/8 115/72/8 100/77/8
f 106/61/14 118/80/14 113/69/14
f 116/78/9 101/85/9 117/79/9
f 119/81/7 108/139/7 120/82/7
f 107/83/9 116/140/9 118/80/9
f 116/78/11 120/141/11 108/84/11
f 120/89/15 116/140/15 107/83/15
f 117/79/12 119/81/12 113/69/12
f 115/86/16 119/81/16 117/79/16
f 108/87/7 119/81/7 115/86/7
f 121/91/10 131/99/10 122/47/10
f 124/93/7 128/95/7 125/91/7
f 127/94/12 125/91/12 128/95/12
f 130/95/12 135/96/12 131/94/12
f 129/97/10 128/95/10 124/93/10
f 133/47/8 126/92/8 125/91/8
f 134/93/8 232/98/8 135/97/8
f 121/91/9 123/92/9 134/93/9
f 136/100/10 142/103/10 137/101/10
f 139/100/8 147/103/8 140/101/8
f 142/103/9 145/142/9 143/104/9
f 138/102/7 146/143/7 144/105/7
f 136/100/11 144/144/11 145/106/11
f 137/101/12 143/145/12 146/107/12
f 147/103/7 150/142/7 148/104/7
f 141/102/9 151/143/9 149/105/9
f 139/100/11 149/144/11 150/106/11
f 140/101/12 148/145/12 151/107/12
f 152/100/9 158/103/9 153/101/9
f 155/100/7 163/103/7 156/101/7
f 158/103/8 161/142/8 159/104/8
f 154/102/10 162/143/10 160/105/10
f 152/100/11 160/144/11 161/106/11
f 153/101/12 159/145/12 162/107/12
f 163/103/10 166/142/10 164/104/10
f 157/102/8 167/143/8 165/105/8
f 155/100/11 165/144/11 166/106/11
f 156/101/12 164/145/12 167/107/12
f 168/108/9 174/146/9 169/109/9
f 171/111/7 175/115/7 172/112/7
f 174/41/11 171/111/11 173/113/11
f 175/115/12 168/108/12 170/110/12
f 176/108/9 182/146/9 177/109/9
f 179/111/7 183/115/7 180/112/7
f 182/41/11 179/111/11 181/113/11
f 183/115/12 176/108/12 178/110/12
f 184/108/9 190/146/9 185/109/9
f 187/111/7 191/115/7 188/112/7
f 190/41/11 187/111/11 189/113/11
f 191/115/12 184/108/12 186/110/12
f 192/108/9 198/146/9 193/109/9
f 195/111/7 199/115/7 196/112/7
f 198/41/11 195/111/11 197/113/11
f 199/115/12 192/108/12 194/110/12
f 200/108/9 206/146/9 201/109/9
f 203/111/7 207/115/7 204/112/7
f 206/41/11 203/111/11 205/113/11
f 207/115/12 200/108/12 202/110/12
f 208/108/9 214/146/9 209/109/9
f 211/111/7 215/115/7 212/112/7
f 214/41/11 211/111/11 213/113/11
f 215/115/12 208/108/12 210/110/12
f 216/108/9 222/146/9 217/109/9
f 219/111/7 223/115/7 220/112/7
f 222/41/11 219/111/11 221/113/11
f 223/115/12 216/108/12 218/110/12
f 224/108/9 230/146/9 225/109/9
f 227/111/7 231/115/7 228/112/7
f 230/41/11 227/111/11 229/113/11
f 231/115/12 224/108/12 226/110/12
f 235/147/12 236/148/12 233/149/12
f 235/147/12 234/150/12 236/148/12
