# Blender v2.79 (sub 0) OBJ File: 'elevator.blend'
# www.blender.org
o Piston
v 0.250000 0.750000 0.250000
v 0.250000 0.750000 -0.250000
v -0.250000 0.750000 0.250000
v -0.250000 0.750000 -0.250000
v 0.250000 -0.250000 0.250000
v 0.250000 -0.250000 -0.250000
v -0.250000 -0.250000 0.250000
v -0.250000 -0.250000 -0.250000
vt 0.126984 0.677419
vt 0.190476 0.548387
vt 0.190476 0.677419
vt 0.317460 0.677419
vt 0.380952 0.548387
vt 0.380952 0.677419
vt 0.253968 0.677419
vt 0.317460 0.548387
vt 0.253968 0.548387
vt 0.126984 0.548387
vn 0.0000 0.0000 1.0000
vn -1.0000 0.0000 -0.0000
vn 0.0000 0.0000 -1.0000
vn 1.0000 0.0000 0.0000
s off
f 3/1/1 5/2/1 1/3/1
f 4/4/2 7/5/2 3/6/2
f 2/7/3 8/8/3 4/4/3
f 1/3/4 6/9/4 2/7/4
f 3/1/1 7/10/1 5/2/1
f 4/4/2 8/8/2 7/5/2
f 2/7/3 6/9/3 8/8/3
f 1/3/4 5/2/4 6/9/4
o Base
v -1.000000 0.000000 -1.000000
v -1.000000 0.000000 1.000000
v 1.000000 0.000000 -1.000000
v 1.000000 0.000000 1.000000
v 0.500000 0.125000 -0.500000
v -0.500000 0.125000 -0.500000
v -0.500000 0.125000 0.500000
v 0.500000 0.125000 0.500000
v 1.000000 0.125000 -1.000000
v -1.000000 0.125000 -1.000000
v -1.000000 0.125000 1.000000
v 1.000000 0.125000 1.000000
v 0.500000 0.250000 -0.500000
v -0.500000 0.250000 -0.500000
v -0.500000 0.250000 0.500000
v 0.500000 0.250000 0.500000
vt 0.380952 0.258065
vt 0.126984 0.000000
vt 0.380952 0.000000
vt 0.380952 0.016129
vt 0.396825 0.145161
vt 0.380952 0.145161
vt 0.111111 0.274194
vt 0.126984 0.532258
vt 0.111111 0.532258
vt 0.396825 0.532258
vt 0.380952 0.274194
vt 0.396825 0.274194
vt 0.126984 0.274194
vt 0.126984 0.258065
vt 0.126984 0.548387
vt 0.380952 0.532258
vt 0.380952 0.548387
vt 0.317460 0.338710
vt 0.317460 0.467742
vt 0.190476 0.467742
vt 0.190476 0.338710
vt 0.523810 0.016129
vt 0.523810 0.145161
vt 0.539683 0.145161
vt 0.539683 0.016129
vt 0.523810 -0.000000
vt 0.396825 0.016129
vt 0.396825 -0.000000
vt 0.396825 0.161290
vt 0.523810 0.161290
vn 0.0000 -1.0000 0.0000
vn -0.0000 0.0000 1.0000
vn 0.0000 0.0000 -1.0000
vn 1.0000 0.0000 0.0000
vn -1.0000 0.0000 -0.0000
vn 0.0000 1.0000 0.0000
s off
f 11/11/5 10/12/5 9/13/5
f 16/14/6 23/15/6 15/16/6
f 12/17/6 19/18/6 10/19/6
f 9/20/7 17/21/7 11/22/7
f 11/11/8 20/23/8 12/24/8
f 10/25/9 18/26/9 9/27/9
f 13/28/10 18/26/10 14/29/10
f 14/29/10 19/18/10 15/30/10
f 15/30/10 20/23/10 16/31/10
f 16/31/10 17/21/10 13/28/10
f 23/15/10 21/32/10 22/33/10
f 14/34/7 21/32/7 13/35/7
f 13/36/8 24/37/8 16/38/8
f 15/39/9 22/33/9 14/40/9
f 11/11/5 12/24/5 10/12/5
f 16/14/6 24/37/6 23/15/6
f 12/17/6 20/23/6 19/18/6
f 9/20/7 18/26/7 17/21/7
f 11/11/8 17/21/8 20/23/8
f 10/25/9 19/18/9 18/26/9
f 13/28/10 17/21/10 18/26/10
f 14/29/10 18/26/10 19/18/10
f 15/30/10 19/18/10 20/23/10
f 16/31/10 20/23/10 17/21/10
f 23/15/10 24/37/10 21/32/10
f 14/34/7 22/33/7 21/32/7
f 13/36/8 21/32/8 24/37/8
f 15/39/9 23/15/9 22/33/9
o Guides
v -1.500000 1.000000 1.250000
v -1.500000 1.000000 1.500000
v -1.250000 1.000000 1.250000
v -1.250000 1.000000 1.500000
v -1.250000 0.000000 1.500000
v -1.250000 0.000000 1.250000
v -1.500000 0.000000 1.500000
v -1.500000 0.000000 1.250000
v 1.500000 0.000000 1.500000
v 1.500000 0.000000 1.250000
v 1.250000 0.000000 1.500000
v 1.250000 0.000000 1.250000
v -1.250000 0.000000 -1.250000
v -1.250000 0.000000 -1.500000
v -1.500000 0.000000 -1.250000
v -1.500000 0.000000 -1.500000
v 1.500000 0.000000 -1.250000
v 1.500000 0.000000 -1.500000
v 1.250000 0.000000 -1.250000
v 1.250000 0.000000 -1.500000
v 1.500000 1.000000 1.500000
v 1.500000 1.000000 1.250000
v 1.250000 1.000000 1.500000
v 1.250000 1.000000 1.250000
v -1.250000 1.000000 -1.250000
v -1.250000 1.000000 -1.500000
v -1.500000 1.000000 -1.250000
v -1.500000 1.000000 -1.500000
v 1.500000 1.000000 -1.250000
v 1.500000 1.000000 -1.500000
v 1.250000 1.000000 -1.250000
v 1.250000 1.000000 -1.500000
vt 0.031746 0.161290
vt 0.000000 0.193548
vt 0.000000 0.161290
vt 0.000000 0.000000
vt 0.031746 0.032258
vt 0.000000 0.032258
vt 0.000000 0.032258
vt 0.031746 0.000000
vt 0.031746 0.032258
vt 0.000000 0.032258
vt 0.031746 0.000000
vt 0.031746 0.032258
vt 0.000000 0.000000
vt 0.031746 0.032258
vt 0.000000 0.032258
vt 0.000000 0.161290
vt 0.031746 0.193548
vt 0.000000 0.193548
vt 0.000000 0.161290
vt 0.031746 0.193548
vt 0.000000 0.193548
vt 0.031746 0.161290
vt 0.000000 0.193548
vt 0.000000 0.161290
vt 0.095238 0.032258
vt 0.063492 0.161290
vt 0.063492 0.032258
vt 0.095238 0.032258
vt 0.063492 0.161290
vt 0.063492 0.032258
vt 0.031746 0.161290
vt 0.126984 0.032258
vt 0.095238 0.161290
vt 0.126984 0.032258
vt 0.095238 0.161290
vt 0.095238 0.032258
vt 0.063492 0.161290
vt 0.063492 0.032258
vt 0.095238 0.032258
vt 0.063492 0.161290
vt 0.063492 0.032258
vt 0.031746 0.161290
vt 0.126984 0.032258
vt 0.095238 0.161290
vt 0.126984 0.032258
vt 0.095238 0.161290
vt 0.031746 0.193548
vt 0.031746 0.000000
vt 0.000000 0.000000
vt 0.000000 0.000000
vt 0.031746 0.000000
vt 0.031746 0.193548
vt 0.126984 0.161290
vt 0.126984 0.161290
vt 0.126984 0.161290
vt 0.126984 0.161290
vn 0.0000 1.0000 0.0000
vn 0.0000 -1.0000 0.0000
vn -1.0000 0.0000 0.0000
vn 0.0000 0.0000 -1.0000
vn -0.0000 0.0000 1.0000
vn 1.0000 0.0000 0.0000
s off
f 27/41/11 26/42/11 28/43/11
f 31/44/12 30/45/12 29/46/12
f 33/47/12 36/48/12 34/49/12
f 37/50/12 40/51/12 38/52/12
f 43/53/12 42/54/12 41/55/12
f 45/56/11 48/57/11 47/58/11
f 49/59/11 52/60/11 51/61/11
f 54/62/11 55/63/11 53/64/11
f 31/65/13 25/66/13 32/67/13
f 39/68/13 52/69/13 40/70/13
f 32/67/14 27/41/14 30/45/14
f 40/70/14 50/71/14 38/52/14
f 29/72/15 26/73/15 31/65/15
f 37/74/15 51/75/15 39/68/15
f 34/49/16 45/56/16 33/47/16
f 42/54/16 53/64/16 41/55/16
f 35/76/13 48/77/13 36/78/13
f 43/79/13 56/80/13 44/81/13
f 36/78/14 46/82/14 34/49/14
f 44/81/14 54/62/14 42/54/14
f 33/83/15 47/84/15 35/76/15
f 30/45/16 28/43/16 29/46/16
f 41/85/15 55/86/15 43/79/15
f 38/52/16 49/59/16 37/50/16
f 27/41/11 25/87/11 26/42/11
f 31/44/12 32/88/12 30/45/12
f 33/47/12 35/89/12 36/48/12
f 37/50/12 39/90/12 40/51/12
f 43/53/12 44/91/12 42/54/12
f 45/56/11 46/82/11 48/57/11
f 49/59/11 50/71/11 52/60/11
f 54/62/11 56/92/11 55/63/11
f 31/65/13 26/73/13 25/66/13
f 39/68/13 51/75/13 52/69/13
f 32/67/14 25/66/14 27/41/14
f 40/70/14 52/69/14 50/71/14
f 29/72/15 28/93/15 26/73/15
f 37/74/15 49/94/15 51/75/15
f 34/49/16 46/82/16 45/56/16
f 42/54/16 54/62/16 53/64/16
f 35/76/13 47/84/13 48/77/13
f 43/79/13 55/86/13 56/80/13
f 36/78/14 48/77/14 46/82/14
f 44/81/14 56/80/14 54/62/14
f 33/83/15 45/95/15 47/84/15
f 30/45/16 27/41/16 28/43/16
f 41/85/15 53/96/15 55/86/15
f 38/52/16 50/71/16 49/59/16
o Platform
v -1.500000 0.750000 1.250000
v -1.250000 0.750000 1.250000
v -1.250000 0.750000 1.500000
v 1.500000 0.750000 1.250000
v 1.250000 0.750000 1.500000
v 1.250000 0.750000 1.250000
v -1.250000 0.750000 -1.250000
v -1.250000 0.750000 -1.500000
v -1.500000 0.750000 -1.250000
v 1.500000 0.750000 -1.250000
v 1.250000 0.750000 -1.250000
v 1.250000 0.750000 -1.500000
v -1.000000 0.750000 1.250000
v -1.000000 0.750000 -1.250000
v 1.000000 0.750000 1.250000
v 1.000000 0.750000 -1.250000
v 1.250000 0.750000 1.000000
v -1.250000 0.750000 1.000000
v 1.250000 0.750000 -1.000000
v -1.250000 0.750000 -1.000000
v -1.250000 1.000000 1.250000
v -1.500000 1.000000 1.250000
v -1.250000 1.000000 1.500000
v 1.250000 1.000000 1.500000
v 1.250000 1.000000 1.250000
v 1.500000 1.000000 1.250000
v -1.250000 1.000000 -1.250000
v -1.250000 1.000000 -1.500000
v -1.500000 1.000000 -1.250000
v 1.250000 1.000000 -1.250000
v 1.250000 1.000000 -1.500000
v 1.500000 1.000000 -1.250000
v -1.000000 1.000000 1.250000
v 1.000000 1.000000 1.250000
v 1.250000 1.000000 1.000000
v 1.250000 1.000000 -1.000000
v 1.000000 1.000000 -1.250000
v -1.000000 1.000000 -1.250000
v -1.250000 1.000000 -1.000000
v -1.250000 1.000000 1.000000
v -1.000000 0.781250 1.250000
v 1.000000 0.781250 1.250000
v 1.250000 0.781250 1.000000
v 1.250000 0.781250 -1.000000
v 1.000000 0.781250 -1.250000
v -1.000000 0.781250 -1.250000
v -1.250000 0.781250 -1.000000
v -1.250000 0.781250 1.000000
v -1.000000 0.968750 1.250000
v 1.000000 0.968750 1.250000
v 1.250000 0.968750 1.000000
v 1.250000 0.968750 -1.000000
v 1.000000 0.968750 -1.250000
v -1.000000 0.968750 -1.250000
v -1.250000 0.968750 -1.000000
v -1.250000 0.968750 1.000000
v -0.500000 0.750000 -0.250000
v -0.250000 0.750000 -0.500000
v -0.250000 0.750000 0.500000
v -0.500000 0.750000 0.250000
v 0.250000 0.750000 -0.500000
v 0.500000 0.750000 -0.250000
v 0.500000 0.750000 0.250000
v 0.250000 0.750000 0.500000
v 0.500000 1.000000 -0.250000
v 0.250000 1.000000 -0.500000
v -0.250000 1.000000 -0.500000
v -0.500000 1.000000 -0.250000
v -0.500000 1.000000 0.250000
v -0.250000 1.000000 0.500000
v 0.250000 1.000000 0.500000
v 0.500000 1.000000 0.250000
vt 0.936508 0.322581
vt 0.968254 0.032258
vt 0.968254 0.354839
vt 0.619048 0.387097
vt 0.904762 0.354839
vt 0.936508 0.387097
vt 0.587302 0.354839
vt 0.619048 0.064516
vt 0.619048 0.322581
vt 0.904762 0.032258
vt 0.619048 -0.000000
vt 0.936508 0.000000
vt 0.936508 0.032258
vt 0.936508 0.064516
vt 0.936508 0.354839
vt 0.619048 0.354839
vt 0.650794 0.354839
vt 0.650794 0.032258
vt 0.619048 0.032258
vt 0.968254 0.774194
vt 0.936508 0.483871
vt 0.968254 0.451613
vt 0.904762 0.451613
vt 0.619048 0.419355
vt 0.936508 0.419355
vt 0.619048 0.741935
vt 0.587302 0.451613
vt 0.619048 0.483871
vt 0.619048 0.806452
vt 0.904762 0.774194
vt 0.936508 0.806452
vt 0.936508 0.741935
vt 0.936508 0.774194
vt 0.936508 0.451613
vt 0.619048 0.451613
vt 0.619048 0.774194
vt 0.650794 0.774194
vt 0.555556 0.451613
vt 0.587302 0.774194
vt 0.555556 0.774194
vt 0.587302 0.419355
vt 0.555556 0.354839
vt 0.587302 0.354839
vt 0.650794 0.516129
vt 0.904762 0.483871
vt 0.904762 0.516129
vt 0.428571 0.419355
vt 0.460317 0.322581
vt 0.936508 0.516129
vt 0.396825 0.354839
vt 0.396825 0.419355
vt 0.523810 0.290323
vt 0.460317 0.290323
vt 0.619048 0.838710
vt 0.936508 0.838710
vt 0.650794 0.322581
vt 0.904762 0.064516
vt 1.000000 0.774194
vt 1.000000 0.451613
vt 0.460317 0.483871
vt 0.523810 0.451613
vt 0.523810 0.483871
vt 0.936508 0.709677
vt 0.904762 0.741935
vt 0.904762 0.709677
vt 0.126984 0.677419
vt 0.380952 0.677419
vt 0.126984 1.000000
vt 0.650794 0.709677
vt 0.619048 0.709677
vt 0.619048 0.516129
vt 0.650794 0.483871
vt 0.126984 0.677419
vt 0.380952 0.677419
vt 0.412698 0.709677
vt 0.650794 0.741935
vt 0.428571 0.290323
vt 0.428571 0.451613
vt 0.460317 0.451613
vt 0.555556 0.483871
vt 0.555556 0.322581
vt 0.523810 0.322581
vt 0.428571 0.258065
vt 0.460317 0.161290
vt 0.968254 0.387097
vt 1.000000 0.419355
vt 1.000000 0.806452
vt 0.968254 0.806452
vt 0.968254 0.838710
vt 0.587302 0.838710
vt 0.587302 0.806452
vt 0.555556 0.806452
vt 0.587302 0.419355
vt 0.555556 0.419355
vt 0.587302 0.387097
vt 0.587302 0.032258
vt 0.650794 0.451613
vt 0.555556 0.419355
vt 0.428571 0.354839
vt 0.650794 0.064516
vt 0.904762 0.322581
vt 0.412698 0.709677
vt 0.412698 0.967742
vt 0.380952 1.000000
vt 0.095238 0.967742
vt 0.095238 0.709677
vt 0.412698 0.967742
vt 0.095238 0.967742
vt 0.380952 1.000000
vt 0.126984 1.000000
vt 0.095238 0.709677
vt 0.428571 0.322581
vt 0.428571 0.483871
vt 0.555556 0.451613
vt 0.555556 0.290323
vt 0.523810 0.161290
vt 0.555556 0.193548
vt 0.555556 0.258065
vt 0.428571 0.193548
vt 0.968254 0.419355
vn 0.0000 -1.0000 0.0000
vn 0.0000 1.0000 0.0000
vn 0.0000 0.0000 1.0000
vn 0.0000 0.0000 -1.0000
vn -1.0000 0.0000 0.0000
vn -0.7071 0.0000 0.7071
vn 1.0000 0.0000 0.0000
vn 0.7071 0.0000 0.7071
vn 0.7071 0.0000 -0.7071
vn -0.7071 0.0000 -0.7071
s off
f 72/97/17 64/98/17 68/99/17
f 60/100/17 75/101/17 66/102/17
f 61/103/17 69/104/17 71/105/17
f 76/106/17 57/107/17 65/108/17
f 63/109/17 70/110/17 76/106/17
f 67/111/17 75/101/17 72/97/17
f 62/112/17 71/105/17 73/113/17
f 74/114/17 69/104/17 58/115/17
f 84/116/18 93/117/18 87/118/18
f 92/119/18 82/120/18 88/121/18
f 89/122/18 80/123/18 90/124/18
f 78/125/18 95/126/18 85/127/18
f 94/128/18 84/116/18 83/129/18
f 92/119/18 88/121/18 86/130/18
f 90/124/18 80/123/18 81/131/18
f 77/132/18 89/122/18 96/133/18
f 61/134/19 79/135/19 59/136/19
f 114/137/20 122/138/20 117/139/20
f 73/140/21 92/141/21 75/142/21
f 126/143/18 128/144/18 122/138/18
f 75/142/22 93/117/22 72/145/22
f 120/146/19 126/143/19 115/147/19
f 118/148/23 128/144/23 119/149/23
f 57/150/21 85/127/21 65/151/21
f 69/104/20 90/152/20 71/105/20
f 72/97/19 94/153/19 70/110/19
f 64/154/20 87/118/20 68/155/20
f 116/156/21 124/157/21 113/158/21
f 70/159/24 95/160/24 76/161/24
f 66/102/23 82/120/23 60/100/23
f 107/162/18 108/163/18 112/164/18
f 74/165/25 89/122/25 69/166/25
f 71/167/26 91/168/26 73/140/26
f 104/169/17 103/170/17 102/171/17
f 76/161/23 96/172/23 74/165/23
f 128/144/24 120/173/24 119/149/24
f 116/156/22 126/174/22 125/175/22
f 124/157/26 114/176/26 113/158/26
f 118/148/25 122/177/25 121/178/25
f 118/148/17 120/179/17 116/180/17
f 67/181/20 88/121/20 66/102/20
f 87/118/23 67/182/23 68/155/23
f 63/183/21 84/116/21 64/154/21
f 65/151/20 83/184/20 63/185/20
f 58/186/19 78/125/19 57/150/19
f 59/136/21 77/187/21 58/188/21
f 81/189/23 61/134/23 62/190/23
f 60/100/19 81/189/19 62/191/19
f 72/97/17 70/110/17 64/98/17
f 60/100/17 73/113/17 75/101/17
f 61/103/17 59/192/17 69/104/17
f 76/106/17 74/114/17 57/107/17
f 63/109/17 64/98/17 70/110/17
f 76/106/17 65/108/17 63/109/17
f 67/111/17 66/102/17 75/101/17
f 72/97/17 68/99/17 67/111/17
f 62/112/17 61/103/17 71/105/17
f 73/113/17 60/100/17 62/112/17
f 58/115/17 57/107/17 74/114/17
f 69/104/17 59/192/17 58/115/17
f 84/116/18 94/128/18 93/117/18
f 92/119/18 91/193/18 82/120/18
f 89/122/18 79/135/18 80/123/18
f 78/125/18 96/133/18 95/126/18
f 83/129/18 85/127/18 95/126/18
f 95/126/18 94/128/18 83/129/18
f 86/130/18 87/118/18 93/117/18
f 93/117/18 92/119/18 86/130/18
f 81/131/18 82/120/18 91/193/18
f 91/193/18 90/124/18 81/131/18
f 96/133/18 78/125/18 77/132/18
f 77/132/18 79/135/18 89/122/18
f 61/134/19 80/123/19 79/135/19
f 114/137/20 123/194/20 122/138/20
f 73/140/21 91/168/21 92/141/21
f 122/138/18 123/194/18 124/157/18
f 124/157/18 125/175/18 126/143/18
f 126/143/18 127/195/18 128/144/18
f 128/144/18 121/178/18 122/138/18
f 122/138/18 124/157/18 126/143/18
f 75/142/22 92/141/22 93/117/22
f 120/146/19 127/195/19 126/143/19
f 118/148/23 121/178/23 128/144/23
f 57/150/21 78/125/21 85/127/21
f 69/104/20 89/196/20 90/152/20
f 72/97/19 93/197/19 94/153/19
f 64/154/20 84/116/20 87/118/20
f 116/156/21 125/175/21 124/157/21
f 70/159/24 94/128/24 95/160/24
f 66/102/23 88/121/23 82/120/23
f 108/163/18 109/198/18 110/199/18
f 110/199/18 111/200/18 108/163/18
f 111/200/18 112/164/18 108/163/18
f 112/164/18 105/201/18 106/202/18
f 106/202/18 107/162/18 112/164/18
f 74/165/25 96/172/25 89/122/25
f 71/167/26 90/124/26 91/168/26
f 102/171/17 101/203/17 98/204/17
f 101/203/17 100/205/17 98/204/17
f 100/205/17 99/206/17 98/204/17
f 98/204/17 97/207/17 102/171/17
f 97/207/17 104/169/17 102/171/17
f 76/161/23 95/160/23 96/172/23
f 128/144/24 127/208/24 120/173/24
f 116/156/22 115/209/22 126/174/22
f 124/157/26 123/210/26 114/176/26
f 118/148/25 117/211/25 122/177/25
f 116/180/17 113/212/17 114/213/17
f 114/213/17 117/214/17 118/148/17
f 118/148/17 119/149/17 120/179/17
f 120/179/17 115/215/17 116/180/17
f 116/180/17 114/213/17 118/148/17
f 67/181/20 86/216/20 88/121/20
f 87/118/23 86/216/23 67/182/23
f 63/183/21 83/184/21 84/116/21
f 65/151/20 85/127/20 83/184/20
f 58/186/19 77/187/19 78/125/19
f 59/136/21 79/135/21 77/187/21
f 81/189/23 80/123/23 61/134/23
f 60/100/19 82/120/19 81/189/19
