# Blender 4.0.2
# www.blender.org
mtllib fel.mtl
o Cube.018
v -0.125000 1.000000 -2.250000
v -0.213388 1.000000 -2.213388
v -0.125000 0.562500 -2.250000
v -0.036611 1.000000 -2.213388
v 0.000000 1.000000 -2.125000
v -0.036611 0.562500 -2.213388
v 0.000000 0.562500 -2.125000
v -0.036611 0.411612 -2.150888
v 0.000000 0.474112 -2.088388
v -0.125000 0.385723 -2.176777
v -0.036612 0.349112 -2.000001
v 0.000000 0.437500 -2.000001
v -0.125000 0.312500 -2.000001
v -0.036612 0.349111 1.749999
v 0.000000 0.437499 1.749999
v -0.125000 0.312499 1.749999
v -0.213388 0.349111 1.749999
v -0.250000 0.437499 1.749999
v -0.213388 0.349112 -2.000001
v -0.250000 0.437500 -2.000001
v -0.213388 0.411612 -2.150888
v -0.250000 0.474112 -2.088388
v -0.213388 0.562500 -2.213388
v -0.250000 0.562500 -2.125000
v -0.250000 1.000000 -2.125000
v -0.213388 0.562500 -2.036612
v -0.213388 1.000000 -2.036612
v -0.125000 0.562500 -2.000000
v -0.213388 0.536612 -2.025888
v -0.125000 0.562500 -2.000001
v -0.213388 0.525888 -2.000001
v -0.125000 0.562500 -2.000001
v -0.213388 0.525888 1.749999
v -0.125000 0.562499 1.749999
v -0.036611 0.525888 1.749999
v -0.036611 0.525888 -2.000001
v -0.036611 0.536612 -2.025888
v -0.036611 0.562500 -2.036612
v -0.036611 1.000000 -2.036612
v -0.125000 1.000000 -2.000000
v 0.125000 1.000000 -2.250000
v 0.036612 1.000000 -2.213388
v 0.125000 0.562500 -2.250000
v 0.213389 1.000000 -2.213388
v 0.250000 1.000000 -2.125000
v 0.213389 0.562500 -2.213388
v 0.250000 0.562500 -2.125000
v 0.213389 0.411612 -2.150888
v 0.250000 0.474112 -2.088388
v 0.125000 0.385723 -2.176777
v 0.213389 0.349112 -2.000001
v 0.250000 0.437500 -2.000001
v 0.125000 0.312500 -2.000001
v 0.213389 0.349111 1.749999
v 0.250000 0.437499 1.749999
v 0.125000 0.312499 1.749999
v 0.036612 0.349111 1.749999
v 0.000000 0.437499 1.749999
v 0.036612 0.349112 -2.000001
v 0.000000 0.437500 -2.000001
v 0.036612 0.411612 -2.150888
v 0.000000 0.474112 -2.088388
v 0.036612 0.562500 -2.213388
v 0.000000 0.562500 -2.125000
v 0.000000 1.000000 -2.125000
v 0.036612 0.562500 -2.036612
v 0.036612 1.000000 -2.036612
v 0.125000 0.562500 -2.000000
v 0.036612 0.536612 -2.025888
v 0.125000 0.562500 -2.000001
v 0.036612 0.525888 -2.000001
v 0.125000 0.562500 -2.000001
v 0.036612 0.525888 1.749999
v 0.125000 0.562499 1.749999
v 0.213389 0.525888 1.749999
v 0.213389 0.525888 -2.000001
v 0.213389 0.536612 -2.025888
v 0.213389 0.562500 -2.036612
v 0.213389 1.000000 -2.036612
v 0.125000 1.000000 -2.000000
v 0.500000 1.375000 -2.250000
v 0.500000 1.286611 -2.213388
v 0.937500 1.375000 -2.250000
v 0.500000 1.463388 -2.213388
v 0.500000 1.500000 -2.125000
v 0.937500 1.463388 -2.213388
v 0.937500 1.500000 -2.125000
v 1.088389 1.463388 -2.150888
v 1.025889 1.500000 -2.088388
v 1.114277 1.375000 -2.176777
v 1.150889 1.463388 -2.000001
v 1.062500 1.500000 -2.000001
v 1.187500 1.375000 -2.000001
v 1.150889 1.463388 1.749999
v 1.062500 1.500000 1.749999
v 1.187500 1.375000 1.749999
v 1.150889 1.286611 1.749999
v 1.062500 1.250000 1.749999
v 1.150889 1.286611 -2.000001
v 1.062500 1.250000 -2.000001
v 1.088389 1.286611 -2.150888
v 1.025889 1.250000 -2.088388
v 0.937500 1.286611 -2.213388
v 0.937500 1.250000 -2.125000
v 0.500000 1.250000 -2.125000
v 0.937500 1.286611 -2.036612
v 0.500000 1.286611 -2.036612
v 0.937500 1.375000 -2.000000
v 0.963389 1.286611 -2.025888
v 0.937500 1.375000 -2.000001
v 0.974112 1.286611 -2.000001
v 0.937500 1.375000 -2.000001
v 0.974112 1.286611 1.749999
v 0.937500 1.375000 1.749999
v 0.974112 1.463388 1.749999
v 0.974112 1.463388 -2.000001
v 0.963389 1.463388 -2.025888
v 0.937500 1.463388 -2.036612
v 0.500000 1.463388 -2.036612
v 0.500000 1.375000 -2.000000
v 0.500000 1.625000 -2.250000
v 0.500000 1.536611 -2.213388
v 0.937500 1.625000 -2.250000
v 0.500000 1.713388 -2.213388
v 0.500000 1.750000 -2.125000
v 0.937500 1.713388 -2.213388
v 0.937500 1.750000 -2.125000
v 1.088389 1.713388 -2.150888
v 1.025889 1.750000 -2.088388
v 1.114277 1.625000 -2.176777
v 1.150889 1.713388 -2.000001
v 1.062500 1.750000 -2.000001
v 1.187500 1.625000 -2.000001
v 1.150889 1.713388 1.749999
v 1.062500 1.750000 1.749999
v 1.187500 1.625000 1.749999
v 1.150889 1.536611 1.749999
v 1.062500 1.500000 1.749999
v 1.150889 1.536611 -2.000001
v 1.062500 1.500000 -2.000001
v 1.088389 1.536611 -2.150888
v 1.025889 1.500000 -2.088388
v 0.937500 1.536611 -2.213388
v 0.937500 1.500000 -2.125000
v 0.500000 1.500000 -2.125000
v 0.937500 1.536611 -2.036612
v 0.500000 1.536611 -2.036612
v 0.937500 1.625000 -2.000000
v 0.963389 1.536611 -2.025888
v 0.937500 1.625000 -2.000001
v 0.974112 1.536611 -2.000001
v 0.937500 1.625000 -2.000001
v 0.974112 1.536611 1.749999
v 0.937500 1.625000 1.749999
v 0.974112 1.713388 1.749999
v 0.974112 1.713388 -2.000001
v 0.963389 1.713388 -2.025888
v 0.937500 1.713388 -2.036612
v 0.500000 1.713388 -2.036612
v 0.500000 1.625000 -2.000000
v -0.500000 1.250000 2.750000
v -0.250000 1.000000 2.750000
v -0.250000 2.000000 2.750000
v -0.500000 1.750000 2.750000
v -0.250000 1.000000 -2.500000
v -0.500000 1.250000 -2.500000
v -0.500000 1.750000 -2.500000
v -0.250000 2.000000 -2.500000
v 0.250000 1.000000 2.750000
v 0.500000 1.250000 2.750000
v 0.500000 1.750000 2.750000
v 0.250000 2.000000 2.750000
v 0.500000 1.250000 -2.500000
v 0.250000 1.000000 -2.500000
v 0.250000 2.000000 -2.500000
v 0.500000 1.750000 -2.500000
v -1.500000 -0.000000 4.500000
v -1.500000 -0.000000 2.750000
v -1.500000 3.000000 4.500000
v 1.500000 0.000000 4.500000
v 1.500000 0.000000 2.750000
v 1.500000 3.000000 4.500000
v 1.500000 3.000000 2.750000
v -1.500000 3.000000 2.750000
v 0.125000 2.000000 -2.250000
v 0.213389 2.000000 -2.213388
v 0.125000 2.437500 -2.250000
v 0.036612 2.000000 -2.213388
v 0.000000 2.000000 -2.125000
v 0.036612 2.437500 -2.213388
v 0.000000 2.437500 -2.125000
v 0.036612 2.588388 -2.150888
v 0.000000 2.525888 -2.088388
v 0.125000 2.614277 -2.176777
v 0.036612 2.650888 -2.000001
v 0.000000 2.562500 -2.000001
v 0.125000 2.687500 -2.000001
v 0.036612 2.650889 1.749999
v 0.000000 2.562500 1.749999
v 0.125000 2.687500 1.749999
v 0.213389 2.650889 1.749999
v 0.250000 2.562500 1.749999
v 0.213389 2.650888 -2.000001
v 0.250000 2.562500 -2.000001
v 0.213389 2.588388 -2.150888
v 0.250000 2.525888 -2.088388
v 0.213389 2.437500 -2.213388
v 0.250000 2.437500 -2.125000
v 0.250000 2.000000 -2.125000
v 0.213389 2.437500 -2.036612
v 0.213389 2.000000 -2.036612
v 0.125000 2.437500 -2.000000
v 0.213389 2.463388 -2.025888
v 0.125000 2.437500 -2.000001
v 0.213389 2.474112 -2.000001
v 0.125000 2.437500 -2.000001
v 0.213389 2.474112 1.749999
v 0.125000 2.437500 1.749999
v 0.036612 2.474112 1.749999
v 0.036612 2.474112 -2.000001
v 0.036612 2.463388 -2.025888
v 0.036612 2.437500 -2.036612
v 0.036612 2.000000 -2.036612
v 0.125000 2.000000 -2.000000
v -0.125000 2.000000 -2.250000
v -0.036611 2.000000 -2.213388
v -0.125000 2.437500 -2.250000
v -0.213388 2.000000 -2.213388
v -0.250000 2.000000 -2.125000
v -0.213388 2.437500 -2.213388
v -0.250000 2.437500 -2.125000
v -0.213388 2.588388 -2.150888
v -0.250000 2.525888 -2.088388
v -0.125000 2.614277 -2.176777
v -0.213388 2.650888 -2.000001
v -0.250000 2.562500 -2.000001
v -0.125000 2.687500 -2.000001
v -0.213388 2.650889 1.749999
v -0.250000 2.562500 1.749999
v -0.125000 2.687500 1.749999
v -0.036611 2.650889 1.749999
v 0.000000 2.562500 1.749999
v -0.036611 2.650888 -2.000001
v 0.000000 2.562500 -2.000001
v -0.036611 2.588388 -2.150888
v 0.000000 2.525888 -2.088388
v -0.036611 2.437500 -2.213388
v 0.000000 2.437500 -2.125000
v 0.000000 2.000000 -2.125000
v -0.036611 2.437500 -2.036612
v -0.036611 2.000000 -2.036612
v -0.125000 2.437500 -2.000000
v -0.036611 2.463388 -2.025888
v -0.125000 2.437500 -2.000001
v -0.036611 2.474112 -2.000001
v -0.125000 2.437500 -2.000001
v -0.036611 2.474112 1.749999
v -0.125000 2.437500 1.749999
v -0.213388 2.474112 1.749999
v -0.213388 2.474112 -2.000001
v -0.213388 2.463388 -2.025888
v -0.213388 2.437500 -2.036612
v -0.213388 2.000000 -2.036612
v -0.125000 2.000000 -2.000000
v -0.500000 1.625000 -2.250000
v -0.500000 1.713388 -2.213388
v -0.937500 1.625000 -2.250000
v -0.500000 1.536612 -2.213388
v -0.500000 1.500000 -2.125000
v -0.937500 1.536612 -2.213388
v -0.937500 1.500000 -2.125000
v -1.088388 1.536612 -2.150888
v -1.025888 1.500000 -2.088388
v -1.114277 1.625000 -2.176777
v -1.150888 1.536612 -2.000001
v -1.062500 1.500000 -2.000001
v -1.187500 1.625000 -2.000001
v -1.150888 1.536612 1.749999
v -1.062501 1.500000 1.749999
v -1.187501 1.625000 1.749999
v -1.150888 1.713388 1.749999
v -1.062501 1.750000 1.749999
v -1.150888 1.713388 -2.000001
v -1.062500 1.750000 -2.000001
v -1.088388 1.713388 -2.150888
v -1.025888 1.750000 -2.088388
v -0.937500 1.713388 -2.213388
v -0.937500 1.750000 -2.125000
v -0.500000 1.750000 -2.125000
v -0.937500 1.713388 -2.036612
v -0.500000 1.713388 -2.036612
v -0.937500 1.625000 -2.000000
v -0.963388 1.713388 -2.025888
v -0.937500 1.625000 -2.000001
v -0.974111 1.713388 -2.000001
v -0.937500 1.625000 -2.000001
v -0.974112 1.713388 1.749999
v -0.937501 1.625000 1.749999
v -0.974112 1.536612 1.749999
v -0.974111 1.536612 -2.000001
v -0.963388 1.536612 -2.025888
v -0.937500 1.536612 -2.036612
v -0.500000 1.536612 -2.036612
v -0.500000 1.625000 -2.000000
v -0.500000 1.375000 -2.250000
v -0.500000 1.463388 -2.213388
v -0.937500 1.375000 -2.250000
v -0.500000 1.286612 -2.213388
v -0.500000 1.250000 -2.125000
v -0.937500 1.286612 -2.213388
v -0.937500 1.250000 -2.125000
v -1.088388 1.286612 -2.150888
v -1.025888 1.250000 -2.088388
v -1.114277 1.375000 -2.176777
v -1.150888 1.286612 -2.000001
v -1.062500 1.250000 -2.000001
v -1.187500 1.375000 -2.000001
v -1.150888 1.286612 1.749999
v -1.062501 1.250000 1.749999
v -1.187501 1.375000 1.749999
v -1.150888 1.463388 1.749999
v -1.062501 1.500000 1.749999
v -1.150888 1.463388 -2.000001
v -1.062500 1.500000 -2.000001
v -1.088388 1.463388 -2.150888
v -1.025888 1.500000 -2.088388
v -0.937500 1.463388 -2.213388
v -0.937500 1.500000 -2.125000
v -0.500000 1.500000 -2.125000
v -0.937500 1.463388 -2.036612
v -0.500000 1.463388 -2.036612
v -0.937500 1.375000 -2.000000
v -0.963388 1.463388 -2.025888
v -0.937500 1.375000 -2.000001
v -0.974111 1.463388 -2.000001
v -0.937500 1.375000 -2.000001
v -0.974112 1.463388 1.749999
v -0.937501 1.375000 1.749999
v -0.974112 1.286612 1.749999
v -0.974111 1.286612 -2.000001
v -0.963388 1.286612 -2.025888
v -0.937500 1.286612 -2.036612
v -0.500000 1.286612 -2.036612
v -0.500000 1.375000 -2.000000
v 1.022749 2.779031 2.750000
v 1.022749 2.779031 -1.687500
v 0.934361 2.690643 2.750000
v 1.108178 2.693603 2.750000
v 1.193604 2.608176 2.750000
v 1.019789 2.605215 2.750000
v 1.108178 2.693603 -1.687500
v 1.108178 2.693603 -0.437500
v 1.193604 2.608176 -0.437500
v 1.019789 2.605215 -0.562500
v 1.105215 2.519788 -0.562500
v 1.019789 2.605215 -1.812500
v 0.934361 2.690643 -1.812500
v 1.105215 2.519788 2.750000
v 1.105215 2.519788 0.687500
v 1.190642 2.434360 0.687500
v 1.193604 2.608176 0.812500
v 1.279030 2.522748 0.812500
v 1.279030 2.522748 2.750000
v 1.190642 2.434360 2.750000
v 1.250000 0.187500 2.750000
v 1.338388 0.224112 2.750000
v 1.250000 0.187500 -1.375000
v 1.161612 0.224112 2.750000
v 1.125000 0.312500 2.750000
v 1.161612 0.224111 -1.375000
v 1.125000 0.312500 -1.375000
v 1.161612 0.286611 -1.525888
v 1.125000 0.349111 -1.463388
v 1.250000 0.260723 -1.551777
v 1.161612 0.437500 -1.588388
v 1.125000 0.437500 -1.500000
v 1.250000 0.437500 -1.625000
v 1.161612 0.750000 -1.588388
v 1.125000 0.750000 -1.500000
v 1.250000 0.750000 -1.625000
v 1.338389 0.750000 -1.588388
v 1.375000 0.750000 -1.500000
v 1.338389 0.437500 -1.588388
v 1.375000 0.437500 -1.500000
v 1.338388 0.286611 -1.525888
v 1.375000 0.349111 -1.463388
v 1.338388 0.224112 -1.375000
v 1.375000 0.312500 -1.375000
v 1.375000 0.312500 2.750000
v 1.338389 0.400888 -1.375000
v 1.338389 0.400888 2.750000
v 1.250000 0.437500 -1.375000
v 1.338389 0.411611 -1.400888
v 1.250000 0.437500 -1.375000
v 1.338389 0.437500 -1.411612
v 1.250000 0.437500 -1.375000
v 1.338389 0.750000 -1.411612
v 1.250000 0.750000 -1.375000
v 1.161612 0.750000 -1.411612
v 1.161612 0.437500 -1.411612
v 1.161612 0.411611 -1.400888
v 1.161612 0.400888 -1.375000
v 1.161612 0.400888 2.750000
v 1.250000 0.437500 2.750000
v 1.250000 0.312500 2.125000
v 1.338388 0.312500 2.161612
v 1.250000 0.750000 2.125000
v 1.161612 0.312500 2.161612
v 1.125000 0.312500 2.250000
v 1.161612 0.750000 2.161612
v 1.125000 0.750000 2.250000
v 1.161612 0.750000 2.338388
v 1.250000 0.750000 2.375000
v 1.161612 0.312500 2.338388
v 1.250000 0.312500 2.375000
v 1.338388 0.312500 2.338388
v 1.375000 0.312500 2.250000
v 1.338389 0.750000 2.338388
v 1.375000 0.750000 2.250000
v 1.338389 0.750000 2.161612
v 1.250000 0.312500 0.875000
v 1.338388 0.312500 0.911612
v 1.250000 0.750000 0.875000
v 1.161612 0.312500 0.911612
v 1.125000 0.312500 1.000000
v 1.161612 0.750000 0.911612
v 1.125000 0.750000 1.000000
v 1.161612 0.750000 1.088388
v 1.250000 0.750000 1.125000
v 1.161612 0.312500 1.088388
v 1.250000 0.312500 1.125000
v 1.338388 0.312500 1.088388
v 1.375000 0.312500 1.000000
v 1.338389 0.750000 1.088388
v 1.375000 0.750000 1.000000
v 1.338389 0.750000 0.911612
v 1.250000 0.312500 -0.375000
v 1.338388 0.312500 -0.338388
v 1.250000 0.750000 -0.375000
v 1.161612 0.312500 -0.338388
v 1.125000 0.312500 -0.250000
v 1.161612 0.750000 -0.338388
v 1.125000 0.750000 -0.250000
v 1.161612 0.750000 -0.161612
v 1.250000 0.750000 -0.125000
v 1.161612 0.312500 -0.161612
v 1.250000 0.312500 -0.125000
v 1.338388 0.312500 -0.161612
v 1.375000 0.312500 -0.250000
v 1.338389 0.750000 -0.161612
v 1.375000 0.750000 -0.250000
v 1.338389 0.750000 -0.338388
v -0.625000 1.237437 -1.000000
v -0.262563 0.875000 -1.000000
v -0.625000 1.762563 -1.000000
v -1.500000 0.875000 -1.000000
v -0.625000 1.237437 -2.000000
v -0.262563 0.875000 -2.000000
v -0.625000 1.762563 -2.000000
v -1.500000 0.875000 -2.000000
v -0.625000 0.000000 -2.000000
v -1.500000 2.125000 -2.000000
v -0.625000 3.000000 -2.000000
v -1.500000 2.125000 -1.000000
v -0.625000 3.000000 -1.000000
v 0.625000 3.000000 -1.000000
v -0.262563 2.125000 -1.000000
v 0.262563 2.125000 -1.000000
v -0.262563 2.125000 -2.000000
v 0.262563 2.125000 -2.000000
v 0.625000 1.762563 -2.000000
v 0.625000 3.000000 -2.000000
v 1.500000 2.125000 -2.000000
v 1.500000 2.125000 -1.000000
v 1.500000 0.875000 -2.000000
v 0.625000 -0.000000 -2.000000
v 1.500000 0.875000 -1.000000
v 0.625000 1.237437 -2.000000
v 0.262564 0.875000 -2.000000
v 0.625000 1.237437 -1.000000
v 0.262564 0.875000 -1.000000
v 0.625000 1.762563 -1.000000
v 0.625000 -0.000000 -1.000000
v -0.625000 0.000000 -1.000000
v -0.625000 0.000000 2.750000
v 0.625000 -0.000000 2.750000
v 0.625000 1.762563 2.750000
v 0.262564 0.875000 2.750000
v 0.625000 1.237437 2.750000
v 0.262564 0.875000 1.750000
v 0.625000 1.237437 1.750000
v 1.500000 0.875000 2.750000
v 0.625000 -0.000000 1.750000
v 1.500000 0.875000 1.750000
v 1.500000 2.125000 2.750000
v 1.500000 2.125000 1.750000
v 0.625001 3.000000 1.750000
v 0.625000 1.762563 1.750000
v 0.262563 2.125000 1.750000
v -0.262563 2.125000 1.750000
v 0.262563 2.125000 2.750000
v -0.262563 2.125000 2.750000
v 0.625001 3.000000 2.750000
v -0.624999 3.000000 2.750000
v -1.500000 2.125000 2.750000
v -0.624999 3.000000 1.750000
v -1.500000 2.125000 1.750000
v -0.625000 0.000000 1.750000
v -1.500000 0.875000 1.750000
v -0.625000 1.762563 1.750000
v -0.262563 0.875000 1.750000
v -0.625000 1.237437 1.750000
v -1.500000 0.875000 2.750000
v -0.625000 1.762563 2.750000
v -0.262563 0.875000 2.750000
v -0.625000 1.237437 2.750000
v -0.625000 1.237437 1.500000
v -0.262563 0.875000 1.500000
v -0.625000 1.762563 1.500000
v -1.500000 0.875000 1.500000
v -0.625000 1.237437 0.500000
v -0.262563 0.875000 0.500000
v -0.625000 1.762563 0.500000
v -1.500000 0.875000 0.500000
v -0.625000 0.000000 0.500000
v -1.500000 2.125000 0.500000
v -0.624999 3.000000 0.500000
v -1.500000 2.125000 1.500000
v -0.624999 3.000000 1.500000
v 0.625001 3.000000 1.500000
v -0.262563 2.125000 1.500000
v 0.262563 2.125000 1.500000
v -0.262563 2.125000 0.500000
v 0.262563 2.125000 0.500000
v 0.625000 1.762563 0.500000
v 0.625001 3.000000 0.500000
v 1.500000 2.125000 0.500000
v 1.500000 2.125000 1.500000
v 1.500000 0.875000 0.500000
v 0.625000 -0.000000 0.500000
v 1.500000 0.875000 1.500000
v 0.625000 1.237437 0.500000
v 0.262564 0.875000 0.500000
v 0.625000 1.237437 1.500000
v 0.262564 0.875000 1.500000
v 0.625000 1.762563 1.500000
v 0.625000 -0.000000 1.500000
v -0.625000 0.000000 1.500000
v -0.625000 0.000000 0.250000
v 0.625000 -0.000000 0.250000
v 0.625000 1.762563 0.250000
v 0.262564 0.875000 0.250000
v 0.625000 1.237437 0.250000
v 0.262564 0.875000 -0.750000
v 0.625000 1.237437 -0.750000
v 1.500000 0.875000 0.250000
v 0.625000 -0.000000 -0.750000
v 1.500000 0.875000 -0.750000
v 1.500000 2.125000 0.250000
v 1.500000 2.125000 -0.750000
v 0.625001 3.000000 -0.750000
v 0.625000 1.762563 -0.750000
v 0.262563 2.125000 -0.750000
v -0.262563 2.125000 -0.750000
v 0.262563 2.125000 0.250000
v -0.262563 2.125000 0.250000
v 0.625001 3.000000 0.250000
v -0.624999 3.000000 0.250000
v -1.500000 2.125000 0.250000
v -0.624999 3.000000 -0.750000
v -1.500000 2.125000 -0.750000
v -0.625000 0.000000 -0.750000
v -1.500000 0.875000 -0.750000
v -0.625000 1.762563 -0.750000
v -0.262563 0.875000 -0.750000
v -0.625000 1.237437 -0.750000
v -1.500000 0.875000 0.250000
v -0.625000 1.762563 0.250000
v -0.262563 0.875000 0.250000
v -0.625000 1.237437 0.250000
v -1.022749 2.779031 2.750000
v -1.022749 2.779031 -1.687500
v -0.934361 2.690643 2.750000
v -1.108177 2.693603 2.750000
v -1.193603 2.608176 2.750000
v -1.019787 2.605215 2.750000
v -1.108177 2.693603 -1.687500
v -1.108177 2.693603 -0.437500
v -1.193603 2.608176 -0.437500
v -1.019787 2.605215 -0.562500
v -1.105215 2.519788 -0.562500
v -1.019787 2.605215 -1.812500
v -0.934361 2.690643 -1.812500
v -1.105215 2.519788 2.750000
v -1.105215 2.519788 0.687500
v -1.190642 2.434360 0.687500
v -1.193603 2.608176 0.812500
v -1.279030 2.522748 0.812500
v -1.279030 2.522748 2.750000
v -1.190642 2.434360 2.750000
v -1.250000 0.187500 2.750000
v -1.338388 0.224112 2.750000
v -1.250000 0.187500 -1.375000
v -1.161612 0.224112 2.750000
v -1.125000 0.312500 2.750000
v -1.161612 0.224112 -1.375000
v -1.125000 0.312500 -1.375000
v -1.161612 0.286611 -1.525888
v -1.125000 0.349111 -1.463388
v -1.250000 0.260723 -1.551777
v -1.161611 0.437500 -1.588388
v -1.125000 0.437500 -1.500000
v -1.250000 0.437500 -1.625000
v -1.161611 0.750000 -1.588388
v -1.125000 0.750000 -1.500000
v -1.250000 0.750000 -1.625000
v -1.338388 0.750000 -1.588388
v -1.375000 0.750000 -1.500000
v -1.338388 0.437500 -1.588388
v -1.375000 0.437500 -1.500000
v -1.338388 0.286611 -1.525888
v -1.375000 0.349111 -1.463388
v -1.338388 0.224112 -1.375000
v -1.375000 0.312500 -1.375000
v -1.375000 0.312500 2.750000
v -1.338388 0.400888 -1.375000
v -1.338388 0.400888 2.750000
v -1.250000 0.437500 -1.375000
v -1.338388 0.411611 -1.400888
v -1.250000 0.437500 -1.375000
v -1.338388 0.437500 -1.411612
v -1.250000 0.437500 -1.375000
v -1.338388 0.750000 -1.411612
v -1.250000 0.750000 -1.375000
v -1.161611 0.750000 -1.411612
v -1.161611 0.437500 -1.411612
v -1.161611 0.411611 -1.400888
v -1.161611 0.400888 -1.375000
v -1.161611 0.400889 2.750000
v -1.250000 0.437500 2.750000
v -1.250000 0.312500 2.125000
v -1.338388 0.312500 2.161612
v -1.250000 0.750000 2.125000
v -1.161612 0.312500 2.161612
v -1.125000 0.312500 2.250000
v -1.161611 0.750000 2.161612
v -1.125000 0.750000 2.250000
v -1.161611 0.750000 2.338388
v -1.250000 0.750000 2.375000
v -1.161612 0.312500 2.338388
v -1.250000 0.312500 2.375000
v -1.338388 0.312500 2.338388
v -1.375000 0.312500 2.250000
v -1.338388 0.750000 2.338388
v -1.375000 0.750000 2.250000
v -1.338388 0.750000 2.161612
v -1.250000 0.312500 0.875000
v -1.338388 0.312500 0.911612
v -1.250000 0.750000 0.875000
v -1.161612 0.312500 0.911612
v -1.125000 0.312500 1.000000
v -1.161611 0.750000 0.911612
v -1.125000 0.750000 1.000000
v -1.161611 0.750000 1.088388
v -1.250000 0.750000 1.125000
v -1.161612 0.312500 1.088388
v -1.250000 0.312500 1.125000
v -1.338388 0.312500 1.088388
v -1.375000 0.312500 1.000000
v -1.338388 0.750000 1.088388
v -1.375000 0.750000 1.000000
v -1.338388 0.750000 0.911612
v -1.250000 0.312500 -0.375000
v -1.338388 0.312500 -0.338388
v -1.250000 0.750000 -0.375000
v -1.161612 0.312500 -0.338388
v -1.125000 0.312500 -0.250000
v -1.161611 0.750000 -0.338388
v -1.125000 0.750000 -0.250000
v -1.161611 0.750000 -0.161612
v -1.250000 0.750000 -0.125000
v -1.161612 0.312500 -0.161612
v -1.250000 0.312500 -0.125000
v -1.338388 0.312500 -0.161612
v -1.375000 0.312500 -0.250000
v -1.338388 0.750000 -0.161612
v -1.375000 0.750000 -0.250000
v -1.338388 0.750000 -0.338388
v -1.281250 3.000000 4.125000
v -1.156250 3.125000 4.125000
v -1.281250 3.000000 3.125000
v -1.156250 3.125000 3.125000
v 1.156250 3.125000 4.125000
v 1.156250 3.125000 3.125000
v 1.281250 3.000000 4.125000
v 1.281250 3.000000 3.125000
v 1.281250 -0.000000 4.125000
v 1.156250 -0.125000 4.125000
v 1.281250 -0.000000 3.125000
v 1.156250 -0.125000 3.125000
v -1.156250 -0.125000 4.125000
v -1.156250 -0.125000 3.125000
v -1.281250 0.000000 4.125000
v -1.281250 0.000000 3.125000
v -1.281250 3.000000 4.125000
v -1.156250 3.125000 4.125000
v -1.281250 3.000000 3.125000
v -1.156250 3.125000 3.125000
v 1.156250 3.125000 4.125000
v 1.156250 3.125000 3.125000
v 1.281250 3.000000 4.125000
v 1.281250 3.000000 3.125000
v 1.281250 -0.000000 4.125000
v 1.156250 -0.125000 4.125000
v 1.281250 -0.000000 3.125000
v 1.156250 -0.125000 3.125000
v -1.156250 -0.125000 4.125000
v -1.156250 -0.125000 3.125000
v -1.281250 0.000000 4.125000
v -1.281250 0.000000 3.125000
vn -0.0000 -0.1866 -0.9824
vn -0.7071 -0.0000 -0.7071
vn -0.0000 -0.0000 -1.0000
vn 0.6794 -0.1448 -0.7194
vn 0.7071 -0.0000 -0.7071
vn 0.9987 -0.0196 -0.0473
vn 1.0000 -0.0000 -0.0000
vn 0.6630 -0.5294 -0.5294
vn -0.0000 -0.7071 -0.7071
vn 0.9987 -0.0473 -0.0196
vn 0.6794 -0.7194 -0.1448
vn -0.0000 -0.9824 -0.1866
vn 0.7071 -0.7071 -0.0000
vn -0.0000 -1.0000 -0.0000
vn -0.7071 -0.7071 -0.0000
vn -0.6794 -0.7194 -0.1448
vn -1.0000 -0.0000 -0.0000
vn -0.9987 -0.0473 -0.0196
vn -0.6630 -0.5293 -0.5294
vn -0.9955 -0.0671 -0.0671
vn -0.6794 -0.1448 -0.7194
vn -0.9987 -0.0196 -0.0473
vn -0.7071 -0.0000 0.7071
vn -0.7574 0.4617 0.4618
vn -0.7263 0.1363 0.6737
vn -0.0000 -0.0000 1.0000
vn 0.1062 -0.5791 0.8083
vn 0.1844 -0.7828 0.5943
vn -0.7263 0.6737 0.1363
vn -0.0025 0.6794 0.7337
vn -0.7071 0.7071 -0.0000
vn -0.0000 1.0000 -0.0000
vn 0.7071 0.7071 -0.0000
vn 0.7263 0.6737 0.1363
vn 0.7574 0.4617 0.4618
vn 0.9955 -0.0671 -0.0671
vn 0.7263 0.1363 0.6737
vn 0.7071 -0.0000 0.7071
vn 0.1881 -0.7822 0.5939
vn 0.0025 0.6794 0.7337
vn 0.1866 -0.0000 -0.9824
vn 0.1448 0.6794 -0.7194
vn -0.0000 0.7071 -0.7071
vn 0.0196 0.9987 -0.0473
vn 0.0671 0.9955 -0.0671
vn 0.5294 0.6630 -0.5294
vn 0.0473 0.9987 -0.0196
vn 0.7194 0.6794 -0.1448
vn 0.9824 -0.0000 -0.1866
vn 0.7194 -0.6794 -0.1448
vn 0.0473 -0.9987 -0.0196
vn 0.5294 -0.6630 -0.5294
vn 0.0671 -0.9955 -0.0671
vn 0.1448 -0.6794 -0.7194
vn 0.0196 -0.9987 -0.0473
vn -0.0000 -0.7071 0.7071
vn -0.4617 -0.7574 0.4617
vn -0.1363 -0.7263 0.6737
vn 0.5854 0.0864 0.8062
vn 0.7962 -0.5989 0.0855
vn -0.6737 -0.7263 0.1363
vn -0.7204 -0.6931 0.0240
vn -0.6737 0.7263 0.1363
vn -0.4617 0.7574 0.4617
vn -0.1362 0.7263 0.6737
vn -0.0000 0.7071 0.7071
vn -0.0000 0.1866 -0.9824
vn -0.6794 0.1448 -0.7194
vn -0.9987 0.0196 -0.0473
vn -0.9955 0.0671 -0.0671
vn -0.6630 0.5294 -0.5294
vn -0.9987 0.0473 -0.0196
vn -0.6794 0.7194 -0.1448
vn -0.0000 0.9824 -0.1866
vn 0.6794 0.7194 -0.1448
vn 0.9987 0.0473 -0.0196
vn 0.6630 0.5294 -0.5294
vn 0.9955 0.0671 -0.0671
vn 0.6794 0.1448 -0.7194
vn 0.9987 0.0196 -0.0473
vn 0.7574 -0.4617 0.4618
vn 0.7263 -0.1363 0.6737
vn -0.1219 0.5733 0.8103
vn -0.2016 0.7605 0.6172
vn 0.7263 -0.6737 0.1363
vn -0.0000 -0.6582 0.7528
vn -0.7263 -0.6737 0.1363
vn -0.7573 -0.4617 0.4618
vn -0.7263 -0.1363 0.6737
vn -0.1866 -0.0000 -0.9824
vn -0.1448 -0.6794 -0.7194
vn -0.0196 -0.9987 -0.0473
vn -0.0671 -0.9955 -0.0671
vn -0.5294 -0.6630 -0.5294
vn -0.0473 -0.9987 -0.0196
vn -0.7194 -0.6794 -0.1448
vn -0.9824 -0.0000 -0.1866
vn -0.7194 0.6794 -0.1448
vn -0.0473 0.9987 -0.0196
vn -0.5294 0.6630 -0.5294
vn -0.0671 0.9955 -0.0671
vn -0.1448 0.6794 -0.7194
vn -0.0196 0.9987 -0.0473
vn 0.1363 0.7263 0.6737
vn 0.4617 0.7574 0.4617
vn -0.5854 -0.0864 0.8062
vn -0.6611 -0.7469 0.0710
vn 0.6738 0.7263 0.1363
vn 0.6968 -0.7168 0.0232
vn 0.6737 -0.7263 0.1363
vn 0.4617 -0.7574 0.4617
vn 0.1363 -0.7263 0.6737
vn 0.5000 0.5000 -0.7071
vn -0.6630 -0.5294 -0.5294
vn 0.7574 0.4617 0.4617
vn -0.0533 0.8032 -0.5933
vn -0.1014 -0.6307 -0.7694
vn -0.0240 -0.6931 0.7204
vn -0.7574 0.4617 0.4617
vn -0.5000 0.5000 -0.7071
vn 0.0533 0.8032 -0.5933
vn 0.1014 -0.6307 -0.7694
vn 0.0240 -0.6931 0.7204
vt 0.759184 0.612121
vt 0.767347 0.654545
vt 0.759184 0.654545
vt 0.751020 0.612121
vt 0.751020 0.654545
vt 0.742857 0.612121
vt 0.742857 0.654545
vt 0.775511 0.598485
vt 0.767347 0.610790
vt 0.767347 0.595271
vt 0.759184 0.612121
vt 0.759184 0.593939
vt 0.767348 0.577088
vt 0.775511 0.589394
vt 0.767348 0.592608
vt 0.759184 0.575757
vt 0.759184 0.593939
vt 0.742857 0.575758
vt 0.751020 0.212121
vt 0.751020 0.575758
vt 0.759184 0.212121
vt 0.759184 0.575758
vt 0.767347 0.212121
vt 0.767347 0.575758
vt 0.775510 0.212121
vt 0.775510 0.575758
vt 0.759184 0.575756
vt 0.751020 0.592608
vt 0.751020 0.577088
vt 0.742857 0.589393
vt 0.742856 0.580302
vt 0.759184 0.593938
vt 0.751020 0.610790
vt 0.751020 0.595270
vt 0.742856 0.607575
vt 0.742856 0.598484
vt 0.767347 0.612121
vt 0.775510 0.654545
vt 0.775510 0.612121
vt 0.783673 0.654545
vt 0.734693 0.604361
vt 0.734693 0.601698
vt 0.783673 0.612121
vt 0.791837 0.654545
vt 0.726530 0.603030
vt 0.726531 0.603039
vt 0.734693 0.586179
vt 0.734693 0.583516
vt 0.726531 0.584857
vt 0.726530 0.584848
vt 0.783673 0.212121
vt 0.783673 0.575758
vt 0.791837 0.212121
vt 0.791837 0.575758
vt 0.726531 0.575758
vt 0.734694 0.212121
vt 0.734694 0.575758
vt 0.742857 0.212121
vt 0.783674 0.583517
vt 0.791838 0.584857
vt 0.783674 0.586179
vt 0.775511 0.580303
vt 0.783674 0.601699
vt 0.791838 0.603039
vt 0.783674 0.604361
vt 0.775511 0.607576
vt 0.726531 0.612121
vt 0.734694 0.654545
vt 0.726531 0.654545
vt 0.734694 0.612121
vt 0.759184 0.612121
vt 0.759184 0.593939
vt 1.000000 0.709091
vt 0.657143 0.660606
vt 1.000000 0.660606
vt 1.000000 0.793939
vt 0.657143 0.745455
vt 1.000000 0.745455
vt 0.657143 0.830303
vt 1.000000 0.878788
vt 0.657143 0.878788
vt 0.048980 0.630303
vt 0.000000 0.606061
vt 0.016327 0.533333
vt 0.657143 0.915152
vt 1.000000 0.915152
vt 0.657143 0.793939
vt 1.000000 0.963636
vt 0.657143 1.000000
vt 0.657143 0.963636
vt 0.310204 0.000000
vt 0.114286 0.169697
vt 0.114286 0.000000
vt 0.114286 0.460606
vt 0.000000 0.169697
vt 0.310204 0.169697
vt 0.424490 0.460606
vt 0.424490 0.169697
vt 0.114286 0.630303
vt 0.310204 0.460606
vt 0.310204 0.630303
vt 0.620408 0.460606
vt 0.620408 0.169697
vt 0.318367 0.606061
vt 0.608163 0.618182
vt 0.318367 0.618182
vt 0.318367 0.630303
vt 0.534694 0.593939
vt 0.608163 0.606061
vt 0.526531 0.606061
vt 0.318367 0.563636
vt 0.526531 0.575758
vt 0.318367 0.575758
vt 0.616327 0.593939
vt 0.526531 0.563636
vt 0.534694 0.575758
vt 0.534694 0.539394
vt 0.318367 0.551515
vt 0.318367 0.539394
vt 0.616327 0.581818
vt 0.318367 0.593939
vt 0.318367 0.581818
vt 0.616327 0.606061
vt 0.616327 0.618182
vt 0.453061 0.551515
vt 0.534694 0.551515
vt 0.453061 0.496970
vt 0.318367 0.509091
vt 0.318367 0.496970
vt 0.444898 0.521212
vt 0.453061 0.533333
vt 0.444898 0.533333
vt 0.318367 0.521212
vt 0.318367 0.533333
vt 0.689796 0.539394
vt 0.681633 0.139394
vt 0.689796 0.139394
vt 0.697959 0.539394
vt 0.697959 0.139394
vt 0.706122 0.539394
vt 0.706122 0.139394
vt 0.697959 0.540726
vt 0.706123 0.553031
vt 0.697959 0.556245
vt 0.689796 0.539395
vt 0.689796 0.557577
vt 0.697959 0.558907
vt 0.706123 0.571212
vt 0.697959 0.574426
vt 0.689796 0.557575
vt 0.689796 0.575757
vt 0.697959 0.575758
vt 0.706122 0.606061
vt 0.697959 0.606061
vt 0.689796 0.575758
vt 0.689796 0.606061
vt 0.681633 0.606061
vt 0.681633 0.575758
vt 0.673469 0.606061
vt 0.673469 0.575758
vt 0.689796 0.557578
vt 0.681633 0.574426
vt 0.681633 0.558909
vt 0.673471 0.571212
vt 0.673471 0.562123
vt 0.689796 0.539394
vt 0.681633 0.556243
vt 0.681633 0.540726
vt 0.673471 0.553029
vt 0.673471 0.543939
vt 0.681633 0.539394
vt 0.673469 0.139394
vt 0.673469 0.539394
vt 0.665306 0.139394
vt 0.665308 0.549816
vt 0.665308 0.547153
vt 0.665306 0.539394
vt 0.657143 0.139394
vt 0.657142 0.548476
vt 0.657147 0.548485
vt 0.665309 0.565336
vt 0.665309 0.567999
vt 0.657142 0.566659
vt 0.657148 0.566668
vt 0.665306 0.606061
vt 0.665306 0.575758
vt 0.657143 0.575758
vt 0.657143 0.606061
vt 0.722449 0.575758
vt 0.714286 0.606061
vt 0.714286 0.575758
vt 0.706122 0.575758
vt 0.714286 0.565335
vt 0.722449 0.566666
vt 0.714286 0.567998
vt 0.706123 0.562121
vt 0.714286 0.547154
vt 0.722450 0.548495
vt 0.714286 0.549817
vt 0.706123 0.543940
vt 0.722449 0.539394
vt 0.714286 0.139394
vt 0.722449 0.139394
vt 0.714286 0.539394
vt 0.665306 0.654545
vt 0.657143 0.612121
vt 0.665306 0.612121
vt 0.722449 0.654545
vt 0.714286 0.612121
vt 0.722449 0.612121
vt 0.714286 0.654545
vt 0.706122 0.612121
vt 0.706122 0.654545
vt 0.697959 0.612121
vt 0.689796 0.654545
vt 0.689796 0.612121
vt 0.681633 0.612121
vt 0.681633 0.654545
vt 0.673469 0.612121
vt 0.673469 0.654545
vt 0.466127 0.636364
vt 0.408163 0.721212
vt 0.431833 0.636364
vt 0.428571 1.000000
vt 0.469388 0.903030
vt 0.469388 1.000000
vt 0.350200 0.636364
vt 0.326531 0.721212
vt 0.346939 1.000000
vt 0.387755 0.903030
vt 0.387755 1.000000
vt 0.466127 0.903030
vt 0.408163 0.818182
vt 0.489796 0.818182
vt 0.350200 0.903030
vt 0.384494 0.903030
vt 0.408163 0.721212
vt 0.408163 0.818182
vt 0.326531 0.818182
vt 0.244898 0.721212
vt 0.302861 0.903030
vt 0.244898 0.818182
vt 0.302861 0.636364
vt 0.268567 0.636364
vt 0.163265 0.818182
vt 0.221229 0.636364
vt 0.163265 0.721212
vt 0.186935 0.636364
vt 0.265306 1.000000
vt 0.306122 0.903030
vt 0.306122 1.000000
vt 0.183673 1.000000
vt 0.224490 0.903030
vt 0.224490 1.000000
vt 0.221229 0.903030
vt 0.139596 0.903030
vt 0.081633 0.818182
vt 0.102041 1.000000
vt 0.142857 0.903030
vt 0.142857 1.000000
vt 0.081633 0.721212
vt 0.000000 0.818182
vt 0.023669 0.903030
vt 0.057963 0.903030
vt 0.653061 0.818182
vt 0.571429 0.721212
vt 0.653061 0.721212
vt 0.629392 0.903030
vt 0.571429 0.818182
vt 0.591837 1.000000
vt 0.632653 0.903030
vt 0.632653 1.000000
vt 0.020408 1.000000
vt 0.061224 0.903030
vt 0.061224 1.000000
vt 0.629392 0.636364
vt 0.595098 0.636364
vt 0.023669 0.636364
vt 0.000000 0.721212
vt 0.139596 0.636364
vt 0.105302 0.636364
vt 0.510204 1.000000
vt 0.551020 0.903030
vt 0.551020 1.000000
vt 0.547759 0.636364
vt 0.489796 0.721212
vt 0.513465 0.636364
vt 0.547759 0.903030
vt 0.914286 0.351515
vt 0.995918 0.448485
vt 0.914286 0.448485
vt 0.384494 0.636364
vt 0.431833 0.903030
vt 0.995918 0.345455
vt 0.914286 0.248485
vt 0.995918 0.248485
vt 0.914286 0.454545
vt 0.995918 0.551515
vt 0.914286 0.551515
vt 0.914286 0.557576
vt 0.995918 0.654545
vt 0.914286 0.654545
vt 0.995918 0.351515
vt 0.534694 0.563636
vt 0.453061 0.509091
vt 0.767347 0.175758
vt 0.775510 0.206061
vt 0.775510 0.175758
vt 0.759184 0.206061
vt 0.759184 0.175758
vt 0.751020 0.206061
vt 0.751020 0.175758
vt 0.742857 0.206061
vt 0.742857 0.175758
vt 0.734694 0.206061
vt 0.734694 0.175758
vt 0.726531 0.175758
vt 0.783673 0.206061
vt 0.791837 0.175758
vt 0.783673 0.175758
vt 0.722450 0.566657
vt 0.722448 0.548486
vt 0.657143 0.090909
vt 0.665306 0.133333
vt 0.665306 0.090909
vt 0.722449 0.090909
vt 0.714286 0.133333
vt 0.722449 0.133333
vt 0.706122 0.090909
vt 0.714286 0.090909
vt 0.697959 0.090909
vt 0.706122 0.133333
vt 0.689796 0.090909
vt 0.697959 0.133333
vt 0.681633 0.090909
vt 0.689796 0.133333
vt 0.673469 0.090909
vt 0.681633 0.133333
vt 0.673469 0.133333
vt 0.861224 0.418182
vt 0.795918 0.406061
vt 0.861224 0.406061
vt 0.795918 0.642424
vt 0.795918 0.418182
vt 0.861224 0.642424
vt 0.795918 0.654545
vt 0.791837 0.612121
vt 0.726531 0.212121
vt 0.791837 0.584848
vt 0.791837 0.603030
vt 0.657143 0.709091
vt 1.000000 0.830303
vt 0.048980 0.533333
vt 0.065306 0.557576
vt 0.065306 0.606061
vt 0.016327 0.630303
vt 0.000000 0.557576
vt 1.000000 1.000000
vt 0.000000 0.460606
vt 0.616327 0.630303
vt 0.444898 0.563636
vt 0.453061 0.521212
vt 0.689796 0.575757
vt 0.689796 0.557575
vt 0.657143 0.539394
vt 0.722449 0.606061
vt 0.657143 0.654545
vt 0.697959 0.654545
vt 0.428571 0.903030
vt 0.346939 0.903030
vt 0.268567 0.903030
vt 0.265306 0.903030
vt 0.183673 0.903030
vt 0.186935 0.903030
vt 0.105302 0.903030
vt 0.102041 0.903030
vt 0.595098 0.903030
vt 0.591837 0.903030
vt 0.020408 0.903030
vt 0.057963 0.636364
vt 0.510204 0.903030
vt 0.513465 0.903030
vt 0.914286 0.345455
vt 0.995918 0.454545
vt 0.995918 0.557576
vt 0.767347 0.206061
vt 0.726531 0.206061
vt 0.791837 0.206061
vt 0.657143 0.133333
vt 0.861224 0.654545
s 1
usemtl Texture
f 3/1/1 2/2/2 1/3/3
f 6/4/4 1/3/3 4/5/5
f 7/6/6 4/5/5 5/7/7
f 7/8/6 8/9/8 6/10/4
f 6/10/4 10/11/9 3/12/1
f 8/13/8 12/14/10 11/15/11
f 10/16/9 11/15/11 13/17/12
f 12/18/10 14/19/13 11/20/11
f 11/20/11 16/21/14 13/22/12
f 13/22/12 17/23/15 19/24/16
f 19/24/16 18/25/17 20/26/18
f 10/27/9 19/28/16 21/29/19
f 21/29/19 20/30/18 22/31/20
f 3/32/1 21/33/19 23/34/21
f 23/34/21 22/35/20 24/36/22
f 23/37/21 25/38/17 2/2/2
f 24/39/22 27/40/23 25/38/17
f 24/36/22 29/41/24 26/42/25
f 26/43/25 40/44/26 27/40/23
f 28/45/27 29/41/24 30/46/28
f 22/31/20 31/47/29 29/48/24
f 29/48/24 32/49/30 30/50/28
f 20/26/18 33/51/31 31/52/29
f 31/52/29 34/53/32 32/54/30
f 32/55/30 35/56/33 36/57/34
f 36/57/34 15/58/7 12/18/10
f 37/59/35 32/60/30 36/61/34
f 9/62/36 36/61/34 12/14/10
f 38/63/37 30/64/28 37/65/35
f 7/8/6 37/65/35 9/66/36
f 28/67/27 39/68/38 40/69/26
f 38/70/37 5/7/7 39/68/38
f 43/1/1 42/2/2 41/3/3
f 46/4/4 41/3/3 44/5/5
f 47/6/6 44/5/5 45/7/7
f 47/8/6 48/9/8 46/10/4
f 43/12/1 48/9/8 50/11/9
f 48/13/8 52/14/10 51/15/11
f 50/16/9 51/15/11 53/17/12
f 52/18/10 54/19/13 51/20/11
f 51/20/11 56/21/14 53/22/12
f 53/22/12 57/23/15 59/24/16
f 59/24/16 58/25/17 60/26/18
f 50/27/9 59/28/16 61/29/19
f 61/29/19 60/30/18 62/31/20
f 63/34/21 50/71/9 61/33/19
f 64/36/22 61/33/19 62/35/20
f 63/37/21 65/38/17 42/2/2
f 64/39/22 67/40/23 65/38/17
f 64/36/22 69/41/24 66/42/25
f 66/43/25 80/44/26 67/40/23
f 68/45/27 69/41/24 70/46/39
f 62/31/20 71/47/29 69/48/24
f 69/48/24 72/49/40 70/50/39
f 60/26/18 73/51/31 71/52/29
f 71/52/29 74/53/32 72/54/40
f 72/55/40 75/56/33 76/57/34
f 76/57/34 55/58/7 52/18/10
f 77/59/35 72/60/40 76/61/34
f 49/62/36 76/61/34 52/14/10
f 78/63/37 70/64/39 77/65/35
f 47/8/6 77/65/35 49/66/36
f 68/67/27 79/68/38 80/69/26
f 78/70/37 45/7/7 79/68/38
f 83/1/41 82/2/9 81/3/3
f 86/4/42 81/3/3 84/5/43
f 87/6/44 84/5/43 85/7/32
f 86/10/42 89/66/45 88/9/46
f 83/12/41 88/9/46 90/11/5
f 88/13/46 92/14/47 91/15/48
f 88/13/46 93/17/49 90/16/5
f 92/18/47 94/19/33 91/20/48
f 91/20/48 96/21/7 93/22/49
f 93/22/49 97/23/13 99/24/50
f 99/24/50 98/25/14 100/26/51
f 101/29/52 93/72/49 99/28/50
f 101/29/52 100/30/51 102/31/53
f 83/32/41 101/33/52 103/34/54
f 103/34/54 102/35/53 104/36/55
f 103/37/54 105/38/14 82/2/9
f 104/39/55 107/40/56 105/38/14
f 104/36/55 109/41/57 106/42/58
f 106/43/58 120/44/26 107/40/56
f 108/45/59 109/41/57 110/46/60
f 102/31/53 111/47/61 109/48/57
f 110/50/60 111/47/61 112/49/62
f 100/26/51 113/51/15 111/52/61
f 111/52/61 114/53/17 112/54/62
f 112/55/62 115/56/31 116/57/63
f 116/57/63 95/58/32 92/18/47
f 117/59/64 112/60/62 116/61/63
f 89/62/45 116/61/63 92/14/47
f 118/63/65 110/64/60 117/65/64
f 87/8/44 117/65/64 89/66/45
f 120/69/26 118/70/65 119/68/66
f 118/70/65 85/7/32 119/68/66
f 123/1/41 122/2/9 121/3/3
f 126/4/42 121/3/3 124/5/43
f 127/6/44 124/5/43 125/7/32
f 126/10/42 129/66/45 128/9/46
f 123/12/41 128/9/46 130/11/5
f 128/13/46 132/14/47 131/15/48
f 128/13/46 133/17/49 130/16/5
f 132/18/47 134/19/33 131/20/48
f 131/20/48 136/21/7 133/22/49
f 133/22/49 137/23/13 139/24/50
f 139/24/50 138/25/14 140/26/51
f 141/29/52 133/72/49 139/28/50
f 141/29/52 140/30/51 142/31/53
f 123/32/41 141/33/52 143/34/54
f 143/34/54 142/35/53 144/36/55
f 143/37/54 145/38/14 122/2/9
f 144/39/55 147/40/56 145/38/14
f 144/36/55 149/41/57 146/42/58
f 146/43/58 160/44/26 147/40/56
f 148/45/59 149/41/57 150/46/60
f 142/31/53 151/47/61 149/48/57
f 150/50/60 151/47/61 152/49/62
f 140/26/51 153/51/15 151/52/61
f 151/52/61 154/53/17 152/54/62
f 152/55/62 155/56/31 156/57/63
f 156/57/63 135/58/32 132/18/47
f 157/59/64 152/60/62 156/61/63
f 129/62/45 156/61/63 132/14/47
f 158/63/65 150/64/60 157/65/64
f 127/8/44 157/65/64 129/66/45
f 148/67/59 159/68/66 160/69/26
f 158/70/65 125/7/32 159/68/66
s 0
f 176/73/7 170/74/7 173/75/7
f 168/76/32 172/77/32 175/78/32
f 164/79/17 166/80/17 161/81/17
f 168/82/3 176/83/3 174/84/3
f 162/85/15 166/80/15 165/86/15
f 168/76/31 164/79/31 163/87/31
f 174/88/13 170/89/13 169/90/13
f 172/77/33 176/73/33 175/78/33
f 174/88/14 162/85/14 165/86/14
f 181/91/14 177/92/14 178/93/14
f 179/94/17 178/95/17 177/92/17
f 180/96/26 179/94/26 177/92/26
f 183/97/7 180/96/7 181/98/7
f 184/99/32 182/100/32 183/101/32
f 184/102/3 181/98/3 178/103/3
s 1
f 187/1/67 186/2/5 185/3/3
f 190/4/68 185/3/3 188/5/2
f 191/6/69 188/5/2 189/7/17
f 190/10/68 193/66/70 192/9/71
f 190/10/68 194/11/43 187/12/67
f 192/13/71 196/14/72 195/15/73
f 194/16/43 195/15/73 197/17/74
f 196/18/72 198/19/31 195/20/73
f 195/20/73 200/21/32 197/22/74
f 197/22/74 201/23/33 203/24/75
f 203/24/75 202/25/7 204/26/76
f 194/27/43 203/28/75 205/29/77
f 205/29/77 204/30/76 206/31/78
f 187/32/67 205/33/77 207/34/79
f 207/34/79 206/35/78 208/36/80
f 207/37/79 209/38/7 186/2/5
f 208/39/80 211/40/38 209/38/7
f 208/36/80 213/41/81 210/42/82
f 210/43/82 224/44/26 211/40/38
f 212/45/83 213/41/81 214/46/84
f 206/31/78 215/47/85 213/48/81
f 213/48/81 216/49/86 214/50/84
f 204/26/76 217/51/13 215/52/85
f 215/52/85 218/53/14 216/54/86
f 216/55/86 219/56/15 220/57/87
f 220/57/87 199/58/17 196/18/72
f 221/59/88 216/60/86 220/61/87
f 193/62/70 220/61/87 196/14/72
f 222/63/89 214/64/84 221/65/88
f 191/8/69 221/65/88 193/66/70
f 212/67/83 223/68/23 224/69/26
f 222/70/89 189/7/17 223/68/23
f 227/1/67 226/2/5 225/3/3
f 230/4/68 225/3/3 228/5/2
f 231/6/69 228/5/2 229/7/17
f 230/10/68 233/66/70 232/9/71
f 227/12/67 232/9/71 234/11/43
f 232/13/71 236/14/72 235/15/73
f 234/16/43 235/15/73 237/17/74
f 236/18/72 238/19/31 235/20/73
f 235/20/73 240/21/32 237/22/74
f 237/22/74 241/23/33 243/24/75
f 243/24/75 242/25/7 244/26/76
f 234/27/43 243/28/75 245/29/77
f 245/29/77 244/30/76 246/31/78
f 247/34/79 234/71/43 245/33/77
f 247/34/79 246/35/78 248/36/80
f 247/37/79 249/38/7 226/2/5
f 248/39/80 251/40/38 249/38/7
f 248/36/80 253/41/81 250/42/82
f 250/43/82 264/44/26 251/40/38
f 252/45/83 253/41/81 254/46/84
f 246/31/78 255/47/85 253/48/81
f 253/48/81 256/49/86 254/50/84
f 244/26/76 257/51/13 255/52/85
f 255/52/85 258/53/14 256/54/86
f 256/55/86 259/56/15 260/57/87
f 260/57/87 239/58/17 236/18/72
f 261/59/88 256/60/86 260/61/87
f 233/62/70 260/61/87 236/14/72
f 262/63/89 254/64/84 261/65/88
f 231/8/69 261/65/88 233/66/70
f 252/67/83 263/68/23 264/69/26
f 262/70/89 229/7/17 263/68/23
f 267/1/90 266/2/43 265/3/3
f 270/4/91 265/3/3 268/5/9
f 271/6/92 268/5/9 269/7/14
f 270/10/91 273/66/93 272/9/94
f 267/12/90 272/9/94 274/11/2
f 272/13/94 276/14/95 275/15/96
f 272/13/94 277/17/97 274/16/2
f 276/18/95 278/19/15 275/20/96
f 275/20/96 280/21/17 277/22/97
f 277/22/97 281/23/31 283/24/98
f 283/24/98 282/25/32 284/26/99
f 285/29/100 277/72/97 283/28/98
f 285/29/100 284/30/99 286/31/101
f 267/32/90 285/33/100 287/34/102
f 287/34/102 286/35/101 288/36/103
f 287/37/102 289/38/32 266/2/43
f 288/39/103 291/40/66 289/38/32
f 290/42/104 286/35/101 293/41/105
f 290/43/104 304/44/26 291/40/66
f 292/45/106 293/41/105 294/46/107
f 286/31/101 295/47/108 293/48/105
f 294/50/107 295/47/108 296/49/109
f 284/26/99 297/51/33 295/52/108
f 295/52/108 298/53/7 296/54/109
f 296/55/109 299/56/13 300/57/110
f 300/57/110 279/58/14 276/18/95
f 301/59/111 296/60/109 300/61/110
f 273/62/93 300/61/110 276/14/95
f 302/63/112 294/64/107 301/65/111
f 271/8/92 301/65/111 273/66/93
f 292/67/106 303/68/56 304/69/26
f 302/70/112 269/7/14 303/68/56
f 307/1/90 306/2/43 305/3/3
f 310/4/91 305/3/3 308/5/9
f 311/6/92 308/5/9 309/7/14
f 310/10/91 313/66/93 312/9/94
f 307/12/90 312/9/94 314/11/2
f 312/13/94 316/14/95 315/15/96
f 312/13/94 317/17/97 314/16/2
f 316/18/95 318/19/15 315/20/96
f 315/20/96 320/21/17 317/22/97
f 317/22/97 321/23/31 323/24/98
f 323/24/98 322/25/32 324/26/99
f 325/29/100 317/72/97 323/28/98
f 325/29/100 324/30/99 326/31/101
f 307/32/90 325/33/100 327/34/102
f 327/34/102 326/35/101 328/36/103
f 327/37/102 329/38/32 306/2/43
f 329/38/32 330/43/104 331/40/66
f 328/36/103 333/41/105 330/42/104
f 330/43/104 344/44/26 331/40/66
f 332/45/106 333/41/105 334/46/107
f 326/31/101 335/47/108 333/48/105
f 334/50/107 335/47/108 336/49/109
f 324/26/99 337/51/33 335/52/108
f 335/52/108 338/53/7 336/54/109
f 336/55/109 339/56/13 340/57/110
f 340/57/110 319/58/14 316/18/95
f 341/59/111 336/60/109 340/61/110
f 313/62/93 340/61/110 316/14/95
f 342/63/112 334/64/107 341/65/111
f 311/8/92 341/65/111 313/66/93
f 332/67/106 343/68/56 344/69/26
f 342/70/112 309/7/14 343/68/56
s 0
f 348/104/33 346/105/33 345/106/33
f 346/105/31 347/107/31 345/106/31
f 345/108/26 350/109/26 348/110/26
f 349/111/33 352/112/33 348/113/33
f 349/110/26 350/114/26 358/109/26
f 353/115/113 354/116/113 352/112/113
f 351/109/13 354/108/13 356/114/13
f 354/117/15 358/118/15 350/119/15
f 357/120/15 350/121/15 347/122/15
f 346/105/113 356/123/113 357/124/113
f 353/115/13 359/125/13 355/126/13
f 359/127/15 364/128/15 358/129/15
f 362/130/113 359/131/113 361/132/113
f 363/133/33 361/132/33 349/134/33
f 364/128/13 362/130/13 363/133/13
f 363/110/26 358/114/26 364/109/26
s 1
f 367/135/12 366/136/13 365/137/14
f 370/138/16 365/137/14 368/139/15
f 371/140/18 368/139/15 369/141/17
f 370/142/16 373/143/20 372/144/114
f 367/145/12 372/144/114 374/146/9
f 372/147/114 376/148/22 375/149/21
f 374/150/9 375/149/21 377/151/1
f 375/152/21 379/153/17 378/154/2
f 377/155/1 378/154/2 380/156/3
f 377/155/1 381/157/5 383/158/4
f 383/158/4 382/159/7 384/160/6
f 374/161/9 383/162/4 385/163/8
f 385/163/8 384/164/6 386/165/36
f 367/166/12 385/167/8 387/168/11
f 387/168/11 386/169/36 388/170/10
f 387/171/11 389/172/7 366/136/13
f 388/173/10 391/174/33 389/172/7
f 388/170/10 393/175/115 390/176/34
f 390/177/34 404/178/32 391/174/33
f 392/179/116 393/175/115 394/180/117
f 393/181/115 384/164/6 395/182/37
f 394/183/117 395/182/37 396/184/118
f 384/160/6 397/185/38 395/186/37
f 396/187/118 397/185/38 398/188/26
f 396/189/118 399/190/23 400/191/25
f 400/191/25 379/153/17 376/192/22
f 401/193/119 396/194/118 400/195/25
f 401/193/119 376/148/22 373/196/20
f 402/197/29 394/198/117 401/199/119
f 371/200/18 401/199/119 373/143/20
f 392/201/116 403/202/31 404/203/32
f 402/204/29 369/141/17 403/202/31
f 407/205/3 406/206/5 405/207/3
f 410/208/2 405/209/3 408/210/2
f 411/211/17 408/212/2 409/209/17
f 412/213/23 409/214/17 414/212/23
f 415/214/26 412/215/23 414/216/23
f 418/215/38 415/217/26 416/216/38
f 419/218/7 416/219/38 417/217/7
f 420/220/5 417/207/7 406/219/5
f 423/205/3 422/206/5 421/207/3
f 426/208/2 421/209/3 424/210/2
f 427/211/17 424/212/2 425/209/17
f 428/213/23 425/214/17 430/212/23
f 431/214/26 428/215/23 430/216/23
f 434/215/38 431/217/26 432/216/38
f 435/218/7 432/219/38 433/217/7
f 436/220/5 433/207/7 422/219/5
f 439/205/3 438/206/5 437/207/3
f 442/208/2 437/209/3 440/210/2
f 443/211/17 440/212/2 441/209/17
f 444/213/23 441/214/17 446/212/23
f 447/214/26 444/215/23 446/216/23
f 450/215/38 447/217/26 448/216/38
f 451/218/7 448/219/38 449/217/7
f 452/220/5 449/207/7 438/219/5
s 0
f 453/221/26 484/222/26 454/223/26
f 454/224/33 457/225/33 453/226/33
f 453/227/26 464/222/26 456/228/26
f 453/229/7 459/230/7 455/231/7
f 457/232/3 461/233/3 460/234/3
f 457/235/3 462/233/3 459/236/3
f 484/237/15 460/234/15 461/238/15
f 464/237/17 460/239/17 456/228/17
f 463/239/31 464/240/31 465/228/31
f 469/241/3 462/242/3 463/239/3
f 467/243/26 464/240/26 455/244/26
f 463/245/32 466/240/32 472/242/32
f 468/246/26 465/247/26 467/248/26
f 455/249/13 469/250/13 467/251/13
f 467/252/14 470/253/14 468/254/14
f 470/255/3 463/245/3 472/242/3
f 471/256/3 472/257/3 473/245/3
f 468/258/15 471/259/15 482/260/15
f 466/261/33 473/245/33 472/257/33
f 473/262/7 477/261/7 475/257/7
f 471/263/3 475/257/3 478/264/3
f 476/265/13 477/266/13 483/267/13
f 479/268/3 475/269/3 476/265/3
f 480/270/31 479/271/31 481/272/31
f 482/273/17 478/274/17 480/275/17
f 481/276/26 477/266/26 480/277/26
f 482/278/26 477/261/26 474/279/26
f 482/280/26 466/261/26 468/281/26
f 481/282/32 458/283/32 454/284/32
f 454/285/26 483/286/26 481/287/26
f 476/234/14 484/266/14 461/269/14
f 458/288/3 476/234/3 461/269/3
f 511/288/3 493/234/3 508/269/3
f 493/234/14 485/266/14 508/269/14
f 515/285/26 486/286/26 488/287/26
f 488/282/32 511/283/32 515/284/32
f 487/280/26 503/261/26 501/281/26
f 487/278/26 492/261/26 495/279/26
f 488/276/26 492/266/26 489/277/26
f 487/273/17 491/274/17 489/275/17
f 489/270/31 490/271/31 488/272/31
f 490/268/3 494/269/3 493/265/3
f 493/265/13 492/266/13 486/267/13
f 498/263/3 494/257/3 491/264/3
f 496/262/7 492/261/7 494/257/7
f 503/289/33 496/290/33 497/291/33
f 501/258/15 498/259/15 487/260/15
f 498/256/3 497/257/3 496/245/3
f 499/255/3 506/245/3 497/242/3
f 502/252/14 499/253/14 501/254/14
f 514/249/13 500/250/13 502/251/13
f 501/246/26 504/247/26 502/248/26
f 506/245/32 503/240/32 497/242/32
f 502/243/26 505/240/26 514/244/26
f 500/241/3 507/242/3 506/239/3
f 506/239/31 505/240/31 504/228/31
f 505/237/17 509/239/17 513/228/17
f 485/237/15 509/234/15 508/238/15
f 510/236/3 509/239/3 507/233/3
f 512/232/3 508/233/3 509/234/3
f 516/229/7 510/230/7 514/231/7
f 514/292/26 513/228/26 516/227/26
f 515/224/33 512/225/33 516/226/33
f 516/221/26 485/222/26 515/223/26
f 517/221/26 548/222/26 518/223/26
f 518/224/33 521/225/33 517/226/33
f 519/292/26 520/228/26 517/227/26
f 517/229/7 523/230/7 519/231/7
f 522/293/3 524/234/3 521/232/3
f 521/235/3 526/233/3 523/236/3
f 548/237/15 524/234/15 525/238/15
f 528/237/17 524/239/17 520/228/17
f 527/294/31 528/295/31 529/296/31
f 533/241/3 526/242/3 527/239/3
f 531/243/26 528/240/26 519/244/26
f 527/245/32 530/240/32 536/242/32
f 532/246/26 529/247/26 531/248/26
f 519/249/13 533/250/13 531/251/13
f 531/252/14 534/253/14 532/254/14
f 534/255/3 527/245/3 536/242/3
f 535/256/3 536/257/3 537/245/3
f 532/258/15 535/259/15 546/260/15
f 530/297/33 537/298/33 536/299/33
f 537/262/7 541/261/7 539/257/7
f 535/263/3 539/257/3 542/264/3
f 540/265/13 541/266/13 547/267/13
f 543/268/3 539/269/3 540/265/3
f 544/270/31 543/271/31 545/272/31
f 546/273/17 542/274/17 544/275/17
f 545/276/26 541/266/26 544/277/26
f 546/278/26 541/261/26 538/279/26
f 546/280/26 530/261/26 532/281/26
f 545/282/32 522/283/32 518/284/32
f 518/285/26 547/286/26 545/287/26
f 540/234/14 548/266/14 525/269/14
f 522/288/3 540/234/3 525/269/3
f 575/288/3 557/234/3 572/269/3
f 557/234/14 549/266/14 572/269/14
f 579/285/26 550/286/26 552/287/26
f 552/282/32 575/283/32 579/284/32
f 551/280/26 567/261/26 565/281/26
f 551/278/26 556/261/26 559/279/26
f 552/276/26 556/266/26 553/277/26
f 551/273/17 555/274/17 553/275/17
f 553/270/31 554/271/31 552/272/31
f 554/268/3 558/269/3 557/265/3
f 557/265/13 556/266/13 550/267/13
f 562/263/3 558/257/3 555/264/3
f 560/262/7 556/261/7 558/257/7
f 567/300/33 560/301/33 561/302/33
f 565/258/15 562/259/15 551/260/15
f 562/256/3 561/257/3 560/245/3
f 563/255/3 570/245/3 561/242/3
f 566/252/14 563/253/14 565/254/14
f 578/249/13 564/250/13 566/251/13
f 565/246/26 568/247/26 566/248/26
f 570/245/32 567/240/32 561/242/32
f 566/243/26 569/240/26 578/244/26
f 564/241/3 571/242/3 570/239/3
f 570/290/31 569/289/31 568/303/31
f 569/237/17 573/239/17 577/228/17
f 549/237/15 573/234/15 572/238/15
f 576/235/3 571/233/3 574/236/3
f 576/232/3 572/233/3 573/234/3
f 580/229/7 574/230/7 578/231/7
f 578/292/26 577/228/26 580/227/26
f 579/224/33 576/225/33 580/226/33
f 580/221/26 549/222/26 579/223/26
f 582/105/31 584/104/31 581/106/31
f 583/107/33 582/105/33 581/106/33
f 586/109/26 581/108/26 584/110/26
f 588/112/31 585/111/31 584/113/31
f 594/109/26 584/108/26 585/110/26
f 588/112/120 591/304/120 589/115/120
f 590/108/15 587/109/15 592/114/15
f 594/118/13 590/117/13 586/119/13
f 586/121/13 593/120/13 583/122/13
f 582/105/120 592/123/120 587/109/120
f 595/125/15 589/115/15 591/126/15
f 600/128/13 595/127/13 594/129/13
f 595/131/120 598/130/120 597/132/120
f 597/132/31 599/133/31 585/134/31
f 600/128/15 598/130/15 596/305/15
f 600/109/26 585/108/26 599/110/26
s 1
f 602/136/15 603/135/12 601/137/14
f 601/137/14 606/138/11 604/139/13
f 604/139/13 607/140/10 605/141/7
f 606/142/11 609/143/36 607/200/10
f 603/145/12 608/144/8 606/142/11
f 608/147/8 612/148/6 609/196/36
f 613/151/1 608/147/8 610/150/9
f 611/306/4 615/307/7 612/308/6
f 616/309/3 611/306/4 613/310/1
f 617/311/2 613/310/1 619/312/21
f 618/313/17 619/312/21 620/314/22
f 619/162/21 610/161/9 621/163/114
f 620/164/22 621/163/114 622/165/20
f 621/167/114 603/166/12 623/168/16
f 622/169/20 623/168/16 624/170/18
f 625/172/17 623/171/16 602/136/15
f 627/174/31 624/173/18 625/172/17
f 629/175/119 624/170/18 626/176/29
f 640/178/32 626/177/29 627/174/31
f 628/179/121 629/175/119 626/176/29
f 629/181/119 620/164/22 622/165/20
f 630/183/122 631/182/25 629/181/119
f 633/315/23 620/314/22 631/316/25
f 632/317/123 633/315/23 631/316/25
f 635/318/38 632/319/123 636/320/37
f 615/307/7 636/320/37 612/308/6
f 637/193/115 632/194/123 630/321/122
f 612/148/6 637/193/115 609/196/36
f 638/197/34 630/198/122 628/322/121
f 607/200/10 637/199/115 638/197/34
f 639/202/33 628/201/121 640/203/32
f 639/202/33 607/140/10 638/204/34
f 642/323/2 643/324/3 641/325/3
f 644/326/5 643/327/3 646/328/5
f 644/329/5 647/327/7 645/330/7
f 645/331/7 648/332/38 650/329/38
f 650/333/38 649/334/26 651/331/26
f 651/335/26 654/336/23 652/333/23
f 652/337/23 655/338/17 653/335/17
f 653/325/17 656/339/2 642/337/2
f 658/323/2 659/324/3 657/325/3
f 660/326/5 659/327/3 662/328/5
f 660/329/5 663/327/7 661/330/7
f 661/331/7 664/332/38 666/329/38
f 666/333/38 665/334/26 667/331/26
f 667/335/26 670/336/23 668/333/23
f 668/337/23 671/338/17 669/335/17
f 669/325/17 672/339/2 658/337/2
f 674/323/2 675/324/3 673/325/3
f 676/326/5 675/327/3 678/328/5
f 676/329/5 679/327/7 677/330/7
f 677/331/7 680/332/38 682/329/38
f 682/333/38 681/334/26 683/331/26
f 683/335/26 686/336/23 684/333/23
f 684/337/23 687/338/17 685/335/17
f 685/325/17 688/339/2 674/337/2
s 0
f 690/340/31 691/341/31 689/342/31
f 690/340/32 694/343/32 692/344/32
f 693/345/33 696/346/33 694/343/33
f 698/340/13 699/341/13 697/342/13
f 698/340/14 702/343/14 700/344/14
f 701/345/15 704/346/15 702/343/15
f 707/341/13 706/340/13 705/342/13
f 710/343/14 706/340/14 708/344/14
f 712/346/15 709/345/15 710/343/15
f 715/341/31 714/340/31 713/342/31
f 718/343/32 714/340/32 716/344/32
f 720/346/33 717/345/33 718/343/33
s 1
f 3/1/1 23/37/21 2/2/2
f 6/4/4 3/1/1 1/3/3
f 7/6/6 6/4/4 4/5/5
f 7/8/6 9/66/36 8/9/8
f 6/10/4 8/9/8 10/11/9
f 8/13/8 9/62/36 12/14/10
f 10/16/9 8/13/8 11/15/11
f 12/18/10 15/58/7 14/19/13
f 11/20/11 14/19/13 16/21/14
f 13/22/12 16/21/14 17/23/15
f 19/24/16 17/23/15 18/25/17
f 10/27/9 13/72/12 19/28/16
f 21/29/19 19/28/16 20/30/18
f 3/32/1 10/71/9 21/33/19
f 23/34/21 21/33/19 22/35/20
f 23/37/21 24/39/22 25/38/17
f 24/39/22 26/43/25 27/40/23
f 24/36/22 22/35/20 29/41/24
f 26/43/25 28/347/27 40/44/26
f 28/45/27 26/42/25 29/41/24
f 22/31/20 20/30/18 31/47/29
f 29/48/24 31/47/29 32/49/30
f 20/26/18 18/25/17 33/51/31
f 31/52/29 33/51/31 34/53/32
f 32/55/30 34/348/32 35/56/33
f 36/57/34 35/56/33 15/58/7
f 37/59/35 30/349/28 32/60/30
f 9/62/36 37/59/35 36/61/34
f 38/63/37 28/350/27 30/64/28
f 7/8/6 38/63/37 37/65/35
f 28/67/27 38/70/37 39/68/38
f 38/70/37 7/6/6 5/7/7
f 43/1/1 63/37/21 42/2/2
f 46/4/4 43/1/1 41/3/3
f 47/6/6 46/4/4 44/5/5
f 47/8/6 49/66/36 48/9/8
f 43/12/1 46/10/4 48/9/8
f 48/13/8 49/62/36 52/14/10
f 50/16/9 48/13/8 51/15/11
f 52/18/10 55/58/7 54/19/13
f 51/20/11 54/19/13 56/21/14
f 53/22/12 56/21/14 57/23/15
f 59/24/16 57/23/15 58/25/17
f 50/27/9 53/72/12 59/28/16
f 61/29/19 59/28/16 60/30/18
f 63/34/21 43/32/1 50/71/9
f 64/36/22 63/34/21 61/33/19
f 63/37/21 64/39/22 65/38/17
f 64/39/22 66/43/25 67/40/23
f 64/36/22 62/35/20 69/41/24
f 66/43/25 68/347/27 80/44/26
f 68/45/27 66/42/25 69/41/24
f 62/31/20 60/30/18 71/47/29
f 69/48/24 71/47/29 72/49/40
f 60/26/18 58/25/17 73/51/31
f 71/52/29 73/51/31 74/53/32
f 72/55/40 74/348/32 75/56/33
f 76/57/34 75/56/33 55/58/7
f 77/59/35 70/349/39 72/60/40
f 49/62/36 77/59/35 76/61/34
f 78/63/37 68/350/27 70/64/39
f 47/8/6 78/63/37 77/65/35
f 68/67/27 78/70/37 79/68/38
f 78/70/37 47/6/6 45/7/7
f 83/1/41 103/37/54 82/2/9
f 86/4/42 83/1/41 81/3/3
f 87/6/44 86/4/42 84/5/43
f 86/10/42 87/8/44 89/66/45
f 83/12/41 86/10/42 88/9/46
f 88/13/46 89/62/45 92/14/47
f 88/13/46 91/15/48 93/17/49
f 92/18/47 95/58/32 94/19/33
f 91/20/48 94/19/33 96/21/7
f 93/22/49 96/21/7 97/23/13
f 99/24/50 97/23/13 98/25/14
f 101/29/52 90/27/5 93/72/49
f 101/29/52 99/28/50 100/30/51
f 83/32/41 90/71/5 101/33/52
f 103/34/54 101/33/52 102/35/53
f 103/37/54 104/39/55 105/38/14
f 104/39/55 106/43/58 107/40/56
f 104/36/55 102/35/53 109/41/57
f 106/43/58 108/347/59 120/44/26
f 108/45/59 106/42/58 109/41/57
f 102/31/53 100/30/51 111/47/61
f 110/50/60 109/48/57 111/47/61
f 100/26/51 98/25/14 113/51/15
f 111/52/61 113/51/15 114/53/17
f 112/55/62 114/348/17 115/56/31
f 116/57/63 115/56/31 95/58/32
f 117/59/64 110/349/60 112/60/62
f 89/62/45 117/59/64 116/61/63
f 118/63/65 108/350/59 110/64/60
f 87/8/44 118/63/65 117/65/64
f 120/69/26 108/67/59 118/70/65
f 118/70/65 87/6/44 85/7/32
f 123/1/41 143/37/54 122/2/9
f 126/4/42 123/1/41 121/3/3
f 127/6/44 126/4/42 124/5/43
f 126/10/42 127/8/44 129/66/45
f 123/12/41 126/10/42 128/9/46
f 128/13/46 129/62/45 132/14/47
f 128/13/46 131/15/48 133/17/49
f 132/18/47 135/58/32 134/19/33
f 131/20/48 134/19/33 136/21/7
f 133/22/49 136/21/7 137/23/13
f 139/24/50 137/23/13 138/25/14
f 141/29/52 130/27/5 133/72/49
f 141/29/52 139/28/50 140/30/51
f 123/32/41 130/71/5 141/33/52
f 143/34/54 141/33/52 142/35/53
f 143/37/54 144/39/55 145/38/14
f 144/39/55 146/43/58 147/40/56
f 144/36/55 142/35/53 149/41/57
f 146/43/58 148/347/59 160/44/26
f 148/45/59 146/42/58 149/41/57
f 142/31/53 140/30/51 151/47/61
f 150/50/60 149/48/57 151/47/61
f 140/26/51 138/25/14 153/51/15
f 151/52/61 153/51/15 154/53/17
f 152/55/62 154/348/17 155/56/31
f 156/57/63 155/56/31 135/58/32
f 157/59/64 150/349/60 152/60/62
f 129/62/45 157/59/64 156/61/63
f 158/63/65 148/350/59 150/64/60
f 127/8/44 158/63/65 157/65/64
f 148/67/59 158/70/65 159/68/66
f 158/70/65 127/6/44 125/7/32
s 0
f 176/73/7 171/351/7 170/74/7
f 168/76/32 163/87/32 172/77/32
f 164/79/17 167/352/17 166/80/17
f 174/84/3 165/353/3 166/354/3
f 166/354/3 167/355/3 168/82/3
f 168/82/3 175/356/3 176/83/3
f 176/83/3 173/357/3 174/84/3
f 174/84/3 166/354/3 168/82/3
f 162/85/15 161/81/15 166/80/15
f 168/76/31 167/352/31 164/79/31
f 174/88/13 173/358/13 170/89/13
f 172/77/33 171/351/33 176/73/33
f 174/88/14 169/90/14 162/85/14
f 181/91/14 180/96/14 177/92/14
f 179/94/17 184/359/17 178/95/17
f 180/96/26 182/100/26 179/94/26
f 183/97/7 182/100/7 180/96/7
f 184/99/32 179/94/32 182/100/32
f 184/102/3 183/97/3 181/98/3
s 1
f 187/1/67 207/37/79 186/2/5
f 190/4/68 187/1/67 185/3/3
f 191/6/69 190/4/68 188/5/2
f 190/10/68 191/8/69 193/66/70
f 190/10/68 192/9/71 194/11/43
f 192/13/71 193/62/70 196/14/72
f 194/16/43 192/13/71 195/15/73
f 196/18/72 199/58/17 198/19/31
f 195/20/73 198/19/31 200/21/32
f 197/22/74 200/21/32 201/23/33
f 203/24/75 201/23/33 202/25/7
f 194/27/43 197/72/74 203/28/75
f 205/29/77 203/28/75 204/30/76
f 187/32/67 194/71/43 205/33/77
f 207/34/79 205/33/77 206/35/78
f 207/37/79 208/39/80 209/38/7
f 208/39/80 210/43/82 211/40/38
f 208/36/80 206/35/78 213/41/81
f 210/43/82 212/347/83 224/44/26
f 212/45/83 210/42/82 213/41/81
f 206/31/78 204/30/76 215/47/85
f 213/48/81 215/47/85 216/49/86
f 204/26/76 202/25/7 217/51/13
f 215/52/85 217/51/13 218/53/14
f 216/55/86 218/348/14 219/56/15
f 220/57/87 219/56/15 199/58/17
f 221/59/88 214/349/84 216/60/86
f 193/62/70 221/59/88 220/61/87
f 222/63/89 212/350/83 214/64/84
f 191/8/69 222/63/89 221/65/88
f 212/67/83 222/70/89 223/68/23
f 222/70/89 191/6/69 189/7/17
f 227/1/67 247/37/79 226/2/5
f 230/4/68 227/1/67 225/3/3
f 231/6/69 230/4/68 228/5/2
f 230/10/68 231/8/69 233/66/70
f 227/12/67 230/10/68 232/9/71
f 232/13/71 233/62/70 236/14/72
f 234/16/43 232/13/71 235/15/73
f 236/18/72 239/58/17 238/19/31
f 235/20/73 238/19/31 240/21/32
f 237/22/74 240/21/32 241/23/33
f 243/24/75 241/23/33 242/25/7
f 234/27/43 237/72/74 243/28/75
f 245/29/77 243/28/75 244/30/76
f 247/34/79 227/32/67 234/71/43
f 247/34/79 245/33/77 246/35/78
f 247/37/79 248/39/80 249/38/7
f 248/39/80 250/43/82 251/40/38
f 248/36/80 246/35/78 253/41/81
f 250/43/82 252/347/83 264/44/26
f 252/45/83 250/42/82 253/41/81
f 246/31/78 244/30/76 255/47/85
f 253/48/81 255/47/85 256/49/86
f 244/26/76 242/25/7 257/51/13
f 255/52/85 257/51/13 258/53/14
f 256/55/86 258/348/14 259/56/15
f 260/57/87 259/56/15 239/58/17
f 261/59/88 254/349/84 256/60/86
f 233/62/70 261/59/88 260/61/87
f 262/63/89 252/350/83 254/64/84
f 231/8/69 262/63/89 261/65/88
f 252/67/83 262/70/89 263/68/23
f 262/70/89 231/6/69 229/7/17
f 267/1/90 287/37/102 266/2/43
f 270/4/91 267/1/90 265/3/3
f 271/6/92 270/4/91 268/5/9
f 270/10/91 271/8/92 273/66/93
f 267/12/90 270/10/91 272/9/94
f 272/13/94 273/62/93 276/14/95
f 272/13/94 275/15/96 277/17/97
f 276/18/95 279/58/14 278/19/15
f 275/20/96 278/19/15 280/21/17
f 277/22/97 280/21/17 281/23/31
f 283/24/98 281/23/31 282/25/32
f 285/29/100 274/27/2 277/72/97
f 285/29/100 283/28/98 284/30/99
f 267/32/90 274/71/2 285/33/100
f 287/34/102 285/33/100 286/35/101
f 287/37/102 288/39/103 289/38/32
f 288/39/103 290/43/104 291/40/66
f 290/42/104 288/36/103 286/35/101
f 290/43/104 292/347/106 304/44/26
f 292/45/106 290/42/104 293/41/105
f 286/31/101 284/30/99 295/47/108
f 294/50/107 293/48/105 295/47/108
f 284/26/99 282/25/32 297/51/33
f 295/52/108 297/51/33 298/53/7
f 296/55/109 298/348/7 299/56/13
f 300/57/110 299/56/13 279/58/14
f 301/59/111 294/349/107 296/60/109
f 273/62/93 301/59/111 300/61/110
f 302/63/112 292/350/106 294/64/107
f 271/8/92 302/63/112 301/65/111
f 292/67/106 302/70/112 303/68/56
f 302/70/112 271/6/92 269/7/14
f 307/1/90 327/37/102 306/2/43
f 310/4/91 307/1/90 305/3/3
f 311/6/92 310/4/91 308/5/9
f 310/10/91 311/8/92 313/66/93
f 307/12/90 310/10/91 312/9/94
f 312/13/94 313/62/93 316/14/95
f 312/13/94 315/15/96 317/17/97
f 316/18/95 319/58/14 318/19/15
f 315/20/96 318/19/15 320/21/17
f 317/22/97 320/21/17 321/23/31
f 323/24/98 321/23/31 322/25/32
f 325/29/100 314/27/2 317/72/97
f 325/29/100 323/28/98 324/30/99
f 307/32/90 314/71/2 325/33/100
f 327/34/102 325/33/100 326/35/101
f 327/37/102 328/39/103 329/38/32
f 329/38/32 328/39/103 330/43/104
f 328/36/103 326/35/101 333/41/105
f 330/43/104 332/347/106 344/44/26
f 332/45/106 330/42/104 333/41/105
f 326/31/101 324/30/99 335/47/108
f 334/50/107 333/48/105 335/47/108
f 324/26/99 322/25/32 337/51/33
f 335/52/108 337/51/33 338/53/7
f 336/55/109 338/348/7 339/56/13
f 340/57/110 339/56/13 319/58/14
f 341/59/111 334/349/107 336/60/109
f 313/62/93 341/59/111 340/61/110
f 342/63/112 332/350/106 334/64/107
f 311/8/92 342/63/112 341/65/111
f 332/67/106 342/70/112 343/68/56
f 342/70/112 311/6/92 309/7/14
s 0
f 348/104/33 351/109/33 346/105/33
f 346/105/31 357/360/31 347/107/31
f 345/108/26 347/114/26 350/109/26
f 349/111/33 353/115/33 352/112/33
f 349/110/26 348/108/26 350/114/26
f 353/115/113 355/304/113 354/116/113
f 351/109/13 352/110/13 354/108/13
f 354/117/15 355/126/15 358/118/15
f 357/120/15 356/114/15 350/121/15
f 346/105/113 351/109/113 356/123/113
f 353/115/13 361/361/13 359/125/13
f 359/127/15 360/305/15 364/128/15
f 362/130/113 360/362/113 359/131/113
f 363/133/33 362/130/33 361/132/33
f 364/128/13 360/305/13 362/130/13
f 363/110/26 349/108/26 358/114/26
s 1
f 367/135/12 387/171/11 366/136/13
f 370/138/16 367/135/12 365/137/14
f 371/140/18 370/138/16 368/139/15
f 370/142/16 371/200/18 373/143/20
f 367/145/12 370/142/16 372/144/114
f 372/147/114 373/196/20 376/148/22
f 374/150/9 372/147/114 375/149/21
f 375/152/21 376/192/22 379/153/17
f 377/155/1 375/152/21 378/154/2
f 377/155/1 380/156/3 381/157/5
f 383/158/4 381/157/5 382/159/7
f 374/161/9 377/363/1 383/162/4
f 385/163/8 383/162/4 384/164/6
f 367/166/12 374/364/9 385/167/8
f 387/168/11 385/167/8 386/169/36
f 387/171/11 388/173/10 389/172/7
f 388/173/10 390/177/34 391/174/33
f 388/170/10 386/169/36 393/175/115
f 390/177/34 392/365/116 404/178/32
f 392/179/116 390/176/34 393/175/115
f 393/181/115 386/165/36 384/164/6
f 394/183/117 393/181/115 395/182/37
f 384/160/6 382/159/7 397/185/38
f 396/187/118 395/186/37 397/185/38
f 396/189/118 398/366/26 399/190/23
f 400/191/25 399/190/23 379/153/17
f 401/193/119 394/321/117 396/194/118
f 401/193/119 400/195/25 376/148/22
f 402/197/29 392/322/116 394/198/117
f 371/200/18 402/197/29 401/199/119
f 392/201/116 402/204/29 403/202/31
f 402/204/29 371/140/18 369/141/17
f 407/205/3 420/367/5 406/206/5
f 410/208/2 407/211/3 405/209/3
f 411/211/17 410/213/2 408/212/2
f 412/213/23 411/368/17 409/214/17
f 415/214/26 413/368/26 412/215/23
f 418/215/38 413/218/26 415/217/26
f 419/218/7 418/220/38 416/219/38
f 420/220/5 419/205/7 417/207/7
f 423/205/3 436/367/5 422/206/5
f 426/208/2 423/211/3 421/209/3
f 427/211/17 426/213/2 424/212/2
f 428/213/23 427/368/17 425/214/17
f 431/214/26 429/368/26 428/215/23
f 434/215/38 429/218/26 431/217/26
f 435/218/7 434/220/38 432/219/38
f 436/220/5 435/205/7 433/207/7
f 439/205/3 452/367/5 438/206/5
f 442/208/2 439/211/3 437/209/3
f 443/211/17 442/213/2 440/212/2
f 444/213/23 443/368/17 441/214/17
f 447/214/26 445/368/26 444/215/23
f 450/215/38 445/218/26 447/217/26
f 451/218/7 450/220/38 448/219/38
f 452/220/5 451/205/7 449/207/7
s 0
f 453/221/26 456/286/26 484/222/26
f 454/224/33 458/369/33 457/225/33
f 453/227/26 455/292/26 464/222/26
f 453/229/7 457/370/7 459/230/7
f 457/232/3 458/293/3 461/233/3
f 457/235/3 460/239/3 462/233/3
f 484/237/15 456/286/15 460/234/15
f 464/237/17 462/238/17 460/239/17
f 463/239/31 462/242/31 464/240/31
f 469/241/3 459/371/3 462/242/3
f 467/243/26 465/228/26 464/240/26
f 463/245/32 465/247/32 466/240/32
f 468/246/26 466/240/26 465/247/26
f 455/249/13 459/372/13 469/250/13
f 467/252/14 469/373/14 470/253/14
f 470/255/3 469/374/3 463/245/3
f 471/256/3 470/375/3 472/257/3
f 468/258/15 470/376/15 471/259/15
f 466/261/33 474/247/33 473/245/33
f 473/262/7 474/279/7 477/261/7
f 471/263/3 473/262/3 475/257/3
f 476/265/13 475/269/13 477/266/13
f 479/268/3 478/377/3 475/269/3
f 480/270/31 478/378/31 479/271/31
f 482/273/17 471/379/17 478/274/17
f 481/276/26 483/267/26 477/266/26
f 482/278/26 480/380/26 477/261/26
f 482/280/26 474/247/26 466/261/26
f 481/282/32 479/381/32 458/283/32
f 454/285/26 484/266/26 483/286/26
f 476/234/14 483/286/14 484/266/14
f 458/288/3 479/382/3 476/234/3
f 511/288/3 490/382/3 493/234/3
f 493/234/14 486/286/14 485/266/14
f 515/285/26 485/266/26 486/286/26
f 488/282/32 490/381/32 511/283/32
f 487/280/26 495/247/26 503/261/26
f 487/278/26 489/380/26 492/261/26
f 488/276/26 486/267/26 492/266/26
f 487/273/17 498/379/17 491/274/17
f 489/270/31 491/378/31 490/271/31
f 490/268/3 491/377/3 494/269/3
f 493/265/13 494/269/13 492/266/13
f 498/263/3 496/262/3 494/257/3
f 496/262/7 495/279/7 492/261/7
f 503/289/33 495/303/33 496/290/33
f 501/258/15 499/376/15 498/259/15
f 498/256/3 499/375/3 497/257/3
f 499/255/3 500/374/3 506/245/3
f 502/252/14 500/373/14 499/253/14
f 514/249/13 510/372/13 500/250/13
f 501/246/26 503/240/26 504/247/26
f 506/245/32 504/247/32 503/240/32
f 502/243/26 504/228/26 505/240/26
f 500/241/3 510/371/3 507/242/3
f 506/239/31 507/242/31 505/240/31
f 505/237/17 507/238/17 509/239/17
f 485/237/15 513/286/15 509/234/15
f 510/236/3 512/235/3 509/239/3
f 512/232/3 511/293/3 508/233/3
f 516/229/7 512/370/7 510/230/7
f 514/292/26 505/222/26 513/228/26
f 515/224/33 511/369/33 512/225/33
f 516/221/26 513/286/26 485/222/26
f 517/221/26 520/286/26 548/222/26
f 518/224/33 522/369/33 521/225/33
f 519/292/26 528/222/26 520/228/26
f 517/229/7 521/370/7 523/230/7
f 522/293/3 525/233/3 524/234/3
f 521/235/3 524/239/3 526/233/3
f 548/237/15 520/286/15 524/234/15
f 528/237/17 526/238/17 524/239/17
f 527/294/31 526/383/31 528/295/31
f 533/241/3 523/371/3 526/242/3
f 531/243/26 529/228/26 528/240/26
f 527/245/32 529/247/32 530/240/32
f 532/246/26 530/240/26 529/247/26
f 519/249/13 523/372/13 533/250/13
f 531/252/14 533/373/14 534/253/14
f 534/255/3 533/374/3 527/245/3
f 535/256/3 534/375/3 536/257/3
f 532/258/15 534/376/15 535/259/15
f 530/297/33 538/384/33 537/298/33
f 537/262/7 538/279/7 541/261/7
f 535/263/3 537/262/3 539/257/3
f 540/265/13 539/269/13 541/266/13
f 543/268/3 542/377/3 539/269/3
f 544/270/31 542/378/31 543/271/31
f 546/273/17 535/379/17 542/274/17
f 545/276/26 547/267/26 541/266/26
f 546/278/26 544/380/26 541/261/26
f 546/280/26 538/247/26 530/261/26
f 545/282/32 543/381/32 522/283/32
f 518/285/26 548/266/26 547/286/26
f 540/234/14 547/286/14 548/266/14
f 522/288/3 543/382/3 540/234/3
f 575/288/3 554/382/3 557/234/3
f 557/234/14 550/286/14 549/266/14
f 579/285/26 549/266/26 550/286/26
f 552/282/32 554/381/32 575/283/32
f 551/280/26 559/247/26 567/261/26
f 551/278/26 553/380/26 556/261/26
f 552/276/26 550/267/26 556/266/26
f 551/273/17 562/379/17 555/274/17
f 553/270/31 555/378/31 554/271/31
f 554/268/3 555/377/3 558/269/3
f 557/265/13 558/269/13 556/266/13
f 562/263/3 560/262/3 558/257/3
f 560/262/7 559/279/7 556/261/7
f 567/300/33 559/385/33 560/301/33
f 565/258/15 563/376/15 562/259/15
f 562/256/3 563/375/3 561/257/3
f 563/255/3 564/374/3 570/245/3
f 566/252/14 564/373/14 563/253/14
f 578/249/13 574/372/13 564/250/13
f 565/246/26 567/240/26 568/247/26
f 570/245/32 568/247/32 567/240/32
f 566/243/26 568/228/26 569/240/26
f 564/241/3 574/371/3 571/242/3
f 570/290/31 571/291/31 569/289/31
f 569/237/17 571/238/17 573/239/17
f 549/237/15 577/286/15 573/234/15
f 576/235/3 573/239/3 571/233/3
f 576/232/3 575/293/3 572/233/3
f 580/229/7 576/370/7 574/230/7
f 578/292/26 569/222/26 577/228/26
f 579/224/33 575/369/33 576/225/33
f 580/221/26 577/286/26 549/222/26
f 582/105/31 587/109/31 584/104/31
f 583/107/33 593/360/33 582/105/33
f 586/109/26 583/114/26 581/108/26
f 588/112/31 589/115/31 585/111/31
f 594/109/26 586/114/26 584/108/26
f 588/112/120 590/116/120 591/304/120
f 590/108/15 588/110/15 587/109/15
f 594/118/13 591/126/13 590/117/13
f 586/121/13 592/114/13 593/120/13
f 582/105/120 593/124/120 592/123/120
f 595/125/15 597/361/15 589/115/15
f 600/128/13 596/305/13 595/127/13
f 595/131/120 596/362/120 598/130/120
f 597/132/31 598/130/31 599/133/31
f 600/128/15 599/133/15 598/130/15
f 600/109/26 594/114/26 585/108/26
s 1
f 602/136/15 623/171/16 603/135/12
f 601/137/14 603/135/12 606/138/11
f 604/139/13 606/138/11 607/140/10
f 606/142/11 608/144/8 609/143/36
f 603/145/12 610/146/9 608/144/8
f 608/147/8 611/149/4 612/148/6
f 613/151/1 611/149/4 608/147/8
f 611/306/4 614/386/5 615/307/7
f 616/309/3 614/386/5 611/306/4
f 617/311/2 616/309/3 613/310/1
f 618/313/17 617/311/2 619/312/21
f 619/162/21 613/363/1 610/161/9
f 620/164/22 619/162/21 621/163/114
f 621/167/114 610/364/9 603/166/12
f 622/169/20 621/167/114 623/168/16
f 625/172/17 624/173/18 623/171/16
f 627/174/31 626/177/29 624/173/18
f 629/175/119 622/169/20 624/170/18
f 640/178/32 628/365/121 626/177/29
f 628/179/121 630/180/122 629/175/119
f 629/181/119 631/182/25 620/164/22
f 630/183/122 632/184/123 631/182/25
f 633/315/23 618/313/17 620/314/22
f 632/317/123 634/387/26 633/315/23
f 635/318/38 634/388/26 632/319/123
f 615/307/7 635/318/38 636/320/37
f 637/193/115 636/195/37 632/194/123
f 612/148/6 636/195/37 637/193/115
f 638/197/34 637/199/115 630/198/122
f 607/200/10 609/143/36 637/199/115
f 639/202/33 638/204/34 628/201/121
f 639/202/33 605/141/7 607/140/10
f 642/323/2 656/389/2 643/324/3
f 644/326/5 641/330/3 643/327/3
f 644/329/5 646/332/5 647/327/7
f 645/331/7 647/334/7 648/332/38
f 650/333/38 648/336/38 649/334/26
f 651/335/26 649/338/26 654/336/23
f 652/337/23 654/339/23 655/338/17
f 653/325/17 655/324/17 656/339/2
f 658/323/2 672/389/2 659/324/3
f 660/326/5 657/330/3 659/327/3
f 660/329/5 662/332/5 663/327/7
f 661/331/7 663/334/7 664/332/38
f 666/333/38 664/336/38 665/334/26
f 667/335/26 665/338/26 670/336/23
f 668/337/23 670/339/23 671/338/17
f 669/325/17 671/324/17 672/339/2
f 674/323/2 688/389/2 675/324/3
f 676/326/5 673/330/3 675/327/3
f 676/329/5 678/332/5 679/327/7
f 677/331/7 679/334/7 680/332/38
f 682/333/38 680/336/38 681/334/26
f 683/335/26 681/338/26 686/336/23
f 684/337/23 686/339/23 687/338/17
f 685/325/17 687/324/17 688/339/2
s 0
f 690/340/31 692/344/31 691/341/31
f 690/340/32 693/345/32 694/343/32
f 693/345/33 695/390/33 696/346/33
f 698/340/13 700/344/13 699/341/13
f 698/340/14 701/345/14 702/343/14
f 701/345/15 703/390/15 704/346/15
f 707/341/13 708/344/13 706/340/13
f 710/343/14 709/345/14 706/340/14
f 712/346/15 711/390/15 709/345/15
f 715/341/31 716/344/31 714/340/31
f 718/343/32 717/345/32 714/340/32
f 720/346/33 719/390/33 717/345/33
