# Blender v2.79 (sub 0) OBJ File: 'furnace_steel.blend'
# www.blender.org
o Plane
v -1.500000 0.000000 1.500000
v 1.500000 0.000000 1.500000
v -1.500000 0.000000 -1.500000
v 1.500000 0.000000 -1.500000
v -1.500000 0.125000 1.500000
v 1.500000 0.125000 1.500000
v -1.500000 0.125000 -1.500000
v 1.500000 0.125000 -1.500000
v -1.125000 0.125000 -1.375000
v -1.125000 0.125000 1.375000
v 1.375000 0.125000 1.375000
v 1.375000 0.125000 -1.375000
v -1.125000 1.125000 -1.375000
v -1.125000 1.125000 1.375000
v 1.375000 1.125000 1.375000
v 1.375000 1.125000 -1.375000
v -1.125000 1.625000 -0.625000
v -1.125000 1.625000 0.625000
v 1.375000 1.625000 0.625000
v 1.375000 1.625000 -0.625000
v -1.375000 0.125000 0.125000
v -1.125000 0.125000 0.125000
v -1.375000 0.125000 -0.125000
v -1.125000 0.125000 -0.125000
v -1.375000 1.750000 -0.125000
v -1.375000 1.750000 0.125000
v -1.125000 1.750000 0.125000
v -1.125000 1.750000 -0.125000
v -0.125000 1.750000 0.125000
v -0.125000 1.750000 -0.125000
v -1.125000 2.000000 0.125000
v -1.125000 2.000000 -0.125000
v -0.125000 2.000000 0.125000
v -0.125000 2.000000 -0.125000
v 0.125000 1.750000 0.125000
v 0.125000 1.750000 -0.125000
v -0.125000 1.625000 0.125000
v -0.125000 1.625000 -0.125000
v 0.125000 1.625000 0.125000
v 0.125000 1.625000 -0.125000
v 0.125000 1.625000 0.375000
v 0.125000 1.625000 0.625000
v -0.125000 1.625000 0.375000
v -0.125000 1.625000 0.625000
v 0.125000 1.750000 0.375000
v 0.125000 1.750000 0.625000
v -0.125000 2.000000 0.375000
v -0.125000 2.000000 0.625000
v -1.125000 2.000000 0.375000
v -1.125000 2.000000 0.625000
v -0.125000 1.750000 0.375000
v -0.125000 1.750000 0.625000
v -1.125000 1.750000 0.375000
v -1.125000 1.750000 0.625000
v -1.375000 1.750000 0.625000
v -1.375000 1.750000 0.375000
v -1.125000 0.125000 0.375000
v -1.375000 0.125000 0.375000
v -1.125000 0.125000 0.625000
v -1.375000 0.125000 0.625000
v -1.375000 0.125000 1.125000
v -1.125000 0.125000 1.125000
v -1.375000 0.125000 0.875000
v -1.125000 0.125000 0.875000
v -1.375000 1.750000 0.875000
v -1.375000 1.750000 1.125000
v -1.125000 1.750000 1.125000
v -1.125000 1.750000 0.875000
v 0.875000 1.750000 1.125000
v 0.875000 1.750000 0.875000
v -1.125000 2.000000 1.125000
v -1.125000 2.000000 0.875000
v 0.875000 2.000000 1.125000
v 0.875000 2.000000 0.875000
v 1.125000 1.750000 1.125000
v 1.125000 1.750000 0.875000
v 0.875000 1.250000 1.125000
v 0.875000 1.250000 0.875000
v 1.125000 1.250000 1.125000
v 1.125000 1.250000 0.875000
v -1.375000 0.125000 -0.500000
v -0.875000 0.125000 -0.500000
v -1.375000 0.125000 -1.000000
v -0.875000 0.125000 -1.000000
v -1.375000 2.625000 -0.500000
v -0.875000 2.625000 -0.500000
v -1.375000 2.625000 -1.000000
v -0.875000 2.625000 -1.000000
v 0.375000 1.625000 0.375000
v 1.125000 1.625000 0.375000
v 0.375000 1.625000 -0.375000
v 1.125000 1.625000 -0.375000
v 0.375000 1.875000 -0.375000
v 0.375000 1.875000 0.375000
v 1.125000 1.875000 0.375000
v 1.125000 1.875000 -0.375000
v 0.500000 1.875000 -0.250000
v 0.500000 1.875000 0.250000
v 1.000000 1.875000 0.250000
v 1.000000 1.875000 -0.250000
v 0.500000 1.750000 -0.250000
v 0.500000 1.750000 0.250000
v 1.000000 1.750000 0.250000
v 1.000000 1.750000 -0.250000
v 0.500000 1.812500 -0.250000
v 0.500000 1.812500 0.250000
v 1.000000 1.812500 0.250000
v 1.000000 1.812500 -0.250000
v 0.000000 1.125000 -0.750000
v 0.500000 1.125000 -0.750000
v 0.000000 1.125000 -1.250000
v 0.500000 1.125000 -1.250000
v 0.000000 1.625000 -1.250000
v 0.000000 1.625000 -0.750000
v 0.500000 1.625000 -0.750000
v 0.500000 1.625000 -1.250000
v 0.125000 1.875000 -1.125000
v 0.125000 1.875000 -0.875000
v 0.375000 1.875000 -0.875000
v 0.375000 1.875000 -1.125000
v 0.750000 1.125000 -0.750000
v 1.250000 1.125000 -0.750000
v 0.750000 1.125000 -1.250000
v 1.250000 1.125000 -1.250000
v 0.750000 1.625000 -1.250000
v 0.750000 1.625000 -0.750000
v 1.250000 1.625000 -0.750000
v 1.250000 1.625000 -1.250000
v 0.875000 1.875000 -1.125000
v 0.875000 1.875000 -0.875000
v 1.125000 1.875000 -0.875000
v 1.125000 1.875000 -1.125000
v -0.750000 1.125000 -0.750000
v -0.250000 1.125000 -0.750000
v -0.750000 1.125000 -1.250000
v -0.250000 1.125000 -1.250000
v -0.750000 1.625000 -1.250000
v -0.750000 1.625000 -0.750000
v -0.250000 1.625000 -0.750000
v -0.250000 1.625000 -1.250000
v -0.625000 1.875000 -1.125000
v -0.625000 1.875000 -0.875000
v -0.375000 1.875000 -0.875000
v -0.375000 1.875000 -1.125000
v 1.375000 0.812500 0.750000
v 1.375000 0.562500 0.750000
v 1.375000 0.812500 -0.750000
v 1.375000 0.562500 -0.750000
v 1.375000 0.937500 0.625000
v 1.375000 0.937500 -0.625000
v 0.875000 0.812500 0.750000
v 0.875000 0.562500 0.750000
v 0.875000 0.562500 -0.750000
v 0.875000 0.812500 -0.750000
v 0.875000 0.937500 -0.625000
v 0.875000 0.937500 0.625000
v 1.250000 0.812500 0.750000
v 1.250000 0.562500 0.750000
v 1.250000 0.562500 -0.750000
v 1.250000 0.812500 -0.750000
v 1.250000 0.937500 -0.625000
v 1.250000 0.937500 0.625000
v -0.500000 0.000000 0.500000
v 0.500000 0.000000 0.500000
v -0.500000 0.000000 -0.500000
v 0.500000 0.000000 -0.500000
v 0.437500 0.000000 -0.437500
v -0.437500 0.000000 -0.437500
v 0.437500 0.000000 0.437500
v -0.437500 0.000000 0.437500
v -0.500000 0.062500 -0.500000
v -0.500000 0.062500 0.500000
v 0.500000 0.062500 0.500000
v 0.500000 0.062500 -0.500000
v 0.437500 0.062500 -0.437500
v -0.437500 0.062500 -0.437500
v 0.437500 0.062500 0.437500
v -0.437500 0.062500 0.437500
vt 0.087156 0.690000
vt 0.151376 0.550000
vt 0.151376 0.690000
vt 0.229358 0.500000
vt 0.220183 0.920000
vt 0.220183 0.520000
vt 0.238532 0.980000
vt 0.238532 0.500000
vt 0.000000 0.500000
vt 0.009174 0.980000
vt 0.000000 0.980000
vt 0.229358 0.480000
vt 0.009174 0.500000
vt 0.009174 0.480000
vt 0.009174 1.000000
vt 0.229358 0.980000
vt 0.229358 1.000000
vt 0.018349 0.920000
vt 0.018349 0.520000
vt 0.614679 0.000000
vt 0.458716 0.070000
vt 0.412844 0.000000
vt 0.798165 0.000000
vt 0.614679 0.160000
vt 0.229358 0.160000
vt 0.229358 0.000000
vt 0.467890 0.240000
vt 0.559633 0.640000
vt 0.467890 0.640000
vt 0.614679 0.640000
vt 0.559633 0.240000
vt 0.614679 0.240000
vt 0.412844 0.240000
vt 0.412844 0.640000
vt 1.000000 0.000000
vt 0.944954 0.240000
vt 0.733945 0.800000
vt 0.807339 0.760000
vt 0.807339 0.800000
vt 0.733945 0.640000
vt 0.807339 0.680000
vt 0.733945 0.680000
vt 0.596330 0.640000
vt 0.715596 0.680000
vt 0.596330 0.680000
vt 0.596330 0.720000
vt 0.715596 0.760000
vt 0.596330 0.760000
vt 0.715596 0.800000
vt 0.596330 0.800000
vt 0.715596 0.720000
vt 0.733945 0.720000
vt 0.807339 0.720000
vt 0.733945 0.760000
vt 0.715596 0.800000
vt 0.715596 0.680000
vt 0.825688 0.680000
vt 0.834862 0.720000
vt 0.825688 0.720000
vt 0.825688 0.680000
vt 0.825688 0.760000
vt 0.825688 0.800000
vt 0.825688 0.640000
vt 0.834862 0.680000
vt 0.825688 0.680000
vt 0.834862 0.800000
vt 0.825688 0.800000
vt 0.834862 0.760000
vt 0.825688 0.640000
vt 0.834862 0.680000
vt 0.825688 0.720000
vt 0.834862 0.760000
vt 0.825688 0.760000
vt 0.834862 0.800000
vt 0.825688 0.800000
vt 0.807339 0.800000
vt 0.807339 0.760000
vt 0.825688 0.800000
vt 0.807339 0.720000
vt 0.807339 0.680000
vt 0.825688 0.680000
vt 0.834862 0.720000
vt 0.733945 0.680000
vt 0.733945 0.720000
vt 0.715596 0.680000
vt 0.715596 0.800000
vt 0.733945 0.760000
vt 0.733945 0.800000
vt 0.715596 0.720000
vt 0.715596 0.760000
vt 0.596330 0.680000
vt 0.596330 0.720000
vt 0.596330 0.760000
vt 0.715596 0.800000
vt 0.596330 0.800000
vt 0.596330 0.640000
vt 0.715596 0.680000
vt 0.733945 0.640000
vt 0.376147 0.800000
vt 0.522936 0.760000
vt 0.522936 0.800000
vt 0.376147 0.640000
vt 0.522936 0.680000
vt 0.376147 0.680000
vt 0.238532 0.640000
vt 0.357798 0.680000
vt 0.238532 0.680000
vt 0.238532 0.720000
vt 0.357798 0.760000
vt 0.238532 0.760000
vt 0.357798 0.800000
vt 0.238532 0.800000
vt 0.357798 0.720000
vt 0.376147 0.720000
vt 0.522936 0.720000
vt 0.376147 0.760000
vt 0.357798 0.800000
vt 0.357798 0.680000
vt 0.541284 0.680000
vt 0.577982 0.720000
vt 0.541284 0.720000
vt 0.541284 0.680000
vt 0.541284 0.760000
vt 0.541284 0.800000
vt 0.577982 0.800000
vt 0.541284 0.800000
vt 0.577982 0.760000
vt 0.541284 0.640000
vt 0.577982 0.680000
vt 0.871560 0.640000
vt 0.834862 0.240000
vt 0.871560 0.240000
vt 0.944954 0.640000
vt 0.908257 0.240000
vt 0.944954 0.240000
vt 0.908257 0.640000
vt 0.981651 0.640000
vt 0.981651 0.240000
vt 0.834862 0.720000
vt 0.871560 0.720000
vt 0.467890 0.130000
vt 0.669725 0.280000
vt 0.623853 0.300000
vt 0.614679 0.280000
vt 0.834862 0.240000
vt 0.779817 0.280000
vt 0.779817 0.240000
vt 0.669725 0.240000
vt 0.614679 0.240000
vt 0.724771 0.280000
vt 0.724771 0.240000
vt 0.678899 0.400000
vt 0.715596 0.380000
vt 0.715596 0.400000
vt 0.614679 0.400000
vt 0.660550 0.380000
vt 0.669725 0.400000
vt 0.660550 0.300000
vt 0.623853 0.380000
vt 0.678899 0.300000
vt 0.678899 0.380000
vt 0.724771 0.380000
vt 0.715596 0.300000
vt 0.724771 0.300000
vt 0.669725 0.300000
vt 0.669725 0.380000
vt 0.715596 0.280000
vt 0.678899 0.280000
vt 0.623853 0.300000
vt 0.660550 0.380000
vt 0.623853 0.380000
vt 0.688073 0.480000
vt 0.660550 0.520000
vt 0.651376 0.480000
vt 0.688073 0.480000
vt 0.660550 0.520000
vt 0.651376 0.480000
vt 0.651376 0.400000
vt 0.614679 0.480000
vt 0.614679 0.400000
vt 0.724771 0.400000
vt 0.688073 0.400000
vt 0.761468 0.400000
vt 0.724771 0.480000
vt 0.623853 0.520000
vt 0.642202 0.560000
vt 0.623853 0.560000
vt 0.761468 0.480000
vt 0.733945 0.520000
vt 0.697248 0.520000
vt 0.651376 0.400000
vt 0.614679 0.480000
vt 0.614679 0.400000
vt 0.724771 0.400000
vt 0.688073 0.400000
vt 0.761468 0.400000
vt 0.724771 0.480000
vt 0.623853 0.520000
vt 0.642202 0.560000
vt 0.623853 0.560000
vt 0.761468 0.480000
vt 0.733945 0.520000
vt 0.697248 0.520000
vt 0.688073 0.480000
vt 0.660550 0.520000
vt 0.651376 0.480000
vt 0.651376 0.400000
vt 0.614679 0.480000
vt 0.614679 0.400000
vt 0.724771 0.400000
vt 0.688073 0.400000
vt 0.761468 0.400000
vt 0.724771 0.480000
vt 0.623853 0.520000
vt 0.642202 0.560000
vt 0.623853 0.560000
vt 0.761468 0.480000
vt 0.733945 0.520000
vt 0.697248 0.520000
vt 0.412844 0.160000
vt 0.568807 0.070000
vt 0.559633 0.130000
vt 0.412844 0.300000
vt 0.376147 0.280000
vt 0.412844 0.280000
vt 0.275229 0.300000
vt 0.376147 0.240000
vt 0.366972 0.300000
vt 0.275229 0.380000
vt 0.366972 0.380000
vt 0.376147 0.160000
vt 0.266055 0.240000
vt 0.266055 0.160000
vt 0.229358 0.280000
vt 0.266055 0.300000
vt 0.229358 0.300000
vt 0.412844 0.240000
vt 0.229358 0.240000
vt 0.266055 0.280000
vt 0.275229 0.440000
vt 0.376147 0.380000
vt 0.366972 0.440000
vt 0.087156 0.700000
vt 0.087156 0.550000
vt 0.151376 0.540000
vt 0.155963 0.520000
vt 0.082569 0.530000
vt 0.082569 0.520000
vt 0.082569 0.720000
vt 0.155963 0.710000
vt 0.155963 0.720000
vt 0.155963 0.320000
vt 0.155963 0.160000
vt 0.229358 0.000000
vt 0.082569 0.160000
vt 0.009174 0.000000
vt 0.082569 0.320000
vt 0.077982 0.540000
vt 0.082569 0.690000
vt 0.077982 0.700000
vt 0.155963 0.530000
vt 0.087156 0.540000
vt 0.160550 0.700000
vt 0.155963 0.550000
vt 0.160550 0.540000
vt 0.082569 0.710000
vt 0.151376 0.700000
vt 0.165138 0.700000
vt 0.165138 0.540000
vt 0.073394 0.540000
vt 0.073394 0.700000
vt 0.082569 0.550000
vt 0.155963 0.690000
vt 0.798165 0.160000
vt 1.000000 0.160000
vt 0.853211 0.240000
vt 0.807339 0.640000
vt 0.715596 0.640000
vt 0.834862 0.640000
vt 0.834862 0.640000
vt 0.715596 0.640000
vt 0.807339 0.640000
vt 0.522936 0.640000
vt 0.357798 0.640000
vt 0.577982 0.640000
vt 0.834862 0.640000
vt 0.834862 0.280000
vt 0.660550 0.300000
vt 0.678899 0.520000
vt 0.678899 0.520000
vt 0.642202 0.520000
vt 0.752294 0.520000
vt 0.715596 0.520000
vt 0.642202 0.520000
vt 0.752294 0.520000
vt 0.715596 0.520000
vt 0.678899 0.520000
vt 0.642202 0.520000
vt 0.752294 0.520000
vt 0.715596 0.520000
vt 0.458716 0.110000
vt 0.568807 0.110000
vt 0.376147 0.300000
vt 0.266055 0.420000
vt 0.266055 0.380000
vt 0.376147 0.420000
vn 0.0000 -1.0000 0.0000
vn 0.0000 1.0000 0.0000
vn 0.0000 0.0000 -1.0000
vn 0.0000 0.0000 1.0000
vn 1.0000 0.0000 0.0000
vn -1.0000 0.0000 0.0000
vn 0.0000 0.8321 -0.5547
vn 0.0000 0.8321 0.5547
vn -0.7071 0.7071 0.0000
vn 0.7071 0.7071 0.0000
vn 0.0000 0.4472 -0.8944
vn 0.0000 0.4472 0.8944
vn 0.8944 0.4472 0.0000
vn -0.8944 0.4472 0.0000
vn 0.0000 -0.7071 0.7071
vn 0.0000 -0.7071 -0.7071
s off
f 169/1/1 168/2/1 167/3/1
f 8/4/2 9/5/2 12/6/2
f 3/7/3 8/4/3 4/8/3
f 2/9/4 5/10/4 1/11/4
f 4/12/5 6/13/5 2/14/5
f 1/15/6 7/16/6 3/17/6
f 6/13/2 10/18/2 5/10/2
f 8/4/2 11/19/2 6/13/2
f 5/10/2 9/5/2 7/16/2
f 12/20/5 146/21/5 11/22/5
f 9/23/3 16/24/3 12/20/3
f 11/22/4 14/25/4 10/26/4
f 19/27/2 17/28/2 18/29/2
f 13/30/7 20/31/7 16/32/7
f 15/33/8 18/29/8 14/34/8
f 9/23/6 10/35/6 18/36/6
f 28/37/3 34/38/3 30/39/3
f 28/40/1 29/41/1 27/42/1
f 24/43/5 27/44/5 22/45/5
f 21/46/6 25/47/6 23/48/6
f 23/48/3 28/49/3 24/50/3
f 22/45/4 26/51/4 21/46/4
f 29/41/4 31/52/4 27/42/4
f 34/38/2 31/52/2 33/53/2
f 26/51/9 32/54/9 25/47/9
f 25/55/3 32/54/3 28/37/3
f 27/42/4 31/52/4 26/56/4
f 29/57/4 39/58/4 35/59/4
f 29/41/4 35/60/4 33/53/4
f 33/53/10 36/61/10 34/38/10
f 30/39/3 34/38/3 36/62/3
f 51/63/6 44/64/6 52/65/6
f 36/61/3 38/66/3 30/67/3
f 35/59/5 40/68/5 36/61/5
f 30/69/6 37/70/6 29/57/6
f 46/71/5 41/72/5 45/73/5
f 45/73/3 43/74/3 51/75/3
f 51/76/3 47/77/3 45/78/3
f 48/79/10 45/73/10 47/77/10
f 52/80/4 46/81/4 48/79/4
f 52/65/4 42/82/4 46/71/4
f 54/83/4 50/84/4 55/85/4
f 56/86/3 49/87/3 53/88/3
f 55/89/9 49/87/9 56/90/9
f 47/77/2 50/84/2 48/79/2
f 52/80/4 50/84/4 54/83/4
f 59/91/4 55/89/4 60/92/4
f 58/93/3 53/94/3 57/95/3
f 60/92/6 56/90/6 58/93/6
f 57/96/5 54/97/5 59/91/5
f 53/98/1 52/80/1 54/83/1
f 53/88/3 47/77/3 51/76/3
f 68/99/3 74/100/3 70/101/3
f 68/102/1 69/103/1 67/104/1
f 64/105/5 67/106/5 62/107/5
f 61/108/6 65/109/6 63/110/6
f 63/110/3 68/111/3 64/112/3
f 62/107/4 66/113/4 61/108/4
f 69/103/4 71/114/4 67/104/4
f 74/100/2 71/114/2 73/115/2
f 66/113/9 72/116/9 65/109/9
f 65/117/3 72/116/3 68/99/3
f 67/104/4 71/114/4 66/118/4
f 69/119/4 79/120/4 75/121/4
f 69/103/4 75/122/4 73/115/4
f 73/115/10 76/123/10 74/100/10
f 70/101/3 74/100/3 76/124/3
f 76/123/3 78/125/3 70/126/3
f 75/121/5 80/127/5 76/123/5
f 70/128/6 77/129/6 69/119/6
f 88/130/5 82/131/5 84/132/5
f 85/133/6 83/134/6 81/135/6
f 87/136/3 84/132/3 83/134/3
f 86/137/4 81/135/4 82/138/4
f 85/139/2 88/130/2 87/140/2
f 149/141/5 20/31/5 19/27/5
f 96/142/2 99/143/2 95/144/2
f 90/145/4 94/146/4 89/147/4
f 92/148/5 95/144/5 90/149/5
f 89/147/6 93/150/6 91/151/6
f 91/151/3 96/142/3 92/148/3
f 98/152/5 101/153/5 97/154/5
f 94/155/2 97/156/2 93/157/2
f 93/157/2 100/158/2 96/142/2
f 95/144/2 98/159/2 94/155/2
f 103/160/2 101/153/2 102/161/2
f 97/162/4 104/163/4 100/164/4
f 99/165/3 102/161/3 98/166/3
f 100/167/6 103/160/6 99/168/6
f 107/169/2 105/170/2 106/171/2
f 125/172/11 132/173/11 128/174/11
f 113/175/11 120/176/11 116/177/11
f 112/178/5 115/179/5 110/180/5
f 109/181/6 113/175/6 111/182/6
f 111/182/3 116/177/3 112/178/3
f 110/183/4 114/184/4 109/181/4
f 119/185/2 117/186/2 118/187/2
f 115/188/12 118/189/12 114/184/12
f 116/177/13 119/185/13 115/179/13
f 114/184/14 117/190/14 113/175/14
f 124/191/5 127/192/5 122/193/5
f 121/194/6 125/172/6 123/195/6
f 123/195/3 128/174/3 124/191/3
f 122/196/4 126/197/4 121/194/4
f 131/198/2 129/199/2 130/200/2
f 127/201/12 130/202/12 126/197/12
f 128/174/13 131/198/13 127/192/13
f 126/197/14 129/203/14 125/172/14
f 137/204/11 144/205/11 140/206/11
f 136/207/5 139/208/5 134/209/5
f 133/210/6 137/204/6 135/211/6
f 135/211/3 140/206/3 136/207/3
f 134/212/4 138/213/4 133/210/4
f 143/214/2 141/215/2 142/216/2
f 139/217/12 142/218/12 138/213/12
f 140/206/13 143/214/13 139/208/13
f 138/213/14 141/219/14 137/204/14
f 146/21/5 15/220/5 11/22/5
f 16/24/5 148/221/5 12/20/5
f 150/222/5 16/24/5 20/31/5
f 15/220/5 149/141/5 19/27/5
f 150/223/15 154/224/15 147/225/15
f 156/226/5 153/227/5 155/228/5
f 149/229/1 155/228/1 150/230/1
f 148/231/2 152/232/2 146/233/2
f 145/234/16 156/235/16 149/236/16
f 147/225/4 153/227/4 148/237/4
f 146/238/3 151/239/3 145/234/3
f 162/240/5 159/241/5 161/242/5
f 167/3/5 177/243/5 169/1/5
f 170/244/6 176/245/6 168/2/6
f 165/246/5 172/247/5 163/248/5
f 164/249/6 174/250/6 166/251/6
f 2/14/1 166/252/1 4/12/1
f 4/12/1 165/253/1 3/254/1
f 3/254/1 163/255/1 1/256/1
f 1/256/1 164/257/1 2/14/1
f 172/258/1 177/259/1 173/260/1
f 171/261/1 178/262/1 172/247/1
f 174/263/1 176/264/1 171/265/1
f 173/266/1 175/267/1 174/250/1
f 166/268/4 171/265/4 165/269/4
f 163/270/3 173/260/3 164/271/3
f 169/1/4 178/272/4 170/244/4
f 168/2/3 175/273/3 167/3/3
f 169/1/1 170/244/1 168/2/1
f 8/4/2 7/16/2 9/5/2
f 3/7/3 7/16/3 8/4/3
f 2/9/4 6/13/4 5/10/4
f 4/12/5 8/4/5 6/13/5
f 1/15/6 5/10/6 7/16/6
f 6/13/2 11/19/2 10/18/2
f 8/4/2 12/6/2 11/19/2
f 5/10/2 10/18/2 9/5/2
f 12/20/5 148/221/5 146/21/5
f 9/23/3 13/274/3 16/24/3
f 11/22/4 15/220/4 14/25/4
f 19/27/2 20/31/2 17/28/2
f 13/30/7 17/28/7 20/31/7
f 15/33/8 19/27/8 18/29/8
f 10/35/6 14/275/6 18/36/6
f 18/36/6 17/276/6 9/23/6
f 17/276/6 13/274/6 9/23/6
f 28/37/3 32/54/3 34/38/3
f 28/40/1 30/277/1 29/41/1
f 24/43/5 28/278/5 27/44/5
f 21/46/6 26/51/6 25/47/6
f 23/48/3 25/47/3 28/49/3
f 22/45/4 27/44/4 26/51/4
f 29/41/4 33/53/4 31/52/4
f 34/38/2 32/54/2 31/52/2
f 26/51/9 31/52/9 32/54/9
f 29/57/4 37/70/4 39/58/4
f 33/53/10 35/59/10 36/61/10
f 51/63/6 43/279/6 44/64/6
f 36/61/3 40/68/3 38/66/3
f 35/59/5 39/58/5 40/68/5
f 30/69/6 38/280/6 37/70/6
f 46/71/5 42/82/5 41/72/5
f 45/73/3 41/72/3 43/74/3
f 48/79/10 46/71/10 45/73/10
f 52/65/4 44/64/4 42/82/4
f 55/89/9 50/84/9 49/87/9
f 47/77/2 49/87/2 50/84/2
f 52/80/4 48/79/4 50/84/4
f 59/91/4 54/97/4 55/89/4
f 58/93/3 56/90/3 53/94/3
f 60/92/6 55/89/6 56/90/6
f 57/96/5 53/281/5 54/97/5
f 53/98/1 51/282/1 52/80/1
f 53/88/3 49/87/3 47/77/3
f 68/99/3 72/116/3 74/100/3
f 68/102/1 70/283/1 69/103/1
f 64/105/5 68/284/5 67/106/5
f 61/108/6 66/113/6 65/109/6
f 63/110/3 65/109/3 68/111/3
f 62/107/4 67/106/4 66/113/4
f 69/103/4 73/115/4 71/114/4
f 74/100/2 72/116/2 71/114/2
f 66/113/9 71/114/9 72/116/9
f 69/119/4 77/129/4 79/120/4
f 73/115/10 75/121/10 76/123/10
f 76/123/3 80/127/3 78/125/3
f 75/121/5 79/120/5 80/127/5
f 70/128/6 78/285/6 77/129/6
f 88/130/5 86/286/5 82/131/5
f 85/133/6 87/136/6 83/134/6
f 87/136/3 88/130/3 84/132/3
f 86/137/4 85/133/4 81/135/4
f 85/139/2 86/286/2 88/130/2
f 149/141/5 150/222/5 20/31/5
f 96/142/2 100/158/2 99/143/2
f 90/145/4 95/287/4 94/146/4
f 92/148/5 96/142/5 95/144/5
f 89/147/6 94/146/6 93/150/6
f 91/151/3 93/150/3 96/142/3
f 98/152/5 102/161/5 101/153/5
f 94/155/2 98/159/2 97/156/2
f 93/157/2 97/156/2 100/158/2
f 95/144/2 99/143/2 98/159/2
f 103/160/2 104/163/2 101/153/2
f 97/162/4 101/153/4 104/163/4
f 99/165/3 103/160/3 102/161/3
f 100/167/6 104/163/6 103/160/6
f 107/169/2 108/288/2 105/170/2
f 125/172/11 129/289/11 132/173/11
f 113/175/11 117/290/11 120/176/11
f 112/178/5 116/177/5 115/179/5
f 109/181/6 114/184/6 113/175/6
f 111/182/3 113/175/3 116/177/3
f 110/183/4 115/188/4 114/184/4
f 119/185/2 120/291/2 117/186/2
f 115/188/12 119/292/12 118/189/12
f 116/177/13 120/291/13 119/185/13
f 114/184/14 118/293/14 117/190/14
f 124/191/5 128/174/5 127/192/5
f 121/194/6 126/197/6 125/172/6
f 123/195/3 125/172/3 128/174/3
f 122/196/4 127/201/4 126/197/4
f 131/198/2 132/294/2 129/199/2
f 127/201/12 131/295/12 130/202/12
f 128/174/13 132/294/13 131/198/13
f 126/197/14 130/296/14 129/203/14
f 137/204/11 141/297/11 144/205/11
f 136/207/5 140/206/5 139/208/5
f 133/210/6 138/213/6 137/204/6
f 135/211/3 137/204/3 140/206/3
f 134/212/4 139/217/4 138/213/4
f 143/214/2 144/298/2 141/215/2
f 139/217/12 143/299/12 142/218/12
f 140/206/13 144/298/13 143/214/13
f 138/213/14 142/300/14 141/219/14
f 146/21/5 145/301/5 15/220/5
f 16/24/5 147/302/5 148/221/5
f 150/222/5 147/302/5 16/24/5
f 15/220/5 145/301/5 149/141/5
f 150/223/15 155/303/15 154/224/15
f 156/226/5 151/239/5 152/232/5
f 152/232/5 153/227/5 156/226/5
f 153/227/5 154/224/5 155/228/5
f 149/229/1 156/226/1 155/228/1
f 148/231/2 153/227/2 152/232/2
f 145/234/16 151/239/16 156/235/16
f 147/225/4 154/224/4 153/227/4
f 146/238/3 152/232/3 151/239/3
f 162/240/5 157/304/5 158/305/5
f 158/305/5 159/241/5 162/240/5
f 159/241/5 160/306/5 161/242/5
f 167/3/5 175/267/5 177/243/5
f 170/244/6 178/262/6 176/245/6
f 165/246/5 171/261/5 172/247/5
f 164/249/6 173/266/6 174/250/6
f 2/14/1 164/257/1 166/252/1
f 4/12/1 166/252/1 165/253/1
f 3/254/1 165/253/1 163/255/1
f 1/256/1 163/255/1 164/257/1
f 172/258/1 178/272/1 177/259/1
f 171/261/1 176/245/1 178/262/1
f 174/263/1 175/273/1 176/264/1
f 173/266/1 177/243/1 175/267/1
f 166/268/4 174/263/4 171/265/4
f 163/270/3 172/258/3 173/260/3
f 169/1/4 177/259/4 178/272/4
f 168/2/3 176/264/3 175/273/3
