# Blender v3.2.0 OBJ File: 'piston_inserter.blend'
# www.blender.org
mtllib piston_inserter.mtl
o Frame
v -0.125000 0.000000 0.125000
v -0.125000 1.000000 0.125000
v -0.125000 0.000000 -0.125000
v -0.125000 1.000000 -0.125000
v 0.125000 0.000000 0.125000
v 0.125000 1.000000 0.125000
v 0.125000 0.000000 -0.125000
v 0.125000 1.000000 -0.125000
v -0.500000 1.000000 0.500000
v -0.500000 1.000000 -0.500000
v 0.500000 1.000000 -0.500000
v 0.500000 1.000000 0.500000
v -0.500000 0.000000 -0.500000
v -0.500000 0.000000 0.500000
v 0.500000 0.000000 -0.500000
v 0.500000 0.000000 0.500000
v -0.375000 1.000000 0.375000
v -0.375000 1.000000 -0.375000
v 0.375000 1.000000 -0.375000
v 0.375000 1.000000 0.375000
v -0.375000 0.000000 -0.375000
v -0.375000 0.000000 0.375000
v 0.375000 0.000000 -0.375000
v 0.375000 0.000000 0.375000
v 0.312500 0.937500 0.375000
v 0.375000 0.937500 0.375000
v 0.125000 0.937500 0.125000
v 0.375000 0.937500 0.312500
v 0.004327 0.858644 -0.020544
v 0.062500 0.937500 0.125000
v 0.125000 0.937500 0.062500
v -0.312500 0.937500 -0.375000
v -0.375000 0.937500 -0.375000
v -0.125000 0.937500 -0.125000
v -0.375000 0.937500 -0.312500
v -0.062500 0.937500 -0.125000
v -0.125000 0.937500 -0.062500
v 0.375000 0.937500 -0.312500
v 0.375000 0.937500 -0.375000
v 0.125000 0.937500 -0.125000
v 0.312500 0.937500 -0.375000
v 0.125000 0.937500 -0.062500
v 0.062500 0.937500 -0.125000
v -0.375000 0.937500 0.312500
v -0.375000 0.937500 0.375000
v -0.125000 0.937500 0.125000
v -0.312500 0.937500 0.375000
v -0.125000 0.937500 0.062500
v -0.062500 0.937500 0.125000
v 0.312500 0.062500 0.375000
v 0.375000 0.062500 0.375000
v 0.125000 0.062500 0.125000
v 0.375000 0.062500 0.312500
v 0.062500 0.062500 0.125000
v 0.125000 0.062500 0.062500
v -0.312500 0.062500 -0.375000
v -0.375000 0.062500 -0.375000
v -0.125000 0.062500 -0.125000
v -0.375000 0.062500 -0.312500
v -0.062500 0.062500 -0.125000
v -0.125000 0.062500 -0.062500
v 0.375000 0.062500 -0.312500
v 0.375000 0.062500 -0.375000
v 0.125000 0.062500 -0.125000
v 0.312500 0.062500 -0.375000
v 0.125000 0.062500 -0.062500
v 0.062500 0.062500 -0.125000
v -0.375000 0.062500 0.312500
v -0.375000 0.062500 0.375000
v -0.125000 0.062500 0.125000
v -0.312500 0.062500 0.375000
v -0.125000 0.062500 0.062500
v -0.062500 0.062500 0.125000
vt 0.571429 0.666667
vt 0.000000 0.333333
vt 0.571429 0.333333
vt 0.571429 0.666667
vt -0.000000 0.333333
vt 0.571429 0.333333
vt 0.571429 0.666667
vt -0.000000 0.333333
vt 0.571429 0.333333
vt 0.571429 0.666667
vt -0.000000 0.333333
vt 0.571429 0.333333
vt 0.714286 0.416667
vt 0.571429 0.333333
vt 0.714286 0.333333
vt 0.714286 0.750000
vt 0.571429 0.833333
vt 0.571429 0.750000
vt 0.071429 0.708333
vt 0.500000 0.708333
vt 0.071429 0.958333
vt 0.000000 0.666667
vt 0.500000 0.958333
vt 0.000000 1.000000
vt 0.571429 1.000000
vt 0.500000 0.041667
vt 0.500000 0.291667
vt 0.071429 0.291667
vt 0.000000 0.000000
vt 0.071429 0.041667
vt 0.571429 0.000000
vt 0.714286 0.416667
vt 0.571429 0.750000
vt 0.571429 0.416667
vt 0.714286 0.416667
vt 0.571429 0.750000
vt 0.571429 0.416667
vt 0.714286 0.416667
vt 0.571429 0.750000
vt 0.571429 0.416667
vt 0.714286 0.416667
vt 0.571429 0.750000
vt 0.571429 0.416667
vt 0.571429 -0.000000
vt 1.000000 0.333333
vt 0.571429 0.333333
vt 0.571429 0.000000
vt 1.000000 0.333333
vt 0.571429 0.333333
vt 0.571429 0.000000
vt 1.000000 0.333333
vt 0.571429 0.333333
vt 0.571429 0.000000
vt 1.000000 0.333333
vt 0.571429 0.333333
vt 0.214286 0.125000
vt 0.071429 0.062500
vt 0.107143 0.041667
vt 0.357143 0.208333
vt 0.500000 0.270833
vt 0.464286 0.291667
vt 0.214286 0.208333
vt 0.107143 0.291667
vt 0.071429 0.270833
vt 0.357143 0.125000
vt 0.464286 0.041667
vt 0.500000 0.062500
vt 0.214286 0.125000
vt 0.071429 0.062500
vt 0.107143 0.041667
vt 0.357143 0.208333
vt 0.500000 0.270833
vt 0.464286 0.291667
vt 0.214286 0.208333
vt 0.107143 0.291667
vt 0.071429 0.270833
vt 0.357143 0.125000
vt 0.464286 0.041667
vt 0.500000 0.062500
vt -0.000000 0.666667
vt 0.000000 0.666667
vt 0.000000 0.666667
vt 0.571429 0.416667
vt 0.714286 0.833333
vt 0.714286 0.750000
vt 0.714286 0.750000
vt 0.714286 0.750000
vt 0.714286 0.750000
vt 1.000000 -0.000000
vt 1.000000 0.000000
vt 1.000000 0.000000
vt 1.000000 -0.000000
vt 0.250000 0.125000
vt 0.214286 0.145833
vt 0.071429 0.041667
vt 0.321429 0.208333
vt 0.357143 0.187500
vt 0.500000 0.291667
vt 0.214286 0.187500
vt 0.250000 0.208333
vt 0.071429 0.291667
vt 0.357143 0.145833
vt 0.321429 0.125000
vt 0.500000 0.041667
vt 0.250000 0.125000
vt 0.214286 0.145833
vt 0.071429 0.041667
vt 0.321429 0.208333
vt 0.357143 0.187500
vt 0.500000 0.291667
vt 0.214286 0.187500
vt 0.250000 0.208333
vt 0.071429 0.291667
vt 0.357143 0.145833
vt 0.321429 0.125000
vt 0.500000 0.041667
vn -1.0000 0.0000 0.0000
vn 0.0000 0.0000 -1.0000
vn 1.0000 0.0000 0.0000
vn 0.0000 0.0000 1.0000
vn 0.0000 -1.0000 0.0000
vn 0.0000 1.0000 0.0000
usemtl None
s off
f 9/1/1 13/2/1 14/3/1
f 10/4/2 15/5/2 13/6/2
f 11/7/3 16/8/3 15/9/3
f 12/10/4 14/11/4 16/12/4
f 7/13/5 1/14/5 3/15/5
f 4/16/6 6/17/6 8/18/6
f 18/19/6 9/1/6 17/20/6
f 19/21/6 10/22/6 18/19/6
f 20/23/6 11/24/6 19/21/6
f 17/20/6 12/25/6 20/23/6
f 22/26/5 13/6/5 21/27/5
f 21/27/5 15/5/5 23/28/5
f 23/28/5 16/29/5 24/30/5
f 24/30/5 14/31/5 22/26/5
f 8/32/2 3/33/2 4/34/2
f 6/35/3 7/36/3 8/37/3
f 2/38/4 5/39/4 6/40/4
f 4/41/1 1/42/1 2/43/1
f 23/44/1 20/45/1 19/46/1
f 24/47/2 17/48/2 20/49/2
f 22/50/3 18/51/3 17/52/3
f 21/53/4 19/54/4 18/55/4
f 27/56/5 28/57/5 25/58/5
f 34/59/5 35/60/5 32/61/5
f 40/62/5 41/63/5 38/64/5
f 46/65/5 47/66/5 44/67/5
f 52/68/5 53/69/5 50/70/5
f 58/71/5 59/72/5 56/73/5
f 64/74/5 65/75/5 62/76/5
f 70/77/5 71/78/5 68/79/5
f 9/1/1 10/22/1 13/2/1
f 10/4/2 11/80/2 15/5/2
f 11/7/3 12/81/3 16/8/3
f 12/10/4 9/82/4 14/11/4
f 7/13/5 5/83/5 1/14/5
f 4/16/6 2/84/6 6/17/6
f 18/19/6 10/22/6 9/1/6
f 19/21/6 11/24/6 10/22/6
f 20/23/6 12/25/6 11/24/6
f 17/20/6 9/1/6 12/25/6
f 22/26/5 14/31/5 13/6/5
f 21/27/5 13/6/5 15/5/5
f 23/28/5 15/5/5 16/29/5
f 24/30/5 16/29/5 14/31/5
f 8/32/2 7/85/2 3/33/2
f 6/35/3 5/86/3 7/36/3
f 2/38/4 1/87/4 5/39/4
f 4/41/1 3/88/1 1/42/1
f 23/44/1 24/89/1 20/45/1
f 24/47/2 22/90/2 17/48/2
f 22/50/3 21/91/3 18/51/3
f 21/53/4 23/92/4 19/54/4
f 25/58/5 30/93/5 27/56/5
f 27/56/5 31/94/5 28/57/5
f 28/57/5 26/95/5 25/58/5
f 32/61/5 36/96/5 34/59/5
f 34/59/5 37/97/5 35/60/5
f 35/60/5 33/98/5 32/61/5
f 38/64/5 42/99/5 40/62/5
f 40/62/5 43/100/5 41/63/5
f 41/63/5 39/101/5 38/64/5
f 44/67/5 48/102/5 46/65/5
f 46/65/5 49/103/5 47/66/5
f 47/66/5 45/104/5 44/67/5
f 50/70/5 54/105/5 52/68/5
f 52/68/5 55/106/5 53/69/5
f 53/69/5 51/107/5 50/70/5
f 56/73/5 60/108/5 58/71/5
f 58/71/5 61/109/5 59/72/5
f 59/72/5 57/110/5 56/73/5
f 62/76/5 66/111/5 64/74/5
f 64/74/5 67/112/5 65/75/5
f 65/75/5 63/113/5 62/76/5
f 68/79/5 72/114/5 70/77/5
f 70/77/5 73/115/5 71/78/5
f 71/78/5 69/116/5 68/79/5
l 27 29
o Piston
v -0.062500 1.000000 0.062500
v -0.125000 1.062500 0.125000
v -0.062500 1.000000 -0.062500
v -0.125000 1.062500 -0.125000
v 0.062500 1.000000 0.062500
v 0.125000 1.062500 0.125000
v 0.062500 1.000000 -0.062500
v 0.125000 1.062500 -0.125000
v -0.125000 1.000000 -0.125000
v -0.125000 1.000000 0.125000
v 0.125000 1.000000 -0.125000
v 0.125000 1.000000 0.125000
v -0.062500 0.062500 -0.062500
v -0.062500 0.062500 0.062500
v 0.062500 0.062500 -0.062500
v 0.062500 0.062500 0.062500
vt 0.857143 0.708333
vt 0.714286 0.687500
vt 0.857143 0.687500
vt 0.857143 0.708333
vt 0.714286 0.687500
vt 0.857143 0.687500
vt 0.857143 0.708333
vt 0.714286 0.687500
vt 0.857143 0.687500
vt 0.857143 0.708333
vt 0.714286 0.687500
vt 0.857143 0.687500
vt 0.821429 0.375000
vt 0.750000 0.687500
vt 0.750000 0.375000
vt 0.857143 0.791667
vt 0.714286 0.875000
vt 0.714286 0.791667
vt 0.821429 0.770833
vt 0.714286 0.791667
vt 0.750000 0.770833
vt 0.714286 0.708333
vt 0.750000 0.729167
vt 0.857143 0.708333
vt 0.821429 0.729167
vt 0.857143 0.791667
vt 0.821429 0.333333
vt 0.750000 0.375000
vt 0.750000 0.333333
vt 0.821429 0.375000
vt 0.750000 0.687500
vt 0.750000 0.375000
vt 0.821429 0.375000
vt 0.750000 0.687500
vt 0.750000 0.375000
vt 0.821429 0.375000
vt 0.750000 0.687500
vt 0.750000 0.375000
vt 0.714286 0.708333
vt 0.714286 0.708333
vt 0.714286 0.708333
vt 0.714286 0.708333
vt 0.821429 0.687500
vt 0.857143 0.875000
vt 0.821429 0.375000
vt 0.821429 0.687500
vt 0.821429 0.687500
vt 0.821429 0.687500
vn -1.0000 0.0000 0.0000
vn 0.0000 0.0000 -1.0000
vn 1.0000 0.0000 0.0000
vn 0.0000 0.0000 1.0000
vn 0.0000 1.0000 0.0000
vn 0.0000 -1.0000 0.0000
usemtl None
s off
f 75/117/7 82/118/7 83/119/7
f 77/120/8 84/121/8 82/122/8
f 81/123/9 85/124/9 84/125/9
f 79/126/10 83/127/10 85/128/10
f 78/129/9 88/130/9 80/131/9
f 77/132/11 79/133/11 81/134/11
f 74/135/12 82/136/12 76/137/12
f 76/137/12 84/138/12 80/139/12
f 80/139/12 85/140/12 78/141/12
f 78/141/12 83/142/12 74/135/12
f 88/143/12 87/144/12 86/145/12
f 76/146/7 87/147/7 74/148/7
f 74/149/10 89/150/10 78/151/10
f 80/152/8 86/153/8 76/154/8
f 75/117/7 77/155/7 82/118/7
f 77/120/8 81/156/8 84/121/8
f 81/123/9 79/157/9 85/124/9
f 79/126/10 75/158/10 83/127/10
f 78/129/9 89/159/9 88/130/9
f 77/132/11 75/160/11 79/133/11
f 74/135/12 83/142/12 82/136/12
f 76/137/12 82/136/12 84/138/12
f 80/139/12 84/138/12 85/140/12
f 78/141/12 85/140/12 83/142/12
f 88/143/12 89/161/12 87/144/12
f 76/146/7 86/162/7 87/147/7
f 74/149/10 87/163/10 89/150/10
f 80/152/8 88/164/8 86/153/8
