# Blender v2.79 (sub 0) OBJ File: 'rockmill.blend'
# www.blender.org
o Wheel
v -1.000000 1.937500 -0.062500
v -1.000000 1.812500 -0.062500
v 1.000000 1.937500 -0.062500
v 1.000000 1.812500 -0.062500
v -1.000000 1.937500 0.062500
v -1.000000 1.812500 0.062500
v 1.000000 1.937500 0.062500
v 1.000000 1.812500 0.062500
v 0.062500 1.937500 -1.000000
v 0.062500 1.812500 -1.000000
v 0.062500 1.937500 1.000000
v 0.062500 1.812500 1.000000
v -0.062500 1.937500 -1.000000
v -0.062500 1.812500 -1.000000
v -0.062500 1.937500 1.000000
v -0.062500 1.812500 1.000000
v 0.176777 2.250000 -0.176777
v 0.250000 2.250000 0.000000
v 0.176777 2.250000 0.176777
v -0.000000 2.250000 0.250000
v -0.176777 2.250000 0.176777
v -0.250000 2.250000 0.000000
v -0.000000 2.250000 -0.250000
v -0.176777 2.250000 -0.176777
v 0.176777 1.500000 -0.176777
v 0.250000 1.500000 0.000000
v 0.176777 1.500000 0.176777
v -0.000000 1.500000 0.250000
v -0.176777 1.500000 0.176777
v -0.250000 1.500000 0.000000
v -0.176777 1.500000 -0.176777
v -0.000000 1.500000 -0.250000
v 0.382683 2.250000 -0.923880
v 0.707106 2.250000 -0.707107
v 0.923879 2.250000 -0.382684
v 1.000000 2.250000 0.000000
v 0.923879 2.250000 0.382684
v 0.707106 2.250000 0.707107
v 0.382683 2.250000 0.923880
v -0.000000 2.250000 1.000000
v -0.382684 2.250000 0.923880
v -0.707107 2.250000 0.707107
v -0.923880 2.250000 0.382683
v -1.000000 2.250000 0.000000
v -0.923880 2.250000 -0.382683
v -0.707107 2.250000 -0.707107
v -0.000000 2.250000 -1.000000
v -0.382684 2.250000 -0.923880
v 0.956707 2.250000 -2.309699
v 1.767766 2.250000 -1.767768
v 2.309699 2.250000 -0.956709
v 2.500000 2.250000 0.000000
v 2.309699 2.250000 0.956709
v 1.767766 2.250000 1.767768
v 0.956708 2.250000 2.309699
v -0.000000 2.250000 2.500000
v -0.956709 2.250000 2.309699
v -1.767767 2.250000 1.767767
v -2.309699 2.250000 0.956709
v -2.500000 2.250000 0.000000
v -2.309699 2.250000 -0.956709
v -1.767767 2.250000 -1.767767
v -0.000000 2.250000 -2.500000
v -0.956709 2.250000 -2.309699
v 0.382683 1.500000 -0.923880
v 0.707106 1.500000 -0.707107
v 0.923879 1.500000 -0.382684
v 1.000000 1.500000 0.000000
v 0.923879 1.500000 0.382684
v 0.707106 1.500000 0.707107
v 0.382683 1.500000 0.923880
v -0.000000 1.500000 1.000000
v -0.382684 1.500000 0.923880
v -0.707107 1.500000 0.707107
v -0.923880 1.500000 0.382683
v -1.000000 1.500000 0.000000
v -0.923880 1.500000 -0.382683
v -0.707107 1.500000 -0.707107
v -0.382684 1.500000 -0.923880
v -0.000000 1.500000 -1.000000
v 0.956707 1.500000 -2.309699
v 1.767766 1.500000 -1.767768
v 2.309699 1.500000 -0.956709
v 2.500000 1.500000 0.000000
v 2.309699 1.500000 0.956709
v 1.767766 1.500000 1.767768
v 0.956708 1.500000 2.309699
v -0.000000 1.500000 2.500000
v -0.956709 1.500000 2.309699
v -1.767767 1.500000 1.767767
v -2.309699 1.500000 0.956709
v -2.500000 1.500000 0.000000
v -2.309699 1.500000 -0.956708
v -1.767767 1.500000 -1.767767
v -0.956709 1.500000 -2.309699
v 0.000000 1.500000 -2.500000
v 0.662912 1.812500 0.751301
v 0.662912 1.937500 0.751301
v -0.751301 1.812500 -0.662912
v -0.751301 1.937500 -0.662912
v 0.751301 1.812500 0.662912
v 0.751301 1.937500 0.662912
v -0.662913 1.812500 -0.751301
v -0.662913 1.937500 -0.751301
v 0.751301 1.812500 -0.662913
v 0.751301 1.937500 -0.662912
v -0.662913 1.812500 0.751301
v -0.662913 1.937500 0.751301
v 0.662912 1.812500 -0.751301
v 0.662912 1.937500 -0.751301
v -0.751301 1.812500 0.662912
v -0.751301 1.937500 0.662912
vt 1.000000 0.375000
vt 0.946078 0.625000
vt 0.921569 0.375000
vt 0.921569 0.375000
vt 0.975490 0.625000
vt 0.946078 0.625000
vt 0.921569 0.375000
vt 0.975490 0.625000
vt 0.946078 0.625000
vt 1.000000 0.375000
vt 0.946078 0.625000
vt 0.921569 0.375000
vt 1.000000 0.375000
vt 0.946078 0.625000
vt 0.921569 0.375000
vt 1.000000 0.375000
vt 0.946078 0.625000
vt 0.921569 0.375000
vt 1.000000 0.375000
vt 0.946078 0.625000
vt 0.921569 0.375000
vt 1.000000 0.375000
vt 0.946078 0.625000
vt 0.921569 0.375000
vt 1.000000 0.375000
vt 0.946078 0.625000
vt 0.921569 0.375000
vt 1.000000 0.375000
vt 0.946078 0.625000
vt 0.921569 0.375000
vt 1.000000 0.375000
vt 0.946078 0.625000
vt 0.921569 0.375000
vt 1.000000 0.375000
vt 0.946078 0.625000
vt 0.921569 0.375000
vt 1.000000 0.375000
vt 0.946078 0.625000
vt 0.921569 0.375000
vt 1.000000 0.375000
vt 0.946078 0.625000
vt 0.921569 0.375000
vt 0.921569 0.375000
vt 0.975490 0.625000
vt 0.946078 0.625000
vt 1.000000 0.375000
vt 0.946078 0.625000
vt 0.921569 0.375000
vt 0.946078 -0.000000
vt 1.000000 0.250000
vt 0.921569 0.250000
vt 0.921569 0.250000
vt 0.975490 -0.000000
vt 1.000000 0.250000
vt 0.921569 0.250000
vt 0.975490 0.000000
vt 1.000000 0.250000
vt 0.946078 -0.000000
vt 1.000000 0.250000
vt 0.921569 0.250000
vt 0.946078 0.000000
vt 1.000000 0.250000
vt 0.921569 0.250000
vt 0.946078 -0.000000
vt 1.000000 0.250000
vt 0.921569 0.250000
vt 0.946078 -0.000000
vt 1.000000 0.250000
vt 0.921569 0.250000
vt 0.946078 -0.000000
vt 1.000000 0.250000
vt 0.921569 0.250000
vt 0.946078 -0.000000
vt 1.000000 0.250000
vt 0.921569 0.250000
vt 0.946078 -0.000000
vt 1.000000 0.250000
vt 0.921569 0.250000
vt 0.921569 0.250000
vt 0.975490 0.000000
vt 1.000000 0.250000
vt 0.946078 -0.000000
vt 1.000000 0.250000
vt 0.921569 0.250000
vt 0.946078 0.000000
vt 1.000000 0.250000
vt 0.921569 0.250000
vt 0.946078 -0.000000
vt 1.000000 0.250000
vt 0.921569 0.250000
vt 0.921569 0.250000
vt 0.975490 -0.000000
vt 1.000000 0.250000
vt 0.946078 -0.000000
vt 1.000000 0.250000
vt 0.921569 0.250000
vt 0.960810 0.791667
vt 0.980392 0.750055
vt 0.999974 0.791666
vt 0.921595 0.791667
vt 0.941176 0.750055
vt 0.960758 0.791666
vt 0.539216 0.833333
vt 0.549020 0.500000
vt 0.549020 0.833333
vt 0.539216 0.833333
vt 0.549020 0.500000
vt 0.549020 0.833333
vt 0.529412 0.500000
vt 0.519608 0.833333
vt 0.519608 0.500000
vt 0.529412 0.500000
vt 0.519608 0.833333
vt 0.519608 0.500000
vt 0.509804 0.833333
vt 0.509804 0.500000
vt 0.539216 0.500000
vt 0.529412 0.833333
vt 0.509804 0.833333
vt 0.509804 0.500000
vt 0.539216 0.500000
vt 0.529412 0.833333
vt 0.539216 0.833333
vt 0.549020 0.500000
vt 0.549020 0.833333
vt 0.529412 0.500000
vt 0.519608 0.833333
vt 0.519608 0.500000
vt 0.519608 0.500000
vt 0.529412 0.833333
vt 0.519608 0.833333
vt 0.549020 0.833333
vt 0.539216 0.500000
vt 0.549020 0.500000
vt 0.509804 0.500000
vt 0.509804 0.833333
vt 0.539216 0.500000
vt 0.529412 0.500000
vt 0.509804 0.833333
vt 0.539216 0.833333
vt 0.975490 0.625000
vt 1.000000 0.375000
vt 1.000000 0.375000
vt 0.975490 0.625000
vt 0.975490 0.625000
vt 0.975490 0.625000
vt 0.975490 0.625000
vt 0.975490 0.625000
vt 0.975490 0.625000
vt 0.975490 0.625000
vt 0.975490 0.625000
vt 0.975490 0.625000
vt 0.975490 0.625000
vt 0.975490 0.625000
vt 1.000000 0.375000
vt 0.975490 0.625000
vt 0.975490 -0.000000
vt 0.946078 -0.000000
vt 0.946078 0.000000
vt 0.975490 -0.000000
vt 0.975490 0.000000
vt 0.975490 -0.000000
vt 0.975490 -0.000000
vt 0.975490 -0.000000
vt 0.975490 -0.000000
vt 0.975490 -0.000000
vt 0.946078 0.000000
vt 0.975490 -0.000000
vt 0.975490 0.000000
vt 0.975490 -0.000000
vt 0.946078 -0.000000
vt 0.975490 -0.000000
vt 0.980392 0.833278
vt 0.966546 0.821090
vt 0.966546 0.762243
vt 0.994239 0.762243
vt 0.994239 0.821090
vt 0.955023 0.821090
vt 0.941176 0.833278
vt 0.927330 0.821090
vt 0.927330 0.762243
vt 0.955023 0.762243
vt 0.529412 0.833333
vt 0.509804 0.500000
vt 0.946078 0.750000
vt 0.975490 0.750000
vt 0.946078 0.750000
vt 0.975490 0.750000
vt 0.946078 0.750000
vt 0.975490 0.750000
vt 0.946078 0.750000
vt 0.975490 0.750000
vt 0.946078 0.750000
vt 0.975490 0.750000
vt 0.946078 0.750000
vt 0.975490 0.750000
vt 0.946078 0.750000
vt 0.975490 0.750000
vt 0.946078 0.750000
vt 0.975490 0.750000
vt 0.946078 0.750000
vt 0.975490 0.750000
vt 0.946078 0.750000
vt 0.975490 0.750000
vt 0.946078 0.750000
vt 0.975490 0.750000
vt 0.946078 0.750000
vt 0.975490 0.750000
vt 0.946078 0.750000
vt 0.975490 0.750000
vt 0.946078 0.750000
vt 0.975490 0.750000
vt 0.946078 0.750000
vt 0.975490 0.750000
vt 0.946078 0.750000
vt 0.975490 0.750000
vt 0.950980 0.875000
vt 0.936275 1.000000
vt 0.936275 0.875000
vt 0.921569 0.875000
vt 0.906863 1.000000
vt 0.906863 0.875000
vt 0.892157 0.875000
vt 0.877451 1.000000
vt 0.877451 0.875000
vt 0.980392 0.875000
vt 0.965686 1.000000
vt 0.965686 0.875000
vt 0.921569 1.000000
vt 0.892157 1.000000
vt 0.862745 1.000000
vt 0.862745 0.875000
vt 0.950980 1.000000
vt 0.980392 1.000000
vn 0.0000 1.0000 -0.0000
vn 0.0000 -1.0000 0.0000
vn -1.0000 0.0000 0.0000
vn 0.0000 -0.0000 1.0000
vn 1.0000 0.0000 0.0000
vn 0.0000 0.0000 -1.0000
vn -0.7071 -0.0000 0.7071
vn 0.7071 -0.0000 0.7071
vn 0.7071 0.0000 -0.7071
vn -0.7071 -0.0000 -0.7071
vn -0.3827 -0.0000 0.9239
vn -0.9239 -0.0000 0.3827
vn 0.3827 -0.0000 0.9239
vn -0.9239 -0.0000 -0.3827
vn 0.3827 0.0000 -0.9239
vn -0.3827 0.0000 -0.9239
vn 0.9239 0.0000 -0.3827
vn 0.9239 -0.0000 0.3827
s off
f 55/1/1 40/2/1 56/3/1
f 55/4/1 38/5/1 39/6/1
f 54/7/1 37/8/1 38/9/1
f 52/10/1 37/11/1 53/12/1
f 51/13/1 36/14/1 52/15/1
f 50/16/1 35/17/1 51/18/1
f 49/19/1 34/20/1 50/21/1
f 63/22/1 33/23/1 49/24/1
f 64/25/1 47/26/1 63/27/1
f 62/28/1 48/29/1 64/30/1
f 61/31/1 46/32/1 62/33/1
f 60/34/1 45/35/1 61/36/1
f 59/37/1 44/38/1 60/39/1
f 58/40/1 43/41/1 59/42/1
f 58/43/1 41/44/1 42/45/1
f 56/46/1 41/47/1 57/48/1
f 72/49/2 87/50/2 88/51/2
f 87/52/2 70/53/2 86/54/2
f 86/55/2 69/56/2 85/57/2
f 69/58/2 84/59/2 85/60/2
f 68/61/2 83/62/2 84/63/2
f 67/64/2 82/65/2 83/66/2
f 66/67/2 81/68/2 82/69/2
f 65/70/2 96/71/2 81/72/2
f 80/73/2 95/74/2 96/75/2
f 79/76/2 94/77/2 95/78/2
f 94/79/2 77/80/2 93/81/2
f 77/82/2 92/83/2 93/84/2
f 76/85/2 91/86/2 92/87/2
f 75/88/2 90/89/2 91/90/2
f 90/91/2 73/92/2 89/93/2
f 73/94/2 88/95/2 89/96/2
f 32/97/2 26/98/2 28/99/2
f 20/100/1 18/101/1 23/102/1
f 15/103/3 14/104/3 16/105/3
f 7/106/4 6/107/4 8/108/4
f 9/109/5 12/110/5 10/111/5
f 1/112/6 4/113/6 2/114/6
f 10/111/2 16/115/2 14/116/2
f 13/117/1 11/118/1 9/109/1
f 2/114/2 8/119/2 6/120/2
f 5/121/1 3/122/1 1/112/1
f 98/123/7 99/124/7 97/125/7
f 106/126/8 107/127/8 105/128/8
f 103/129/9 102/130/9 101/131/9
f 111/132/10 110/133/10 109/134/10
f 99/135/2 101/131/2 97/136/2
f 100/137/1 102/130/1 104/138/1
f 111/139/2 105/128/2 107/127/2
f 112/140/1 106/126/1 110/133/1
f 55/1/1 39/141/1 40/2/1
f 55/4/1 54/142/1 38/5/1
f 54/7/1 53/143/1 37/8/1
f 52/10/1 36/144/1 37/11/1
f 51/13/1 35/145/1 36/14/1
f 50/16/1 34/146/1 35/17/1
f 49/19/1 33/147/1 34/20/1
f 63/22/1 47/148/1 33/23/1
f 64/25/1 48/149/1 47/26/1
f 62/28/1 46/150/1 48/29/1
f 61/31/1 45/151/1 46/32/1
f 60/34/1 44/152/1 45/35/1
f 59/37/1 43/153/1 44/38/1
f 58/40/1 42/154/1 43/41/1
f 58/43/1 57/155/1 41/44/1
f 56/46/1 40/156/1 41/47/1
f 72/49/2 71/157/2 87/50/2
f 87/52/2 71/158/2 70/53/2
f 86/55/2 70/159/2 69/56/2
f 69/58/2 68/160/2 84/59/2
f 68/61/2 67/161/2 83/62/2
f 67/64/2 66/162/2 82/65/2
f 66/67/2 65/163/2 81/68/2
f 65/70/2 80/164/2 96/71/2
f 80/73/2 79/165/2 95/74/2
f 79/76/2 78/166/2 94/77/2
f 94/79/2 78/167/2 77/80/2
f 77/82/2 76/168/2 92/83/2
f 76/85/2 75/169/2 91/86/2
f 75/88/2 74/170/2 90/89/2
f 90/91/2 74/171/2 73/92/2
f 73/94/2 72/172/2 88/95/2
f 30/173/2 31/174/2 32/97/2
f 32/97/2 25/175/2 26/98/2
f 26/98/2 27/176/2 28/99/2
f 28/99/2 29/177/2 30/173/2
f 30/173/2 32/97/2 28/99/2
f 23/102/1 24/178/1 22/179/1
f 22/179/1 21/180/1 20/100/1
f 20/100/1 19/181/1 18/101/1
f 18/101/1 17/182/1 23/102/1
f 23/102/1 22/179/1 20/100/1
f 15/103/3 13/117/3 14/104/3
f 7/106/4 5/121/4 6/107/4
f 9/109/5 11/118/5 12/110/5
f 1/112/6 3/122/6 4/113/6
f 10/111/2 12/110/2 16/115/2
f 13/117/1 15/103/1 11/118/1
f 2/114/2 4/113/2 8/119/2
f 5/121/1 7/106/1 3/122/1
f 98/123/7 100/137/7 99/124/7
f 106/126/8 108/183/8 107/127/8
f 103/129/9 104/138/9 102/130/9
f 111/132/10 112/140/10 110/133/10
f 99/135/2 103/129/2 101/131/2
f 100/137/1 98/123/1 102/130/1
f 111/139/2 109/184/2 105/128/2
f 112/140/1 108/183/1 106/126/1
s 1
f 65/185/11 47/148/4 80/186/4
f 91/86/12 60/39/3 92/87/3
f 79/187/13 46/150/8 78/188/8
f 66/189/7 33/147/11 65/190/11
f 93/84/14 60/34/3 61/36/14
f 80/191/4 48/149/13 79/192/13
f 67/193/12 34/146/7 66/194/7
f 94/79/10 61/31/14 62/33/10
f 96/71/6 49/24/15 81/72/15
f 68/195/3 35/145/12 67/196/12
f 94/77/10 64/30/16 95/78/16
f 82/69/9 49/19/15 50/21/9
f 69/197/14 36/144/3 68/198/3
f 95/74/16 63/27/6 96/75/6
f 82/65/9 51/18/17 83/66/17
f 70/199/10 37/8/14 69/200/14
f 83/62/17 52/15/5 84/63/5
f 71/201/16 38/5/10 70/202/10
f 84/59/5 53/12/18 85/60/18
f 72/203/6 39/141/16 71/204/16
f 85/57/18 54/7/8 86/55/8
f 73/205/15 40/156/6 72/206/6
f 86/54/8 55/4/13 87/52/13
f 74/207/9 41/44/15 73/208/15
f 78/209/8 45/151/18 77/210/18
f 90/89/7 59/42/12 91/90/12
f 77/211/18 44/152/5 76/212/5
f 89/93/11 58/43/7 90/91/7
f 76/213/5 43/153/17 75/214/17
f 88/95/4 57/48/11 89/96/11
f 75/215/17 42/154/9 74/216/9
f 87/50/13 56/3/4 88/51/4
f 32/217/6 17/218/9 25/219/9
f 26/220/5 19/221/8 27/222/8
f 28/223/4 21/224/7 29/225/7
f 30/226/3 24/227/10 31/228/10
f 25/219/9 18/229/5 26/220/5
f 27/222/8 20/230/4 28/223/4
f 29/225/7 22/231/3 30/232/3
f 31/228/10 23/233/6 32/217/6
f 65/185/11 33/23/11 47/148/4
f 91/86/12 59/37/12 60/39/3
f 79/187/13 48/29/13 46/150/8
f 66/189/7 34/20/7 33/147/11
f 93/84/14 92/83/3 60/34/3
f 80/191/4 47/26/4 48/149/13
f 67/193/12 35/17/12 34/146/7
f 94/79/10 93/81/14 61/31/14
f 96/71/6 63/22/6 49/24/15
f 68/195/3 36/14/3 35/145/12
f 94/77/10 62/28/10 64/30/16
f 82/69/9 81/68/15 49/19/15
f 69/197/14 37/11/14 36/144/3
f 95/74/16 64/25/16 63/27/6
f 82/65/9 50/16/9 51/18/17
f 70/199/10 38/9/10 37/8/14
f 83/62/17 51/13/17 52/15/5
f 71/201/16 39/6/16 38/5/10
f 84/59/5 52/10/5 53/12/18
f 72/203/6 40/2/6 39/141/16
f 85/57/18 53/143/18 54/7/8
f 73/205/15 41/47/15 40/156/6
f 86/54/8 54/142/8 55/4/13
f 74/207/9 42/45/9 41/44/15
f 78/209/8 46/32/8 45/151/18
f 90/89/7 58/40/7 59/42/12
f 77/211/18 45/35/18 44/152/5
f 89/93/11 57/155/11 58/43/7
f 76/213/5 44/38/5 43/153/17
f 88/95/4 56/46/4 57/48/11
f 75/215/17 43/41/17 42/154/9
f 87/50/13 55/1/13 56/3/4
f 32/217/6 23/233/6 17/218/9
f 26/220/5 18/229/5 19/221/8
f 28/223/4 20/230/4 21/224/7
f 30/226/3 22/234/3 24/227/10
f 25/219/9 17/218/9 18/229/5
f 27/222/8 19/221/8 20/230/4
f 29/225/7 21/224/7 22/231/3
f 31/228/10 24/227/10 23/233/6
o Frame
v -2.250000 3.000000 2.500000
v 2.250000 3.000000 2.375000
v 2.250000 3.000000 2.500000
v 2.250000 2.875000 2.375000
v -2.250000 3.000000 2.375000
v -2.250000 2.875000 2.500000
v 2.250000 2.875000 2.500000
v -2.250000 2.875000 2.375000
v 2.250000 3.000000 -2.500000
v -2.250000 3.000000 -2.375000
v -2.250000 3.000000 -2.500000
v -2.250000 2.875000 -2.375000
v 2.250000 3.000000 -2.375000
v 2.250000 2.875000 -2.500000
v -2.250000 2.875000 -2.500000
v 2.250000 2.875000 -2.375000
v -2.500000 3.000000 -2.250000
v -2.375000 3.000000 2.250000
v -2.500000 3.000000 2.250000
v -2.375000 2.875000 2.250000
v -2.375000 3.000000 -2.250000
v -2.500000 2.875000 -2.250000
v -2.500000 2.875000 2.250000
v -2.375000 2.875000 -2.250000
v 2.500000 3.000000 2.250000
v 2.375000 3.000000 -2.250000
v 2.500000 3.000000 -2.250000
v 2.375000 2.875000 -2.250000
v 2.375000 3.000000 2.250000
v 2.500000 2.875000 2.250000
v 2.500000 2.875000 -2.250000
v 2.375000 2.875000 2.250000
v -2.500000 3.000000 -2.500000
v -2.500000 2.750000 -2.500000
v -2.250000 3.000000 -2.250000
v -2.500000 3.000000 -2.250000
v -2.250000 3.000000 -2.500000
v -2.250000 2.750000 -2.250000
v -2.250000 2.750000 -2.500000
v -2.500000 2.750000 -2.250000
v -2.500000 3.000000 2.250000
v -2.500000 2.750000 2.250000
v -2.250000 3.000000 2.500000
v -2.500000 3.000000 2.500000
v -2.250000 3.000000 2.250000
v -2.250000 2.750000 2.500000
v -2.250000 2.750000 2.250000
v -2.500000 2.750000 2.500000
v 2.250000 3.000000 -2.500000
v 2.250000 2.750000 -2.500000
v 2.500000 3.000000 -2.250000
v 2.250000 3.000000 -2.250000
v 2.500000 3.000000 -2.500000
v 2.500000 2.750000 -2.250000
v 2.500000 2.750000 -2.500000
v 2.250000 2.750000 -2.250000
v 2.250000 3.000000 2.250000
v 2.250000 2.750000 2.250000
v 2.500000 3.000000 2.500000
v 2.250000 3.000000 2.500000
v 2.500000 3.000000 2.250000
v 2.500000 2.750000 2.500000
v 2.500000 2.750000 2.250000
v 2.250000 2.750000 2.500000
v 2.500000 0.250000 2.500000
v 2.500000 2.750000 2.500000
v 2.500000 0.250000 2.375000
v 2.500000 2.750000 2.375000
v 2.375000 0.250000 2.500000
v 2.375000 2.750000 2.500000
v 2.375000 0.250000 2.375000
v 2.375000 2.750000 2.375000
v 2.500000 0.250000 -2.375000
v 2.500000 2.750000 -2.375000
v 2.500000 0.250000 -2.500000
v 2.500000 2.750000 -2.500000
v 2.375000 0.250000 -2.375000
v 2.375000 2.750000 -2.375000
v 2.375000 0.250000 -2.500000
v 2.375000 2.750000 -2.500000
v -2.375000 0.250000 2.500000
v -2.375000 2.750000 2.500000
v -2.375000 0.250000 2.375000
v -2.375000 2.750000 2.375000
v -2.500000 0.250000 2.500000
v -2.500000 2.750000 2.500000
v -2.500000 0.250000 2.375000
v -2.500000 2.750000 2.375000
v -2.375000 0.250000 -2.375000
v -2.375000 2.750000 -2.375000
v -2.375000 0.250000 -2.500000
v -2.375000 2.750000 -2.500000
v -2.500000 0.250000 -2.375000
v -2.500000 2.750000 -2.375000
v -2.500000 0.250000 -2.500000
v -2.500000 2.750000 -2.500000
vt 0.862745 0.916667
vt 0.509804 0.937500
vt 0.509804 0.916667
vt 0.862745 0.979167
vt 0.509804 1.000000
vt 0.509804 0.979167
vt 0.862745 0.958333
vt 0.509804 0.958333
vt 0.862745 0.937500
vt 0.862745 0.958333
vt 0.862745 0.916667
vt 0.509804 0.937500
vt 0.509804 0.916667
vt 0.509804 0.979167
vt 0.862745 0.958333
vt 0.862745 0.979167
vt 0.509804 0.979167
vt 0.862745 0.958333
vt 0.862745 0.979167
vt 0.862745 0.979167
vt 0.509804 1.000000
vt 0.509804 0.979167
vt 0.509804 0.958333
vt 0.862745 0.937500
vt 0.509804 0.958333
vt 0.862745 0.937500
vt 0.862745 0.916667
vt 0.509804 0.937500
vt 0.509804 0.916667
vt 0.509804 0.958333
vt 0.862745 0.937500
vt 0.509804 1.000000
vt 0.509804 1.000000
vt 0.862745 0.916667
vt 0.509804 0.937500
vt 0.509804 0.916667
vt 0.254902 0.583333
vt 0.235294 0.541667
vt 0.254902 0.541667
vt 0.254902 0.458333
vt 0.235294 0.500000
vt 0.235294 0.458333
vt 0.313726 0.541667
vt 0.294118 0.500000
vt 0.313726 0.500000
vt 0.274510 0.541667
vt 0.254902 0.500000
vt 0.274510 0.500000
vt 0.274510 0.541667
vt 0.254902 0.500000
vt 0.274510 0.500000
vt 0.254902 0.541667
vt 0.254902 0.500000
vt 0.254902 0.458333
vt 0.235294 0.500000
vt 0.235294 0.458333
vt 0.313726 0.541667
vt 0.294118 0.500000
vt 0.313726 0.500000
vt 0.254902 0.458333
vt 0.235294 0.500000
vt 0.235294 0.458333
vt 0.274510 0.541667
vt 0.254902 0.500000
vt 0.274510 0.500000
vt 0.254902 0.458333
vt 0.235294 0.500000
vt 0.235294 0.458333
vt 0.274510 0.541667
vt 0.274510 0.500000
vt 0.254902 0.583333
vt 0.235294 0.541667
vt 0.254902 0.583333
vt 0.235294 0.541667
vt 0.254902 0.541667
vt 0.294118 0.541667
vt 0.294118 0.541667
vt 0.294118 0.500000
vt 0.294118 0.541667
vt 0.294118 0.500000
vt 0.254902 0.583333
vt 0.235294 0.541667
vt 0.254902 0.541667
vt 0.294118 0.541667
vt 0.313726 0.541667
vt 0.313726 0.500000
vt 0.313726 0.541667
vt 0.313726 0.500000
vt 0.235294 0.708333
vt 0.039216 0.729167
vt 0.039216 0.708333
vt 0.235294 0.729167
vt 0.039216 0.750000
vt 0.235294 0.687500
vt 0.039216 0.666667
vt 0.039216 0.687500
vt 0.235294 0.687500
vt 0.039216 0.708333
vt 0.039216 0.687500
vt 0.235294 0.708333
vt 0.039216 0.729167
vt 0.235294 0.666667
vt 0.235294 0.750000
vt 0.039216 0.750000
vt 0.235294 0.729167
vt 0.039216 0.750000
vt 0.039216 0.729167
vt 0.235294 0.666667
vt 0.039216 0.687500
vt 0.039216 0.666667
vt 0.235294 0.708333
vt 0.039216 0.708333
vt 0.235294 0.666667
vt 0.039216 0.687500
vt 0.039216 0.666667
vt 0.235294 0.687500
vt 0.039216 0.708333
vt 0.039216 0.750000
vt 0.235294 0.729167
vt 0.235294 0.750000
vt 0.039216 0.729167
vt 0.862745 1.000000
vt 0.862745 1.000000
vt 0.862745 1.000000
vt 0.862745 1.000000
vt 0.235294 0.583333
vt 0.235294 0.583333
vt 0.235294 0.583333
vt 0.235294 0.583333
vt 0.235294 0.750000
vt 0.235294 0.666667
vt 0.235294 0.729167
vt 0.039216 0.666667
vt 0.235294 0.750000
vt 0.235294 0.687500
vt 0.235294 0.708333
vn 0.0000 -1.0000 0.0000
vn 1.0000 0.0000 0.0000
vn 0.0000 1.0000 0.0000
vn -1.0000 0.0000 0.0000
vn 0.0000 0.0000 -1.0000
vn 0.0000 0.0000 1.0000
s off
f 140/235/19 142/236/19 144/237/19
f 130/238/20 136/239/20 133/240/20
f 133/240/21 131/241/21 130/238/21
f 137/242/20 143/243/20 139/244/20
f 116/245/19 118/246/19 120/247/19
f 117/248/21 115/249/21 114/250/21
f 125/251/21 123/252/21 122/253/21
f 138/254/22 144/255/22 141/256/22
f 121/257/23 127/258/23 123/252/23
f 113/259/24 119/260/24 115/249/24
f 124/261/19 126/262/19 128/263/19
f 129/264/22 135/265/22 131/241/22
f 122/253/24 128/266/24 125/251/24
f 114/250/23 120/267/23 117/248/23
f 141/256/21 139/244/21 138/254/21
f 132/268/19 134/269/19 136/270/19
f 161/271/21 163/272/21 165/273/21
f 146/274/19 150/275/19 152/276/19
f 147/277/24 152/278/24 150/279/24
f 161/280/23 167/281/23 162/282/23
f 153/283/23 159/284/23 154/285/23
f 149/286/20 150/275/20 151/287/20
f 170/288/19 174/289/19 176/290/19
f 163/291/24 168/292/24 166/293/24
f 154/294/19 158/295/19 160/296/19
f 169/297/23 175/298/23 170/299/23
f 162/300/19 166/301/19 168/302/19
f 145/303/23 151/287/23 146/304/23
f 145/305/21 147/306/21 149/286/21
f 169/307/21 171/308/21 173/309/21
f 164/310/22 162/282/22 168/292/22
f 172/311/22 170/299/22 176/312/22
f 156/313/22 154/285/22 160/314/22
f 153/315/21 155/316/21 157/317/21
f 148/318/22 146/304/22 152/278/22
f 171/319/24 176/312/24 174/320/24
f 155/321/24 160/314/24 158/322/24
f 173/309/20 174/289/20 175/298/20
f 157/317/20 158/295/20 159/284/20
f 165/273/20 166/301/20 167/281/20
f 177/323/20 180/324/20 178/325/20
f 179/326/23 184/327/23 180/324/23
f 178/325/24 181/328/24 177/323/24
f 184/329/22 181/328/22 182/330/22
f 185/331/20 188/332/20 186/333/20
f 187/334/23 192/335/23 188/332/23
f 186/333/24 189/336/24 185/331/24
f 192/335/22 189/337/22 190/338/22
f 193/339/20 196/340/20 194/341/20
f 195/342/23 200/343/23 196/344/23
f 194/341/24 197/345/24 193/339/24
f 200/343/22 197/345/22 198/346/22
f 201/347/20 204/348/20 202/349/20
f 203/350/23 208/351/23 204/348/23
f 202/352/24 205/353/24 201/354/24
f 208/351/22 205/353/22 206/355/22
f 140/235/19 143/243/19 142/236/19
f 130/238/20 132/356/20 136/239/20
f 133/240/21 129/264/21 131/241/21
f 137/242/20 142/236/20 143/243/20
f 116/245/19 119/260/19 118/246/19
f 117/248/21 113/259/21 115/249/21
f 125/251/21 121/257/21 123/252/21
f 138/254/22 140/357/22 144/255/22
f 121/257/23 126/262/23 127/258/23
f 113/259/24 118/246/24 119/260/24
f 124/261/19 127/258/19 126/262/19
f 129/264/22 134/269/22 135/265/22
f 122/253/24 124/358/24 128/266/24
f 114/250/23 116/359/23 120/267/23
f 141/256/21 137/242/21 139/244/21
f 132/268/19 135/265/19 134/269/19
f 161/271/21 164/360/21 163/272/21
f 146/274/19 151/287/19 150/275/19
f 147/277/24 148/318/24 152/278/24
f 161/280/23 165/273/23 167/281/23
f 153/283/23 157/317/23 159/284/23
f 149/286/20 147/306/20 150/275/20
f 170/288/19 175/298/19 174/289/19
f 163/291/24 164/310/24 168/292/24
f 154/294/19 159/284/19 158/295/19
f 169/297/23 173/309/23 175/298/23
f 162/300/19 167/281/19 166/301/19
f 145/303/23 149/286/23 151/287/23
f 145/305/21 148/361/21 147/306/21
f 169/307/21 172/362/21 171/308/21
f 164/310/22 161/280/22 162/282/22
f 172/311/22 169/297/22 170/299/22
f 156/313/22 153/283/22 154/285/22
f 153/315/21 156/363/21 155/316/21
f 148/318/22 145/303/22 146/304/22
f 171/319/24 172/311/24 176/312/24
f 155/321/24 156/313/24 160/314/24
f 173/309/20 171/308/20 174/289/20
f 157/317/20 155/316/20 158/295/20
f 165/273/20 163/272/20 166/301/20
f 177/323/20 179/326/20 180/324/20
f 179/326/23 183/364/23 184/327/23
f 178/325/24 182/330/24 181/328/24
f 184/329/22 183/365/22 181/328/22
f 185/331/20 187/334/20 188/332/20
f 187/334/23 191/366/23 192/335/23
f 186/333/24 190/367/24 189/336/24
f 192/335/22 191/366/22 189/337/22
f 193/339/20 195/368/20 196/340/20
f 195/342/23 199/369/23 200/343/23
f 194/341/24 198/346/24 197/345/24
f 200/343/22 199/369/22 197/345/22
f 201/347/20 203/350/20 204/348/20
f 203/350/23 207/370/23 208/351/23
f 202/352/24 206/355/24 205/353/24
f 208/351/22 207/370/22 205/353/22
o Base
v 2.250000 -0.000000 2.500000
v 2.500000 -0.000000 2.250000
v 2.500000 -0.000000 2.500000
v 2.500000 0.250000 2.250000
v 2.250000 0.250000 2.500000
v 2.500000 0.250000 2.500000
v 2.250000 -0.000000 2.250000
v 2.250000 0.250000 2.250000
v 2.250000 0.000000 -2.250000
v 2.500000 0.000000 -2.500000
v 2.500000 0.000000 -2.250000
v 2.500000 0.250000 -2.500000
v 2.250000 0.250000 -2.250000
v 2.500000 0.250000 -2.250000
v 2.250000 0.000000 -2.500000
v 2.250000 0.250000 -2.500000
v -2.500000 -0.000000 2.500000
v -2.250000 -0.000000 2.250000
v -2.250000 -0.000000 2.500000
v -2.250000 0.250000 2.250000
v -2.500000 0.250000 2.500000
v -2.250000 0.250000 2.500000
v -2.500000 -0.000000 2.250000
v -2.500000 0.250000 2.250000
v -2.500000 0.000000 -2.250000
v -2.250000 0.000000 -2.500000
v -2.250000 0.000000 -2.250000
v -2.250000 0.250000 -2.500000
v -2.500000 0.250000 -2.250000
v -2.250000 0.250000 -2.250000
v -2.500000 0.000000 -2.500000
v -2.500000 0.250000 -2.500000
v 2.375000 -0.000000 2.250000
v 2.500000 0.000000 -2.250000
v 2.500000 -0.000000 2.250000
v 2.375000 0.125000 2.250000
v 2.375000 0.000000 -2.250000
v 2.500000 0.125000 -2.250000
v 2.375000 0.125000 -2.250000
v 2.500000 0.125000 2.250000
v -2.375000 0.000000 -2.250000
v -2.500000 -0.000000 2.250000
v -2.500000 0.000000 -2.250000
v -2.375000 0.125000 -2.250000
v -2.375000 -0.000000 2.250000
v -2.500000 0.125000 2.250000
v -2.375000 0.125000 2.250000
v -2.500000 0.125000 -2.250000
v 2.250000 0.000000 -2.375000
v -2.250000 0.000000 -2.500000
v 2.250000 0.000000 -2.500000
v 2.250000 0.125000 -2.375000
v -2.250000 0.000000 -2.375000
v -2.250000 0.125000 -2.500000
v -2.250000 0.125000 -2.375000
v 2.250000 0.125000 -2.500000
v -2.250000 -0.000000 2.375000
v 2.250000 -0.000000 2.500000
v -2.250000 -0.000000 2.500000
v -2.250000 0.125000 2.375000
v 2.250000 -0.000000 2.375000
v 2.250000 0.125000 2.500000
v 2.250000 0.125000 2.375000
v -2.250000 0.125000 2.500000
v 1.875000 0.125000 -2.500000
v 2.125000 0.125000 2.500000
v 1.875000 0.125000 2.500000
v 2.125000 0.250000 2.500000
v 1.875000 0.250000 -2.500000
v 1.875000 0.250000 2.500000
v 2.125000 0.250000 -2.500000
v 2.125000 0.125000 -2.500000
v -2.250000 0.250000 -0.250000
v 0.250000 0.250000 2.250000
v -2.250000 0.250000 2.250000
v 0.250000 0.750000 2.250000
v -2.250000 0.750000 -0.250000
v -2.250000 0.750000 2.250000
v 0.250000 0.250000 -0.250000
v 0.250000 0.750000 -0.250000
v 0.750000 0.750000 2.250000
v 0.750000 0.250000 -0.250000
v 0.750000 0.250000 2.250000
v 2.250000 0.250000 -0.250000
v 2.250000 0.750000 2.250000
v 2.250000 0.250000 2.250000
v 2.250000 0.750000 -0.250000
v 0.750000 0.750000 -0.250000
v 2.250000 0.250000 -0.750000
v -2.250000 0.750000 -0.750000
v -2.250000 0.250000 -0.750000
v -2.250000 0.750000 -2.250000
v 2.250000 0.250000 -2.250000
v -2.250000 0.250000 -2.250000
v 2.250000 0.750000 -2.250000
v 2.250000 0.750000 -0.750000
v 0.875000 0.125000 -2.500000
v 1.125000 0.125000 2.500000
v 0.875000 0.125000 2.500000
v 1.125000 0.250000 2.500000
v 0.875000 0.250000 -2.500000
v 0.875000 0.250000 2.500000
v 1.125000 0.250000 -2.500000
v 1.125000 0.125000 -2.500000
v -0.125000 0.125000 -2.500000
v 0.125000 0.125000 2.500000
v -0.125000 0.125000 2.500000
v 0.125000 0.250000 2.500000
v -0.125000 0.250000 -2.500000
v -0.125000 0.250000 2.500000
v 0.125000 0.250000 -2.500000
v 0.125000 0.125000 -2.500000
v -1.125000 0.125000 -2.500000
v -0.875000 0.125000 2.500000
v -1.125000 0.125000 2.500000
v -0.875000 0.250000 2.500000
v -1.125000 0.250000 -2.500000
v -1.125000 0.250000 2.500000
v -0.875000 0.250000 -2.500000
v -0.875000 0.125000 -2.500000
v -2.125000 0.125000 -2.500000
v -1.875000 0.125000 2.500000
v -2.125000 0.125000 2.500000
v -1.875000 0.250000 2.500000
v -2.125000 0.250000 -2.500000
v -2.125000 0.250000 2.500000
v -1.875000 0.250000 -2.500000
v -1.875000 0.125000 -2.500000
v 2.500000 0.312500 -0.812500
v 2.500000 0.687500 -1.187500
v 2.500000 0.687500 -0.812500
v 2.375000 0.375000 -0.875000
v 2.250000 0.375000 -1.125000
v 2.375000 0.375000 -1.125000
v 2.500000 0.312500 -1.187500
v 2.375000 0.687500 -1.187500
v 2.375000 0.312500 -0.812500
v 2.375000 0.312500 -1.187500
v 2.375000 0.687500 -0.812500
v 2.375000 0.625000 -0.875000
v 2.375000 0.625000 -1.125000
v 2.250000 0.625000 -0.875000
v 2.250000 0.625000 -1.125000
v 2.250000 0.375000 -0.875000
v 2.500000 0.312500 1.187500
v 2.500000 0.687500 0.812500
v 2.500000 0.687500 1.187500
v 2.375000 0.375000 1.125000
v 2.250000 0.375000 0.875000
v 2.375000 0.375000 0.875000
v 2.500000 0.312500 0.812500
v 2.375000 0.687500 0.812500
v 2.375000 0.312500 1.187500
v 2.375000 0.312500 0.812500
v 2.375000 0.687500 1.187500
v 2.375000 0.625000 1.125000
v 2.375000 0.625000 0.875000
v 2.250000 0.625000 1.125000
v 2.250000 0.625000 0.875000
v 2.250000 0.375000 1.125000
v -2.500000 0.312500 0.812500
v -2.500000 0.687500 1.187500
v -2.500000 0.687500 0.812500
v -2.375000 0.375000 0.875000
v -2.250000 0.375000 1.125000
v -2.375000 0.375000 1.125000
v -2.500000 0.312500 1.187500
v -2.375000 0.687500 1.187500
v -2.375000 0.312500 0.812500
v -2.375000 0.312500 1.187500
v -2.375000 0.687500 0.812500
v -2.375000 0.625000 0.875000
v -2.375000 0.625000 1.125000
v -2.250000 0.625000 0.875000
v -2.250000 0.625000 1.125000
v -2.250000 0.375000 0.875000
v -2.500000 0.312500 -1.187500
v -2.500000 0.687500 -0.812500
v -2.500000 0.687500 -1.187500
v -2.375000 0.375000 -1.125000
v -2.250000 0.375000 -0.875000
v -2.375000 0.375000 -0.875000
v -2.500000 0.312500 -0.812500
v -2.375000 0.687500 -0.812500
v -2.375000 0.312500 -1.187500
v -2.375000 0.312500 -0.812500
v -2.375000 0.687500 -1.187500
v -2.375000 0.625000 -1.125000
v -2.375000 0.625000 -0.875000
v -2.250000 0.625000 -1.125000
v -2.250000 0.625000 -0.875000
v -2.250000 0.375000 -1.125000
v -0.812500 0.312500 -2.500000
v -1.187500 0.687500 -2.500000
v -0.812500 0.687500 -2.500000
v -0.875000 0.375000 -2.375000
v -1.125000 0.375000 -2.250000
v -1.125000 0.375000 -2.375000
v -1.187500 0.312500 -2.500000
v -1.187500 0.687500 -2.375000
v -0.812500 0.312500 -2.375000
v -1.187500 0.312500 -2.375000
v -0.812500 0.687500 -2.375000
v -0.875000 0.625000 -2.375000
v -1.125000 0.625000 -2.375000
v -0.875000 0.625000 -2.250000
v -1.125000 0.625000 -2.250000
v -0.875000 0.375000 -2.250000
v 1.187500 0.312500 -2.500000
v 0.812500 0.687500 -2.500000
v 1.187500 0.687500 -2.500000
v 1.125000 0.375000 -2.375000
v 0.875000 0.375000 -2.250000
v 0.875000 0.375000 -2.375000
v 0.812500 0.312500 -2.500000
v 0.812500 0.687500 -2.375000
v 1.187500 0.312500 -2.375000
v 0.812500 0.312500 -2.375000
v 1.187500 0.687500 -2.375000
v 1.125000 0.625000 -2.375000
v 0.875000 0.625000 -2.375000
v 1.125000 0.625000 -2.250000
v 0.875000 0.625000 -2.250000
v 1.125000 0.375000 -2.250000
v 0.812500 0.312500 2.500000
v 1.187500 0.687500 2.500000
v 0.812500 0.687500 2.500000
v 0.875000 0.375000 2.375000
v 1.125000 0.375000 2.250000
v 1.125000 0.375000 2.375000
v 1.187500 0.312500 2.500000
v 1.187500 0.687500 2.375000
v 0.812500 0.312500 2.375000
v 1.187500 0.312500 2.375000
v 0.812500 0.687500 2.375000
v 0.875000 0.625000 2.375000
v 1.125000 0.625000 2.375000
v 0.875000 0.625000 2.250000
v 1.125000 0.625000 2.250000
v 0.875000 0.375000 2.250000
v -1.187500 0.312500 2.500000
v -0.812500 0.687500 2.500000
v -1.187500 0.687500 2.500000
v -1.125000 0.375000 2.375000
v -0.875000 0.375000 2.250000
v -0.875000 0.375000 2.375000
v -0.812500 0.312500 2.500000
v -0.812500 0.687500 2.375000
v -1.187500 0.312500 2.375000
v -0.812500 0.312500 2.375000
v -1.187500 0.687500 2.375000
v -1.125000 0.625000 2.375000
v -0.875000 0.625000 2.375000
v -1.125000 0.625000 2.250000
v -0.875000 0.625000 2.250000
v -1.125000 0.375000 2.250000
v 0.000000 0.750000 -2.500000
v -0.956709 0.750000 -2.309699
v -1.767767 0.750000 -1.767767
v -2.309699 0.750000 -0.956708
v -2.500000 0.750000 0.000000
v -2.309699 0.750000 0.956709
v -1.767767 0.750000 1.767767
v -0.956709 0.750000 2.309699
v -0.000000 0.750000 2.500000
v 0.956708 0.750000 2.309699
v 1.767766 0.750000 1.767767
v 2.309699 0.750000 0.956709
v 2.500000 0.750000 0.000000
v 2.309699 0.750000 -0.956709
v 1.767766 0.750000 -1.767768
v 0.956707 0.750000 -2.309699
v -0.000000 0.750000 -1.000000
v -0.382684 0.750000 -0.923880
v -0.707107 0.750000 -0.707107
v -0.923880 0.750000 -0.382683
v -1.000000 0.750000 0.000000
v -0.923880 0.750000 0.382683
v -0.707107 0.750000 0.707107
v -0.382684 0.750000 0.923880
v -0.000000 0.750000 1.000000
v 0.382683 0.750000 0.923880
v 0.707106 0.750000 0.707107
v 0.923879 0.750000 0.382684
v 1.000000 0.750000 0.000000
v 0.923879 0.750000 -0.382684
v 0.707106 0.750000 -0.707107
v 0.382683 0.750000 -0.923880
v -0.956709 1.500000 -2.309699
v -0.000000 1.500000 -2.500000
v -1.767767 1.500000 -1.767767
v -2.309699 1.500000 -0.956709
v -2.500000 1.500000 0.000000
v -2.309699 1.500000 0.956709
v -1.767767 1.500000 1.767767
v -0.956709 1.500000 2.309699
v -0.000000 1.500000 2.500000
v 0.956708 1.500000 2.309699
v 1.767766 1.500000 1.767768
v 2.309699 1.500000 0.956709
v 2.500000 1.500000 0.000000
v 2.309699 1.500000 -0.956709
v 1.767766 1.500000 -1.767768
v 0.956707 1.500000 -2.309699
v -0.382684 1.500000 -0.923880
v -0.000000 1.500000 -1.000000
v -0.707107 1.500000 -0.707107
v -0.923880 1.500000 -0.382683
v -1.000000 1.500000 0.000000
v -0.923880 1.500000 0.382683
v -0.707107 1.500000 0.707107
v -0.382684 1.500000 0.923880
v -0.000000 1.500000 1.000000
v 0.382683 1.500000 0.923880
v 0.707106 1.500000 0.707107
v 0.923879 1.500000 0.382684
v 1.000000 1.500000 0.000000
v 0.923879 1.500000 -0.382684
v 0.707106 1.500000 -0.707107
v 0.382683 1.500000 -0.923880
v -0.000000 0.750000 -0.250000
v -0.176777 0.750000 -0.176777
v -0.250000 0.750000 0.000000
v -0.176777 0.750000 0.176777
v -0.000000 0.750000 0.250000
v 0.176777 0.750000 0.176777
v 0.250000 0.750000 0.000000
v 0.176777 0.750000 -0.176777
v -0.176777 1.500000 -0.176777
v -0.000000 1.500000 -0.250000
v -0.250000 1.500000 0.000000
v -0.176777 1.500000 0.176777
v -0.000000 1.500000 0.250000
v 0.176777 1.500000 0.176777
v 0.250000 1.500000 0.000000
v 0.176777 1.500000 -0.176777
v -0.062500 1.062500 1.000000
v -0.062500 1.187500 1.000000
v -0.062500 1.062500 -1.000000
v -0.062500 1.187500 -1.000000
v 0.062500 1.062500 1.000000
v 0.062500 1.187500 1.000000
v 0.062500 1.062500 -1.000000
v 0.062500 1.187500 -1.000000
v 1.000000 1.062500 0.062500
v 1.000000 1.187500 0.062500
v -1.000000 1.062500 0.062500
v -1.000000 1.187500 0.062500
v 1.000000 1.062500 -0.062500
v 1.000000 1.187500 -0.062500
v -1.000000 1.062500 -0.062500
v -1.000000 1.187500 -0.062500
v 0.662912 1.062500 0.751301
v 0.662912 1.187500 0.751301
v -0.751301 1.062500 -0.662912
v -0.751301 1.187500 -0.662912
v 0.751301 1.062500 0.662912
v 0.751301 1.187500 0.662912
v -0.662913 1.062500 -0.751301
v -0.662913 1.187500 -0.751301
v 0.751301 1.062500 -0.662913
v 0.751301 1.187500 -0.662912
v -0.662913 1.062500 0.751301
v -0.662913 1.187500 0.751301
v 0.662912 1.062500 -0.751301
v 0.662912 1.187500 -0.751301
v -0.751301 1.062500 0.662912
v -0.751301 1.187500 0.662912
vt 0.250000 0.656250
vt 0.259804 0.593750
vt 0.259804 0.656250
vt 0.264706 0.541667
vt 0.284314 0.562500
vt 0.264706 0.562500
vt 0.299020 0.593750
vt 0.289216 0.656250
vt 0.289216 0.593750
vt 0.289216 0.677083
vt 0.259804 0.656250
vt 0.289216 0.656250
vt 0.862745 0.937500
vt 0.509804 0.958333
vt 0.509804 0.937500
vt 0.254902 0.541667
vt 0.235294 0.500000
vt 0.254902 0.500000
vt 0.254902 0.541667
vt 0.235294 0.500000
vt 0.254902 0.500000
vt 0.254902 0.541667
vt 0.235294 0.500000
vt 0.254902 0.500000
vt 0.235294 0.645833
vt 0.245098 0.604167
vt 0.245098 0.645833
vt 0.313726 0.604167
vt 0.303922 0.645833
vt 0.303922 0.604167
vt 0.289216 0.593750
vt 0.284314 0.708333
vt 0.264706 0.687500
vt 0.284314 0.687500
vt 0.892157 0.020833
vt 0.911765 0.854167
vt 0.892157 0.854167
vt 0.509804 1.000000
vt 0.862745 0.979167
vt 0.862745 1.000000
vt 0.299020 0.593750
vt 0.289216 0.593750
vt 0.313726 0.541667
vt 0.294118 0.500000
vt 0.313726 0.500000
vt 0.284314 0.708333
vt 0.264706 0.687500
vt 0.284314 0.687500
vt 0.313726 0.541667
vt 0.294118 0.500000
vt 0.313726 0.500000
vt 0.294118 0.541667
vt 0.274510 0.500000
vt 0.294118 0.500000
vt 0.882353 0.020833
vt 0.862745 0.854167
vt 0.862745 0.020833
vt 0.264706 0.541667
vt 0.284314 0.562500
vt 0.264706 0.562500
vt 0.862745 0.916667
vt 0.509804 0.937500
vt 0.509804 0.916667
vt 0.892157 0.020833
vt 0.882353 0.854167
vt 0.882353 0.020833
vt 0.299020 0.593750
vt 0.289216 0.656250
vt 0.289216 0.593750
vt 0.264706 0.541667
vt 0.284314 0.562500
vt 0.264706 0.562500
vt 0.259804 0.572917
vt 0.289216 0.677083
vt 0.259804 0.656250
vt 0.289216 0.656250
vt 0.254902 0.583333
vt 0.235294 0.541667
vt 0.235294 0.083333
vt 0.274510 0.333333
vt 0.235294 0.333333
vt 0.250000 0.656250
vt 0.259804 0.593750
vt 0.259804 0.656250
vt 0.509804 1.000000
vt 0.313726 0.583333
vt 0.509804 0.583333
vt 0.509804 0.500000
vt 0.549020 0.083333
vt 0.549020 0.500000
vt 0.862745 0.916667
vt 0.509804 0.937500
vt 0.509804 0.916667
vt 0.294118 0.541667
vt 0.274510 0.500000
vt 0.509804 0.979167
vt 0.862745 0.958333
vt 0.862745 0.979167
vt 0.294118 0.541667
vt 0.274510 0.500000
vt 0.862745 0.937500
vt 0.509804 0.958333
vt 0.294118 0.541667
vt 0.274510 0.500000
vt 0.294118 0.500000
vt 0.588235 0.083333
vt 0.549020 0.833333
vt 0.549020 0.083333
vt 0.882353 0.020833
vt 0.862745 0.854167
vt 0.862745 0.020833
vt 0.299020 0.593750
vt 0.289216 0.593750
vt 0.235294 0.666667
vt 0.039216 0.416667
vt 0.235294 0.416667
vt 0.289216 0.677083
vt 0.259804 0.656250
vt 0.289216 0.656250
vt 0.313726 0.604167
vt 0.303922 0.645833
vt 0.303922 0.604167
vt 0.921569 0.020833
vt 0.921569 0.854167
vt 0.313726 0.500000
vt 0.254902 0.583333
vt 0.235294 0.541667
vt 0.313726 0.604167
vt 0.303922 0.645833
vt 0.303922 0.604167
vt 0.254902 0.583333
vt 0.235294 0.541667
vt 0.254902 0.541667
vt 0.892157 0.020833
vt 0.882353 0.854167
vt 0.264706 0.687500
vt 0.289216 0.677083
vt 0.284314 0.687500
vt 0.245098 0.604167
vt 0.250000 0.656250
vt 0.245098 0.645833
vt 0.284314 0.562500
vt 0.259804 0.572917
vt 0.264706 0.562500
vt 0.303922 0.645833
vt 0.299020 0.593750
vt 0.303922 0.604167
vt 0.892157 0.020833
vt 0.882353 0.854167
vt 0.882353 0.020833
vt 0.911765 0.875000
vt 0.892157 0.875000
vt 0.911765 0.020833
vt 0.892157 -0.000000
vt 0.911765 -0.000000
vt 0.259804 0.572917
vt 0.259804 0.593750
vt 0.911765 0.854167
vt 0.892157 0.854167
vt 0.862745 0.854167
vt 0.862745 0.020833
vt 0.862745 0.854167
vt 0.862745 0.020833
vt 0.264706 0.687500
vt 0.289216 0.677083
vt 0.284314 0.687500
vt 0.245098 0.604167
vt 0.250000 0.656250
vt 0.245098 0.645833
vt 0.259804 0.572917
vt 0.303922 0.645833
vt 0.303922 0.604167
vt 0.509804 0.979167
vt 0.862745 0.958333
vt 0.862745 0.979167
vt 0.264706 0.687500
vt 0.289216 0.677083
vt 0.284314 0.687500
vt 0.245098 0.604167
vt 0.250000 0.656250
vt 0.245098 0.645833
vt 0.284314 0.562500
vt 0.259804 0.572917
vt 0.264706 0.562500
vt 0.299020 0.593750
vt 0.313726 0.604167
vt 0.892157 0.854167
vt 0.911765 0.875000
vt 0.892157 0.875000
vt 0.235294 0.645833
vt 0.245098 0.604167
vt 0.245098 0.645833
vt 0.509804 0.979167
vt 0.862745 0.958333
vt 0.862745 0.979167
vt 0.039216 0.333333
vt 0.313726 0.604167
vt 0.289216 0.677083
vt 0.245098 0.604167
vt 0.245098 0.645833
vt 0.259804 0.572917
vt 0.862745 0.916667
vt 0.509804 0.937500
vt 0.509804 0.916667
vt 0.264706 0.687500
vt 0.284314 0.687500
vt 0.250000 0.656250
vt 0.303922 0.645833
vt 0.303922 0.604167
vt 0.284314 0.708333
vt 0.264706 0.687500
vt 0.284314 0.687500
vt 0.274510 0.541667
vt 0.254902 0.500000
vt 0.289216 0.656250
vt 0.289216 0.593750
vt 0.509804 1.000000
vt 0.862745 1.000000
vt 0.259804 0.656250
vt 0.259804 0.593750
vt 0.000000 0.083333
vt 0.000000 0.333333
vt 0.289216 0.677083
vt 0.284314 0.562500
vt 0.264706 0.562500
vt 0.303922 0.645833
vt 0.299020 0.593750
vt 0.303922 0.604167
vt 0.911765 0.875000
vt 0.892157 0.875000
vt 0.235294 0.645833
vt 0.245098 0.604167
vt 0.245098 0.645833
vt 0.250000 0.656250
vt 0.284314 0.562500
vt 0.259804 0.572917
vt 0.264706 0.562500
vt 0.911765 0.020833
vt 0.892157 -0.000000
vt 0.911765 -0.000000
vt 0.313726 0.604167
vt 0.303922 0.645833
vt 0.303922 0.604167
vt 0.254902 0.458333
vt 0.235294 0.458333
vt 0.259804 0.656250
vt 0.259804 0.593750
vt 0.264706 0.687500
vt 0.284314 0.687500
vt 0.245098 0.604167
vt 0.250000 0.656250
vt 0.245098 0.645833
vt 0.284314 0.562500
vt 0.259804 0.572917
vt 0.264706 0.562500
vt 0.299020 0.593750
vt 0.289216 0.656250
vt 0.289216 0.593750
vt 0.039216 -0.000000
vt 0.235294 -0.000000
vt 0.259804 0.677083
vt 0.250000 0.593750
vt 0.289216 0.572917
vt 0.299020 0.656250
vt 0.259804 0.677083
vt 0.250000 0.593750
vt 0.289216 0.572917
vt 0.299020 0.656250
vt 0.259804 0.677083
vt 0.250000 0.593750
vt 0.289216 0.572917
vt 0.299020 0.656250
vt 0.259804 0.677083
vt 0.250000 0.593750
vt 0.289216 0.572917
vt 0.299020 0.656250
vt 0.259804 0.677083
vt 0.250000 0.593750
vt 0.289216 0.572917
vt 0.299020 0.656250
vt 0.259804 0.677083
vt 0.250000 0.593750
vt 0.289216 0.572917
vt 0.299020 0.656250
vt 0.259804 0.677083
vt 0.250000 0.593750
vt 0.289216 0.572917
vt 0.299020 0.656250
vt 0.259804 0.677083
vt 0.250000 0.593750
vt 0.289216 0.572917
vt 0.299020 0.656250
vt 0.911765 0.854167
vt 0.892157 0.854167
vt 0.264706 0.541667
vt 0.235294 0.645833
vt 0.235294 0.645833
vt 0.274510 0.541667
vt 0.911765 0.854167
vt 0.921569 0.020833
vt 0.921569 0.854167
vt 0.254902 0.458333
vt 0.235294 0.458333
vt 0.235294 0.645833
vt 0.313726 0.604167
vt 0.284314 0.708333
vt 0.264706 0.541667
vt 0.313726 0.541667
vt 0.313726 0.500000
vt 0.235294 0.645833
vt 0.313726 0.604167
vt 0.289216 0.656250
vt 0.313726 0.083333
vt 0.274510 0.500000
vt 0.274510 0.083333
vt 0.509804 1.000000
vt 0.862745 1.000000
vt 0.705882 -0.000000
vt 0.588235 -0.000000
vt 0.289216 0.593750
vt 0.259804 0.593750
vt 0.254902 0.458333
vt 0.235294 0.458333
vt 0.911765 0.854167
vt 0.921569 0.020833
vt 0.921569 0.854167
vt 0.705882 0.083333
vt 0.745098 0.833333
vt 0.705882 0.833333
vt 0.509804 0.083333
vt 0.313726 -0.000000
vt 0.509804 -0.000000
vt 0.921569 0.020833
vt 0.921569 0.854167
vt 0.588235 0.916667
vt 0.588235 0.833333
vt 0.862745 0.937500
vt 0.509804 0.958333
vt 0.509804 0.979167
vt 0.862745 0.958333
vt 0.259804 0.656250
vt 0.284314 0.708333
vt 0.259804 0.593750
vt 0.235294 0.500000
vt 0.509804 1.000000
vt 0.862745 1.000000
vt 0.259804 0.593750
vt 0.274510 0.541667
vt 0.264706 0.541667
vt 0.284314 0.708333
vt 0.921569 0.020833
vt 0.921569 0.854167
vt 0.911765 0.020833
vt 0.892157 -0.000000
vt 0.911765 -0.000000
vt 0.274510 0.541667
vt 0.892157 0.020833
vt 0.882353 0.854167
vt 0.039216 0.083333
vt 0.892157 0.854167
vt 0.284314 0.708333
vt 0.911765 0.020833
vt 0.892157 -0.000000
vt 0.911765 -0.000000
vt 0.264706 0.541667
vt 0.313726 0.541667
vt 0.313726 0.500000
vt 0.882353 0.020833
vt 0.862745 0.854167
vt 0.862745 0.020833
vt 0.284314 0.708333
vt 0.862745 0.916667
vt 0.509804 0.916667
vt 0.862745 0.083333
vt 0.862745 0.833333
vt 0.264706 0.541667
vt 0.235294 0.645833
vt 0.911765 0.875000
vt 0.892157 0.875000
vt 0.862745 0.937500
vt 0.509804 0.958333
vt 0.254902 0.458333
vt 0.235294 0.458333
vt 0.254902 0.583333
vt 0.235294 0.541667
vt 0.911765 0.020833
vt 0.892157 -0.000000
vt 0.911765 -0.000000
vt 0.911765 0.875000
vt 0.892157 0.875000
vt 0.882353 0.854167
vt 0.946078 -0.000000
vt 1.000000 0.250000
vt 0.921569 0.250000
vt 0.921569 0.250000
vt 0.975490 -0.000000
vt 1.000000 0.250000
vt 0.946078 -0.000000
vt 1.000000 0.250000
vt 0.921569 0.250000
vt 0.946078 0.000000
vt 1.000000 0.250000
vt 0.921569 0.250000
vt 0.946078 -0.000000
vt 1.000000 0.250000
vt 0.921569 0.250000
vt 0.946078 0.000000
vt 1.000000 0.250000
vt 0.921569 0.250000
vt 0.946078 -0.000000
vt 1.000000 0.250000
vt 0.921569 0.250000
vt 0.946078 -0.000000
vt 1.000000 0.250000
vt 0.921569 0.250000
vt 0.946078 -0.000000
vt 1.000000 0.250000
vt 0.921569 0.250000
vt 0.946078 -0.000000
vt 1.000000 0.250000
vt 0.921569 0.250000
vt 0.946078 -0.000000
vt 1.000000 0.250000
vt 0.921569 0.250000
vt 0.946078 0.000000
vt 1.000000 0.250000
vt 0.921569 0.250000
vt 0.946078 -0.000000
vt 1.000000 0.250000
vt 0.921569 0.250000
vt 0.946078 0.000000
vt 1.000000 0.250000
vt 0.921569 0.250000
vt 0.921569 0.250000
vt 0.975490 -0.000000
vt 1.000000 0.250000
vt 0.921569 0.250000
vt 0.975490 -0.000000
vt 1.000000 0.250000
vt 1.000000 0.375000
vt 0.946078 0.625000
vt 0.921569 0.375000
vt 0.921569 0.375000
vt 0.975490 0.625000
vt 0.946078 0.625000
vt 1.000000 0.375000
vt 0.946078 0.625000
vt 0.921569 0.375000
vt 1.000000 0.375000
vt 0.946078 0.625000
vt 0.921569 0.375000
vt 1.000000 0.375000
vt 0.946078 0.625000
vt 0.921569 0.375000
vt 1.000000 0.375000
vt 0.946078 0.625000
vt 0.921569 0.375000
vt 1.000000 0.375000
vt 0.946078 0.625000
vt 0.921569 0.375000
vt 1.000000 0.375000
vt 0.946078 0.625000
vt 0.921569 0.375000
vt 1.000000 0.375000
vt 0.946078 0.625000
vt 0.921569 0.375000
vt 1.000000 0.375000
vt 0.946078 0.625000
vt 0.921569 0.375000
vt 1.000000 0.375000
vt 0.946078 0.625000
vt 0.921569 0.375000
vt 1.000000 0.375000
vt 0.946078 0.625000
vt 0.921569 0.375000
vt 1.000000 0.375000
vt 0.946078 0.625000
vt 0.921569 0.375000
vt 0.921569 0.375000
vt 0.975490 0.625000
vt 0.946078 0.625000
vt 1.000000 0.375000
vt 0.946078 0.625000
vt 0.921569 0.375000
vt 1.000000 0.375000
vt 0.946078 0.625000
vt 0.921569 0.375000
vt 0.980392 0.750055
vt 0.999974 0.791666
vt 0.980392 0.833278
vt 0.921595 0.791667
vt 0.941176 0.750055
vt 0.960758 0.791666
vt 0.539216 0.833333
vt 0.549020 0.500000
vt 0.549020 0.833333
vt 0.539216 0.833333
vt 0.549020 0.500000
vt 0.549020 0.833333
vt 0.529412 0.500000
vt 0.519608 0.833333
vt 0.519608 0.500000
vt 0.529412 0.500000
vt 0.519608 0.833333
vt 0.519608 0.500000
vt 0.509804 0.833333
vt 0.509804 0.500000
vt 0.539216 0.500000
vt 0.529412 0.833333
vt 0.509804 0.833333
vt 0.509804 0.500000
vt 0.539216 0.500000
vt 0.529412 0.833333
vt 0.539216 0.833333
vt 0.549020 0.500000
vt 0.549020 0.833333
vt 0.529412 0.500000
vt 0.519608 0.833333
vt 0.519608 0.500000
vt 0.529412 0.500000
vt 0.519608 0.833333
vt 0.519608 0.500000
vt 0.539216 0.833333
vt 0.549020 0.500000
vt 0.549020 0.833333
vt 0.509804 0.500000
vt 0.509804 0.833333
vt 0.539216 0.500000
vt 0.529412 0.833333
vt 0.509804 0.833333
vt 0.539216 0.500000
vt 0.284314 0.541667
vt 0.235294 0.604167
vt 0.313726 0.645833
vt 0.264706 0.708333
vt 0.264706 0.708333
vt 0.284314 0.541667
vt 0.284314 0.541667
vt 0.235294 0.583333
vt 0.274510 0.083333
vt 0.313726 1.000000
vt 0.039216 0.666667
vt 0.313726 0.645833
vt 0.235294 0.583333
vt 0.313726 0.645833
vt 0.235294 0.583333
vt 0.313726 0.645833
vt 0.235294 0.604167
vt 0.313726 0.645833
vt 0.264706 0.708333
vt 0.235294 0.604167
vt 0.313726 0.645833
vt 0.284314 0.541667
vt 0.235294 0.604167
vt 0.235294 0.604167
vt 0.235294 0.604167
vt 0.313726 0.645833
vt 0.264706 0.708333
vt 0.284314 0.541667
vt 0.235294 0.604167
vt 0.313726 0.645833
vt 0.745098 0.083333
vt 0.705882 0.916667
vt 0.264706 0.708333
vt 0.284314 0.541667
vt 0.264706 0.708333
vt 0.264706 0.708333
vt 0.284314 0.541667
vt 0.264706 0.708333
vt 0.284314 0.541667
vt 0.235294 0.604167
vt 0.235294 0.583333
vt 0.975490 -0.000000
vt 0.946078 -0.000000
vt 0.975490 -0.000000
vt 0.975490 0.000000
vt 0.975490 -0.000000
vt 0.975490 0.000000
vt 0.975490 -0.000000
vt 0.975490 -0.000000
vt 0.975490 -0.000000
vt 0.975490 -0.000000
vt 0.975490 -0.000000
vt 0.975490 0.000000
vt 0.975490 -0.000000
vt 0.975490 0.000000
vt 0.946078 -0.000000
vt 0.946078 -0.000000
vt 0.975490 0.625000
vt 1.000000 0.375000
vt 0.975490 0.625000
vt 0.975490 0.625000
vt 0.975490 0.625000
vt 0.975490 0.625000
vt 0.975490 0.625000
vt 0.975490 0.625000
vt 0.975490 0.625000
vt 0.975490 0.625000
vt 0.975490 0.625000
vt 0.975490 0.625000
vt 0.975490 0.625000
vt 1.000000 0.375000
vt 0.975490 0.625000
vt 0.975490 0.625000
vt 0.966546 0.821090
vt 0.960810 0.791667
vt 0.966546 0.762243
vt 0.994239 0.762243
vt 0.994239 0.821090
vt 0.955023 0.821090
vt 0.941176 0.833278
vt 0.927330 0.821090
vt 0.927330 0.762243
vt 0.955023 0.762243
vt 0.529412 0.833333
vt 0.509804 0.500000
vt 0.946078 0.750000
vt 0.975490 0.750000
vt 0.946078 0.750000
vt 0.975490 0.750000
vt 0.946078 0.750000
vt 0.975490 0.750000
vt 0.946078 0.750000
vt 0.975490 0.750000
vt 0.946078 0.750000
vt 0.975490 0.750000
vt 0.946078 0.750000
vt 0.975490 0.750000
vt 0.946078 0.750000
vt 0.975490 0.750000
vt 0.946078 0.750000
vt 0.975490 0.750000
vt 0.946078 0.750000
vt 0.975490 0.750000
vt 0.946078 0.750000
vt 0.975490 0.750000
vt 0.946078 0.750000
vt 0.975490 0.750000
vt 0.946078 0.750000
vt 0.975490 0.750000
vt 0.946078 0.750000
vt 0.975490 0.750000
vt 0.946078 0.750000
vt 0.975490 0.750000
vt 0.946078 0.750000
vt 0.975490 0.750000
vt 0.946078 0.750000
vt 0.975490 0.750000
vt 0.950980 0.875000
vt 0.936275 1.000000
vt 0.936275 0.875000
vt 0.921569 0.875000
vt 0.906863 1.000000
vt 0.906863 0.875000
vt 0.892157 0.875000
vt 0.877451 1.000000
vt 0.877451 0.875000
vt 0.980392 0.875000
vt 0.965686 1.000000
vt 0.965686 0.875000
vt 0.921569 1.000000
vt 0.892157 1.000000
vt 0.862745 1.000000
vt 0.862745 0.875000
vt 0.950980 1.000000
vt 0.980392 1.000000
vn 1.0000 0.0000 0.0000
vn 0.0000 -1.0000 0.0000
vn 0.0000 -0.0000 1.0000
vn 0.0000 1.0000 0.0000
vn 0.0000 0.0000 -1.0000
vn -1.0000 0.0000 0.0000
vn -0.7071 -0.0000 0.7071
vn 0.7071 -0.0000 0.7071
vn 0.7071 0.0000 -0.7071
vn -0.7071 0.0000 -0.7071
vn 0.3827 0.0000 -0.9239
vn 0.3827 -0.0000 0.9239
vn 0.9239 -0.0000 0.3827
vn -0.3827 0.0000 -0.9239
vn 0.9239 0.0000 -0.3827
vn -0.9239 -0.0000 -0.3827
vn -0.9239 -0.0000 0.3827
vn -0.3827 0.0000 0.9239
s off
f 427/371/25 417/372/25 419/373/25
f 400/374/26 390/375/26 388/376/26
f 394/377/27 386/378/27 391/379/27
f 440/380/28 435/381/28 434/382/28
f 253/383/26 251/384/26 249/385/26
f 220/386/25 219/387/25 218/388/25
f 228/389/25 227/390/25 226/391/25
f 212/392/25 211/393/25 210/394/25
f 430/395/25 420/396/25 428/397/25
f 437/398/25 445/399/25 438/400/25
f 423/401/29 419/373/29 417/372/29
f 447/402/28 444/403/28 445/404/28
f 319/405/28 318/406/28 316/407/28
f 244/408/28 246/409/28 247/410/28
f 442/411/25 434/382/25 439/412/25
f 230/413/27 225/414/27 227/415/27
f 399/416/28 396/417/28 397/418/28
f 214/419/27 209/420/27 211/421/27
f 237/422/30 239/423/30 233/424/30
f 320/425/26 315/426/26 313/427/26
f 416/428/26 406/429/26 404/430/26
f 271/431/29 265/432/29 268/433/29
f 327/434/25 322/435/25 328/436/25
f 362/437/29 354/438/29 359/439/29
f 368/440/26 358/441/26 356/442/26
f 425/443/26 423/401/26 417/372/26
f 408/444/28 403/445/28 402/446/28
f 232/447/28 230/448/28 228/389/28
f 295/449/29 290/450/29 296/451/29
f 395/452/29 385/453/29 387/454/29
f 287/455/26 283/456/26 281/457/26
f 285/458/29 287/459/29 281/460/29
f 263/461/27 257/462/27 260/463/27
f 229/464/30 231/465/30 225/414/30
f 256/466/30 250/467/30 254/468/30
f 213/469/30 215/470/30 209/420/30
f 261/471/26 259/472/26 257/462/26
f 221/473/30 223/474/30 217/475/30
f 304/476/27 299/477/27 297/478/27
f 336/479/26 331/480/26 329/481/26
f 410/482/30 402/446/30 407/483/30
f 292/484/26 291/485/26 290/486/26
f 456/487/28 451/488/28 450/489/28
f 389/490/27 397/491/27 390/492/27
f 318/406/30 313/493/30 315/494/30
f 286/495/30 281/457/30 283/456/30
f 216/496/28 214/497/28 212/392/28
f 373/498/27 381/499/27 374/500/27
f 240/501/28 238/502/28 236/503/28
f 335/504/25 330/505/25 336/479/25
f 348/506/30 344/507/30 349/508/30
f 340/509/30 347/510/30 348/511/30
f 342/512/30 345/513/30 340/514/30
f 349/515/30 346/516/30 342/517/30
f 311/518/25 306/519/25 312/520/25
f 316/407/27 315/521/27 314/522/27
f 317/523/29 320/524/29 313/525/29
f 409/526/26 407/483/26 401/527/26
f 311/518/28 310/528/28 308/529/28
f 312/520/26 307/530/26 305/531/26
f 328/436/26 323/532/26 321/533/26
f 364/534/30 360/535/30 365/536/30
f 356/537/30 363/538/30 364/539/30
f 358/441/30 361/540/30 356/442/30
f 365/541/30 362/437/30 358/542/30
f 272/543/27 266/544/27 270/545/27
f 380/546/25 376/547/25 381/548/25
f 372/549/25 379/550/25 380/551/25
f 374/552/25 377/553/25 372/554/25
f 381/499/25 378/555/25 374/500/25
f 341/556/29 349/515/29 342/517/29
f 276/557/27 275/558/27 274/559/27
f 414/560/25 404/561/25 412/562/25
f 264/563/29 258/564/29 262/565/29
f 296/451/30 291/485/30 289/566/30
f 357/567/29 365/541/29 358/542/29
f 396/417/25 392/568/25 397/418/25
f 388/569/25 395/452/25 396/570/25
f 390/375/25 393/571/25 388/376/25
f 397/491/25 394/377/25 390/492/25
f 247/572/30 241/573/30 244/574/30
f 412/575/27 408/444/27 413/576/27
f 404/561/27 411/577/27 412/562/27
f 406/429/27 409/526/27 404/430/27
f 413/578/27 410/482/27 406/579/27
f 431/580/28 428/581/28 429/582/28
f 240/583/29 234/584/29 239/423/29
f 378/555/27 370/585/27 375/586/27
f 260/587/28 262/565/28 263/588/28
f 375/586/30 371/589/30 369/590/30
f 294/591/27 289/566/27 291/592/27
f 428/581/27 424/593/27 429/582/27
f 420/396/27 427/371/27 428/397/27
f 422/594/27 425/443/27 420/595/27
f 429/596/27 426/597/27 422/598/27
f 308/529/27 307/599/27 306/600/27
f 446/601/30 436/602/30 444/603/30
f 444/403/29 440/380/29 445/404/29
f 436/602/29 443/604/29 444/603/29
f 438/605/29 441/606/29 436/607/29
f 445/399/29 442/411/29 438/400/29
f 277/608/29 280/609/29 273/610/29
f 453/611/25 461/612/25 454/613/25
f 223/614/26 219/387/26 217/615/26
f 359/439/25 355/616/25 353/617/25
f 393/571/26 391/379/26 385/453/26
f 460/618/29 456/487/29 461/619/29
f 452/620/29 459/621/29 460/622/29
f 454/623/29 457/624/29 452/625/29
f 461/612/29 458/626/29 454/613/29
f 346/516/29 338/627/29 343/628/29
f 295/449/25 294/629/25 292/630/25
f 376/547/28 371/589/28 370/585/28
f 348/506/30 347/631/30 344/507/30
f 340/509/30 345/632/30 347/510/30
f 342/512/30 346/633/30 345/513/30
f 349/515/30 344/634/30 346/516/30
f 364/534/30 363/635/30 360/535/30
f 356/537/30 361/636/30 363/538/30
f 358/441/30 362/637/30 361/540/30
f 365/541/30 360/638/30 362/437/30
f 380/546/25 379/639/25 376/547/25
f 372/549/25 377/640/25 379/550/25
f 374/552/25 378/641/25 377/553/25
f 381/499/25 376/642/25 378/555/25
f 396/417/25 395/643/25 392/568/25
f 388/569/25 393/644/25 395/452/25
f 390/375/25 394/645/25 393/571/25
f 397/491/25 392/646/25 394/377/25
f 412/575/27 411/647/27 408/444/27
f 404/561/27 409/648/27 411/577/27
f 406/429/27 410/649/27 409/526/27
f 413/578/27 408/650/27 410/482/27
f 428/581/27 427/651/27 424/593/27
f 420/396/27 425/652/27 427/371/27
f 422/594/27 426/653/27 425/443/27
f 429/596/27 424/654/27 426/597/27
f 444/403/29 443/655/29 440/380/29
f 436/602/29 441/656/29 443/604/29
f 438/605/29 442/657/29 441/606/29
f 445/399/29 440/658/29 442/411/29
f 460/618/29 459/659/29 456/487/29
f 452/620/29 457/660/29 459/621/29
f 454/623/29 458/661/29 457/624/29
f 461/612/29 456/662/29 458/626/29
f 327/434/28 326/663/28 324/664/28
f 352/665/26 342/512/26 340/514/26
f 350/666/27 340/509/27 348/511/27
f 379/550/29 369/590/29 371/589/29
f 366/667/27 356/537/27 364/539/27
f 216/668/29 210/394/29 215/470/29
f 363/538/27 353/617/27 355/616/27
f 334/669/30 329/670/30 331/671/30
f 231/672/26 227/390/26 225/673/26
f 398/674/29 388/569/29 396/570/29
f 421/675/30 429/596/30 422/598/30
f 351/676/28 348/506/28 349/508/28
f 384/677/26 374/552/26 372/554/26
f 222/678/27 217/475/27 219/679/27
f 462/680/30 452/620/30 460/622/30
f 405/681/30 413/578/30 406/579/30
f 361/540/26 359/439/26 353/617/26
f 426/597/30 418/682/30 423/401/30
f 411/577/25 401/527/25 403/445/25
f 407/483/29 403/445/29 401/527/29
f 284/683/27 283/684/27 282/685/27
f 268/686/28 270/545/28 271/687/28
f 301/688/25 304/476/25 297/689/25
f 457/624/26 455/690/26 449/691/26
f 215/692/26 211/393/26 209/693/26
f 278/694/30 273/695/30 275/696/30
f 303/697/29 302/698/29 300/699/29
f 288/700/25 282/701/25 287/702/25
f 310/528/30 305/703/30 307/704/30
f 300/699/30 299/705/30 298/706/30
f 269/707/26 267/708/26 265/432/26
f 248/709/25 242/710/25 246/409/25
f 344/507/28 339/711/28 338/627/28
f 463/712/28 460/618/28 461/619/28
f 343/628/25 339/711/25 337/713/25
f 236/503/25 235/714/25 234/584/25
f 252/715/28 254/468/28 255/716/28
f 443/604/30 433/717/30 435/381/30
f 232/718/29 226/391/29 231/465/29
f 448/719/26 438/605/26 436/607/26
f 383/720/28 380/546/28 381/548/28
f 326/663/30 321/721/30 323/722/30
f 309/723/29 312/724/29 305/725/29
f 224/726/29 218/388/29 223/474/29
f 279/727/28 278/694/28 276/557/28
f 347/510/27 337/713/27 339/711/27
f 319/405/25 314/728/25 320/425/25
f 293/729/28 296/451/28 289/566/28
f 345/513/26 343/628/26 337/713/26
f 335/504/28 334/669/28 332/730/28
f 367/731/28 364/534/28 365/536/28
f 424/593/28 419/373/28 418/682/28
f 439/412/27 435/381/27 433/717/27
f 288/700/28 286/495/28 284/683/28
f 325/732/29 328/733/29 321/734/29
f 464/735/26 454/623/26 452/625/26
f 238/736/27 233/424/27 235/737/27
f 280/738/26 275/739/26 273/740/26
f 391/379/30 387/454/30 385/453/30
f 377/553/26 375/586/26 369/590/26
f 415/741/28 412/575/28 413/576/28
f 255/742/25 249/385/25 252/743/25
f 302/698/26 297/744/26 299/745/26
f 300/699/28 304/476/28 303/697/28
f 432/746/26 422/594/26 420/595/26
f 459/621/30 449/691/30 451/488/30
f 382/747/29 372/549/29 380/551/29
f 324/664/27 323/748/27 322/749/27
f 245/750/26 243/751/26 241/573/26
f 458/626/25 450/489/25 455/690/25
f 455/690/27 451/488/27 449/691/27
f 239/752/26 235/714/26 233/753/26
f 441/606/26 439/412/26 433/717/26
f 224/754/28 222/755/28 220/386/28
f 333/756/29 336/757/29 329/758/29
f 392/568/28 387/454/28 386/378/28
f 332/730/27 331/759/27 330/760/27
f 279/727/25 274/761/25 280/738/25
f 360/535/28 355/616/28 354/438/28
f 488/762/26 473/763/26 472/764/26
f 471/765/26 488/766/26 472/767/26
f 486/768/26 471/769/26 470/770/26
f 485/771/26 470/772/26 469/773/26
f 484/774/26 469/775/26 468/776/26
f 483/777/26 468/778/26 467/779/26
f 482/780/26 467/781/26 466/782/26
f 481/783/26 466/784/26 465/785/26
f 496/786/26 465/787/26 480/788/26
f 495/789/26 480/790/26 479/791/26
f 494/792/26 479/793/26 478/794/26
f 493/795/26 478/796/26 477/797/26
f 492/798/26 477/799/26 476/800/26
f 491/801/26 476/802/26 475/803/26
f 474/804/26 491/805/26 475/806/26
f 473/807/26 490/808/26 474/809/26
f 505/810/28 520/811/28 504/812/28
f 503/813/28 520/814/28 519/815/28
f 503/816/28 518/817/28 502/818/28
f 502/819/28 517/820/28 501/821/28
f 501/822/28 516/823/28 500/824/28
f 500/825/28 515/826/28 499/827/28
f 499/828/28 513/829/28 497/830/28
f 497/831/28 514/832/28 498/833/28
f 498/834/28 528/835/28 512/836/28
f 512/837/28 527/838/28 511/839/28
f 511/840/28 526/841/28 510/842/28
f 510/843/28 525/844/28 509/845/28
f 509/846/28 524/847/28 508/848/28
f 507/849/28 524/850/28 523/851/28
f 507/852/28 522/853/28 506/854/28
f 506/855/28 521/856/28 505/857/28
f 535/858/26 533/859/26 531/860/26
f 541/861/28 543/862/28 538/863/28
f 546/864/30 547/865/30 545/866/30
f 554/867/27 555/868/27 553/869/27
f 552/870/25 549/871/25 551/872/25
f 560/873/29 557/874/29 559/875/29
f 551/872/26 545/876/26 547/877/26
f 548/878/28 550/879/28 552/870/28
f 559/875/26 553/880/26 555/881/26
f 556/882/28 558/883/28 560/873/28
f 562/884/31 563/885/31 561/886/31
f 570/887/32 571/888/32 569/889/32
f 568/890/33 565/891/33 567/892/33
f 576/893/34 573/894/34 575/895/34
f 563/896/26 565/891/26 561/897/26
f 564/898/28 566/899/28 568/890/28
f 575/900/26 569/889/26 571/888/26
f 576/893/28 570/887/28 574/901/28
f 427/371/25 425/652/25 417/372/25
f 400/374/26 389/902/26 390/375/26
f 394/377/27 392/646/27 386/378/27
f 440/380/28 443/655/28 435/381/28
f 253/383/26 250/467/26 251/384/26
f 220/386/25 222/755/25 219/387/25
f 228/389/25 230/448/25 227/390/25
f 212/392/25 214/497/25 211/393/25
f 430/395/25 432/903/25 420/396/25
f 437/398/25 447/904/25 445/399/25
f 423/401/29 418/682/29 419/373/29
f 447/402/28 446/905/28 444/403/28
f 319/405/28 317/523/28 318/406/28
f 244/408/28 248/709/28 246/409/28
f 442/411/25 440/658/25 434/382/25
f 230/413/27 229/464/27 225/414/27
f 399/416/28 398/906/28 396/417/28
f 214/419/27 213/469/27 209/420/27
f 237/422/30 240/583/30 239/423/30
f 320/425/26 314/728/26 315/426/26
f 416/428/26 405/907/26 406/429/26
f 271/431/29 269/707/29 265/432/29
f 327/434/25 324/664/25 322/435/25
f 362/437/29 360/638/29 354/438/29
f 368/440/26 357/908/26 358/441/26
f 425/443/26 426/653/26 423/401/26
f 408/444/28 411/647/28 403/445/28
f 232/447/28 229/909/28 230/448/28
f 295/449/29 292/910/29 290/450/29
f 395/452/29 393/644/29 385/453/29
f 287/455/26 282/911/26 283/456/26
f 285/458/29 288/700/29 287/459/29
f 263/461/27 261/471/27 257/462/27
f 229/464/30 232/718/30 231/465/30
f 256/466/30 251/384/30 250/467/30
f 213/469/30 216/668/30 215/470/30
f 261/471/26 258/564/26 259/472/26
f 221/473/30 224/726/30 223/474/30
f 304/476/27 298/706/27 299/477/27
f 336/479/26 330/505/26 331/480/26
f 410/482/30 408/650/30 402/446/30
f 292/484/26 294/912/26 291/485/26
f 456/487/28 459/659/28 451/488/28
f 389/490/27 399/913/27 397/491/27
f 318/406/30 317/523/30 313/493/30
f 286/495/30 285/458/30 281/457/30
f 216/496/28 213/914/28 214/497/28
f 373/498/27 383/915/27 381/499/27
f 240/501/28 237/916/28 238/502/28
f 335/504/25 332/730/25 330/505/25
f 311/518/25 308/529/25 306/519/25
f 316/407/27 318/406/27 315/521/27
f 317/523/29 319/405/29 320/524/29
f 409/526/26 410/649/26 407/483/26
f 311/518/28 309/723/28 310/528/28
f 312/520/26 306/519/26 307/530/26
f 328/436/26 322/435/26 323/532/26
f 272/543/27 267/708/27 266/544/27
f 341/556/29 351/917/29 349/515/29
f 276/557/27 278/694/27 275/558/27
f 414/560/25 416/918/25 404/561/25
f 264/563/29 259/472/29 258/564/29
f 296/451/30 290/486/30 291/485/30
f 357/567/29 367/919/29 365/541/29
f 247/572/30 245/750/30 241/573/30
f 431/580/28 430/920/28 428/581/28
f 240/583/29 236/503/29 234/584/29
f 378/555/27 376/642/27 370/585/27
f 260/587/28 264/563/28 262/565/28
f 375/586/30 370/585/30 371/589/30
f 294/591/27 293/729/27 289/566/27
f 308/529/27 310/528/27 307/599/27
f 446/601/30 448/921/30 436/602/30
f 277/608/29 279/727/29 280/609/29
f 453/611/25 463/922/25 461/612/25
f 223/614/26 218/388/26 219/387/26
f 359/439/25 354/438/25 355/616/25
f 393/571/26 394/645/26 391/379/26
f 346/516/29 344/634/29 338/627/29
f 295/449/25 293/729/25 294/629/25
f 376/547/28 379/639/28 371/589/28
f 327/434/28 325/732/28 326/663/28
f 352/665/26 341/923/26 342/512/26
f 350/666/27 352/924/27 340/509/27
f 379/550/29 377/640/29 369/590/29
f 366/667/27 368/925/27 356/537/27
f 216/668/29 212/392/29 210/394/29
f 363/538/27 361/636/27 353/617/27
f 334/669/30 333/756/30 329/670/30
f 231/672/26 226/391/26 227/390/26
f 398/674/29 400/926/29 388/569/29
f 421/675/30 431/927/30 429/596/30
f 351/676/28 350/928/28 348/506/28
f 384/677/26 373/929/26 374/552/26
f 222/678/27 221/473/27 217/475/27
f 462/680/30 464/930/30 452/620/30
f 405/681/30 415/931/30 413/578/30
f 361/540/26 362/637/26 359/439/26
f 426/597/30 424/654/30 418/682/30
f 411/577/25 409/648/25 401/527/25
f 407/483/29 402/446/29 403/445/29
f 284/683/27 286/495/27 283/684/27
f 268/686/28 272/543/28 270/545/28
f 301/688/25 303/697/25 304/476/25
f 457/624/26 458/661/26 455/690/26
f 215/692/26 210/394/26 211/393/26
f 278/694/30 277/608/30 273/695/30
f 303/697/29 301/932/29 302/698/29
f 288/700/25 284/683/25 282/701/25
f 310/528/30 309/723/30 305/703/30
f 300/699/30 302/933/30 299/705/30
f 269/707/26 266/544/26 267/708/26
f 248/709/25 243/751/25 242/710/25
f 344/507/28 347/631/28 339/711/28
f 463/712/28 462/934/28 460/618/28
f 343/628/25 338/627/25 339/711/25
f 236/503/25 238/502/25 235/714/25
f 252/715/28 256/466/28 254/468/28
f 443/604/30 441/656/30 433/717/30
f 232/718/29 228/389/29 226/391/29
f 448/719/26 437/935/26 438/605/26
f 383/720/28 382/936/28 380/546/28
f 326/663/30 325/732/30 321/721/30
f 309/723/29 311/518/29 312/724/29
f 224/726/29 220/386/29 218/388/29
f 279/727/28 277/608/28 278/694/28
f 347/510/27 345/632/27 337/713/27
f 319/405/25 316/407/25 314/728/25
f 293/729/28 295/449/28 296/451/28
f 345/513/26 346/633/26 343/628/26
f 335/504/28 333/756/28 334/669/28
f 367/731/28 366/937/28 364/534/28
f 424/593/28 427/651/28 419/373/28
f 439/412/27 434/382/27 435/381/27
f 288/700/28 285/458/28 286/495/28
f 325/732/29 327/434/29 328/733/29
f 464/735/26 453/938/26 454/623/26
f 238/736/27 237/422/27 233/424/27
f 280/738/26 274/761/26 275/739/26
f 391/379/30 386/378/30 387/454/30
f 377/553/26 378/641/26 375/586/26
f 415/741/28 414/939/28 412/575/28
f 255/742/25 253/383/25 249/385/25
f 302/698/26 301/932/26 297/744/26
f 300/699/28 298/706/28 304/476/28
f 432/746/26 421/940/26 422/594/26
f 459/621/30 457/660/30 449/691/30
f 382/747/29 384/941/29 372/549/29
f 324/664/27 326/663/27 323/748/27
f 245/750/26 242/710/26 243/751/26
f 458/626/25 456/662/25 450/489/25
f 455/690/27 450/489/27 451/488/27
f 239/752/26 234/584/26 235/714/26
f 441/606/26 442/657/26 439/412/26
f 224/754/28 221/942/28 222/755/28
f 333/756/29 335/504/29 336/757/29
f 392/568/28 395/643/28 387/454/28
f 332/730/27 334/669/27 331/759/27
f 279/727/25 276/557/25 274/761/25
f 360/535/28 363/635/28 355/616/28
f 488/762/26 489/943/26 473/763/26
f 471/765/26 487/944/26 488/766/26
f 486/768/26 487/945/26 471/769/26
f 485/771/26 486/946/26 470/772/26
f 484/774/26 485/947/26 469/775/26
f 483/777/26 484/948/26 468/778/26
f 482/780/26 483/949/26 467/781/26
f 481/783/26 482/950/26 466/784/26
f 496/786/26 481/951/26 465/787/26
f 495/789/26 496/952/26 480/790/26
f 494/792/26 495/953/26 479/793/26
f 493/795/26 494/954/26 478/796/26
f 492/798/26 493/955/26 477/799/26
f 491/801/26 492/956/26 476/802/26
f 474/804/26 490/957/26 491/805/26
f 473/807/26 489/958/26 490/808/26
f 505/810/28 521/959/28 520/811/28
f 503/813/28 504/960/28 520/814/28
f 503/816/28 519/961/28 518/817/28
f 502/819/28 518/962/28 517/820/28
f 501/822/28 517/963/28 516/823/28
f 500/825/28 516/964/28 515/826/28
f 499/828/28 515/965/28 513/829/28
f 497/831/28 513/966/28 514/832/28
f 498/834/28 514/967/28 528/835/28
f 512/837/28 528/968/28 527/838/28
f 511/840/28 527/969/28 526/841/28
f 510/843/28 526/970/28 525/844/28
f 509/846/28 525/971/28 524/847/28
f 507/849/28 508/972/28 524/850/28
f 507/852/28 523/973/28 522/853/28
f 506/855/28 522/974/28 521/856/28
f 531/860/26 530/975/26 529/976/26
f 529/976/26 536/977/26 535/858/26
f 535/858/26 534/978/26 533/859/26
f 533/859/26 532/979/26 531/860/26
f 531/860/26 529/976/26 535/858/26
f 538/863/28 537/980/28 539/981/28
f 539/981/28 540/982/28 541/861/28
f 541/861/28 542/983/28 543/862/28
f 543/862/28 544/984/28 538/863/28
f 538/863/28 539/981/28 541/861/28
f 546/864/30 548/878/30 547/865/30
f 554/867/27 556/882/27 555/868/27
f 552/870/25 550/879/25 549/871/25
f 560/873/29 558/883/29 557/874/29
f 551/872/26 549/871/26 545/876/26
f 548/878/28 546/864/28 550/879/28
f 559/875/26 557/874/26 553/880/26
f 556/882/28 554/867/28 558/883/28
f 562/884/31 564/898/31 563/885/31
f 570/887/32 572/985/32 571/888/32
f 568/890/33 566/899/33 565/891/33
f 576/893/34 574/901/34 573/894/34
f 563/896/26 567/892/26 565/891/26
f 564/898/28 562/884/28 566/899/28
f 575/900/26 573/986/26 569/889/26
f 576/893/28 572/985/28 570/887/28
s 1
f 487/987/33 520/814/35 488/988/35
f 474/804/36 507/852/32 506/854/36
f 488/989/35 521/959/29 489/990/29
f 476/802/37 507/849/32 475/803/32
f 489/991/29 522/974/38 490/992/38
f 477/799/25 508/848/37 476/800/37
f 490/993/38 523/973/34 491/994/34
f 478/796/39 509/845/25 477/797/25
f 491/995/34 524/850/40 492/996/40
f 479/793/33 510/842/39 478/794/39
f 466/784/38 498/833/29 465/785/29
f 492/997/40 525/971/30 493/998/30
f 479/791/33 512/837/35 511/839/33
f 467/781/34 497/830/38 466/782/38
f 493/999/30 526/970/41 494/1000/41
f 465/787/29 512/836/35 480/788/35
f 467/779/34 500/825/40 499/827/34
f 494/1001/41 527/969/31 495/1002/31
f 481/1003/27 513/966/36 482/1004/36
f 468/776/40 501/822/30 500/824/40
f 495/1005/31 528/968/42 496/1006/42
f 482/1007/36 515/965/32 483/1008/32
f 470/772/41 501/821/30 469/773/30
f 496/1009/42 514/967/27 481/1010/27
f 483/1011/32 516/964/37 484/1012/37
f 471/769/31 502/818/41 470/770/41
f 484/1013/37 517/963/25 485/1014/25
f 472/767/42 503/813/31 471/765/31
f 485/1015/25 518/962/39 486/1016/39
f 473/763/27 504/812/42 472/764/42
f 486/1017/39 519/961/33 487/1018/33
f 474/809/36 505/857/27 473/807/27
f 529/1019/29 544/1020/33 536/1021/33
f 535/1022/25 542/1023/32 534/1024/32
f 533/1025/27 540/1026/31 532/1027/31
f 531/1028/30 537/1029/34 530/1030/34
f 536/1021/33 543/1031/25 535/1022/25
f 534/1024/32 541/1032/27 533/1025/27
f 532/1027/31 539/1033/30 531/1034/30
f 530/1030/34 538/1035/29 529/1019/29
f 487/987/33 519/815/33 520/814/35
f 474/804/36 475/806/32 507/852/32
f 488/989/35 520/811/35 521/959/29
f 476/802/37 508/972/37 507/849/32
f 489/991/29 521/856/29 522/974/38
f 477/799/25 509/846/25 508/848/37
f 490/993/38 522/853/38 523/973/34
f 478/796/39 510/843/39 509/845/25
f 491/995/34 523/851/34 524/850/40
f 479/793/33 511/840/33 510/842/39
f 466/784/38 497/831/38 498/833/29
f 492/997/40 524/847/40 525/971/30
f 479/791/33 480/790/35 512/837/35
f 467/781/34 499/828/34 497/830/38
f 493/999/30 525/844/30 526/970/41
f 465/787/29 498/834/29 512/836/35
f 467/779/34 468/778/40 500/825/40
f 494/1001/41 526/841/41 527/969/31
f 481/1003/27 514/832/27 513/966/36
f 468/776/40 469/775/30 501/822/30
f 495/1005/31 527/838/31 528/968/42
f 482/1007/36 513/829/36 515/965/32
f 470/772/41 502/819/41 501/821/30
f 496/1009/42 528/835/42 514/967/27
f 483/1011/32 515/826/32 516/964/37
f 471/769/31 503/816/31 502/818/41
f 484/1013/37 516/823/37 517/963/25
f 472/767/42 504/960/42 503/813/31
f 485/1015/25 517/820/25 518/962/39
f 473/763/27 505/810/27 504/812/42
f 486/1017/39 518/817/39 519/961/33
f 474/809/36 506/855/36 505/857/27
f 529/1019/29 538/1035/29 544/1020/33
f 535/1022/25 543/1031/25 542/1023/32
f 533/1025/27 541/1032/27 540/1026/31
f 531/1028/30 539/1036/30 537/1029/34
f 536/1021/33 544/1020/33 543/1031/25
f 534/1024/32 542/1023/32 541/1032/27
f 532/1027/31 540/1026/31 539/1033/30
f 530/1030/34 537/1029/34 538/1035/29
