# Blender 4.0.1
# www.blender.org
o Base
v -4.500000 2.000000 4.500000
v -4.500000 3.000000 4.500000
v -4.500000 2.000000 -4.500000
v -4.500000 3.000000 -4.500000
v 4.500000 2.000000 4.500000
v 4.500000 3.000000 4.500000
v 4.500000 2.000000 -4.500000
v 4.500000 3.000000 -4.500000
v -4.500000 2.000000 2.500000
v -2.500000 2.000000 4.500000
v -3.500000 2.000000 3.500000
v -4.500000 2.000000 -2.500000
v -2.500000 2.000000 -4.500000
v -3.500000 2.000000 -3.500000
v 4.500000 2.000000 -2.500000
v 2.500000 2.000000 -4.500000
v 3.500000 2.000000 -3.500000
v 4.500000 2.000000 2.500000
v 2.500000 2.000000 4.500000
v 3.500000 2.000000 3.500000
v -4.500000 0.000000 2.500000
v -4.500000 0.000000 4.500000
v -2.500000 0.000000 -4.500000
v -4.500000 0.000000 -4.500000
v 4.500000 0.000000 -2.500000
v 4.500000 0.000000 -4.500000
v 2.500000 0.000000 4.500000
v 4.500000 0.000000 4.500000
v -2.500000 0.000000 4.500000
v -3.500000 0.000000 3.500000
v -4.500000 0.000000 -2.500000
v -3.500000 0.000000 -3.500000
v 2.500000 0.000000 -4.500000
v 3.500000 0.000000 -3.500000
v 4.500000 0.000000 2.500000
v 3.500000 0.000000 3.500000
v -3.500000 2.000000 2.500000
v -3.500000 2.000000 -2.500000
v -2.500000 2.000000 -3.500000
v 2.500000 2.000000 -3.500000
v 3.500000 2.000000 2.500000
v 3.500000 2.000000 -2.500000
v 2.500000 2.000000 3.500000
v -2.500000 2.000000 3.500000
v -3.500000 0.000000 -2.500000
v -2.500000 0.000000 -3.500000
v -3.500000 0.000000 2.500000
v 3.500000 0.000000 -2.500000
v 3.500000 0.000000 2.500000
v -2.500000 0.000000 3.500000
v 2.500000 0.000000 -3.500000
v 2.500000 0.000000 3.500000
v -2.500000 2.875000 3.500000
v -3.500000 2.875000 3.500000
v -3.500000 2.875000 -2.500000
v -3.500000 2.875000 -3.500000
v 2.500000 2.875000 -3.500000
v 3.500000 2.875000 -3.500000
v 2.500000 2.875000 3.500000
v 3.500000 2.875000 3.500000
v -3.500000 2.875000 2.500000
v -2.500000 2.875000 -3.500000
v 3.500000 2.875000 2.500000
v 3.500000 2.875000 -2.500000
vn -1.0000 -0.0000 -0.0000
vn -0.0000 -0.0000 -1.0000
vn 1.0000 -0.0000 -0.0000
vn -0.0000 -0.0000 1.0000
vn -0.0000 -1.0000 -0.0000
vn -0.0000 1.0000 -0.0000
vt 0.687500 1.000000
vt 0.750000 0.437500
vt 0.750000 0.562500
vt 0.812500 0.875000
vt 0.687500 0.875000
vt 0.750000 0.875000
vt 0.750000 1.000000
vt 0.125000 0.437500
vt 0.187500 0.500000
vt 0.125000 0.562500
vt 0.625000 0.500000
vt 0.562500 0.437500
vt 0.687500 0.437500
vt 0.187500 0.937500
vt 0.250000 1.000000
vt 0.125000 1.000000
vt 0.625000 0.937500
vt 0.687500 0.500000
vt 0.750000 0.500000
vt 0.687500 0.562500
vt 0.625000 0.562500
vt 0.187500 0.562500
vt 0.250000 0.500000
vt 0.750000 0.937500
vt 0.812500 1.000000
vt 0.250000 0.437500
vt 0.562500 0.500000
vt 0.125000 0.875000
vt 0.187500 0.875000
vt 0.250000 0.937500
vt 0.562500 1.000000
vt 0.562500 0.937500
vt 0.625000 0.875000
vt 0.687500 0.937500
s 0
f 2/1/1 3/2/1 12/3/1
f 4/1/2 7/2/2 16/3/2
f 8/1/3 5/2/3 18/3/3
f 6/1/4 1/2/4 10/3/4
f 19/4/4 28/1/4 5/5/4
f 5/4/3 35/1/3 18/5/3
f 38/5/5 9/3/5 12/6/5
f 3/4/1 31/1/1 12/5/1
f 17/4/1 48/7/1 42/6/1
f 24/8/5 32/9/5 31/10/5
f 30/11/5 29/12/5 22/13/5
f 34/14/5 33/15/5 26/16/5
f 36/17/5 35/5/5 28/1/5
f 12/4/4 45/7/4 38/6/4
f 20/4/2 52/7/2 43/6/2
f 13/4/2 24/1/2 3/5/2
f 14/4/4 46/7/4 39/6/4
f 18/4/2 49/7/2 41/6/2
f 1/4/4 29/1/4 10/5/4
f 7/4/2 33/1/2 16/5/2
f 10/4/3 50/7/3 44/6/3
f 15/4/3 26/1/3 7/5/3
f 16/4/1 51/7/1 40/6/1
f 9/4/1 22/1/1 1/5/1
f 11/4/3 47/7/3 37/6/3
f 39/3/4 56/18/4 14/19/4
f 39/20/5 16/6/5 40/5/5
f 42/6/5 18/20/5 41/3/5
f 43/6/5 10/20/5 44/3/5
f 61/21/5 63/22/5 59/23/5
f 14/24/3 55/5/3 38/6/3
f 37/3/3 54/18/3 11/19/3
f 42/3/1 58/18/1 17/19/1
f 17/24/4 57/5/4 40/6/4
f 44/6/2 59/20/2 43/3/2
f 43/3/2 60/18/2 20/19/2
f 41/6/1 64/20/1 42/3/1
f 40/6/4 62/20/4 39/3/4
f 38/6/3 61/20/3 37/3/3
f 11/24/2 53/5/2 44/6/2
f 20/24/1 63/5/1 41/6/1
f 4/1/6 6/8/6 8/13/6
f 40/4/4 34/7/4 17/6/4
f 42/4/4 25/7/4 15/6/4
f 41/4/1 36/7/1 20/6/1
f 43/4/1 27/7/1 19/6/1
f 44/4/2 30/7/2 11/6/2
f 37/4/2 21/7/2 9/6/2
f 38/4/3 32/7/3 14/6/3
f 39/4/3 23/7/3 13/6/3
f 9/6/1 1/7/1 2/1/1
f 2/1/1 4/13/1 3/2/1
f 12/3/1 9/6/1 2/1/1
f 13/6/2 3/7/2 4/1/2
f 4/1/2 8/13/2 7/2/2
f 16/3/2 13/6/2 4/1/2
f 15/6/3 7/7/3 8/1/3
f 8/1/3 6/13/3 5/2/3
f 18/3/3 15/6/3 8/1/3
f 19/6/4 5/7/4 6/1/4
f 6/1/4 2/13/4 1/2/4
f 10/3/4 19/6/4 6/1/4
f 19/4/4 27/25/4 28/1/4
f 5/4/3 28/25/3 35/1/3
f 38/5/5 37/20/5 9/3/5
f 3/4/1 24/25/1 31/1/1
f 17/4/1 34/25/1 48/7/1
f 24/8/5 23/26/5 46/23/5
f 32/9/5 45/22/5 31/10/5
f 24/8/5 46/23/5 32/9/5
f 22/13/5 21/20/5 47/21/5
f 30/11/5 50/27/5 29/12/5
f 22/13/5 47/21/5 30/11/5
f 26/16/5 25/28/5 48/29/5
f 34/14/5 51/30/5 33/15/5
f 26/16/5 48/29/5 34/14/5
f 28/1/5 27/31/5 52/32/5
f 36/17/5 49/33/5 35/5/5
f 28/1/5 52/32/5 36/17/5
f 12/4/4 31/25/4 45/7/4
f 20/4/2 36/25/2 52/7/2
f 13/4/2 23/25/2 24/1/2
f 14/4/4 32/25/4 46/7/4
f 18/4/2 35/25/2 49/7/2
f 1/4/4 22/25/4 29/1/4
f 7/4/2 26/25/2 33/1/2
f 10/4/3 29/25/3 50/7/3
f 15/4/3 25/25/3 26/1/3
f 16/4/1 33/25/1 51/7/1
f 9/4/1 21/25/1 22/1/1
f 11/4/3 30/25/3 47/7/3
f 39/3/4 62/20/4 56/18/4
f 39/20/5 13/3/5 16/6/5
f 42/6/5 15/5/5 18/20/5
f 43/6/5 19/5/5 10/20/5
f 55/33/5 56/17/5 62/32/5
f 57/30/5 58/14/5 64/29/5
f 55/33/5 62/32/5 57/30/5
f 53/27/5 54/11/5 61/21/5
f 61/21/5 55/33/5 57/30/5
f 57/30/5 64/29/5 63/22/5
f 63/22/5 60/9/5 59/23/5
f 59/23/5 53/27/5 61/21/5
f 61/21/5 57/30/5 63/22/5
f 14/24/3 56/34/3 55/5/3
f 37/3/3 61/20/3 54/18/3
f 42/3/1 64/20/1 58/18/1
f 17/24/4 58/34/4 57/5/4
f 44/6/2 53/5/2 59/20/2
f 43/3/2 59/20/2 60/18/2
f 41/6/1 63/5/1 64/20/1
f 40/6/4 57/5/4 62/20/4
f 38/6/3 55/5/3 61/20/3
f 11/24/2 54/34/2 53/5/2
f 20/24/1 60/34/1 63/5/1
f 4/1/6 2/16/6 6/8/6
f 40/4/4 51/25/4 34/7/4
f 42/4/4 48/25/4 25/7/4
f 41/4/1 49/25/1 36/7/1
f 43/4/1 52/25/1 27/7/1
f 44/4/2 50/25/2 30/7/2
f 37/4/2 47/25/2 21/7/2
f 38/4/3 45/25/3 32/7/3
f 39/4/3 46/25/3 23/7/3
o Support
v -4.500000 2.000000 4.500000
v -4.500000 2.000000 -4.500000
v 4.500000 2.000000 4.500000
v 4.500000 2.000000 -4.500000
v -4.500000 2.000000 -4.250000
v -4.250000 2.000000 -4.500000
v -4.250000 2.000000 -4.250000
v -4.500000 2.000000 4.250000
v -4.250000 2.000000 4.500000
v -4.250000 2.000000 4.250000
v 4.250000 2.000000 4.500000
v 4.500000 2.000000 4.250000
v 4.250000 2.000000 4.250000
v 4.250000 2.000000 -4.500000
v 4.500000 2.000000 -4.250000
v 4.250000 2.000000 -4.250000
v -4.500000 3.000000 -4.250000
v -4.500000 3.000000 -4.500000
v 4.250000 3.000000 -4.500000
v 4.500000 3.000000 -4.500000
v 4.500000 3.000000 4.250000
v 4.500000 3.000000 4.500000
v -4.250000 3.000000 4.500000
v -4.500000 3.000000 4.500000
v -4.250000 3.000000 -4.500000
v -4.250000 3.000000 -4.250000
v -4.500000 3.000000 4.250000
v -4.250000 3.000000 4.250000
v 4.250000 3.000000 4.500000
v 4.250000 3.000000 4.250000
v 4.500000 3.000000 -4.250000
v 4.250000 3.000000 -4.250000
vn 1.0000 -0.0000 -0.0000
vn -0.0000 -0.0000 1.0000
vn -1.0000 -0.0000 -0.0000
vn -0.0000 -0.0000 -1.0000
vt 0.062500 0.937500
vt 0.046875 1.000000
vt 0.046875 0.937500
vt 0.031250 0.937500
vt 0.015625 1.000000
vt 0.015625 0.937500
vt 0.000000 1.000000
vt -0.000000 0.937500
vt 0.031250 1.000000
vt 0.062500 1.000000
s 0
f 76/35/7 86/36/7 67/37/7
f 79/38/8 96/39/8 80/40/8
f 74/38/7 87/39/7 73/40/7
f 80/40/9 83/41/9 78/42/9
f 75/38/8 86/36/8 93/43/8
f 70/37/10 82/44/10 89/36/10
f 69/37/9 82/43/9 66/38/9
f 71/38/8 81/39/8 69/40/8
f 75/38/9 94/39/9 77/40/9
f 70/40/7 90/41/7 71/42/7
f 73/35/8 88/36/8 65/37/8
f 77/40/10 85/41/10 76/42/10
f 72/38/9 88/36/9 91/43/9
f 78/35/10 84/36/10 68/37/10
f 79/38/7 84/36/7 95/43/7
f 72/40/10 92/41/10 74/42/10
f 76/35/7 85/44/7 86/36/7
f 79/38/8 95/43/8 96/39/8
f 74/38/7 92/43/7 87/39/7
f 80/40/9 96/39/9 83/41/9
f 75/38/8 67/37/8 86/36/8
f 70/37/10 66/35/10 82/44/10
f 69/37/9 81/36/9 82/43/9
f 71/38/8 90/43/8 81/39/8
f 75/38/9 93/43/9 94/39/9
f 70/40/7 89/39/7 90/41/7
f 73/35/8 87/44/8 88/36/8
f 77/40/10 94/39/10 85/41/10
f 72/38/9 65/37/9 88/36/9
f 78/35/10 83/44/10 84/36/10
f 79/38/7 68/37/7 84/36/7
f 72/40/10 91/39/10 92/41/10
o Level
v -4.500000 2.000000 4.500000
v -4.500000 2.000000 -4.500000
v 4.500000 2.000000 4.500000
v 4.500000 2.000000 -4.500000
v -4.500000 2.000000 -4.250000
v -4.250000 2.000000 -4.500000
v -4.250000 2.000000 -4.250000
v -4.500000 2.000000 4.250000
v -4.250000 2.000000 4.500000
v -4.250000 2.000000 4.250000
v 4.250000 2.000000 4.500000
v 4.500000 2.000000 4.250000
v 4.250000 2.000000 4.250000
v 4.250000 2.000000 -4.500000
v 4.500000 2.000000 -4.250000
v 4.250000 2.000000 -4.250000
v -4.500000 2.875000 -4.250000
v -4.500000 2.875000 -4.500000
v 4.250000 2.875000 -4.500000
v 4.500000 2.875000 -4.500000
v 4.500000 2.875000 4.250000
v 4.500000 2.875000 4.500000
v -4.250000 2.875000 4.500000
v -4.500000 2.875000 4.500000
v -4.250000 2.875000 -4.500000
v -4.250000 2.875000 -4.250000
v -4.500000 2.875000 4.250000
v -4.250000 2.875000 4.250000
v 4.250000 2.875000 4.500000
v 4.250000 2.875000 4.250000
v 4.500000 2.875000 -4.250000
v 4.250000 2.875000 -4.250000
v -4.500000 3.000000 -4.250000
v -4.500000 3.000000 -4.500000
v 4.250000 3.000000 -4.500000
v 4.500000 3.000000 -4.500000
v 4.500000 3.000000 4.250000
v 4.500000 3.000000 4.500000
v -4.250000 3.000000 4.500000
v -4.500000 3.000000 4.500000
v -4.250000 3.000000 -4.500000
v -4.500000 3.000000 4.250000
v 4.250000 3.000000 4.500000
v 4.500000 3.000000 -4.250000
vn 1.0000 -0.0000 -0.0000
vn -0.0000 -0.0000 1.0000
vn -1.0000 -0.0000 -0.0000
vn -0.0000 -0.0000 -1.0000
vn -0.0000 -1.0000 -0.0000
vn -0.0000 1.0000 -0.0000
vt 0.062500 0.937500
vt 0.046875 0.992188
vt 0.046875 0.937500
vt 0.031250 0.992188
vt 0.031250 0.937500
vt 0.015625 0.992188
vt 0.015625 0.937500
vt 0.000000 0.992188
vt -0.000000 0.937500
vt 0.031250 1.000000
vt 0.015625 1.000000
vt 0.062500 0.992188
vt 0.046875 1.000000
vt 0.062500 1.000000
vt 0.671875 0.984375
vt 0.140625 0.453125
vt 0.671875 0.453125
vt 0.125000 0.984375
vt 0.687500 0.984375
vt 0.671875 1.000000
vt 0.671875 0.437500
vt 0.671875 0.429688
vt 0.140625 0.437500
vt 0.140625 0.429688
vt 0.687500 0.453125
vt 0.667969 0.984375
vt 0.140625 1.000000
vt 0.140625 0.984375
vt 0.125000 0.453125
vt 0.125000 0.457031
vt 0.125000 0.437500
vt 0.687500 0.437500
vt 0.125000 1.000000
vt 0.687500 1.000000
vt 0.683594 0.984375
s 0
f 108/45/11 118/46/11 99/47/11
f 111/47/12 128/48/12 112/49/12
f 106/49/11 119/50/11 105/51/11
f 112/51/13 115/52/13 110/53/13
f 116/50/14 131/54/14 132/55/14
f 107/51/12 118/48/12 125/50/12
f 102/47/14 114/56/14 121/46/14
f 101/47/13 114/48/13 98/49/13
f 101/51/12 122/48/12 113/50/12
f 107/51/13 126/52/13 109/53/13
f 102/51/11 122/52/11 103/53/11
f 105/45/12 120/46/12 97/47/12
f 108/49/14 126/46/14 117/48/14
f 104/49/13 120/46/13 123/48/13
f 110/49/14 116/50/14 100/51/14
f 111/47/11 116/56/11 127/46/11
f 104/51/14 124/52/14 106/53/14
f 117/56/11 134/57/11 118/46/11
f 118/48/12 139/55/12 125/50/12
f 120/46/12 135/58/12 136/57/12
f 114/56/14 137/57/14 121/46/14
f 128/59/15 124/60/15 122/61/15
f 116/56/11 140/57/11 127/46/11
f 129/62/16 140/63/16 131/64/16
f 120/46/13 138/54/13 123/48/13
f 113/46/13 130/54/13 114/48/13
f 124/60/15 113/65/15 122/61/15
f 123/66/13 129/67/13 113/68/13
f 121/69/15 128/70/15 122/61/15
f 137/65/14 115/68/14 121/66/14
f 128/59/15 117/71/15 126/72/15
f 127/66/11 133/67/11 117/68/11
f 126/72/15 119/73/15 124/60/15
f 125/66/12 135/67/12 119/68/12
f 108/45/11 117/56/11 118/46/11
f 111/47/12 127/46/12 128/48/12
f 106/49/11 124/48/11 119/50/11
f 112/51/13 128/50/13 115/52/13
f 116/50/14 115/48/14 131/54/14
f 107/51/12 99/49/12 118/48/12
f 102/47/14 98/45/14 114/56/14
f 101/47/13 113/46/13 114/48/13
f 101/51/12 103/49/12 122/48/12
f 107/51/13 125/50/13 126/52/13
f 102/51/11 121/50/11 122/52/11
f 105/45/12 119/56/12 120/46/12
f 108/49/14 109/47/14 126/46/14
f 104/49/13 97/47/13 120/46/13
f 110/49/14 115/48/14 116/50/14
f 111/47/11 100/45/11 116/56/11
f 104/51/14 123/50/14 124/52/14
f 117/56/11 133/58/11 134/57/11
f 118/48/12 134/54/12 139/55/12
f 120/46/12 119/56/12 135/58/12
f 114/56/14 130/58/14 137/57/14
f 128/59/15 126/72/15 124/60/15
f 116/56/11 132/58/11 140/57/11
f 138/74/16 136/75/16 135/67/16
f 139/65/16 134/76/16 133/69/16
f 138/74/16 135/67/16 139/65/16
f 137/71/16 130/77/16 129/62/16
f 129/62/16 138/74/16 139/65/16
f 139/65/16 133/69/16 140/63/16
f 140/63/16 132/78/16 131/64/16
f 131/64/16 137/71/16 129/62/16
f 129/62/16 139/65/16 140/63/16
f 120/46/13 136/57/13 138/54/13
f 113/46/13 129/57/13 130/54/13
f 124/60/15 123/67/15 113/65/15
f 123/66/13 138/65/13 129/67/13
f 121/69/15 115/79/15 128/70/15
f 137/65/14 131/67/14 115/68/14
f 128/59/15 127/64/15 117/71/15
f 127/66/11 140/65/11 133/67/11
f 126/72/15 125/62/15 119/73/15
f 125/66/12 139/65/12 135/67/12
