# Blender 4.0.1
# www.blender.org
o Base
v -4.500000 3.000000 4.500000
v -4.500000 2.000000 -2.500000
v -4.500000 3.000000 -4.500000
v 2.500000 2.000000 -4.500000
v 4.500000 3.000000 -4.500000
v 4.500000 2.000000 2.500000
v 4.500000 3.000000 4.500000
v -2.500000 2.000000 4.500000
v 2.500000 2.000000 4.500000
v 4.500000 0.000000 4.500000
v 4.500000 0.000000 2.500000
v -3.500000 2.000000 -2.500000
v -4.500000 2.000000 2.500000
v -4.500000 -0.000000 -2.500000
v 3.500000 -0.000000 -2.500000
v 3.500000 2.000000 -2.500000
v -4.500000 -0.000000 -4.500000
v -3.500000 -0.000000 -3.500000
v -3.500000 0.000000 3.500000
v -2.500000 0.000000 4.500000
v -4.500000 0.000000 4.500000
v 3.500000 -0.000000 -3.500000
v 2.500000 -0.000000 -4.500000
v 4.500000 -0.000000 -4.500000
v 3.500000 0.000000 3.500000
v -3.500000 -0.000000 -2.500000
v 2.500000 0.000000 3.500000
v 2.500000 2.000000 3.500000
v -2.500000 2.000000 -4.500000
v -2.500000 -0.000000 -3.500000
v -2.500000 2.000000 -3.500000
v 3.500000 0.000000 2.500000
v 3.500000 2.000000 2.500000
v -2.500000 0.000000 3.500000
v -2.500000 2.000000 3.500000
v 4.500000 2.000000 -2.500000
v 2.500000 -0.000000 -3.500000
v 2.500000 2.000000 -3.500000
v -3.500000 0.000000 2.500000
v -3.500000 2.000000 2.500000
v -3.500000 2.875000 -3.500000
v -3.500000 2.875000 3.500000
v 3.500000 2.875000 -3.500000
v 3.500000 2.875000 3.500000
v 4.500000 -0.000000 -2.500000
v 2.500000 0.000000 4.500000
v -4.500000 0.000000 2.500000
v -2.500000 -0.000000 -4.500000
vn 1.0000 -0.0000 -0.0000
vn -0.0000 -0.0000 1.0000
vn -0.0000 -1.0000 -0.0000
vn -0.0000 -0.0000 -1.0000
vn -1.0000 -0.0000 -0.0000
vn -0.0000 1.0000 -0.0000
vt 0.750000 0.500000
vt 0.812500 0.875000
vt 0.750000 0.937500
vt 0.937500 0.937500
vt 0.937500 0.812500
vt 0.812500 0.812500
vt 0.500000 0.937500
vt 0.437500 1.000000
vt 0.437500 0.937500
vt 0.062500 0.500000
vt 0.000000 0.562500
vt 0.000000 0.437500
vt 0.062500 0.937500
vt 0.125000 1.000000
vt 0.000000 1.000000
vt 0.625000 0.875000
vt 0.562500 0.437500
vt 0.625000 0.562500
vt 0.750000 1.000000
vt 0.562500 1.000000
vt 0.562500 0.562500
vt 0.500000 0.875000
vt 0.500000 0.562500
vt 0.937500 0.500000
vt 0.812500 0.562500
vt 0.937500 0.562500
vt 0.812500 0.625000
vt 0.750000 0.437500
vt 0.750000 0.562500
vt 0.062500 0.875000
vt 0.062500 0.562500
vt -0.000000 1.000000
vt 0.125000 0.937500
vt 0.125000 0.437500
vt 0.437500 0.500000
vt 0.125000 0.500000
vt 0.500000 0.500000
vt 0.437500 0.437500
vt 0.562500 0.875000
vt 0.000000 0.875000
vt 0.937500 0.875000
vt 0.750000 0.875000
vt 0.937500 0.625000
s 0
f 42/1/1 12/2/1 41/3/1
f 12/2/1 18/4/1 41/3/1
f 15/5/2 36/2/2 16/6/2
f 25/7/3 46/8/3 27/9/3
f 18/10/3 14/11/3 17/12/3
f 19/13/3 20/14/3 21/15/3
f 9/16/2 1/17/2 8/18/2
f 35/2/4 19/4/4 42/3/4
f 13/16/5 21/19/5 1/20/5
f 29/16/4 17/19/4 3/20/4
f 30/5/1 29/2/1 31/6/1
f 36/21/3 33/22/3 16/23/3
f 4/18/4 3/20/4 5/17/4
f 18/24/2 31/25/2 41/1/2
f 20/26/1 35/27/1 8/25/1
f 6/18/1 10/28/1 11/29/1
f 11/26/4 33/27/4 6/25/4
f 39/5/4 13/2/4 40/6/4
f 40/25/1 19/24/1 39/26/1
f 33/2/5 25/4/5 44/3/5
f 28/25/4 42/3/4 44/1/4
f 22/24/5 16/25/5 43/1/5
f 14/26/2 12/27/2 2/25/2
f 40/30/3 2/11/3 12/31/3
f 23/26/5 38/27/5 4/25/5
f 27/5/5 9/2/5 28/6/5
f 9/16/2 10/19/2 7/20/2
f 25/24/4 28/25/4 44/1/4
f 38/2/2 22/4/2 43/3/2
f 1/32/6 5/17/6 3/20/6
f 38/2/2 41/1/2 31/25/2
f 4/18/4 24/28/4 23/29/4
f 33/2/5 43/1/5 16/25/5
f 9/8/3 35/33/3 28/9/3
f 29/34/3 38/35/3 31/36/3
f 36/16/1 24/19/1 5/20/1
f 2/18/5 17/28/5 14/29/5
f 6/18/1 5/20/1 7/17/1
f 41/10/3 44/7/3 42/13/3
f 22/37/3 45/21/3 15/23/3
f 22/37/3 23/38/3 24/17/3
f 25/7/3 11/39/3 10/20/3
f 19/13/3 47/40/3 39/30/3
f 18/10/3 48/34/3 30/36/3
f 2/18/5 1/20/5 3/17/5
f 21/28/2 8/18/2 1/17/2
f 42/1/1 40/25/1 12/2/1
f 12/2/1 26/41/1 18/4/1
f 15/5/2 45/41/2 36/2/2
f 25/7/3 10/20/3 46/8/3
f 18/10/3 26/31/3 14/11/3
f 19/13/3 34/33/3 20/14/3
f 9/16/2 7/20/2 1/17/2
f 35/2/4 34/41/4 19/4/4
f 13/16/5 47/42/5 21/19/5
f 29/16/4 48/42/4 17/19/4
f 30/5/1 48/41/1 29/2/1
f 36/21/3 6/39/3 33/22/3
f 4/18/4 29/16/4 3/20/4
f 18/24/2 30/26/2 31/25/2
f 20/26/1 34/43/1 35/27/1
f 6/18/1 7/17/1 10/28/1
f 11/26/4 32/43/4 33/27/4
f 39/5/4 47/41/4 13/2/4
f 40/25/1 42/1/1 19/24/1
f 33/2/5 32/41/5 25/4/5
f 28/25/4 35/2/4 42/3/4
f 22/24/5 15/26/5 16/25/5
f 14/26/2 26/43/2 12/27/2
f 40/30/3 13/40/3 2/11/3
f 23/26/5 37/43/5 38/27/5
f 27/5/5 46/41/5 9/2/5
f 9/16/2 46/42/2 10/19/2
f 25/24/4 27/26/4 28/25/4
f 38/2/2 37/41/2 22/4/2
f 1/32/6 7/12/6 5/17/6
f 38/2/2 43/3/2 41/1/2
f 4/18/4 5/17/4 24/28/4
f 33/2/5 44/3/5 43/1/5
f 9/8/3 8/14/3 35/33/3
f 29/34/3 4/38/3 38/35/3
f 36/16/1 45/42/1 24/19/1
f 2/18/5 3/17/5 17/28/5
f 6/18/1 36/16/1 5/20/1
f 41/10/3 43/37/3 44/7/3
f 22/37/3 24/17/3 45/21/3
f 22/37/3 37/35/3 23/38/3
f 25/7/3 32/22/3 11/39/3
f 19/13/3 21/15/3 47/40/3
f 18/10/3 17/12/3 48/34/3
f 2/18/5 13/16/5 1/20/5
f 21/28/2 20/29/2 8/18/2
o Support
v 3.500000 3.000000 3.500000
v 3.500000 3.000000 4.500000
v 4.500000 3.000000 4.500000
v 4.500000 3.000000 3.500000
v -4.500000 3.000000 -4.500000
v -4.500000 3.000000 -3.500000
v -3.500000 3.000000 -3.500000
v -3.500000 3.000000 -4.500000
v -3.500000 2.000000 -4.500000
v -3.500000 2.000000 -3.500000
v -4.500000 2.000000 -3.500000
v -4.500000 2.000000 -4.500000
v 4.500000 2.000000 3.500000
v 4.500000 2.000000 4.500000
v 3.500000 2.000000 4.500000
v 3.500000 2.000000 3.500000
v 3.500000 2.000000 -4.500000
v 3.500000 2.000000 -3.500000
v 4.500000 2.000000 -3.500000
v 4.500000 2.000000 -4.500000
v 4.500000 3.000000 -4.500000
v 4.500000 3.000000 -3.500000
v 3.500000 3.000000 -3.500000
v 3.500000 3.000000 -4.500000
v -4.500000 2.000000 3.500000
v -4.500000 2.000000 4.500000
v -3.500000 2.000000 4.500000
v -3.500000 2.000000 3.500000
v -3.500000 3.000000 3.500000
v -3.500000 3.000000 4.500000
v -4.500000 3.000000 4.500000
v -4.500000 3.000000 3.500000
vn -0.0000 -0.0000 1.0000
vn -1.0000 -0.0000 -0.0000
vn -0.0000 -0.0000 -1.0000
vn 1.0000 -0.0000 -0.0000
vt 0.062500 0.367188
vt 0.000000 0.429688
vt 0.000000 0.367188
vt 0.062500 0.429688
s 0
f 58/44/7 54/45/7 59/46/7
f 59/44/8 53/45/8 60/46/8
f 60/44/9 56/45/9 57/46/9
f 57/44/10 55/45/10 58/46/10
f 62/44/7 50/45/7 63/46/7
f 63/44/8 49/45/8 64/46/8
f 64/44/9 52/45/9 61/46/9
f 61/44/10 51/45/10 62/46/10
f 68/44/10 70/45/10 67/46/10
f 65/44/9 69/45/9 68/46/9
f 66/44/8 72/45/8 65/46/8
f 67/44/7 71/45/7 66/46/7
f 76/44/10 78/45/10 75/46/10
f 73/44/9 77/45/9 76/46/9
f 74/44/8 80/45/8 73/46/8
f 75/44/7 79/45/7 74/46/7
f 58/44/7 55/47/7 54/45/7
f 59/44/8 54/47/8 53/45/8
f 60/44/9 53/47/9 56/45/9
f 57/44/10 56/47/10 55/45/10
f 62/44/7 51/47/7 50/45/7
f 63/44/8 50/47/8 49/45/8
f 64/44/9 49/47/9 52/45/9
f 61/44/10 52/47/10 51/45/10
f 68/44/10 69/47/10 70/45/10
f 65/44/9 72/47/9 69/45/9
f 66/44/8 71/47/8 72/45/8
f 67/44/7 70/47/7 71/45/7
f 76/44/10 77/47/10 78/45/10
f 73/44/9 80/47/9 77/45/9
f 74/44/8 79/47/8 80/45/8
f 75/44/7 78/47/7 79/45/7
o Level
v -3.500000 2.874000 -4.500000
v -3.500000 2.874000 -3.500000
v -4.500000 2.874000 -3.500000
v -4.500000 2.874000 -4.500000
v 4.500000 2.874000 3.500000
v 4.500000 2.874000 4.500000
v 3.500000 2.874000 4.500000
v 3.500000 2.874000 3.500000
v 4.500000 2.875000 4.500000
v 4.500000 2.875000 -4.500000
v 4.500000 3.000000 -4.500000
v -4.500000 2.875000 -4.500000
v -4.500000 2.875000 4.500000
v 4.500000 3.000000 4.500000
v -4.500000 3.000000 4.500000
v -4.500000 3.000000 -4.500000
v -4.500000 2.874000 3.500000
v -4.500000 2.874000 4.500000
v -3.500000 2.874000 4.500000
v -3.500000 2.874000 3.500000
v -3.500000 2.000000 3.500000
v -3.500000 2.000000 4.500000
v -4.500000 2.000000 4.500000
v -4.500000 2.000000 3.500000
v 3.500000 2.874000 -4.500000
v 3.500000 2.874000 -3.500000
v 4.500000 2.874000 -3.500000
v 4.500000 2.874000 -4.500000
v 4.500000 2.000000 -4.500000
v 4.500000 2.000000 -3.500000
v 3.500000 2.000000 -3.500000
v 3.500000 2.000000 -4.500000
v 3.500000 2.000000 3.500000
v 3.500000 2.000000 4.500000
v 4.500000 2.000000 4.500000
v 4.500000 2.000000 3.500000
v -4.500000 2.000000 -4.500000
v -4.500000 2.000000 -3.500000
v -3.500000 2.000000 -3.500000
v -3.500000 2.000000 -4.500000
vn 1.0000 -0.0000 -0.0000
vn -0.0000 -0.0000 1.0000
vn -0.0000 -1.0000 -0.0000
vn -0.0000 1.0000 -0.0000
vn -1.0000 -0.0000 -0.0000
vn -0.0000 -0.0000 -1.0000
vt 0.062500 0.367188
vt 0.000000 0.421875
vt 0.000000 0.367188
vt 0.562500 0.437500
vt 0.000000 0.429688
vt 0.562500 0.429688
vt 0.000000 1.000000
vt 0.000000 0.437500
vt 0.562500 1.000000
vt 0.062500 0.421875
s 0
f 120/48/11 82/49/11 119/50/11
f 94/51/12 93/52/12 89/53/12
f 90/51/13 93/54/13 92/55/13
f 94/55/11 90/53/11 91/51/11
f 96/54/14 94/51/14 91/56/14
f 92/52/15 95/51/15 96/55/15
f 102/48/12 98/49/12 103/50/12
f 91/55/16 92/53/16 96/51/16
f 103/48/15 97/49/15 104/50/15
f 104/48/16 100/49/16 101/50/16
f 101/48/11 99/49/11 102/50/11
f 110/48/12 106/49/12 111/50/12
f 111/48/15 105/49/15 112/50/15
f 112/48/16 108/49/16 109/50/16
f 109/48/11 107/49/11 110/50/11
f 116/48/11 86/49/11 115/50/11
f 113/48/16 85/49/16 116/50/16
f 114/48/15 88/49/15 113/50/15
f 115/48/12 87/49/12 114/50/12
f 117/48/16 81/49/16 120/50/16
f 118/48/15 84/49/15 117/50/15
f 119/48/12 83/49/12 118/50/12
f 120/48/11 81/57/11 82/49/11
f 94/51/12 95/55/12 93/52/12
f 90/51/13 89/56/13 93/54/13
f 94/55/11 89/52/11 90/53/11
f 96/54/14 95/55/14 94/51/14
f 92/52/15 93/53/15 95/51/15
f 102/48/12 99/57/12 98/49/12
f 91/55/16 90/52/16 92/53/16
f 103/48/15 98/57/15 97/49/15
f 104/48/16 97/57/16 100/49/16
f 101/48/11 100/57/11 99/49/11
f 110/48/12 107/57/12 106/49/12
f 111/48/15 106/57/15 105/49/15
f 112/48/16 105/57/16 108/49/16
f 109/48/11 108/57/11 107/49/11
f 116/48/11 85/57/11 86/49/11
f 113/48/16 88/57/16 85/49/16
f 114/48/15 87/57/15 88/49/15
f 115/48/12 86/57/12 87/49/12
f 117/48/16 84/57/16 81/49/16
f 118/48/15 83/57/15 84/49/15
f 119/48/12 82/57/12 83/49/12
