# Blender v2.79 (sub 0) OBJ File: 'satlink.blend'
# www.blender.org
o Rotor
v -0.125000 7.000000 0.250000
v -0.250000 7.000000 0.125000
v 0.250000 7.000000 0.125000
v 0.125000 7.000000 0.250000
v -0.250000 7.000000 -0.125000
v -0.125000 7.000000 -0.250000
v 0.125000 7.000000 -0.250000
v 0.250000 7.000000 -0.125000
v -0.125000 7.125000 -0.250000
v -0.250000 7.125000 -0.125000
v -0.250000 7.125000 0.125000
v -0.125000 7.125000 0.250000
v 0.125000 7.125000 0.250000
v 0.250000 7.125000 0.125000
v 0.250000 7.125000 -0.125000
v 0.125000 7.125000 -0.250000
v 0.125000 7.125000 0.250000
v -0.125000 7.125000 0.250000
v -0.125000 7.125000 0.125000
v 0.125000 7.125000 0.125000
v 0.125000 7.500000 0.125000
v -0.125000 7.500000 0.125000
v 0.125000 7.500000 0.250000
v -0.125000 7.500000 0.250000
v 0.125000 7.125000 -0.125000
v -0.125000 7.125000 -0.125000
v -0.125000 7.125000 -0.250000
v 0.125000 7.125000 -0.250000
v 0.125000 7.500000 -0.250000
v -0.125000 7.500000 -0.250000
v 0.125000 7.500000 -0.125000
v -0.125000 7.500000 -0.125000
vt 0.538462 0.022222
vt 0.576923 0.044444
vt 0.564103 0.111111
vt 0.564103 0.000000
vt 0.538462 0.000000
vt 0.589744 0.088889
vt 0.589744 0.044444
vt 0.512821 0.044444
vt 0.525641 0.088889
vt 0.512821 0.088889
vt 0.576923 0.133333
vt 0.564103 0.133333
vt 0.576923 0.022222
vt 0.564103 0.022222
vt 0.525641 0.000000
vt 0.538462 0.133333
vt 0.525641 0.111111
vt 0.538462 0.111111
vt 0.602564 -0.000000
vt 0.589744 0.066667
vt 0.589744 -0.000000
vt 0.666667 -0.000000
vt 0.641026 0.066667
vt 0.641026 -0.000000
vt 0.602564 -0.000000
vt 0.589744 0.066667
vt 0.589744 -0.000000
vt 0.628205 -0.000000
vt 0.602564 0.066667
vt 0.628205 0.066667
vt 0.602564 0.088889
vt 0.602564 0.066667
vt 0.628205 0.066667
vt 0.641026 -0.000000
vt 0.628205 -0.000000
vt 0.602564 0.088889
vt 0.666667 -0.000000
vt 0.641026 0.066667
vt 0.525641 0.044444
vt 0.576923 0.088889
vt 0.576923 0.111111
vt 0.576923 0.000000
vt 0.525641 0.022222
vt 0.525641 0.133333
vt 0.666667 0.066667
vt 0.628205 0.088889
vt 0.628205 0.088889
vt 0.666667 0.066667
vn 0.0000 1.0000 0.0000
vn 1.0000 0.0000 0.0000
vn 0.0000 0.0000 -1.0000
vn 0.0000 0.0000 1.0000
vn -0.7071 0.0000 -0.7071
vn 0.7071 0.0000 -0.7071
vn 0.7071 0.0000 0.7071
vn -0.7071 0.0000 0.7071
vn -1.0000 0.0000 0.0000
s off
f 14/1/1 16/2/1 10/3/1
f 8/4/2 14/1/2 3/5/2
f 6/6/3 16/2/3 7/7/3
f 4/8/4 12/9/4 1/10/4
f 10/3/5 6/11/5 5/12/5
f 8/4/6 16/13/6 15/14/6
f 14/1/7 4/15/7 3/5/7
f 2/16/8 12/17/8 11/18/8
f 2/16/9 10/3/9 5/12/9
f 26/19/9 30/20/9 27/21/9
f 19/22/3 21/23/3 20/24/3
f 18/25/9 22/26/9 19/27/9
f 17/28/4 24/29/4 18/25/4
f 31/30/1 30/31/1 32/32/1
f 20/24/2 23/33/2 17/28/2
f 28/34/2 31/30/2 25/35/2
f 23/33/1 22/36/1 24/29/1
f 27/37/3 29/38/3 28/34/3
f 25/35/4 32/32/4 26/19/4
f 10/3/1 11/18/1 12/9/1
f 12/9/1 13/39/1 14/1/1
f 14/1/1 15/14/1 16/2/1
f 16/2/1 9/40/1 10/3/1
f 10/3/1 12/9/1 14/1/1
f 8/4/2 15/14/2 14/1/2
f 6/6/3 9/40/3 16/2/3
f 4/8/4 13/39/4 12/9/4
f 10/3/5 9/41/5 6/11/5
f 8/4/6 7/42/6 16/13/6
f 14/1/7 13/43/7 4/15/7
f 2/16/8 1/44/8 12/17/8
f 2/16/9 11/18/9 10/3/9
f 26/19/9 32/32/9 30/20/9
f 19/22/3 22/45/3 21/23/3
f 18/25/9 24/29/9 22/26/9
f 17/28/4 23/33/4 24/29/4
f 31/30/1 29/46/1 30/31/1
f 20/24/2 21/23/2 23/33/2
f 28/34/2 29/38/2 31/30/2
f 23/33/1 21/47/1 22/36/1
f 27/37/3 30/48/3 29/38/3
f 25/35/4 31/30/4 32/32/4
o Dish
v 0.000000 7.625000 -0.125000
v 0.000000 7.625000 0.125000
v 0.176777 7.551777 -0.125000
v 0.176777 7.551777 0.125000
v 0.250000 7.375000 -0.125000
v 0.250000 7.375000 0.125000
v 0.176777 7.198223 -0.125000
v 0.176777 7.198223 0.125000
v -0.000000 7.125000 -0.125000
v -0.000000 7.125000 0.125000
v -0.176777 7.198223 -0.125000
v -0.176777 7.198223 0.125000
v -0.250000 7.375000 -0.125000
v -0.250000 7.375000 0.125000
v -0.176777 7.551777 -0.125000
v -0.176777 7.551777 0.125000
v -0.125000 7.750000 0.093750
v 0.125000 7.750000 0.093750
v -0.125000 7.750000 -0.093750
v 0.125000 7.750000 -0.093750
v -0.125000 7.500000 -0.093750
v -0.125000 7.500000 0.093750
v 0.125000 7.500000 0.093750
v 0.125000 7.500000 -0.093750
v 0.000000 8.125000 -1.500000
v -0.750000 8.125000 -1.299038
v -1.299038 8.125000 -0.750000
v -1.500000 8.125000 0.000000
v -1.299038 8.125000 0.750000
v -0.750000 8.125000 1.299038
v -0.000000 8.125000 1.500000
v 0.750000 8.125000 1.299038
v 1.299038 8.125000 0.750000
v 1.500000 8.125000 0.000001
v 1.299039 8.125000 -0.749999
v 0.750001 8.125000 -1.299038
v 0.000000 7.750000 -0.750000
v -0.375000 7.750000 -0.649519
v -0.649519 7.750000 -0.375000
v -0.750000 7.750000 0.000000
v -0.649519 7.750000 0.375000
v -0.375000 7.750000 0.649519
v -0.000000 7.750000 0.750000
v 0.375000 7.750000 0.649519
v 0.649519 7.750000 0.375000
v 0.750000 7.750000 0.000000
v 0.649519 7.750000 -0.375000
v 0.375000 7.750000 -0.649519
v 0.000000 7.625000 0.000000
v 0.000000 7.750000 -0.500000
v -0.250000 7.750000 -0.433012
v -0.433013 7.750000 -0.250000
v -0.500000 7.750000 0.000000
v -0.433013 7.750000 0.250000
v -0.250000 7.750000 0.433013
v -0.000000 7.750000 0.500000
v 0.250000 7.750000 0.433013
v 0.433013 7.750000 0.250000
v 0.500000 7.750000 0.000000
v 0.433013 7.750000 -0.250000
v 0.250000 7.750000 -0.433012
v -0.125000 8.625000 0.125000
v -0.125000 8.875000 0.125000
v -0.125000 8.625000 -0.125000
v -0.125000 8.875000 -0.125000
v 0.125000 8.625000 0.125000
v 0.125000 8.875000 0.125000
v 0.125000 8.625000 -0.125000
v 0.125000 8.875000 -0.125000
v -0.062500 7.750000 0.437500
v 0.062500 7.750000 0.437500
v -0.062500 7.750000 0.312500
v 0.062500 7.750000 0.312500
v -0.062500 8.625000 0.125000
v 0.062500 8.625000 0.125000
v -0.062500 8.625000 0.000000
v 0.062500 8.625000 0.000000
v -0.062500 7.750000 -0.312500
v 0.062500 7.750000 -0.312500
v -0.062500 7.750000 -0.437500
v 0.062500 7.750000 -0.437500
v -0.062500 8.625000 0.000000
v 0.062500 8.625000 0.000000
v -0.062500 8.625000 -0.125000
v 0.062500 8.625000 -0.125000
vt 0.487179 0.177778
vt 0.506410 0.133333
vt 0.506410 0.177778
vt 0.551282 0.177778
vt 0.576923 0.133333
vt 0.576923 0.177778
vt 0.743615 0.044444
vt 0.769231 0.000044
vt 0.794846 0.044444
vt 0.532051 0.177778
vt 0.551282 0.133333
vt 0.794846 0.044445
vt 0.787344 0.075841
vt 0.751117 0.013048
vt 0.532051 0.133333
vt 0.512821 0.733333
vt 0.487179 0.688889
vt 0.512821 0.688889
vt 0.487179 0.733333
vt 0.461538 0.688889
vt 0.461538 0.733333
vt 0.435897 0.688889
vt 0.435897 0.733333
vt 0.410256 0.688889
vt 0.435897 0.644444
vt 0.461538 0.644444
vt 0.461538 0.777778
vt 0.500000 0.533333
vt 0.487179 0.688889
vt 0.487179 0.533333
vt 0.474359 0.688889
vt 0.461538 0.533333
vt 0.474359 0.533333
vt 0.512821 0.688889
vt 0.512821 0.533333
vt 0.500000 0.688889
vt 0.487179 0.533333
vt 0.500000 0.533333
vt 0.474359 0.533333
vt 0.461538 0.688889
vt 0.461538 0.533333
vt 0.512821 0.688889
vt 0.512821 0.533333
vt 0.487179 0.688889
vt 0.487179 0.133333
vt 0.787344 0.075841
vt 0.769231 0.088845
vt 0.751118 0.075841
vt 0.751117 0.013048
vt 0.787344 0.013048
vt 0.769231 0.088845
vt 0.751117 0.075841
vt 0.743615 0.044445
vt 0.769231 0.000044
vt 0.787344 0.013048
vt 0.410256 0.733333
vt 0.435897 0.777778
vt 0.500000 0.688889
vt 0.461538 0.688889
vt 0.474359 0.688889
vt 0.794872 0.133333
vt 0.820513 0.100000
vt 0.820513 0.133333
vt 0.794872 0.100000
vt 0.820513 0.066667
vt 0.794872 0.066667
vt 0.820513 0.033333
vt 0.794872 0.033333
vt 0.820513 0.000000
vt 0.794872 0.266667
vt 0.820513 0.233333
vt 0.820513 0.266667
vt 0.794872 0.233333
vt 0.820513 0.200000
vt 0.794872 0.200000
vt 0.820513 0.166667
vt 0.794872 0.166667
vt 0.980769 0.333333
vt 0.923077 0.177778
vt 1.000000 0.177778
vt 0.980769 0.333333
vt 0.961538 0.466667
vt 0.942308 0.333333
vt 0.980769 0.333333
vt 0.942308 0.333333
vt 0.980769 0.333333
vt 0.942308 0.333333
vt 0.980769 0.333333
vt 0.942308 0.333333
vt 0.980769 0.333333
vt 0.942308 0.333333
vt 0.980769 0.333333
vt 0.942308 0.333333
vt 0.980769 0.333333
vt 0.942308 0.333333
vt 0.980769 0.333333
vt 0.942308 0.333333
vt 0.980769 0.333333
vt 0.942308 0.333333
vt 0.942308 0.333333
vt 0.980769 0.333333
vt 0.942308 0.333333
vt 0.980769 0.333333
vt 0.942308 0.333333
vt 0.923077 0.177778
vt 1.000000 0.177778
vt 0.923077 0.177778
vt 1.000000 0.177778
vt 1.000000 0.177778
vt 0.923077 0.177778
vt 0.923077 0.177778
vt 1.000000 0.177778
vt 0.923077 0.177778
vt 1.000000 0.177778
vt 1.000000 0.177778
vt 0.923077 0.177778
vt 0.923077 0.177778
vt 1.000000 0.177778
vt 1.000000 0.177778
vt 0.923077 0.177778
vt 0.923077 0.177778
vt 1.000000 0.177778
vt 0.923077 0.177778
vt 1.000000 0.177778
vt 0.923077 0.177778
vt 1.000000 0.177778
vt 0.974359 0.000000
vt 0.974359 -0.000000
vt 0.974359 0.000000
vt 0.948718 -0.000000
vt 0.974359 -0.000000
vt 0.948718 0.000000
vt 0.974359 0.000000
vt 0.948718 -0.000000
vt 0.974359 -0.000000
vt 0.948718 0.000000
vt 0.974359 0.000000
vt 0.948718 -0.000000
vt 0.974359 -0.000000
vt 0.948718 0.000000
vt 0.974359 0.000000
vt 0.948718 -0.000000
vt 0.974359 -0.000000
vt 0.974359 0.000000
vt 0.974359 -0.000000
vt 0.717972 0.254688
vt 0.717972 0.100868
vt 0.794825 0.177778
vt 0.794872 0.000000
vt 0.948718 0.000000
vt 0.948718 -0.000000
vt 0.948718 0.000000
vt 0.948718 0.000000
vt 0.948718 -0.000000
vt 0.787961 0.222182
vt 0.769207 0.254688
vt 0.743590 0.266586
vt 0.699219 0.222182
vt 0.692355 0.177778
vt 0.699219 0.133374
vt 0.743590 0.088970
vt 0.769207 0.100868
vt 0.787961 0.133374
vn -1.0000 0.0000 0.0000
vn 0.0000 0.0000 -1.0000
vn 0.0000 0.0000 1.0000
vn 1.0000 0.0000 0.0000
vn 0.0000 -1.0000 0.0000
vn 0.0000 1.0000 0.0000
vn 0.0000 -0.3363 -0.9417
vn 0.0000 0.3363 0.9417
vn 0.0000 0.3363 -0.9417
vn 0.0000 -0.3363 0.9417
vn 0.7071 0.7071 0.0000
vn 0.7071 -0.7071 0.0000
vn -0.7071 -0.7071 0.0000
vn -0.7071 0.7071 0.0000
vn 0.2869 -0.9435 -0.1656
vn 0.2236 -0.8944 -0.3873
vn 0.3873 -0.8944 -0.2236
vn -0.1656 -0.9435 -0.2869
vn -0.2869 -0.9435 -0.1656
vn -0.3313 -0.9435 -0.0000
vn -0.2869 -0.9435 0.1656
vn -0.1656 -0.9435 0.2869
vn -0.0000 -0.9435 0.3313
vn 0.1656 -0.9435 0.2869
vn 0.2869 -0.9435 0.1656
vn 0.3313 -0.9435 0.0000
vn 0.1656 -0.9435 -0.2869
vn -0.0000 -0.9435 -0.3313
vn -0.0000 -0.8944 -0.4472
vn -0.2236 -0.8944 -0.3873
vn -0.3873 -0.8944 -0.2236
vn -0.4472 -0.8944 -0.0000
vn -0.3873 -0.8944 0.2236
vn -0.2236 -0.8944 0.3873
vn -0.0000 -0.8944 0.4472
vn 0.2236 -0.8944 0.3873
vn 0.3873 -0.8944 0.2236
vn 0.4472 -0.8944 0.0000
vn 0.1756 0.9363 -0.3041
vn 0.1792 0.9784 -0.1034
vn 0.3041 0.9363 -0.1756
vn 0.2069 0.9784 -0.0000
vn 0.3511 0.9363 -0.0000
vn 0.1792 0.9784 0.1034
vn 0.3041 0.9363 0.1756
vn 0.1756 0.9363 0.3041
vn 0.1034 0.9784 0.1792
vn 0.0000 0.9363 0.3511
vn -0.0000 0.9784 0.2069
vn -0.1756 0.9363 0.3041
vn -0.1034 0.9784 0.1792
vn -0.3041 0.9363 0.1756
vn -0.1792 0.9784 0.1034
vn -0.3511 0.9363 -0.0000
vn -0.2069 0.9784 0.0000
vn -0.3041 0.9363 -0.1756
vn -0.1792 0.9784 -0.1034
vn -0.1756 0.9363 -0.3041
vn -0.1034 0.9784 -0.1792
vn 0.0000 0.9784 -0.2069
vn 0.0000 0.9363 -0.3511
vn 0.1034 0.9784 -0.1792
s off
f 51/49/10 54/50/10 49/51/10
f 52/52/11 53/53/11 51/54/11
f 46/55/12 42/56/12 38/57/12
f 50/58/13 56/59/13 52/52/13
f 45/60/11 47/61/11 39/62/11
f 49/51/12 55/63/12 50/58/12
f 95/64/10 96/65/10 94/66/10
f 97/67/11 100/68/11 96/65/11
f 101/69/13 98/70/13 100/68/13
f 99/71/12 94/72/12 98/70/12
f 100/68/14 94/73/14 96/74/14
f 97/75/15 99/71/15 101/69/15
f 105/76/13 107/77/13 103/78/13
f 106/79/10 104/80/10 102/81/10
f 108/82/16 105/76/16 104/83/16
f 107/77/17 102/81/17 103/78/17
f 117/84/13 111/85/13 113/86/13
f 110/87/10 116/88/10 112/89/10
f 116/90/18 113/86/18 112/91/18
f 115/92/19 110/87/19 111/85/19
f 51/49/10 53/93/10 54/50/10
f 52/52/11 56/59/11 53/53/11
f 38/57/12 36/94/12 34/95/12
f 34/95/12 48/96/12 46/55/12
f 46/55/12 44/97/12 42/56/12
f 42/56/12 40/98/12 38/57/12
f 38/57/12 34/95/12 46/55/12
f 50/58/13 55/63/13 56/59/13
f 47/61/11 33/99/11 35/100/11
f 35/100/11 37/101/11 47/61/11
f 37/101/11 39/62/11 47/61/11
f 39/62/11 41/102/11 43/103/11
f 43/103/11 45/60/11 39/62/11
f 49/51/12 54/50/12 55/63/12
f 95/64/10 97/67/10 96/65/10
f 97/67/11 101/69/11 100/68/11
f 101/69/13 99/71/13 98/70/13
f 99/71/12 95/104/12 94/72/12
f 100/68/14 98/70/14 94/73/14
f 97/75/15 95/105/15 99/71/15
f 105/76/13 109/106/13 107/77/13
f 106/79/10 108/107/10 104/80/10
f 108/82/16 109/106/16 105/76/16
f 107/77/17 106/79/17 102/81/17
f 117/84/13 115/92/13 111/85/13
f 110/87/10 114/108/10 116/88/10
f 116/90/18 117/84/18 113/86/18
f 115/92/19 114/108/19 110/87/19
s 1
f 34/109/15 35/110/20 33/111/15
f 36/112/20 37/113/13 35/110/20
f 38/114/13 39/115/21 37/113/13
f 40/116/21 41/117/14 39/115/21
f 42/118/14 43/119/22 41/120/14
f 44/121/22 45/122/10 43/119/22
f 46/123/10 47/124/23 45/122/10
f 48/125/23 33/111/15 47/124/23
f 79/126/24 68/127/25 67/128/26
f 70/129/27 81/130/14 71/131/28
f 71/132/28 81/130/14 72/133/29
f 72/134/29 81/130/14 73/135/30
f 73/136/30 81/130/14 74/137/31
f 74/138/31 81/130/14 75/139/32
f 75/140/32 81/130/14 76/141/33
f 76/142/33 81/130/14 77/143/34
f 77/144/34 81/130/14 78/145/35
f 78/146/35 81/130/14 79/147/24
f 79/126/24 81/130/14 80/148/36
f 80/149/36 81/130/14 69/150/37
f 69/151/37 81/130/14 70/152/27
f 80/149/36 57/153/38 68/154/25
f 69/151/37 58/155/39 57/156/38
f 58/157/39 71/131/28 59/158/40
f 71/132/28 60/159/41 59/160/40
f 72/134/29 61/161/42 60/162/41
f 61/163/42 74/137/31 62/164/43
f 74/138/31 63/165/44 62/166/43
f 63/167/44 76/141/33 64/168/45
f 76/142/33 65/169/46 64/170/45
f 77/144/34 66/171/47 65/172/46
f 78/146/35 67/173/26 66/174/47
f 62/164/48 86/175/49 61/163/50
f 61/161/50 85/176/51 60/162/52
f 60/159/52 84/177/53 59/160/54
f 58/157/55 84/178/53 83/179/56
f 57/156/57 83/180/56 82/181/58
f 68/154/59 82/182/58 93/183/60
f 67/128/61 93/184/60 92/185/62
f 66/174/63 92/186/62 91/187/64
f 65/172/65 91/188/64 90/189/66
f 64/170/67 90/190/66 89/191/68
f 64/168/67 88/192/69 63/167/70
f 63/165/70 87/193/71 62/166/48
f 86/194/49 90/195/66 82/196/58
f 34/109/15 36/112/20 35/110/20
f 36/112/20 38/114/13 37/113/13
f 38/114/13 40/116/21 39/115/21
f 40/116/21 42/197/14 41/117/14
f 42/118/14 44/121/22 43/119/22
f 44/121/22 46/123/10 45/122/10
f 46/123/10 48/125/23 47/124/23
f 48/125/23 34/109/15 33/111/15
f 79/126/24 80/148/36 68/127/25
f 80/149/36 69/150/37 57/153/38
f 69/151/37 70/152/27 58/155/39
f 58/157/39 70/129/27 71/131/28
f 71/132/28 72/133/29 60/159/41
f 72/134/29 73/135/30 61/161/42
f 61/163/42 73/136/30 74/137/31
f 74/138/31 75/139/32 63/165/44
f 63/167/44 75/140/32 76/141/33
f 76/142/33 77/143/34 65/169/46
f 77/144/34 78/145/35 66/171/47
f 78/146/35 79/147/24 67/173/26
f 62/164/48 87/198/71 86/175/49
f 61/161/50 86/199/49 85/176/51
f 60/159/52 85/200/51 84/177/53
f 58/157/55 59/158/54 84/178/53
f 57/156/57 58/155/55 83/180/56
f 68/154/59 57/153/57 82/182/58
f 67/128/61 68/127/59 93/184/60
f 66/174/63 67/173/61 92/186/62
f 65/172/65 66/171/63 91/188/64
f 64/170/67 65/169/65 90/190/66
f 64/168/67 89/201/68 88/192/69
f 63/165/70 88/202/69 87/193/71
f 82/196/58 83/203/56 84/204/53
f 84/204/53 85/205/51 82/196/58
f 85/205/51 86/194/49 82/196/58
f 86/194/49 87/206/71 88/207/69
f 88/207/69 89/208/68 86/194/49
f 89/208/68 90/195/66 86/194/49
f 90/195/66 91/209/64 92/210/62
f 92/210/62 93/211/60 90/195/66
f 93/211/60 82/196/58 90/195/66
o Base
v -1.000000 0.000000 1.000000
v 1.000000 0.000000 1.000000
v -1.000000 0.000000 -1.000000
v 1.000000 0.000000 -1.000000
v -1.000000 0.750000 1.000000
v 1.000000 0.750000 1.000000
v -1.000000 0.750000 -1.000000
v 1.000000 0.750000 -1.000000
v -0.750000 1.000000 0.750000
v 0.750000 1.000000 0.750000
v -0.750000 1.000000 -0.750000
v 0.750000 1.000000 -0.750000
v 0.500000 1.000000 -0.500000
v 0.750000 1.000000 -0.500000
v 0.500000 1.000000 -0.750000
v 0.750000 1.000000 -0.750000
v 0.000000 6.000000 0.000000
v 0.250000 6.000000 0.000000
v 0.000000 6.000000 -0.250000
v 0.250000 6.000000 -0.250000
v 0.500000 1.000000 0.750000
v 0.750000 1.000000 0.750000
v 0.500000 1.000000 0.500000
v 0.750000 1.000000 0.500000
v 0.000000 6.000000 0.250000
v 0.250000 6.000000 0.250000
v 0.000000 6.000000 0.000000
v 0.250000 6.000000 0.000000
v -0.750000 1.000000 -0.500000
v -0.500000 1.000000 -0.500000
v -0.750000 1.000000 -0.750000
v -0.500000 1.000000 -0.750000
v -0.250000 6.000000 0.000000
v 0.000000 6.000000 0.000000
v -0.250000 6.000000 -0.250000
v 0.000000 6.000000 -0.250000
v -0.750000 1.000000 0.750000
v -0.500000 1.000000 0.750000
v -0.750000 1.000000 0.500000
v -0.500000 1.000000 0.500000
v -0.250000 6.000000 0.250000
v 0.000000 6.000000 0.250000
v -0.250000 6.000000 0.000000
v 0.000000 6.000000 0.000000
v -0.375000 6.000000 0.375000
v 0.375000 6.000000 0.375000
v -0.375000 6.000000 -0.375000
v 0.375000 6.000000 -0.375000
v -0.312500 6.125000 -0.312500
v -0.312500 6.125000 0.312500
v 0.312500 6.125000 0.312500
v 0.312500 6.125000 -0.312500
v -0.375000 6.125000 -0.375000
v -0.375000 6.125000 0.375000
v 0.375000 6.125000 0.375000
v 0.375000 6.125000 -0.375000
v -0.312500 6.250000 -0.312500
v -0.312500 6.250000 0.312500
v 0.312500 6.250000 0.312500
v 0.312500 6.250000 -0.312500
v -0.375000 6.250000 -0.375000
v -0.375000 6.250000 0.375000
v 0.375000 6.250000 0.375000
v 0.375000 6.250000 -0.375000
v -0.375000 7.000000 -0.375000
v -0.375000 7.000000 0.375000
v 0.375000 7.000000 0.375000
v 0.375000 7.000000 -0.375000
v 0.562500 2.125000 -0.500000
v 0.687500 1.125000 0.500000
v 0.437500 2.125000 -0.500000
v 0.562500 1.125000 0.500000
v 0.687500 1.000000 0.500000
v 0.562500 1.000000 0.500000
v 0.562500 2.000000 -0.500000
v 0.437500 2.000000 -0.500000
v 0.687500 1.125000 -0.500000
v 0.562500 2.125000 0.500000
v 0.562500 1.125000 -0.500000
v 0.437500 2.125000 0.500000
v 0.562500 2.000000 0.500000
v 0.437500 2.000000 0.500000
v 0.687500 1.000000 -0.500000
v 0.562500 1.000000 -0.500000
v 0.437500 3.125000 -0.375000
v 0.562500 2.375000 0.375000
v 0.312500 3.125000 -0.375000
v 0.437500 2.375000 0.375000
v 0.562500 2.250000 0.375000
v 0.437500 2.250000 0.375000
v 0.437500 3.000000 -0.375000
v 0.312500 3.000000 -0.375000
v 0.562500 2.375000 -0.375000
v 0.437500 3.125000 0.375000
v 0.437500 2.375000 -0.375000
v 0.312500 3.125000 0.375000
v 0.437500 3.000000 0.375000
v 0.312500 3.000000 0.375000
v 0.562500 2.250000 -0.375000
v 0.437500 2.250000 -0.375000
v 0.375000 4.000000 -0.312500
v 0.437500 3.375000 0.312500
v 0.250000 4.000000 -0.312500
v 0.312500 3.375000 0.312500
v 0.437500 3.250000 0.312500
v 0.312500 3.250000 0.312500
v 0.375000 3.875000 -0.312500
v 0.250000 3.875000 -0.312500
v 0.437500 3.375000 -0.312500
v 0.375000 4.000000 0.312500
v 0.312500 3.375000 -0.312500
v 0.250000 4.000000 0.312500
v 0.375000 3.875000 0.312500
v 0.250000 3.875000 0.312500
v 0.437500 3.250000 -0.312500
v 0.312500 3.250000 -0.312500
v -0.562500 2.125000 0.500000
v -0.687500 1.125000 -0.500000
v -0.437500 2.125000 0.500000
v -0.562500 1.125000 -0.500000
v -0.687500 1.000000 -0.500000
v -0.562500 1.000000 -0.500000
v -0.562500 2.000000 0.500000
v -0.437500 2.000000 0.500000
v -0.687500 1.125000 0.500000
v -0.562500 2.125000 -0.500000
v -0.562500 1.125000 0.500000
v -0.437500 2.125000 -0.500000
v -0.562500 2.000000 -0.500000
v -0.437500 2.000000 -0.500000
v -0.687500 1.000000 0.500000
v -0.562500 1.000000 0.500000
v -0.437500 3.125000 0.375000
v -0.562500 2.375000 -0.375000
v -0.312500 3.125000 0.375000
v -0.437500 2.375000 -0.375000
v -0.562500 2.250000 -0.375000
v -0.437500 2.250000 -0.375000
v -0.437500 3.000000 0.375000
v -0.312500 3.000000 0.375000
v -0.562500 2.375000 0.375000
v -0.437500 3.125000 -0.375000
v -0.437500 2.375000 0.375000
v -0.312500 3.125000 -0.375000
v -0.437500 3.000000 -0.375000
v -0.312500 3.000000 -0.375000
v -0.562500 2.250000 0.375000
v -0.437500 2.250000 0.375000
v -0.375000 4.000000 0.312500
v -0.437500 3.375000 -0.312500
v -0.250000 4.000000 0.312500
v -0.312500 3.375000 -0.312500
v -0.437500 3.250000 -0.312500
v -0.312500 3.250000 -0.312500
v -0.375000 3.875000 0.312500
v -0.250000 3.875000 0.312500
v -0.437500 3.375000 0.312500
v -0.375000 4.000000 -0.312500
v -0.312500 3.375000 0.312500
v -0.250000 4.000000 -0.312500
v -0.375000 3.875000 -0.312500
v -0.250000 3.875000 -0.312500
v -0.437500 3.250000 0.312500
v -0.312500 3.250000 0.312500
v -0.500000 2.125000 -0.562500
v 0.500000 1.125000 -0.687500
v -0.500000 2.125000 -0.437500
v 0.500000 1.125000 -0.562500
v 0.500000 1.000000 -0.687500
v 0.500000 1.000000 -0.562500
v -0.500000 2.000000 -0.562500
v -0.500000 2.000000 -0.437500
v -0.500000 1.125000 -0.687500
v 0.500000 2.125000 -0.562500
v -0.500000 1.125000 -0.562500
v 0.500000 2.125000 -0.437500
v 0.500000 2.000000 -0.562500
v 0.500000 2.000000 -0.437500
v -0.500000 1.000000 -0.687500
v -0.500000 1.000000 -0.562500
v -0.375000 3.125000 -0.437500
v 0.375000 2.375000 -0.562500
v -0.375000 3.125000 -0.312500
v 0.375000 2.375000 -0.437500
v 0.375000 2.250000 -0.562500
v 0.375000 2.250000 -0.437500
v -0.375000 3.000000 -0.437500
v -0.375000 3.000000 -0.312500
v -0.375000 2.375000 -0.562500
v 0.375000 3.125000 -0.437500
v -0.375000 2.375000 -0.437500
v 0.375000 3.125000 -0.312500
v 0.375000 3.000000 -0.437500
v 0.375000 3.000000 -0.312500
v -0.375000 2.250000 -0.562500
v -0.375000 2.250000 -0.437500
v -0.312500 4.000000 -0.375000
v 0.312500 3.375000 -0.437500
v -0.312500 4.000000 -0.250000
v 0.312500 3.375000 -0.312500
v 0.312500 3.250000 -0.437500
v 0.312500 3.250000 -0.312500
v -0.312500 3.875000 -0.375000
v -0.312500 3.875000 -0.250000
v -0.312500 3.375000 -0.437500
v 0.312500 4.000000 -0.375000
v -0.312500 3.375000 -0.312500
v 0.312500 4.000000 -0.250000
v 0.312500 3.875000 -0.375000
v 0.312500 3.875000 -0.250000
v -0.312500 3.250000 -0.437500
v -0.312500 3.250000 -0.312500
v 0.500000 2.125000 0.562500
v -0.500000 1.125000 0.687500
v 0.500000 2.125000 0.437500
v -0.500000 1.125000 0.562500
v -0.500000 1.000000 0.687500
v -0.500000 1.000000 0.562500
v 0.500000 2.000000 0.562500
v 0.500000 2.000000 0.437500
v 0.500000 1.125000 0.687500
v -0.500000 2.125000 0.562500
v 0.500000 1.125000 0.562500
v -0.500000 2.125000 0.437500
v -0.500000 2.000000 0.562500
v -0.500000 2.000000 0.437500
v 0.500000 1.000000 0.687500
v 0.500000 1.000000 0.562500
v 0.375000 3.125000 0.437500
v -0.375000 2.375000 0.562500
v 0.375000 3.125000 0.312500
v -0.375000 2.375000 0.437500
v -0.375000 2.250000 0.562500
v -0.375000 2.250000 0.437500
v 0.375000 3.000000 0.437500
v 0.375000 3.000000 0.312500
v 0.375000 2.375000 0.562500
v -0.375000 3.125000 0.437500
v 0.375000 2.375000 0.437500
v -0.375000 3.125000 0.312500
v -0.375000 3.000000 0.437500
v -0.375000 3.000000 0.312500
v 0.375000 2.250000 0.562500
v 0.375000 2.250000 0.437500
v 0.312500 4.000000 0.375000
v -0.312500 3.375000 0.437500
v 0.312500 4.000000 0.250000
v -0.312500 3.375000 0.312500
v -0.312500 3.250000 0.437500
v -0.312500 3.250000 0.312500
v 0.312500 3.875000 0.375000
v 0.312500 3.875000 0.250000
v 0.312500 3.375000 0.437500
v -0.312500 4.000000 0.375000
v 0.312500 3.375000 0.312500
v -0.312500 4.000000 0.250000
v -0.312500 3.875000 0.375000
v -0.312500 3.875000 0.250000
v 0.312500 3.250000 0.437500
v 0.312500 3.250000 0.312500
vt 0.410256 -0.000000
vt 0.205128 0.355556
vt 0.205128 -0.000000
vt 0.410256 0.488889
vt 0.230769 0.533333
vt 0.205128 0.488889
vt 0.410256 0.355556
vt 0.820513 0.355556
vt 0.615385 0.488889
vt 0.615385 0.355556
vt 0.000000 0.488889
vt 0.000000 0.355556
vt 0.384615 0.800000
vt 0.230769 0.800000
vt 0.820513 0.488889
vt 0.641026 0.533333
vt 0.435897 0.533333
vt 0.025641 0.533333
vt 0.846154 0.888889
vt 0.820513 0.000000
vt 0.846154 0.000000
vt 0.871795 0.888889
vt 0.871795 0.000000
vt 0.923077 0.000000
vt 0.897436 0.888889
vt 0.897436 0.000000
vt 0.871795 0.888889
vt 0.846154 0.000000
vt 0.871795 0.000000
vt 0.897436 0.000000
vt 0.846154 0.888889
vt 0.820513 0.000000
vt 0.923077 0.000000
vt 0.897436 0.888889
vt 0.923077 0.000000
vt 0.897436 0.888889
vt 0.897436 0.000000
vt 0.846154 0.888889
vt 0.820513 0.000000
vt 0.846154 0.000000
vt 0.871795 0.888889
vt 0.871795 0.000000
vt 0.897436 0.000000
vt 0.871795 0.888889
vt 0.871795 0.000000
vt 0.923077 0.000000
vt 0.897436 0.888889
vt 0.846154 0.000000
vt 0.846154 0.888889
vt 0.820513 0.000000
vt 0.666667 0.533333
vt 0.589744 0.666667
vt 0.589744 0.533333
vt 0.660256 0.700000
vt 0.596154 0.722222
vt 0.596154 0.700000
vt 0.666667 0.666667
vt 0.589744 0.688889
vt 0.820513 0.666667
vt 0.743590 0.688889
vt 0.743590 0.666667
vt 0.666667 0.688889
vt 0.512821 0.688889
vt 0.512821 0.666667
vt 0.750000 0.700000
vt 0.820513 0.688889
vt 0.814103 0.700000
vt 0.519231 0.700000
vt 0.583333 0.700000
vt 0.673077 0.700000
vt 0.737179 0.700000
vt 0.820513 0.733333
vt 0.750000 0.722222
vt 0.814103 0.722222
vt 0.673077 0.722222
vt 0.519231 0.722222
vt 0.589744 0.733333
vt 0.583333 0.722222
vt 0.666667 0.733333
vt 0.660256 0.722222
vt 0.743590 0.733333
vt 0.737179 0.722222
vt 0.589744 0.866667
vt 0.743590 0.866667
vt 0.666667 0.866667
vt 0.512821 0.866667
vt 0.512821 0.733333
vt 0.589744 1.000000
vt 0.666667 1.000000
vt 0.512821 0.022222
vt 0.410256 0.044444
vt 0.410256 0.022222
vt 0.512821 0.088889
vt 0.410256 0.066667
vt 0.512821 0.066667
vt 0.512821 0.044444
vt 0.410256 0.000000
vt 0.410256 0.022222
vt 0.512821 0.044444
vt 0.410256 0.044444
vt 0.410256 0.088889
vt 0.512821 0.066667
vt 0.512821 0.088889
vt 0.410256 0.066667
vt 0.512821 0.000000
vt 0.410256 0.000000
vt 0.487179 0.111111
vt 0.410256 0.133333
vt 0.410256 0.111111
vt 0.487179 0.177778
vt 0.410256 0.155556
vt 0.487179 0.155556
vt 0.487179 0.133333
vt 0.410256 0.088889
vt 0.410256 0.111111
vt 0.487179 0.133333
vt 0.410256 0.133333
vt 0.410256 0.177778
vt 0.487179 0.155556
vt 0.487179 0.177778
vt 0.410256 0.155556
vt 0.487179 0.088889
vt 0.410256 0.088889
vt 0.474359 0.200000
vt 0.410256 0.222222
vt 0.410256 0.200000
vt 0.474359 0.266667
vt 0.410256 0.244444
vt 0.474359 0.244444
vt 0.474359 0.222222
vt 0.410256 0.177778
vt 0.410256 0.200000
vt 0.474359 0.222222
vt 0.410256 0.222222
vt 0.410256 0.266667
vt 0.474359 0.244444
vt 0.474359 0.266667
vt 0.410256 0.244444
vt 0.474359 0.177778
vt 0.410256 0.177778
vt 0.512821 0.022222
vt 0.410256 0.044444
vt 0.410256 0.022222
vt 0.512821 0.088889
vt 0.410256 0.066667
vt 0.512821 0.066667
vt 0.512821 0.044444
vt 0.410256 0.000000
vt 0.410256 0.022222
vt 0.512821 0.044444
vt 0.410256 0.044444
vt 0.410256 0.088889
vt 0.512821 0.066667
vt 0.512821 0.088889
vt 0.410256 0.066667
vt 0.512821 0.000000
vt 0.410256 0.000000
vt 0.487179 0.111111
vt 0.410256 0.133333
vt 0.410256 0.111111
vt 0.487179 0.177778
vt 0.410256 0.155556
vt 0.487179 0.155556
vt 0.487179 0.133333
vt 0.410256 0.088889
vt 0.410256 0.111111
vt 0.487179 0.133333
vt 0.410256 0.133333
vt 0.410256 0.177778
vt 0.487179 0.155556
vt 0.487179 0.177778
vt 0.410256 0.155556
vt 0.487179 0.088889
vt 0.410256 0.088889
vt 0.474359 0.200000
vt 0.410256 0.222222
vt 0.410256 0.200000
vt 0.474359 0.266667
vt 0.410256 0.244444
vt 0.474359 0.244444
vt 0.474359 0.222222
vt 0.410256 0.177778
vt 0.410256 0.200000
vt 0.474359 0.222222
vt 0.410256 0.222222
vt 0.410256 0.266667
vt 0.474359 0.244444
vt 0.474359 0.266667
vt 0.410256 0.244444
vt 0.474359 0.177778
vt 0.410256 0.177778
vt 0.512821 0.022222
vt 0.410256 0.044444
vt 0.410256 0.022222
vt 0.512821 0.088889
vt 0.410256 0.066667
vt 0.512821 0.066667
vt 0.512821 0.044444
vt 0.410256 0.000000
vt 0.410256 0.022222
vt 0.512821 0.044444
vt 0.410256 0.044444
vt 0.410256 0.088889
vt 0.512821 0.066667
vt 0.512821 0.088889
vt 0.410256 0.066667
vt 0.512821 0.000000
vt 0.410256 0.000000
vt 0.487179 0.111111
vt 0.410256 0.133333
vt 0.410256 0.111111
vt 0.487179 0.177778
vt 0.410256 0.155556
vt 0.487179 0.155556
vt 0.487179 0.133333
vt 0.410256 0.088889
vt 0.410256 0.111111
vt 0.487179 0.133333
vt 0.410256 0.133333
vt 0.410256 0.177778
vt 0.487179 0.155556
vt 0.487179 0.177778
vt 0.410256 0.155556
vt 0.487179 0.088889
vt 0.410256 0.088889
vt 0.474359 0.200000
vt 0.410256 0.222222
vt 0.410256 0.200000
vt 0.474359 0.266667
vt 0.410256 0.244444
vt 0.474359 0.244444
vt 0.474359 0.222222
vt 0.410256 0.177778
vt 0.410256 0.200000
vt 0.474359 0.222222
vt 0.410256 0.222222
vt 0.410256 0.266667
vt 0.474359 0.244444
vt 0.474359 0.266667
vt 0.410256 0.244444
vt 0.474359 0.177778
vt 0.410256 0.177778
vt 0.512821 0.022222
vt 0.410256 0.044444
vt 0.410256 0.022222
vt 0.512821 0.088889
vt 0.410256 0.066667
vt 0.512821 0.066667
vt 0.512821 0.044444
vt 0.410256 0.000000
vt 0.410256 0.022222
vt 0.512821 0.044444
vt 0.410256 0.044444
vt 0.410256 0.088889
vt 0.512821 0.066667
vt 0.512821 0.088889
vt 0.410256 0.066667
vt 0.512821 0.000000
vt 0.410256 0.000000
vt 0.487179 0.111111
vt 0.410256 0.133333
vt 0.410256 0.111111
vt 0.487179 0.177778
vt 0.410256 0.155556
vt 0.487179 0.155556
vt 0.487179 0.133333
vt 0.410256 0.088889
vt 0.410256 0.111111
vt 0.487179 0.133333
vt 0.410256 0.133333
vt 0.410256 0.177778
vt 0.487179 0.155556
vt 0.487179 0.177778
vt 0.410256 0.155556
vt 0.487179 0.088889
vt 0.410256 0.088889
vt 0.474359 0.200000
vt 0.410256 0.222222
vt 0.410256 0.200000
vt 0.474359 0.266667
vt 0.410256 0.244444
vt 0.474359 0.244444
vt 0.474359 0.222222
vt 0.410256 0.177778
vt 0.410256 0.200000
vt 0.474359 0.222222
vt 0.410256 0.222222
vt 0.410256 0.266667
vt 0.474359 0.244444
vt 0.474359 0.266667
vt 0.410256 0.244444
vt 0.474359 0.177778
vt 0.410256 0.177778
vt 0.384615 0.533333
vt 0.794872 0.533333
vt 0.589744 0.533333
vt 0.179487 0.533333
vt 0.820513 0.888889
vt 0.923077 0.888889
vt 0.820513 0.888889
vt 0.923077 0.888889
vt 0.923077 0.888889
vt 0.820513 0.888889
vt 0.923077 0.888889
vt 0.820513 0.888889
vt 0.820513 0.866667
vt 0.410256 0.088889
vt 0.512821 0.000000
vt 0.512821 0.022222
vt 0.410256 0.177778
vt 0.487179 0.088889
vt 0.487179 0.111111
vt 0.410256 0.266667
vt 0.474359 0.177778
vt 0.474359 0.200000
vt 0.410256 0.088889
vt 0.512821 0.000000
vt 0.512821 0.022222
vt 0.410256 0.177778
vt 0.487179 0.088889
vt 0.487179 0.111111
vt 0.410256 0.266667
vt 0.474359 0.177778
vt 0.474359 0.200000
vt 0.410256 0.088889
vt 0.512821 0.000000
vt 0.512821 0.022222
vt 0.410256 0.177778
vt 0.487179 0.088889
vt 0.487179 0.111111
vt 0.410256 0.266667
vt 0.474359 0.177778
vt 0.474359 0.200000
vt 0.410256 0.088889
vt 0.512821 0.000000
vt 0.512821 0.022222
vt 0.410256 0.177778
vt 0.487179 0.088889
vt 0.487179 0.111111
vt 0.410256 0.266667
vt 0.474359 0.177778
vt 0.474359 0.200000
vn 0.0000 -1.0000 0.0000
vn 0.7071 0.7071 0.0000
vn 1.0000 0.0000 0.0000
vn -1.0000 0.0000 0.0000
vn 0.0000 0.0000 -1.0000
vn 0.0000 0.0000 1.0000
vn 0.0000 1.0000 0.0000
vn -0.7071 0.7071 0.0000
vn 0.0000 0.7071 -0.7071
vn 0.0000 0.7071 0.7071
vn 0.0000 -0.0995 0.9950
vn 0.9950 0.0995 0.0000
vn -0.9950 -0.0995 0.0000
vn 0.0000 0.0995 -0.9950
vn 0.0000 0.0995 0.9950
vn 0.0000 -0.0995 -0.9950
vn 0.9950 -0.0995 0.0000
vn -0.9950 0.0995 0.0000
vn 0.9923 0.0000 -0.1240
vn -0.9923 0.0000 0.1240
vn 0.0000 -0.7071 -0.7071
vn 0.9923 0.0000 0.1240
vn -0.9923 0.0000 -0.1240
vn 0.0000 -0.7071 0.7071
vn 0.9864 0.0000 -0.1644
vn -0.9864 0.0000 0.1644
vn 0.9864 0.0000 0.1644
vn -0.9864 0.0000 -0.1644
vn 0.9950 0.0000 -0.0995
vn -0.9950 0.0000 0.0995
vn 0.9950 0.0000 0.0995
vn -0.9950 0.0000 -0.0995
vn -0.1240 0.0000 -0.9923
vn 0.1240 0.0000 0.9923
vn -0.7071 -0.7071 0.0000
vn 0.1240 0.0000 -0.9923
vn -0.1240 0.0000 0.9923
vn 0.7071 -0.7071 0.0000
vn -0.1644 0.0000 -0.9864
vn 0.1644 0.0000 0.9864
vn 0.1644 0.0000 -0.9864
vn -0.1644 0.0000 0.9864
vn -0.0995 0.0000 -0.9950
vn 0.0995 0.0000 0.9950
vn 0.0995 0.0000 -0.9950
vn -0.0995 0.0000 0.9950
s off
f 120/212/72 119/213/72 118/214/72
f 125/215/73 127/216/73 123/217/73
f 121/218/74 123/217/74 119/213/74
f 118/219/75 124/220/75 120/221/75
f 120/221/76 125/215/76 121/218/76
f 119/213/77 122/222/77 118/223/77
f 127/216/78 128/224/78 126/225/78
f 122/226/79 128/227/79 124/220/79
f 124/220/80 129/228/80 125/215/80
f 123/217/81 126/229/81 122/222/81
f 135/230/82 130/231/82 131/232/82
f 137/233/83 131/232/83 133/234/83
f 130/235/84 136/236/84 132/237/84
f 132/237/85 137/233/85 133/234/85
f 143/238/86 138/239/86 139/240/86
f 141/241/83 143/238/83 139/240/83
f 142/242/84 140/243/84 138/239/84
f 140/244/87 145/245/87 141/241/87
f 147/246/82 150/247/82 146/248/82
f 153/249/88 147/250/88 149/251/88
f 146/248/89 152/252/89 148/253/89
f 152/252/85 149/251/85 148/253/85
f 155/254/86 158/255/86 154/256/86
f 157/257/88 159/258/88 155/254/88
f 158/255/89 156/259/89 154/256/89
f 160/260/87 157/261/87 156/259/87
f 164/262/72 163/263/72 162/264/72
f 169/265/74 176/266/74 168/267/74
f 165/268/74 172/269/74 163/263/74
f 162/270/75 170/271/75 164/272/75
f 164/272/76 173/273/76 165/268/76
f 163/263/77 171/274/77 162/275/77
f 166/276/78 171/277/78 167/278/78
f 167/279/78 172/269/78 168/280/78
f 168/267/78 173/273/78 169/265/78
f 169/281/78 170/271/78 166/282/78
f 179/283/72 174/284/72 175/285/72
f 167/278/75 174/284/75 166/276/75
f 166/282/76 177/286/76 169/281/76
f 168/280/77 175/287/77 167/279/77
f 180/288/72 175/287/72 176/289/72
f 181/290/72 176/266/72 177/291/72
f 178/292/72 177/286/72 174/293/72
f 181/290/74 184/294/74 180/288/74
f 179/283/75 182/295/75 178/292/75
f 178/292/76 185/296/76 181/290/76
f 180/288/77 183/297/77 179/298/77
f 183/299/78 185/296/78 182/300/78
f 192/301/90 187/302/90 190/303/90
f 193/304/91 189/305/91 188/306/91
f 189/305/81 186/307/81 188/306/81
f 191/308/92 192/301/92 190/303/92
f 198/309/93 194/310/93 195/311/93
f 199/312/94 196/313/94 201/314/94
f 195/311/80 196/313/80 197/315/80
f 201/316/95 198/309/95 199/317/95
f 208/318/96 203/319/96 206/320/96
f 209/321/97 205/322/97 204/323/97
f 205/322/81 202/324/81 204/323/81
f 207/325/92 208/318/92 206/320/92
f 214/326/98 210/327/98 211/328/98
f 215/329/99 212/330/99 217/331/99
f 211/328/80 212/330/80 213/332/80
f 217/333/95 214/326/95 215/334/95
f 224/335/100 219/336/100 222/337/100
f 225/338/101 221/339/101 220/340/101
f 221/339/81 218/341/81 220/340/81
f 223/342/92 224/335/92 222/337/92
f 230/343/102 226/344/102 227/345/102
f 231/346/103 228/347/103 233/348/103
f 227/345/80 228/347/80 229/349/80
f 233/350/95 230/343/95 231/351/95
f 240/352/91 235/353/91 238/354/91
f 241/355/90 237/356/90 236/357/90
f 237/356/80 234/358/80 236/357/80
f 239/359/95 240/352/95 238/354/95
f 246/360/94 242/361/94 243/362/94
f 247/363/93 244/364/93 249/365/93
f 243/362/81 244/364/81 245/366/81
f 249/367/92 246/360/92 247/368/92
f 256/369/97 251/370/97 254/371/97
f 257/372/96 253/373/96 252/374/96
f 253/373/80 250/375/80 252/374/80
f 255/376/95 256/369/95 254/371/95
f 262/377/99 258/378/99 259/379/99
f 263/380/98 260/381/98 265/382/98
f 259/379/81 260/381/81 261/383/81
f 265/384/92 262/377/92 263/385/92
f 272/386/101 267/387/101 270/388/101
f 273/389/100 269/390/100 268/391/100
f 269/390/80 266/392/80 268/391/80
f 271/393/95 272/386/95 270/388/95
f 278/394/103 274/395/103 275/396/103
f 279/397/102 276/398/102 281/399/102
f 275/396/81 276/398/81 277/400/81
f 281/401/92 278/394/92 279/402/92
f 288/403/104 283/404/104 286/405/104
f 289/406/105 285/407/105 284/408/105
f 285/407/73 282/409/73 284/408/73
f 287/410/106 288/403/106 286/405/106
f 294/411/107 290/412/107 291/413/107
f 295/414/108 292/415/108 297/416/108
f 291/413/79 292/415/79 293/417/79
f 297/418/109 294/411/109 295/419/109
f 304/420/110 299/421/110 302/422/110
f 305/423/111 301/424/111 300/425/111
f 301/424/73 298/426/73 300/425/73
f 303/427/106 304/420/106 302/422/106
f 310/428/112 306/429/112 307/430/112
f 311/431/113 308/432/113 313/433/113
f 307/430/79 308/432/79 309/434/79
f 313/435/109 310/428/109 311/436/109
f 320/437/114 315/438/114 318/439/114
f 321/440/115 317/441/115 316/442/115
f 317/441/73 314/443/73 316/442/73
f 319/444/106 320/437/106 318/439/106
f 326/445/116 322/446/116 323/447/116
f 327/448/117 324/449/117 329/450/117
f 323/447/79 324/449/79 325/451/79
f 329/452/109 326/445/109 327/453/109
f 336/454/105 331/455/105 334/456/105
f 337/457/104 333/458/104 332/459/104
f 333/458/79 330/460/79 332/459/79
f 335/461/109 336/454/109 334/456/109
f 342/462/108 338/463/108 339/464/108
f 343/465/107 340/466/107 345/467/107
f 339/464/73 340/466/73 341/468/73
f 345/469/106 342/462/106 343/470/106
f 352/471/111 347/472/111 350/473/111
f 353/474/110 349/475/110 348/476/110
f 349/475/79 346/477/79 348/476/79
f 351/478/109 352/471/109 350/473/109
f 358/479/113 354/480/113 355/481/113
f 359/482/112 356/483/112 361/484/112
f 355/481/73 356/483/73 357/485/73
f 361/486/106 358/479/106 359/487/106
f 368/488/115 363/489/115 366/490/115
f 369/491/114 365/492/114 364/493/114
f 365/492/79 362/494/79 364/493/79
f 367/495/109 368/488/109 366/490/109
f 374/496/117 370/497/117 371/498/117
f 375/499/116 372/500/116 377/501/116
f 371/498/73 372/500/73 373/502/73
f 377/503/106 374/496/106 375/504/106
f 120/212/72 121/218/72 119/213/72
f 125/215/73 129/505/73 127/216/73
f 121/218/74 125/215/74 123/217/74
f 118/219/75 122/226/75 124/220/75
f 120/221/76 124/220/76 125/215/76
f 119/213/77 123/217/77 122/222/77
f 127/216/78 129/505/78 128/224/78
f 122/226/79 126/506/79 128/227/79
f 124/220/80 128/507/80 129/228/80
f 123/217/81 127/508/81 126/229/81
f 135/230/82 134/509/82 130/231/82
f 137/233/83 135/230/83 131/232/83
f 130/235/84 134/510/84 136/236/84
f 132/237/85 136/236/85 137/233/85
f 143/238/86 142/242/86 138/239/86
f 141/241/83 145/245/83 143/238/83
f 142/242/84 144/511/84 140/243/84
f 140/244/87 144/512/87 145/245/87
f 147/246/82 151/513/82 150/247/82
f 153/249/88 151/514/88 147/250/88
f 146/248/89 150/247/89 152/252/89
f 152/252/85 153/249/85 149/251/85
f 155/254/86 159/258/86 158/255/86
f 157/257/88 161/515/88 159/258/88
f 158/255/89 160/260/89 156/259/89
f 160/260/87 161/516/87 157/261/87
f 164/262/72 165/268/72 163/263/72
f 169/265/74 177/291/74 176/266/74
f 165/268/74 173/273/74 172/269/74
f 162/270/75 171/277/75 170/271/75
f 164/272/76 170/271/76 173/273/76
f 163/263/77 172/269/77 171/274/77
f 166/276/78 170/271/78 171/277/78
f 167/279/78 171/274/78 172/269/78
f 168/267/78 172/269/78 173/273/78
f 169/281/78 173/273/78 170/271/78
f 179/283/72 178/292/72 174/284/72
f 167/278/75 175/285/75 174/284/75
f 166/282/76 174/293/76 177/286/76
f 168/280/77 176/289/77 175/287/77
f 180/288/72 179/298/72 175/287/72
f 181/290/72 180/288/72 176/266/72
f 178/292/72 181/290/72 177/286/72
f 181/290/74 185/296/74 184/294/74
f 179/283/75 183/517/75 182/295/75
f 178/292/76 182/295/76 185/296/76
f 180/288/77 184/294/77 183/297/77
f 183/299/78 184/294/78 185/296/78
f 192/301/90 186/307/90 187/302/90
f 193/304/91 191/518/91 189/305/91
f 189/305/81 187/302/81 186/307/81
f 191/308/92 193/519/92 192/301/92
f 198/309/93 200/520/93 194/310/93
f 199/312/94 197/315/94 196/313/94
f 195/311/80 194/310/80 196/313/80
f 201/316/95 200/520/95 198/309/95
f 208/318/96 202/324/96 203/319/96
f 209/321/97 207/521/97 205/322/97
f 205/322/81 203/319/81 202/324/81
f 207/325/92 209/522/92 208/318/92
f 214/326/98 216/523/98 210/327/98
f 215/329/99 213/332/99 212/330/99
f 211/328/80 210/327/80 212/330/80
f 217/333/95 216/523/95 214/326/95
f 224/335/100 218/341/100 219/336/100
f 225/338/101 223/524/101 221/339/101
f 221/339/81 219/336/81 218/341/81
f 223/342/92 225/525/92 224/335/92
f 230/343/102 232/526/102 226/344/102
f 231/346/103 229/349/103 228/347/103
f 227/345/80 226/344/80 228/347/80
f 233/350/95 232/526/95 230/343/95
f 240/352/91 234/358/91 235/353/91
f 241/355/90 239/527/90 237/356/90
f 237/356/80 235/353/80 234/358/80
f 239/359/95 241/528/95 240/352/95
f 246/360/94 248/529/94 242/361/94
f 247/363/93 245/366/93 244/364/93
f 243/362/81 242/361/81 244/364/81
f 249/367/92 248/529/92 246/360/92
f 256/369/97 250/375/97 251/370/97
f 257/372/96 255/530/96 253/373/96
f 253/373/80 251/370/80 250/375/80
f 255/376/95 257/531/95 256/369/95
f 262/377/99 264/532/99 258/378/99
f 263/380/98 261/383/98 260/381/98
f 259/379/81 258/378/81 260/381/81
f 265/384/92 264/532/92 262/377/92
f 272/386/101 266/392/101 267/387/101
f 273/389/100 271/533/100 269/390/100
f 269/390/80 267/387/80 266/392/80
f 271/393/95 273/534/95 272/386/95
f 278/394/103 280/535/103 274/395/103
f 279/397/102 277/400/102 276/398/102
f 275/396/81 274/395/81 276/398/81
f 281/401/92 280/535/92 278/394/92
f 288/403/104 282/409/104 283/404/104
f 289/406/105 287/536/105 285/407/105
f 285/407/73 283/404/73 282/409/73
f 287/410/106 289/537/106 288/403/106
f 294/411/107 296/538/107 290/412/107
f 295/414/108 293/417/108 292/415/108
f 291/413/79 290/412/79 292/415/79
f 297/418/109 296/538/109 294/411/109
f 304/420/110 298/426/110 299/421/110
f 305/423/111 303/539/111 301/424/111
f 301/424/73 299/421/73 298/426/73
f 303/427/106 305/540/106 304/420/106
f 310/428/112 312/541/112 306/429/112
f 311/431/113 309/434/113 308/432/113
f 307/430/79 306/429/79 308/432/79
f 313/435/109 312/541/109 310/428/109
f 320/437/114 314/443/114 315/438/114
f 321/440/115 319/542/115 317/441/115
f 317/441/73 315/438/73 314/443/73
f 319/444/106 321/543/106 320/437/106
f 326/445/116 328/544/116 322/446/116
f 327/448/117 325/451/117 324/449/117
f 323/447/79 322/446/79 324/449/79
f 329/452/109 328/544/109 326/445/109
f 336/454/105 330/460/105 331/455/105
f 337/457/104 335/545/104 333/458/104
f 333/458/79 331/455/79 330/460/79
f 335/461/109 337/546/109 336/454/109
f 342/462/108 344/547/108 338/463/108
f 343/465/107 341/468/107 340/466/107
f 339/464/73 338/463/73 340/466/73
f 345/469/106 344/547/106 342/462/106
f 352/471/111 346/477/111 347/472/111
f 353/474/110 351/548/110 349/475/110
f 349/475/79 347/472/79 346/477/79
f 351/478/109 353/549/109 352/471/109
f 358/479/113 360/550/113 354/480/113
f 359/482/112 357/485/112 356/483/112
f 355/481/73 354/480/73 356/483/73
f 361/486/106 360/550/106 358/479/106
f 368/488/115 362/494/115 363/489/115
f 369/491/114 367/551/114 365/492/114
f 365/492/79 363/489/79 362/494/79
f 367/495/109 369/552/109 368/488/109
f 374/496/117 376/553/117 370/497/117
f 375/499/116 373/502/116 372/500/116
f 371/498/73 370/497/73 372/500/73
f 377/503/106 376/553/106 374/496/106
