# Blender 3.4.1
# www.blender.org
mtllib solar_panel.mtl
o cuboid_selection
v 2.437500 0.375000 -0.312500
v 2.437500 0.375000 0.312500
v 2.437500 0.250000 0.312500
v 2.437500 0.250000 -0.312500
v 2.312500 0.250000 0.312500
v 2.312500 0.375000 0.312500
v 2.312500 0.375000 -0.312500
v 2.312500 0.250000 -0.312500
v 2.437500 1.000000 0.312500
v 2.437500 1.000000 0.437500
v 2.437500 -0.000000 0.437500
v 2.437500 -0.000000 0.312500
v 2.312500 -0.000000 0.437500
v 2.312500 1.000000 0.437500
v 2.312500 1.000000 0.312500
v 2.312500 -0.000000 0.312500
v 2.437500 0.500000 -0.437500
v 2.437500 0.500000 -0.312500
v 2.437500 0.000000 -0.312500
v 2.437500 0.000000 -0.437500
v 2.312500 0.000000 -0.312500
v 2.312500 0.500000 -0.312500
v 2.312500 0.500000 -0.437500
v 2.312500 0.000000 -0.437500
v 0.687500 0.375000 -0.312500
v 0.687500 0.375000 0.312500
v 0.687500 0.250000 0.312500
v 0.687500 0.250000 -0.312500
v 0.562500 0.250000 0.312500
v 0.562500 0.375000 0.312500
v 0.562500 0.375000 -0.312500
v 0.562500 0.250000 -0.312500
v 0.687500 1.000000 0.312500
v 0.687500 1.000000 0.437500
v 0.687500 -0.000000 0.437500
v 0.687500 -0.000000 0.312500
v 0.562500 -0.000000 0.437500
v 0.562500 1.000000 0.437500
v 0.562500 1.000000 0.312500
v 0.562500 -0.000000 0.312500
v 0.687500 0.500000 -0.437500
v 0.687500 0.500000 -0.312500
v 0.687500 0.000000 -0.312500
v 0.687500 0.000000 -0.437500
v 0.562500 0.000000 -0.312500
v 0.562500 0.500000 -0.312500
v 0.562500 0.500000 -0.437500
v 0.562500 0.000000 -0.437500
v -0.562500 0.375000 -0.312500
v -0.562500 0.375000 0.312500
v -0.562500 0.250000 0.312500
v -0.562500 0.250000 -0.312500
v -0.687500 0.250000 0.312500
v -0.687500 0.375000 0.312500
v -0.687500 0.375000 -0.312500
v -0.687500 0.250000 -0.312500
v -0.562500 1.000000 0.312500
v -0.562500 1.000000 0.437500
v -0.562500 -0.000000 0.437500
v -0.562500 -0.000000 0.312500
v -0.687500 -0.000000 0.437500
v -0.687500 1.000000 0.437500
v -0.687500 1.000000 0.312500
v -0.687500 -0.000000 0.312500
v -0.562500 0.500000 -0.437500
v -0.562500 0.500000 -0.312500
v -0.562500 0.000000 -0.312500
v -0.562500 0.000000 -0.437500
v -0.687500 0.000000 -0.312500
v -0.687500 0.500000 -0.312500
v -0.687500 0.500000 -0.437500
v -0.687500 0.000000 -0.437500
v -2.312500 0.375000 -0.312500
v -2.312500 0.375000 0.312500
v -2.312500 0.250000 0.312500
v -2.312500 0.250000 -0.312500
v -2.437500 0.250000 0.312500
v -2.437500 0.375000 0.312500
v -2.437500 0.375000 -0.312500
v -2.437500 0.250000 -0.312500
v -2.312500 1.000000 0.312500
v -2.312500 1.000000 0.437500
v -2.312500 -0.000000 0.437500
v -2.312500 -0.000000 0.312500
v -2.437500 -0.000000 0.437500
v -2.437500 1.000000 0.437500
v -2.437500 1.000000 0.312500
v -2.437500 -0.000000 0.312500
v -2.312500 0.500000 -0.437500
v -2.312500 0.500000 -0.312500
v -2.312500 0.000000 -0.312500
v -2.312500 0.000000 -0.437500
v -2.437500 0.000000 -0.312500
v -2.437500 0.500000 -0.312500
v -2.437500 0.500000 -0.437500
v -2.437500 0.000000 -0.437500
v 2.500000 0.518115 -0.450123
v 2.500000 1.193706 0.287154
v 2.500000 1.009386 0.456052
v 2.500000 0.333796 -0.281225
v -2.500000 1.009386 0.456052
v -2.500000 1.193706 0.287154
v -2.500000 0.518115 -0.450123
v -2.500000 0.333796 -0.281225
v -2.375000 1.063177 0.237219
v 2.375000 1.063177 0.237219
v 2.375000 0.556484 -0.315739
v -2.375000 0.556484 -0.315739
v 2.375000 1.109257 0.194995
v -2.375000 1.109257 0.194995
v 2.375000 0.602564 -0.357963
v -2.375000 0.602564 -0.357963
v 0.125000 0.312500 -0.375000
v 0.125000 0.312500 -0.125000
v 0.125000 0.062500 -0.125000
v 0.125000 0.062500 -0.375000
v -0.125000 0.062500 -0.375000
v -0.125000 0.062500 -0.125000
v -0.125000 0.312500 -0.125000
v -0.125000 0.312500 -0.375000
v 0.125000 0.312500 0.375000
v 0.125000 0.312500 0.125000
v -0.125000 0.312500 0.125000
v -0.125000 0.312500 0.375000
v -0.125000 0.062500 0.125000
v -0.125000 0.062500 0.375000
v 0.125000 0.062500 0.125000
v 0.125000 0.062500 0.375000
v 0.125000 0.500000 -0.125000
v 0.125000 0.750000 0.125000
v -0.125000 0.500000 -0.125000
v -0.125000 0.750000 0.125000
v -0.187500 0.375000 -0.375000
v -0.187500 0.375000 -0.500000
v -0.187500 0.000000 -0.500000
v -0.187500 0.000000 -0.375000
v 0.187500 0.000000 -0.500000
v 0.187500 0.375000 -0.500000
v 0.187500 0.375000 -0.375000
v 0.187500 0.000000 -0.375000
v -0.125000 0.312500 -0.375000
v 0.125000 0.312500 -0.375000
v -0.125000 0.062500 -0.375000
v 0.125000 0.062500 -0.375000
v 0.187500 0.375000 0.375000
v 0.187500 0.375000 0.500000
v 0.187500 -0.000000 0.500000
v 0.187500 -0.000000 0.375000
v -0.187500 -0.000000 0.500000
v -0.187500 0.375000 0.500000
v -0.187500 0.375000 0.375000
v -0.187500 -0.000000 0.375000
v 0.125000 0.312500 0.375000
v -0.125000 0.312500 0.375000
v 0.125000 0.062500 0.375000
v -0.125000 0.062500 0.375000
vn 1.0000 -0.0000 -0.0000
vn -1.0000 -0.0000 -0.0000
vn -0.0000 1.0000 -0.0000
vn -0.0000 -1.0000 -0.0000
vn -0.0000 -0.0000 1.0000
vn -0.0000 -0.0000 -1.0000
vn -0.0000 0.7373 -0.6756
vn -0.0000 -0.7373 0.6756
vn -0.0000 0.6756 0.7373
vn -0.0000 -0.6756 -0.7373
vt 1.000000 0.277778
vt 0.988889 0.277778
vt 1.000000 0.000000
vt 0.988889 0.000000
vt 0.977778 0.000000
vt 0.988889 0.277778
vt 0.988889 0.000000
vt 0.977778 0.277778
vt 0.977778 0.000000
vt 0.977778 0.277778
vt 0.977778 0.000000
vt 1.000000 0.000000
vt 1.000000 0.277778
vt 0.977778 0.277778
vt 0.977778 0.277778
vt 0.977778 0.000000
vt 0.955556 0.444444
vt 0.977778 0.444444
vt 0.977778 0.000000
vt 0.955556 0.444444
vt 0.955556 0.388889
vt 0.955556 0.000000
vt 0.977778 0.000000
vt 0.933333 0.444444
vt 0.966667 0.000000
vt 0.977778 0.444444
vt 0.966667 0.444444
vt 0.966667 0.444444
vt 0.955556 0.444444
vt 0.955556 0.000000
vt 0.933333 0.388889
vt 0.966667 0.000000
vt 0.933333 0.222222
vt 0.955556 0.222222
vt 0.955556 0.000000
vt 0.933333 0.361111
vt 0.933333 0.416667
vt 0.933333 0.000000
vt 0.955556 0.000000
vt 0.955556 0.361111
vt 0.944444 0.000000
vt 0.955556 0.222222
vt 0.944444 0.222222
vt 0.944444 0.222222
vt 0.933333 0.222222
vt 0.933333 0.000000
vt 0.955556 0.416667
vt 0.944444 0.000000
vt 1.000000 0.277778
vt 0.988889 0.277778
vt 1.000000 0.000000
vt 0.988889 0.000000
vt 0.977778 0.000000
vt 0.988889 0.277778
vt 0.988889 0.000000
vt 0.977778 0.277778
vt 0.977778 0.000000
vt 0.977778 0.277778
vt 0.977778 0.000000
vt 1.000000 0.000000
vt 1.000000 0.277778
vt 0.977778 0.277778
vt 0.977778 0.277778
vt 0.977778 0.000000
vt 0.955556 0.444444
vt 0.977778 0.444444
vt 0.977778 0.000000
vt 0.955556 0.444444
vt 0.955556 0.388889
vt 0.955556 0.000000
vt 0.977778 0.000000
vt 0.933333 0.444444
vt 0.966667 0.000000
vt 0.977778 0.444444
vt 0.966667 0.444444
vt 0.966667 0.444444
vt 0.955556 0.444444
vt 0.955556 0.000000
vt 0.933333 0.388889
vt 0.966667 0.000000
vt 0.933333 0.222222
vt 0.955556 0.222222
vt 0.955556 0.000000
vt 0.933333 0.361111
vt 0.933333 0.416667
vt 0.933333 0.000000
vt 0.955556 0.000000
vt 0.955556 0.361111
vt 0.944444 0.000000
vt 0.955556 0.222222
vt 0.944444 0.222222
vt 0.944444 0.222222
vt 0.933333 0.222222
vt 0.933333 0.000000
vt 0.955556 0.416667
vt 0.944444 0.000000
vt 1.000000 0.277778
vt 0.988889 0.277778
vt 1.000000 0.000000
vt 0.988889 0.000000
vt 0.977778 0.000000
vt 0.988889 0.277778
vt 0.988889 0.000000
vt 0.977778 0.277778
vt 0.977778 0.000000
vt 0.977778 0.277778
vt 0.977778 0.000000
vt 1.000000 0.000000
vt 1.000000 0.277778
vt 0.977778 0.277778
vt 0.977778 0.277778
vt 0.977778 0.000000
vt 0.955556 0.444444
vt 0.977778 0.444444
vt 0.977778 0.000000
vt 0.955556 0.444444
vt 0.955556 0.388889
vt 0.955556 0.000000
vt 0.977778 0.000000
vt 0.933333 0.444444
vt 0.966667 0.000000
vt 0.977778 0.444444
vt 0.966667 0.444444
vt 0.966667 0.444444
vt 0.955556 0.444444
vt 0.955556 0.000000
vt 0.933333 0.388889
vt 0.966667 0.000000
vt 0.933333 0.222222
vt 0.955556 0.222222
vt 0.955556 0.000000
vt 0.933333 0.361111
vt 0.933333 0.416667
vt 0.933333 0.000000
vt 0.955556 0.000000
vt 0.955556 0.361111
vt 0.944444 0.000000
vt 0.955556 0.222222
vt 0.944444 0.222222
vt 0.944444 0.222222
vt 0.933333 0.222222
vt 0.933333 0.000000
vt 0.955556 0.416667
vt 0.944444 0.000000
vt 1.000000 0.277778
vt 0.988889 0.277778
vt 1.000000 0.000000
vt 0.988889 0.000000
vt 0.977778 0.000000
vt 0.988889 0.277778
vt 0.988889 0.000000
vt 0.977778 0.277778
vt 0.977778 0.000000
vt 0.977778 0.277778
vt 0.977778 0.000000
vt 1.000000 0.000000
vt 1.000000 0.277778
vt 0.977778 0.277778
vt 0.977778 0.277778
vt 0.977778 0.000000
vt 0.955556 0.444444
vt 0.977778 0.444444
vt 0.977778 0.000000
vt 0.955556 0.444444
vt 0.955556 0.388889
vt 0.955556 0.000000
vt 0.977778 0.000000
vt 0.933333 0.444444
vt 0.966667 0.000000
vt 0.977778 0.444444
vt 0.966667 0.444444
vt 0.966667 0.444444
vt 0.955556 0.444444
vt 0.955556 0.000000
vt 0.933333 0.388889
vt 0.966667 0.000000
vt 0.933333 0.222222
vt 0.955556 0.222222
vt 0.955556 0.000000
vt 0.933333 0.361111
vt 0.933333 0.416667
vt 0.933333 0.000000
vt 0.955556 0.000000
vt 0.955556 0.361111
vt 0.944444 0.000000
vt 0.955556 0.222222
vt 0.944444 0.222222
vt 0.944444 0.222222
vt 0.933333 0.222222
vt 0.933333 0.000000
vt 0.955556 0.416667
vt 0.944444 0.000000
vt 0.888889 0.444444
vt 0.000000 0.000000
vt 0.888889 0.000000
vt 0.000000 0.444444
vt 0.000000 0.555556
vt 0.933333 0.000000
vt 0.888889 1.000000
vt 0.933333 0.444444
vt 0.888889 0.555556
vt 0.933333 0.444444
vt 0.000000 1.000000
vt 0.888889 0.555556
vt 0.888889 0.444444
vt 0.000000 0.444444
vt 0.888889 0.000000
vt 0.933333 0.000000
vt 0.000000 0.555556
vt 0.022222 0.055556
vt 0.877778 0.055556
vt 0.866667 0.388889
vt 0.866667 0.055556
vt 0.022222 0.388889
vt 0.866667 0.388889
vt 0.022222 0.055556
vt 0.866667 0.027778
vt 0.022222 0.027778
vt 0.022222 0.388889
vt 0.877778 0.388889
vt 0.022222 0.388889
vt 0.022222 0.416667
vt 0.011111 0.388889
vt 0.866667 0.388889
vt 0.866667 0.416667
vt 0.866667 0.055556
vt 0.011111 0.055556
vt 0.022222 0.055556
vt 0.866667 0.055556
vt 0.866667 0.055556
vt 0.022222 0.055556
vt 0.866667 0.388889
vt 0.933333 0.777778
vt 0.933333 0.666667
vt 0.888889 0.666667
vt 0.933333 0.888889
vt 0.888889 0.777778
vt 0.888889 0.666667
vt 0.933333 0.777778
vt 0.933333 0.666667
vt 0.933333 0.666667
vt 0.933333 0.777778
vt 0.888889 0.666667
vt 0.888889 0.777778
vt 0.933333 0.888889
vt 0.888889 0.888889
vt 0.888889 0.666667
vt 0.888889 0.777778
vt 0.933333 0.777778
vt 0.933333 0.777778
vt 0.933333 0.666667
vt 0.888889 0.888889
vt 0.888889 0.777778
vt 0.888889 0.666667
vt 0.933333 0.888889
vt 0.888889 0.666667
vt 0.888889 0.777778
vt 0.933333 0.777778
vt 0.933333 0.666667
vt 0.888889 0.888889
vt 0.888889 0.666667
vt 0.933333 0.777778
vt 0.888889 0.777778
vt 0.933333 0.777778
vt 0.933333 0.666667
vt 0.888889 0.666667
vt 0.888889 0.777778
vt 0.933333 0.777778
vt 0.933333 0.666667
vt 0.922222 0.666667
vt 0.922222 0.777778
vt 0.966667 0.666667
vt 0.966667 0.777778
vt 0.922222 0.666667
vt 0.922222 0.777778
vt 0.966667 0.666667
vt 0.966667 0.777778
vt 0.977778 0.638889
vt 0.966667 0.666667
vt 0.900000 0.666667
vt 0.888889 0.638889
vt 0.966667 0.638889
vt 0.966667 0.472222
vt 0.966667 0.444444
vt 0.977778 0.472222
vt 0.888889 0.472222
vt 0.900000 0.458333
vt 0.900000 0.472222
vt 0.900000 0.638889
vt 0.888889 0.638889
vt 0.900000 0.666667
vt 0.966667 0.666667
vt 0.972222 0.638889
vt 0.888889 0.472222
vt 0.900000 0.444444
vt 0.966667 0.458333
vt 0.972222 0.472222
vt 0.916667 0.625000
vt 0.905556 0.597222
vt 0.955556 0.597222
vt 0.950000 0.625000
vt 0.905556 0.513889
vt 0.916667 0.500000
vt 0.950000 0.500000
vt 0.955556 0.513889
vt 0.977778 0.638889
vt 0.966667 0.666667
vt 0.900000 0.666667
vt 0.888889 0.638889
vt 0.966667 0.638889
vt 0.966667 0.472222
vt 0.966667 0.444444
vt 0.977778 0.472222
vt 0.888889 0.472222
vt 0.900000 0.458333
vt 0.900000 0.472222
vt 0.900000 0.638889
vt 0.888889 0.638889
vt 0.900000 0.666667
vt 0.966667 0.666667
vt 0.972222 0.638889
vt 0.888889 0.472222
vt 0.900000 0.444444
vt 0.966667 0.458333
vt 0.972222 0.472222
vt 0.916667 0.625000
vt 0.905556 0.597222
vt 0.955556 0.597222
vt 0.950000 0.625000
vt 0.905556 0.513889
vt 0.916667 0.500000
vt 0.950000 0.500000
vt 0.955556 0.513889
s 0
usemtl 
f 2/3/1 4/8/1 1/1/1
f 6/12/2 8/15/2 5/9/2
f 2/4/3 7/14/3 6/11/3
f 3/6/4 8/16/4 4/7/4
f 10/18/1 12/22/1 9/17/1
f 14/26/2 16/30/2 13/23/2
f 11/20/4 16/31/4 12/21/4
f 10/18/5 13/25/5 11/19/5
f 9/17/6 16/32/6 15/28/6
f 18/34/1 20/38/1 17/33/1
f 22/42/2 24/46/2 21/39/2
f 19/36/4 24/47/4 20/37/4
f 18/34/5 21/41/5 19/35/5
f 17/33/6 24/48/6 23/44/6
f 26/51/1 28/56/1 25/49/1
f 30/60/2 32/63/2 29/57/2
f 26/52/3 31/62/3 30/59/3
f 27/54/4 32/64/4 28/55/4
f 34/66/1 36/70/1 33/65/1
f 38/74/2 40/78/2 37/71/2
f 35/68/4 40/79/4 36/69/4
f 34/66/5 37/73/5 35/67/5
f 33/65/6 40/80/6 39/76/6
f 42/82/1 44/86/1 41/81/1
f 46/90/2 48/94/2 45/87/2
f 43/84/4 48/95/4 44/85/4
f 42/82/5 45/89/5 43/83/5
f 41/81/6 48/96/6 47/92/6
f 50/99/1 52/104/1 49/97/1
f 54/108/2 56/111/2 53/105/2
f 50/100/3 55/110/3 54/107/3
f 51/102/4 56/112/4 52/103/4
f 58/114/1 60/118/1 57/113/1
f 62/122/2 64/126/2 61/119/2
f 59/116/4 64/127/4 60/117/4
f 58/114/5 61/121/5 59/115/5
f 57/113/6 64/128/6 63/124/6
f 66/130/1 68/134/1 65/129/1
f 70/138/2 72/142/2 69/135/2
f 67/132/4 72/143/4 68/133/4
f 66/130/5 69/137/5 67/131/5
f 65/129/6 72/144/6 71/140/6
f 74/147/1 76/152/1 73/145/1
f 78/156/2 80/159/2 77/153/2
f 74/148/3 79/158/3 78/155/3
f 75/150/4 80/160/4 76/151/4
f 82/162/1 84/166/1 81/161/1
f 86/170/2 88/174/2 85/167/2
f 83/164/4 88/175/4 84/165/4
f 82/162/5 85/169/5 83/163/5
f 81/161/6 88/176/6 87/172/6
f 90/178/1 92/182/1 89/177/1
f 94/186/2 96/190/2 93/183/2
f 91/180/4 96/191/4 92/181/4
f 90/178/5 93/185/5 91/179/5
f 89/177/6 96/192/6 95/188/6
f 98/195/1 100/200/1 97/193/1
f 102/205/2 104/208/2 101/202/2
f 106/213/7 108/219/7 105/210/7
f 99/199/8 104/209/8 100/201/8
f 98/196/9 101/204/9 99/197/9
f 97/193/10 104/209/10 103/206/10
f 110/224/7 98/196/7 109/221/7
f 109/221/7 97/194/7 111/228/7
f 111/228/7 103/207/7 112/230/7
f 112/230/7 102/205/7 110/224/7
f 105/212/10 109/222/10 106/214/10
f 107/216/2 109/223/2 111/227/2
f 107/217/9 112/231/9 108/218/9
f 108/220/1 110/226/1 105/211/1
f 114/237/1 116/240/1 113/233/1
f 118/243/2 120/249/2 117/241/2
f 119/248/3 113/234/3 120/249/3
f 115/238/4 117/242/4 116/240/4
f 122/253/3 124/259/3 121/250/3
f 123/257/2 126/265/2 124/258/2
f 119/246/2 125/262/2 123/255/2
f 125/263/4 128/269/4 126/264/4
f 118/245/4 127/267/4 125/260/4
f 127/267/1 121/251/1 128/268/1
f 115/239/1 122/252/1 127/267/1
f 129/270/1 122/253/1 114/235/1
f 129/271/6 119/247/6 131/274/6
f 131/275/2 123/256/2 132/276/2
f 132/277/5 122/254/5 130/272/5
f 134/282/2 136/285/2 133/278/2
f 138/289/1 140/294/1 137/288/1
f 134/282/3 139/291/3 138/289/3
f 135/283/4 140/295/4 136/284/4
f 134/282/6 137/288/6 135/283/6
f 142/301/5 133/280/5 141/298/5
f 141/299/5 136/286/5 143/302/5
f 143/303/5 140/296/5 144/304/5
f 144/305/5 139/293/5 142/300/5
f 146/310/1 148/313/1 145/306/1
f 150/317/2 152/322/2 149/316/2
f 146/310/3 151/319/3 150/317/3
f 147/311/4 152/323/4 148/312/4
f 146/310/5 149/316/5 147/311/5
f 154/329/6 145/308/6 153/326/6
f 153/327/6 148/314/6 155/330/6
f 155/331/6 152/324/6 156/332/6
f 156/333/6 151/321/6 154/328/6
f 2/3/1 3/5/1 4/8/1
f 6/12/2 7/13/2 8/15/2
f 2/4/3 1/2/3 7/14/3
f 3/6/4 5/10/4 8/16/4
f 10/18/1 11/19/1 12/22/1
f 14/26/2 15/29/2 16/30/2
f 11/20/4 13/24/4 16/31/4
f 10/18/5 14/27/5 13/25/5
f 9/17/6 12/22/6 16/32/6
f 18/34/1 19/35/1 20/38/1
f 22/42/2 23/45/2 24/46/2
f 19/36/4 21/40/4 24/47/4
f 18/34/5 22/43/5 21/41/5
f 17/33/6 20/38/6 24/48/6
f 26/51/1 27/53/1 28/56/1
f 30/60/2 31/61/2 32/63/2
f 26/52/3 25/50/3 31/62/3
f 27/54/4 29/58/4 32/64/4
f 34/66/1 35/67/1 36/70/1
f 38/74/2 39/77/2 40/78/2
f 35/68/4 37/72/4 40/79/4
f 34/66/5 38/75/5 37/73/5
f 33/65/6 36/70/6 40/80/6
f 42/82/1 43/83/1 44/86/1
f 46/90/2 47/93/2 48/94/2
f 43/84/4 45/88/4 48/95/4
f 42/82/5 46/91/5 45/89/5
f 41/81/6 44/86/6 48/96/6
f 50/99/1 51/101/1 52/104/1
f 54/108/2 55/109/2 56/111/2
f 50/100/3 49/98/3 55/110/3
f 51/102/4 53/106/4 56/112/4
f 58/114/1 59/115/1 60/118/1
f 62/122/2 63/125/2 64/126/2
f 59/116/4 61/120/4 64/127/4
f 58/114/5 62/123/5 61/121/5
f 57/113/6 60/118/6 64/128/6
f 66/130/1 67/131/1 68/134/1
f 70/138/2 71/141/2 72/142/2
f 67/132/4 69/136/4 72/143/4
f 66/130/5 70/139/5 69/137/5
f 65/129/6 68/134/6 72/144/6
f 74/147/1 75/149/1 76/152/1
f 78/156/2 79/157/2 80/159/2
f 74/148/3 73/146/3 79/158/3
f 75/150/4 77/154/4 80/160/4
f 82/162/1 83/163/1 84/166/1
f 86/170/2 87/173/2 88/174/2
f 83/164/4 85/168/4 88/175/4
f 82/162/5 86/171/5 85/169/5
f 81/161/6 84/166/6 88/176/6
f 90/178/1 91/179/1 92/182/1
f 94/186/2 95/189/2 96/190/2
f 91/180/4 93/184/4 96/191/4
f 90/178/5 94/187/5 93/185/5
f 89/177/6 92/182/6 96/192/6
f 98/195/1 99/198/1 100/200/1
f 102/205/2 103/207/2 104/208/2
f 106/213/7 107/215/7 108/219/7
f 99/199/8 101/203/8 104/209/8
f 98/196/9 102/205/9 101/204/9
f 97/193/10 100/201/10 104/209/10
f 110/224/7 102/205/7 98/196/7
f 109/221/7 98/196/7 97/194/7
f 111/228/7 97/194/7 103/207/7
f 112/230/7 103/207/7 102/205/7
f 105/212/10 110/225/10 109/222/10
f 107/216/2 106/214/2 109/223/2
f 107/217/9 111/229/9 112/231/9
f 108/220/1 112/232/1 110/226/1
f 114/237/1 115/238/1 116/240/1
f 118/243/2 119/248/2 120/249/2
f 119/248/3 114/235/3 113/234/3
f 115/238/4 118/244/4 117/242/4
f 122/253/3 123/256/3 124/259/3
f 123/257/2 125/261/2 126/265/2
f 119/246/2 118/244/2 125/262/2
f 125/263/4 127/266/4 128/269/4
f 118/245/4 115/239/4 127/267/4
f 127/267/1 122/254/1 121/251/1
f 115/239/1 114/236/1 122/252/1
f 129/270/1 130/273/1 122/253/1
f 129/271/6 114/237/6 119/247/6
f 131/275/2 119/248/2 123/256/2
f 132/277/5 123/257/5 122/254/5
f 134/282/2 135/283/2 136/285/2
f 138/289/1 139/290/1 140/294/1
f 134/282/3 133/279/3 139/291/3
f 135/283/4 137/288/4 140/295/4
f 134/282/6 138/289/6 137/288/6
f 142/301/5 139/292/5 133/280/5
f 141/299/5 133/281/5 136/286/5
f 143/303/5 136/287/5 140/296/5
f 144/305/5 140/297/5 139/293/5
f 146/310/1 147/311/1 148/313/1
f 150/317/2 151/318/2 152/322/2
f 146/310/3 145/307/3 151/319/3
f 147/311/4 149/316/4 152/323/4
f 146/310/5 150/317/5 149/316/5
f 154/329/6 151/320/6 145/308/6
f 153/327/6 145/309/6 148/314/6
f 155/331/6 148/315/6 152/324/6
f 156/333/6 152/325/6 151/321/6
