# Blender 3.4.1
# www.blender.org
mtllib solar_panel.mtl
o cuboid
v -0.312500 0.875000 0.375000
v -0.312500 0.875000 0.250000
v -0.312500 0.125000 0.375000
v -0.312500 0.125000 0.250000
v -0.437500 0.875000 0.375000
v -0.437500 0.875000 0.250000
v -0.437500 0.125000 0.375000
v -0.437500 0.125000 0.250000
v -0.312500 0.500000 -0.125000
v -0.312500 0.375000 -0.250000
v -0.312500 0.125000 -0.125000
v -0.312500 0.125000 -0.250000
v -0.437500 0.500000 -0.125000
v -0.437500 0.375000 -0.250000
v -0.437500 0.125000 -0.125000
v -0.437500 0.125000 -0.250000
v 0.437500 0.875000 0.375000
v 0.437500 0.875000 0.250000
v 0.437500 0.125000 0.375000
v 0.437500 0.125000 0.250000
v 0.312500 0.875000 0.375000
v 0.312500 0.875000 0.250000
v 0.312500 0.125000 0.375000
v 0.312500 0.125000 0.250000
v 0.437500 0.500000 -0.125000
v 0.437500 0.375000 -0.250000
v 0.437500 0.125000 -0.125000
v 0.437500 0.125000 -0.250000
v 0.312500 0.500000 -0.125000
v 0.312500 0.375000 -0.250000
v 0.312500 0.125000 -0.125000
v 0.312500 0.125000 -0.250000
v 2.437500 0.875000 0.375000
v 2.437500 0.875000 0.250000
v 2.437500 0.125000 0.375000
v 2.437500 0.125000 0.250000
v 2.312500 0.875000 0.375000
v 2.312500 0.875000 0.250000
v 2.312500 0.125000 0.375000
v 2.312500 0.125000 0.250000
v 2.437500 0.500000 -0.125000
v 2.437500 0.375000 -0.250000
v 2.437500 0.125000 -0.125000
v 2.437500 0.125000 -0.250000
v 2.312500 0.500000 -0.125000
v 2.312500 0.375000 -0.250000
v 2.312500 0.125000 -0.125000
v 2.312500 0.125000 -0.250000
v -2.312500 0.875000 0.375000
v -2.312500 0.875000 0.250000
v -2.312500 0.125000 0.375000
v -2.312500 0.125000 0.250000
v -2.437500 0.875000 0.375000
v -2.437500 0.875000 0.250000
v -2.437500 0.125000 0.375000
v -2.437500 0.125000 0.250000
v -2.312500 0.500000 -0.125000
v -2.312500 0.375000 -0.250000
v -2.312500 0.125000 -0.125000
v -2.312500 0.125000 -0.250000
v -2.437500 0.500000 -0.125000
v -2.437500 0.375000 -0.250000
v -2.437500 0.125000 -0.125000
v -2.437500 0.125000 -0.250000
v 0.125000 0.625000 0.375000
v 0.125000 0.625000 0.000000
v 0.125000 0.375000 0.375000
v 0.125000 0.375000 -0.250000
v -0.125000 0.625000 0.375000
v -0.125000 0.625000 0.000000
v -0.125000 0.375000 0.375000
v -0.125000 0.375000 -0.250000
v 0.187500 0.687500 0.500000
v 0.187500 0.687500 0.375000
v 0.187500 0.312500 0.500000
v 0.187500 0.312500 0.375000
v -0.187500 0.687500 0.500000
v -0.187500 0.687500 0.375000
v -0.187500 0.312500 0.500000
v -0.187500 0.312500 0.375000
v 2.500000 0.125000 0.437500
v 2.500000 0.125000 -0.437500
v 2.500000 -0.000000 0.437500
v 2.500000 0.000000 -0.437500
v -2.500000 0.125000 0.437500
v -2.500000 0.125000 -0.437500
v -2.500000 -0.000000 0.437500
v -2.500000 0.000000 -0.437500
v 2.500000 1.066942 0.265165
v 2.500000 0.359835 -0.441942
v 2.500000 0.890165 0.441942
v 2.500000 0.183058 -0.265165
v -2.500000 1.066942 0.265165
v -2.500000 0.359835 -0.441942
v -2.500000 0.890165 0.441942
v -2.500000 0.183058 -0.265165
v 2.375000 0.978553 0.176777
v 2.375000 0.448223 -0.353553
v -2.375000 0.978553 0.176777
v -2.375000 0.448223 -0.353553
v 2.375000 0.934359 0.220971
v 2.375000 0.404029 -0.309359
v -2.375000 0.934359 0.220971
v -2.375000 0.404029 -0.309359
v 2.375000 0.801777 0.353554
v -2.375000 0.801777 0.353554
v 2.375000 0.271447 -0.176777
v -2.375000 0.271447 -0.176777
v 2.375000 0.845971 0.309359
v -2.375000 0.845971 0.309359
v 2.375000 0.315641 -0.220971
v -2.375000 0.315641 -0.220971
vn 1.0000 -0.0000 -0.0000
vn -1.0000 -0.0000 -0.0000
vn -0.0000 -0.0000 1.0000
vn -0.0000 -0.0000 -1.0000
vn -0.0000 1.0000 -0.0000
vn -0.0000 -1.0000 -0.0000
vn -0.0000 0.7071 -0.7071
vn -0.0000 -0.7071 0.7071
vn -0.0000 0.7071 0.7071
vn -0.0000 -0.7071 -0.7071
vt 0.933333 0.807692
vt 0.955556 0.807692
vt 0.955556 0.807692
vt 0.933333 0.807692
vt 0.955556 0.576923
vt 0.933333 0.576923
vt 0.955556 0.576923
vt 0.933333 0.576923
vt 0.955556 0.807692
vt 0.933333 0.807692
vt 0.955556 0.807692
vt 0.933333 0.807692
vt 0.955556 0.576923
vt 0.933333 0.576923
vt 0.933333 0.576923
vt 0.955556 0.576923
vt 0.955556 0.807692
vt 0.977778 0.807692
vt 0.977778 0.769231
vt 0.955556 0.769231
vt 0.977778 0.692308
vt 0.955556 0.692308
vt 0.977778 0.692308
vt 0.955556 0.692308
vt 0.977778 0.807692
vt 0.955556 0.807692
vt 0.977778 0.769231
vt 0.955556 0.769231
vt 0.977778 0.692308
vt 0.955556 0.692308
vt 0.955556 0.692308
vt 0.977778 0.692308
vt 0.933333 0.807692
vt 0.955556 0.807692
vt 0.955556 0.807692
vt 0.933333 0.807692
vt 0.955556 0.576923
vt 0.933333 0.576923
vt 0.955556 0.576923
vt 0.933333 0.576923
vt 0.955556 0.807692
vt 0.933333 0.807692
vt 0.955556 0.807692
vt 0.933333 0.807692
vt 0.955556 0.576923
vt 0.933333 0.576923
vt 0.933333 0.576923
vt 0.955556 0.576923
vt 0.955556 0.807692
vt 0.977778 0.807692
vt 0.977778 0.769231
vt 0.955556 0.769231
vt 0.977778 0.692308
vt 0.955556 0.692308
vt 0.977778 0.692308
vt 0.955556 0.692308
vt 0.977778 0.807692
vt 0.955556 0.807692
vt 0.977778 0.769231
vt 0.955556 0.769231
vt 0.977778 0.692308
vt 0.955556 0.692308
vt 0.955556 0.692308
vt 0.977778 0.692308
vt 0.933333 0.807692
vt 0.955556 0.807692
vt 0.955556 0.807692
vt 0.933333 0.807692
vt 0.955556 0.576923
vt 0.933333 0.576923
vt 0.955556 0.576923
vt 0.933333 0.576923
vt 0.955556 0.807692
vt 0.933333 0.807692
vt 0.955556 0.807692
vt 0.933333 0.807692
vt 0.955556 0.576923
vt 0.933333 0.576923
vt 0.933333 0.576923
vt 0.955556 0.576923
vt 0.955556 0.807692
vt 0.977778 0.807692
vt 0.977778 0.769231
vt 0.955556 0.769231
vt 0.977778 0.692308
vt 0.955556 0.692308
vt 0.977778 0.692308
vt 0.955556 0.692308
vt 0.977778 0.807692
vt 0.955556 0.807692
vt 0.977778 0.769231
vt 0.955556 0.769231
vt 0.977778 0.692308
vt 0.955556 0.692308
vt 0.955556 0.692308
vt 0.977778 0.692308
vt 0.933333 0.807692
vt 0.955556 0.807692
vt 0.955556 0.807692
vt 0.933333 0.807692
vt 0.955556 0.576923
vt 0.933333 0.576923
vt 0.955556 0.576923
vt 0.933333 0.576923
vt 0.955556 0.807692
vt 0.933333 0.807692
vt 0.955556 0.807692
vt 0.933333 0.807692
vt 0.955556 0.576923
vt 0.933333 0.576923
vt 0.933333 0.576923
vt 0.955556 0.576923
vt 0.955556 0.807692
vt 0.977778 0.807692
vt 0.977778 0.769231
vt 0.955556 0.769231
vt 0.977778 0.692308
vt 0.955556 0.692308
vt 0.977778 0.692308
vt 0.955556 0.692308
vt 0.977778 0.807692
vt 0.955556 0.807692
vt 0.977778 0.769231
vt 0.955556 0.769231
vt 0.977778 0.692308
vt 0.955556 0.692308
vt 0.955556 0.692308
vt 0.977778 0.692308
vt 0.888889 0.615385
vt 0.933333 0.615385
vt 0.888889 0.730769
vt 0.933333 0.730769
vt 0.933333 0.615385
vt 0.933333 0.807692
vt 0.888889 0.615385
vt 0.933333 0.615385
vt 0.933333 0.730769
vt 0.888889 0.730769
vt 0.888889 0.615385
vt 0.888889 0.807692
vt 0.977778 0.961538
vt 1.000000 0.961538
vt 0.977778 1.000000
vt 0.977778 0.961538
vt 0.977778 0.846154
vt 0.977778 0.807692
vt 1.000000 0.846154
vt 0.911111 0.961538
vt 0.911111 0.961538
vt 0.977778 0.846154
vt 0.888889 0.961538
vt 0.911111 1.000000
vt 0.911111 0.846154
vt 0.888889 0.846154
vt 0.911111 0.807692
vt 0.911111 0.846154
vt 0.911111 0.269231
vt 0.888889 0.000000
vt 0.888889 0.307692
vt 0.911111 0.000000
vt 0.888889 0.269231
vt 0.000000 0.307692
vt 0.888889 0.307692
vt 0.888889 0.269231
vt 0.888889 0.000000
vt 0.000000 0.307692
vt 0.000000 0.000000
vt 0.911111 0.000000
vt 0.000000 0.307692
vt 0.888889 0.307692
vt 0.911111 0.269231
vt 0.000000 0.269231
vt 0.888889 0.000000
vt 0.000000 0.269231
vt 0.000000 0.307692
vt 0.888889 0.269231
vt 0.000000 0.000000
vt 0.888889 0.307692
vt 0.888889 0.307692
vt 0.000000 0.615385
vt 0.888889 0.615385
vt 0.000000 0.307692
vt 0.000000 0.692308
vt 0.933333 0.307692
vt 0.888889 1.000000
vt 0.933333 0.615385
vt 0.888889 0.692308
vt 0.888889 0.615385
vt 0.000000 0.615385
vt 0.888889 0.307692
vt 0.933333 0.615385
vt 0.888889 0.692308
vt 0.000000 1.000000
vt 0.933333 0.307692
vt 0.000000 0.692308
vt 0.022222 0.576923
vt 0.022222 0.596154
vt 0.011111 0.576923
vt 0.022222 0.346154
vt 0.011111 0.346154
vt 0.866667 0.346154
vt 0.877778 0.576923
vt 0.866667 0.576923
vt 0.866667 0.596154
vt 0.866667 0.346154
vt 0.022222 0.346154
vt 0.877778 0.346154
vt 0.022222 0.576923
vt 0.022222 0.346154
vt 0.866667 0.326923
vt 0.866667 0.576923
vt 0.022222 0.326923
vt 0.866667 0.346154
vt 0.866667 0.730769
vt 0.866667 0.961538
vt 0.022222 0.961538
vt 0.022222 0.961538
vt 0.866667 0.961538
vt 0.011111 0.961538
vt 0.866667 0.730769
vt 0.866667 0.961538
vt 0.866667 0.711538
vt 0.011111 0.730769
vt 0.022222 0.730769
vt 0.022222 0.711538
vt 0.866667 0.961538
vt 0.877778 0.730769
vt 0.022222 0.980769
vt 0.866667 0.980769
vt 0.022222 0.961538
vt 0.866667 0.730769
vt 0.877778 0.961538
vt 0.022222 0.730769
s 0
usemtl 
f 1/1/1 4/7/1 2/3/1
f 5/9/2 8/15/2 7/13/2
f 1/2/3 7/14/3 3/5/3
f 2/4/4 8/16/4 6/11/4
f 10/19/1 11/22/1 12/23/1
f 15/29/2 14/28/2 16/31/2
f 9/18/3 15/30/3 11/21/3
f 10/20/4 16/32/4 14/27/4
f 17/33/1 20/39/1 18/35/1
f 21/41/2 24/47/2 23/45/2
f 17/34/3 23/46/3 19/37/3
f 18/36/4 24/48/4 22/43/4
f 26/51/1 27/54/1 28/55/1
f 31/61/2 30/60/2 32/63/2
f 25/50/3 31/62/3 27/53/3
f 26/52/4 32/64/4 30/59/4
f 33/65/1 36/71/1 34/67/1
f 37/73/2 40/79/2 39/77/2
f 33/66/3 39/78/3 35/69/3
f 34/68/4 40/80/4 38/75/4
f 42/83/1 43/86/1 44/87/1
f 47/93/2 46/92/2 48/95/2
f 41/82/3 47/94/3 43/85/3
f 42/84/4 48/96/4 46/91/4
f 49/97/1 52/103/1 50/99/1
f 53/105/2 56/111/2 55/109/2
f 49/98/3 55/110/3 51/101/3
f 50/100/4 56/112/4 54/107/4
f 58/115/1 59/118/1 60/119/1
f 63/125/2 62/124/2 64/127/2
f 57/114/3 63/126/3 59/117/3
f 58/116/4 64/128/4 62/123/4
f 66/131/1 67/133/1 68/134/1
f 71/139/2 70/137/2 72/140/2
f 65/130/5 70/138/5 69/135/5
f 67/133/6 72/140/6 68/134/6
f 73/141/1 76/147/1 74/142/1
f 77/149/2 80/154/2 79/153/2
f 73/141/5 78/152/5 77/149/5
f 75/145/6 80/155/6 76/146/6
f 73/141/3 79/153/3 75/145/3
f 74/144/4 80/156/4 78/150/4
f 81/157/1 84/165/1 82/160/1
f 85/168/2 88/176/2 87/173/2
f 81/158/5 86/172/5 85/167/5
f 83/164/6 88/177/6 84/165/6
f 81/159/3 87/175/3 83/163/3
f 82/162/4 88/178/4 86/170/4
f 89/179/1 92/186/1 90/181/1
f 93/188/2 96/194/2 95/191/2
f 101/208/7 104/213/7 103/211/7
f 109/226/8 112/233/8 111/231/8
f 89/180/9 95/192/9 91/183/9
f 90/181/10 96/195/10 94/189/10
f 99/203/7 89/180/7 97/196/7
f 98/199/7 89/180/7 90/182/7
f 98/199/7 94/190/7 100/205/7
f 100/205/7 93/188/7 99/203/7
f 103/211/10 97/197/10 101/208/10
f 101/208/2 98/200/2 102/209/2
f 102/210/9 100/206/9 104/212/9
f 103/211/1 100/207/1 99/202/1
f 107/220/8 91/185/8 105/215/8
f 105/215/8 95/193/8 106/217/8
f 106/217/8 96/195/8 108/224/8
f 108/224/8 92/187/8 107/220/8
f 109/227/2 107/221/2 105/214/2
f 109/228/10 106/218/10 110/229/10
f 112/233/1 106/219/1 108/223/1
f 112/233/9 107/222/9 111/231/9
f 1/1/1 3/6/1 4/7/1
f 5/9/2 6/12/2 8/15/2
f 1/2/3 5/10/3 7/14/3
f 2/4/4 4/8/4 8/16/4
f 10/19/1 9/17/1 11/22/1
f 15/29/2 13/25/2 14/28/2
f 9/18/3 13/26/3 15/30/3
f 10/20/4 12/24/4 16/32/4
f 17/33/1 19/38/1 20/39/1
f 21/41/2 22/44/2 24/47/2
f 17/34/3 21/42/3 23/46/3
f 18/36/4 20/40/4 24/48/4
f 26/51/1 25/49/1 27/54/1
f 31/61/2 29/57/2 30/60/2
f 25/50/3 29/58/3 31/62/3
f 26/52/4 28/56/4 32/64/4
f 33/65/1 35/70/1 36/71/1
f 37/73/2 38/76/2 40/79/2
f 33/66/3 37/74/3 39/78/3
f 34/68/4 36/72/4 40/80/4
f 42/83/1 41/81/1 43/86/1
f 47/93/2 45/89/2 46/92/2
f 41/82/3 45/90/3 47/94/3
f 42/84/4 44/88/4 48/96/4
f 49/97/1 51/102/1 52/103/1
f 53/105/2 54/108/2 56/111/2
f 49/98/3 53/106/3 55/110/3
f 50/100/4 52/104/4 56/112/4
f 58/115/1 57/113/1 59/118/1
f 63/125/2 61/121/2 62/124/2
f 57/114/3 61/122/3 63/126/3
f 58/116/4 60/120/4 64/128/4
f 66/131/1 65/129/1 67/133/1
f 71/139/2 69/136/2 70/137/2
f 65/130/5 66/132/5 70/138/5
f 67/133/6 71/139/6 72/140/6
f 73/141/1 75/145/1 76/147/1
f 77/149/2 78/151/2 80/154/2
f 73/141/5 74/143/5 78/152/5
f 75/145/6 79/153/6 80/155/6
f 73/141/3 77/149/3 79/153/3
f 74/144/4 76/148/4 80/156/4
f 81/157/1 83/164/1 84/165/1
f 85/168/2 86/171/2 88/176/2
f 81/158/5 82/161/5 86/172/5
f 83/164/6 87/174/6 88/177/6
f 81/159/3 85/169/3 87/175/3
f 82/162/4 84/166/4 88/178/4
f 89/179/1 91/184/1 92/186/1
f 93/188/2 94/190/2 96/194/2
f 101/208/7 102/209/7 104/213/7
f 109/226/8 110/230/8 112/233/8
f 89/180/9 93/188/9 95/192/9
f 90/181/10 92/187/10 96/195/10
f 99/203/7 93/188/7 89/180/7
f 98/199/7 97/196/7 89/180/7
f 98/199/7 90/182/7 94/190/7
f 100/205/7 94/190/7 93/188/7
f 103/211/10 99/204/10 97/197/10
f 101/208/2 97/198/2 98/200/2
f 102/210/9 98/201/9 100/206/9
f 103/211/1 104/213/1 100/207/1
f 107/220/8 92/187/8 91/185/8
f 105/215/8 91/185/8 95/193/8
f 106/217/8 95/193/8 96/195/8
f 108/224/8 96/195/8 92/187/8
f 109/227/2 111/232/2 107/221/2
f 109/228/10 105/216/10 106/218/10
f 112/233/1 110/230/1 106/219/1
f 112/233/9 108/225/9 107/222/9
