# Blender 3.4.1
# www.blender.org
mtllib spaceship_computer.mtl
o cuboid
v 0.500000 1.957763 0.073604
v 0.500000 1.903654 -0.170470
v 0.500000 1.225541 0.235934
v 0.500000 1.171432 -0.008140
v -0.500000 1.957763 0.073604
v -0.500000 1.903654 -0.170470
v -0.500000 1.225541 0.235934
v -0.500000 1.171432 -0.008140
v 0.187500 1.801763 0.236223
v -0.187500 1.801763 0.236223
v 0.187500 1.435652 0.317388
v -0.187500 1.435652 0.317388
vn 1.0000 -0.0000 -0.0000
vn -1.0000 -0.0000 -0.0000
vn -0.0000 0.9763 -0.2164
vn -0.0000 -0.9763 0.2164
vn -0.0000 0.2164 0.9763
vn -0.0000 -0.2164 -0.9763
vn 0.3714 0.2010 0.9065
vn -0.0000 0.7216 0.6923
vn -0.3714 0.2010 0.9065
vn -0.0000 -0.3615 0.9324
vt 0.583333 0.307692
vt 0.666667 0.076923
vt 1.000000 0.538462
vt 0.666667 0.000000
vt 0.666667 0.307692
vt 0.583333 0.076923
vt 0.666667 0.000000
vt 1.000000 0.307692
vt 0.666667 0.076923
vt 1.000000 0.076923
vt 0.666667 0.307692
vt 0.666667 0.538462
vt 1.000000 0.307692
vt 0.583333 0.307692
vt 1.000000 0.000000
vt 0.666667 0.076923
vt 1.000000 0.000000
vt 0.666667 0.307692
vt 0.583333 0.076923
vt 1.000000 0.076923
vt 0.895833 0.480769
vt 0.770833 0.480769
vt 0.895833 0.365385
vt 0.770833 0.365385
s 0
usemtl m_9f60b7d4-09bf-0be8-e3ce-0fad8f218b8e
f 2/5/1 3/6/1 4/9/1
f 7/16/2 6/14/2 8/19/2
f 1/2/3 6/15/3 5/10/3
f 3/7/4 8/20/4 4/9/4
f 9/21/5 12/24/5 11/23/5
f 2/5/6 8/20/6 6/13/6
f 11/23/7 1/3/7 9/21/7
f 9/21/8 5/12/8 10/22/8
f 10/22/9 7/18/9 12/24/9
f 12/24/10 3/8/10 11/23/10
f 2/5/1 1/1/1 3/6/1
f 7/16/2 5/11/2 6/14/2
f 1/2/3 2/4/3 6/15/3
f 3/7/4 7/17/4 8/20/4
f 9/21/5 10/22/5 12/24/5
f 2/5/6 4/9/6 8/20/6
f 11/23/7 3/8/7 1/3/7
f 9/21/8 1/3/8 5/12/8
f 10/22/9 5/12/9 7/18/9
f 12/24/10 7/18/10 3/8/10
o cuboid.001
v 0.062500 1.500000 0.437500
v 0.062500 1.500000 0.312500
v 0.062500 1.000000 0.437500
v 0.062500 1.000000 0.312500
v -0.062500 1.500000 0.437500
v -0.062500 1.500000 0.312500
v -0.062500 1.000000 0.437500
v -0.062500 1.000000 0.312500
v 0.062500 1.625000 0.375000
v 0.062500 1.625000 0.250000
v -0.062500 1.625000 0.375000
v -0.062500 1.625000 0.250000
v 0.062500 1.750000 0.250000
v -0.062500 1.750000 0.250000
v -0.125000 1.062500 0.437500
v -0.125000 1.062500 0.125000
v -0.125000 1.000000 0.437500
v -0.125000 1.000000 0.125000
v -0.437500 1.062500 0.437500
v -0.437500 1.062500 0.125000
v -0.437500 1.000000 0.437500
v -0.437500 1.000000 0.125000
v -0.125000 1.125000 0.375000
v -0.125000 1.125000 0.187500
v -0.437500 1.125000 0.375000
v -0.437500 1.125000 0.187500
v 0.437500 1.062500 0.437500
v 0.437500 1.062500 0.125000
v 0.437500 1.000000 0.437500
v 0.437500 1.000000 0.125000
v 0.125000 1.062500 0.437500
v 0.125000 1.062500 0.125000
v 0.125000 1.000000 0.437500
v 0.125000 1.000000 0.125000
v 0.437500 1.125000 0.375000
v 0.437500 1.125000 0.187500
v 0.125000 1.125000 0.375000
v 0.125000 1.125000 0.187500
v 0.500000 0.625000 -0.500000
v 0.500000 -0.000000 0.500000
v 0.500000 0.000000 -0.500000
v -0.500000 0.625000 -0.500000
v -0.500000 -0.000000 0.500000
v -0.500000 0.000000 -0.500000
v 0.500000 1.000000 0.500000
v -0.500000 1.000000 0.500000
v 0.500000 1.000000 0.000000
v -0.500000 1.000000 0.000000
v -0.437500 0.625000 -0.500000
v 0.437500 0.625000 -0.500000
v -0.437500 1.000000 0.000000
v 0.437500 1.000000 0.000000
v 0.437500 0.625000 0.000000
v -0.437500 0.625000 0.000000
vn 1.0000 -0.0000 -0.0000
vn -1.0000 -0.0000 -0.0000
vn -0.0000 -0.0000 1.0000
vn -0.0000 -0.0000 -1.0000
vn -0.0000 0.4472 0.8944
vn -0.0000 -0.4472 -0.8944
vn -0.0000 0.7071 0.7071
vn -0.0000 1.0000 -0.0000
vn -0.0000 0.7071 -0.7071
vn -0.0000 -1.0000 -0.0000
vn -0.0000 0.8000 -0.6000
vt 0.458333 0.326923
vt 0.500000 0.326923
vt 0.333333 0.326923
vt 0.458333 0.173077
vt 0.500000 0.173077
vt 0.333333 0.173077
vt 0.416667 0.326923
vt 0.375000 0.326923
vt 0.416667 0.173077
vt 0.375000 0.173077
vt 0.458333 0.365385
vt 0.500000 0.365385
vt 0.333333 0.365385
vt 0.416667 0.365385
vt 0.375000 0.365385
vt 0.458333 0.403846
vt 0.416667 0.403846
vt 0.541667 0.096154
vt 0.333333 0.096154
vt 0.437500 0.096154
vt 0.541667 0.096154
vt 0.541667 0.076923
vt 0.333333 0.076923
vt 0.437500 0.076923
vt 0.541667 0.076923
vt 0.437500 0.096154
vt 0.437500 0.096154
vt 0.333333 0.096154
vt 0.437500 0.076923
vt 0.333333 0.076923
vt 0.437500 0.076923
vt 0.541667 0.115385
vt 0.354167 0.115385
vt 0.416667 0.115385
vt 0.541667 0.173077
vt 0.541667 0.115385
vt 0.416667 0.115385
vt 0.437500 0.115385
vt 0.437500 0.115385
vt 0.437500 0.173077
vt 0.354167 0.115385
vt 0.541667 0.096154
vt 0.333333 0.096154
vt 0.437500 0.096154
vt 0.541667 0.096154
vt 0.541667 0.076923
vt 0.333333 0.076923
vt 0.437500 0.076923
vt 0.541667 0.076923
vt 0.437500 0.096154
vt 0.437500 0.096154
vt 0.333333 0.096154
vt 0.437500 0.076923
vt 0.333333 0.076923
vt 0.437500 0.076923
vt 0.541667 0.115385
vt 0.354167 0.115385
vt 0.416667 0.115385
vt 0.541667 0.173077
vt 0.541667 0.115385
vt 0.416667 0.115385
vt 0.437500 0.115385
vt 0.437500 0.115385
vt 0.437500 0.173077
vt 0.354167 0.115385
vt 0.666667 0.884615
vt 0.000000 0.846154
vt 0.312500 0.846154
vt 0.333333 0.692308
vt 0.333333 0.346154
vt 0.333333 0.038462
vt 0.000000 0.653846
vt 0.666667 0.692308
vt 0.333333 0.846154
vt 0.666667 0.884615
vt 0.020833 0.846154
vt 1.000000 0.692308
vt 0.000000 0.346154
vt 0.333333 0.653846
vt 0.000000 0.038462
vt 0.666667 0.692308
vt 0.666667 0.692308
vt 0.333333 0.653846
vt 0.333333 1.000000
vt 1.000000 0.692308
vt 0.000000 0.653846
vt 1.000000 1.000000
vt 0.666667 0.538462
vt 0.312500 1.000000
vt 0.500000 1.000000
vt 0.020833 1.000000
vt 1.000000 0.538462
vt 0.833333 1.000000
vt 0.645833 0.538462
vt 0.500000 0.423077
vt 0.000000 0.846154
vt 0.500000 0.423077
vt 0.354167 0.538462
vt 0.333333 0.846154
vt 0.312500 1.000000
vt 0.666667 0.538462
vt 0.000000 1.000000
vt 0.333333 0.538462
vt 0.333333 1.000000
vt 0.020833 1.000000
vt 0.333333 0.423077
vt 0.354167 0.692308
vt 0.020833 0.884615
vt 0.666667 0.423077
vt 0.645833 0.692308
vt 0.312500 0.884615
s 0
usemtl 
f 13/25/11 16/29/11 14/26/11
f 17/31/12 20/34/12 19/33/12
f 13/25/13 19/33/13 15/28/13
f 14/27/14 20/34/14 18/32/14
f 23/38/15 13/25/15 21/35/15
f 21/35/11 14/26/11 22/36/11
f 22/37/16 18/32/16 24/39/16
f 23/38/12 18/32/12 17/31/12
f 26/41/17 21/35/17 25/40/17
f 25/40/11 21/35/11 22/36/11
f 26/41/12 24/39/12 23/38/12
f 27/43/11 30/48/11 28/44/11
f 31/50/12 34/54/12 33/53/12
f 35/56/18 38/64/18 37/62/18
f 27/42/13 33/53/13 29/46/13
f 28/45/14 34/55/14 32/51/14
f 37/62/17 27/42/17 35/56/17
f 35/57/11 28/44/11 36/58/11
f 36/60/19 32/51/19 38/63/19
f 38/65/12 31/50/12 37/61/12
f 39/67/11 42/72/11 40/68/11
f 43/74/12 46/78/12 45/77/12
f 47/80/18 50/88/18 49/86/18
f 39/66/13 45/77/13 41/70/13
f 40/69/14 46/79/14 44/75/14
f 49/86/17 39/66/17 47/80/17
f 47/81/11 40/68/11 48/82/11
f 48/84/19 44/75/19 50/87/19
f 50/89/12 43/74/12 49/85/12
f 51/91/14 56/103/14 54/98/14
f 59/112/18 58/109/18 57/106/18
f 52/94/20 56/104/20 53/95/20
f 57/107/13 55/102/13 52/94/13
f 66/134/18 62/122/18 61/118/18
f 64/129/14 66/135/14 63/124/14
f 62/121/12 65/130/12 64/127/12
f 66/133/11 61/119/11 63/125/11
f 63/126/21 54/100/21 60/115/21
f 59/113/21 62/123/21 64/128/21
f 59/114/11 53/97/11 51/90/11
f 56/105/12 60/117/12 54/99/12
f 55/101/12 58/111/12 56/105/12
f 57/108/11 52/93/11 53/97/11
f 13/25/11 15/28/11 16/29/11
f 17/31/12 18/32/12 20/34/12
f 13/25/13 17/31/13 19/33/13
f 14/27/14 16/30/14 20/34/14
f 23/38/15 17/31/15 13/25/15
f 21/35/11 13/25/11 14/26/11
f 22/37/16 14/27/16 18/32/16
f 23/38/12 24/39/12 18/32/12
f 26/41/17 23/38/17 21/35/17
f 27/43/11 29/47/11 30/48/11
f 31/50/12 32/52/12 34/54/12
f 35/56/18 36/59/18 38/64/18
f 27/42/13 31/50/13 33/53/13
f 28/45/14 30/49/14 34/55/14
f 37/62/17 31/50/17 27/42/17
f 35/57/11 27/43/11 28/44/11
f 36/60/19 28/45/19 32/51/19
f 38/65/12 32/52/12 31/50/12
f 39/67/11 41/71/11 42/72/11
f 43/74/12 44/76/12 46/78/12
f 47/80/18 48/83/18 50/88/18
f 39/66/13 43/74/13 45/77/13
f 40/69/14 42/73/14 46/79/14
f 49/86/17 43/74/17 39/66/17
f 47/81/11 39/67/11 40/68/11
f 48/84/19 40/69/19 44/75/19
f 50/89/12 44/76/12 43/74/12
f 51/91/14 53/96/14 56/103/14
f 59/112/18 60/116/18 58/109/18
f 52/94/20 55/102/20 56/104/20
f 57/107/13 58/110/13 55/102/13
f 66/134/18 65/131/18 62/122/18
f 64/129/14 65/132/14 66/135/14
f 63/126/21 61/120/21 54/100/21
f 59/113/21 51/92/21 62/123/21
f 59/114/11 57/108/11 53/97/11
f 56/105/12 58/111/12 60/117/12
