# Blender 4.0.1
# www.blender.org
o Screen
v 0.500000 1.957763 0.073604
v 0.500000 1.903654 -0.170470
v 0.500000 1.225541 0.235934
v 0.500000 1.171432 -0.008140
v -0.500000 1.957763 0.073604
v -0.500000 1.903654 -0.170470
v -0.500000 1.225541 0.235934
v -0.500000 1.171432 -0.008140
v 0.187500 1.801763 0.236223
v -0.187500 1.801763 0.236223
v 0.187500 1.435652 0.317388
v -0.187500 1.435652 0.317388
v 0.062500 1.500000 0.437500
v 0.062500 1.500000 0.312500
v 0.062500 1.000000 0.437500
v 0.062500 1.000000 0.312500
v -0.062500 1.500000 0.437500
v -0.062500 1.500000 0.312500
v -0.062500 1.000000 0.437500
v -0.062500 1.000000 0.312500
v 0.062500 1.625000 0.375000
v 0.062500 1.625000 0.250000
v -0.062500 1.625000 0.375000
v -0.062500 1.625000 0.250000
v 0.062500 1.750000 0.250000
v -0.062500 1.750000 0.250000
vn 1.0000 -0.0000 -0.0000
vn -1.0000 -0.0000 -0.0000
vn -0.0000 0.9763 -0.2164
vn -0.0000 -0.9763 0.2164
vn -0.0000 0.2164 0.9763
vn -0.0000 -0.2164 -0.9763
vn 0.3714 0.2010 0.9065
vn -0.0000 0.7216 0.6923
vn -0.3714 0.2010 0.9065
vn -0.0000 -0.3615 0.9324
vn -0.0000 -0.0000 1.0000
vn -0.0000 -0.0000 -1.0000
vn -0.0000 0.4472 0.8944
vn -0.0000 -0.4472 -0.8944
vn -0.0000 0.7071 0.7071
vt 0.666667 0.307692
vt 0.583333 0.076923
vt 0.666667 0.076923
vt 0.583333 0.307692
vt 1.000000 0.000000
vt 1.000000 0.076923
vt 0.666667 0.000000
vt 0.895833 0.480769
vt 0.770833 0.365385
vt 0.895833 0.365385
vt 1.000000 0.307692
vt 1.000000 0.538462
vt 0.666667 0.538462
vt 0.770833 0.480769
vt 0.458333 0.326923
vt 0.500000 0.173077
vt 0.500000 0.326923
vt 0.416667 0.326923
vt 0.375000 0.173077
vt 0.416667 0.173077
vt 0.458333 0.173077
vt 0.333333 0.326923
vt 0.375000 0.326923
vt 0.416667 0.365385
vt 0.458333 0.365385
vt 0.500000 0.365385
vt 0.333333 0.365385
vt 0.375000 0.365385
vt 0.416667 0.403846
vt 0.458333 0.403846
vt 0.333333 0.173077
s 0
f 2/1/1 3/2/1 4/3/1
f 7/3/2 6/4/2 8/2/2
f 1/3/3 6/5/3 5/6/3
f 3/7/4 8/6/4 4/3/4
f 9/8/5 12/9/5 11/10/5
f 2/1/6 8/6/6 6/11/6
f 11/10/7 1/12/7 9/8/7
f 9/8/8 5/13/8 10/14/8
f 10/14/9 7/1/9 12/9/9
f 12/9/10 3/11/10 11/10/10
f 2/1/1 1/4/1 3/2/1
f 7/3/2 5/1/2 6/4/2
f 1/3/3 2/7/3 6/5/3
f 3/7/4 7/5/4 8/6/4
f 9/8/5 10/14/5 12/9/5
f 2/1/6 4/3/6 8/6/6
f 11/10/7 3/11/7 1/12/7
f 9/8/8 1/12/8 5/13/8
f 10/14/9 5/13/9 7/1/9
f 12/9/10 7/1/10 3/11/10
f 13/15/1 16/16/1 14/17/1
f 17/18/2 20/19/2 19/20/2
f 13/15/11 19/20/11 15/21/11
f 14/22/12 20/19/12 18/23/12
f 23/24/13 13/15/13 21/25/13
f 21/25/1 14/17/1 22/26/1
f 22/27/14 18/23/14 24/28/14
f 23/24/2 18/23/2 17/18/2
f 26/29/15 21/25/15 25/30/15
f 25/30/1 21/25/1 22/26/1
f 26/29/2 24/28/2 23/24/2
f 13/15/1 15/21/1 16/16/1
f 17/18/2 18/23/2 20/19/2
f 13/15/11 17/18/11 19/20/11
f 14/22/12 16/31/12 20/19/12
f 23/24/13 17/18/13 13/15/13
f 21/25/1 13/15/1 14/17/1
f 22/27/14 14/22/14 18/23/14
f 23/24/2 24/28/2 18/23/2
f 26/29/15 23/24/15 21/25/15
o Base
v -0.125000 1.062500 0.437500
v -0.125000 1.062500 0.125000
v -0.125000 1.000000 0.437500
v -0.125000 1.000000 0.125000
v -0.437500 1.062500 0.437500
v -0.437500 1.062500 0.125000
v -0.437500 1.000000 0.437500
v -0.437500 1.000000 0.125000
v -0.125000 1.125000 0.375000
v -0.125000 1.125000 0.187500
v -0.437500 1.125000 0.375000
v -0.437500 1.125000 0.187500
v 0.437500 1.062500 0.437500
v 0.437500 1.062500 0.125000
v 0.437500 1.000000 0.437500
v 0.437500 1.000000 0.125000
v 0.125000 1.062500 0.437500
v 0.125000 1.062500 0.125000
v 0.125000 1.000000 0.437500
v 0.125000 1.000000 0.125000
v 0.437500 1.125000 0.375000
v 0.437500 1.125000 0.187500
v 0.125000 1.125000 0.375000
v 0.125000 1.125000 0.187500
v 0.500000 0.625000 -0.500000
v 0.500000 0.000000 0.500000
v 0.500000 -0.000000 -0.500000
v -0.500000 0.625000 -0.500000
v -0.500000 0.000000 0.500000
v -0.500000 -0.000000 -0.500000
v 0.500000 1.000000 0.500000
v -0.500000 1.000000 0.500000
v 0.500000 1.000000 -0.000000
v -0.500000 1.000000 -0.000000
v -0.437500 0.625000 -0.500000
v 0.437500 0.625000 -0.500000
v -0.437500 1.000000 -0.000000
v 0.437500 1.000000 -0.000000
v 0.437500 0.625000 -0.000000
v -0.437500 0.625000 -0.000000
vn 1.0000 -0.0000 -0.0000
vn -1.0000 -0.0000 -0.0000
vn -0.0000 1.0000 -0.0000
vn -0.0000 -0.0000 1.0000
vn -0.0000 -0.0000 -1.0000
vn -0.0000 0.7071 0.7071
vn -0.0000 0.7071 -0.7071
vn -0.0000 -1.0000 -0.0000
vn -0.0000 0.8000 -0.6000
vt 0.333333 0.096154
vt 0.437500 0.076923
vt 0.437500 0.096154
vt 0.333333 0.076923
vt 0.541667 0.115385
vt 0.437500 0.173077
vt 0.437500 0.115385
vt 0.541667 0.096154
vt 0.541667 0.076923
vt 0.354167 0.115385
vt 0.416667 0.115385
vt 0.000000 0.846154
vt 0.333333 0.653846
vt 0.333333 0.846154
vt 0.666667 0.538462
vt 1.000000 0.692308
vt 0.666667 0.692308
vt 0.333333 0.346154
vt 0.000000 0.038462
vt 0.333333 0.038462
vt 0.000000 0.346154
vt 0.645833 0.692308
vt 0.354167 0.538462
vt 0.645833 0.538462
vt 0.020833 1.000000
vt 0.312500 0.884615
vt 0.312500 1.000000
vt 0.500000 0.423077
vt 0.333333 0.423077
vt 0.333333 0.538462
vt 0.666667 0.423077
vt 0.000000 1.000000
vt 0.020833 0.846154
vt 0.333333 1.000000
vt 0.500000 1.000000
vt 0.666667 0.884615
vt 0.833333 1.000000
vt 1.000000 1.000000
vt 0.333333 0.692308
vt 0.541667 0.173077
vt 0.000000 0.653846
vt 1.000000 0.538462
vt 0.354167 0.692308
vt 0.020833 0.884615
vt 0.312500 0.846154
s 0
f 27/32/16 30/33/16 28/34/16
f 31/34/17 34/35/17 33/33/17
f 35/36/18 38/37/18 37/38/18
f 27/39/19 33/33/19 29/40/19
f 28/39/20 34/33/20 32/34/20
f 37/38/21 27/39/21 35/36/21
f 35/41/16 28/34/16 36/42/16
f 36/36/22 32/34/22 38/38/22
f 38/41/17 31/34/17 37/42/17
f 39/32/16 42/33/16 40/34/16
f 43/34/17 46/35/17 45/33/17
f 47/36/18 50/37/18 49/38/18
f 39/39/19 45/33/19 41/40/19
f 40/39/20 46/33/20 44/34/20
f 49/38/21 39/39/21 47/36/21
f 47/41/16 40/34/16 48/42/16
f 48/36/22 44/34/22 50/38/22
f 50/41/17 43/34/17 49/42/17
f 51/43/20 56/44/20 54/45/20
f 59/46/18 58/47/18 57/48/18
f 52/49/23 56/50/23 53/51/23
f 57/44/19 55/52/19 52/49/19
f 66/53/18 62/54/18 61/55/18
f 64/56/20 66/57/20 63/58/20
f 62/59/17 65/60/17 64/61/17
f 66/62/16 61/59/16 63/46/16
f 63/63/24 54/64/24 60/56/24
f 59/58/24 62/45/24 64/65/24
f 59/66/16 53/48/16 51/67/16
f 56/48/17 60/68/17 54/67/17
f 55/47/17 58/69/17 56/48/17
f 57/65/16 52/70/16 53/48/16
f 27/32/16 29/35/16 30/33/16
f 31/34/17 32/32/17 34/35/17
f 35/36/18 36/71/18 38/37/18
f 27/39/19 31/34/19 33/33/19
f 28/39/20 30/40/20 34/33/20
f 37/38/21 31/34/21 27/39/21
f 35/41/16 27/32/16 28/34/16
f 36/36/22 28/39/22 32/34/22
f 38/41/17 32/32/17 31/34/17
f 39/32/16 41/35/16 42/33/16
f 43/34/17 44/32/17 46/35/17
f 47/36/18 48/71/18 50/37/18
f 39/39/19 43/34/19 45/33/19
f 40/39/20 42/40/20 46/33/20
f 49/38/21 43/34/21 39/39/21
f 47/41/16 39/32/16 40/34/16
f 48/36/22 40/39/22 44/34/22
f 50/41/17 44/32/17 43/34/17
f 51/43/20 53/72/20 56/44/20
f 59/46/18 60/73/18 58/47/18
f 52/49/23 55/52/23 56/50/23
f 57/44/19 58/72/19 55/52/19
f 66/53/18 65/74/18 62/54/18
f 64/56/20 65/75/20 66/57/20
f 63/63/24 61/43/24 54/64/24
f 59/58/24 51/76/24 62/45/24
f 59/66/16 57/65/16 53/48/16
f 56/48/17 58/69/17 60/68/17
o Drive
v -0.301936 0.617250 -0.437500
v -0.390325 0.617250 -0.437500
v -0.301937 0.617250 -0.062500
v -0.390325 0.617250 -0.062500
v -0.301936 0.742250 -0.437500
v -0.390325 0.742251 -0.437500
v -0.301937 0.742251 -0.062500
v -0.390325 0.742251 -0.062500
vn -0.0000 1.0000 -0.0000
vn 1.0000 -0.0000 -0.0000
vn -0.0000 -0.0000 -1.0000
vn -1.0000 -0.0000 -0.0000
vn -0.0000 -0.0000 1.0000
vt 0.312500 0.906250
vt 0.218750 0.921875
vt 0.218750 0.906250
vt 0.312500 0.875000
vt 0.187500 0.906250
vt 0.218750 0.875000
vt 0.187500 0.921875
vt 0.312500 0.921875
s 0
f 71/77/25 74/78/25 73/79/25
f 73/79/26 67/80/26 71/77/26
f 71/78/27 68/81/27 72/79/27
f 72/77/28 70/82/28 74/79/28
f 73/79/29 70/83/29 69/81/29
f 71/77/25 72/84/25 74/78/25
f 73/79/26 69/82/26 67/80/26
f 71/78/27 67/83/27 68/81/27
f 72/77/28 68/80/28 70/82/28
f 73/79/29 74/78/29 70/83/29
