# Made in Blockbench 4.10.4
mtllib spaceship_computer.mtl

o cuboid
v 0.5 1.9577634785411064 0.07360364521820725
v 0.5 1.9036535750565806 -0.17047035656177606
v 0.5 1.2255414732011565 0.23593335567178442
v 0.5 1.1714315697166306 -0.00814064610819891
v -0.5 1.9577634785411064 0.07360364521820725
v -0.5 1.9036535750565806 -0.17047035656177606
v -0.5 1.2255414732011565 0.23593335567178442
v -0.5 1.1714315697166306 -0.00814064610819891
v 0.1875 1.8017629289483819 0.2362230737215932
v -0.1875 1.8017629289483819 0.2362230737215932
v 0.1875 1.4356519262784069 0.31738792894838175
v -0.1875 1.4356519262784069 0.31738792894838175
vt 0.6666666666666666 0.3076923076923077
vt 0.5833333333333334 0.3076923076923077
vt 0.5833333333333334 0.07692307692307687
vt 0.6666666666666666 0.07692307692307687
vt 0.6666666666666666 0.07692307692307687
vt 0.6666666666666666 0.3076923076923077
vt 0.5833333333333334 0.3076923076923077
vt 0.5833333333333334 0.07692307692307687
vt 1 0.07692307692307687
vt 0.6666666666666666 0.07692307692307687
vt 0.6666666666666666 0
vt 1 0
vt 0.6666666666666666 0.07692307692307687
vt 0.6666666666666666 0
vt 1 0
vt 1 0.07692307692307687
vt 0.8958333333333334 0.3653846153846154
vt 0.8958333333333334 0.4807692307692307
vt 0.7708333333333334 0.4807692307692307
vt 0.7708333333333334 0.3653846153846154
vt 1 0.3076923076923077
vt 0.6666666666666666 0.3076923076923077
vt 0.6666666666666666 0.07692307692307687
vt 1 0.07692307692307687
vt 0.8958333333333334 0.4807692307692307
vt 0.8958333333333334 0.3653846153846154
vt 1 0.3076923076923077
vt 1 0.5384615384615384
vt 0.7708333333333334 0.4807692307692307
vt 0.8958333333333334 0.4807692307692307
vt 1 0.5384615384615384
vt 0.6666666666666666 0.5384615384615384
vt 0.7708333333333334 0.3653846153846154
vt 0.7708333333333334 0.4807692307692307
vt 0.6666666666666666 0.5384615384615384
vt 0.6666666666666666 0.3076923076923077
vt 0.8958333333333334 0.3653846153846154
vt 0.7708333333333334 0.3653846153846154
vt 0.6666666666666666 0.3076923076923077
vt 1 0.3076923076923077
vn 1 0 0
vn -1 0 0
vn 0 0.9762960071199334 -0.21643961393810288
vn 0 -0.9762960071199334 0.21643961393810288
vn 0 0.21643961393810288 0.9762960071199334
vn 0 -0.21643961393810288 -0.9762960071199334
vn 0.3713906763541038 0.20095913652573283 0.9064680860152073
vn 0 0.7216402312069025 0.6922682837626236
vn -0.3713906763541038 0.20095913652573283 0.9064680860152073
vn 0 -0.3614629422397668 0.9323864764073806
usemtl m_9f60b7d4-09bf-0be8-e3ce-0fad8f218b8e
f 2/1/1 1/2/1 3/3/1 4/4/1
f 7/5/2 5/6/2 6/7/2 8/8/2
f 5/9/3 1/10/3 2/11/3 6/12/3
f 4/13/4 3/14/4 7/15/4 8/16/4
f 11/17/5 9/18/5 10/19/5 12/20/5
f 6/21/6 2/22/6 4/23/6 8/24/6
f 9/25/7 11/26/7 3/27/7 1/28/7
f 10/29/8 9/30/8 1/31/8 5/32/8
f 12/33/9 10/34/9 5/35/9 7/36/9
f 11/37/10 12/38/10 7/39/10 3/40/10
o cuboid
v 0.0625 1.5 0.4375
v 0.0625 1.5 0.3125
v 0.0625 1 0.4375
v 0.0625 1 0.3125
v -0.0625 1.5 0.4375
v -0.0625 1.5 0.3125
v -0.0625 1 0.4375
v -0.0625 1 0.3125
v 0.0625 1.625 0.375
v 0.0625 1.625 0.25
v -0.0625 1.625 0.375
v -0.0625 1.625 0.25
v 0.0625 1.75 0.25
v -0.0625 1.75 0.25
v -0.125 1.0625 0.4375
v -0.125 1.0625 0.125
v -0.125 1 0.4375
v -0.125 1 0.125
v -0.4375 1.0625 0.4375
v -0.4375 1.0625 0.125
v -0.4375 1 0.4375
v -0.4375 1 0.125
v -0.125 1.125 0.375
v -0.125 1.125 0.1875
v -0.4375 1.125 0.375
v -0.4375 1.125 0.1875
v 0.4375 1.0625 0.4375
v 0.4375 1.0625 0.125
v 0.4375 1 0.4375
v 0.4375 1 0.125
v 0.125 1.0625 0.4375
v 0.125 1.0625 0.125
v 0.125 1 0.4375
v 0.125 1 0.125
v 0.4375 1.125 0.375
v 0.4375 1.125 0.1875
v 0.125 1.125 0.375
v 0.125 1.125 0.1875
v 0.5 0.625 -0.5
v 0.5 0 0.5
v 0.5 0 -0.5
v -0.5 0.625 -0.5
v -0.5 0 0.5
v -0.5 0 -0.5
v 0.5 1 0.5
v -0.5 1 0.5
v 0.5 1 0
v -0.5 1 0
v -0.4375 0.625 -0.5
v 0.4375 0.625 -0.5
v -0.4375 1 0
v 0.4375 1 0
v 0.4375 0.625 0
v -0.4375 0.625 0
vt 0.5 0.32692307692307687
vt 0.4583333333333333 0.32692307692307687
vt 0.4583333333333333 0.17307692307692313
vt 0.5 0.17307692307692313
vt 0.4166666666666667 0.17307692307692313
vt 0.4166666666666667 0.32692307692307687
vt 0.375 0.32692307692307687
vt 0.375 0.17307692307692313
vt 0.4583333333333333 0.17307692307692313
vt 0.4583333333333333 0.32692307692307687
vt 0.4166666666666667 0.32692307692307687
vt 0.4166666666666667 0.17307692307692313
vt 0.375 0.32692307692307687
vt 0.3333333333333333 0.32692307692307687
vt 0.3333333333333333 0.17307692307692313
vt 0.375 0.17307692307692313
vt 0.4583333333333333 0.3653846153846154
vt 0.4166666666666667 0.3653846153846154
vt 0.4166666666666667 0.32692307692307687
vt 0.4583333333333333 0.32692307692307687
vt 0.5 0.3653846153846154
vt 0.4583333333333333 0.3653846153846154
vt 0.4583333333333333 0.32692307692307687
vt 0.5 0.32692307692307687
vt 0.375 0.3653846153846151
vt 0.3333333333333333 0.3653846153846151
vt 0.3333333333333333 0.32692307692307665
vt 0.375 0.32692307692307665
vt 0.4166666666666667 0.3653846153846154
vt 0.375 0.3653846153846154
vt 0.375 0.32692307692307687
vt 0.4166666666666667 0.32692307692307687
vt 0.4583333333333333 0.40384615384615385
vt 0.4166666666666667 0.40384615384615385
vt 0.4166666666666667 0.3653846153846154
vt 0.4583333333333333 0.3653846153846154
vt 0.4583333333333333 0.40384615384615385
vt 0.4583333333333333 0.3653846153846154
vt 0.5 0.3653846153846154
vt 0.4166666666666667 0.40384615384615385
vt 0.375 0.3653846153846154
vt 0.4166666666666667 0.3653846153846154
vt 0.4375 0.09615384615384615
vt 0.3333333333333333 0.09615384615384615
vt 0.3333333333333333 0.07692307692307687
vt 0.4375 0.07692307692307687
vt 0.4375 0.07692307692307687
vt 0.4375 0.09615384615384615
vt 0.3333333333333333 0.09615384615384615
vt 0.3333333333333333 0.07692307692307687
vt 0.4375 0.11538461538461542
vt 0.5416666666666666 0.11538461538461542
vt 0.5416666666666666 0.17307692307692313
vt 0.4375 0.17307692307692313
vt 0.5416666666666666 0.07692307692307687
vt 0.5416666666666666 0.09615384615384615
vt 0.4375 0.09615384615384615
vt 0.4375 0.07692307692307687
vt 0.4375 0.09615384615384615
vt 0.5416666666666666 0.09615384615384615
vt 0.5416666666666666 0.07692307692307687
vt 0.4375 0.07692307692307687
vt 0.5416666666666666 0.11538461538461597
vt 0.4375 0.11538461538461597
vt 0.4375 0.0961538461538467
vt 0.5416666666666666 0.0961538461538467
vt 0.4166666666666667 0.11538461538461542
vt 0.3541666666666667 0.11538461538461542
vt 0.3333333333333333 0.09615384615384615
vt 0.4375 0.09615384615384615
vt 0.4375 0.11538461538461542
vt 0.5416666666666666 0.11538461538461542
vt 0.5416666666666666 0.09615384615384615
vt 0.4375 0.09615384615384615
vt 0.4166666666666667 0.11538461538461542
vt 0.3541666666666667 0.11538461538461542
vt 0.3333333333333333 0.09615384615384615
vt 0.4375 0.09615384615384615
vt 0.4375 0.09615384615384615
vt 0.3333333333333333 0.09615384615384615
vt 0.3333333333333333 0.07692307692307687
vt 0.4375 0.07692307692307687
vt 0.4375 0.07692307692307687
vt 0.4375 0.09615384615384615
vt 0.3333333333333333 0.09615384615384615
vt 0.3333333333333333 0.07692307692307687
vt 0.4375 0.11538461538461542
vt 0.5416666666666666 0.11538461538461542
vt 0.5416666666666666 0.17307692307692313
vt 0.4375 0.17307692307692313
vt 0.5416666666666666 0.07692307692307687
vt 0.5416666666666666 0.09615384615384615
vt 0.4375 0.09615384615384615
vt 0.4375 0.07692307692307687
vt 0.4375 0.09615384615384615
vt 0.5416666666666666 0.09615384615384615
vt 0.5416666666666666 0.07692307692307687
vt 0.4375 0.07692307692307687
vt 0.5416666666666666 0.11538461538461597
vt 0.4375 0.11538461538461597
vt 0.4375 0.0961538461538467
vt 0.5416666666666666 0.0961538461538467
vt 0.4166666666666667 0.11538461538461542
vt 0.3541666666666667 0.11538461538461542
vt 0.3333333333333333 0.09615384615384615
vt 0.4375 0.09615384615384615
vt 0.4375 0.11538461538461542
vt 0.5416666666666666 0.11538461538461542
vt 0.5416666666666666 0.09615384615384615
vt 0.4375 0.09615384615384615
vt 0.4166666666666667 0.11538461538461542
vt 0.3541666666666667 0.11538461538461542
vt 0.3333333333333333 0.09615384615384615
vt 0.4375 0.09615384615384615
vt 0.3333333333333333 0.8461538461538461
vt 0 0.8461538461538461
vt 0 0.6538461538461539
vt 0.3333333333333333 0.6538461538461539
vt 0.6666666666666666 0.6923076923076923
vt 0.6666666666666666 0.5384615384615384
vt 1 0.5384615384615384
vt 1 0.6923076923076923
vt 0.3333333333333333 0.038461538461538436
vt 0.3333333333333333 0.34615384615384615
vt 0 0.34615384615384615
vt 0 0.038461538461538436
vt 0.3333333333333333 0.34615384615384615
vt 0.3333333333333333 0.6538461538461539
vt 0 0.6538461538461539
vt 0 0.34615384615384615
vt 0.6458333333333334 0.5384615384615384
vt 0.6458333333333334 0.6923076923076923
vt 0.3541666666666667 0.6923076923076923
vt 0.3541666666666667 0.5384615384615384
vt 0.3125 1
vt 0.020833333333333332 1
vt 0.020833333333333332 0.8846153846153846
vt 0.3125 0.8846153846153846
vt 0.5 0.42307692307692313
vt 0.3333333333333333 0.42307692307692313
vt 0.3333333333333333 0.5384615384615384
vt 0.6666666666666666 0.42307692307692313
vt 0.5 0.42307692307692313
vt 0.6666666666666666 0.5384615384615384
vt 0.020833333333333332 1
vt 0 1
vt 0 0.8461538461538461
vt 0.020833333333333332 0.8461538461538461
vt 0.3333333333333333 1
vt 0.3125 1
vt 0.3125 0.8461538461538461
vt 0.3333333333333333 0.8461538461538461
vt 0.6666666666666666 0.8846153846153846
vt 0.5 1
vt 0.3333333333333333 1
vt 0.6666666666666666 0.6923076923076923
vt 0.6666666666666666 0.6923076923076923
vt 1 1
vt 0.8333333333333334 1
vt 0.6666666666666666 0.8846153846153846
vt 1 0.6923076923076923
vt 1 1
vt 0.6666666666666666 0.6923076923076923
vt 0.3333333333333333 1
vt 0.3333333333333333 0.6923076923076923
vt 0.6666666666666666 0.6923076923076923
vn 1 0 0
vn -1 0 0
vn 0 0 1
vn 0 0 -1
vn 0 0.44721359549995804 0.8944271909999161
vn 1 0 0
vn 0 -0.44721359549995804 -0.8944271909999161
vn -1 0 0
vn 0 0.7071067811865476 0.7071067811865476
vn 1 0 0
vn -1 0 0
vn 1 0 0
vn -1 0 0
vn 0 1 0
vn 0 0 1
vn 0 0 -1
vn 0 0.7071067811865476 0.7071067811865476
vn 1 0 0
vn 0 0.7071067811865476 -0.7071067811865476
vn -1 0 0
vn 1 0 0
vn -1 0 0
vn 0 1 0
vn 0 0 1
vn 0 0 -1
vn 0 0.7071067811865476 0.7071067811865476
vn 1 0 0
vn 0 0.7071067811865476 -0.7071067811865476
vn -1 0 0
vn 0 0 -1
vn 0 1 0
vn 0 -1 0
vn 0 0 1
vn 0 1 0
vn 0 0 -1
vn -1 0 0
vn 1 0 0
vn 0 0.8 -0.6
vn 0 0.8 -0.6
vn 1 0 0
vn -1 0 0
vn -1 0 0
vn 1 0 0
usemtl m_9f60b7d4-09bf-0be8-e3ce-0fad8f218b8e
f 14/41/11 13/42/11 15/43/11 16/44/11
f 19/45/12 17/46/12 18/47/12 20/48/12
f 15/49/13 13/50/13 17/51/13 19/52/13
f 18/53/14 14/54/14 16/55/14 20/56/14
f 21/57/15 23/58/15 17/59/15 13/60/15
f 22/61/16 21/62/16 13/63/16 14/64/16
f 24/65/17 22/66/17 14/67/17 18/68/17
f 23/69/18 24/70/18 18/71/18 17/72/18
f 25/73/19 26/74/19 23/75/19 21/76/19
f 25/77/20 21/78/20 22/79/20
f 26/80/21 24/81/21 23/82/21
f 28/83/22 27/84/22 29/85/22 30/86/22
f 33/87/23 31/88/23 32/89/23 34/90/23
f 37/91/24 35/92/24 36/93/24 38/94/24
f 29/95/25 27/96/25 31/97/25 33/98/25
f 32/99/26 28/100/26 30/101/26 34/102/26
f 35/103/27 37/104/27 31/105/27 27/106/27
f 36/107/28 35/108/28 27/109/28 28/110/28
f 38/111/29 36/112/29 28/113/29 32/114/29
f 37/115/30 38/116/30 32/117/30 31/118/30
f 40/119/31 39/120/31 41/121/31 42/122/31
f 45/123/32 43/124/32 44/125/32 46/126/32
f 49/127/33 47/128/33 48/129/33 50/130/33
f 41/131/34 39/132/34 43/133/34 45/134/34
f 44/135/35 40/136/35 42/137/35 46/138/35
f 47/139/36 49/140/36 43/141/36 39/142/36
f 48/143/37 47/144/37 39/145/37 40/146/37
f 50/147/38 48/148/38 40/149/38 44/150/38
f 49/151/39 50/152/39 44/153/39 43/154/39
f 54/155/40 51/156/40 53/157/40 56/158/40
f 57/159/41 59/160/41 60/161/41 58/162/41
f 53/163/42 52/164/42 55/165/42 56/166/42
f 52/167/43 57/168/43 58/169/43 55/170/43
f 61/171/44 66/172/44 65/173/44 62/174/44
f 63/175/45 64/176/45 65/177/45 66/178/45
f 62/179/46 65/180/46 64/181/46
f 66/182/47 61/183/47 63/184/47
f 60/185/48 63/186/48 61/187/48 54/188/48
f 64/189/49 59/190/49 51/191/49 62/192/49
f 51/193/50 59/194/50 57/195/50 53/196/50
f 56/197/51 58/198/51 60/199/51 54/200/51
f 55/201/52 58/202/52 56/203/52
f 57/204/53 52/205/53 53/206/53