# Blender v2.79 (sub 0) OBJ File: 'tape_drive.blend'
# www.blender.org
o Light
v 0.197500 0.593750 0.031250
v 0.197500 0.406250 0.031250
v 0.197500 0.593750 -0.031250
v 0.197500 0.406250 -0.031250
vt 0.297641 0.999946
vt 0.000055 0.000055
vt 0.297641 0.000055
vt 0.000055 0.999946
vn 1.0000 0.0000 0.0000
s off
f 3/1/1 2/2/1 4/3/1
f 3/1/1 1/4/1 2/2/1
o Drive
v -0.250000 0.312500 -0.062500
v 0.187500 0.312500 -0.062500
v -0.250000 0.687500 -0.062500
v 0.187500 0.687500 -0.062500
v -0.250000 0.687500 0.062500
v -0.250000 0.312500 0.062500
v 0.187500 0.312500 0.062500
v 0.187500 0.687500 0.062500
vt 0.785714 0.120000
vt 0.660714 0.000000
vt 0.785714 0.000000
vt 0.625000 0.000000
vt 0.500000 0.120000
vt 0.500000 0.000000
vt 0.660714 0.120000
vt 0.625000 0.120000
vn 0.0000 0.0000 -1.0000
vn 0.0000 0.0000 1.0000
vn 1.0000 0.0000 0.0000
s off
f 7/5/2 6/6/2 5/7/2
f 11/8/3 9/9/3 10/10/3
f 8/11/4 11/8/4 6/6/4
f 7/5/2 8/11/2 6/6/2
f 11/8/3 12/12/3 9/9/3
f 8/11/4 12/12/4 11/8/4
o Frame
v -0.500000 0.000000 0.500000
v 0.250000 0.562500 0.375000
v -0.500000 0.000000 -0.500000
v 0.250000 0.562500 -0.375000
v -0.500000 1.000000 -0.500000
v -0.500000 1.000000 0.500000
v 0.250000 0.937500 0.375000
v 0.250000 0.937500 -0.375000
v 0.250000 0.000000 0.500000
v 0.250000 0.000000 -0.500000
v 0.250000 1.000000 0.500000
v 0.250000 1.000000 -0.500000
v 0.250000 0.062500 0.375000
v 0.250000 0.062500 -0.375000
v 0.250000 0.437500 0.375000
v 0.250000 0.437500 -0.375000
v -0.250000 0.562500 0.375000
v -0.250000 0.562500 -0.375000
v -0.250000 0.937500 0.375000
v -0.250000 0.937500 -0.375000
v -0.250000 0.437500 0.375000
v -0.250000 0.437500 -0.375000
v -0.250000 0.062500 0.375000
v -0.250000 0.062500 -0.375000
vt 0.500000 0.000000
vt 0.214286 0.240000
vt 0.214286 0.000000
vt 0.214286 0.560000
vt 0.500000 0.800000
vt 0.214286 0.800000
vt 0.500000 0.720000
vt 0.642857 0.840000
vt 0.500000 0.840000
vt 1.000000 0.240000
vt 0.714286 0.560000
vt 0.714286 0.240000
vt 0.500000 0.560000
vt 0.500000 0.240000
vt 0.000000 0.560000
vt 0.000000 0.240000
vt 0.250000 0.420000
vt 0.250000 0.540000
vt 0.464286 0.540000
vt 0.464286 0.380000
vt 0.464286 0.420000
vt 0.857143 0.560000
vt 0.642857 0.720000
vt 0.642857 0.560000
vt 0.464286 0.260000
vt 0.857143 0.720000
vt 0.642857 0.840000
vt 0.857143 0.720000
vt 0.642857 0.720000
vt 0.857143 0.560000
vt 0.642857 0.560000
vt 0.500000 0.720000
vt 0.500000 0.840000
vt 0.642857 1.000000
vt 0.857143 0.840000
vt 0.857143 1.000000
vt 1.000000 0.840000
vt 1.000000 0.720000
vt 0.642857 1.000000
vt 0.857143 0.840000
vt 0.857143 1.000000
vt 1.000000 0.840000
vt 1.000000 0.720000
vt 1.000000 0.560000
vt 0.250000 0.380000
vt 0.250000 0.260000
vn 0.0000 -1.0000 0.0000
vn 0.0000 1.0000 0.0000
vn 0.0000 0.0000 -1.0000
vn -1.0000 0.0000 0.0000
vn 0.0000 0.0000 1.0000
vn 1.0000 0.0000 0.0000
s off
f 15/13/5 21/14/5 13/15/5
f 23/16/6 17/17/6 18/18/6
f 25/19/7 33/20/7 27/21/7
f 13/22/8 17/23/8 15/24/8
f 15/24/7 24/25/7 22/26/7
f 21/14/9 18/27/9 13/28/9
f 14/29/10 19/30/10 23/16/10
f 20/31/10 23/16/10 19/30/10
f 14/29/10 28/32/10 16/33/10
f 16/34/6 29/35/6 14/36/6
f 24/25/10 16/33/10 28/32/10
f 26/37/10 21/14/10 22/26/10
f 30/38/10 31/39/10 29/35/10
f 36/40/10 33/20/10 35/41/10
f 26/42/6 35/41/6 25/43/6
f 14/44/7 31/39/7 19/45/7
f 19/46/5 32/47/5 20/48/5
f 28/49/9 36/40/9 26/50/9
f 27/51/5 34/52/5 28/53/5
f 20/54/9 30/38/9 16/55/9
f 15/13/5 22/26/5 21/14/5
f 23/16/6 24/25/6 17/17/6
f 25/19/7 35/41/7 33/20/7
f 13/22/8 18/56/8 17/23/8
f 15/24/7 17/23/7 24/25/7
f 21/14/9 23/16/9 18/27/9
f 23/16/10 21/14/10 27/57/10
f 21/14/10 25/58/10 27/57/10
f 27/57/10 14/29/10 23/16/10
f 20/31/10 24/25/10 23/16/10
f 14/29/10 27/57/10 28/32/10
f 16/34/6 30/38/6 29/35/6
f 26/37/10 22/26/10 28/32/10
f 22/26/10 24/25/10 28/32/10
f 24/25/10 20/31/10 16/33/10
f 26/37/10 25/58/10 21/14/10
f 30/38/10 32/47/10 31/39/10
f 36/40/10 34/52/10 33/20/10
f 26/42/6 36/40/6 35/41/6
f 14/44/7 29/35/7 31/39/7
f 19/46/5 31/39/5 32/47/5
f 28/49/9 34/52/9 36/40/9
f 27/51/5 33/20/5 34/52/5
f 20/54/9 32/47/9 30/38/9
