# Blender v2.76 (sub 0) OBJ File: 'telex.blend'
# www.blender.org
o Cube_Cube.001
v -0.500000 0.000000 0.500000
v -0.500000 1.000000 0.500000
v -0.500000 0.000000 -1.500000
v -0.500000 1.000000 -1.500000
v 0.500000 0.000000 0.500000
v 0.500000 0.000000 -1.500000
v 0.500000 0.625000 -1.500000
v 0.500000 0.625000 0.500000
v 0.125000 1.000000 -1.500000
v 0.125000 1.000000 0.500000
v 0.500000 0.625000 0.125000
v 0.500000 0.625000 -0.750000
v 0.125000 1.000000 -0.750000
v 0.125000 0.625000 -0.750000
v 0.125000 0.625000 0.125000
v 0.125000 1.000000 0.125000
vt -0.000000 0.500000
vt -0.000000 0.250000
vt 0.500000 0.250000
vt 0.843750 0.250000
vt 0.750000 0.156250
vt 1.000000 -0.000000
vt 0.093750 0.250000
vt 0.093750 0.156250
vt 0.312500 0.156250
vt 0.500000 0.000000
vt 0.656250 0.250000
vt -0.000000 0.750000
vt 0.500000 0.500000
vt 0.500000 0.156250
vt 0.312500 0.250000
vt 0.000000 0.156250
vt -0.000000 0.000000
vt 0.593750 0.343750
vt 0.812500 0.343750
vt 0.593750 0.500000
vt 0.500000 0.593750
vt 0.687500 0.500000
vt 0.687500 0.593750
vt 0.593750 0.250000
vt 0.750000 -0.000000
vt 1.000000 0.250000
vt 0.500000 0.750000
vt 1.000000 0.500000
vt 0.500000 0.343750
vt 1.000000 0.343750
vt 0.812500 0.250000
vn -1.000000 0.000000 0.000000
vn 0.000000 0.000000 -1.000000
vn 1.000000 0.000000 0.000000
vn 0.000000 0.000000 1.000000
vn 0.000000 -1.000000 0.000000
vn 0.707100 0.707100 0.000000
vn 0.000000 1.000000 0.000000
s off
f 4/1/1 3/2/1 1/3/1
f 9/4/2 7/5/2 3/6/2
f 16/7/3 15/8/3 14/9/3
f 1/10/4 8/5/4 10/11/4
f 3/12/5 6/1/5 5/13/5
f 7/14/6 9/3/6 13/15/6
f 10/2/6 8/16/6 11/8/6
f 12/9/3 5/17/3 6/10/3
f 16/18/7 13/19/7 2/13/7
f 12/20/4 13/21/4 14/13/4
f 11/20/2 15/22/2 16/23/2
f 14/19/7 15/18/7 11/24/7
f 2/13/1 4/1/1 1/3/1
f 6/25/2 3/6/2 7/5/2
f 4/26/2 9/4/2 3/6/2
f 13/15/3 16/7/3 14/9/3
f 10/11/4 2/3/4 1/10/4
f 1/10/4 5/25/4 8/5/4
f 1/27/5 3/12/5 5/13/5
f 12/9/6 7/14/6 13/15/6
f 16/7/6 10/2/6 11/8/6
f 6/10/3 7/14/3 12/9/3
f 12/9/3 11/8/3 5/17/3
f 8/16/3 5/17/3 11/8/3
f 4/28/7 2/13/7 13/19/7
f 10/29/7 16/18/7 2/13/7
f 13/19/7 9/30/7 4/28/7
f 12/31/7 14/19/7 11/24/7
