# Blender v2.76 (sub 0) OBJ File: 'turbine.blend'
# www.blender.org
o Glass_Glaass
v -0.866026 1.499999 1.875000
v 0.866025 1.500000 1.875000
v 0.500000 1.866025 1.875000
v 0.000000 2.000000 1.875000
v -0.500001 1.866025 1.875000
v -0.176777 1.176777 1.875000
v -1.000000 0.999999 1.875000
v 1.000000 1.000000 1.875000
v 0.000000 1.250000 1.875000
v -0.250000 1.000000 1.875000
v 0.250000 1.000000 1.875000
v 0.176777 1.176777 1.875000
vt 1.000000 0.000000
vt 1.000000 1.000000
vt 0.000000 1.000000
vt 0.000000 0.000000
vn 0.000000 0.000000 1.000000
s off
f 11/1/1 8/2/1 2/3/1
f 3/1/1 9/2/1 12/3/1
f 9/1/1 3/2/1 4/3/1
f 5/4/1 1/1/1 6/2/1
f 1/1/1 7/2/1 10/3/1
f 12/4/1 11/1/1 2/3/1
f 2/4/1 3/1/1 12/3/1
f 5/4/1 9/1/1 4/3/1
f 9/3/1 5/4/1 6/2/1
f 6/4/1 1/1/1 10/3/1
o Blades
v 0.000000 1.125000 1.000000
v 0.000000 1.125000 2.000000
v 0.088388 1.088388 1.000000
v 0.088388 1.088388 2.000000
v 0.125000 1.000000 1.000000
v 0.125000 1.000000 2.000000
v 0.088388 0.911612 1.000000
v 0.088388 0.911612 2.000000
v -0.000000 0.875000 1.000000
v -0.000000 0.875000 2.000000
v -0.088388 0.911612 1.000000
v -0.088388 0.911612 2.000000
v -0.125000 1.000000 1.000000
v -0.125000 1.000000 2.000000
v -0.088388 1.088388 1.000000
v -0.088388 1.088388 2.000000
v -0.113288 1.000000 1.552827
v 0.113288 1.000000 1.447173
v -0.113288 2.000000 1.552827
v 0.113288 2.000000 1.447173
v 0.113288 1.000000 1.552827
v -0.113288 1.000000 1.447173
v 0.113289 0.000000 1.552827
v -0.113288 0.000000 1.447173
v -0.000000 1.113288 1.552827
v 0.000000 0.886711 1.447173
v 1.000000 1.113289 1.552827
v 1.000000 0.886712 1.447173
v 0.000000 0.886712 1.552827
v -0.000000 1.113289 1.447173
v -1.000000 0.886711 1.552827
v -1.000000 1.113288 1.447173
v -0.080107 1.080107 1.552827
v 0.080107 0.919893 1.447173
v 0.627000 1.787214 1.552827
v 0.787214 1.627000 1.447173
v 0.080107 0.919893 1.552827
v -0.080107 1.080107 1.447173
v -0.627000 0.212786 1.552827
v -0.787214 0.373000 1.447173
v 0.080107 1.080107 1.552827
v -0.080107 0.919893 1.447173
v 0.787214 0.373000 1.552827
v 0.627000 0.212786 1.447173
v -0.080107 0.919893 1.552827
v 0.080107 1.080107 1.447173
v -0.787214 1.627000 1.552827
v -0.627000 1.787214 1.447173
v -0.104665 1.043354 1.552827
v 0.104665 0.956646 1.447173
v 0.278018 1.967233 1.552827
v 0.487348 1.880526 1.447173
v 0.104665 0.956646 1.552827
v -0.104665 1.043354 1.447173
v -0.278018 0.032767 1.552827
v -0.487348 0.119474 1.447173
v 0.043354 1.104665 1.552827
v -0.043354 0.895335 1.447173
v 0.967233 0.721982 1.552827
v 0.880526 0.512652 1.447173
v -0.043354 0.895335 1.552827
v 0.043354 1.104665 1.447173
v -0.967233 1.278018 1.552827
v -0.880526 1.487348 1.447173
v -0.043354 1.104665 1.552827
v 0.043354 0.895335 1.447173
v 0.880526 1.487348 1.552827
v 0.967233 1.278019 1.447173
v 0.043354 0.895335 1.552827
v -0.043354 1.104665 1.447173
v -0.880526 0.512652 1.552827
v -0.967233 0.721981 1.447173
v 0.104665 1.043354 1.552827
v -0.104665 0.956646 1.447173
v 0.487348 0.119474 1.552827
v 0.278019 0.032767 1.447173
v -0.104665 0.956646 1.552827
v 0.104665 1.043354 1.447173
v -0.487348 1.880526 1.552827
v -0.278019 1.967233 1.447173
vt 0.939476 0.000000
vt 0.982193 0.000000
vt 0.982193 0.496773
vt 0.927076 0.496773
vt 0.957282 0.496773
vt 0.957282 0.993545
vt 1.000000 0.496773
vt 1.000000 0.993545
vt 0.939476 0.496773
vt 0.909269 0.496773
vt 0.909269 0.000000
vt 0.866552 0.496773
vt 0.866552 0.000000
vt 0.836345 0.496773
vt 0.836345 0.000000
vt 0.793628 0.496773
vt 0.763421 0.496773
vt 0.763421 0.000000
vt 0.793628 0.000000
vt 0.309080 0.495141
vt 0.309080 0.979227
vt 0.221506 0.996520
vt 0.441415 0.484086
vt 0.441415 0.000000
vt 0.550732 0.005644
vt 0.332098 0.005644
vt 0.110913 0.979227
vt 0.110913 0.495141
vt 0.198488 0.512434
vt 0.758245 0.957045
vt 0.657077 0.973713
vt 0.657077 0.502655
vt 0.651901 0.973713
vt 0.550732 0.957045
vt 0.550732 0.485987
vt 0.110913 0.000000
vt 0.110913 0.496773
vt 0.000000 0.496773
vt 0.927076 0.993545
vt 0.846125 0.993545
vt 0.535766 0.489731
vt 0.535766 0.964642
vt 0.441415 0.984114
vt 0.550732 0.474911
vt 0.550732 0.000000
vt 0.657077 0.011076
vt 0.221505 0.000000
vt 0.221506 0.493091
vt 0.846125 0.506909
vt 0.846125 1.000000
vt 0.763421 0.474911
vt 0.657077 0.485987
vt 0.426449 0.984114
vt 0.332098 0.964642
vt 0.332098 0.489731
vt 0.332098 0.002050
vt 0.332098 0.495141
vt 0.000000 1.000000
vt 0.000000 0.506909
vt 0.082704 0.496773
vt 0.221506 0.512434
vt 0.550732 0.489731
vt 0.198488 0.996520
vt 0.758245 0.485987
vt 0.651900 0.502655
vt 0.000000 0.000000
vt 0.846125 0.496773
vt 0.441415 0.509203
vt 0.110913 0.002050
vt 0.763421 0.989863
vt 0.426449 0.509203
vt 0.082704 0.989863
vn 0.382700 0.923900 0.000000
vn 0.923900 0.382700 0.000000
vn 0.923900 -0.382700 0.000000
vn 0.382700 -0.923900 0.000000
vn -0.382700 -0.923900 0.000000
vn -0.923900 -0.382700 0.000000
vn -0.382700 0.923900 0.000000
vn -0.923900 0.382700 0.000000
vn 0.422600 0.000000 0.906300
vn -0.422600 -0.000000 0.906300
vn 0.000000 -0.422600 0.906300
vn 0.000000 0.422600 0.906300
vn 0.298800 -0.298800 0.906300
vn -0.298800 0.298800 0.906300
vn -0.298800 -0.298800 0.906300
vn 0.298800 0.298800 0.906300
vn 0.390400 -0.161700 0.906300
vn -0.390400 0.161700 0.906300
vn -0.161700 -0.390400 0.906300
vn 0.161700 0.390400 0.906300
vn 0.161700 -0.390400 0.906300
vn -0.161700 0.390400 0.906300
vn -0.390400 -0.161700 0.906300
vn 0.390400 0.161700 0.906300
s off
f 14/5/2 16/6/2 15/7/2
f 16/8/3 18/9/3 17/10/3
f 18/9/4 20/11/4 19/12/4
f 20/13/5 22/14/5 21/15/5
f 22/14/6 24/16/6 23/17/6
f 24/16/7 26/18/7 25/19/7
f 28/20/8 14/21/8 13/22/8
f 26/18/9 28/20/9 27/23/9
f 30/24/10 32/25/10 31/26/10
f 34/27/11 36/28/11 35/29/11
f 37/30/12 38/28/12 40/27/12
f 42/31/13 44/32/13 43/33/13
f 45/34/14 46/35/14 48/36/14
f 49/37/15 50/38/15 52/39/15
f 54/40/16 56/41/16 55/42/16
f 58/8/17 60/43/17 59/44/17
f 62/45/18 64/46/18 63/47/18
f 66/48/19 68/49/19 67/50/19
f 70/51/20 72/52/20 71/32/20
f 73/21/21 74/53/21 76/54/21
f 78/22/22 80/55/22 79/56/22
f 81/57/23 82/58/23 84/59/23
f 86/60/24 88/61/24 87/52/24
f 90/62/25 92/63/25 91/64/25
f 13/13/2 14/5/2 15/7/2
f 15/43/3 16/8/3 17/10/3
f 17/10/4 18/9/4 19/12/4
f 19/5/5 20/13/5 21/15/5
f 21/15/6 22/14/6 23/17/6
f 23/17/7 24/16/7 25/19/7
f 27/23/8 28/20/8 13/22/8
f 25/19/9 26/18/9 27/23/9
f 29/65/10 30/24/10 31/26/10
f 33/66/11 34/27/11 35/29/11
f 39/59/12 37/30/12 40/27/12
f 41/67/13 42/31/13 43/33/13
f 47/68/14 45/34/14 48/36/14
f 51/69/15 49/37/15 52/39/15
f 53/70/16 54/40/16 55/42/16
f 57/71/17 58/8/17 59/44/17
f 61/72/18 62/45/18 63/47/18
f 65/56/19 66/48/19 67/50/19
f 69/73/20 70/51/20 71/32/20
f 75/74/21 73/21/21 76/54/21
f 77/50/22 78/22/22 79/56/22
f 83/75/23 81/57/23 84/59/23
f 85/51/24 86/60/24 87/52/24
f 89/76/25 90/62/25 91/64/25
o Body
v -1.500000 0.000000 2.500000
v 1.500000 0.000000 2.500000
v -1.500000 0.000000 -2.500000
v 1.500000 0.000000 -2.500000
v -1.500000 0.500000 2.250000
v 1.500000 0.500000 2.250000
v -1.500000 0.500000 -2.250000
v 1.500000 0.500000 -2.250000
v 0.000000 2.500000 1.000000
v -0.750000 2.299038 1.000000
v -1.299038 1.750000 1.000000
v -1.500000 1.000000 1.000000
v -1.299038 0.250000 1.000000
v -1.299038 1.750000 2.000000
v 0.000000 2.500000 2.000000
v -0.750000 2.299038 2.000000
v 1.299038 0.250000 1.000000
v 1.500000 0.999999 1.000000
v 1.299039 1.749999 1.000000
v 0.750001 2.299038 1.000000
v -1.500000 1.000000 2.000000
v -1.299038 0.250000 2.000000
v 1.299038 0.250000 2.000000
v 1.500000 0.999999 2.000000
v 1.299039 1.749999 2.000000
v 0.750001 2.299038 2.000000
v 0.000000 2.000000 2.000000
v 0.500000 1.866025 2.000000
v 0.866025 1.500000 2.000000
v 1.000000 1.000000 2.000000
v -1.000000 0.999999 1.250000
v 1.000000 1.000000 1.250000
v -1.000000 0.499999 2.000000
v 0.866025 1.500000 1.250000
v 1.000000 0.500000 1.250000
v 0.500000 1.866025 1.250000
v -1.000000 0.499999 1.250000
v 0.000000 2.000000 1.250000
v 1.000000 0.500000 2.000000
v -1.000000 0.999999 2.000000
v -0.500001 1.866025 1.250000
v -0.866026 1.499999 2.000000
v -0.866026 1.499999 1.250000
v -0.500001 1.866025 2.000000
v -1.000000 0.499999 2.000000
v -1.000000 0.999999 2.000000
v 1.000000 1.000000 2.000000
v 1.000000 0.500000 2.000000
v 1.000000 1.000000 1.750000
v -1.000000 0.499999 1.750000
v 1.000000 0.500000 1.750000
v -1.000000 0.999999 1.750000
v 0.000000 1.250000 1.750000
v -0.176777 1.176777 1.750000
v -0.250000 1.000000 1.750000
v 0.250000 1.000000 1.750000
v 0.176777 1.176777 1.750000
v -0.250000 1.000000 2.000000
v 0.250000 1.000000 2.000000
v -1.000000 0.500000 -0.250000
v -1.000000 0.500000 -2.250000
v 1.000000 0.500000 -0.250000
v 1.000000 0.500000 -2.250000
v -0.750000 2.000000 -0.250000
v -1.000000 1.750000 -0.250000
v -1.000000 1.750000 -2.250000
v -0.750000 2.000000 -2.250000
v 1.000000 1.750000 -0.250000
v 0.750000 2.000000 -0.250000
v 0.750000 2.000000 -2.250000
v 1.000000 1.750000 -2.250000
v -0.500000 1.000000 -0.250000
v 0.500000 1.000000 -0.250000
v -0.000000 1.500000 -0.250000
v -0.353553 1.353553 -0.250000
v 0.353553 1.353553 -0.250000
v -0.500000 0.500000 -0.250000
v 0.500000 1.000000 1.000000
v 0.353553 1.353553 1.000000
v -0.000000 1.500000 1.000000
v -0.353553 1.353553 1.000000
v -0.500000 1.000000 1.000000
v -0.500000 0.500000 1.000000
v 0.500000 0.500000 1.000000
v 0.500000 0.500000 -0.250000
v 0.000000 1.250000 2.000000
v -0.176777 1.176777 2.000000
v 0.176777 1.176777 2.000000
v 0.250000 0.500000 2.000000
v -0.000000 0.750000 2.000000
v 0.176777 0.676777 2.000000
v -0.187500 0.312500 -2.500000
v 0.187500 0.312500 -2.500000
v -0.187500 0.687500 -2.500000
v 0.187500 0.687500 -2.500000
v -0.187500 0.687500 -2.250000
v -0.187500 0.312500 -2.250000
v 0.187500 0.312500 -2.250000
v 0.187500 0.687500 -2.250000
v -0.176777 0.676777 2.500000
v 0.176777 0.323223 2.500000
v -0.176777 0.323223 2.500000
v 0.176777 0.676777 2.500000
v -0.000000 0.750000 2.500000
v 0.000000 0.250000 2.500000
v 0.250000 0.500000 2.500000
v -0.250000 0.500000 2.500000
v 0.176777 0.323223 2.000000
v 0.000000 0.250000 2.000000
v -0.176777 0.323223 2.000000
v -0.250000 0.500000 2.000000
v -0.176777 0.676777 2.000000
v -0.176777 0.676777 2.500000
v 0.176777 0.323223 2.500000
v -0.176777 0.323223 2.500000
v 0.176777 0.676777 2.500000
v -0.000000 0.750000 2.500000
v 0.000000 0.250000 2.500000
v 0.250000 0.500000 2.500000
v -0.250000 0.500000 2.500000
v 0.000000 2.500000 1.000000
v -0.750000 2.299038 1.000000
v -1.299038 1.750000 1.000000
v -1.500000 1.000000 1.000000
v -1.299038 0.250000 1.000000
v -1.299038 1.750000 2.000000
v 0.000000 2.500000 2.000000
v -0.750000 2.299038 2.000000
v 1.299038 0.250000 1.000000
v 1.500000 0.999999 1.000000
v 1.299039 1.749999 1.000000
v 0.750001 2.299038 1.000000
v -1.500000 1.000000 2.000000
v -1.299038 0.250000 2.000000
v 1.299038 0.250000 2.000000
v 1.500000 0.999999 2.000000
v 1.299039 1.749999 2.000000
v 0.750001 2.299038 2.000000
v 0.000000 2.000000 2.000000
v 0.500000 1.866025 2.000000
v 0.866025 1.500000 2.000000
v 1.000000 1.000000 2.000000
v -1.000000 0.999999 1.250000
v 1.000000 1.000000 1.250000
v -1.000000 0.499999 2.000000
v 0.866025 1.500000 1.250000
v 1.000000 0.500000 1.250000
v 0.500000 1.866025 1.250000
v -1.000000 0.499999 1.250000
v 0.000000 2.000000 1.250000
v 1.000000 0.500000 2.000000
v -1.000000 0.999999 2.000000
v -0.500001 1.866025 1.250000
v -0.866026 1.499999 2.000000
v -0.866026 1.499999 1.250000
v -0.500001 1.866025 2.000000
v 0.250000 0.500000 2.000000
v -0.000000 0.750000 2.000000
v 0.176777 0.676777 2.000000
v -0.176777 0.676777 2.500000
v 0.176777 0.323223 2.500000
v -0.176777 0.323223 2.500000
v 0.176777 0.676777 2.500000
v -0.000000 0.750000 2.500000
v 0.000000 0.250000 2.500000
v 0.250000 0.500000 2.500000
v -0.250000 0.500000 2.500000
v 0.176777 0.323223 2.000000
v 0.000000 0.250000 2.000000
v -0.176777 0.323223 2.000000
v -0.250000 0.500000 2.000000
v -0.176777 0.676777 2.000000
v 1.625000 0.676777 1.176777
v 1.625000 0.323223 0.823224
v 1.625000 0.323223 1.176777
v 1.625000 0.676777 0.823224
v 1.625000 0.750000 1.000000
v 1.625000 0.250000 1.000000
v 1.625000 0.500000 0.750000
v 1.625000 0.500000 1.250000
v 0.500000 0.500000 0.750000
v 0.500000 0.750000 1.000000
v 0.500000 0.676777 0.823223
v 1.625000 0.676777 1.176777
v 1.625000 0.323223 0.823224
v 1.625000 0.323223 1.176777
v 1.625000 0.676777 0.823224
v 1.625000 0.750000 1.000000
v 1.625000 0.250000 1.000000
v 1.625000 0.500000 0.750000
v 1.625000 0.500000 1.250000
v 0.500000 0.323223 0.823224
v 0.500000 0.250000 1.000000
v 0.500000 0.323223 1.176777
v 0.500000 0.500000 1.250000
v 0.500000 0.676777 1.176777
v -1.625000 0.676777 0.823223
v -1.625000 0.323223 1.176776
v -1.625000 0.323223 0.823223
v -1.625000 0.676777 1.176776
v -1.625000 0.750000 1.000000
v -1.625000 0.250000 1.000000
v -1.625000 0.500000 1.250000
v -1.625000 0.500000 0.750000
v -0.500000 0.500000 1.250000
v -0.500000 0.750000 1.000000
v -0.500000 0.676777 1.176777
v -1.625000 0.676777 0.823223
v -1.625000 0.323223 1.176776
v -1.625000 0.323223 0.823223
v -1.625000 0.676777 1.176776
v -1.625000 0.750000 1.000000
v -1.625000 0.250000 1.000000
v -1.625000 0.500000 1.250000
v -1.625000 0.500000 0.750000
v -0.500000 0.323223 1.176776
v -0.500000 0.250000 1.000000
v -0.500000 0.323223 0.823223
v -0.500000 0.500000 0.750000
v -0.500000 0.676777 0.823223
vt 0.526316 -0.000000
vt 0.526316 0.461538
vt 0.000000 0.461538
vt -0.000000 0.000000
vt 0.473684 0.000000
vt 0.473684 0.461538
vt 0.500000 0.538462
vt 0.026316 0.538462
vt 0.578947 0.461538
vt 0.868421 0.519231
vt 0.855263 0.596154
vt 0.802632 0.596154
vt 0.789474 0.519231
vt 0.769737 0.817308
vt 0.763158 0.788462
vt 0.815789 0.788462
vt 0.894737 0.711538
vt 0.654956 0.845692
vt 0.603732 0.975363
vt 0.450060 0.845692
vt 0.289644 0.996598
vt 0.155275 0.656450
vt 0.444799 0.769833
vt 0.789474 0.230769
vt 0.789474 0.423077
vt 0.578947 0.423077
vt 0.578947 0.192308
vt 0.578947 -0.000000
vt 0.789474 -0.000000
vt 0.789474 0.461538
vt 0.789474 0.653846
vt 0.578947 0.653846
vt 0.815789 0.230769
vt 1.000000 0.000000
vt 0.578947 0.230769
vt 0.789474 0.192308
vt 0.789474 0.826923
vt 0.789474 0.865385
vt 0.776316 0.865385
vt 0.815789 0.826923
vt 0.894737 0.826923
vt 0.894737 0.865385
vt 0.763158 0.865385
vt 0.684211 0.865385
vt 0.684211 0.826923
vt 0.855263 0.326923
vt 0.815789 0.326923
vt 0.815789 0.269231
vt 0.855263 0.269231
vt 0.881579 0.269231
vt 0.881579 0.326923
vt 0.855263 0.365385
vt 0.815789 0.365385
vt 0.855263 0.230769
vt 0.789474 0.326923
vt 0.789474 0.269231
vt 0.763158 0.826923
vt 0.802632 0.826923
vt 0.815789 0.865385
vt 0.809211 0.817308
vt 0.890644 0.243074
vt 0.925289 0.243074
vt 0.890644 0.293708
vt 0.925289 0.293708
vt 0.684211 0.711538
vt 0.894737 0.788462
vt 0.684211 0.788462
vt 0.463785 0.920558
vt 0.501284 0.975363
vt 0.450060 0.770826
vt 0.654956 0.770826
vt 0.641230 0.920558
vt 0.552508 0.995424
vt 0.424012 0.883215
vt 0.367221 0.966217
vt 0.212066 0.966217
vt 0.155275 0.883215
vt 0.134488 0.769833
vt 0.424012 0.656450
vt 1.000000 0.192308
vt 0.973684 0.230769
vt 0.776316 0.826923
vt 0.802632 0.865385
vt 0.907967 0.304195
vt 0.883469 0.268391
vt 0.907967 0.232587
vt 0.932464 0.268391
vt 0.000000 0.615385
vt 0.000000 0.538462
vt 0.131579 0.538462
vt 0.131579 0.846154
vt 0.000000 0.846154
vt 0.000000 0.788462
vt 0.131579 0.730769
vt 0.000000 0.730769
vt 0.000000 0.673077
vt 0.131579 0.923077
vt 0.000000 0.923077
vt 0.131579 0.788462
vt 0.131579 0.673077
vt 0.881579 0.307692
vt 0.934211 0.307692
vt 0.934211 0.336538
vt 0.881579 0.336538
vt 0.868421 0.365385
vt 0.789474 0.365385
vt 0.855263 0.711538
vt 0.802632 0.711538
vt 0.131579 0.615385
vn 0.000000 -1.000000 0.000000
vn 0.000000 1.000000 0.000000
vn 1.000000 0.000000 0.000000
vn -1.000000 0.000000 0.000000
vn 0.000000 0.447200 -0.894400
vn 0.000000 0.447200 0.894400
vn -0.000000 -0.000000 1.000000
vn 0.000000 0.000000 -1.000000
vn -0.707100 0.707100 0.000000
vn 0.707100 0.707100 0.000000
vn -0.382700 0.923900 0.000000
vn -0.923900 0.382700 0.000000
vn 0.382700 0.923900 0.000000
vn 0.923900 0.382700 0.000000
vn 0.980800 0.195100 0.000000
vn -0.980800 0.195100 0.000000
vn -0.707100 -0.707100 0.000000
vn 0.707100 -0.707100 0.000000
vn 0.965900 -0.258800 0.000000
vn -0.866000 0.500000 0.000000
vn 0.866000 0.500000 0.000000
vn -0.965900 -0.258800 0.000000
vn 0.500000 0.866000 0.000000
vn -0.500000 0.866000 0.000000
vn 0.991400 -0.130500 0.000000
vn 0.866000 -0.500000 0.000000
vn 0.500000 -0.866000 0.000000
vn -0.866000 -0.500000 0.000000
vn -0.991400 -0.130500 0.000000
vn -0.500000 -0.866000 0.000000
vn 0.000000 0.707100 0.707100
vn 0.000000 -0.707100 0.707100
vn 0.000000 -0.707100 -0.707100
vn 0.000000 0.707100 -0.707100
s off
f 95/77/26 96/78/26 94/79/26
f 98/80/27 100/81/27 99/82/27
f 96/78/28 100/83/28 98/84/28
f 93/78/29 97/83/29 99/84/29
f 95/85/30 99/78/30 100/77/30
f 94/85/31 98/78/31 97/77/31
f 117/86/32 121/87/32 122/88/32
f 118/86/32 120/87/32 121/88/32
f 107/86/32 119/87/32 120/88/32
f 108/86/32 136/87/32 119/88/32
f 106/86/32 134/87/32 136/88/32
f 113/86/32 132/87/32 134/88/32
f 125/87/32 132/88/32 113/89/32
f 116/86/32 122/87/32 131/88/32
f 149/90/33 148/91/33 147/92/33
f 147/92/33 148/91/33 142/93/33
f 124/94/32 128/95/32 123/96/32
f 101/97/33 109/98/33 104/99/33
f 162/100/27 159/101/27 156/102/27
f 160/103/28 154/104/28 155/105/28
f 158/106/29 153/107/29 152/108/29
f 162/109/33 155/105/33 153/110/33
f 159/101/34 158/106/34 157/85/34
f 161/111/35 160/103/35 163/112/35
f 156/109/32 152/105/32 154/110/32
f 178/113/36 145/114/36 146/115/36
f 151/116/27 139/117/27 141/118/27
f 147/119/27 144/120/27 138/121/27
f 151/92/32 150/91/32 140/93/32
f 186/122/33 187/123/33 185/124/33
f 184/125/29 189/126/29 188/127/29
f 186/122/27 188/128/27 191/129/27
f 185/124/26 190/109/26 189/130/26
f 187/123/28 191/131/28 190/132/28
f 146/115/37 147/119/37 150/133/37
f 145/114/38 178/113/38 180/134/38
f 180/134/39 151/116/39 148/135/39
f 179/90/32 151/92/32 180/136/32
f 207/137/32 206/138/32 205/139/32
f 267/137/28 266/138/28 268/140/28
f 291/137/29 290/138/29 292/140/29
f 93/80/26 95/77/26 94/79/26
f 97/79/27 98/80/27 99/82/27
f 94/79/28 96/78/28 98/84/28
f 95/79/29 93/78/29 99/84/29
f 96/104/30 95/85/30 100/77/30
f 93/104/31 94/85/31 97/77/31
f 116/89/32 117/86/32 122/88/32
f 117/89/32 118/86/32 121/88/32
f 118/89/32 107/86/32 120/88/32
f 107/89/32 108/86/32 119/88/32
f 108/89/32 106/86/32 136/88/32
f 106/89/32 113/86/32 134/88/32
f 114/86/32 125/87/32 113/89/32
f 115/89/32 116/86/32 131/88/32
f 147/92/33 146/136/33 145/113/33
f 145/113/33 149/90/33 147/92/33
f 143/141/33 142/93/33 148/91/33
f 144/142/33 147/92/33 142/93/33
f 148/91/33 141/143/33 143/141/33
f 135/144/32 123/96/32 133/145/32
f 129/146/32 127/147/32 124/94/32
f 124/94/32 126/148/32 128/95/32
f 128/95/32 130/149/32 133/145/32
f 133/145/32 123/96/32 128/95/32
f 129/146/32 124/94/32 123/96/32
f 103/150/33 102/151/33 104/99/33
f 101/97/33 112/152/33 111/153/33
f 111/153/33 110/154/33 109/98/33
f 109/98/33 105/155/33 104/99/33
f 104/99/33 102/151/33 101/97/33
f 101/97/33 111/153/33 109/98/33
f 161/111/27 162/100/27 156/102/27
f 163/112/28 160/103/28 155/105/28
f 157/85/29 158/106/29 152/108/29
f 153/110/33 158/156/33 159/157/33
f 159/157/33 162/109/33 153/110/33
f 163/112/33 155/105/33 162/109/33
f 156/102/34 159/101/34 157/85/34
f 162/100/35 161/111/35 163/112/35
f 154/110/32 160/156/32 161/157/32
f 161/157/32 156/109/32 154/110/32
f 157/112/32 152/105/32 156/109/32
f 179/158/36 178/113/36 146/115/36
f 148/135/27 151/116/27 141/118/27
f 150/133/27 147/119/27 138/121/27
f 137/141/32 140/93/32 150/91/32
f 139/142/32 151/92/32 140/93/32
f 150/91/32 138/143/32 137/141/32
f 184/125/33 186/122/33 185/124/33
f 186/122/29 184/125/29 188/127/29
f 187/123/27 186/122/27 191/129/27
f 184/125/26 185/124/26 189/130/26
f 185/124/28 187/123/28 190/132/28
f 179/158/37 146/115/37 150/133/37
f 149/159/38 145/114/38 180/134/38
f 149/159/39 180/134/39 148/135/39
f 180/136/32 178/113/32 179/90/32
f 179/90/32 150/91/32 151/92/32
f 208/140/32 209/160/32 205/139/32
f 205/139/32 212/161/32 207/137/32
f 207/137/32 210/162/32 206/138/32
f 206/138/32 211/163/32 208/140/32
f 208/140/32 205/139/32 206/138/32
f 268/140/28 269/160/28 265/139/28
f 265/139/28 272/161/28 267/137/28
f 267/137/28 270/162/28 266/138/28
f 266/138/28 271/163/28 268/140/28
f 268/140/28 265/139/28 267/137/28
f 292/140/29 293/160/29 289/139/29
f 289/139/29 296/161/29 291/137/29
f 291/137/29 294/162/29 290/138/29
f 290/138/29 295/163/29 292/140/29
f 292/140/29 289/139/29 291/137/29
s 1
f 170/164/40 176/165/28 177/166/28
f 164/167/41 174/168/41 173/169/34
f 166/170/27 172/171/27 171/172/35
f 164/167/41 169/173/29 175/174/29
f 167/175/34 173/169/34 172/171/27
f 168/176/35 171/172/35 170/164/40
f 192/177/34 204/178/34 203/179/29
f 194/177/42 202/178/42 201/179/26
f 198/180/28 193/177/43 200/178/43
f 196/180/27 195/177/35 183/178/35
f 196/177/27 182/178/27 204/179/34
f 199/177/29 203/178/29 202/179/42
f 197/177/26 201/178/26 200/179/43
f 195/180/35 198/177/28 181/178/28
f 222/181/28 228/86/28 227/89/44
f 215/182/45 216/181/29 225/86/29
f 223/181/46 229/86/46 228/89/28
f 216/182/29 217/181/47 226/86/47
f 224/181/48 230/86/48 229/89/46
f 214/181/49 220/86/49 219/89/27
f 213/181/27 219/86/27 230/89/48
f 215/181/45 218/86/45 220/89/49
f 244/88/50 237/87/28 241/183/28
f 244/87/50 235/183/50 247/184/51
f 248/87/52 245/183/52 242/184/26
f 233/87/53 238/183/53 236/184/54
f 246/87/51 247/183/51 245/184/52
f 231/87/26 242/183/26 240/184/55
f 236/183/54 239/184/29 243/88/29
f 232/87/55 240/183/55 238/184/53
f 252/177/34 264/178/34 263/179/29
f 254/177/42 262/178/42 261/179/26
f 258/180/28 253/177/43 260/178/43
f 256/180/27 255/177/35 251/178/35
f 256/177/27 250/178/27 264/179/34
f 259/177/29 263/178/29 262/179/42
f 257/177/26 261/178/26 260/179/43
f 255/180/35 258/177/28 249/178/28
f 276/177/56 288/178/56 287/179/32
f 278/177/57 286/178/57 285/179/26
f 277/177/58 284/178/58 273/179/33
f 279/177/59 275/178/59 274/179/27
f 280/177/27 274/178/27 288/179/56
f 283/177/32 287/178/32 286/179/57
f 281/177/26 285/178/26 284/179/58
f 282/177/33 273/178/33 275/179/59
f 307/180/33 300/177/59 312/178/59
f 302/177/58 310/178/58 309/179/26
f 301/177/57 308/178/57 297/179/32
f 303/177/56 299/178/56 298/179/27
f 304/177/27 298/178/27 312/179/59
f 307/177/33 311/178/33 310/179/58
f 305/177/26 309/178/26 308/179/57
f 306/177/32 297/178/32 299/179/56
f 165/185/40 170/164/40 177/166/28
f 167/175/34 164/167/41 173/169/34
f 168/176/35 166/170/27 171/172/35
f 174/168/41 164/167/41 175/174/29
f 166/170/27 167/175/34 172/171/27
f 165/185/40 168/176/35 170/164/40
f 199/180/29 192/177/34 203/179/29
f 197/180/26 194/177/42 201/179/26
f 181/179/28 198/180/28 200/178/43
f 182/179/27 196/180/27 183/178/35
f 192/180/34 196/177/27 204/179/34
f 194/180/42 199/177/29 202/179/42
f 193/180/43 197/177/26 200/179/43
f 183/179/35 195/180/35 181/178/28
f 221/182/44 222/181/28 227/89/44
f 218/89/45 215/182/45 225/86/29
f 222/182/28 223/181/46 228/89/28
f 225/89/29 216/182/29 226/86/47
f 223/182/46 224/181/48 229/89/46
f 213/182/27 214/181/49 219/89/27
f 224/182/48 213/181/27 230/89/48
f 214/182/49 215/181/45 220/89/49
f 235/184/50 244/88/50 241/183/28
f 246/88/51 244/87/50 247/184/51
f 231/88/26 248/87/52 242/184/26
f 234/88/54 233/87/53 236/184/54
f 248/88/52 246/87/51 245/184/52
f 232/88/55 231/87/26 240/184/55
f 234/87/54 236/183/54 243/88/29
f 233/88/53 232/87/55 238/184/53
f 259/180/29 252/177/34 263/179/29
f 257/180/26 254/177/42 261/179/26
f 249/179/28 258/180/28 260/178/43
f 250/179/27 256/180/27 251/178/35
f 252/180/34 256/177/27 264/179/34
f 254/180/42 259/177/29 262/179/42
f 253/180/43 257/177/26 260/179/43
f 251/179/35 255/180/35 249/178/28
f 283/180/32 276/177/56 287/179/32
f 281/180/26 278/177/57 285/179/26
f 282/180/33 277/177/58 273/179/33
f 280/180/27 279/177/59 274/179/27
f 276/180/56 280/177/27 288/179/56
f 278/180/57 283/177/32 286/179/57
f 277/180/58 281/177/26 284/179/58
f 279/180/59 282/177/33 275/179/59
f 311/179/33 307/180/33 312/178/59
f 305/180/26 302/177/58 309/179/26
f 306/180/32 301/177/57 297/179/32
f 304/180/27 303/177/56 298/179/27
f 300/180/59 304/177/27 312/179/59
f 302/180/58 307/177/33 310/179/58
f 301/180/57 305/177/26 308/179/57
f 303/180/56 306/177/32 299/179/56
