# Blender v2.79 (sub 0) OBJ File: 'vending_machine.blend'
# www.blender.org
o Obamna
v -0.500000 0.000000 0.500000
v 0.500000 0.000000 0.500000
v -0.500000 0.000000 -0.500000
v 0.500000 0.000000 -0.500000
v -0.500000 2.000000 0.500000
v 0.500000 2.000000 0.500000
v -0.500000 2.000000 -0.500000
v 0.500000 2.000000 -0.500000
v 0.500000 0.500000 0.312500
v 0.500000 0.250000 0.312500
v 0.500000 0.500000 -0.187500
v 0.500000 0.250000 -0.187500
v 0.375000 0.500000 -0.187500
v 0.375000 0.500000 0.312500
v 0.375000 0.250000 0.312500
v 0.375000 0.250000 -0.187500
v 0.500000 1.750000 0.375000
v 0.500000 0.625000 0.375000
v 0.500000 1.750000 -0.250000
v 0.500000 0.625000 -0.250000
v 0.250000 1.750000 -0.250000
v 0.250000 1.750000 0.375000
v 0.250000 0.625000 0.375000
v 0.250000 0.625000 -0.250000
v 0.500000 1.750000 -0.250000
v 0.500000 1.750000 0.375000
v 0.500000 0.625000 0.375000
v 0.500000 0.625000 -0.250000
vt 0.875000 -0.000000
vt 0.750000 0.216216
vt 0.750000 -0.000000
vt 0.750000 0.648649
vt 0.875000 0.864865
vt 0.750000 0.864865
vt 0.718750 0.648649
vt 0.640625 0.702703
vt 0.640625 0.648649
vt 0.625000 0.216216
vt 0.500000 0.648649
vt 0.500000 0.216216
vt 1.000000 0.216216
vt 0.875000 0.648649
vt 0.875000 0.216216
vt 0.625000 0.648649
vt 0.609375 0.702703
vt 0.640625 0.945946
vt 0.609375 0.945946
vt 0.671875 0.027027
vt 0.734375 0.081081
vt 0.671875 0.081081
vt 0.750000 0.081081
vt 0.734375 0.027027
vt 0.750000 0.027027
vt 0.656250 0.027027
vt 0.656250 0.081081
vt 0.734375 0.000000
vt 0.671875 0.000000
vt 0.671875 0.108108
vt 0.734375 0.108108
vt 0.750000 0.945946
vt 0.718750 0.702703
vt 0.750000 0.702703
vt 0.718750 0.945946
vt 0.843750 0.351351
vt 0.773438 0.324324
vt 0.835938 0.324324
vt 0.640625 1.000000
vt 0.718750 1.000000
vt 0.835938 0.270270
vt 0.773438 0.270270
vt 0.765625 0.351351
vt 0.843750 0.594595
vt 0.765625 0.351351
vt 0.843750 0.594595
vt 0.765625 0.594595
vt 1.000000 0.648649
vt 0.765625 0.594595
vt 0.843750 0.351351
vn 0.0000 -1.0000 0.0000
vn 0.0000 1.0000 0.0000
vn -1.0000 0.0000 0.0000
vn 0.0000 0.0000 -1.0000
vn 0.0000 0.0000 1.0000
vn 1.0000 0.0000 0.0000
s off
f 3/1/1 2/2/1 1/3/1
f 6/4/2 7/5/2 5/6/2
f 20/7/2 23/8/2 18/9/2
f 1/10/3 7/11/3 3/12/3
f 3/13/4 8/14/4 4/15/4
f 2/2/5 5/16/5 1/10/5
f 18/17/4 22/18/4 17/19/4
f 15/20/6 13/21/6 14/22/6
f 11/23/5 16/24/5 12/25/5
f 10/26/4 14/22/4 9/27/4
f 12/28/2 15/20/2 10/29/2
f 9/30/1 13/21/1 11/31/1
f 19/32/5 24/33/5 20/34/5
f 23/8/6 21/35/6 22/18/6
f 20/36/6 9/37/6 11/38/6
f 17/39/1 21/35/1 19/40/1
f 12/41/6 2/2/6 4/15/6
f 10/42/6 9/37/6 18/43/6
f 11/38/6 12/41/6 4/15/6
f 6/4/6 19/44/6 8/14/6
f 27/45/6 25/46/6 26/47/6
f 3/1/1 4/15/1 2/2/1
f 6/4/2 8/14/2 7/5/2
f 20/7/2 24/33/2 23/8/2
f 1/10/3 5/16/3 7/11/3
f 3/13/4 7/48/4 8/14/4
f 2/2/5 6/4/5 5/16/5
f 18/17/4 23/8/4 22/18/4
f 15/20/6 16/24/6 13/21/6
f 11/23/5 13/21/5 16/24/5
f 10/26/4 15/20/4 14/22/4
f 12/28/2 16/24/2 15/20/2
f 9/30/1 14/22/1 13/21/1
f 19/32/5 21/35/5 24/33/5
f 23/8/6 24/33/6 21/35/6
f 20/36/6 18/43/6 9/37/6
f 17/39/1 22/18/1 21/35/1
f 12/41/6 10/42/6 2/2/6
f 17/49/6 6/4/6 18/43/6
f 6/4/6 2/2/6 18/43/6
f 2/2/6 10/42/6 18/43/6
f 4/15/6 8/14/6 20/36/6
f 8/14/6 19/44/6 20/36/6
f 20/36/6 11/38/6 4/15/6
f 6/4/6 17/49/6 19/44/6
f 27/45/6 28/50/6 25/46/6
o Soda
v -0.500000 0.000000 0.500000
v 0.500000 0.000000 0.500000
v -0.500000 0.000000 -0.500000
v 0.500000 0.000000 -0.500000
v -0.500000 2.000000 0.500000
v 0.500000 2.000000 0.500000
v -0.500000 2.000000 -0.500000
v 0.500000 2.000000 -0.500000
v 0.500000 0.500000 0.250000
v 0.500000 0.250000 0.250000
v 0.500000 0.500000 -0.250000
v 0.500000 0.250000 -0.250000
v 0.375000 0.500000 -0.250000
v 0.375000 0.500000 0.250000
v 0.375000 0.250000 0.250000
v 0.375000 0.250000 -0.250000
vt 0.375000 0.000000
vt 0.250000 0.216216
vt 0.250000 0.000000
vt 0.250000 0.648649
vt 0.375000 0.864865
vt 0.250000 0.864865
vt 0.343750 0.324324
vt 0.375000 0.216216
vt 0.375000 0.648649
vt 0.125000 0.216216
vt 0.000000 0.648649
vt 0.000000 0.216216
vt 0.500000 0.216216
vt 0.125000 0.648649
vt 0.343750 0.270270
vt 0.171875 0.027027
vt 0.234375 0.081081
vt 0.171875 0.081081
vt 0.250000 0.081081
vt 0.234375 0.027027
vt 0.250000 0.027027
vt 0.156250 0.027027
vt 0.156250 0.081081
vt 0.234375 0.000000
vt 0.171875 0.000000
vt 0.171875 0.108108
vt 0.234375 0.108108
vt 0.281250 0.324324
vt 0.500000 0.648649
vt 0.281250 0.270270
vn 0.0000 -1.0000 0.0000
vn 0.0000 1.0000 0.0000
vn 1.0000 0.0000 0.0000
vn -1.0000 0.0000 0.0000
vn 0.0000 0.0000 -1.0000
vn 0.0000 0.0000 1.0000
s off
f 31/51/7 30/52/7 29/53/7
f 34/54/8 35/55/8 33/56/8
f 39/57/9 32/58/9 36/59/9
f 29/60/10 35/61/10 31/62/10
f 31/63/11 36/59/11 32/58/11
f 30/52/12 33/64/12 29/60/12
f 40/65/9 30/52/9 32/58/9
f 43/66/9 41/67/9 42/68/9
f 39/69/12 44/70/12 40/71/12
f 38/72/11 42/68/11 37/73/11
f 40/74/8 43/66/8 38/75/8
f 37/76/7 41/67/7 39/77/7
f 37/78/9 36/59/9 34/54/9
f 30/52/9 37/78/9 34/54/9
f 31/51/7 32/58/7 30/52/7
f 34/54/8 36/59/8 35/55/8
f 39/57/9 40/65/9 32/58/9
f 29/60/10 33/64/10 35/61/10
f 31/63/11 35/79/11 36/59/11
f 30/52/12 34/54/12 33/64/12
f 40/65/9 38/80/9 30/52/9
f 43/66/9 44/70/9 41/67/9
f 39/69/12 41/67/12 44/70/12
f 38/72/11 43/66/11 42/68/11
f 40/74/8 44/70/8 43/66/8
f 37/76/7 42/68/7 41/67/7
f 37/78/9 39/57/9 36/59/9
f 30/52/9 38/80/9 37/78/9
