# Blender v2.79 (sub 0) OBJ File: 'zpe.blend'
# www.blender.org
o Cube_Cube.001
v -0.500000 0.875000 0.500000
v -0.500000 1.000000 0.500000
v -0.500000 0.875000 -0.500000
v -0.500000 1.000000 -0.500000
v 0.500000 0.875000 0.500000
v 0.500000 1.000000 0.500000
v 0.500000 0.875000 -0.500000
v 0.500000 1.000000 -0.500000
v -0.437500 1.000000 0.437500
v -0.437500 1.000000 -0.437500
v 0.437500 1.000000 -0.437500
v 0.437500 1.000000 0.437500
v -0.437500 0.937500 0.437500
v -0.437500 0.937500 -0.437500
v 0.437500 0.937500 -0.437500
v 0.437500 0.937500 0.437500
v -0.500000 0.000000 0.500000
v -0.500000 0.125000 0.500000
v -0.500000 0.000000 -0.500000
v -0.500000 0.125000 -0.500000
v 0.500000 0.000000 0.500000
v 0.500000 0.125000 0.500000
v 0.500000 0.000000 -0.500000
v 0.500000 0.125000 -0.500000
v -0.250000 0.125000 0.250000
v -0.250000 0.875000 0.250000
v -0.250000 0.125000 -0.250000
v -0.250000 0.875000 -0.250000
v 0.250000 0.125000 0.250000
v 0.250000 0.875000 0.250000
v 0.250000 0.125000 -0.250000
v 0.250000 0.875000 -0.250000
v 0.500000 0.687500 0.187500
v 0.500000 0.687500 -0.187500
v 0.500000 0.312500 0.187500
v 0.500000 0.312500 -0.187500
v 0.437500 0.687500 -0.187500
v 0.437500 0.687500 0.187500
v 0.437500 0.312500 -0.187500
v 0.437500 0.312500 0.187500
v 0.437500 0.625000 -0.125000
v 0.437500 0.625000 0.125000
v 0.437500 0.375000 -0.125000
v 0.437500 0.375000 0.125000
v 0.250000 0.625000 -0.125000
v 0.250000 0.625000 0.125000
v 0.250000 0.375000 -0.125000
v 0.250000 0.375000 0.125000
v -0.500000 0.687500 -0.187500
v -0.500000 0.687500 0.187500
v -0.500000 0.312500 -0.187500
v -0.500000 0.312500 0.187500
v -0.437500 0.687500 0.187500
v -0.437500 0.687500 -0.187500
v -0.437500 0.312500 0.187500
v -0.437500 0.312500 -0.187500
v -0.437500 0.625000 0.125000
v -0.437500 0.625000 -0.125000
v -0.437500 0.375000 0.125000
v -0.437500 0.375000 -0.125000
v -0.250000 0.625000 0.125000
v -0.250000 0.625000 -0.125000
v -0.250000 0.375000 0.125000
v -0.250000 0.375000 -0.125000
v 0.187500 0.687500 -0.500000
v -0.187500 0.687500 -0.500000
v 0.187500 0.312500 -0.500000
v -0.187500 0.312500 -0.500000
v -0.187500 0.687500 -0.437500
v 0.187500 0.687500 -0.437500
v -0.187500 0.312500 -0.437500
v 0.187500 0.312500 -0.437500
v -0.125000 0.625000 -0.437500
v 0.125000 0.625000 -0.437500
v -0.125000 0.375000 -0.437500
v 0.125000 0.375000 -0.437500
v -0.125000 0.625000 -0.250000
v 0.125000 0.625000 -0.250000
v -0.125000 0.375000 -0.250000
v 0.125000 0.375000 -0.250000
v -0.187500 0.687500 0.500000
v 0.187500 0.687500 0.500000
v -0.187500 0.312500 0.500000
v 0.187500 0.312500 0.500000
v 0.187500 0.687500 0.437500
v -0.187500 0.687500 0.437500
v 0.187500 0.312500 0.437500
v -0.187500 0.312500 0.437500
v 0.125000 0.625000 0.437500
v -0.125000 0.625000 0.437500
v 0.125000 0.375000 0.437500
v -0.125000 0.375000 0.437500
v 0.125000 0.625000 0.250000
v -0.125000 0.625000 0.250000
v 0.125000 0.375000 0.250000
v -0.125000 0.375000 0.250000
v 0.187500 0.125000 -0.281250
v 0.187500 0.125000 -0.406250
v 0.312500 0.125000 -0.281250
v 0.312500 0.125000 -0.406250
v 0.187500 0.437500 -0.281250
v 0.187500 0.437500 -0.406250
v 0.312500 0.562500 -0.281250
v 0.312500 0.562500 -0.406250
v -0.312500 0.437500 -0.281250
v -0.312500 0.437500 -0.406250
v -0.187500 0.562500 -0.281250
v -0.187500 0.562500 -0.406250
v -0.312500 0.875000 -0.281250
v -0.312500 0.875000 -0.406250
v -0.187500 0.875000 -0.281250
v -0.187500 0.875000 -0.406250
v -0.187500 0.125000 0.281250
v -0.187500 0.125000 0.406250
v -0.312500 0.125000 0.281250
v -0.312500 0.125000 0.406250
v -0.187500 0.437500 0.281250
v -0.187500 0.437500 0.406250
v -0.312500 0.562500 0.281250
v -0.312500 0.562500 0.406250
v 0.312500 0.437500 0.281250
v 0.312500 0.437500 0.406250
v 0.187500 0.562500 0.281250
v 0.187500 0.562500 0.406250
v 0.312500 0.875000 0.281250
v 0.312500 0.875000 0.406250
v 0.187500 0.875000 0.281250
v 0.187500 0.875000 0.406250
v -0.281250 0.125000 -0.187500
v -0.406250 0.125000 -0.187500
v -0.281250 0.125000 -0.312500
v -0.406250 0.125000 -0.312500
v -0.281250 0.437500 -0.187500
v -0.406250 0.437500 -0.187500
v -0.281250 0.562500 -0.312500
v -0.406250 0.562500 -0.312500
v -0.281250 0.437500 0.312500
v -0.406250 0.437500 0.312500
v -0.281250 0.562500 0.187500
v -0.406250 0.562500 0.187500
v -0.281250 0.875000 0.312500
v -0.406250 0.875000 0.312500
v -0.281250 0.875000 0.187500
v -0.406250 0.875000 0.187500
v 0.281250 0.125000 0.187500
v 0.406250 0.125000 0.187500
v 0.281250 0.125000 0.312500
v 0.406250 0.125000 0.312500
v 0.281250 0.437500 0.187500
v 0.406250 0.437500 0.187500
v 0.281250 0.562500 0.312500
v 0.406250 0.562500 0.312500
v 0.281250 0.437500 -0.312500
v 0.406250 0.437500 -0.312500
v 0.281250 0.562500 -0.187500
v 0.406250 0.562500 -0.187500
v 0.281250 0.875000 -0.312500
v 0.406250 0.875000 -0.312500
v 0.281250 0.875000 -0.187500
v 0.406250 0.875000 -0.187500
v -0.312500 0.125000 0.312500
v -0.312500 0.875000 0.312500
v -0.312500 0.125000 -0.312500
v -0.312500 0.875000 -0.312500
v 0.312500 0.125000 0.312500
v 0.312500 0.875000 0.312500
v 0.312500 0.125000 -0.312500
v 0.312500 0.875000 -0.312500
v -0.375000 0.125000 0.375000
v -0.375000 0.875000 0.375000
v -0.375000 0.125000 -0.375000
v -0.375000 0.875000 -0.375000
v 0.375000 0.125000 0.375000
v 0.375000 0.875000 0.375000
v 0.375000 0.125000 -0.375000
v 0.375000 0.875000 -0.375000
v 0.500000 0.125000 0.437500
v 0.500000 0.875000 0.437500
v 0.500000 0.125000 0.500000
v 0.500000 0.875000 0.500000
v 0.437500 0.125000 0.437500
v 0.437500 0.875000 0.437500
v 0.437500 0.125000 0.500000
v 0.437500 0.875000 0.500000
v -0.437500 0.125000 0.437500
v -0.437500 0.875000 0.437500
v -0.437500 0.125000 0.500000
v -0.437500 0.875000 0.500000
v -0.500000 0.125000 0.437500
v -0.500000 0.875000 0.437500
v -0.500000 0.125000 0.500000
v -0.500000 0.875000 0.500000
v -0.500000 0.875000 -0.437500
v -0.500000 0.125000 -0.437500
v -0.500000 0.875000 -0.500000
v -0.500000 0.125000 -0.500000
v -0.437500 0.875000 -0.437500
v -0.437500 0.125000 -0.437500
v -0.437500 0.875000 -0.500000
v -0.437500 0.125000 -0.500000
v 0.437500 0.875000 -0.437500
v 0.437500 0.125000 -0.437500
v 0.437500 0.875000 -0.500000
v 0.437500 0.125000 -0.500000
v 0.500000 0.875000 -0.437500
v 0.500000 0.125000 -0.437500
v 0.500000 0.875000 -0.500000
v 0.500000 0.125000 -0.500000
v -0.437500 0.875000 0.468750
v -0.437500 0.125000 0.468750
v 0.437500 0.875000 0.468750
v 0.437500 0.125000 0.468750
v 0.468750 0.875000 0.437500
v 0.468750 0.125000 0.437500
v 0.468750 0.875000 -0.437500
v 0.468750 0.125000 -0.437500
v 0.437500 0.875000 -0.468750
v 0.437500 0.125000 -0.468750
v -0.437500 0.875000 -0.468750
v -0.437500 0.125000 -0.468750
v -0.468750 0.875000 -0.437500
v -0.468750 0.125000 -0.437500
v -0.468750 0.875000 0.437500
v -0.468750 0.125000 0.437500
vt 0.363636 0.692308
vt -0.000000 0.653846
vt 0.363636 0.653846
vt 0.363636 0.692308
vt -0.000000 0.653846
vt 0.363636 0.653846
vt 0.363636 0.692308
vt 0.000000 0.653846
vt 0.363636 0.653846
vt 0.363636 0.692308
vt -0.000000 0.653846
vt 0.363636 0.653846
vt 0.000000 0.346154
vt 0.363636 0.346154
vt 0.022727 0.711538
vt 0.000000 0.692308
vt 0.340909 0.711538
vt 0.022727 0.730769
vt 0.022727 0.711538
vt 0.000000 0.692308
vt 0.022727 0.711538
vt -0.000000 0.692308
vt 0.022727 0.711538
vt 0.000000 0.692308
vt 0.340909 1.000000
vt 0.340909 0.730769
vt 0.340909 0.711538
vt 0.022727 0.730769
vt 0.340909 0.711538
vt 0.022727 0.730769
vt 0.340909 0.711538
vt 0.022727 0.730769
vt 0.363636 0.346154
vt 0.000000 0.307692
vt 0.363636 0.307692
vt 0.000000 0.307692
vt 0.363636 0.346154
vt 0.000000 0.346154
vt -0.000000 0.307692
vt 0.363636 0.346154
vt -0.000000 0.346154
vt 0.363636 0.346154
vt 0.000000 0.307692
vt 0.363636 0.307692
vt 0.363636 0.653846
vt -0.000000 0.653846
vt 0.363636 0.307692
vt -0.000000 0.000000
vt 0.363636 0.000000
vt 1.000000 0.230769
vt 0.818182 0.000000
vt 1.000000 0.000000
vt 1.000000 0.230769
vt 0.818182 0.000000
vt 1.000000 0.000000
vt 1.000000 0.230769
vt 0.818182 0.000000
vt 1.000000 0.000000
vt 1.000000 0.230769
vt 0.818182 0.000000
vt 1.000000 0.000000
vt 0.568182 0.211538
vt 0.704545 0.096154
vt 0.704545 0.211538
vt 0.568182 0.076923
vt 0.681818 0.057692
vt 0.704545 0.076923
vt 0.727273 0.211538
vt 0.568182 0.096154
vt 0.568182 0.230769
vt 0.545455 0.096154
vt 0.681818 0.250000
vt 0.590909 0.307692
vt 0.590909 0.250000
vt 0.704545 0.230769
vt 0.545455 0.211538
vt 0.522727 0.115385
vt 0.727273 0.096154
vt 0.750000 0.192308
vt 0.704545 0.211538
vt 0.568182 0.096154
vt 0.704545 0.096154
vt 0.522727 0.192308
vt 0.454545 0.115385
vt 0.750000 0.115385
vt 0.818182 0.192308
vt 0.590909 0.057692
vt 0.681818 0.000000
vt 0.545455 0.211538
vt 0.522727 0.115385
vt 0.545455 0.096154
vt 0.704545 0.076923
vt 0.568182 0.211538
vt 0.727273 0.211538
vt 0.568182 0.230769
vt 0.750000 0.115385
vt 0.818182 0.192308
vt 0.750000 0.192308
vt 0.727273 0.096154
vt 0.704545 0.230769
vt 0.590909 0.250000
vt 0.568182 0.076923
vt 0.681818 0.057692
vt 0.681818 0.250000
vt 0.590909 0.307692
vt 0.590909 0.057692
vt 0.681818 0.000000
vt 0.522727 0.192308
vt 0.454545 0.115385
vt 0.568182 0.096154
vt 0.704545 0.211538
vt 0.568182 0.211538
vt 0.727273 0.096154
vt 0.750000 0.192308
vt 0.727273 0.211538
vt 0.568182 0.230769
vt 0.704545 0.096154
vt 0.545455 0.096154
vt 0.704545 0.076923
vt 0.522727 0.192308
vt 0.454545 0.115385
vt 0.522727 0.115385
vt 0.545455 0.211538
vt 0.568182 0.076923
vt 0.681818 0.057692
vt 0.704545 0.230769
vt 0.590909 0.250000
vt 0.568182 0.211538
vt 0.704545 0.096154
vt 0.704545 0.211538
vt 0.590909 0.057692
vt 0.681818 0.000000
vt 0.681818 0.250000
vt 0.590909 0.307692
vt 0.750000 0.115385
vt 0.818182 0.192308
vt 0.568182 0.076923
vt 0.681818 0.057692
vt 0.704545 0.076923
vt 0.727273 0.211538
vt 0.568182 0.096154
vt 0.568182 0.230769
vt 0.545455 0.096154
vt 0.681818 0.250000
vt 0.590909 0.307692
vt 0.590909 0.250000
vt 0.704545 0.230769
vt 0.545455 0.211538
vt 0.522727 0.115385
vt 0.727273 0.096154
vt 0.750000 0.192308
vt 0.522727 0.192308
vt 0.454545 0.115385
vt 0.750000 0.115385
vt 0.818182 0.192308
vt 0.590909 0.057692
vt 0.681818 0.000000
vt 1.000000 0.480769
vt 0.954545 0.634615
vt 0.954545 0.480769
vt 1.000000 0.480769
vt 0.954545 0.634615
vt 0.954545 0.480769
vt 0.909091 0.307692
vt 0.954545 0.403846
vt 0.909091 0.442308
vt 1.000000 0.307692
vt 0.954545 0.307692
vt 0.863636 0.307692
vt 0.818182 0.403846
vt 0.818182 0.307692
vt 0.863636 0.442308
vt 0.863636 0.596154
vt 0.818182 0.480769
vt 0.909091 0.596154
vt 1.000000 0.634615
vt 0.954545 0.769231
vt 0.909091 0.673077
vt 0.863636 0.769231
vt 0.863636 0.673077
vt 0.818182 0.769231
vt 0.818182 0.634615
vt 0.909091 0.769231
vt 0.909091 0.307692
vt 0.954545 0.403846
vt 0.909091 0.442308
vt 1.000000 0.307692
vt 0.954545 0.307692
vt 0.863636 0.307692
vt 0.818182 0.403846
vt 0.818182 0.307692
vt 0.863636 0.442308
vt 0.863636 0.596154
vt 0.818182 0.480769
vt 0.909091 0.596154
vt 1.000000 0.634615
vt 0.954545 0.769231
vt 0.909091 0.673077
vt 0.863636 0.769231
vt 0.863636 0.673077
vt 0.818182 0.769231
vt 0.818182 0.634615
vt 0.909091 0.769231
vt 1.000000 0.480769
vt 0.954545 0.634615
vt 0.954545 0.480769
vt 1.000000 0.480769
vt 0.954545 0.634615
vt 0.954545 0.480769
vt 0.909091 0.307692
vt 0.954545 0.403846
vt 0.909091 0.442308
vt 1.000000 0.307692
vt 0.954545 0.307692
vt 0.863636 0.307692
vt 0.818182 0.403846
vt 0.818182 0.307692
vt 0.863636 0.442308
vt 0.863636 0.596154
vt 0.818182 0.480769
vt 0.909091 0.596154
vt 1.000000 0.634615
vt 0.954545 0.769231
vt 0.909091 0.673077
vt 0.863636 0.769231
vt 0.863636 0.673077
vt 0.818182 0.769231
vt 0.818182 0.634615
vt 0.909091 0.769231
vt 0.909091 0.307692
vt 0.954545 0.403846
vt 0.909091 0.442308
vt 1.000000 0.307692
vt 0.954545 0.307692
vt 0.863636 0.307692
vt 0.818182 0.403846
vt 0.818182 0.307692
vt 0.863636 0.442308
vt 0.863636 0.596154
vt 0.818182 0.480769
vt 0.909091 0.596154
vt 1.000000 0.634615
vt 0.954545 0.769231
vt 0.909091 0.673077
vt 0.863636 0.769231
vt 0.863636 0.673077
vt 0.818182 0.769231
vt 0.818182 0.634615
vt 0.909091 0.769231
vt 0.590909 1.000000
vt 0.363636 0.769231
vt 0.590909 0.769231
vt 0.590909 1.000000
vt 0.363636 0.769231
vt 0.590909 0.769231
vt 0.590909 1.000000
vt 0.363636 0.769231
vt 0.590909 0.769231
vt 0.590909 1.000000
vt 0.363636 0.769231
vt 0.590909 0.769231
vt 0.363636 0.538462
vt 0.636364 0.769231
vt 0.363636 0.769231
vt 0.363636 0.538462
vt 0.636364 0.769231
vt 0.363636 0.769231
vt 0.636364 0.769231
vt 0.363636 0.538462
vt 0.636364 0.538462
vt 0.636364 0.769231
vt 0.363636 0.538462
vt 0.636364 0.538462
vt 0.454545 0.230769
vt 0.431818 -0.000000
vt 0.454545 -0.000000
vt 0.386364 -0.000000
vt 0.409091 0.230769
vt 0.386364 0.230769
vt 0.386364 0.230769
vt 0.363636 -0.000000
vt 0.386364 -0.000000
vt 0.363636 0.230769
vt 0.409091 -0.000000
vt 0.431818 0.230769
vt 0.409091 0.230769
vt 0.409091 -0.000000
vt 0.431818 0.230769
vt 0.431818 -0.000000
vt 0.454545 0.230769
vt 0.409091 0.230769
vt 0.431818 -0.000000
vt 0.431818 0.230769
vt 0.363636 -0.000000
vt 0.386364 0.230769
vt 0.363636 0.230769
vt 0.386364 -0.000000
vt 0.409091 0.230769
vt 0.386364 0.230769
vt 0.454545 0.230769
vt 0.431818 0.230769
vt 0.454545 -0.000000
vt 0.454545 0.230769
vt 0.386364 -0.000000
vt 0.409091 -0.000000
vt 0.363636 -0.000000
vt 0.363636 0.230769
vt 0.409091 -0.000000
vt 0.431818 -0.000000
vt 0.681818 0.307692
vt 0.363636 0.538462
vt 0.363636 0.307692
vt 0.681818 0.307692
vt 0.363636 0.538462
vt 0.363636 0.307692
vt 0.363636 0.538462
vt 0.681818 0.307692
vt 0.681818 0.538462
vt 0.681818 0.307692
vt 0.363636 0.538462
vt 0.363636 0.307692
vt 0.022727 1.000000
vt 0.340909 0.730769
vt 0.340909 0.730769
vt 0.340909 0.730769
vt 0.000000 0.346154
vt 0.363636 0.307692
vt 0.000000 0.346154
vt 0.818182 0.230769
vt 0.818182 0.230769
vt 0.818182 0.230769
vt 0.818182 0.230769
vt 0.681818 0.307692
vt 0.454545 0.192308
vt 0.818182 0.115385
vt 0.590909 0.000000
vt 0.818182 0.115385
vt 0.681818 0.307692
vt 0.590909 0.000000
vt 0.454545 0.192308
vt 0.454545 0.192308
vt 0.590909 0.000000
vt 0.681818 0.307692
vt 0.818182 0.115385
vt 0.681818 0.307692
vt 0.454545 0.192308
vt 0.818182 0.115385
vt 0.590909 0.000000
vt 1.000000 0.403846
vt 1.000000 0.769231
vt 1.000000 0.403846
vt 1.000000 0.769231
vt 1.000000 0.403846
vt 1.000000 0.769231
vt 1.000000 0.403846
vt 1.000000 0.769231
vt 0.363636 1.000000
vt 0.363636 1.000000
vt 0.363636 1.000000
vt 0.363636 1.000000
vt 0.636364 0.538462
vt 0.636364 0.538462
vt 0.363636 0.769231
vt 0.363636 0.769231
vt 0.363636 0.230769
vt 0.363636 -0.000000
vt 0.454545 -0.000000
vt 0.454545 -0.000000
vt 0.681818 0.538462
vt 0.681818 0.538462
vt 0.363636 0.307692
vt 0.681818 0.538462
vn -1.0000 0.0000 0.0000
vn 0.0000 0.0000 -1.0000
vn 1.0000 0.0000 0.0000
vn 0.0000 0.0000 1.0000
vn 0.0000 -1.0000 0.0000
vn 0.0000 1.0000 0.0000
s off
f 2/1/1 3/2/1 1/3/1
f 4/4/2 7/5/2 3/6/2
f 8/7/3 5/8/3 7/9/3
f 6/10/4 1/11/4 5/12/4
f 7/9/5 1/13/5 3/14/5
f 4/4/6 11/15/6 8/16/6
f 11/17/1 16/18/1 12/19/1
f 8/7/6 12/19/6 6/20/6
f 2/1/6 10/21/6 4/22/6
f 6/10/6 9/23/6 2/24/6
f 14/25/6 16/18/6 15/26/6
f 9/27/3 14/28/3 10/21/3
f 12/29/2 13/30/2 9/23/2
f 10/31/4 15/32/4 11/15/4
f 18/33/1 19/34/1 17/35/1
f 20/36/2 23/37/2 19/38/2
f 24/39/3 21/40/3 23/41/3
f 22/42/4 17/43/4 21/44/4
f 23/41/5 17/45/5 19/46/5
f 22/47/6 20/48/6 18/49/6
f 26/50/1 27/51/1 25/52/1
f 28/53/2 31/54/2 27/55/2
f 32/56/3 29/57/3 31/58/3
f 30/59/4 25/60/4 29/61/4
f 33/62/3 36/63/3 34/64/3
f 40/65/1 43/66/1 39/67/1
f 36/63/2 37/68/2 34/64/2
f 35/69/5 39/67/5 36/63/5
f 34/64/6 38/70/6 33/62/6
f 33/62/4 40/71/4 35/69/4
f 41/72/6 46/73/6 42/74/6
f 37/75/1 42/74/1 38/70/1
f 38/76/1 44/77/1 40/71/1
f 39/78/1 41/79/1 37/68/1
f 49/80/1 52/81/1 50/82/1
f 42/83/4 48/84/4 44/77/4
f 43/85/2 45/86/2 41/79/2
f 44/87/5 47/88/5 43/66/5
f 56/89/3 59/90/3 55/91/3
f 52/81/4 53/92/4 50/82/4
f 51/93/5 55/91/5 52/81/5
f 50/82/6 54/94/6 49/80/6
f 49/80/2 56/95/2 51/93/2
f 57/96/6 62/97/6 58/98/6
f 53/99/3 58/98/3 54/94/3
f 54/100/3 60/101/3 56/95/3
f 55/102/3 57/103/3 53/92/3
f 58/104/2 64/105/2 60/101/2
f 59/106/4 61/107/4 57/103/4
f 60/108/5 63/109/5 59/90/5
f 65/110/2 68/111/2 66/112/2
f 72/113/4 75/114/4 71/115/4
f 68/111/1 69/116/1 66/112/1
f 67/117/5 71/115/5 68/111/5
f 66/112/6 70/118/6 65/110/6
f 65/110/3 72/119/3 67/117/3
f 73/120/6 78/121/6 74/122/6
f 69/123/4 74/122/4 70/118/4
f 70/124/4 76/125/4 72/119/4
f 71/126/4 73/127/4 69/116/4
f 81/128/4 84/129/4 82/130/4
f 74/131/3 80/132/3 76/125/3
f 75/133/1 77/134/1 73/127/1
f 76/135/5 79/136/5 75/114/5
f 88/137/2 91/138/2 87/139/2
f 84/129/3 85/140/3 82/130/3
f 83/141/5 87/139/5 84/129/5
f 82/130/6 86/142/6 81/128/6
f 81/128/1 88/143/1 83/141/1
f 89/144/6 94/145/6 90/146/6
f 85/147/2 90/146/2 86/142/2
f 86/148/2 92/149/2 88/143/2
f 87/150/2 89/151/2 85/140/2
f 90/152/1 96/153/1 92/149/1
f 91/154/3 93/155/3 89/151/3
f 92/156/5 95/157/5 91/138/5
f 117/158/5 122/159/5 118/160/5
f 101/161/5 106/162/5 102/163/5
f 100/164/2 102/165/2 104/166/2
f 97/167/1 102/165/1 98/168/1
f 99/169/4 101/170/4 97/171/4
f 100/164/3 103/172/3 99/169/3
f 104/166/6 107/173/6 103/172/6
f 107/173/4 101/174/4 103/172/4
f 102/163/2 108/175/2 104/166/2
f 105/176/1 110/177/1 106/162/1
f 108/178/3 111/179/3 107/180/3
f 107/180/4 109/181/4 105/182/4
f 108/178/2 110/177/2 112/183/2
f 116/184/4 118/185/4 120/186/4
f 113/187/3 118/185/3 114/188/3
f 115/189/2 117/190/2 113/191/2
f 116/184/1 119/192/1 115/189/1
f 120/186/6 123/193/6 119/192/6
f 123/193/2 117/194/2 119/192/2
f 118/160/4 124/195/4 120/186/4
f 121/196/3 126/197/3 122/159/3
f 124/198/1 127/199/1 123/200/1
f 123/200/2 125/201/2 121/202/2
f 124/198/4 126/197/4 128/203/4
f 149/204/5 154/205/5 150/206/5
f 133/207/5 138/208/5 134/209/5
f 132/210/1 134/211/1 136/212/1
f 129/213/4 134/211/4 130/214/4
f 131/215/3 133/216/3 129/217/3
f 132/210/2 135/218/2 131/215/2
f 136/212/6 139/219/6 135/218/6
f 139/219/3 133/220/3 135/218/3
f 134/209/1 140/221/1 136/212/1
f 137/222/4 142/223/4 138/208/4
f 140/224/2 143/225/2 139/226/2
f 139/226/3 141/227/3 137/228/3
f 140/224/1 142/223/1 144/229/1
f 148/230/3 150/231/3 152/232/3
f 145/233/2 150/231/2 146/234/2
f 147/235/1 149/236/1 145/237/1
f 148/230/4 151/238/4 147/235/4
f 152/232/6 155/239/6 151/238/6
f 155/239/1 149/240/1 151/238/1
f 150/206/3 156/241/3 152/232/3
f 153/242/2 158/243/2 154/205/2
f 156/244/4 159/245/4 155/246/4
f 155/246/1 157/247/1 153/248/1
f 156/244/3 158/243/3 160/249/3
f 162/250/1 163/251/1 161/252/1
f 164/253/2 167/254/2 163/255/2
f 168/256/3 165/257/3 167/258/3
f 166/259/4 161/260/4 165/261/4
f 172/262/2 175/263/2 171/264/2
f 170/265/1 171/266/1 169/267/1
f 176/268/3 173/269/3 175/270/3
f 174/271/4 169/272/4 173/273/4
f 182/274/2 177/275/2 181/276/2
f 183/277/4 180/278/4 184/279/4
f 190/280/2 185/281/2 189/282/2
f 182/283/1 183/277/1 184/279/1
f 191/284/4 188/285/4 192/286/4
f 179/287/3 178/288/3 180/278/3
f 187/289/3 186/290/3 188/285/3
f 190/280/1 191/284/1 192/286/1
f 195/291/1 194/292/1 193/293/1
f 198/294/3 199/295/3 197/296/3
f 206/297/3 207/298/3 205/299/3
f 194/292/4 197/300/4 193/293/4
f 203/301/1 202/302/1 201/303/1
f 195/291/2 200/304/2 196/305/2
f 202/306/4 205/299/4 201/307/4
f 203/301/2 208/308/2 204/309/2
f 212/310/4 209/311/4 210/312/4
f 216/313/3 213/314/3 214/315/3
f 220/316/2 217/317/2 218/318/2
f 224/319/1 221/320/1 222/321/1
f 2/1/1 4/22/1 3/2/1
f 4/4/2 8/16/2 7/5/2
f 8/7/3 6/20/3 5/8/3
f 6/10/4 2/24/4 1/11/4
f 7/9/5 5/8/5 1/13/5
f 4/4/6 10/31/6 11/15/6
f 11/17/1 15/26/1 16/18/1
f 8/7/6 11/17/6 12/19/6
f 2/1/6 9/27/6 10/21/6
f 6/10/6 12/29/6 9/23/6
f 14/25/6 13/322/6 16/18/6
f 9/27/3 13/323/3 14/28/3
f 12/29/2 16/324/2 13/30/2
f 10/31/4 14/325/4 15/32/4
f 18/33/1 20/326/1 19/34/1
f 20/36/2 24/327/2 23/37/2
f 24/39/3 22/47/3 21/40/3
f 22/42/4 18/328/4 17/43/4
f 23/41/5 21/40/5 17/45/5
f 22/47/6 24/39/6 20/48/6
f 26/50/1 28/329/1 27/51/1
f 28/53/2 32/330/2 31/54/2
f 32/56/3 30/331/3 29/57/3
f 30/59/4 26/332/4 25/60/4
f 33/62/3 35/69/3 36/63/3
f 40/65/1 44/87/1 43/66/1
f 36/63/2 39/78/2 37/68/2
f 35/69/5 40/65/5 39/67/5
f 34/64/6 37/75/6 38/70/6
f 33/62/4 38/76/4 40/71/4
f 41/72/6 45/333/6 46/73/6
f 37/75/1 41/72/1 42/74/1
f 38/76/1 42/83/1 44/77/1
f 39/78/1 43/85/1 41/79/1
f 49/80/1 51/93/1 52/81/1
f 42/83/4 46/334/4 48/84/4
f 43/85/2 47/335/2 45/86/2
f 44/87/5 48/336/5 47/88/5
f 56/89/3 60/108/3 59/90/3
f 52/81/4 55/102/4 53/92/4
f 51/93/5 56/89/5 55/91/5
f 50/82/6 53/99/6 54/94/6
f 49/80/2 54/100/2 56/95/2
f 57/96/6 61/337/6 62/97/6
f 53/99/3 57/96/3 58/98/3
f 54/100/3 58/104/3 60/101/3
f 55/102/3 59/106/3 57/103/3
f 58/104/2 62/338/2 64/105/2
f 59/106/4 63/339/4 61/107/4
f 60/108/5 64/340/5 63/109/5
f 65/110/2 67/117/2 68/111/2
f 72/113/4 76/135/4 75/114/4
f 68/111/1 71/126/1 69/116/1
f 67/117/5 72/113/5 71/115/5
f 66/112/6 69/123/6 70/118/6
f 65/110/3 70/124/3 72/119/3
f 73/120/6 77/341/6 78/121/6
f 69/123/4 73/120/4 74/122/4
f 70/124/4 74/131/4 76/125/4
f 71/126/4 75/133/4 73/127/4
f 81/128/4 83/141/4 84/129/4
f 74/131/3 78/342/3 80/132/3
f 75/133/1 79/343/1 77/134/1
f 76/135/5 80/344/5 79/136/5
f 88/137/2 92/156/2 91/138/2
f 84/129/3 87/150/3 85/140/3
f 83/141/5 88/137/5 87/139/5
f 82/130/6 85/147/6 86/142/6
f 81/128/1 86/148/1 88/143/1
f 89/144/6 93/345/6 94/145/6
f 85/147/2 89/144/2 90/146/2
f 86/148/2 90/152/2 92/149/2
f 87/150/2 91/154/2 89/151/2
f 90/152/1 94/346/1 96/153/1
f 91/154/3 95/347/3 93/155/3
f 92/156/5 96/348/5 95/157/5
f 117/158/5 121/196/5 122/159/5
f 101/161/5 105/176/5 106/162/5
f 100/164/2 98/168/2 102/165/2
f 97/167/1 101/349/1 102/165/1
f 99/169/4 103/172/4 101/170/4
f 100/164/3 104/166/3 103/172/3
f 104/166/6 108/175/6 107/173/6
f 107/173/4 105/182/4 101/174/4
f 102/163/2 106/162/2 108/175/2
f 105/176/1 109/350/1 110/177/1
f 108/178/3 112/183/3 111/179/3
f 107/180/4 111/179/4 109/181/4
f 108/178/2 106/162/2 110/177/2
f 116/184/4 114/188/4 118/185/4
f 113/187/3 117/351/3 118/185/3
f 115/189/2 119/192/2 117/190/2
f 116/184/1 120/186/1 119/192/1
f 120/186/6 124/195/6 123/193/6
f 123/193/2 121/202/2 117/194/2
f 118/160/4 122/159/4 124/195/4
f 121/196/3 125/352/3 126/197/3
f 124/198/1 128/203/1 127/199/1
f 123/200/2 127/199/2 125/201/2
f 124/198/4 122/159/4 126/197/4
f 149/204/5 153/242/5 154/205/5
f 133/207/5 137/222/5 138/208/5
f 132/210/1 130/214/1 134/211/1
f 129/213/4 133/353/4 134/211/4
f 131/215/3 135/218/3 133/216/3
f 132/210/2 136/212/2 135/218/2
f 136/212/6 140/221/6 139/219/6
f 139/219/3 137/228/3 133/220/3
f 134/209/1 138/208/1 140/221/1
f 137/222/4 141/354/4 142/223/4
f 140/224/2 144/229/2 143/225/2
f 139/226/3 143/225/3 141/227/3
f 140/224/1 138/208/1 142/223/1
f 148/230/3 146/234/3 150/231/3
f 145/233/2 149/355/2 150/231/2
f 147/235/1 151/238/1 149/236/1
f 148/230/4 152/232/4 151/238/4
f 152/232/6 156/241/6 155/239/6
f 155/239/1 153/248/1 149/240/1
f 150/206/3 154/205/3 156/241/3
f 153/242/2 157/356/2 158/243/2
f 156/244/4 160/249/4 159/245/4
f 155/246/1 159/245/1 157/247/1
f 156/244/3 154/205/3 158/243/3
f 162/250/1 164/357/1 163/251/1
f 164/253/2 168/358/2 167/254/2
f 168/256/3 166/359/3 165/257/3
f 166/259/4 162/360/4 161/260/4
f 172/262/2 176/361/2 175/263/2
f 170/265/1 172/362/1 171/266/1
f 176/268/3 174/363/3 173/269/3
f 174/271/4 170/364/4 169/272/4
f 182/274/2 178/288/2 177/275/2
f 183/277/4 179/287/4 180/278/4
f 190/280/2 186/365/2 185/281/2
f 182/283/1 181/366/1 183/277/1
f 191/284/4 187/289/4 188/285/4
f 179/287/3 177/275/3 178/288/3
f 187/289/3 185/367/3 186/290/3
f 190/280/1 189/282/1 191/284/1
f 195/291/1 196/305/1 194/292/1
f 198/294/3 200/304/3 199/295/3
f 206/297/3 208/308/3 207/298/3
f 194/292/4 198/368/4 197/300/4
f 203/301/1 204/309/1 202/302/1
f 195/291/2 199/295/2 200/304/2
f 202/306/4 206/297/4 205/299/4
f 203/301/2 207/298/2 208/308/2
f 212/310/4 211/369/4 209/311/4
f 216/313/3 215/370/3 213/314/3
f 220/316/2 219/371/2 217/317/2
f 224/319/1 223/372/1 221/320/1
