# Blender v2.76 (sub 0) OBJ File: 'n2.blend'
# www.blender.org
o Cylinder
v 0.250000 4.250000 0.000000
v 0.175000 4.293302 0.000000
v 0.175000 4.206698 0.000000
v 0.176777 4.250000 -0.176777
v 0.123744 4.293302 -0.123744
v 0.123744 4.206698 -0.123744
v -0.000000 4.250000 -0.250000
v -0.000000 4.293302 -0.175000
v -0.000000 4.206698 -0.175000
v -0.176777 4.250000 -0.176777
v -0.123744 4.293302 -0.123744
v -0.123744 4.206698 -0.123744
v -0.250000 4.250000 0.000000
v -0.175000 4.293302 0.000000
v -0.175000 4.206698 0.000000
v -0.176777 4.250000 0.176777
v -0.123744 4.293302 0.123744
v -0.123744 4.206698 0.123744
v -0.000000 4.250000 0.250000
v -0.000000 4.293302 0.175000
v -0.000000 4.206698 0.175000
v 0.176777 4.250000 0.176777
v 0.123744 4.293302 0.123744
v 0.123744 4.206698 0.123744
v 0.000000 0.000000 -0.850000
v 0.000000 0.250000 -1.000000
v 0.325281 0.000000 -0.785298
v 0.382683 0.250000 -0.923880
v 0.601041 0.000000 -0.601041
v 0.707107 0.250000 -0.707107
v 0.785298 0.000000 -0.325281
v 0.923880 0.250000 -0.382683
v 0.850000 0.000000 0.000000
v 1.000000 0.250000 0.000000
v 0.785298 0.000000 0.325281
v 0.923880 0.250000 0.382684
v 0.601041 0.000000 0.601041
v 0.707107 0.250000 0.707107
v 0.325281 0.000000 0.785298
v 0.382683 0.250000 0.923880
v 0.000000 0.000000 0.850000
v 0.000000 0.250000 1.000000
v -0.325281 0.000000 0.785298
v -0.382683 0.250000 0.923880
v -0.601041 0.000000 0.601041
v -0.707107 0.250000 0.707107
v -0.785298 0.000000 0.325281
v -0.923880 0.250000 0.382684
v -0.850000 0.000000 -0.000000
v -1.000000 0.250000 -0.000000
v -0.785298 0.000000 -0.325281
v -0.923879 0.250000 -0.382684
v -0.601041 0.000000 -0.601041
v -0.707107 0.250000 -0.707107
v -0.325281 0.000000 -0.785298
v -0.382683 0.250000 -0.923880
v 0.382683 3.000000 -0.923880
v 0.000000 3.000000 -1.000000
v 0.707107 3.000000 -0.707107
v 0.923880 3.000000 -0.382683
v 1.000000 3.000000 0.000000
v 0.923880 3.000000 0.382684
v 0.707107 3.000000 0.707107
v 0.382683 3.000000 0.923880
v 0.000000 3.000000 1.000000
v -0.382683 3.000000 0.923880
v -0.707107 3.000000 0.707107
v -0.923880 3.000000 0.382684
v -1.000000 3.000000 -0.000000
v -0.923879 3.000000 -0.382684
v -0.707107 3.000000 -0.707107
v -0.382683 3.000000 -0.923880
v 0.057403 4.000000 -0.138582
v 0.000000 4.000000 -0.150000
v 0.106066 4.000000 -0.106066
v 0.138582 4.000000 -0.057403
v 0.150000 4.000000 -0.000000
v 0.138582 4.000000 0.057403
v 0.106066 4.000000 0.106066
v 0.057403 4.000000 0.138582
v 0.000000 4.000000 0.150000
v -0.057402 4.000000 0.138582
v -0.106066 4.000000 0.106066
v -0.138582 4.000000 0.057403
v -0.150000 4.000000 -0.000000
v -0.138582 4.000000 -0.057403
v -0.106066 4.000000 -0.106066
v -0.057402 4.000000 -0.138582
v 0.057403 4.500000 -0.138582
v 0.000000 4.500000 -0.150000
v 0.106066 4.500000 -0.106066
v 0.138582 4.500000 -0.057403
v 0.150000 4.500000 -0.000000
v 0.138582 4.500000 0.057403
v 0.106066 4.500000 0.106066
v 0.057403 4.500000 0.138582
v 0.000000 4.500000 0.150000
v -0.057402 4.500000 0.138582
v -0.106066 4.500000 0.106066
v -0.138582 4.500000 0.057403
v -0.150000 4.500000 -0.000000
v -0.138582 4.500000 -0.057403
v -0.106066 4.500000 -0.106066
v -0.057402 4.500000 -0.138582
v 0.000000 4.650000 0.000000
vt 0.763805 0.825843
vt 0.792402 0.825843
vt 0.788113 0.838055
vt 0.788113 0.850999
vt 0.768094 0.850999
vt 0.768094 0.813631
vt 0.788113 0.813631
vt 0.763805 0.750495
vt 0.768094 0.738283
vt 0.788113 0.738283
vt 0.768094 0.725339
vt 0.788113 0.725339
vt 0.768094 0.762707
vt 0.792402 0.750495
vt 0.516469 0.750495
vt 0.520758 0.738283
vt 0.540777 0.738283
vt 0.520758 0.725339
vt 0.540777 0.725339
vt 0.540777 0.762707
vt 0.520758 0.762707
vt 0.684282 0.838787
vt 0.688572 0.826575
vt 0.708591 0.826575
vt 0.688572 0.813631
vt 0.708591 0.813631
vt 0.688572 0.850999
vt 0.712880 0.838787
vt 0.545066 0.838787
vt 0.516469 0.838787
vt 0.520758 0.826575
vt 0.520758 0.813631
vt 0.540777 0.813631
vt 0.520758 0.850999
vt 0.712880 0.737551
vt 0.708591 0.749763
vt 0.688572 0.749763
vt 0.708591 0.762707
vt 0.688572 0.762707
vt 0.708591 0.725339
vt 0.684282 0.737551
vt 0.595991 0.817073
vt 0.624588 0.817073
vt 0.620299 0.829285
vt 0.620299 0.842229
vt 0.600280 0.842229
vt 0.620299 0.804861
vt 0.608203 0.725339
vt 0.620415 0.729629
vt 0.620415 0.749647
vt 0.633358 0.729629
vt 0.633358 0.749647
vt 0.595991 0.749647
vt 0.595991 0.729629
vt 0.725256 0.068817
vt 0.666940 0.068817
vt 0.671314 0.025462
vt 0.608624 0.068817
vt 0.612998 0.025462
vt 0.604250 0.025462
vt 0.550308 0.068817
vt 0.491992 0.068817
vt 0.496365 0.025462
vt 0.433676 0.068817
vt 0.438049 0.025462
vt 0.375360 0.068817
vt 0.379733 0.025462
vt 0.317043 0.068817
vt 0.321417 0.025462
vt 0.258727 0.068817
vt 0.263101 0.025462
vt 0.200411 0.068817
vt 0.204785 0.025462
vt 0.196037 0.025462
vt 0.142095 0.068817
vt 0.083779 0.068817
vt 0.088153 0.025462
vt 0.025463 0.068817
vt 0.029837 0.025462
vt 0.954147 0.025462
vt 0.958521 0.068817
vt 0.900205 0.068817
vt 0.841888 0.068817
vt 0.846262 0.025462
vt 0.608624 0.479830
vt 0.550308 0.479830
vt 0.783572 0.068817
vt 0.729630 0.025462
vt 0.837515 0.025462
vt 0.255692 0.920518
vt 0.079481 0.955569
vt 0.220641 0.744308
vt 0.433676 0.479830
vt 0.491992 0.479830
vt 0.467207 0.674414
vt 0.317043 0.479830
vt 0.258727 0.479830
vt 0.725256 0.479830
vt 0.666940 0.479830
vt 0.958521 0.479830
vt 0.900205 0.479830
vt 0.375359 0.479830
vt 0.142095 0.479830
vt 0.083778 0.479830
vt 0.783572 0.479830
vt 0.200411 0.479830
vt 0.841889 0.479830
vt 0.025462 0.479830
vt 0.351828 0.725339
vt 0.351827 0.800069
vt 0.343080 0.800069
vt 0.933737 0.674415
vt 0.408891 0.674414
vt 0.400144 0.674414
vt 0.875421 0.674415
vt 0.866674 0.674415
vt 0.350575 0.674414
vt 0.817105 0.674415
vt 0.808357 0.674415
vt 0.292259 0.674414
vt 0.700472 0.674414
vt 0.758788 0.674415
vt 0.233942 0.674414
vt 0.225195 0.674414
vt 0.642156 0.674414
vt 0.175626 0.674414
vt 0.583840 0.674414
vt 0.117310 0.674415
vt 0.108563 0.674415
vt 0.525524 0.674414
vt 0.516776 0.674414
vt 0.058994 0.674415
vt 0.050246 0.674415
vt 0.360575 0.800069
vt 0.356201 0.831471
vt 0.413060 0.725339
vt 0.413059 0.800069
vt 0.404312 0.800069
vt 0.343080 0.725339
vt 0.334333 0.800069
vt 0.404312 0.725339
vt 0.395564 0.800069
vt 0.334333 0.725339
vt 0.325585 0.800069
vt 0.395565 0.725339
vt 0.386817 0.800069
vt 0.465544 0.725340
vt 0.465544 0.800070
vt 0.456796 0.800070
vt 0.386817 0.725339
vt 0.378070 0.800069
vt 0.456797 0.725340
vt 0.448049 0.800070
vt 0.378070 0.725339
vt 0.369322 0.800069
vt 0.448049 0.725340
vt 0.439301 0.800070
vt 0.369322 0.725339
vt 0.430555 0.725340
vt 0.430554 0.800069
vt 0.421806 0.800069
vt 0.439302 0.725340
vt 0.360575 0.725339
vt 0.421807 0.725339
vt 0.364948 0.831471
vt 0.329959 0.831471
vt 0.461169 0.831472
vt 0.347454 0.831471
vt 0.434927 0.831471
vt 0.452422 0.831472
vt 0.443675 0.831471
vt 0.426180 0.831471
vt 0.417433 0.831471
vt 0.408685 0.831471
vt 0.399938 0.831471
vt 0.391190 0.831471
vt 0.382443 0.831471
vt 0.373696 0.831471
vt 0.338706 0.831471
vt 0.768094 0.838055
vt 0.788113 0.762707
vt 0.545066 0.750495
vt 0.708591 0.850999
vt 0.540777 0.826575
vt 0.540777 0.850999
vt 0.688572 0.725339
vt 0.600280 0.829285
vt 0.600280 0.804861
vt 0.608203 0.753937
vt 0.720883 0.025462
vt 0.662566 0.025462
vt 0.554682 0.025462
vt 0.545934 0.025462
vt 0.487618 0.025462
vt 0.429302 0.025462
vt 0.370986 0.025462
vt 0.312670 0.025462
vt 0.254354 0.025462
vt 0.146469 0.025462
vt 0.137721 0.025462
vt 0.079405 0.025462
vt 0.904578 0.025462
vt 0.895831 0.025462
vt 0.779199 0.025462
vt 0.787946 0.025462
vt 0.044431 0.779359
vt 0.079482 0.744308
vt 0.125277 0.725339
vt 0.174846 0.725339
vt 0.255692 0.779359
vt 0.274661 0.825154
vt 0.274661 0.874723
vt 0.220641 0.955569
vt 0.174846 0.974538
vt 0.125277 0.974538
vt 0.044431 0.920518
vt 0.025462 0.874723
vt 0.025462 0.825154
vt 0.458460 0.674414
vt 0.924990 0.674415
vt 0.341828 0.674414
vt 0.283511 0.674414
vt 0.691725 0.674414
vt 0.750041 0.674415
vt 0.633408 0.674414
vt 0.166879 0.674414
vt 0.575092 0.674414
vt 0.325585 0.725339
vn 0.489600 0.848000 -0.202800
vn -0.923900 0.000000 0.382700
vn 0.489600 -0.848000 -0.202800
vn 0.202800 0.848000 -0.489600
vn -0.382700 0.000000 0.923900
vn 0.202800 -0.848000 -0.489600
vn -0.202800 0.848000 -0.489600
vn 0.382700 0.000000 0.923900
vn -0.202800 -0.848000 -0.489600
vn -0.489600 0.848000 -0.202800
vn 0.923900 0.000000 0.382700
vn -0.489600 -0.848000 -0.202800
vn -0.489600 0.848000 0.202800
vn 0.923900 0.000000 -0.382700
vn -0.489600 -0.848000 0.202800
vn -0.202800 0.848000 0.489600
vn 0.382700 0.000000 -0.923900
vn -0.202800 -0.848000 0.489600
vn 0.202800 0.848000 0.489600
vn -0.382700 0.000000 -0.923900
vn 0.202800 -0.848000 0.489600
vn 0.489600 0.848000 0.202800
vn -0.923900 0.000000 -0.382700
vn 0.489600 -0.848000 0.202800
vn 0.168100 -0.507200 -0.845300
vn 0.478800 -0.507200 -0.716600
vn 0.716600 -0.507200 -0.478800
vn 0.845300 -0.507200 -0.168100
vn 0.845300 -0.507200 0.168100
vn 0.716600 -0.507200 0.478800
vn 0.478800 -0.507200 0.716600
vn 0.168100 -0.507200 0.845300
vn -0.168100 -0.507200 0.845300
vn -0.478800 -0.507200 0.716600
vn -0.716600 -0.507200 0.478800
vn -0.845300 -0.507200 0.168100
vn -0.845300 -0.507200 -0.168100
vn -0.716600 -0.507200 -0.478800
vn 0.831500 0.000000 -0.555600
vn -0.168100 -0.507200 -0.845300
vn -0.478800 -0.507200 -0.716600
vn 0.000000 -1.000000 0.000000
vn 0.753300 0.640300 0.149800
vn 0.195100 0.000000 0.980800
vn 0.195100 0.000000 -0.980800
vn -0.980800 0.000000 -0.195100
vn 0.831500 0.000000 0.555600
vn -0.831500 0.000000 0.555600
vn -0.195100 0.000000 -0.980800
vn 0.980800 0.000000 -0.195100
vn -0.195100 0.000000 0.980800
vn -0.831500 0.000000 -0.555600
vn 0.555600 0.000000 -0.831500
vn 0.555600 0.000000 0.831500
vn -0.980800 0.000000 0.195100
vn 0.980800 0.000000 0.195100
vn -0.555600 0.000000 0.831500
vn -0.555600 0.000000 -0.831500
vn -0.753300 0.640300 -0.149800
vn 0.638600 0.640300 0.426700
vn -0.638600 0.640300 -0.426700
vn 0.426700 0.640300 0.638600
vn -0.426700 0.640300 -0.638600
vn 0.149800 0.640300 0.753300
vn 0.149800 0.640300 -0.753300
vn -0.149800 0.640300 -0.753300
vn -0.149800 0.640300 0.753300
vn 0.426700 0.640300 -0.638600
vn -0.426700 0.640300 0.638600
vn 0.638600 0.640300 -0.426700
vn -0.638600 0.640300 0.426700
vn 0.753300 0.640300 -0.149800
vn -0.753300 0.640300 0.149800
vn -0.139300 0.700200 0.700200
vn 0.139300 0.700200 0.700200
vn -0.700200 0.700200 0.139300
vn -0.700200 0.700200 -0.139300
vn -0.396600 0.700200 0.593600
vn -0.139300 0.700200 -0.700200
vn -0.593600 0.700200 -0.396600
vn -0.396600 0.700200 -0.593600
vn 0.139300 0.700200 -0.700200
vn 0.396600 0.700200 -0.593600
vn 0.593600 0.700200 -0.396600
vn 0.700200 0.700200 -0.139300
vn 0.700200 0.700200 0.139300
vn 0.593600 0.700200 0.396600
vn 0.396600 0.700200 0.593600
vn -0.593600 0.700200 0.396600
s off
f 1/1/1 4/2/1 5/3/1
f 5/3/2 6/4/2 3/5/2
f 3/6/3 6/7/3 4/2/3
f 7/8/4 8/9/4 5/10/4
f 8/9/5 9/11/5 6/12/5
f 9/13/6 7/8/6 4/14/6
f 10/15/7 11/16/7 8/17/7
f 11/16/8 12/18/8 9/19/8
f 9/20/9 12/21/9 10/15/9
f 13/22/10 14/23/10 11/24/10
f 14/23/11 15/25/11 12/26/11
f 15/27/12 13/22/12 10/28/12
f 13/29/13 16/30/13 17/31/13
f 17/31/14 18/32/14 15/33/14
f 18/34/15 16/30/15 13/29/15
f 19/35/16 20/36/16 17/37/16
f 20/36/17 21/38/17 18/39/17
f 21/40/18 19/35/18 16/41/18
f 19/42/19 22/43/19 23/44/19
f 23/44/20 24/45/20 21/46/20
f 24/47/21 22/43/21 19/42/21
f 1/48/22 2/49/22 23/50/22
f 2/49/23 3/51/23 24/52/23
f 24/53/24 3/54/24 1/48/24
f 26/55/25 28/56/25 27/57/25
f 28/56/26 30/58/26 29/59/26
f 29/60/27 30/58/27 32/61/27
f 32/61/28 34/62/28 33/63/28
f 34/62/29 36/64/29 35/65/29
f 36/64/30 38/66/30 37/67/30
f 38/66/31 40/68/31 39/69/31
f 40/68/32 42/70/32 41/71/32
f 42/70/33 44/72/33 43/73/33
f 43/74/34 44/72/34 46/75/34
f 46/75/35 48/76/35 47/77/35
f 48/76/36 50/78/36 49/79/36
f 49/80/37 50/81/37 52/82/37
f 52/82/38 54/83/38 53/84/38
f 30/58/39 59/85/39 60/86/39
f 56/87/40 26/55/40 25/88/40
f 53/89/41 54/83/41 56/87/41
f 39/90/42 47/91/42 31/92/42
f 62/93/43 61/94/43 77/95/43
f 40/68/44 64/96/44 65/97/44
f 26/55/45 58/98/45 57/99/45
f 50/81/46 69/100/46 70/101/46
f 36/64/47 62/93/47 63/102/47
f 46/75/48 67/103/48 68/104/48
f 56/87/49 72/105/49 58/98/49
f 32/61/50 60/86/50 61/94/50
f 42/70/51 65/97/51 66/106/51
f 52/82/52 70/101/52 71/107/52
f 28/56/53 57/99/53 59/85/53
f 38/66/54 63/102/54 64/96/54
f 48/76/55 68/104/55 69/108/55
f 34/62/56 61/94/56 62/93/56
f 44/72/57 66/106/57 67/103/57
f 54/83/58 71/107/58 72/105/58
f 82/109/57 98/110/57 99/111/57
f 70/101/59 69/100/59 85/112/59
f 62/93/60 78/113/60 79/114/60
f 70/101/61 86/115/61 87/116/61
f 64/96/62 63/102/62 79/117/62
f 71/107/63 87/118/63 88/119/63
f 65/97/64 64/96/64 80/120/64
f 57/99/65 58/98/65 74/121/65
f 58/98/66 72/105/66 88/122/66
f 65/97/67 81/123/67 82/124/67
f 59/85/68 57/99/68 73/125/68
f 67/103/69 66/106/69 82/126/69
f 60/86/70 59/85/70 75/127/70
f 67/103/71 83/128/71 84/129/71
f 60/86/72 76/130/72 77/131/72
f 68/104/73 84/132/73 85/133/73
f 97/134/74 105/135/74 98/110/74
f 75/136/39 91/137/39 92/138/39
f 83/139/48 99/111/48 100/140/48
f 76/141/50 92/138/50 93/142/50
f 84/143/55 100/140/55 101/144/55
f 77/145/56 93/142/56 94/146/56
f 85/147/46 101/148/46 102/149/46
f 78/150/47 94/146/47 95/151/47
f 86/152/52 102/149/52 103/153/52
f 79/154/54 95/151/54 96/155/54
f 87/156/58 103/153/58 104/157/58
f 80/158/44 96/155/44 97/134/44
f 74/159/45 90/160/45 89/161/45
f 88/162/49 104/157/49 90/160/49
f 81/163/51 97/134/51 98/110/51
f 73/164/53 89/161/53 91/137/53
f 97/134/75 96/155/75 105/165/75
f 100/140/76 105/166/76 101/144/76
f 101/148/77 105/167/77 102/149/77
f 98/110/78 105/168/78 99/111/78
f 104/157/79 105/169/79 90/160/79
f 102/149/80 105/170/80 103/153/80
f 103/153/81 105/171/81 104/157/81
f 90/160/82 105/172/82 89/161/82
f 89/161/83 105/173/83 91/137/83
f 91/137/84 105/174/84 92/138/84
f 92/138/85 105/175/85 93/142/85
f 93/142/86 105/176/86 94/146/86
f 94/146/87 105/177/87 95/151/87
f 95/151/88 105/178/88 96/155/88
f 99/111/89 105/179/89 100/140/89
f 2/180/1 1/1/1 5/3/1
f 2/180/2 5/3/2 3/5/2
f 1/1/3 3/6/3 4/2/3
f 4/14/4 7/8/4 5/10/4
f 5/10/5 8/9/5 6/12/5
f 6/181/6 9/13/6 4/14/6
f 7/182/7 10/15/7 8/17/7
f 8/17/8 11/16/8 9/19/8
f 7/182/9 9/20/9 10/15/9
f 10/28/10 13/22/10 11/24/10
f 11/24/11 14/23/11 12/26/11
f 12/183/12 15/27/12 10/28/12
f 14/184/13 13/29/13 17/31/13
f 14/184/14 17/31/14 15/33/14
f 15/185/15 18/34/15 13/29/15
f 16/41/16 19/35/16 17/37/16
f 17/37/17 20/36/17 18/39/17
f 18/186/18 21/40/18 16/41/18
f 20/187/19 19/42/19 23/44/19
f 20/187/20 23/44/20 21/46/20
f 21/188/21 24/47/21 19/42/21
f 22/189/22 1/48/22 23/50/22
f 23/50/23 2/49/23 24/52/23
f 22/189/24 24/53/24 1/48/24
f 25/190/25 26/55/25 27/57/25
f 27/191/26 28/56/26 29/59/26
f 31/192/27 29/60/27 32/61/27
f 31/193/28 32/61/28 33/63/28
f 33/194/29 34/62/29 35/65/29
f 35/195/30 36/64/30 37/67/30
f 37/196/31 38/66/31 39/69/31
f 39/197/32 40/68/32 41/71/32
f 41/198/33 42/70/33 43/73/33
f 45/199/34 43/74/34 46/75/34
f 45/200/35 46/75/35 47/77/35
f 47/201/36 48/76/36 49/79/36
f 51/202/37 49/80/37 52/82/37
f 51/203/38 52/82/38 53/84/38
f 32/61/39 30/58/39 60/86/39
f 55/204/40 56/87/40 25/88/40
f 55/205/41 53/89/41 56/87/41
f 55/206/42 25/207/42 31/92/42
f 27/208/42 29/209/42 31/92/42
f 31/92/42 33/210/42 39/90/42
f 35/211/42 37/212/42 39/90/42
f 39/90/42 41/213/42 43/214/42
f 43/214/42 45/215/42 39/90/42
f 47/91/42 49/216/42 51/217/42
f 51/217/42 53/218/42 47/91/42
f 25/207/42 27/208/42 31/92/42
f 33/210/42 35/211/42 39/90/42
f 39/90/42 45/215/42 47/91/42
f 47/91/42 53/218/42 55/206/42
f 55/206/42 31/92/42 47/91/42
f 78/219/43 62/93/43 77/95/43
f 42/70/44 40/68/44 65/97/44
f 28/56/45 26/55/45 57/99/45
f 52/82/46 50/81/46 70/101/46
f 38/66/47 36/64/47 63/102/47
f 48/76/48 46/75/48 68/104/48
f 26/55/49 56/87/49 58/98/49
f 34/62/50 32/61/50 61/94/50
f 44/72/51 42/70/51 66/106/51
f 54/83/52 52/82/52 71/107/52
f 30/58/53 28/56/53 59/85/53
f 40/68/54 38/66/54 64/96/54
f 50/78/55 48/76/55 69/108/55
f 36/64/56 34/62/56 62/93/56
f 46/75/57 44/72/57 67/103/57
f 56/87/58 54/83/58 72/105/58
f 83/139/57 82/109/57 99/111/57
f 86/220/59 70/101/59 85/112/59
f 63/102/60 62/93/60 79/114/60
f 71/107/61 70/101/61 87/116/61
f 80/221/62 64/96/62 79/117/62
f 72/105/63 71/107/63 88/119/63
f 81/222/64 65/97/64 80/120/64
f 73/223/65 57/99/65 74/121/65
f 74/224/66 58/98/66 88/122/66
f 66/106/67 65/97/67 82/124/67
f 75/225/68 59/85/68 73/125/68
f 83/226/69 67/103/69 82/126/69
f 76/227/70 60/86/70 75/127/70
f 68/104/71 67/103/71 84/129/71
f 61/94/72 60/86/72 77/131/72
f 69/108/73 68/104/73 85/133/73
f 76/141/39 75/136/39 92/138/39
f 84/143/48 83/139/48 100/140/48
f 77/145/50 76/141/50 93/142/50
f 85/228/55 84/143/55 101/144/55
f 78/150/56 77/145/56 94/146/56
f 86/152/46 85/147/46 102/149/46
f 79/154/47 78/150/47 95/151/47
f 87/156/52 86/152/52 103/153/52
f 80/158/54 79/154/54 96/155/54
f 88/162/58 87/156/58 104/157/58
f 81/163/44 80/158/44 97/134/44
f 73/164/45 74/159/45 89/161/45
f 74/159/49 88/162/49 90/160/49
f 82/109/51 81/163/51 98/110/51
f 75/136/53 73/164/53 91/137/53
