# Blender v2.76 (sub 0) OBJ File: 'n45_rod.blend'
# www.blender.org
o Cylinder.001
v 0.000000 0.512500 -0.031000
v 0.000000 0.887500 -0.031000
v 0.021920 0.512500 -0.021920
v 0.021920 0.887500 -0.021920
v 0.031000 0.512500 0.000000
v 0.031000 0.887500 0.000000
v 0.021920 0.512500 0.021920
v 0.021920 0.887500 0.021920
v -0.000000 0.512500 0.031000
v -0.000000 0.887500 0.031000
v -0.021920 0.512500 0.021920
v -0.021920 0.887500 0.021920
v -0.031000 0.512500 0.000000
v -0.031000 0.887500 0.000000
v -0.021920 0.512500 -0.021920
v -0.021920 0.887500 -0.021920
vt 0.423308 0.866102
vt 0.368629 0.866102
vt 0.368629 0.001892
vt 0.313950 0.866102
vt 0.313950 0.001892
vt 0.259271 0.866102
vt 0.259272 0.001892
vt 0.204592 0.866102
vt 0.204593 0.001892
vt 0.149913 0.866102
vt 0.149914 0.001891
vt 0.095234 0.866102
vt 0.095236 0.001891
vt 0.095234 0.998109
vt 0.040555 0.998108
vt 0.477987 0.866102
vt 0.423308 0.001892
vt 0.040555 0.866102
vt 0.040557 0.001891
vt 0.001891 0.959445
vt 0.001891 0.904766
vt 0.133898 0.904766
vt 0.133898 0.959445
vt 0.477986 0.001892
vn 0.382700 0.000000 -0.923900
vn 0.923900 0.000000 -0.382700
vn 0.923900 0.000000 0.382700
vn 0.382700 0.000000 0.923900
vn -0.382700 0.000000 0.923900
vn -0.923900 0.000000 0.382700
vn 0.000000 1.000000 0.000000
vn -0.382700 0.000000 -0.923900
vn -0.923900 0.000000 -0.382700
s off
f 2/1/1 4/2/1 3/3/1
f 4/2/2 6/4/2 5/5/2
f 6/4/3 8/6/3 7/7/3
f 8/6/4 10/8/4 9/9/4
f 10/8/5 12/10/5 11/11/5
f 12/10/6 14/12/6 13/13/6
f 14/12/7 8/14/7 6/15/7
f 16/16/8 2/1/8 1/17/8
f 14/12/9 16/18/9 15/19/9
f 1/17/1 2/1/1 3/3/1
f 3/3/2 4/2/2 5/5/2
f 5/5/3 6/4/3 7/7/3
f 7/7/4 8/6/4 9/9/4
f 9/9/5 10/8/5 11/11/5
f 11/11/6 12/10/6 13/13/6
f 6/15/7 4/20/7 14/12/7
f 2/21/7 16/18/7 14/12/7
f 14/12/7 12/22/7 10/23/7
f 10/23/7 8/14/7 14/12/7
f 4/20/7 2/21/7 14/12/7
f 15/24/8 16/16/8 1/17/8
f 13/13/9 14/12/9 15/19/9
