# Blender v2.79 (sub 0) OBJ File: 'deb_exchanger.blend'
# www.blender.org
o Plane
v -0.500000 0.134331 0.241473
v -0.500000 0.134331 -0.258527
v 0.500000 0.134331 0.241473
v 0.500000 0.134331 -0.258527
v -0.375000 0.134331 -0.383527
v 0.375000 0.134331 -0.383527
v -0.375000 0.134331 0.366473
v 0.375000 0.134331 0.366473
v 0.375000 0.134331 -0.258527
v -0.375000 0.134331 -0.258527
v 0.375000 0.134331 0.241473
v -0.375000 0.134331 0.241473
v 0.375000 0.259331 -0.258527
v -0.375000 0.259331 -0.258527
v 0.375000 0.259331 0.241473
v -0.375000 0.259331 0.241473
v -0.500000 -0.208498 0.241473
v -0.500000 -0.106178 -0.258527
v 0.500000 -0.099271 0.241473
v 0.500000 0.003049 -0.258527
v -0.375000 -0.066944 -0.383527
v 0.375000 0.014976 -0.383527
v 0.375000 -0.138504 0.366473
v -0.375000 -0.220425 0.366473
vt 0.652542 0.974453
vt 0.652542 0.945255
vt 0.661017 0.937956
vt 0.652542 0.937956
vt 0.618644 0.923912
vt 0.652542 0.917937
vt 0.762712 0.930987
vt 0.754237 0.937956
vt 0.754237 0.930290
vt 0.720339 0.937956
vt 0.720339 0.924315
vt 0.813559 0.937956
vt 0.813559 0.926203
vt 0.711864 0.922024
vt 0.661017 0.917241
vt 0.788136 0.689781
vt 0.779661 0.660584
vt 0.788136 0.660584
vt 0.779661 0.653285
vt 0.728814 0.660584
vt 0.728814 0.653285
vt 0.720339 0.660584
vt 0.728814 0.689781
vt 0.720339 0.689781
vt 0.779661 0.697080
vt 0.728814 0.697080
vt 0.779661 0.689781
vt 0.711864 0.937956
vt 0.610169 0.926203
vt 0.618644 0.937956
vt 0.610169 0.937956
vt 0.708698 0.940358
vt 0.716044 0.946703
vt 0.715897 0.972515
vt 0.711864 0.981752
vt 0.720339 0.945255
vt 0.720339 0.974453
vt 0.661017 0.981752
vt 0.762712 0.937956
vt 0.708478 0.979075
vt 0.664183 0.979719
vt 0.664403 0.941001
vt 0.656837 0.973373
vt 0.656984 0.947562
vn 0.0000 1.0000 0.0000
vn -1.0000 0.0000 0.0000
vn 0.7071 0.0000 -0.7071
vn 1.0000 0.0000 0.0000
vn 0.0000 0.0000 -1.0000
vn 0.0000 0.0000 1.0000
vn -0.7071 0.0000 0.7071
vn 0.7071 0.0000 0.7071
vn -0.7071 0.0000 -0.7071
vn 0.1064 -0.9741 -0.1993
s off
f 2/1/1 1/2/1 7/3/1
f 1/4/2 18/5/2 17/6/2
f 22/7/3 4/8/3 20/9/3
f 20/9/4 3/10/4 19/11/4
f 5/12/5 22/7/5 21/13/5
f 23/14/6 7/3/6 24/15/6
f 7/3/7 17/6/7 24/15/7
f 9/16/4 15/17/4 11/18/4
f 11/19/6 16/20/6 12/21/6
f 12/22/2 14/23/2 10/24/2
f 14/23/5 9/25/5 10/26/5
f 16/20/1 13/27/1 14/23/1
f 8/28/8 19/11/8 3/10/8
f 21/29/9 2/30/9 5/31/9
f 22/32/10 20/33/10 19/34/10
f 7/3/1 8/28/1 6/35/1
f 8/28/1 3/36/1 6/35/1
f 3/36/1 4/37/1 6/35/1
f 6/35/1 5/38/1 7/3/1
f 5/38/1 2/1/1 7/3/1
f 1/4/2 2/30/2 18/5/2
f 22/7/3 6/39/3 4/8/3
f 20/9/4 4/8/4 3/10/4
f 5/12/5 6/39/5 22/7/5
f 23/14/6 8/28/6 7/3/6
f 7/3/7 1/4/7 17/6/7
f 9/16/4 13/27/4 15/17/4
f 11/19/6 15/17/6 16/20/6
f 12/22/2 16/20/2 14/23/2
f 14/23/5 13/27/5 9/25/5
f 16/20/1 15/17/1 13/27/1
f 8/28/8 23/14/8 19/11/8
f 21/29/9 18/5/9 2/30/9
f 19/34/10 23/40/10 22/32/10
f 23/40/10 24/41/10 21/42/10
f 24/41/10 17/43/10 18/44/10
f 18/44/10 21/42/10 24/41/10
f 21/42/10 22/32/10 23/40/10
