# Blender v2.79 (sub 0) OBJ File: 'deb_concrete.blend'
# www.blender.org
o Plane
v 0.000001 0.287777 -0.197646
v 0.000001 -0.299323 0.177354
v 0.000001 0.287777 0.177354
v 0.196579 0.193422 0.216456
v -0.277720 0.191133 0.232596
v -0.274452 0.216147 -0.143054
v 0.423452 0.135339 -0.113416
v 0.000001 -0.296422 -0.197646
vt 0.274412 0.804955
vt 0.232274 0.794994
vt 0.270427 0.757057
vt 0.263868 0.802616
vt 0.287079 0.777208
vt 0.300592 0.802616
vt 0.300561 0.797438
vt 0.327518 0.880251
vt 0.346465 0.916383
vt 0.329444 0.923977
vt 0.269312 0.777139
vt 0.242287 0.795361
vt 0.246939 0.769663
vt 0.304642 0.917579
vt 0.302738 0.801430
vt 0.268384 0.785394
vt 0.301428 0.782441
vt 0.232833 0.804020
vt 0.237226 0.783934
vt 0.268649 0.804340
vn 0.0389 0.7307 -0.6816
vn 0.9657 0.1155 -0.2324
vn -0.0262 -0.8372 -0.5463
vn 0.5586 0.3145 0.7674
vn -0.8049 0.3481 -0.4805
vn 0.0535 -0.8510 0.5224
vn 0.0660 0.8044 0.5903
vn -0.7120 0.2559 0.6538
s 1
f 1/1/1 7/2/2 8/3/3
f 1/4/1 4/5/4 7/6/2
f 1/1/1 8/3/3 6/7/5
f 2/8/6 4/9/4 3/10/7
f 3/11/7 6/12/5 5/13/8
f 5/14/8 2/8/6 3/10/7
f 6/15/5 2/16/6 5/17/8
f 7/18/2 4/19/4 8/20/3
f 2/16/6 8/20/3 4/19/4
f 1/4/1 3/11/7 4/5/4
f 3/11/7 1/4/1 6/12/5
f 6/15/5 8/20/3 2/16/6
