# Blender v2.79 (sub 0) OBJ File: 'deb_blank.blend'
# www.blender.org
o Plane
v 0.175870 0.174281 0.045359
v 0.050870 0.174281 0.170359
v 0.175870 -0.198339 0.045359
v 0.050870 -0.257538 0.170359
v -0.268337 0.174281 -0.184708
v -0.161002 0.174281 0.170359
v 0.175870 0.174281 -0.038644
vt 0.720339 0.950161
vt 0.690223 0.958690
vt 0.697500 0.937956
vt 0.711864 0.937956
vt 0.720339 0.916197
vt 0.720339 0.937956
vt 0.711864 0.912740
vt 0.726034 0.937956
vt 0.720339 0.945255
vn 0.0000 1.0000 -0.0000
vn 0.7071 0.0000 0.7071
vn -0.2836 -0.7254 -0.6272
vn 0.3054 -0.2094 -0.9289
vn 1.0000 0.0000 0.0000
vn 0.0000 0.0000 1.0000
vn -0.8664 -0.4251 0.2619
s off
f 7/1/1 5/2/1 6/3/1
f 2/4/2 3/5/2 1/6/2
f 3/5/3 4/7/3 5/2/3
f 5/2/4 7/1/4 3/5/4
f 3/5/5 7/8/5 1/6/5
f 6/3/6 4/7/6 2/4/6
f 6/3/7 5/2/7 4/7/7
f 6/3/1 2/4/1 7/1/1
f 2/4/1 1/9/1 7/1/1
f 2/4/2 4/7/2 3/5/2
