# Blender v2.92.0 OBJ File: 'fire_door.blend'
# www.blender.org
o frame
v 0.500000 3.000000 -2.000000
v 0.500000 0.000000 -2.000000
v 0.500000 0.000000 2.000000
v 0.500000 3.000000 2.000000
v 0.250000 0.062500 1.375000
v 0.250000 2.750000 1.375000
v 0.250000 0.062500 -1.375000
v 0.250000 2.750000 -1.375000
v 0.353298 0.062500 1.375000
v 0.500000 0.000000 1.521702
v 0.500000 2.804434 1.521702
v 0.353298 2.750000 1.375000
v 0.353298 0.062500 -1.375000
v 0.500000 0.000000 -1.521702
v 0.500000 2.804434 -1.521702
v 0.353298 2.750000 -1.375000
v 0.250000 0.012500 1.500000
v 0.250000 2.812500 1.500000
v 0.250000 0.012500 -1.500000
v 0.250000 2.812500 -1.500000
v -0.500000 3.000000 -2.000000
v -0.500000 0.000000 -2.000000
v -0.500000 0.000000 2.000000
v -0.500000 3.000000 2.000000
v -0.250000 0.062500 1.375000
v -0.250000 2.750000 1.375000
v -0.250000 0.062500 -1.375000
v -0.250000 2.750000 -1.375000
v -0.353298 0.062500 1.375000
v -0.500000 0.000000 1.521702
v -0.500000 2.804434 1.521702
v -0.353298 2.750000 1.375000
v -0.353298 0.062500 -1.375000
v -0.500000 0.000000 -1.521702
v -0.500000 2.804434 -1.521702
v -0.353298 2.750000 -1.375000
v -0.250000 0.012500 1.500000
v -0.250000 2.812500 1.500000
v -0.250000 0.012500 -1.500000
v -0.250000 2.812500 -1.500000
vt 0.129307 0.159244
vt 0.426242 0.108600
vt 0.426242 0.159243
vt 0.426242 0.481480
vt 0.532123 0.159243
vt 0.827926 0.884298
vt 0.537562 0.895205
vt 0.537562 0.884298
vt 0.960877 0.286483
vt 0.949970 0.002720
vt 0.960877 0.002720
vt 0.982663 0.002720
vt 0.993570 0.286481
vt 0.982663 0.286481
vt 0.491082 0.933805
vt 0.480175 0.643442
vt 0.491082 0.643442
vt 0.129307 0.481479
vt 0.426242 0.532122
vt 0.108601 0.532122
vt 0.108600 0.108601
vt 0.474735 0.932486
vt 0.461537 0.643442
vt 0.474735 0.648722
vt 0.390106 0.650041
vt 0.376907 0.939085
vt 0.376907 0.643442
vt 0.997280 0.739973
vt 0.991983 0.436547
vt 0.997280 0.449735
vt 0.410591 0.457749
vt 0.142598 0.458801
vt 0.413384 0.180867
vt 0.145950 0.183841
vt 0.324114 0.939085
vt 0.921869 0.436547
vt 0.869076 0.753308
vt 0.869076 0.436547
vt 0.939205 0.753215
vt 0.991983 0.753216
vt 0.862476 0.449745
vt 0.862476 0.740110
vt 0.426242 0.638003
vt 0.002720 0.532122
vt 0.857037 0.862513
vt 0.558388 0.811578
vt 0.857037 0.811578
vt 0.496521 0.933804
vt 0.507428 0.643442
vt 0.507428 0.933804
vt 0.966317 0.286481
vt 0.977224 0.002720
vt 0.977224 0.286481
vt 0.512868 0.927206
vt 0.523775 0.643442
vt 0.523775 0.927206
vt 0.827926 0.878859
vt 0.537562 0.867952
vt 0.827926 0.867952
vt 0.558389 0.487482
vt 0.857037 0.436547
vt 0.857037 0.487481
vt 0.537562 0.862512
vt 0.408744 0.643442
vt 0.395545 0.932486
vt 0.395545 0.648722
vt 0.310915 0.650041
vt 0.310915 0.933806
vt 0.939206 0.436547
vt 0.933908 0.740024
vt 0.933908 0.449789
vt 0.840939 0.511629
vt 0.571917 0.510031
vt 0.843798 0.789097
vt 0.921869 0.753308
vt 0.928468 0.449745
vt 0.928468 0.740110
vt 0.108600 0.002720
vt 0.426242 0.002720
vt 0.408744 0.939085
vt 0.461537 0.939085
vt 0.532123 0.108601
vt 0.532123 0.481480
vt 0.532123 0.532122
vt 0.827926 0.895205
vt 0.949970 0.286483
vt 0.993570 0.002720
vt 0.480175 0.933805
vt 0.390106 0.933806
vt 0.324114 0.643442
vt 0.108601 0.638003
vt 0.002720 0.108601
vt 0.496521 0.643442
vt 0.966316 0.002720
vt 0.512867 0.643442
vt 0.537562 0.878859
vt 0.537562 0.436547
vt 0.574725 0.786781
vn 1.0000 -0.0000 0.0000
vn 0.0000 -1.0000 0.0000
vn 0.0000 1.0000 0.0000
vn 0.2381 0.9712 0.0000
vn -0.0000 0.0000 -1.0000
vn 0.0000 0.0000 1.0000
vn 0.2108 -0.9775 0.0000
vn -1.0000 0.0000 0.0000
vn 0.7071 0.0000 0.7071
vn 0.3919 0.9200 0.0000
vn 0.3479 -0.9375 0.0000
vn 0.7071 0.0000 -0.7071
vn -0.2381 0.9712 0.0000
vn -0.2108 -0.9775 0.0000
vn -0.7071 0.0000 0.7071
vn -0.3919 0.9200 0.0000
vn -0.3479 -0.9375 0.0000
vn -0.7071 0.0000 -0.7071
s 1
f 11/1/1 3/2/1 10/3/1
f 14/4/2 10/3/2 30/5/2
f 5/6/3 13/7/4 7/8/3
f 6/9/5 9/10/5 5/11/5
f 7/12/6 16/13/6 8/14/6
f 8/15/2 12/16/7 6/17/2
f 15/18/1 2/19/1 1/20/1
f 15/18/1 4/21/1 11/1/1
f 8/22/8 19/23/8 7/24/8
f 6/25/8 17/26/8 18/27/8
f 7/28/8 17/29/8 5/30/8
f 13/31/9 15/18/9 16/32/9
f 14/4/10 9/33/4 10/3/10
f 11/1/11 16/32/7 15/18/11
f 11/1/12 9/33/12 12/34/12
f 37/35/5 18/27/5 17/26/5
f 38/36/2 20/37/2 18/38/2
f 39/39/3 17/29/3 19/40/3
f 6/41/8 20/37/8 8/42/8
f 22/43/5 1/20/5 2/19/5
f 21/44/3 4/21/3 1/20/3
f 23/45/8 31/46/8 30/47/8
f 33/48/13 25/49/3 27/50/3
f 29/51/5 26/52/5 25/53/5
f 36/54/6 27/55/6 28/56/6
f 32/57/14 28/58/2 26/59/2
f 35/60/8 22/61/8 34/62/8
f 24/63/8 35/60/8 31/46/8
f 39/64/1 28/65/1 27/66/1
f 26/67/1 37/35/1 25/68/1
f 37/69/1 27/70/1 25/71/1
f 35/60/15 33/72/15 36/73/15
f 29/74/13 34/62/16 30/47/16
f 36/73/14 31/46/17 35/60/17
f 31/46/18 29/74/18 30/47/18
f 40/75/1 26/76/1 28/77/1
f 3/2/6 24/78/6 23/79/6
f 40/80/6 19/23/6 20/81/6
f 11/1/1 4/21/1 3/2/1
f 10/3/2 3/2/2 23/82/2
f 30/5/2 34/83/2 14/4/2
f 34/83/2 22/84/2 14/4/2
f 10/3/2 23/82/2 30/5/2
f 22/84/2 2/19/2 14/4/2
f 5/6/3 9/85/4 13/7/4
f 6/9/5 12/86/5 9/10/5
f 7/12/6 13/87/6 16/13/6
f 8/15/2 16/88/7 12/16/7
f 15/18/1 14/4/1 2/19/1
f 15/18/1 1/20/1 4/21/1
f 8/22/8 20/81/8 19/23/8
f 6/25/8 5/89/8 17/26/8
f 7/28/8 19/40/8 17/29/8
f 13/31/9 14/4/9 15/18/9
f 14/4/10 13/31/4 9/33/4
f 11/1/11 12/34/7 16/32/7
f 11/1/12 10/3/12 9/33/12
f 37/35/5 38/90/5 18/27/5
f 38/36/2 40/75/2 20/37/2
f 39/39/3 37/69/3 17/29/3
f 6/41/8 18/38/8 20/37/8
f 22/43/5 21/91/5 1/20/5
f 21/44/3 24/92/3 4/21/3
f 23/45/8 24/63/8 31/46/8
f 33/48/13 29/93/13 25/49/3
f 29/51/5 32/94/5 26/52/5
f 36/54/6 33/95/6 27/55/6
f 32/57/14 36/96/14 28/58/2
f 35/60/8 21/97/8 22/61/8
f 24/63/8 21/97/8 35/60/8
f 39/64/1 40/80/1 28/65/1
f 26/67/1 38/90/1 37/35/1
f 37/69/1 39/39/1 27/70/1
f 35/60/15 34/62/15 33/72/15
f 29/74/13 33/72/13 34/62/16
f 36/73/14 32/98/14 31/46/17
f 31/46/18 32/98/18 29/74/18
f 40/75/1 38/36/1 26/76/1
f 3/2/6 4/21/6 24/78/6
f 40/80/6 39/64/6 19/23/6
o door
v 0.250000 0.183959 -1.121300
v 0.250000 2.621650 -1.138101
v 0.250000 2.621650 -0.055236
v 0.250000 0.183959 -0.072037
v 0.250000 0.012500 -1.500000
v 0.250000 2.812500 -1.500000
v 0.187500 0.233959 -1.071471
v 0.187500 2.571650 -1.087928
v 0.187500 0.233959 -0.121866
v 0.187500 2.571650 -0.105409
v 0.250000 0.012500 -0.072037
v 0.250000 2.812500 -0.055236
v -0.250000 0.183959 -1.121300
v -0.250000 2.621650 -1.138101
v -0.250000 2.621650 -0.055236
v -0.250000 0.183959 -0.072037
v -0.250000 0.012500 -1.500000
v -0.250000 2.812500 -1.500000
v -0.187500 0.233959 -1.071471
v -0.187500 2.571650 -1.087928
v -0.187500 0.233959 -0.121866
v -0.187500 2.571650 -0.105409
v -0.250000 0.012500 -0.072037
v -0.250000 2.812500 -0.055236
v 0.250000 0.183959 1.121300
v 0.250000 2.621650 1.138101
v 0.250000 2.621650 0.055236
v 0.250000 0.183959 0.072037
v 0.250000 0.012500 1.500000
v 0.250000 2.812500 1.500000
v 0.187500 0.233959 1.071471
v 0.187500 2.571650 1.087928
v 0.187500 0.233959 0.121866
v 0.187500 2.571650 0.105409
v 0.250000 0.012500 0.072037
v 0.250000 2.812500 0.055236
v -0.250000 0.183959 1.121300
v -0.250000 2.621650 1.138101
v -0.250000 2.621650 0.055236
v -0.250000 0.183959 0.072037
v -0.250000 0.012500 1.500000
v -0.250000 2.812500 1.500000
v -0.187500 0.233959 1.071471
v -0.187500 2.571650 1.087928
v -0.187500 0.233959 0.121866
v -0.187500 2.571650 0.105409
v -0.250000 0.012500 0.072037
v -0.250000 2.812500 0.055236
vt 0.870543 0.095027
vt 0.591111 0.056268
vt 0.890982 0.056268
vt 0.890982 0.002720
vt 0.591111 0.002720
vt 0.890982 0.210998
vt 0.870543 0.210998
vt 0.862101 0.203752
vt 0.619145 0.104447
vt 0.861533 0.102468
vt 0.609474 0.096826
vt 0.618040 0.201958
vt 0.609473 0.209199
vt 0.591111 0.209199
vt 0.591111 0.377559
vt 0.890982 0.431107
vt 0.591111 0.431107
vt 0.944530 0.210998
vt 0.944530 0.222829
vt 0.890982 0.222829
vt 0.284839 0.928692
vt 0.002720 0.967823
vt 0.021259 0.926875
vt 0.870543 0.222829
vt 0.305475 0.811605
vt 0.284840 0.811605
vt 0.030947 0.919265
vt 0.276182 0.818924
vt 0.275848 0.921133
vt 0.030066 0.820598
vt 0.021259 0.813422
vt 0.002720 0.813422
vt 0.284840 0.799660
vt 0.870543 0.338800
vt 0.609473 0.337001
vt 0.619105 0.329409
vt 0.862137 0.230055
vt 0.861490 0.331345
vt 0.618095 0.231869
vt 0.609473 0.224628
vt 0.591111 0.224628
vt 0.284840 0.682573
vt 0.002720 0.643442
vt 0.305476 0.643442
vt 0.305475 0.799660
vt 0.276134 0.792335
vt 0.030993 0.692044
vt 0.275893 0.690099
vt 0.021259 0.684390
vt 0.030002 0.790657
vt 0.021259 0.797844
vt 0.002720 0.797843
vt 0.537562 0.224628
vt 0.890982 0.377559
vt 0.944530 0.377559
vt 0.944530 0.056268
vt 0.305476 0.967823
vt 0.537562 0.377559
vt 0.537562 0.209198
vt 0.537562 0.056268
vn 1.0000 0.0000 0.0000
vn 0.0000 0.0000 -1.0000
vn 0.6260 0.0055 0.7798
vn 0.6234 0.0054 0.7819
vn 0.6261 0.0055 0.7798
vn 0.6247 -0.7809 0.0000
vn 0.6247 0.7809 0.0000
vn 0.6260 0.0055 -0.7798
vn 0.6234 0.0054 -0.7819
vn 0.0000 0.0000 1.0000
vn 0.0000 1.0000 0.0000
vn -1.0000 -0.0000 0.0000
vn -0.6260 0.0055 0.7798
vn -0.6234 0.0054 0.7819
vn -0.6247 -0.7809 0.0000
vn -0.6247 0.7809 0.0000
vn -0.6234 0.0054 -0.7819
vn -0.6260 0.0055 -0.7798
vn -0.6261 0.0055 -0.7798
vn 0.0000 -1.0000 0.0000
vn 0.6261 0.0055 -0.7798
vn -0.6261 0.0055 0.7798
s 1
f 42/99/19 45/100/19 46/101/19
f 58/102/20 45/100/20 57/103/20
f 42/99/19 52/104/19 43/105/19
f 50/106/19 47/107/19 48/108/19
f 41/109/21 48/108/22 47/107/23
f 50/106/24 42/99/24 43/105/24
f 41/109/25 49/110/25 44/111/25
f 44/111/26 50/106/27 43/105/27
f 41/109/19 51/112/19 45/100/19
f 69/113/28 82/114/28 81/115/28
f 64/116/29 88/117/29 76/118/29
f 54/119/30 57/120/30 53/121/30
f 44/111/19 43/105/19 67/122/19
f 64/123/30 54/119/30 55/124/30
f 59/125/30 62/126/30 60/127/30
f 53/121/31 60/127/32 54/119/32
f 54/119/33 62/126/33 55/124/33
f 61/128/34 53/121/34 56/129/34
f 62/126/35 56/129/36 55/124/35
f 53/121/30 63/130/30 56/129/30
f 79/131/30 64/123/30 55/124/30
f 66/132/19 69/113/19 65/133/19
f 76/118/19 66/132/19 67/122/19
f 71/134/19 74/135/19 72/136/19
f 65/133/26 72/136/27 66/132/27
f 66/132/24 74/135/24 67/122/24
f 73/137/25 65/133/25 68/138/25
f 74/135/22 68/138/21 67/122/22
f 65/133/19 75/139/19 68/138/19
f 78/140/30 81/141/30 82/142/30
f 78/140/30 88/143/30 79/131/30
f 86/144/30 83/145/30 84/146/30
f 77/147/36 84/146/35 83/145/37
f 86/144/33 78/140/33 79/131/33
f 77/147/34 85/148/34 80/149/34
f 80/149/31 86/144/32 79/131/32
f 77/147/30 87/150/30 81/141/30
f 51/112/38 75/139/38 87/151/38
f 42/99/19 41/109/19 45/100/19
f 58/102/20 46/101/20 45/100/20
f 42/99/19 46/101/19 52/104/19
f 50/106/19 49/110/19 47/107/19
f 41/109/21 42/99/22 48/108/22
f 50/106/24 48/108/24 42/99/24
f 41/109/25 47/107/25 49/110/25
f 44/111/26 49/110/39 50/106/27
f 41/109/19 44/111/19 51/112/19
f 69/113/28 70/152/28 82/114/28
f 88/117/29 82/153/29 70/152/29
f 76/118/29 52/104/29 64/116/29
f 52/104/29 46/101/29 64/116/29
f 88/117/29 70/152/29 76/118/29
f 46/101/29 58/154/29 64/116/29
f 54/119/30 58/155/30 57/120/30
f 43/105/19 52/104/19 76/118/19
f 67/122/19 68/138/19 44/111/19
f 68/138/19 75/139/19 51/112/19
f 43/105/19 76/118/19 67/122/19
f 51/112/19 44/111/19 68/138/19
f 64/123/30 58/155/30 54/119/30
f 59/125/30 61/128/30 62/126/30
f 53/121/31 59/125/40 60/127/32
f 54/119/33 60/127/33 62/126/33
f 61/128/34 59/125/34 53/121/34
f 62/126/35 61/128/37 56/129/36
f 53/121/30 57/120/30 63/130/30
f 56/129/30 63/130/30 87/150/30
f 87/150/30 80/149/30 56/129/30
f 80/149/30 79/131/30 55/124/30
f 79/131/30 88/143/30 64/123/30
f 55/124/30 56/129/30 80/149/30
f 66/132/19 70/152/19 69/113/19
f 76/118/19 70/152/19 66/132/19
f 71/134/19 73/137/19 74/135/19
f 65/133/26 71/134/39 72/136/27
f 66/132/24 72/136/24 74/135/24
f 73/137/25 71/134/25 65/133/25
f 74/135/22 73/137/23 68/138/21
f 65/133/19 69/113/19 75/139/19
f 78/140/30 77/147/30 81/141/30
f 78/140/30 82/142/30 88/143/30
f 86/144/30 85/148/30 83/145/30
f 77/147/36 78/140/35 84/146/35
f 86/144/33 84/146/33 78/140/33
f 77/147/34 83/145/34 85/148/34
f 80/149/31 85/148/40 86/144/32
f 77/147/30 80/149/30 87/150/30
f 75/139/38 69/113/38 81/156/38
f 87/151/38 63/157/38 51/112/38
f 63/157/38 57/158/38 51/112/38
f 75/139/38 81/156/38 87/151/38
f 57/158/38 45/100/38 51/112/38
