# Blender v2.79 (sub 0) OBJ File: 'bobble.blend'
# www.blender.org
o Head
v 0.375000 1.750000 0.375000
v -0.375000 1.750000 0.375000
v 0.375000 1.750000 -0.375000
v -0.375000 1.750000 -0.375000
v 0.375000 2.500000 0.375000
v -0.375000 2.500000 0.375000
v -0.375000 2.500000 -0.375000
v 0.375000 2.500000 -0.375000
v 0.421875 1.703125 0.421875
v -0.421875 1.703125 0.421875
v 0.421875 1.703125 -0.421875
v -0.421875 1.703125 -0.421875
v 0.421875 2.546875 0.421875
v -0.421875 2.546875 0.421875
v -0.421875 2.546875 -0.421875
v 0.421875 2.546875 -0.421875
vt 0.250000 1.000000
vt 0.375000 0.875000
vt 0.375000 1.000000
vt 0.125000 0.875000
vt 0.250000 1.000000
vt 0.125000 1.000000
vt 0.250000 0.750000
vt 0.125000 0.750000
vt -0.000000 0.875000
vt -0.000000 0.750000
vt 0.500000 0.750000
vt 0.375000 0.875000
vt 0.375000 0.750000
vt 0.250000 0.875000
vt 0.750000 1.000000
vt 0.875000 0.875000
vt 0.875000 1.000000
vt 0.625000 0.875000
vt 0.750000 1.000000
vt 0.625000 1.000000
vt 0.750000 0.750000
vt 0.625000 0.750000
vt 0.500000 0.875000
vt 0.500000 0.750000
vt 1.000000 0.750000
vt 0.875000 0.875000
vt 0.875000 0.750000
vt 0.750000 0.875000
vt 0.250000 0.875000
vt 0.500000 0.875000
vt 0.750000 0.875000
vt 1.000000 0.875000
vn 0.0000 -1.0000 0.0000
vn 0.0000 1.0000 -0.0000
vn 1.0000 0.0000 -0.0000
vn 0.0000 0.0000 1.0000
vn -1.0000 0.0000 0.0000
vn 0.0000 0.0000 -1.0000
s off
f 4/1/1 1/2/1 2/3/1
f 5/4/2 7/5/2 6/6/2
f 3/7/3 5/4/3 1/8/3
f 1/8/4 6/9/4 2/10/4
f 2/11/5 7/12/5 4/13/5
f 4/13/6 8/14/6 3/7/6
f 12/15/1 9/16/1 10/17/1
f 13/18/2 15/19/2 14/20/2
f 11/21/3 13/18/3 9/22/3
f 9/22/4 14/23/4 10/24/4
f 10/25/5 15/26/5 12/27/5
f 12/27/6 16/28/6 11/21/6
f 4/1/1 3/29/1 1/2/1
f 5/4/2 8/14/2 7/5/2
f 3/7/3 8/14/3 5/4/3
f 1/8/4 5/4/4 6/9/4
f 2/11/5 6/30/5 7/12/5
f 4/13/6 7/12/6 8/14/6
f 12/15/1 11/31/1 9/16/1
f 13/18/2 16/28/2 15/19/2
f 11/21/3 16/28/3 13/18/3
f 9/22/4 13/18/4 14/23/4
f 10/25/5 14/32/5 15/26/5
f 12/27/6 15/26/6 16/28/6
o LA
v -0.125000 1.000000 -0.250000
v 0.125000 1.000000 -0.250000
v -0.125000 1.750000 -0.250000
v 0.125000 1.750000 -0.250000
v -0.125000 1.000000 -0.500000
v 0.125000 1.000000 -0.500000
v 0.125000 1.750000 -0.500000
v -0.125000 1.750000 -0.500000
v -0.156250 0.968750 -0.218750
v 0.156250 0.968750 -0.218750
v -0.156250 1.781250 -0.218750
v 0.156250 1.781250 -0.218750
v -0.156250 0.968750 -0.531250
v 0.156250 0.968750 -0.531250
v -0.156250 1.781250 -0.531250
v 0.156250 1.781250 -0.531250
vt 0.625000 0.187500
vt 0.562500 0.000000
vt 0.625000 0.000000
vt 0.687500 0.187500
vt 0.687500 0.000000
vt 0.750000 0.187500
vt 0.562500 0.250000
vt 0.562500 0.187500
vt 0.625000 0.187500
vt 0.687500 0.250000
vt 0.625000 0.250000
vt 0.500000 0.187500
vt 0.875000 0.187500
vt 0.937500 0.250000
vt 0.875000 0.250000
vt 0.875000 0.187500
vt 0.812500 -0.000000
vt 0.875000 -0.000000
vt 0.875000 0.250000
vt 0.812500 0.187500
vt 0.937500 -0.000000
vt 1.000000 0.187500
vt 0.937500 0.187500
vt 0.750000 0.187500
vt 0.750000 0.000000
vt 0.625000 0.250000
vt 0.687500 0.187500
vt 0.500000 0.000000
vt 0.937500 0.187500
vt 0.812500 0.250000
vt 1.000000 -0.000000
vt 0.750000 -0.000000
vn 1.0000 0.0000 -0.0000
vn 0.0000 0.0000 -1.0000
vn -1.0000 0.0000 0.0000
vn 0.0000 1.0000 0.0000
vn 0.0000 -1.0000 0.0000
vn 0.0000 0.0000 1.0000
s off
f 23/33/7 18/34/7 22/35/7
f 22/35/8 24/36/8 23/33/8
f 21/37/9 19/38/9 24/36/9
f 23/33/10 19/39/10 20/40/10
f 22/41/11 17/42/11 21/43/11
f 19/44/12 18/34/12 20/40/12
f 30/45/11 25/46/11 29/47/11
f 32/48/7 26/49/7 30/50/7
f 31/51/10 28/52/10 32/48/10
f 29/53/9 27/54/9 31/55/9
f 27/56/12 26/49/12 28/52/12
f 30/50/8 31/55/8 32/48/8
f 23/33/7 20/40/7 18/34/7
f 22/35/8 21/37/8 24/36/8
f 21/37/9 17/57/9 19/38/9
f 23/33/10 24/58/10 19/39/10
f 22/41/11 18/59/11 17/42/11
f 19/44/12 17/60/12 18/34/12
f 30/45/11 26/61/11 25/46/11
f 32/48/7 28/52/7 26/49/7
f 31/51/10 27/62/10 28/52/10
f 29/53/9 25/63/9 27/54/9
f 27/56/12 25/64/12 26/49/12
f 30/50/8 29/53/8 31/55/8
o RA
v -0.125000 1.750000 0.250000
v 0.125000 1.750000 0.250000
v 0.125000 1.000000 0.250000
v -0.125000 1.000000 0.250000
v 0.125000 1.750000 0.500000
v -0.125000 1.750000 0.500000
v 0.125000 1.000000 0.500000
v -0.125000 1.000000 0.500000
v 0.156250 1.781250 0.218750
v -0.156250 1.781250 0.218750
v 0.156250 0.968750 0.218750
v -0.156250 0.968750 0.218750
v 0.156250 1.781250 0.531250
v -0.156250 1.781250 0.531250
v 0.156250 0.968750 0.531250
v -0.156250 0.968750 0.531250
vt 0.750000 0.500000
vt 0.812500 0.687500
vt 0.750000 0.687500
vt 0.625000 0.687500
vt 0.687500 0.500000
vt 0.687500 0.687500
vt 0.812500 0.500000
vt 0.875000 0.687500
vt 0.750000 0.687500
vt 0.812500 0.750000
vt 0.750000 0.750000
vt 0.687500 0.750000
vt 0.750000 0.250000
vt 0.812500 0.437500
vt 0.750000 0.437500
vt 0.625000 0.437500
vt 0.687500 0.250000
vt 0.687500 0.437500
vt 0.812500 0.250000
vt 0.875000 0.437500
vt 0.750000 0.500000
vt 0.750000 0.437500
vt 0.812500 0.500000
vt 0.750000 0.500000
vt 0.625000 0.500000
vt 0.875000 0.500000
vt 0.812500 0.687500
vt 0.750000 0.750000
vt 0.625000 0.250000
vt 0.875000 0.250000
vt 0.687500 0.500000
vt 0.812500 0.437500
vn 0.0000 0.0000 -1.0000
vn 0.0000 0.0000 1.0000
vn -1.0000 0.0000 0.0000
vn 0.0000 -1.0000 0.0000
vn 1.0000 0.0000 -0.0000
vn 0.0000 1.0000 0.0000
s off
f 35/65/13 33/66/13 34/67/13
f 38/68/14 39/69/14 37/70/14
f 36/71/15 38/72/15 33/66/15
f 35/73/16 40/74/16 36/75/16
f 34/67/17 39/69/17 35/65/17
f 34/67/18 38/76/18 37/70/18
f 43/77/13 42/78/13 41/79/13
f 46/80/14 47/81/14 45/82/14
f 44/83/15 46/84/15 42/78/15
f 42/85/18 45/82/18 41/79/18
f 41/79/17 47/81/17 43/77/17
f 43/86/16 48/87/16 44/88/16
f 35/65/13 36/71/13 33/66/13
f 38/68/14 40/89/14 39/69/14
f 36/71/15 40/90/15 38/72/15
f 35/73/16 39/91/16 40/74/16
f 34/67/17 37/70/17 39/69/17
f 34/67/18 33/92/18 38/76/18
f 43/77/13 44/83/13 42/78/13
f 46/80/14 48/93/14 47/81/14
f 44/83/15 48/94/15 46/84/15
f 42/85/18 46/95/18 45/82/18
f 41/79/17 45/82/17 47/81/17
f 43/86/16 47/96/16 48/87/16
o LL
v -0.125000 1.000000 -0.250000
v -0.125000 0.250000 -0.250000
v 0.125000 1.000000 -0.250000
v 0.125000 0.250000 -0.250000
v -0.125000 1.000000 0.000000
v -0.125000 0.250000 0.000000
v 0.125000 1.000000 0.000000
v 0.125000 0.250000 0.000000
v -0.156250 1.031250 -0.281250
v -0.156250 0.218750 -0.281250
v 0.156250 1.031250 -0.281250
v 0.156250 0.218750 -0.281250
v -0.156250 1.031250 0.031250
v -0.156250 0.218750 0.031250
v 0.156250 1.031250 0.031250
v 0.156250 0.218750 0.031250
vt 0.375000 0.250000
vt 0.437500 0.187500
vt 0.437500 0.250000
vt 0.500000 0.187500
vt 0.437500 0.000000
vt 0.500000 0.000000
vt 0.312500 0.187500
vt 0.250000 0.000000
vt 0.312500 0.000000
vt 0.375000 0.187500
vt 0.375000 0.000000
vt 0.312500 0.250000
vt 0.375000 0.250000
vt 0.437500 0.187500
vt 0.062500 0.250000
vt 0.125000 0.187500
vt 0.125000 0.250000
vt 0.125000 0.250000
vt 0.187500 0.187500
vt 0.187500 0.250000
vt 0.062500 0.000000
vt 0.125000 0.000000
vt 0.187500 0.187500
vt 0.187500 0.000000
vt 0.250000 0.187500
vt 0.250000 0.000000
vt 0.062500 0.187500
vt 0.000000 0.000000
vt 0.375000 0.187500
vt 0.250000 0.187500
vt 0.125000 0.187500
vt 0.000000 0.187500
vn 0.0000 -1.0000 0.0000
vn -1.0000 0.0000 0.0000
vn 0.0000 0.0000 1.0000
vn 1.0000 0.0000 -0.0000
vn 0.0000 1.0000 0.0000
vn 0.0000 0.0000 -1.0000
s off
f 50/97/19 56/98/19 54/99/19
f 53/100/20 50/101/20 54/102/20
f 55/103/21 54/104/21 56/105/21
f 51/106/22 56/105/22 52/107/22
f 53/108/23 51/106/23 49/109/23
f 49/110/24 52/107/24 50/101/24
f 61/111/23 59/112/23 57/113/23
f 58/114/19 64/115/19 62/116/19
f 59/112/22 64/117/22 60/118/22
f 57/119/24 60/118/24 58/120/24
f 61/121/20 58/120/20 62/122/20
f 63/123/21 62/124/21 64/117/21
f 50/97/19 52/125/19 56/98/19
f 53/100/20 49/110/20 50/101/20
f 55/103/21 53/126/21 54/104/21
f 51/106/22 55/103/22 56/105/22
f 53/108/23 55/103/23 51/106/23
f 49/110/24 51/106/24 52/107/24
f 61/111/23 63/123/23 59/112/23
f 58/114/19 60/127/19 64/115/19
f 59/112/22 63/123/22 64/117/22
f 57/119/24 59/112/24 60/118/24
f 61/121/20 57/119/20 58/120/20
f 63/123/21 61/128/21 62/124/21
o RL
v 0.125000 0.250000 0.250000
v 0.125000 1.000000 0.250000
v -0.125000 0.250000 0.250000
v -0.125000 1.000000 0.250000
v 0.125000 0.250000 0.000000
v 0.125000 1.000000 0.000000
v -0.125000 0.250000 0.000000
v -0.125000 1.000000 0.000000
v 0.156250 0.218750 0.281250
v 0.156250 1.031250 0.281250
v -0.156250 0.218750 0.281250
v -0.156250 1.031250 0.281250
v 0.156250 0.218750 -0.031250
v 0.156250 1.031250 -0.031250
v -0.156250 0.218750 -0.031250
v -0.156250 1.031250 -0.031250
vt 0.062500 0.687500
vt 0.000000 0.500000
vt 0.062500 0.500000
vt 0.250000 0.687500
vt 0.187500 0.500000
vt 0.250000 0.500000
vt 0.187500 0.687500
vt 0.125000 0.500000
vt 0.125000 0.687500
vt 0.125000 0.750000
vt 0.187500 0.687500
vt 0.187500 0.750000
vt 0.062500 0.750000
vt 0.125000 0.750000
vt 0.062500 0.437500
vt -0.000000 0.250000
vt 0.062500 0.250000
vt 0.250000 0.437500
vt 0.187500 0.250000
vt 0.250000 0.250000
vt 0.187500 0.437500
vt 0.125000 0.250000
vt 0.125000 0.437500
vt 0.125000 0.500000
vt 0.187500 0.437500
vt 0.187500 0.500000
vt 0.062500 0.500000
vt 0.125000 0.500000
vt 0.000000 0.687500
vt 0.125000 0.687500
vt -0.000000 0.437500
vt 0.125000 0.437500
vn 0.0000 0.0000 1.0000
vn -1.0000 0.0000 0.0000
vn 0.0000 0.0000 -1.0000
vn 1.0000 0.0000 -0.0000
vn 0.0000 -1.0000 0.0000
vn 0.0000 1.0000 0.0000
s off
f 66/129/25 67/130/25 65/131/25
f 68/132/26 71/133/26 67/134/26
f 72/135/27 69/136/27 71/133/27
f 70/137/28 65/131/28 69/136/28
f 71/138/29 65/139/29 67/140/29
f 68/141/30 70/137/30 72/142/30
f 74/143/25 75/144/25 73/145/25
f 76/146/26 79/147/26 75/148/26
f 80/149/27 77/150/27 79/147/27
f 78/151/28 73/145/28 77/150/28
f 79/152/29 73/153/29 75/154/29
f 76/155/30 78/151/30 80/156/30
f 66/129/25 68/157/25 67/130/25
f 68/132/26 72/135/26 71/133/26
f 72/135/27 70/137/27 69/136/27
f 70/137/28 66/129/28 65/131/28
f 71/138/29 69/158/29 65/139/29
f 68/141/30 66/129/30 70/137/30
f 74/143/25 76/159/25 75/144/25
f 76/146/26 80/149/26 79/147/26
f 80/149/27 78/151/27 77/150/27
f 78/151/28 74/143/28 73/145/28
f 79/152/29 77/160/29 73/153/29
f 76/155/30 74/143/30 78/151/30
o Head17
v 0.375000 1.750000 0.375000
v -0.375000 1.750000 0.375000
v 0.375000 1.750000 -0.375000
v -0.375000 1.750000 -0.375000
v 0.375000 2.500000 0.375000
v -0.375000 2.500000 0.375000
v -0.375000 2.500000 -0.375000
v 0.375000 2.500000 -0.375000
v 0.421875 1.703125 0.421875
v -0.421875 1.703125 0.421875
v 0.421875 1.703125 -0.421875
v -0.421875 1.703125 -0.421875
v 0.421875 2.546875 0.421875
v -0.421875 2.546875 0.421875
v -0.421875 2.546875 -0.421875
v 0.421875 2.546875 -0.421875
vt 0.250000 1.000000
vt 0.375000 0.750000
vt 0.375000 1.000000
vt 0.125000 0.750000
vt 0.250000 1.000000
vt 0.125000 1.000000
vt 0.250000 0.500000
vt 0.125000 0.500000
vt 0.000000 0.750000
vt 0.000000 0.500000
vt 0.500000 0.500000
vt 0.375000 0.750000
vt 0.375000 0.500000
vt 0.250000 0.750000
vt 0.750000 1.000000
vt 0.875000 0.750000
vt 0.875000 1.000000
vt 0.625000 0.750000
vt 0.750000 1.000000
vt 0.625000 1.000000
vt 0.750000 0.500000
vt 0.625000 0.500000
vt 0.500000 0.750000
vt 0.500000 0.500000
vt 1.000000 0.500000
vt 0.875000 0.750000
vt 0.875000 0.500000
vt 0.750000 0.750000
vt 0.250000 0.750000
vt 0.500000 0.750000
vt 0.750000 0.750000
vt 1.000000 0.750000
vn 0.0000 -1.0000 0.0000
vn 0.0000 1.0000 -0.0000
vn 1.0000 0.0000 -0.0000
vn 0.0000 0.0000 1.0000
vn -1.0000 0.0000 0.0000
vn 0.0000 0.0000 -1.0000
s off
f 84/161/31 81/162/31 82/163/31
f 85/164/32 87/165/32 86/166/32
f 83/167/33 85/164/33 81/168/33
f 81/168/34 86/169/34 82/170/34
f 82/171/35 87/172/35 84/173/35
f 84/173/36 88/174/36 83/167/36
f 92/175/31 89/176/31 90/177/31
f 93/178/32 95/179/32 94/180/32
f 91/181/33 93/178/33 89/182/33
f 89/182/34 94/183/34 90/184/34
f 90/185/35 95/186/35 92/187/35
f 92/187/36 96/188/36 91/181/36
f 84/161/31 83/189/31 81/162/31
f 85/164/32 88/174/32 87/165/32
f 83/167/33 88/174/33 85/164/33
f 81/168/34 85/164/34 86/169/34
f 82/171/35 86/190/35 87/172/35
f 84/173/36 87/172/36 88/174/36
f 92/175/31 91/191/31 89/176/31
f 93/178/32 96/188/32 95/179/32
f 91/181/33 96/188/33 93/178/33
f 89/182/34 93/178/34 94/183/34
f 90/185/35 94/192/35 95/186/35
f 92/187/36 95/186/36 96/188/36
o RA17
v -0.125000 1.750000 0.250000
v 0.125000 1.750000 0.250000
v 0.125000 1.000000 0.250000
v -0.125000 1.000000 0.250000
v 0.125000 1.750000 0.500000
v -0.125000 1.750000 0.500000
v 0.125000 1.000000 0.500000
v -0.125000 1.000000 0.500000
vt 0.750000 -0.000000
vt 0.812500 0.375000
vt 0.750000 0.375000
vt 0.625000 0.375000
vt 0.687500 -0.000000
vt 0.687500 0.375000
vt 0.812500 -0.000000
vt 0.875000 0.375000
vt 0.750000 0.375000
vt 0.812500 0.500000
vt 0.750000 0.500000
vt 0.687500 0.500000
vt 0.625000 -0.000000
vt 0.875000 -0.000000
vt 0.812500 0.375000
vt 0.750000 0.500000
vn 0.0000 0.0000 -1.0000
vn 0.0000 0.0000 1.0000
vn -1.0000 0.0000 0.0000
vn 0.0000 -1.0000 0.0000
vn 1.0000 0.0000 -0.0000
vn 0.0000 1.0000 0.0000
s off
f 99/193/37 97/194/37 98/195/37
f 102/196/38 103/197/38 101/198/38
f 100/199/39 102/200/39 97/194/39
f 99/201/40 104/202/40 100/203/40
f 98/195/41 103/197/41 99/193/41
f 98/195/42 102/204/42 101/198/42
f 99/193/37 100/199/37 97/194/37
f 102/196/38 104/205/38 103/197/38
f 100/199/39 104/206/39 102/200/39
f 99/201/40 103/207/40 104/202/40
f 98/195/41 101/198/41 103/197/41
f 98/195/42 97/208/42 102/204/42
o LA17
v -0.125000 1.000000 -0.500000
v 0.125000 1.000000 -0.500000
v -0.125000 1.750000 -0.500000
v 0.125000 1.750000 -0.500000
v -0.125000 1.000000 -0.250000
v 0.125000 1.000000 -0.250000
v 0.125000 1.750000 -0.250000
v -0.125000 1.750000 -0.250000
vt 0.687500 -0.000000
vt 0.625000 0.375000
vt 0.687500 0.375000
vt 0.750000 0.375000
vt 0.687500 0.500000
vt 0.750000 0.500000
vt 0.750000 -0.000000
vt 0.812500 0.500000
vt 0.750000 0.375000
vt 0.750000 0.500000
vt 0.812500 0.375000
vt 0.875000 0.375000
vt 0.812500 -0.000000
vt 0.625000 -0.000000
vt 0.812500 0.375000
vt 0.875000 -0.000000
vn 0.0000 0.0000 -1.0000
vn 0.0000 1.0000 -0.0000
vn 1.0000 0.0000 0.0000
vn 0.0000 -1.0000 0.0000
vn 0.0000 0.0000 1.0000
vn -1.0000 0.0000 -0.0000
s off
f 106/209/43 107/210/43 108/211/43
f 111/212/44 107/213/44 112/214/44
f 106/209/45 111/212/45 110/215/45
f 105/216/46 110/217/46 109/218/46
f 112/219/47 110/215/47 111/212/47
f 107/220/48 109/221/48 112/219/48
f 106/209/43 105/222/43 107/210/43
f 111/212/44 108/211/44 107/213/44
f 106/209/45 108/211/45 111/212/45
f 105/216/46 106/223/46 110/217/46
f 112/219/47 109/221/47 110/215/47
f 107/220/48 105/224/48 109/221/48
o LL17
v -0.125000 1.000000 0.000000
v -0.125000 0.250000 0.000000
v 0.125000 1.000000 0.000000
v 0.125000 0.250000 0.000000
v -0.125000 1.000000 -0.250000
v -0.125000 0.250000 -0.250000
v 0.125000 1.000000 -0.250000
v 0.125000 0.250000 -0.250000
vt 0.125000 0.375000
vt 0.062500 0.500000
vt 0.125000 0.500000
vt 0.187500 0.375000
vt 0.125000 0.500000
vt 0.187500 0.500000
vt 0.062500 -0.000000
vt 0.125000 -0.000000
vt 0.187500 0.375000
vt 0.187500 -0.000000
vt 0.250000 0.375000
vt 0.250000 -0.000000
vt 0.000000 -0.000000
vt 0.062500 0.375000
vt 0.125000 0.375000
vt 0.000000 0.375000
vn 0.0000 1.0000 0.0000
vn 0.0000 -1.0000 0.0000
vn 1.0000 0.0000 0.0000
vn 0.0000 0.0000 1.0000
vn -1.0000 0.0000 0.0000
vn 0.0000 0.0000 -1.0000
s off
f 115/225/49 117/226/49 113/227/49
f 120/228/50 114/229/50 118/230/50
f 120/231/51 115/225/51 116/232/51
f 116/232/52 113/233/52 114/234/52
f 114/234/53 117/235/53 118/236/53
f 118/237/54 119/238/54 120/231/54
f 115/225/49 119/238/49 117/226/49
f 120/228/50 116/239/50 114/229/50
f 120/231/51 119/238/51 115/225/51
f 116/232/52 115/225/52 113/233/52
f 114/234/53 113/233/53 117/235/53
f 118/237/54 117/240/54 119/238/54
o RL17
v 0.125000 0.250000 0.250000
v 0.125000 1.000000 0.250000
v -0.125000 0.250000 0.250000
v -0.125000 1.000000 0.250000
v 0.125000 0.250000 0.000000
v 0.125000 1.000000 0.000000
v -0.125000 0.250000 0.000000
v -0.125000 1.000000 0.000000
vt 0.062500 0.375000
vt 0.000000 -0.000000
vt 0.062500 -0.000000
vt 0.250000 0.375000
vt 0.187500 -0.000000
vt 0.250000 -0.000000
vt 0.187500 0.375000
vt 0.125000 -0.000000
vt 0.125000 0.375000
vt 0.125000 0.500000
vt 0.187500 0.375000
vt 0.187500 0.500000
vt 0.062500 0.500000
vt 0.125000 0.500000
vt 0.000000 0.375000
vt 0.125000 0.375000
vn 0.0000 0.0000 1.0000
vn -1.0000 0.0000 0.0000
vn 0.0000 0.0000 -1.0000
vn 1.0000 0.0000 -0.0000
vn 0.0000 -1.0000 0.0000
vn 0.0000 1.0000 0.0000
s off
f 122/241/55 123/242/55 121/243/55
f 124/244/56 127/245/56 123/246/56
f 128/247/57 125/248/57 127/245/57
f 126/249/58 121/243/58 125/248/58
f 127/250/59 121/251/59 123/252/59
f 124/253/60 126/249/60 128/254/60
f 122/241/55 124/255/55 123/242/55
f 124/244/56 128/247/56 127/245/56
f 128/247/57 126/249/57 125/248/57
f 126/249/58 122/241/58 121/243/58
f 127/250/59 125/256/59 121/251/59
f 124/253/60 122/241/60 126/249/60
o Body17
v 0.125000 1.750000 0.250000
v -0.125000 1.750000 0.250000
v 0.125000 1.750000 -0.250000
v -0.125000 1.750000 -0.250000
v 0.125000 1.000000 0.250000
v -0.125000 1.000000 0.250000
v -0.125000 1.000000 -0.250000
v 0.125000 1.000000 -0.250000
vt 0.312500 0.375000
vt 0.437500 0.500000
vt 0.312500 0.500000
vt 0.437500 0.500000
vt 0.562500 0.375000
vt 0.562500 0.500000
vt 0.500000 0.375000
vt 0.625000 -0.000000
vt 0.625000 0.375000
vt 0.437500 0.375000
vt 0.500000 -0.000000
vt 0.437500 -0.000000
vt 0.250000 0.375000
vt 0.312500 -0.000000
vt 0.437500 0.375000
vt 0.250000 -0.000000
vn 0.0000 1.0000 0.0000
vn 0.0000 -1.0000 0.0000
vn -1.0000 0.0000 0.0000
vn 0.0000 0.0000 -1.0000
vn 1.0000 0.0000 -0.0000
vn 0.0000 0.0000 1.0000
s off
f 129/257/61 132/258/61 130/259/61
f 135/260/62 133/261/62 134/262/62
f 132/263/63 134/264/63 130/265/63
f 131/266/64 135/267/64 132/263/64
f 129/257/65 136/268/65 131/266/65
f 130/269/66 133/270/66 129/257/66
f 129/257/61 131/266/61 132/258/61
f 135/260/62 136/271/62 133/261/62
f 132/263/63 135/267/63 134/264/63
f 131/266/64 136/268/64 135/267/64
f 129/257/65 133/270/65 136/268/65
f 130/269/66 134/272/66 133/270/66
o Socket
v 0.625000 0.000000 0.625000
v 0.625000 0.000000 -0.625000
v -0.625000 0.000000 0.625000
v -0.625000 0.000000 -0.625000
v -0.625000 0.250000 0.625000
v 0.625000 0.250000 0.625000
v 0.625000 0.250000 -0.625000
v -0.625000 0.250000 -0.625000
vt 0.000000 1.000000
vt 1.000000 0.166667
vt 1.000000 1.000000
vt 1.000000 1.000000
vt 0.000000 0.166667
vt 1.000000 0.166667
vt 0.000000 0.166667
vt 1.000000 0.000000
vt 1.000000 0.166667
vt 1.000000 0.000000
vt 0.000000 0.166667
vt 0.000000 0.000000
vt 0.000000 0.166667
vt 1.000000 0.000000
vt 1.000000 0.000000
vt 0.000000 0.000000
vt 0.000000 1.000000
vt 0.000000 0.000000
vt 1.000000 0.166667
vt 0.000000 0.000000
vn 0.0000 -1.0000 0.0000
vn 0.0000 1.0000 0.0000
vn -1.0000 0.0000 0.0000
vn 1.0000 0.0000 0.0000
vn 0.0000 0.0000 -1.0000
vn 0.0000 0.0000 1.0000
s off
f 139/273/67 138/274/67 137/275/67
f 143/276/68 141/277/68 142/278/68
f 139/279/69 144/280/69 140/281/69
f 138/282/70 142/283/70 137/284/70
f 140/285/71 143/286/71 138/274/71
f 137/287/72 141/277/72 139/288/72
f 139/273/67 140/285/67 138/274/67
f 143/276/68 144/289/68 141/277/68
f 139/279/69 141/290/69 144/280/69
f 138/282/70 143/291/70 142/283/70
f 140/285/71 144/292/71 143/286/71
f 137/287/72 142/278/72 141/277/72
o Body
v 0.125000 1.750000 0.250000
v -0.125000 1.750000 0.250000
v 0.125000 1.750000 -0.250000
v -0.125000 1.750000 -0.250000
v 0.125000 1.000000 0.250000
v -0.125000 1.000000 0.250000
v -0.125000 1.000000 -0.250000
v 0.125000 1.000000 -0.250000
v 0.156250 1.781250 0.281250
v -0.156250 1.781250 0.281250
v 0.156250 1.781250 -0.281250
v -0.156250 1.781250 -0.281250
v 0.156250 0.968750 0.281250
v -0.156250 0.968750 0.281250
v -0.156250 0.968750 -0.281250
v 0.156250 0.968750 -0.281250
vt 0.312500 0.687500
vt 0.437500 0.750000
vt 0.312500 0.750000
vt 0.437500 0.750000
vt 0.562500 0.687500
vt 0.562500 0.750000
vt 0.500000 0.687500
vt 0.625000 0.500000
vt 0.625000 0.687500
vt 0.437500 0.687500
vt 0.500000 0.500000
vt 0.437500 0.500000
vt 0.250000 0.687500
vt 0.312500 0.500000
vt 0.312500 0.437500
vt 0.437500 0.500000
vt 0.312500 0.500000
vt 0.562500 0.500000
vt 0.437500 0.437500
vt 0.562500 0.437500
vt 0.500000 0.437500
vt 0.625000 0.250000
vt 0.625000 0.437500
vt 0.437500 0.437500
vt 0.500000 0.250000
vt 0.437500 0.250000
vt 0.250000 0.437500
vt 0.312500 0.250000
vt 0.437500 0.687500
vt 0.250000 0.500000
vt 0.437500 0.500000
vt 0.250000 0.250000
vn 0.0000 1.0000 0.0000
vn 0.0000 -1.0000 0.0000
vn -1.0000 0.0000 0.0000
vn 0.0000 0.0000 -1.0000
vn 1.0000 0.0000 -0.0000
vn 0.0000 0.0000 1.0000
s off
f 145/293/73 148/294/73 146/295/73
f 151/296/74 149/297/74 150/298/74
f 148/299/75 150/300/75 146/301/75
f 147/302/76 151/303/76 148/299/76
f 145/293/77 152/304/77 147/302/77
f 146/305/78 149/306/78 145/293/78
f 153/307/73 156/308/73 154/309/73
f 158/310/74 160/311/74 157/312/74
f 156/313/75 158/314/75 154/315/75
f 155/316/76 159/317/76 156/313/76
f 153/307/77 160/318/77 155/316/77
f 154/319/78 157/320/78 153/307/78
f 145/293/73 147/302/73 148/294/73
f 151/296/74 152/321/74 149/297/74
f 148/299/75 151/303/75 150/300/75
f 147/302/76 152/304/76 151/303/76
f 145/293/77 149/306/77 152/304/77
f 146/305/78 150/322/78 149/306/78
f 153/307/73 155/316/73 156/308/73
f 158/310/74 159/323/74 160/311/74
f 156/313/75 159/317/75 158/314/75
f 155/316/76 160/318/76 159/317/76
f 153/307/77 157/320/77 160/318/77
f 154/319/78 158/324/78 157/320/78
