# Blender v2.79 (sub 0) OBJ File: 'lantern.blend'
# www.blender.org
o Light
v 0.187500 4.062500 0.187500
v 0.312500 4.812500 0.312500
v 0.187500 4.062500 -0.187500
v 0.312500 4.812500 -0.312500
v -0.181700 4.062500 0.187500
v -0.306700 4.812500 0.312500
v -0.181700 4.062500 -0.187500
v -0.306700 4.812500 -0.312500
vn 0.0000 -0.1644 0.9864
vn -0.9864 -0.1644 0.0000
vn 0.0000 -0.1644 -0.9864
vn 0.9864 -0.1644 0.0000
s off
f 2//1 5//1 1//1
f 7//2 6//2 8//2
f 3//3 8//3 4//3
f 1//4 4//4 2//4
f 2//1 6//1 5//1
f 7//2 5//2 6//2
f 3//3 7//3 8//3
f 1//4 3//4 4//4
o Lantern
v -0.125000 -0.250000 0.125000
v 0.125000 -0.250000 0.125000
v -0.125000 -0.250000 -0.125000
v 0.125000 -0.250000 -0.125000
v -0.125000 0.937500 0.125000
v 0.125000 0.937500 0.125000
v -0.125000 0.937500 -0.125000
v 0.125000 0.937500 -0.125000
v -0.062500 1.000000 0.062500
v 0.062500 1.000000 0.062500
v -0.062500 1.000000 -0.062500
v 0.062500 1.000000 -0.062500
v -0.125000 1.062500 0.125000
v 0.125000 1.062500 0.125000
v -0.125000 1.062500 -0.125000
v 0.125000 1.062500 -0.125000
v -0.125000 1.187500 0.125000
v 0.125000 1.187500 0.125000
v -0.125000 1.187500 -0.125000
v 0.125000 1.187500 -0.125000
v -0.062500 1.250000 0.062500
v 0.062500 1.250000 0.062500
v -0.062500 1.250000 -0.062500
v 0.062500 1.250000 -0.062500
v -0.062500 3.250000 -0.062500
v -0.062500 3.250000 0.062500
v 0.062500 3.250000 0.062500
v 0.062500 3.250000 -0.062500
v -0.125000 3.312500 -0.125000
v -0.125000 3.312500 0.125000
v 0.125000 3.312500 0.125000
v 0.125000 3.312500 -0.125000
v -0.125000 3.437500 -0.125000
v -0.125000 3.437500 0.125000
v 0.125000 3.437500 0.125000
v 0.125000 3.437500 -0.125000
v -0.062500 3.500000 -0.062500
v -0.062500 3.500000 0.062500
v 0.062500 3.500000 0.062500
v 0.062500 3.500000 -0.062500
v -0.062500 4.000000 -0.062500
v -0.062500 4.000000 0.062500
v 0.062500 4.000000 0.062500
v 0.062500 4.000000 -0.062500
v -0.250000 4.000000 0.250000
v 0.250000 4.000000 0.250000
v -0.250000 4.000000 -0.250000
v 0.250000 4.000000 -0.250000
v -0.250000 4.062500 -0.250000
v -0.250000 4.062500 0.250000
v 0.250000 4.062500 0.250000
v 0.250000 4.062500 -0.250000
v 0.250000 4.062500 0.250000
v 0.250000 4.062500 0.187500
v 0.187500 4.062500 0.250000
v 0.187500 4.062500 0.187500
v 0.375000 4.812500 0.375000
v 0.375000 4.812500 0.312500
v 0.312500 4.812500 0.375000
v 0.312500 4.812500 0.312500
v 0.250000 4.062500 -0.187500
v 0.250000 4.062500 -0.250000
v 0.187500 4.062500 -0.187500
v 0.187500 4.062500 -0.250000
v 0.375000 4.812500 -0.312500
v 0.375000 4.812500 -0.375000
v 0.312500 4.812500 -0.312500
v 0.312500 4.812500 -0.375000
v -0.181700 4.062500 0.250000
v -0.181700 4.062500 0.187500
v -0.244200 4.062500 0.250000
v -0.244200 4.062500 0.187500
v -0.306700 4.812500 0.375000
v -0.306700 4.812500 0.312500
v -0.369200 4.812500 0.375000
v -0.369200 4.812500 0.312500
v -0.181700 4.062500 -0.187500
v -0.181700 4.062500 -0.250000
v -0.244200 4.062500 -0.187500
v -0.244200 4.062500 -0.250000
v -0.306700 4.812500 -0.312500
v -0.306700 4.812500 -0.375000
v -0.369200 4.812500 -0.312500
v -0.369200 4.812500 -0.375000
v 0.375000 4.812500 0.375000
v 0.375000 4.812500 -0.375000
v -0.369200 4.812500 0.375000
v -0.369200 4.812500 -0.375000
v 0.375000 4.875000 0.375000
v 0.375000 4.875000 -0.375000
v -0.369200 4.875000 0.375000
v -0.369200 4.875000 -0.375000
v 0.125000 5.000000 -0.125000
v 0.125000 5.000000 0.125000
v -0.119200 5.000000 0.125000
v -0.119200 5.000000 -0.125000
v -0.059600 5.000000 0.062500
v 0.065400 5.000000 0.062500
v -0.059600 5.000000 -0.062500
v 0.065400 5.000000 -0.062500
v -0.059600 5.500000 0.062500
v 0.065400 5.500000 0.062500
v -0.059600 5.500000 -0.062500
v 0.065400 5.500000 -0.062500
vt 0.764706 0.176471
vt 1.000000 0.235294
vt 0.764706 0.235294
vt 0.294118 0.279412
vt 0.117647 0.294118
vt 0.058824 0.279412
vt 0.294118 -0.000000
vt 0.058824 0.279412
vt 0.058824 -0.000000
vt 0.294118 -0.000000
vt 0.058824 0.279412
vt 0.058824 -0.000000
vt 0.294118 -0.000000
vt 0.058824 -0.000000
vt 0.294118 -0.000000
vt 0.058824 0.279412
vt 0.058824 -0.000000
vt 0.235294 0.294118
vt 0.058824 0.308824
vt 0.117647 0.294118
vt 0.294118 0.279412
vt 0.117647 0.294118
vt 0.294118 0.279412
vt 0.294118 0.279412
vt 0.117647 0.294118
vt 0.294118 0.308824
vt 0.058824 0.338235
vt 0.058824 0.308824
vt 0.235294 0.294118
vt 0.235294 0.294118
vt 0.058824 0.308824
vt 0.235294 0.294118
vt 0.058824 0.308824
vt 0.294118 0.338235
vt 0.117647 0.352941
vt 0.058824 0.338235
vt 0.294118 0.308824
vt 0.294118 0.308824
vt 0.058824 0.338235
vt 0.294118 0.308824
vt 0.058824 0.338235
vt 0.235294 0.352941
vt 0.117647 0.823529
vt 0.117647 0.352941
vt 0.294118 0.338235
vt 0.117647 0.352941
vt 0.294118 0.338235
vt 0.294118 0.338235
vt 0.117647 0.352941
vt 0.117647 0.823529
vt 0.294118 0.838235
vt 0.058824 0.838235
vt 0.235294 0.352941
vt 0.117647 0.823529
vt 0.235294 0.352941
vt 0.235294 0.352941
vt 0.117647 0.823529
vt 0.058824 0.867647
vt 0.294118 0.838235
vt 0.058824 0.838235
vt 0.294118 0.838235
vt 0.058824 0.838235
vt 0.294118 0.838235
vt 0.058824 0.838235
vt 0.294118 0.867647
vt 0.117647 0.882353
vt 0.058824 0.867647
vt 0.058824 0.867647
vt 0.058824 0.867647
vt 0.235294 0.882353
vt 0.117647 1.000000
vt 0.117647 0.882353
vt 0.294118 0.867647
vt 0.117647 0.882353
vt 0.294118 0.867647
vt 0.294118 0.867647
vt 0.117647 0.882353
vt 0.235294 0.882353
vt 0.117647 1.000000
vt 0.235294 0.882353
vt 0.117647 1.000000
vt 0.235294 0.882353
vt 0.117647 1.000000
vt 0.764706 -0.000000
vt 0.294118 0.117647
vt 0.294118 -0.000000
vt 0.294118 0.132353
vt 0.764706 0.250000
vt 0.294118 0.250000
vt 0.764706 0.117647
vt 0.764706 0.117647
vt 0.294118 0.132353
vt 0.294118 0.117647
vt 0.764706 0.117647
vt 0.294118 0.132353
vt 0.294118 0.117647
vt 0.764706 0.117647
vt 0.294118 0.132353
vt 0.294118 0.117647
vt 0.882353 0.000000
vt 0.823529 0.176471
vt 0.823529 0.000000
vt 0.764706 0.176471
vt 0.764706 0.000000
vt 1.000000 0.176471
vt 0.941176 0.000000
vt 1.000000 0.000000
vt 0.941176 0.176471
vt 0.823529 0.000000
vt 0.764706 0.176471
vt 0.764706 0.000000
vt 0.941176 0.000000
vt 1.000000 0.176471
vt 0.941176 0.176471
vt 0.882353 0.000000
vt 0.823529 0.176471
vt 0.941176 0.176471
vt 0.882353 0.000000
vt 0.941176 0.000000
vt 0.823529 0.176471
vt 0.823529 0.000000
vt 0.764706 0.176471
vt 0.764706 0.000000
vt 1.000000 0.176471
vt 1.000000 0.000000
vt 1.000000 0.176471
vt 0.941176 0.000000
vt 1.000000 0.000000
vt 0.882353 0.000000
vt 0.941176 0.176471
vt 0.882353 0.176471
vt 0.823529 0.176471
vt 0.823529 0.000000
vt 0.764706 0.176471
vt 0.764706 0.000000
vt 0.294118 0.426471
vt 1.000000 0.250000
vt 1.000000 0.426471
vt 0.294118 0.617647
vt 0.764706 0.558824
vt 1.000000 0.617647
vt 1.000000 0.426471
vt 0.294118 0.441176
vt 0.294118 0.426471
vt 0.294118 0.441176
vt 1.000000 0.426471
vt 0.294118 0.441176
vt 0.294118 0.426471
vt 1.000000 0.426471
vt 0.294118 0.441176
vt 0.294118 0.426471
vt 0.529412 0.500000
vt 0.764706 0.500000
vt 1.000000 0.441176
vt 0.529412 0.558824
vt 0.529412 0.735294
vt 0.411765 0.617647
vt 0.529412 0.617647
vt 0.764706 0.735294
vt 0.647059 0.617647
vt 0.764706 0.617647
vt 0.647059 0.735294
vt 0.411765 0.735294
vt 0.294118 0.617647
vt 0.411765 0.764706
vt 0.529412 0.764706
vt 1.000000 0.176471
vt 0.235294 0.823529
vt 0.235294 0.823529
vt 0.235294 0.823529
vt 0.235294 0.823529
vt 0.235294 1.000000
vt 0.235294 1.000000
vt 0.235294 1.000000
vt 0.235294 1.000000
vt 0.764706 0.132353
vt 0.764706 0.132353
vt 0.764706 0.132353
vt 0.764706 0.132353
vt 0.882353 0.176471
vt 1.000000 0.000000
vt 0.882353 0.176471
vt 0.882353 0.176471
vt 0.294118 0.250000
vt 1.000000 0.441176
vt 1.000000 0.441176
vt 1.000000 0.441176
vt 0.294118 0.735294
vn 0.0000 -1.0000 0.0000
vn 0.7071 0.7071 0.0000
vn 0.0000 0.0000 -1.0000
vn 0.0000 0.0000 1.0000
vn 1.0000 0.0000 0.0000
vn -1.0000 0.0000 0.0000
vn 0.0000 -0.7071 -0.7071
vn -0.7071 0.7071 0.0000
vn 0.0000 0.7071 -0.7071
vn 0.0000 0.7071 0.7071
vn 0.0000 -0.7071 0.7071
vn 0.7071 -0.7071 0.0000
vn -0.7071 -0.7071 0.0000
vn 0.0000 1.0000 0.0000
vn 0.0000 -0.1644 0.9864
vn -0.9864 0.1644 0.0000
vn 0.0000 0.1644 -0.9864
vn 0.9864 -0.1644 0.0000
vn 0.0000 0.1644 0.9864
vn 0.0000 -0.1644 -0.9864
vn -0.9864 -0.1644 0.0000
vn 0.9864 0.1644 0.0000
vn -0.4472 0.8944 0.0000
vn 0.4472 0.8944 0.0000
vn 0.0000 0.8944 -0.4472
vn 0.0000 0.8944 0.4472
s off
f 11/1/5 10/2/5 9/3/5
f 16/4/6 18/5/6 14/6/6
f 11/7/7 16/8/7 12/9/7
f 10/10/8 13/11/8 9/12/8
f 12/13/9 14/6/9 10/14/9
f 9/15/10 15/16/10 11/17/10
f 19/18/11 24/19/11 20/20/11
f 13/21/12 19/22/12 15/16/12
f 15/23/13 20/20/13 16/8/13
f 14/24/14 17/25/14 13/11/14
f 22/26/8 25/27/8 21/28/8
f 18/29/15 21/28/15 17/25/15
f 20/30/16 22/31/16 18/5/16
f 17/32/17 23/33/17 19/22/17
f 28/34/6 30/35/6 26/36/6
f 24/37/9 26/36/9 22/31/9
f 21/38/10 27/39/10 23/33/10
f 23/40/7 28/41/7 24/19/7
f 31/42/7 36/43/7 32/44/7
f 25/45/12 31/46/12 27/39/12
f 27/47/13 32/44/13 28/41/13
f 26/48/14 29/49/14 25/27/14
f 35/50/16 40/51/16 39/52/16
f 30/53/8 34/54/8 29/49/8
f 32/55/9 35/50/9 30/35/9
f 29/56/10 33/57/10 31/46/10
f 40/51/9 43/58/9 39/52/9
f 33/57/17 38/59/17 37/60/17
f 36/43/11 37/61/11 40/62/11
f 34/54/15 39/63/15 38/64/15
f 41/65/13 48/66/13 44/67/13
f 38/59/10 41/68/10 37/60/10
f 37/61/7 44/67/7 40/62/7
f 39/63/8 42/69/8 38/64/8
f 48/70/9 51/71/9 47/72/9
f 43/73/14 46/74/14 42/69/14
f 44/75/6 47/72/6 43/58/6
f 42/76/12 45/77/12 41/68/12
f 46/78/10 49/79/10 45/77/10
f 45/80/7 52/81/7 48/66/7
f 47/82/8 50/83/8 46/74/8
f 55/84/5 54/85/5 53/86/5
f 59/87/18 57/88/18 58/89/18
f 56/90/9 59/87/9 54/85/9
f 53/91/10 57/92/10 55/93/10
f 55/94/7 60/95/7 56/96/7
f 54/97/8 58/98/8 53/99/8
f 61/100/19 67/101/19 63/102/19
f 63/102/20 68/103/20 64/104/20
f 68/105/21 62/106/21 64/107/21
f 66/108/22 61/100/22 62/106/22
f 69/109/23 75/110/23 71/111/23
f 72/112/20 75/113/20 76/114/20
f 76/114/24 70/115/24 72/112/24
f 70/115/22 73/116/22 69/109/22
f 81/117/19 79/118/19 77/119/19
f 79/118/25 84/120/25 80/121/25
f 80/121/21 82/122/21 78/123/21
f 82/124/26 77/119/26 78/125/26
f 89/126/23 87/127/23 85/128/23
f 88/129/25 91/130/25 92/131/25
f 88/129/24 90/132/24 86/133/24
f 86/133/26 89/134/26 85/135/26
f 93/136/5 96/137/5 94/138/5
f 99/139/27 104/140/27 100/141/27
f 95/142/10 100/143/10 96/144/10
f 94/138/9 97/145/9 93/136/9
f 96/146/7 98/147/7 94/148/7
f 93/149/8 99/150/8 95/151/8
f 104/140/18 102/152/18 101/153/18
f 98/154/28 102/152/28 97/145/28
f 100/141/29 101/153/29 98/154/29
f 97/145/30 103/155/30 99/139/30
f 112/156/9 106/157/9 108/158/9
f 109/159/10 107/160/10 105/161/10
f 111/162/7 108/158/7 107/160/7
f 110/163/8 105/164/8 106/157/8
f 109/165/18 112/156/18 111/166/18
f 11/1/5 12/167/5 10/2/5
f 16/4/6 20/30/6 18/5/6
f 11/7/7 15/23/7 16/8/7
f 10/10/8 14/24/8 13/11/8
f 12/13/9 16/4/9 14/6/9
f 9/15/10 13/21/10 15/16/10
f 19/18/11 23/40/11 24/19/11
f 13/21/12 17/32/12 19/22/12
f 15/23/13 19/18/13 20/20/13
f 14/24/14 18/29/14 17/25/14
f 22/26/8 26/48/8 25/27/8
f 18/29/15 22/26/15 21/28/15
f 20/30/16 24/37/16 22/31/16
f 17/32/17 21/38/17 23/33/17
f 28/34/6 32/55/6 30/35/6
f 24/37/9 28/34/9 26/36/9
f 21/38/10 25/45/10 27/39/10
f 23/40/7 27/47/7 28/41/7
f 31/42/7 33/168/7 36/43/7
f 25/45/12 29/56/12 31/46/12
f 27/47/13 31/42/13 32/44/13
f 26/48/14 30/53/14 29/49/14
f 35/50/16 36/169/16 40/51/16
f 30/53/8 35/170/8 34/54/8
f 32/55/9 36/169/9 35/50/9
f 29/56/10 34/171/10 33/57/10
f 40/51/9 44/75/9 43/58/9
f 33/57/17 34/171/17 38/59/17
f 36/43/11 33/168/11 37/61/11
f 34/54/15 35/170/15 39/63/15
f 41/65/13 45/80/13 48/66/13
f 38/59/10 42/76/10 41/68/10
f 37/61/7 41/65/7 44/67/7
f 39/63/8 43/73/8 42/69/8
f 48/70/9 52/172/9 51/71/9
f 43/73/14 47/82/14 46/74/14
f 44/75/6 48/70/6 47/72/6
f 42/76/12 46/78/12 45/77/12
f 46/78/10 50/173/10 49/79/10
f 45/80/7 49/174/7 52/81/7
f 47/82/8 51/175/8 50/83/8
f 55/84/5 56/90/5 54/85/5
f 59/87/18 60/176/18 57/88/18
f 56/90/9 60/176/9 59/87/9
f 53/91/10 58/177/10 57/92/10
f 55/94/7 57/178/7 60/95/7
f 54/97/8 59/179/8 58/98/8
f 61/100/19 65/180/19 67/101/19
f 63/102/20 67/101/20 68/103/20
f 68/105/21 66/108/21 62/106/21
f 66/108/22 65/180/22 61/100/22
f 69/109/23 73/116/23 75/110/23
f 72/112/20 71/181/20 75/113/20
f 76/114/24 74/182/24 70/115/24
f 70/115/22 74/182/22 73/116/22
f 81/117/19 83/183/19 79/118/19
f 79/118/25 83/183/25 84/120/25
f 80/121/21 84/120/21 82/122/21
f 82/124/26 81/117/26 77/119/26
f 89/126/23 91/130/23 87/127/23
f 88/129/25 87/127/25 91/130/25
f 88/129/24 92/131/24 90/132/24
f 86/133/26 90/132/26 89/134/26
f 93/136/5 95/184/5 96/137/5
f 99/139/27 103/155/27 104/140/27
f 95/142/10 99/185/10 100/143/10
f 94/138/9 98/154/9 97/145/9
f 96/146/7 100/186/7 98/147/7
f 93/149/8 97/187/8 99/150/8
f 104/140/18 103/155/18 102/152/18
f 98/154/28 101/153/28 102/152/28
f 100/141/29 104/140/29 101/153/29
f 97/145/30 102/152/30 103/155/30
f 112/156/9 110/163/9 106/157/9
f 109/159/10 111/162/10 107/160/10
f 111/162/7 112/156/7 108/158/7
f 110/163/8 109/188/8 105/164/8
f 109/165/18 110/163/18 112/156/18
