# Blender v2.79 (sub 0) OBJ File: ''
# www.blender.org
o Cylinder
v -0.750000 1.000000 -0.000000
v 0.000000 -1.000000 -0.750000
v -0.649519 1.375000 -0.000000
v 0.000000 -1.649519 -0.375000
v -0.375000 1.649519 -0.000000
v -0.530330 1.000000 0.530330
v 0.530330 -1.000000 -0.530330
v 0.459279 -1.375000 -0.459279
v 0.265165 -1.649519 -0.265165
v -0.459279 1.375000 0.459279
v -0.265165 1.649519 0.265165
v 0.750000 -1.000000 -0.000000
v 0.649519 -1.375000 -0.000000
v 0.375000 -1.649519 -0.000000
v 0.000000 1.000000 0.750000
v -0.000000 1.375000 0.649519
v 0.530330 -1.000000 0.530330
v 0.459279 -1.375000 0.459279
v 0.265165 -1.649519 0.265165
v 0.000000 -1.750000 -0.000000
v 0.000000 1.649519 0.375000
v 0.000000 -1.000000 0.750000
v -0.000000 -1.375000 0.649519
v -0.000000 -1.649519 0.375000
v 0.530330 1.000000 0.530330
v 0.459279 1.375000 0.459279
v -0.530330 -1.000000 0.530330
v -0.459279 -1.375000 0.459279
v -0.265165 -1.649519 0.265165
v 0.265165 1.649519 0.265165
v 0.750000 1.000000 -0.000000
v -0.750000 -1.000000 -0.000000
v -0.649519 -1.375000 -0.000000
v -0.375000 -1.649519 -0.000000
v 0.649519 1.375000 -0.000000
v 0.375000 1.649519 -0.000000
v -0.530330 -1.000000 -0.530330
v -0.459279 -1.375000 -0.459279
v -0.265165 -1.649519 -0.265165
v 0.530330 1.000000 -0.530330
v 0.459279 1.375000 -0.459279
v 0.265165 1.649519 -0.265165
v 0.000000 1.000000 -0.750000
v 0.000000 -1.375000 -0.649519
v 0.000000 1.649519 -0.375000
v 0.000000 1.750000 0.000000
v -0.265165 1.649519 -0.265165
v -0.459279 1.375000 -0.459279
v -0.530330 1.000000 -0.530330
v 0.000000 1.375000 -0.649519
vt 0.725972 0.593983
vt 0.641023 0.139981
vt 0.773191 0.152961
vt 0.773191 0.083125
vt 0.867138 0.526460
vt 0.773191 0.526460
vt 0.867138 0.083125
vt 1.000000 0.526460
vt 0.000000 0.143977
vt 0.093947 0.587312
vt 0.000000 0.587312
vt 0.226809 0.143977
vt 0.093947 0.143977
vt 0.320756 0.143977
vt 0.414704 0.587312
vt 0.320756 0.587312
vt 0.414704 0.143977
vt 0.547565 0.587312
vt 0.320756 0.143977
vt 0.226809 0.587312
vt 0.538665 0.060852
vt 0.447919 0.000000
vt 0.514350 0.000000
vt 0.693519 0.866982
vt 0.771365 0.835172
vt 0.771365 0.898793
vt 0.547565 0.143977
vt 0.423604 0.060852
vt 0.724572 0.943780
vt 0.342243 0.060852
vt 0.743234 1.000000
vt 0.658396 0.943780
vt 0.593803 0.581004
vt 0.708264 0.675806
vt 0.593803 0.664565
vt 0.677594 0.733965
vt 0.611510 0.727475
vt 0.611602 0.898793
vt 0.876038 0.609586
vt 0.794678 0.609586
vt 0.547565 0.922080
vt 0.611602 0.835172
vt 0.991100 0.609586
vt 0.658396 0.790184
vt 0.102847 0.670438
vt 0.021487 0.670438
vt 0.628614 0.733965
vt 0.217909 0.670438
vt 0.193594 0.731290
vt 0.127163 0.731290
vt 0.724572 0.790184
vt 0.743234 0.733965
vt 0.320756 0.587312
vt 0.299270 0.670438
vt 0.423604 0.670438
vt 0.052918 0.832497
vt 0.130764 0.864307
vt 0.052917 0.896118
vt 0.538665 0.670438
vt 0.447919 0.731290
vt 0.577793 0.050211
vt 0.547565 0.130804
vt 0.099711 0.941105
vt 0.081049 0.997325
vt 0.000000 0.919405
vt 0.165887 0.941105
vt 0.689400 0.000000
vt 0.773191 0.069400
vt 0.658730 0.058159
vt 0.276718 0.919405
vt 0.195669 0.997325
vt 0.794678 0.000000
vt 0.212680 0.896118
vt 0.276718 0.809210
vt 0.876038 0.000000
vt 1.000000 0.083125
vt 0.212680 0.832497
vt 0.195669 0.731290
vt 0.021487 0.060852
vt 0.165887 0.787510
vt 0.127163 0.000000
vt 0.217909 0.060852
vt 0.102847 0.060852
vt 0.099711 0.787510
vt 0.000000 0.809210
vt 0.081049 0.731290
vt 0.824283 0.922080
vt 0.628614 1.000000
vt 0.547565 0.811885
vt 0.824283 0.811885
vt 0.514350 0.731290
vt 0.755484 0.006490
vt 0.991100 0.000000
vt 0.193594 0.000000
vt 0.299270 0.060852
vn 0.9239 0.0000 0.3827
vn 0.3827 0.0000 0.9239
vn -0.3827 0.0000 0.9239
vn -0.9239 0.0000 0.3827
vn -0.9239 0.0000 -0.3827
vn 0.9239 0.0000 -0.3827
vn 0.3827 0.0000 -0.9239
vn -0.3827 0.0000 -0.9239
vn 0.2811 -0.6786 -0.6786
vn 0.1066 -0.9604 -0.2573
vn 0.3715 -0.2403 -0.8968
vn 0.2573 -0.9604 -0.1066
vn 0.8968 -0.2403 -0.3715
vn 0.6786 -0.6786 -0.2811
vn 0.2573 -0.9604 0.1066
vn 0.8968 -0.2403 0.3715
vn 0.6786 -0.6786 0.2811
vn 0.1066 -0.9604 0.2573
vn 0.3715 -0.2403 0.8968
vn 0.2811 -0.6786 0.6786
vn -0.1066 -0.9604 0.2573
vn -0.3715 -0.2403 0.8968
vn -0.2811 -0.6786 0.6786
vn -0.2573 -0.9604 0.1066
vn -0.8968 -0.2403 0.3715
vn -0.6786 -0.6786 0.2811
vn -0.8968 -0.2403 -0.3715
vn -0.6786 -0.6786 -0.2811
vn -0.2573 -0.9604 -0.1066
vn -0.2811 -0.6786 -0.6786
vn -0.1066 -0.9604 -0.2573
vn -0.3715 -0.2403 -0.8968
vn 0.3715 0.2403 -0.8968
vn 0.1066 0.9604 -0.2573
vn 0.2811 0.6786 -0.6786
vn 0.8968 0.2403 -0.3715
vn 0.2573 0.9604 -0.1066
vn 0.6786 0.6786 -0.2811
vn 0.2573 0.9604 0.1066
vn 0.6786 0.6786 0.2811
vn 0.8968 0.2403 0.3715
vn 0.2811 0.6786 0.6786
vn 0.3715 0.2403 0.8968
vn 0.1066 0.9604 0.2573
vn -0.2811 0.6786 0.6786
vn -0.3715 0.2403 0.8968
vn -0.1066 0.9604 0.2573
vn -0.6786 0.6786 0.2811
vn -0.8968 0.2403 0.3715
vn -0.2573 0.9604 0.1066
vn -0.6786 0.6786 -0.2811
vn -0.8968 0.2403 -0.3715
vn -0.2573 0.9604 -0.1066
vn -0.2811 0.6786 -0.6786
vn -0.3715 0.2403 -0.8968
vn -0.1066 0.9604 -0.2573
s off
f 17/1/1 31/2/1 25/3/1
f 25/4/2 22/5/2 17/6/2
f 15/7/3 27/8/3 22/5/3
f 6/9/4 32/10/4 27/11/4
f 49/12/5 32/10/5 1/13/5
f 12/14/6 40/15/6 31/16/6
f 7/17/7 43/18/7 40/15/7
f 43/19/8 37/20/8 49/12/8
f 44/21/9 9/22/9 4/23/9
f 20/24/10 4/25/10 9/26/10
f 2/27/11 8/28/11 44/21/11
f 20/24/12 9/26/12 14/29/12
f 7/17/13 13/30/13 8/28/13
f 9/26/14 13/31/14 14/29/14
f 20/24/15 14/29/15 19/32/15
f 12/33/16 18/34/16 13/35/16
f 13/35/17 19/36/17 14/37/17
f 20/24/18 19/32/18 24/38/18
f 17/6/19 23/39/19 18/40/19
f 19/32/20 23/41/20 24/38/20
f 20/24/21 24/38/21 29/42/21
f 22/5/22 28/43/22 23/39/22
f 23/41/23 29/42/23 24/38/23
f 20/24/24 29/42/24 34/44/24
f 27/11/25 33/45/25 28/46/25
f 29/42/26 33/47/26 34/44/26
f 32/10/27 38/48/27 33/45/27
f 33/45/28 39/49/28 34/50/28
f 20/24/29 34/44/29 39/51/29
f 38/52/30 4/25/30 39/51/30
f 20/24/31 39/51/31 4/25/31
f 38/48/32 2/53/32 44/54/32
f 43/18/33 41/55/33 40/15/33
f 45/56/34 46/57/34 42/58/34
f 50/59/35 42/60/35 41/55/35
f 41/61/36 31/2/36 40/62/36
f 42/58/37 46/57/37 36/63/37
f 42/58/38 35/64/38 41/65/38
f 36/63/39 46/57/39 30/66/39
f 36/67/40 26/68/40 35/69/40
f 35/69/41 25/3/41 31/2/41
f 30/66/42 16/70/42 26/71/42
f 26/72/43 15/7/43 25/4/43
f 30/66/44 46/57/44 21/73/44
f 21/73/45 10/74/45 16/70/45
f 16/75/46 6/76/46 15/7/46
f 21/73/47 46/57/47 11/77/47
f 11/77/48 3/78/48 10/74/48
f 10/79/49 1/13/49 6/9/49
f 11/77/50 46/57/50 5/80/50
f 5/81/51 48/82/51 3/83/51
f 1/13/52 48/82/52 49/12/52
f 5/80/53 46/57/53 47/84/53
f 47/84/54 50/85/54 48/86/54
f 48/82/55 43/19/55 49/12/55
f 47/84/56 46/57/56 45/56/56
f 17/1/1 12/33/1 31/2/1
f 25/4/2 15/7/2 22/5/2
f 15/7/3 6/76/3 27/8/3
f 6/9/4 1/13/4 32/10/4
f 49/12/5 37/20/5 32/10/5
f 12/14/6 7/17/6 40/15/6
f 7/17/7 2/27/7 43/18/7
f 43/19/8 2/53/8 37/20/8
f 44/21/9 8/28/9 9/22/9
f 2/27/11 7/17/11 8/28/11
f 7/17/13 12/14/13 13/30/13
f 9/26/14 8/87/14 13/31/14
f 12/33/16 17/1/16 18/34/16
f 13/35/17 18/34/17 19/36/17
f 17/6/19 22/5/19 23/39/19
f 19/32/20 18/88/20 23/41/20
f 22/5/22 27/8/22 28/43/22
f 23/41/23 28/89/23 29/42/23
f 27/11/25 32/10/25 33/45/25
f 29/42/26 28/89/26 33/47/26
f 32/10/27 37/20/27 38/48/27
f 33/45/28 38/48/28 39/49/28
f 38/52/30 44/90/30 4/25/30
f 38/48/32 37/20/32 2/53/32
f 43/18/33 50/59/33 41/55/33
f 50/59/35 45/91/35 42/60/35
f 41/61/36 35/69/36 31/2/36
f 42/58/38 36/63/38 35/64/38
f 36/67/40 30/92/40 26/68/40
f 35/69/41 26/68/41 25/3/41
f 30/66/42 21/73/42 16/70/42
f 26/72/43 16/75/43 15/7/43
f 21/73/45 11/77/45 10/74/45
f 16/75/46 10/93/46 6/76/46
f 11/77/48 5/80/48 3/78/48
f 10/79/49 3/83/49 1/13/49
f 5/81/51 47/94/51 48/82/51
f 1/13/52 3/83/52 48/82/52
f 47/84/54 45/56/54 50/85/54
f 48/82/55 50/95/55 43/19/55
