# Blender 3.4.1
# www.blender.org
mtllib scutterfish.mtl
o tail
v 0.058486 0.058859 -0.529470
v 0.058486 -0.037907 -0.529470
v 0.058486 0.058859 -0.213907
v 0.058486 -0.037907 -0.213907
v -0.059850 0.058859 -0.529470
v -0.059850 -0.037907 -0.529470
v -0.059850 0.058859 -0.213907
v -0.059850 -0.037907 -0.213907
v -0.211057 0.015078 -0.482181
v 0.209693 0.015078 -0.482181
v -0.211057 -0.057984 -0.896539
v 0.209693 -0.057984 -0.896539
vn -0.0000 1.0000 -0.0000
vn -0.0000 0.9848 -0.1736
vn -1.0000 -0.0000 -0.0000
vn -0.0000 -1.0000 -0.0000
vn 1.0000 -0.0000 -0.0000
vn -0.0000 -0.0000 -1.0000
vt 0.171875 0.187500
vt 0.343750 0.187500
vt 0.203125 0.281250
vt 0.328125 0.187500
vt 0.171875 0.187500
vt 0.203125 0.218750
vt 0.171875 0.390625
vt 0.343750 0.390625
vt 0.328125 0.390625
vt 0.171875 0.390625
vt 0.328125 0.187500
vt 0.328125 0.390625
vt 0.296875 0.281250
vt 0.171875 0.390625
vt 0.171875 0.187500
vt 0.296875 0.218750
vt 0.328125 0.390625
vt 0.328125 0.187500
vt 0.171875 0.187500
vt 0.171875 0.390625
vt 0.625000 0.781250
vt 0.828125 0.781250
vt 0.625000 0.984375
vt 0.828125 0.984375
s 0
usemtl 
f 1/1/1 5/11/1 7/17/1 3/7/1
f 9/21/2 10/22/2 12/24/2 11/23/2
f 8/19/3 7/18/3 5/12/3 6/14/3
f 6/15/4 2/4/4 4/9/4 8/20/4
f 2/5/5 1/2/5 3/8/5 4/10/5
f 6/16/6 5/13/6 1/3/6 2/6/6
o body
v 0.117654 0.107242 -0.213907
v 0.117654 -0.086290 -0.213907
v 0.117654 0.107242 0.417218
v 0.117654 -0.086290 0.417218
v -0.119018 0.107242 -0.213907
v -0.119018 -0.086290 -0.213907
v -0.119018 0.107242 0.417218
v -0.119018 -0.086290 0.417218
vn -0.0000 1.0000 -0.0000
vn -0.0000 -0.0000 1.0000
vn -1.0000 -0.0000 -0.0000
vn -0.0000 -1.0000 -0.0000
vn 1.0000 -0.0000 -0.0000
vn -0.0000 -0.0000 -1.0000
vt 0.328125 0.656250
vt 0.390625 0.171875
vt 0.484375 0.656250
vt 0.390625 0.015625
vt 0.375000 0.171875
vt 0.328125 0.171875
vt 0.375000 0.015625
vt 0.484375 0.171875
vt 0.171875 0.656250
vt 0.562500 0.171875
vt 0.015625 0.656250
vt 0.640625 0.656250
vt 0.562500 0.015625
vt 0.171875 0.171875
vt 0.171875 0.015625
vt 0.015625 0.171875
vt 0.640625 0.171875
s 0
usemtl 
f 13/25/7 17/33/7 19/38/7 15/30/7
f 16/31/8 15/29/8 19/38/8 20/39/8
f 20/40/9 19/38/9 17/33/9 18/35/9
f 18/36/10 14/27/10 16/32/10 20/41/10
f 14/27/11 13/25/11 15/30/11 16/32/11
f 18/37/12 17/34/12 13/26/12 14/28/12
o fin2
v 0.005208 0.024798 0.312030
v 0.386537 -0.153019 0.312030
v 0.005208 0.024798 -0.108720
v 0.386537 -0.153019 -0.108720
vn 0.4226 0.9063 -0.0000
vt 0.078125 0.656250
vt 0.406250 0.656250
vt 0.078125 1.000000
vt 0.406250 1.000000
s 0
usemtl 
f 21/42/13 22/43/13 24/45/13 23/44/13
o fin1
v -0.376070 -0.153019 0.312030
v 0.005259 0.024798 0.312030
v -0.376070 -0.153019 -0.108720
v 0.005259 0.024798 -0.108720
vn -0.4226 0.9063 -0.0000
vt 0.406250 0.656250
vt 0.078125 0.656250
vt 0.406250 1.000000
vt 0.078125 1.000000
s 0
usemtl 
f 25/46/14 26/47/14 28/49/14 27/48/14
