# Blender v2.79 (sub 0) OBJ File: 'tram_new.blend'
# www.blender.org
o Plane
v -1.000000 0.250000 2.500000
v 1.000000 0.250000 2.500000
v -1.000000 0.250000 -2.500000
v 1.000000 0.250000 -2.500000
v -1.000000 0.750000 -2.500000
v -1.000000 0.750000 2.500000
v 1.000000 0.750000 2.500000
v 1.000000 0.750000 -2.500000
v 0.562500 0.375000 2.562500
v 0.562500 0.875000 2.562500
v 0.562500 0.375000 2.062500
v 0.562500 0.875000 2.062500
v 1.062500 0.375000 2.562500
v 1.062500 0.875000 2.562500
v 1.062500 0.375000 2.062500
v 1.062500 0.875000 2.062500
v -1.062500 0.375000 2.562500
v -1.062500 0.875000 2.562500
v -1.062500 0.375000 2.062500
v -1.062500 0.875000 2.062500
v -0.562500 0.375000 2.562500
v -0.562500 0.875000 2.562500
v -0.562500 0.375000 2.062500
v -0.562500 0.875000 2.062500
v 0.562500 0.375000 -1.812500
v 0.562500 0.875000 -1.812500
v 0.562500 0.375000 -2.562500
v 0.562500 0.875000 -2.562500
v 1.062500 0.375000 -1.812500
v 1.062500 0.875000 -1.812500
v 1.062500 0.375000 -2.562500
v 1.062500 0.875000 -2.562500
v -1.062500 0.375000 -1.812500
v -1.062500 0.875000 -1.812500
v -1.062500 0.375000 -2.562500
v -1.062500 0.875000 -2.562500
v -0.562500 0.375000 -1.812500
v -0.562500 0.875000 -1.812500
v -0.562500 0.375000 -2.562500
v -0.562500 0.875000 -2.562500
v 0.875000 0.750000 1.062500
v -0.125000 0.750000 1.062500
v 0.000000 1.625000 1.187500
v 0.750000 1.625000 1.187500
v 0.000000 0.750000 1.187500
v 0.750000 0.750000 1.187500
v 0.875000 0.750000 1.875000
v 0.687500 0.750000 2.062500
v 0.062500 0.750000 2.062500
v -0.125000 0.750000 1.875000
v 0.687500 1.750000 2.062500
v 0.875000 1.750000 1.875000
v -0.125000 1.750000 1.875000
v 0.062500 1.750000 2.062500
v 0.000000 1.625000 1.875000
v 0.750000 1.625000 1.875000
v 0.687500 1.750000 1.937500
v 0.062500 1.750000 1.937500
v -0.875000 0.750000 1.250000
v 0.750000 1.750000 1.875000
v -0.875000 0.750000 1.750000
v 0.000000 1.750000 1.875000
v 0.687500 1.625000 1.937500
v 0.062500 1.625000 1.937500
v 0.000000 0.750000 1.062500
v 0.750000 0.750000 1.062500
v 0.875000 1.500000 1.062500
v 0.875000 1.750000 1.187500
v -0.125000 1.750000 1.187500
v -0.125000 1.500000 1.062500
v 0.750000 1.750000 1.187500
v 0.750000 1.500000 1.062500
v -0.187500 0.750000 1.750000
v 0.000000 1.500000 1.062500
v 0.000000 1.750000 1.187500
v -0.187500 0.750000 1.250000
v -0.187500 0.937500 1.250000
v -0.187500 0.937500 1.750000
v -0.875000 0.937500 1.250000
v -0.875000 0.937500 1.750000
v -0.187500 1.062500 1.375000
v -0.187500 1.062500 1.625000
v -0.875000 1.062500 1.375000
v -0.875000 1.062500 1.625000
v 0.937500 0.750000 1.000000
v 0.812500 0.750000 1.000000
v 0.937500 0.750000 0.875000
v 0.812500 0.750000 0.875000
v 0.812500 1.750000 0.875000
v 0.937500 1.750000 0.875000
v 0.812500 1.750000 1.000000
v 0.937500 1.750000 1.000000
v -0.812500 0.750000 0.750000
v -0.937500 0.750000 0.750000
v -0.812500 0.750000 0.625000
v -0.937500 0.750000 0.625000
v -0.812500 1.375000 0.750000
v -0.937500 1.375000 0.750000
v -0.812500 1.500000 0.625000
v -0.937500 1.500000 0.625000
v -0.812500 1.375000 1.125000
v -0.937500 1.375000 1.250000
v -0.812500 1.500000 1.125000
v -0.937500 1.500000 1.250000
v -0.125000 1.375000 1.125000
v -0.125000 1.375000 1.250000
v -0.125000 1.500000 1.125000
v -0.125000 1.500000 1.250000
v 0.875000 0.250000 -1.625000
v 0.750000 0.250000 1.750000
v 0.750000 0.073223 -1.676777
v 0.875000 0.250000 -1.250000
v 0.875000 0.250000 1.750000
v 0.750000 0.073223 1.323223
v 0.750000 0.000000 1.500000
v 0.750000 0.073223 1.676777
v 0.750000 0.250000 -1.250000
v 0.750000 0.250000 1.250000
v 0.875000 0.250000 -1.375000
v 0.875000 0.073223 -1.323223
v 0.875000 0.250000 1.250000
v 0.875000 0.073223 1.323223
v 0.875000 0.000000 1.500000
v 0.875000 0.073223 1.676777
v 0.875000 0.250000 1.625000
v 0.875000 0.000000 -1.500000
v 0.875000 0.073223 -1.676777
v 0.875000 0.250000 -1.750000
v 0.875000 0.250000 1.375000
v 0.875000 0.161612 1.411612
v 0.875000 0.125000 1.500000
v 0.875000 0.161612 1.588388
v 0.937500 0.250000 1.625000
v 0.750000 0.250000 -1.750000
v 0.750000 0.073223 -1.323223
v 0.750000 0.000000 -1.500000
v 0.937500 0.250000 1.375000
v 0.937500 0.161612 1.411612
v 0.937500 0.125000 1.500000
v 0.937500 0.161612 1.588388
v 0.875000 0.161612 -1.588388
v 0.875000 0.125000 -1.500000
v 0.875000 0.161612 -1.411612
v 0.937500 0.250000 -1.375000
v 0.937500 0.250000 -1.625000
v 0.937500 0.161612 -1.588388
v 0.937500 0.125000 -1.500000
v 0.937500 0.161612 -1.411612
v -0.750000 0.250000 2.000000
v 0.750000 0.250000 2.000000
v -0.750000 0.250000 -2.000000
v 0.750000 0.250000 -2.000000
v -0.750000 0.125000 -1.875000
v -0.750000 0.125000 1.875000
v 0.750000 0.125000 1.875000
v 0.750000 0.125000 -1.875000
v -0.875000 0.250000 1.625000
v -0.750000 0.250000 -1.750000
v -0.750000 0.073223 1.676777
v -0.875000 0.250000 1.250000
v -0.875000 0.250000 -1.750000
v -0.750000 0.073223 -1.323223
v -0.750000 0.000000 -1.500000
v -0.750000 0.073223 -1.676777
v -0.750000 0.250000 1.250000
v -0.750000 0.250000 -1.250000
v -0.875000 0.250000 1.375000
v -0.875000 0.073223 1.323223
v -0.875000 0.250000 -1.250000
v -0.875000 0.073223 -1.323223
v -0.875000 0.000000 -1.500000
v -0.875000 0.073223 -1.676777
v -0.875000 0.250000 -1.625000
v -0.875000 0.000000 1.500000
v -0.875000 0.073223 1.676777
v -0.875000 0.250000 1.750000
v -0.875000 0.250000 -1.375000
v -0.875000 0.161612 -1.411611
v -0.875000 0.125000 -1.500000
v -0.875000 0.161612 -1.588388
v -0.937500 0.250000 -1.625000
v -0.750000 0.250000 1.750000
v -0.750000 0.073223 1.323223
v -0.750000 0.000000 1.500000
v -0.937500 0.250000 -1.375000
v -0.937500 0.161612 -1.411611
v -0.937500 0.125000 -1.500000
v -0.937500 0.161612 -1.588388
v -0.875000 0.161612 1.588389
v -0.875000 0.125000 1.500000
v -0.875000 0.161612 1.411612
v -0.937500 0.250000 1.375000
v -0.937500 0.250000 1.625000
v -0.937500 0.161612 1.588389
v -0.937500 0.125000 1.500000
v -0.937500 0.161612 1.411612
vt 0.543210 0.090909
vt 0.049383 0.454545
vt 0.049383 0.090909
vt 0.049383 0.090909
vt 0.543210 0.454545
vt 0.049383 0.454545
vt 0.543210 0.000000
vt 0.049383 0.000000
vt 0.049383 0.545455
vt 0.543210 0.545455
vt 0.592593 0.454545
vt 0.543210 0.090909
vt 0.592593 0.090909
vt -0.000000 0.090909
vt -0.000000 0.454545
vt 0.049383 0.727273
vt -0.000000 0.636364
vt 0.049383 0.636364
vt 0.049383 0.818182
vt 0.098765 0.909091
vt 0.049383 0.909091
vt 0.148148 0.727273
vt 0.098765 0.636364
vt 0.148148 0.636364
vt 0.098765 0.727273
vt 0.098765 0.545455
vt 0.049383 0.545455
vt 0.098765 0.818182
vt 0.049383 0.727273
vt -0.000000 0.636364
vt 0.049383 0.636364
vt 0.049383 0.818182
vt 0.098765 0.909091
vt 0.049383 0.909091
vt 0.148148 0.727273
vt 0.098765 0.636364
vt 0.148148 0.636364
vt 0.098765 0.727273
vt 0.098765 0.545455
vt 0.049383 0.545455
vt 0.098765 0.818182
vt 0.345679 0.772727
vt 0.271605 0.681818
vt 0.345679 0.681818
vt 0.271605 0.772727
vt 0.222222 0.681818
vt 0.222222 0.772727
vt 0.148148 0.681818
vt 0.222222 0.909091
vt 0.271605 1.000000
vt 0.222222 1.000000
vt 0.271605 0.545455
vt 0.345679 0.772727
vt 0.271605 0.681818
vt 0.345679 0.681818
vt 0.271605 0.772727
vt 0.222222 0.681818
vt 0.222222 0.772727
vt 0.148148 0.681818
vt 0.222222 0.909091
vt 0.271605 1.000000
vt 0.222222 1.000000
vt 0.271605 0.545455
vt 0.987654 0.318182
vt 0.913580 0.477273
vt 0.913580 0.318182
vt 0.567901 0.454545
vt 0.555556 0.590909
vt 0.555556 0.454545
vt 0.777778 0.318182
vt 0.716049 0.500000
vt 0.716901 0.318679
vt 0.697531 0.500000
vt 0.629630 0.522727
vt 0.629630 0.500000
vt 0.777778 0.522727
vt 0.716049 0.522727
vt 0.697531 0.318182
vt 0.796296 0.500000
vt 0.777778 0.500000
vt 0.864198 0.500000
vt 0.796296 0.522727
vt 0.617284 0.454545
vt 0.604938 0.318182
vt 0.617284 0.318182
vt 0.901235 0.318182
vt 0.888889 0.454545
vt 0.888889 0.318182
vt 0.709877 0.534091
vt 0.697531 0.534091
vt 0.783951 0.534091
vt 0.796296 0.534091
vt 0.919753 0.636364
vt 0.981481 0.613636
vt 0.981481 0.636364
vt 0.913580 0.636364
vt 0.919753 0.613636
vt 0.913580 0.602273
vt 0.987654 0.477273
vt 0.987654 0.636364
vt 1.000000 0.477273
vt 0.987654 0.602273
vt 0.876543 0.454545
vt 0.901235 0.602273
vt 0.604938 0.454545
vt 0.592593 0.477273
vt 0.592593 0.318182
vt 0.876543 0.500000
vt 0.604938 0.500000
vt 0.623457 0.659091
vt 0.691358 0.636364
vt 0.691358 0.659091
vt 0.691358 0.534091
vt 0.623457 0.568182
vt 0.623457 0.534091
vt 0.722222 0.568182
vt 0.722222 0.659091
vt 0.506173 0.727273
vt 0.518519 0.750000
vt 0.506173 0.750000
vt 0.623457 0.693182
vt 0.691358 0.693182
vt 0.691358 0.590909
vt 0.623457 0.636364
vt 0.623457 0.590909
vt 0.506173 0.545455
vt 0.493827 0.727273
vt 0.493827 0.545455
vt 0.518519 0.545455
vt 0.592593 0.659091
vt 0.592593 0.568182
vt 0.543210 0.545455
vt 0.530864 0.727273
vt 0.530864 0.545455
vt 0.518519 0.727273
vt 0.580247 0.568182
vt 0.567901 0.590909
vt 0.592593 0.568182
vt 0.580247 0.454545
vt 0.592593 0.454545
vt 0.543210 0.568182
vt 0.543210 0.454545
vt 0.592593 0.681818
vt 0.580247 0.613636
vt 0.592593 0.613636
vt 0.555556 0.681818
vt 0.543210 0.613636
vt 0.567901 0.704545
vt 0.580247 0.704545
vt 0.567901 0.852273
vt 0.555556 0.727273
vt 0.543210 0.852273
vt 0.543210 0.727273
vt 0.592593 0.727273
vt 0.580247 0.852273
vt 0.555556 0.852273
vt 0.456790 0.568182
vt 0.438272 0.590909
vt 0.438272 0.568182
vt 0.456790 0.568182
vt 0.438272 0.590909
vt 0.438272 0.568182
vt 0.419210 0.590495
vt 0.377874 0.558974
vt 0.394996 0.545918
vt 0.493827 0.568182
vt 0.475309 0.590909
vt 0.475309 0.568182
vt 0.349457 0.574879
vt 0.358021 0.568349
vt 0.366584 0.574879
vt 0.469136 0.590909
vt 0.456790 0.590909
vt 0.419753 0.568182
vt 0.432099 0.590909
vt 0.419753 0.590909
vt 0.469136 0.590909
vt 0.456790 0.590909
vt 0.419753 0.568182
vt 0.432099 0.590909
vt 0.419753 0.590909
vt 0.493827 0.568182
vt 0.475309 0.590909
vt 0.475309 0.568182
vt 0.349457 0.574879
vt 0.358021 0.568349
vt 0.366584 0.574879
vt 0.377874 0.558974
vt 0.394996 0.545918
vt 0.412118 0.558974
vt 0.975309 0.022727
vt 0.604938 0.295455
vt 0.604938 0.022727
vt 0.987654 0.295455
vt 0.987654 0.022727
vt 0.592593 0.022727
vt 0.592593 0.295455
vt 0.592593 0.318182
vt 0.975309 0.295455
vt 0.987654 0.318182
vt 0.987654 0.000000
vt 0.592593 0.000000
vt 0.456790 0.568182
vt 0.438272 0.590909
vt 0.438272 0.568182
vt 0.456790 0.568182
vt 0.438272 0.590909
vt 0.438272 0.568182
vt 0.419210 0.590495
vt 0.377874 0.558974
vt 0.394996 0.545918
vt 0.493827 0.568182
vt 0.475309 0.590909
vt 0.475309 0.568182
vt 0.358021 0.568349
vt 0.366584 0.574879
vt 0.370132 0.590644
vt 0.475309 0.568182
vt 0.456790 0.590909
vt 0.419753 0.590909
vt 0.419753 0.568182
vt 0.456790 0.590909
vt 0.419753 0.590909
vt 0.419753 0.568182
vt 0.493827 0.568182
vt 0.475309 0.590909
vt 0.358021 0.568349
vt 0.366584 0.574879
vt 0.370132 0.590644
vt 0.377874 0.558974
vt 0.394996 0.545918
vt 0.412118 0.558974
vt 0.543210 0.454545
vt -0.000000 0.727273
vt -0.000000 0.727273
vt 0.148148 0.772727
vt 0.271605 0.909091
vt 0.222222 0.545455
vt 0.148148 0.772727
vt 0.271605 0.909091
vt 0.222222 0.545455
vt 0.697531 0.522727
vt 0.796296 0.318182
vt 0.864198 0.522727
vt 0.901235 0.477273
vt 0.901235 0.500000
vt 0.913580 0.613636
vt 0.987654 0.613636
vt 1.000000 0.602273
vt 0.876543 0.318182
vt 0.901235 0.477273
vt 0.592593 0.500000
vt 0.888889 0.500000
vt 0.617284 0.500000
vt 0.691358 0.568182
vt 0.703704 0.659091
vt 0.703704 0.568182
vt 0.611111 0.568182
vt 0.611111 0.659091
vt 0.543210 0.727273
vt 0.543210 0.681818
vt 0.592593 0.852273
vt 0.450617 0.590909
vt 0.450617 0.590909
vt 0.412118 0.558974
vt 0.370781 0.590495
vt 0.487654 0.590909
vt 0.370132 0.590644
vt 0.345910 0.590644
vt 0.487654 0.590909
vt 0.370132 0.590644
vt 0.345910 0.590644
vt 0.419210 0.590495
vt 0.370781 0.590495
vt 0.450617 0.590909
vt 0.450617 0.590909
vt 0.412118 0.558974
vt 0.370781 0.590495
vt 0.487654 0.590909
vt 0.345910 0.590644
vt 0.349457 0.574879
vt 0.469136 0.590909
vt 0.432099 0.590909
vt 0.469136 0.590909
vt 0.432099 0.590909
vt 0.487654 0.590909
vt 0.345910 0.590644
vt 0.349457 0.574879
vt 0.419210 0.590495
vt 0.370781 0.590495
vt 0.475309 0.545455
vt 0.456790 0.545455
vt 0.456790 0.602273
vt 0.438272 0.545455
vt 0.493827 0.545455
vt 0.419753 0.602273
vt 0.475309 0.602273
vt 0.419753 0.545455
vt 0.438272 0.602273
vt 0.438272 0.545455
vt 0.419753 0.545455
vt 0.438272 0.602273
vt 0.475309 0.602273
vt 0.493827 0.545455
vt 0.475309 0.545455
vt 0.456790 0.545455
vt 0.419753 0.602273
vt 0.456790 0.602273
vt 0.475309 0.545455
vt 0.456790 0.545455
vt 0.456790 0.602273
vt 0.438272 0.545455
vt 0.493827 0.545455
vt 0.419753 0.602273
vt 0.475309 0.602273
vt 0.419753 0.545455
vt 0.438272 0.602273
vt 0.438272 0.545455
vt 0.419753 0.545455
vt 0.438272 0.602273
vt 0.475309 0.602273
vt 0.475309 0.545455
vt 0.456790 0.545455
vt 0.419753 0.602273
vt 0.456790 0.602273
vt 0.469136 0.602273
vt 0.432099 0.602273
vt 0.487654 0.602273
vt 0.450617 0.602273
vt 0.450617 0.602273
vt 0.487654 0.602273
vt 0.432099 0.602273
vt 0.469136 0.602273
vt 0.469136 0.602273
vt 0.432099 0.602273
vt 0.487654 0.602273
vt 0.450617 0.602273
vt 0.450617 0.602273
vt 0.487654 0.602273
vt 0.493827 0.545455
vt 0.432099 0.602273
vt 0.469136 0.602273
vn 0.0000 -1.0000 0.0000
vn 0.0000 1.0000 0.0000
vn 1.0000 0.0000 0.0000
vn -1.0000 0.0000 0.0000
vn 0.0000 0.0000 -1.0000
vn 0.0000 0.0000 1.0000
vn -0.7071 0.0000 0.7071
vn 0.7071 0.0000 0.7071
vn -0.7071 0.0000 -0.7071
vn 0.7071 0.0000 -0.7071
vn 0.0000 0.4472 -0.8944
vn 0.0000 0.7071 0.7071
vn 0.0000 0.7071 -0.7071
vn 0.0000 -0.7071 -0.7071
vn 0.0000 -0.7071 0.7071
vn 0.0000 -0.3827 -0.9239
vn 0.0000 -0.3827 0.9239
s off
f 3/1/1 2/2/1 1/3/1
f 7/4/2 5/5/2 6/6/2
f 4/7/3 7/4/3 2/8/3
f 1/9/4 5/5/4 3/10/4
f 3/11/5 8/12/5 4/13/5
f 2/14/6 6/6/6 1/15/6
f 10/16/4 11/17/4 9/18/4
f 12/19/5 15/20/5 11/21/5
f 16/22/3 13/23/3 15/24/3
f 14/25/6 9/18/6 13/23/6
f 15/26/1 9/18/1 11/27/1
f 12/19/2 14/25/2 16/28/2
f 18/29/4 19/30/4 17/31/4
f 20/32/5 23/33/5 19/34/5
f 24/35/3 21/36/3 23/37/3
f 22/38/6 17/31/6 21/36/6
f 23/39/1 17/31/1 19/40/1
f 20/32/2 22/38/2 24/41/2
f 26/42/4 27/43/4 25/44/4
f 28/45/5 31/46/5 27/43/5
f 32/47/3 29/48/3 31/46/3
f 30/49/6 25/50/6 29/51/6
f 31/46/1 25/52/1 27/43/1
f 28/45/2 30/49/2 32/47/2
f 34/53/4 35/54/4 33/55/4
f 36/56/5 39/57/5 35/54/5
f 40/58/3 37/59/3 39/57/3
f 38/60/6 33/61/6 37/62/6
f 39/57/1 33/63/1 35/54/1
f 36/56/2 38/60/2 40/58/2
f 45/64/5 44/65/5 46/66/5
f 96/67/5 99/68/5 95/69/5
f 48/70/6 54/71/6 49/72/6
f 53/73/2 75/74/2 69/75/2
f 54/71/2 57/76/2 58/77/2
f 54/71/7 50/78/7 49/72/7
f 48/70/8 52/79/8 51/80/8
f 68/81/2 60/82/2 52/79/2
f 70/83/5 65/84/5 42/85/5
f 46/86/4 72/87/4 66/88/4
f 54/71/2 62/89/2 53/90/2
f 60/91/2 51/80/2 52/92/2
f 57/93/5 64/94/5 58/95/5
f 60/96/9 63/97/9 57/93/9
f 56/98/2 44/65/2 43/99/2
f 64/94/10 62/100/10 58/95/10
f 75/101/3 55/102/3 43/99/3
f 67/103/3 68/81/3 52/79/3
f 53/73/4 69/75/4 70/83/4
f 60/104/4 44/65/4 56/98/4
f 74/105/3 43/106/3 45/107/3
f 72/87/11 68/108/11 67/103/11
f 70/83/11 75/109/11 74/105/11
f 67/103/5 66/88/5 72/87/5
f 78/110/12 84/111/12 80/112/12
f 59/113/5 77/114/5 76/115/5
f 59/116/4 61/117/4 84/111/4
f 90/118/2 91/119/2 92/120/2
f 73/121/6 80/112/6 61/122/6
f 83/123/2 82/124/2 81/125/2
f 87/126/3 92/127/3 85/128/3
f 88/129/5 90/118/5 87/126/5
f 77/114/13 83/123/13 81/125/13
f 73/130/3 76/131/3 81/125/3
f 85/132/6 91/133/6 86/134/6
f 86/134/4 89/135/4 88/129/4
f 96/67/4 98/136/4 100/137/4
f 97/138/6 94/139/6 93/140/6
f 95/69/3 97/141/3 93/142/3
f 101/143/1 98/144/1 97/145/1
f 100/137/2 103/146/2 99/68/2
f 103/146/3 97/147/3 99/68/3
f 98/144/4 104/148/4 100/137/4
f 102/149/6 108/150/6 104/148/6
f 103/151/5 105/152/5 101/153/5
f 101/154/1 106/155/1 102/149/1
f 103/151/2 108/150/2 107/156/2
f 126/157/3 143/158/3 120/159/3
f 123/160/3 132/161/3 124/162/3
f 117/163/4 111/164/4 136/165/4
f 121/166/3 130/167/3 122/168/3
f 148/169/3 147/170/3 146/171/3
f 126/157/3 141/172/3 142/173/3
f 113/174/3 132/175/3 125/176/3
f 123/160/3 130/177/3 131/178/3
f 112/179/3 143/180/3 119/181/3
f 128/182/3 141/183/3 127/184/3
f 140/185/3 139/186/3 138/187/3
f 114/188/4 115/189/4 116/190/4
f 153/191/1 155/192/1 154/193/1
f 152/194/14 153/191/14 151/195/14
f 149/196/15 155/192/15 150/197/15
f 150/198/3 156/199/3 152/200/3
f 151/201/4 154/193/4 149/202/4
f 174/203/4 191/204/4 168/205/4
f 171/206/4 180/207/4 172/208/4
f 165/209/3 159/210/3 184/211/3
f 169/212/4 178/213/4 170/214/4
f 195/215/4 194/216/4 193/217/4
f 175/218/4 190/219/4 174/203/4
f 172/208/4 173/220/4 161/221/4
f 170/214/4 179/222/4 171/206/4
f 168/205/4 167/223/4 160/224/4
f 176/225/4 189/226/4 175/218/4
f 187/227/4 186/228/4 185/229/4
f 162/230/3 163/231/3 164/232/3
f 3/1/1 4/233/1 2/2/1
f 7/4/2 8/12/2 5/5/2
f 4/7/3 8/12/3 7/4/3
f 1/9/4 6/6/4 5/5/4
f 3/11/5 5/5/5 8/12/5
f 2/14/6 7/4/6 6/6/6
f 10/16/4 12/234/4 11/17/4
f 12/19/5 16/28/5 15/20/5
f 16/22/3 14/25/3 13/23/3
f 14/25/6 10/16/6 9/18/6
f 15/26/1 13/23/1 9/18/1
f 12/19/2 10/16/2 14/25/2
f 18/29/4 20/235/4 19/30/4
f 20/32/5 24/41/5 23/33/5
f 24/35/3 22/38/3 21/36/3
f 22/38/6 18/29/6 17/31/6
f 23/39/1 21/36/1 17/31/1
f 20/32/2 18/29/2 22/38/2
f 26/42/4 28/45/4 27/43/4
f 28/45/5 32/47/5 31/46/5
f 32/47/3 30/236/3 29/48/3
f 30/49/6 26/237/6 25/50/6
f 31/46/1 29/238/1 25/52/1
f 28/45/2 26/237/2 30/49/2
f 34/53/4 36/56/4 35/54/4
f 36/56/5 40/58/5 39/57/5
f 40/58/3 38/239/3 37/59/3
f 38/60/6 34/240/6 33/61/6
f 39/57/1 37/241/1 33/63/1
f 36/56/2 34/240/2 38/60/2
f 45/64/5 43/99/5 44/65/5
f 96/67/5 100/137/5 99/68/5
f 48/70/6 51/80/6 54/71/6
f 53/73/2 62/242/2 75/74/2
f 54/71/2 51/80/2 57/76/2
f 54/71/7 53/73/7 50/78/7
f 48/70/8 47/243/8 52/79/8
f 68/81/2 71/244/2 60/82/2
f 70/83/5 74/105/5 65/84/5
f 46/86/4 44/245/4 72/87/4
f 44/245/4 71/246/4 72/87/4
f 54/71/2 58/77/2 62/89/2
f 60/91/2 57/76/2 51/80/2
f 57/93/5 63/97/5 64/94/5
f 60/96/9 56/247/9 63/97/9
f 43/99/2 55/102/2 56/98/2
f 55/102/2 64/94/2 56/98/2
f 64/94/2 63/97/2 56/98/2
f 64/94/10 55/248/10 62/100/10
f 75/101/3 62/249/3 55/102/3
f 52/79/3 47/243/3 67/103/3
f 47/243/3 41/250/3 67/103/3
f 70/83/4 42/85/4 50/78/4
f 50/78/4 53/73/4 70/83/4
f 60/104/4 71/251/4 44/65/4
f 45/107/3 65/84/3 74/105/3
f 74/105/3 75/252/3 43/106/3
f 72/87/11 71/253/11 68/108/11
f 70/83/11 69/254/11 75/109/11
f 67/103/5 41/250/5 66/88/5
f 78/110/12 82/124/12 84/111/12
f 59/113/5 79/255/5 77/114/5
f 61/117/4 80/256/4 84/111/4
f 84/111/4 83/123/4 59/116/4
f 83/123/4 79/257/4 59/116/4
f 90/118/2 89/135/2 91/119/2
f 73/121/6 78/110/6 80/112/6
f 83/123/2 84/111/2 82/124/2
f 87/126/3 90/118/3 92/127/3
f 88/129/5 89/135/5 90/118/5
f 77/114/13 79/255/13 83/123/13
f 76/131/3 77/258/3 81/125/3
f 81/125/3 82/124/3 73/130/3
f 82/124/3 78/259/3 73/130/3
f 85/132/6 92/260/6 91/133/6
f 86/134/4 91/133/4 89/135/4
f 96/67/4 94/139/4 98/136/4
f 97/138/6 98/136/6 94/139/6
f 95/69/3 99/68/3 97/141/3
f 101/143/1 102/149/1 98/144/1
f 100/137/2 104/148/2 103/146/2
f 103/146/3 101/261/3 97/147/3
f 98/144/4 102/149/4 104/148/4
f 102/149/6 106/155/6 108/150/6
f 103/151/5 107/156/5 105/152/5
f 101/154/1 105/262/1 106/155/1
f 103/151/2 104/148/2 108/150/2
f 126/157/3 142/263/3 143/158/3
f 123/160/3 131/264/3 132/161/3
f 136/165/4 135/265/4 117/163/4
f 117/163/4 134/266/4 111/164/4
f 121/166/3 129/267/3 130/167/3
f 145/268/3 144/269/3 146/171/3
f 144/269/3 148/169/3 146/171/3
f 126/157/3 127/184/3 141/172/3
f 113/174/3 124/162/3 132/175/3
f 123/160/3 122/168/3 130/177/3
f 112/179/3 120/159/3 143/180/3
f 128/182/3 109/270/3 141/183/3
f 137/271/3 133/272/3 138/187/3
f 133/272/3 140/185/3 138/187/3
f 110/273/4 118/274/4 116/190/4
f 118/274/4 114/188/4 116/190/4
f 153/191/1 156/199/1 155/192/1
f 152/194/14 156/199/14 153/191/14
f 149/196/15 154/193/15 155/192/15
f 150/198/3 155/192/3 156/199/3
f 151/201/4 153/191/4 154/193/4
f 174/203/4 190/275/4 191/204/4
f 171/206/4 179/276/4 180/207/4
f 184/211/3 183/277/3 165/209/3
f 165/209/3 182/278/3 159/210/3
f 169/212/4 177/279/4 178/213/4
f 193/217/4 192/280/4 196/281/4
f 196/281/4 195/215/4 193/217/4
f 175/218/4 189/282/4 190/219/4
f 172/208/4 180/283/4 173/220/4
f 170/214/4 178/284/4 179/222/4
f 168/205/4 191/285/4 167/223/4
f 176/225/4 157/286/4 189/226/4
f 185/229/4 181/287/4 188/288/4
f 188/288/4 187/227/4 185/229/4
f 158/289/3 166/290/3 164/232/3
f 166/290/3 162/230/3 164/232/3
s 1
f 114/291/14 123/160/1 115/292/1
f 141/172/14 147/293/1 142/173/1
f 115/292/1 124/162/15 116/294/15
f 118/295/16 122/168/14 114/291/14
f 143/180/15 144/296/17 119/181/17
f 109/270/16 146/297/14 141/183/14
f 116/294/15 113/174/17 110/298/17
f 142/263/1 148/299/15 143/158/15
f 135/300/15 112/179/17 117/301/17
f 131/264/1 140/302/15 132/161/15
f 129/267/16 138/303/14 130/167/14
f 134/304/16 127/184/14 111/305/14
f 136/306/1 120/159/15 135/300/15
f 132/175/15 133/307/17 125/176/17
f 130/177/14 139/308/1 131/178/1
f 111/305/14 126/157/1 136/306/1
f 162/309/15 171/206/1 163/310/1
f 189/282/15 195/311/1 190/219/1
f 163/310/1 172/208/14 164/312/14
f 166/313/17 170/214/15 162/309/15
f 191/285/14 192/314/16 167/223/16
f 157/286/17 194/315/15 189/226/15
f 158/316/16 172/208/14 161/221/16
f 190/275/1 196/317/14 191/204/14
f 183/318/14 160/224/16 165/319/16
f 179/276/1 188/320/14 180/207/14
f 177/279/17 186/321/15 178/213/15
f 159/322/15 176/225/17 175/218/15
f 184/323/1 168/205/14 183/318/14
f 180/283/14 181/324/16 173/220/16
f 178/284/15 187/325/1 179/222/1
f 159/322/15 174/203/1 184/323/1
f 114/291/14 122/168/14 123/160/1
f 141/172/14 146/326/14 147/293/1
f 115/292/1 123/160/1 124/162/15
f 118/295/16 121/166/16 122/168/14
f 143/180/15 148/327/15 144/296/17
f 109/270/16 145/328/16 146/297/14
f 116/294/15 124/162/15 113/174/17
f 142/263/1 147/329/1 148/299/15
f 135/300/15 120/159/15 112/179/17
f 131/264/1 139/330/1 140/302/15
f 129/267/16 137/331/16 138/303/14
f 134/304/16 128/182/16 127/184/14
f 136/306/1 126/157/1 120/159/15
f 132/175/15 140/332/15 133/307/17
f 130/177/14 138/333/14 139/308/1
f 111/305/14 127/184/14 126/157/1
f 162/309/15 170/214/15 171/206/1
f 189/282/15 194/334/15 195/311/1
f 163/310/1 171/206/1 172/208/14
f 166/313/17 169/212/17 170/214/15
f 191/285/14 196/335/14 192/314/16
f 157/286/17 193/336/17 194/315/15
f 158/316/16 164/312/14 172/208/14
f 190/275/1 195/337/1 196/317/14
f 183/318/14 168/205/14 160/224/16
f 179/276/1 187/338/1 188/320/14
f 177/279/17 185/339/17 186/321/15
f 159/322/15 182/340/17 176/225/17
f 184/323/1 174/203/1 168/205/14
f 180/283/14 188/341/14 181/324/16
f 178/284/15 186/342/15 187/325/1
f 159/322/15 175/218/15 174/203/1
