# Blender v2.76 (sub 0) OBJ File: 'ams_base.blend'
# www.blender.org
o Plane
v -1.500000 0.000000 1.500000
v 1.500000 0.000000 1.500000
v -1.500000 0.000000 -1.500000
v 1.500000 0.000000 -1.500000
v -1.000000 1.500000 1.000000
v 1.000000 1.500000 1.000000
v -1.000000 1.500000 -1.000000
v 1.000000 1.500000 -1.000000
v -1.500000 0.343750 0.156250
v -1.500000 0.656250 0.156250
v -1.500000 0.343750 -0.156250
v -1.500000 0.656250 -0.156250
v 1.500000 0.343750 0.156250
v 1.500000 0.656250 0.156250
v 1.500000 0.343750 -0.156250
v 1.500000 0.656250 -0.156250
v 0.156250 0.343750 1.500000
v 0.156250 0.656250 1.500000
v -0.156250 0.343750 1.500000
v -0.156250 0.656250 1.500000
v 0.156250 0.343750 -1.500000
v 0.156250 0.656250 -1.500000
v -0.156250 0.343750 -1.500000
v -0.156250 0.656250 -1.500000
v -1.000000 2.000000 -1.000000
v -1.000000 2.000000 1.000000
v 1.000000 2.000000 1.000000
v 1.000000 2.000000 -1.000000
v -0.750000 2.000000 -0.750000
v -0.750000 2.000000 0.750000
v 0.750000 2.000000 0.750000
v 0.750000 2.000000 -0.750000
v -0.750000 1.750000 -0.750000
v -0.750000 1.750000 0.750000
v 0.750000 1.750000 0.750000
v 0.750000 1.750000 -0.750000
v -0.750000 3.000000 0.750000
v -0.750000 3.000000 -0.750000
v 0.000000 1.750000 -0.600000
v 0.000000 2.000000 -0.600000
v 0.229610 1.750000 -0.554328
v 0.229610 2.000000 -0.554328
v 0.424264 1.750000 -0.424264
v 0.424264 2.000000 -0.424264
v 0.554328 1.750000 -0.229610
v 0.554328 2.000000 -0.229610
v 0.600000 1.750000 0.000000
v 0.600000 2.000000 0.000000
v 0.554328 1.750000 0.229610
v 0.554328 2.000000 0.229610
v 0.424264 1.750000 0.424264
v 0.424264 2.000000 0.424264
v 0.229610 1.750000 0.554328
v 0.229610 2.000000 0.554328
v 0.000000 1.750000 0.600000
v 0.000000 2.000000 0.600000
v -0.229610 1.750000 0.554328
v -0.229610 2.000000 0.554328
v -0.424264 1.750000 0.424264
v -0.424264 2.000000 0.424264
v -0.554328 1.750000 0.229610
v -0.554328 2.000000 0.229610
v -0.600000 1.750000 -0.000000
v -0.600000 2.000000 -0.000000
v -0.554328 1.750000 -0.229610
v -0.554328 2.000000 -0.229610
v -0.424264 1.750000 -0.424264
v -0.424264 2.000000 -0.424264
v -0.229610 1.750000 -0.554328
v -0.229610 2.000000 -0.554328
v 0.750000 3.000000 0.750000
v 0.750000 3.000000 -0.750000
vt 0.259127 0.259128
vt 0.544865 0.259127
vt 0.544865 0.544865
vt 0.695462 0.306750
vt 0.743085 0.306750
vt 0.743085 0.497242
vt 0.306750 0.108530
vt 0.497242 0.108530
vt 0.108530 0.497242
vt 0.108530 0.306751
vt 0.497242 0.695462
vt 0.306751 0.695462
vt 0.259127 0.544865
vt 0.695462 0.497242
vt 0.043049 0.876806
vt 0.013285 0.876806
vt 0.013285 0.847042
vt 0.328787 0.876806
vt 0.328787 0.906570
vt 0.043049 0.906570
vt 0.328787 0.847042
vt 0.358551 0.847042
vt 0.358551 0.876806
vt 0.043049 0.847042
vt 0.043049 0.817277
vt 0.328787 0.817277
vt 0.328787 0.936335
vt 0.414884 0.876806
vt 0.385120 0.876806
vt 0.385120 0.847042
vt 0.700622 0.876806
vt 0.700622 0.906570
vt 0.414884 0.906570
vt 0.700622 0.847042
vt 0.730386 0.847042
vt 0.730386 0.876806
vt 0.414884 0.847042
vt 0.414884 0.817277
vt 0.700622 0.817277
vt 0.700622 0.936335
vt 0.060908 0.497242
vt 0.037096 0.473431
vt 0.037096 0.330562
vt 0.060907 0.306751
vt 0.306750 0.060908
vt 0.497242 0.060907
vt 0.497242 0.743085
vt 0.306751 0.743085
vt 0.330562 0.037096
vt 0.330562 0.013285
vt 0.473431 0.013285
vt 0.473431 0.037096
vt 0.473431 0.766897
vt 0.330562 0.766897
vt 0.766897 0.330562
vt 0.766897 0.473431
vt 0.960146 0.013285
vt 0.960146 0.156153
vt 0.817277 0.156153
vt 0.473431 0.790708
vt 0.330562 0.790708
vt 0.790708 0.330562
vt 0.790708 0.473431
vt 0.013285 0.473431
vt 0.013285 0.330562
vt 0.370051 0.986715
vt 0.347753 0.986715
vt 0.347753 0.962904
vt 0.325455 0.986715
vt 0.325455 0.962904
vt 0.303157 0.986715
vt 0.303157 0.962904
vt 0.280859 0.986715
vt 0.280859 0.962904
vt 0.258561 0.986715
vt 0.258561 0.962904
vt 0.236263 0.986715
vt 0.236263 0.962904
vt 0.213965 0.986715
vt 0.213965 0.962904
vt 0.191668 0.986715
vt 0.191668 0.962904
vt 0.169370 0.986715
vt 0.169370 0.962904
vt 0.147072 0.986715
vt 0.147072 0.962904
vt 0.817277 0.448983
vt 0.849026 0.460208
vt 0.817277 0.550007
vt 0.124774 0.986715
vt 0.124774 0.962904
vt 0.817277 0.698391
vt 0.850952 0.698391
vt 0.817277 0.793637
vt 0.102476 0.986715
vt 0.102476 0.962904
vt 0.817277 0.576576
vt 0.850952 0.576576
vt 0.817277 0.671822
vt 0.080178 0.986715
vt 0.080178 0.962904
vt 0.817277 0.321391
vt 0.849026 0.332615
vt 0.817277 0.422414
vt 0.057880 0.986715
vt 0.057880 0.962904
vt 0.817277 0.227623
vt 0.884476 0.182722
vt 0.929376 0.249921
vt 0.035582 0.986715
vt 0.013285 0.986715
vt 0.013285 0.962904
vt 0.035582 0.962904
vt 0.043049 0.936335
vt 0.414884 0.936335
vt 0.817277 0.013285
vt 0.370050 0.962904
vt 0.920843 0.270521
vt 0.862178 0.294821
vt 0.905076 0.286288
vt 0.884476 0.294821
vt 0.841577 0.286288
vt 0.825810 0.270521
vt 0.817277 0.249921
vt 0.825810 0.207022
vt 0.841577 0.191256
vt 0.862178 0.182722
vt 0.905076 0.191256
vt 0.920843 0.207023
vt 0.929376 0.227623
vn 0.000000 -1.000000 0.000000
vn 1.000000 0.000000 0.000000
vn 0.000000 0.316200 -0.948700
vn -0.948700 0.316200 0.000000
vn 0.000000 0.316200 0.948700
vn 0.948700 0.316200 0.000000
vn -1.000000 0.000000 0.000000
vn 0.000000 0.000000 -1.000000
vn 0.000000 0.000000 1.000000
vn 0.000000 1.000000 0.000000
vn 0.195100 0.000000 -0.980800
vn 0.555600 0.000000 -0.831500
vn 0.831500 0.000000 -0.555600
vn 0.980800 0.000000 -0.195100
vn 0.980800 0.000000 0.195100
vn 0.831500 0.000000 0.555600
vn 0.555600 0.000000 0.831500
vn 0.195100 0.000000 0.980800
vn -0.195100 0.000000 0.980800
vn -0.555600 0.000000 0.831500
vn 0.707100 0.000000 -0.707100
vn -0.831500 0.000000 0.555600
vn 0.707100 0.000000 0.707100
vn -0.980800 0.000000 0.195100
vn -0.980800 0.000000 -0.195100
vn -0.831500 0.000000 -0.555600
vn -0.195100 0.000000 -0.980800
vn -0.555600 0.000000 -0.831500
s off
f 3/1/1 4/2/1 2/3/1
f 8/4/2 28/5/2 27/6/2
f 7/7/3 8/8/3 4/2/3
f 5/9/4 7/10/4 3/1/4
f 6/11/5 5/12/5 1/13/5
f 8/4/6 6/14/6 2/3/6
f 12/15/7 11/16/7 9/17/7
f 16/18/8 15/19/8 11/20/8
f 14/21/2 13/22/2 15/23/2
f 10/24/9 9/25/9 13/26/9
f 11/20/1 15/19/1 13/27/1
f 16/18/10 12/15/10 10/24/10
f 20/28/9 19/29/9 17/30/9
f 24/31/7 23/32/7 19/33/7
f 22/34/8 21/35/8 23/36/8
f 18/37/2 17/38/2 21/39/2
f 19/33/1 23/32/1 21/40/1
f 24/31/10 20/28/10 18/37/10
f 26/41/10 30/42/10 29/43/10
f 5/9/7 26/41/7 25/44/7
f 7/7/8 25/45/8 28/46/8
f 6/11/9 27/47/9 26/48/9
f 29/49/9 33/50/9 36/51/9
f 25/45/10 29/49/10 32/52/10
f 27/47/10 31/53/10 30/54/10
f 28/5/10 32/55/10 31/56/10
f 35/57/10 36/58/10 33/59/10
f 31/53/8 35/60/8 34/61/8
f 32/55/7 36/62/7 35/63/7
f 30/42/2 34/64/2 33/65/2
f 40/66/11 42/67/11 41/68/11
f 42/67/12 44/69/12 43/70/12
f 44/69/13 46/71/13 45/72/13
f 46/71/14 48/73/14 47/74/14
f 48/73/15 50/75/15 49/76/15
f 50/75/16 52/77/16 51/78/16
f 52/77/17 54/79/17 53/80/17
f 54/79/18 56/81/18 55/82/18
f 56/81/19 58/83/19 57/84/19
f 58/83/20 60/85/20 59/86/20
f 27/87/21 31/88/21 71/89/21
f 60/85/22 62/90/22 61/91/22
f 32/92/23 28/93/23 72/94/23
f 62/90/24 64/95/24 63/96/24
f 29/97/21 25/98/21 38/99/21
f 64/95/25 66/100/25 65/101/25
f 26/102/23 30/103/23 37/104/23
f 66/100/26 68/105/26 67/106/26
f 60/107/10 52/108/10 44/109/10
f 70/110/27 40/111/27 39/112/27
f 68/105/28 70/110/28 69/113/28
f 1/13/1 3/1/1 2/3/1
f 6/14/2 8/4/2 27/6/2
f 3/1/3 7/7/3 4/2/3
f 1/13/4 5/9/4 3/1/4
f 2/3/5 6/11/5 1/13/5
f 4/2/6 8/4/6 2/3/6
f 10/24/7 12/15/7 9/17/7
f 12/15/8 16/18/8 11/20/8
f 16/18/2 14/21/2 15/23/2
f 14/21/9 10/24/9 13/26/9
f 9/114/1 11/20/1 13/27/1
f 14/21/10 16/18/10 10/24/10
f 18/37/9 20/28/9 17/30/9
f 20/28/7 24/31/7 19/33/7
f 24/31/8 22/34/8 23/36/8
f 22/34/2 18/37/2 21/39/2
f 17/115/1 19/33/1 21/40/1
f 22/34/10 24/31/10 18/37/10
f 25/44/10 26/41/10 29/43/10
f 7/10/7 5/9/7 25/44/7
f 8/8/8 7/7/8 28/46/8
f 5/12/9 6/11/9 26/48/9
f 32/52/9 29/49/9 36/51/9
f 28/46/10 25/45/10 32/52/10
f 26/48/10 27/47/10 30/54/10
f 27/6/10 28/5/10 31/56/10
f 34/116/10 35/57/10 33/59/10
f 30/54/8 31/53/8 34/61/8
f 31/56/7 32/55/7 35/63/7
f 29/43/2 30/42/2 33/65/2
f 39/117/11 40/66/11 41/68/11
f 41/68/12 42/67/12 43/70/12
f 43/70/13 44/69/13 45/72/13
f 45/72/14 46/71/14 47/74/14
f 47/74/15 48/73/15 49/76/15
f 49/76/16 50/75/16 51/78/16
f 51/78/17 52/77/17 53/80/17
f 53/80/18 54/79/18 55/82/18
f 55/82/19 56/81/19 57/84/19
f 57/84/20 58/83/20 59/86/20
f 59/86/22 60/85/22 61/91/22
f 61/91/24 62/90/24 63/96/24
f 63/96/25 64/95/25 65/101/25
f 65/101/26 66/100/26 67/106/26
f 44/109/10 42/118/10 68/119/10
f 40/120/10 70/121/10 68/119/10
f 68/119/10 66/122/10 64/123/10
f 64/123/10 62/124/10 60/107/10
f 60/107/10 58/125/10 52/108/10
f 56/126/10 54/127/10 52/108/10
f 52/108/10 50/128/10 48/129/10
f 48/129/10 46/130/10 44/109/10
f 42/118/10 40/120/10 68/119/10
f 68/119/10 64/123/10 44/109/10
f 58/125/10 56/126/10 52/108/10
f 52/108/10 48/129/10 44/109/10
f 44/109/10 64/123/10 60/107/10
f 69/113/27 70/110/27 39/112/27
f 67/106/28 68/105/28 69/113/28
