# Blender v2.76 (sub 0) OBJ File: 'ams_base.blend'
# www.blender.org
o Plane
v -1.500000 0.000000 1.500000
v 1.500000 0.000000 1.500000
v -1.500000 0.000000 -1.500000
v 1.500000 0.000000 -1.500000
v -1.000000 1.500000 1.000000
v 1.000000 1.500000 1.000000
v -1.000000 1.500000 -1.000000
v 1.000000 1.500000 -1.000000
v -1.500000 0.343750 0.156250
v -1.500000 0.656250 0.156250
v -1.500000 0.343750 -0.156250
v -1.500000 0.656250 -0.156250
v 1.500000 0.343750 0.156250
v 1.500000 0.656250 0.156250
v 1.500000 0.343750 -0.156250
v 1.500000 0.656250 -0.156250
v 0.156250 0.343750 1.500000
v 0.156250 0.656250 1.500000
v -0.156250 0.343750 1.500000
v -0.156250 0.656250 1.500000
v 0.156250 0.343750 -1.500000
v 0.156250 0.656250 -1.500000
v -0.156250 0.343750 -1.500000
v -0.156250 0.656250 -1.500000
v -1.000000 2.000000 -1.000000
v -1.000000 2.000000 1.000000
v 1.000000 2.000000 1.000000
v 1.000000 2.000000 -1.000000
v -0.750000 2.000000 -0.750000
v -0.750000 2.000000 0.750000
v 0.750000 2.000000 0.750000
v 0.750000 2.000000 -0.750000
v -0.750000 1.750000 -0.750000
v -0.750000 1.750000 0.750000
v 0.750000 1.750000 0.750000
v 0.750000 1.750000 -0.750000
v -0.750000 3.000000 0.750000
v -0.750000 3.000000 -0.750000
v 0.000000 1.750000 -0.600000
v 0.000000 2.000000 -0.600000
v 0.229610 1.750000 -0.554328
v 0.229610 2.000000 -0.554328
v 0.424264 1.750000 -0.424264
v 0.424264 2.000000 -0.424264
v 0.554328 1.750000 -0.229610
v 0.554328 2.000000 -0.229610
v 0.600000 1.750000 0.000000
v 0.600000 2.000000 0.000000
v 0.554328 1.750000 0.229610
v 0.554328 2.000000 0.229610
v 0.424264 1.750000 0.424264
v 0.424264 2.000000 0.424264
v 0.229610 1.750000 0.554328
v 0.229610 2.000000 0.554328
v 0.000000 1.750000 0.600000
v 0.000000 2.000000 0.600000
v -0.229610 1.750000 0.554328
v -0.229610 2.000000 0.554328
v -0.424264 1.750000 0.424264
v -0.424264 2.000000 0.424264
v -0.554328 1.750000 0.229610
v -0.554328 2.000000 0.229610
v -0.600000 1.750000 -0.000000
v -0.600000 2.000000 -0.000000
v -0.554328 1.750000 -0.229610
v -0.554328 2.000000 -0.229610
v -0.424264 1.750000 -0.424264
v -0.424264 2.000000 -0.424264
v -0.229610 1.750000 -0.554328
v -0.229610 2.000000 -0.554328
v 0.750000 3.000000 0.750000
v 0.750000 3.000000 -0.750000
vn 0.000000 -1.000000 0.000000
vn 1.000000 0.000000 0.000000
vn 0.000000 0.316200 -0.948700
vn -0.948700 0.316200 0.000000
vn 0.000000 0.316200 0.948700
vn 0.948700 0.316200 0.000000
vn -1.000000 0.000000 0.000000
vn 0.000000 0.000000 -1.000000
vn 0.000000 0.000000 1.000000
vn 0.000000 1.000000 0.000000
vn 0.195100 0.000000 -0.980800
vn 0.555600 0.000000 -0.831500
vn 0.831500 0.000000 -0.555600
vn 0.980800 0.000000 -0.195100
vn 0.980800 0.000000 0.195100
vn 0.831500 0.000000 0.555600
vn 0.555600 0.000000 0.831500
vn 0.195100 0.000000 0.980800
vn -0.195100 0.000000 0.980800
vn -0.555600 0.000000 0.831500
vn 0.707100 0.000000 -0.707100
vn -0.831500 0.000000 0.555600
vn 0.707100 0.000000 0.707100
vn -0.980800 0.000000 0.195100
vn -0.980800 0.000000 -0.195100
vn -0.831500 0.000000 -0.555600
vn -0.195100 0.000000 -0.980800
vn -0.555600 0.000000 -0.831500
s off
f 3//1 4//1 2//1
f 8//2 28//2 27//2
f 7//3 8//3 4//3
f 5//4 7//4 3//4
f 6//5 5//5 1//5
f 8//6 6//6 2//6
f 12//7 11//7 9//7
f 16//8 15//8 11//8
f 14//2 13//2 15//2
f 10//9 9//9 13//9
f 11//1 15//1 13//1
f 16//10 12//10 10//10
f 20//9 19//9 17//9
f 24//7 23//7 19//7
f 22//8 21//8 23//8
f 18//2 17//2 21//2
f 19//1 23//1 21//1
f 24//10 20//10 18//10
f 26//10 30//10 29//10
f 5//7 26//7 25//7
f 7//8 25//8 28//8
f 6//9 27//9 26//9
f 29//9 33//9 36//9
f 25//10 29//10 32//10
f 27//10 31//10 30//10
f 28//10 32//10 31//10
f 35//10 36//10 33//10
f 31//8 35//8 34//8
f 32//7 36//7 35//7
f 30//2 34//2 33//2
f 40//11 42//11 41//11
f 42//12 44//12 43//12
f 44//13 46//13 45//13
f 46//14 48//14 47//14
f 48//15 50//15 49//15
f 50//16 52//16 51//16
f 52//17 54//17 53//17
f 54//18 56//18 55//18
f 56//19 58//19 57//19
f 58//20 60//20 59//20
f 27//21 31//21 71//21
f 60//22 62//22 61//22
f 32//23 28//23 72//23
f 62//24 64//24 63//24
f 29//21 25//21 38//21
f 64//25 66//25 65//25
f 26//23 30//23 37//23
f 66//26 68//26 67//26
f 60//10 52//10 44//10
f 70//27 40//27 39//27
f 68//28 70//28 69//28
f 53//1 65//1 69//1
f 1//1 3//1 2//1
f 6//2 8//2 27//2
f 3//3 7//3 4//3
f 1//4 5//4 3//4
f 2//5 6//5 1//5
f 4//6 8//6 2//6
f 10//7 12//7 9//7
f 12//8 16//8 11//8
f 16//2 14//2 15//2
f 14//9 10//9 13//9
f 9//1 11//1 13//1
f 14//10 16//10 10//10
f 18//9 20//9 17//9
f 20//7 24//7 19//7
f 24//8 22//8 23//8
f 22//2 18//2 21//2
f 17//1 19//1 21//1
f 22//10 24//10 18//10
f 25//10 26//10 29//10
f 7//7 5//7 25//7
f 8//8 7//8 28//8
f 5//9 6//9 26//9
f 32//9 29//9 36//9
f 28//10 25//10 32//10
f 26//10 27//10 30//10
f 27//10 28//10 31//10
f 34//10 35//10 33//10
f 30//8 31//8 34//8
f 31//7 32//7 35//7
f 29//2 30//2 33//2
f 39//11 40//11 41//11
f 41//12 42//12 43//12
f 43//13 44//13 45//13
f 45//14 46//14 47//14
f 47//15 48//15 49//15
f 49//16 50//16 51//16
f 51//17 52//17 53//17
f 53//18 54//18 55//18
f 55//19 56//19 57//19
f 57//20 58//20 59//20
f 59//22 60//22 61//22
f 61//24 62//24 63//24
f 63//25 64//25 65//25
f 65//26 66//26 67//26
f 44//10 42//10 68//10
f 40//10 70//10 68//10
f 68//10 66//10 64//10
f 64//10 62//10 60//10
f 60//10 58//10 52//10
f 56//10 54//10 52//10
f 52//10 50//10 48//10
f 48//10 46//10 44//10
f 42//10 40//10 68//10
f 68//10 64//10 44//10
f 58//10 56//10 52//10
f 52//10 48//10 44//10
f 44//10 64//10 60//10
f 69//27 70//27 39//27
f 67//28 68//28 69//28
f 69//1 39//1 41//1
f 41//1 43//1 45//1
f 45//1 47//1 49//1
f 49//1 51//1 53//1
f 53//1 55//1 57//1
f 57//1 59//1 53//1
f 61//1 63//1 65//1
f 65//1 67//1 69//1
f 69//1 41//1 45//1
f 45//1 49//1 69//1
f 53//1 59//1 61//1
f 61//1 65//1 53//1
f 69//1 49//1 53//1
