# Blender v2.76 (sub 0) OBJ File: 'ams_emitter.blend'
# www.blender.org
o Circle
v 0.000000 6.250000 -2.500000
v -0.956709 6.250000 -2.309699
v -1.767767 6.250000 -1.767767
v -2.309699 6.250000 -0.956709
v -2.500000 6.250000 0.000000
v -2.309699 6.250000 0.956709
v -1.767767 6.250000 1.767767
v -0.956709 6.250000 2.309699
v -0.000000 6.250000 2.500000
v 0.956708 6.250000 2.309699
v 1.767766 6.250000 1.767768
v 2.309699 6.250000 0.956709
v 2.500000 6.250000 -0.000000
v 2.309699 6.250000 -0.956709
v 1.767766 6.250000 -1.767768
v 0.956707 6.250000 -2.309699
v -0.956709 4.500000 -2.309699
v 0.000000 4.500000 -2.500000
v -1.767767 4.500000 -1.767767
v -2.309699 4.500000 -0.956709
v -2.500000 4.500000 0.000000
v -2.309699 4.500000 0.956709
v -1.767767 4.500000 1.767767
v -0.956709 4.500000 2.309699
v -0.000000 4.500000 2.500000
v 0.956708 4.500000 2.309699
v 1.767766 4.500000 1.767768
v 2.309699 4.500000 0.956709
v 2.500000 4.500000 -0.000000
v 2.309699 4.500000 -0.956709
v 1.767766 4.500000 -1.767768
v 0.956707 4.500000 -2.309699
v -0.765367 3.500000 -1.847759
v -0.000000 3.500000 -2.000000
v -1.414214 3.500000 -1.414213
v -1.847759 3.500000 -0.765367
v -2.000000 3.500000 0.000000
v -1.847759 3.500000 0.765367
v -1.414214 3.500000 1.414214
v -0.765367 3.500000 1.847759
v -0.000000 3.500000 2.000000
v 0.765366 3.500000 1.847759
v 1.414213 3.500000 1.414214
v 1.847759 3.500000 0.765367
v 2.000000 3.500000 -0.000000
v 1.847759 3.500000 -0.765367
v 1.414213 3.500000 -1.414214
v 0.765366 3.500000 -1.847759
v -0.765367 1.500000 -1.847759
v -0.000000 1.500000 -2.000000
v -1.414214 1.500000 -1.414213
v -1.847759 1.500000 -0.765367
v -2.000000 1.500000 0.000000
v -1.847759 1.500000 0.765367
v -1.414214 1.500000 1.414214
v -0.765367 1.500000 1.847759
v -0.000000 1.500000 2.000000
v 0.765366 1.500000 1.847759
v 1.414213 1.500000 1.414214
v 1.847759 1.500000 0.765367
v 2.000000 1.500000 -0.000000
v 1.847759 1.500000 -0.765367
v 1.414213 1.500000 -1.414214
v 0.765366 1.500000 -1.847759
v -0.153073 0.500000 -0.369552
v 0.000000 0.500000 -0.400000
v -0.282843 0.500000 -0.282843
v -0.369552 0.500000 -0.153073
v -0.400000 0.500000 0.000000
v -0.369552 0.500000 0.153073
v -0.282843 0.500000 0.282843
v -0.153073 0.500000 0.369552
v -0.000000 0.500000 0.400000
v 0.153073 0.500000 0.369552
v 0.282843 0.500000 0.282843
v 0.369552 0.500000 0.153073
v 0.400000 0.500000 -0.000000
v 0.369552 0.500000 -0.153073
v 0.282843 0.500000 -0.282843
v 0.153073 0.500000 -0.369552
v -0.390181 2.000000 -1.961571
v -1.961570 2.000000 -0.390181
v -1.961571 2.000000 0.390181
v -0.390181 2.000000 1.961571
v 0.390180 2.000000 1.961571
v 1.961571 2.000000 0.390181
v 1.961571 2.000000 -0.390181
v 0.390180 2.000000 -1.961571
v -0.078036 1.000000 -0.392314
v -0.392314 1.000000 -0.078036
v -0.392314 1.000000 0.078036
v -0.078036 1.000000 0.392314
v 0.078036 1.000000 0.392314
v 0.392314 1.000000 0.078036
v 0.392314 1.000000 -0.078036
v 0.078036 1.000000 -0.392314
v -1.961571 1.000000 0.390181
v -1.961570 1.000000 -0.390181
v 0.390180 1.000000 1.961571
v -0.390181 1.000000 1.961571
v 1.961571 1.000000 -0.390181
v 1.961571 1.000000 0.390181
v -0.390181 1.000000 -1.961571
v 0.390180 1.000000 -1.961571
v -0.392314 0.000000 0.078036
v -0.392314 0.000000 -0.078036
v 0.078036 0.000000 0.392314
v -0.078036 0.000000 0.392314
v 0.392314 0.000000 -0.078036
v 0.392314 0.000000 0.078036
v -0.078036 0.000000 -0.392314
v 0.078036 0.000000 -0.392314
v -2.078674 2.000000 1.388925
v -1.388925 2.000000 2.078674
v -0.000000 1.500000 -2.250000
v -0.000000 2.250000 -2.250000
v 0.861038 1.500000 -2.078729
v 0.861038 2.250000 -2.078729
v 1.590990 1.500000 -1.590990
v 1.590990 2.250000 -1.590990
v 2.078729 1.500000 -0.861038
v 2.078729 2.250000 -0.861038
v 2.250000 1.500000 0.000000
v 2.250000 2.250000 0.000000
v 2.078729 1.500000 0.861038
v 2.078729 2.250000 0.861038
v 1.590990 1.500000 1.590990
v 1.590990 2.250000 1.590990
v 0.861038 1.500000 2.078729
v 0.861038 2.250000 2.078729
v 0.000000 1.500000 2.250000
v 0.000000 2.250000 2.250000
v -0.861037 1.500000 2.078729
v -0.861037 2.250000 2.078729
v -1.590990 1.500000 1.590991
v -1.590990 2.250000 1.590991
v -2.078729 1.500000 0.861038
v -2.078729 2.250000 0.861038
v -2.250000 1.500000 -0.000000
v -2.250000 2.250000 -0.000000
v -2.078729 1.500000 -0.861038
v -2.078729 2.250000 -0.861038
v -1.590990 1.500000 -1.590991
v -1.590990 2.250000 -1.590991
v -0.861037 1.500000 -2.078729
v -0.861037 2.250000 -2.078729
v 2.078674 2.000000 1.388926
v 1.388926 2.000000 2.078674
v 1.388925 2.000000 -2.078675
v 2.078674 2.000000 -1.388926
v -2.078675 2.000000 -1.388925
v -1.388927 2.000000 -2.078673
v -1.654410 3.500000 0.964661
v -0.964661 3.500000 1.654410
v 1.654410 3.500000 0.964662
v 0.964662 3.500000 1.654410
v 0.964661 3.500000 -1.654411
v 1.654410 3.500000 -0.964662
v -1.654411 3.500000 -0.964661
v -0.964663 3.500000 -1.654409
v -1.662939 0.500000 1.111140
v -1.111140 0.500000 1.662939
v 1.662939 0.500000 1.111141
v 1.111140 0.500000 1.662939
v 1.111140 0.500000 -1.662940
v 1.662939 0.500000 -1.111141
v -1.662940 0.500000 -1.111140
v -1.111142 0.500000 -1.662938
v -0.076537 0.500000 -0.184776
v 0.000000 0.500000 -0.200000
v -0.141421 0.500000 -0.141421
v -0.184776 0.500000 -0.076537
v -0.200000 0.500000 0.000000
v -0.184776 0.500000 0.076537
v -0.141421 0.500000 0.141421
v -0.076537 0.500000 0.184776
v -0.000000 0.500000 0.200000
v 0.076537 0.500000 0.184776
v 0.141421 0.500000 0.141421
v 0.184776 0.500000 0.076537
v 0.200000 0.500000 0.000000
v 0.184776 0.500000 -0.076537
v 0.141421 0.500000 -0.141421
v 0.076537 0.500000 -0.184776
v -0.076536 0.000000 -0.184776
v 0.000000 0.000000 -0.200000
v -0.141421 0.000000 -0.141421
v -0.184776 0.000000 -0.076537
v -0.200000 0.000000 0.000000
v -0.184776 0.000000 0.076537
v -0.141421 0.000000 0.141421
v -0.076536 0.000000 0.184776
v 0.000000 0.000000 0.200000
v 0.076537 0.000000 0.184776
v 0.141422 0.000000 0.141421
v 0.184776 0.000000 0.076537
v 0.200000 0.000000 0.000000
v 0.184776 0.000000 -0.076537
v 0.141422 0.000000 -0.141421
v 0.076537 0.000000 -0.184776
v -0.861038 6.250000 -2.078729
v -0.000000 6.250000 -2.250000
v -1.590990 6.250000 -1.590990
v -2.078729 6.250000 -0.861038
v -2.250000 6.250000 0.000000
v -2.078729 6.250000 0.861038
v -1.590990 6.250000 1.590990
v -0.861038 6.250000 2.078729
v -0.000000 6.250000 2.250000
v 0.861037 6.250000 2.078729
v 1.590990 6.250000 1.590991
v 2.078729 6.250000 0.861038
v 2.250000 6.250000 -0.000000
v 2.078728 6.250000 -0.861038
v 1.590990 6.250000 -1.590991
v 0.861037 6.250000 -2.078729
v -0.861038 6.500000 -2.078729
v -0.000000 6.500000 -2.250000
v -1.590990 6.500000 -1.590990
v -2.078729 6.500000 -0.861038
v -2.250000 6.500000 0.000000
v -2.078729 6.500000 0.861038
v -1.590990 6.500000 1.590990
v -0.861038 6.500000 2.078729
v -0.000000 6.500000 2.250000
v 0.861037 6.500000 2.078729
v 1.590990 6.500000 1.590991
v 2.078729 6.500000 0.861038
v 2.250000 6.500000 -0.000000
v 2.078728 6.500000 -0.861038
v 1.590990 6.500000 -1.590991
v 0.861037 6.500000 -2.078729
v -0.000000 6.500000 -1.750000
v -0.669696 6.500000 -1.616789
v -1.237437 6.500000 -1.237437
v -1.616789 6.500000 -0.669696
v -1.750000 6.500000 0.000000
v -1.616789 6.500000 0.669696
v -1.237437 6.500000 1.237437
v -0.669696 6.500000 1.616789
v -0.000000 6.500000 1.750000
v 0.669696 6.500000 1.616789
v 1.237437 6.500000 1.237437
v 1.616789 6.500000 0.669696
v 1.750000 6.500000 -0.000000
v 1.616789 6.500000 -0.669696
v 1.237437 6.500000 -1.237437
v 0.669695 6.500000 -1.616789
v -0.669696 6.250000 -1.616789
v -0.000000 6.250000 -1.750000
v -1.237437 6.250000 -1.237437
v -1.616789 6.250000 -0.669696
v -1.750000 6.250000 0.000000
v -1.616789 6.250000 0.669696
v -1.237437 6.250000 1.237437
v -0.669696 6.250000 1.616789
v -0.000000 6.250000 1.750000
v 0.669696 6.250000 1.616789
v 1.237437 6.250000 1.237437
v 1.616789 6.250000 0.669696
v 1.750000 6.250000 -0.000000
v 1.616789 6.250000 -0.669696
v 1.237437 6.250000 -1.237437
v 0.669695 6.250000 -1.616789
v -0.156250 6.250000 0.156250
v -0.156250 6.500000 0.156250
v -0.156250 6.250000 -0.156250
v -0.156250 6.500000 -0.156250
v 0.156250 6.250000 0.156250
v 0.156250 6.500000 0.156250
v 0.156250 6.250000 -0.156250
v 0.156250 6.500000 -0.156250
v -0.156250 6.250000 -0.843750
v -0.156250 6.500000 -0.843750
v -0.156250 6.250000 -1.156250
v -0.156250 6.500000 -1.156250
v 0.156250 6.250000 -0.843750
v 0.156250 6.500000 -0.843750
v 0.156250 6.250000 -1.156250
v 0.156250 6.500000 -1.156250
v -0.156250 6.250000 1.156250
v -0.156250 6.500000 1.156250
v -0.156250 6.250000 0.843750
v -0.156250 6.500000 0.843750
v 0.156250 6.250000 1.156250
v 0.156250 6.500000 1.156250
v 0.156250 6.250000 0.843750
v 0.156250 6.500000 0.843750
v 0.843750 6.250000 0.156250
v 0.843750 6.500000 0.156250
v 0.843750 6.250000 -0.156250
v 0.843750 6.500000 -0.156250
v 1.156250 6.250000 0.156250
v 1.156250 6.500000 0.156250
v 1.156250 6.250000 -0.156250
v 1.156250 6.500000 -0.156250
v -1.156250 6.250000 0.156250
v -1.156250 6.500000 0.156250
v -1.156250 6.250000 -0.156250
v -1.156250 6.500000 -0.156250
v -0.843750 6.250000 0.156250
v -0.843750 6.500000 0.156250
v -0.843750 6.250000 -0.156250
v -0.843750 6.500000 -0.156250
vn 0.000000 1.000000 0.000000
vn 0.880600 -0.440300 0.175200
vn 0.980800 0.000000 -0.195100
vn -0.831500 0.000000 0.555600
vn 0.831500 0.000000 -0.555600
vn -0.555600 0.000000 0.831500
vn 0.555600 0.000000 -0.831500
vn -0.195100 0.000000 0.980800
vn -0.195100 0.000000 -0.980800
vn 0.195100 0.000000 -0.980800
vn 0.195100 0.000000 0.980800
vn -0.555600 0.000000 -0.831500
vn 0.555600 0.000000 0.831500
vn -0.831500 0.000000 -0.555600
vn 0.831500 0.000000 0.555600
vn -0.980800 0.000000 -0.195100
vn 0.980800 0.000000 0.195100
vn -0.980800 0.000000 0.195100
vn -0.880600 -0.440300 0.175200
vn 0.880600 -0.440300 -0.175200
vn -0.746500 -0.440300 0.498800
vn 0.746500 -0.440300 -0.498800
vn -0.498800 -0.440300 0.746500
vn 0.498800 -0.440300 -0.746500
vn -0.175200 -0.440300 0.880600
vn -0.175200 -0.440300 -0.880600
vn 0.175200 -0.440300 -0.880600
vn 0.175200 -0.440300 0.880600
vn -0.498800 -0.440300 -0.746500
vn 0.498800 -0.440300 0.746500
vn -0.746500 -0.440300 -0.498800
vn 0.746500 -0.440300 0.498800
vn -0.880600 -0.440300 -0.175200
vn -0.298600 -0.843300 0.446800
vn 0.000000 -1.000000 0.000000
vn 0.298600 -0.843300 -0.446800
vn -0.104800 -0.843300 0.527100
vn -0.104800 -0.843300 -0.527100
vn 0.104800 -0.843300 -0.527100
vn 0.104800 -0.843300 0.527100
vn -0.298600 -0.843300 -0.446800
vn 0.298600 -0.843300 0.446800
vn -0.446800 -0.843300 -0.298600
vn 0.446800 -0.843300 0.298600
vn -0.527100 -0.843300 -0.104800
vn 0.527100 -0.843300 0.104800
vn -0.527100 -0.843300 0.104800
vn 0.527100 -0.843300 -0.104800
vn -0.446800 -0.843300 0.298600
vn 0.446800 -0.843300 -0.298600
vn 0.000000 0.843300 -0.537400
vn -0.000000 0.843300 0.537400
vn 0.537400 0.843300 0.000000
vn -0.537400 0.843300 0.000000
vn -0.000000 -0.843300 0.537400
vn 0.000000 -0.843300 -0.537400
vn -0.537400 -0.843300 0.000000
vn 0.537400 -0.843300 0.000000
vn 1.000000 0.000000 0.000000
vn -0.000000 0.000000 -1.000000
vn -1.000000 -0.000000 0.000000
vn 0.000000 0.000000 1.000000
vn 0.656500 0.371400 -0.656500
vn -0.656500 0.371400 -0.656500
vn -0.656500 0.371400 0.656500
vn 0.656500 0.371400 0.656500
vn -0.672100 -0.310700 -0.672100
vn -0.672100 -0.310700 0.672100
vn 0.672100 -0.310700 0.672100
vn 0.672100 -0.310700 -0.672100
vn -0.706600 -0.036500 0.706600
vn 0.706600 -0.036500 0.706600
vn 0.706600 -0.036500 -0.706600
vn -0.706600 -0.036500 -0.706600
vn -0.640900 -0.035600 0.766800
vn -0.640900 -0.035600 -0.766800
vn 0.766800 -0.035600 0.640900
vn -0.766800 -0.035600 0.640900
vn 0.640900 -0.035600 -0.766800
vn 0.640900 -0.035600 0.766800
vn -0.766800 -0.035600 -0.640900
vn 0.766800 -0.035600 -0.640900
s off
f 15//1 215//1 214//1
f 29//2 28//2 44//2
f 13//3 29//3 30//3
f 6//4 22//4 23//4
f 14//5 30//5 31//5
f 7//6 23//6 24//6
f 15//7 31//7 32//7
f 8//8 24//8 25//8
f 1//9 18//9 17//9
f 16//10 32//10 18//10
f 9//11 25//11 26//11
f 2//12 17//12 19//12
f 10//13 26//13 27//13
f 3//14 19//14 20//14
f 11//15 27//15 28//15
f 4//16 20//16 21//16
f 12//17 28//17 29//17
f 5//18 21//18 22//18
f 33//12 49//12 51//12
f 22//19 21//19 37//19
f 30//20 29//20 45//20
f 22//21 38//21 39//21
f 30//22 46//22 47//22
f 23//23 39//23 40//23
f 31//24 47//24 48//24
f 24//25 40//25 41//25
f 18//26 34//26 33//26
f 18//27 32//27 48//27
f 25//28 41//28 42//28
f 17//29 33//29 35//29
f 26//30 42//30 43//30
f 19//31 35//31 36//31
f 27//32 43//32 44//32
f 20//33 36//33 37//33
f 55//34 71//34 72//34
f 42//13 58//13 59//13
f 35//14 51//14 52//14
f 43//15 59//15 60//15
f 36//16 52//16 53//16
f 44//17 60//17 61//17
f 37//18 53//18 54//18
f 46//3 45//3 61//3
f 38//4 54//4 55//4
f 46//5 62//5 63//5
f 39//6 55//6 56//6
f 47//7 63//7 64//7
f 40//8 56//8 57//8
f 34//9 50//9 49//9
f 48//10 64//10 50//10
f 41//11 57//11 58//11
f 73//35 177//35 178//35
f 64//36 63//36 79//36
f 56//37 72//37 73//37
f 50//38 66//38 65//38
f 64//39 80//39 66//39
f 58//40 57//40 73//40
f 49//41 65//41 67//41
f 59//42 58//42 74//42
f 51//43 67//43 68//43
f 60//44 59//44 75//44
f 52//45 68//45 69//45
f 60//46 76//46 77//46
f 53//47 69//47 70//47
f 62//48 61//48 77//48
f 54//49 70//49 71//49
f 62//50 78//50 79//50
f 93//51 92//51 84//51
f 89//52 96//52 88//52
f 91//53 90//53 82//53
f 95//54 94//54 86//54
f 100//55 108//55 107//55
f 104//56 112//56 111//56
f 98//57 106//57 105//57
f 102//58 110//58 109//58
f 96//17 112//17 104//17
f 86//59 102//59 101//59
f 93//3 85//3 99//3
f 88//60 104//60 103//60
f 89//18 81//18 103//18
f 91//59 105//59 106//59
f 90//10 106//10 98//10
f 93//60 107//60 108//60
f 94//8 110//8 102//8
f 94//61 95//61 109//61
f 91//11 83//11 97//11
f 89//62 111//62 112//62
f 82//61 98//61 97//61
f 95//9 87//9 101//9
f 92//16 108//16 100//16
f 84//62 100//62 99//62
f 116//10 118//10 117//10
f 118//7 120//7 119//7
f 120//5 122//5 121//5
f 122//3 124//3 123//3
f 124//17 126//17 125//17
f 126//15 128//15 127//15
f 128//13 130//13 129//13
f 130//11 132//11 131//11
f 132//8 134//8 133//8
f 134//6 136//6 135//6
f 136//4 138//4 137//4
f 138//18 140//18 139//18
f 140//16 142//16 141//16
f 142//14 144//14 143//14
f 136//1 128//1 120//1
f 146//9 116//9 115//9
f 144//12 146//12 145//12
f 129//35 137//35 121//35
f 150//63 149//63 157//63
f 152//64 151//64 159//64
f 153//65 113//65 114//65
f 148//66 147//66 155//66
f 168//67 167//67 151//67
f 161//68 162//68 114//68
f 164//69 163//69 147//69
f 166//70 165//70 149//70
f 157//71 165//71 166//71
f 159//72 167//72 168//72
f 153//73 154//73 162//73
f 155//74 163//74 164//74
f 151//75 167//75 159//75
f 113//76 153//76 161//76
f 114//77 162//77 154//77
f 148//78 156//78 164//78
f 147//79 163//79 155//79
f 150//80 158//80 166//80
f 149//81 165//81 157//81
f 152//82 160//82 168//82
f 176//8 192//8 193//8
f 65//35 169//35 171//35
f 74//35 178//35 179//35
f 67//35 171//35 172//35
f 75//35 179//35 180//35
f 68//35 172//35 173//35
f 76//35 180//35 181//35
f 69//35 173//35 174//35
f 78//35 77//35 181//35
f 70//35 174//35 175//35
f 79//35 78//35 182//35
f 72//35 71//35 175//35
f 80//35 79//35 183//35
f 72//35 176//35 177//35
f 65//35 66//35 170//35
f 80//35 184//35 170//35
f 195//35 189//35 187//35
f 170//9 186//9 185//9
f 184//10 200//10 186//10
f 177//11 193//11 194//11
f 169//12 185//12 187//12
f 178//13 194//13 195//13
f 171//14 187//14 188//14
f 180//15 179//15 195//15
f 172//16 188//16 189//16
f 180//17 196//17 197//17
f 174//18 173//18 189//18
f 181//3 197//3 198//3
f 174//4 190//4 191//4
f 182//5 198//5 199//5
f 175//6 191//6 192//6
f 183//7 199//7 200//7
f 215//5 231//5 230//5
f 7//1 8//1 208//1
f 15//1 16//1 216//1
f 9//1 209//1 208//1
f 1//1 2//1 201//1
f 1//1 202//1 216//1
f 9//1 10//1 210//1
f 3//1 203//1 201//1
f 11//1 211//1 210//1
f 4//1 204//1 203//1
f 12//1 212//1 211//1
f 4//1 5//1 205//1
f 13//1 213//1 212//1
f 6//1 206//1 205//1
f 14//1 214//1 213//1
f 7//1 207//1 206//1
f 208//6 224//6 223//6
f 216//7 232//7 231//7
f 209//8 225//8 224//8
f 201//9 217//9 218//9
f 202//10 218//10 232//10
f 210//11 226//11 225//11
f 203//12 219//12 217//12
f 211//13 227//13 226//13
f 204//14 220//14 219//14
f 212//15 228//15 227//15
f 205//16 221//16 220//16
f 213//17 229//17 228//17
f 206//18 222//18 221//18
f 214//3 230//3 229//3
f 207//4 223//4 222//4
f 231//1 232//1 248//1
f 218//1 233//1 248//1
f 218//1 217//1 234//1
f 219//1 235//1 234//1
f 220//1 236//1 235//1
f 220//1 221//1 237//1
f 222//1 238//1 237//1
f 222//1 223//1 239//1
f 224//1 240//1 239//1
f 225//1 241//1 240//1
f 225//1 226//1 242//1
f 226//1 227//1 243//1
f 227//1 228//1 244//1
f 228//1 229//1 245//1
f 230//1 246//1 245//1
f 231//1 247//1 246//1
f 242//9 258//9 257//9
f 257//1 263//1 250//1
f 235//13 251//13 249//13
f 243//12 259//12 258//12
f 236//15 252//15 251//15
f 244//14 260//14 259//14
f 237//17 253//17 252//17
f 245//16 261//16 260//16
f 238//3 254//3 253//3
f 246//18 262//18 261//18
f 239//5 255//5 254//5
f 247//4 263//4 262//4
f 240//7 256//7 255//7
f 248//6 264//6 263//6
f 241//10 257//10 256//10
f 234//11 249//11 250//11
f 233//8 250//8 264//8
f 268//61 267//61 265//61
f 272//60 271//60 267//60
f 270//59 269//59 271//59
f 266//62 265//62 269//62
f 276//61 275//61 273//61
f 272//1 268//1 266//1
f 280//60 279//60 275//60
f 278//59 277//59 279//59
f 274//62 273//62 277//62
f 280//1 276//1 274//1
f 284//61 283//61 281//61
f 288//60 287//60 283//60
f 286//59 285//59 287//59
f 282//62 281//62 285//62
f 288//1 284//1 282//1
f 292//61 291//61 289//61
f 296//60 295//60 291//60
f 294//59 293//59 295//59
f 290//62 289//62 293//62
f 296//1 292//1 290//1
f 300//61 299//61 297//61
f 304//60 303//60 299//60
f 302//59 301//59 303//59
f 298//62 297//62 301//62
f 304//1 300//1 298//1
f 14//1 15//1 214//1
f 45//2 29//2 44//2
f 14//3 13//3 30//3
f 7//4 6//4 23//4
f 15//5 14//5 31//5
f 8//6 7//6 24//6
f 16//7 15//7 32//7
f 9//8 8//8 25//8
f 2//9 1//9 17//9
f 1//10 16//10 18//10
f 10//11 9//11 26//11
f 3//12 2//12 19//12
f 11//13 10//13 27//13
f 4//14 3//14 20//14
f 12//15 11//15 28//15
f 5//16 4//16 21//16
f 13//17 12//17 29//17
f 6//18 5//18 22//18
f 35//12 33//12 51//12
f 38//19 22//19 37//19
f 46//20 30//20 45//20
f 23//21 22//21 39//21
f 31//22 30//22 47//22
f 24//23 23//23 40//23
f 32//24 31//24 48//24
f 25//25 24//25 41//25
f 17//26 18//26 33//26
f 34//27 18//27 48//27
f 26//28 25//28 42//28
f 19//29 17//29 35//29
f 27//30 26//30 43//30
f 20//31 19//31 36//31
f 28//32 27//32 44//32
f 21//33 20//33 37//33
f 56//34 55//34 72//34
f 43//13 42//13 59//13
f 36//14 35//14 52//14
f 44//15 43//15 60//15
f 37//16 36//16 53//16
f 45//17 44//17 61//17
f 38//18 37//18 54//18
f 62//3 46//3 61//3
f 39//4 38//4 55//4
f 47//5 46//5 63//5
f 40//6 39//6 56//6
f 48//7 47//7 64//7
f 41//8 40//8 57//8
f 33//9 34//9 49//9
f 34//10 48//10 50//10
f 42//11 41//11 58//11
f 74//35 73//35 178//35
f 80//36 64//36 79//36
f 57//37 56//37 73//37
f 49//38 50//38 65//38
f 50//39 64//39 66//39
f 74//40 58//40 73//40
f 51//41 49//41 67//41
f 75//42 59//42 74//42
f 52//43 51//43 68//43
f 76//44 60//44 75//44
f 53//45 52//45 69//45
f 61//46 60//46 77//46
f 54//47 53//47 70//47
f 78//48 62//48 77//48
f 55//49 54//49 71//49
f 63//50 62//50 79//50
f 85//51 93//51 84//51
f 81//52 89//52 88//52
f 83//53 91//53 82//53
f 87//54 95//54 86//54
f 99//55 100//55 107//55
f 103//56 104//56 111//56
f 97//57 98//57 105//57
f 101//58 102//58 109//58
f 88//17 96//17 104//17
f 87//59 86//59 101//59
f 107//3 93//3 99//3
f 81//60 88//60 103//60
f 111//18 89//18 103//18
f 90//59 91//59 106//59
f 82//10 90//10 98//10
f 92//60 93//60 108//60
f 86//8 94//8 102//8
f 110//61 94//61 109//61
f 105//11 91//11 97//11
f 96//62 89//62 112//62
f 83//61 82//61 97//61
f 109//9 95//9 101//9
f 84//16 92//16 100//16
f 85//62 84//62 99//62
f 115//10 116//10 117//10
f 117//7 118//7 119//7
f 119//5 120//5 121//5
f 121//3 122//3 123//3
f 123//17 124//17 125//17
f 125//15 126//15 127//15
f 127//13 128//13 129//13
f 129//11 130//11 131//11
f 131//8 132//8 133//8
f 133//6 134//6 135//6
f 135//4 136//4 137//4
f 137//18 138//18 139//18
f 139//16 140//16 141//16
f 141//14 142//14 143//14
f 120//1 118//1 116//1
f 116//1 146//1 120//1
f 144//1 142//1 140//1
f 140//1 138//1 136//1
f 136//1 134//1 128//1
f 132//1 130//1 128//1
f 128//1 126//1 124//1
f 124//1 122//1 120//1
f 120//1 146//1 144//1
f 144//1 140//1 120//1
f 134//1 132//1 128//1
f 128//1 124//1 120//1
f 120//1 140//1 136//1
f 145//9 146//9 115//9
f 143//12 144//12 145//12
f 145//35 115//35 117//35
f 117//35 119//35 121//35
f 121//35 123//35 125//35
f 125//35 127//35 121//35
f 129//35 131//35 133//35
f 133//35 135//35 137//35
f 137//35 139//35 141//35
f 141//35 143//35 145//35
f 145//35 117//35 121//35
f 121//35 127//35 129//35
f 129//35 133//35 137//35
f 137//35 141//35 145//35
f 145//35 121//35 137//35
f 158//63 150//63 157//63
f 160//64 152//64 159//64
f 154//65 153//65 114//65
f 156//66 148//66 155//66
f 152//67 168//67 151//67
f 113//68 161//68 114//68
f 148//69 164//69 147//69
f 150//70 166//70 149//70
f 158//71 157//71 166//71
f 160//72 159//72 168//72
f 161//73 153//73 162//73
f 156//74 155//74 164//74
f 177//8 176//8 193//8
f 67//35 65//35 171//35
f 75//35 74//35 179//35
f 68//35 67//35 172//35
f 76//35 75//35 180//35
f 69//35 68//35 173//35
f 77//35 76//35 181//35
f 70//35 69//35 174//35
f 182//35 78//35 181//35
f 71//35 70//35 175//35
f 183//35 79//35 182//35
f 176//35 72//35 175//35
f 184//35 80//35 183//35
f 73//35 72//35 177//35
f 169//35 65//35 170//35
f 66//35 80//35 170//35
f 187//35 185//35 186//35
f 186//35 200//35 199//35
f 199//35 198//35 195//35
f 197//35 196//35 195//35
f 195//35 194//35 193//35
f 193//35 192//35 195//35
f 191//35 190//35 189//35
f 189//35 188//35 187//35
f 187//35 186//35 195//35
f 198//35 197//35 195//35
f 195//35 192//35 191//35
f 191//35 189//35 195//35
f 186//35 199//35 195//35
f 169//9 170//9 185//9
f 170//10 184//10 186//10
f 178//11 177//11 194//11
f 171//12 169//12 187//12
f 179//13 178//13 195//13
f 172//14 171//14 188//14
f 196//15 180//15 195//15
f 173//16 172//16 189//16
f 181//17 180//17 197//17
f 190//18 174//18 189//18
f 182//3 181//3 198//3
f 175//4 174//4 191//4
f 183//5 182//5 199//5
f 176//6 175//6 192//6
f 184//7 183//7 200//7
f 214//5 215//5 230//5
f 207//1 7//1 208//1
f 215//1 15//1 216//1
f 8//1 9//1 208//1
f 202//1 1//1 201//1
f 16//1 1//1 216//1
f 209//1 9//1 210//1
f 2//1 3//1 201//1
f 10//1 11//1 210//1
f 3//1 4//1 203//1
f 11//1 12//1 211//1
f 204//1 4//1 205//1
f 12//1 13//1 212//1
f 5//1 6//1 205//1
f 13//1 14//1 213//1
f 6//1 7//1 206//1
f 207//6 208//6 223//6
f 215//7 216//7 231//7
f 208//8 209//8 224//8
f 202//9 201//9 218//9
f 216//10 202//10 232//10
f 209//11 210//11 225//11
f 201//12 203//12 217//12
f 210//13 211//13 226//13
f 203//14 204//14 219//14
f 211//15 212//15 227//15
f 204//16 205//16 220//16
f 212//17 213//17 228//17
f 205//18 206//18 221//18
f 213//3 214//3 229//3
f 206//4 207//4 222//4
f 247//1 231//1 248//1
f 232//1 218//1 248//1
f 233//1 218//1 234//1
f 217//1 219//1 234//1
f 219//1 220//1 235//1
f 236//1 220//1 237//1
f 221//1 222//1 237//1
f 238//1 222//1 239//1
f 223//1 224//1 239//1
f 224//1 225//1 240//1
f 241//1 225//1 242//1
f 242//1 226//1 243//1
f 243//1 227//1 244//1
f 244//1 228//1 245//1
f 229//1 230//1 245//1
f 230//1 231//1 246//1
f 241//9 242//9 257//9
f 250//1 249//1 251//1
f 251//1 252//1 253//1
f 253//1 254//1 257//1
f 255//1 256//1 257//1
f 257//1 258//1 259//1
f 259//1 260//1 261//1
f 261//1 262//1 259//1
f 263//1 264//1 250//1
f 250//1 251//1 257//1
f 254//1 255//1 257//1
f 257//1 259//1 262//1
f 262//1 263//1 257//1
f 251//1 253//1 257//1
f 234//13 235//13 249//13
f 242//12 243//12 258//12
f 235//15 236//15 251//15
f 243//14 244//14 259//14
f 236//17 237//17 252//17
f 244//16 245//16 260//16
f 237//3 238//3 253//3
f 245//18 246//18 261//18
f 238//5 239//5 254//5
f 246//4 247//4 262//4
f 239//7 240//7 255//7
f 247//6 248//6 263//6
f 240//10 241//10 256//10
f 233//11 234//11 250//11
f 248//8 233//8 264//8
f 266//61 268//61 265//61
f 268//60 272//60 267//60
f 272//59 270//59 271//59
f 270//62 266//62 269//62
f 274//61 276//61 273//61
f 270//1 272//1 266//1
f 276//60 280//60 275//60
f 280//59 278//59 279//59
f 278//62 274//62 277//62
f 278//1 280//1 274//1
f 282//61 284//61 281//61
f 284//60 288//60 283//60
f 288//59 286//59 287//59
f 286//62 282//62 285//62
f 286//1 288//1 282//1
f 290//61 292//61 289//61
f 292//60 296//60 291//60
f 296//59 294//59 295//59
f 294//62 290//62 293//62
f 294//1 296//1 290//1
f 298//61 300//61 297//61
f 300//60 304//60 299//60
f 304//59 302//59 303//59
f 302//62 298//62 301//62
f 302//1 304//1 298//1
