# Blender v2.76 (sub 0) OBJ File: 'bombletSelena.blend'
# www.blender.org
o Cylinder
v -0.000000 -0.250000 -0.090313
v -0.000000 0.250000 -0.031250
v 0.063861 -0.250000 -0.063861
v 0.022097 0.250000 -0.022097
v 0.090312 -0.250000 0.000000
v 0.031250 0.250000 0.000000
v 0.063861 -0.250000 0.063861
v 0.022097 0.250000 0.022097
v -0.000000 -0.250000 0.090313
v -0.000000 0.250000 0.031250
v -0.063861 -0.250000 0.063861
v -0.022097 0.250000 0.022097
v -0.090313 -0.250000 -0.000000
v -0.031250 0.250000 -0.000000
v -0.063861 -0.250000 -0.063861
v -0.022097 0.250000 -0.022097
v -0.000000 0.125000 -0.125000
v 0.088388 0.125000 -0.088388
v 0.125000 0.125000 0.000000
v 0.088388 0.125000 0.088388
v -0.000000 0.125000 0.125000
v -0.088388 0.125000 0.088388
v -0.125000 0.125000 -0.000000
v -0.088388 0.125000 -0.088388
v -0.000000 0.190000 -0.093750
v 0.066291 0.190000 -0.066291
v 0.093750 0.190000 0.000000
v 0.066291 0.190000 0.066291
v -0.000000 0.190000 0.093750
v -0.066291 0.190000 0.066291
v -0.093750 0.190000 -0.000000
v -0.066291 0.190000 -0.066291
v 0.088388 -0.050000 -0.088388
v 0.125000 -0.050000 0.000000
v 0.088388 -0.050000 0.088388
v -0.000000 -0.050000 0.125000
v -0.088388 -0.050000 0.088388
v -0.125000 -0.050000 -0.000000
v -0.088388 -0.050000 -0.088388
v -0.000000 -0.050000 -0.125000
v 0.063861 -0.125000 -0.063861
v 0.090312 -0.125000 0.000000
v 0.063861 -0.125000 0.063861
v -0.000000 -0.125000 0.090313
v -0.063861 -0.125000 0.063861
v -0.090313 -0.125000 -0.000000
v -0.063861 -0.125000 -0.063861
v -0.000000 -0.125000 -0.090313
v 0.095791 -0.275000 -0.095791
v -0.095791 -0.275000 0.095791
v 0.095791 -0.125000 -0.095791
v -0.095791 -0.125000 0.095791
v 0.063861 -0.100000 -0.063861
v -0.063861 -0.100000 0.063861
v 0.000000 -0.275000 -0.135469
v -0.000000 -0.275000 0.135469
v 0.000000 -0.125000 -0.135469
v -0.000000 -0.125000 0.135469
v 0.000000 -0.100000 -0.090313
v -0.000000 -0.100000 0.090313
v -0.095791 -0.275000 -0.095791
v 0.095791 -0.275000 0.095791
v -0.095791 -0.125000 -0.095791
v 0.095791 -0.125000 0.095791
v -0.063861 -0.100000 -0.063861
v 0.063861 -0.100000 0.063861
v -0.135469 -0.275000 0.000000
v 0.135469 -0.275000 -0.000000
v -0.135469 -0.125000 0.000000
v 0.135469 -0.125000 -0.000000
v -0.090312 -0.100000 0.000000
v 0.090313 -0.100000 -0.000000
vt 0.200305 0.646222
vt 0.172274 0.646222
vt 0.144244 0.548632
vt 0.088183 0.646222
vt 0.060153 0.646222
vt 0.032122 0.548631
vt 0.873037 0.646223
vt 0.845006 0.646223
vt 0.816976 0.548632
vt 0.788945 0.548632
vt 0.760915 0.646223
vt 0.732884 0.646223
vt 0.648793 0.646223
vt 0.620762 0.646223
vt 0.592732 0.548632
vt 0.536671 0.646223
vt 0.508640 0.646223
vt 0.480610 0.548632
vt 0.037928 0.914221
vt 0.065958 0.914221
vt 0.085779 0.962072
vt 0.340457 0.548632
vt 0.312427 0.646222
vt 0.284396 0.646222
vt 0.424549 0.646223
vt 0.396518 0.646222
vt 0.368488 0.548632
vt 0.018107 0.820726
vt 0.156396 0.682437
vt 0.213678 0.739718
vt 0.466595 0.465278
vt 0.354473 0.465278
vt 0.354473 0.260186
vt 0.242351 0.465278
vt 0.242351 0.260186
vt 0.578717 0.465278
vt 0.466595 0.260186
vt 0.690839 0.465278
vt 0.578717 0.260186
vt 0.802961 0.465278
vt 0.690839 0.260186
vt 0.915082 0.465278
vt 0.802961 0.260186
vt 0.130229 0.465278
vt 0.018107 0.465278
vt 0.018107 0.260186
vt 0.130229 0.260186
vt 0.452579 0.548632
vt 0.256366 0.548632
vt 0.564701 0.548632
vt 0.676823 0.548632
vt 0.704854 0.548632
vt 0.901067 0.548632
vt 0.116214 0.548632
vt 0.228336 0.548632
vt 0.145786 0.164601
vt 0.033664 0.164601
vt 0.899526 0.164602
vt 0.915082 0.260186
vt 0.787404 0.164602
vt 0.675282 0.164602
vt 0.482152 0.164602
vt 0.257908 0.164602
vt 0.451038 0.164602
vt 0.370030 0.164602
vt 0.370030 0.018107
vt 0.338916 0.164602
vt 0.257908 0.018107
vt 0.563160 0.164602
vt 0.482152 0.018107
vt 0.594274 0.164602
vt 0.594274 0.018107
vt 0.706396 0.164602
vt 0.706396 0.018108
vt 0.818517 0.164602
vt 0.818518 0.018108
vt 0.114672 0.164601
vt 0.033664 0.018107
vt 0.226794 0.164602
vt 0.145786 0.018107
vt 0.695639 0.858230
vt 0.695639 0.682437
vt 0.748560 0.711736
vt 0.249892 0.858230
vt 0.249978 0.682437
vt 0.302884 0.711761
vt 0.339098 0.711735
vt 0.392020 0.682437
vt 0.392020 0.858230
vt 0.873909 0.858230
vt 0.873909 0.682437
vt 0.926830 0.711736
vt 0.659425 0.858230
vt 0.606504 0.858230
vt 0.659425 0.711736
vt 0.481155 0.858230
vt 0.428234 0.887529
vt 0.428234 0.858230
vt 0.517369 0.858230
vt 0.517369 0.682437
vt 0.570290 0.711736
vt 0.784774 0.858230
vt 0.784774 0.682437
vt 0.837695 0.711735
vt 0.065958 0.981893
vt 0.037928 0.981893
vt 0.018107 0.962072
vt 0.018107 0.934042
vt 0.085779 0.934042
vt 0.213678 0.820726
vt 0.156396 0.878008
vt 0.075388 0.878008
vt 0.018107 0.739718
vt 0.075388 0.682437
vt 0.451038 0.018107
vt 0.338916 0.018107
vt 0.563160 0.018107
vt 0.675282 0.018107
vt 0.787404 0.018108
vt 0.899526 0.018108
vt 0.114672 0.018107
vt 0.226794 0.018107
vt 0.748560 0.858230
vt 0.748560 0.887529
vt 0.302813 0.858256
vt 0.302799 0.887554
vt 0.339098 0.887529
vt 0.339098 0.858230
vt 0.926830 0.858230
vt 0.926830 0.887529
vt 0.659425 0.887529
vt 0.606504 0.682437
vt 0.428234 0.711736
vt 0.481155 0.682437
vt 0.570290 0.858230
vt 0.570290 0.887529
vt 0.837695 0.858230
vt 0.837695 0.887529
vn 0.275700 0.693400 -0.665700
vn 0.665700 0.693400 -0.275700
vn 0.665700 0.693400 0.275700
vn 0.275700 0.693400 0.665700
vn -0.275700 0.693400 0.665700
vn -0.665700 0.693400 0.275700
vn 0.000000 1.000000 -0.000000
vn -0.275700 0.693400 -0.665700
vn -0.665700 0.693400 -0.275700
vn 0.000000 -1.000000 0.000000
vn -0.923900 0.000000 -0.382700
vn -0.382700 0.000000 -0.923900
vn -0.923900 0.000000 0.382700
vn -0.382700 0.000000 0.923900
vn 0.382700 0.000000 0.923900
vn 0.923900 0.000000 0.382700
vn 0.923900 0.000000 -0.382700
vn 0.382700 0.000000 -0.923900
vn -0.844300 0.405900 -0.349700
vn -0.349700 0.405900 -0.844300
vn -0.844300 0.405900 0.349700
vn -0.349700 0.405900 0.844300
vn 0.349700 0.405900 0.844300
vn 0.844300 0.405900 0.349700
vn 0.844300 0.405900 -0.349700
vn 0.349700 0.405900 -0.844300
vn 0.351900 -0.392900 -0.849600
vn 0.849600 -0.392900 -0.351900
vn 0.849600 -0.392900 0.351900
vn 0.351900 -0.392900 0.849600
vn -0.351900 -0.392900 0.849600
vn -0.849600 -0.392900 0.351900
vn -0.351900 -0.392900 -0.849600
vn -0.849600 -0.392900 -0.351900
vn -0.707100 0.000000 -0.707100
vn 0.707100 0.000000 0.707100
vn 0.707100 0.000000 -0.707100
vn 1.000000 0.000000 -0.000000
vn 0.000000 0.000000 1.000000
vn -0.000000 0.000000 -1.000000
s off
f 2/1/1 4/2/1 26/3/1
f 4/4/2 6/5/2 27/6/2
f 6/7/3 8/8/3 28/9/3
f 28/10/4 8/11/4 10/12/4
f 10/13/5 12/14/5 30/15/5
f 12/16/6 14/17/6 31/18/6
f 12/19/7 10/20/7 6/21/7
f 32/22/8 16/23/8 2/24/8
f 14/25/9 16/26/9 32/27/9
f 7/28/10 13/29/10 15/30/10
f 23/31/11 24/32/11 39/33/11
f 24/32/12 17/34/12 40/35/12
f 22/36/13 23/31/13 38/37/13
f 21/38/14 22/36/14 37/39/14
f 20/40/15 21/38/15 36/41/15
f 19/42/16 20/40/16 35/43/16
f 18/44/17 19/45/17 34/46/17
f 17/34/18 18/44/18 33/47/18
f 31/48/19 32/27/19 24/32/19
f 32/22/20 25/49/20 17/34/20
f 22/36/21 30/50/21 31/18/21
f 21/38/22 29/51/22 30/15/22
f 28/10/23 29/52/23 21/38/23
f 27/53/24 28/9/24 20/40/24
f 26/54/25 27/6/25 19/45/25
f 17/34/26 25/55/26 26/3/26
f 40/35/27 33/47/27 41/56/27
f 33/47/28 34/46/28 42/57/28
f 42/58/29 34/59/29 35/43/29
f 43/60/30 35/43/30 36/41/30
f 44/61/31 36/41/31 37/39/31
f 37/39/32 38/37/32 46/62/32
f 39/33/33 40/35/33 48/63/33
f 46/64/34 38/37/34 39/33/34
f 46/64/11 47/65/11 15/66/11
f 47/67/12 48/63/12 1/68/12
f 45/69/13 46/62/13 13/70/13
f 44/61/14 45/71/14 11/72/14
f 43/60/15 44/73/15 9/74/15
f 42/58/16 43/75/16 7/76/16
f 41/77/17 42/57/17 5/78/17
f 48/79/18 41/56/18 3/80/18
f 51/81/35 49/82/35 3/83/35
f 52/84/36 50/85/36 11/86/36
f 15/87/37 61/88/37 63/89/37
f 58/90/38 56/91/38 9/92/38
f 46/93/39 69/94/39 13/95/39
f 57/96/38 59/97/38 48/98/38
f 70/99/40 68/100/40 5/101/40
f 64/102/37 62/103/37 7/104/37
f 25/55/1 2/1/1 26/3/1
f 26/54/2 4/4/2 27/6/2
f 27/53/3 6/7/3 28/9/3
f 29/52/4 28/10/4 10/12/4
f 29/51/5 10/13/5 30/15/5
f 30/50/6 12/16/6 31/18/6
f 6/21/7 4/105/7 2/106/7
f 2/106/7 16/107/7 6/21/7
f 14/108/7 12/19/7 6/21/7
f 10/20/7 8/109/7 6/21/7
f 6/21/7 16/107/7 14/108/7
f 25/49/8 32/22/8 2/24/8
f 31/48/9 14/25/9 32/27/9
f 15/30/10 1/110/10 7/28/10
f 3/111/10 5/112/10 7/28/10
f 7/28/10 9/113/10 11/114/10
f 11/114/10 13/29/10 7/28/10
f 1/110/10 3/111/10 7/28/10
f 38/37/11 23/31/11 39/33/11
f 39/33/12 24/32/12 40/35/12
f 37/39/13 22/36/13 38/37/13
f 36/41/14 21/38/14 37/39/14
f 35/43/15 20/40/15 36/41/15
f 34/59/16 19/42/16 35/43/16
f 33/47/17 18/44/17 34/46/17
f 40/35/18 17/34/18 33/47/18
f 23/31/19 31/48/19 24/32/19
f 24/32/20 32/22/20 17/34/20
f 23/31/21 22/36/21 31/18/21
f 22/36/22 21/38/22 30/15/22
f 20/40/23 28/10/23 21/38/23
f 19/42/24 27/53/24 20/40/24
f 18/44/25 26/54/25 19/45/25
f 18/44/26 17/34/26 26/3/26
f 48/79/27 40/35/27 41/56/27
f 41/77/28 33/47/28 42/57/28
f 43/75/29 42/58/29 35/43/29
f 44/73/30 43/60/30 36/41/30
f 45/71/31 44/61/31 37/39/31
f 45/69/32 37/39/32 46/62/32
f 47/67/33 39/33/33 48/63/33
f 47/65/34 46/64/34 39/33/34
f 13/115/11 46/64/11 15/66/11
f 15/116/12 47/67/12 1/68/12
f 11/117/13 45/69/13 13/70/13
f 9/118/14 44/61/14 11/72/14
f 7/119/15 43/60/15 9/74/15
f 5/120/16 42/58/16 7/76/16
f 3/121/17 41/77/17 5/78/17
f 1/122/18 48/79/18 3/80/18
f 3/83/35 41/123/35 51/81/35
f 53/124/35 51/81/35 41/123/35
f 11/86/36 45/125/36 52/84/36
f 54/126/36 52/84/36 45/125/36
f 63/89/37 65/127/37 47/128/37
f 47/128/37 15/87/37 63/89/37
f 9/92/38 44/129/38 58/90/38
f 60/130/38 58/90/38 44/129/38
f 46/93/39 71/131/39 69/94/39
f 67/132/39 13/95/39 69/94/39
f 48/98/38 1/133/38 57/96/38
f 55/134/38 57/96/38 1/133/38
f 5/101/40 42/135/40 70/99/40
f 72/136/40 70/99/40 42/135/40
f 7/104/37 43/137/37 64/102/37
f 66/138/37 64/102/37 43/137/37
