# Blender v2.76 (sub 0) OBJ File: 'cel_prime_tower.blend'
# www.blender.org
o Cube_Cube.001
v 1.500000 0.000000 1.500000
v 1.500000 5.000000 1.500000
v 1.500000 0.000000 -1.500000
v 1.500000 5.000000 -1.500000
v -1.500000 0.000000 1.500000
v -1.500000 5.000000 1.500000
v -1.500000 0.000000 -1.500000
v -1.500000 5.000000 -1.500000
v 1.500000 4.750000 1.350000
v 1.500000 0.250000 1.350000
v 1.500000 0.250000 -1.350000
v 1.500000 4.750000 -1.350000
v 1.350000 4.750000 -1.500000
v 1.350000 0.250000 -1.500000
v -1.350000 0.250000 -1.500000
v -1.350000 4.750000 -1.500000
v -1.500000 4.750000 -1.350000
v -1.500000 0.250000 -1.350000
v -1.500000 0.250000 1.350000
v -1.500000 4.750000 1.350000
v -1.350000 4.750000 1.500000
v -1.350000 0.250000 1.500000
v 1.350000 0.250000 1.500000
v 1.350000 4.750000 1.500000
v 1.350000 4.750000 1.350000
v 1.350000 0.250000 1.350000
v 1.350000 0.250000 -1.350000
v 1.350000 4.750000 -1.350000
v 1.350000 4.750000 -1.350000
v 1.350000 0.250000 -1.350000
v -1.350000 0.250000 -1.350000
v -1.350000 4.750000 -1.350000
v -1.350000 4.750000 -1.350000
v -1.350000 0.250000 -1.350000
v -1.350000 0.250000 1.350000
v -1.350000 4.750000 1.350000
v -1.350000 4.750000 1.350000
v -1.350000 0.250000 1.350000
v 1.350000 0.250000 1.350000
v 1.350000 4.750000 1.350000
v -1.000000 7.000000 1.000000
v 1.000000 7.000000 1.000000
v -1.000000 7.000000 -1.000000
v 1.000000 7.000000 -1.000000
v 0.265165 8.000000 -0.265165
v -0.000000 8.000000 -0.375000
v 0.000000 8.000000 -0.500000
v 0.000000 12.000000 -0.500000
v 0.353553 8.000000 -0.353553
v 0.353553 12.000000 -0.353553
v 0.500000 8.000000 0.000000
v 0.500000 12.000000 0.000000
v 0.353553 8.000000 0.353553
v 0.353553 12.000000 0.353553
v -0.000000 8.000000 0.500000
v -0.000000 12.000000 0.500000
v -0.353553 8.000000 0.353553
v -0.353553 12.000000 0.353553
v -0.500000 8.000000 -0.000000
v -0.500000 12.000000 -0.000000
v -0.353553 8.000000 -0.353553
v -0.353553 12.000000 -0.353553
v 0.265165 12.000000 -0.265165
v -0.000000 12.000000 -0.375000
v 0.375000 8.000000 0.000000
v 0.375000 12.000000 0.000000
v 0.265165 8.000000 0.265165
v 0.265165 12.000000 0.265165
v -0.000000 8.000000 0.375000
v -0.000000 12.000000 0.375000
v -0.265165 8.000000 0.265165
v -0.265165 12.000000 0.265165
v -0.375000 8.000000 -0.000000
v -0.375000 12.000000 -0.000000
v -0.265165 8.000000 -0.265165
v -0.265165 12.000000 -0.265165
v -0.500000 7.000000 -0.500000
v -0.500000 10.000000 -0.500000
v -0.500000 7.000000 -1.000000
v -0.500000 10.500000 -1.000000
v 0.500000 7.000000 -0.500000
v 0.500000 10.000000 -0.500000
v 0.500000 7.000000 -1.000000
v 0.500000 10.500000 -1.000000
v -0.500000 10.353554 -0.146447
v -0.500000 10.853554 -0.646447
v 0.500000 10.853554 -0.646447
v 0.500000 10.353554 -0.146447
vn 0.000000 -1.000000 0.000000
vn 1.000000 0.000000 0.000000
vn 0.000000 0.000000 -1.000000
vn -1.000000 0.000000 0.000000
vn 0.000000 0.000000 1.000000
vn 0.000000 1.000000 0.000000
vn 0.970100 0.242500 0.000000
vn 0.000000 0.242500 -0.970100
vn -0.970100 0.242500 0.000000
vn 0.000000 0.242500 0.970100
vn 0.382700 0.000000 -0.923900
vn 0.923900 0.000000 -0.382700
vn 0.923900 0.000000 0.382700
vn 0.382700 0.000000 0.923900
vn -0.382700 0.000000 0.923900
vn -0.923900 0.000000 0.382700
vn -0.382700 0.000000 -0.923900
vn -0.923900 0.000000 -0.382700
vn 0.000000 0.707100 -0.707100
vn 0.000000 0.707100 0.707100
vn 0.000000 -0.707100 0.707100
s off
f 5//1 7//1 3//1
f 10//2 9//2 2//2
f 11//2 10//2 1//2
f 12//2 11//2 3//2
f 9//2 12//2 4//2
f 14//3 13//3 4//3
f 15//3 14//3 3//3
f 16//3 15//3 7//3
f 13//3 16//3 8//3
f 18//4 17//4 8//4
f 19//4 18//4 7//4
f 20//4 19//4 5//4
f 17//4 20//4 6//4
f 22//5 21//5 6//5
f 23//5 22//5 5//5
f 24//5 23//5 1//5
f 21//5 24//5 2//5
f 26//2 27//2 28//2
f 26//3 25//3 9//3
f 27//6 26//6 10//6
f 28//5 27//5 11//5
f 25//1 28//1 12//1
f 30//3 31//3 32//3
f 30//4 29//4 13//4
f 31//6 30//6 14//6
f 32//2 31//2 15//2
f 29//1 32//1 16//1
f 34//4 35//4 36//4
f 34//5 33//5 17//5
f 35//6 34//6 18//6
f 36//3 35//3 19//3
f 33//1 36//1 20//1
f 38//5 39//5 40//5
f 38//2 37//2 21//2
f 39//6 38//6 22//6
f 40//4 39//4 23//4
f 37//1 40//1 24//1
f 42//6 44//6 43//6
f 44//7 42//7 2//7
f 43//8 44//8 4//8
f 41//9 43//9 8//9
f 42//10 41//10 6//10
f 56//6 70//6 72//6
f 52//6 66//6 68//6
f 48//11 50//11 49//11
f 55//1 69//1 67//1
f 47//1 46//1 75//1
f 50//12 52//12 51//12
f 49//1 45//1 46//1
f 59//1 73//1 71//1
f 52//13 54//13 53//13
f 62//6 76//6 64//6
f 51//1 53//1 67//1
f 54//14 56//14 55//14
f 57//1 71//1 69//1
f 76//14 75//14 46//14
f 56//15 58//15 57//15
f 51//1 65//1 45//1
f 74//13 73//13 75//13
f 58//16 60//16 59//16
f 60//6 74//6 76//6
f 62//17 48//17 47//17
f 60//18 62//18 61//18
f 50//6 63//6 66//6
f 60//6 58//6 72//6
f 54//6 68//6 70//6
f 59//1 61//1 75//1
f 48//6 64//6 63//6
f 64//15 46//15 45//15
f 63//16 45//16 65//16
f 66//18 65//18 67//18
f 68//17 67//17 69//17
f 70//11 69//11 71//11
f 72//12 71//12 73//12
f 78//4 80//4 79//4
f 84//3 83//3 79//3
f 82//2 81//2 83//2
f 78//5 77//5 81//5
f 79//1 83//1 81//1
f 80//19 86//19 87//19
f 87//20 86//20 85//20
f 84//2 87//2 88//2
f 80//4 78//4 85//4
f 82//21 88//21 85//21
f 1//1 5//1 3//1
f 1//2 10//2 2//2
f 3//2 11//2 1//2
f 4//2 12//2 3//2
f 2//2 9//2 4//2
f 3//3 14//3 4//3
f 7//3 15//3 3//3
f 8//3 16//3 7//3
f 4//3 13//3 8//3
f 7//4 18//4 8//4
f 5//4 19//4 7//4
f 6//4 20//4 5//4
f 8//4 17//4 6//4
f 5//5 22//5 6//5
f 1//5 23//5 5//5
f 2//5 24//5 1//5
f 6//5 21//5 2//5
f 25//2 26//2 28//2
f 10//3 26//3 9//3
f 11//6 27//6 10//6
f 12//5 28//5 11//5
f 9//1 25//1 12//1
f 29//3 30//3 32//3
f 14//4 30//4 13//4
f 15//6 31//6 14//6
f 16//2 32//2 15//2
f 13//1 29//1 16//1
f 33//4 34//4 36//4
f 18//5 34//5 17//5
f 19//6 35//6 18//6
f 20//3 36//3 19//3
f 17//1 33//1 20//1
f 37//5 38//5 40//5
f 22//2 38//2 21//2
f 23//6 39//6 22//6
f 24//4 40//4 23//4
f 21//1 37//1 24//1
f 41//6 42//6 43//6
f 4//7 44//7 2//7
f 8//8 43//8 4//8
f 6//9 41//9 8//9
f 2//10 42//10 6//10
f 58//6 56//6 72//6
f 54//6 52//6 68//6
f 47//11 48//11 49//11
f 53//1 55//1 67//1
f 61//1 47//1 75//1
f 49//12 50//12 51//12
f 47//1 49//1 46//1
f 57//1 59//1 71//1
f 51//13 52//13 53//13
f 48//6 62//6 64//6
f 65//1 51//1 67//1
f 53//14 54//14 55//14
f 55//1 57//1 69//1
f 64//14 76//14 46//14
f 55//15 56//15 57//15
f 49//1 51//1 45//1
f 76//13 74//13 75//13
f 57//16 58//16 59//16
f 62//6 60//6 76//6
f 61//17 62//17 47//17
f 59//18 60//18 61//18
f 52//6 50//6 66//6
f 74//6 60//6 72//6
f 56//6 54//6 70//6
f 73//1 59//1 75//1
f 50//6 48//6 63//6
f 63//15 64//15 45//15
f 66//16 63//16 65//16
f 68//18 66//18 67//18
f 70//17 68//17 69//17
f 72//11 70//11 71//11
f 74//12 72//12 73//12
f 77//4 78//4 79//4
f 80//3 84//3 79//3
f 84//2 82//2 83//2
f 82//5 78//5 81//5
f 77//1 79//1 81//1
f 84//19 80//19 87//19
f 88//20 87//20 85//20
f 82//2 84//2 88//2
f 86//4 80//4 85//4
f 78//21 82//21 85//21
