# Blender v2.76 (sub 0) OBJ File: 'cel_prime_battery.blend'
# www.blender.org
o Cube.004_Cube.005
v -0.500000 0.000000 -1.500000
v -0.500000 5.000000 -1.500000
v 1.500000 0.000000 -1.500000
v 1.500000 4.000000 -1.500000
v -0.500000 0.000000 1.500000
v -0.500000 5.000000 1.500000
v 1.500000 0.000000 1.500000
v 1.500000 4.000000 1.500000
v 1.500000 3.800000 -1.350000
v 1.500000 0.200000 -1.350000
v 1.500000 3.800000 1.350000
v 1.500000 0.200000 1.350000
v 0.500000 3.800000 -1.350000
v 0.500000 0.200000 -1.350000
v 0.500000 3.800000 1.350000
v 0.500000 0.200000 1.350000
v 1.500000 0.200000 1.099999
v 1.500000 1.600000 1.099999
v 0.500000 0.200000 1.100000
v 0.500000 1.600000 1.100000
v 1.500000 0.200000 0.100000
v 1.500000 1.600000 0.100000
v 0.500000 0.200000 0.100000
v 0.500000 1.600000 0.100000
v 1.500000 0.200000 -0.100001
v 1.500000 1.600000 -0.100001
v 0.500000 0.200000 -0.100000
v 0.500000 1.600000 -0.100000
v 1.500000 0.200000 -1.100001
v 1.500000 1.600000 -1.100001
v 0.500000 0.200000 -1.100000
v 0.500000 1.600000 -1.100000
v 1.500000 1.700000 -0.100001
v 1.500000 3.100000 -0.100001
v 0.500000 1.700000 -0.100000
v 0.500000 3.100000 -0.100000
v 1.500000 1.700000 -1.100001
v 1.500000 3.100000 -1.100001
v 0.500000 1.700000 -1.100000
v 0.500000 3.100000 -1.100000
v 1.500000 1.700000 1.099999
v 1.500000 3.100000 1.099999
v 0.500000 1.700000 1.100000
v 0.500000 3.100000 1.100000
v 1.500000 1.700000 0.100000
v 1.500000 3.100000 0.100000
v 0.500000 1.700000 0.100000
v 0.500000 3.100000 0.100000
vn 0.000000 0.000000 -1.000000
vn 1.000000 -0.000000 0.000000
vn 0.000000 0.000000 1.000000
vn -1.000000 0.000000 0.000000
vn 0.000000 -1.000000 0.000000
vn 0.447200 0.894400 0.000000
vn 0.000000 1.000000 0.000000
s off
f 4//1 3//1 1//1
f 3//2 10//2 12//2
f 8//3 6//3 5//3
f 2//4 1//4 5//4
f 3//5 7//5 5//5
f 8//6 4//6 2//6
f 10//7 14//7 16//7
f 8//2 11//2 9//2
f 4//2 9//2 10//2
f 7//2 12//2 11//2
f 15//2 16//2 14//2
f 11//5 15//5 13//5
f 12//1 16//1 15//1
f 9//3 13//3 14//3
f 20//3 19//3 17//3
f 24//4 23//4 19//4
f 22//1 21//1 23//1
f 18//2 17//2 21//2
f 19//5 23//5 21//5
f 22//7 24//7 20//7
f 28//3 27//3 25//3
f 30//1 29//1 31//1
f 26//2 25//2 29//2
f 32//7 28//7 26//7
f 36//3 35//3 33//3
f 38//1 37//1 39//1
f 34//2 33//2 37//2
f 40//7 36//7 34//7
f 44//3 43//3 41//3
f 46//1 45//1 47//1
f 42//2 41//2 45//2
f 46//7 48//7 44//7
f 43//5 47//5 45//5
f 39//5 37//5 33//5
f 2//1 4//1 1//1
f 7//2 3//2 12//2
f 7//3 8//3 5//3
f 6//4 2//4 5//4
f 1//5 3//5 5//5
f 6//6 8//6 2//6
f 12//7 10//7 16//7
f 4//2 8//2 9//2
f 3//2 4//2 10//2
f 8//2 7//2 11//2
f 13//2 15//2 14//2
f 9//5 11//5 13//5
f 11//1 12//1 15//1
f 10//3 9//3 14//3
f 18//3 20//3 17//3
f 20//4 24//4 19//4
f 24//1 22//1 23//1
f 22//2 18//2 21//2
f 17//5 19//5 21//5
f 18//7 22//7 20//7
f 26//3 28//3 25//3
f 32//1 30//1 31//1
f 30//2 26//2 29//2
f 30//7 32//7 26//7
f 34//3 36//3 33//3
f 40//1 38//1 39//1
f 38//2 34//2 37//2
f 38//7 40//7 34//7
f 42//3 44//3 41//3
f 48//1 46//1 47//1
f 46//2 42//2 45//2
f 42//7 46//7 44//7
f 41//5 43//5 45//5
f 35//5 39//5 33//5
