# Blender v2.76 (sub 0) OBJ File: 'centrifuge_new.blend'
# www.blender.org
o Cube_Cube.001
v -0.500000 0.000000 0.500000
v -0.500000 1.000000 0.500000
v -0.500000 0.000000 -0.500000
v -0.500000 1.000000 -0.500000
v 0.500000 0.000000 0.500000
v 0.500000 1.000000 0.500000
v 0.500000 0.000000 -0.500000
v 0.500000 1.000000 -0.500000
v -0.500000 0.343750 0.156250
v -0.500000 0.656250 0.156250
v -0.500000 0.343750 -0.156250
v -0.500000 0.656250 -0.156250
v 0.500000 0.343750 0.156250
v 0.500000 0.656250 0.156250
v 0.500000 0.343750 -0.156250
v 0.500000 0.656250 -0.156250
v 0.156250 0.343750 0.500000
v 0.156250 0.656250 0.500000
v -0.156250 0.343750 0.500000
v -0.156250 0.656250 0.500000
v 0.156250 0.343750 -0.500000
v 0.156250 0.656250 -0.500000
v -0.156250 0.343750 -0.500000
v -0.156250 0.656250 -0.500000
v -0.250000 0.250000 0.500000
v -0.250000 0.750000 0.500000
v -0.250000 0.250000 -0.500000
v -0.250000 0.750000 -0.500000
v 0.250000 0.250000 0.500000
v 0.250000 0.750000 0.500000
v 0.250000 0.250000 -0.500000
v 0.250000 0.750000 -0.500000
v 0.500000 0.250000 0.250000
v 0.500000 0.750000 0.250000
v -0.500000 0.250000 0.250000
v -0.500000 0.750000 0.250000
v 0.500000 0.250000 -0.250000
v 0.500000 0.750000 -0.250000
v -0.500000 0.250000 -0.250000
v -0.500000 0.750000 -0.250000
v -0.250000 0.750000 -0.437500
v 0.250000 0.750000 -0.437500
v 0.250000 0.250000 -0.437500
v -0.250000 0.250000 -0.437500
v 0.250000 0.750000 0.437500
v -0.250000 0.750000 0.437500
v -0.250000 0.250000 0.437500
v 0.250000 0.250000 0.437500
v -0.437500 0.750000 0.250000
v -0.437500 0.750000 -0.250000
v -0.437500 0.250000 -0.250000
v -0.437500 0.250000 0.250000
v 0.437500 0.750000 -0.250000
v 0.437500 0.750000 0.250000
v 0.437500 0.250000 0.250000
v 0.437500 0.250000 -0.250000
v -0.437500 0.656250 0.156250
v -0.437500 0.343750 0.156250
v -0.437500 0.343750 -0.156250
v -0.437500 0.656250 -0.156250
v 0.437500 0.656250 -0.156250
v 0.437500 0.343750 -0.156250
v 0.437500 0.343750 0.156250
v 0.437500 0.656250 0.156250
v 0.156250 0.656250 0.437500
v 0.156250 0.343750 0.437500
v -0.156250 0.343750 0.437500
v -0.156250 0.656250 0.437500
v -0.156250 0.656250 -0.437500
v -0.156250 0.343750 -0.437500
v 0.156250 0.343750 -0.437500
v 0.156250 0.656250 -0.437500
v 0.250000 2.900000 -0.450000
v 0.250000 1.000000 -0.450000
v 0.250000 1.000000 0.050000
v 0.250000 2.900000 0.050000
v 0.391421 1.000000 0.108579
v 0.391421 2.900000 0.108579
v 0.450000 1.000000 0.250000
v 0.450000 2.900000 0.250000
v 0.391421 1.000000 0.391421
v 0.391421 2.900000 0.391421
v 0.250000 1.000000 0.450000
v 0.250000 2.900000 0.450000
v 0.108579 1.000000 0.391421
v 0.108579 2.900000 0.391421
v 0.050000 1.000000 0.250000
v 0.050000 2.900000 0.250000
v 0.108579 1.000000 0.108579
v 0.108579 2.900000 0.108579
v 0.391421 1.000000 -0.391421
v 0.391421 2.900000 -0.391421
v 0.450000 1.000000 -0.250000
v 0.450000 2.900000 -0.250000
v 0.391421 1.000000 -0.108579
v 0.391421 2.900000 -0.108579
v 0.250000 1.000000 -0.050000
v 0.250000 2.900000 -0.050000
v 0.108579 1.000000 -0.108579
v 0.108579 2.900000 -0.108579
v 0.050000 1.000000 -0.250000
v 0.050000 2.900000 -0.250000
v 0.108579 1.000000 -0.391421
v 0.108579 2.900000 -0.391421
v -0.250000 2.900000 -0.450000
v -0.250000 1.000000 -0.450000
v -0.250000 1.000000 0.050000
v -0.250000 2.900000 0.050000
v -0.108579 1.000000 0.108579
v -0.108579 2.900000 0.108579
v -0.050000 1.000000 0.250000
v -0.050000 2.900000 0.250000
v -0.108579 1.000000 0.391421
v -0.108579 2.900000 0.391421
v -0.250000 1.000000 0.450000
v -0.250000 2.900000 0.450000
v -0.391421 1.000000 0.391421
v -0.391421 2.900000 0.391421
v -0.450000 1.000000 0.250000
v -0.450000 2.900000 0.250000
v -0.391421 1.000000 0.108579
v -0.391421 2.900000 0.108579
v -0.108579 1.000000 -0.391421
v -0.108579 2.900000 -0.391421
v -0.050000 1.000000 -0.250000
v -0.050000 2.900000 -0.250000
v -0.108579 1.000000 -0.108579
v -0.108579 2.900000 -0.108579
v -0.250000 1.000000 -0.050000
v -0.250000 2.900000 -0.050000
v -0.391421 1.000000 -0.108579
v -0.391421 2.900000 -0.108579
v -0.450000 1.000000 -0.250000
v -0.450000 2.900000 -0.250000
v -0.391421 1.000000 -0.391421
v -0.391421 2.900000 -0.391421
v 0.320711 2.950000 0.179289
v 0.250000 2.950000 0.150000
v 0.179289 2.950000 0.179289
v 0.150000 2.950000 0.250000
v 0.179289 2.950000 0.320711
v 0.250000 2.950000 0.350000
v 0.320711 2.950000 0.320711
v 0.350000 2.950000 0.250000
v 0.320711 2.950000 -0.320711
v 0.250000 2.950000 -0.350000
v 0.179289 2.950000 -0.320711
v 0.150000 2.950000 -0.250000
v 0.179289 2.950000 -0.179289
v 0.250000 2.950000 -0.150000
v 0.320711 2.950000 -0.179289
v 0.350000 2.950000 -0.250000
v -0.179289 2.950000 0.179289
v -0.250000 2.950000 0.150000
v -0.320711 2.950000 0.179289
v -0.350000 2.950000 0.250000
v -0.320711 2.950000 0.320711
v -0.250000 2.950000 0.350000
v -0.179289 2.950000 0.320711
v -0.150000 2.950000 0.250000
v -0.179289 2.950000 -0.320711
v -0.250000 2.950000 -0.350000
v -0.320711 2.950000 -0.320711
v -0.350000 2.950000 -0.250000
v -0.320711 2.950000 -0.179289
v -0.250000 2.950000 -0.150000
v -0.179289 2.950000 -0.179289
v -0.150000 2.950000 -0.250000
v 0.100000 1.000000 -0.064645
v 0.100000 3.000000 -0.064645
v 0.064645 1.000000 -0.100000
v 0.064645 3.000000 -0.100000
v 0.135355 1.000000 -0.100000
v 0.135355 3.000000 -0.100000
v 0.100000 1.000000 -0.135355
v 0.100000 3.000000 -0.135355
v 0.100000 3.050000 -0.064645
v 0.064645 3.050000 -0.100000
v 0.100000 3.050000 -0.135355
v 0.135355 3.050000 -0.100000
v 0.250000 3.050000 -0.214645
v 0.214645 3.050000 -0.250000
v 0.250000 3.050000 -0.285355
v 0.285355 3.050000 -0.250000
v 0.250000 3.000000 -0.214645
v 0.214645 3.000000 -0.250000
v 0.250000 3.000000 -0.285355
v 0.285355 3.000000 -0.250000
v 0.250000 2.950000 -0.214645
v 0.214645 2.950000 -0.250000
v 0.250000 2.950000 -0.285355
v 0.285355 2.950000 -0.250000
v 0.100000 1.000000 0.435355
v 0.100000 3.000000 0.435355
v 0.064645 1.000000 0.400000
v 0.064645 3.000000 0.400000
v 0.135355 1.000000 0.400000
v 0.135355 3.000000 0.400000
v 0.100000 1.000000 0.364645
v 0.100000 3.000000 0.364645
v 0.100000 3.050000 0.435355
v 0.064645 3.050000 0.400000
v 0.100000 3.050000 0.364645
v 0.135355 3.050000 0.400000
v 0.250000 3.050000 0.285355
v 0.214645 3.050000 0.250000
v 0.250000 3.050000 0.214645
v 0.285355 3.050000 0.250000
v 0.250000 3.000000 0.285355
v 0.214645 3.000000 0.250000
v 0.250000 3.000000 0.214645
v 0.285355 3.000000 0.250000
v 0.250000 2.950000 0.285355
v 0.214645 2.950000 0.250000
v 0.250000 2.950000 0.214645
v 0.285355 2.950000 0.250000
v -0.400000 1.000000 0.435355
v -0.400000 3.000000 0.435355
v -0.435355 1.000000 0.400000
v -0.435355 3.000000 0.400000
v -0.364645 1.000000 0.400000
v -0.364645 3.000000 0.400000
v -0.400000 1.000000 0.364645
v -0.400000 3.000000 0.364645
v -0.400000 3.050000 0.435355
v -0.435355 3.050000 0.400000
v -0.400000 3.050000 0.364645
v -0.364645 3.050000 0.400000
v -0.250000 3.050000 0.285355
v -0.285355 3.050000 0.250000
v -0.250000 3.050000 0.214645
v -0.214645 3.050000 0.250000
v -0.250000 3.000000 0.285355
v -0.285355 3.000000 0.250000
v -0.250000 3.000000 0.214645
v -0.214645 3.000000 0.250000
v -0.250000 2.950000 0.285355
v -0.285355 2.950000 0.250000
v -0.250000 2.950000 0.214645
v -0.214645 2.950000 0.250000
v -0.400000 1.000000 -0.064645
v -0.400000 3.000000 -0.064645
v -0.435355 1.000000 -0.100000
v -0.435355 3.000000 -0.100000
v -0.364645 1.000000 -0.100000
v -0.364645 3.000000 -0.100000
v -0.400000 1.000000 -0.135355
v -0.400000 3.000000 -0.135355
v -0.400000 3.050000 -0.064645
v -0.435355 3.050000 -0.100000
v -0.400000 3.050000 -0.135355
v -0.364645 3.050000 -0.100000
v -0.250000 3.050000 -0.214645
v -0.285355 3.050000 -0.250000
v -0.250000 3.050000 -0.285355
v -0.214645 3.050000 -0.250000
v -0.250000 3.000000 -0.214645
v -0.285355 3.000000 -0.250000
v -0.250000 3.000000 -0.285355
v -0.214645 3.000000 -0.250000
v -0.250000 2.950000 -0.214645
v -0.285355 2.950000 -0.250000
v -0.250000 2.950000 -0.285355
v -0.214645 2.950000 -0.250000
vt 0.695312 0.371094
vt 0.949219 0.371094
vt 0.949219 0.625000
vt 0.144531 -0.000000
vt 0.207031 0.000000
vt 0.207031 0.062500
vt 0.136719 0.039062
vt 0.128906 0.031250
vt 0.128906 0.015625
vt 0.136719 0.007812
vt 0.113281 0.015625
vt 0.113281 0.031250
vt 0.105469 0.039062
vt 0.089844 0.027344
vt 0.070312 0.027344
vt 0.070312 0.007812
vt 0.046875 0.015625
vt 0.015625 0.015625
vt -0.000000 0.000000
vt 0.015625 0.046875
vt 0.046875 0.046875
vt 0.062500 0.062500
vt 0.000000 0.062500
vt 0.062500 0.000000
vt 0.136719 0.042969
vt 0.105469 0.007812
vt 0.101562 0.039062
vt 0.105469 0.003906
vt 0.140625 0.007812
vt 0.093750 0.007812
vt 0.093750 0.027344
vt 0.070312 0.003906
vt 0.089844 0.003906
vt 0.089844 0.007812
vt 0.066406 0.027344
vt 0.066406 0.007812
vt 0.089844 0.031250
vt 0.070312 0.031250
vt 0.050903 0.836838
vt 0.013435 0.836838
vt 0.013433 0.371769
vt 0.238245 0.836838
vt 0.200776 0.836838
vt 0.200776 0.371768
vt 0.088372 0.836838
vt 0.050902 0.371769
vt 0.163308 0.836838
vt 0.163307 0.371768
vt 0.125840 0.836838
vt 0.088370 0.371769
vt 0.125839 0.371769
vt 0.377931 0.861153
vt 0.377931 0.371601
vt 0.390169 0.371601
vt 0.313181 0.836838
vt 0.275713 0.836838
vt 0.275713 0.371768
vt 0.238244 0.371768
vt 0.353454 0.861153
vt 0.353454 0.371601
vt 0.365692 0.371601
vt 0.365692 0.861153
vt 0.341215 0.861153
vt 0.341216 0.371601
vt 0.875778 0.677068
vt 0.889025 0.645087
vt 0.921006 0.658334
vt 0.228878 0.862551
vt 0.210143 0.862551
vt 0.266346 0.862551
vt 0.247612 0.862551
vt 0.303814 0.862551
vt 0.285080 0.862551
vt 0.041536 0.862552
vt 0.022802 0.862552
vt 0.079004 0.862551
vt 0.060270 0.862552
vt 0.116473 0.862551
vt 0.097739 0.862551
vt 0.153941 0.862551
vt 0.135207 0.862551
vt 0.191409 0.862551
vt 0.172675 0.862551
vt 0.875778 0.658334
vt 0.907759 0.645087
vt 0.921006 0.677068
vt 0.443375 0.716201
vt 0.431136 0.716201
vt 0.431136 0.676515
vt 0.455614 0.676515
vt 0.455614 0.664276
vt 0.467852 0.664276
vt 0.467852 0.652038
vt 0.480091 0.676515
vt 0.467852 0.676515
vt 0.443375 0.664276
vt 0.455614 0.728439
vt 0.455614 0.716201
vt 0.467852 0.716201
vt 0.888254 0.732063
vt 0.888254 0.719824
vt 0.900493 0.719824
vt 0.480091 0.716201
vt 0.480091 0.728439
vt 0.443375 0.728439
vt 0.467852 0.728439
vt 0.467852 0.740678
vt 0.455614 0.740678
vt 0.912731 0.732063
vt 0.912731 0.719824
vt 0.924970 0.719824
vt 0.900493 0.732063
vt 0.876015 0.732063
vt 0.876015 0.719824
vt 0.924970 0.732063
vt 0.695312 0.625000
vt 0.144531 0.062500
vt 0.105469 0.042969
vt 0.101562 0.007812
vt 0.136719 0.003906
vt 0.140625 0.039062
vt 0.390170 0.861153
vt 0.313181 0.371768
vt 0.907759 0.690316
vt 0.889025 0.690315
vt 0.443375 0.676515
vt 0.455614 0.652038
vt 0.480091 0.664276
vn 0.000000 -1.000000 0.000000
vn 0.000000 1.000000 0.000000
vn -1.000000 0.000000 0.000000
vn 0.000000 0.000000 1.000000
vn 0.000000 0.000000 -1.000000
vn 1.000000 0.000000 0.000000
vn -0.923900 0.000000 0.382700
vn 0.382700 0.000000 -0.923900
vn -0.382700 0.000000 0.923900
vn 0.923900 0.000000 -0.382700
vn 0.382700 0.000000 0.923900
vn 0.923900 0.000000 0.382700
vn -0.707100 0.000000 -0.707100
vn -0.923900 0.000000 -0.382700
vn -0.382700 0.000000 -0.923900
vn 0.707100 0.000000 0.707100
vn 0.707100 0.000000 -0.707100
vn -0.707100 0.000000 0.707100
vn 0.182100 0.879500 -0.439700
vn -0.182100 0.879500 -0.439700
vn -0.439700 0.879500 -0.182100
vn -0.439700 0.879500 0.182100
vn -0.182100 0.879500 0.439700
vn 0.182100 0.879500 0.439700
vn 0.439700 0.879500 0.182100
vn 0.439700 0.879500 -0.182100
s off
f 3/1/1 7/2/1 5/3/1
f 8/4/2 4/5/2 2/6/2
f 49/7/3 57/8/3 58/9/3
f 52/10/3 58/9/3 59/11/3
f 59/11/3 60/12/3 50/13/3
f 18/14/4 20/15/4 19/16/4
f 27/17/5 31/18/5 7/19/5
f 32/20/5 28/21/5 4/22/5
f 35/17/3 39/18/3 3/19/3
f 40/20/3 36/21/3 2/22/3
f 29/17/4 25/18/4 1/19/4
f 26/20/4 30/21/4 6/22/4
f 37/17/6 33/18/6 5/19/6
f 34/20/6 38/21/6 8/22/6
f 6/23/6 5/19/6 33/18/6
f 29/17/4 5/24/4 6/22/4
f 2/23/4 1/19/4 25/18/4
f 35/17/3 1/24/3 2/22/3
f 4/23/3 3/19/3 39/18/3
f 27/17/5 3/24/5 4/22/5
f 8/23/5 7/19/5 31/18/5
f 37/17/6 7/24/6 8/22/6
f 42/13/1 41/7/1 28/25/1
f 43/26/3 42/13/3 32/27/3
f 44/10/2 43/26/2 31/28/2
f 41/7/6 44/10/6 27/29/6
f 46/13/1 45/7/1 30/25/1
f 47/26/6 46/13/6 26/27/6
f 48/10/2 47/26/2 25/28/2
f 45/7/3 48/10/3 29/29/3
f 50/13/1 49/7/1 36/25/1
f 51/26/4 50/13/4 40/27/4
f 52/10/2 51/26/2 39/28/2
f 49/7/5 52/10/5 35/29/5
f 54/13/1 53/7/1 38/25/1
f 55/26/5 54/13/5 34/27/5
f 56/10/2 55/26/2 33/28/2
f 53/7/4 56/10/4 37/29/4
f 47/26/4 67/11/4 68/12/4
f 58/30/4 57/31/4 10/14/4
f 59/32/1 58/33/1 9/34/1
f 60/35/5 59/36/5 11/16/5
f 57/37/2 60/38/2 12/15/2
f 46/13/4 68/12/4 65/8/4
f 62/30/5 61/31/5 16/14/5
f 63/32/1 62/33/1 15/34/1
f 64/35/4 63/36/4 13/16/4
f 61/37/2 64/38/2 14/15/2
f 65/8/4 66/9/4 48/10/4
f 66/30/6 65/31/6 18/14/6
f 67/32/1 66/33/1 17/34/1
f 68/35/3 67/36/3 19/16/3
f 65/37/2 68/38/2 20/15/2
f 66/9/4 67/11/4 47/26/4
f 70/30/3 69/31/3 24/14/3
f 71/32/1 70/33/1 23/34/1
f 72/35/6 71/36/6 21/16/6
f 69/37/2 72/38/2 22/15/2
f 60/12/3 57/8/3 49/7/3
f 43/26/5 71/11/5 72/12/5
f 70/9/5 71/11/5 43/26/5
f 69/8/5 70/9/5 44/10/5
f 42/13/5 72/12/5 69/8/5
f 63/11/6 64/12/6 54/13/6
f 56/10/6 62/9/6 63/11/6
f 53/7/6 61/8/6 62/9/6
f 64/12/6 61/8/6 53/7/6
f 10/14/3 12/15/3 11/16/3
f 24/14/5 22/15/5 21/16/5
f 16/14/6 14/15/6 13/16/6
f 100/39/7 102/40/7 101/41/7
f 76/42/8 78/43/8 77/44/8
f 98/45/9 100/39/9 99/46/9
f 78/43/10 80/47/10 79/48/10
f 96/49/11 98/45/11 97/50/11
f 80/47/12 82/49/12 81/51/12
f 200/52/13 199/53/13 195/54/13
f 94/47/12 96/49/12 95/51/12
f 82/49/11 84/45/11 83/50/11
f 102/55/14 104/56/14 103/57/14
f 92/43/10 94/47/10 93/48/10
f 84/45/9 86/39/9 85/46/9
f 104/56/15 73/42/15 74/58/15
f 73/42/8 92/43/8 91/44/8
f 86/39/7 88/40/7 87/41/7
f 170/59/16 169/60/16 173/61/16
f 90/56/15 76/42/15 75/58/15
f 88/55/14 90/56/14 89/57/14
f 174/62/17 173/61/17 175/53/17
f 198/62/17 197/61/17 199/53/17
f 132/39/7 134/40/7 133/41/7
f 108/42/8 110/43/8 109/44/8
f 130/45/9 132/39/9 131/46/9
f 110/43/10 112/47/10 111/48/10
f 128/49/11 130/45/11 129/50/11
f 112/47/12 114/49/12 113/51/12
f 194/59/16 193/60/16 197/61/16
f 126/47/12 128/49/12 127/51/12
f 114/49/11 116/45/11 115/50/11
f 134/55/14 136/56/14 135/57/14
f 124/43/10 126/47/10 125/48/10
f 116/45/9 118/39/9 117/46/9
f 136/56/15 105/42/15 106/58/15
f 105/42/8 124/43/8 123/44/8
f 118/39/7 120/40/7 119/41/7
f 176/52/13 175/53/13 171/54/13
f 122/56/15 108/42/15 107/58/15
f 120/55/14 122/56/14 121/57/14
f 172/63/18 171/64/18 169/60/18
f 140/65/2 142/66/2 144/67/2
f 76/42/19 138/68/19 137/69/19
f 139/70/20 138/71/20 76/42/20
f 140/72/21 139/73/21 90/56/21
f 141/74/22 140/75/22 88/40/22
f 142/76/23 141/77/23 86/39/23
f 143/78/24 142/79/24 84/45/24
f 144/80/25 143/81/25 82/49/25
f 137/82/26 144/83/26 80/47/26
f 148/65/2 150/66/2 152/67/2
f 73/42/19 146/68/19 145/69/19
f 104/56/20 147/70/20 146/71/20
f 148/72/21 147/73/21 104/56/21
f 100/39/22 149/74/22 148/75/22
f 98/45/23 150/76/23 149/77/23
f 151/78/24 150/79/24 98/45/24
f 152/80/25 151/81/25 96/49/25
f 92/43/26 145/82/26 152/83/26
f 156/84/2 158/85/2 160/86/2
f 108/42/19 154/68/19 153/69/19
f 155/70/20 154/71/20 108/42/20
f 156/72/21 155/73/21 122/56/21
f 118/39/22 157/74/22 156/75/22
f 158/76/23 157/77/23 118/39/23
f 114/49/24 159/78/24 158/79/24
f 160/80/25 159/81/25 114/49/25
f 153/82/26 160/83/26 112/47/26
f 164/84/2 166/85/2 168/86/2
f 162/68/19 161/69/19 124/43/19
f 136/56/20 163/70/20 162/71/20
f 164/72/21 163/73/21 136/56/21
f 132/39/22 165/74/22 164/75/22
f 166/76/23 165/77/23 132/39/23
f 128/49/24 167/78/24 166/79/24
f 168/80/25 167/81/25 128/49/25
f 124/43/26 161/82/26 168/83/26
f 186/87/1 185/88/1 174/89/1
f 179/90/2 178/91/2 177/92/2
f 170/93/18 177/92/18 178/91/18
f 174/94/16 180/95/16 177/92/16
f 172/96/13 178/91/13 179/90/13
f 183/97/2 182/98/2 181/99/2
f 185/100/16 189/101/16 192/102/16
f 179/90/13 182/98/13 186/87/13
f 181/99/16 185/103/16 188/104/16
f 183/97/13 187/105/13 186/87/13
f 184/106/17 188/107/17 187/108/17
f 180/95/2 181/99/2 182/98/2
f 187/109/13 191/110/13 190/111/13
f 188/112/17 192/102/17 191/110/17
f 186/113/18 190/114/18 189/101/18
f 174/94/16 185/103/16 181/99/16
f 196/63/18 195/64/18 193/60/18
f 210/87/1 209/88/1 198/89/1
f 203/90/2 202/91/2 201/92/2
f 194/93/18 201/92/18 202/91/18
f 198/94/16 204/95/16 201/92/16
f 196/96/13 202/91/13 203/90/13
f 207/97/2 206/98/2 205/99/2
f 209/100/16 213/101/16 216/102/16
f 203/90/13 206/98/13 210/87/13
f 205/99/16 209/103/16 212/104/16
f 207/97/13 211/105/13 210/87/13
f 208/106/17 212/107/17 211/108/17
f 204/95/2 205/99/2 206/98/2
f 211/109/13 215/110/13 214/111/13
f 212/112/17 216/102/17 215/110/17
f 210/113/18 214/114/18 213/101/18
f 198/94/16 209/103/16 205/99/16
f 224/52/13 223/53/13 219/54/13
f 222/62/17 221/61/17 223/53/17
f 218/59/16 217/60/16 221/61/16
f 220/63/18 219/64/18 217/60/18
f 234/87/1 233/88/1 222/89/1
f 227/90/2 226/91/2 225/92/2
f 218/93/18 225/92/18 226/91/18
f 222/94/16 228/95/16 225/92/16
f 220/96/13 226/91/13 227/90/13
f 231/97/2 230/98/2 229/99/2
f 233/100/16 237/101/16 240/102/16
f 227/90/13 230/98/13 234/87/13
f 229/99/16 233/103/16 236/104/16
f 231/97/13 235/105/13 234/87/13
f 232/106/17 236/107/17 235/108/17
f 228/95/2 229/99/2 230/98/2
f 235/109/13 239/110/13 238/111/13
f 236/112/17 240/102/17 239/110/17
f 234/113/18 238/114/18 237/101/18
f 222/94/16 233/103/16 229/99/16
f 248/52/13 247/53/13 243/54/13
f 246/62/17 245/61/17 247/53/17
f 242/59/16 241/60/16 245/61/16
f 244/63/18 243/64/18 241/60/18
f 258/87/1 257/88/1 246/89/1
f 251/90/2 250/91/2 249/92/2
f 242/93/18 249/92/18 250/91/18
f 246/94/16 252/95/16 249/92/16
f 244/96/13 250/91/13 251/90/13
f 255/97/2 254/98/2 253/99/2
f 257/110/16 261/109/16 264/112/16
f 251/90/13 254/98/13 258/87/13
f 253/99/16 257/103/16 260/104/16
f 255/97/13 259/105/13 258/87/13
f 256/106/17 260/107/17 259/108/17
f 252/95/2 253/99/2 254/98/2
f 259/101/13 263/100/13 262/113/13
f 260/102/17 264/112/17 263/100/17
f 258/111/18 262/115/18 261/109/18
f 246/94/16 257/103/16 253/99/16
f 1/116/1 3/1/1 5/3/1
f 6/117/2 8/4/2 2/6/2
f 52/10/3 49/7/3 58/9/3
f 51/26/3 52/10/3 59/11/3
f 51/26/3 59/11/3 50/13/3
f 17/34/4 18/14/4 19/16/4
f 3/24/5 27/17/5 7/19/5
f 8/23/5 32/20/5 4/22/5
f 1/24/3 35/17/3 3/19/3
f 4/23/3 40/20/3 2/22/3
f 5/24/4 29/17/4 1/19/4
f 2/23/4 26/20/4 6/22/4
f 7/24/6 37/17/6 5/19/6
f 6/23/6 34/20/6 8/22/6
f 34/20/6 6/23/6 33/18/6
f 30/21/4 29/17/4 6/22/4
f 26/20/4 2/23/4 25/18/4
f 36/21/3 35/17/3 2/22/3
f 40/20/3 4/23/3 39/18/3
f 28/21/5 27/17/5 4/22/5
f 32/20/5 8/23/5 31/18/5
f 38/21/6 37/17/6 8/22/6
f 32/118/1 42/13/1 28/25/1
f 31/119/3 43/26/3 32/27/3
f 27/120/2 44/10/2 31/28/2
f 28/121/6 41/7/6 27/29/6
f 26/118/1 46/13/1 30/25/1
f 25/119/6 47/26/6 26/27/6
f 29/120/2 48/10/2 25/28/2
f 30/121/3 45/7/3 29/29/3
f 40/118/1 50/13/1 36/25/1
f 39/119/4 51/26/4 40/27/4
f 35/120/2 52/10/2 39/28/2
f 36/121/5 49/7/5 35/29/5
f 34/118/1 54/13/1 38/25/1
f 33/119/5 55/26/5 34/27/5
f 37/120/2 56/10/2 33/28/2
f 38/121/4 53/7/4 37/29/4
f 46/13/4 47/26/4 68/12/4
f 9/34/4 58/30/4 10/14/4
f 11/16/1 59/32/1 9/34/1
f 12/15/5 60/35/5 11/16/5
f 10/14/2 57/37/2 12/15/2
f 45/7/4 46/13/4 65/8/4
f 15/34/5 62/30/5 16/14/5
f 13/16/1 63/32/1 15/34/1
f 14/15/4 64/35/4 13/16/4
f 16/14/2 61/37/2 14/15/2
f 45/7/4 65/8/4 48/10/4
f 17/34/6 66/30/6 18/14/6
f 19/16/1 67/32/1 17/34/1
f 20/15/3 68/35/3 19/16/3
f 18/14/2 65/37/2 20/15/2
f 48/10/4 66/9/4 47/26/4
f 23/34/3 70/30/3 24/14/3
f 21/16/1 71/32/1 23/34/1
f 22/15/6 72/35/6 21/16/6
f 24/14/2 69/37/2 22/15/2
f 50/13/3 60/12/3 49/7/3
f 42/13/5 43/26/5 72/12/5
f 44/10/5 70/9/5 43/26/5
f 41/7/5 69/8/5 44/10/5
f 41/7/5 42/13/5 69/8/5
f 55/26/6 63/11/6 54/13/6
f 55/26/6 56/10/6 63/11/6
f 56/10/6 53/7/6 62/9/6
f 54/13/6 64/12/6 53/7/6
f 9/34/3 10/14/3 11/16/3
f 23/34/5 24/14/5 21/16/5
f 15/34/6 16/14/6 13/16/6
f 99/46/7 100/39/7 101/41/7
f 75/58/8 76/42/8 77/44/8
f 97/50/9 98/45/9 99/46/9
f 77/44/10 78/43/10 79/48/10
f 95/51/11 96/49/11 97/50/11
f 79/48/12 80/47/12 81/51/12
f 196/122/13 200/52/13 195/54/13
f 93/48/12 94/47/12 95/51/12
f 81/51/11 82/49/11 83/50/11
f 101/123/14 102/55/14 103/57/14
f 91/44/10 92/43/10 93/48/10
f 83/50/9 84/45/9 85/46/9
f 103/57/15 104/56/15 74/58/15
f 74/58/8 73/42/8 91/44/8
f 85/46/7 86/39/7 87/41/7
f 174/62/16 170/59/16 173/61/16
f 89/57/15 90/56/15 75/58/15
f 87/123/14 88/55/14 89/57/14
f 176/52/17 174/62/17 175/53/17
f 200/52/17 198/62/17 199/53/17
f 131/46/7 132/39/7 133/41/7
f 107/58/8 108/42/8 109/44/8
f 129/50/9 130/45/9 131/46/9
f 109/44/10 110/43/10 111/48/10
f 127/51/11 128/49/11 129/50/11
f 111/48/12 112/47/12 113/51/12
f 198/62/16 194/59/16 197/61/16
f 125/48/12 126/47/12 127/51/12
f 113/51/11 114/49/11 115/50/11
f 133/123/14 134/55/14 135/57/14
f 123/44/10 124/43/10 125/48/10
f 115/50/9 116/45/9 117/46/9
f 135/57/15 136/56/15 106/58/15
f 106/58/8 105/42/8 123/44/8
f 117/46/7 118/39/7 119/41/7
f 172/122/13 176/52/13 171/54/13
f 121/57/15 122/56/15 107/58/15
f 119/123/14 120/55/14 121/57/14
f 170/59/18 172/63/18 169/60/18
f 144/67/2 137/86/2 138/124/2
f 138/124/2 139/125/2 140/65/2
f 140/65/2 141/84/2 142/66/2
f 142/66/2 143/85/2 144/67/2
f 144/67/2 138/124/2 140/65/2
f 78/43/19 76/42/19 137/69/19
f 90/56/20 139/70/20 76/42/20
f 88/55/21 140/72/21 90/56/21
f 86/39/22 141/74/22 88/40/22
f 84/45/23 142/76/23 86/39/23
f 82/49/24 143/78/24 84/45/24
f 80/47/25 144/80/25 82/49/25
f 78/43/26 137/82/26 80/47/26
f 152/67/2 145/86/2 146/124/2
f 146/124/2 147/125/2 148/65/2
f 148/65/2 149/84/2 150/66/2
f 150/66/2 151/85/2 152/67/2
f 152/67/2 146/124/2 148/65/2
f 92/43/19 73/42/19 145/69/19
f 73/42/20 104/56/20 146/71/20
f 102/55/21 148/72/21 104/56/21
f 102/40/22 100/39/22 148/75/22
f 100/39/23 98/45/23 149/77/23
f 96/49/24 151/78/24 98/45/24
f 94/47/25 152/80/25 96/49/25
f 94/47/26 92/43/26 152/83/26
f 160/86/2 153/124/2 154/125/2
f 154/125/2 155/65/2 156/84/2
f 156/84/2 157/66/2 158/85/2
f 158/85/2 159/67/2 160/86/2
f 160/86/2 154/125/2 156/84/2
f 110/43/19 108/42/19 153/69/19
f 122/56/20 155/70/20 108/42/20
f 120/55/21 156/72/21 122/56/21
f 120/40/22 118/39/22 156/75/22
f 116/45/23 158/76/23 118/39/23
f 116/45/24 114/49/24 158/79/24
f 112/47/25 160/80/25 114/49/25
f 110/43/26 153/82/26 112/47/26
f 168/86/2 161/124/2 162/125/2
f 162/125/2 163/65/2 164/84/2
f 164/84/2 165/66/2 166/85/2
f 166/85/2 167/67/2 168/86/2
f 168/86/2 162/125/2 164/84/2
f 105/42/19 162/68/19 124/43/19
f 105/42/20 136/56/20 162/71/20
f 134/55/21 164/72/21 136/56/21
f 134/40/22 132/39/22 164/75/22
f 130/45/23 166/76/23 132/39/23
f 130/45/24 128/49/24 166/79/24
f 126/47/25 168/80/25 128/49/25
f 126/47/26 124/43/26 168/83/26
f 176/126/1 186/87/1 174/89/1
f 180/95/2 179/90/2 177/92/2
f 172/127/18 170/93/18 178/91/18
f 170/128/16 174/94/16 177/92/16
f 176/126/13 172/96/13 179/90/13
f 184/106/2 183/97/2 181/99/2
f 188/112/16 185/100/16 192/102/16
f 176/126/13 179/90/13 186/87/13
f 184/106/16 181/99/16 188/104/16
f 182/98/13 183/97/13 186/87/13
f 183/97/17 184/106/17 187/108/17
f 179/90/2 180/95/2 182/98/2
f 186/115/13 187/109/13 190/111/13
f 187/109/17 188/112/17 191/110/17
f 185/100/18 186/113/18 189/101/18
f 180/95/16 174/94/16 181/99/16
f 194/59/18 196/63/18 193/60/18
f 200/126/1 210/87/1 198/89/1
f 204/95/2 203/90/2 201/92/2
f 196/127/18 194/93/18 202/91/18
f 194/128/16 198/94/16 201/92/16
f 200/126/13 196/96/13 203/90/13
f 208/106/2 207/97/2 205/99/2
f 212/112/16 209/100/16 216/102/16
f 200/126/13 203/90/13 210/87/13
f 208/106/16 205/99/16 212/104/16
f 206/98/13 207/97/13 210/87/13
f 207/97/17 208/106/17 211/108/17
f 203/90/2 204/95/2 206/98/2
f 210/115/13 211/109/13 214/111/13
f 211/109/17 212/112/17 215/110/17
f 209/100/18 210/113/18 213/101/18
f 204/95/16 198/94/16 205/99/16
f 220/122/13 224/52/13 219/54/13
f 224/52/17 222/62/17 223/53/17
f 222/62/16 218/59/16 221/61/16
f 218/59/18 220/63/18 217/60/18
f 224/126/1 234/87/1 222/89/1
f 228/95/2 227/90/2 225/92/2
f 220/127/18 218/93/18 226/91/18
f 218/128/16 222/94/16 225/92/16
f 224/126/13 220/96/13 227/90/13
f 232/106/2 231/97/2 229/99/2
f 236/112/16 233/100/16 240/102/16
f 224/126/13 227/90/13 234/87/13
f 232/106/16 229/99/16 236/104/16
f 230/98/13 231/97/13 234/87/13
f 231/97/17 232/106/17 235/108/17
f 227/90/2 228/95/2 230/98/2
f 234/115/13 235/109/13 238/111/13
f 235/109/17 236/112/17 239/110/17
f 233/100/18 234/113/18 237/101/18
f 228/95/16 222/94/16 229/99/16
f 244/122/13 248/52/13 243/54/13
f 248/52/17 246/62/17 247/53/17
f 246/62/16 242/59/16 245/61/16
f 242/59/18 244/63/18 241/60/18
f 248/126/1 258/87/1 246/89/1
f 252/95/2 251/90/2 249/92/2
f 244/127/18 242/93/18 250/91/18
f 242/128/16 246/94/16 249/92/16
f 248/126/13 244/96/13 251/90/13
f 256/106/2 255/97/2 253/99/2
f 260/102/16 257/110/16 264/112/16
f 248/126/13 251/90/13 258/87/13
f 256/106/16 253/99/16 260/104/16
f 254/98/13 255/97/13 258/87/13
f 255/97/17 256/106/17 259/108/17
f 251/90/2 252/95/2 254/98/2
f 258/114/13 259/101/13 262/113/13
f 259/101/17 260/102/17 263/100/17
f 257/110/18 258/111/18 261/109/18
f 252/95/16 246/94/16 253/99/16
