# Blender v2.76 (sub 0) OBJ File: 'chemplant_piston.blend'
# www.blender.org
o Cube.001_Cube.002
v 0.427500 2.000000 -0.427500
v 0.427500 2.000000 -0.822500
v 0.822500 2.000000 -0.427500
v 0.822500 2.000000 -0.822500
v 0.427500 2.150000 -0.427500
v 0.427500 2.150000 -0.822500
v 0.822500 2.150000 -0.822500
v 0.822500 2.150000 -0.427500
v 0.476875 2.000000 -0.476875
v 0.476875 2.000000 -0.773125
v 0.773125 2.000000 -0.773125
v 0.773125 2.000000 -0.476875
v 0.476875 1.500000 -0.476875
v 0.476875 1.500000 -0.773125
v 0.773125 1.500000 -0.773125
v 0.773125 1.500000 -0.476875
v -0.822500 2.000000 -0.427500
v -0.822500 2.000000 -0.822500
v -0.427500 2.000000 -0.427500
v -0.427500 2.000000 -0.822500
v -0.822500 2.150000 -0.427500
v -0.822500 2.150000 -0.822500
v -0.427500 2.150000 -0.822500
v -0.427500 2.150000 -0.427500
v -0.773125 2.000000 -0.476875
v -0.773125 2.000000 -0.773125
v -0.476875 2.000000 -0.773125
v -0.476875 2.000000 -0.476875
v -0.773125 1.500000 -0.476875
v -0.773125 1.500000 -0.773125
v -0.476875 1.500000 -0.773125
v -0.476875 1.500000 -0.476875
vt 0.263926 0.442748
vt 0.248840 0.427662
vt 0.248840 0.337146
vt 0.309756 0.322060
vt 0.430444 0.322060
vt 0.430444 0.442748
vt 0.263926 0.322060
vt 0.309756 0.442748
vt 0.476275 0.442748
vt 0.309756 0.488579
vt 0.430444 0.276229
vt 0.415358 0.503665
vt 0.415358 0.656434
vt 0.324842 0.656434
vt 0.476275 0.322060
vt 0.491361 0.337146
vt 0.491361 0.427662
vt 0.430444 0.488579
vt 0.324842 0.503664
vt 0.309756 0.276230
vt 0.324842 0.261143
vt 0.415358 0.261144
vt 0.324842 0.108374
vt 0.415358 0.108374
vt 0.096070 0.427662
vt 0.096071 0.337146
vt 0.644130 0.337146
vt 0.644130 0.427662
vt 0.847582 0.752895
vt 0.847582 0.774230
vt 0.783577 0.838234
vt 0.729835 0.805827
vt 0.644497 0.720488
vt 0.729836 0.635149
vt 0.762243 0.838234
vt 0.815175 0.720488
vt 0.697428 0.602742
vt 0.847582 0.688081
vt 0.612089 0.752895
vt 0.783578 0.602742
vt 0.891602 0.494718
vt 0.955606 0.558722
vt 0.612089 0.688081
vt 0.612089 0.666746
vt 0.676094 0.602742
vt 0.762243 0.602742
vt 0.847582 0.666746
vt 0.697428 0.838234
vt 0.676093 0.838234
vt 0.612089 0.774230
vt 0.568069 0.946258
vt 0.504065 0.882254
vt 0.955606 0.882254
vt 0.891601 0.946258
vt 0.504065 0.558721
vt 0.568070 0.494717
vn 0.000000 -1.000000 0.000000
vn 0.000000 1.000000 0.000000
vn 1.000000 0.000000 0.000000
vn -1.000000 0.000000 0.000000
vn 0.000000 0.000000 1.000000
vn 0.000000 0.000000 -1.000000
s off
f 3/1/1 12/2/1 11/3/1
f 7/4/2 6/5/2 5/6/2
f 4/7/3 7/4/3 8/8/3
f 1/9/4 5/6/4 6/5/4
f 3/10/5 8/8/5 5/6/5
f 2/11/6 6/5/6 7/4/6
f 9/12/5 13/13/5 16/14/5
f 2/15/1 10/16/1 9/17/1
f 1/18/1 9/12/1 12/19/1
f 4/20/1 11/21/1 10/22/1
f 11/21/6 15/23/6 14/24/6
f 12/2/3 16/25/3 15/26/3
f 10/16/4 14/27/4 13/28/4
f 19/29/1 28/30/1 27/31/1
f 23/32/2 22/33/2 21/34/2
f 20/35/3 23/32/3 24/36/3
f 17/37/4 21/34/4 22/33/4
f 19/38/5 24/36/5 21/34/5
f 18/39/6 22/33/6 23/32/6
f 25/40/5 29/41/5 32/42/5
f 18/43/1 26/44/1 25/45/1
f 17/46/1 25/40/1 28/47/1
f 20/48/1 27/49/1 26/50/1
f 27/49/6 31/51/6 30/52/6
f 28/30/3 32/53/3 31/54/3
f 26/44/4 30/55/4 29/56/4
f 4/7/1 3/1/1 11/3/1
f 8/8/2 7/4/2 5/6/2
f 3/1/3 4/7/3 8/8/3
f 2/15/4 1/9/4 6/5/4
f 1/18/5 3/10/5 5/6/5
f 4/20/6 2/11/6 7/4/6
f 12/19/5 9/12/5 16/14/5
f 1/9/1 2/15/1 9/17/1
f 3/10/1 1/18/1 12/19/1
f 2/11/1 4/20/1 10/22/1
f 10/22/6 11/21/6 14/24/6
f 11/3/3 12/2/3 15/26/3
f 9/17/4 10/16/4 13/28/4
f 20/35/1 19/29/1 27/31/1
f 24/36/2 23/32/2 21/34/2
f 19/29/3 20/35/3 24/36/3
f 18/43/4 17/37/4 22/33/4
f 17/46/5 19/38/5 21/34/5
f 20/48/6 18/39/6 23/32/6
f 28/47/5 25/40/5 32/42/5
f 17/37/1 18/43/1 25/45/1
f 19/38/1 17/46/1 28/47/1
f 18/39/1 20/48/1 26/50/1
f 26/50/6 27/49/6 30/52/6
f 27/31/3 28/30/3 31/54/3
f 25/45/4 26/44/4 29/56/4
