# Blender v2.76 (sub 0) OBJ File: 'cwis_rotor.blend'
# www.blender.org
o Cylinder.001
v 0.000000 0.250000 -1.000000
v 0.000000 0.375000 -1.000000
v 0.500000 0.250000 -0.866025
v 0.500000 0.375000 -0.866025
v 0.866025 0.250000 -0.500000
v 0.866025 0.375000 -0.500000
v 1.000000 0.250000 0.000000
v 1.000000 0.375000 0.000000
v 0.866025 0.250000 0.500000
v 0.866025 0.375000 0.500000
v 0.500000 0.250000 0.866025
v 0.500000 0.375000 0.866025
v 0.000000 0.250000 1.000000
v 0.000000 0.375000 1.000000
v -0.500000 0.250000 0.866026
v -0.500000 0.375000 0.866026
v -0.866025 0.250000 0.500000
v -0.866025 0.375000 0.500000
v -1.000000 0.250000 0.000000
v -1.000000 0.375000 0.000000
v -0.866026 0.250000 -0.499999
v -0.866026 0.375000 -0.499999
v -0.500001 0.250000 -0.866025
v -0.500001 0.375000 -0.866025
v 0.500000 0.375000 0.500000
v 0.850000 0.375000 0.500000
v 0.500000 0.375000 -0.500000
v 0.850000 0.375000 -0.500000
v 0.500000 1.875000 -0.325000
v 0.500000 1.875000 0.325000
v 0.850000 1.875000 0.325000
v 0.850000 1.875000 -0.325000
v -0.850000 0.375000 0.500000
v -0.500000 0.375000 0.500000
v -0.850000 0.375000 -0.500000
v -0.500000 0.375000 -0.500000
v -0.850000 1.875000 -0.325000
v -0.850000 1.875000 0.325000
v -0.500000 1.875000 0.325000
v -0.500000 1.875000 -0.325000
vt 0.447419 0.884668
vt 0.375998 0.884668
vt 0.375998 0.867421
vt 0.304576 0.884668
vt 0.304576 0.867421
vt 0.233155 0.884668
vt 0.233155 0.867421
vt 0.161734 0.884668
vt 0.161734 0.867421
vt 0.090312 0.884668
vt 0.090312 0.867421
vt 0.018891 0.884668
vt 0.018891 0.867421
vt 0.485201 0.867421
vt 0.556623 0.867421
vt 0.556623 0.884668
vt 0.628044 0.867421
vt 0.628044 0.884668
vt 0.699465 0.867421
vt 0.699465 0.884668
vt 0.770886 0.867421
vt 0.770886 0.884668
vt 0.054602 0.793928
vt 0.116454 0.563091
vt 0.285439 0.732075
vt 0.842308 0.867421
vt 0.913729 0.867421
vt 0.913729 0.884668
vt 0.842308 0.884668
vt 0.589769 0.732075
vt 0.323221 0.660654
vt 0.420785 0.563091
vt 0.274146 0.227258
vt 0.274146 0.316942
vt 0.225854 0.316942
vt 0.774146 0.227258
vt 0.774146 0.316942
vt 0.725854 0.316942
vt 0.518891 0.203112
vt 0.725854 0.227258
vt 0.725854 0.525308
vt 0.774146 0.018891
vt 0.981109 0.341087
vt 0.018891 0.203112
vt 0.225854 0.227258
vt 0.225854 0.525308
vt 0.274146 0.018891
vt 0.481109 0.341087
vt 0.447419 0.867421
vt 0.485201 0.884668
vt 0.249728 0.793928
vt 0.187876 0.829639
vt 0.116454 0.829638
vt 0.018891 0.732075
vt 0.018891 0.660654
vt 0.054602 0.598801
vt 0.187876 0.563091
vt 0.249728 0.598801
vt 0.285439 0.660654
vt 0.492206 0.563091
vt 0.554059 0.598801
vt 0.589769 0.660654
vt 0.554059 0.793928
vt 0.492206 0.829638
vt 0.420785 0.829638
vt 0.358932 0.793928
vt 0.323221 0.732075
vt 0.358932 0.598801
vt 0.518891 0.341087
vt 0.774145 0.525308
vt 0.725854 0.018891
vt 0.981109 0.203112
vt 0.018891 0.341087
vt 0.274145 0.525308
vt 0.225854 0.018891
vt 0.481109 0.203112
vn 0.258800 0.000000 -0.965900
vn 0.707100 0.000000 -0.707100
vn 0.965900 0.000000 -0.258800
vn 0.965900 0.000000 0.258800
vn 0.707100 0.000000 0.707100
vn 0.258800 0.000000 0.965900
vn -0.258800 0.000000 0.965900
vn -0.707100 0.000000 0.707100
vn -0.965900 0.000000 0.258800
vn -0.965900 0.000000 -0.258800
vn 0.000000 1.000000 0.000000
vn -0.258800 0.000000 -0.965900
vn -0.707100 0.000000 -0.707100
vn 0.000000 -1.000000 0.000000
vn -1.000000 0.000000 0.000000
vn 0.000000 0.115900 -0.993300
vn 0.000000 0.115900 0.993300
vn 1.000000 0.000000 0.000000
s off
f 2/1/1 4/2/1 3/3/1
f 4/2/2 6/4/2 5/5/2
f 6/4/3 8/6/3 7/7/3
f 8/6/4 10/8/4 9/9/4
f 10/8/5 12/10/5 11/11/5
f 12/10/6 14/12/6 13/13/6
f 14/14/7 16/15/7 15/16/7
f 16/15/8 18/17/8 17/18/8
f 18/17/9 20/19/9 19/20/9
f 20/19/10 22/21/10 21/22/10
f 22/23/11 14/24/11 6/25/11
f 24/26/12 2/27/12 1/28/12
f 22/21/13 24/26/13 23/29/13
f 7/30/14 19/31/14 23/32/14
f 39/33/11 40/34/11 37/35/11
f 31/36/11 32/37/11 29/38/11
f 25/39/15 30/40/15 29/38/15
f 27/41/16 29/38/16 32/37/16
f 26/42/17 31/36/17 30/40/17
f 28/43/18 32/37/18 31/36/18
f 33/44/15 38/45/15 37/35/15
f 35/46/16 37/35/16 40/34/16
f 34/47/17 39/33/17 38/45/17
f 36/48/18 40/34/18 39/33/18
f 1/49/1 2/1/1 3/3/1
f 3/3/2 4/2/2 5/5/2
f 5/5/3 6/4/3 7/7/3
f 7/7/4 8/6/4 9/9/4
f 9/9/5 10/8/5 11/11/5
f 11/11/6 12/10/6 13/13/6
f 13/50/7 14/14/7 15/16/7
f 15/16/8 16/15/8 17/18/8
f 17/18/9 18/17/9 19/20/9
f 19/20/10 20/19/10 21/22/10
f 6/25/11 4/51/11 2/52/11
f 2/52/11 24/53/11 22/23/11
f 22/23/11 20/54/11 18/55/11
f 18/55/11 16/56/11 14/24/11
f 14/24/11 12/57/11 10/58/11
f 10/58/11 8/59/11 6/25/11
f 6/25/11 2/52/11 22/23/11
f 22/23/11 18/55/11 14/24/11
f 14/24/11 10/58/11 6/25/11
f 23/29/12 24/26/12 1/28/12
f 21/22/13 22/21/13 23/29/13
f 23/32/14 1/60/14 3/61/14
f 3/61/14 5/62/14 7/30/14
f 7/30/14 9/63/14 11/64/14
f 11/64/14 13/65/14 15/66/14
f 15/66/14 17/67/14 19/31/14
f 19/31/14 21/68/14 23/32/14
f 23/32/14 3/61/14 7/30/14
f 7/30/14 11/64/14 15/66/14
f 15/66/14 19/31/14 7/30/14
f 38/45/11 39/33/11 37/35/11
f 30/40/11 31/36/11 29/38/11
f 27/69/15 25/39/15 29/38/15
f 28/70/16 27/41/16 32/37/16
f 25/71/17 26/42/17 30/40/17
f 26/72/18 28/43/18 31/36/18
f 35/73/15 33/44/15 37/35/15
f 36/74/16 35/46/16 40/34/16
f 33/75/17 34/47/17 38/45/17
f 34/76/18 36/48/18 39/33/18
