# Blender v2.76 (sub 0) OBJ File: 'cwis_base.blend'
# www.blender.org
o Cube_Cube.001
v -1.000000 0.000000 1.000000
v -1.000000 0.250000 1.000000
v -1.000000 0.000000 -1.000000
v -1.000000 0.250000 -1.000000
v 1.000000 0.000000 1.000000
v 1.000000 0.250000 1.000000
v 1.000000 0.000000 -1.000000
v 1.000000 0.250000 -1.000000
vt 0.444444 0.444444
vt 0.444444 0.500000
vt 0.000000 0.500000
vt 0.888889 0.444444
vt 0.888889 0.500000
vt 0.444444 1.000000
vt 0.444444 0.944444
vt 0.888888 0.944444
vt 0.000000 1.000000
vt 0.000000 0.944444
vt 0.444444 0.000000
vt 0.000000 0.444444
vt 0.888888 1.000000
vt 0.000000 0.000000
vn -1.000000 0.000000 0.000000
vn 0.000000 0.000000 -1.000000
vn 1.000000 0.000000 0.000000
vn 0.000000 0.000000 1.000000
vn 0.000000 -1.000000 0.000000
vn 0.000000 1.000000 0.000000
s off
f 4/1/1 3/2/1 1/3/1
f 8/4/2 7/5/2 3/2/2
f 6/6/3 5/7/3 7/8/3
f 2/9/4 1/10/4 5/7/4
f 3/2/5 7/7/5 5/10/5
f 8/11/6 4/1/6 2/12/6
f 2/12/1 4/1/1 1/3/1
f 4/1/2 8/4/2 3/2/2
f 8/13/3 6/6/3 7/8/3
f 6/6/4 2/9/4 5/7/4
f 1/3/5 3/2/5 5/10/5
f 6/14/6 8/11/6 2/12/6
