# Blender v2.76 (sub 0) OBJ File: 'FatMan.blend'
# www.blender.org
o Cube.002_Cube.004
v 1.700000 1.100000 0.350000
v 1.700000 0.400000 0.350000
v 1.700000 1.100000 -0.350000
v 1.700000 0.400000 -0.350000
v 1.300000 1.050000 0.000000
v 1.700000 1.050000 0.000001
v 1.300000 0.992705 -0.176335
v 1.700000 0.992705 -0.176335
v 1.300000 0.842705 -0.285317
v 1.700000 0.842705 -0.285317
v 1.300000 0.657295 -0.285317
v 1.700000 0.657295 -0.285317
v 1.300000 0.507295 -0.176336
v 1.700000 0.507295 -0.176336
v 1.300000 0.450000 -0.000000
v 1.700000 0.450000 0.000000
v 1.300000 0.507295 0.176335
v 1.700000 0.507295 0.176336
v 1.300000 0.657295 0.285317
v 1.700000 0.657295 0.285317
v 1.300000 0.842705 0.285317
v 1.700000 0.842705 0.285317
v 1.300000 0.992705 0.176336
v 1.700000 0.992705 0.176336
v 1.300000 0.100000 0.650000
v 1.300000 0.100000 -0.650000
v 1.900000 0.100000 -0.650000
v 1.900000 0.100000 0.650000
v 1.300000 1.400000 0.650000
v 1.300000 1.400000 -0.650000
v 1.900000 1.400000 -0.650000
v 1.900000 1.400000 0.650000
v 1.300000 0.000000 0.750000
v 1.900000 0.000000 0.750000
v 1.300000 1.500000 0.750000
v 1.900000 1.500000 0.750000
v 1.300000 0.000000 -0.750000
v 1.900000 0.000000 -0.750000
v 1.300000 1.500000 -0.750000
v 1.900000 1.500000 -0.750000
v 1.300000 0.750000 0.650000
v 1.900000 0.750000 0.650000
v 1.900000 0.750000 -0.650000
v 1.300000 0.750000 -0.650000
v 1.300000 0.100000 -0.000000
v 1.900000 0.100000 -0.000000
v 1.300000 1.400000 -0.000000
v 1.900000 1.400000 -0.000000
v 0.900000 0.750000 -0.150000
v 1.700000 0.750000 -0.150000
v 0.899999 0.643934 -0.106066
v 1.700000 0.643934 -0.106066
v 0.899999 0.600000 0.000000
v 1.700000 0.600000 0.000000
v 0.899999 0.643934 0.106066
v 1.700000 0.643934 0.106066
v 0.900000 0.750000 0.150000
v 1.700000 0.750000 0.150000
v 0.900000 0.856066 0.106066
v 1.700000 0.856066 0.106066
v 0.900000 0.900000 0.000000
v 1.700000 0.900000 0.000000
v 0.900000 0.856066 -0.106066
v 1.700000 0.856066 -0.106066
v -0.850000 1.000000 -0.250000
v -0.850000 1.000000 -0.350000
v -0.550000 1.000000 -0.350000
v -0.550000 1.000000 -0.250000
v -0.850000 1.100000 -0.250000
v -0.850000 1.100000 -0.350000
v -0.550000 1.100000 -0.350000
v -0.550000 1.100000 -0.250000
v -0.850000 1.000000 0.350000
v -0.850000 1.000000 0.250000
v -0.550000 1.000000 0.250000
v -0.550000 1.000000 0.350000
v -0.850000 1.100000 0.350000
v -0.850000 1.100000 0.250000
v -0.550000 1.100000 0.250000
v -0.550000 1.100000 0.350000
v -0.850000 0.400000 -0.250000
v -0.850000 0.400000 -0.350000
v -0.550000 0.400000 -0.350000
v -0.550000 0.400000 -0.250000
v -0.850000 0.500000 -0.250000
v -0.850000 0.500000 -0.350000
v -0.550000 0.500000 -0.350000
v -0.550000 0.500000 -0.250000
v -0.850000 0.400000 0.350000
v -0.850000 0.400000 0.250000
v -0.550000 0.400000 0.250000
v -0.550000 0.400000 0.350000
v -0.850000 0.500000 0.350000
v -0.850000 0.500000 0.250000
v -0.550000 0.500000 0.250000
v -0.550000 0.500000 0.350000
v 0.382684 1.442910 0.000000
v 0.000001 1.500000 0.000000
v -0.382683 1.442910 0.000000
v -0.707106 1.280330 0.000000
v -0.923879 1.037013 0.000000
v -0.999999 0.750000 0.000000
v 0.382684 1.310576 -0.407282
v 0.000001 1.356763 -0.440839
v -0.382683 1.310576 -0.407282
v -0.707106 1.179046 -0.311720
v -0.923879 0.982198 -0.168702
v 0.382684 0.964121 -0.658996
v 0.000001 0.981763 -0.713292
v -0.382683 0.964121 -0.658996
v -0.707106 0.913881 -0.504374
v -0.923879 0.838692 -0.272965
v 0.382684 0.535880 -0.658996
v 0.000001 0.518238 -0.713292
v -0.382683 0.535880 -0.658996
v -0.707106 0.586119 -0.504374
v -0.923879 0.661309 -0.272965
v 0.382684 0.189425 -0.407282
v 0.000001 0.143238 -0.440839
v -0.382683 0.189425 -0.407282
v -0.707106 0.320954 -0.311720
v -0.923879 0.517802 -0.168702
v 0.382684 0.057091 0.000000
v 0.000001 0.000000 0.000000
v -0.382683 0.057091 0.000000
v -0.707106 0.219670 0.000000
v -0.923879 0.462988 0.000000
v 0.382684 0.189425 0.407282
v 0.000001 0.143238 0.440839
v -0.382683 0.189425 0.407282
v -0.707106 0.320954 0.311720
v -0.923879 0.517802 0.168702
v 0.382684 0.535880 0.658996
v 0.000001 0.518238 0.713292
v -0.382683 0.535880 0.658996
v -0.707106 0.586119 0.504374
v -0.923879 0.661309 0.272965
v 0.382684 0.964121 0.658996
v 0.000001 0.981763 0.713292
v -0.382683 0.964121 0.658996
v -0.707106 0.913881 0.504374
v -0.923879 0.838692 0.272965
v 0.382684 1.310576 0.407282
v 0.000001 1.356763 0.440839
v -0.382683 1.310576 0.407282
v -0.707106 1.179046 0.311720
v -0.923879 0.982198 0.168702
vt 0.988701 0.847760
vt 0.988701 0.905908
vt 0.863256 0.905908
vt 0.863220 0.847759
vt 0.863239 0.905906
vt 0.022598 0.714404
vt 0.106492 0.714404
vt 0.098481 0.739059
vt 0.022598 0.568772
vt 0.106492 0.568772
vt 0.106492 0.659658
vt 0.706128 0.609077
vt 0.706128 0.699962
vt 0.622234 0.699962
vt 0.725194 0.211026
vt 0.725194 0.301911
vt 0.641300 0.301911
vt 0.212229 0.568772
vt 0.212229 0.652667
vt 0.121344 0.652667
vt 0.022598 0.315025
vt 0.127466 0.301043
vt 0.232334 0.315025
vt 0.471773 0.147236
vt 0.541685 0.105289
vt 0.541685 0.196174
vt 0.626448 0.245113
vt 0.556536 0.287060
vt 0.556536 0.196174
vt 0.064545 0.553921
vt 0.022598 0.484009
vt 0.113483 0.484009
vt 0.456922 0.315025
vt 0.442939 0.301042
vt 0.442939 0.210157
vt 0.127466 0.119271
vt 0.022598 0.105289
vt 0.232334 0.105289
vt 0.456921 0.105289
vt 0.352054 0.119271
vt 0.247185 0.105289
vt 0.774794 0.329876
vt 0.774794 0.420762
vt 0.690899 0.420762
vt 0.218352 0.210157
vt 0.218352 0.119271
vt 0.442070 0.090437
vt 0.232334 0.090437
vt 0.232334 0.006543
vt 0.725194 0.105289
vt 0.725194 0.196174
vt 0.641300 0.196174
vt 0.036580 0.210157
vt 0.352053 0.301042
vt 0.651806 0.006543
vt 0.861541 0.006543
vt 0.861541 0.090437
vt 0.556328 0.639248
vt 0.556328 0.723142
vt 0.465443 0.723142
vt 0.022598 0.090437
vt 0.212229 0.667518
vt 0.212229 0.751413
vt 0.121344 0.751413
vt 0.442070 0.006543
vt 0.651806 0.090437
vt 0.261168 0.210157
vt 0.247185 0.315025
vt 0.380680 0.329876
vt 0.408644 0.437434
vt 0.324750 0.437434
vt 0.535321 0.539633
vt 0.465443 0.452286
vt 0.554974 0.452286
vt 0.130858 0.441010
vt 0.022598 0.469158
vt 0.049663 0.350987
vt 0.709581 0.524347
vt 0.622234 0.594225
vt 0.622234 0.504694
vt 0.253969 0.441010
vt 0.145709 0.469158
vt 0.172774 0.350987
vt 0.535355 0.437434
vt 0.423496 0.437434
vt 0.479425 0.329876
vt 0.577302 0.554484
vt 0.605267 0.624397
vt 0.521372 0.624397
vt 0.356168 0.609111
vt 0.268820 0.678989
vt 0.268820 0.589458
vt 0.408644 0.452286
vt 0.450592 0.522198
vt 0.359706 0.522198
vt 0.906630 0.571602
vt 0.896743 0.561715
vt 0.906630 0.551828
vt 0.876969 0.601264
vt 0.867082 0.591377
vt 0.916517 0.561715
vt 0.936291 0.522167
vt 0.867082 0.532054
vt 0.876969 0.522167
vt 0.936291 0.601264
vt 0.906630 0.665550
vt 0.896743 0.655663
vt 0.906630 0.645776
vt 0.876969 0.695211
vt 0.867082 0.685324
vt 0.916517 0.655663
vt 0.936291 0.616115
vt 0.867082 0.626002
vt 0.876969 0.616115
vt 0.936291 0.695211
vt 0.896919 0.464638
vt 0.906806 0.454751
vt 0.916693 0.464638
vt 0.867258 0.434977
vt 0.877145 0.425090
vt 0.906806 0.474525
vt 0.946354 0.494299
vt 0.936467 0.425090
vt 0.946354 0.434977
vt 0.867258 0.494299
vt 0.913788 0.349949
vt 0.913788 0.363931
vt 0.899806 0.363931
vt 0.955735 0.349949
vt 0.955735 0.363931
vt 0.899806 0.349949
vt 0.857859 0.363931
vt 0.913788 0.405878
vt 0.899806 0.405878
vt 0.913788 0.308001
vt 0.197478 0.825439
vt 0.197478 0.928229
vt 0.098037 0.904649
vt 0.431403 0.804150
vt 0.431403 0.949518
vt 0.310187 0.943985
vt 0.310187 0.809683
vt 0.552620 0.809683
vt 0.552620 0.943985
vt 0.310150 0.809683
vt 0.197442 0.928230
vt 0.197442 0.825440
vt 0.098001 0.904650
vt 0.098018 0.849020
vt 0.431386 0.804150
vt 0.009166 0.876834
vt 0.009129 0.876836
vt 0.863256 0.847760
vt 0.077507 0.754298
vt 0.051583 0.754298
vt 0.030609 0.739059
vt 0.030609 0.689748
vt 0.051583 0.674509
vt 0.077507 0.674509
vt 0.098481 0.689748
vt 0.022598 0.659658
vt 0.622234 0.609077
vt 0.641300 0.211026
vt 0.121344 0.568772
vt 0.218352 0.301043
vt 0.036581 0.301043
vt 0.541685 0.287060
vt 0.471773 0.245113
vt 0.556536 0.105289
vt 0.626448 0.147236
vt 0.204369 0.484009
vt 0.162422 0.553921
vt 0.442939 0.119271
vt 0.036580 0.119272
vt 0.261168 0.119271
vt 0.690899 0.329876
vt 0.641300 0.105289
vt 0.261168 0.301042
vt 0.465443 0.639248
vt 0.022598 0.006543
vt 0.121344 0.667518
vt 0.268820 0.329876
vt 0.607382 0.517796
vt 0.130858 0.329876
vt 0.687744 0.452286
vt 0.253969 0.329876
vt 0.563320 0.329876
vt 0.465443 0.554485
vt 0.334331 0.537049
vt 0.268820 0.522198
vt 0.310768 0.452286
vt 0.946178 0.532054
vt 0.946178 0.591377
vt 0.946178 0.626002
vt 0.946178 0.685324
vt 0.936467 0.504186
vt 0.877145 0.504186
vt 0.857859 0.349949
vt 0.899806 0.308001
vn 0.000000 0.951100 -0.309000
vn 0.000000 0.587800 -0.809000
vn 0.000000 0.000000 -1.000000
vn 0.000000 -0.587800 -0.809000
vn 0.000000 -0.951100 -0.309000
vn -0.000000 -0.951100 0.309000
vn -0.000000 -0.587800 0.809000
vn -0.000000 -0.000000 1.000000
vn 1.000000 0.000000 0.000000
vn -0.000000 0.951100 0.309000
vn -0.000000 0.587800 0.809000
vn 0.000000 1.000000 0.000000
vn 0.000000 -1.000000 0.000000
vn -0.600000 0.000000 -0.800000
vn -0.600000 0.000000 0.800000
vn -0.600000 -0.800000 0.000000
vn -1.000000 0.000000 0.000000
vn 0.000000 0.707100 0.707100
vn -0.000000 -0.707100 0.707100
vn 0.000000 0.707100 -0.707100
vn -0.600000 0.800000 0.000000
vn -0.729800 0.650200 -0.211300
vn -0.140500 0.941600 -0.306000
vn -0.430200 0.858500 -0.279000
vn 0.140500 0.941600 -0.306000
vn -0.140500 0.582000 -0.801000
vn -0.430200 0.530600 -0.730300
vn 0.140500 0.582000 -0.801000
vn -0.729800 0.401800 -0.553100
vn -0.430200 0.000000 -0.902700
vn 0.140500 0.000000 -0.990100
vn -0.729800 0.000000 -0.683700
vn -0.140500 0.000000 -0.990100
vn 0.140500 -0.582000 -0.801000
vn -0.729800 -0.401800 -0.553100
vn -0.140500 -0.582000 -0.801000
vn -0.430200 -0.530600 -0.730300
vn -0.729800 -0.650200 -0.211300
vn -0.140500 -0.941600 -0.306000
vn -0.430200 -0.858500 -0.279000
vn 0.140500 -0.941600 -0.306000
vn -0.430200 -0.858500 0.279000
vn 0.140500 -0.941600 0.306000
vn -0.729800 -0.650200 0.211300
vn -0.140500 -0.941600 0.306000
vn -0.430200 -0.530600 0.730300
vn 0.140500 -0.582000 0.801000
vn -0.729800 -0.401800 0.553100
vn -0.140500 -0.582000 0.801000
vn -0.729800 0.000000 0.683700
vn -0.140500 0.000000 0.990100
vn -0.430200 0.000000 0.902700
vn 0.140500 0.000000 0.990100
vn -0.729800 0.401800 0.553100
vn -0.140500 0.582000 0.801000
vn -0.430200 0.530600 0.730300
vn 0.140500 0.582000 0.801000
vn -0.963200 0.255500 -0.083000
vn -0.963200 0.157900 -0.217300
vn -0.963200 0.000000 -0.268600
vn 0.377300 0.880800 0.286200
vn 0.377300 0.880800 -0.286200
vn -0.963200 -0.157900 -0.217300
vn 0.377300 0.544400 -0.749200
vn -0.963200 -0.255500 -0.083000
vn 0.377300 0.000000 -0.926100
vn -0.963200 -0.255500 0.083000
vn -0.963200 -0.157900 0.217300
vn 0.377300 -0.544400 -0.749200
vn 0.377300 -0.880800 -0.286200
vn -0.963200 0.000000 0.268600
vn 0.377300 -0.880800 0.286200
vn -0.963200 0.157900 0.217300
vn 0.377300 -0.544400 0.749200
vn -0.963200 0.255500 0.083000
vn -0.430200 0.858500 0.279000
vn 0.140500 0.941600 0.306000
vn 0.377300 0.000000 0.926100
vn -0.729800 0.650200 0.211300
vn -0.140500 0.941600 0.306000
vn 0.377300 0.544400 0.749200
s off
f 6/1/1 8/2/1 7/3/1
f 7/4/2 8/1/2 10/2/2
f 10/1/3 12/2/3 11/3/3
f 12/1/4 14/2/4 13/3/4
f 13/4/5 14/1/5 16/2/5
f 16/1/6 18/2/6 17/5/6
f 17/4/7 18/1/7 20/2/7
f 20/1/8 22/2/8 21/5/8
f 22/6/9 12/7/9 10/8/9
f 23/4/10 24/1/10 6/2/10
f 22/1/11 24/2/11 23/3/11
f 27/9/12 26/10/12 45/11/12
f 43/12/8 31/13/8 30/14/8
f 41/15/3 29/16/3 32/17/3
f 30/18/13 31/19/13 48/20/13
f 36/21/9 48/22/9 40/23/9
f 2/24/14 25/25/14 41/26/14
f 3/27/15 30/28/15 44/29/15
f 1/30/16 29/31/16 47/32/16
f 33/33/17 25/34/17 45/35/17
f 46/36/9 34/37/9 38/38/9
f 37/39/17 44/40/17 39/41/17
f 25/42/3 41/43/3 42/44/3
f 43/45/9 27/46/9 38/38/9
f 40/47/3 38/48/3 37/49/3
f 27/50/8 43/51/8 44/52/8
f 36/21/9 34/37/9 42/53/9
f 41/54/17 25/34/17 33/33/17
f 35/55/8 33/56/8 34/57/8
f 46/58/12 45/59/12 25/60/12
f 37/49/13 38/48/13 34/61/13
f 47/62/13 48/63/13 32/64/13
f 39/65/12 35/55/12 36/66/12
f 39/41/17 47/67/17 35/68/17
f 64/69/18 31/70/18 30/71/18
f 50/72/13 49/73/13 44/74/13
f 52/75/19 51/76/19 26/77/19
f 54/78/8 53/79/8 45/80/8
f 56/81/18 55/82/18 25/83/18
f 60/84/20 59/85/20 29/86/20
f 62/87/8 48/88/8 47/89/8
f 58/90/12 57/91/12 41/92/12
f 4/93/21 26/94/21 45/95/21
f 70/96/17 66/97/17 65/98/17
f 71/99/3 67/100/3 66/97/3
f 69/101/8 65/98/8 68/102/8
f 66/97/13 67/103/13 68/104/13
f 71/105/12 70/96/12 69/101/12
f 78/106/17 74/107/17 73/108/17
f 79/109/3 75/110/3 74/107/3
f 77/111/8 73/108/8 76/112/8
f 74/107/13 75/113/13 76/114/13
f 79/115/12 78/106/12 77/111/12
f 86/116/17 82/117/17 81/118/17
f 87/119/3 83/120/3 82/117/3
f 85/121/8 81/118/8 84/122/8
f 82/117/13 83/123/13 84/124/13
f 87/125/12 86/116/12 85/121/12
f 94/126/17 90/127/17 89/128/17
f 95/129/3 91/130/3 90/127/3
f 93/131/8 89/128/8 92/132/8
f 90/127/13 91/133/13 92/134/13
f 95/135/12 94/126/12 93/131/12
f 100/136/22 106/137/22 107/138/22
f 98/139/23 104/140/23 105/141/23
f 100/136/24 99/142/24 105/141/24
f 97/143/25 103/144/25 104/140/25
f 104/139/26 109/140/26 110/141/26
f 105/145/27 110/141/27 111/146/27
f 103/143/28 108/144/28 109/140/28
f 106/147/29 111/146/29 112/148/29
f 110/142/30 115/141/30 116/137/30
f 108/143/31 113/144/31 114/140/31
f 111/136/32 116/137/32 117/148/32
f 110/142/33 109/139/33 114/140/33
f 114/139/34 113/143/34 118/144/34
f 116/136/35 121/137/35 122/138/35
f 114/139/36 119/140/36 120/141/36
f 115/142/37 120/141/37 121/137/37
f 122/149/38 121/136/38 126/137/38
f 119/139/39 124/140/39 125/141/39
f 120/142/40 125/141/40 126/137/40
f 118/143/41 123/144/41 124/140/41
f 125/142/42 130/141/42 131/137/42
f 123/143/43 128/144/43 129/140/43
f 126/136/44 131/137/44 132/138/44
f 125/142/45 124/150/45 129/140/45
f 131/136/46 130/142/46 135/141/46
f 128/143/47 133/144/47 134/140/47
f 131/136/48 136/137/48 137/138/48
f 129/139/49 134/140/49 135/141/49
f 136/136/50 141/137/50 142/148/50
f 135/142/51 134/139/51 139/140/51
f 136/136/52 135/142/52 140/141/52
f 133/143/53 138/144/53 139/140/53
f 142/149/54 141/136/54 146/137/54
f 140/142/55 139/139/55 144/140/55
f 140/142/56 145/141/56 146/137/56
f 138/143/57 143/144/57 144/140/57
f 102/151/58 101/149/58 107/138/58
f 102/152/59 107/149/59 112/148/59
f 102/151/60 112/149/60 117/148/60
f 97/144/61 143/143/61 23/4/61
f 5/153/62 7/3/62 103/144/62
f 102/151/63 117/149/63 122/138/63
f 9/5/64 108/144/64 103/143/64
f 102/152/65 122/149/65 127/138/65
f 113/144/66 108/143/66 9/153/66
f 102/152/67 127/149/67 132/138/67
f 102/151/68 132/149/68 137/138/68
f 13/3/69 118/144/69 113/143/69
f 15/5/70 123/144/70 118/143/70
f 102/151/71 137/149/71 142/148/71
f 17/5/72 128/144/72 123/143/72
f 102/151/73 142/149/73 147/148/73
f 19/5/74 133/144/74 128/143/74
f 102/152/75 147/149/75 101/148/75
f 145/142/76 99/141/76 100/137/76
f 143/143/77 97/144/77 98/140/77
f 21/5/78 138/144/78 133/143/78
f 146/136/79 100/137/79 101/148/79
f 144/139/80 98/140/80 99/141/80
f 23/3/81 143/144/81 138/143/81
f 5/153/1 6/1/1 7/3/1
f 9/5/2 7/4/2 10/2/2
f 9/153/3 10/1/3 11/3/3
f 11/153/4 12/1/4 13/3/4
f 15/5/5 13/4/5 16/2/5
f 15/4/6 16/1/6 17/5/6
f 19/5/7 17/4/7 20/2/7
f 19/4/8 20/1/8 21/5/8
f 10/8/9 8/154/9 6/155/9
f 6/155/9 24/156/9 22/6/9
f 22/6/9 20/157/9 18/158/9
f 18/158/9 16/159/9 14/160/9
f 14/160/9 12/7/9 22/6/9
f 10/8/9 6/155/9 22/6/9
f 22/6/9 18/158/9 14/160/9
f 5/5/10 23/4/10 6/2/10
f 21/153/11 22/1/11 23/3/11
f 46/161/12 27/9/12 45/11/12
f 44/162/8 43/12/8 30/14/8
f 42/163/3 41/15/3 32/17/3
f 47/164/13 30/18/13 48/20/13
f 31/165/9 40/23/9 48/22/9
f 36/21/9 32/166/9 48/22/9
f 41/26/14 29/167/14 1/168/14
f 1/168/14 2/24/14 41/26/14
f 44/29/15 26/169/15 4/170/15
f 4/170/15 3/27/15 44/29/15
f 47/32/16 30/171/16 3/172/16
f 3/172/16 1/30/16 47/32/16
f 45/35/17 26/173/17 37/39/17
f 37/39/17 33/33/17 45/35/17
f 46/36/9 28/174/9 34/37/9
f 38/38/9 27/46/9 46/36/9
f 30/175/17 39/41/17 44/40/17
f 37/39/17 26/173/17 44/40/17
f 28/176/3 25/42/3 42/44/3
f 38/38/9 40/23/9 43/45/9
f 31/165/9 43/45/9 40/23/9
f 39/65/3 40/47/3 37/49/3
f 26/177/8 27/50/8 44/52/8
f 28/174/9 42/53/9 34/37/9
f 32/166/9 36/21/9 42/53/9
f 33/33/17 35/68/17 41/54/17
f 29/178/17 41/54/17 35/68/17
f 36/66/8 35/55/8 34/57/8
f 28/179/12 46/58/12 25/60/12
f 33/180/13 37/49/13 34/61/13
f 29/181/13 47/62/13 32/64/13
f 40/47/12 39/65/12 36/66/12
f 29/178/17 35/68/17 47/67/17
f 39/41/17 30/175/17 47/67/17
f 63/182/18 64/69/18 30/71/18
f 43/183/13 50/72/13 44/74/13
f 27/184/19 52/75/19 26/77/19
f 46/185/8 54/78/8 45/80/8
f 28/186/18 56/81/18 25/83/18
f 32/187/20 60/84/20 29/86/20
f 61/188/8 62/87/8 47/89/8
f 42/189/12 58/90/12 41/92/12
f 45/95/21 25/190/21 2/191/21
f 2/191/21 4/93/21 45/95/21
f 69/101/17 70/96/17 65/98/17
f 70/96/3 71/99/3 66/97/3
f 72/192/8 69/101/8 68/102/8
f 65/98/13 66/97/13 68/104/13
f 72/193/12 71/105/12 69/101/12
f 77/111/17 78/106/17 73/108/17
f 78/106/3 79/109/3 74/107/3
f 80/194/8 77/111/8 76/112/8
f 73/108/13 74/107/13 76/114/13
f 80/195/12 79/115/12 77/111/12
f 85/121/17 86/116/17 81/118/17
f 86/116/3 87/119/3 82/117/3
f 88/196/8 85/121/8 84/122/8
f 81/118/13 82/117/13 84/124/13
f 88/197/12 87/125/12 85/121/12
f 93/131/17 94/126/17 89/128/17
f 94/126/3 95/129/3 90/127/3
f 96/198/8 93/131/8 92/132/8
f 89/128/13 90/127/13 92/134/13
f 96/199/12 95/135/12 93/131/12
f 101/149/22 100/136/22 107/138/22
f 99/142/23 98/139/23 105/141/23
f 106/137/24 100/136/24 105/141/24
f 98/139/25 97/143/25 104/140/25
f 105/145/26 104/139/26 110/141/26
f 106/147/27 105/145/27 111/146/27
f 104/139/28 103/143/28 109/140/28
f 107/149/29 106/147/29 112/148/29
f 111/136/30 110/142/30 116/137/30
f 109/139/31 108/143/31 114/140/31
f 112/149/32 111/136/32 117/148/32
f 115/141/33 110/142/33 114/140/33
f 119/140/34 114/139/34 118/144/34
f 117/149/35 116/136/35 122/138/35
f 115/142/36 114/139/36 120/141/36
f 116/136/37 115/142/37 121/137/37
f 127/138/38 122/149/38 126/137/38
f 120/142/39 119/139/39 125/141/39
f 121/136/40 120/142/40 126/137/40
f 119/139/41 118/143/41 124/140/41
f 126/136/42 125/142/42 131/137/42
f 124/150/43 123/143/43 129/140/43
f 127/149/44 126/136/44 132/138/44
f 130/141/45 125/142/45 129/140/45
f 136/137/46 131/136/46 135/141/46
f 129/139/47 128/143/47 134/140/47
f 132/149/48 131/136/48 137/138/48
f 130/142/49 129/139/49 135/141/49
f 137/149/50 136/136/50 142/148/50
f 140/141/51 135/142/51 139/140/51
f 141/137/52 136/136/52 140/141/52
f 134/139/53 133/143/53 139/140/53
f 147/148/54 142/149/54 146/137/54
f 145/141/55 140/142/55 144/140/55
f 141/136/56 140/142/56 146/137/56
f 139/139/57 138/143/57 144/140/57
f 5/5/61 97/144/61 23/4/61
f 97/143/62 5/153/62 103/144/62
f 7/4/64 9/5/64 103/143/64
f 11/3/66 113/144/66 9/153/66
f 11/153/69 13/3/69 113/143/69
f 13/4/70 15/5/70 118/143/70
f 15/4/72 17/5/72 123/143/72
f 17/4/74 19/5/74 128/143/74
f 146/136/76 145/142/76 100/137/76
f 144/139/77 143/143/77 98/140/77
f 19/4/78 21/5/78 133/143/78
f 147/149/79 146/136/79 101/148/79
f 145/142/80 144/139/80 99/141/80
f 21/153/81 23/3/81 138/143/81
