# Blender v2.76 (sub 0) OBJ File: 'fluidtank_label.blend'
# www.blender.org
o Cube.001_Cube.000
v -1.260000 1.750000 0.875000
v -1.260000 1.750000 -1.000000
v -1.260000 1.750000 1.000000
v -1.164849 2.228354 -1.000000
v -1.164849 2.228355 1.000000
v -1.260000 1.750000 -0.875000
v 1.260000 1.750000 0.875000
v 1.164849 2.228354 -1.000000
v 1.164849 2.228354 1.000000
v 1.260000 1.750000 -1.000000
v 1.260000 1.750000 1.000000
v 1.260000 1.750000 -0.875000
vt 0.000697 0.000139
vt 0.937966 0.487721
vt 0.071437 0.487780
vt 0.935055 0.505640
vt 0.997387 0.992019
vt 0.062467 0.505674
vt 0.000139 0.487453
vt 0.999693 -0.000208
vt 0.999861 0.487717
vt 0.000139 0.505676
vt 0.000144 0.992057
vt 0.997383 0.505637
vn -0.980800 0.195100 0.000000
vn 0.980800 0.195100 0.000000
s off
f 5/1/1 6/2/1 1/3/1
f 12/4/2 8/5/2 7/6/2
f 1/3/1 3/7/1 5/1/1
f 5/1/1 4/8/1 6/2/1
f 2/9/1 6/2/1 4/8/1
f 11/10/2 7/6/2 9/11/2
f 12/4/2 10/12/2 8/5/2
f 8/5/2 9/11/2 7/6/2
