# Blender v2.70 (sub 0) OBJ File: 'LaunchPad.blend'
# www.blender.org
o Cylinder
v 0.000000 0.000000 -1.000000
v 0.000000 0.250000 -1.000000
v 0.707107 0.000000 -0.707107
v 0.707107 0.250000 -0.707107
v 1.000000 0.000000 0.000000
v 1.000000 0.250000 0.000000
v 0.707107 0.000000 0.707107
v 0.707107 0.250000 0.707107
v -0.000000 0.000000 1.000000
v -0.000000 0.250000 1.000000
v -0.707107 0.000000 0.707107
v -0.707107 0.250000 0.707107
v -1.000000 0.000000 -0.000000
v -1.000000 0.250000 -0.000000
v -0.707107 0.000000 -0.707107
v -0.707107 0.250000 -0.707107
v 0.000000 0.500000 -0.750000
v 0.530330 0.500000 -0.530330
v 0.750000 0.500000 0.000000
v 0.530330 0.500000 0.530330
v -0.000000 0.500000 0.750000
v -0.530330 0.500000 0.530330
v -0.750000 0.500000 -0.000000
v -0.530330 0.500000 -0.530330
vt 0.202877 0.776488
vt 0.202877 0.991569
vt 0.128330 0.991569
vt 0.983572 0.646674
vt 0.983572 0.861756
vt 0.909025 0.861756
vt 0.816586 0.629813
vt 0.816586 0.414732
vt 0.891133 0.414732
vt 0.008946 0.991569
vt 0.008946 0.776488
vt 0.083493 0.776488
vt 0.816586 0.861756
vt 0.816586 0.646674
vt 0.891133 0.646674
vt 0.339051 0.991569
vt 0.339051 0.776488
vt 0.413598 0.776488
vt 0.559927 0.759627
vt 0.458434 0.732741
vt 0.458434 0.571430
vt 0.909025 0.629813
vt 0.909025 0.414732
vt 0.983572 0.414732
vt 0.532982 0.776488
vt 0.532982 0.991569
vt 0.458434 0.991569
vt 0.008946 0.375598
vt 0.559927 0.160516
vt 0.170324 0.527684
vt 0.577818 0.283806
vt 0.577818 0.122495
vt 0.698852 0.008431
vt 0.697202 0.646674
vt 0.798695 0.673560
vt 0.798695 0.834871
vt 0.577818 0.646675
vt 0.679311 0.673560
vt 0.679311 0.834871
vt 0.697202 0.414732
vt 0.798695 0.441617
vt 0.798695 0.602928
vt 0.128330 0.544545
vt 0.229822 0.571430
vt 0.229822 0.732741
vt 0.008946 0.544545
vt 0.110438 0.571430
vt 0.110438 0.732741
vt 0.577818 0.414732
vt 0.679311 0.441617
vt 0.679311 0.602928
vt 0.440543 0.759627
vt 0.339051 0.732741
vt 0.339051 0.571430
vt 0.128330 0.776488
vt 0.909025 0.646674
vt 0.891133 0.629813
vt 0.083493 0.991569
vt 0.891133 0.861756
vt 0.413598 0.991569
vt 0.559927 0.544545
vt 0.983572 0.629813
vt 0.458434 0.776488
vt 0.008946 0.160516
vt 0.170324 0.008431
vt 0.398548 0.008431
vt 0.559927 0.375598
vt 0.398548 0.527684
vt 0.870020 0.008431
vt 0.991054 0.122495
vt 0.870020 0.397870
vt 0.991054 0.283806
vt 0.698852 0.397871
vt 0.697202 0.861756
vt 0.577818 0.861756
vt 0.697202 0.629813
vt 0.128330 0.759627
vt 0.008946 0.759627
vt 0.577818 0.629813
vt 0.440543 0.544545
vn 0.382684 0.000000 -0.923880
vn 0.923880 0.000000 -0.382683
vn 0.923880 0.000000 0.382683
vn 0.382683 0.000000 0.923880
vn -0.382684 0.000000 0.923880
vn -0.923880 0.000000 0.382683
vn -0.281085 0.678598 -0.678598
vn -0.382684 0.000000 -0.923879
vn -0.923880 0.000000 -0.382683
vn 0.000000 -1.000000 0.000000
vn 0.000000 1.000000 0.000000
vn -0.678598 0.678598 -0.281085
vn -0.678599 0.678598 0.281085
vn -0.281085 0.678598 0.678598
vn 0.281085 0.678598 0.678598
vn 0.678599 0.678598 0.281085
vn 0.678598 0.678599 -0.281085
vn 0.281085 0.678598 -0.678598
vn 0.382683 0.000000 -0.923880
vn 0.382684 0.000000 0.923880
vn -0.382684 0.000000 0.923879
vn -0.382683 0.000000 -0.923880
vn -0.678598 0.678598 0.281085
vn 0.678598 0.678598 0.281085
vn 0.678598 0.678598 -0.281085
s off
f 2/1/1 4/2/1 3/3/1
f 4/4/2 6/5/2 5/6/2
f 6/7/3 8/8/3 7/9/3
f 8/10/4 10/11/4 9/12/4
f 10/13/5 12/14/5 11/15/5
f 12/16/6 14/17/6 13/18/6
f 16/19/7 24/20/7 17/21/7
f 16/22/8 2/23/8 1/24/8
f 14/25/9 16/26/9 15/27/9
f 15/28/10 7/29/10 13/30/10
f 21/31/11 20/32/11 19/33/11
f 14/34/12 23/35/12 24/36/12
f 12/37/13 22/38/13 23/39/13
f 10/40/14 21/41/14 22/42/14
f 8/43/15 20/44/15 21/45/15
f 6/46/16 19/47/16 20/48/16
f 4/49/17 18/50/17 19/51/17
f 2/52/18 17/53/18 18/54/18
f 1/55/19 2/1/19 3/3/19
f 3/56/2 4/4/2 5/6/2
f 5/57/3 6/7/3 7/9/3
f 7/58/20 8/10/20 9/12/20
f 9/59/21 10/13/21 11/15/21
f 11/60/6 12/16/6 13/18/6
f 2/61/7 16/19/7 17/21/7
f 15/62/22 16/22/22 1/24/22
f 13/63/9 14/25/9 15/27/9
f 15/28/10 1/64/10 3/65/10
f 3/65/10 5/66/10 7/29/10
f 7/29/10 9/67/10 11/68/10
f 19/33/11 18/69/11 17/70/11
f 15/28/10 3/65/10 7/29/10
f 23/71/11 19/33/11 24/72/11
f 7/29/10 11/68/10 13/30/10
f 21/31/11 19/33/11 22/73/11
f 16/74/12 14/34/12 24/36/12
f 19/33/11 23/71/11 22/73/11
f 14/75/23 12/37/23 23/39/23
f 19/33/11 17/70/11 24/72/11
f 12/76/14 10/40/14 22/42/14
f 10/77/15 8/43/15 21/45/15
f 8/78/24 6/46/24 20/48/24
f 6/79/25 4/49/25 19/51/25
f 4/80/18 2/52/18 18/54/18
