# Blender v2.76 (sub 0) OBJ File: 'MissileMirv.blend'
# www.blender.org
o Cylinder
v -0.097545 0.000000 -0.490393
v -0.097545 2.000000 -0.490393
v 0.097545 0.000000 -0.490393
v 0.097545 2.000000 -0.490393
v 0.277785 0.000000 -0.415735
v 0.277785 2.000000 -0.415735
v 0.415735 0.000000 -0.277785
v 0.415735 2.000000 -0.277785
v 0.490393 0.000000 -0.097545
v 0.490393 2.000000 -0.097545
v 0.490393 0.000000 0.097545
v 0.490393 2.000000 0.097545
v 0.415735 0.000000 0.277785
v 0.415735 2.000000 0.277785
v 0.277785 0.000000 0.415735
v 0.277785 2.000000 0.415735
v 0.097545 0.000000 0.490393
v 0.097545 2.000000 0.490393
v -0.097545 0.000000 0.490393
v -0.097545 2.000000 0.490393
v -0.277785 0.000000 0.415735
v -0.277785 2.000000 0.415735
v -0.415735 0.000000 0.277785
v -0.415735 2.000000 0.277785
v -0.490393 0.000000 0.097545
v -0.490393 2.000000 0.097545
v -0.490393 0.000000 -0.097545
v -0.490393 2.000000 -0.097545
v -0.415735 0.000000 -0.277785
v -0.415735 2.000000 -0.277785
v -0.277785 0.000000 -0.415735
v -0.277785 2.000000 -0.415735
v 0.073159 3.500000 -0.367794
v -0.073159 3.500000 -0.367794
v 0.208339 3.500000 -0.311801
v 0.311801 3.500000 -0.208339
v 0.367795 3.500000 -0.073159
v 0.367795 3.500000 0.073159
v 0.311801 3.500000 0.208339
v 0.208339 3.500000 0.311801
v 0.073159 3.500000 0.367794
v -0.073159 3.500000 0.367795
v -0.208339 3.500000 0.311801
v -0.311801 3.500000 0.208339
v -0.367794 3.500000 0.073159
v -0.367794 3.500000 -0.073159
v -0.311801 3.500000 -0.208339
v -0.208339 3.500000 -0.311801
v 0.073159 5.000000 -0.367794
v -0.073159 5.000000 -0.367794
v 0.208339 5.000000 -0.311801
v 0.311801 5.000000 -0.208339
v 0.367794 5.000000 -0.073159
v 0.367794 5.000000 0.073159
v 0.311801 5.000000 0.208339
v 0.208339 5.000000 0.311801
v 0.073159 5.000000 0.367794
v -0.073159 5.000000 0.367795
v -0.208339 5.000000 0.311801
v -0.311801 5.000000 0.208339
v -0.367795 5.000000 0.073159
v -0.367795 5.000000 -0.073159
v -0.311801 5.000000 -0.208339
v -0.208339 5.000000 -0.311801
v 0.053650 6.000000 -0.269716
v -0.053650 6.000000 -0.269716
v 0.152782 6.000000 -0.228654
v 0.228654 6.000000 -0.152782
v 0.269716 6.000000 -0.053650
v 0.269716 6.000000 0.053650
v 0.228654 6.000000 0.152782
v 0.152782 6.000000 0.228654
v 0.053650 6.000000 0.269716
v -0.053650 6.000000 0.269716
v -0.152782 6.000000 0.228654
v -0.228654 6.000000 0.152782
v -0.269716 6.000000 0.053650
v -0.269716 6.000000 -0.053650
v -0.228654 6.000000 -0.152782
v -0.152782 6.000000 -0.228654
v 0.000000 7.000000 0.000000
vt 0.378201 0.009202
vt 0.408676 0.009202
vt 0.408676 0.315925
vt 0.138286 0.484743
vt 0.107811 0.484743
vt 0.107811 0.178020
vt 0.310237 0.641051
vt 0.279762 0.641051
vt 0.279762 0.334328
vt 0.039847 0.484743
vt 0.009372 0.484743
vt 0.009372 0.178020
vt 0.211798 0.641051
vt 0.181323 0.641051
vt 0.181323 0.334328
vt 0.359457 0.315925
vt 0.328982 0.315925
vt 0.328982 0.009202
vt 0.605554 0.315925
vt 0.575079 0.315925
vt 0.575079 0.009202
vt 0.359456 0.641051
vt 0.328982 0.641051
vt 0.328982 0.334328
vt 0.427421 0.009202
vt 0.457895 0.009202
vt 0.457895 0.315925
vt 0.525860 0.009202
vt 0.556334 0.009202
vt 0.556334 0.315925
vt 0.310237 0.315925
vt 0.279762 0.315925
vt 0.279762 0.009202
vt 0.507115 0.315925
vt 0.476640 0.315925
vt 0.476640 0.009202
vt 0.181323 0.009202
vt 0.211798 0.009202
vt 0.211798 0.315925
vt 0.089067 0.484743
vt 0.058592 0.484743
vt 0.058592 0.178020
vt 0.673518 0.738346
vt 0.677328 0.507567
vt 0.700184 0.507567
vt 0.230543 0.334328
vt 0.261017 0.334328
vt 0.261017 0.641051
vt 0.261018 0.315925
vt 0.230543 0.315925
vt 0.230543 0.009202
vt 0.042583 0.020651
vt 0.150916 0.041807
vt 0.129368 0.148167
vt 0.457895 0.583511
vt 0.457895 0.813553
vt 0.435039 0.813553
vt 0.427421 0.565107
vt 0.431230 0.334328
vt 0.454086 0.334328
vt 0.722738 0.489163
vt 0.726547 0.258384
vt 0.749403 0.258384
vt 0.605554 0.565107
vt 0.575079 0.565107
vt 0.578888 0.334328
vt 0.654773 0.738346
vt 0.624299 0.738346
vt 0.628108 0.507567
vt 0.378201 0.565107
vt 0.382011 0.334328
vt 0.404866 0.334328
vt 0.107811 0.733925
vt 0.111621 0.503146
vt 0.134477 0.503146
vt 0.673518 0.489163
vt 0.677328 0.258384
vt 0.700184 0.258384
vt 0.624299 0.489163
vt 0.628108 0.258384
vt 0.650964 0.258384
vt 0.009372 0.733925
vt 0.013182 0.503146
vt 0.036038 0.503146
vt 0.722738 0.239981
vt 0.726547 0.009202
vt 0.749403 0.009202
vt 0.476640 0.565107
vt 0.480450 0.334328
vt 0.503305 0.334328
vt 0.654773 0.239981
vt 0.624299 0.239981
vt 0.628108 0.009202
vt 0.058592 0.733925
vt 0.062401 0.503146
vt 0.085257 0.503146
vt 0.673518 0.239981
vt 0.677328 0.009202
vt 0.700184 0.009202
vt 0.525860 0.565107
vt 0.529669 0.334328
vt 0.552525 0.334328
vt 0.896760 0.163299
vt 0.899807 0.009202
vt 0.916568 0.009202
vt 0.870396 0.507567
vt 0.870396 0.737609
vt 0.847540 0.737609
vt 0.787195 0.507567
vt 0.787195 0.737609
vt 0.764339 0.737609
vt 0.181323 0.889497
vt 0.181323 0.659455
vt 0.204179 0.659455
vt 0.813558 0.487690
vt 0.813558 0.257647
vt 0.836414 0.257647
vt 0.855159 0.487690
vt 0.855159 0.257647
vt 0.878015 0.257647
vt 0.771957 0.239244
vt 0.771957 0.009202
vt 0.794813 0.009202
vt 0.525860 0.813553
vt 0.525860 0.583511
vt 0.548716 0.583511
vt 0.722738 0.737609
vt 0.722738 0.507567
vt 0.745594 0.507567
vt 0.582698 0.813553
vt 0.582698 0.583511
vt 0.605554 0.583511
vt 0.794813 0.258384
vt 0.794813 0.488426
vt 0.771957 0.488426
vt 0.499496 0.583511
vt 0.499496 0.813553
vt 0.476640 0.813553
vt 0.836414 0.009202
vt 0.836414 0.239244
vt 0.813558 0.239244
vt 0.878015 0.009202
vt 0.878015 0.239244
vt 0.855159 0.239244
vt 0.378201 0.813553
vt 0.378201 0.583511
vt 0.401057 0.583511
vt 0.805940 0.737609
vt 0.805940 0.507567
vt 0.828795 0.507567
vt 0.346203 0.990797
vt 0.329442 0.990797
vt 0.337822 0.831955
vt 0.870396 0.910110
vt 0.847540 0.910110
vt 0.850588 0.756012
vt 0.722738 0.910110
vt 0.725785 0.756012
vt 0.742546 0.756012
vt 0.911997 0.507567
vt 0.908951 0.661664
vt 0.892189 0.661664
vt 0.264525 0.813552
vt 0.267572 0.659455
vt 0.284333 0.659455
vt 0.081448 0.906426
vt 0.058592 0.906426
vt 0.061639 0.752329
vt 0.032228 0.906426
vt 0.009372 0.906426
vt 0.012420 0.752329
vt 0.896760 0.181702
vt 0.919616 0.181702
vt 0.916568 0.335800
vt 0.828795 0.756012
vt 0.825748 0.910110
vt 0.808987 0.910110
vt 0.696374 0.910846
vt 0.673518 0.910846
vt 0.676566 0.756749
vt 0.624299 0.910846
vt 0.627346 0.756749
vt 0.644107 0.756749
vt 0.107811 0.906426
vt 0.110859 0.752329
vt 0.127620 0.752329
vt 0.764339 0.910110
vt 0.767386 0.756012
vt 0.784147 0.756012
vt 0.222924 0.813552
vt 0.225972 0.659455
vt 0.242733 0.659455
vt 0.889141 0.834165
vt 0.892188 0.680067
vt 0.908949 0.680067
vt 0.351838 0.659455
vt 0.348790 0.813552
vt 0.332029 0.813552
vt 0.938361 0.345502
vt 0.946741 0.186660
vt 0.955122 0.345502
vt 0.973844 0.168044
vt 0.982225 0.009202
vt 0.990605 0.168044
vt 0.966226 0.666409
vt 0.974606 0.507567
vt 0.982987 0.666409
vt 0.930742 0.665770
vt 0.947481 0.507567
vt 0.947481 0.666621
vt 0.525860 0.990798
vt 0.534240 0.831956
vt 0.542621 0.990798
vt 0.378201 0.990798
vt 0.386582 0.831956
vt 0.394962 0.990798
vt 0.470545 0.990798
vt 0.478926 0.831956
vt 0.487306 0.990798
vt 0.973867 0.345502
vt 0.982247 0.186660
vt 0.990628 0.345502
vt 0.222924 0.990797
vt 0.231305 0.831955
vt 0.239685 0.990797
vt 0.938361 0.167405
vt 0.955099 0.009202
vt 0.955099 0.168256
vt 0.258430 0.990797
vt 0.266811 0.831955
vt 0.275191 0.990797
vt 0.966226 0.843654
vt 0.974606 0.684812
vt 0.982987 0.843654
vt 0.293936 0.990797
vt 0.302317 0.831955
vt 0.310697 0.990797
vt 0.435039 0.990798
vt 0.443420 0.831956
vt 0.451800 0.990798
vt 0.930742 0.843228
vt 0.947481 0.685025
vt 0.947481 0.844080
vt 0.378201 0.315925
vt 0.138286 0.178020
vt 0.310237 0.334328
vt 0.039847 0.178020
vt 0.211798 0.334328
vt 0.359456 0.009202
vt 0.605554 0.009202
vt 0.359456 0.334328
vt 0.427421 0.315925
vt 0.525860 0.315925
vt 0.310237 0.009202
vt 0.507115 0.009202
vt 0.181323 0.315925
vt 0.089067 0.178020
vt 0.703993 0.738346
vt 0.230543 0.641051
vt 0.261017 0.009202
vt 0.101213 0.159616
vt 0.070738 0.159616
vt 0.042583 0.148167
vt 0.021035 0.127011
vt 0.009372 0.099369
vt 0.009372 0.069449
vt 0.021035 0.041808
vt 0.070738 0.009202
vt 0.101213 0.009202
vt 0.129368 0.020651
vt 0.162578 0.069449
vt 0.162578 0.099369
vt 0.150916 0.127011
vt 0.435039 0.583511
vt 0.457895 0.565107
vt 0.753212 0.489163
vt 0.601744 0.334328
vt 0.650964 0.507567
vt 0.408676 0.565107
vt 0.138286 0.733925
vt 0.703993 0.489163
vt 0.654773 0.489163
vt 0.039847 0.733925
vt 0.753212 0.239981
vt 0.507115 0.565107
vt 0.650964 0.009202
vt 0.089067 0.733925
vt 0.703993 0.239981
vt 0.556334 0.565107
vt 0.919616 0.163299
vt 0.847540 0.507567
vt 0.764339 0.507567
vt 0.204179 0.889497
vt 0.836414 0.487690
vt 0.878015 0.487690
vt 0.794813 0.239244
vt 0.548716 0.813553
vt 0.745594 0.737609
vt 0.605554 0.813553
vt 0.771957 0.258384
vt 0.476640 0.583511
vt 0.813558 0.009202
vt 0.855159 0.009202
vt 0.401057 0.813553
vt 0.828795 0.737609
vt 0.867349 0.756012
vt 0.745594 0.910110
vt 0.889141 0.507567
vt 0.287381 0.813552
vt 0.078400 0.752329
vt 0.029181 0.752329
vt 0.899807 0.335800
vt 0.805939 0.756012
vt 0.693327 0.756749
vt 0.647155 0.910846
vt 0.130667 0.906426
vt 0.787195 0.910110
vt 0.245780 0.813552
vt 0.911997 0.834165
vt 0.328982 0.659455
vn 0.000000 0.000000 -1.000000
vn 0.382700 0.000000 -0.923900
vn 0.707100 0.000000 -0.707100
vn 0.923900 0.000000 -0.382700
vn 1.000000 0.000000 0.000000
vn 0.923900 0.000000 0.382700
vn 0.707100 0.000000 0.707100
vn 0.382700 0.000000 0.923900
vn 0.000000 0.000000 1.000000
vn -0.382700 0.000000 0.923900
vn -0.707100 0.000000 0.707100
vn -0.923900 0.000000 0.382700
vn -1.000000 0.000000 0.000000
vn -0.923900 0.000000 -0.382700
vn 0.920800 0.081500 0.381400
vn -0.382700 0.000000 -0.923900
vn -0.707100 0.000000 -0.707100
vn 0.000000 -1.000000 0.000000
vn -0.704800 0.081500 0.704800
vn -0.381400 0.081500 -0.920800
vn 0.920800 0.081500 -0.381400
vn 0.000000 0.081500 0.996700
vn -0.920800 0.081500 -0.381400
vn 0.381400 0.081500 -0.920800
vn 0.704800 0.081500 0.704800
vn -0.920800 0.081500 0.381400
vn 0.996700 0.081500 0.000000
vn -0.381400 0.081500 0.920800
vn -0.704800 0.081500 -0.704800
vn 0.704800 0.081500 -0.704800
vn 0.381400 0.081500 0.920800
vn 0.000000 0.081500 -0.996700
vn -0.996700 0.081500 0.000000
vn -0.919500 0.097600 0.380900
vn 0.682700 0.260400 -0.682700
vn 0.995200 0.097600 0.000000
vn -0.995200 0.097600 0.000000
vn 0.919500 0.097600 0.380900
vn -0.919500 0.097600 -0.380900
vn 0.703700 0.097600 0.703700
vn -0.703700 0.097600 -0.703700
vn 0.380900 0.097600 0.919500
vn 0.000000 0.097600 -0.995200
vn -0.380900 0.097600 -0.919500
vn 0.000000 0.097600 0.995200
vn 0.380900 0.097600 -0.919500
vn -0.380900 0.097600 0.919500
vn 0.703700 0.097600 -0.703700
vn -0.703700 0.097600 0.703700
vn 0.919500 0.097600 -0.380900
vn -0.369500 0.260400 0.892000
vn 0.000000 0.260400 0.965500
vn 0.369500 0.260400 0.892000
vn 0.682700 0.260400 0.682700
vn 0.892000 0.260400 0.369500
vn 0.369500 0.260400 -0.892000
vn 0.965500 0.260400 0.000000
vn 0.892000 0.260400 -0.369500
vn -0.682700 0.260400 0.682700
vn -0.892000 0.260400 0.369500
vn -0.965500 0.260400 0.000000
vn -0.892000 0.260400 -0.369500
vn -0.682700 0.260400 -0.682700
vn -0.369500 0.260400 -0.892000
vn 0.000000 0.260400 -0.965500
s off
f 2/1/1 4/2/1 3/3/1
f 4/4/2 6/5/2 5/6/2
f 6/7/3 8/8/3 7/9/3
f 8/10/4 10/11/4 9/12/4
f 10/13/5 12/14/5 11/15/5
f 12/16/6 14/17/6 13/18/6
f 14/19/7 16/20/7 15/21/7
f 16/22/8 18/23/8 17/24/8
f 18/25/9 20/26/9 19/27/9
f 20/28/10 22/29/10 21/30/10
f 22/31/11 24/32/11 23/33/11
f 24/34/12 26/35/12 25/36/12
f 26/37/13 28/38/13 27/39/13
f 28/40/14 30/41/14 29/42/14
f 12/43/15 38/44/15 39/45/15
f 32/46/16 2/47/16 1/48/16
f 30/49/17 32/50/17 31/51/17
f 15/52/18 23/53/18 31/54/18
f 46/55/14 62/56/14 63/57/14
f 22/58/19 43/59/19 44/60/19
f 32/61/20 48/62/20 34/63/20
f 10/64/21 8/65/21 36/66/21
f 20/67/22 18/68/22 41/69/22
f 28/70/23 46/71/23 47/72/23
f 4/73/24 33/74/24 35/75/24
f 14/76/25 39/77/25 40/78/25
f 24/79/26 44/80/26 45/81/26
f 10/82/27 37/83/27 38/84/27
f 20/85/28 42/86/28 43/87/28
f 30/88/29 47/89/29 48/90/29
f 8/91/30 6/92/30 35/93/30
f 16/94/31 40/95/31 41/96/31
f 2/97/32 34/98/32 33/99/32
f 26/100/33 45/101/33 46/102/33
f 60/103/34 76/104/34 77/105/34
f 39/106/7 55/107/7 56/108/7
f 47/109/17 63/110/17 64/111/17
f 40/112/8 56/113/8 57/114/8
f 34/115/1 50/116/1 49/117/1
f 48/118/16 64/119/16 50/120/16
f 41/121/9 57/122/9 58/123/9
f 33/124/2 49/125/2 51/126/2
f 42/127/10 58/128/10 59/129/10
f 35/130/3 51/131/3 52/132/3
f 43/133/11 59/134/11 60/135/11
f 36/136/4 52/137/4 53/138/4
f 44/139/12 60/140/12 61/141/12
f 37/142/5 53/143/5 54/144/5
f 45/145/13 61/146/13 62/147/13
f 38/148/6 54/149/6 55/150/6
f 68/151/35 67/152/35 81/153/35
f 54/154/36 53/155/36 69/156/36
f 61/157/37 77/158/37 78/159/37
f 54/160/38 70/161/38 71/162/38
f 62/163/39 78/164/39 79/165/39
f 56/166/40 55/167/40 71/168/40
f 64/169/41 63/170/41 79/171/41
f 57/172/42 56/173/42 72/174/42
f 50/175/43 66/176/43 65/177/43
f 50/178/44 64/179/44 80/180/44
f 57/181/45 73/182/45 74/183/45
f 49/184/46 65/185/46 67/186/46
f 58/187/47 74/188/47 75/189/47
f 51/190/48 67/191/48 68/192/48
f 59/193/49 75/194/49 76/195/49
f 52/196/50 68/197/50 69/198/50
f 74/199/51 81/200/51 75/201/51
f 73/202/52 81/203/52 74/204/52
f 72/205/53 81/206/53 73/207/53
f 71/208/54 81/209/54 72/210/54
f 70/211/55 81/212/55 71/213/55
f 65/214/56 81/215/56 67/216/56
f 69/217/57 81/218/57 70/219/57
f 68/220/58 81/221/58 69/222/58
f 75/223/59 81/224/59 76/225/59
f 76/226/60 81/227/60 77/228/60
f 77/229/61 81/230/61 78/231/61
f 78/232/62 81/233/62 79/234/62
f 79/235/63 81/236/63 80/237/63
f 80/238/64 81/239/64 66/240/64
f 66/241/65 81/242/65 65/243/65
f 1/244/1 2/1/1 3/3/1
f 3/245/2 4/4/2 5/6/2
f 5/246/3 6/7/3 7/9/3
f 7/247/4 8/10/4 9/12/4
f 9/248/5 10/13/5 11/15/5
f 11/249/6 12/16/6 13/18/6
f 13/250/7 14/19/7 15/21/7
f 15/251/8 16/22/8 17/24/8
f 17/252/9 18/25/9 19/27/9
f 19/253/10 20/28/10 21/30/10
f 21/254/11 22/31/11 23/33/11
f 23/255/12 24/34/12 25/36/12
f 25/256/13 26/37/13 27/39/13
f 27/257/14 28/40/14 29/42/14
f 14/258/15 12/43/15 39/45/15
f 31/259/16 32/46/16 1/48/16
f 29/260/17 30/49/17 31/51/17
f 31/54/18 1/261/18 3/262/18
f 3/262/18 5/263/18 31/54/18
f 7/264/18 9/265/18 15/52/18
f 11/266/18 13/267/18 15/52/18
f 15/52/18 17/268/18 23/53/18
f 19/269/18 21/270/18 23/53/18
f 23/53/18 25/271/18 27/272/18
f 27/272/18 29/273/18 23/53/18
f 31/54/18 5/263/18 7/264/18
f 9/265/18 11/266/18 15/52/18
f 17/268/18 19/269/18 23/53/18
f 23/53/18 29/273/18 31/54/18
f 31/54/18 7/264/18 15/52/18
f 47/274/14 46/55/14 63/57/14
f 24/275/19 22/58/19 44/60/19
f 2/276/20 32/61/20 34/63/20
f 37/277/21 10/64/21 36/66/21
f 42/278/22 20/67/22 41/69/22
f 30/279/23 28/70/23 47/72/23
f 6/280/24 4/73/24 35/75/24
f 16/281/25 14/76/25 40/78/25
f 26/282/26 24/79/26 45/81/26
f 12/283/27 10/82/27 38/84/27
f 22/284/28 20/85/28 43/87/28
f 32/285/29 30/88/29 48/90/29
f 36/286/30 8/91/30 35/93/30
f 18/287/31 16/94/31 41/96/31
f 4/288/32 2/97/32 33/99/32
f 28/289/33 26/100/33 46/102/33
f 61/290/34 60/103/34 77/105/34
f 40/291/7 39/106/7 56/108/7
f 48/292/17 47/109/17 64/111/17
f 41/293/8 40/112/8 57/114/8
f 33/294/1 34/115/1 49/117/1
f 34/295/16 48/118/16 50/120/16
f 42/296/9 41/121/9 58/123/9
f 35/297/2 33/124/2 51/126/2
f 43/298/10 42/127/10 59/129/10
f 36/299/3 35/130/3 52/132/3
f 44/300/11 43/133/11 60/135/11
f 37/301/4 36/136/4 53/138/4
f 45/302/12 44/139/12 61/141/12
f 38/303/5 37/142/5 54/144/5
f 46/304/13 45/145/13 62/147/13
f 39/305/6 38/148/6 55/150/6
f 70/306/36 54/154/36 69/156/36
f 62/307/37 61/157/37 78/159/37
f 55/308/38 54/160/38 71/162/38
f 63/309/39 62/163/39 79/165/39
f 72/310/40 56/166/40 71/168/40
f 80/311/41 64/169/41 79/171/41
f 73/312/42 57/172/42 72/174/42
f 49/313/43 50/175/43 65/177/43
f 66/314/44 50/178/44 80/180/44
f 58/315/45 57/181/45 74/183/45
f 51/316/46 49/184/46 67/186/46
f 59/317/47 58/187/47 75/189/47
f 52/318/48 51/190/48 68/192/48
f 60/319/49 59/193/49 76/195/49
f 53/320/50 52/196/50 69/198/50
