# Blender v2.70 (sub 0) OBJ File: 'Missile.blend'
# www.blender.org
o Cylinder
v -0.109738 3.500000 -0.551692
v -0.109738 3.750000 -0.551692
v 0.109738 3.500000 -0.551692
v 0.109738 3.750000 -0.551692
v 0.312508 3.500000 -0.467702
v 0.312508 3.750000 -0.467702
v 0.467702 3.500000 -0.312508
v 0.467702 3.750000 -0.312508
v 0.551692 3.500000 -0.109738
v 0.551692 3.750000 -0.109738
v 0.551692 3.500000 0.109738
v 0.551692 3.750000 0.109738
v 0.467702 3.500000 0.312508
v 0.467702 3.750000 0.312508
v 0.312508 3.500000 0.467702
v 0.312508 3.750000 0.467702
v 0.109738 3.500000 0.551692
v 0.109738 3.750000 0.551692
v -0.109738 3.500000 0.551692
v -0.109738 3.750000 0.551692
v -0.312508 3.500000 0.467702
v -0.312508 3.750000 0.467702
v -0.467702 3.500000 0.312508
v -0.467702 3.750000 0.312508
v -0.551692 3.500000 0.109738
v -0.551692 3.750000 0.109738
v -0.551692 3.500000 -0.109738
v -0.551692 3.750000 -0.109738
v -0.467702 3.500000 -0.312508
v -0.467702 3.750000 -0.312508
v -0.312508 3.500000 -0.467702
v -0.312508 3.750000 -0.467702
v -0.097545 1.000000 -0.490393
v -0.097545 3.500000 -0.490393
v 0.097545 1.000000 -0.490393
v 0.097545 3.500000 -0.490393
v 0.277785 1.000000 -0.415735
v 0.277785 3.500000 -0.415735
v 0.415735 1.000000 -0.277785
v 0.415735 3.500000 -0.277785
v 0.490393 1.000000 -0.097545
v 0.490393 3.500000 -0.097545
v 0.490393 1.000000 0.097545
v 0.490393 3.500000 0.097545
v 0.415735 1.000000 0.277785
v 0.415735 3.500000 0.277785
v 0.277785 1.000000 0.415735
v 0.277785 3.500000 0.415735
v 0.097545 1.000000 0.490393
v 0.097545 3.500000 0.490393
v -0.097545 1.000000 0.490393
v -0.097545 3.500000 0.490393
v -0.277785 1.000000 0.415735
v -0.277785 3.500000 0.415735
v -0.415735 1.000000 0.277785
v -0.415735 3.500000 0.277785
v -0.490393 1.000000 0.097545
v -0.490393 3.500000 0.097545
v -0.490393 1.000000 -0.097545
v -0.490393 3.500000 -0.097545
v -0.415735 1.000000 -0.277785
v -0.415735 3.500000 -0.277785
v -0.277785 1.000000 -0.415735
v -0.277785 3.500000 -0.415735
v -0.036579 4.750000 -0.183897
v 0.036580 4.750000 -0.183897
v 0.104169 4.750000 -0.155901
v 0.155901 4.750000 -0.104169
v 0.183897 4.750000 -0.036579
v 0.183897 4.750000 0.036579
v 0.155901 4.750000 0.104169
v 0.104170 4.750000 0.155901
v 0.036580 4.750000 0.183897
v -0.036579 4.750000 0.183897
v -0.104169 4.750000 0.155901
v -0.155901 4.750000 0.104169
v -0.183897 4.750000 0.036579
v -0.183897 4.750000 -0.036579
v -0.155900 4.750000 -0.104169
v -0.104169 4.750000 -0.155901
v -0.146318 0.000000 -0.735589
v 0.146318 0.000000 -0.735589
v 0.416678 0.000000 -0.623602
v 0.623602 0.000000 -0.416678
v 0.735589 0.000000 -0.146318
v 0.735589 0.000000 0.146318
v 0.623602 0.000000 0.416678
v 0.416678 0.000000 0.623602
v 0.146318 0.000000 0.735589
v -0.146318 0.000000 0.735589
v -0.416678 0.000000 0.623602
v -0.623602 0.000000 0.416678
v -0.735589 0.000000 0.146318
v -0.735589 0.000000 -0.146318
v -0.623602 0.000000 -0.416678
v -0.416678 0.000000 -0.623602
vt 0.406722 0.903820
vt 0.371027 0.903820
vt 0.371027 0.863107
vt 0.351511 0.964074
vt 0.315817 0.964074
vt 0.315817 0.923362
vt 0.935031 0.050484
vt 0.899337 0.050484
vt 0.899337 0.009771
vt 0.045453 0.943524
vt 0.009758 0.943524
vt 0.009758 0.902811
vt 0.249022 0.929334
vt 0.213328 0.929334
vt 0.213328 0.888621
vt 0.406722 0.964074
vt 0.371027 0.964074
vt 0.371027 0.923362
vt 0.505245 0.903820
vt 0.469551 0.903820
vt 0.469551 0.863107
vt 0.191893 0.955207
vt 0.156199 0.955207
vt 0.156199 0.914494
vt 0.136683 0.974389
vt 0.100988 0.974389
vt 0.100988 0.933677
vt 0.351511 0.903820
vt 0.315817 0.903820
vt 0.315817 0.863107
vt 0.505245 0.964074
vt 0.469551 0.964074
vt 0.469551 0.923362
vt 0.009758 0.842556
vt 0.045453 0.842556
vt 0.045453 0.883269
vt 0.935031 0.110738
vt 0.899337 0.110738
vt 0.899337 0.070026
vt 0.899337 0.136733
vt 0.935031 0.136733
vt 0.935031 0.177445
vt 0.954548 0.563561
vt 0.966446 0.390045
vt 0.978344 0.390045
vt 0.213328 0.948876
vt 0.249022 0.948876
vt 0.249022 0.989588
vt 0.191893 0.894952
vt 0.156199 0.894952
vt 0.156199 0.854239
vt 0.023418 0.307846
vt 0.031869 0.313501
vt 0.019727 0.342853
vt 0.556490 0.416897
vt 0.524761 0.416897
vt 0.524761 0.009771
vt 0.627250 0.009771
vt 0.658979 0.009771
vt 0.658979 0.416897
vt 0.780984 0.009771
vt 0.812712 0.009771
vt 0.812712 0.416897
vt 0.710223 0.416897
vt 0.678495 0.416897
vt 0.678495 0.009771
vt 0.761468 0.416897
vt 0.729739 0.416897
vt 0.729739 0.009771
vt 0.454001 0.416897
vt 0.422272 0.416897
vt 0.422272 0.009771
vt 0.473517 0.436439
vt 0.505245 0.436439
vt 0.505245 0.843565
vt 0.351511 0.843565
vt 0.319783 0.843565
vt 0.319783 0.436439
vt 0.300267 0.843565
vt 0.268538 0.843565
vt 0.268538 0.436439
vt 0.217294 0.268895
vt 0.249022 0.268895
vt 0.249022 0.676021
vt 0.300267 0.416897
vt 0.268538 0.416897
vt 0.268538 0.009771
vt 0.402756 0.416897
vt 0.371028 0.416897
vt 0.371027 0.009771
vt 0.505245 0.416897
vt 0.473517 0.416897
vt 0.473517 0.009771
vt 0.351511 0.416897
vt 0.319783 0.416897
vt 0.319783 0.009771
vt 0.454000 0.436439
vt 0.454000 0.843565
vt 0.422272 0.843565
vt 0.576006 0.009771
vt 0.607734 0.009771
vt 0.607734 0.416897
vt 0.840160 0.009771
vt 0.871889 0.009771
vt 0.879821 0.177445
vt 0.136683 0.878230
vt 0.136683 0.890144
vt 0.089833 0.858799
vt 0.603768 0.984388
vt 0.615666 0.810872
vt 0.627564 0.810872
vt 0.658979 0.984388
vt 0.670877 0.810872
vt 0.682775 0.810872
vt 0.773680 0.984388
vt 0.737986 0.984388
vt 0.749884 0.810872
vt 0.112561 0.834697
vt 0.076867 0.834697
vt 0.088765 0.661181
vt 0.895999 0.990229
vt 0.860305 0.990229
vt 0.872203 0.816713
vt 0.951210 0.990229
vt 0.915515 0.990229
vt 0.927413 0.816713
vt 0.935031 0.563561
vt 0.899337 0.563561
vt 0.911235 0.390045
vt 0.915515 0.797171
vt 0.927414 0.623655
vt 0.939312 0.623655
vt 0.112561 0.641639
vt 0.076867 0.641639
vt 0.088765 0.468123
vt 0.213328 0.869079
vt 0.225226 0.695563
vt 0.237124 0.695563
vt 0.860305 0.797171
vt 0.872203 0.623655
vt 0.884101 0.623655
vt 0.954548 0.370503
vt 0.966446 0.196987
vt 0.978344 0.196987
vt 0.899337 0.370503
vt 0.911235 0.196987
vt 0.923133 0.196987
vt 0.524761 0.984388
vt 0.536659 0.810872
vt 0.548557 0.810872
vt 0.805094 0.984387
vt 0.816992 0.810872
vt 0.828891 0.810872
vt 0.061624 0.028008
vt 0.105594 0.009771
vt 0.027971 0.197418
vt 0.181274 0.468123
vt 0.189206 0.635798
vt 0.141614 0.635798
vt 0.049419 0.655340
vt 0.057351 0.823014
vt 0.009758 0.823014
vt 0.871889 0.249223
vt 0.879821 0.416897
vt 0.832228 0.416897
vt 0.765748 0.436439
vt 0.773680 0.604113
vt 0.726087 0.604113
vt 0.532693 0.791330
vt 0.524761 0.623655
vt 0.572354 0.623655
vt 0.698639 0.436439
vt 0.706571 0.604113
vt 0.658979 0.604113
vt 0.181274 0.655340
vt 0.189206 0.823014
vt 0.141614 0.823014
vt 0.631531 0.604113
vt 0.599802 0.604113
vt 0.591870 0.436439
vt 0.599802 0.791330
vt 0.591870 0.623655
vt 0.639463 0.623655
vt 0.698639 0.623655
vt 0.706571 0.791330
vt 0.658979 0.791330
vt 0.049419 0.468123
vt 0.057351 0.635798
vt 0.009758 0.635798
vt 0.801128 0.436439
vt 0.832857 0.436439
vt 0.840789 0.604113
vt 0.564422 0.436439
vt 0.572354 0.604113
vt 0.524761 0.604113
vt 0.801128 0.623655
vt 0.832857 0.623655
vt 0.840789 0.791330
vt 0.765748 0.791330
vt 0.734019 0.791330
vt 0.726087 0.623655
vt 0.009758 0.376609
vt 0.009758 0.340867
vt 0.031869 0.403976
vt 0.023418 0.409630
vt 0.054305 0.426441
vt 0.048657 0.434904
vt 0.081635 0.448581
vt 0.117329 0.448581
vt 0.083618 0.438599
vt 0.150307 0.434904
vt 0.115346 0.438599
vt 0.175547 0.409630
vt 0.144660 0.426441
vt 0.179237 0.374624
vt 0.189206 0.376609
vt 0.189206 0.340867
vt 0.167095 0.313501
vt 0.175547 0.307846
vt 0.144660 0.291036
vt 0.150307 0.282573
vt 0.115346 0.278878
vt 0.117329 0.268895
vt 0.081635 0.268895
vt 0.054305 0.291036
vt 0.048658 0.282573
vt 0.406722 0.863107
vt 0.351511 0.923362
vt 0.935031 0.009771
vt 0.045453 0.902811
vt 0.249022 0.888621
vt 0.406722 0.923362
vt 0.505245 0.863107
vt 0.191893 0.914494
vt 0.136683 0.933677
vt 0.351511 0.863107
vt 0.505245 0.923362
vt 0.009758 0.883269
vt 0.935031 0.070026
vt 0.899337 0.177445
vt 0.990242 0.563561
vt 0.213328 0.989588
vt 0.191893 0.854239
vt 0.556490 0.009771
vt 0.627250 0.416897
vt 0.780984 0.416897
vt 0.710223 0.009771
vt 0.761468 0.009771
vt 0.454000 0.009771
vt 0.473517 0.843565
vt 0.351511 0.436439
vt 0.300267 0.436439
vt 0.217294 0.676021
vt 0.300267 0.009771
vt 0.402756 0.009771
vt 0.505245 0.009771
vt 0.351511 0.009771
vt 0.422272 0.436439
vt 0.576006 0.416897
vt 0.832228 0.177445
vt 0.132130 0.901151
vt 0.123716 0.909575
vt 0.112724 0.914135
vt 0.100826 0.914135
vt 0.081420 0.901151
vt 0.076867 0.890144
vt 0.089833 0.909575
vt 0.076867 0.878230
vt 0.081420 0.867223
vt 0.100826 0.854239
vt 0.112724 0.854239
vt 0.123716 0.858799
vt 0.132130 0.867223
vt 0.639463 0.984388
vt 0.694673 0.984388
vt 0.761782 0.810872
vt 0.100663 0.661181
vt 0.884101 0.816713
vt 0.939312 0.816713
vt 0.923133 0.390045
vt 0.951210 0.797171
vt 0.100663 0.468123
vt 0.249022 0.869079
vt 0.895999 0.797171
vt 0.990242 0.370503
vt 0.935031 0.370503
vt 0.560456 0.984388
vt 0.840789 0.984388
vt 0.197156 0.028008
vt 0.230809 0.061706
vt 0.249022 0.105734
vt 0.249022 0.153390
vt 0.230809 0.197418
vt 0.197156 0.231116
vt 0.153186 0.249353
vt 0.153186 0.009771
vt 0.061624 0.231116
vt 0.009758 0.153390
vt 0.009758 0.105734
vt 0.027971 0.061706
vt 0.105594 0.249353
vt 0.149546 0.468123
vt 0.017690 0.655340
vt 0.840160 0.249223
vt 0.734020 0.436439
vt 0.564422 0.791330
vt 0.666911 0.436439
vt 0.149545 0.655340
vt 0.639463 0.436439
vt 0.631530 0.791330
vt 0.666911 0.623655
vt 0.017690 0.468123
vt 0.793196 0.604113
vt 0.532693 0.436439
vt 0.793196 0.791330
vt 0.773680 0.623655
vt 0.019727 0.374623
vt 0.167095 0.403976
vt 0.179237 0.342853
vt 0.083618 0.278878
vn 0.000000 0.000000 -1.000000
vn 0.382684 0.000000 -0.923879
vn 0.707107 0.000000 -0.707107
vn 0.923879 0.000000 -0.382684
vn 1.000000 0.000000 0.000000
vn 0.923880 0.000000 0.382684
vn 0.707107 0.000000 0.707107
vn 0.382684 0.000000 0.923879
vn 0.000000 0.000000 1.000000
vn -0.382683 0.000000 0.923880
vn -0.707107 0.000000 0.707107
vn -0.923880 0.000000 0.382683
vn -1.000000 0.000000 -0.000000
vn -0.923880 0.000000 -0.382683
vn 0.663644 0.345188 -0.663643
vn -0.382683 0.000000 -0.923880
vn -0.707106 0.000000 -0.707107
vn 0.000000 -1.000000 0.000000
vn 0.382683 0.000000 -0.923880
vn 0.923880 0.000000 -0.382683
vn 0.923880 0.000000 0.382683
vn -0.923879 0.000000 0.382683
vn -0.923879 0.000000 -0.382684
vn -0.707107 0.000000 -0.707107
vn 0.371674 0.238142 -0.897300
vn 0.000000 1.000000 0.000006
vn -0.867092 0.345187 -0.359162
vn 0.867092 0.345188 0.359161
vn 0.000000 0.345187 0.938534
vn -0.867092 0.345188 0.359162
vn 0.867092 0.345188 -0.359161
vn -0.663643 0.345188 -0.663644
vn 0.663644 0.345188 0.663643
vn -0.359162 0.345188 0.867092
vn 0.359162 0.345188 -0.867092
vn -0.938534 0.345188 0.000001
vn 0.938534 0.345188 0.000001
vn -0.359160 0.345187 -0.867093
vn 0.000000 0.345188 -0.938534
vn 0.359162 0.345188 0.867092
vn -0.663643 0.345188 0.663644
vn -0.971230 0.238142 0.000000
vn 0.971230 0.238142 -0.000000
vn -0.371673 0.238142 -0.897300
vn 0.000000 0.238142 -0.971230
vn 0.371674 0.238142 0.897300
vn -0.686763 0.238142 0.686764
vn 0.686763 0.238142 -0.686764
vn -0.897300 0.238142 -0.371674
vn 0.897300 0.238142 0.371674
vn 0.000000 0.238142 0.971230
vn -0.897300 0.238142 0.371674
vn 0.897300 0.238142 -0.371674
vn -0.686763 0.238142 -0.686764
vn 0.686763 0.238142 0.686763
vn -0.371674 0.238142 0.897300
vn 0.000000 -1.000000 0.000003
vn 0.000000 -1.000000 -0.000002
vn 0.000000 -1.000000 0.000009
vn 0.000000 -1.000000 0.000002
vn 0.923879 0.000000 0.382684
vn 0.707107 0.000000 0.707106
vn 0.000001 0.000000 1.000000
vn -0.382684 0.000000 0.923879
vn -0.923879 0.000000 0.382684
vn -0.707107 0.000000 -0.707106
vn 0.000000 -1.000000 -0.000009
vn 0.382683 0.000000 0.923880
vn 0.000000 1.000000 0.000058
vn 0.000000 1.000000 -0.000015
vn 0.000000 1.000000 0.000000
vn 0.000000 1.000000 -0.000001
vn 0.000000 1.000000 -0.000029
vn 0.000000 1.000000 -0.000004
vn 0.000000 1.000000 -0.000016
vn -0.867092 0.345188 -0.359161
vn 0.000000 1.000000 0.000002
vn 0.867092 0.345187 0.359162
vn 0.000001 0.345187 0.938534
vn -0.867093 0.345188 0.359159
vn 0.867091 0.345187 -0.359165
vn -0.663643 0.345187 -0.663644
vn 0.663643 0.345187 0.663644
vn -0.359161 0.345188 0.867092
vn 0.359162 0.345187 -0.867092
vn -0.938534 0.345188 0.000000
vn 0.938534 0.345188 0.000000
vn -0.359162 0.345188 -0.867092
vn 0.359161 0.345188 0.867092
vn -0.663644 0.345188 0.663644
vn -0.371674 0.238142 -0.897300
vn 0.686764 0.238142 -0.686764
vn 0.686764 0.238142 0.686763
vn -0.371673 0.238142 0.897300
vn 0.000000 -1.000000 0.000005
vn 0.000000 -1.000000 -0.000010
s off
f 2/1/1 4/2/1 3/3/1
f 4/4/2 6/5/2 5/6/2
f 6/7/3 8/8/3 7/9/3
f 8/10/4 10/11/4 9/12/4
f 10/13/5 12/14/5 11/15/5
f 12/16/6 14/17/6 13/18/6
f 14/19/7 16/20/7 15/21/7
f 16/22/8 18/23/8 17/24/8
f 18/25/9 20/26/9 19/27/9
f 20/28/10 22/29/10 21/30/10
f 22/31/11 24/32/11 23/33/11
f 24/34/12 26/35/12 25/36/12
f 26/37/13 28/38/13 27/39/13
f 28/40/14 30/41/14 29/42/14
f 6/43/15 67/44/15 68/45/15
f 32/46/16 2/47/16 1/48/16
f 30/49/17 32/50/17 31/51/17
f 5/52/18 38/53/18 36/54/18
f 34/55/1 36/56/1 35/57/1
f 36/58/19 38/59/19 37/60/19
f 38/61/3 40/62/3 39/63/3
f 40/64/20 42/65/20 41/66/20
f 42/67/5 44/68/5 43/69/5
f 44/70/21 46/71/21 45/72/21
f 46/73/7 48/74/7 47/75/7
f 48/76/8 50/77/8 49/78/8
f 50/79/9 52/80/9 51/81/9
f 52/82/10 54/83/10 53/84/10
f 54/85/11 56/86/11 55/87/11
f 56/88/22 58/89/22 57/90/22
f 58/91/13 60/92/13 59/93/13
f 60/94/23 62/95/23 61/96/23
f 63/97/16 64/98/16 34/99/16
f 62/100/24 64/101/24 63/102/24
f 35/103/25 37/104/25 83/105/25
f 68/106/26 67/107/26 73/108/26
f 28/109/27 78/110/27 79/111/27
f 12/112/28 70/113/28 71/114/28
f 20/115/29 18/116/29 73/117/29
f 26/118/30 24/119/30 76/120/30
f 10/121/31 8/122/31 68/123/31
f 32/124/32 30/125/32 79/126/32
f 16/127/33 14/128/33 71/129/33
f 20/130/34 74/131/34 75/132/34
f 6/133/35 4/134/35 66/135/35
f 26/136/36 77/137/36 78/138/36
f 10/139/37 69/140/37 70/141/37
f 32/142/38 80/143/38 65/144/38
f 2/145/39 65/146/39 66/147/39
f 16/148/40 72/149/40 73/150/40
f 22/151/41 75/152/41 76/153/41
f 96/154/18 81/155/18 92/156/18
f 59/157/42 94/158/42 93/159/42
f 43/160/43 86/161/43 85/162/43
f 33/163/44 81/164/44 96/165/44
f 35/166/45 82/167/45 81/168/45
f 49/169/46 89/170/46 88/171/46
f 55/172/47 92/173/47 91/174/47
f 39/175/48 84/176/48 83/177/48
f 59/178/49 61/179/49 95/180/49
f 45/181/50 87/182/50 86/183/50
f 51/184/51 90/185/51 89/186/51
f 57/187/52 93/188/52 92/189/52
f 39/190/53 41/191/53 85/192/53
f 63/193/54 96/194/54 95/195/54
f 45/196/55 47/197/55 88/198/55
f 51/199/56 53/200/56 91/201/56
f 1/202/57 3/203/57 36/54/57
f 64/204/18 31/205/18 1/202/18
f 62/206/18 29/207/18 31/205/18
f 27/208/18 29/207/18 62/206/18
f 25/209/18 27/208/18 60/210/18
f 23/211/58 25/209/58 58/212/58
f 21/213/18 23/211/18 56/214/18
f 52/215/59 19/216/59 21/213/59
f 17/217/60 19/216/60 52/215/60
f 48/218/18 15/219/18 17/217/18
f 46/220/18 13/221/18 15/219/18
f 44/222/18 11/223/18 13/221/18
f 9/224/18 11/223/18 44/222/18
f 40/225/18 7/226/18 9/224/18
f 38/53/18 5/52/18 7/226/18
f 1/227/1 2/1/1 3/3/1
f 3/228/19 4/4/19 5/6/19
f 5/229/3 6/7/3 7/9/3
f 7/230/4 8/10/4 9/12/4
f 9/231/5 10/13/5 11/15/5
f 11/232/61 12/16/61 13/18/61
f 13/233/62 14/19/62 15/21/62
f 15/234/8 16/22/8 17/24/8
f 17/235/63 18/25/63 19/27/63
f 19/236/64 20/28/64 21/30/64
f 21/237/11 22/31/11 23/33/11
f 23/238/65 24/34/65 25/36/65
f 25/239/13 26/37/13 27/39/13
f 27/240/14 28/40/14 29/42/14
f 8/241/15 6/43/15 68/45/15
f 31/242/16 32/46/16 1/48/16
f 29/243/66 30/49/66 31/51/66
f 3/203/67 5/52/67 36/54/67
f 33/244/1 34/55/1 35/57/1
f 35/245/19 36/58/19 37/60/19
f 37/246/3 38/61/3 39/63/3
f 39/247/20 40/64/20 41/66/20
f 41/248/5 42/67/5 43/69/5
f 43/249/21 44/70/21 45/72/21
f 45/250/7 46/73/7 47/75/7
f 47/251/68 48/76/68 49/78/68
f 49/252/9 50/79/9 51/81/9
f 51/253/10 52/82/10 53/84/10
f 53/254/11 54/85/11 55/87/11
f 55/255/65 56/88/65 57/90/65
f 57/256/13 58/91/13 59/93/13
f 59/257/23 60/94/23 61/96/23
f 33/258/16 63/97/16 34/99/16
f 61/259/24 62/100/24 63/102/24
f 82/260/25 35/103/25 83/105/25
f 67/107/69 66/261/69 65/262/69
f 65/262/70 80/263/70 79/264/70
f 77/265/71 76/266/71 78/267/71
f 75/268/72 79/264/72 76/266/72
f 75/268/73 74/269/73 73/108/73
f 73/108/71 72/270/71 71/271/71
f 71/271/74 70/272/74 69/273/74
f 76/266/71 79/264/71 78/267/71
f 67/107/75 65/262/75 79/264/75
f 71/271/71 69/273/71 68/106/71
f 71/271/71 68/106/71 73/108/71
f 30/274/76 28/109/76 79/111/76
f 67/107/77 79/264/77 75/268/77
f 14/275/78 12/112/78 71/114/78
f 67/107/71 75/268/71 73/108/71
f 74/276/79 20/115/79 73/117/79
f 77/277/80 26/118/80 76/120/80
f 69/278/81 10/121/81 68/123/81
f 80/279/82 32/124/82 79/126/82
f 72/280/83 16/127/83 71/129/83
f 22/281/84 20/130/84 75/132/84
f 67/282/85 6/133/85 66/135/85
f 28/283/86 26/136/86 78/138/86
f 12/284/87 10/139/87 70/141/87
f 2/285/88 32/142/88 65/144/88
f 4/286/39 2/145/39 66/147/39
f 18/287/89 16/148/89 73/150/89
f 24/288/90 22/151/90 76/153/90
f 92/156/18 81/155/18 83/289/18
f 83/289/18 84/290/18 85/291/18
f 86/292/18 87/293/18 85/291/18
f 88/294/18 89/295/18 87/293/18
f 81/155/18 82/296/18 83/289/18
f 92/156/18 89/295/18 91/297/18
f 92/156/18 93/298/18 94/299/18
f 94/299/18 95/300/18 96/154/18
f 85/291/18 89/295/18 92/156/18
f 87/293/18 89/295/18 85/291/18
f 85/291/18 92/156/18 83/289/18
f 92/156/18 94/299/18 96/154/18
f 89/295/18 90/301/18 91/297/18
f 57/302/42 59/157/42 93/159/42
f 41/303/43 43/160/43 85/162/43
f 63/304/91 33/163/91 96/165/91
f 33/305/45 35/166/45 81/168/45
f 47/306/46 49/169/46 88/171/46
f 53/307/47 55/172/47 91/174/47
f 37/308/92 39/175/92 83/177/92
f 94/309/49 59/178/49 95/180/49
f 43/310/50 45/181/50 86/183/50
f 49/311/51 51/184/51 89/186/51
f 55/312/52 57/187/52 92/189/52
f 84/313/53 39/190/53 85/192/53
f 61/314/54 63/193/54 95/195/54
f 87/315/93 45/196/93 88/198/93
f 90/316/94 51/199/94 91/201/94
f 34/317/18 1/202/18 36/54/18
f 34/317/18 64/204/18 1/202/18
f 64/204/18 62/206/18 31/205/18
f 60/210/18 27/208/18 62/206/18
f 58/212/18 25/209/18 60/210/18
f 56/214/60 23/211/60 58/212/60
f 54/318/95 21/213/95 56/214/95
f 54/318/18 52/215/18 21/213/18
f 50/319/18 17/217/18 52/215/18
f 50/319/96 48/218/96 17/217/96
f 48/218/18 46/220/18 15/219/18
f 46/220/18 44/222/18 13/221/18
f 42/320/18 9/224/18 44/222/18
f 42/320/18 40/225/18 9/224/18
f 40/225/18 38/53/18 7/226/18
