# Blender v2.76 (sub 0) OBJ File: 'MissileHuge.blend'
# www.blender.org
o Cylinder
v 0.081094 0.000000 -0.417192
v -0.237657 0.500000 -0.352341
v 0.234573 0.000000 -0.354401
v -0.354401 0.500000 -0.234573
v 0.352341 0.000000 -0.237657
v -0.417192 0.500000 -0.081094
v 0.416468 0.000000 -0.084731
v -0.416468 0.500000 0.084731
v 0.417192 0.000000 0.081094
v -0.352341 0.500000 0.237657
v 0.354401 0.000000 0.234573
v -0.234573 0.500000 0.354402
v 0.237657 0.000000 0.352341
v -0.081094 0.500000 0.417192
v 0.084731 0.000000 0.416468
v 0.084731 0.500000 0.416468
v -0.081094 0.000000 0.417192
v 0.237657 0.500000 0.352341
v -0.234573 0.000000 0.354402
v 0.354401 0.500000 0.234573
v -0.352341 0.000000 0.237657
v 0.417192 0.500000 0.081094
v -0.416468 0.000000 0.084731
v 0.416468 0.500000 -0.084731
v -0.417192 0.000000 -0.081094
v 0.352341 0.500000 -0.237657
v -0.354401 0.000000 -0.234573
v 0.234573 0.500000 -0.354401
v -0.237657 0.000000 -0.352341
v -0.084731 0.500000 -0.416468
v -0.084731 0.000000 -0.416468
v 0.081094 0.500000 -0.417192
v 0.095404 0.500000 -0.490814
v -0.099684 0.500000 -0.489962
v 0.275968 0.500000 -0.416943
v 0.414519 0.500000 -0.279596
v 0.489962 0.500000 -0.099684
v 0.490814 0.500000 0.095405
v 0.416943 0.500000 0.275968
v 0.279597 0.500000 0.414519
v 0.099684 0.500000 0.489962
v -0.095404 0.500000 0.490814
v -0.275968 0.500000 0.416943
v -0.414519 0.500000 0.279597
v -0.489962 0.500000 0.099684
v -0.490814 0.500000 -0.095405
v -0.416943 0.500000 -0.275969
v -0.279596 0.500000 -0.414519
v 0.095404 2.500000 -0.490814
v -0.099684 2.500000 -0.489962
v 0.275968 2.500000 -0.416943
v 0.414519 2.500000 -0.279596
v 0.489962 2.500000 -0.099684
v 0.490814 2.500000 0.095405
v 0.416943 2.500000 0.275968
v 0.279596 2.500000 0.414519
v 0.099684 2.500000 0.489962
v -0.095404 2.500000 0.490814
v -0.275968 2.500000 0.416943
v -0.414519 2.500000 0.279597
v -0.489962 2.500000 0.099684
v -0.490814 2.500000 -0.095405
v -0.416943 2.500000 -0.275969
v -0.279596 2.500000 -0.414519
v 0.071553 4.000000 -0.368110
v -0.074763 4.000000 -0.367472
v 0.206976 4.000000 -0.312707
v 0.310889 4.000000 -0.209697
v 0.367472 4.000000 -0.074763
v 0.368110 4.000000 0.071553
v 0.312707 4.000000 0.206976
v 0.209697 4.000000 0.310889
v 0.074763 4.000000 0.367472
v -0.071553 4.000000 0.368110
v -0.206976 4.000000 0.312707
v -0.310889 4.000000 0.209697
v -0.367472 4.000000 0.074763
v -0.368110 4.000000 -0.071553
v -0.312707 4.000000 -0.206976
v -0.209697 4.000000 -0.310889
v 0.053665 6.000000 -0.276083
v -0.056073 6.000000 -0.275604
v 0.155232 6.000000 -0.234530
v 0.233166 6.000000 -0.157273
v 0.275603 6.000000 -0.056072
v 0.276082 6.000000 0.053665
v 0.234530 6.000000 0.155232
v 0.157273 6.000000 0.233167
v 0.056072 6.000000 0.275604
v -0.053665 6.000000 0.276083
v -0.155233 6.000000 0.234530
v -0.233167 6.000000 0.157273
v -0.275604 6.000000 0.056072
v -0.276083 6.000000 -0.053665
v -0.234531 6.000000 -0.155232
v -0.157273 6.000000 -0.233167
v 0.000000 6.500000 0.000000
v 0.074763 5.500000 0.367472
v -0.071554 5.500000 0.368110
v 0.071553 5.500000 -0.368110
v 0.206976 5.500000 -0.312707
v -0.206977 5.500000 0.312707
v 0.310889 5.500000 -0.209697
v -0.310889 5.500000 0.209697
v 0.367471 5.500000 -0.074763
v -0.367472 5.500000 0.074763
v 0.368110 5.500000 0.071553
v -0.368110 5.500000 -0.071553
v 0.312707 5.500000 0.206976
v -0.312707 5.500000 -0.206976
v 0.209697 5.500000 0.310889
v -0.209697 5.500000 -0.310889
v -0.074763 5.500000 -0.367472
vt 0.719995 0.878111
vt 0.719995 0.797328
vt 0.745800 0.797328
vt 0.229668 0.775515
vt 0.229668 0.694733
vt 0.255473 0.694733
vt 0.670962 0.878110
vt 0.670962 0.797328
vt 0.696768 0.797328
vt 0.206440 0.694732
vt 0.206440 0.775515
vt 0.180635 0.775515
vt 0.893357 0.615566
vt 0.893357 0.534783
vt 0.919162 0.534783
vt 0.327733 0.775515
vt 0.327733 0.694732
vt 0.353538 0.694732
vt 0.813507 0.877302
vt 0.813507 0.796520
vt 0.839312 0.796520
vt 0.180635 0.875686
vt 0.180635 0.794903
vt 0.206440 0.794903
vt 0.344431 0.794903
vt 0.344431 0.875686
vt 0.318626 0.875686
vt 0.229668 0.875686
vt 0.229668 0.794903
vt 0.255473 0.794903
vt 0.794833 0.796520
vt 0.794833 0.877302
vt 0.769028 0.877302
vt 0.278701 0.775515
vt 0.278701 0.694733
vt 0.304506 0.694733
vt 0.893357 0.715737
vt 0.893357 0.634954
vt 0.919162 0.634954
vt 0.883790 0.796520
vt 0.883790 0.877302
vt 0.857985 0.877302
vt 0.070470 0.009694
vt 0.100829 0.009694
vt 0.098552 0.021579
vt 0.009337 0.241493
vt 0.087105 0.187543
vt 0.139068 0.268285
vt 0.042422 0.156093
vt 0.048906 0.146018
vt 0.072747 0.156271
vt 0.621930 0.878111
vt 0.621930 0.797328
vt 0.647735 0.797328
vt 0.260027 0.009694
vt 0.260027 0.332825
vt 0.229668 0.332825
vt 0.100829 0.168155
vt 0.098552 0.156271
vt 0.122392 0.146018
vt 0.072747 0.021579
vt 0.048906 0.031831
vt 0.128877 0.156093
vt 0.140639 0.127073
vt 0.042422 0.021756
vt 0.030659 0.050776
vt 0.161961 0.104685
vt 0.150344 0.133805
vt 0.020955 0.044044
vt 0.020784 0.075529
vt 0.150515 0.102321
vt 0.150515 0.075529
vt 0.009337 0.104685
vt 0.009337 0.073165
vt 0.161961 0.073165
vt 0.140639 0.050776
vt 0.020955 0.133805
vt 0.020784 0.102321
vt 0.128877 0.021756
vt 0.150344 0.044044
vt 0.030659 0.127073
vt 0.122392 0.031831
vt 0.299952 0.794903
vt 0.299952 0.875686
vt 0.274147 0.875686
vt 0.070470 0.168155
vt 0.719995 0.252851
vt 0.723790 0.009694
vt 0.746559 0.009694
vt 0.137761 0.341623
vt 0.137761 0.664754
vt 0.107402 0.664754
vt 0.088729 0.341623
vt 0.088729 0.664754
vt 0.058370 0.664754
vt 0.180635 0.332825
vt 0.180635 0.009694
vt 0.210994 0.009694
vt 0.376766 0.332825
vt 0.376766 0.009694
vt 0.407125 0.009694
vt 0.327733 0.352213
vt 0.358092 0.352213
vt 0.358092 0.675345
vt 0.309060 0.352213
vt 0.309060 0.675345
vt 0.278701 0.675345
vt 0.603256 0.009694
vt 0.603256 0.332825
vt 0.572897 0.332825
vt 0.309060 0.009694
vt 0.309060 0.332825
vt 0.278701 0.332825
vt 0.260027 0.352213
vt 0.260027 0.675345
vt 0.229668 0.675345
vt 0.554223 0.009694
vt 0.554223 0.332825
vt 0.523864 0.332825
vt 0.210994 0.352213
vt 0.210994 0.675345
vt 0.180635 0.675345
vt 0.505191 0.009694
vt 0.505191 0.332825
vt 0.474832 0.332825
vt 0.456158 0.009694
vt 0.456158 0.332825
vt 0.425799 0.332825
vt 0.358092 0.009694
vt 0.358092 0.332825
vt 0.327734 0.332825
vt 0.039696 0.341623
vt 0.039696 0.664754
vt 0.009337 0.664754
vt 0.229668 0.977211
vt 0.232514 0.895074
vt 0.249591 0.895074
vt 0.603256 0.595370
vt 0.572897 0.595370
vt 0.576692 0.352213
vt 0.621930 0.777940
vt 0.625725 0.534783
vt 0.648494 0.534783
vt 0.670962 0.777940
vt 0.674757 0.534783
vt 0.697526 0.534783
vt 0.799387 0.252851
vt 0.769028 0.252851
vt 0.772822 0.009694
vt 0.554223 0.595370
vt 0.523864 0.595370
vt 0.527659 0.352213
vt 0.670962 0.515395
vt 0.674757 0.272239
vt 0.697527 0.272239
vt 0.376766 0.595370
vt 0.380561 0.352213
vt 0.403330 0.352213
vt 0.750354 0.534783
vt 0.746559 0.777940
vt 0.723790 0.777940
vt 0.701321 0.252851
vt 0.670962 0.252851
vt 0.674757 0.009694
vt 0.799387 0.515395
vt 0.769028 0.515395
vt 0.772823 0.272239
vt 0.425799 0.595370
vt 0.429594 0.352213
vt 0.452363 0.352213
vt 0.621930 0.272239
vt 0.652289 0.272239
vt 0.648494 0.515395
vt 0.719995 0.515395
vt 0.723790 0.272239
vt 0.746559 0.272239
vt 0.621930 0.252851
vt 0.625725 0.009694
vt 0.648494 0.009694
vt 0.505191 0.595370
vt 0.474832 0.595370
vt 0.478626 0.352213
vt 0.849179 0.898386
vt 0.866178 0.896690
vt 0.866178 0.989376
vt 0.925233 0.878657
vt 0.902464 0.878657
vt 0.905310 0.796520
vt 0.923716 0.193357
vt 0.900946 0.193357
vt 0.903793 0.111219
vt 0.900946 0.497933
vt 0.903792 0.415796
vt 0.920869 0.415796
vt 0.516275 0.958632
vt 0.519121 0.876494
vt 0.536198 0.876494
vt 0.900946 0.091831
vt 0.903793 0.009694
vt 0.920869 0.009694
vt 0.557718 0.876494
vt 0.580487 0.876494
vt 0.577641 0.958632
vt 0.497601 0.876494
vt 0.494755 0.958632
vt 0.477678 0.958632
vt 0.335323 0.977211
vt 0.312554 0.977211
vt 0.315400 0.895074
vt 0.769028 0.978828
vt 0.771874 0.896690
vt 0.788951 0.896690
vt 0.180635 0.977211
vt 0.183481 0.895074
vt 0.200558 0.895074
vt 0.271111 0.977211
vt 0.273957 0.895074
vt 0.291034 0.895074
vt 0.433389 0.958632
vt 0.436235 0.876494
vt 0.453312 0.876494
vt 0.376766 0.958632
vt 0.379613 0.876494
vt 0.396690 0.876494
vt 0.900946 0.294882
vt 0.903793 0.212745
vt 0.920869 0.212745
vt 0.923716 0.396408
vt 0.900946 0.396408
vt 0.903793 0.314270
vt 0.942389 0.213604
vt 0.950927 0.121343
vt 0.959466 0.213604
vt 0.943907 0.878657
vt 0.952446 0.786396
vt 0.960984 0.878657
vt 0.813507 0.987681
vt 0.830505 0.896690
vt 0.830505 0.989376
vt 0.973586 0.627044
vt 0.982125 0.534783
vt 0.990663 0.627044
vt 0.959466 0.325253
vt 0.942389 0.325253
vt 0.950928 0.232992
vt 0.973586 0.738693
vt 0.982124 0.646432
vt 0.990663 0.738693
vt 0.938215 0.990306
vt 0.946753 0.898045
vt 0.955292 0.990306
vt 0.621930 0.988489
vt 0.638928 0.897498
vt 0.638928 0.990184
vt 0.902464 0.990306
vt 0.911002 0.898045
vt 0.919541 0.990306
vt 0.937836 0.627044
vt 0.946374 0.534783
vt 0.954912 0.627044
vt 0.670962 0.989759
vt 0.679501 0.897498
vt 0.688039 0.989760
vt 0.719995 0.989760
vt 0.728534 0.897498
vt 0.737072 0.989760
vt 0.937836 0.738693
vt 0.946374 0.646432
vt 0.954912 0.738693
vt 0.942389 0.436902
vt 0.950929 0.344641
vt 0.959466 0.436902
vt 0.942389 0.101955
vt 0.950928 0.009694
vt 0.959466 0.101955
vt 0.133666 0.926491
vt 0.133666 0.684142
vt 0.156435 0.684142
vt 0.859503 0.252043
vt 0.859503 0.009694
vt 0.882273 0.009694
vt 0.769028 0.777132
vt 0.769028 0.534783
vt 0.791797 0.534783
vt 0.833240 0.534783
vt 0.833240 0.777132
vt 0.810471 0.777132
vt 0.032106 0.684142
vt 0.032106 0.926491
vt 0.009337 0.926491
vt 0.399535 0.614758
vt 0.399535 0.857106
vt 0.376766 0.857106
vt 0.874683 0.534783
vt 0.874683 0.777132
vt 0.851914 0.777132
vt 0.456158 0.614758
vt 0.456158 0.857106
vt 0.433389 0.857106
vt 0.539044 0.614758
vt 0.539044 0.857106
vt 0.516275 0.857106
vt 0.818060 0.252043
vt 0.818060 0.009694
vt 0.840830 0.009694
vt 0.114992 0.684142
vt 0.114992 0.926491
vt 0.092223 0.926491
vt 0.882273 0.271430
vt 0.882273 0.513779
vt 0.859503 0.513779
vt 0.595666 0.614758
vt 0.595666 0.857107
vt 0.572897 0.857106
vt 0.497601 0.614758
vt 0.497601 0.857107
vt 0.474832 0.857107
vt 0.073549 0.684142
vt 0.073549 0.926491
vt 0.050780 0.926491
vt 0.840830 0.513779
vt 0.818060 0.513779
vt 0.818060 0.271430
vt 0.745800 0.878111
vt 0.255473 0.775515
vt 0.696768 0.878110
vt 0.180635 0.694733
vt 0.919162 0.615566
vt 0.353538 0.775515
vt 0.839312 0.877302
vt 0.206440 0.875686
vt 0.318626 0.794903
vt 0.255473 0.875686
vt 0.769028 0.796520
vt 0.304506 0.775515
vt 0.919162 0.715737
vt 0.857985 0.796520
vt 0.129193 0.293038
vt 0.110946 0.311982
vt 0.087105 0.322235
vt 0.061300 0.322235
vt 0.037459 0.311982
vt 0.019212 0.293038
vt 0.009337 0.268285
vt 0.019212 0.216741
vt 0.037459 0.197796
vt 0.061300 0.187543
vt 0.110946 0.197796
vt 0.129193 0.216741
vt 0.139068 0.241493
vt 0.647735 0.878111
vt 0.229668 0.009694
vt 0.274147 0.794903
vt 0.750354 0.252851
vt 0.107402 0.341623
vt 0.058370 0.341623
vt 0.210994 0.332825
vt 0.407125 0.332825
vt 0.327733 0.675345
vt 0.278701 0.352213
vt 0.572897 0.009694
vt 0.278701 0.009694
vt 0.229668 0.352213
vt 0.523864 0.009694
vt 0.180635 0.352213
vt 0.474832 0.009694
vt 0.425799 0.009694
vt 0.327733 0.009694
vt 0.009337 0.341623
vt 0.252437 0.977211
vt 0.599461 0.352213
vt 0.652289 0.777940
vt 0.701321 0.777940
vt 0.795592 0.009694
vt 0.550428 0.352213
vt 0.701321 0.515395
vt 0.407125 0.595370
vt 0.719995 0.534783
vt 0.697526 0.009694
vt 0.795592 0.272239
vt 0.456158 0.595370
vt 0.625725 0.515395
vt 0.750354 0.515395
vt 0.652289 0.252851
vt 0.501396 0.352213
vt 0.922387 0.796520
vt 0.920869 0.111219
vt 0.923716 0.497933
vt 0.539044 0.958632
vt 0.923716 0.091831
vt 0.560564 0.958632
vt 0.474832 0.876494
vt 0.332477 0.895074
vt 0.791797 0.978828
vt 0.203404 0.977211
vt 0.293880 0.977211
vt 0.456158 0.958632
vt 0.399535 0.958632
vt 0.923716 0.294882
vt 0.920869 0.314270
vt 0.156435 0.926491
vt 0.882273 0.252043
vt 0.791797 0.777132
vt 0.810471 0.534783
vt 0.009337 0.684142
vt 0.376766 0.614758
vt 0.851914 0.534783
vt 0.433389 0.614758
vt 0.516275 0.614758
vt 0.840830 0.252042
vt 0.092223 0.684142
vt 0.859503 0.271430
vt 0.572897 0.614758
vt 0.474832 0.614758
vt 0.050780 0.684142
vt 0.840830 0.271430
vn 0.704000 0.000000 -0.710200
vn -0.704000 0.000000 0.710200
vn 0.922200 0.000000 -0.386700
vn -0.922200 0.000000 0.386700
vn 1.000000 0.000000 -0.004400
vn -1.000000 0.000000 0.004400
vn 0.925500 0.000000 0.378600
vn -0.925500 0.000000 -0.378600
vn 0.710200 0.000000 0.704000
vn -0.710200 0.000000 -0.704000
vn 0.386700 0.000000 0.922200
vn -0.004400 0.000000 -1.000000
vn -0.386700 0.000000 -0.922200
vn 0.004400 0.000000 1.000000
vn 0.000000 -1.000000 0.000000
vn -0.378600 0.000000 0.925500
vn 0.378600 0.000000 -0.925500
vn 0.919100 0.081500 -0.385400
vn 0.004300 0.180900 0.983500
vn -0.919100 0.081500 0.385400
vn 0.996700 0.081500 -0.004300
vn -0.996700 0.081500 0.004300
vn 0.922500 0.081500 0.377400
vn -0.922500 0.081500 -0.377400
vn 0.707800 0.081500 0.701700
vn -0.707800 0.081500 -0.701700
vn 0.385400 0.081500 0.919100
vn -0.004300 0.081500 -0.996700
vn -0.385400 0.081500 -0.919100
vn 0.004300 0.081500 0.996700
vn 0.377400 0.081500 -0.922500
vn -0.377400 0.081500 0.922500
vn 0.701700 0.081500 -0.707800
vn -0.701700 0.081500 0.707800
vn 0.616400 0.483100 -0.621800
vn 0.372400 0.180900 -0.910300
vn -0.372400 0.180900 0.910300
vn 0.692400 0.180900 -0.698500
vn -0.692400 0.180900 0.698500
vn 0.907000 0.180900 -0.380300
vn -0.907000 0.180900 0.380300
vn 0.983500 0.180900 -0.004300
vn -0.983500 0.180900 0.004300
vn 0.910300 0.180900 0.372400
vn -0.910300 0.180900 -0.372400
vn 0.698500 0.180900 0.692400
vn -0.698500 0.180900 -0.692400
vn 0.380300 0.180900 0.907000
vn -0.004300 0.180900 -0.983500
vn -0.380300 0.180900 -0.907000
vn 0.807500 0.483100 -0.338600
vn 0.875600 0.483100 -0.003800
vn 0.810400 0.483100 0.331500
vn 0.621800 0.483100 0.616400
vn 0.331500 0.483100 -0.810400
vn 0.338600 0.483100 0.807500
vn 0.003800 0.483100 0.875600
vn -0.331500 0.483100 0.810400
vn -0.616400 0.483100 0.621800
vn -0.807500 0.483100 0.338600
vn -0.875600 0.483100 0.003800
vn -0.810400 0.483100 -0.331500
vn -0.621800 0.483100 -0.616400
vn -0.338600 0.483100 -0.807500
vn -0.003800 0.483100 -0.875600
s off
f 26/1/1 5/2/1 3/3/1
f 10/4/2 21/5/2 19/6/2
f 24/7/3 7/8/3 5/9/3
f 8/10/4 23/11/4 21/12/4
f 22/13/5 9/14/5 7/15/5
f 6/16/6 25/17/6 23/18/6
f 20/19/7 11/20/7 9/21/7
f 4/22/8 27/23/8 25/24/8
f 18/25/9 13/26/9 11/27/9
f 2/28/10 29/29/10 27/30/10
f 16/31/11 15/32/11 13/33/11
f 32/34/12 1/35/12 31/36/12
f 30/37/13 31/38/13 29/39/13
f 14/40/14 17/41/14 15/42/14
f 40/43/15 41/44/15 16/45/15
f 15/46/15 23/47/15 31/48/15
f 33/49/15 32/50/15 30/51/15
f 12/52/16 19/53/16 17/54/16
f 46/55/8 62/56/8 63/57/8
f 48/58/15 2/59/15 4/60/15
f 40/43/15 18/61/15 20/62/15
f 47/63/15 4/60/15 6/64/15
f 39/65/15 20/62/15 22/66/15
f 45/67/15 46/68/15 6/64/15
f 38/69/15 22/66/15 24/70/15
f 45/67/15 8/71/15 10/72/15
f 36/73/15 37/74/15 24/70/15
f 44/75/15 10/72/15 12/76/15
f 35/77/15 36/73/15 26/78/15
f 42/79/15 43/80/15 12/76/15
f 35/77/15 28/81/15 32/50/15
f 42/79/15 14/82/15 16/45/15
f 28/83/17 3/84/17 1/85/17
f 34/86/15 30/51/15 2/59/15
f 52/87/18 68/88/18 69/89/18
f 39/90/9 55/91/9 56/92/9
f 47/93/10 63/94/10 64/95/10
f 40/96/11 56/97/11 57/98/11
f 34/99/12 50/100/12 49/101/12
f 34/102/13 48/103/13 64/104/13
f 41/105/14 57/106/14 58/107/14
f 33/108/17 49/109/17 51/110/17
f 42/111/16 58/112/16 59/113/16
f 35/114/1 51/115/1 52/116/1
f 43/117/2 59/118/2 60/119/2
f 36/120/3 52/121/3 53/122/3
f 44/123/4 60/124/4 61/125/4
f 37/126/5 53/127/5 54/128/5
f 45/129/6 61/130/6 62/131/6
f 38/132/7 54/133/7 55/134/7
f 98/135/19 89/136/19 90/137/19
f 61/138/20 60/139/20 76/140/20
f 53/141/21 69/142/21 70/143/21
f 61/144/22 77/145/22 78/146/22
f 55/147/23 54/148/23 70/149/23
f 63/150/24 62/151/24 78/152/24
f 55/153/25 71/154/25 72/155/25
f 63/156/26 79/157/26 80/158/26
f 56/159/27 72/160/27 73/161/27
f 49/162/28 50/163/28 66/164/28
f 50/165/29 64/166/29 80/167/29
f 57/168/30 73/169/30 74/170/30
f 51/171/31 49/172/31 65/173/31
f 58/174/32 74/175/32 75/176/32
f 51/177/33 67/178/33 68/179/33
f 60/180/34 59/181/34 75/182/34
f 84/183/35 83/184/35 97/185/35
f 101/186/36 100/187/36 81/188/36
f 102/189/37 99/190/37 90/191/37
f 101/192/38 83/193/38 84/194/38
f 102/195/39 91/196/39 92/197/39
f 103/198/40 84/199/40 85/200/40
f 106/201/41 104/202/41 92/203/41
f 105/204/42 85/205/42 86/206/42
f 108/207/43 106/208/43 93/209/43
f 107/210/44 86/211/44 87/212/44
f 108/213/45 94/214/45 95/215/45
f 109/216/46 87/217/46 88/218/46
f 110/219/47 95/220/47 96/221/47
f 111/222/48 88/223/48 89/224/48
f 113/225/49 82/226/49 81/227/49
f 113/228/50 112/229/50 96/230/50
f 84/231/51 97/232/51 85/233/51
f 85/234/52 97/235/52 86/236/52
f 86/237/53 97/238/53 87/239/53
f 87/240/54 97/241/54 88/242/54
f 83/243/55 81/244/55 97/245/55
f 88/246/56 97/247/56 89/248/56
f 89/249/57 97/250/57 90/251/57
f 90/252/58 97/253/58 91/254/58
f 91/255/59 97/256/59 92/257/59
f 92/258/60 97/259/60 93/260/60
f 93/261/61 97/262/61 94/263/61
f 94/264/62 97/265/62 95/266/62
f 95/267/63 97/268/63 96/269/63
f 96/270/64 97/271/64 82/272/64
f 82/273/65 97/274/65 81/275/65
f 80/276/13 112/277/13 113/278/13
f 66/279/12 113/280/12 100/281/12
f 72/282/11 111/283/11 98/284/11
f 79/285/10 110/286/10 112/287/10
f 71/288/9 109/289/9 111/290/9
f 78/291/8 108/292/8 110/293/8
f 70/294/7 107/295/7 109/296/7
f 77/297/6 106/298/6 108/299/6
f 69/300/5 105/301/5 107/302/5
f 76/303/4 104/304/4 106/305/4
f 68/306/3 103/307/3 105/308/3
f 75/309/2 102/310/2 104/311/2
f 67/312/1 101/313/1 103/314/1
f 74/315/16 99/316/16 102/317/16
f 65/318/17 100/319/17 101/320/17
f 74/321/14 73/322/14 98/323/14
f 28/324/1 26/1/1 3/3/1
f 12/325/2 10/4/2 19/6/2
f 26/326/3 24/7/3 5/9/3
f 10/327/4 8/10/4 21/12/4
f 24/328/5 22/13/5 7/15/5
f 8/329/6 6/16/6 23/18/6
f 22/330/7 20/19/7 9/21/7
f 6/331/8 4/22/8 25/24/8
f 20/332/9 18/25/9 11/27/9
f 4/333/10 2/28/10 27/30/10
f 18/334/11 16/31/11 13/33/11
f 30/335/12 32/34/12 31/36/12
f 2/336/13 30/37/13 29/39/13
f 16/337/14 14/40/14 15/42/14
f 18/61/15 40/43/15 16/45/15
f 31/48/15 1/338/15 3/339/15
f 3/339/15 5/340/15 7/341/15
f 7/341/15 9/342/15 11/343/15
f 11/343/15 13/344/15 15/46/15
f 15/46/15 17/345/15 23/47/15
f 19/346/15 21/347/15 23/47/15
f 23/47/15 25/348/15 27/349/15
f 27/349/15 29/350/15 23/47/15
f 31/48/15 3/339/15 7/341/15
f 7/341/15 11/343/15 15/46/15
f 17/345/15 19/346/15 23/47/15
f 23/47/15 29/350/15 31/48/15
f 31/48/15 7/341/15 15/46/15
f 34/86/15 33/49/15 30/51/15
f 14/351/16 12/52/16 17/54/16
f 47/352/8 46/55/8 63/57/8
f 47/63/15 48/58/15 4/60/15
f 39/65/15 40/43/15 20/62/15
f 46/68/15 47/63/15 6/64/15
f 38/69/15 39/65/15 22/66/15
f 8/71/15 45/67/15 6/64/15
f 37/74/15 38/69/15 24/70/15
f 44/75/15 45/67/15 10/72/15
f 26/78/15 36/73/15 24/70/15
f 43/80/15 44/75/15 12/76/15
f 28/81/15 35/77/15 26/78/15
f 14/82/15 42/79/15 12/76/15
f 33/49/15 35/77/15 32/50/15
f 41/44/15 42/79/15 16/45/15
f 32/353/17 28/83/17 1/85/17
f 48/58/15 34/86/15 2/59/15
f 53/354/18 52/87/18 69/89/18
f 40/355/9 39/90/9 56/92/9
f 48/356/10 47/93/10 64/95/10
f 41/357/11 40/96/11 57/98/11
f 33/358/12 34/99/12 49/101/12
f 50/359/13 34/102/13 64/104/13
f 42/360/14 41/105/14 58/107/14
f 35/361/17 33/108/17 51/110/17
f 43/362/16 42/111/16 59/113/16
f 36/363/1 35/114/1 52/116/1
f 44/364/2 43/117/2 60/119/2
f 37/365/3 36/120/3 53/122/3
f 45/366/4 44/123/4 61/125/4
f 38/367/5 37/126/5 54/128/5
f 46/368/6 45/129/6 62/131/6
f 39/369/7 38/132/7 55/134/7
f 99/370/19 98/135/19 90/137/19
f 77/371/20 61/138/20 76/140/20
f 54/372/21 53/141/21 70/143/21
f 62/373/22 61/144/22 78/146/22
f 71/374/23 55/147/23 70/149/23
f 79/375/24 63/150/24 78/152/24
f 56/376/25 55/153/25 72/155/25
f 64/377/26 63/156/26 80/158/26
f 57/378/27 56/159/27 73/161/27
f 65/379/28 49/162/28 66/164/28
f 66/380/29 50/165/29 80/167/29
f 58/381/30 57/168/30 74/170/30
f 67/382/31 51/171/31 65/173/31
f 59/383/32 58/174/32 75/176/32
f 52/384/33 51/177/33 68/179/33
f 76/385/34 60/180/34 75/182/34
f 83/386/36 101/186/36 81/188/36
f 91/387/37 102/189/37 90/191/37
f 103/388/38 101/192/38 84/194/38
f 104/389/39 102/195/39 92/197/39
f 105/390/40 103/198/40 85/200/40
f 93/391/41 106/201/41 92/203/41
f 107/392/42 105/204/42 86/206/42
f 94/393/43 108/207/43 93/209/43
f 109/394/44 107/210/44 87/212/44
f 110/395/45 108/213/45 95/215/45
f 111/396/46 109/216/46 88/218/46
f 112/397/47 110/219/47 96/221/47
f 98/398/48 111/222/48 89/224/48
f 100/399/49 113/225/49 81/227/49
f 82/400/50 113/228/50 96/230/50
f 66/401/13 80/276/13 113/278/13
f 65/402/12 66/279/12 100/281/12
f 73/403/11 72/282/11 98/284/11
f 80/404/10 79/285/10 112/287/10
f 72/405/9 71/288/9 111/290/9
f 79/406/8 78/291/8 110/293/8
f 71/407/7 70/294/7 109/296/7
f 78/408/6 77/297/6 108/299/6
f 70/409/5 69/300/5 107/302/5
f 77/410/4 76/303/4 106/305/4
f 69/411/3 68/306/3 105/308/3
f 76/412/2 75/309/2 104/311/2
f 68/413/1 67/312/1 103/314/1
f 75/414/16 74/315/16 102/317/16
f 67/415/17 65/318/17 101/320/17
f 99/416/14 74/321/14 98/323/14
