# Blender v2.76 (sub 0) OBJ File: 'MissileNuclear.blend'
# www.blender.org
o Cylinder
v -0.073159 0.500000 -0.367794
v 0.073159 0.500000 -0.367794
v 0.097545 0.000000 -0.490393
v 0.208339 0.500000 -0.311801
v 0.277785 0.000000 -0.415735
v 0.311801 0.500000 -0.208339
v 0.415735 0.000000 -0.277785
v 0.367794 0.500000 -0.073159
v 0.490393 0.000000 -0.097545
v 0.367794 0.500000 0.073159
v 0.490393 -0.000000 0.097545
v 0.311801 0.500000 0.208339
v 0.415735 -0.000000 0.277785
v 0.208339 0.500000 0.311801
v 0.277785 -0.000000 0.415735
v 0.073159 0.500000 0.367794
v 0.097545 -0.000000 0.490393
v -0.073159 0.500000 0.367794
v -0.097545 -0.000000 0.490393
v -0.208339 0.500000 0.311801
v -0.277785 -0.000000 0.415735
v -0.311801 0.500000 0.208339
v -0.415735 -0.000000 0.277785
v -0.367794 0.500000 0.073159
v -0.490393 -0.000000 0.097545
v -0.367794 0.500000 -0.073159
v -0.311801 0.500000 -0.208339
v -0.415735 0.000000 -0.277785
v 0.097545 0.500000 -0.490393
v -0.208339 0.500000 -0.311801
v -0.097545 0.000000 -0.490393
v -0.277785 0.000000 -0.415735
v -0.490393 0.500000 0.097545
v -0.490393 0.500000 -0.097545
v 0.490393 0.500000 -0.097545
v 0.490393 0.500000 0.097545
v -0.277785 0.500000 -0.415735
v -0.097545 0.500000 -0.490393
v 0.277785 0.500000 0.415735
v 0.097545 0.500000 0.490393
v -0.277785 0.500000 0.415735
v 0.277785 0.500000 -0.415735
v -0.415735 0.500000 -0.277785
v 0.415735 0.500000 0.277785
v -0.097545 0.500000 0.490393
v -0.415735 0.500000 0.277785
v 0.415735 0.500000 -0.277785
v 0.277785 3.500000 -0.415735
v 0.260424 4.500000 -0.389751
v 0.389751 4.500000 -0.260424
v 0.459743 4.500000 -0.091449
v 0.353374 5.000000 -0.236117
v -0.490393 3.500000 -0.097545
v -0.459744 4.500000 -0.091449
v -0.389751 4.500000 -0.260424
v -0.097545 3.500000 -0.490393
v -0.091449 4.500000 -0.459742
v 0.091449 4.500000 -0.459742
v -0.490393 3.500000 0.097545
v -0.415735 3.500000 0.277785
v -0.389751 4.500000 0.260424
v -0.097545 3.500000 0.490393
v -0.091449 4.500000 0.459744
v -0.260424 4.500000 0.389751
v 0.277785 3.500000 0.415735
v 0.260424 4.500000 0.389751
v 0.091449 4.500000 0.459743
v 0.490393 3.500000 0.097545
v 0.459743 4.500000 0.091449
v 0.389751 4.500000 0.260424
v 0.490393 3.500000 -0.097545
v 0.415735 3.500000 -0.277785
v -0.277785 3.500000 -0.415735
v -0.415735 3.500000 -0.277785
v 0.097545 3.500000 -0.490393
v -0.459744 4.500000 0.091449
v -0.277785 3.500000 0.415735
v 0.097545 3.500000 0.490393
v 0.415735 3.500000 0.277785
v -0.260424 4.500000 -0.389751
v 0.416833 5.000000 -0.082913
v 0.245196 5.500000 -0.048772
v 0.245196 5.500000 0.048773
v -0.353375 5.000000 -0.236117
v 0.082913 5.000000 -0.416834
v -0.416834 5.000000 0.082913
v -0.236117 5.000000 0.353375
v -0.353375 5.000000 0.236117
v 0.082913 5.000000 0.416834
v -0.082913 5.000000 0.416834
v 0.353374 5.000000 0.236117
v 0.236117 5.000000 0.353375
v 0.416833 5.000000 0.082913
v -0.236117 5.000000 -0.353375
v 0.236117 5.000000 -0.353375
v -0.416834 5.000000 -0.082913
v -0.082914 5.000000 -0.416834
v -0.138893 5.500000 -0.207867
v -0.048773 5.500000 -0.245196
v 0.138892 5.500000 -0.207867
v 0.207867 5.500000 -0.138892
v -0.245197 5.500000 -0.048772
v -0.207868 5.500000 -0.138892
v 0.048772 5.500000 -0.245196
v -0.207868 5.500000 0.138893
v -0.245197 5.500000 0.048773
v -0.048773 5.500000 0.245197
v -0.138893 5.500000 0.207868
v 0.138892 5.500000 0.207868
v 0.048772 5.500000 0.245197
v 0.207867 5.500000 0.138893
v 0.000000 5.750000 0.000000
v 0.048772 1.500000 1.240393
v 0.048772 0.500000 1.240393
v 0.048773 3.500000 0.490393
v 0.048772 0.500000 0.490393
v -0.048773 0.500000 0.490393
v -0.048773 0.500000 1.240393
v -0.048772 3.500000 0.490393
v 1.240393 0.500000 -0.048772
v 1.240393 0.500000 0.048773
v 0.490393 0.500000 0.048773
v 0.490393 0.500000 -0.048772
v -0.048772 3.500000 -0.490393
v 0.048773 3.500000 -0.490393
v -0.048772 1.500000 -1.240393
v -0.490393 0.500000 -0.048772
v -0.490393 0.500000 0.048772
v -1.240393 0.500000 -0.048773
v -1.240393 0.500000 0.048772
v -0.490393 3.500000 0.048772
v -0.048773 1.500000 1.240393
v 0.048773 1.500000 -1.240393
v -0.048772 0.500000 -1.240393
v -1.240393 1.500000 -0.048773
v -0.490393 3.500000 -0.048773
v -1.240393 1.500000 0.048772
v 0.048773 0.500000 -1.240393
v 0.490393 3.500000 0.048773
v 1.240393 1.500000 0.048773
v 1.240393 1.500000 -0.048772
v -0.490393 0.000000 -0.097545
v 0.048773 0.500000 -0.490393
v -0.048772 0.500000 -0.490393
v 0.490393 3.500000 -0.048772
vt 0.053190 0.141950
vt 0.047633 0.125797
vt 0.103538 0.103554
vt 0.040574 0.110242
vt 0.094127 0.082814
vt 0.032077 0.095424
vt 0.082797 0.063057
vt 0.022216 0.081476
vt 0.069650 0.044459
vt 0.011082 0.068522
vt 0.054804 0.027187
vt 0.011082 0.316533
vt 0.022216 0.303579
vt 0.069650 0.340596
vt 0.032077 0.289631
vt 0.082797 0.321998
vt 0.040574 0.274813
vt 0.094127 0.302241
vt 0.047633 0.259258
vt 0.103538 0.281501
vt 0.053190 0.243105
vt 0.110948 0.259964
vt 0.057195 0.226500
vt 0.116288 0.237824
vt 0.059612 0.209590
vt 0.119511 0.215277
vt 0.060420 0.192527
vt 0.059612 0.175465
vt 0.119511 0.169778
vt 0.679575 0.027188
vt 0.696657 0.027188
vt 0.699504 0.041501
vt 0.057195 0.158555
vt 0.110948 0.125091
vt 0.116288 0.147231
vt 0.867028 0.797659
vt 0.883133 0.716696
vt 0.947992 0.813764
vt 0.810535 0.027188
vt 0.813382 0.041500
vt 0.790607 0.041500
vt 0.628329 0.027189
vt 0.631176 0.041502
vt 0.608401 0.041502
vt 0.742208 0.027188
vt 0.745055 0.041501
vt 0.722279 0.041501
vt 0.702351 0.027188
vt 0.719432 0.027188
vt 0.924414 0.027187
vt 0.927261 0.041500
vt 0.904485 0.041500
vt 0.839005 0.027187
vt 0.856087 0.027187
vt 0.858934 0.041500
vt 0.656799 0.027189
vt 0.673881 0.027189
vt 0.676728 0.041501
vt 0.787760 0.027188
vt 0.767831 0.041501
vt 0.969966 0.027187
vt 0.972813 0.041500
vt 0.950037 0.041500
vt 0.901638 0.027187
vt 0.881710 0.041500
vt 0.833311 0.027187
vt 0.836158 0.041500
vt 0.634023 0.027189
vt 0.651105 0.027189
vt 0.653952 0.041501
vt 0.764984 0.027188
vt 0.947190 0.027187
vt 0.861781 0.027187
vt 0.878863 0.027187
vt 0.676732 0.391730
vt 0.676021 0.508528
vt 0.654669 0.508529
vt 0.631894 0.508529
vt 0.653246 0.508529
vt 0.652250 0.567115
vt 0.790609 0.391729
vt 0.789898 0.508527
vt 0.768546 0.508528
vt 0.722282 0.391730
vt 0.721572 0.508527
vt 0.700220 0.508527
vt 0.813384 0.391729
vt 0.836160 0.391729
vt 0.835449 0.508527
vt 0.881711 0.391729
vt 0.880999 0.508527
vt 0.859647 0.508527
vt 0.927261 0.391729
vt 0.926550 0.508527
vt 0.905198 0.508527
vt 0.972812 0.391729
vt 0.972100 0.508527
vt 0.950749 0.508527
vt 0.631181 0.391731
vt 0.653956 0.391731
vt 0.745058 0.391730
vt 0.767833 0.391730
vt 0.767122 0.508528
vt 0.699507 0.391730
vt 0.698796 0.508528
vt 0.812673 0.508527
vt 0.791321 0.508527
vt 0.858935 0.391729
vt 0.858224 0.508527
vt 0.904486 0.391729
vt 0.903775 0.508526
vt 0.882423 0.508526
vt 0.950037 0.391729
vt 0.949325 0.508527
vt 0.630471 0.508528
vt 0.609119 0.508528
vt 0.744347 0.508528
vt 0.722995 0.508528
vt 0.629475 0.567114
vt 0.625490 0.628829
vt 0.614102 0.628829
vt 0.745770 0.508528
vt 0.766126 0.567114
vt 0.677444 0.508528
vt 0.697801 0.567114
vt 0.811677 0.567113
vt 0.857228 0.567113
vt 0.837869 0.567113
vt 0.902778 0.567112
vt 0.883419 0.567112
vt 0.948329 0.567113
vt 0.928970 0.567113
vt 0.610116 0.567114
vt 0.743351 0.567114
vt 0.675025 0.567114
vt 0.788902 0.567114
vt 0.720576 0.567113
vt 0.834453 0.567113
vt 0.815093 0.567114
vt 0.880003 0.567113
vt 0.860644 0.567113
vt 0.925553 0.567113
vt 0.906194 0.567113
vt 0.971104 0.567113
vt 0.951745 0.567113
vt 0.739366 0.628829
vt 0.727978 0.628829
vt 0.671040 0.628829
vt 0.659653 0.628829
vt 0.784916 0.628829
vt 0.773529 0.628829
vt 0.716591 0.628828
vt 0.705203 0.628828
vt 0.830467 0.628828
vt 0.819080 0.628828
vt 0.876018 0.628828
vt 0.864630 0.628828
vt 0.921568 0.628828
vt 0.910180 0.628828
vt 0.967119 0.628828
vt 0.955731 0.628828
vt 0.632891 0.567115
vt 0.648265 0.628830
vt 0.762141 0.628829
vt 0.750753 0.628829
vt 0.693816 0.628829
vt 0.682428 0.628829
vt 0.807692 0.628828
vt 0.796304 0.628828
vt 0.853242 0.628828
vt 0.841855 0.628828
vt 0.898793 0.628826
vt 0.887405 0.628826
vt 0.944343 0.628828
vt 0.932955 0.628828
vt 0.779223 0.669709
vt 0.756447 0.669709
vt 0.733672 0.669709
vt 0.824774 0.669709
vt 0.710897 0.669708
vt 0.688122 0.669709
vt 0.665347 0.669710
vt 0.642572 0.669711
vt 0.636877 0.628830
vt 0.619797 0.669709
vt 0.961425 0.669709
vt 0.938649 0.669708
vt 0.915874 0.669708
vt 0.893099 0.669707
vt 0.870324 0.669709
vt 0.847549 0.669708
vt 0.801998 0.669709
vt 0.257803 0.231487
vt 0.257803 0.114744
vt 0.345360 0.464974
vt 0.345360 0.114744
vt 0.158858 0.114744
vt 0.246415 0.114744
vt 0.158858 0.464974
vt 0.482575 0.114744
vt 0.471187 0.114744
vt 0.471187 0.027187
vt 0.482575 0.027187
vt 0.257803 0.972808
vt 0.246415 0.972808
vt 0.257803 0.723435
vt 0.471187 0.519135
vt 0.482575 0.519136
vt 0.471187 0.606692
vt 0.482575 0.606692
vt 0.570132 0.606692
vt 0.570132 0.956921
vt 0.246415 0.231487
vt 0.246415 0.723435
vt 0.257802 0.606692
vt 0.471187 0.723435
vt 0.383629 0.956921
vt 0.482575 0.723435
vt 0.246415 0.606692
vt 0.383630 0.606692
vt 0.471187 0.480867
vt 0.471187 0.231487
vt 0.482575 0.231487
vt 0.054804 0.357868
vt 0.120589 0.192527
vt 0.964097 0.732800
vt 0.972813 0.753842
vt 0.972813 0.776617
vt 0.964097 0.797659
vt 0.904175 0.822480
vt 0.926950 0.822480
vt 0.883133 0.813764
vt 0.611247 0.027189
vt 0.858313 0.776618
vt 0.867028 0.732800
vt 0.904175 0.707980
vt 0.926951 0.707980
vt 0.947992 0.716696
vt 0.858313 0.753842
vt 0.793454 0.027188
vt 0.725126 0.027188
vt 0.907332 0.027187
vt 0.770678 0.027188
vt 0.952884 0.027187
vt 0.884557 0.027187
vt 0.816229 0.027187
vt 0.747902 0.027188
vt 0.930108 0.027187
vt 0.814097 0.508527
vt 0.836872 0.508527
vt 0.927973 0.508527
vt 0.608405 0.391731
vt 0.746767 0.567114
vt 0.678442 0.567114
vt 0.792318 0.567113
vt 0.723992 0.567114
vt 0.655666 0.567115
vt 0.769543 0.567114
vt 0.701217 0.567113
vt 0.334698 0.468972
vt 0.246415 0.480866
vt 0.158857 0.606693
vt 0.158858 0.956922
vt 0.345360 0.956921
vt 0.471187 0.972813
vt 0.383629 0.464973
vt 0.345360 0.606692
vt 0.257802 0.519135
vt 0.482575 0.972813
vt 0.383630 0.114744
vt 0.246415 0.519135
vt 0.257803 0.027187
vt 0.246415 0.027187
vt 0.570132 0.114744
vt 0.570132 0.464973
vt 0.482575 0.480867
vn 0.000000 0.238100 -0.971200
vn 0.371700 0.238100 -0.897300
vn 0.686800 0.238100 -0.686800
vn 0.897300 0.238100 -0.371700
vn 0.971200 0.238100 0.000000
vn 0.897300 0.238100 0.371700
vn 0.686800 0.238100 0.686800
vn 0.371700 0.238100 0.897300
vn 0.000000 0.238100 0.971200
vn -0.371700 0.238100 0.897300
vn -0.686800 0.238100 0.686800
vn -0.897300 0.238100 0.371700
vn -0.971200 0.238100 0.000000
vn -0.897300 0.238100 -0.371700
vn 0.000000 -1.000000 -0.000000
vn 0.000000 -0.868200 -0.496100
vn -0.371700 0.238100 -0.897300
vn -0.686800 0.238100 -0.686800
vn -0.496100 -0.868200 0.000000
vn 0.496100 -0.868200 0.000000
vn 0.000000 -0.868200 0.496100
vn 0.706800 0.030600 -0.706800
vn 0.920500 0.085500 -0.381300
vn -0.923400 0.030600 -0.382500
vn 0.000000 0.030600 -0.999500
vn -0.923400 0.030600 0.382500
vn -0.382500 0.030600 0.923400
vn 0.382500 0.030600 0.923400
vn 0.923400 0.030600 0.382500
vn 0.923400 0.030600 -0.382500
vn -0.706800 0.030600 -0.706800
vn 0.382500 0.030600 -0.923400
vn -0.999500 0.030600 0.000000
vn -0.706800 0.030600 0.706800
vn 0.000000 0.030600 0.999500
vn 0.706800 0.030600 0.706800
vn 0.999500 0.030600 0.000000
vn -0.382500 0.030600 -0.923400
vn 0.945800 0.324700 0.000000
vn -0.704500 0.085500 -0.704500
vn 0.381300 0.085500 -0.920500
vn -0.996300 0.085500 0.000000
vn -0.704500 0.085500 0.704500
vn 0.000000 0.085500 0.996300
vn 0.704500 0.085500 0.704500
vn 0.996300 0.085500 0.000000
vn -0.381300 0.085500 -0.920500
vn 0.704500 0.085500 -0.704500
vn -0.920500 0.085500 -0.381300
vn 0.000000 0.085500 -0.996300
vn -0.920500 0.085500 0.381300
vn -0.381300 0.085500 0.920500
vn 0.381300 0.085500 0.920500
vn 0.920500 0.085500 0.381300
vn -0.362000 0.324700 -0.873800
vn 0.668800 0.324700 -0.668800
vn -0.873800 0.324700 -0.362000
vn 0.000000 0.324700 -0.945800
vn -0.873800 0.324700 0.362000
vn -0.362000 0.324700 0.873800
vn 0.362000 0.324700 0.873800
vn 0.873800 0.324700 0.362000
vn 0.873800 0.324700 0.361900
vn 0.873800 0.324700 -0.362000
vn -0.668800 0.324700 -0.668800
vn 0.362000 0.324700 -0.873800
vn -0.945800 0.324700 0.000000
vn -0.668800 0.324700 0.668800
vn 0.000000 0.324700 0.945800
vn 0.668800 0.324700 0.668800
vn -0.659600 0.700200 -0.273200
vn -0.504800 0.700200 -0.504800
vn -0.273200 0.700200 -0.659600
vn -0.659600 0.700200 0.273200
vn 0.000000 0.700200 -0.713900
vn 0.273200 0.700200 -0.659600
vn 0.504800 0.700200 -0.504800
vn 0.659600 0.700200 -0.273200
vn 0.713900 0.700200 0.000000
vn 0.659600 0.700200 0.273200
vn 0.504800 0.700200 0.504800
vn 0.273200 0.700200 0.659600
vn 0.000000 0.700200 0.713900
vn -0.273200 0.700200 0.659600
vn -0.504800 0.700200 0.504800
vn -0.713900 0.700200 0.000000
vn 0.000000 -0.000000 1.000000
vn 1.000000 0.000000 0.000000
vn -1.000000 0.000000 0.000000
vn 0.000000 0.351100 -0.936300
vn 0.000000 0.000000 -1.000000
vn 0.936300 0.351100 0.000000
vn 0.923900 0.000000 -0.382700
vn 0.382700 0.000000 -0.923900
vn 0.707100 0.000000 -0.707100
vn -0.382700 0.000000 -0.923900
vn -0.923900 0.000000 -0.382700
vn -0.707100 0.000000 -0.707100
vn -0.923900 -0.000000 0.382700
vn -0.382700 -0.000000 0.923900
vn -0.707100 -0.000000 0.707100
vn 0.382700 -0.000000 0.923900
vn 0.923900 -0.000000 0.382700
vn 0.707100 -0.000000 0.707100
vn 0.873800 0.324700 -0.361900
vn 0.000000 0.351100 0.936300
vn -0.936300 0.351100 0.000000
s 1
f 1/1/1 2/2/1 3/3/1
f 2/2/2 4/4/2 5/5/2
f 4/4/3 6/6/3 7/7/3
f 6/6/4 8/8/4 9/9/4
f 8/8/5 10/10/5 11/11/5
f 10/12/6 12/13/6 13/14/6
f 12/13/7 14/15/7 15/16/7
f 14/15/8 16/17/8 17/18/8
f 16/17/9 18/19/9 19/20/9
f 18/19/10 20/21/10 21/22/10
f 20/21/11 22/23/11 23/24/11
f 23/24/12 22/23/12 24/25/12
f 25/26/13 24/25/13 26/27/13
f 26/27/14 27/28/14 28/29/14
f 4/30/15 2/31/15 29/32/16
f 30/33/17 1/1/17 31/34/17
f 27/28/18 30/33/18 32/35/18
f 15/36/15 23/37/15 7/38/15
f 24/39/15 33/40/19 34/41/19
f 8/42/15 35/43/20 36/44/20
f 30/45/15 37/46/15 38/47/16
f 2/48/15 1/49/15 38/47/16
f 14/50/15 39/51/15 40/52/21
f 22/53/15 20/54/15 41/55/15
f 6/56/15 4/57/15 42/58/15
f 26/59/15 34/41/19 43/60/15
f 10/61/15 36/62/20 44/63/15
f 16/64/15 40/52/21 45/65/21
f 22/66/15 46/67/15 33/40/19
f 8/68/15 6/69/15 47/70/15
f 27/71/15 43/60/15 37/46/15
f 12/72/15 44/63/15 39/51/15
f 20/73/15 18/74/15 45/65/21
f 48/75/22 49/76/22 50/77/22
f 51/78/23 50/79/23 52/80/23
f 53/81/24 54/82/24 55/83/24
f 56/84/25 57/85/25 58/86/25
f 59/87/26 60/88/26 61/89/26
f 62/90/27 63/91/27 64/92/27
f 65/93/28 66/94/28 67/95/28
f 68/96/29 69/97/29 70/98/29
f 71/99/30 72/100/30 50/79/30
f 73/101/31 74/102/31 55/103/31
f 48/75/32 75/104/32 58/105/32
f 59/87/33 76/106/33 54/107/33
f 60/88/34 77/108/34 64/109/34
f 78/110/35 67/111/35 63/112/35
f 65/93/36 79/113/36 70/114/36
f 71/99/37 51/115/37 69/116/37
f 73/101/38 80/117/38 57/118/38
f 81/119/39 82/120/39 83/121/39
f 80/122/40 55/103/40 84/123/40
f 49/124/41 58/105/41 85/125/41
f 54/107/42 76/106/42 86/126/42
f 64/109/43 87/127/43 88/128/43
f 67/111/44 89/129/44 90/130/44
f 70/114/45 91/131/45 92/132/45
f 51/115/46 81/119/46 93/133/46
f 57/118/47 80/117/47 94/134/47
f 50/77/48 49/76/48 95/135/48
f 55/83/49 54/82/49 96/136/49
f 58/86/50 57/85/50 97/137/50
f 61/89/51 88/138/51 86/139/51
f 63/91/52 90/140/52 87/141/52
f 66/94/53 92/142/53 89/143/53
f 69/97/54 93/144/54 91/145/54
f 94/134/55 98/146/55 99/147/55
f 95/135/56 100/148/56 101/149/56
f 96/136/57 102/150/57 103/151/57
f 97/137/58 99/152/58 104/153/58
f 88/138/59 105/154/59 106/155/59
f 90/140/60 107/156/60 108/157/60
f 92/142/61 109/158/61 110/159/61
f 93/144/62 83/160/63 111/161/62
f 81/162/64 52/80/64 101/163/64
f 84/123/65 103/164/65 98/165/65
f 85/125/66 104/166/66 100/167/66
f 86/126/67 106/168/67 102/169/67
f 87/127/68 108/170/68 105/171/68
f 89/129/69 110/172/69 107/173/69
f 91/131/70 111/174/70 109/175/70
f 102/150/71 112/176/71 103/151/71
f 103/164/72 112/177/72 98/165/72
f 98/146/73 112/178/73 99/147/73
f 105/154/74 112/179/74 106/155/74
f 99/152/75 112/180/75 104/153/75
f 104/166/76 112/181/76 100/167/76
f 100/148/77 112/182/77 101/149/77
f 101/163/78 112/183/78 82/184/78
f 82/120/79 112/185/79 83/121/79
f 83/160/80 112/186/80 111/161/80
f 111/174/81 112/187/81 109/175/81
f 109/158/82 112/188/82 110/159/82
f 110/172/83 112/189/83 107/173/83
f 107/156/84 112/190/84 108/157/84
f 108/170/85 112/191/85 105/171/85
f 102/169/86 106/168/86 112/192/86
f 45/65/21 40/52/21 78/110/87
f 113/193/88 114/194/88 115/195/88
f 114/194/88 116/196/88 115/195/88
f 117/197/89 118/198/89 119/199/89
f 120/200/15 121/201/15 122/202/15
f 123/203/15 120/200/15 122/202/15
f 124/204/90 125/205/90 126/206/90
f 127/207/15 128/208/15 129/209/15
f 128/208/15 130/210/15 129/209/15
f 130/210/87 128/211/87 131/212/87
f 118/198/89 132/213/89 119/199/89
f 125/205/90 133/214/90 126/206/90
f 134/215/91 126/206/91 133/214/91
f 129/209/91 135/216/91 136/217/91
f 137/218/87 130/210/87 131/212/87
f 138/219/91 134/215/91 133/214/91
f 118/198/87 114/194/87 132/213/87
f 127/220/91 129/209/91 136/217/91
f 114/194/87 113/193/87 132/213/87
f 139/221/92 140/222/92 141/223/92
f 72/100/93 71/99/93 35/43/93
f 75/104/94 48/75/94 42/58/94
f 48/75/95 72/100/95 47/70/95
f 73/101/96 56/84/96 38/47/96
f 53/81/97 74/102/97 43/60/97
f 74/102/98 73/101/98 37/46/98
f 60/88/99 59/87/99 33/40/99
f 62/90/100 77/108/100 41/55/100
f 77/108/101 60/88/101 46/67/101
f 65/93/102 78/110/102 40/52/102
f 68/96/103 79/113/103 44/63/103
f 79/113/104 65/93/104 39/51/104
f 31/34/1 1/1/1 3/3/1
f 3/3/2 2/2/2 5/5/2
f 5/5/3 4/4/3 7/7/3
f 7/7/4 6/6/4 9/9/4
f 9/9/5 8/8/5 11/11/5
f 11/224/6 10/12/6 13/14/6
f 13/14/7 12/13/7 15/16/7
f 15/16/8 14/15/8 17/18/8
f 17/18/9 16/17/9 19/20/9
f 19/20/10 18/19/10 21/22/10
f 21/22/11 20/21/11 23/24/11
f 25/26/12 23/24/12 24/25/12
f 142/225/13 25/26/13 26/27/13
f 142/225/14 26/27/14 28/29/14
f 42/58/15 4/30/15 29/32/16
f 32/35/17 30/33/17 31/34/17
f 28/29/18 27/28/18 32/35/18
f 32/226/15 31/227/15 3/228/15
f 3/228/15 5/229/15 7/38/15
f 11/230/15 15/36/15 9/231/15
f 11/230/15 13/232/15 15/36/15
f 10/233/15 8/42/15 36/44/20
f 23/37/15 17/234/15 21/235/15
f 23/37/15 25/236/15 142/237/15
f 142/237/15 28/238/15 32/226/15
f 23/37/15 142/237/15 7/38/15
f 23/37/15 15/36/15 17/234/15
f 17/234/15 19/239/15 21/235/15
f 32/226/15 3/228/15 142/237/15
f 26/240/15 24/39/15 34/41/19
f 142/237/15 3/228/15 7/38/15
f 15/36/15 7/38/15 9/231/15
f 1/241/15 30/45/15 38/47/16
f 29/32/16 2/48/15 38/47/16
f 16/242/15 14/50/15 40/52/21
f 46/67/15 22/53/15 41/55/15
f 47/70/15 6/56/15 42/58/15
f 27/243/15 26/59/15 43/60/15
f 12/244/15 10/61/15 44/63/15
f 18/245/15 16/64/15 45/65/21
f 24/246/15 22/66/15 33/40/19
f 35/43/20 8/68/15 47/70/15
f 30/247/15 27/71/15 37/46/15
f 14/248/15 12/72/15 39/51/15
f 41/55/15 20/73/15 45/65/21
f 72/100/22 48/75/22 50/77/22
f 81/162/23 51/78/23 52/80/23
f 74/102/24 53/81/24 55/83/24
f 75/104/25 56/84/25 58/86/25
f 76/249/26 59/87/26 61/89/26
f 77/108/27 62/90/27 64/92/27
f 78/110/28 65/93/28 67/95/28
f 79/113/29 68/96/29 70/98/29
f 51/78/30 71/99/30 50/79/30
f 80/122/31 73/101/31 55/103/31
f 49/124/32 48/75/32 58/105/32
f 53/81/33 59/87/33 54/107/33
f 61/250/34 60/88/34 64/109/34
f 62/90/35 78/110/35 63/112/35
f 66/251/36 65/93/36 70/114/36
f 68/252/37 71/99/37 69/116/37
f 56/84/38 73/101/38 57/118/38
f 93/133/39 81/119/39 83/121/39
f 94/253/40 80/122/40 84/123/40
f 95/254/41 49/124/41 85/125/41
f 96/255/42 54/107/42 86/126/42
f 61/250/43 64/109/43 88/128/43
f 63/112/44 67/111/44 90/130/44
f 66/251/45 70/114/45 92/132/45
f 69/116/46 51/115/46 93/133/46
f 97/256/47 57/118/47 94/134/47
f 52/257/48 50/77/48 95/135/48
f 84/258/49 55/83/49 96/136/49
f 85/259/50 58/86/50 97/137/50
f 76/249/51 61/89/51 86/139/51
f 64/92/52 63/91/52 87/141/52
f 67/95/53 66/94/53 89/143/53
f 70/98/54 69/97/54 91/145/54
f 97/256/55 94/134/55 99/147/55
f 52/257/56 95/135/56 101/149/56
f 84/258/57 96/136/57 103/151/57
f 85/259/58 97/137/58 104/153/58
f 86/139/59 88/138/59 106/155/59
f 87/141/60 90/140/60 108/157/60
f 89/143/61 92/142/61 110/159/61
f 91/145/62 93/144/62 111/161/62
f 82/184/105 81/162/64 101/163/64
f 94/253/65 84/123/65 98/165/65
f 95/254/66 85/125/66 100/167/66
f 96/255/67 86/126/67 102/169/67
f 88/128/68 87/127/68 105/171/68
f 90/130/69 89/129/69 107/173/69
f 92/132/70 91/131/70 109/175/70
f 120/200/88 141/223/88 140/222/88
f 115/195/106 119/260/106 113/193/106
f 119/261/106 132/213/106 113/193/106
f 143/262/88 138/219/88 125/263/88
f 121/201/88 120/200/88 140/222/88
f 129/209/89 130/210/89 135/216/89
f 126/206/89 134/215/89 124/264/89
f 130/210/89 137/218/89 135/216/89
f 136/265/107 135/216/107 137/218/107
f 121/201/87 140/222/87 139/266/87
f 138/219/88 133/214/88 125/263/88
f 134/215/89 144/267/89 124/264/89
f 144/268/15 134/215/15 138/219/15
f 131/269/107 136/265/107 137/218/107
f 122/270/87 121/201/87 139/266/87
f 143/271/15 144/268/15 138/219/15
f 116/272/15 114/194/15 117/273/15
f 120/200/91 123/274/91 145/275/91
f 114/194/15 118/198/15 117/273/15
f 141/223/91 120/200/91 145/275/91
f 47/70/93 72/100/93 35/43/93
f 29/32/94 75/104/94 42/58/94
f 42/58/95 48/75/95 47/70/95
f 37/46/96 73/101/96 38/47/96
f 34/41/97 53/81/97 43/60/97
f 43/60/98 74/102/98 37/46/98
f 46/67/99 60/88/99 33/40/99
f 45/65/100 62/90/100 41/55/100
f 41/55/101 77/108/101 46/67/101
f 39/51/102 65/93/102 40/52/102
f 36/62/103 68/96/103 44/63/103
f 44/63/104 79/113/104 39/51/104
f 36/44/20 35/43/20 71/99/88
f 141/223/92 145/276/92 139/221/92
f 38/47/16 56/84/91 75/104/91
f 53/81/89 34/41/19 33/40/19
f 62/90/87 45/65/21 78/110/87
f 68/252/88 36/44/20 71/99/88
f 29/32/16 38/47/16 75/104/91
f 59/87/89 53/81/89 33/40/19
