# Blender v2.70 (sub 0) OBJ File: 'MissileV2.blend'
# www.blender.org
o Cylinder
v -0.209697 0.250000 -0.310889
v -0.099684 1.750000 -0.489962
v -0.312707 0.250000 -0.206976
v 0.095404 1.750000 -0.490814
v -0.368110 0.250000 -0.071553
v 0.275968 1.750000 -0.416943
v -0.367472 0.250000 0.074763
v 0.414519 1.750000 -0.279596
v -0.310889 0.250000 0.209697
v 0.489962 1.750000 -0.099684
v -0.206976 0.250000 0.312707
v 0.490814 1.750000 0.095405
v -0.071553 0.250000 0.368110
v 0.416943 1.750000 0.275968
v 0.074763 0.250000 0.367472
v 0.279597 1.750000 0.414519
v 0.209697 0.250000 0.310889
v 0.099684 1.750000 0.489962
v 0.312707 0.250000 0.206976
v -0.095404 1.750000 0.490814
v 0.368110 0.250000 0.071553
v -0.275968 1.750000 0.416943
v 0.367472 0.250000 -0.074763
v -0.414519 1.750000 0.279597
v 0.310889 0.250000 -0.209697
v -0.489962 1.750000 0.099684
v 0.206976 0.250000 -0.312707
v -0.490814 1.750000 -0.095405
v 0.071553 0.250000 -0.368110
v -0.416943 1.750000 -0.275969
v -0.074763 0.250000 -0.367472
v -0.279596 1.750000 -0.414519
v -0.099684 3.250000 -0.489962
v 0.095405 3.250000 -0.490814
v 0.275968 3.250000 -0.416943
v 0.414519 3.250000 -0.279596
v 0.489962 3.250000 -0.099684
v 0.490814 3.250000 0.095405
v 0.416943 3.250000 0.275968
v 0.279597 3.250000 0.414519
v 0.099684 3.250000 0.489962
v -0.095404 3.250000 0.490814
v -0.275968 3.250000 0.416943
v -0.414519 3.250000 0.279597
v -0.489962 3.250000 0.099684
v -0.490814 3.250000 -0.095405
v -0.416943 3.250000 -0.275969
v -0.279596 3.250000 -0.414519
v -0.074763 4.250000 -0.367472
v 0.071553 4.250000 -0.368110
v 0.206976 4.250000 -0.312707
v 0.310889 4.250000 -0.209697
v 0.367472 4.250000 -0.074763
v 0.368110 4.250000 0.071553
v 0.312707 4.250000 0.206976
v 0.209697 4.250000 0.310889
v 0.074763 4.250000 0.367472
v -0.071553 4.250000 0.368110
v -0.206976 4.250000 0.312707
v -0.310889 4.250000 0.209697
v -0.367472 4.250000 0.074763
v -0.368110 4.250000 -0.071553
v -0.312707 4.250000 -0.206976
v -0.209697 4.250000 -0.310889
v 0.000000 5.250000 0.000000
v 0.068837 0.000000 -0.990702
v -0.077480 0.000000 -0.990064
v 0.990702 0.000000 0.068837
v 0.990064 0.000000 -0.077480
v -0.990702 0.000000 -0.068837
v -0.990064 0.000000 0.077480
v -0.068837 0.000000 0.990703
v 0.077480 0.000000 0.990064
v -0.157273 0.000000 -0.233167
v -0.234530 0.000000 -0.155232
v -0.276083 0.000000 -0.053665
v -0.275604 0.000000 0.056072
v -0.233167 0.000000 0.157273
v -0.155232 0.000000 0.234530
v -0.053665 0.000000 0.276083
v 0.056072 0.000000 0.275604
v 0.157273 0.000000 0.233167
v 0.234530 0.000000 0.155232
v 0.276083 0.000000 0.053665
v 0.275604 0.000000 -0.056072
v 0.233167 0.000000 -0.157273
v 0.155232 0.000000 -0.234530
v 0.053665 0.000000 -0.276083
v -0.056072 0.000000 -0.275604
vt 0.009010 0.524111
vt 0.012672 0.299077
vt 0.034645 0.299077
vt 0.686308 0.476982
vt 0.689969 0.251948
vt 0.711942 0.251948
vt 0.620970 0.524086
vt 0.591673 0.524086
vt 0.595335 0.299052
vt 0.668287 0.251948
vt 0.664625 0.476982
vt 0.642652 0.476982
vt 0.638990 0.494925
vt 0.668287 0.494925
vt 0.664625 0.719959
vt 0.638990 0.008971
vt 0.668287 0.008971
vt 0.664625 0.234005
vt 0.106620 0.299075
vt 0.135916 0.299075
vt 0.132254 0.524109
vt 0.686308 0.719959
vt 0.689970 0.494925
vt 0.711942 0.494925
vt 0.591673 0.008971
vt 0.620970 0.008971
vt 0.617308 0.234005
vt 0.686308 0.008971
vt 0.715604 0.008971
vt 0.711942 0.234005
vt 0.186203 0.524109
vt 0.156906 0.524109
vt 0.160568 0.299075
vt 0.780942 0.719211
vt 0.780942 0.494925
vt 0.810239 0.494925
vt 0.930218 0.048801
vt 0.908245 0.048801
vt 0.910992 0.008971
vt 0.088599 0.524111
vt 0.059302 0.524111
vt 0.062965 0.299077
vt 0.301828 0.739776
vt 0.305490 0.589133
vt 0.327463 0.589133
vt 0.573653 0.589133
vt 0.573653 0.813419
vt 0.544356 0.813419
vt 0.762922 0.008971
vt 0.762922 0.233258
vt 0.733625 0.233258
vt 0.620970 0.542029
vt 0.620970 0.766315
vt 0.591673 0.766315
vt 0.233520 0.589133
vt 0.233520 0.813419
vt 0.204223 0.813419
vt 0.088599 0.542053
vt 0.088599 0.766340
vt 0.059302 0.766340
vt 0.762922 0.494925
vt 0.762922 0.719211
vt 0.733625 0.719211
vt 0.106620 0.766338
vt 0.106620 0.542052
vt 0.135916 0.542052
vt 0.254511 0.589133
vt 0.283808 0.589133
vt 0.283808 0.813419
vt 0.762922 0.252696
vt 0.762922 0.476982
vt 0.733625 0.476982
vt 0.041282 0.542053
vt 0.041282 0.766339
vt 0.011985 0.766339
vt 0.186203 0.542052
vt 0.186203 0.766338
vt 0.156906 0.766338
vt 0.497039 0.589133
vt 0.526335 0.589133
vt 0.526335 0.813419
vt 0.810239 0.008971
vt 0.810239 0.233258
vt 0.780942 0.233258
vt 0.810239 0.251200
vt 0.810239 0.475487
vt 0.780942 0.475487
vt 0.428730 0.589133
vt 0.428730 0.813391
vt 0.399434 0.813394
vt 0.875576 0.233258
vt 0.879238 0.082614
vt 0.901211 0.082614
vt 0.904873 0.494925
vt 0.901212 0.645569
vt 0.879239 0.645569
vt 0.304799 0.908363
vt 0.308461 0.757719
vt 0.330434 0.757719
vt 0.446750 0.908363
vt 0.450412 0.757719
vt 0.472385 0.757719
vt 0.638990 0.888546
vt 0.642652 0.737902
vt 0.664625 0.737902
vt 0.881810 0.887798
vt 0.885472 0.737154
vt 0.907445 0.737154
vt 0.686308 0.888545
vt 0.689970 0.737902
vt 0.711942 0.737902
vt 0.857556 0.645569
vt 0.828259 0.645569
vt 0.831921 0.494925
vt 0.875576 0.476982
vt 0.879239 0.326339
vt 0.901211 0.326339
vt 0.834493 0.887798
vt 0.838155 0.737154
vt 0.860128 0.737154
vt 0.857556 0.233258
vt 0.828259 0.233258
vt 0.831921 0.082614
vt 0.857556 0.401844
vt 0.828259 0.401844
vt 0.831921 0.251200
vt 0.476047 0.739776
vt 0.446750 0.739776
vt 0.450412 0.589133
vt 0.352116 0.757719
vt 0.381413 0.757719
vt 0.377751 0.908363
vt 0.352116 0.739776
vt 0.355779 0.589133
vt 0.377751 0.589133
vt 0.599049 0.942451
vt 0.620970 0.784258
vt 0.620970 0.943950
vt 0.984756 0.317291
vt 0.984756 0.476982
vt 0.962835 0.318789
vt 0.984756 0.494925
vt 0.984756 0.654617
vt 0.962835 0.496424
vt 0.526335 0.990678
vt 0.504363 0.990678
vt 0.515349 0.831362
vt 0.951048 0.737154
vt 0.951048 0.896846
vt 0.929127 0.738653
vt 0.399434 0.989530
vt 0.421355 0.831337
vt 0.421355 0.991029
vt 0.128541 0.784281
vt 0.128541 0.943973
vt 0.106620 0.785780
vt 0.990990 0.737154
vt 0.990990 0.896846
vt 0.969069 0.738653
vt 0.984756 0.139656
vt 0.984756 0.299348
vt 0.962835 0.141155
vt 0.033906 0.784282
vt 0.033906 0.943974
vt 0.011985 0.785781
vt 0.156906 0.942474
vt 0.178827 0.784281
vt 0.178827 0.943973
vt 0.922894 0.231759
vt 0.944815 0.073566
vt 0.944815 0.233258
vt 0.944815 0.494925
vt 0.944815 0.654617
vt 0.922894 0.496424
vt 0.204223 0.990678
vt 0.215210 0.831362
vt 0.226196 0.990678
vt 0.944815 0.317290
vt 0.944815 0.476982
vt 0.922894 0.318789
vt 0.066678 0.942475
vt 0.088599 0.784282
vt 0.088599 0.943974
vt 0.261835 0.831362
vt 0.283808 0.831362
vt 0.283808 0.931680
vt 0.573653 0.008971
vt 0.569991 0.281109
vt 0.548018 0.281109
vt 0.500701 0.008971
vt 0.522674 0.008971
vt 0.526335 0.281109
vt 0.500701 0.299052
vt 0.522673 0.299052
vt 0.526335 0.571190
vt 0.733625 0.837588
vt 0.755597 0.837588
vt 0.755597 0.937906
vt 0.548018 0.299052
vt 0.569991 0.299052
vt 0.573653 0.571190
vt 0.399434 0.509673
vt 0.479018 0.299052
vt 0.479018 0.571190
vt 0.381413 0.571190
vt 0.301828 0.360570
vt 0.381413 0.299052
vt 0.106620 0.219624
vt 0.186203 0.008971
vt 0.186203 0.281132
vt 0.573653 0.931680
vt 0.551680 0.931680
vt 0.551680 0.831362
vt 0.301828 0.070489
vt 0.381413 0.008971
vt 0.381413 0.281109
vt 0.204223 0.219592
vt 0.283808 0.008971
vt 0.283808 0.281109
vt 0.009010 0.070483
vt 0.088599 0.008971
vt 0.088599 0.281134
vt 0.204223 0.360570
vt 0.283808 0.299052
vt 0.283808 0.571190
vt 0.794500 0.937906
vt 0.794500 0.837588
vt 0.816473 0.837588
vt 0.479018 0.008971
vt 0.479018 0.281109
vt 0.399434 0.219592
vt 0.766809 0.819645
vt 0.751584 0.813366
vt 0.739931 0.755036
vt 0.374089 0.926306
vt 0.371342 0.966135
vt 0.354863 0.966135
vt 0.903783 0.905740
vt 0.901036 0.945570
vt 0.884557 0.945570
vt 0.686308 0.906488
vt 0.708280 0.906488
vt 0.705534 0.946317
vt 0.915569 0.291030
vt 0.918316 0.251200
vt 0.934795 0.251200
vt 0.841817 0.945570
vt 0.844564 0.905740
vt 0.861043 0.905740
vt 0.868252 0.048801
vt 0.870999 0.008971
vt 0.887478 0.008971
vt 0.828259 0.459616
vt 0.831006 0.419787
vt 0.847485 0.419787
vt 0.828259 0.048801
vt 0.831006 0.008971
vt 0.847485 0.008971
vt 0.922894 0.712389
vt 0.925640 0.672560
vt 0.942120 0.672560
vt 0.970211 0.008971
vt 0.967464 0.048801
vt 0.950985 0.048801
vt 0.897549 0.251200
vt 0.894802 0.291030
vt 0.878323 0.291030
vt 0.929127 0.954618
vt 0.931874 0.914789
vt 0.948353 0.914789
vt 0.875576 0.703341
vt 0.878323 0.663512
vt 0.894802 0.663512
vt 0.828259 0.703341
vt 0.831006 0.663512
vt 0.847485 0.663512
vt 0.638990 0.946318
vt 0.641737 0.906488
vt 0.658216 0.906488
vt 0.038307 0.524111
vt 0.715604 0.476982
vt 0.617308 0.299052
vt 0.638990 0.251948
vt 0.642652 0.719959
vt 0.642652 0.234005
vt 0.110282 0.524109
vt 0.715604 0.719959
vt 0.595335 0.234005
vt 0.689970 0.234005
vt 0.182541 0.299075
vt 0.810239 0.719211
vt 0.927471 0.008971
vt 0.084937 0.299077
vt 0.331125 0.739776
vt 0.544356 0.589133
vt 0.733625 0.008971
vt 0.591673 0.542029
vt 0.204223 0.589133
vt 0.059302 0.542053
vt 0.733625 0.494925
vt 0.135916 0.766338
vt 0.254511 0.813419
vt 0.733625 0.252696
vt 0.011985 0.542053
vt 0.156906 0.542052
vt 0.497039 0.813419
vt 0.780942 0.008971
vt 0.780942 0.251200
vt 0.399434 0.589136
vt 0.904873 0.233258
vt 0.875576 0.494925
vt 0.334096 0.908363
vt 0.476047 0.908363
vt 0.668287 0.888545
vt 0.911107 0.887798
vt 0.715604 0.888545
vt 0.853894 0.494925
vt 0.904873 0.476982
vt 0.863790 0.887798
vt 0.853894 0.082614
vt 0.853894 0.251200
vt 0.472385 0.589133
vt 0.355779 0.908363
vt 0.381413 0.739776
vt 0.261835 0.931680
vt 0.544356 0.008971
vt 0.497039 0.281109
vt 0.497039 0.571190
vt 0.733625 0.937906
vt 0.544356 0.571190
vt 0.573653 0.831362
vt 0.816472 0.937906
vt 0.810166 0.755036
vt 0.816472 0.770195
vt 0.798513 0.743433
vt 0.783288 0.819645
vt 0.816472 0.786604
vt 0.810166 0.801763
vt 0.798513 0.813366
vt 0.739931 0.801763
vt 0.733625 0.770195
vt 0.733625 0.786604
vt 0.881810 0.905741
vt 0.783288 0.737154
vt 0.766809 0.737154
vt 0.352116 0.926306
vt 0.751584 0.743433
vt 0.689054 0.946317
vt 0.937542 0.291030
vt 0.863790 0.945570
vt 0.890225 0.048801
vt 0.850232 0.459616
vt 0.850232 0.048801
vt 0.944866 0.712389
vt 0.948238 0.008971
vt 0.875576 0.251200
vt 0.951100 0.954618
vt 0.897549 0.703341
vt 0.850232 0.703341
vt 0.660963 0.946318
vn -0.922464 -0.081460 -0.377390
vn 0.701675 -0.081460 -0.707825
vn -0.701675 -0.081460 0.707825
vn 0.385426 -0.081460 0.919136
vn -0.385426 -0.081460 -0.919136
vn 0.377390 -0.081460 -0.922465
vn -0.377390 -0.081460 0.922465
vn 0.707825 -0.081460 0.701675
vn -0.707825 -0.081460 -0.701675
vn 0.919136 -0.081460 -0.385426
vn -0.919136 -0.081460 0.385426
vn 0.999990 0.000000 -0.004363
vn 0.666533 -0.345187 0.660742
vn 0.922465 -0.081460 0.377390
vn -0.698783 0.121687 0.704907
vn -0.386711 -0.000000 -0.922201
vn -0.004364 0.000000 -0.999990
vn 0.386711 -0.000000 0.922201
vn -0.704014 0.000000 0.710186
vn 0.704015 0.000000 -0.710185
vn -0.925540 0.000000 -0.378649
vn 0.925541 0.000000 0.378649
vn 0.004364 -0.000000 0.999990
vn -0.922201 0.000000 0.386711
vn 0.922201 0.000000 -0.386711
vn -0.710185 0.000000 -0.704015
vn 0.710185 -0.000000 0.704015
vn -0.378648 0.000000 0.925541
vn 0.378649 -0.000000 -0.925540
vn -0.999991 0.000000 0.004363
vn 0.004331 0.121687 0.992559
vn 0.704908 0.121687 0.698783
vn 0.992559 0.121687 -0.004331
vn -0.383837 0.121687 -0.915348
vn 0.698783 0.121687 -0.704907
vn -0.918662 0.121687 -0.375835
vn -0.004331 0.121687 -0.992559
vn -0.915348 0.121687 0.383837
vn -0.375834 0.121687 0.918663
vn 0.383837 0.121687 0.915348
vn 0.918662 0.121687 0.375835
vn 0.915348 0.121687 -0.383837
vn -0.704907 0.121687 -0.698783
vn 0.375835 0.121687 -0.918662
vn -0.992559 0.121687 0.004330
vn 0.868650 0.345187 0.355376
vn 0.865517 0.345187 -0.362941
vn 0.938525 0.345187 -0.004095
vn 0.666533 0.345188 0.660741
vn 0.660741 0.345187 -0.666533
vn 0.355375 0.345188 -0.868651
vn -0.004095 0.345188 -0.938525
vn -0.362941 0.345188 -0.865517
vn 0.362942 0.345188 0.865516
vn 0.004095 0.345188 0.938525
vn -0.355374 0.345188 0.868651
vn -0.660741 0.345187 0.666533
vn -0.865517 0.345188 0.362941
vn -0.666532 0.345187 -0.660742
vn -0.868652 0.345188 -0.355373
vn -0.938525 0.345188 0.004094
vn 0.001626 -0.927982 0.372621
vn 0.004196 0.274721 0.961515
vn -0.961515 0.274721 0.004195
vn -0.004195 0.274721 -0.961515
vn -0.372621 -0.927982 0.001626
vn 0.961515 0.274721 -0.004195
vn -0.010682 -0.015739 -0.999819
vn 0.999874 -0.015739 0.001957
vn -0.999819 -0.015739 0.010682
vn 0.372621 -0.927982 -0.001626
vn 0.001957 -0.015739 -0.999874
vn 0.010682 -0.015739 0.999819
vn -0.999874 -0.015739 -0.001957
vn -0.001957 -0.015739 0.999874
vn -0.001626 -0.927982 -0.372621
vn 0.999819 -0.015739 -0.010683
vn 0.000000 -1.000000 0.000000
vn -0.362941 -0.345187 -0.865517
vn -0.004095 -0.345188 -0.938525
vn -0.355374 -0.345188 0.868651
vn -0.660741 -0.345188 0.666533
vn 0.865517 -0.345187 -0.362941
vn 0.938525 -0.345188 -0.004095
vn -0.868651 -0.345187 -0.355375
vn -0.666532 -0.345188 -0.660742
vn 0.362941 -0.345187 0.865517
vn 0.004095 -0.345187 0.938525
vn 0.355374 -0.345188 -0.868651
vn 0.660742 -0.345187 -0.666533
vn -0.865517 -0.345187 0.362941
vn -0.938525 -0.345188 0.004095
vn 0.868651 -0.345188 0.355375
vn -0.922465 -0.081460 -0.377390
vn -0.377389 -0.081460 0.922465
vn -0.919136 -0.081461 0.385426
vn 0.666533 -0.345188 0.660741
vn 0.922464 -0.081460 0.377390
vn -0.698783 0.121687 0.704908
vn -0.004363 -0.000000 -0.999991
vn -0.925541 0.000000 -0.378649
vn 0.925541 -0.000000 0.378648
vn 0.004363 -0.000000 0.999990
vn 0.710186 -0.000000 0.704015
vn -0.378649 0.000000 0.925540
vn 0.378648 -0.000000 -0.925541
vn 0.698783 0.121687 -0.704908
vn -0.915347 0.121687 0.383838
vn -0.992559 0.121687 0.004331
vn 0.004195 0.274721 0.961515
vn -0.004095 -0.345187 -0.938525
vn -0.362941 -0.345188 -0.865517
vn -0.355374 -0.345187 0.868651
vn -0.660742 -0.345188 0.666533
vn 0.865517 -0.345188 -0.362941
vn -0.868651 -0.345188 -0.355374
vn -0.666533 -0.345188 -0.660742
vn 0.362941 -0.345188 0.865517
vn 0.355374 -0.345187 -0.868651
vn -0.865517 -0.345188 0.362941
vn -0.938525 -0.345187 0.004095
vn 0.868651 -0.345188 0.355374
s off
f 30/1/1 3/2/1 5/3/1
f 8/4/2 25/5/2 27/6/2
f 22/7/3 24/8/3 9/9/3
f 18/10/4 15/11/4 17/12/4
f 32/13/5 2/14/5 31/15/5
f 4/16/6 6/17/6 27/18/6
f 20/19/7 22/20/7 11/21/7
f 16/22/8 17/23/8 19/24/8
f 30/25/9 32/26/9 1/27/9
f 8/28/10 10/29/10 23/30/10
f 24/31/11 26/32/11 7/33/11
f 10/34/12 37/35/12 38/36/12
f 19/37/13 17/38/13 82/39/13
f 12/40/14 14/41/14 19/42/14
f 43/43/15 59/44/15 60/45/15
f 32/46/16 48/47/16 33/48/16
f 2/49/17 33/50/17 34/51/17
f 16/52/18 40/53/18 41/54/18
f 22/55/19 43/56/19 44/57/19
f 6/58/20 35/59/20 36/60/20
f 28/61/21 46/62/21 47/63/21
f 12/64/22 38/65/22 39/66/22
f 20/67/23 18/68/23 41/69/23
f 24/70/24 44/71/24 45/72/24
f 8/73/25 36/74/25 37/75/25
f 30/76/26 47/77/26 48/78/26
f 16/79/27 14/80/27 39/81/27
f 20/82/28 42/83/28 43/84/28
f 4/85/29 34/86/29 35/87/29
f 26/88/30 45/89/30 46/90/30
f 41/91/31 57/92/31 58/93/31
f 39/94/32 55/95/32 56/96/32
f 37/97/33 53/98/33 54/99/33
f 48/100/34 64/101/34 49/102/34
f 35/103/35 51/104/35 52/105/35
f 46/106/36 62/107/36 63/108/36
f 33/109/37 49/110/37 50/111/37
f 45/112/38 44/113/38 60/114/38
f 42/115/39 58/116/39 59/117/39
f 40/118/40 56/119/40 57/120/40
f 39/121/41 38/122/41 54/123/41
f 37/124/42 36/125/42 52/126/42
f 48/127/43 47/128/43 63/129/43
f 35/130/44 34/131/44 50/132/44
f 45/133/45 61/134/45 62/135/45
f 54/136/46 65/137/46 55/138/46
f 52/139/47 65/140/47 53/141/47
f 53/142/48 65/143/48 54/144/48
f 56/145/49 55/146/49 65/147/49
f 51/148/50 65/149/50 52/150/50
f 50/151/51 65/152/51 51/153/51
f 49/154/52 65/155/52 50/156/52
f 64/157/53 65/158/53 49/159/53
f 56/160/54 65/161/54 57/162/54
f 57/163/55 65/164/55 58/165/55
f 58/166/56 65/167/56 59/168/56
f 59/169/57 65/170/57 60/171/57
f 60/172/58 65/173/58 61/174/58
f 63/175/59 65/176/59 64/177/59
f 62/178/60 65/179/60 63/180/60
f 61/181/61 65/182/61 62/183/61
f 67/184/62 66/185/62 29/186/62
f 20/187/63 72/188/63 73/189/63
f 70/190/64 71/191/64 26/192/64
f 66/193/65 67/194/65 2/195/65
f 69/196/66 68/197/66 21/198/66
f 68/199/67 69/200/67 10/201/67
f 23/202/68 10/203/68 69/204/68
f 4/205/69 29/206/69 66/207/69
f 31/208/70 2/209/70 67/210/70
f 71/211/71 70/212/71 5/213/71
f 5/214/72 70/215/72 28/216/72
f 7/217/73 26/218/73 71/219/73
f 13/220/74 72/221/74 20/222/74
f 21/223/75 68/224/75 12/225/75
f 15/226/76 73/227/76 72/228/76
f 18/229/77 73/230/77 15/231/77
f 81/232/78 80/233/78 76/234/78
f 31/235/79 89/236/79 74/237/79
f 29/238/80 88/239/80 89/240/80
f 13/241/81 11/242/81 79/243/81
f 9/244/82 78/245/82 79/246/82
f 23/247/83 85/248/83 86/249/83
f 21/250/84 84/251/84 85/252/84
f 3/253/85 75/254/85 76/255/85
f 1/256/86 74/257/86 75/258/86
f 15/259/87 81/260/87 82/261/87
f 13/262/88 80/263/88 81/264/88
f 27/265/89 87/266/89 88/267/89
f 25/268/90 86/269/90 87/270/90
f 7/271/91 77/272/91 78/273/91
f 5/274/92 76/275/92 77/276/92
f 19/277/93 83/278/93 84/279/93
f 28/280/94 30/1/94 5/3/94
f 6/281/2 8/4/2 27/6/2
f 11/282/3 22/7/3 9/9/3
f 16/283/4 18/10/4 17/12/4
f 1/284/5 32/13/5 31/15/5
f 29/285/6 4/16/6 27/18/6
f 13/286/95 20/19/95 11/21/95
f 14/287/8 16/22/8 19/24/8
f 3/288/9 30/25/9 1/27/9
f 25/289/10 8/28/10 23/30/10
f 9/290/96 24/31/96 7/33/96
f 12/291/12 10/34/12 38/36/12
f 83/292/97 19/37/97 82/39/97
f 21/293/98 12/40/98 19/42/98
f 44/294/99 43/43/99 60/45/99
f 2/295/16 32/46/16 33/48/16
f 4/296/100 2/49/100 34/51/100
f 18/297/18 16/52/18 41/54/18
f 24/298/19 22/55/19 44/57/19
f 8/299/20 6/58/20 36/60/20
f 30/300/101 28/61/101 47/63/101
f 14/301/102 12/64/102 39/66/102
f 42/302/103 20/67/103 41/69/103
f 26/303/24 24/70/24 45/72/24
f 10/304/25 8/73/25 37/75/25
f 32/305/26 30/76/26 48/78/26
f 40/306/104 16/79/104 39/81/104
f 22/307/105 20/82/105 43/84/105
f 6/308/106 4/85/106 35/87/106
f 28/309/30 26/88/30 46/90/30
f 42/310/31 41/91/31 58/93/31
f 40/311/32 39/94/32 56/96/32
f 38/312/33 37/97/33 54/99/33
f 33/313/34 48/100/34 49/102/34
f 36/314/107 35/103/107 52/105/107
f 47/315/36 46/106/36 63/108/36
f 34/316/37 33/109/37 50/111/37
f 61/317/108 45/112/108 60/114/108
f 43/318/39 42/115/39 59/117/39
f 41/319/40 40/118/40 57/120/40
f 55/320/41 39/121/41 54/123/41
f 53/321/42 37/124/42 52/126/42
f 64/322/43 48/127/43 63/129/43
f 51/323/44 35/130/44 50/132/44
f 46/324/109 45/133/109 62/135/109
f 31/325/62 67/184/62 29/186/62
f 18/326/110 20/187/110 73/189/110
f 28/327/64 70/190/64 26/192/64
f 4/328/65 66/193/65 2/195/65
f 23/329/66 69/196/66 21/198/66
f 12/330/67 68/199/67 10/201/67
f 7/331/71 71/211/71 5/213/71
f 13/332/76 15/226/76 72/228/76
f 87/333/78 86/334/78 88/335/78
f 82/336/78 85/337/78 84/338/78
f 83/339/78 82/336/78 84/338/78
f 81/232/78 85/337/78 82/336/78
f 79/340/78 77/341/78 80/233/78
f 79/340/78 78/342/78 77/341/78
f 31/343/111 29/238/111 89/240/111
f 89/344/78 76/234/78 74/345/78
f 88/335/78 85/337/78 81/232/78
f 88/335/78 86/334/78 85/337/78
f 80/233/78 77/341/78 76/234/78
f 76/234/78 89/344/78 81/232/78
f 89/344/78 88/335/78 81/232/78
f 1/346/112 31/235/112 74/237/112
f 76/234/78 75/347/78 74/345/78
f 80/348/113 13/241/113 79/243/113
f 11/349/114 9/244/114 79/246/114
f 25/350/115 23/247/115 86/249/115
f 23/351/84 21/250/84 85/252/84
f 5/352/116 3/253/116 76/255/116
f 3/353/117 1/256/117 75/258/117
f 17/354/118 15/259/118 82/261/118
f 15/355/88 13/262/88 81/264/88
f 29/356/119 27/265/119 88/267/119
f 27/357/90 25/268/90 87/270/90
f 9/358/120 7/271/120 78/273/120
f 7/359/121 5/274/121 77/276/121
f 21/360/122 19/277/122 84/279/122
