# Blender v2.76 (sub 0) OBJ File: 'press_body.blend'
# www.blender.org
o Cube_Cube.001
v -0.500000 0.000000 0.500000
v -0.500000 0.000000 -0.500000
v 0.500000 0.000000 0.500000
v 0.500000 0.000000 -0.500000
v -0.500000 1.000000 0.375000
v -0.500000 1.000000 -0.375000
v -0.500000 0.000000 -0.375000
v -0.500000 0.000000 0.375000
v -0.375000 1.000000 -0.500000
v 0.375000 1.000000 -0.500000
v 0.375000 0.000000 -0.500000
v -0.375000 0.000000 -0.500000
v 0.500000 1.000000 -0.375000
v 0.500000 1.000000 0.375000
v 0.500000 0.000000 0.375000
v 0.500000 0.000000 -0.375000
v 0.375000 1.000000 0.500000
v -0.375000 1.000000 0.500000
v -0.375000 0.000000 0.500000
v 0.375000 0.000000 0.500000
v 0.375000 1.000000 0.375000
v -0.375000 1.000000 0.375000
v 0.375000 1.000000 -0.375000
v -0.375000 1.000000 -0.375000
v -0.375000 0.000000 0.375000
v 0.375000 0.000000 0.375000
v -0.375000 0.000000 -0.375000
v 0.375000 0.000000 -0.375000
v 0.375000 0.875000 0.500000
v -0.375000 0.875000 0.500000
v 0.500000 0.875000 -0.375000
v 0.500000 0.875000 0.375000
v -0.375000 0.875000 -0.500000
v 0.375000 0.875000 -0.500000
v -0.500000 0.875000 0.375000
v -0.500000 0.875000 -0.375000
v -0.500000 2.000000 -0.375000
v 0.375000 2.000000 -0.375000
v 0.375000 2.000000 -0.500000
v 0.500000 2.000000 0.375000
v -0.375000 2.000000 0.500000
v -0.500000 2.000000 0.375000
v -0.375000 2.000000 -0.500000
v 0.500000 2.000000 -0.375000
v 0.375000 2.000000 0.500000
v -0.375000 0.875000 0.375000
v 0.375000 0.875000 0.375000
v -0.375000 0.875000 -0.375000
v 0.375000 0.875000 -0.375000
v -0.500000 2.500000 0.375000
v -0.500000 2.500000 -0.375000
v -0.375000 2.500000 -0.500000
v 0.375000 2.500000 -0.500000
v 0.500000 2.500000 -0.375000
v 0.500000 2.500000 0.375000
v 0.375000 2.500000 0.500000
v -0.375000 2.500000 0.500000
v 0.375000 2.500000 0.375000
v -0.375000 2.500000 0.375000
v 0.375000 2.500000 -0.375000
v -0.375000 2.500000 -0.375000
v -0.375000 2.000000 0.375000
v -0.375000 2.000000 -0.375000
v 0.375000 2.000000 0.375000
v -0.500000 2.500000 0.500000
v -0.500000 2.500000 -0.500000
v 0.500000 2.500000 0.500000
v 0.500000 2.500000 -0.500000
v 0.375000 3.000000 0.375000
v 0.375000 3.000000 -0.375000
v -0.375000 3.000000 -0.375000
v -0.375000 3.000000 0.375000
v -0.500000 1.000000 0.500000
v -0.500000 0.875000 0.500000
v 0.500000 1.000000 0.500000
v 0.500000 0.875000 0.500000
v 0.500000 1.000000 -0.500000
v 0.500000 0.875000 -0.500000
v -0.500000 1.000000 -0.500000
v -0.500000 0.875000 -0.500000
v -0.500000 2.000000 0.500000
v -0.500000 2.000000 -0.500000
v 0.500000 2.000000 0.500000
v 0.500000 2.000000 -0.500000
v -0.375000 0.000000 0.375000
v 0.375000 0.000000 0.375000
v -0.375000 0.000000 -0.375000
v 0.375000 0.000000 -0.375000
vt 0.687301 0.558256
vt 0.710163 0.558256
vt 0.710163 0.581118
vt 0.745557 0.558256
vt 0.768419 0.558256
vt 0.768419 0.581118
vt 0.774343 0.017697
vt 0.797205 0.017697
vt 0.797205 0.040559
vt 0.629045 0.558256
vt 0.651906 0.558256
vt 0.651906 0.581118
vt 0.086283 0.545724
vt 0.086283 0.408552
vt 0.223454 0.408552
vt 0.246316 0.408552
vt 0.246316 0.545724
vt 0.223454 0.545724
vt 0.223454 0.568586
vt 0.086283 0.568586
vt 0.063421 0.545724
vt 0.086283 0.385691
vt 0.705757 0.500000
vt 0.568586 0.500000
vt 0.568586 0.362829
vt 0.728619 0.362829
vt 0.728619 0.500000
vt 0.223454 0.385691
vt 0.086283 0.362829
vt 0.269178 0.408552
vt 0.223454 0.591448
vt 0.063421 0.408552
vt 0.040559 0.545724
vt 0.489670 0.936579
vt 0.466808 0.936579
vt 0.466808 0.776546
vt 0.429212 0.177731
vt 0.429212 0.017697
vt 0.566383 0.017697
vt 0.292040 0.177731
vt 0.292040 0.017697
vt 0.913717 0.500000
vt 0.890855 0.500000
vt 0.890855 0.339967
vt 0.154869 0.017697
vt 0.738949 0.649704
vt 0.738949 0.786875
vt 0.601777 0.786875
vt 0.959441 0.339967
vt 0.982303 0.339967
vt 0.982303 0.500000
vt 0.292040 0.408552
vt 0.292040 0.545724
vt 0.269178 0.545724
vt 0.223454 0.614310
vt 0.086283 0.614310
vt 0.086283 0.591448
vt 0.017697 0.545724
vt 0.017697 0.408552
vt 0.040559 0.408552
vt 0.086283 0.339967
vt 0.223454 0.339967
vt 0.223454 0.362829
vt 0.350296 0.362829
vt 0.350296 0.500000
vt 0.327434 0.500000
vt 0.487468 0.362829
vt 0.350296 0.339967
vt 0.487468 0.500000
vt 0.510330 0.362829
vt 0.487468 0.522862
vt 0.421085 0.936579
vt 0.398223 0.936579
vt 0.398223 0.776546
vt 0.017697 0.017697
vt 0.154869 0.177731
vt 0.568586 0.339967
vt 0.705757 0.339967
vt 0.705757 0.362829
vt 0.545724 0.500000
vt 0.705757 0.522862
vt 0.568586 0.522862
vt 0.327434 0.339967
vt 0.593650 0.581118
vt 0.570788 0.581118
vt 0.570788 0.558256
vt 0.487468 0.339967
vt 0.510330 0.339967
vt 0.350296 0.522862
vt 0.327434 0.522862
vt 0.510330 0.500000
vt 0.510330 0.522862
vt 0.566383 0.649704
vt 0.566383 0.741152
vt 0.429212 0.741152
vt 0.601777 0.154869
vt 0.601777 0.017697
vt 0.738949 0.017697
vt 0.429212 0.649704
vt 0.292040 0.741152
vt 0.154869 0.649704
vt 0.154869 0.741152
vt 0.017697 0.741152
vt 0.292040 0.649704
vt 0.223454 0.304572
vt 0.223454 0.213125
vt 0.360626 0.213125
vt 0.177731 0.213125
vt 0.177731 0.304572
vt 0.040559 0.304572
vt 0.726417 0.213125
vt 0.726417 0.304572
vt 0.589245 0.304572
vt 0.543521 0.213125
vt 0.543521 0.304572
vt 0.406350 0.304572
vt 0.547926 0.581118
vt 0.431414 0.581118
vt 0.408552 0.581118
vt 0.408552 0.558256
vt 0.385690 0.581118
vt 0.466808 0.558256
vt 0.489670 0.558256
vt 0.489670 0.581118
vt 0.512532 0.558256
vt 0.350296 0.581118
vt 0.327434 0.581118
vt 0.327434 0.558256
vt 0.040559 0.959441
vt 0.017697 0.959441
vt 0.017697 0.776546
vt 0.109145 0.959441
vt 0.086283 0.959441
vt 0.086283 0.776546
vt 0.327434 0.603980
vt 0.807535 0.304572
vt 0.784673 0.304572
vt 0.784673 0.121677
vt 0.876120 0.121677
vt 0.876120 0.304572
vt 0.853259 0.304572
vt 0.786875 0.522862
vt 0.764013 0.522862
vt 0.764013 0.339967
vt 0.855461 0.339967
vt 0.855461 0.522862
vt 0.832599 0.522862
vt 0.865791 0.649704
vt 0.865791 0.832599
vt 0.842929 0.832599
vt 0.797205 0.649704
vt 0.797205 0.832599
vt 0.774343 0.832599
vt 0.317105 0.936579
vt 0.294243 0.936579
vt 0.294243 0.776546
vt 0.339967 0.776546
vt 0.339967 0.936579
vt 0.190263 0.936579
vt 0.167401 0.936579
vt 0.167401 0.776546
vt 0.213125 0.776546
vt 0.213125 0.936579
vt 0.936579 0.500000
vt 0.913717 0.339967
vt 0.959441 0.500000
vt 0.443947 0.936579
vt 0.421085 0.776546
vt 0.200592 0.304572
vt 0.200592 0.213125
vt 0.749279 0.304572
vt 0.017697 0.304572
vt 0.017697 0.213125
vt 0.040559 0.213125
vt 0.566383 0.304572
vt 0.566383 0.213125
vt 0.589245 0.213125
vt 0.360626 0.304572
vt 0.383488 0.213125
vt 0.406350 0.213125
vt 0.383488 0.304572
vt 0.040559 0.776546
vt 0.063421 0.776546
vt 0.063421 0.959441
vt 0.820067 0.649704
vt 0.820067 0.832599
vt 0.842929 0.649704
vt 0.807535 0.121677
vt 0.830397 0.121677
vt 0.830397 0.304572
vt 0.853259 0.121677
vt 0.786875 0.339967
vt 0.809737 0.339967
vt 0.809737 0.522862
vt 0.832599 0.339967
vt 0.362829 0.936579
vt 0.271381 0.936579
vt 0.271381 0.776546
vt 0.235987 0.776546
vt 0.235987 0.936579
vt 0.144539 0.936579
vt 0.687301 0.581118
vt 0.745557 0.581118
vt 0.774343 0.040559
vt 0.629045 0.581118
vt 0.489670 0.776546
vt 0.566383 0.177731
vt 0.601777 0.649704
vt 0.327434 0.362829
vt 0.017697 0.177731
vt 0.545724 0.362829
vt 0.593650 0.558256
vt 0.738949 0.154869
vt 0.017697 0.649704
vt 0.547926 0.558256
vt 0.431414 0.558256
vt 0.385690 0.558256
vt 0.466808 0.581118
vt 0.512532 0.581118
vt 0.350296 0.558256
vt 0.109145 0.776546
vt 0.350296 0.603980
vt 0.774343 0.649704
vt 0.317105 0.776546
vt 0.190263 0.776546
vt 0.936579 0.339967
vt 0.443947 0.776546
vt 0.749279 0.213125
vt 0.362829 0.776546
vt 0.144539 0.776546
vn 0.000000 -1.000000 0.000000
vn 0.000000 1.000000 0.000000
vn 0.000000 0.000000 1.000000
vn 1.000000 0.000000 0.000000
vn 0.000000 0.000000 -1.000000
vn -1.000000 0.000000 0.000000
s off
f 11/1/1 4/2/1 16/3/1
f 26/4/1 15/5/1 3/6/1
f 8/7/1 25/8/1 19/9/1
f 2/10/1 12/11/1 27/12/1
f 24/13/2 22/14/2 21/15/2
f 14/16/2 13/17/2 23/18/2
f 10/19/2 9/20/2 24/13/2
f 22/14/2 24/13/2 6/21/2
f 21/15/2 22/14/2 18/22/2
f 64/23/1 62/24/1 63/25/1
f 44/26/1 40/27/1 64/23/1
f 17/28/3 18/22/3 30/29/3
f 13/17/4 14/16/4 32/30/4
f 9/20/5 10/19/5 34/31/5
f 5/32/6 6/21/6 36/33/6
f 46/34/4 30/35/4 19/36/4
f 46/37/3 85/38/3 86/39/3
f 48/40/6 87/41/6 85/38/6
f 33/42/4 48/43/4 27/44/4
f 88/45/5 87/41/5 48/40/5
f 85/46/1 87/47/1 88/48/1
f 7/49/3 27/50/3 48/51/3
f 47/52/1 49/53/1 31/54/1
f 49/55/1 48/56/1 33/57/1
f 48/58/1 46/59/1 35/60/1
f 46/61/1 47/62/1 29/63/1
f 59/64/2 61/65/2 51/66/2
f 58/67/2 59/64/2 57/68/2
f 60/69/2 58/67/2 55/70/2
f 61/65/2 60/69/2 53/71/2
f 35/72/5 46/73/5 25/74/5
f 86/75/4 88/45/4 49/76/4
f 43/77/1 39/78/1 38/79/1
f 63/25/1 62/24/1 42/80/1
f 45/81/1 41/82/1 62/24/1
f 65/83/2 57/68/2 59/64/2
f 10/84/5 77/85/5 78/86/5
f 58/67/2 56/87/2 67/88/2
f 61/65/2 52/89/2 66/90/2
f 60/69/2 54/91/2 68/92/2
f 58/93/3 69/94/3 72/95/3
f 71/96/2 72/97/2 69/98/2
f 59/99/6 72/95/6 71/100/6
f 60/101/4 70/102/4 69/103/4
f 61/104/5 71/100/5 70/102/5
f 42/105/6 50/106/6 51/107/6
f 57/108/3 41/109/3 45/110/3
f 55/111/4 40/112/4 44/113/4
f 53/114/5 39/115/5 43/116/5
f 78/86/4 77/85/4 13/117/4
f 14/118/4 75/119/4 76/120/4
f 76/120/3 75/119/3 17/121/3
f 18/122/3 73/123/3 74/124/3
f 74/124/6 73/123/6 5/125/6
f 80/126/5 79/127/5 9/128/5
f 43/129/4 63/130/4 24/131/4
f 63/132/3 37/133/3 6/134/3
f 6/135/6 79/127/6 80/126/6
f 45/136/6 64/137/6 21/138/6
f 21/139/5 64/140/5 40/141/5
f 44/142/3 38/143/3 23/144/3
f 23/145/6 38/146/6 39/147/6
f 22/148/4 62/149/4 41/150/4
f 5/151/5 42/152/5 62/153/5
f 76/154/3 29/155/3 20/156/3
f 15/157/4 32/158/4 76/154/4
f 78/159/4 31/160/4 16/161/4
f 11/162/5 34/163/5 78/159/5
f 80/164/5 33/42/5 12/165/5
f 7/49/6 36/166/6 80/164/6
f 74/167/6 35/72/6 8/168/6
f 19/36/3 30/35/3 74/167/3
f 50/106/6 42/105/6 81/169/6
f 57/108/3 65/170/3 81/169/3
f 83/171/4 40/112/4 55/111/4
f 83/172/3 67/173/3 56/174/3
f 84/175/5 39/115/5 53/114/5
f 84/175/4 68/176/4 54/177/4
f 37/178/6 51/107/6 66/179/6
f 52/180/5 43/116/5 82/181/5
f 9/182/5 79/183/5 82/184/5
f 82/184/6 79/183/6 6/134/6
f 5/151/6 73/185/6 81/186/6
f 81/186/3 73/185/3 18/187/3
f 17/188/3 75/189/3 83/190/3
f 83/190/4 75/189/4 14/191/4
f 13/192/4 77/193/4 84/194/4
f 84/194/5 77/193/5 10/195/5
f 47/196/5 32/158/5 15/157/5
f 29/155/6 47/197/6 26/198/6
f 28/199/6 49/200/6 34/163/6
f 16/161/3 31/160/3 49/201/3
f 28/202/1 11/1/1 16/3/1
f 20/203/1 26/4/1 3/6/1
f 1/204/1 8/7/1 19/9/1
f 7/205/1 2/10/1 27/12/1
f 23/18/2 24/13/2 21/15/2
f 21/15/2 14/16/2 23/18/2
f 23/18/2 10/19/2 24/13/2
f 5/32/2 22/14/2 6/21/2
f 17/28/2 21/15/2 18/22/2
f 38/79/1 64/23/1 63/25/1
f 38/79/1 44/26/1 64/23/1
f 29/63/3 17/28/3 30/29/3
f 31/54/4 13/17/4 32/30/4
f 33/57/5 9/20/5 34/31/5
f 35/60/6 5/32/6 36/33/6
f 25/206/4 46/34/4 19/36/4
f 47/207/3 46/37/3 86/39/3
f 46/37/6 48/40/6 85/38/6
f 12/165/4 33/42/4 27/44/4
f 49/76/5 88/45/5 48/40/5
f 86/208/1 85/46/1 88/48/1
f 36/166/3 7/49/3 48/51/3
f 32/30/1 47/52/1 31/54/1
f 34/31/1 49/55/1 33/57/1
f 36/33/1 48/58/1 35/60/1
f 30/29/1 46/61/1 29/63/1
f 50/209/2 59/64/2 51/66/2
f 56/87/2 58/67/2 57/68/2
f 54/91/2 60/69/2 55/70/2
f 52/89/2 61/65/2 53/71/2
f 8/168/5 35/72/5 25/74/5
f 47/210/4 86/75/4 49/76/4
f 63/25/1 43/77/1 38/79/1
f 37/211/1 63/25/1 42/80/1
f 64/23/1 45/81/1 62/24/1
f 50/209/2 65/83/2 59/64/2
f 34/212/5 10/84/5 78/86/5
f 55/70/2 58/67/2 67/88/2
f 51/66/2 61/65/2 66/90/2
f 53/71/2 60/69/2 68/92/2
f 59/99/3 58/93/3 72/95/3
f 70/213/2 71/96/2 69/98/2
f 61/104/6 59/99/6 71/100/6
f 58/214/4 60/101/4 69/103/4
f 60/101/5 61/104/5 70/102/5
f 37/178/6 42/105/6 51/107/6
f 56/174/3 57/108/3 45/110/3
f 54/177/4 55/111/4 44/113/4
f 52/180/5 53/114/5 43/116/5
f 31/215/4 78/86/4 13/117/4
f 32/216/4 14/118/4 76/120/4
f 29/217/3 76/120/3 17/121/3
f 30/218/3 18/122/3 74/124/3
f 35/219/6 74/124/6 5/125/6
f 33/220/5 80/126/5 9/128/5
f 9/182/4 43/129/4 24/131/4
f 24/221/3 63/132/3 6/134/3
f 36/222/6 6/135/6 80/126/6
f 17/188/6 45/136/6 21/138/6
f 14/191/5 21/139/5 40/141/5
f 13/192/3 44/142/3 23/144/3
f 10/195/6 23/145/6 39/147/6
f 18/187/4 22/148/4 41/150/4
f 22/223/5 5/151/5 62/153/5
f 3/224/3 76/154/3 20/156/3
f 3/224/4 15/157/4 76/154/4
f 4/225/4 78/159/4 16/161/4
f 4/225/5 11/162/5 78/159/5
f 2/226/5 80/164/5 12/165/5
f 2/226/6 7/49/6 80/164/6
f 1/227/6 74/167/6 8/168/6
f 1/227/3 19/36/3 74/167/3
f 65/170/6 50/106/6 81/169/6
f 41/109/3 57/108/3 81/169/3
f 67/228/4 83/171/4 55/111/4
f 45/110/3 83/172/3 56/174/3
f 68/176/5 84/175/5 53/114/5
f 44/113/4 84/175/4 54/177/4
f 82/181/6 37/178/6 66/179/6
f 66/179/5 52/180/5 82/181/5
f 43/129/5 9/182/5 82/184/5
f 37/133/6 82/184/6 6/134/6
f 42/152/6 5/151/6 81/186/6
f 41/150/3 81/186/3 18/187/3
f 45/136/3 17/188/3 83/190/3
f 40/141/4 83/190/4 14/191/4
f 44/142/4 13/192/4 84/194/4
f 39/147/5 84/194/5 10/195/5
f 26/229/5 47/196/5 15/157/5
f 20/156/6 29/155/6 26/198/6
f 11/162/6 28/199/6 34/163/6
f 28/230/3 16/161/3 49/201/3
