# Blender v2.76 (sub 0) OBJ File: 'pumpjack_base.blend'
# www.blender.org
o Plane
v 0.000000 0.000000 -0.100000
v 0.000000 0.500000 -0.100000
v 0.070711 0.000000 -0.070711
v 0.070711 0.500000 -0.070711
v 0.100000 0.000000 0.000000
v 0.100000 0.500000 0.000000
v 0.070711 0.000000 0.070711
v 0.070711 0.500000 0.070711
v -0.000000 0.000000 0.100000
v -0.000000 0.500000 0.100000
v -0.070711 0.000000 0.070711
v -0.070711 0.500000 0.070711
v -0.100000 0.000000 -0.000000
v -0.100000 0.500000 -0.000000
v -0.070711 0.000000 -0.070711
v -0.070711 0.500000 -0.070711
v -1.000000 0.000000 -0.500000
v -1.000000 0.150000 -0.500000
v -1.000000 0.000000 -6.500000
v -1.000000 0.150000 -6.500000
v 1.000000 0.000000 -0.500000
v 1.000000 0.150000 -0.500000
v 1.000000 0.000000 -6.500000
v 1.000000 0.150000 -6.500000
v -0.750000 0.150000 -1.000000
v -0.750000 0.500000 -1.000000
v -0.750000 0.150000 -4.000000
v -0.750000 0.500000 -4.000000
v 0.750000 0.150000 -1.000000
v 0.750000 0.500000 -1.000000
v 0.750000 0.150000 -4.000000
v 0.750000 0.500000 -4.000000
v -0.500000 4.000000 -2.125000
v -0.500000 4.000000 -2.875000
v 0.500000 4.000000 -2.125000
v 0.500000 4.000000 -2.875000
v 0.250000 3.250000 -2.125000
v 0.500000 3.250000 -2.125000
v 0.250000 3.250000 -2.375000
v 0.500000 3.250000 -2.375000
v 0.500000 0.500000 -1.625000
v 0.750000 0.500000 -1.625000
v 0.500000 0.500000 -1.875000
v 0.750000 0.500000 -1.875000
v 0.250000 3.250000 -2.625000
v 0.500000 3.250000 -2.625000
v 0.250000 3.250000 -2.875000
v 0.500000 3.250000 -2.875000
v -0.500000 3.250000 -2.125000
v -0.250000 3.250000 -2.125000
v -0.500000 3.250000 -2.375000
v -0.250000 3.250000 -2.375000
v -0.500000 3.250000 -2.625000
v -0.250000 3.250000 -2.625000
v -0.500000 3.250000 -2.875000
v -0.250000 3.250000 -2.875000
v 0.500000 0.500000 -3.125000
v 0.750000 0.500000 -3.125000
v 0.500000 0.500000 -3.375000
v 0.750000 0.500000 -3.375000
v -0.750000 0.500000 -1.625000
v -0.500000 0.500000 -1.625000
v -0.750000 0.500000 -1.875000
v -0.500000 0.500000 -1.875000
v -0.750000 0.500000 -3.125000
v -0.500000 0.500000 -3.125000
v -0.750000 0.500000 -3.375000
v -0.500000 0.500000 -3.375000
v 0.625000 1.875000 -2.875000
v 0.625000 1.875000 -3.125000
v 0.375000 1.875000 -3.125000
v 0.375000 1.875000 -2.875000
v 0.625000 1.875000 -1.875000
v 0.625000 1.875000 -2.125000
v 0.375000 1.875000 -1.875000
v 0.375000 1.875000 -2.125000
v 0.562500 2.562500 -2.000000
v 0.562500 2.562500 -2.250000
v 0.312500 2.562500 -2.000000
v 0.312500 2.562500 -2.250000
v 0.562500 2.562500 -2.750000
v 0.562500 2.562500 -3.000000
v 0.312500 2.562500 -3.000000
v 0.312500 2.562500 -2.750000
v 0.687500 1.187500 -1.750000
v 0.687500 1.187500 -2.000000
v 0.437500 1.187500 -1.750000
v 0.437500 1.187500 -2.000000
v 0.687500 1.187500 -3.000000
v 0.687500 1.187500 -3.250000
v 0.437500 1.187500 -3.250000
v 0.437500 1.187500 -3.000000
v -0.625000 1.875000 -3.125000
v -0.625000 1.875000 -2.875000
v -0.375000 1.875000 -3.125000
v -0.375000 1.875000 -2.875000
v -0.687500 1.187500 -3.250000
v -0.687500 1.187500 -3.000000
v -0.437500 1.187500 -3.250000
v -0.437500 1.187500 -3.000000
v -0.562500 2.562500 -3.000000
v -0.562500 2.562500 -2.750000
v -0.312500 2.562500 -3.000000
v -0.312500 2.562500 -2.750000
v -0.625000 1.875000 -2.125000
v -0.625000 1.875000 -1.875000
v -0.375000 1.875000 -1.875000
v -0.375000 1.875000 -2.125000
v -0.562500 2.562500 -2.250000
v -0.562500 2.562500 -2.000000
v -0.312500 2.562500 -2.000000
v -0.312500 2.562500 -2.250000
v -0.687500 1.187500 -2.000000
v -0.687500 1.187500 -1.750000
v -0.437500 1.187500 -1.750000
v -0.437500 1.187500 -2.000000
v -0.500000 1.500000 -6.500000
v 0.500000 1.500000 -6.500000
v -0.500000 1.000000 -6.366025
v 0.500000 1.000000 -6.366025
v -0.500000 0.633974 -6.000000
v 0.500000 0.633975 -6.000000
v -0.500000 0.500000 -5.500000
v 0.500000 0.500000 -5.500000
v -0.500000 0.633974 -5.000000
v 0.500000 0.633975 -5.000000
v -0.500000 1.000000 -4.633975
v 0.500000 1.000000 -4.633975
v -0.500000 1.500000 -4.500000
v 0.500000 1.500000 -4.500000
v -0.500000 2.000000 -4.633975
v 0.500000 2.000000 -4.633975
v -0.500000 2.366025 -5.000000
v 0.500000 2.366025 -5.000000
v -0.500000 2.500000 -5.500000
v 0.500000 2.500000 -5.500000
v -0.500000 2.366026 -6.000000
v 0.500000 2.366026 -6.000000
v -0.500000 2.000000 -6.366025
v 0.500000 2.000001 -6.366025
v -0.375000 1.500000 -6.500000
v 0.375000 1.500000 -6.500000
v -0.375000 1.500000 -4.500000
v 0.375000 1.500000 -4.500000
v -0.375000 0.150000 -6.500000
v 0.375000 0.150000 -6.500000
v -0.375000 0.150000 -4.250000
v 0.375000 0.150000 -4.250000
v -0.375000 1.150000 -4.250000
v 0.375000 1.150000 -4.250000
v -0.375000 1.000000 -6.366025
v 0.375000 1.000000 -6.366025
v -0.375000 0.633974 -6.000000
v 0.375000 0.633975 -6.000000
v -0.375000 0.500000 -5.500000
v 0.375000 0.500000 -5.500000
v -0.375000 0.633974 -5.000000
v 0.375000 0.633975 -5.000000
v -0.375000 1.000000 -4.633975
v 0.375000 1.000000 -4.633975
v 0.000000 0.400000 -1.000000
v 0.000000 0.400000 0.150000
v 0.035355 0.385355 -1.000000
v 0.035355 0.385355 0.150000
v 0.050000 0.350000 -1.000000
v 0.050000 0.350000 0.150000
v 0.035355 0.314645 -1.000000
v 0.035355 0.314645 0.150000
v -0.000000 0.300000 -1.000000
v -0.000000 0.300000 0.150000
v -0.035355 0.314645 -1.000000
v -0.035355 0.314645 0.150000
v -0.050000 0.350000 -1.000000
v -0.050000 0.350000 0.150000
v -0.035355 0.385355 -1.000000
v -0.035355 0.385355 0.150000
v 0.150000 0.350000 0.000000
v 0.150000 0.335355 -0.035355
v 0.150000 0.300000 -0.050000
v 0.150000 0.264645 -0.035355
v 0.150000 0.250000 0.000000
v 0.150000 0.264645 0.035355
v 0.150000 0.300000 0.050000
v 0.150000 0.335355 0.035355
v 0.070000 0.335355 -0.035355
v 0.070000 0.350000 -0.000000
v 0.070000 0.300000 -0.050000
v 0.070000 0.264645 -0.035355
v 0.070000 0.250000 -0.000000
v 0.070000 0.264645 0.035355
v 0.070000 0.300000 0.050000
v 0.070000 0.335355 0.035355
v -0.025000 0.500000 0.000000
v 0.025000 0.500000 0.000000
v -0.025000 3.500000 -0.000000
v 0.025000 3.500000 -0.000000
v 0.750000 0.343750 -1.843750
v 0.750000 0.656250 -1.843750
v 0.750000 0.343750 -2.156250
v 0.750000 0.656250 -2.156250
v 1.500000 0.343750 -1.843750
v 1.500000 0.656250 -1.843750
v 1.500000 0.343750 -2.156250
v 1.500000 0.656250 -2.156250
v 0.750000 0.343750 -2.843750
v 0.750000 0.656250 -2.843750
v 0.750000 0.343750 -3.156250
v 0.750000 0.656250 -3.156250
v 1.500000 0.343750 -2.843750
v 1.500000 0.656250 -2.843750
v 1.500000 0.343750 -3.156250
v 1.500000 0.656250 -3.156250
v -1.500000 0.343750 -2.843750
v -1.500000 0.656250 -2.843750
v -1.500000 0.343750 -3.156250
v -1.500000 0.656250 -3.156250
v -0.750000 0.343750 -2.843750
v -0.750000 0.656250 -2.843750
v -0.750000 0.343750 -3.156250
v -0.750000 0.656250 -3.156250
v -1.500000 0.343750 -1.843750
v -1.500000 0.656250 -1.843750
v -1.500000 0.343750 -2.156250
v -1.500000 0.656250 -2.156250
v -0.750000 0.343750 -1.843750
v -0.750000 0.656250 -1.843750
v -0.750000 0.343750 -2.156250
v -0.750000 0.656250 -2.156250
v -0.375000 -0.000000 0.375000
v -0.375000 0.050000 0.375000
v -0.375000 -0.000000 -0.375000
v -0.375000 0.050000 -0.375000
v 0.375000 -0.000000 0.375000
v 0.375000 0.050000 0.375000
v 0.375000 -0.000000 -0.375000
v 0.375000 0.050000 -0.375000
vn 0.000000 -1.000000 0.000000
vn 0.382700 0.000000 -0.923900
vn 0.923900 0.000000 -0.382700
vn 0.923900 0.000000 0.382700
vn 0.382700 0.000000 0.923900
vn -0.382700 0.000000 0.923900
vn -0.923900 0.000000 0.382700
vn 0.000000 1.000000 -0.000000
vn -0.382700 0.000000 -0.923900
vn -0.923900 0.000000 -0.382700
vn -1.000000 0.000000 0.000000
vn 1.000000 0.000000 0.000000
vn 0.000000 0.000000 1.000000
vn 0.000000 0.000000 -1.000000
vn 0.995900 0.090500 0.000000
vn 0.000000 0.178900 0.983900
vn 0.000000 0.178900 -0.983900
vn 0.000000 -0.178900 -0.983900
vn -0.995900 -0.090500 0.000000
vn 0.000000 -0.178900 0.983900
vn -0.995900 0.090500 0.000000
vn 0.995900 -0.090500 0.000000
vn 0.000000 -0.853300 0.521500
vn 0.000000 0.786300 0.617800
vn 0.000000 0.672700 -0.739900
vn 0.000000 -0.672700 -0.739900
vn 0.000000 -0.786300 0.617800
vn 0.000000 -0.853300 -0.521500
vn 0.707100 -0.707100 0.000000
vn 0.645900 0.763400 0.000000
vn 0.591400 -0.806400 0.000000
vn -0.591400 -0.806400 0.000000
vn 0.645900 -0.763400 0.000000
vn 0.707100 0.707100 0.000000
vn 0.000000 -0.786300 -0.617800
vn 0.000000 0.786300 -0.617800
vn -0.645900 0.763400 0.000000
vn -0.707100 -0.707100 0.000000
vn -0.707100 0.707100 0.000000
vn -0.645900 -0.763400 0.000000
vn 0.000000 0.258800 -0.965900
vn 0.000000 0.707100 0.707100
vn 0.000000 0.965900 0.258800
vn 0.000000 0.965900 -0.258800
vn 0.000000 0.258800 0.965900
vn -0.000000 0.707100 -0.707100
vn 0.000000 -0.258800 -0.965900
vn 0.000000 -0.707100 -0.707100
vn 0.000000 -0.965900 -0.258800
vn 0.000000 -0.965900 0.258800
vn 0.000000 -0.707100 0.707100
vn 0.000000 -0.258800 0.965900
vn -0.000000 0.581200 0.813700
vn 0.382700 0.923900 -0.000000
vn 0.923900 0.382700 0.000000
vn 0.923900 -0.382700 0.000000
vn 0.382700 -0.923900 0.000000
vn -0.382700 -0.923900 0.000000
vn -0.923900 -0.382700 0.000000
vn -0.382700 0.923900 -0.000000
vn -0.923900 0.382700 -0.000000
vn -0.000000 -0.382700 0.923900
vn 0.000000 -0.923900 -0.382700
vn 0.000000 0.382700 -0.923900
vn -0.000000 0.382700 0.923900
vn -0.000000 -0.923900 0.382700
vn 0.000000 -0.382700 -0.923900
vn 0.000000 0.923900 -0.382700
vn -0.000000 0.923900 0.382700
s off
f 235//1 233//1 229//1
f 2//2 4//2 3//2
f 4//3 6//3 5//3
f 6//4 8//4 7//4
f 8//5 10//5 9//5
f 10//6 12//6 11//6
f 12//7 14//7 13//7
f 14//8 10//8 2//8
f 16//9 2//9 1//9
f 14//10 16//10 15//10
f 7//1 11//1 15//1
f 20//11 19//11 17//11
f 22//12 21//12 23//12
f 18//13 17//13 21//13
f 29//12 31//12 44//12
f 32//14 31//14 27//14
f 26//13 25//13 29//13
f 56//1 47//1 45//1
f 46//1 40//1 39//1
f 54//1 52//1 51//1
f 52//1 39//1 37//1
f 42//8 44//8 43//8
f 36//8 34//8 33//8
f 45//1 39//1 52//1
f 46//12 35//12 40//12
f 56//14 34//14 47//14
f 53//11 51//11 34//11
f 37//13 35//13 50//13
f 58//8 60//8 59//8
f 62//8 64//8 63//8
f 66//8 68//8 67//8
f 85//15 42//15 44//15
f 85//16 87//16 41//16
f 90//15 89//15 58//15
f 90//17 60//17 59//17
f 86//18 44//18 43//18
f 87//19 88//19 43//19
f 89//20 92//20 57//20
f 91//19 59//19 57//19
f 97//21 67//21 65//21
f 114//21 113//21 63//21
f 114//16 61//16 62//16
f 113//18 116//18 64//18
f 115//22 62//22 64//22
f 97//17 99//17 68//17
f 98//20 65//20 66//20
f 99//22 100//22 66//22
f 64//8 62//8 41//8
f 68//8 66//8 57//8
f 27//11 25//11 65//11
f 68//8 59//8 32//8
f 41//8 62//8 26//8
f 43//8 44//8 57//8
f 83//19 71//19 72//19
f 81//20 84//20 72//20
f 82//17 70//17 71//17
f 82//15 81//15 69//15
f 79//19 80//19 76//19
f 78//18 74//18 76//18
f 77//16 79//16 75//16
f 77//15 73//15 74//15
f 38//15 77//15 78//15
f 38//16 37//16 79//16
f 40//18 78//18 80//18
f 37//19 39//19 80//19
f 48//15 46//15 81//15
f 48//17 82//17 83//17
f 46//20 45//20 84//20
f 47//19 83//19 84//19
f 75//19 76//19 88//19
f 74//18 86//18 88//18
f 73//16 75//16 87//16
f 73//15 85//15 86//15
f 71//19 91//19 92//19
f 69//20 72//20 92//20
f 70//17 90//17 91//17
f 70//15 69//15 89//15
f 103//22 104//22 96//22
f 102//20 94//20 96//20
f 101//17 103//17 95//17
f 101//21 93//21 94//21
f 95//22 96//22 100//22
f 94//20 98//20 100//20
f 93//17 95//17 99//17
f 93//21 97//21 98//21
f 55//21 101//21 102//21
f 55//17 56//17 103//17
f 53//20 102//20 104//20
f 56//22 54//22 104//22
f 111//22 107//22 108//22
f 109//18 112//18 108//18
f 110//16 106//16 107//16
f 110//21 109//21 105//21
f 49//21 51//21 109//21
f 49//16 110//16 111//16
f 51//18 52//18 112//18
f 50//22 111//22 112//22
f 107//22 115//22 116//22
f 105//18 108//18 116//18
f 106//16 114//16 115//16
f 106//21 105//21 113//21
f 57//23 58//23 86//23
f 88//24 86//24 69//24
f 78//25 69//25 72//25
f 80//8 78//8 81//8
f 104//8 102//8 109//8
f 84//8 83//8 103//8
f 112//8 111//8 79//8
f 81//26 74//26 76//26
f 92//27 89//27 74//27
f 89//28 44//28 43//28
f 83//29 84//29 96//29
f 92//30 91//30 95//30
f 91//31 92//31 66//31
f 99//32 59//32 57//32
f 71//33 72//33 100//33
f 72//34 71//34 103//34
f 96//25 94//25 109//25
f 116//35 113//35 94//35
f 113//23 65//23 66//23
f 64//28 63//28 98//28
f 105//36 108//36 100//36
f 102//26 104//26 108//26
f 115//32 116//32 43//32
f 75//37 76//37 116//37
f 76//38 75//38 111//38
f 79//39 80//39 108//39
f 88//40 87//40 107//40
f 87//31 62//31 64//31
f 141//41 139//41 142//41
f 132//42 134//42 133//42
f 134//43 136//43 135//43
f 136//44 138//44 137//44
f 144//45 132//45 131//45
f 138//46 140//46 139//46
f 123//11 131//11 139//11
f 138//12 130//12 118//12
f 152//47 142//47 118//47
f 120//48 122//48 154//48
f 156//49 154//49 122//49
f 158//50 156//50 124//50
f 160//51 158//51 126//51
f 130//52 144//52 160//52
f 150//53 144//53 143//53
f 150//13 149//13 147//13
f 146//14 145//14 141//14
f 145//14 23//14 19//14
f 117//47 141//47 151//47
f 119//48 151//48 153//48
f 121//49 153//49 155//49
f 123//50 155//50 157//50
f 125//51 157//51 159//51
f 127//52 159//52 143//52
f 151//11 141//11 145//11
f 153//11 151//11 145//11
f 155//11 153//11 145//11
f 149//11 143//11 159//11
f 149//11 159//11 147//11
f 159//11 157//11 147//11
f 157//11 155//11 147//11
f 145//11 147//11 155//11
f 146//12 142//12 152//12
f 152//12 154//12 146//12
f 156//12 146//12 154//12
f 150//12 160//12 144//12
f 150//12 148//12 160//12
f 160//12 148//12 158//12
f 158//12 148//12 156//12
f 146//12 156//12 148//12
f 29//8 25//8 18//8
f 22//8 24//8 31//8
f 18//8 25//8 27//8
f 148//8 147//8 27//8
f 20//8 27//8 147//8
f 148//8 31//8 24//8
f 162//54 164//54 163//54
f 164//55 166//55 165//55
f 166//56 168//56 167//56
f 168//57 170//57 169//57
f 170//58 172//58 171//58
f 172//59 174//59 173//59
f 172//13 170//13 166//13
f 176//60 162//60 161//60
f 174//61 176//61 175//61
f 182//12 181//12 179//12
f 194//13 196//13 195//13
f 183//62 191//62 190//62
f 180//63 181//63 189//63
f 179//64 187//64 185//64
f 184//65 192//65 191//65
f 181//66 182//66 190//66
f 179//67 180//67 188//67
f 178//68 185//68 186//68
f 177//69 186//69 192//69
f 200//11 199//11 197//11
f 204//14 203//14 199//14
f 202//12 201//12 203//12
f 198//13 197//13 201//13
f 199//1 203//1 201//1
f 204//8 200//8 198//8
f 208//11 207//11 205//11
f 212//14 211//14 207//14
f 210//12 209//12 211//12
f 206//13 205//13 209//13
f 207//1 211//1 209//1
f 212//8 208//8 206//8
f 216//11 215//11 213//11
f 220//14 219//14 215//14
f 218//12 217//12 219//12
f 214//13 213//13 217//13
f 215//1 219//1 217//1
f 220//8 216//8 214//8
f 224//11 223//11 221//11
f 228//14 227//14 223//14
f 226//12 225//12 227//12
f 222//13 221//13 225//13
f 223//1 227//1 225//1
f 228//8 224//8 222//8
f 232//11 231//11 229//11
f 236//14 235//14 231//14
f 234//12 233//12 235//12
f 230//13 229//13 233//13
f 236//8 232//8 230//8
f 23//1 21//1 17//1
f 231//1 235//1 229//1
f 1//2 2//2 3//2
f 3//3 4//3 5//3
f 5//4 6//4 7//4
f 7//5 8//5 9//5
f 9//6 10//6 11//6
f 11//7 12//7 13//7
f 6//8 4//8 2//8
f 2//8 16//8 14//8
f 14//8 12//8 10//8
f 10//8 8//8 6//8
f 6//8 2//8 10//8
f 15//9 16//9 1//9
f 13//10 14//10 15//10
f 15//1 1//1 7//1
f 3//1 5//1 7//1
f 7//1 9//1 11//1
f 11//1 13//1 15//1
f 1//1 3//1 7//1
f 18//11 20//11 17//11
f 24//12 22//12 23//12
f 22//13 18//13 21//13
f 60//12 58//12 31//12
f 44//12 42//12 29//12
f 30//12 29//12 42//12
f 31//12 32//12 60//12
f 58//12 44//12 31//12
f 28//14 32//14 27//14
f 30//13 26//13 29//13
f 54//1 56//1 45//1
f 45//1 46//1 39//1
f 53//1 54//1 51//1
f 50//1 52//1 37//1
f 41//8 42//8 43//8
f 35//8 36//8 33//8
f 54//1 45//1 52//1
f 38//12 40//12 35//12
f 46//12 48//12 36//12
f 36//12 35//12 46//12
f 48//14 47//14 36//14
f 56//14 55//14 34//14
f 34//14 36//14 47//14
f 33//11 34//11 51//11
f 55//11 53//11 34//11
f 51//11 49//11 33//11
f 49//13 50//13 33//13
f 37//13 38//13 35//13
f 35//13 33//13 50//13
f 57//8 58//8 59//8
f 61//8 62//8 63//8
f 65//8 66//8 67//8
f 86//15 85//15 44//15
f 42//16 85//16 41//16
f 60//15 90//15 58//15
f 91//17 90//17 59//17
f 88//18 86//18 43//18
f 41//19 87//19 43//19
f 58//20 89//20 57//20
f 92//19 91//19 57//19
f 98//21 97//21 65//21
f 61//21 114//21 63//21
f 115//16 114//16 62//16
f 63//18 113//18 64//18
f 116//22 115//22 64//22
f 67//17 97//17 68//17
f 100//20 98//20 66//20
f 68//22 99//22 66//22
f 43//8 64//8 41//8
f 59//8 68//8 57//8
f 61//11 63//11 25//11
f 65//11 67//11 27//11
f 28//11 27//11 67//11
f 25//11 26//11 61//11
f 63//11 65//11 25//11
f 32//8 28//8 68//8
f 67//8 68//8 28//8
f 59//8 60//8 32//8
f 26//8 30//8 41//8
f 42//8 41//8 30//8
f 62//8 61//8 26//8
f 57//8 66//8 64//8
f 65//8 63//8 64//8
f 64//8 43//8 57//8
f 44//8 58//8 57//8
f 66//8 65//8 64//8
f 84//19 83//19 72//19
f 69//20 81//20 72//20
f 83//17 82//17 71//17
f 70//15 82//15 69//15
f 75//19 79//19 76//19
f 80//18 78//18 76//18
f 73//16 77//16 75//16
f 78//15 77//15 74//15
f 40//15 38//15 78//15
f 77//16 38//16 79//16
f 39//18 40//18 80//18
f 79//19 37//19 80//19
f 82//15 48//15 81//15
f 47//17 48//17 83//17
f 81//20 46//20 84//20
f 45//19 47//19 84//19
f 87//19 75//19 88//19
f 76//18 74//18 88//18
f 85//16 73//16 87//16
f 74//15 73//15 86//15
f 72//19 71//19 92//19
f 89//20 69//20 92//20
f 71//17 70//17 91//17
f 90//15 70//15 89//15
f 95//22 103//22 96//22
f 104//20 102//20 96//20
f 93//17 101//17 95//17
f 102//21 101//21 94//21
f 99//22 95//22 100//22
f 96//20 94//20 100//20
f 97//17 93//17 99//17
f 94//21 93//21 98//21
f 53//21 55//21 102//21
f 101//17 55//17 103//17
f 54//20 53//20 104//20
f 103//22 56//22 104//22
f 112//22 111//22 108//22
f 105//18 109//18 108//18
f 111//16 110//16 107//16
f 106//21 110//21 105//21
f 110//21 49//21 109//21
f 50//16 49//16 111//16
f 109//18 51//18 112//18
f 52//22 50//22 112//22
f 108//22 107//22 116//22
f 113//18 105//18 116//18
f 107//16 106//16 115//16
f 114//21 106//21 113//21
f 88//23 57//23 86//23
f 72//24 88//24 69//24
f 80//25 78//25 72//25
f 84//8 80//8 81//8
f 112//8 104//8 109//8
f 104//8 84//8 103//8
f 80//8 112//8 79//8
f 84//26 81//26 76//26
f 76//27 92//27 74//27
f 92//28 89//28 43//28
f 95//29 83//29 96//29
f 96//30 92//30 95//30
f 68//31 91//31 66//31
f 100//32 99//32 57//32
f 99//33 71//33 100//33
f 104//34 72//34 103//34
f 112//25 96//25 109//25
f 96//35 116//35 94//35
f 116//23 113//23 66//23
f 100//28 64//28 98//28
f 98//36 105//36 100//36
f 105//26 102//26 108//26
f 41//32 115//32 43//32
f 115//37 75//37 116//37
f 112//38 76//38 111//38
f 107//39 79//39 108//39
f 108//40 88//40 107//40
f 88//31 87//31 64//31
f 118//41 142//41 140//41
f 141//41 117//41 139//41
f 139//41 140//41 142//41
f 131//42 132//42 133//42
f 133//43 134//43 135//43
f 135//44 136//44 137//44
f 131//45 129//45 143//45
f 144//45 130//45 132//45
f 131//45 143//45 144//45
f 137//46 138//46 139//46
f 139//11 117//11 123//11
f 119//11 121//11 123//11
f 123//11 125//11 127//11
f 127//11 129//11 123//11
f 131//11 133//11 135//11
f 135//11 137//11 139//11
f 117//11 119//11 123//11
f 123//11 129//11 131//11
f 131//11 135//11 139//11
f 122//12 120//12 118//12
f 118//12 140//12 138//12
f 138//12 136//12 130//12
f 134//12 132//12 130//12
f 130//12 128//12 126//12
f 126//12 124//12 122//12
f 122//12 118//12 130//12
f 136//12 134//12 130//12
f 130//12 126//12 122//12
f 120//47 152//47 118//47
f 152//48 120//48 154//48
f 124//49 156//49 122//49
f 126//50 158//50 124//50
f 128//51 160//51 126//51
f 128//52 130//52 160//52
f 149//53 150//53 143//53
f 148//13 150//13 147//13
f 142//14 146//14 141//14
f 19//14 20//14 145//14
f 145//14 146//14 23//14
f 24//14 23//14 146//14
f 119//47 117//47 151//47
f 121//48 119//48 153//48
f 123//49 121//49 155//49
f 125//50 123//50 157//50
f 127//51 125//51 159//51
f 129//52 127//52 143//52
f 22//8 29//8 18//8
f 29//8 22//8 31//8
f 20//8 18//8 27//8
f 31//8 148//8 27//8
f 145//8 20//8 147//8
f 146//8 148//8 24//8
f 161//54 162//54 163//54
f 163//55 164//55 165//55
f 165//56 166//56 167//56
f 167//57 168//57 169//57
f 169//58 170//58 171//58
f 171//59 172//59 173//59
f 166//13 164//13 162//13
f 162//13 176//13 166//13
f 174//13 172//13 166//13
f 170//13 168//13 166//13
f 166//13 176//13 174//13
f 175//60 176//60 161//60
f 173//61 174//61 175//61
f 179//12 178//12 177//12
f 177//12 184//12 179//12
f 183//12 182//12 179//12
f 181//12 180//12 179//12
f 179//12 184//12 183//12
f 193//13 194//13 195//13
f 182//62 183//62 190//62
f 188//63 180//63 189//63
f 178//64 179//64 185//64
f 183//65 184//65 191//65
f 189//66 181//66 190//66
f 187//67 179//67 188//67
f 177//68 178//68 186//68
f 184//69 177//69 192//69
f 198//11 200//11 197//11
f 200//14 204//14 199//14
f 204//12 202//12 203//12
f 202//13 198//13 201//13
f 197//1 199//1 201//1
f 202//8 204//8 198//8
f 206//11 208//11 205//11
f 208//14 212//14 207//14
f 212//12 210//12 211//12
f 210//13 206//13 209//13
f 205//1 207//1 209//1
f 210//8 212//8 206//8
f 214//11 216//11 213//11
f 216//14 220//14 215//14
f 220//12 218//12 219//12
f 218//13 214//13 217//13
f 213//1 215//1 217//1
f 218//8 220//8 214//8
f 222//11 224//11 221//11
f 224//14 228//14 223//14
f 228//12 226//12 227//12
f 226//13 222//13 225//13
f 221//1 223//1 225//1
f 226//8 228//8 222//8
f 230//11 232//11 229//11
f 232//14 236//14 231//14
f 236//12 234//12 235//12
f 234//13 230//13 233//13
f 234//8 236//8 230//8
f 19//1 23//1 17//1
