# Blender v2.76 (sub 0) OBJ File: 'pumpjack_rotor.blend'
# www.blender.org
o Cylinder
v -0.750000 -0.000000 -0.150000
v 0.750000 0.000000 -0.150000
v -0.750000 -0.106066 -0.106066
v 0.750000 -0.106066 -0.106066
v -0.750000 -0.150000 0.000000
v 0.750000 -0.150000 0.000000
v -0.750000 -0.106066 0.106066
v 0.750000 -0.106066 0.106066
v -0.750000 -0.000000 0.150000
v 0.750000 0.000000 0.150000
v -0.750000 0.106066 0.106066
v 0.750000 0.106066 0.106066
v -0.750000 0.150000 -0.000000
v 0.750000 0.150000 -0.000000
v -0.750000 0.106066 -0.106066
v 0.750000 0.106066 -0.106066
v 0.500000 -0.550000 0.200000
v 0.500000 0.900000 0.200000
v 0.500000 -0.550000 -0.200000
v 0.500000 0.900000 -0.200000
v 0.650000 -0.550000 0.200000
v 0.650000 0.900000 0.200000
v 0.650000 -0.550000 -0.200000
v 0.650000 0.900000 -0.200000
v -0.650000 -0.550000 0.200000
v -0.650000 0.900000 0.200000
v -0.650000 -0.550000 -0.200000
v -0.650000 0.900000 -0.200000
v -0.500000 -0.550000 0.200000
v -0.500000 0.900000 0.200000
v -0.500000 -0.550000 -0.200000
v -0.500000 0.900000 -0.200000
v 0.600000 0.546523 0.910660
v 0.600000 0.660660 0.910660
v 0.500000 0.660660 -0.910660
v 0.500000 0.985819 -0.574025
v 0.500000 1.100000 0.000000
v 0.500000 0.985819 0.574025
v 0.500000 0.660660 0.910660
v 0.600000 0.985819 0.574025
v 0.600000 1.100000 0.000000
v 0.600000 0.985819 -0.574025
v 0.600000 0.660660 -0.910660
v 0.500000 0.546523 0.910660
v 0.500000 0.321364 0.574025
v 0.500000 0.207183 0.000000
v 0.500000 0.321364 -0.574025
v 0.500000 0.546523 -0.910660
v 0.600000 0.321364 0.574025
v 0.600000 0.207183 0.000000
v 0.600000 0.321364 -0.574025
v 0.600000 0.546523 -0.910660
v -0.500000 0.546523 0.910660
v -0.500000 0.660660 0.910660
v -0.600000 0.660660 -0.910660
v -0.600000 0.985819 -0.574025
v -0.600000 1.100000 0.000000
v -0.600000 0.985819 0.574025
v -0.600000 0.660660 0.910660
v -0.500000 0.985819 0.574025
v -0.500000 1.100000 0.000000
v -0.500000 0.985819 -0.574025
v -0.500000 0.660660 -0.910660
v -0.600000 0.546523 0.910660
v -0.600000 0.321364 0.574025
v -0.600000 0.207183 0.000000
v -0.600000 0.321364 -0.574025
v -0.600000 0.546523 -0.910660
v -0.500000 0.321364 0.574025
v -0.500000 0.207183 0.000000
v -0.500000 0.321364 -0.574025
v -0.500000 0.546523 -0.910660
v 0.500000 -0.900000 0.090000
v 0.500000 -0.900000 -0.090000
v 0.650000 -0.900000 -0.090000
v 0.650000 -0.900000 0.090000
v -0.650000 -0.900000 0.090000
v -0.650000 -0.900000 -0.090000
v -0.500000 -0.900000 -0.090000
v -0.500000 -0.900000 0.090000
vn 0.000000 -0.382700 -0.923900
vn 0.000000 -0.923900 -0.382700
vn 0.000000 -0.923900 0.382700
vn 0.000000 -0.382700 0.923900
vn -0.000000 0.382700 0.923900
vn -0.000000 0.923900 0.382700
vn 1.000000 0.000000 0.000000
vn -0.000000 0.382700 -0.923900
vn -0.000000 0.923900 -0.382700
vn -1.000000 0.000000 0.000000
vn 0.000000 0.000000 -1.000000
vn 0.000000 0.000000 1.000000
vn 0.000000 1.000000 0.000000
vn 0.000000 0.980800 -0.195100
vn 0.000000 0.719300 -0.694700
vn -0.000000 -0.831200 -0.556000
vn 0.000000 -0.980800 -0.195100
vn 0.000000 -0.980800 0.195100
vn 0.000000 -0.831200 0.556000
vn 0.000000 0.719300 0.694700
vn 0.000000 0.980800 0.195100
vn 0.000000 -1.000000 0.000000
vn 0.000000 -0.299800 -0.954000
vn 0.000000 -0.299800 0.954000
s off
f 2//1 4//1 3//1
f 4//2 6//2 5//2
f 6//3 8//3 7//3
f 8//4 10//4 9//4
f 10//5 12//5 11//5
f 12//6 14//6 13//6
f 12//7 10//7 6//7
f 16//8 2//8 1//8
f 14//9 16//9 15//9
f 9//10 11//10 15//10
f 20//10 19//10 17//10
f 24//11 23//11 19//11
f 22//7 21//7 23//7
f 18//12 17//12 21//12
f 24//13 20//13 18//13
f 28//10 27//10 25//10
f 32//11 31//11 27//11
f 30//7 29//7 31//7
f 26//12 25//12 29//12
f 32//13 28//13 26//13
f 45//10 38//10 37//10
f 50//7 51//7 41//7
f 36//14 37//14 41//14
f 36//15 42//15 43//15
f 52//11 48//11 35//11
f 52//16 51//16 47//16
f 51//17 50//17 46//17
f 50//18 49//18 45//18
f 49//19 33//19 44//19
f 33//12 34//12 39//12
f 39//20 34//20 40//20
f 38//21 40//21 41//21
f 65//10 58//10 57//10
f 70//7 71//7 61//7
f 57//14 61//14 62//14
f 56//15 62//15 63//15
f 72//11 68//11 55//11
f 72//16 71//16 67//16
f 71//17 70//17 66//17
f 70//18 69//18 65//18
f 69//19 53//19 64//19
f 53//12 54//12 59//12
f 59//20 54//20 60//20
f 58//21 60//21 61//21
f 74//22 75//22 76//22
f 74//10 73//10 17//10
f 23//23 75//23 74//23
f 76//7 75//7 23//7
f 73//24 76//24 21//24
f 78//22 79//22 80//22
f 78//10 77//10 25//10
f 79//23 78//23 27//23
f 80//7 79//7 31//7
f 77//24 80//24 29//24
f 1//1 2//1 3//1
f 3//2 4//2 5//2
f 5//3 6//3 7//3
f 7//4 8//4 9//4
f 9//5 10//5 11//5
f 11//6 12//6 13//6
f 6//7 4//7 2//7
f 2//7 16//7 6//7
f 14//7 12//7 6//7
f 10//7 8//7 6//7
f 6//7 16//7 14//7
f 15//8 16//8 1//8
f 13//9 14//9 15//9
f 15//10 1//10 3//10
f 3//10 5//10 7//10
f 7//10 9//10 15//10
f 11//10 13//10 15//10
f 15//10 3//10 7//10
f 18//10 20//10 17//10
f 20//11 24//11 19//11
f 24//7 22//7 23//7
f 22//12 18//12 21//12
f 22//13 24//13 18//13
f 26//10 28//10 25//10
f 28//11 32//11 27//11
f 32//7 30//7 31//7
f 30//12 26//12 29//12
f 30//13 32//13 26//13
f 37//10 36//10 47//10
f 35//10 48//10 47//10
f 47//10 46//10 37//10
f 45//10 44//10 39//10
f 39//10 38//10 45//10
f 36//10 35//10 47//10
f 46//10 45//10 37//10
f 43//7 42//7 51//7
f 41//7 40//7 49//7
f 34//7 33//7 49//7
f 49//7 50//7 41//7
f 51//7 52//7 43//7
f 42//7 41//7 51//7
f 34//7 49//7 40//7
f 42//14 36//14 41//14
f 35//15 36//15 43//15
f 43//11 52//11 35//11
f 48//16 52//16 47//16
f 47//17 51//17 46//17
f 46//18 50//18 45//18
f 45//19 49//19 44//19
f 44//12 33//12 39//12
f 38//20 39//20 40//20
f 37//21 38//21 41//21
f 57//10 56//10 67//10
f 55//10 68//10 67//10
f 67//10 66//10 57//10
f 65//10 64//10 59//10
f 59//10 58//10 65//10
f 56//10 55//10 67//10
f 66//10 65//10 57//10
f 63//7 62//7 71//7
f 61//7 60//7 69//7
f 54//7 53//7 69//7
f 69//7 70//7 61//7
f 71//7 72//7 63//7
f 62//7 61//7 71//7
f 54//7 69//7 60//7
f 56//14 57//14 62//14
f 55//15 56//15 63//15
f 63//11 72//11 55//11
f 68//16 72//16 67//16
f 67//17 71//17 66//17
f 66//18 70//18 65//18
f 65//19 69//19 64//19
f 64//12 53//12 59//12
f 58//20 59//20 60//20
f 57//21 58//21 61//21
f 73//22 74//22 76//22
f 19//10 74//10 17//10
f 19//23 23//23 74//23
f 21//7 76//7 23//7
f 17//24 73//24 21//24
f 77//22 78//22 80//22
f 27//10 78//10 25//10
f 31//23 79//23 27//23
f 29//7 80//7 31//7
f 25//24 77//24 29//24
