# Blender v2.76 (sub 0) OBJ File: 'pumpjack_head.blend'
# www.blender.org
o Cube_Cube.001
v -0.250000 0.125000 2.000000
v -0.250000 0.875000 2.000000
v -0.250000 0.125000 -3.500000
v -0.250000 0.875000 -3.500000
v 0.250000 0.125000 2.000000
v 0.250000 0.875000 2.000000
v 0.250000 0.125000 -3.500000
v 0.250000 0.875000 -3.500000
v -0.250000 0.637500 1.950000
v -0.250000 0.637500 -3.450000
v -0.250000 0.175000 -3.450000
v -0.250000 0.175000 1.950000
v 0.250000 0.637500 -3.450000
v 0.250000 0.637500 1.950000
v 0.250000 0.175000 1.950000
v 0.250000 0.175000 -3.450000
v 0.250000 0.825000 -3.450000
v 0.250000 0.825000 1.950000
v 0.250000 0.737500 1.950000
v 0.250000 0.737500 -3.450000
v -0.250000 0.825000 1.950000
v -0.250000 0.825000 -3.450000
v -0.250000 0.737500 -3.450000
v -0.250000 0.737500 1.950000
v 0.200000 0.637500 -3.450000
v 0.200000 0.637500 1.950000
v 0.200000 0.175000 1.950000
v 0.200000 0.175000 -3.450000
v 0.200000 0.825000 -3.450000
v 0.200000 0.825000 1.950000
v 0.200000 0.737500 1.950000
v 0.200000 0.737500 -3.450000
v -0.200000 0.637500 1.950000
v -0.200000 0.637500 -3.450000
v -0.200000 0.175000 -3.450000
v -0.200000 0.175000 1.950000
v -0.200000 0.825000 1.950000
v -0.200000 0.825000 -3.450000
v -0.200000 0.737500 -3.450000
v -0.200000 0.737500 1.950000
v -0.375000 -1.264213 2.164214
v 0.375000 -1.264213 2.164214
v -0.375000 -0.615367 2.597759
v 0.375000 -0.615367 2.597759
v -0.375000 0.150000 2.750000
v 0.375000 0.150000 2.750000
v -0.375000 0.915367 2.597759
v 0.375000 0.915367 2.597759
v -0.375000 1.564213 2.164214
v 0.375000 1.564213 2.164214
v -0.375000 0.875000 2.000000
v 0.375000 0.875000 2.000000
v -0.375000 0.125000 2.000000
v 0.375000 0.125000 2.000000
v -0.375000 -0.815367 2.247759
v 0.375000 -0.815367 2.247759
v -0.375000 -0.050000 2.450000
v 0.375000 -0.050000 2.500000
v -0.375000 -0.050000 2.150000
v 0.375000 -0.050000 2.150000
v -0.375000 0.100000 2.500000
v 0.375000 0.100000 2.500000
v -0.375000 0.100000 2.150000
v 0.375000 0.100000 2.150000
v -0.375000 0.550000 2.450000
v 0.375000 0.550000 2.450000
v -0.375000 0.550000 2.150000
v 0.375000 0.550000 2.150000
v -0.375000 0.700000 2.400000
v 0.375000 0.700000 2.400000
v -0.375000 1.165367 2.247759
v 0.375000 1.165367 2.247759
v -0.375000 0.700000 2.150000
v 0.375000 0.700000 2.150000
v 0.325000 -0.815367 2.247759
v 0.325000 -0.050000 2.150000
v 0.325000 -0.050000 2.500000
v 0.325000 0.100000 2.150000
v 0.325000 0.550000 2.150000
v 0.325000 0.550000 2.450000
v 0.325000 0.100000 2.500000
v 0.325000 0.700000 2.400000
v 0.325000 0.700000 2.150000
v 0.325000 1.165367 2.247759
v -0.325000 -0.050000 2.450000
v -0.325000 -0.050000 2.150000
v -0.325000 -0.815367 2.247759
v -0.325000 0.100000 2.150000
v -0.325000 0.100000 2.500000
v -0.325000 0.550000 2.450000
v -0.325000 0.550000 2.150000
v -0.325000 1.165367 2.247759
v -0.325000 0.700000 2.150000
v -0.325000 0.700000 2.400000
v -0.375000 0.000000 -2.750000
v -0.375000 1.000000 -2.750000
v -0.375000 0.000000 -3.250000
v -0.375000 1.000000 -3.250000
v 0.375000 0.000000 -2.750000
v 0.375000 1.000000 -2.750000
v 0.375000 0.000000 -3.250000
v 0.375000 1.000000 -3.250000
v -0.625000 -0.125000 -2.875000
v -0.625000 0.125000 -2.875000
v -0.625000 -0.125000 -3.125000
v -0.625000 0.125000 -3.125000
v 0.625000 -0.125000 -2.875000
v 0.625000 0.125000 -2.875000
v 0.625000 -0.125000 -3.125000
v 0.625000 0.125000 -3.125000
vn 0.000000 -1.000000 0.000000
vn 0.000000 1.000000 0.000000
vn -1.000000 -0.000000 0.000000
vn 1.000000 0.000000 0.000000
vn 0.000000 0.000000 -1.000000
vn 0.000000 0.000000 1.000000
vn 0.000000 -0.555600 0.831500
vn 0.000000 -0.195100 0.980800
vn 0.000000 0.195100 0.980800
vn 0.000000 0.555600 0.831500
vn 0.000000 0.231800 -0.972800
vn 0.000000 -0.117400 -0.993100
vn -0.000000 0.313000 -0.949800
vn 0.000000 0.126700 0.991900
vn 0.000000 -0.110400 -0.993900
vn 0.000000 -0.205600 0.978600
vn 0.000000 -0.310900 -0.950400
vn 0.000000 0.255500 -0.966800
s off
f 3//1 7//1 5//1
f 8//2 4//2 2//2
f 12//3 11//3 3//3
f 7//4 8//4 13//4
f 16//4 15//4 5//4
f 19//4 6//4 14//4
f 18//4 17//4 8//4
f 19//4 14//4 13//4
f 2//3 24//3 9//3
f 23//3 4//3 10//3
f 22//3 21//3 2//3
f 9//3 24//3 23//3
f 8//5 7//5 3//5
f 26//4 27//4 28//4
f 26//1 25//1 13//1
f 27//5 26//5 14//5
f 28//2 27//2 15//2
f 25//6 28//6 16//6
f 30//4 31//4 32//4
f 30//1 29//1 17//1
f 31//5 30//5 18//5
f 32//2 31//2 19//2
f 29//6 32//6 20//6
f 34//3 35//3 36//3
f 34//1 33//1 9//1
f 35//6 34//6 10//6
f 36//2 35//2 11//2
f 33//5 36//5 12//5
f 38//3 39//3 40//3
f 38//1 37//1 21//1
f 39//6 38//6 22//6
f 40//2 39//2 23//2
f 37//5 40//5 24//5
f 41//7 42//7 44//7
f 44//8 46//8 45//8
f 46//9 48//9 47//9
f 48//10 50//10 49//10
f 49//11 50//11 2//11
f 1//12 41//12 53//12
f 54//5 5//5 6//5
f 1//5 53//5 51//5
f 75//13 77//13 58//13
f 77//1 76//1 60//1
f 76//14 75//14 56//14
f 75//4 76//4 77//4
f 68//4 74//4 70//4
f 64//4 62//4 58//4
f 67//3 65//3 69//3
f 57//3 61//3 63//3
f 51//3 73//3 71//3
f 53//3 67//3 51//3
f 63//3 53//3 59//3
f 53//3 41//3 55//3
f 43//3 55//3 41//3
f 55//3 43//3 57//3
f 45//3 61//3 57//3
f 65//3 61//3 45//3
f 65//3 47//3 69//3
f 71//3 69//3 47//3
f 52//4 50//4 72//4
f 68//4 64//4 54//4
f 64//4 60//4 54//4
f 54//4 60//4 56//4
f 42//4 56//4 44//4
f 56//4 58//4 44//4
f 46//4 44//4 58//4
f 46//4 62//4 66//4
f 66//4 70//4 48//4
f 48//4 70//4 72//4
f 78//4 79//4 80//4
f 79//6 78//6 64//6
f 80//1 79//1 68//1
f 81//15 80//15 66//15
f 78//2 81//2 62//2
f 82//4 83//4 84//4
f 83//2 82//2 70//2
f 72//16 84//16 83//16
f 82//17 84//17 72//17
f 85//3 86//3 87//3
f 86//1 85//1 57//1
f 87//14 86//14 59//14
f 85//18 87//18 55//18
f 88//3 89//3 90//3
f 89//2 88//2 63//2
f 90//15 89//15 61//15
f 91//1 90//1 65//1
f 88//6 91//6 67//6
f 92//3 93//3 94//3
f 73//16 93//16 92//16
f 94//2 93//2 73//2
f 92//17 94//17 69//17
f 98//3 97//3 95//3
f 102//5 101//5 97//5
f 100//4 99//4 101//4
f 96//6 95//6 99//6
f 97//1 101//1 99//1
f 102//2 98//2 96//2
f 106//3 105//3 103//3
f 110//5 109//5 105//5
f 108//4 107//4 109//4
f 104//6 103//6 107//6
f 105//1 109//1 107//1
f 110//2 106//2 104//2
f 1//1 3//1 5//1
f 6//2 8//2 2//2
f 1//3 12//3 3//3
f 20//4 13//4 8//4
f 16//4 7//4 13//4
f 8//4 17//4 20//4
f 7//4 16//4 5//4
f 15//4 14//4 5//4
f 19//4 18//4 6//4
f 6//4 5//4 14//4
f 6//4 18//4 8//4
f 20//4 19//4 13//4
f 9//3 12//3 1//3
f 1//3 2//3 9//3
f 21//3 24//3 2//3
f 11//3 10//3 3//3
f 23//3 22//3 4//3
f 4//3 3//3 10//3
f 4//3 22//3 2//3
f 10//3 9//3 23//3
f 4//5 8//5 3//5
f 25//4 26//4 28//4
f 14//1 26//1 13//1
f 15//5 27//5 14//5
f 16//2 28//2 15//2
f 13//6 25//6 16//6
f 29//4 30//4 32//4
f 18//1 30//1 17//1
f 19//5 31//5 18//5
f 20//2 32//2 19//2
f 17//6 29//6 20//6
f 33//3 34//3 36//3
f 10//1 34//1 9//1
f 11//6 35//6 10//6
f 12//2 36//2 11//2
f 9//5 33//5 12//5
f 37//3 38//3 40//3
f 22//1 38//1 21//1
f 23//6 39//6 22//6
f 24//2 40//2 23//2
f 21//5 37//5 24//5
f 43//7 41//7 44//7
f 43//8 44//8 45//8
f 45//9 46//9 47//9
f 47//10 48//10 49//10
f 6//11 2//11 50//11
f 51//11 49//11 2//11
f 50//11 52//11 6//11
f 53//6 5//6 1//6
f 1//12 54//12 42//12
f 42//12 41//12 1//12
f 54//6 1//6 5//6
f 6//5 52//5 54//5
f 51//5 2//5 1//5
f 1//6 5//6 53//6
f 56//13 75//13 58//13
f 58//1 77//1 60//1
f 60//14 76//14 56//14
f 66//4 68//4 70//4
f 60//4 64//4 58//4
f 73//3 67//3 69//3
f 59//3 57//3 63//3
f 49//3 51//3 71//3
f 73//3 51//3 67//3
f 53//3 63//3 67//3
f 59//3 53//3 55//3
f 43//3 45//3 57//3
f 47//3 65//3 45//3
f 49//3 71//3 47//3
f 74//4 52//4 72//4
f 54//4 52//4 68//4
f 74//4 68//4 52//4
f 42//4 54//4 56//4
f 62//4 46//4 58//4
f 48//4 46//4 66//4
f 50//4 48//4 72//4
f 81//4 78//4 80//4
f 68//6 79//6 64//6
f 66//1 80//1 68//1
f 62//15 81//15 66//15
f 64//2 78//2 62//2
f 74//2 83//2 70//2
f 74//16 72//16 83//16
f 70//17 82//17 72//17
f 59//1 86//1 57//1
f 55//14 87//14 59//14
f 57//18 85//18 55//18
f 91//3 88//3 90//3
f 61//2 89//2 63//2
f 65//15 90//15 61//15
f 67//1 91//1 65//1
f 63//6 88//6 67//6
f 71//16 73//16 92//16
f 69//2 94//2 73//2
f 71//17 92//17 69//17
f 96//3 98//3 95//3
f 98//5 102//5 97//5
f 102//4 100//4 101//4
f 100//6 96//6 99//6
f 95//1 97//1 99//1
f 100//2 102//2 96//2
f 104//3 106//3 103//3
f 106//5 110//5 105//5
f 110//4 108//4 109//4
f 108//6 104//6 107//6
f 103//1 105//1 107//1
f 108//2 110//2 104//2
