# Blender v2.76 (sub 0) OBJ File: 'pumpjack_base.blend'
# www.blender.org
o Plane
v -1.500000 0.000000 0.500000
v 1.500000 0.000000 0.500000
v -1.500000 0.000000 -6.500000
v 1.500000 0.000000 -6.500000
v 0.000000 0.000000 -0.100000
v 0.000000 0.500000 -0.100000
v 0.070711 0.000000 -0.070711
v 0.070711 0.500000 -0.070711
v 0.100000 0.000000 0.000000
v 0.100000 0.500000 0.000000
v 0.070711 0.000000 0.070711
v 0.070711 0.500000 0.070711
v -0.000000 0.000000 0.100000
v -0.000000 0.500000 0.100000
v -0.070711 0.000000 0.070711
v -0.070711 0.500000 0.070711
v -0.100000 0.000000 -0.000000
v -0.100000 0.500000 -0.000000
v -0.070711 0.000000 -0.070711
v -0.070711 0.500000 -0.070711
v -1.000000 0.000000 -0.500000
v -1.000000 0.150000 -0.500000
v -1.000000 0.000000 -6.500000
v -1.000000 0.150000 -6.500000
v 1.000000 0.000000 -0.500000
v 1.000000 0.150000 -0.500000
v 1.000000 0.000000 -6.500000
v 1.000000 0.150000 -6.500000
v -0.750000 0.150000 -1.000000
v -0.750000 0.500000 -1.000000
v -0.750000 0.150000 -4.000000
v -0.750000 0.500000 -4.000000
v 0.750000 0.150000 -1.000000
v 0.750000 0.500000 -1.000000
v 0.750000 0.150000 -4.000000
v 0.750000 0.500000 -4.000000
v -0.500000 4.000000 -2.125000
v -0.500000 4.000000 -2.875000
v 0.500000 4.000000 -2.125000
v 0.500000 4.000000 -2.875000
v 0.250000 3.250000 -2.125000
v 0.500000 3.250000 -2.125000
v 0.250000 3.250000 -2.375000
v 0.500000 3.250000 -2.375000
v 0.500000 0.500000 -1.625000
v 0.750000 0.500000 -1.625000
v 0.500000 0.500000 -1.875000
v 0.750000 0.500000 -1.875000
v 0.250000 3.250000 -2.625000
v 0.500000 3.250000 -2.625000
v 0.250000 3.250000 -2.875000
v 0.500000 3.250000 -2.875000
v -0.500000 3.250000 -2.125000
v -0.250000 3.250000 -2.125000
v -0.500000 3.250000 -2.375000
v -0.250000 3.250000 -2.375000
v -0.500000 3.250000 -2.625000
v -0.250000 3.250000 -2.625000
v -0.500000 3.250000 -2.875000
v -0.250000 3.250000 -2.875000
v 0.500000 0.500000 -3.125000
v 0.750000 0.500000 -3.125000
v 0.500000 0.500000 -3.375000
v 0.750000 0.500000 -3.375000
v -0.750000 0.500000 -1.625000
v -0.500000 0.500000 -1.625000
v -0.750000 0.500000 -1.875000
v -0.500000 0.500000 -1.875000
v -0.750000 0.500000 -3.125000
v -0.500000 0.500000 -3.125000
v -0.750000 0.500000 -3.375000
v -0.500000 0.500000 -3.375000
v 0.625000 1.875000 -2.875000
v 0.625000 1.875000 -3.125000
v 0.375000 1.875000 -3.125000
v 0.375000 1.875000 -2.875000
v 0.625000 1.875000 -1.875000
v 0.625000 1.875000 -2.125000
v 0.375000 1.875000 -1.875000
v 0.375000 1.875000 -2.125000
v 0.562500 2.562500 -2.000000
v 0.562500 2.562500 -2.250000
v 0.312500 2.562500 -2.000000
v 0.312500 2.562500 -2.250000
v 0.562500 2.562500 -2.750000
v 0.562500 2.562500 -3.000000
v 0.312500 2.562500 -3.000000
v 0.312500 2.562500 -2.750000
v 0.687500 1.187500 -1.750000
v 0.687500 1.187500 -2.000000
v 0.437500 1.187500 -1.750000
v 0.437500 1.187500 -2.000000
v 0.687500 1.187500 -3.000000
v 0.687500 1.187500 -3.250000
v 0.437500 1.187500 -3.250000
v 0.437500 1.187500 -3.000000
v -0.625000 1.875000 -3.125000
v -0.625000 1.875000 -2.875000
v -0.375000 1.875000 -3.125000
v -0.375000 1.875000 -2.875000
v -0.687500 1.187500 -3.250000
v -0.687500 1.187500 -3.000000
v -0.437500 1.187500 -3.250000
v -0.437500 1.187500 -3.000000
v -0.562500 2.562500 -3.000000
v -0.562500 2.562500 -2.750000
v -0.312500 2.562500 -3.000000
v -0.312500 2.562500 -2.750000
v -0.625000 1.875000 -2.125000
v -0.625000 1.875000 -1.875000
v -0.375000 1.875000 -1.875000
v -0.375000 1.875000 -2.125000
v -0.562500 2.562500 -2.250000
v -0.562500 2.562500 -2.000000
v -0.312500 2.562500 -2.000000
v -0.312500 2.562500 -2.250000
v -0.687500 1.187500 -2.000000
v -0.687500 1.187500 -1.750000
v -0.437500 1.187500 -1.750000
v -0.437500 1.187500 -2.000000
v -0.500000 1.500000 -6.500000
v 0.500000 1.500000 -6.500000
v -0.500000 1.000000 -6.366025
v 0.500000 1.000000 -6.366025
v -0.500000 0.633974 -6.000000
v 0.500000 0.633975 -6.000000
v -0.500000 0.500000 -5.500000
v 0.500000 0.500000 -5.500000
v -0.500000 0.633974 -5.000000
v 0.500000 0.633975 -5.000000
v -0.500000 1.000000 -4.633975
v 0.500000 1.000000 -4.633975
v -0.500000 1.500000 -4.500000
v 0.500000 1.500000 -4.500000
v -0.500000 2.000000 -4.633975
v 0.500000 2.000000 -4.633975
v -0.500000 2.366025 -5.000000
v 0.500000 2.366025 -5.000000
v -0.500000 2.500000 -5.500000
v 0.500000 2.500000 -5.500000
v -0.500000 2.366026 -6.000000
v 0.500000 2.366026 -6.000000
v -0.500000 2.000000 -6.366025
v 0.500000 2.000001 -6.366025
v -0.375000 1.500000 -6.500000
v 0.375000 1.500000 -6.500000
v -0.375000 1.500000 -4.500000
v 0.375000 1.500000 -4.500000
v -0.375000 0.150000 -6.500000
v 0.375000 0.150000 -6.500000
v -0.375000 0.150000 -4.250000
v 0.375000 0.150000 -4.250000
v -0.375000 1.150000 -4.250000
v 0.375000 1.150000 -4.250000
v -0.375000 1.000000 -6.366025
v 0.375000 1.000000 -6.366025
v -0.375000 0.633974 -6.000000
v 0.375000 0.633975 -6.000000
v -0.375000 0.500000 -5.500000
v 0.375000 0.500000 -5.500000
v -0.375000 0.633974 -5.000000
v 0.375000 0.633975 -5.000000
v -0.375000 1.000000 -4.633975
v 0.375000 1.000000 -4.633975
v 0.000000 0.400000 -1.000000
v 0.000000 0.400000 0.150000
v 0.035355 0.385355 -1.000000
v 0.035355 0.385355 0.150000
v 0.050000 0.350000 -1.000000
v 0.050000 0.350000 0.150000
v 0.035355 0.314645 -1.000000
v 0.035355 0.314645 0.150000
v -0.000000 0.300000 -1.000000
v -0.000000 0.300000 0.150000
v -0.035355 0.314645 -1.000000
v -0.035355 0.314645 0.150000
v -0.050000 0.350000 -1.000000
v -0.050000 0.350000 0.150000
v -0.035355 0.385355 -1.000000
v -0.035355 0.385355 0.150000
v 0.150000 0.350000 0.000000
v 0.150000 0.335355 -0.035355
v 0.150000 0.300000 -0.050000
v 0.150000 0.264645 -0.035355
v 0.150000 0.250000 0.000000
v 0.150000 0.264645 0.035355
v 0.150000 0.300000 0.050000
v 0.150000 0.335355 0.035355
v 0.070000 0.335355 -0.035355
v 0.070000 0.350000 -0.000000
v 0.070000 0.300000 -0.050000
v 0.070000 0.264645 -0.035355
v 0.070000 0.250000 -0.000000
v 0.070000 0.264645 0.035355
v 0.070000 0.300000 0.050000
v 0.070000 0.335355 0.035355
v -0.025000 0.500000 0.000000
v 0.025000 0.500000 0.000000
v -0.025000 3.500000 -0.000000
v 0.025000 3.500000 -0.000000
v 0.750000 0.343750 -1.843750
v 0.750000 0.656250 -1.843750
v 0.750000 0.343750 -2.156250
v 0.750000 0.656250 -2.156250
v 1.500000 0.343750 -1.843750
v 1.500000 0.656250 -1.843750
v 1.500000 0.343750 -2.156250
v 1.500000 0.656250 -2.156250
v 0.750000 0.343750 -2.843750
v 0.750000 0.656250 -2.843750
v 0.750000 0.343750 -3.156250
v 0.750000 0.656250 -3.156250
v 1.500000 0.343750 -2.843750
v 1.500000 0.656250 -2.843750
v 1.500000 0.343750 -3.156250
v 1.500000 0.656250 -3.156250
v -1.500000 0.343750 -2.843750
v -1.500000 0.656250 -2.843750
v -1.500000 0.343750 -3.156250
v -1.500000 0.656250 -3.156250
v -0.750000 0.343750 -2.843750
v -0.750000 0.656250 -2.843750
v -0.750000 0.343750 -3.156250
v -0.750000 0.656250 -3.156250
v -1.500000 0.343750 -1.843750
v -1.500000 0.656250 -1.843750
v -1.500000 0.343750 -2.156250
v -1.500000 0.656250 -2.156250
v -0.750000 0.343750 -1.843750
v -0.750000 0.656250 -1.843750
v -0.750000 0.343750 -2.156250
v -0.750000 0.656250 -2.156250
vn 0.000000 1.000000 0.000000
vn 0.382700 0.000000 -0.923900
vn 0.923900 0.000000 -0.382700
vn 0.923900 0.000000 0.382700
vn 0.382700 0.000000 0.923900
vn -0.382700 0.000000 0.923900
vn -0.923900 0.000000 0.382700
vn -0.382700 0.000000 -0.923900
vn -0.923900 0.000000 -0.382700
vn 0.000000 -1.000000 0.000000
vn -1.000000 0.000000 0.000000
vn 1.000000 0.000000 0.000000
vn 0.000000 0.000000 1.000000
vn 0.000000 0.000000 -1.000000
vn 0.995900 0.090500 0.000000
vn 0.000000 0.178900 0.983900
vn 0.000000 0.178900 -0.983900
vn 0.000000 -0.178900 -0.983900
vn -0.995900 -0.090500 0.000000
vn 0.000000 -0.178900 0.983900
vn -0.995900 0.090500 0.000000
vn 0.995900 -0.090500 0.000000
vn 0.000000 -0.853300 0.521500
vn 0.000000 0.786300 0.617800
vn 0.000000 0.672700 -0.739900
vn 0.000000 -0.672700 -0.739900
vn 0.000000 -0.786300 0.617800
vn 0.000000 -0.853300 -0.521500
vn 0.707100 -0.707100 0.000000
vn 0.645900 0.763400 0.000000
vn 0.591400 -0.806400 0.000000
vn -0.591400 -0.806400 0.000000
vn 0.645900 -0.763400 0.000000
vn 0.707100 0.707100 0.000000
vn 0.000000 -0.786300 -0.617800
vn 0.000000 0.786300 -0.617800
vn -0.645900 0.763400 0.000000
vn -0.707100 -0.707100 0.000000
vn -0.707100 0.707100 0.000000
vn -0.645900 -0.763400 0.000000
vn 0.000000 0.258800 -0.965900
vn 0.000000 0.707100 0.707100
vn 0.000000 0.965900 0.258800
vn 0.000000 0.965900 -0.258800
vn 0.000000 0.258800 0.965900
vn -0.000000 0.707100 -0.707100
vn 0.000000 -0.258800 -0.965900
vn 0.000000 -0.707100 -0.707100
vn 0.000000 -0.965900 -0.258800
vn 0.000000 -0.965900 0.258800
vn 0.000000 -0.707100 0.707100
vn 0.000000 -0.258800 0.965900
vn -0.000000 0.581200 0.813700
vn 0.382700 0.923900 -0.000000
vn 0.923900 0.382700 0.000000
vn 0.923900 -0.382700 0.000000
vn 0.382700 -0.923900 0.000000
vn -0.382700 -0.923900 0.000000
vn -0.923900 -0.382700 0.000000
vn -0.382700 0.923900 -0.000000
vn -0.923900 0.382700 -0.000000
vn -0.000000 -0.382700 0.923900
vn 0.000000 -0.923900 -0.382700
vn 0.000000 0.382700 -0.923900
vn -0.000000 0.382700 0.923900
vn -0.000000 -0.923900 0.382700
vn 0.000000 -0.382700 -0.923900
vn 0.000000 0.923900 -0.382700
vn -0.000000 0.923900 0.382700
s off
f 2//1 4//1 3//1
f 6//2 8//2 7//2
f 8//3 10//3 9//3
f 10//4 12//4 11//4
f 12//5 14//5 13//5
f 14//6 16//6 15//6
f 16//7 18//7 17//7
f 18//1 14//1 6//1
f 20//8 6//8 5//8
f 18//9 20//9 19//9
f 11//10 15//10 19//10
f 24//11 23//11 21//11
f 26//12 25//12 27//12
f 22//13 21//13 25//13
f 33//12 35//12 48//12
f 36//14 35//14 31//14
f 30//13 29//13 33//13
f 60//10 51//10 49//10
f 50//10 44//10 43//10
f 58//10 56//10 55//10
f 56//10 43//10 41//10
f 46//1 48//1 47//1
f 40//1 38//1 37//1
f 49//10 43//10 56//10
f 50//12 39//12 44//12
f 60//14 38//14 51//14
f 57//11 55//11 38//11
f 41//13 39//13 54//13
f 62//1 64//1 63//1
f 66//1 68//1 67//1
f 70//1 72//1 71//1
f 89//15 46//15 48//15
f 89//16 91//16 45//16
f 94//15 93//15 62//15
f 94//17 64//17 63//17
f 90//18 48//18 47//18
f 91//19 92//19 47//19
f 93//20 96//20 61//20
f 95//19 63//19 61//19
f 101//21 71//21 69//21
f 118//21 117//21 67//21
f 118//16 65//16 66//16
f 117//18 120//18 68//18
f 119//22 66//22 68//22
f 101//17 103//17 72//17
f 102//20 69//20 70//20
f 103//22 104//22 70//22
f 68//1 66//1 45//1
f 72//1 70//1 61//1
f 31//11 29//11 69//11
f 72//1 63//1 36//1
f 45//1 66//1 30//1
f 47//1 48//1 61//1
f 87//19 75//19 76//19
f 85//20 88//20 76//20
f 86//17 74//17 75//17
f 86//15 85//15 73//15
f 83//19 84//19 80//19
f 82//18 78//18 80//18
f 81//16 83//16 79//16
f 81//15 77//15 78//15
f 42//15 81//15 82//15
f 42//16 41//16 83//16
f 44//18 82//18 84//18
f 41//19 43//19 84//19
f 52//15 50//15 85//15
f 52//17 86//17 87//17
f 50//20 49//20 88//20
f 51//19 87//19 88//19
f 79//19 80//19 92//19
f 78//18 90//18 92//18
f 77//16 79//16 91//16
f 77//15 89//15 90//15
f 75//19 95//19 96//19
f 73//20 76//20 96//20
f 74//17 94//17 95//17
f 74//15 73//15 93//15
f 107//22 108//22 100//22
f 106//20 98//20 100//20
f 105//17 107//17 99//17
f 105//21 97//21 98//21
f 99//22 100//22 104//22
f 98//20 102//20 104//20
f 97//17 99//17 103//17
f 97//21 101//21 102//21
f 59//21 105//21 106//21
f 59//17 60//17 107//17
f 57//20 106//20 108//20
f 60//22 58//22 108//22
f 115//22 111//22 112//22
f 113//18 116//18 112//18
f 114//16 110//16 111//16
f 114//21 113//21 109//21
f 53//21 55//21 113//21
f 53//16 114//16 115//16
f 55//18 56//18 116//18
f 54//22 115//22 116//22
f 111//22 119//22 120//22
f 109//18 112//18 120//18
f 110//16 118//16 119//16
f 110//21 109//21 117//21
f 61//23 62//23 90//23
f 92//24 90//24 73//24
f 82//25 73//25 76//25
f 84//1 82//1 85//1
f 108//1 106//1 113//1
f 88//1 87//1 107//1
f 116//1 115//1 83//1
f 85//26 78//26 80//26
f 96//27 93//27 78//27
f 93//28 48//28 47//28
f 87//29 88//29 100//29
f 96//30 95//30 99//30
f 95//31 96//31 70//31
f 103//32 63//32 61//32
f 75//33 76//33 104//33
f 76//34 75//34 107//34
f 100//25 98//25 113//25
f 120//35 117//35 98//35
f 117//23 69//23 70//23
f 68//28 67//28 102//28
f 109//36 112//36 104//36
f 106//26 108//26 112//26
f 119//32 120//32 47//32
f 79//37 80//37 120//37
f 80//38 79//38 115//38
f 83//39 84//39 112//39
f 92//40 91//40 111//40
f 91//31 66//31 68//31
f 145//41 143//41 146//41
f 136//42 138//42 137//42
f 138//43 140//43 139//43
f 140//44 142//44 141//44
f 148//45 136//45 135//45
f 142//46 144//46 143//46
f 127//11 135//11 143//11
f 142//12 134//12 122//12
f 156//47 146//47 122//47
f 124//48 126//48 158//48
f 160//49 158//49 126//49
f 162//50 160//50 128//50
f 164//51 162//51 130//51
f 134//52 148//52 164//52
f 154//53 148//53 147//53
f 154//13 153//13 151//13
f 150//14 149//14 145//14
f 149//14 27//14 23//14
f 121//47 145//47 155//47
f 123//48 155//48 157//48
f 125//49 157//49 159//49
f 127//50 159//50 161//50
f 129//51 161//51 163//51
f 131//52 163//52 147//52
f 155//11 145//11 149//11
f 157//11 155//11 149//11
f 159//11 157//11 149//11
f 153//11 147//11 163//11
f 153//11 163//11 151//11
f 163//11 161//11 151//11
f 161//11 159//11 151//11
f 149//11 151//11 159//11
f 150//12 146//12 156//12
f 156//12 158//12 150//12
f 160//12 150//12 158//12
f 154//12 164//12 148//12
f 154//12 152//12 164//12
f 164//12 152//12 162//12
f 162//12 152//12 160//12
f 150//12 160//12 152//12
f 33//1 29//1 22//1
f 26//1 28//1 35//1
f 22//1 29//1 31//1
f 152//1 151//1 31//1
f 24//1 31//1 151//1
f 152//1 35//1 28//1
f 166//54 168//54 167//54
f 168//55 170//55 169//55
f 170//56 172//56 171//56
f 172//57 174//57 173//57
f 174//58 176//58 175//58
f 176//59 178//59 177//59
f 176//13 174//13 170//13
f 180//60 166//60 165//60
f 178//61 180//61 179//61
f 186//12 185//12 183//12
f 198//13 200//13 199//13
f 187//62 195//62 194//62
f 184//63 185//63 193//63
f 183//64 191//64 189//64
f 188//65 196//65 195//65
f 185//66 186//66 194//66
f 183//67 184//67 192//67
f 182//68 189//68 190//68
f 181//69 190//69 196//69
f 204//11 203//11 201//11
f 208//14 207//14 203//14
f 206//12 205//12 207//12
f 202//13 201//13 205//13
f 203//10 207//10 205//10
f 208//1 204//1 202//1
f 212//11 211//11 209//11
f 216//14 215//14 211//14
f 214//12 213//12 215//12
f 210//13 209//13 213//13
f 211//10 215//10 213//10
f 216//1 212//1 210//1
f 220//11 219//11 217//11
f 224//14 223//14 219//14
f 222//12 221//12 223//12
f 218//13 217//13 221//13
f 219//10 223//10 221//10
f 224//1 220//1 218//1
f 228//11 227//11 225//11
f 232//14 231//14 227//14
f 230//12 229//12 231//12
f 226//13 225//13 229//13
f 227//10 231//10 229//10
f 232//1 228//1 226//1
f 1//1 2//1 3//1
f 5//2 6//2 7//2
f 7//3 8//3 9//3
f 9//4 10//4 11//4
f 11//5 12//5 13//5
f 13//6 14//6 15//6
f 15//7 16//7 17//7
f 10//1 8//1 6//1
f 6//1 20//1 18//1
f 18//1 16//1 14//1
f 14//1 12//1 10//1
f 10//1 6//1 14//1
f 19//8 20//8 5//8
f 17//9 18//9 19//9
f 19//10 5//10 11//10
f 7//10 9//10 11//10
f 11//10 13//10 15//10
f 15//10 17//10 19//10
f 5//10 7//10 11//10
f 22//11 24//11 21//11
f 28//12 26//12 27//12
f 26//13 22//13 25//13
f 64//12 62//12 35//12
f 48//12 46//12 33//12
f 34//12 33//12 46//12
f 35//12 36//12 64//12
f 62//12 48//12 35//12
f 32//14 36//14 31//14
f 34//13 30//13 33//13
f 58//10 60//10 49//10
f 49//10 50//10 43//10
f 57//10 58//10 55//10
f 54//10 56//10 41//10
f 45//1 46//1 47//1
f 39//1 40//1 37//1
f 58//10 49//10 56//10
f 42//12 44//12 39//12
f 50//12 52//12 40//12
f 40//12 39//12 50//12
f 52//14 51//14 40//14
f 60//14 59//14 38//14
f 38//14 40//14 51//14
f 37//11 38//11 55//11
f 59//11 57//11 38//11
f 55//11 53//11 37//11
f 53//13 54//13 37//13
f 41//13 42//13 39//13
f 39//13 37//13 54//13
f 61//1 62//1 63//1
f 65//1 66//1 67//1
f 69//1 70//1 71//1
f 90//15 89//15 48//15
f 46//16 89//16 45//16
f 64//15 94//15 62//15
f 95//17 94//17 63//17
f 92//18 90//18 47//18
f 45//19 91//19 47//19
f 62//20 93//20 61//20
f 96//19 95//19 61//19
f 102//21 101//21 69//21
f 65//21 118//21 67//21
f 119//16 118//16 66//16
f 67//18 117//18 68//18
f 120//22 119//22 68//22
f 71//17 101//17 72//17
f 104//20 102//20 70//20
f 72//22 103//22 70//22
f 47//1 68//1 45//1
f 63//1 72//1 61//1
f 65//11 67//11 29//11
f 69//11 71//11 31//11
f 32//11 31//11 71//11
f 29//11 30//11 65//11
f 67//11 69//11 29//11
f 36//1 32//1 72//1
f 71//1 72//1 32//1
f 63//1 64//1 36//1
f 30//1 34//1 45//1
f 46//1 45//1 34//1
f 66//1 65//1 30//1
f 61//1 70//1 68//1
f 69//1 67//1 68//1
f 68//1 47//1 61//1
f 48//1 62//1 61//1
f 70//1 69//1 68//1
f 88//19 87//19 76//19
f 73//20 85//20 76//20
f 87//17 86//17 75//17
f 74//15 86//15 73//15
f 79//19 83//19 80//19
f 84//18 82//18 80//18
f 77//16 81//16 79//16
f 82//15 81//15 78//15
f 44//15 42//15 82//15
f 81//16 42//16 83//16
f 43//18 44//18 84//18
f 83//19 41//19 84//19
f 86//15 52//15 85//15
f 51//17 52//17 87//17
f 85//20 50//20 88//20
f 49//19 51//19 88//19
f 91//19 79//19 92//19
f 80//18 78//18 92//18
f 89//16 77//16 91//16
f 78//15 77//15 90//15
f 76//19 75//19 96//19
f 93//20 73//20 96//20
f 75//17 74//17 95//17
f 94//15 74//15 93//15
f 99//22 107//22 100//22
f 108//20 106//20 100//20
f 97//17 105//17 99//17
f 106//21 105//21 98//21
f 103//22 99//22 104//22
f 100//20 98//20 104//20
f 101//17 97//17 103//17
f 98//21 97//21 102//21
f 57//21 59//21 106//21
f 105//17 59//17 107//17
f 58//20 57//20 108//20
f 107//22 60//22 108//22
f 116//22 115//22 112//22
f 109//18 113//18 112//18
f 115//16 114//16 111//16
f 110//21 114//21 109//21
f 114//21 53//21 113//21
f 54//16 53//16 115//16
f 113//18 55//18 116//18
f 56//22 54//22 116//22
f 112//22 111//22 120//22
f 117//18 109//18 120//18
f 111//16 110//16 119//16
f 118//21 110//21 117//21
f 92//23 61//23 90//23
f 76//24 92//24 73//24
f 84//25 82//25 76//25
f 88//1 84//1 85//1
f 116//1 108//1 113//1
f 108//1 88//1 107//1
f 84//1 116//1 83//1
f 88//26 85//26 80//26
f 80//27 96//27 78//27
f 96//28 93//28 47//28
f 99//29 87//29 100//29
f 100//30 96//30 99//30
f 72//31 95//31 70//31
f 104//32 103//32 61//32
f 103//33 75//33 104//33
f 108//34 76//34 107//34
f 116//25 100//25 113//25
f 100//35 120//35 98//35
f 120//23 117//23 70//23
f 104//28 68//28 102//28
f 102//36 109//36 104//36
f 109//26 106//26 112//26
f 45//32 119//32 47//32
f 119//37 79//37 120//37
f 116//38 80//38 115//38
f 111//39 83//39 112//39
f 112//40 92//40 111//40
f 92//31 91//31 68//31
f 122//41 146//41 144//41
f 145//41 121//41 143//41
f 143//41 144//41 146//41
f 135//42 136//42 137//42
f 137//43 138//43 139//43
f 139//44 140//44 141//44
f 135//45 133//45 147//45
f 148//45 134//45 136//45
f 135//45 147//45 148//45
f 141//46 142//46 143//46
f 143//11 121//11 127//11
f 123//11 125//11 127//11
f 127//11 129//11 131//11
f 131//11 133//11 127//11
f 135//11 137//11 139//11
f 139//11 141//11 143//11
f 121//11 123//11 127//11
f 127//11 133//11 135//11
f 135//11 139//11 143//11
f 126//12 124//12 122//12
f 122//12 144//12 142//12
f 142//12 140//12 134//12
f 138//12 136//12 134//12
f 134//12 132//12 130//12
f 130//12 128//12 126//12
f 126//12 122//12 134//12
f 140//12 138//12 134//12
f 134//12 130//12 126//12
f 124//47 156//47 122//47
f 156//48 124//48 158//48
f 128//49 160//49 126//49
f 130//50 162//50 128//50
f 132//51 164//51 130//51
f 132//52 134//52 164//52
f 153//53 154//53 147//53
f 152//13 154//13 151//13
f 146//14 150//14 145//14
f 23//14 24//14 149//14
f 149//14 150//14 27//14
f 28//14 27//14 150//14
f 123//47 121//47 155//47
f 125//48 123//48 157//48
f 127//49 125//49 159//49
f 129//50 127//50 161//50
f 131//51 129//51 163//51
f 133//52 131//52 147//52
f 26//1 33//1 22//1
f 33//1 26//1 35//1
f 24//1 22//1 31//1
f 35//1 152//1 31//1
f 149//1 24//1 151//1
f 150//1 152//1 28//1
f 165//54 166//54 167//54
f 167//55 168//55 169//55
f 169//56 170//56 171//56
f 171//57 172//57 173//57
f 173//58 174//58 175//58
f 175//59 176//59 177//59
f 170//13 168//13 166//13
f 166//13 180//13 170//13
f 178//13 176//13 170//13
f 174//13 172//13 170//13
f 170//13 180//13 178//13
f 179//60 180//60 165//60
f 177//61 178//61 179//61
f 183//12 182//12 181//12
f 181//12 188//12 183//12
f 187//12 186//12 183//12
f 185//12 184//12 183//12
f 183//12 188//12 187//12
f 197//13 198//13 199//13
f 186//62 187//62 194//62
f 192//63 184//63 193//63
f 182//64 183//64 189//64
f 187//65 188//65 195//65
f 193//66 185//66 194//66
f 191//67 183//67 192//67
f 181//68 182//68 190//68
f 188//69 181//69 196//69
f 202//11 204//11 201//11
f 204//14 208//14 203//14
f 208//12 206//12 207//12
f 206//13 202//13 205//13
f 201//10 203//10 205//10
f 206//1 208//1 202//1
f 210//11 212//11 209//11
f 212//14 216//14 211//14
f 216//12 214//12 215//12
f 214//13 210//13 213//13
f 209//10 211//10 213//10
f 214//1 216//1 210//1
f 218//11 220//11 217//11
f 220//14 224//14 219//14
f 224//12 222//12 223//12
f 222//13 218//13 221//13
f 217//10 219//10 221//10
f 222//1 224//1 218//1
f 226//11 228//11 225//11
f 228//14 232//14 227//14
f 232//12 230//12 231//12
f 230//13 226//13 229//13
f 225//10 227//10 229//10
f 230//1 232//1 226//1
