# Blender v2.76 (sub 0) OBJ File: 'pumpjack_rotor.blend'
# www.blender.org
o Cylinder
v -0.750000 -0.000000 -0.150000
v 0.750000 0.000000 -0.150000
v -0.750000 -0.106066 -0.106066
v 0.750000 -0.106066 -0.106066
v -0.750000 -0.150000 0.000000
v 0.750000 -0.150000 0.000000
v -0.750000 -0.106066 0.106066
v 0.750000 -0.106066 0.106066
v -0.750000 -0.000000 0.150000
v 0.750000 0.000000 0.150000
v -0.750000 0.106066 0.106066
v 0.750000 0.106066 0.106066
v -0.750000 0.150000 -0.000000
v 0.750000 0.150000 -0.000000
v -0.750000 0.106066 -0.106066
v 0.750000 0.106066 -0.106066
v 0.500000 -0.550000 0.200000
v 0.500000 0.900000 0.200000
v 0.500000 -0.550000 -0.200000
v 0.500000 0.900000 -0.200000
v 0.650000 -0.550000 0.200000
v 0.650000 0.900000 0.200000
v 0.650000 -0.550000 -0.200000
v 0.650000 0.900000 -0.200000
v -0.650000 -0.550000 0.200000
v -0.650000 0.900000 0.200000
v -0.650000 -0.550000 -0.200000
v -0.650000 0.900000 -0.200000
v -0.500000 -0.550000 0.200000
v -0.500000 0.900000 0.200000
v -0.500000 -0.550000 -0.200000
v -0.500000 0.900000 -0.200000
v 0.600000 0.546523 0.910660
v 0.600000 0.660660 0.910660
v 0.500000 0.660660 -0.910660
v 0.500000 0.985819 -0.574025
v 0.500000 1.100000 0.000000
v 0.500000 0.985819 0.574025
v 0.500000 0.660660 0.910660
v 0.600000 0.985819 0.574025
v 0.600000 1.100000 0.000000
v 0.600000 0.985819 -0.574025
v 0.600000 0.660660 -0.910660
v 0.500000 0.546523 0.910660
v 0.500000 0.321364 0.574025
v 0.500000 0.207183 0.000000
v 0.500000 0.321364 -0.574025
v 0.500000 0.546523 -0.910660
v 0.600000 0.321364 0.574025
v 0.600000 0.207183 0.000000
v 0.600000 0.321364 -0.574025
v 0.600000 0.546523 -0.910660
v -0.500000 0.546523 0.910660
v -0.500000 0.660660 0.910660
v -0.600000 0.660660 -0.910660
v -0.600000 0.985819 -0.574025
v -0.600000 1.100000 0.000000
v -0.600000 0.985819 0.574025
v -0.600000 0.660660 0.910660
v -0.500000 0.985819 0.574025
v -0.500000 1.100000 0.000000
v -0.500000 0.985819 -0.574025
v -0.500000 0.660660 -0.910660
v -0.600000 0.546523 0.910660
v -0.600000 0.321364 0.574025
v -0.600000 0.207183 0.000000
v -0.600000 0.321364 -0.574025
v -0.600000 0.546523 -0.910660
v -0.500000 0.321364 0.574025
v -0.500000 0.207183 0.000000
v -0.500000 0.321364 -0.574025
v -0.500000 0.546523 -0.910660
v 0.500000 -0.900000 0.090000
v 0.500000 -0.900000 -0.090000
v 0.650000 -0.900000 -0.090000
v 0.650000 -0.900000 0.090000
v -0.650000 -0.900000 0.090000
v -0.650000 -0.900000 -0.090000
v -0.500000 -0.900000 -0.090000
v -0.500000 -0.900000 0.090000
vt 0.502964 0.376131
vt 0.479656 0.376131
vt 0.479655 0.071595
vt 0.456348 0.376131
vt 0.456347 0.071595
vt 0.642813 0.376130
vt 0.619505 0.376130
vt 0.619505 0.071595
vt 0.596197 0.376130
vt 0.596197 0.071595
vt 0.572889 0.376130
vt 0.572889 0.071595
vt 0.549580 0.376130
vt 0.549580 0.071595
vt 0.603024 0.415920
vt 0.603024 0.392612
vt 0.526272 0.376131
vt 0.502964 0.071595
vt 0.526272 0.071595
vt 0.603024 0.055113
vt 0.603024 0.031805
vt 0.642814 0.015323
vt 0.015323 0.903467
vt 0.309708 0.903467
vt 0.309708 0.984677
vt 0.502774 0.842366
vt 0.797159 0.842366
vt 0.797159 0.872820
vt 0.502774 0.761157
vt 0.797159 0.761157
vt 0.502774 0.730703
vt 0.797159 0.730703
vt 0.472321 0.842366
vt 0.472321 0.761157
vt 0.045777 0.761156
vt 0.340162 0.761157
vt 0.340162 0.842366
vt 0.045777 0.730703
vt 0.340162 0.730703
vt 0.411414 0.903467
vt 0.705799 0.903467
vt 0.705799 0.984677
vt 0.045777 0.842366
vt 0.340162 0.872820
vt 0.015323 0.761156
vt 0.083668 0.676875
vt 0.083668 0.541974
vt 0.200209 0.518793
vt 0.220512 0.035236
vt 0.337053 0.058417
vt 0.220512 0.216499
vt 0.341014 0.213230
vt 0.224473 0.236411
vt 0.351158 0.207920
vt 0.337053 0.193318
vt 0.405398 0.127303
vt 0.405398 0.104130
vt 0.425700 0.104130
vt 0.425700 0.127303
vt 0.348340 0.041542
vt 0.224473 0.015323
vt 0.103971 0.058417
vt 0.100010 0.038505
vt 0.035626 0.104130
vt 0.024339 0.087254
vt 0.035626 0.127302
vt 0.015323 0.127302
vt 0.021521 0.141905
vt 0.103971 0.193317
vt 0.100010 0.213230
vt 0.103971 0.445052
vt 0.103971 0.310152
vt 0.220512 0.286970
vt 0.600628 0.518793
vt 0.717169 0.541974
vt 0.600628 0.700056
vt 0.224473 0.267058
vt 0.341014 0.290240
vt 0.337053 0.310152
vt 0.351158 0.295549
vt 0.419503 0.361564
vt 0.425700 0.399340
vt 0.405398 0.399340
vt 0.405398 0.376167
vt 0.416685 0.416215
vt 0.348340 0.461928
vt 0.337053 0.445052
vt 0.341014 0.464965
vt 0.224473 0.488146
vt 0.220512 0.468234
vt 0.216551 0.488146
vt 0.100010 0.464965
vt 0.092684 0.461928
vt 0.024339 0.416215
vt 0.035626 0.399339
vt 0.015323 0.399339
vt 0.015323 0.376167
vt 0.035626 0.376167
vt 0.021521 0.361564
vt 0.089866 0.295549
vt 0.100010 0.290239
vt 0.216551 0.267058
vt 0.898671 0.820034
vt 0.868217 0.820034
vt 0.868217 0.783489
vt 0.380767 0.925800
vt 0.380767 0.962344
vt 0.871645 0.842366
vt 0.871645 0.872820
vt 0.871644 0.730703
vt 0.871644 0.761157
vt 0.411220 0.783489
vt 0.441674 0.783489
vt 0.441674 0.820034
vt 0.411220 0.820034
vt 0.414647 0.730703
vt 0.414647 0.761157
vt 0.776857 0.925800
vt 0.776857 0.962344
vt 0.414647 0.842366
vt 0.414647 0.872820
vt 0.642814 0.071595
vt 0.659294 0.392612
vt 0.659294 0.415920
vt 0.642813 0.432401
vt 0.619505 0.432401
vt 0.659295 0.031805
vt 0.659295 0.055113
vt 0.619505 0.015323
vt 0.015323 0.984677
vt 0.502774 0.872820
vt 0.411414 0.984677
vt 0.045777 0.872819
vt 0.015323 0.842366
vt 0.316750 0.541974
vt 0.316750 0.676875
vt 0.385096 0.607989
vt 0.385096 0.631162
vt 0.200209 0.700056
vt 0.015323 0.631162
vt 0.015323 0.607989
vt 0.419503 0.141905
vt 0.416685 0.087254
vt 0.341014 0.038505
vt 0.216551 0.015323
vt 0.092684 0.041541
vt 0.015323 0.104130
vt 0.089866 0.207920
vt 0.216551 0.236411
vt 0.785515 0.610859
vt 0.717169 0.676875
vt 0.484087 0.676875
vt 0.484087 0.541974
vt 0.415742 0.610859
vt 0.415742 0.587687
vt 0.785515 0.587687
vt 0.425700 0.376167
vt 0.898671 0.783489
vn 0.000000 -0.382700 -0.923900
vn 0.000000 -0.923900 -0.382700
vn 0.000000 -0.923900 0.382700
vn 0.000000 -0.382700 0.923900
vn -0.000000 0.382700 0.923900
vn -0.000000 0.923900 0.382700
vn 1.000000 0.000000 0.000000
vn -0.000000 0.382700 -0.923900
vn -0.000000 0.923900 -0.382700
vn -1.000000 0.000000 0.000000
vn 0.000000 0.000000 -1.000000
vn 0.000000 0.000000 1.000000
vn 0.000000 1.000000 0.000000
vn 0.000000 0.980800 -0.195100
vn 0.000000 0.719300 -0.694700
vn -0.000000 -0.831200 -0.556000
vn 0.000000 -0.980800 -0.195100
vn 0.000000 -0.980800 0.195100
vn 0.000000 -0.831200 0.556000
vn 0.000000 0.719300 0.694700
vn 0.000000 0.980800 0.195100
vn 0.000000 -1.000000 0.000000
vn 0.000000 -0.299800 -0.954000
vn 0.000000 -0.299800 0.954000
s off
f 2/1/1 4/2/1 3/3/1
f 4/2/2 6/4/2 5/5/2
f 6/6/3 8/7/3 7/8/3
f 8/7/4 10/9/4 9/10/4
f 10/9/5 12/11/5 11/12/5
f 12/11/6 14/13/6 13/14/6
f 12/15/7 10/16/7 6/6/7
f 16/17/8 2/1/8 1/18/8
f 14/13/9 16/17/9 15/19/9
f 9/20/10 11/21/10 15/22/10
f 20/23/10 19/24/10 17/25/10
f 24/26/11 23/27/11 19/28/11
f 22/29/7 21/30/7 23/27/7
f 18/31/12 17/32/12 21/30/12
f 24/26/13 20/33/13 18/34/13
f 28/35/10 27/36/10 25/37/10
f 32/38/11 31/39/11 27/36/11
f 30/40/7 29/41/7 31/42/7
f 26/43/12 25/37/12 29/44/12
f 32/45/13 28/35/13 26/43/13
f 45/46/10 38/47/10 37/48/10
f 50/49/7 51/50/7 41/51/7
f 36/52/14 37/53/14 41/51/14
f 36/54/15 42/55/15 43/56/15
f 52/57/11 48/58/11 35/59/11
f 52/57/16 51/50/16 47/60/16
f 51/50/17 50/49/17 46/61/17
f 50/49/18 49/62/18 45/63/18
f 49/62/19 33/64/19 44/65/19
f 33/64/12 34/66/12 39/67/12
f 39/68/20 34/66/20 40/69/20
f 38/70/21 40/69/21 41/51/21
f 65/71/10 58/72/10 57/73/10
f 70/74/7 71/75/7 61/76/7
f 57/73/14 61/77/14 62/78/14
f 56/79/15 62/80/15 63/81/15
f 72/82/11 68/83/11 55/84/11
f 72/85/16 71/86/16 67/87/16
f 71/88/17 70/89/17 66/90/17
f 70/91/18 69/92/18 65/71/18
f 69/93/19 53/94/19 64/95/19
f 53/96/12 54/97/12 59/98/12
f 59/98/20 54/99/20 60/100/20
f 58/72/21 60/101/21 61/102/21
f 74/103/22 75/104/22 76/105/22
f 74/106/10 73/107/10 17/25/10
f 23/27/23 75/108/23 74/109/23
f 76/105/7 75/104/7 23/27/7
f 73/110/24 76/111/24 21/30/24
f 78/112/22 79/113/22 80/114/22
f 78/112/10 77/115/10 25/37/10
f 79/116/23 78/117/23 27/36/23
f 80/118/7 79/119/7 31/42/7
f 77/120/24 80/121/24 29/44/24
f 1/18/1 2/1/1 3/3/1
f 3/3/2 4/2/2 5/5/2
f 5/122/3 6/6/3 7/8/3
f 7/8/4 8/7/4 9/10/4
f 9/10/5 10/9/5 11/12/5
f 11/12/6 12/11/6 13/14/6
f 6/6/7 4/123/7 2/124/7
f 2/124/7 16/125/7 6/6/7
f 14/126/7 12/15/7 6/6/7
f 10/16/7 8/7/7 6/6/7
f 6/6/7 16/125/7 14/126/7
f 15/19/8 16/17/8 1/18/8
f 13/14/9 14/13/9 15/19/9
f 15/22/10 1/127/10 3/128/10
f 3/128/10 5/122/10 7/8/10
f 7/8/10 9/20/10 15/22/10
f 11/21/10 13/129/10 15/22/10
f 15/22/10 3/128/10 7/8/10
f 18/130/10 20/23/10 17/25/10
f 20/131/11 24/26/11 19/28/11
f 24/26/7 22/29/7 23/27/7
f 22/29/12 18/31/12 21/30/12
f 22/29/13 24/26/13 18/34/13
f 26/43/10 28/35/10 25/37/10
f 28/35/11 32/38/11 27/36/11
f 32/132/7 30/40/7 31/42/7
f 30/133/12 26/43/12 29/44/12
f 30/134/13 32/45/13 26/43/13
f 37/48/10 36/135/10 47/136/10
f 35/137/10 48/138/10 47/136/10
f 47/136/10 46/139/10 37/48/10
f 45/46/10 44/140/10 39/141/10
f 39/141/10 38/47/10 45/46/10
f 36/135/10 35/137/10 47/136/10
f 46/139/10 45/46/10 37/48/10
f 43/56/7 42/55/7 51/50/7
f 41/51/7 40/69/7 49/62/7
f 34/66/7 33/64/7 49/62/7
f 49/62/7 50/49/7 41/51/7
f 51/50/7 52/57/7 43/56/7
f 42/55/7 41/51/7 51/50/7
f 34/66/7 49/62/7 40/69/7
f 42/55/14 36/52/14 41/51/14
f 35/142/15 36/54/15 43/56/15
f 43/56/11 52/57/11 35/59/11
f 48/143/16 52/57/16 47/60/16
f 47/144/17 51/50/17 46/61/17
f 46/145/18 50/49/18 45/63/18
f 45/146/19 49/62/19 44/65/19
f 44/147/12 33/64/12 39/67/12
f 38/148/20 39/68/20 40/69/20
f 37/149/21 38/70/21 41/51/21
f 57/73/10 56/79/10 67/87/10
f 55/84/10 68/83/10 67/87/10
f 67/87/10 66/90/10 57/73/10
f 65/71/10 64/95/10 59/98/10
f 59/98/10 58/72/10 65/71/10
f 56/79/10 55/84/10 67/87/10
f 66/90/10 65/71/10 57/73/10
f 63/150/7 62/151/7 71/75/7
f 61/76/7 60/152/7 69/153/7
f 54/154/7 53/155/7 69/153/7
f 69/153/7 70/74/7 61/76/7
f 71/75/7 72/156/7 63/150/7
f 62/151/7 61/76/7 71/75/7
f 54/154/7 69/153/7 60/152/7
f 56/79/14 57/73/14 62/78/14
f 55/84/15 56/79/15 63/81/15
f 63/157/11 72/82/11 55/84/11
f 68/83/16 72/85/16 67/87/16
f 67/87/17 71/88/17 66/90/17
f 66/90/18 70/91/18 65/71/18
f 65/71/19 69/93/19 64/95/19
f 64/95/12 53/96/12 59/98/12
f 58/72/20 59/98/20 60/100/20
f 57/73/21 58/72/21 61/102/21
f 73/158/22 74/103/22 76/105/22
f 19/24/10 74/106/10 17/25/10
f 19/28/23 23/27/23 74/109/23
f 21/30/7 76/105/7 23/27/7
f 17/32/24 73/110/24 21/30/24
f 77/115/22 78/112/22 80/114/22
f 27/36/10 78/112/10 25/37/10
f 31/39/23 79/116/23 27/36/23
f 29/41/7 80/118/7 31/42/7
f 25/37/24 77/120/24 29/44/24
