# Blender v2.76 (sub 0) OBJ File: 'rad_gen_rotor.blend'
# www.blender.org
o Plane.021
v -0.046985 -0.081380 1.434202
v 0.046985 0.081380 1.365798
v -0.913010 0.418620 1.434202
v -0.819041 0.581380 1.365798
v -0.066446 -0.066446 1.434202
v 0.066446 0.066446 1.365798
v -0.773553 0.640660 1.434202
v -0.640661 0.773553 1.365798
v -0.090767 -0.024321 1.434202
v 0.090767 0.024321 1.365798
v -0.349586 0.941605 1.434202
v -0.168052 0.990247 1.365798
v -0.081380 -0.046985 1.434202
v 0.081380 0.046985 1.365798
v -0.581380 0.819041 1.434202
v -0.418620 0.913010 1.365798
v -0.000000 -0.093969 1.434202
v 0.000000 0.093969 1.365798
v -1.000000 -0.093969 1.434202
v -1.000000 0.093970 1.365798
v -0.024321 -0.090767 1.434202
v 0.024321 0.090767 1.365798
v -0.990247 0.168052 1.434202
v -0.941605 0.349586 1.365798
v 0.024321 -0.090767 1.434202
v -0.024321 0.090767 1.365798
v -0.941605 -0.349587 1.434202
v -0.990247 -0.168052 1.365798
v 0.046985 -0.081380 1.434202
v -0.046985 0.081380 1.365798
v -0.819041 -0.581380 1.434202
v -0.913010 -0.418620 1.365798
v 0.046985 0.081380 1.434202
v -0.046985 -0.081380 1.365798
v 0.913010 -0.418620 1.434202
v 0.819041 -0.581380 1.365798
v 0.066446 0.066446 1.434202
v -0.066446 -0.066446 1.365798
v 0.773553 -0.640660 1.434202
v 0.640661 -0.773553 1.365798
v 0.090767 0.024321 1.434202
v -0.090767 -0.024321 1.365798
v 0.349586 -0.941605 1.434202
v 0.168052 -0.990247 1.365798
v 0.081380 0.046985 1.434202
v -0.081380 -0.046985 1.365798
v 0.581380 -0.819041 1.434202
v 0.418620 -0.913010 1.365798
v 0.081380 -0.046985 1.434202
v -0.081380 0.046985 1.365798
v -0.418620 -0.913010 1.434202
v -0.581380 -0.819041 1.365798
v 0.066446 -0.066446 1.434202
v -0.066446 0.066446 1.365798
v -0.640661 -0.773553 1.434202
v -0.773553 -0.640660 1.365798
v 0.090767 -0.024321 1.434202
v -0.090767 0.024321 1.365798
v -0.168052 -0.990247 1.434202
v -0.349586 -0.941605 1.365798
v 0.093969 0.000000 1.434202
v -0.093969 -0.000000 1.365798
v 0.093969 -1.000000 1.434202
v -0.093969 -1.000000 1.365798
v -0.046985 0.081380 1.434202
v 0.046985 -0.081380 1.365798
v 0.819041 0.581380 1.434202
v 0.913010 0.418620 1.365798
v -0.024321 0.090767 1.434202
v 0.024321 -0.090767 1.365798
v 0.941605 0.349586 1.434202
v 0.990247 0.168052 1.365798
v 0.024321 0.090767 1.434202
v -0.024321 -0.090767 1.365798
v 0.990247 -0.168052 1.434202
v 0.941605 -0.349587 1.365798
v -0.000000 0.093969 1.434202
v -0.000000 -0.093969 1.365798
v 1.000000 0.093969 1.434202
v 1.000000 -0.093969 1.365798
v -0.081380 0.046985 1.434202
v 0.081380 -0.046985 1.365798
v 0.418620 0.913010 1.434202
v 0.581380 0.819041 1.365798
v -0.066446 0.066446 1.434202
v 0.066446 -0.066446 1.365798
v 0.640661 0.773553 1.434202
v 0.773553 0.640660 1.365798
v -0.090767 0.024321 1.434202
v 0.090767 -0.024321 1.365798
v 0.168052 0.990247 1.434202
v 0.349586 0.941605 1.365798
v -0.093969 -0.000000 1.434202
v 0.093969 -0.000000 1.365798
v -0.093969 1.000000 1.434202
v 0.093969 1.000000 1.365798
vt 0.999999 0.250000
vt 0.999999 0.666666
vt 0.916666 0.666666
vt 0.000000 0.083334
vt 0.416666 0.083333
vt 0.416666 0.166667
vt 0.000000 0.833334
vt 0.416666 0.833334
vt 0.416666 0.916667
vt 0.416666 0.750000
vt 0.833332 0.750000
vt 0.416666 0.583334
vt 0.416666 0.666667
vt 0.000000 0.666667
vt 0.416666 1.000000
vt 0.000000 1.000000
vt 0.916666 0.500000
vt 0.916666 0.583333
vt 0.500000 0.583333
vt 0.000000 0.750000
vt 0.416666 0.250000
vt 0.499999 0.250000
vt 0.000000 0.250000
vt 0.000000 0.166667
vt 0.833333 0.166667
vt 0.916666 0.333334
vt 0.500000 0.333334
vt 0.416666 0.416667
vt 0.000000 0.416667
vt 0.000000 0.333334
vt 0.000000 0.583334
vt 0.000000 0.500000
vt 0.833333 0.083333
vt 0.416666 0.000000
vt 0.000000 0.000000
vt 0.916666 0.416667
vt 0.500000 0.416667
vt 0.416666 0.333333
vt 0.833332 0.833334
vt 0.833332 0.916667
vt 0.833332 0.250000
vt 0.833332 0.666667
vt 0.416666 0.500000
vt 0.916666 0.250000
vt 0.000000 0.916667
vt 0.500000 0.500000
vt 0.500000 0.666667
vt 0.833333 0.000000
vn 0.171000 0.296200 0.939700
vn 0.241800 0.241800 0.939700
vn 0.330400 0.088500 0.939700
vn 0.296200 0.171000 0.939700
vn 0.000000 0.342000 0.939700
vn 0.088500 0.330400 0.939700
vn -0.088500 0.330400 0.939700
vn -0.171000 0.296200 0.939700
vn -0.171000 -0.296200 0.939700
vn -0.241800 -0.241800 0.939700
vn -0.330400 -0.088500 0.939700
vn -0.296200 -0.171000 0.939700
vn -0.296200 0.171000 0.939700
vn -0.241800 0.241800 0.939700
vn -0.330400 0.088500 0.939700
vn -0.342000 -0.000000 0.939700
vn 0.171000 -0.296200 0.939700
vn 0.088500 -0.330400 0.939700
vn -0.088500 -0.330400 0.939700
vn 0.000000 -0.342000 0.939700
vn 0.296200 -0.171000 0.939700
vn 0.241800 -0.241800 0.939700
vn 0.330400 -0.088500 0.939700
vn 0.342000 0.000000 0.939700
s off
f 2/1/1 4/2/1 3/3/1
f 6/4/2 8/5/2 7/6/2
f 10/7/3 12/8/3 11/9/3
f 13/8/4 14/10/4 16/11/4
f 17/12/5 18/13/5 20/14/5
f 21/9/6 22/15/6 24/16/6
f 25/17/7 26/18/7 28/19/7
f 30/10/8 32/20/8 31/14/8
f 34/13/9 36/21/9 35/22/9
f 38/21/10 40/23/10 39/24/10
f 42/25/11 44/6/11 43/5/11
f 46/26/12 48/27/12 47/22/12
f 50/28/13 52/29/13 51/30/13
f 54/12/14 56/31/14 55/32/14
f 58/33/15 60/5/15 59/34/15
f 62/5/16 64/4/16 63/35/16
f 66/27/17 68/26/17 67/36/17
f 70/37/18 72/36/18 71/17/18
f 74/20/19 76/10/19 75/8/19
f 78/23/20 80/21/20 79/38/20
f 82/8/21 84/39/21 83/40/21
f 86/6/22 88/25/22 87/41/22
f 90/13/23 92/42/23 91/11/23
f 94/29/24 96/28/24 95/43/24
f 1/44/1 2/1/1 3/3/1
f 5/24/2 6/4/2 7/6/2
f 9/45/3 10/7/3 11/9/3
f 15/39/4 13/8/4 16/11/4
f 19/31/5 17/12/5 20/14/5
f 23/45/6 21/9/6 24/16/6
f 27/46/7 25/17/7 28/19/7
f 29/13/8 30/10/8 31/14/8
f 33/47/9 34/13/9 35/22/9
f 37/6/10 38/21/10 39/24/10
f 41/33/11 42/25/11 43/5/11
f 45/44/12 46/26/12 47/22/12
f 49/38/13 50/28/13 51/30/13
f 53/43/14 54/12/14 55/32/14
f 57/48/15 58/33/15 59/34/15
f 61/34/16 62/5/16 63/35/16
f 65/37/17 66/27/17 67/36/17
f 69/46/18 70/37/18 71/17/18
f 73/7/19 74/20/19 75/8/19
f 77/30/20 78/23/20 79/38/20
f 81/9/21 82/8/21 83/40/21
f 85/21/22 86/6/22 87/41/22
f 89/10/23 90/13/23 91/11/23
f 93/32/24 94/29/24 95/43/24
