# Blender v2.76 (sub 0) OBJ File: 'radar_base.blend'
# www.blender.org
o Cube_Cube.001
v -0.500000 0.000000 0.500000
v -0.500000 0.250000 0.500000
v -0.500000 0.000000 -0.500000
v -0.500000 0.250000 -0.500000
v 0.500000 0.000000 0.500000
v 0.500000 0.250000 0.500000
v 0.500000 0.000000 -0.500000
v 0.500000 0.250000 -0.500000
v -0.500000 0.656250 0.156250
v -0.500000 0.343750 0.156250
v 0.000000 0.250000 -0.485000
v 0.000000 0.850000 -0.485000
v 0.353553 0.250000 -0.353553
v 0.353553 0.850000 -0.353553
v 0.485000 0.250000 0.000000
v 0.485000 0.850000 0.000000
v 0.353553 0.250000 0.353553
v 0.353553 0.850000 0.353553
v -0.000000 0.250000 0.485000
v -0.000000 0.850000 0.485000
v -0.353553 0.250000 0.353553
v -0.353553 0.850000 0.353553
v -0.485000 0.250000 -0.000000
v -0.485000 0.850000 -0.000000
v -0.353553 0.250000 -0.353553
v -0.353553 0.850000 -0.353553
v -0.500000 0.343750 -0.156250
v -0.500000 0.656250 -0.156250
v 0.500000 0.343750 0.156250
v 0.500000 0.656250 0.156250
v 0.500000 0.343750 -0.156250
v 0.500000 0.656250 -0.156250
v 0.156250 0.656250 0.500000
v 0.156250 0.343750 0.500000
v -0.156250 0.343750 0.500000
v -0.156250 0.656250 0.500000
v 0.156250 0.343750 -0.500000
v 0.156250 0.656250 -0.500000
v -0.156250 0.343750 -0.500000
v -0.156250 0.656250 -0.500000
v 0.176777 0.912500 -0.176777
v -0.000000 0.912500 -0.242500
v 0.242500 0.912500 0.000000
v 0.176777 0.912500 0.176777
v -0.000000 0.912500 0.242500
v -0.176777 0.912500 0.176777
v -0.242500 0.912500 -0.000000
v -0.176777 0.912500 -0.176777
v 0.176777 1.000000 -0.176777
v -0.000000 1.000000 -0.242500
v 0.242500 1.000000 0.000000
v 0.176777 1.000000 0.176777
v -0.000000 1.000000 0.242500
v -0.176777 1.000000 0.176777
v -0.242500 1.000000 -0.000000
v -0.176777 1.000000 -0.176777
vt 0.500000 0.677049
vt 0.500000 0.616899
vt 0.740598 0.616899
vt 0.259403 0.677049
vt 0.259403 0.616899
vt 0.018805 0.677049
vt 0.018805 0.616899
vt 0.740598 0.677049
vt 0.981195 0.616899
vt 0.297012 0.714658
vt 0.537610 0.714658
vt 0.537610 0.955256
vt 0.259402 0.955256
vt 0.018805 0.955256
vt 0.018805 0.714658
vt 0.109558 0.163163
vt 0.089226 0.219881
vt 0.043849 0.219881
vt 0.763170 0.428916
vt 0.522572 0.428916
vt 0.522572 0.353729
vt 0.291063 0.163163
vt 0.200310 0.163163
vt 0.200311 0.018805
vt 0.472569 0.163163
vt 0.452237 0.219881
vt 0.406861 0.219881
vt 0.334589 0.504103
vt 0.093992 0.504103
vt 0.093992 0.428916
vt 0.109558 0.018805
vt 0.447385 0.504103
vt 0.522572 0.504103
vt 0.522572 0.579290
vt 0.093992 0.278543
vt 0.334589 0.278543
vt 0.334589 0.353729
vt 0.018805 0.163163
vt 0.018805 0.018805
vt 0.763170 0.504103
vt 0.093992 0.353729
vt 0.744828 0.163163
vt 0.654075 0.163163
vt 0.654075 0.018805
vt 0.838357 0.579290
vt 0.763170 0.579290
vt 0.409776 0.353729
vt 0.563322 0.163163
vt 0.563322 0.018805
vt 0.522572 0.278543
vt 0.763170 0.278543
vt 0.334589 0.579290
vt 0.093992 0.579290
vt 0.472569 0.018805
vt 0.270731 0.219881
vt 0.225355 0.219881
vt 0.381816 0.163163
vt 0.291063 0.018805
vt 0.381816 0.018805
vt 0.175266 0.219881
vt 0.175266 0.240933
vt 0.129890 0.240933
vt 0.018805 0.278543
vt 0.719784 0.219881
vt 0.356772 0.219881
vt 0.633743 0.219881
vt 0.588366 0.219881
vt 0.538278 0.219881
vt 0.575219 0.789678
vt 0.609574 0.714658
vt 0.684594 0.749014
vt 0.452237 0.240933
vt 0.406861 0.240933
vt 0.633743 0.240933
vt 0.588366 0.240933
vt 0.089226 0.240933
vt 0.043849 0.240933
vt 0.270731 0.240933
vt 0.225355 0.240933
vt 0.356772 0.240933
vt 0.311395 0.240933
vt 0.538278 0.240933
vt 0.492901 0.240933
vt 0.719784 0.240933
vt 0.674407 0.240933
vt 0.981195 0.677049
vt 0.297012 0.955256
vt 0.259402 0.714658
vt 0.763170 0.353729
vt 0.334589 0.428916
vt 0.447385 0.579290
vt 0.744828 0.018805
vt 0.838356 0.504103
vt 0.409776 0.278543
vt 0.129890 0.219881
vt 0.018805 0.353729
vt 0.674407 0.219881
vt 0.311395 0.219881
vt 0.492901 0.219881
vt 0.684594 0.794390
vt 0.650239 0.824033
vt 0.604862 0.824033
vt 0.575219 0.744302
vt 0.654951 0.714658
vn -1.000000 0.000000 0.000000
vn 0.000000 0.000000 -1.000000
vn 1.000000 0.000000 0.000000
vn 0.000000 0.000000 1.000000
vn 0.000000 -1.000000 0.000000
vn 0.000000 1.000000 0.000000
vn 0.248500 0.964200 0.092400
vn 0.348500 0.000000 -0.937300
vn -0.248500 0.964200 -0.092400
vn 0.937300 0.000000 -0.348500
vn 0.937300 0.000000 0.348500
vn 0.348500 0.000000 0.937300
vn -0.348500 0.000000 0.937300
vn -0.937300 0.000000 0.348500
vn 0.092400 0.964200 -0.248500
vn -0.348500 0.000000 -0.937300
vn -0.937300 0.000000 -0.348500
vn 0.092400 0.964200 0.248500
vn -0.092400 0.964200 -0.248500
vn -0.092400 0.964200 0.248500
vn 0.248500 0.964200 -0.092400
vn -0.248500 0.964200 0.092400
s off
f 4/1/1 3/2/1 1/3/1
f 8/4/2 7/5/2 3/2/2
f 6/6/3 5/7/3 7/5/3
f 2/8/4 1/3/4 5/9/4
f 3/10/5 7/11/5 5/12/5
f 8/13/6 4/14/6 2/15/6
f 16/16/7 43/17/7 44/18/7
f 40/19/6 36/20/6 33/21/6
f 12/22/8 14/23/8 13/24/8
f 24/25/9 47/26/9 48/27/9
f 32/28/6 28/29/6 9/30/6
f 14/23/10 16/16/10 15/31/10
f 36/32/4 35/33/4 34/34/4
f 27/35/5 31/36/5 29/37/5
f 16/16/11 18/38/11 17/39/11
f 40/19/1 39/40/1 35/33/1
f 9/30/4 10/41/4 29/37/4
f 18/42/12 20/43/12 19/44/12
f 38/45/2 37/46/2 39/40/2
f 30/47/3 29/37/3 31/36/3
f 20/43/13 22/48/13 21/49/13
f 33/21/3 34/50/3 37/51/3
f 32/28/2 31/52/2 27/53/2
f 22/48/14 24/25/14 23/54/14
f 12/22/15 42/55/15 41/56/15
f 26/57/16 12/22/16 11/58/16
f 24/25/17 26/57/17 25/59/17
f 41/60/10 49/61/10 51/62/10
f 35/33/5 39/40/5 37/46/5
f 28/63/1 27/35/1 10/41/1
f 20/43/18 18/42/18 44/64/18
f 12/22/19 26/57/19 48/65/19
f 20/43/20 45/66/20 46/67/20
f 16/16/21 14/23/21 41/60/21
f 24/25/22 22/48/22 46/68/22
f 55/69/6 53/70/6 51/71/6
f 47/26/17 55/72/17 56/73/17
f 45/66/13 53/74/13 54/75/13
f 43/17/11 51/76/11 52/77/11
f 42/55/8 50/78/8 49/79/8
f 48/65/16 56/80/16 50/81/16
f 46/68/14 54/82/14 55/83/14
f 44/64/12 52/84/12 53/85/12
f 2/8/1 4/1/1 1/3/1
f 4/1/2 8/4/2 3/2/2
f 8/4/3 6/6/3 7/5/3
f 6/86/4 2/8/4 5/9/4
f 1/87/5 3/10/5 5/12/5
f 6/88/6 8/13/6 2/15/6
f 18/38/7 16/16/7 44/18/7
f 38/89/6 40/19/6 33/21/6
f 11/58/8 12/22/8 13/24/8
f 26/57/9 24/25/9 48/27/9
f 30/90/6 32/28/6 9/30/6
f 13/24/10 14/23/10 15/31/10
f 33/91/4 36/32/4 34/34/4
f 10/41/5 27/35/5 29/37/5
f 15/31/11 16/16/11 17/39/11
f 36/20/1 40/19/1 35/33/1
f 30/90/4 9/30/4 29/37/4
f 17/92/12 18/42/12 19/44/12
f 40/93/2 38/45/2 39/40/2
f 32/94/3 30/47/3 31/36/3
f 19/44/13 20/43/13 21/49/13
f 38/89/3 33/21/3 37/51/3
f 28/29/2 32/28/2 27/53/2
f 21/49/14 22/48/14 23/54/14
f 14/23/15 12/22/15 41/56/15
f 25/59/16 26/57/16 11/58/16
f 23/54/17 24/25/17 25/59/17
f 43/95/10 41/60/10 51/62/10
f 34/34/5 35/33/5 37/46/5
f 9/96/1 28/63/1 10/41/1
f 45/97/18 20/43/18 44/64/18
f 42/98/19 12/22/19 48/65/19
f 22/48/20 20/43/20 46/67/20
f 43/95/21 16/16/21 41/60/21
f 47/99/22 24/25/22 46/68/22
f 51/71/6 49/100/6 50/101/6
f 50/101/6 56/102/6 55/69/6
f 55/69/6 54/103/6 53/70/6
f 53/70/6 52/104/6 51/71/6
f 51/71/6 50/101/6 55/69/6
f 48/27/17 47/26/17 56/73/17
f 46/67/13 45/66/13 54/75/13
f 44/18/11 43/17/11 52/77/11
f 41/56/8 42/55/8 49/79/8
f 42/98/16 48/65/16 50/81/16
f 47/99/14 46/68/14 55/83/14
f 45/97/12 44/64/12 53/85/12
