# Blender v2.76 (sub 0) OBJ File: 'rpc.blend'
# www.blender.org
o Cube_Cube.002
v -0.125000 0.500000 -0.375000
v -0.625000 0.000000 -0.375000
v 0.625000 0.500000 0.125000
v 0.375000 -0.500000 0.125000
v -0.375000 -0.500000 -0.375000
v -0.625000 -0.250000 -0.375000
v -0.375000 -0.500000 0.125000
v 0.625000 0.500000 -0.375000
v 0.625000 -0.250000 -0.375000
v 0.375000 -0.500000 -0.375000
v 0.625000 -0.250000 0.125000
v -0.125000 0.500000 0.125000
v -0.625000 0.000000 0.125000
v -0.625000 -0.250000 0.125000
v -0.250000 -0.500000 0.375000
v -0.250000 0.500000 0.375000
v -0.250000 -0.500000 0.125000
v -0.250000 0.500000 0.125000
v 0.625000 -0.500000 0.375000
v 0.625000 0.500000 0.375000
v 0.625000 -0.500000 0.125000
v 0.625000 0.500000 0.125000
v -3.187500 -0.437500 0.000000
v -0.187500 -0.437500 0.000000
v -3.187500 0.437500 -0.000000
v -0.187500 0.437500 -0.000000
v -3.437500 -0.187500 0.000000
v -3.437500 0.187500 -0.000000
v 1.750000 0.000000 -0.276250
v 1.750000 -0.239240 -0.138125
v 0.625000 -0.000000 -0.325000
v 1.625000 0.000000 -0.325000
v 0.625000 -0.281458 -0.162500
v 1.625000 -0.281458 -0.162500
v 0.625000 -0.281458 0.162500
v 1.625000 -0.281458 0.162500
v 0.625000 0.000000 0.325000
v 1.625000 0.000000 0.325000
v 0.625000 0.281458 0.162500
v 1.625000 0.281458 0.162500
v 0.625000 0.281458 -0.162500
v 1.625000 0.281458 -0.162500
v 1.750000 -0.239239 0.138125
v 1.750000 0.000000 0.276250
v 1.750000 0.239240 0.138125
v 1.750000 0.239240 -0.138125
v 2.250000 0.000000 -0.276250
v 2.250000 0.239240 -0.138125
v 2.250000 0.239240 0.138125
v 2.250000 0.000000 0.276250
v 2.250000 -0.239239 0.138125
v 2.250000 -0.239240 -0.138125
v 2.650000 0.000000 -0.345313
v 2.650000 0.299049 -0.172656
v 2.650000 0.299049 0.172656
v 2.650000 0.000000 0.345312
v 2.650000 -0.299049 0.172656
v 2.650000 -0.299049 -0.172656
v 2.062500 -0.500000 0.500000
v 2.062500 0.500000 0.500000
v 2.062500 -0.500000 -0.500000
v 2.062500 0.500000 -0.500000
v 2.437500 -0.500000 0.500000
v 2.437500 0.500000 0.500000
v 2.437500 -0.500000 -0.500000
v 2.437500 0.500000 -0.500000
v 1.812500 -0.125000 0.125000
v 1.812500 0.125000 0.125000
v 1.812500 -0.125000 -0.125000
v 1.812500 0.125000 -0.125000
v 2.187500 -0.125000 0.125000
v 2.187500 0.125000 0.125000
v 2.187500 -0.125000 -0.125000
v 2.187500 0.125000 -0.125000
v -0.125000 0.500000 -0.375000
v -0.125000 0.500000 0.125000
v -0.875000 1.000000 -0.375000
v -0.875000 1.000000 0.125000
v 2.250000 0.000000 -0.000000
v -3.187500 -0.437500 0.000000
v -0.187500 -0.437500 0.000000
v -3.187500 0.437500 -0.000000
v -0.187500 0.437500 -0.000000
v -3.437500 -0.187500 0.000000
v -3.437500 0.187500 -0.000000
v 2.250000 0.000000 -0.276250
v 2.250000 0.239240 -0.138125
v 2.250000 0.239240 0.138125
v 2.250000 0.000000 0.276250
v 2.250000 -0.239239 0.138125
v 2.250000 -0.239240 -0.138125
v 2.650000 0.000000 -0.345313
v 2.650000 0.299049 -0.172656
v 2.650000 0.299049 0.172656
v 2.650000 0.000000 0.345312
v 2.650000 -0.299049 0.172656
v 2.650000 -0.299049 -0.172656
v 2.062500 -0.500000 0.500000
v 2.062500 0.500000 0.500000
v 2.062500 -0.500000 -0.500000
v 2.062500 0.500000 -0.500000
v 2.437500 -0.500000 0.500000
v 2.437500 0.500000 0.500000
v 2.437500 -0.500000 -0.500000
v 2.437500 0.500000 -0.500000
v 1.812500 -0.125000 0.125000
v 1.812500 0.125000 0.125000
v 1.812500 -0.125000 -0.125000
v 1.812500 0.125000 -0.125000
v 2.187500 -0.125000 0.125000
v 2.187500 0.125000 0.125000
v 2.187500 -0.125000 -0.125000
v 2.187500 0.125000 -0.125000
v -0.125000 0.500000 -0.375000
v -0.125000 0.500000 0.125000
v -0.875000 1.000000 -0.375000
v -0.875000 1.000000 0.125000
vt 0.913043 0.173913
vt 0.913043 0.260870
vt 0.782609 0.260870
vt 0.565217 0.000000
vt 0.521739 0.173913
vt 0.434783 0.000000
vt 1.000000 0.173913
vt 0.913043 0.043478
vt 1.000000 0.043478
vt 0.913043 0.000000
vt 0.608696 0.043478
vt 0.695652 0.043478
vt 0.695652 0.086957
vt 0.782609 0.173913
vt 0.869565 -0.000000
vt 0.608696 0.000000
vt 0.695652 0.000000
vt 0.608696 0.086957
vt 0.695652 0.173913
vt 0.391304 0.260870
vt 0.391304 0.173913
vt 0.347826 0.173913
vt 0.347826 0.000000
vt 0.391304 0.000000
vt 0.195652 0.173913
vt 0.195652 0.000000
vt 0.152174 0.173913
vt 0.152174 -0.000000
vt 0.000000 0.173913
vt 0.000000 0.000000
vt 0.347826 0.217391
vt 0.152174 0.217391
vt 0.000000 0.217391
vt 0.565217 0.260870
vt 0.565217 0.413043
vt 0.043478 0.413043
vt -0.000000 0.369565
vt -0.000000 0.304348
vt 0.739130 0.391304
vt 0.760870 0.391304
vt 0.760870 0.456522
vt 0.739130 0.586957
vt 0.739130 0.652174
vt 0.565217 0.652174
vt 0.739130 0.326087
vt 0.760870 0.326087
vt 0.739130 0.260870
vt 0.565217 0.326087
vt 0.760870 0.586957
vt 0.760870 0.652174
vt 0.565217 0.391304
vt 0.760870 0.260870
vt 0.760870 0.478261
vt 0.847826 0.478261
vt 0.847826 0.521739
vt 0.739130 0.456522
vt 0.739130 0.521739
vt 0.760870 0.521739
vt 0.565217 0.586957
vt 0.565217 0.521739
vt 0.184783 0.586957
vt 0.097826 0.586957
vt 0.097826 0.413043
vt 0.847826 0.304348
vt 0.847826 0.260870
vt 0.934783 0.260870
vt 0.760870 0.434783
vt 0.847826 0.434783
vt 0.760870 0.347826
vt 0.847826 0.347826
vt 0.847826 0.391304
vt 0.760870 0.304348
vt 0.021739 0.456522
vt 0.000000 0.413043
vt 0.934783 0.347826
vt 0.934783 0.434783
vt 0.934783 0.478261
vt 0.934783 0.521739
vt 0.934783 0.304348
vt 0.934783 0.391304
vt 0.055813 0.418992
vt 0.097826 0.500000
vt 0.043478 0.500000
vt 0.391304 0.043478
vt 1.000000 0.000000
vt 0.739130 -0.000000
vt 0.608696 0.173913
vt 0.521739 0.260870
vt 0.195652 0.217391
vt 0.043478 0.260870
vt 0.565217 0.456522
vt 0.184783 0.413043
vn 0.000000 -1.000000 0.000000
vn 0.000000 0.000000 -1.000000
vn 1.000000 0.000000 0.000000
vn 0.707100 -0.707100 0.000000
vn -1.000000 0.000000 0.000000
vn 0.000000 0.000000 1.000000
vn -0.707100 -0.707100 0.000000
vn -0.707100 0.707100 0.000000
vn 0.000000 1.000000 0.000000
vn 0.320000 0.473700 0.820500
vn 0.000000 -0.500000 -0.866000
vn 0.320000 -0.473700 0.820500
vn 0.320000 -0.473700 -0.820500
vn 0.000000 -0.500000 0.866000
vn 0.320000 -0.947400 0.000000
vn -0.000000 0.500000 0.866000
vn 0.320000 0.473700 -0.820500
vn 0.000000 0.500000 -0.866000
vn 0.320000 0.947400 0.000000
vn 0.554700 0.832100 0.000000
vn -0.147900 -0.989000 0.000000
vn -0.147900 0.494500 0.856500
vn -0.147900 0.494500 -0.856500
vn -0.147900 -0.494500 -0.856500
vn -0.147900 -0.494500 0.856500
vn -0.147900 0.989000 0.000000
vn 0.000000 0.707100 -0.707100
vn 0.000000 0.707100 0.707100
vn -0.554700 -0.832100 0.000000
vn 0.147900 0.989000 -0.000000
vn 0.147900 -0.494500 -0.856500
vn 0.147900 -0.494500 0.856500
vn 0.147900 0.494500 0.856500
vn 0.147900 0.494500 -0.856500
vn 0.147900 -0.989000 0.000000
vn 0.000000 -0.707100 0.707100
vn 0.000000 -0.707100 -0.707100
s off
f 10/1/1 4/2/1 7/3/1
f 5/4/2 1/5/2 10/6/2
f 8/7/3 3/1/3 11/8/3
f 9/9/4 11/8/4 4/10/4
f 6/11/5 14/12/5 13/13/5
f 11/8/6 12/14/6 4/15/6
f 5/16/7 7/17/7 14/12/7
f 2/18/8 13/13/8 12/19/8
f 1/20/9 12/21/9 3/5/9
f 18/22/5 17/23/5 15/24/5
f 22/25/2 21/26/2 17/23/2
f 20/27/3 19/28/3 21/26/3
f 16/29/6 15/30/6 19/28/6
f 17/25/1 21/22/1 19/31/1
f 22/32/9 18/33/9 16/29/9
f 24/34/6 26/35/6 25/36/6
f 25/36/6 28/37/6 27/38/6
f 38/39/10 44/40/10 45/41/10
f 32/42/11 34/43/11 33/44/11
f 38/39/12 36/45/12 43/46/12
f 34/47/1 36/45/1 35/48/1
f 32/42/13 29/49/13 30/50/13
f 36/45/14 38/39/14 37/51/14
f 34/47/15 30/52/15 43/46/15
f 29/53/11 47/54/11 52/55/11
f 37/51/16 38/39/16 40/56/16
f 42/57/17 46/58/17 29/49/17
f 42/57/18 32/42/18 31/59/18
f 40/56/9 42/57/9 41/60/9
f 40/56/19 45/41/19 46/58/19
f 77/61/20 78/62/20 76/63/20
f 51/64/21 52/65/21 58/66/21
f 29/53/18 46/67/18 48/68/18
f 44/69/16 50/70/16 49/71/16
f 46/67/9 45/40/9 49/71/9
f 43/72/14 51/64/14 50/70/14
f 30/52/1 52/65/1 51/64/1
f 79/73/3 49/74/3 50/36/3
f 49/71/22 50/70/22 56/75/22
f 48/68/23 54/76/23 53/77/23
f 47/54/24 53/77/24 58/78/24
f 50/70/25 51/64/25 57/79/25
f 49/71/26 55/80/26 54/76/26
f 60/81/27 64/63/27 72/82/27
f 71/82/28 67/83/28 59/36/28
f 62/83/28 70/36/28 74/63/28
f 61/36/27 69/83/27 73/82/27
f 48/74/3 49/36/3 79/73/3
f 47/74/3 48/36/3 79/73/3
f 52/36/3 79/73/3 51/74/3
f 52/74/3 47/36/3 79/73/3
f 51/36/3 79/73/3 50/74/3
f 82/36/2 83/35/2 81/34/2
f 84/38/2 85/37/2 82/36/2
f 115/63/29 117/62/29 116/61/29
f 96/79/30 97/66/30 91/65/30
f 94/80/31 95/75/31 89/70/31
f 92/77/32 93/76/32 87/68/32
f 91/55/33 97/78/33 92/77/33
f 89/70/34 95/75/34 96/79/34
f 93/76/35 94/80/35 88/71/35
f 99/81/36 107/83/36 111/82/36
f 98/36/37 106/83/37 110/82/37
f 113/63/37 109/36/37 101/83/37
f 100/36/36 104/63/36 112/82/36
f 5/14/1 10/1/1 7/3/1
f 9/84/2 10/6/2 1/5/2
f 5/4/2 6/11/2 2/18/2
f 2/18/2 1/5/2 5/4/2
f 8/21/2 9/84/2 1/5/2
f 9/9/3 8/7/3 11/8/3
f 10/85/4 9/9/4 4/10/4
f 2/18/5 6/11/5 13/13/5
f 7/86/6 4/15/6 12/14/6
f 11/8/6 3/1/6 12/14/6
f 12/14/6 13/13/6 7/86/6
f 14/12/6 7/86/6 13/13/6
f 6/11/7 5/16/7 14/12/7
f 1/87/8 2/18/8 12/19/8
f 8/88/9 1/20/9 3/5/9
f 16/21/5 18/22/5 15/24/5
f 18/22/2 22/25/2 17/23/2
f 22/25/3 20/27/3 21/26/3
f 20/27/6 16/29/6 19/28/6
f 15/89/1 17/25/1 19/31/1
f 20/27/9 22/32/9 16/29/9
f 23/90/6 24/34/6 25/36/6
f 23/90/6 25/36/6 27/38/6
f 40/56/10 38/39/10 45/41/10
f 31/59/11 32/42/11 33/44/11
f 44/40/12 38/39/12 43/46/12
f 33/34/1 34/47/1 35/48/1
f 34/43/13 32/42/13 30/50/13
f 35/48/14 36/45/14 37/51/14
f 36/45/15 34/47/15 43/46/15
f 30/58/11 29/53/11 52/55/11
f 39/91/16 37/51/16 40/56/16
f 32/42/17 42/57/17 29/49/17
f 41/60/18 42/57/18 31/59/18
f 39/91/9 40/56/9 41/60/9
f 42/57/19 40/56/19 46/58/19
f 75/92/20 77/61/20 76/63/20
f 57/79/21 51/64/21 58/66/21
f 47/54/18 29/53/18 48/68/18
f 45/40/16 44/69/16 49/71/16
f 48/68/9 46/67/9 49/71/9
f 44/69/14 43/72/14 50/70/14
f 43/72/1 30/52/1 51/64/1
f 55/80/22 49/71/22 56/75/22
f 47/54/23 48/68/23 53/77/23
f 52/55/24 47/54/24 58/78/24
f 56/75/25 50/70/25 57/79/25
f 48/68/26 49/71/26 54/76/26
f 68/83/27 60/81/27 72/82/27
f 63/63/28 71/82/28 59/36/28
f 66/82/28 62/83/28 74/63/28
f 65/63/27 61/36/27 73/82/27
f 80/90/2 82/36/2 81/34/2
f 80/90/2 84/38/2 82/36/2
f 114/92/29 115/63/29 116/61/29
f 90/64/30 96/79/30 91/65/30
f 88/71/31 94/80/31 89/70/31
f 86/54/32 92/77/32 87/68/32
f 86/54/33 91/55/33 92/77/33
f 90/64/34 89/70/34 96/79/34
f 87/68/35 93/76/35 88/71/35
f 103/63/36 99/81/36 111/82/36
f 102/63/37 98/36/37 110/82/37
f 105/82/37 113/63/37 101/83/37
f 108/83/36 100/36/36 112/82/36
