# Blender v2.76 (sub 0) OBJ File: 'sat_foeq_burning.blend'
# www.blender.org
o Circle
v -0.369146 0.037580 -0.239379
v -0.639379 0.037580 0.030854
v -0.738291 0.037580 0.400000
v -0.639379 0.037580 0.769145
v -0.369146 0.037580 1.039379
v -0.000000 0.037580 1.138291
v 0.369145 0.037580 1.039379
v 0.639379 0.037580 0.769145
v 0.738291 0.037580 0.400000
v 0.639379 0.037580 0.030854
v 0.369146 0.037580 -0.239379
v 0.000000 0.037580 -0.338291
v -1.361453 2.911159 -0.386035
v -0.786035 2.911159 -0.961453
v -1.572070 2.911159 0.400000
v -1.361453 2.911159 1.186035
v -0.786035 2.911159 1.761452
v 0.000000 2.911159 1.972070
v 0.786035 2.911159 1.761452
v 1.361452 2.911159 1.186035
v 1.572070 2.911159 0.400000
v 1.361453 2.911159 -0.386035
v 0.786035 2.911159 -0.961453
v 0.000001 2.911159 -1.172070
v -2.606465 14.941073 -1.104841
v -1.224982 9.420196 -1.721727
v -2.449962 9.420196 0.400001
v -2.606464 14.941073 1.904843
v -1.224982 9.420196 2.521728
v -0.000001 14.941073 3.409685
v 1.224978 9.420196 2.521728
v 2.606461 14.941073 1.904843
v 2.449958 9.420196 0.400001
v 2.606462 14.941073 -1.104841
v 1.224979 9.420196 -1.721727
v -0.000000 14.941073 -2.609684
v -0.388826 -0.174916 0.175511
v -0.224489 -0.174916 0.011174
v -0.448977 -0.174916 0.400000
v -0.388826 -0.174916 0.624488
v -0.224488 -0.174916 0.788825
v -0.000000 -0.174916 0.848977
v 0.224488 -0.174916 0.788825
v 0.388825 -0.174916 0.624488
v 0.448977 -0.174916 0.400000
v 0.388825 -0.174916 0.175511
v 0.224489 -0.174916 0.011174
v 0.000000 -0.174916 -0.048977
vn -0.156700 -0.796000 0.584700
vn -0.936500 -0.116700 0.330700
vn -0.249200 -0.269900 0.930100
vn -0.249200 -0.269900 -0.930100
vn -0.930100 -0.269900 -0.249200
vn 0.930100 -0.269900 -0.249200
vn 0.249200 -0.269900 0.930100
vn -0.930100 -0.269900 0.249200
vn 0.680900 -0.269900 -0.680900
vn 0.680900 -0.269900 0.680900
vn -0.680900 -0.269900 0.680900
vn 0.249200 -0.269900 -0.930100
vn -0.680900 -0.269900 -0.680900
vn 0.930100 -0.269900 0.249200
vn 0.701200 -0.129200 -0.701200
vn 0.754600 -0.116700 0.645700
vn -0.701200 -0.129200 0.701200
vn 0.181900 -0.116700 -0.976400
vn -0.754600 -0.116700 -0.645700
vn 0.957800 -0.129200 0.256700
vn -0.181900 -0.116700 0.976400
vn -0.256600 -0.129200 -0.957800
vn -0.957800 -0.129200 -0.256700
vn 0.936500 -0.116700 -0.330700
vn 0.256700 -0.129200 0.957800
vn 0.000000 -1.000000 0.000000
vn -0.156700 -0.796000 -0.584700
vn -0.584700 -0.796000 -0.156700
vn 0.584700 -0.796000 -0.156700
vn 0.156700 -0.796000 0.584700
vn -0.584700 -0.796000 0.156700
vn 0.428000 -0.796000 -0.428000
vn 0.428000 -0.796000 0.428000
vn -0.428000 -0.796000 0.428000
vn 0.156700 -0.796000 -0.584700
vn -0.428000 -0.796000 -0.428000
vn 0.584700 -0.796000 0.156700
vn -0.957800 -0.129200 0.256700
vn 0.754600 -0.116700 -0.645700
vn 0.701200 -0.129200 0.701200
vn -0.754600 -0.116700 0.645700
vn 0.256700 -0.129200 -0.957800
vn -0.701200 -0.129200 -0.701200
vn 0.936500 -0.116700 0.330700
vn -0.256700 -0.129200 0.957800
vn -0.181900 -0.116700 -0.976400
vn -0.936500 -0.116700 -0.330700
vn 0.957800 -0.129200 -0.256700
vn 0.181900 -0.116700 0.976400
s off
f 5//1 41//1 42//1
f 16//2 28//2 27//2
f 6//3 18//3 17//3
f 1//4 14//4 24//4
f 3//5 15//5 13//5
f 9//6 10//6 22//6
f 7//7 19//7 18//7
f 4//8 16//8 15//8
f 11//9 23//9 22//9
f 8//10 20//10 19//10
f 4//11 5//11 17//11
f 12//12 24//12 23//12
f 2//13 13//13 14//13
f 9//14 21//14 20//14
f 22//15 23//15 35//15
f 20//16 32//16 31//16
f 16//17 17//17 29//17
f 24//18 36//18 35//18
f 13//19 25//19 26//19
f 20//20 21//20 33//20
f 18//21 30//21 29//21
f 24//22 14//22 26//22
f 13//23 15//23 27//23
f 22//24 34//24 33//24
f 18//25 19//25 31//25
f 47//26 41//26 39//26
f 12//27 48//27 38//27
f 2//28 37//28 39//28
f 9//29 45//29 46//29
f 7//30 6//30 42//30
f 3//31 39//31 40//31
f 10//32 46//32 47//32
f 7//33 43//33 44//33
f 5//34 4//34 40//34
f 11//35 47//35 48//35
f 1//36 38//36 37//36
f 9//37 8//37 44//37
f 6//1 5//1 42//1
f 15//38 16//38 27//38
f 5//3 6//3 17//3
f 12//4 1//4 24//4
f 2//5 3//5 13//5
f 21//6 9//6 22//6
f 6//7 7//7 18//7
f 3//8 4//8 15//8
f 10//9 11//9 22//9
f 7//10 8//10 19//10
f 16//11 4//11 17//11
f 11//12 12//12 23//12
f 1//13 2//13 14//13
f 8//14 9//14 20//14
f 34//39 22//39 35//39
f 19//40 20//40 31//40
f 28//41 16//41 29//41
f 23//42 24//42 35//42
f 14//43 13//43 26//43
f 32//44 20//44 33//44
f 17//45 18//45 29//45
f 36//46 24//46 26//46
f 25//47 13//47 27//47
f 21//48 22//48 33//48
f 30//49 18//49 31//49
f 39//26 37//26 47//26
f 38//26 48//26 47//26
f 47//26 46//26 43//26
f 45//26 44//26 43//26
f 43//26 42//26 41//26
f 41//26 40//26 39//26
f 37//26 38//26 47//26
f 46//26 45//26 43//26
f 43//26 41//26 47//26
f 1//27 12//27 38//27
f 3//28 2//28 39//28
f 10//29 9//29 46//29
f 43//30 7//30 42//30
f 4//31 3//31 40//31
f 11//32 10//32 47//32
f 8//33 7//33 44//33
f 41//34 5//34 40//34
f 12//35 11//35 48//35
f 2//36 1//36 37//36
f 45//37 9//37 44//37
