# Blender v2.76 (sub 0) OBJ File: 'sphere_ruv.blend'
# www.blender.org
o Icosphere
v 0.000000 -0.500000 0.000000
v 0.361804 -0.223610 0.262863
v -0.138194 -0.223610 0.425325
v -0.447213 -0.223608 0.000000
v -0.138194 -0.223610 -0.425325
v 0.361804 -0.223610 -0.262863
v 0.138194 0.223610 0.425325
v -0.361804 0.223610 0.262863
v -0.361804 0.223610 -0.262863
v 0.138194 0.223610 -0.425325
v 0.447213 0.223608 0.000000
v 0.000000 0.500000 0.000000
v -0.081228 -0.425327 0.249998
v 0.212661 -0.425327 0.154506
v 0.131434 -0.262869 0.404506
v 0.425324 -0.262868 0.000000
v 0.212661 -0.425327 -0.154506
v -0.262865 -0.425326 0.000000
v -0.344095 -0.262868 0.249998
v -0.081228 -0.425327 -0.249998
v -0.344095 -0.262868 -0.249998
v 0.131434 -0.262869 -0.404506
v 0.475529 0.000000 0.154506
v 0.475529 0.000000 -0.154506
v 0.000000 0.000000 0.500000
v 0.293893 0.000000 0.404508
v -0.475529 0.000000 0.154506
v -0.293893 0.000000 0.404508
v -0.293893 0.000000 -0.404508
v -0.475529 0.000000 -0.154506
v 0.293893 0.000000 -0.404508
v 0.000000 0.000000 -0.500000
v 0.344095 0.262868 0.249998
v -0.131434 0.262869 0.404506
v -0.425324 0.262868 0.000000
v -0.131434 0.262869 -0.404506
v 0.344095 0.262868 -0.249998
v 0.081228 0.425327 0.249998
v 0.262865 0.425326 0.000000
v -0.212661 0.425327 0.154506
v -0.212661 0.425327 -0.154506
v 0.081228 0.425327 -0.249998
vt 0.932631 0.000097
vt 0.932631 0.999904
vt 0.000097 0.360641
vt 0.000097 0.999903
vt 0.000097 0.000097
vt 0.932620 0.639362
vt 0.999904 0.000097
vt 0.639366 0.932625
vt 0.999904 0.932624
vt 0.000097 0.932624
vt 0.639366 0.000097
vt 0.500000 0.729345
vt 0.360643 0.932653
vt 0.360629 0.932645
vt 0.000085 0.499986
vt 0.729344 0.000085
vt 0.729344 0.999915
vt 0.500007 0.000085
vt 0.999915 0.729356
vt 0.000085 0.729356
vt 0.500000 0.729360
vt 0.932617 0.639349
vt 0.932634 0.360652
vt 0.000097 0.639362
vt 0.865959 0.499989
vt 0.865950 0.000093
vt 0.865950 0.999907
vt 0.360647 0.000097
vt 0.000093 0.865964
vt 0.999907 0.865964
vt 0.865945 0.999907
vt 0.865946 0.000093
vt 0.729345 0.500014
vt 0.932653 0.000097
vt 0.932653 0.999903
vt 0.499993 0.865968
vt 0.639349 0.932634
vt 0.932624 0.360645
vt 0.999915 0.729347
vt 0.000085 0.729347
vt 0.360651 0.932631
vn 0.102400 -0.943500 0.315100
vn 0.700200 -0.661700 0.268000
vn -0.268000 -0.943500 0.194700
vn -0.268000 -0.943500 -0.194700
vn 0.102400 -0.943500 -0.315100
vn 0.905000 -0.330400 0.268000
vn 0.024700 -0.330400 0.943500
vn -0.889700 -0.330400 0.315100
vn -0.574600 -0.330400 -0.748800
vn 0.534600 -0.330400 -0.777900
vn 0.802600 -0.125600 0.583100
vn -0.306600 -0.125600 0.943500
vn -0.992100 -0.125600 0.000000
vn -0.306600 -0.125600 -0.943500
vn 0.802600 -0.125600 -0.583100
vn 0.408900 0.661700 0.628400
vn -0.471300 0.661700 0.583100
vn -0.700200 0.661700 -0.268000
vn 0.038500 0.661700 -0.748800
vn 0.724000 0.661700 -0.194700
vn 0.268000 0.943500 -0.194700
vn 0.491100 0.794700 -0.356800
vn 0.408900 0.661700 -0.628400
vn -0.102400 0.943500 -0.315100
vn -0.187600 0.794700 -0.577300
vn -0.471300 0.661700 -0.583100
vn -0.331300 0.943500 0.000000
vn -0.607100 0.794700 0.000000
vn -0.700200 0.661700 0.268000
vn -0.102400 0.943500 0.315100
vn -0.187600 0.794700 0.577300
vn 0.038500 0.661700 0.748800
vn 0.268000 0.943500 0.194700
vn 0.491100 0.794700 0.356800
vn 0.724000 0.661700 0.194700
vn 0.889700 0.330400 -0.315100
vn 0.794700 0.187600 -0.577300
vn 0.574600 0.330400 -0.748800
vn -0.024700 0.330400 -0.943500
vn -0.303500 0.187600 -0.934200
vn -0.534600 0.330400 -0.777900
vn -0.905000 0.330400 -0.268000
vn -0.982200 0.187600 0.000000
vn -0.905000 0.330400 0.268000
vn -0.534600 0.330400 0.777900
vn -0.303500 0.187600 0.934200
vn -0.024700 0.330400 0.943500
vn 0.574600 0.330400 0.748800
vn 0.794700 0.187600 0.577300
vn 0.889700 0.330400 0.315100
vn 0.306600 0.125600 -0.943500
vn 0.303500 -0.187600 -0.934200
vn 0.024700 -0.330400 -0.943500
vn -0.802600 0.125600 -0.583100
vn -0.794700 -0.187600 -0.577300
vn -0.889700 -0.330400 -0.315100
vn -0.802600 0.125600 0.583100
vn -0.794700 -0.187600 0.577300
vn -0.574600 -0.330400 0.748800
vn 0.306600 0.125600 0.943500
vn 0.303500 -0.187600 0.934200
vn 0.534600 -0.330400 0.777900
vn 0.992100 0.125600 0.000000
vn 0.982200 -0.187600 0.000000
vn 0.905000 -0.330400 -0.268000
vn 0.471300 -0.661700 -0.583100
vn 0.187600 -0.794700 -0.577300
vn -0.038500 -0.661700 -0.748800
vn -0.408900 -0.661700 -0.628400
vn -0.491100 -0.794700 -0.356800
vn -0.724000 -0.661700 -0.194700
vn -0.724000 -0.661700 0.194700
vn -0.491100 -0.794700 0.356800
vn -0.408900 -0.661700 0.628400
vn 0.700200 -0.661700 -0.268000
vn 0.607100 -0.794700 0.000000
vn 0.331300 -0.943500 0.000000
vn -0.038500 -0.661700 0.748800
vn 0.187600 -0.794700 0.577300
vn 0.471300 -0.661700 0.583100
s off
f 1/1/1 14/2/1 13/3/1
f 2/4/2 14/5/2 16/6/2
f 1/7/3 13/8/3 18/5/3
f 1/9/4 18/10/4 20/11/4
f 1/12/5 20/5/5 17/7/5
f 2/5/6 16/7/6 23/13/6
f 3/5/7 15/7/7 25/14/7
f 4/5/8 19/7/8 27/14/8
f 5/4/9 21/5/9 29/6/9
f 6/15/10 22/16/10 31/17/10
f 2/7/11 23/8/11 26/5/11
f 3/18/12 25/19/12 28/20/12
f 4/21/13 27/5/13 30/7/13
f 5/4/14 29/5/14 32/22/14
f 6/5/15 31/23/15 24/4/15
f 7/5/16 33/7/16 38/14/16
f 8/4/17 34/5/17 40/6/17
f 9/2/18 35/24/18 41/1/18
f 10/9/19 36/10/19 42/11/19
f 11/18/20 37/19/20 39/20/20
f 39/7/21 42/14/21 12/5/21
f 39/5/22 37/25/22 42/4/22
f 37/7/23 10/12/23 42/5/23
f 42/2/24 41/3/24 12/1/24
f 42/25/25 36/4/25 41/5/25
f 36/7/26 9/12/26 41/5/26
f 41/19/27 40/20/27 12/18/27
f 41/26/28 35/27/28 40/15/28
f 35/9/29 8/10/29 40/28/29
f 40/5/30 38/7/30 12/12/30
f 40/29/31 34/18/31 38/30/31
f 34/5/32 7/7/32 38/8/32
f 38/28/33 39/9/33 12/10/33
f 38/15/34 33/26/34 39/27/34
f 33/3/35 11/1/35 39/2/35
f 24/7/36 37/14/36 11/5/36
f 24/5/37 31/25/37 37/4/37
f 31/11/38 10/9/38 37/10/38
f 32/8/39 36/5/39 10/7/39
f 32/31/40 29/15/40 36/32/40
f 29/5/41 9/33/41 36/4/41
f 30/7/42 35/14/42 9/5/42
f 30/30/43 27/29/43 35/18/43
f 27/3/44 8/34/44 35/35/44
f 28/16/45 34/17/45 8/15/45
f 28/5/46 25/7/46 34/36/46
f 25/11/47 7/9/47 34/10/47
f 26/5/48 33/6/48 7/4/48
f 26/5/49 23/7/49 33/36/49
f 23/11/50 11/9/50 33/10/50
f 31/19/51 32/20/51 10/18/51
f 31/7/52 22/36/52 32/5/52
f 22/9/53 5/10/53 32/28/53
f 29/37/54 30/5/54 9/7/54
f 29/5/55 21/7/55 30/36/55
f 21/11/56 4/9/56 30/10/56
f 27/38/57 28/4/57 8/5/57
f 27/5/58 19/25/58 28/4/58
f 19/11/59 3/9/59 28/10/59
f 25/5/60 26/22/60 7/4/60
f 25/15/61 15/26/61 26/27/61
f 15/5/62 2/33/62 26/4/62
f 23/5/63 24/22/63 11/4/63
f 23/29/64 16/18/64 24/30/64
f 16/3/65 6/1/65 24/2/65
f 17/5/66 22/6/66 6/4/66
f 17/30/67 20/29/67 22/18/67
f 20/14/68 5/5/68 22/7/68
f 20/39/69 21/40/69 5/18/69
f 20/26/70 18/27/70 21/15/70
f 18/41/71 4/5/71 21/7/71
f 18/37/72 19/5/72 4/7/72
f 18/5/73 13/25/73 19/4/73
f 13/7/74 3/12/74 19/5/74
f 16/10/75 17/11/75 6/9/75
f 16/4/76 14/5/76 17/25/76
f 14/20/77 1/18/77 17/19/77
f 13/28/78 15/9/78 3/10/78
f 13/5/79 14/25/79 15/4/79
f 14/7/80 2/12/80 15/5/80
