# Blender v2.70 (sub 0) OBJ File: 'tank.blend'
# www.blender.org
o Cylinder.001
v -0.300000 0.375000 -0.050000
v -0.300000 0.375000 -0.450000
v 0.300000 0.375000 -0.450000
v 0.300000 0.375000 -0.050000
v -0.300000 0.675000 -0.050000
v -0.300000 0.675000 -0.450000
v 0.300000 0.675000 -0.450000
v 0.300000 0.675000 -0.050000
v -0.300000 1.325000 -0.050000
v -0.300000 1.325000 -0.450000
v 0.300000 1.325000 -0.450000
v 0.300000 1.325000 -0.050000
v -0.300000 1.625000 -0.050000
v -0.300000 1.625000 -0.450000
v 0.300000 1.625000 -0.450000
v 0.300000 1.625000 -0.050000
v 0.000000 0.950000 -0.500000
v 0.000000 1.050000 -0.500000
v 0.353553 0.950000 -0.353553
v 0.353553 1.050000 -0.353553
v 0.500000 0.950000 0.000000
v 0.500000 1.050000 0.000000
v 0.353553 0.950000 0.353553
v 0.353553 1.050000 0.353553
v -0.000000 0.950000 0.500000
v -0.000000 1.050000 0.500000
v -0.353553 0.950000 0.353553
v -0.353553 1.050000 0.353553
v -0.500000 0.950000 -0.000000
v -0.500000 1.050000 -0.000000
v -0.353553 0.950000 -0.353553
v -0.353553 1.050000 -0.353553
v 0.000000 1.900000 -0.500000
v 0.000000 2.000000 -0.500000
v 0.353553 1.900000 -0.353553
v 0.353553 2.000000 -0.353553
v 0.500000 1.900000 0.000000
v 0.500000 2.000000 0.000000
v 0.353553 1.900000 0.353553
v 0.353553 2.000000 0.353553
v -0.000000 1.900000 0.500000
v -0.000000 2.000000 0.500000
v -0.353553 1.900000 0.353553
v -0.353553 2.000000 0.353553
v -0.500000 1.900000 -0.000000
v -0.500000 2.000000 -0.000000
v -0.353553 1.900000 -0.353553
v -0.353553 2.000000 -0.353553
v 0.000000 0.000000 -0.500000
v 0.000000 0.100000 -0.500000
v 0.353553 0.000000 -0.353553
v 0.353553 0.100000 -0.353553
v 0.500000 0.000000 0.000000
v 0.500000 0.100000 0.000000
v 0.353553 0.000000 0.353553
v 0.353553 0.100000 0.353553
v -0.000000 0.000000 0.500000
v -0.000000 0.100000 0.500000
v -0.353553 0.000000 0.353553
v -0.353553 0.100000 0.353553
v -0.500000 0.000000 -0.000000
v -0.500000 0.100000 -0.000000
v -0.353553 0.000000 -0.353553
v -0.353553 0.100000 -0.353553
v 0.000000 -0.000000 -0.450000
v 0.000000 2.000000 -0.450000
v 0.318198 -0.000000 -0.318198
v 0.318198 2.000000 -0.318198
v 0.450000 -0.000000 0.000000
v 0.450000 2.000000 0.000000
v 0.318198 -0.000000 0.318198
v 0.318198 2.000000 0.318198
v -0.000000 -0.000000 0.450000
v -0.000000 2.000000 0.450000
v -0.318198 -0.000000 0.318198
v -0.318198 2.000000 0.318198
v -0.450000 -0.000000 -0.000000
v -0.450000 2.000000 -0.000000
v -0.318198 -0.000000 -0.318198
v -0.318198 2.000000 -0.318198
vt 0.077530 0.935610
vt 0.000000 0.935610
vt 0.000000 0.831653
vt 0.000000 0.519783
vt 0.077530 0.519783
vt 0.077530 0.675718
vt 0.961516 0.935610
vt 0.883986 0.935610
vt 0.883986 0.831653
vt 0.000000 0.675718
vt 0.077530 0.831653
vt 0.806456 0.675718
vt 0.806456 0.519783
vt 0.909829 0.519783
vt 0.225559 0.915826
vt 0.225559 0.759892
vt 0.328933 0.759892
vt 0.896627 0.279675
vt 0.974157 0.279675
vt 0.974157 0.383631
vt 0.090171 0.759892
vt 0.167701 0.759892
vt 0.167701 0.915826
vt 0.806456 0.935609
vt 0.806456 0.831653
vt 0.567694 0.915827
vt 0.490164 0.915827
vt 0.490164 0.759892
vt 0.328933 0.915826
vt 0.432306 0.759892
vt 0.909829 0.675718
vt 0.909829 0.583832
vt 0.909829 0.491947
vt 0.935673 0.491947
vt 0.193544 0.759892
vt 0.193544 0.851777
vt 0.167701 0.851777
vt 0.193544 0.943663
vt 0.167701 0.943663
vt 0.896627 0.187789
vt 0.922470 0.187789
vt 0.896627 0.095904
vt 0.922470 0.095904
vt 0.219388 0.851777
vt 0.806456 0.590109
vt 0.806456 0.689565
vt 0.736524 0.759892
vt 0.935673 0.583832
vt 0.219388 0.759892
vt 0.736524 1.000000
vt 0.637626 0.759892
vt 0.806456 0.929674
vt 0.961516 0.583832
vt 0.961516 0.491947
vt 0.987359 0.491947
vt 0.961516 0.859489
vt 0.961516 0.767604
vt 0.987359 0.767604
vt 0.961516 0.675718
vt 0.987359 0.675718
vt 0.974157 0.095904
vt 0.974157 0.187789
vt 0.948313 0.187789
vt 0.948313 0.279675
vt 0.974157 0.463446
vt 0.974157 0.371560
vt 1.000000 0.371560
vt 0.896627 0.350001
vt 0.896627 0.449457
vt 0.826695 0.519783
vt 0.987359 0.583832
vt 1.000000 0.279675
vt 0.160103 0.759892
vt 0.259001 0.519783
vt 0.259001 0.759892
vt 0.922470 0.279675
vt 0.458149 0.759892
vt 0.458149 0.851777
vt 0.432306 0.851777
vt 0.458149 0.943663
vt 0.432306 0.943663
vt 0.464321 0.943663
vt 0.464321 0.851777
vt 0.490164 0.851777
vt 0.464321 0.759892
vt 0.826695 0.240108
vt 0.727797 0.000000
vt 0.896627 0.169782
vt 0.948313 0.095904
vt 0.935673 0.675718
vt 0.398864 0.759892
vt 0.497762 0.519783
vt 0.497763 0.759892
vt 0.082232 -0.000000
vt 0.082234 0.519783
vt 0.000001 0.519783
vt 0.575632 0.519783
vt 0.493399 0.519783
vt 0.493398 0.000000
vt 0.657865 -0.000000
vt 0.657865 0.519783
vt 0.411166 0.519783
vt 0.411166 0.000000
vt 0.328933 0.519783
vt 0.328932 0.000000
vt 0.246699 0.519783
vt 0.164466 0.000000
vt 0.164466 0.519783
vt 0.082233 0.519783
vt 0.246699 0.000000
vt 0.961516 0.831653
vt 0.896627 0.383631
vt 0.090171 0.915826
vt 0.567694 0.759892
vt 0.432306 0.915826
vt 0.909829 0.831653
vt 0.219388 0.943663
vt 0.567694 0.689565
vt 0.637626 0.519783
vt 0.567694 0.590109
vt 0.736524 0.519783
vt 0.637626 1.000000
vt 0.567694 0.929674
vt 0.567694 0.830218
vt 0.806456 0.830218
vt 0.987359 0.859489
vt 1.000000 0.463446
vt 0.727797 0.519783
vt 0.657865 0.449457
vt 0.657865 0.350001
vt 0.727797 0.279675
vt 0.826695 0.279675
vt 0.090171 0.689565
vt 0.090171 0.590109
vt 0.160103 0.519783
vt 0.328932 0.590109
vt 0.328933 0.689565
vt 0.490164 0.943663
vt 0.727797 0.240108
vt 0.657865 0.169782
vt 0.657865 0.070326
vt 0.826695 0.000000
vt 0.896627 0.070326
vt 0.328933 0.590109
vt 0.398864 0.519783
vt -0.000001 0.000000
vt 0.575632 -0.000000
vt 0.493399 0.000000
vt 0.328933 0.000000
vt 0.082233 0.000000
vn -1.000000 0.000000 0.000000
vn 0.000000 0.000000 -1.000000
vn 1.000000 0.000000 0.000000
vn 0.000000 0.000000 1.000000
vn 0.000000 -1.000000 0.000000
vn 0.000000 1.000000 0.000000
vn 0.382684 0.000000 -0.923880
vn 0.923880 0.000000 -0.382683
vn 0.923880 0.000000 0.382683
vn 0.382683 0.000000 0.923880
vn -0.382684 0.000000 0.923880
vn -0.923880 0.000000 0.382683
vn -0.382684 0.000000 -0.923880
vn -0.923880 0.000000 -0.382683
vn 0.382683 0.000000 -0.923880
vn -0.382683 0.000000 0.923880
vn 0.000000 1.000000 0.000001
vn 0.000000 -1.000000 0.000001
vn -0.382684 0.000000 -0.923879
vn 0.382684 0.000000 0.923880
vn 0.000000 1.000000 -0.000001
vn 0.923879 0.000000 -0.382684
vn 0.923879 0.000000 0.382684
vn -0.923879 0.000000 0.382684
vn -0.382683 0.000000 -0.923880
vn -0.923879 0.000000 -0.382684
vn 0.000000 -1.000000 -0.000001
vn 0.923880 0.000000 0.382684
vn -0.382684 0.000000 0.923879
s off
f 6/1/1 2/2/1 1/3/1
f 7/4/2 3/5/2 2/6/2
f 8/7/3 4/8/3 3/9/3
f 5/10/4 1/6/4 4/11/4
f 2/12/5 3/13/5 4/14/5
f 7/15/6 6/16/6 5/17/6
f 14/18/1 10/19/1 9/20/1
f 15/21/2 11/22/2 10/23/2
f 16/8/3 12/24/3 11/25/3
f 13/26/4 9/27/4 12/28/4
f 10/29/5 11/17/5 12/30/5
f 15/25/6 14/12/6 13/31/6
f 18/32/7 20/33/7 19/34/7
f 20/35/8 22/36/8 21/37/8
f 22/36/9 24/38/9 23/39/9
f 24/18/10 26/40/10 25/41/10
f 26/40/11 28/42/11 27/43/11
f 28/38/12 30/36/12 29/44/12
f 26/45/6 24/46/6 22/47/6
f 32/31/13 18/32/13 17/48/13
f 30/36/14 32/35/14 31/49/14
f 31/50/5 23/51/5 29/52/5
f 34/53/15 36/54/15 35/55/15
f 36/56/8 38/57/8 37/58/8
f 38/57/9 40/59/9 39/60/9
f 40/61/10 42/62/10 41/63/10
f 42/62/16 44/19/16 43/64/16
f 44/65/12 46/66/12 45/67/12
f 42/68/17 40/69/17 38/70/17
f 48/59/13 34/53/13 33/71/13
f 46/66/14 48/19/14 47/72/14
f 47/73/18 39/74/18 45/75/18
f 50/63/15 52/64/15 51/76/15
f 52/77/8 54/78/8 53/79/8
f 54/78/9 56/80/9 55/81/9
f 56/82/10 58/83/10 57/84/10
f 58/83/11 60/85/11 59/28/11
f 60/54/12 62/53/12 61/48/12
f 54/86/6 62/87/6 56/88/6
f 64/89/13 50/63/13 49/41/13
f 62/53/14 64/59/14 63/90/14
f 63/91/5 55/92/5 61/93/5
f 65/94/15 66/95/15 68/96/15
f 68/97/8 70/98/8 69/99/8
f 69/100/9 70/101/9 72/97/9
f 72/98/10 74/102/10 73/103/10
f 73/103/16 74/102/16 76/104/16
f 75/105/12 76/104/12 78/106/12
f 79/107/19 80/108/19 66/109/19
f 77/110/14 78/106/14 80/108/14
f 5/11/1 6/1/1 1/3/1
f 6/10/2 7/4/2 2/6/2
f 7/111/3 8/7/3 3/9/3
f 8/3/4 5/10/4 4/11/4
f 1/31/5 2/12/5 4/14/5
f 8/29/6 7/15/6 5/17/6
f 13/112/1 14/18/1 9/20/1
f 14/113/2 15/21/2 10/23/2
f 15/9/3 16/8/3 11/25/3
f 16/114/4 13/26/4 12/28/4
f 9/115/5 10/29/5 12/30/5
f 16/116/6 15/25/6 13/31/6
f 17/48/15 18/32/15 19/34/15
f 19/22/8 20/35/8 21/37/8
f 21/37/9 22/36/9 23/39/9
f 23/76/20 24/18/20 25/41/20
f 25/41/11 26/40/11 27/43/11
f 27/117/12 28/38/12 29/44/12
f 18/118/6 30/119/6 20/51/6
f 18/118/6 32/120/6 30/119/6
f 30/119/21 28/121/21 26/45/21
f 31/90/13 32/31/13 17/48/13
f 29/44/14 30/36/14 31/49/14
f 30/119/6 26/45/6 22/47/6
f 30/119/6 22/47/6 20/51/6
f 31/50/5 17/122/5 19/123/5
f 19/123/5 21/124/5 23/51/5
f 23/51/5 25/47/5 27/125/5
f 33/71/15 34/53/15 35/55/15
f 31/50/5 19/123/5 23/51/5
f 35/126/22 36/56/22 37/58/22
f 23/51/5 27/125/5 29/52/5
f 37/58/23 38/57/23 39/60/23
f 39/89/10 40/61/10 41/63/10
f 41/63/11 42/62/11 43/64/11
f 43/127/24 44/65/24 45/67/24
f 38/70/6 36/128/6 34/129/6
f 34/129/6 48/130/6 46/131/6
f 46/131/6 44/132/6 42/68/6
f 47/60/25 48/59/25 33/71/25
f 38/70/6 34/129/6 46/131/6
f 46/131/6 42/68/6 38/70/6
f 45/67/26 46/66/26 47/72/26
f 47/73/5 33/133/5 35/134/5
f 35/134/5 37/135/5 39/74/5
f 39/74/5 41/136/5 43/137/5
f 49/41/15 50/63/15 51/76/15
f 47/73/5 35/134/5 39/74/5
f 51/30/8 52/77/8 53/79/8
f 39/74/27 43/137/27 45/75/27
f 53/79/9 54/78/9 55/81/9
f 55/138/10 56/82/10 57/84/10
f 57/84/11 58/83/11 59/28/11
f 59/34/12 60/54/12 61/48/12
f 54/86/6 52/139/6 50/140/6
f 50/140/6 64/141/6 62/87/6
f 62/87/6 60/142/6 58/143/6
f 63/43/13 64/89/13 49/41/13
f 54/86/6 50/140/6 62/87/6
f 61/48/14 62/53/14 63/90/14
f 62/87/6 58/143/6 56/88/6
f 63/91/5 49/137/5 51/144/5
f 51/144/5 53/145/5 55/92/5
f 55/92/5 57/120/5 59/118/5
f 67/146/15 65/94/15 68/96/15
f 63/91/5 51/144/5 55/92/5
f 67/147/8 68/97/8 69/99/8
f 55/92/5 59/118/5 61/93/5
f 71/147/28 69/100/28 72/97/28
f 71/148/10 72/98/10 73/103/10
f 75/149/29 73/103/29 76/104/29
f 77/110/12 75/105/12 78/106/12
f 65/150/25 79/107/25 66/109/25
f 79/107/14 77/110/14 80/108/14
