# Blender v2.70 (sub 0) OBJ File: ''
# www.blender.org
o Cube
v 0.500000 0.000000 -0.500000
v 0.500000 0.000000 0.500000
v -0.500000 0.000000 0.500000
v -0.500000 0.000000 -0.500000
v 0.500000 3.000000 -0.500000
v 0.500000 3.000000 0.500000
v -0.500000 3.000000 0.500000
v -0.500000 3.000000 -0.500000
v 0.000000 0.750000 -0.250000
v 0.500000 2.250000 -0.500000
v 0.500000 2.250000 0.500000
v 0.500000 0.750000 -0.500000
v 0.500000 0.750000 0.500000
v -0.000000 0.750000 0.250000
v -0.000000 2.250000 0.250000
v 0.500000 2.250000 0.250000
v 0.500000 0.750000 0.250000
v 0.500000 0.750000 -0.250000
v 0.500000 2.250000 -0.250000
v 0.000000 2.250000 -0.250000
vt 0.666667 0.400000
vt 1.000000 0.400000
vt 1.000000 0.800000
vt 1.000000 0.000000
vt 0.333333 0.400000
vt 0.333333 0.000000
vt 0.666667 0.000000
vt 0.333333 0.500000
vt 0.083333 0.300000
vt 0.083333 0.400000
vt 0.000000 0.400000
vt 0.250000 0.400000
vt 0.250000 0.300000
vt 0.666667 0.800000
vt 0.833333 0.800000
vt 0.833333 1.000000
vt 0.000000 0.800000
vt 0.166667 0.800000
vt 0.166667 1.000000
vt 0.333333 0.800000
vt 0.250000 0.000000
vt 0.250000 0.100000
vt 0.083333 0.100000
vt 0.500000 0.800000
vt 0.666667 1.000000
vt 0.500000 1.000000
vt 0.000000 0.000000
vt 0.333333 0.700000
vt 0.000000 1.000000
vt 0.083333 0.000000
vt 0.333333 1.000000
vn 0.000000 -1.000000 0.000000
vn 0.000000 1.000000 0.000000
vn -1.000000 -0.000000 -0.000000
vn -0.000000 -0.000000 1.000000
vn 1.000000 0.000000 0.000000
vn 0.000000 0.000000 -1.000000
vn 1.000000 0.000000 0.000001
s off
f 1/1/1 2/2/1 3/3/1
f 7/4/2 6/2/2 5/1/2
f 7/5/3 8/6/3 4/7/3
f 11/8/4 6/5/4 7/1/4
f 17/9/5 13/10/5 2/11/5
f 6/5/5 11/12/5 16/13/5
f 20/14/5 15/15/5 14/16/5
f 17/17/6 14/18/6 15/19/6
f 1/5/6 4/20/6 12/12/6
f 10/21/5 19/22/5 18/23/5
f 17/9/5 16/13/5 11/12/5
f 19/19/4 20/18/4 9/20/4
f 19/24/1 16/14/1 15/25/1
f 17/20/2 18/24/2 9/26/2
f 4/14/1 1/1/1 3/3/1
f 8/7/2 7/4/2 5/1/2
f 3/1/3 7/5/3 4/7/3
f 17/9/5 1/27/5 18/23/5
f 11/8/4 3/14/4 13/28/4
f 9/25/5 20/14/5 14/16/5
f 3/14/4 2/20/4 13/28/4
f 11/8/4 7/1/4 3/14/4
f 16/29/6 17/17/6 15/19/6
f 1/27/5 12/30/5 18/23/5
f 17/9/5 2/11/5 1/27/5
f 5/6/7 6/5/7 16/13/7
f 19/22/5 10/21/5 5/6/5
f 19/22/5 5/6/5 16/13/5
f 8/17/6 10/10/6 4/20/6
f 8/17/6 5/11/6 10/10/6
f 12/30/5 10/21/5 18/23/5
f 4/20/6 10/10/6 12/12/6
f 13/10/5 17/9/5 11/12/5
f 18/31/4 19/19/4 9/20/4
f 20/26/1 19/24/1 15/25/1
f 14/31/2 17/20/2 9/26/2
