# Blender v2.76 (sub 0) OBJ File: 'turret_heavy_gun.blend'
# www.blender.org
o Cylinder.001
v 0.000000 0.100000 0.500000
v 0.000000 0.100000 1.750000
v 0.070711 0.070711 0.500000
v 0.070711 0.070711 1.750000
v 0.100000 -0.000000 0.500000
v 0.100000 0.000000 1.750000
v 0.070711 -0.070711 0.500000
v 0.070711 -0.070711 1.750000
v -0.000000 -0.100000 0.500000
v -0.000000 -0.100000 1.750000
v -0.070711 -0.070711 0.500000
v -0.070711 -0.070711 1.750000
v -0.100000 -0.000000 0.500000
v -0.100000 0.000000 1.750000
v -0.070711 0.070711 0.500000
v -0.070711 0.070711 1.750000
v -0.200000 -0.250000 0.250000
v -0.200000 0.250000 0.250000
v -0.200000 -0.100000 -0.750000
v -0.200000 0.200000 -0.750000
v 0.200000 -0.250000 0.250000
v 0.200000 0.250000 0.250000
v 0.200000 -0.100000 -0.750000
v 0.200000 0.200000 -0.750000
v -0.200000 0.250000 -0.250000
v -0.200000 -0.250000 -0.250000
v 0.200000 0.250000 -0.250000
v 0.200000 -0.250000 -0.250000
v 0.000000 0.150000 0.500000
v 0.106066 0.106066 0.500000
v 0.150000 -0.000000 0.500000
v 0.106066 -0.106066 0.500000
v -0.000000 -0.150000 0.500000
v -0.106066 -0.106066 0.500000
v -0.150000 -0.000000 0.500000
v -0.106066 0.106066 0.500000
v 0.106066 0.106066 0.250000
v 0.150000 -0.000000 0.250000
v 0.000000 0.150000 0.250000
v 0.106066 -0.106066 0.250000
v -0.000000 -0.150000 0.250000
v -0.106066 -0.106066 0.250000
v -0.150000 -0.000000 0.250000
v -0.106066 0.106066 0.250000
v -0.074375 -0.131250 2.250000
v -0.148750 0.131250 2.250000
v -0.074375 -0.131250 1.750000
v -0.148750 0.131250 1.750000
v 0.074375 -0.131250 2.250000
v 0.148750 0.131250 2.250000
v 0.074375 -0.131250 1.750000
v 0.148750 0.131250 1.750000
v 0.000000 0.075000 1.750000
v 0.000000 0.075000 2.250000
v 0.053033 0.053033 1.750000
v 0.053033 0.053033 2.250000
v 0.075000 -0.000000 1.750000
v 0.075000 0.000000 2.250000
v 0.053033 -0.053033 1.750000
v 0.053033 -0.053033 2.250000
v -0.000000 -0.075000 1.750000
v -0.000000 -0.075000 2.250000
v -0.053033 -0.053033 1.750000
v -0.053033 -0.053033 2.250000
v -0.075000 -0.000000 1.750000
v -0.075000 0.000000 2.250000
v -0.053033 0.053033 1.750000
v -0.053033 0.053033 2.250000
v -0.375000 0.000000 -0.100000
v 0.375000 0.000000 -0.100000
v -0.375000 -0.070711 -0.070711
v 0.375000 -0.070711 -0.070711
v -0.375000 -0.100000 0.000000
v 0.375000 -0.100000 0.000000
v -0.375000 -0.070711 0.070711
v 0.375000 -0.070711 0.070711
v -0.375000 0.000000 0.100000
v 0.375000 0.000000 0.100000
v -0.375000 0.070711 0.070711
v 0.375000 0.070711 0.070711
v -0.375000 0.100000 -0.000000
v 0.375000 0.100000 -0.000000
v -0.375000 0.070711 -0.070711
v 0.375000 0.070711 -0.070711
v -0.250000 -0.250000 -0.400000
v -0.250000 0.150000 -0.400000
v -0.250000 -0.250000 -0.500000
v -0.250000 0.150000 -0.500000
v 0.250000 -0.250000 -0.400000
v 0.250000 0.150000 -0.400000
v 0.250000 -0.250000 -0.500000
v 0.250000 0.150000 -0.500000
v -0.075000 0.200000 0.100000
v -0.075000 0.319533 0.098137
v -0.075000 0.200000 -0.400000
v -0.075000 0.380467 -0.398137
v 0.075000 0.200000 0.100000
v 0.075000 0.319533 0.098137
v 0.075000 0.200000 -0.400000
v 0.075000 0.380467 -0.398137
v -0.075000 0.438402 0.110854
v -0.075000 0.559362 -0.374294
v 0.075000 0.559362 -0.374294
v 0.075000 0.438402 0.110854
v -0.075000 0.554834 0.137964
v -0.075000 0.734018 -0.328826
v 0.075000 0.734018 -0.328826
v 0.075000 0.554834 0.137964
vt 0.433336 0.891529
vt 0.433336 0.871043
vt 0.767919 0.871043
vt 0.433336 0.850557
vt 0.767919 0.850557
vt 0.433336 0.830070
vt 0.767919 0.830070
vt 0.433336 0.809584
vt 0.767919 0.809584
vt 0.433337 0.973475
vt 0.433337 0.952988
vt 0.767919 0.952988
vt 0.433336 0.932502
vt 0.767919 0.932502
vt 0.433336 0.912016
vt 0.767919 0.891529
vt 0.767919 0.912015
vt 0.880596 0.024656
vt 0.892961 0.019535
vt 0.892961 0.050264
vt 0.880596 0.198789
vt 0.880596 0.178303
vt 0.892961 0.173182
vt 0.260434 0.695260
vt 0.260434 0.775560
vt 0.153367 0.775559
vt 0.892961 0.111723
vt 0.959877 0.111723
vt 0.959877 0.142452
vt 0.153368 0.426926
vt 0.153368 0.293093
vt 0.260434 0.293093
vt 0.153368 0.019535
vt 0.260434 0.019535
vt 0.260434 0.159260
vt 0.153367 0.695260
vt 0.153368 0.560759
vt 0.260434 0.560759
vt 0.153368 0.159260
vt 0.260434 0.426926
vt 0.394267 0.560759
vt 0.059684 0.694592
vt 0.019535 0.560759
vt 0.880596 0.106601
vt 0.880596 0.086115
vt 0.892961 0.080993
vt 0.880596 0.239762
vt 0.892961 0.234640
vt 0.892961 0.265370
vt 0.880596 0.168060
vt 0.880596 0.147574
vt 0.892961 0.142452
vt 0.880596 0.116844
vt 0.880596 0.055386
vt 0.880596 0.209033
vt 0.892961 0.203911
vt 0.959877 0.173182
vt 0.959877 0.234640
vt 0.959877 0.265370
vt 0.959877 0.050264
vt 0.959877 0.080993
vt 0.959877 0.203911
vt 0.959877 0.019535
vt 0.637432 0.148299
vt 0.567169 0.168207
vt 0.530686 0.039442
vt 0.637432 0.227930
vt 0.567169 0.208022
vt 0.600948 0.356694
vt 0.530686 0.336786
vt 0.433336 0.208022
vt 0.771265 0.148299
vt 0.806396 0.208189
vt 0.771265 0.227929
vt 0.792201 0.202309
vt 0.393186 0.829994
vt 0.259353 0.829994
vt 0.259353 0.814629
vt 0.786321 0.188114
vt 0.792201 0.173919
vt 0.393186 0.845358
vt 0.259353 0.845358
vt 0.806396 0.168039
vt 0.393186 0.860723
vt 0.259353 0.860723
vt 0.820591 0.202309
vt 0.841527 0.208022
vt 0.393186 0.876088
vt 0.259353 0.876088
vt 0.826471 0.188114
vt 0.393186 0.891452
vt 0.259353 0.891453
vt 0.841527 0.168206
vt 0.393186 0.906817
vt 0.259353 0.906817
vt 0.820591 0.173919
vt 0.393186 0.922182
vt 0.393186 0.937547
vt 0.259353 0.937547
vt 0.259353 0.922182
vt 0.220284 0.937547
vt 0.220284 0.958033
vt 0.019535 0.958033
vt 0.220284 0.978519
vt 0.019535 0.978519
vt 0.220284 0.814629
vt 0.220284 0.835115
vt 0.019535 0.835115
vt 0.220284 0.855602
vt 0.019535 0.855602
vt 0.220284 0.876088
vt 0.019535 0.876088
vt 0.220284 0.896574
vt 0.019535 0.896574
vt 0.220284 0.917060
vt 0.019535 0.937547
vt 0.019535 0.917060
vt 0.819866 0.422530
vt 0.819866 0.529596
vt 0.793099 0.529596
vt 0.953699 0.422530
vt 0.953699 0.529596
vt 0.980465 0.422530
vt 0.980465 0.529596
vt 0.819866 0.663429
vt 0.819866 0.556363
vt 0.953699 0.556363
vt 0.819866 0.395763
vt 0.676377 0.687137
vt 0.708754 0.557280
vt 0.754030 0.574125
vt 0.573608 0.444071
vt 0.573608 0.395763
vt 0.613758 0.395763
vt 0.510989 0.687137
vt 0.481298 0.699069
vt 0.433336 0.574125
vt 0.613758 0.738516
vt 0.613758 0.770515
vt 0.573608 0.770515
vt 0.613758 0.444071
vt 0.613758 0.492378
vt 0.573608 0.492378
vt 0.573608 0.706517
vt 0.573608 0.674519
vt 0.613758 0.674519
vt 0.478612 0.557280
vt 0.525602 0.546078
vt 0.541913 0.678913
vt 0.645454 0.678913
vt 0.573608 0.738516
vt 0.613758 0.706517
vt 0.573608 0.540686
vt 0.613758 0.540686
vt 0.661764 0.546078
vt 0.767919 0.973474
vt 0.880596 0.045142
vt 0.354117 0.694592
vt 0.273817 0.694592
vt 0.394267 0.426926
vt 0.019535 0.426926
vt 0.139984 0.694592
vt 0.880596 0.260248
vt 0.880596 0.137331
vt 0.880596 0.075872
vt 0.880596 0.229519
vt 0.600948 0.019535
vt 0.433336 0.168207
vt 0.393186 0.814629
vt 0.019535 0.814629
vt 0.793099 0.422530
vt 0.953699 0.663429
vt 0.953699 0.395763
vt 0.706068 0.699069
vn 0.382700 0.923900 -0.000000
vn 0.923900 0.382700 -0.000000
vn 0.923900 -0.382700 0.000000
vn 0.382700 -0.923900 0.000000
vn -0.382700 -0.923900 0.000000
vn -0.923900 -0.382700 0.000000
vn -0.382700 0.923900 -0.000000
vn -0.923900 0.382700 -0.000000
vn 0.000000 0.000000 1.000000
vn 0.000000 0.000000 -1.000000
vn 0.000000 -0.957800 -0.287300
vn 0.000000 0.995000 -0.099500
vn 0.000000 1.000000 0.000000
vn 0.000000 -1.000000 0.000000
vn 1.000000 0.000000 0.000000
vn -1.000000 0.000000 0.000000
vn -0.962100 -0.272600 0.000000
vn 0.962100 -0.272600 0.000000
vn 0.000000 -0.382700 -0.923900
vn 0.000000 -0.923900 -0.382700
vn 0.000000 -0.923900 0.382700
vn 0.000000 -0.382700 0.923900
vn -0.000000 0.382700 0.923900
vn -0.000000 0.923900 0.382700
vn 0.000000 0.382700 -0.923900
vn -0.000000 0.923900 -0.382700
vn 0.000000 0.010300 -0.999900
vn 0.000000 0.015600 0.999900
vn 0.000000 0.132100 -0.991200
vn 0.000000 -0.226800 0.973900
vn 0.000000 -0.106400 0.994300
vn 0.000000 0.933600 0.358400
vn 0.000000 0.251900 -0.967700
s off
f 2/1/1 4/2/1 3/3/1
f 4/2/2 6/4/2 5/5/2
f 6/4/3 8/6/3 7/7/3
f 8/6/4 10/8/4 9/9/4
f 10/10/5 12/11/5 11/12/5
f 12/11/6 14/13/6 13/14/6
f 16/15/7 2/1/7 1/16/7
f 14/13/8 16/15/8 15/17/8
f 9/18/9 33/19/9 32/20/9
f 13/21/9 15/22/9 36/23/9
f 24/24/10 23/25/10 19/26/10
f 30/27/1 37/28/1 39/29/1
f 18/30/9 17/31/9 21/32/9
f 19/33/11 23/34/11 28/35/11
f 24/24/12 20/36/12 25/37/12
f 27/38/13 25/37/13 18/30/13
f 26/39/14 28/35/14 21/32/14
f 27/38/15 22/40/15 28/41/15
f 25/37/16 19/42/16 26/43/16
f 3/44/9 5/45/9 31/46/9
f 11/47/9 34/48/9 33/49/9
f 15/50/9 1/51/9 29/52/9
f 3/53/9 30/27/9 29/52/9
f 7/54/9 32/20/9 31/46/9
f 13/55/9 35/56/9 34/48/9
f 35/56/8 36/23/8 44/57/8
f 34/48/5 42/58/5 41/59/5
f 32/20/3 40/60/3 38/61/3
f 31/46/2 38/61/2 37/28/2
f 29/52/7 39/29/7 44/57/7
f 34/48/6 35/56/6 43/62/6
f 33/19/4 41/63/4 40/60/4
f 48/64/17 47/65/17 45/66/17
f 52/67/10 51/68/10 47/65/10
f 50/69/18 49/70/18 51/68/18
f 47/65/14 51/68/14 49/71/14
f 52/67/13 48/64/13 46/72/13
f 58/73/9 50/74/9 56/75/9
f 55/76/5 56/77/5 54/78/5
f 54/79/9 46/72/9 68/80/9
f 57/81/6 58/82/6 56/77/6
f 68/80/9 46/72/9 66/83/9
f 59/84/8 60/85/8 58/82/8
f 58/73/9 60/86/9 49/87/9
f 61/88/7 62/89/7 60/85/7
f 60/86/9 62/90/9 49/87/9
f 63/91/1 64/92/1 62/89/1
f 50/74/9 46/72/9 54/79/9
f 45/93/9 49/87/9 62/90/9
f 65/94/2 66/95/2 64/92/2
f 62/90/9 64/96/9 45/93/9
f 67/97/4 53/98/4 54/99/4
f 67/97/3 68/100/3 66/95/3
f 56/75/9 50/74/9 54/79/9
f 45/93/9 64/96/9 66/83/9
f 70/101/19 72/102/19 71/103/19
f 72/102/20 74/104/20 73/105/20
f 74/106/21 76/107/21 75/108/21
f 76/107/22 78/109/22 77/110/22
f 78/109/23 80/111/23 79/112/23
f 80/111/24 82/113/24 81/114/24
f 84/115/25 70/101/25 69/116/25
f 82/113/26 84/115/26 83/117/26
f 88/118/16 87/119/16 85/120/16
f 92/121/10 91/122/10 87/119/10
f 90/123/15 89/124/15 91/122/15
f 86/125/9 85/126/9 89/127/9
f 87/119/14 91/122/14 89/127/14
f 92/121/13 88/118/13 86/128/13
f 94/129/16 96/130/16 95/131/16
f 100/132/27 99/133/27 95/134/27
f 98/135/15 97/136/15 99/137/15
f 94/138/28 93/139/28 97/140/28
f 96/141/29 102/142/29 103/143/29
f 104/144/30 108/145/30 105/146/30
f 100/147/15 103/148/15 104/149/15
f 96/130/16 94/129/16 101/150/16
f 98/151/31 104/144/31 101/152/31
f 107/153/32 106/154/32 105/146/32
f 102/142/33 106/154/33 107/153/33
f 103/148/15 107/153/15 108/145/15
f 102/155/16 101/150/16 105/146/16
f 1/16/1 2/1/1 3/3/1
f 3/3/2 4/2/2 5/5/2
f 5/5/3 6/4/3 7/7/3
f 7/7/4 8/6/4 9/9/4
f 9/156/5 10/10/5 11/12/5
f 11/12/6 12/11/6 13/14/6
f 15/17/7 16/15/7 1/16/7
f 13/14/8 14/13/8 15/17/8
f 7/157/9 9/18/9 32/20/9
f 35/56/9 13/21/9 36/23/9
f 20/36/10 24/24/10 19/26/10
f 29/52/1 30/27/1 39/29/1
f 22/40/9 18/30/9 21/32/9
f 26/39/11 19/33/11 28/35/11
f 27/38/12 24/24/12 25/37/12
f 22/40/13 27/38/13 18/30/13
f 17/31/14 26/39/14 21/32/14
f 28/41/15 23/158/15 27/38/15
f 24/159/15 27/38/15 23/158/15
f 22/40/15 21/160/15 28/41/15
f 26/43/16 17/161/16 18/30/16
f 18/30/16 25/37/16 26/43/16
f 20/162/16 19/42/16 25/37/16
f 30/27/9 3/44/9 31/46/9
f 9/163/9 11/47/9 33/49/9
f 36/23/9 15/50/9 29/52/9
f 1/164/9 3/53/9 29/52/9
f 5/165/9 7/54/9 31/46/9
f 11/166/9 13/55/9 34/48/9
f 43/62/8 35/56/8 44/57/8
f 33/49/5 34/48/5 41/59/5
f 31/46/3 32/20/3 38/61/3
f 30/27/2 31/46/2 37/28/2
f 36/23/7 29/52/7 44/57/7
f 42/58/6 34/48/6 43/62/6
f 32/20/4 33/19/4 40/60/4
f 46/167/17 48/64/17 45/66/17
f 48/64/10 52/67/10 47/65/10
f 52/67/18 50/69/18 51/68/18
f 45/168/14 47/65/14 49/71/14
f 50/74/13 52/67/13 46/72/13
f 53/169/5 55/76/5 54/78/5
f 55/76/6 57/81/6 56/77/6
f 57/81/8 59/84/8 58/82/8
f 50/74/9 58/73/9 49/87/9
f 59/84/7 61/88/7 60/85/7
f 61/88/1 63/91/1 62/89/1
f 63/91/2 65/94/2 64/92/2
f 68/100/4 67/97/4 54/99/4
f 65/94/3 67/97/3 66/95/3
f 46/72/9 45/93/9 66/83/9
f 69/116/19 70/101/19 71/103/19
f 71/103/20 72/102/20 73/105/20
f 73/170/21 74/106/21 75/108/21
f 75/108/22 76/107/22 77/110/22
f 77/110/23 78/109/23 79/112/23
f 79/112/24 80/111/24 81/114/24
f 83/117/25 84/115/25 69/116/25
f 81/114/26 82/113/26 83/117/26
f 86/171/16 88/118/16 85/120/16
f 88/118/10 92/121/10 87/119/10
f 92/121/15 90/123/15 91/122/15
f 90/172/9 86/125/9 89/127/9
f 85/126/14 87/119/14 89/127/14
f 90/173/13 92/121/13 86/128/13
f 93/174/16 94/129/16 95/131/16
f 96/141/27 100/132/27 95/134/27
f 100/147/15 98/135/15 99/137/15
f 98/151/28 94/138/28 97/140/28
f 100/132/29 96/141/29 103/143/29
f 101/152/30 104/144/30 105/146/30
f 98/135/15 100/147/15 104/149/15
f 102/155/16 96/130/16 101/150/16
f 94/138/31 98/151/31 101/152/31
f 108/145/32 107/153/32 105/146/32
f 103/143/33 102/142/33 107/153/33
f 104/149/15 103/148/15 108/145/15
f 106/154/16 102/155/16 105/146/16
