# Blender v2.76 (sub 0) OBJ File: 'turret_rocket_gun.blend'
# www.blender.org
o Cylinder.001
v 0.130000 0.200000 -0.500000
v 0.130000 -0.200000 -0.500000
v 0.130000 0.200000 1.250000
v 0.130000 -0.200000 1.250000
v -0.130000 0.200000 -0.500000
v -0.130000 -0.200000 -0.500000
v -0.130000 0.200000 1.250000
v -0.130000 -0.200000 1.250000
v 0.200000 0.130000 -0.500000
v 0.200000 -0.130000 -0.500000
v 0.200000 0.130000 1.250000
v 0.200000 -0.130000 1.250000
v -0.200000 0.130000 -0.500000
v -0.200000 -0.130000 -0.500000
v -0.200000 0.130000 1.250000
v -0.200000 -0.130000 1.250000
v -0.075000 -0.012500 0.250000
v -0.075000 -0.012500 1.250000
v -0.030806 -0.030806 0.250000
v -0.030806 -0.030806 1.250000
v -0.012500 -0.075000 0.250000
v -0.012500 -0.075000 1.250000
v -0.030806 -0.119194 0.250000
v -0.030806 -0.119194 1.250000
v -0.075000 -0.137500 0.250000
v -0.075000 -0.137500 1.250000
v -0.119194 -0.119194 0.250000
v -0.119194 -0.119194 1.250000
v -0.137500 -0.075000 0.250000
v -0.137500 -0.075000 1.250000
v -0.119194 -0.030806 0.250000
v -0.119194 -0.030806 1.250000
v 0.075000 -0.012500 0.250000
v 0.075000 -0.012500 1.250000
v 0.119194 -0.030806 0.250000
v 0.119194 -0.030806 1.250000
v 0.137500 -0.075000 0.250000
v 0.137500 -0.075000 1.250000
v 0.119194 -0.119194 0.250000
v 0.119194 -0.119194 1.250000
v 0.075000 -0.137500 0.250000
v 0.075000 -0.137500 1.250000
v 0.030806 -0.119194 0.250000
v 0.030806 -0.119194 1.250000
v 0.012500 -0.075000 0.250000
v 0.012500 -0.075000 1.250000
v 0.030806 -0.030806 0.250000
v 0.030806 -0.030806 1.250000
v -0.075000 0.137500 0.250000
v -0.075000 0.137500 1.250000
v -0.030806 0.119194 0.250000
v -0.030806 0.119194 1.250000
v -0.012500 0.075000 0.250000
v -0.012500 0.075000 1.250000
v -0.030806 0.030806 0.250000
v -0.030806 0.030806 1.250000
v -0.075000 0.012500 0.250000
v -0.075000 0.012500 1.250000
v -0.119194 0.030806 0.250000
v -0.119194 0.030806 1.250000
v -0.137500 0.075000 0.250000
v -0.137500 0.075000 1.250000
v -0.119194 0.119194 0.250000
v -0.119194 0.119194 1.250000
v 0.075000 0.137500 0.250000
v 0.075000 0.137500 1.250000
v 0.119194 0.119194 0.250000
v 0.119194 0.119194 1.250000
v 0.137500 0.075000 0.250000
v 0.137500 0.075000 1.250000
v 0.119194 0.030806 0.250000
v 0.119194 0.030806 1.250000
v 0.075000 0.012500 0.250000
v 0.075000 0.012500 1.250000
v 0.030806 0.030806 0.250000
v 0.030806 0.030806 1.250000
v 0.012500 0.075000 0.250000
v 0.012500 0.075000 1.250000
v 0.030806 0.119194 0.250000
v 0.030806 0.119194 1.250000
v -0.100000 -0.200000 -0.500000
v -0.100000 0.125000 -0.500000
v -0.060000 0.050000 -0.800000
v 0.100000 -0.200000 -0.500000
v 0.100000 0.125000 -0.500000
v 0.060000 0.050000 -0.800000
v -0.100000 -0.250000 -0.500000
v 0.100000 -0.250000 -0.500000
v -0.060000 -0.250000 -0.800000
v 0.060000 -0.250000 -0.800000
v 0.180000 0.400000 0.131250
v 0.180000 0.400000 -0.131250
v -0.375000 0.000000 -0.100000
v 0.375000 0.000000 -0.100000
v -0.375000 -0.070711 -0.070711
v 0.375000 -0.070711 -0.070711
v -0.375000 -0.100000 0.000000
v 0.375000 -0.100000 0.000000
v -0.375000 -0.070711 0.070711
v 0.375000 -0.070711 0.070711
v -0.375000 0.000000 0.100000
v 0.375000 0.000000 0.100000
v -0.375000 0.070711 0.070711
v 0.375000 0.070711 0.070711
v -0.375000 0.100000 -0.000000
v 0.375000 0.100000 -0.000000
v -0.375000 0.070711 -0.070711
v 0.375000 0.070711 -0.070711
v -0.005000 0.400000 -0.131250
v -0.005000 0.400000 0.131250
v 0.250000 0.330000 -0.131250
v 0.250000 -0.080000 -0.131250
v 0.250000 0.330000 0.131250
v 0.250000 -0.080000 0.131250
vn 0.000000 1.000000 0.000000
vn 0.707100 -0.707100 0.000000
vn 0.707100 0.707100 0.000000
vn -0.707100 0.707100 0.000000
vn 1.000000 0.000000 0.000000
vn -0.707100 -0.707100 0.000000
vn -1.000000 0.000000 0.000000
vn -0.382700 -0.923900 0.000000
vn -0.923900 -0.382700 0.000000
vn -0.923900 0.382700 -0.000000
vn -0.382700 0.923900 -0.000000
vn 0.382700 0.923900 -0.000000
vn 0.923900 0.382700 -0.000000
vn 0.382700 -0.923900 0.000000
vn 0.923900 -0.382700 0.000000
vn 0.000000 0.000000 1.000000
vn 0.000000 0.000000 -1.000000
vn 0.000000 -1.000000 0.000000
vn 0.000000 0.970100 -0.242500
vn 0.991200 0.000000 -0.132200
vn -0.991200 0.000000 -0.132200
vn 0.000000 -0.382700 -0.923900
vn 0.000000 -0.923900 -0.382700
vn 0.000000 -0.923900 0.382700
vn 0.000000 -0.382700 0.923900
vn -0.000000 0.382700 0.923900
vn -0.000000 0.923900 0.382700
vn -0.000000 0.382700 -0.923900
vn -0.000000 0.923900 -0.382700
s off
f 1//1 5//1 7//1
f 10//2 12//2 4//2
f 11//3 9//3 1//3
f 13//4 15//4 7//4
f 11//5 12//5 10//5
f 16//6 14//6 6//6
f 13//7 14//7 16//7
f 19//8 20//8 18//8
f 21//9 22//9 20//9
f 23//10 24//10 22//10
f 25//11 26//11 24//11
f 27//12 28//12 26//12
f 29//13 30//13 28//13
f 17//14 18//14 32//14
f 31//15 32//15 30//15
f 27//16 21//16 19//16
f 35//8 36//8 34//8
f 37//9 38//9 36//9
f 39//10 40//10 38//10
f 41//11 42//11 40//11
f 43//12 44//12 42//12
f 45//13 46//13 44//13
f 33//14 34//14 48//14
f 47//15 48//15 46//15
f 43//16 37//16 35//16
f 51//8 52//8 50//8
f 53//9 54//9 52//9
f 55//10 56//10 54//10
f 57//11 58//11 56//11
f 59//12 60//12 58//12
f 61//13 62//13 60//13
f 49//14 50//14 64//14
f 63//15 64//15 62//15
f 59//16 53//16 51//16
f 67//8 68//8 66//8
f 69//9 70//9 68//9
f 71//10 72//10 70//10
f 73//11 74//11 72//11
f 75//12 76//12 74//12
f 77//13 78//13 76//13
f 65//14 66//14 80//14
f 79//15 80//15 78//15
f 75//16 69//16 67//16
f 56//16 58//16 18//16
f 74//16 76//16 48//16
f 76//16 78//16 54//16
f 56//16 20//16 48//16
f 22//16 46//16 48//16
f 44//16 46//16 22//16
f 72//16 74//16 34//16
f 54//16 78//16 80//16
f 52//16 80//16 66//16
f 7//16 50//16 66//16
f 66//16 68//16 3//16
f 3//16 68//16 11//16
f 68//16 70//16 11//16
f 70//16 72//16 36//16
f 11//16 70//16 38//16
f 38//16 40//16 12//16
f 12//16 40//16 4//16
f 40//16 42//16 4//16
f 58//16 60//16 32//16
f 32//16 60//16 62//16
f 50//16 7//16 64//16
f 7//16 15//16 64//16
f 64//16 15//16 62//16
f 15//16 16//16 30//16
f 30//16 16//16 28//16
f 16//16 8//16 28//16
f 28//16 8//16 26//16
f 42//16 44//16 24//16
f 42//16 26//16 8//16
f 86//17 90//17 89//17
f 6//18 81//18 8//18
f 81//17 14//17 82//17
f 86//19 83//19 82//19
f 84//17 85//17 10//17
f 1//17 85//17 82//17
f 89//18 90//18 88//18
f 81//16 87//16 88//16
f 84//20 88//20 90//20
f 83//21 89//21 81//21
f 94//22 96//22 95//22
f 96//23 98//23 97//23
f 98//24 100//24 99//24
f 100//25 102//25 101//25
f 102//26 104//26 103//26
f 113//5 114//5 112//5
f 104//27 106//27 105//27
f 113//3 111//3 92//3
f 108//28 94//28 93//28
f 106//29 108//29 107//29
f 92//1 109//1 110//1
f 3//1 1//1 7//1
f 2//2 10//2 4//2
f 3//3 11//3 1//3
f 5//4 13//4 7//4
f 9//5 11//5 10//5
f 8//6 16//6 6//6
f 15//7 13//7 16//7
f 17//8 19//8 18//8
f 19//9 21//9 20//9
f 21//10 23//10 22//10
f 23//11 25//11 24//11
f 25//12 27//12 26//12
f 27//13 29//13 28//13
f 31//14 17//14 32//14
f 29//15 31//15 30//15
f 19//16 17//16 27//16
f 31//16 29//16 27//16
f 27//16 25//16 23//16
f 23//16 21//16 27//16
f 17//16 31//16 27//16
f 33//8 35//8 34//8
f 35//9 37//9 36//9
f 37//10 39//10 38//10
f 39//11 41//11 40//11
f 41//12 43//12 42//12
f 43//13 45//13 44//13
f 47//14 33//14 48//14
f 45//15 47//15 46//15
f 35//16 33//16 43//16
f 47//16 45//16 43//16
f 43//16 41//16 39//16
f 39//16 37//16 43//16
f 33//16 47//16 43//16
f 49//8 51//8 50//8
f 51//9 53//9 52//9
f 53//10 55//10 54//10
f 55//11 57//11 56//11
f 57//12 59//12 58//12
f 59//13 61//13 60//13
f 63//14 49//14 64//14
f 61//15 63//15 62//15
f 51//16 49//16 59//16
f 63//16 61//16 59//16
f 59//16 57//16 55//16
f 55//16 53//16 59//16
f 49//16 63//16 59//16
f 65//8 67//8 66//8
f 67//9 69//9 68//9
f 69//10 71//10 70//10
f 71//11 73//11 72//11
f 73//12 75//12 74//12
f 75//13 77//13 76//13
f 79//14 65//14 80//14
f 77//15 79//15 78//15
f 67//16 65//16 75//16
f 79//16 77//16 75//16
f 75//16 73//16 71//16
f 71//16 69//16 75//16
f 65//16 79//16 75//16
f 20//16 56//16 18//16
f 34//16 74//16 48//16
f 56//16 76//16 54//16
f 76//16 56//16 48//16
f 20//16 22//16 48//16
f 24//16 44//16 22//16
f 36//16 72//16 34//16
f 52//16 54//16 80//16
f 50//16 52//16 66//16
f 3//16 7//16 66//16
f 38//16 70//16 36//16
f 12//16 11//16 38//16
f 18//16 58//16 32//16
f 30//16 32//16 62//16
f 62//16 15//16 30//16
f 26//16 42//16 24//16
f 4//16 42//16 8//16
f 83//17 86//17 89//17
f 4//18 8//18 81//18
f 6//16 84//16 81//16
f 81//18 2//18 4//18
f 81//16 84//16 6//16
f 5//17 82//17 13//17
f 14//17 13//17 82//17
f 81//17 6//17 14//17
f 85//19 86//19 82//19
f 2//16 81//16 84//16
f 9//17 10//17 85//17
f 85//17 1//17 9//17
f 2//17 84//17 10//17
f 5//17 1//17 82//17
f 87//18 89//18 88//18
f 84//16 81//16 88//16
f 90//20 86//20 84//20
f 85//20 84//20 86//20
f 87//21 81//21 89//21
f 82//21 83//21 81//21
f 93//22 94//22 95//22
f 95//23 96//23 97//23
f 97//24 98//24 99//24
f 99//25 100//25 101//25
f 101//26 102//26 103//26
f 111//5 113//5 112//5
f 103//27 104//27 105//27
f 91//3 113//3 92//3
f 107//28 108//28 93//28
f 105//29 106//29 107//29
f 91//1 92//1 110//1
