# Blender v2.76 (sub 0) OBJ File: 'turret_spitfire_base.blend'
# www.blender.org
o Cylinder
v 0.000000 0.000000 -1.000000
v 0.000000 0.125000 -1.000000
v 0.707107 0.000000 -0.707107
v 0.707107 0.125000 -0.707107
v 1.000000 0.000000 0.000000
v 1.000000 0.125000 0.000000
v 0.707107 0.000000 0.707107
v 0.707107 0.125000 0.707107
v -0.000000 0.000000 1.000000
v -0.000000 0.125000 1.000000
v -0.707107 0.000000 0.707107
v -0.707107 0.125000 0.707107
v -1.000000 0.000000 -0.000000
v -1.000000 0.125000 -0.000000
v -0.707107 0.000000 -0.707107
v -0.707107 0.125000 -0.707107
vt 0.735344 0.677457
vt 0.561566 0.677457
vt 0.561566 0.649076
vt 0.387788 0.677457
vt 0.387788 0.649076
vt 0.214009 0.677457
vt 0.214009 0.649076
vt 0.040231 0.677457
vt 0.040231 0.649076
vt 0.040231 0.540232
vt 0.214009 0.540232
vt 0.214009 0.568613
vt 0.387787 0.540232
vt 0.387787 0.568613
vt 0.040231 0.163111
vt 0.459769 0.163111
vt 0.459769 0.336889
vt 0.561565 0.540231
vt 0.735344 0.540231
vt 0.735344 0.568613
vt 0.561565 0.568613
vt 0.836889 0.459769
vt 0.540231 0.336889
vt 0.663111 0.040231
vt 0.735344 0.649076
vt 0.040231 0.568613
vt 0.336889 0.459769
vt 0.163111 0.459769
vt 0.040231 0.336889
vt 0.163111 0.040231
vt 0.336889 0.040231
vt 0.836889 0.040231
vt 0.959769 0.163111
vt 0.959769 0.336889
vt 0.663111 0.459769
vt 0.540231 0.163111
vn 0.382700 0.000000 -0.923900
vn 0.923900 0.000000 -0.382700
vn 0.923900 0.000000 0.382700
vn 0.382700 0.000000 0.923900
vn -0.382700 0.000000 0.923900
vn -0.923900 0.000000 0.382700
vn 0.000000 1.000000 -0.000000
vn -0.382700 0.000000 -0.923900
vn -0.923900 0.000000 -0.382700
vn 0.000000 -1.000000 0.000000
s off
f 2/1/1 4/2/1 3/3/1
f 4/2/2 6/4/2 5/5/2
f 6/4/3 8/6/3 7/7/3
f 8/6/4 10/8/4 9/9/4
f 10/10/5 12/11/5 11/12/5
f 12/11/6 14/13/6 13/14/6
f 14/15/7 8/16/7 6/17/7
f 16/18/8 2/19/8 1/20/8
f 14/13/9 16/18/9 15/21/9
f 7/22/10 11/23/10 15/24/10
f 1/25/1 2/1/1 3/3/1
f 3/3/2 4/2/2 5/5/2
f 5/5/3 6/4/3 7/7/3
f 7/7/4 8/6/4 9/9/4
f 9/26/5 10/10/5 11/12/5
f 11/12/6 12/11/6 13/14/6
f 6/17/7 4/27/7 2/28/7
f 2/28/7 16/29/7 6/17/7
f 14/15/7 12/30/7 10/31/7
f 10/31/7 8/16/7 14/15/7
f 6/17/7 16/29/7 14/15/7
f 15/21/8 16/18/8 1/20/8
f 13/14/9 14/13/9 15/21/9
f 15/24/10 1/32/10 3/33/10
f 3/33/10 5/34/10 15/24/10
f 7/22/10 9/35/10 11/23/10
f 11/23/10 13/36/10 15/24/10
f 15/24/10 5/34/10 7/22/10
