# Blender v2.76 (sub 0) OBJ File: 'turret_tau_gun.blend'
# www.blender.org
o Cube.001_Cube
v 0.200000 0.200000 -0.400000
v 0.200000 -0.075000 -0.400000
v 0.200000 0.200000 0.400000
v 0.200000 -0.200000 0.400000
v -0.200000 0.200000 -0.400000
v -0.200000 -0.075000 -0.400000
v -0.200000 0.200000 0.400000
v -0.200000 -0.200000 0.400000
v 0.000000 0.112500 0.400000
v 0.000000 0.150000 0.900000
v 0.097428 0.056250 0.400000
v 0.129904 0.075000 0.900000
v 0.097428 -0.056250 0.400000
v 0.129904 -0.075000 0.900000
v -0.000000 -0.112500 0.400000
v -0.000000 -0.150000 0.900000
v -0.097428 -0.056250 0.400000
v -0.129904 -0.075000 0.900000
v -0.097428 0.056250 0.400000
v -0.129904 0.075000 0.900000
v 0.000000 0.150000 0.650000
v 0.129904 0.075000 0.650000
v 0.129904 0.075000 0.900000
v 0.000000 0.150000 0.900000
v 0.129904 -0.075000 0.650000
v 0.129904 -0.075000 0.900000
v -0.000000 -0.150000 0.650000
v -0.000000 -0.150000 0.900000
v -0.129904 -0.075000 0.650000
v -0.129904 -0.075000 0.900000
v -0.129904 0.075000 0.650000
v -0.129904 0.075000 0.900000
v 0.012990 0.142500 0.675000
v 0.012990 0.142500 0.875000
v 0.116913 0.082500 0.875000
v 0.116913 0.082500 0.675000
v 0.129904 0.060000 0.675000
v 0.129904 0.060000 0.875000
v 0.129904 -0.060000 0.875000
v 0.129904 -0.060000 0.675000
v 0.116913 -0.082500 0.675000
v 0.116913 -0.082500 0.875000
v 0.012990 -0.142500 0.875000
v 0.012990 -0.142500 0.675000
v -0.012990 -0.142500 0.675000
v -0.012990 -0.142500 0.875000
v -0.116913 -0.082500 0.875000
v -0.116913 -0.082500 0.675000
v -0.116913 0.082500 0.675000
v -0.116913 0.082500 0.875000
v -0.012990 0.142500 0.875000
v -0.012990 0.142500 0.675000
v -0.129904 -0.060000 0.675000
v -0.129904 -0.060000 0.875000
v -0.129904 0.060000 0.875000
v -0.129904 0.060000 0.675000
v 0.000490 0.120849 0.675000
v 0.000490 0.120849 0.875000
v 0.104413 0.060849 0.875000
v 0.104413 0.060849 0.675000
v 0.104904 0.060000 0.675000
v 0.104904 0.060000 0.875000
v 0.104904 -0.060000 0.875000
v 0.104904 -0.060000 0.675000
v 0.104413 -0.060849 0.675000
v 0.104413 -0.060849 0.875000
v 0.000490 -0.120849 0.875000
v 0.000490 -0.120849 0.675000
v -0.000490 -0.120849 0.675000
v -0.000490 -0.120849 0.875000
v -0.104413 -0.060849 0.875000
v -0.104413 -0.060849 0.675000
v -0.104413 0.060849 0.675000
v -0.104413 0.060849 0.875000
v -0.000490 0.120849 0.875000
v -0.000490 0.120849 0.675000
v -0.104904 -0.060000 0.675000
v -0.104904 -0.060000 0.875000
v -0.104904 0.060000 0.875000
v -0.104904 0.060000 0.675000
v 0.000000 0.025000 0.900000
v 0.000000 0.025000 1.400000
v 0.021651 0.012500 0.900000
v 0.021651 0.012500 1.400000
v 0.021651 -0.012500 0.900000
v 0.021651 -0.012500 1.400000
v -0.000000 -0.025000 0.900000
v -0.000000 -0.025000 1.400000
v -0.021651 -0.012500 0.900000
v -0.021651 -0.012500 1.400000
v -0.021651 0.012500 0.900000
v -0.021651 0.012500 1.400000
v -0.050000 -0.086603 1.300000
v -0.100000 0.000000 1.050000
v -0.070711 -0.000000 0.979289
v 0.000000 -0.000000 0.950000
v 0.050000 -0.086603 1.300000
v -0.050000 0.086603 1.050000
v -0.035355 0.061237 0.979289
v 0.100000 0.000000 1.300000
v 0.050000 0.086603 1.050000
v 0.035355 0.061237 0.979289
v 0.050000 0.086603 1.300000
v 0.100000 0.000000 1.050000
v 0.070711 -0.000000 0.979289
v -0.050000 0.086603 1.300000
v 0.050000 -0.086603 1.050000
v 0.035355 -0.061237 0.979289
v -0.100000 0.000000 1.300000
v -0.050000 -0.086603 1.050000
v -0.035355 -0.061237 0.979289
v -0.125000 0.250000 0.050000
v -0.125000 -0.050000 0.050000
v -0.375000 -0.000000 -0.100000
v 0.375000 0.000000 -0.100000
v -0.375000 -0.070711 -0.070711
v 0.375000 -0.070711 -0.070711
v -0.375000 -0.100000 0.000000
v 0.375000 -0.100000 0.000000
v -0.375000 -0.070711 0.070711
v 0.375000 -0.070711 0.070711
v -0.375000 -0.000000 0.100000
v 0.375000 0.000000 0.100000
v -0.375000 0.070711 0.070711
v 0.375000 0.070711 0.070711
v -0.375000 0.100000 -0.000000
v 0.375000 0.100000 -0.000000
v -0.375000 0.070711 -0.070711
v 0.375000 0.070711 -0.070711
v -0.125000 -0.050000 -0.450000
v -0.125000 0.250000 -0.450000
v 0.125000 -0.050000 0.050000
v 0.125000 0.250000 0.050000
v 0.125000 -0.050000 -0.450000
v 0.125000 0.250000 -0.450000
vn 0.000000 1.000000 0.000000
vn 0.000000 -0.988000 -0.154400
vn 0.000000 0.000000 1.000000
vn 1.000000 0.000000 0.000000
vn 0.000000 0.000000 -1.000000
vn -1.000000 0.000000 0.000000
vn 0.495800 -0.858800 -0.128800
vn 0.495800 0.858800 -0.128800
vn -0.495800 -0.858800 -0.128800
vn -0.991700 0.000000 -0.128800
vn -0.495800 0.858800 -0.128800
vn 0.991700 -0.000000 -0.128800
vn 0.500000 0.866000 0.000000
vn 0.500000 -0.866000 0.000000
vn -0.500000 -0.866000 0.000000
vn -0.500000 0.866000 0.000000
vn 0.866000 -0.500000 0.000000
vn -0.866000 0.500000 0.000000
vn -0.000000 -1.000000 0.000000
vn -0.866000 -0.500000 0.000000
vn 0.866000 0.500000 0.000000
vn -0.815200 0.470600 -0.337700
vn 0.000000 0.941300 -0.337700
vn 0.815200 0.470600 -0.337700
vn 0.815200 -0.470600 -0.337700
vn 0.000000 -0.941300 -0.337700
vn -0.373700 0.215700 -0.902100
vn 0.000000 0.431500 -0.902100
vn 0.373700 0.215700 -0.902100
vn 0.373700 -0.215700 -0.902100
vn 0.000000 -0.431500 -0.902100
vn -0.815200 -0.470600 -0.337700
vn -0.373700 -0.215700 -0.902100
vn 0.000000 -0.382700 -0.923900
vn 0.000000 -0.923900 -0.382700
vn 0.000000 -0.923900 0.382700
vn 0.000000 -0.382700 0.923900
vn -0.000000 0.382700 0.923900
vn -0.000000 0.923900 0.382700
vn -0.000000 0.382700 -0.923900
vn -0.000000 0.923900 -0.382700
s off
f 1//1 5//1 7//1
f 6//2 2//2 4//2
f 7//3 8//3 4//3
f 3//4 4//4 2//4
f 1//5 2//5 6//5
f 7//6 5//6 6//6
f 13//7 25//7 27//7
f 9//8 21//8 22//8
f 20//3 10//3 24//3
f 15//9 27//9 29//9
f 10//3 16//3 14//3
f 17//10 29//10 31//10
f 19//11 31//11 21//11
f 18//3 20//3 32//3
f 13//12 11//12 22//12
f 16//3 18//3 30//3
f 10//3 12//3 23//3
f 14//3 16//3 28//3
f 12//3 14//3 26//3
f 34//13 33//13 21//13
f 35//13 34//13 24//13
f 22//13 36//13 35//13
f 33//13 36//13 22//13
f 38//4 37//4 22//4
f 26//4 39//4 38//4
f 25//4 40//4 39//4
f 37//4 40//4 25//4
f 42//14 41//14 25//14
f 43//14 42//14 26//14
f 27//14 44//14 43//14
f 41//14 44//14 27//14
f 46//15 45//15 27//15
f 47//15 46//15 28//15
f 29//15 48//15 47//15
f 45//15 48//15 29//15
f 50//16 49//16 31//16
f 24//16 51//16 50//16
f 21//16 52//16 51//16
f 49//16 52//16 21//16
f 54//6 53//6 29//6
f 55//6 54//6 30//6
f 31//6 56//6 55//6
f 53//6 56//6 31//6
f 58//13 59//13 60//13
f 58//17 57//17 33//17
f 35//5 59//5 58//5
f 60//18 59//18 35//18
f 57//3 60//3 36//3
f 62//4 63//4 64//4
f 62//19 61//19 37//19
f 63//5 62//5 38//5
f 64//1 63//1 39//1
f 37//3 61//3 64//3
f 66//14 67//14 68//14
f 66//20 65//20 41//20
f 67//5 66//5 42//5
f 68//21 67//21 43//21
f 65//3 68//3 44//3
f 70//15 71//15 72//15
f 70//18 69//18 45//18
f 71//5 70//5 46//5
f 72//17 71//17 47//17
f 45//3 69//3 72//3
f 74//16 75//16 76//16
f 74//21 73//21 49//21
f 75//5 74//5 50//5
f 76//20 75//20 51//20
f 49//3 73//3 76//3
f 78//6 79//6 80//6
f 78//1 77//1 53//1
f 79//5 78//5 54//5
f 80//19 79//19 55//19
f 77//3 80//3 56//3
f 82//13 84//13 83//13
f 84//4 86//4 85//4
f 86//14 88//14 87//14
f 88//15 90//15 89//15
f 82//3 88//3 86//3
f 92//16 82//16 81//16
f 90//6 92//6 91//6
f 94//22 98//22 99//22
f 98//23 101//23 102//23
f 101//24 104//24 105//24
f 104//25 107//25 108//25
f 107//26 110//26 111//26
f 96//27 95//27 99//27
f 96//28 99//28 102//28
f 94//18 109//18 106//18
f 106//1 103//1 101//1
f 96//29 102//29 105//29
f 94//20 110//20 93//20
f 96//30 105//30 108//30
f 104//17 100//17 97//17
f 96//31 108//31 111//31
f 111//32 110//32 94//32
f 110//19 107//19 97//19
f 96//33 111//33 95//33
f 115//34 117//34 116//34
f 117//35 119//35 118//35
f 135//1 131//1 112//1
f 119//36 121//36 120//36
f 130//19 134//19 132//19
f 121//37 123//37 122//37
f 112//3 113//3 132//3
f 123//38 125//38 124//38
f 133//4 132//4 134//4
f 125//39 127//39 126//39
f 135//5 134//5 130//5
f 129//40 115//40 114//40
f 127//41 129//41 128//41
f 131//6 130//6 113//6
f 3//1 1//1 7//1
f 8//2 6//2 4//2
f 3//3 7//3 4//3
f 1//4 3//4 2//4
f 5//5 1//5 6//5
f 8//6 7//6 6//6
f 15//7 13//7 27//7
f 11//8 9//8 22//8
f 32//3 20//3 24//3
f 17//9 15//9 29//9
f 14//3 12//3 10//3
f 10//3 20//3 18//3
f 18//3 16//3 10//3
f 19//10 17//10 31//10
f 9//11 19//11 21//11
f 30//3 18//3 32//3
f 25//12 13//12 22//12
f 28//3 16//3 30//3
f 24//3 10//3 23//3
f 26//3 14//3 28//3
f 23//3 12//3 26//3
f 24//13 34//13 21//13
f 23//13 35//13 24//13
f 23//13 22//13 35//13
f 21//13 33//13 22//13
f 23//4 38//4 22//4
f 23//4 26//4 38//4
f 26//4 25//4 39//4
f 22//4 37//4 25//4
f 26//14 42//14 25//14
f 28//14 43//14 26//14
f 28//14 27//14 43//14
f 25//14 41//14 27//14
f 28//15 46//15 27//15
f 30//15 47//15 28//15
f 30//15 29//15 47//15
f 27//15 45//15 29//15
f 32//16 50//16 31//16
f 32//16 24//16 50//16
f 24//16 21//16 51//16
f 31//16 49//16 21//16
f 30//6 54//6 29//6
f 32//6 55//6 30//6
f 32//6 31//6 55//6
f 29//6 53//6 31//6
f 57//13 58//13 60//13
f 34//17 58//17 33//17
f 34//5 35//5 58//5
f 36//18 60//18 35//18
f 33//3 57//3 36//3
f 61//4 62//4 64//4
f 38//19 62//19 37//19
f 39//5 63//5 38//5
f 40//1 64//1 39//1
f 40//3 37//3 64//3
f 65//14 66//14 68//14
f 42//20 66//20 41//20
f 43//5 67//5 42//5
f 44//21 68//21 43//21
f 41//3 65//3 44//3
f 69//15 70//15 72//15
f 46//18 70//18 45//18
f 47//5 71//5 46//5
f 48//17 72//17 47//17
f 48//3 45//3 72//3
f 73//16 74//16 76//16
f 50//21 74//21 49//21
f 51//5 75//5 50//5
f 52//20 76//20 51//20
f 52//3 49//3 76//3
f 77//6 78//6 80//6
f 54//1 78//1 53//1
f 55//5 79//5 54//5
f 56//19 80//19 55//19
f 53//3 77//3 56//3
f 81//13 82//13 83//13
f 83//4 84//4 85//4
f 85//14 86//14 87//14
f 87//15 88//15 89//15
f 86//3 84//3 82//3
f 82//3 92//3 90//3
f 90//3 88//3 82//3
f 91//16 92//16 81//16
f 89//6 90//6 91//6
f 95//22 94//22 99//22
f 99//23 98//23 102//23
f 102//24 101//24 105//24
f 105//25 104//25 108//25
f 108//26 107//26 111//26
f 98//18 94//18 106//18
f 98//1 106//1 101//1
f 109//20 94//20 93//20
f 107//17 104//17 97//17
f 95//32 111//32 94//32
f 93//19 110//19 97//19
f 114//34 115//34 116//34
f 116//35 117//35 118//35
f 133//1 135//1 112//1
f 118//36 119//36 120//36
f 113//19 130//19 132//19
f 120//37 121//37 122//37
f 133//3 112//3 132//3
f 122//38 123//38 124//38
f 135//4 133//4 134//4
f 124//39 125//39 126//39
f 131//5 135//5 130//5
f 128//40 129//40 114//40
f 126//41 127//41 128//41
f 112//6 131//6 113//6
