# Blender v2.76 (sub 0) OBJ File: 'turret_spitfire_gun.blend'
# www.blender.org
o Cube.001_Cube.002
v -0.250000 -0.250000 0.500000
v -0.250000 0.250000 0.500000
v -0.250000 -0.250000 -0.500000
v -0.250000 0.250000 -0.500000
v 0.250000 -0.250000 0.500000
v 0.250000 0.250000 0.500000
v 0.250000 -0.250000 -0.500000
v 0.250000 0.250000 -0.500000
v -0.125000 -0.250000 0.375000
v -0.125000 -0.250000 -0.375000
v -0.750000 -0.000000 -0.150000
v 0.750000 0.000000 -0.150000
v -0.750000 -0.075000 -0.129904
v 0.750000 -0.075000 -0.129904
v -0.750000 -0.129904 -0.075000
v 0.750000 -0.129904 -0.075000
v -0.750000 -0.150000 0.000000
v 0.750000 -0.150000 0.000000
v -0.750000 -0.129904 0.075000
v 0.750000 -0.129904 0.075000
v -0.750000 -0.075000 0.129904
v 0.750000 -0.075000 0.129904
v -0.750000 -0.000000 0.150000
v 0.750000 0.000000 0.150000
v -0.750000 0.075000 0.129904
v 0.750000 0.075000 0.129904
v -0.750000 0.129904 0.075000
v 0.750000 0.129904 0.075000
v -0.750000 0.150000 0.000000
v 0.750000 0.150000 0.000000
v -0.750000 0.129904 -0.075000
v 0.750000 0.129904 -0.075000
v -0.750000 0.075000 -0.129904
v 0.750000 0.075000 -0.129904
v 0.125000 -0.250000 -0.375000
v 0.125000 -0.250000 0.375000
v -0.125000 -0.400000 0.375000
v 0.125000 -0.400000 0.375000
v 0.125000 -0.400000 -0.375000
v -0.125000 -0.400000 -0.375000
v 0.000000 0.150000 0.500000
v 0.000000 0.150000 2.000000
v 0.106066 0.106066 0.500000
v 0.106066 0.106066 2.000000
v 0.150000 -0.000000 0.500000
v 0.150000 0.000000 2.000000
v 0.106066 -0.106066 0.500000
v 0.106066 -0.106066 2.000000
v -0.000000 -0.150000 0.500000
v -0.000000 -0.150000 2.000000
v -0.106066 -0.106066 0.500000
v -0.106066 -0.106066 2.000000
v -0.150000 -0.000000 0.500000
v -0.150000 0.000000 2.000000
v -0.106066 0.106066 0.500000
v -0.106066 0.106066 2.000000
v 0.079550 0.079550 2.100000
v -0.000000 0.112500 2.100000
v 0.112500 0.000000 2.100000
v 0.079550 -0.079550 2.100000
v -0.000000 -0.112500 2.100000
v -0.079550 -0.079549 2.100000
v -0.112500 0.000000 2.100000
v -0.079550 0.079550 2.100000
v 0.079550 0.079549 3.350000
v -0.000000 0.112500 3.350000
v 0.112500 -0.000000 3.350000
v 0.079550 -0.079550 3.350000
v -0.000000 -0.112500 3.350000
v -0.079550 -0.079550 3.350000
v -0.112500 -0.000000 3.350000
v -0.079550 0.079549 3.350000
v 0.059662 0.059662 3.350000
v -0.000000 0.084375 3.350000
v 0.084375 -0.000000 3.350000
v 0.059662 -0.059662 3.350000
v -0.000000 -0.084375 3.350000
v -0.059662 -0.059662 3.350000
v -0.084375 -0.000000 3.350000
v -0.059662 0.059662 3.350000
v 0.059662 0.059662 1.350000
v -0.000000 0.084375 1.350000
v 0.084375 -0.000000 1.350000
v 0.059662 -0.059662 1.350000
v -0.000000 -0.084375 1.350000
v -0.059662 -0.059662 1.350000
v -0.084375 -0.000000 1.350000
v -0.059662 0.059662 1.350000
v -0.187500 0.187500 -0.600000
v -0.187500 -0.187500 -0.600000
v 0.187500 0.187500 -0.600000
v 0.187500 -0.187500 -0.600000
v -0.159375 0.000625 -0.600000
v -0.159375 -0.130625 -0.600000
v 0.159375 0.000625 -0.600000
v 0.159375 -0.130625 -0.600000
v -0.000000 0.150000 -1.100000
v -0.000000 0.150000 -0.600000
v 0.079550 0.106066 -1.100000
v 0.079550 0.106066 -0.600000
v 0.112500 -0.000000 -1.100000
v 0.112500 0.000000 -0.600000
v -0.112500 -0.000000 -1.100000
v -0.112500 0.000000 -0.600000
v -0.079550 0.106066 -1.100000
v -0.079550 0.106066 -0.600000
v -0.159375 0.000625 -1.200000
v -0.159375 -0.130625 -1.200000
v 0.159375 0.000625 -1.200000
v 0.159375 -0.130625 -1.200000
v -0.325000 -0.100000 -1.200000
v -0.325000 -0.050000 -1.200000
v -0.325000 -0.100000 -1.600000
v -0.325000 -0.050000 -1.600000
v -0.075000 -0.100000 -1.200000
v -0.075000 -0.050000 -1.200000
v -0.075000 -0.100000 -1.600000
v -0.075000 -0.050000 -1.600000
v -0.075000 -0.100000 -1.400000
v -0.075000 -0.050000 -1.400000
v 0.075000 -0.100000 -1.200000
v 0.075000 -0.050000 -1.200000
v -0.300000 0.187500 0.450000
v -0.300000 0.187500 -0.450000
v -0.300000 -0.187500 -0.450000
v -0.300000 -0.187500 0.450000
v 0.300000 0.187500 -0.450000
v 0.300000 0.187500 0.450000
v 0.300000 -0.187500 0.450000
v 0.300000 -0.187500 -0.450000
v -0.375000 -0.250000 3.183013
v 0.375000 -0.250000 3.183013
v -0.375000 -0.129410 3.232963
v 0.375000 -0.129410 3.232963
v -0.375000 -0.000000 3.250000
v 0.375000 -0.000000 3.250000
v -0.375000 0.129409 3.232963
v 0.375000 0.129409 3.232963
v -0.375000 0.250000 3.183013
v 0.375000 0.250000 3.183013
v 0.072467 -0.072941 3.240397
v -0.000855 -0.102059 3.236564
v -0.072664 -0.069579 3.240839
v -0.073672 0.070604 3.240705
v -0.001470 0.101724 3.236608
v 0.067748 0.072911 3.240401
v -0.102959 -0.000000 3.250000
v 0.103956 -0.000000 3.250000
v 0.100000 -0.337500 0.600000
v 0.144194 -0.355806 0.600000
v 0.100000 -0.275000 -0.500000
v 0.100000 -0.275000 0.500000
v 0.188388 -0.311612 -0.500000
v 0.188388 -0.311612 0.500000
v 0.225000 -0.400000 -0.500000
v 0.225000 -0.400000 0.500000
v 0.188388 -0.488388 -0.500000
v 0.188388 -0.488388 0.500000
v 0.100000 -0.525000 -0.500000
v 0.100000 -0.525000 0.500000
v 0.011612 -0.488388 -0.500000
v 0.011612 -0.488388 0.500000
v -0.025000 -0.400000 -0.500000
v -0.025000 -0.400000 0.500000
v 0.011612 -0.311612 -0.500000
v 0.011612 -0.311612 0.500000
v 0.055806 -0.355806 0.600000
v 0.037500 -0.400000 0.600000
v 0.055806 -0.444194 0.600000
v 0.100000 -0.462500 0.600000
v 0.144194 -0.444194 0.600000
v 0.162500 -0.400000 0.600000
v 0.100000 -0.337500 -0.600000
v 0.144194 -0.355806 -0.600000
v 0.162500 -0.400000 -0.600000
v 0.144194 -0.444194 -0.600000
v 0.100000 -0.462500 -0.600000
v 0.055806 -0.444194 -0.600000
v 0.037500 -0.400000 -0.600000
v 0.055806 -0.355806 -0.600000
v 0.066291 0.566291 1.000000
v -0.000000 0.593750 1.000000
v 0.000000 0.625000 -0.500000
v 0.000000 0.625000 1.000000
v 0.088388 0.588388 -0.500000
v 0.088388 0.588388 1.000000
v 0.125000 0.500000 -0.500000
v 0.125000 0.500000 1.000000
v 0.088388 0.411612 -0.500000
v 0.088388 0.411612 1.000000
v -0.000000 0.375000 -0.500000
v -0.000000 0.375000 1.000000
v -0.088388 0.411612 -0.500000
v -0.088388 0.411612 1.000000
v -0.125000 0.500000 -0.500000
v -0.125000 0.500000 1.000000
v -0.088388 0.588388 -0.500000
v -0.088388 0.588388 1.000000
v 0.093750 0.500000 1.000000
v 0.066291 0.433709 1.000000
v -0.000000 0.406250 1.000000
v -0.066291 0.433709 1.000000
v -0.093750 0.500000 1.000000
v -0.066291 0.566291 1.000000
v -0.000000 0.593750 0.750000
v -0.066291 0.566291 0.750000
v -0.093750 0.500000 0.750000
v -0.066291 0.433709 0.750000
v -0.000000 0.406250 0.750000
v 0.066291 0.433709 0.750000
v 0.093750 0.500000 0.750000
v 0.066291 0.566291 0.750000
v -0.175000 0.250000 -0.125000
v -0.125000 0.500000 -0.125000
v -0.175000 0.250000 -0.375000
v -0.125000 0.500000 -0.375000
v -0.075000 0.250000 -0.125000
v -0.025000 0.500000 -0.125000
v -0.075000 0.250000 -0.375000
v -0.025000 0.500000 -0.375000
v -0.175000 0.250000 0.375000
v -0.125000 0.500000 0.375000
v -0.175000 0.250000 0.125000
v -0.125000 0.500000 0.125000
v -0.075000 0.250000 0.375000
v -0.025000 0.500000 0.375000
v -0.075000 0.250000 0.125000
v -0.025000 0.500000 0.125000
vn 0.848000 0.000000 -0.530000
vn 0.000000 0.000000 1.000000
vn 0.000000 -1.000000 0.000000
vn 0.000000 1.000000 0.000000
vn 0.000000 -0.258800 -0.965900
vn 0.000000 -0.707100 -0.707100
vn 0.000000 -0.965900 -0.258800
vn 0.000000 -0.965900 0.258800
vn 1.000000 0.000000 0.000000
vn 0.000000 -0.707100 0.707100
vn 0.000000 -0.258800 0.965900
vn -1.000000 0.000000 0.000000
vn -0.000000 0.258800 0.965900
vn 0.000000 0.707100 0.707100
vn -0.000000 0.965900 0.258800
vn -0.000000 0.965900 -0.258800
vn 0.000000 0.000000 -1.000000
vn -0.000000 0.258800 -0.965900
vn -0.000000 0.707100 -0.707100
vn 0.382700 0.923900 -0.000000
vn 0.923900 0.382700 -0.000000
vn 0.923900 -0.382700 0.000000
vn 0.382700 -0.923900 0.000000
vn -0.382700 -0.923900 0.000000
vn -0.923900 -0.382700 0.000000
vn 0.361600 -0.873000 0.327400
vn -0.382700 0.923900 -0.000000
vn -0.923900 0.382700 -0.000000
vn -0.873000 0.361600 0.327400
vn 0.873000 0.361600 0.327400
vn -0.361600 -0.873000 0.327400
vn -0.361600 0.873000 0.327400
vn 0.361600 0.873000 0.327400
vn 0.873000 -0.361600 0.327400
vn -0.873000 -0.361600 0.327400
vn 0.000000 -0.848000 -0.530000
vn 0.000000 0.848000 -0.530000
vn -0.848000 0.000000 -0.530000
vn 0.483500 0.875400 -0.000000
vn 0.955000 0.296700 -0.000000
vn -0.483500 0.875400 -0.000000
vn -0.955000 0.296700 -0.000000
vn 0.800000 0.000000 -0.600000
vn -0.780900 0.624700 0.000000
vn -0.707100 0.000000 -0.707100
vn -0.780900 -0.624700 0.000000
vn -0.707100 0.000000 0.707100
vn 0.780900 0.624700 0.000000
vn 0.707100 0.000000 0.707100
vn 0.780900 -0.624700 0.000000
vn 0.707100 0.000000 -0.707100
vn 0.000000 -0.382700 0.923900
vn 0.000000 -0.130500 0.991400
vn -0.000000 0.130500 0.991400
vn 0.000000 0.382700 0.923900
vn 0.800100 -0.331400 -0.500000
vn -0.331400 -0.800100 0.500000
vn 0.331400 -0.800100 -0.500000
vn -0.800100 -0.331400 0.500000
vn 0.331400 0.800100 -0.500000
vn -0.800100 0.331400 0.500000
vn -0.331400 0.800100 0.500000
vn 0.800100 0.331400 0.500000
vn 0.331400 0.800100 0.500000
vn 0.800100 -0.331400 0.500000
vn 0.800100 0.331400 -0.500000
vn 0.331400 -0.800100 0.500000
vn -0.331400 -0.800100 -0.500000
vn -0.800100 -0.331400 -0.500000
vn -0.800100 0.331400 -0.500000
vn -0.331400 0.800100 -0.500000
vn -0.980600 0.196100 0.000000
vn 0.980600 -0.196100 0.000000
s off
f 7//1 92//1 91//1
f 2//2 1//2 5//2
f 5//3 36//3 35//3
f 8//4 4//4 2//4
f 12//5 14//5 13//5
f 14//6 16//6 15//6
f 16//7 18//7 17//7
f 18//8 20//8 19//8
f 36//9 38//9 39//9
f 20//10 22//10 21//10
f 9//2 37//2 38//2
f 22//11 24//11 23//11
f 10//12 40//12 37//12
f 24//13 26//13 25//13
f 40//3 39//3 38//3
f 26//14 28//14 27//14
f 1//3 9//3 36//3
f 28//15 30//15 29//15
f 7//3 35//3 10//3
f 30//16 32//16 31//16
f 35//17 39//17 40//17
f 34//18 12//18 11//18
f 32//19 34//19 33//19
f 3//3 10//3 9//3
f 42//20 44//20 43//20
f 44//21 46//21 45//21
f 46//22 48//22 47//22
f 48//23 50//23 49//23
f 49//24 50//24 52//24
f 51//25 52//25 54//25
f 50//26 48//26 60//26
f 56//27 42//27 41//27
f 53//28 54//28 56//28
f 58//20 66//20 65//20
f 54//29 63//29 64//29
f 46//30 44//30 57//30
f 50//31 61//31 62//31
f 56//32 64//32 58//32
f 42//33 58//33 57//33
f 48//34 46//34 59//34
f 52//35 62//35 63//35
f 71//2 79//2 80//2
f 64//27 72//27 66//27
f 62//25 70//25 71//25
f 60//23 68//23 69//23
f 57//21 65//21 67//21
f 63//28 71//28 72//28
f 61//24 69//24 70//24
f 59//22 67//22 68//22
f 86//21 87//21 79//21
f 69//2 77//2 78//2
f 67//2 75//2 76//2
f 66//2 74//2 73//2
f 72//2 80//2 74//2
f 70//2 78//2 79//2
f 69//2 68//2 76//2
f 67//2 65//2 73//2
f 86//2 85//2 83//2
f 87//22 88//22 80//22
f 85//20 86//20 78//20
f 84//27 85//27 77//27
f 83//28 84//28 76//28
f 82//24 81//24 73//24
f 88//23 82//23 74//23
f 81//25 83//25 75//25
f 92//17 96//17 95//17
f 3//36 90//36 92//36
f 8//37 91//37 89//37
f 4//38 89//38 90//38
f 94//3 108//3 110//3
f 90//17 89//17 93//17
f 90//17 94//17 96//17
f 91//17 95//17 93//17
f 98//39 100//39 99//39
f 99//40 100//40 102//40
f 106//41 98//41 97//41
f 104//42 106//42 105//42
f 109//17 110//17 108//17
f 95//4 109//4 107//4
f 96//9 110//9 109//9
f 93//12 107//12 108//12
f 101//17 103//17 105//17
f 114//12 113//12 111//12
f 118//17 117//17 113//17
f 120//43 122//43 121//43
f 112//2 111//2 115//2
f 118//9 120//9 119//9
f 121//2 122//2 116//2
f 121//3 115//3 119//3
f 119//3 115//3 111//3
f 122//4 120//4 116//4
f 120//4 118//4 114//4
f 124//12 125//12 126//12
f 124//44 123//44 2//44
f 125//45 124//45 4//45
f 126//46 125//46 3//46
f 123//47 126//47 1//47
f 128//9 129//9 130//9
f 128//48 127//48 8//48
f 129//49 128//49 6//49
f 130//50 129//50 5//50
f 127//51 130//51 7//51
f 132//52 134//52 133//52
f 133//53 134//53 142//53
f 145//54 138//54 137//54
f 138//55 140//55 139//55
f 176//56 175//56 155//56
f 170//57 169//57 162//57
f 152//20 154//20 153//20
f 159//58 177//58 176//58
f 169//59 168//59 164//59
f 154//21 156//21 155//21
f 153//60 174//60 173//60
f 164//61 168//61 167//61
f 156//22 158//22 157//22
f 176//17 178//17 174//17
f 167//62 149//62 152//62
f 158//23 160//23 159//23
f 150//63 172//63 156//63
f 152//64 149//64 150//64
f 160//24 162//24 161//24
f 172//65 171//65 158//65
f 168//2 170//2 149//2
f 162//25 164//25 163//25
f 201//20 209//20 208//20
f 166//27 152//27 151//27
f 164//28 166//28 165//28
f 175//66 174//66 153//66
f 171//67 170//67 160//67
f 192//2 201//2 202//2
f 178//68 177//68 159//68
f 179//69 178//69 161//69
f 180//70 179//70 163//70
f 173//71 180//71 165//71
f 184//20 186//20 185//20
f 188//2 186//2 181//2
f 181//25 212//25 211//25
f 186//21 188//21 187//21
f 190//2 200//2 201//2
f 202//21 208//21 207//21
f 187//22 188//22 190//22
f 196//2 203//2 204//2
f 204//22 203//22 207//22
f 190//23 192//23 191//23
f 188//2 199//2 200//2
f 207//2 209//2 211//2
f 192//24 194//24 193//24
f 199//28 211//28 210//28
f 194//2 202//2 203//2
f 194//25 196//25 195//25
f 198//27 184//27 183//27
f 189//17 195//17 197//17
f 196//28 198//28 197//28
f 198//2 204//2 182//2
f 182//24 205//24 212//24
f 186//2 184//2 182//2
f 204//23 206//23 205//23
f 200//27 210//27 209//27
f 216//72 215//72 213//72
f 216//17 220//17 219//17
f 218//73 217//73 219//73
f 214//2 213//2 217//2
f 224//72 223//72 221//72
f 220//4 216//4 214//4
f 224//17 228//17 227//17
f 226//73 225//73 227//73
f 222//2 221//2 225//2
f 228//4 224//4 222//4
f 8//1 7//1 91//1
f 6//2 2//2 5//2
f 7//3 5//3 35//3
f 6//4 8//4 2//4
f 11//5 12//5 13//5
f 13//6 14//6 15//6
f 15//7 16//7 17//7
f 17//8 18//8 19//8
f 35//9 36//9 39//9
f 19//10 20//10 21//10
f 36//2 9//2 38//2
f 21//11 22//11 23//11
f 9//12 10//12 37//12
f 23//13 24//13 25//13
f 37//3 40//3 38//3
f 25//14 26//14 27//14
f 5//3 1//3 36//3
f 27//15 28//15 29//15
f 3//3 7//3 10//3
f 29//16 30//16 31//16
f 10//17 35//17 40//17
f 33//18 34//18 11//18
f 31//19 32//19 33//19
f 1//3 3//3 9//3
f 41//20 42//20 43//20
f 43//21 44//21 45//21
f 45//22 46//22 47//22
f 47//23 48//23 49//23
f 51//24 49//24 52//24
f 53//25 51//25 54//25
f 61//26 50//26 60//26
f 55//27 56//27 41//27
f 55//28 53//28 56//28
f 57//20 58//20 65//20
f 56//29 54//29 64//29
f 59//30 46//30 57//30
f 52//31 50//31 62//31
f 42//32 56//32 58//32
f 44//33 42//33 57//33
f 60//34 48//34 59//34
f 54//35 52//35 63//35
f 72//2 71//2 80//2
f 58//27 64//27 66//27
f 63//25 62//25 71//25
f 61//23 60//23 69//23
f 59//21 57//21 67//21
f 64//28 63//28 72//28
f 62//24 61//24 70//24
f 60//22 59//22 68//22
f 78//21 86//21 79//21
f 70//2 69//2 78//2
f 68//2 67//2 76//2
f 65//2 66//2 73//2
f 66//2 72//2 74//2
f 71//2 70//2 79//2
f 77//2 69//2 76//2
f 75//2 67//2 73//2
f 83//2 81//2 82//2
f 82//2 88//2 83//2
f 87//2 86//2 83//2
f 85//2 84//2 83//2
f 83//2 88//2 87//2
f 79//22 87//22 80//22
f 77//20 85//20 78//20
f 76//27 84//27 77//27
f 75//28 83//28 76//28
f 74//24 82//24 73//24
f 80//23 88//23 74//23
f 73//25 81//25 75//25
f 91//17 92//17 95//17
f 7//36 3//36 92//36
f 4//37 8//37 89//37
f 3//38 4//38 90//38
f 96//3 94//3 110//3
f 94//17 90//17 93//17
f 92//17 90//17 96//17
f 89//17 91//17 93//17
f 97//39 98//39 99//39
f 101//40 99//40 102//40
f 105//41 106//41 97//41
f 103//42 104//42 105//42
f 107//17 109//17 108//17
f 93//4 95//4 107//4
f 95//9 96//9 109//9
f 94//12 93//12 108//12
f 105//17 97//17 99//17
f 99//17 101//17 105//17
f 112//12 114//12 111//12
f 114//17 118//17 113//17
f 119//43 120//43 121//43
f 116//2 112//2 115//2
f 117//9 118//9 119//9
f 115//2 121//2 116//2
f 111//3 113//3 119//3
f 117//3 119//3 113//3
f 114//4 112//4 120//4
f 116//4 120//4 112//4
f 123//12 124//12 126//12
f 4//44 124//44 2//44
f 3//45 125//45 4//45
f 1//46 126//46 3//46
f 2//47 123//47 1//47
f 127//9 128//9 130//9
f 6//48 128//48 8//48
f 5//49 129//49 6//49
f 7//50 130//50 5//50
f 8//51 127//51 7//51
f 131//52 132//52 133//52
f 134//53 136//53 148//53
f 147//53 135//53 133//53
f 134//53 148//53 141//53
f 143//53 147//53 133//53
f 134//53 141//53 142//53
f 142//53 143//53 133//53
f 137//54 135//54 147//54
f 146//54 148//54 138//54
f 137//54 147//54 144//54
f 145//54 146//54 138//54
f 137//54 144//54 145//54
f 148//54 136//54 138//54
f 137//55 138//55 139//55
f 157//56 176//56 155//56
f 160//57 170//57 162//57
f 151//20 152//20 153//20
f 157//58 159//58 176//58
f 162//59 169//59 164//59
f 153//21 154//21 155//21
f 151//60 153//60 173//60
f 166//61 164//61 167//61
f 155//22 156//22 157//22
f 180//17 173//17 174//17
f 174//17 175//17 176//17
f 176//17 177//17 178//17
f 178//17 179//17 180//17
f 180//17 174//17 178//17
f 166//62 167//62 152//62
f 157//23 158//23 159//23
f 154//63 150//63 156//63
f 154//64 152//64 150//64
f 159//24 160//24 161//24
f 156//65 172//65 158//65
f 172//2 150//2 149//2
f 149//2 167//2 168//2
f 168//2 169//2 170//2
f 170//2 171//2 172//2
f 172//2 149//2 170//2
f 161//25 162//25 163//25
f 202//20 201//20 208//20
f 165//27 166//27 151//27
f 163//28 164//28 165//28
f 155//66 175//66 153//66
f 158//67 171//67 160//67
f 194//2 192//2 202//2
f 161//68 178//68 159//68
f 163//69 179//69 161//69
f 165//70 180//70 163//70
f 151//71 173//71 165//71
f 183//20 184//20 185//20
f 199//2 188//2 181//2
f 199//25 181//25 211//25
f 185//21 186//21 187//21
f 192//2 190//2 201//2
f 203//21 202//21 207//21
f 189//22 187//22 190//22
f 198//2 196//2 204//2
f 206//22 204//22 207//22
f 189//23 190//23 191//23
f 190//2 188//2 200//2
f 211//2 212//2 207//2
f 205//2 206//2 207//2
f 207//2 208//2 209//2
f 209//2 210//2 211//2
f 212//2 205//2 207//2
f 191//24 192//24 193//24
f 200//28 199//28 210//28
f 196//2 194//2 203//2
f 193//25 194//25 195//25
f 197//27 198//27 183//27
f 197//17 183//17 185//17
f 185//17 187//17 197//17
f 189//17 191//17 193//17
f 193//17 195//17 189//17
f 197//17 187//17 189//17
f 195//28 196//28 197//28
f 184//2 198//2 182//2
f 181//24 182//24 212//24
f 181//2 186//2 182//2
f 182//23 204//23 205//23
f 201//27 200//27 209//27
f 214//72 216//72 213//72
f 215//17 216//17 219//17
f 220//73 218//73 219//73
f 218//2 214//2 217//2
f 222//72 224//72 221//72
f 218//4 220//4 214//4
f 223//17 224//17 227//17
f 228//73 226//73 227//73
f 226//2 222//2 225//2
f 226//4 228//4 222//4
