# Blender v2.76 (sub 0) OBJ File: 'turret_heavy_gun.blend'
# www.blender.org
o Cylinder.001
v 0.000000 0.100000 0.500000
v 0.000000 0.100000 1.750000
v 0.070711 0.070711 0.500000
v 0.070711 0.070711 1.750000
v 0.100000 -0.000000 0.500000
v 0.100000 0.000000 1.750000
v 0.070711 -0.070711 0.500000
v 0.070711 -0.070711 1.750000
v -0.000000 -0.100000 0.500000
v -0.000000 -0.100000 1.750000
v -0.070711 -0.070711 0.500000
v -0.070711 -0.070711 1.750000
v -0.100000 -0.000000 0.500000
v -0.100000 0.000000 1.750000
v -0.070711 0.070711 0.500000
v -0.070711 0.070711 1.750000
v -0.200000 -0.250000 0.250000
v -0.200000 0.250000 0.250000
v -0.200000 -0.100000 -0.750000
v -0.200000 0.200000 -0.750000
v 0.200000 -0.250000 0.250000
v 0.200000 0.250000 0.250000
v 0.200000 -0.100000 -0.750000
v 0.200000 0.200000 -0.750000
v -0.200000 0.250000 -0.250000
v -0.200000 -0.250000 -0.250000
v 0.200000 0.250000 -0.250000
v 0.200000 -0.250000 -0.250000
v 0.000000 0.150000 0.500000
v 0.106066 0.106066 0.500000
v 0.150000 -0.000000 0.500000
v 0.106066 -0.106066 0.500000
v -0.000000 -0.150000 0.500000
v -0.106066 -0.106066 0.500000
v -0.150000 -0.000000 0.500000
v -0.106066 0.106066 0.500000
v 0.106066 0.106066 0.250000
v 0.150000 -0.000000 0.250000
v 0.000000 0.150000 0.250000
v 0.106066 -0.106066 0.250000
v -0.000000 -0.150000 0.250000
v -0.106066 -0.106066 0.250000
v -0.150000 -0.000000 0.250000
v -0.106066 0.106066 0.250000
v -0.074375 -0.131250 2.250000
v -0.148750 0.131250 2.250000
v -0.074375 -0.131250 1.750000
v -0.148750 0.131250 1.750000
v 0.074375 -0.131250 2.250000
v 0.148750 0.131250 2.250000
v 0.074375 -0.131250 1.750000
v 0.148750 0.131250 1.750000
v 0.000000 0.075000 1.750000
v 0.000000 0.075000 2.250000
v 0.053033 0.053033 1.750000
v 0.053033 0.053033 2.250000
v 0.075000 -0.000000 1.750000
v 0.075000 0.000000 2.250000
v 0.053033 -0.053033 1.750000
v 0.053033 -0.053033 2.250000
v -0.000000 -0.075000 1.750000
v -0.000000 -0.075000 2.250000
v -0.053033 -0.053033 1.750000
v -0.053033 -0.053033 2.250000
v -0.075000 -0.000000 1.750000
v -0.075000 0.000000 2.250000
v -0.053033 0.053033 1.750000
v -0.053033 0.053033 2.250000
v -0.375000 0.000000 -0.100000
v 0.375000 0.000000 -0.100000
v -0.375000 -0.070711 -0.070711
v 0.375000 -0.070711 -0.070711
v -0.375000 -0.100000 0.000000
v 0.375000 -0.100000 0.000000
v -0.375000 -0.070711 0.070711
v 0.375000 -0.070711 0.070711
v -0.375000 0.000000 0.100000
v 0.375000 0.000000 0.100000
v -0.375000 0.070711 0.070711
v 0.375000 0.070711 0.070711
v -0.375000 0.100000 -0.000000
v 0.375000 0.100000 -0.000000
v -0.375000 0.070711 -0.070711
v 0.375000 0.070711 -0.070711
v -0.250000 -0.250000 -0.400000
v -0.250000 0.150000 -0.400000
v -0.250000 -0.250000 -0.500000
v -0.250000 0.150000 -0.500000
v 0.250000 -0.250000 -0.400000
v 0.250000 0.150000 -0.400000
v 0.250000 -0.250000 -0.500000
v 0.250000 0.150000 -0.500000
v -0.075000 0.200000 0.100000
v -0.075000 0.319533 0.098137
v -0.075000 0.200000 -0.400000
v -0.075000 0.380467 -0.398137
v 0.075000 0.200000 0.100000
v 0.075000 0.319533 0.098137
v 0.075000 0.200000 -0.400000
v 0.075000 0.380467 -0.398137
v -0.075000 0.438402 0.110854
v -0.075000 0.559362 -0.374294
v 0.075000 0.559362 -0.374294
v 0.075000 0.438402 0.110854
v -0.075000 0.554834 0.137964
v -0.075000 0.734018 -0.328826
v 0.075000 0.734018 -0.328826
v 0.075000 0.554834 0.137964
vn 0.382700 0.923900 -0.000000
vn 0.923900 0.382700 -0.000000
vn 0.923900 -0.382700 0.000000
vn 0.382700 -0.923900 0.000000
vn -0.382700 -0.923900 0.000000
vn -0.923900 -0.382700 0.000000
vn -0.382700 0.923900 -0.000000
vn -0.923900 0.382700 -0.000000
vn 0.000000 0.000000 1.000000
vn 0.000000 0.000000 -1.000000
vn 0.000000 -0.957800 -0.287300
vn 0.000000 0.995000 -0.099500
vn 0.000000 1.000000 0.000000
vn 0.000000 -1.000000 0.000000
vn 1.000000 0.000000 0.000000
vn -1.000000 0.000000 0.000000
vn -0.962100 -0.272600 0.000000
vn 0.962100 -0.272600 0.000000
vn 0.000000 -0.382700 -0.923900
vn 0.000000 -0.923900 -0.382700
vn 0.000000 -0.923900 0.382700
vn 0.000000 -0.382700 0.923900
vn -0.000000 0.382700 0.923900
vn -0.000000 0.923900 0.382700
vn 0.000000 0.382700 -0.923900
vn -0.000000 0.923900 -0.382700
vn 0.000000 0.010300 -0.999900
vn 0.000000 0.015600 0.999900
vn 0.000000 0.132100 -0.991200
vn 0.000000 -0.226800 0.973900
vn 0.000000 -0.106400 0.994300
vn 0.000000 0.933600 0.358400
vn 0.000000 0.251900 -0.967700
s off
f 2//1 4//1 3//1
f 4//2 6//2 5//2
f 6//3 8//3 7//3
f 8//4 10//4 9//4
f 10//5 12//5 11//5
f 12//6 14//6 13//6
f 16//7 2//7 1//7
f 14//8 16//8 15//8
f 9//9 33//9 32//9
f 13//9 15//9 36//9
f 24//10 23//10 19//10
f 30//1 37//1 39//1
f 18//9 17//9 21//9
f 19//11 23//11 28//11
f 24//12 20//12 25//12
f 27//13 25//13 18//13
f 26//14 28//14 21//14
f 27//15 22//15 28//15
f 25//16 19//16 26//16
f 3//9 5//9 31//9
f 11//9 34//9 33//9
f 15//9 1//9 29//9
f 3//9 30//9 29//9
f 7//9 32//9 31//9
f 13//9 35//9 34//9
f 35//8 36//8 44//8
f 34//5 42//5 41//5
f 32//3 40//3 38//3
f 31//2 38//2 37//2
f 29//7 39//7 44//7
f 34//6 35//6 43//6
f 33//4 41//4 40//4
f 48//17 47//17 45//17
f 52//10 51//10 47//10
f 50//18 49//18 51//18
f 47//14 51//14 49//14
f 52//13 48//13 46//13
f 58//9 50//9 56//9
f 55//5 56//5 54//5
f 54//9 46//9 68//9
f 57//6 58//6 56//6
f 68//9 46//9 66//9
f 59//8 60//8 58//8
f 58//9 60//9 49//9
f 61//7 62//7 60//7
f 60//9 62//9 49//9
f 63//1 64//1 62//1
f 50//9 46//9 54//9
f 45//9 49//9 62//9
f 65//2 66//2 64//2
f 62//9 64//9 45//9
f 67//4 53//4 54//4
f 67//3 68//3 66//3
f 56//9 50//9 54//9
f 45//9 64//9 66//9
f 70//19 72//19 71//19
f 72//20 74//20 73//20
f 74//21 76//21 75//21
f 76//22 78//22 77//22
f 78//23 80//23 79//23
f 80//24 82//24 81//24
f 84//25 70//25 69//25
f 82//26 84//26 83//26
f 88//16 87//16 85//16
f 92//10 91//10 87//10
f 90//15 89//15 91//15
f 86//9 85//9 89//9
f 87//14 91//14 89//14
f 92//13 88//13 86//13
f 94//16 96//16 95//16
f 100//27 99//27 95//27
f 98//15 97//15 99//15
f 94//28 93//28 97//28
f 95//14 99//14 97//14
f 96//29 102//29 103//29
f 104//30 108//30 105//30
f 100//15 103//15 104//15
f 96//16 94//16 101//16
f 98//31 104//31 101//31
f 107//32 106//32 105//32
f 102//33 106//33 107//33
f 103//15 107//15 108//15
f 102//16 101//16 105//16
f 1//1 2//1 3//1
f 3//2 4//2 5//2
f 5//3 6//3 7//3
f 7//4 8//4 9//4
f 9//5 10//5 11//5
f 11//6 12//6 13//6
f 15//7 16//7 1//7
f 13//8 14//8 15//8
f 7//9 9//9 32//9
f 35//9 13//9 36//9
f 20//10 24//10 19//10
f 29//1 30//1 39//1
f 22//9 18//9 21//9
f 26//11 19//11 28//11
f 27//12 24//12 25//12
f 22//13 27//13 18//13
f 17//14 26//14 21//14
f 28//15 23//15 27//15
f 24//15 27//15 23//15
f 22//15 21//15 28//15
f 26//16 17//16 18//16
f 18//16 25//16 26//16
f 20//16 19//16 25//16
f 30//9 3//9 31//9
f 9//9 11//9 33//9
f 36//9 15//9 29//9
f 1//9 3//9 29//9
f 5//9 7//9 31//9
f 11//9 13//9 34//9
f 43//8 35//8 44//8
f 33//5 34//5 41//5
f 31//3 32//3 38//3
f 30//2 31//2 37//2
f 36//7 29//7 44//7
f 42//6 34//6 43//6
f 32//4 33//4 40//4
f 46//17 48//17 45//17
f 48//10 52//10 47//10
f 52//18 50//18 51//18
f 45//14 47//14 49//14
f 50//13 52//13 46//13
f 53//5 55//5 54//5
f 55//6 57//6 56//6
f 57//8 59//8 58//8
f 50//9 58//9 49//9
f 59//7 61//7 60//7
f 61//1 63//1 62//1
f 63//2 65//2 64//2
f 68//4 67//4 54//4
f 65//3 67//3 66//3
f 46//9 45//9 66//9
f 69//19 70//19 71//19
f 71//20 72//20 73//20
f 73//21 74//21 75//21
f 75//22 76//22 77//22
f 77//23 78//23 79//23
f 79//24 80//24 81//24
f 83//25 84//25 69//25
f 81//26 82//26 83//26
f 86//16 88//16 85//16
f 88//10 92//10 87//10
f 92//15 90//15 91//15
f 90//9 86//9 89//9
f 85//14 87//14 89//14
f 90//13 92//13 86//13
f 93//16 94//16 95//16
f 96//27 100//27 95//27
f 100//15 98//15 99//15
f 98//28 94//28 97//28
f 93//14 95//14 97//14
f 100//29 96//29 103//29
f 101//30 104//30 105//30
f 98//15 100//15 104//15
f 102//16 96//16 101//16
f 94//31 98//31 101//31
f 108//32 107//32 105//32
f 103//33 102//33 107//33
f 104//15 103//15 108//15
f 106//16 102//16 105//16
