# Blender v2.76 (sub 0) OBJ File: 'turret_spitfire_base.blend'
# www.blender.org
o Cylinder
v 0.000000 0.000000 -1.000000
v 0.000000 0.125000 -1.000000
v 0.707107 0.000000 -0.707107
v 0.707107 0.125000 -0.707107
v 1.000000 0.000000 0.000000
v 1.000000 0.125000 0.000000
v 0.707107 0.000000 0.707107
v 0.707107 0.125000 0.707107
v -0.000000 0.000000 1.000000
v -0.000000 0.125000 1.000000
v -0.707107 0.000000 0.707107
v -0.707107 0.125000 0.707107
v -1.000000 0.000000 -0.000000
v -1.000000 0.125000 -0.000000
v -0.707107 0.000000 -0.707107
v -0.707107 0.125000 -0.707107
vn 0.382700 0.000000 -0.923900
vn 0.923900 0.000000 -0.382700
vn 0.923900 0.000000 0.382700
vn 0.382700 0.000000 0.923900
vn -0.382700 0.000000 0.923900
vn -0.923900 0.000000 0.382700
vn 0.000000 1.000000 -0.000000
vn -0.382700 0.000000 -0.923900
vn -0.923900 0.000000 -0.382700
vn 0.000000 -1.000000 0.000000
s off
f 2//1 4//1 3//1
f 4//2 6//2 5//2
f 6//3 8//3 7//3
f 8//4 10//4 9//4
f 10//5 12//5 11//5
f 12//6 14//6 13//6
f 14//7 8//7 6//7
f 16//8 2//8 1//8
f 14//9 16//9 15//9
f 7//10 11//10 15//10
f 1//1 2//1 3//1
f 3//2 4//2 5//2
f 5//3 6//3 7//3
f 7//4 8//4 9//4
f 9//5 10//5 11//5
f 11//6 12//6 13//6
f 6//7 4//7 2//7
f 2//7 16//7 6//7
f 14//7 12//7 10//7
f 10//7 8//7 14//7
f 6//7 16//7 14//7
f 15//8 16//8 1//8
f 13//9 14//9 15//9
f 15//10 1//10 3//10
f 3//10 5//10 15//10
f 7//10 9//10 11//10
f 11//10 13//10 15//10
f 15//10 5//10 7//10
