# Blender v2.76 (sub 0) OBJ File: 'turret_heavy_rotor.blend'
# www.blender.org
o Cylinder
v -0.282588 1.117500 -0.222228
v -0.282588 0.250000 -0.222229
v 0.332588 0.250000 -0.222228
v 0.332588 1.117500 -0.222228
v 0.369552 0.250000 -0.153073
v 0.369552 1.192500 -0.153073
v 0.392314 0.250000 -0.078036
v 0.392314 1.237500 -0.078036
v 0.400000 0.250000 -0.000000
v 0.400000 1.250000 -0.000000
v 0.392314 0.250000 0.078036
v 0.392314 1.237500 0.078036
v 0.369552 0.250000 0.153073
v 0.369552 1.192500 0.153073
v 0.332588 0.250000 0.222228
v 0.332588 1.117500 0.222228
v -0.319552 1.192500 0.153073
v -0.319552 0.250000 0.153073
v -0.282588 1.117500 0.222228
v -0.282588 0.250000 0.222228
v 0.282588 1.117500 0.222228
v 0.282588 0.250000 0.222228
v 0.319552 1.192500 0.153073
v 0.319552 0.250000 0.153073
v 0.342314 1.237500 0.078036
v 0.342314 0.250000 0.078036
v 0.350000 1.250000 -0.000000
v 0.350000 0.250000 -0.000000
v 0.342314 1.237500 -0.078036
v 0.342314 0.250000 -0.078036
v 0.319552 1.192500 -0.153073
v 0.319552 0.250000 -0.153073
v 0.282588 1.117500 -0.222228
v 0.282588 0.250000 -0.222228
v -0.332588 0.250000 0.222228
v -0.332588 1.117500 0.222228
v -0.369552 0.250000 0.153073
v -0.369552 1.192500 0.153073
v -0.392314 0.250000 0.078036
v -0.392314 1.237500 0.078036
v -0.400000 0.250000 -0.000000
v -0.400000 1.250000 -0.000000
v -0.392314 0.250000 -0.078037
v -0.392314 1.237500 -0.078037
v -0.369552 0.250000 -0.153074
v -0.369552 1.192500 -0.153074
v -0.332588 0.250000 -0.222229
v -0.332588 1.117500 -0.222228
v -0.319552 1.192500 -0.153074
v -0.319552 0.250000 -0.153074
v -0.342314 1.237500 -0.078037
v -0.342314 0.250000 -0.078037
v -0.350000 1.250000 -0.000000
v -0.350000 0.250000 -0.000000
v -0.342314 1.237500 0.078036
v -0.342314 0.250000 0.078036
v -0.700000 0.507596 0.386824
v -0.200000 0.507596 0.386824
v -0.700000 1.342404 0.213176
v -0.200000 1.492404 0.213176
v 0.200000 0.507596 0.386824
v 0.700000 0.507596 0.386824
v 0.200000 1.492404 0.213176
v 0.700000 1.342404 0.213176
vn 0.000000 0.987400 0.158200
vn 0.000000 0.987400 -0.158200
vn 0.881900 -0.000000 -0.471400
vn 0.956900 0.000000 -0.290300
vn 0.995200 0.000000 -0.098000
vn 0.995200 0.000000 0.098000
vn 0.956900 0.000000 0.290300
vn 0.881900 -0.000000 0.471400
vn -0.881900 -0.000000 -0.471400
vn -0.956900 0.000000 -0.290300
vn -0.995200 0.000000 -0.098000
vn -0.995200 0.000000 0.098000
vn -0.956900 0.000000 0.290300
vn -0.881900 -0.000000 0.471400
vn 0.000000 0.857600 -0.514300
vn 0.000000 0.677900 -0.735200
vn 0.000000 0.000000 -1.000000
vn 0.000000 0.857600 0.514300
vn 0.000000 0.677900 0.735200
vn 0.000000 -0.000000 1.000000
vn -0.052000 0.173400 0.983500
vn 0.000000 0.203700 0.979000
vn 0.052000 0.173400 0.983500
s off
f 12//1 10//1 27//1
f 8//2 29//2 27//2
f 4//3 6//3 5//3
f 6//4 8//4 7//4
f 8//5 10//5 9//5
f 9//6 10//6 12//6
f 11//7 12//7 14//7
f 13//8 14//8 16//8
f 54//6 52//6 51//6
f 54//5 53//5 55//5
f 56//4 55//4 17//4
f 18//3 17//3 19//3
f 24//9 22//9 21//9
f 26//10 24//10 23//10
f 28//11 26//11 25//11
f 28//12 27//12 29//12
f 30//13 29//13 31//13
f 32//14 31//14 33//14
f 36//14 38//14 37//14
f 38//13 40//13 39//13
f 40//12 42//12 41//12
f 41//11 42//11 44//11
f 43//10 44//10 46//10
f 45//9 46//9 48//9
f 6//15 31//15 29//15
f 4//16 33//16 31//16
f 34//17 33//17 4//17
f 50//8 2//8 1//8
f 52//7 50//7 49//7
f 25//18 23//18 14//18
f 23//19 21//19 16//19
f 16//20 21//20 22//20
f 19//20 36//20 35//20
f 17//19 38//19 36//19
f 55//18 40//18 38//18
f 53//1 42//1 40//1
f 53//2 51//2 44//2
f 51//15 49//15 46//15
f 49//16 1//16 48//16
f 48//17 1//17 2//17
f 58//21 60//21 59//21
f 61//22 62//22 64//22
f 25//1 12//1 27//1
f 10//2 8//2 27//2
f 3//3 4//3 5//3
f 5//4 6//4 7//4
f 7//5 8//5 9//5
f 11//6 9//6 12//6
f 13//7 11//7 14//7
f 15//8 13//8 16//8
f 53//6 54//6 51//6
f 56//5 54//5 55//5
f 18//4 56//4 17//4
f 20//3 18//3 19//3
f 23//9 24//9 21//9
f 25//10 26//10 23//10
f 27//11 28//11 25//11
f 30//12 28//12 29//12
f 32//13 30//13 31//13
f 34//14 32//14 33//14
f 35//14 36//14 37//14
f 37//13 38//13 39//13
f 39//12 40//12 41//12
f 43//11 41//11 44//11
f 45//10 43//10 46//10
f 47//9 45//9 48//9
f 8//15 6//15 29//15
f 6//16 4//16 31//16
f 3//17 34//17 4//17
f 49//8 50//8 1//8
f 51//7 52//7 49//7
f 12//18 25//18 14//18
f 14//19 23//19 16//19
f 15//20 16//20 22//20
f 20//20 19//20 35//20
f 19//19 17//19 36//19
f 17//18 55//18 38//18
f 55//1 53//1 40//1
f 42//2 53//2 44//2
f 44//15 51//15 46//15
f 46//16 49//16 48//16
f 47//17 48//17 2//17
f 57//22 58//22 59//22
f 63//23 61//23 64//23
