# Blender v2.76 (sub 0) OBJ File: 'turret_cheapo_gun.blend'
# www.blender.org
o Cylinder
v -0.009151 -0.034151 1.462500
v -0.052452 -0.059151 1.462500
v -0.009151 -0.034151 0.462500
v -0.052452 -0.059151 0.462500
v -0.034151 0.009151 1.462500
v -0.077452 -0.015849 1.462500
v -0.034151 0.009151 0.462500
v -0.077452 -0.015849 0.462500
v 0.034151 0.009151 1.462500
v 0.077452 -0.015849 1.462500
v 0.034151 0.009151 0.462500
v 0.077452 -0.015849 0.462500
v 0.009151 -0.034151 1.462500
v 0.052452 -0.059151 1.462500
v 0.009151 -0.034151 0.462500
v 0.052452 -0.059151 0.462500
v -0.025000 0.025000 1.462500
v -0.025000 0.075000 1.462500
v -0.025000 0.025000 0.462500
v -0.025000 0.075000 0.462500
v 0.025000 0.025000 1.462500
v 0.025000 0.075000 1.462500
v 0.025000 0.025000 0.462500
v 0.025000 0.075000 0.462500
v 0.000000 0.100000 0.400000
v 0.000000 0.100000 0.462500
v 0.070711 0.070711 0.400000
v 0.070711 0.070711 0.462500
v 0.100000 -0.000000 0.400000
v 0.100000 0.000000 0.462500
v 0.070711 -0.070711 0.400000
v 0.070711 -0.070711 0.462500
v -0.000000 -0.100000 0.400000
v -0.000000 -0.100000 0.462500
v -0.070711 -0.070711 0.400000
v -0.070711 -0.070711 0.462500
v -0.100000 -0.000000 0.400000
v -0.100000 0.000000 0.462500
v -0.070711 0.070711 0.400000
v -0.070711 0.070711 0.462500
v 0.000000 0.100000 0.700000
v 0.000000 0.100000 0.762500
v 0.070711 0.070711 0.700000
v 0.070711 0.070711 0.762500
v 0.100000 -0.000000 0.700000
v 0.100000 0.000000 0.762500
v 0.070711 -0.070711 0.700000
v 0.070711 -0.070711 0.762500
v -0.000000 -0.100000 0.700000
v -0.000000 -0.100000 0.762500
v -0.070711 -0.070711 0.700000
v -0.070711 -0.070711 0.762500
v -0.100000 -0.000000 0.700000
v -0.100000 0.000000 0.762500
v -0.070711 0.070711 0.700000
v -0.070711 0.070711 0.762500
v 0.000000 0.100000 0.800000
v 0.000000 0.100000 0.862500
v 0.070711 0.070711 0.800000
v 0.070711 0.070711 0.862500
v 0.100000 -0.000000 0.800000
v 0.100000 0.000000 0.862500
v 0.070711 -0.070711 0.800000
v 0.070711 -0.070711 0.862500
v -0.000000 -0.100000 0.800000
v -0.000000 -0.100000 0.862500
v -0.070711 -0.070711 0.800000
v -0.070711 -0.070711 0.862500
v -0.100000 -0.000000 0.800000
v -0.100000 0.000000 0.862500
v -0.070711 0.070711 0.800000
v -0.070711 0.070711 0.862500
v 0.000000 0.100000 0.900000
v 0.000000 0.100000 0.962500
v 0.070711 0.070711 0.900000
v 0.070711 0.070711 0.962500
v 0.100000 -0.000000 0.900000
v 0.100000 0.000000 0.962500
v 0.070711 -0.070711 0.900000
v 0.070711 -0.070711 0.962500
v -0.000000 -0.100000 0.900000
v -0.000000 -0.100000 0.962500
v -0.070711 -0.070711 0.900000
v -0.070711 -0.070711 0.962500
v -0.100000 -0.000000 0.900000
v -0.100000 0.000000 0.962500
v -0.070711 0.070711 0.900000
v -0.070711 0.070711 0.962500
v 0.000000 0.100000 1.100000
v 0.000000 0.100000 1.412500
v 0.070711 0.070711 1.100000
v 0.070711 0.070711 1.412500
v 0.100000 -0.000000 1.100000
v 0.100000 0.000000 1.412500
v 0.070711 -0.070711 1.100000
v 0.070711 -0.070711 1.412500
v -0.000000 -0.100000 1.100000
v -0.000000 -0.100000 1.412500
v -0.070711 -0.070711 1.100000
v -0.070711 -0.070711 1.412500
v -0.100000 -0.000000 1.100000
v -0.100000 0.000000 1.412500
v -0.070711 0.070711 1.100000
v -0.070711 0.070711 1.412500
vt 0.640052 0.249617
vt 0.640052 0.280553
vt 0.021334 0.280552
vt 0.021334 0.218681
vt 0.021334 0.187745
vt 0.640052 0.187745
vt 0.573646 0.520567
vt 0.604582 0.520567
vt 0.604582 0.551503
vt 0.640052 0.311488
vt 0.021334 0.311488
vt 0.640052 0.218681
vt 0.021334 0.249617
vt 0.640052 0.083205
vt 0.640052 0.114141
vt 0.021334 0.114142
vt 0.021334 0.052270
vt 0.021334 0.021334
vt 0.640052 0.021334
vt 0.604582 0.667774
vt 0.604582 0.698710
vt 0.573646 0.698710
vt 0.640052 0.145077
vt 0.021334 0.145077
vt 0.640052 0.052269
vt 0.021334 0.083206
vt 0.640052 0.416028
vt 0.640052 0.446964
vt 0.021334 0.446963
vt 0.021334 0.385092
vt 0.021334 0.354156
vt 0.640052 0.354156
vt 0.573646 0.625107
vt 0.573646 0.594171
vt 0.604582 0.594171
vt 0.640052 0.477900
vt 0.021334 0.477899
vt 0.640052 0.385092
vt 0.021334 0.416028
vt 0.845395 0.632256
vt 0.884065 0.632256
vt 0.884065 0.679611
vt 0.884065 0.726965
vt 0.845395 0.726965
vt 0.884065 0.774320
vt 0.884064 0.821675
vt 0.845395 0.821675
vt 0.884065 0.442838
vt 0.884065 0.490193
vt 0.845395 0.490193
vt 0.884065 0.537547
vt 0.845395 0.537547
vt 0.102671 0.758398
vt 0.136156 0.677559
vt 0.183511 0.791883
vt 0.884065 0.584902
vt 0.845395 0.584902
vt 0.497494 0.948874
vt 0.450139 0.948874
vt 0.416655 0.868035
vt 0.802727 0.632256
vt 0.802727 0.679611
vt 0.764057 0.679611
vt 0.802727 0.726965
vt 0.764057 0.726965
vt 0.802727 0.774320
vt 0.802727 0.821675
vt 0.764057 0.821675
vt 0.802727 0.442838
vt 0.802727 0.490193
vt 0.764057 0.490193
vt 0.802727 0.537547
vt 0.764057 0.537547
vt 0.259663 0.758398
vt 0.293148 0.677559
vt 0.340502 0.791883
vt 0.802727 0.584902
vt 0.764057 0.632256
vt 0.764057 0.584902
vt 0.763559 0.978666
vt 0.716204 0.978666
vt 0.682720 0.897827
vt 0.060004 0.709985
vt 0.060004 0.757340
vt 0.021334 0.757340
vt 0.060004 0.804695
vt 0.021334 0.804695
vt 0.060004 0.852049
vt 0.060004 0.899404
vt 0.021334 0.899404
vt 0.060004 0.520567
vt 0.060004 0.567922
vt 0.021334 0.567922
vt 0.060004 0.615276
vt 0.021334 0.615276
vt 0.416655 0.601406
vt 0.450139 0.520567
vt 0.497494 0.634891
vt 0.021334 0.662631
vt 0.060004 0.662631
vt 0.340502 0.948874
vt 0.293148 0.948875
vt 0.259663 0.868035
vt 0.682720 0.632256
vt 0.682720 0.584902
vt 0.721389 0.584902
vt 0.682720 0.537547
vt 0.721389 0.537547
vt 0.682720 0.490193
vt 0.682720 0.442838
vt 0.721389 0.442838
vt 0.682720 0.821675
vt 0.682720 0.774320
vt 0.721390 0.774320
vt 0.682720 0.726966
vt 0.721389 0.726966
vt 0.259663 0.601406
vt 0.293148 0.520567
vt 0.340502 0.634891
vt 0.721389 0.679611
vt 0.682720 0.679611
vt 0.183511 0.948874
vt 0.136156 0.948875
vt 0.102671 0.868035
vt 0.682720 0.210752
vt 0.682720 0.163398
vt 0.876069 0.163398
vt 0.682720 0.116043
vt 0.876069 0.116043
vt 0.682720 0.068688
vt 0.682720 0.021334
vt 0.876069 0.021334
vt 0.682720 0.400170
vt 0.682720 0.352816
vt 0.876069 0.352816
vt 0.682720 0.305461
vt 0.876069 0.305461
vt 0.102671 0.601406
vt 0.136156 0.520567
vt 0.183511 0.634891
vt 0.682720 0.258107
vt 0.876069 0.210752
vt 0.876069 0.258107
vt 0.497494 0.791883
vt 0.450139 0.791883
vt 0.416655 0.711044
vt 0.573646 0.551503
vt 0.573646 0.667774
vt 0.604582 0.625107
vt 0.845395 0.679611
vt 0.845395 0.774320
vt 0.845395 0.442838
vt 0.216995 0.711044
vt 0.216995 0.758398
vt 0.136156 0.791883
vt 0.102671 0.711044
vt 0.183511 0.677559
vt 0.450139 0.834550
vt 0.530979 0.915390
vt 0.497494 0.834550
vt 0.530979 0.868035
vt 0.416655 0.915390
vt 0.764057 0.774320
vt 0.764057 0.442838
vt 0.373987 0.711044
vt 0.373987 0.758398
vt 0.293148 0.791883
vt 0.259663 0.711044
vt 0.340502 0.677559
vt 0.716204 0.864342
vt 0.797044 0.945181
vt 0.763559 0.864342
vt 0.797044 0.897827
vt 0.682720 0.945182
vt 0.021334 0.709985
vt 0.021334 0.852049
vt 0.021334 0.520567
vt 0.530979 0.554052
vt 0.530979 0.601406
vt 0.450139 0.634891
vt 0.416655 0.554052
vt 0.497494 0.520567
vt 0.293148 0.834551
vt 0.373987 0.915390
vt 0.340502 0.834551
vt 0.373987 0.868035
vt 0.259663 0.915390
vt 0.721389 0.632256
vt 0.721389 0.490193
vt 0.721390 0.821675
vt 0.373987 0.554052
vt 0.373987 0.601407
vt 0.293148 0.634891
vt 0.259663 0.554052
vt 0.340502 0.520567
vt 0.136156 0.834551
vt 0.216995 0.915390
vt 0.183511 0.834551
vt 0.216995 0.868035
vt 0.102671 0.915390
vt 0.876069 0.068688
vt 0.876069 0.400170
vt 0.216995 0.554052
vt 0.216995 0.601407
vt 0.136156 0.634891
vt 0.102671 0.554052
vt 0.183511 0.520567
vt 0.450139 0.677559
vt 0.530979 0.758398
vt 0.497494 0.677559
vt 0.530979 0.711044
vt 0.416655 0.758398
vn 0.500000 -0.866000 0.000000
vn -0.500000 0.866000 0.000000
vn 0.000000 0.000000 1.000000
vn 0.866000 0.500000 0.000000
vn -0.866000 -0.500000 0.000000
vn 0.500000 0.866000 0.000000
vn -0.500000 -0.866000 0.000000
vn -0.866000 0.500000 0.000000
vn 0.866000 -0.500000 0.000000
vn -1.000000 0.000000 0.000000
vn 1.000000 0.000000 0.000000
vn 0.000000 -1.000000 0.000000
vn 0.000000 1.000000 0.000000
vn 0.382700 0.923900 -0.000000
vn 0.923900 0.382700 -0.000000
vn 0.923900 -0.382700 0.000000
vn 0.382700 -0.923900 0.000000
vn -0.382700 -0.923900 0.000000
vn -0.923900 -0.382700 0.000000
vn -0.382700 0.923900 -0.000000
vn -0.923900 0.382700 -0.000000
vn 0.000000 0.000000 -1.000000
s off
f 4/1/1 3/2/1 1/3/1
f 6/4/2 5/5/2 7/6/2
f 2/7/3 1/8/3 5/9/3
f 3/2/4 7/10/4 5/11/4
f 8/12/5 4/1/5 2/13/5
f 12/14/6 11/15/6 9/16/6
f 14/17/7 13/18/7 15/19/7
f 14/20/3 10/21/3 9/22/3
f 11/15/8 15/23/8 13/24/8
f 16/25/9 12/14/9 10/26/9
f 20/27/10 19/28/10 17/29/10
f 22/30/11 21/31/11 23/32/11
f 18/33/3 17/34/3 21/35/3
f 19/28/12 23/36/12 21/37/12
f 24/38/13 20/27/13 18/39/13
f 25/40/14 26/41/14 28/42/14
f 28/42/15 30/43/15 29/44/15
f 29/44/16 30/43/16 32/45/16
f 32/45/17 34/46/17 33/47/17
f 34/48/18 36/49/18 35/50/18
f 36/49/19 38/51/19 37/52/19
f 38/53/3 34/54/3 26/55/3
f 40/56/20 26/41/20 25/40/20
f 38/51/21 40/56/21 39/57/21
f 33/58/22 35/59/22 39/60/22
f 42/61/14 44/62/14 43/63/14
f 43/63/15 44/62/15 46/64/15
f 45/65/16 46/64/16 48/66/16
f 48/66/17 50/67/17 49/68/17
f 50/69/18 52/70/18 51/71/18
f 52/70/19 54/72/19 53/73/19
f 54/74/3 50/75/3 42/76/3
f 56/77/20 42/61/20 41/78/20
f 54/72/21 56/77/21 55/79/21
f 49/80/22 51/81/22 55/82/22
f 58/83/14 60/84/14 59/85/14
f 59/85/15 60/84/15 62/86/15
f 61/87/16 62/86/16 64/88/16
f 64/88/17 66/89/17 65/90/17
f 66/91/18 68/92/18 67/93/18
f 68/92/19 70/94/19 69/95/19
f 70/96/3 66/97/3 58/98/3
f 71/99/20 72/100/20 58/83/20
f 70/94/21 72/100/21 71/99/21
f 65/101/22 67/102/22 71/103/22
f 74/104/14 76/105/14 75/106/14
f 75/106/15 76/105/15 78/107/15
f 77/108/16 78/107/16 80/109/16
f 80/109/17 82/110/17 81/111/17
f 82/112/18 84/113/18 83/114/18
f 84/113/19 86/115/19 85/116/19
f 86/117/3 82/118/3 74/119/3
f 87/120/20 88/121/20 74/104/20
f 86/115/21 88/121/21 87/120/21
f 81/122/22 83/123/22 87/124/22
f 90/125/14 92/126/14 91/127/14
f 92/126/15 94/128/15 93/129/15
f 93/129/16 94/128/16 96/130/16
f 96/130/17 98/131/17 97/132/17
f 98/133/18 100/134/18 99/135/18
f 100/134/19 102/136/19 101/137/19
f 102/138/3 98/139/3 90/140/3
f 104/141/20 90/125/20 89/142/20
f 102/136/21 104/141/21 103/143/21
f 97/144/22 99/145/22 103/146/22
f 2/13/1 4/1/1 1/3/1
f 8/12/2 6/4/2 7/6/2
f 6/147/3 2/7/3 5/9/3
f 1/3/4 3/2/4 5/11/4
f 6/4/5 8/12/5 2/13/5
f 10/26/6 12/14/6 9/16/6
f 16/25/7 14/17/7 15/19/7
f 13/148/3 14/20/3 9/22/3
f 9/16/8 11/15/8 13/24/8
f 14/17/9 16/25/9 10/26/9
f 18/39/10 20/27/10 17/29/10
f 24/38/11 22/30/11 23/32/11
f 22/149/3 18/33/3 21/35/3
f 17/29/12 19/28/12 21/37/12
f 22/30/13 24/38/13 18/39/13
f 27/150/14 25/40/14 28/42/14
f 27/150/15 28/42/15 29/44/15
f 31/151/16 29/44/16 32/45/16
f 31/151/17 32/45/17 33/47/17
f 33/152/18 34/48/18 35/50/18
f 35/50/19 36/49/19 37/52/19
f 30/153/3 28/154/3 26/55/3
f 26/55/3 40/155/3 38/53/3
f 38/53/3 36/156/3 34/54/3
f 34/54/3 32/157/3 30/153/3
f 30/153/3 26/55/3 34/54/3
f 39/57/20 40/56/20 25/40/20
f 37/52/21 38/51/21 39/57/21
f 39/60/22 25/158/22 31/159/22
f 27/160/22 29/161/22 31/159/22
f 31/159/22 33/58/22 39/60/22
f 35/59/22 37/162/22 39/60/22
f 25/158/22 27/160/22 31/159/22
f 41/78/14 42/61/14 43/63/14
f 45/65/15 43/63/15 46/64/15
f 47/163/16 45/65/16 48/66/16
f 47/163/17 48/66/17 49/68/17
f 49/164/18 50/69/18 51/71/18
f 51/71/19 52/70/19 53/73/19
f 46/165/3 44/166/3 42/76/3
f 42/76/3 56/167/3 54/74/3
f 54/74/3 52/168/3 50/75/3
f 50/75/3 48/169/3 46/165/3
f 46/165/3 42/76/3 50/75/3
f 55/79/20 56/77/20 41/78/20
f 53/73/21 54/72/21 55/79/21
f 55/82/22 41/170/22 47/171/22
f 43/172/22 45/173/22 47/171/22
f 47/171/22 49/80/22 55/82/22
f 51/81/22 53/174/22 55/82/22
f 41/170/22 43/172/22 47/171/22
f 57/175/14 58/83/14 59/85/14
f 61/87/15 59/85/15 62/86/15
f 63/176/16 61/87/16 64/88/16
f 63/176/17 64/88/17 65/90/17
f 65/177/18 66/91/18 67/93/18
f 67/93/19 68/92/19 69/95/19
f 62/178/3 60/179/3 58/98/3
f 58/98/3 72/180/3 70/96/3
f 70/96/3 68/181/3 66/97/3
f 66/97/3 64/182/3 62/178/3
f 62/178/3 58/98/3 66/97/3
f 57/175/20 71/99/20 58/83/20
f 69/95/21 70/94/21 71/99/21
f 71/103/22 57/183/22 63/184/22
f 59/185/22 61/186/22 63/184/22
f 63/184/22 65/101/22 71/103/22
f 67/102/22 69/187/22 71/103/22
f 57/183/22 59/185/22 63/184/22
f 73/188/14 74/104/14 75/106/14
f 77/108/15 75/106/15 78/107/15
f 79/189/16 77/108/16 80/109/16
f 79/189/17 80/109/17 81/111/17
f 81/190/18 82/112/18 83/114/18
f 83/114/19 84/113/19 85/116/19
f 78/191/3 76/192/3 74/119/3
f 74/119/3 88/193/3 86/117/3
f 86/117/3 84/194/3 82/118/3
f 82/118/3 80/195/3 78/191/3
f 78/191/3 74/119/3 82/118/3
f 73/188/20 87/120/20 74/104/20
f 85/116/21 86/115/21 87/120/21
f 87/124/22 73/196/22 79/197/22
f 75/198/22 77/199/22 79/197/22
f 79/197/22 81/122/22 87/124/22
f 83/123/22 85/200/22 87/124/22
f 73/196/22 75/198/22 79/197/22
f 89/142/14 90/125/14 91/127/14
f 91/127/15 92/126/15 93/129/15
f 95/201/16 93/129/16 96/130/16
f 95/201/17 96/130/17 97/132/17
f 97/202/18 98/133/18 99/135/18
f 99/135/19 100/134/19 101/137/19
f 94/203/3 92/204/3 90/140/3
f 90/140/3 104/205/3 102/138/3
f 102/138/3 100/206/3 98/139/3
f 98/139/3 96/207/3 94/203/3
f 94/203/3 90/140/3 98/139/3
f 103/143/20 104/141/20 89/142/20
f 101/137/21 102/136/21 103/143/21
f 103/146/22 89/208/22 95/209/22
f 91/210/22 93/211/22 95/209/22
f 95/209/22 97/144/22 103/146/22
f 99/145/22 101/212/22 103/146/22
f 89/208/22 91/210/22 95/209/22
