# Blender v2.76 (sub 0) OBJ File: 'launch_table_small_scaffold_empty.blend'
# www.blender.org
o Cube.008_Cube.009
v -0.500000 0.000000 -0.375000
v -0.500000 1.000000 -0.375000
v -0.500000 0.000000 -0.500000
v -0.500000 1.000000 -0.500000
v -0.375000 0.000000 -0.375000
v -0.375000 1.000000 -0.375000
v -0.375000 0.000000 -0.500000
v -0.375000 1.000000 -0.500000
v -0.500000 0.000000 0.500000
v -0.500000 1.000000 0.500000
v -0.500000 0.000000 0.375000
v -0.500000 1.000000 0.375000
v -0.375000 0.000000 0.500000
v -0.375000 1.000000 0.500000
v -0.375000 0.000000 0.375000
v -0.375000 1.000000 0.375000
v 0.375000 0.000000 0.500000
v 0.375000 1.000000 0.500000
v 0.375000 0.000000 0.375000
v 0.375000 1.000000 0.375000
v 0.500000 0.000000 0.500000
v 0.500000 1.000000 0.500000
v 0.500000 0.000000 0.375000
v 0.500000 1.000000 0.375000
v 0.375000 0.000000 -0.375000
v 0.375000 1.000000 -0.375000
v 0.375000 0.000000 -0.500000
v 0.375000 1.000000 -0.500000
v 0.500000 0.000000 -0.375000
v 0.500000 1.000000 -0.375000
v 0.500000 0.000000 -0.500000
v 0.500000 1.000000 -0.500000
v -0.375000 0.000000 -0.437500
v -0.375000 1.000000 -0.437500
v 0.375000 0.000000 -0.437500
v 0.375000 1.000000 -0.437500
v -0.375000 0.000000 0.437500
v -0.375000 1.000000 0.437500
v 0.375000 0.000000 0.437500
v 0.375000 1.000000 0.437500
v -0.437500 0.000000 0.375000
v -0.437500 1.000000 0.375000
v -0.437500 0.000000 -0.375000
v -0.437500 1.000000 -0.375000
v 0.437500 0.000000 0.375000
v 0.437500 1.000000 0.375000
v 0.437500 0.000000 -0.375000
v 0.437500 1.000000 -0.375000
v -0.375000 0.000000 -0.437500
v -0.375000 1.000000 -0.437500
v 0.375000 0.000000 -0.437500
v 0.375000 1.000000 -0.437500
v -0.375000 0.000000 0.437500
v -0.375000 1.000000 0.437500
v 0.375000 0.000000 0.437500
v 0.375000 1.000000 0.437500
v -0.437500 0.000000 0.375000
v -0.437500 1.000000 0.375000
v -0.437500 0.000000 -0.375000
v -0.437500 1.000000 -0.375000
v 0.437500 0.000000 0.375000
v 0.437500 1.000000 0.375000
v 0.437500 0.000000 -0.375000
v 0.437500 1.000000 -0.375000
vt 0.035714 0.285714
vt 0.035714 -0.000000
vt 0.071429 0.000000
vt 0.000000 0.285714
vt -0.000000 0.000000
vt 0.107143 0.285714
vt 0.107143 -0.000000
vt 0.142857 -0.000000
vt 0.071429 0.285714
vt 0.035714 0.321429
vt 0.214286 0.714286
vt 0.000000 0.714286
vt -0.000000 0.428571
vt 0.428571 0.428571
vt 0.428571 0.714286
vt 0.214286 1.000000
vt 0.000000 1.000000
vt 0.428571 1.000000
vt 0.142857 0.285714
vt 0.000000 0.321429
vt 0.214286 0.428571
vn -1.000000 0.000000 0.000000
vn 0.000000 0.000000 -1.000000
vn 1.000000 0.000000 0.000000
vn 0.000000 0.000000 1.000000
vn 0.000000 1.000000 0.000000
s off
f 4/1/1 3/2/1 1/3/1
f 8/4/2 7/5/2 3/2/2
f 6/6/3 5/7/3 7/8/3
f 2/9/4 1/3/4 5/7/4
f 8/4/5 4/1/5 2/10/5
f 12/1/1 11/2/1 9/3/1
f 16/4/2 15/5/2 11/2/2
f 14/6/3 13/7/3 15/8/3
f 10/9/4 9/3/4 13/7/4
f 16/4/5 12/1/5 10/10/5
f 20/1/1 19/2/1 17/3/1
f 24/4/2 23/5/2 19/2/2
f 22/6/3 21/7/3 23/8/3
f 18/9/4 17/3/4 21/7/4
f 24/4/5 20/1/5 18/10/5
f 28/1/1 27/2/1 25/3/1
f 32/4/2 31/5/2 27/2/2
f 30/6/3 29/7/3 31/8/3
f 26/9/4 25/3/4 29/7/4
f 32/4/5 28/1/5 26/10/5
f 34/11/2 36/12/2 35/13/2
f 39/14/4 40/15/4 38/11/4
f 42/16/1 44/17/1 43/12/1
f 47/15/3 48/18/3 46/16/3
f 51/13/4 52/12/4 50/11/4
f 54/11/2 56/15/2 55/14/2
f 59/12/3 60/17/3 58/16/3
f 62/16/1 64/18/1 63/15/1
f 2/9/1 4/1/1 1/3/1
f 4/1/2 8/4/2 3/2/2
f 8/19/3 6/6/3 7/8/3
f 6/6/4 2/9/4 5/7/4
f 6/20/5 8/4/5 2/10/5
f 10/9/1 12/1/1 9/3/1
f 12/1/2 16/4/2 11/2/2
f 16/19/3 14/6/3 15/8/3
f 14/6/4 10/9/4 13/7/4
f 14/20/5 16/4/5 10/10/5
f 18/9/1 20/1/1 17/3/1
f 20/1/2 24/4/2 19/2/2
f 24/19/3 22/6/3 23/8/3
f 22/6/4 18/9/4 21/7/4
f 22/20/5 24/4/5 18/10/5
f 26/9/1 28/1/1 25/3/1
f 28/1/2 32/4/2 27/2/2
f 32/19/3 30/6/3 31/8/3
f 30/6/4 26/9/4 29/7/4
f 30/20/5 32/4/5 26/10/5
f 33/21/2 34/11/2 35/13/2
f 37/21/4 39/14/4 38/11/4
f 41/11/1 42/16/1 43/12/1
f 45/11/3 47/15/3 46/16/3
f 49/21/4 51/13/4 50/11/4
f 53/21/2 54/11/2 55/14/2
f 57/11/3 59/12/3 58/16/3
f 61/11/1 62/16/1 63/15/1
