# Blender v2.76 (sub 0) OBJ File: 'soyuz_launcher_table.blend'
# www.blender.org
o Cube_Cube.001
v -6.500000 3.000000 6.500000
v -6.500000 5.000000 6.500000
v -6.500000 3.000000 -6.500000
v -6.500000 5.000000 -6.500000
v 6.500000 3.000000 6.500000
v 6.500000 5.000000 6.500000
v 6.500000 3.000000 -6.500000
v 6.500000 5.000000 -6.500000
v -1.500000 5.000000 1.500000
v 1.500000 5.000000 1.500000
v -1.500000 5.000000 -1.500000
v 1.500000 5.000000 -1.500000
v 3.500000 5.000000 1.500000
v 3.500000 5.000000 -1.500000
v -1.500000 5.000000 -3.500000
v 1.500000 5.000000 -3.500000
v -3.500000 5.000000 1.500000
v -3.500000 5.000000 -1.500000
v -1.500000 5.000000 3.500000
v 1.500000 5.000000 3.500000
v -0.500000 5.000000 4.500000
v 0.500000 5.000000 4.500000
v -0.500000 5.000000 -4.500000
v 0.500000 5.000000 -4.500000
v -4.500000 5.000000 0.500000
v -4.500000 5.000000 -0.500000
v 4.500000 5.000000 0.500000
v 4.500000 5.000000 -0.500000
v -1.500000 3.000000 1.500000
v 1.500000 3.000000 1.500000
v -1.500000 3.000000 -1.500000
v 1.500000 3.000000 -1.500000
v 3.500000 3.000000 1.500000
v 3.500000 3.000000 -1.500000
v -1.500000 3.000000 -3.500000
v 1.500000 3.000000 -3.500000
v -3.500000 3.000000 1.500000
v -3.500000 3.000000 -1.500000
v -1.500000 3.000000 3.500000
v 1.500000 3.000000 3.500000
v -0.500000 3.000000 4.500000
v 0.500000 3.000000 4.500000
v -0.500000 3.000000 -4.500000
v 0.500000 3.000000 -4.500000
v -4.500000 3.000000 0.500000
v -4.500000 3.000000 -0.500000
v 4.500000 3.000000 0.500000
v 4.500000 3.000000 -0.500000
v -1.500000 3.250000 2.000000
v 1.500000 3.250000 2.000000
v -1.500000 3.250000 1.750000
v 1.500000 3.250000 1.750000
v -1.500000 3.500000 2.000000
v 1.500000 3.500000 2.000000
v -1.500000 3.500000 1.750000
v 1.500000 3.500000 1.750000
v -1.500000 3.250000 -1.750000
v 1.500000 3.250000 -1.750000
v -1.500000 3.250000 -2.000000
v 1.500000 3.250000 -2.000000
v -1.500000 3.500000 -1.750000
v 1.500000 3.500000 -1.750000
v -1.500000 3.500000 -2.000000
v 1.500000 3.500000 -2.000000
v 2.000000 3.250000 1.500000
v 2.000000 3.250000 -1.500000
v 1.750000 3.250000 1.500000
v 1.750000 3.250000 -1.500000
v 2.000000 3.500000 1.500000
v 2.000000 3.500000 -1.500000
v 1.750000 3.500000 1.500000
v 1.750000 3.500000 -1.500000
v -1.750000 3.250000 1.500000
v -1.750000 3.250000 -1.500000
v -2.000000 3.250000 1.500000
v -2.000000 3.250000 -1.500000
v -1.750000 3.500000 1.500000
v -1.750000 3.500000 -1.500000
v -2.000000 3.500000 1.500000
v -2.000000 3.500000 -1.500000
vt 0.500000 0.307692
vt 0.500000 0.230769
vt 1.000000 0.230769
vt 0.500000 0.153846
vt 1.000000 0.153846
vt 0.500000 0.076923
vt 1.000000 0.076923
vt 0.500000 0.000000
vt 0.999961 0.000039
vt 0.500000 0.384615
vt 0.576923 0.307692
vt 0.576923 0.384615
vt 0.615385 0.307692
vt 0.423077 0.269231
vt 0.500000 0.500000
vt 0.384615 0.307692
vt 0.269231 0.423077
vt 0.307692 0.384615
vt 0.230769 0.423077
vt 0.423077 0.230769
vt 0.269231 0.076923
vt 0.230769 0.076923
vt 0.000000 -0.000000
vt 0.192308 0.115385
vt 0.115385 0.192308
vt 0.076923 0.230769
vt 0.076923 0.269231
vt -0.000000 0.500000
vt 0.692308 0.384615
vt 0.769231 0.384615
vt 0.769231 0.461538
vt 0.653846 0.384615
vt 0.692308 0.461538
vt 0.615385 0.384615
vt 0.653846 0.461538
vt 0.576923 0.461538
vt 0.500000 0.461538
vt 0.769231 0.538462
vt 0.692308 0.538462
vt 0.615385 0.461538
vt 0.653846 0.538462
vt 0.576923 0.538462
vt 0.500000 0.538462
vt 0.769231 0.615385
vt 0.692308 0.615385
vt 0.615385 0.538462
vt 0.653846 0.615385
vt 0.576923 0.615385
vt 0.500000 0.615385
vt 0.692308 0.307692
vt 0.769231 0.307692
vt 0.653846 0.307692
vt 0.076923 0.730769
vt 0.076923 0.769231
vt 0.000000 1.000000
vt 0.230769 0.923077
vt 0.269231 0.923077
vt 0.192308 0.884615
vt 0.115385 0.807692
vt 0.192308 0.807692
vt 0.500000 1.000000
vt 0.423077 0.769231
vt 0.423077 0.730769
vt 0.269231 0.576923
vt 0.230769 0.576923
vt 0.384615 0.807692
vt 0.307692 0.884615
vt 0.307692 0.807692
vt 0.384615 0.692308
vt 0.307692 0.615385
vt 0.307692 0.692308
vt 0.192308 0.615385
vt 0.192308 0.692308
vt 0.115385 0.692308
vt 0.384615 0.192308
vt 0.307692 0.115385
vt 0.192308 0.384615
vt 0.115385 0.307692
vt 0.884615 0.326923
vt 0.884615 0.336538
vt 0.769231 0.336538
vt 0.884615 0.346154
vt 0.884615 0.307692
vt 0.884615 0.317308
vt 0.769231 0.326923
vt 0.769231 0.317308
vt 0.769231 0.346154
vt 0.538462 0.730769
vt 0.615385 0.730769
vt 0.538462 0.846154
vt 0.615385 0.923077
vt 0.615385 0.846154
vt 0.730769 0.923077
vt 0.807692 0.846154
vt 0.730769 0.846154
vt 0.807692 0.730769
vt 0.730769 0.653846
vt 0.730769 0.730769
vt 0.615385 0.653846
vt 1.000000 0.307692
vt 0.999961 0.153873
vt 0.192308 0.192308
vt 0.615385 0.615385
vt 0.192308 0.307692
vt 0.307692 0.192308
vt 0.307692 0.307692
vt 0.500000 0.807692
vt 0.500000 0.769231
vt 0.692308 0.961538
vt 0.653846 0.961538
vt 0.846154 0.769231
vt 0.846154 0.807692
vn -1.000000 0.000000 0.000000
vn 0.000000 0.000000 -1.000000
vn 1.000000 0.000000 0.000000
vn 0.000000 0.000000 1.000000
vn -0.707100 0.000000 -0.707100
vn 0.000000 1.000000 0.000000
vn -0.707100 0.000000 0.707100
vn 0.707100 0.000000 0.707100
vn 0.707100 0.000000 -0.707100
vn 0.000000 -1.000000 0.000000
s off
f 4/1/1 3/2/1 1/3/1
f 8/2/2 7/4/2 3/5/2
f 6/4/3 5/6/3 7/7/3
f 2/6/4 1/8/4 5/9/4
f 10/10/1 30/1/1 40/11/1
f 20/12/5 40/11/5 42/13/5
f 23/14/6 4/15/6 15/16/6
f 26/17/6 18/18/6 4/15/6
f 25/19/6 26/17/6 4/15/6
f 23/14/6 24/20/6 8/8/6
f 28/21/6 27/22/6 6/23/6
f 27/22/6 13/24/6 6/23/6
f 20/25/6 6/23/6 13/24/6
f 22/26/6 6/23/6 20/25/6
f 22/26/6 21/27/6 2/28/6
f 33/29/2 30/30/2 10/31/2
f 47/32/5 33/29/5 13/33/5
f 48/34/1 47/32/1 27/35/1
f 14/36/7 34/12/7 48/34/7
f 12/37/4 32/10/4 34/12/4
f 36/33/1 32/31/1 12/38/1
f 44/35/7 36/33/7 16/39/7
f 43/40/4 44/35/4 24/41/4
f 15/42/8 35/36/8 43/40/8
f 11/43/3 31/37/3 35/36/3
f 38/39/4 31/38/4 11/44/4
f 46/41/8 38/39/8 18/45/8
f 45/46/3 46/41/3 26/47/3
f 17/48/9 37/42/9 45/46/9
f 9/49/2 29/43/2 37/42/2
f 39/50/3 29/51/3 9/30/3
f 41/52/9 39/50/9 19/29/9
f 42/13/2 41/52/2 21/32/2
f 1/28/10 41/53/10 42/54/10
f 5/55/10 47/56/10 48/57/10
f 47/56/10 5/55/10 33/58/10
f 42/54/10 40/59/10 5/55/10
f 40/59/10 30/60/10 33/58/10
f 7/61/10 44/62/10 43/63/10
f 3/15/10 46/64/10 45/65/10
f 44/62/10 7/61/10 36/66/10
f 48/57/10 34/67/10 7/61/10
f 34/67/10 32/68/10 36/66/10
f 43/63/10 35/69/10 3/15/10
f 46/64/10 3/15/10 38/70/10
f 35/69/10 31/71/10 38/70/10
f 45/65/10 37/72/10 1/28/10
f 37/72/10 29/73/10 39/74/10
f 41/53/10 1/28/10 39/74/10
f 24/20/6 16/75/6 8/8/6
f 28/21/6 8/8/6 14/76/6
f 25/19/6 2/28/6 17/77/6
f 21/27/6 19/78/6 2/28/6
f 17/77/6 2/28/6 19/78/6
f 14/76/6 8/8/6 16/75/6
f 15/16/6 4/15/6 18/18/6
f 55/79/6 53/80/6 54/81/6
f 54/81/4 53/80/4 49/82/4
f 50/51/10 49/83/10 51/84/10
f 51/84/2 55/79/2 56/85/2
f 63/81/6 61/85/6 62/79/6
f 62/79/4 61/85/4 57/86/4
f 58/84/10 57/86/10 59/51/10
f 59/87/2 63/81/2 64/80/2
f 71/79/6 69/80/6 70/81/6
f 70/81/3 69/80/3 65/82/3
f 66/51/10 65/83/10 67/84/10
f 67/84/1 71/79/1 72/85/1
f 79/81/6 77/85/6 78/79/6
f 78/79/3 77/85/3 73/86/3
f 74/84/10 73/86/10 75/51/10
f 75/87/1 79/81/1 80/80/1
f 20/88/6 10/89/6 19/90/6
f 17/91/6 9/92/6 18/93/6
f 15/94/6 11/95/6 16/96/6
f 14/97/6 12/98/6 13/99/6
f 12/98/6 11/95/6 9/92/6
f 2/100/1 4/1/1 1/3/1
f 4/3/2 8/2/2 3/5/2
f 8/101/3 6/4/3 7/7/3
f 6/7/4 2/6/4 5/9/4
f 20/12/1 10/10/1 40/11/1
f 22/34/5 20/12/5 42/13/5
f 2/28/6 25/19/6 4/15/6
f 4/15/6 23/14/6 8/8/6
f 8/8/6 28/21/6 6/23/6
f 10/102/6 20/25/6 13/24/6
f 6/23/6 22/26/6 2/28/6
f 13/33/2 33/29/2 10/31/2
f 27/35/5 47/32/5 13/33/5
f 28/40/1 48/34/1 27/35/1
f 28/40/7 14/36/7 48/34/7
f 14/36/4 12/37/4 34/12/4
f 16/39/1 36/33/1 12/38/1
f 24/41/7 44/35/7 16/39/7
f 23/46/4 43/40/4 24/41/4
f 23/46/8 15/42/8 43/40/8
f 15/42/3 11/43/3 35/36/3
f 18/45/4 38/39/4 11/44/4
f 26/47/8 46/41/8 18/45/8
f 25/103/3 45/46/3 26/47/3
f 25/103/9 17/48/9 45/46/9
f 17/48/2 9/49/2 37/42/2
f 19/29/3 39/50/3 9/30/3
f 21/32/9 41/52/9 19/29/9
f 22/34/2 42/13/2 21/32/2
f 5/55/10 1/28/10 42/54/10
f 7/61/10 5/55/10 48/57/10
f 5/55/10 40/59/10 33/58/10
f 3/15/10 7/61/10 43/63/10
f 1/28/10 3/15/10 45/65/10
f 7/61/10 34/67/10 36/66/10
f 3/15/10 35/69/10 38/70/10
f 1/28/10 37/72/10 39/74/10
f 9/104/6 17/77/6 19/78/6
f 12/105/6 14/76/6 16/75/6
f 11/106/6 15/16/6 18/18/6
f 56/85/6 55/79/6 54/81/6
f 50/87/4 54/81/4 49/82/4
f 52/86/10 50/51/10 51/84/10
f 52/86/2 51/84/2 56/85/2
f 64/80/6 63/81/6 62/79/6
f 58/84/4 62/79/4 57/86/4
f 60/83/10 58/84/10 59/51/10
f 60/82/2 59/87/2 64/80/2
f 72/85/6 71/79/6 70/81/6
f 66/87/3 70/81/3 65/82/3
f 68/86/10 66/51/10 67/84/10
f 68/86/1 67/84/1 72/85/1
f 80/80/6 79/81/6 78/79/6
f 74/84/3 78/79/3 73/86/3
f 76/83/10 74/84/10 75/51/10
f 76/82/1 75/87/1 80/80/1
f 19/90/6 21/107/6 22/108/6
f 22/108/6 20/88/6 19/90/6
f 10/89/6 9/92/6 19/90/6
f 18/93/6 26/109/6 25/110/6
f 25/110/6 17/91/6 18/93/6
f 9/92/6 11/95/6 18/93/6
f 16/96/6 24/111/6 23/112/6
f 23/112/6 15/94/6 16/96/6
f 11/95/6 12/98/6 16/96/6
f 13/99/6 27/47/6 28/45/6
f 28/45/6 14/97/6 13/99/6
f 12/98/6 10/89/6 13/99/6
f 10/89/6 12/98/6 9/92/6
