# Blender v2.79 (sub 0) OBJ File: 'tesla.blend'
# www.blender.org
o Cube
v 1.999993 2.000000 2.500000
v -2.000007 2.000000 2.500000
v 1.999995 9.999999 2.500000
v -2.000005 10.000001 2.500000
v -2.000007 3.000000 4.500000
v 1.999993 3.000000 4.500000
v -2.000005 9.000001 4.500000
v 1.999995 8.999999 4.500000
v 1.999993 3.000000 2.500000
v -2.000007 3.000000 2.500000
v 1.999995 8.999999 2.500000
v -2.000005 9.000001 2.500000
v -3.000007 3.000002 2.500000
v -3.000005 9.000001 2.500000
v 2.999993 2.999998 2.500000
v 2.999995 8.999999 2.500000
v 1.999993 3.000000 3.500000
v 1.999995 8.999999 3.500000
v -2.000005 9.000001 3.500000
v -2.000007 3.000000 3.500000
v -3.000005 9.000001 3.500000
v -3.000007 3.000002 3.500000
v 2.999993 2.999998 3.500000
v 2.999995 8.999999 3.500000
v 1.999993 4.000000 4.500000
v 1.999995 8.000000 4.500000
v -2.000006 4.000000 4.500000
v -2.000005 8.000001 4.500000
v -3.000006 4.000002 3.500000
v -3.000005 8.000001 3.500000
v 2.999994 3.999998 3.500000
v 2.999995 7.999998 3.500000
v 1.999993 4.000000 3.500000
v 1.999995 8.000000 3.500000
v -2.000006 4.000000 3.500000
v -2.000005 8.000001 3.500000
v -0.000006 4.500000 11.000000
v -1.060668 4.939341 5.000000
v -1.060668 4.939341 11.000000
v -1.500006 6.000000 5.000000
v -1.500006 6.000000 11.000000
v -1.060667 7.060661 5.000000
v -1.060667 7.060661 11.000000
v -0.000005 7.500000 5.000000
v -0.000005 7.500000 11.000000
v 1.060656 7.060659 5.000000
v 1.060656 7.060659 11.000000
v 1.499994 6.000000 5.000000
v 1.499994 6.000000 11.000000
v 1.060655 4.939341 5.000000
v 1.060655 4.939341 11.000000
v -0.000006 4.500000 9.500000
v -0.000007 3.500000 10.500000
v -0.000007 1.500000 10.500000
v -0.000008 0.500000 9.500000
v -0.000008 0.500000 8.500000
v -0.000007 1.500000 7.500000
v -0.000007 3.500000 7.500000
v -0.000006 4.500000 8.500000
v 1.060655 4.939339 9.500000
v 1.767761 4.232231 10.500000
v 3.181973 2.818018 10.500000
v 3.889081 2.110910 9.500000
v 3.889081 2.110910 8.500000
v 3.181973 2.818018 7.500000
v 1.767761 4.232231 7.500000
v 1.060655 4.939339 8.500000
v 1.499994 6.000000 9.500000
v 2.499996 5.999998 10.500000
v 4.499994 5.999998 10.500000
v 5.499994 5.999996 9.500000
v 5.499994 5.999996 8.500000
v 4.499994 5.999998 7.500000
v 2.499996 5.999998 7.500000
v 1.499994 6.000000 8.500000
v 1.060656 7.060661 9.500000
v 1.767764 7.767765 10.500000
v 3.181975 9.181980 10.500000
v 3.889087 9.889085 9.500000
v 3.889087 9.889085 8.500000
v 3.181975 9.181980 7.500000
v 1.767764 7.767765 7.500000
v 1.060656 7.060661 8.500000
v -0.000005 7.500000 9.500000
v -0.000001 8.500000 10.500000
v -0.000004 10.500000 10.500000
v -0.000000 11.500001 9.500000
v -0.000000 11.500001 8.500000
v -0.000004 10.500000 7.500000
v -0.000001 8.500000 7.500000
v -0.000005 7.500000 8.500000
v -1.060663 7.060661 9.500000
v -1.767770 7.767769 10.500000
v -3.181985 9.181982 10.500000
v -3.889088 9.889092 9.500000
v -3.889088 9.889092 8.500000
v -3.181985 9.181982 7.500000
v -1.767770 7.767769 7.500000
v -1.060663 7.060661 8.500000
v -1.500006 6.000000 9.500000
v -2.500006 6.000004 10.500000
v -4.500006 6.000002 10.500000
v -5.500006 6.000008 9.500000
v -5.500006 6.000008 8.500000
v -4.500006 6.000002 7.500000
v -2.500006 6.000004 7.500000
v -1.500006 6.000000 8.500000
v -1.060666 4.939341 9.500000
v -1.767775 4.232235 10.500000
v -3.181987 2.818022 10.500000
v -3.889099 2.110918 9.500000
v -3.889099 2.110918 8.500000
v -3.181987 2.818022 7.500000
v -1.767775 4.232235 7.500000
v -1.060666 4.939341 8.500000
v -0.000007 3.500000 10.500000
v 1.767761 4.232231 10.500000
v 2.499996 5.999998 10.500000
v 1.767764 7.767765 10.500000
v -0.000001 8.500000 10.500000
v -1.767770 7.767769 10.500000
v -2.500006 6.000004 10.500000
v -1.767775 4.232235 10.500000
v -0.000007 3.500000 11.000000
v 1.767761 4.232231 11.000000
v 2.499996 5.999998 11.000000
v 1.767764 7.767765 11.000000
v -0.000001 8.500000 11.000000
v -1.767770 7.767769 11.000000
v -2.500006 6.000004 11.000000
v -1.767775 4.232235 11.000000
v -0.000007 4.000000 4.500000
v 1.414207 4.585787 4.500000
v 1.999994 6.000000 4.500000
v 1.414208 7.414213 4.500000
v -0.000005 8.000000 4.500000
v -1.414219 7.414213 4.500000
v -2.000006 6.000000 4.500000
v -1.414219 4.585787 4.500000
v 1.414207 4.585787 5.000000
v -0.000007 4.000000 5.000000
v 1.999994 6.000000 5.000000
v 1.414208 7.414213 5.000000
v -0.000005 8.000000 5.000000
v -1.414219 7.414213 5.000000
v -2.000006 6.000000 5.000000
v -1.414219 4.585787 5.000000
v -0.000006 6.000000 5.000000
v -0.000006 6.000000 11.000000
v -0.000006 4.500000 5.000000
vt 0.300000 0.476190
vt 0.700000 0.380952
vt 0.700000 0.476190
vt 0.700000 0.000000
vt 0.300000 0.095238
vt 0.300000 -0.000000
vt 0.000000 0.380952
vt 0.100000 0.428571
vt 0.000000 0.428571
vt 1.000000 0.428571
vt 0.900000 0.380952
vt 1.000000 0.380952
vt 0.000000 0.047619
vt 0.100000 0.095238
vt 0.000000 0.095238
vt 1.000000 0.095238
vt 0.900000 0.047619
vt 1.000000 0.047619
vt 0.100000 0.142857
vt 0.100000 0.333333
vt 0.100000 0.380952
vt 0.200000 0.333333
vt 0.200000 0.380952
vt 0.300000 0.333333
vt 0.200000 0.285714
vt 0.200000 0.095238
vt 0.100000 0.047619
vt 0.300000 0.142857
vt 0.200000 0.142857
vt 0.200000 0.190476
vt 0.100000 0.428571
vt 0.300000 0.380952
vt 0.800000 0.380952
vt 0.900000 0.428571
vt 0.900000 0.142857
vt 0.900000 0.095238
vt 0.800000 0.142857
vt 0.800000 0.095238
vt 0.700000 0.142857
vt 0.900000 0.047619
vt 0.700000 0.095238
vt 0.800000 0.190476
vt 0.800000 0.333333
vt 0.800000 0.285714
vt 0.900000 0.333333
vt 0.700000 0.333333
vt 0.800000 0.142857
vt 0.800000 0.333333
vt 0.200000 0.333333
vt 0.200000 0.142857
vt 1.000000 0.714286
vt 0.900000 0.428571
vt 1.000000 0.428571
vt 1.000000 0.714286
vt 0.900000 0.428571
vt 1.000000 0.428571
vt 1.000000 0.714286
vt 0.900000 0.428571
vt 1.000000 0.428571
vt 1.000000 0.714286
vt 0.900000 0.428571
vt 1.000000 0.428571
vt 1.000000 0.714286
vt 0.900000 0.428571
vt 1.000000 0.428571
vt 1.000000 0.714286
vt 0.900000 0.428571
vt 1.000000 0.428571
vt 0.950000 0.785714
vt 0.900000 0.714286
vt 0.900000 0.714286
vt 1.000000 0.428571
vt 1.000000 0.714286
vt 0.900000 0.714286
vt 1.000000 0.428571
vt 1.000000 0.714286
vt 0.300000 0.833333
vt 0.600000 0.928571
vt 0.400000 0.928571
vt 0.400000 0.547619
vt 0.550000 0.476190
vt 0.600000 0.547619
vt 0.300000 0.714286
vt 0.650000 0.642857
vt 0.700000 0.714286
vt 0.700000 0.761905
vt 0.650000 0.833333
vt 0.550000 1.000000
vt 0.450000 1.000000
vt 0.300000 0.642857
vt 0.300000 0.761905
vt 0.300000 0.642857
vt 0.600000 0.547619
vt 0.650000 0.642857
vt 0.300000 0.714286
vt 0.700000 0.761905
vt 0.300000 0.761905
vt 0.300000 0.833333
vt 0.600000 0.928571
vt 0.400000 0.928571
vt 0.450000 0.476190
vt 0.400000 0.547619
vt 0.700000 0.714286
vt 0.650000 0.833333
vt 0.450000 1.000000
vt 0.550000 1.000000
vt 0.300000 0.833333
vt 0.600000 0.928571
vt 0.400000 0.928571
vt 0.450000 0.476190
vt 0.600000 0.547619
vt 0.400000 0.547619
vt 0.300000 0.642857
vt 0.700000 0.714286
vt 0.300000 0.714286
vt 0.700000 0.761905
vt 0.650000 0.833333
vt 0.450000 1.000000
vt 0.550000 1.000000
vt 0.650000 0.642857
vt 0.300000 0.761905
vt 0.450000 0.476190
vt 0.600000 0.547619
vt 0.400000 0.547619
vt 0.300000 0.642857
vt 0.700000 0.714286
vt 0.300000 0.714286
vt 0.300000 0.833333
vt 0.700000 0.761905
vt 0.650000 0.833333
vt 0.450000 1.000000
vt 0.600000 0.928571
vt 0.550000 1.000000
vt 0.650000 0.642857
vt 0.300000 0.761905
vt 0.400000 0.928571
vt 0.300000 0.642857
vt 0.700000 0.714286
vt 0.300000 0.714286
vt 0.300000 0.833333
vt 0.700000 0.761905
vt 0.650000 0.833333
vt 0.450000 1.000000
vt 0.600000 0.928571
vt 0.550000 1.000000
vt 0.600000 0.547619
vt 0.650000 0.642857
vt 0.300000 0.761905
vt 0.400000 0.928571
vt 0.450000 0.476190
vt 0.400000 0.547619
vt 0.450000 1.000000
vt 0.600000 0.928571
vt 0.550000 1.000000
vt 0.300000 0.642857
vt 0.600000 0.547619
vt 0.650000 0.642857
vt 0.300000 0.714286
vt 0.700000 0.761905
vt 0.300000 0.761905
vt 0.300000 0.833333
vt 0.400000 0.928571
vt 0.450000 0.476190
vt 0.400000 0.547619
vt 0.700000 0.714286
vt 0.650000 0.833333
vt 0.300000 0.642857
vt 0.600000 0.547619
vt 0.650000 0.642857
vt 0.300000 0.714286
vt 0.700000 0.761905
vt 0.300000 0.761905
vt 0.300000 0.833333
vt 0.600000 0.928571
vt 0.400000 0.928571
vt 0.450000 0.476190
vt 0.400000 0.547619
vt 0.700000 0.714286
vt 0.650000 0.833333
vt 0.450000 1.000000
vt 0.550000 1.000000
vt 0.600000 0.928571
vt 0.450000 1.000000
vt 0.400000 0.928571
vt 0.600000 0.547619
vt 0.450000 0.476190
vt 0.550000 0.476190
vt 0.300000 0.642857
vt 0.400000 0.547619
vt 0.700000 0.714286
vt 0.650000 0.642857
vt 0.700000 0.761905
vt 0.300000 0.714286
vt 0.300000 0.833333
vt 0.300000 0.761905
vt 0.650000 0.833333
vt 0.200000 0.547619
vt 0.000000 0.571429
vt 0.000000 0.547619
vt 0.200000 0.547619
vt 0.000000 0.571429
vt 0.000000 0.547619
vt 0.200000 0.547619
vt 0.000000 0.571429
vt 0.000000 0.547619
vt 0.200000 0.571429
vt -0.000000 0.547619
vt 0.200000 0.547619
vt 0.200000 0.571429
vt 0.000000 0.547619
vt 0.200000 0.547619
vt 0.200000 0.547619
vt 0.000000 0.571429
vt 0.000000 0.547619
vt 0.200000 0.547619
vt -0.000000 0.571429
vt -0.000000 0.547619
vt 0.200000 0.571429
vt -0.000000 0.547619
vt 0.200000 0.547619
vt 0.000000 0.452381
vt 0.200000 0.452381
vt 0.100000 0.547619
vt 0.200000 0.428571
vt 0.000000 0.452381
vt 0.000000 0.428571
vt 0.200000 0.428571
vt 0.000000 0.452381
vt 0.000000 0.428571
vt 0.200000 0.428571
vt 0.000000 0.452381
vt 0.000000 0.428571
vt 0.200000 0.428571
vt -0.000000 0.452381
vt -0.000000 0.428571
vt 0.200000 0.428571
vt 0.000000 0.428571
vt 0.200000 0.428571
vt -0.000000 0.452381
vt -0.000000 0.428571
vt 0.200000 0.428571
vt 0.000000 0.452381
vt 0.000000 0.428571
vt 0.200000 0.428571
vt 0.000000 0.452381
vt 0.000000 0.428571
vt 0.900000 0.714286
vt 0.200000 0.452381
vt 0.200000 0.452381
vt 0.200000 0.452381
vt 0.200000 0.452381
vt 0.900000 0.714286
vt 0.200000 0.452381
vt 0.200000 0.452381
vt 0.200000 0.452381
vt 0.900000 0.714286
vt 0.900000 0.714286
vt 0.900000 0.714286
vt 0.900000 0.428571
vt 0.100000 0.047619
vt 0.100000 0.095238
vt 0.100000 0.380952
vt 0.900000 0.380952
vt 0.900000 0.095238
vt 0.900000 0.428571
vt 0.900000 0.428571
vt 0.450000 0.476190
vt 0.550000 0.476190
vt 0.550000 0.476190
vt 0.550000 0.476190
vt 0.550000 0.476190
vt 0.550000 0.476190
vt 0.550000 0.476190
vt 0.550000 1.000000
vt 0.200000 0.571429
vt 0.200000 0.571429
vt 0.200000 0.571429
vt -0.000000 0.571429
vt 0.000000 0.571429
vt 0.200000 0.571429
vt 0.200000 0.571429
vt -0.000000 0.571429
vn 0.0000 -0.8944 0.4472
vn 0.0000 0.8944 0.4472
vn -0.0000 -1.0000 0.0000
vn 0.0000 1.0000 0.0000
vn 1.0000 -0.0000 -0.0000
vn 0.0000 0.0000 1.0000
vn -1.0000 0.0000 0.0000
vn -0.7071 0.0000 0.7071
vn 0.7071 -0.0000 0.7071
vn 0.3827 -0.9239 0.0000
vn -0.9239 -0.3827 0.0000
vn -0.9239 0.3827 0.0000
vn -0.3827 0.9239 0.0000
vn 0.3827 0.9239 0.0000
vn 0.9239 0.3827 0.0000
vn -0.3827 -0.9239 0.0000
vn 0.9239 -0.3827 0.0000
vn -0.2811 0.6786 -0.6786
vn 0.2811 -0.6786 -0.6786
vn 0.2811 -0.6786 0.6786
vn -0.2811 0.6786 0.6786
vn 0.0000 0.0000 -1.0000
vn -0.6786 0.2811 -0.6786
vn 0.6786 -0.2811 -0.6786
vn 0.6786 -0.2811 0.6786
vn -0.6786 0.2811 0.6786
vn -0.6786 -0.2811 -0.6786
vn 0.6786 0.2811 -0.6786
vn 0.6786 0.2811 0.6786
vn -0.6786 -0.2811 0.6786
vn -0.2811 -0.6786 -0.6786
vn 0.2811 0.6786 -0.6786
vn 0.2811 0.6786 0.6786
vn -0.2811 -0.6786 0.6786
s off
f 1/1/1 5/2/1 2/3/1
f 4/4/2 8/5/2 3/6/2
f 15/7/3 17/8/3 9/9/3
f 10/10/3 22/11/3 13/12/3
f 11/13/4 24/14/4 16/15/4
f 14/16/4 19/17/4 12/18/4
f 32/19/5 31/20/5 15/7/5
f 23/21/6 33/22/6 17/23/6
f 25/24/5 17/23/5 33/22/5
f 33/22/3 31/20/3 25/25/3
f 18/26/5 3/27/5 8/5/5
f 18/26/5 26/28/5 34/29/5
f 34/29/6 24/14/6 18/26/6
f 32/19/4 34/29/4 26/30/4
f 1/31/5 17/23/5 6/32/5
f 20/33/7 2/34/7 5/2/7
f 30/35/7 14/16/7 13/12/7
f 21/36/6 36/37/6 19/38/6
f 28/39/7 19/38/7 36/37/7
f 4/40/7 19/38/7 7/41/7
f 36/37/4 30/35/4 28/42/4
f 35/43/6 22/11/6 20/33/6
f 35/43/3 27/44/3 29/45/3
f 20/33/7 27/46/7 35/43/7
f 27/46/8 30/47/8 29/48/8
f 26/28/9 31/49/9 32/50/9
f 28/39/6 27/46/6 26/28/6
f 51/51/10 150/52/10 50/53/10
f 39/54/11 40/55/11 38/56/11
f 41/57/12 42/58/12 40/59/12
f 43/60/13 44/61/13 42/62/13
f 45/63/14 46/64/14 44/65/14
f 47/66/15 48/67/15 46/68/15
f 39/54/6 149/69/6 41/70/6
f 39/71/16 150/72/16 37/73/16
f 51/74/17 48/75/17 49/76/17
f 54/77/6 61/78/6 53/79/6
f 58/80/18 67/81/18 66/82/18
f 56/83/19 65/84/19 64/85/19
f 54/77/20 63/86/20 62/87/20
f 53/79/21 60/88/21 52/89/21
f 57/90/22 66/82/22 65/84/22
f 56/83/10 63/86/10 55/91/10
f 65/92/22 74/93/22 73/94/22
f 64/95/17 71/96/17 63/97/17
f 62/98/6 69/99/6 61/100/6
f 67/101/23 74/93/23 66/102/23
f 65/92/24 72/103/24 64/95/24
f 62/98/25 71/96/25 70/104/25
f 60/105/26 69/99/26 68/106/26
f 70/107/6 77/108/6 69/109/6
f 75/110/27 82/111/27 74/112/27
f 73/113/28 80/114/28 72/115/28
f 70/107/29 79/116/29 78/117/29
f 68/118/30 77/108/30 76/119/30
f 73/113/22 82/111/22 81/120/22
f 72/115/15 79/116/15 71/121/15
f 83/122/31 90/123/31 82/124/31
f 81/125/32 88/126/32 80/127/32
f 78/128/33 87/129/33 86/130/33
f 76/131/34 85/132/34 84/133/34
f 81/125/22 90/123/22 89/134/22
f 80/127/14 87/129/14 79/135/14
f 78/128/6 85/132/6 77/136/6
f 89/137/18 96/138/18 88/139/18
f 86/140/21 95/141/21 94/142/21
f 84/143/20 93/144/20 92/145/20
f 89/137/22 98/146/22 97/147/22
f 88/139/13 95/141/13 87/148/13
f 86/140/6 93/144/6 85/149/6
f 91/150/19 98/146/19 90/151/19
f 92/152/25 101/153/25 100/154/25
f 97/155/22 106/156/22 105/157/22
f 96/158/12 103/159/12 95/160/12
f 94/161/6 101/153/6 93/162/6
f 99/163/24 106/156/24 98/164/24
f 97/155/23 104/165/23 96/158/23
f 94/161/26 103/159/26 102/166/26
f 105/167/22 114/168/22 113/169/22
f 104/170/11 111/171/11 103/172/11
f 102/173/6 109/174/6 101/175/6
f 107/176/28 114/168/28 106/177/28
f 105/167/27 112/178/27 104/170/27
f 102/173/30 111/171/30 110/179/30
f 100/180/29 109/174/29 108/181/29
f 53/182/33 108/183/33 109/184/33
f 58/185/32 115/186/32 59/187/32
f 58/185/22 113/188/22 114/189/22
f 56/190/31 113/188/31 57/191/31
f 55/192/16 112/193/16 56/190/16
f 55/192/34 110/194/34 111/195/34
f 53/182/6 110/194/6 54/196/6
f 119/197/15 126/198/15 118/199/15
f 117/200/10 124/201/10 116/202/10
f 116/203/16 131/204/16 123/205/16
f 130/206/12 121/207/12 122/208/12
f 128/209/14 119/210/14 120/211/14
f 118/212/17 125/213/17 117/214/17
f 123/215/11 130/216/11 122/217/11
f 129/218/13 120/219/13 121/220/13
f 140/221/6 142/222/6 148/223/6
f 133/224/10 141/225/10 132/226/10
f 132/227/16 147/228/16 139/229/16
f 138/230/12 145/231/12 137/232/12
f 136/233/14 143/234/14 135/235/14
f 134/236/17 140/221/17 133/237/17
f 139/238/11 146/239/11 138/240/11
f 137/241/13 144/242/13 136/243/13
f 135/244/15 142/245/15 134/246/15
f 41/57/6 149/69/6 43/247/6
f 141/248/6 148/223/6 147/228/6
f 146/249/6 148/223/6 145/231/6
f 148/223/6 142/245/6 143/250/6
f 145/251/6 148/223/6 144/242/6
f 45/63/6 149/69/6 47/252/6
f 148/223/6 141/225/6 140/253/6
f 143/234/6 144/254/6 148/223/6
f 147/255/6 148/223/6 146/239/6
f 49/76/6 149/69/6 51/74/6
f 51/51/6 149/69/6 37/256/6
f 43/60/6 149/69/6 45/257/6
f 149/69/6 39/71/6 37/73/6
f 47/66/6 149/69/6 49/258/6
f 1/1/1 6/32/1 5/2/1
f 4/4/2 7/41/2 8/5/2
f 15/7/3 23/21/3 17/8/3
f 10/10/3 20/259/3 22/11/3
f 11/13/4 18/260/4 24/14/4
f 14/16/4 21/36/4 19/17/4
f 31/20/5 23/21/5 15/7/5
f 15/7/5 16/15/5 32/19/5
f 16/15/5 24/14/5 32/19/5
f 23/21/6 31/20/6 33/22/6
f 25/24/5 6/32/5 17/23/5
f 18/26/5 11/261/5 3/27/5
f 18/26/5 8/5/5 26/28/5
f 34/29/6 32/19/6 24/14/6
f 1/31/5 9/262/5 17/23/5
f 20/33/7 10/263/7 2/34/7
f 13/12/7 22/11/7 29/45/7
f 30/35/7 21/36/7 14/16/7
f 13/12/7 29/45/7 30/35/7
f 21/36/6 30/35/6 36/37/6
f 28/39/7 7/41/7 19/38/7
f 4/40/7 12/264/7 19/38/7
f 35/43/6 29/45/6 22/11/6
f 20/33/7 5/2/7 27/46/7
f 27/46/8 28/39/8 30/47/8
f 26/28/9 25/24/9 31/49/9
f 5/2/6 6/32/6 25/24/6
f 26/28/6 8/5/6 7/41/6
f 5/2/6 25/24/6 27/46/6
f 25/24/6 26/28/6 27/46/6
f 7/41/6 28/39/6 26/28/6
f 51/51/10 37/256/10 150/52/10
f 39/54/11 41/70/11 40/55/11
f 41/57/12 43/247/12 42/58/12
f 43/60/13 45/257/13 44/61/13
f 45/63/14 47/252/14 46/64/14
f 47/66/15 49/258/15 48/67/15
f 39/71/16 38/265/16 150/72/16
f 51/74/17 50/266/17 48/75/17
f 54/77/6 62/87/6 61/78/6
f 58/80/18 59/267/18 67/81/18
f 56/83/19 57/90/19 65/84/19
f 54/77/20 55/91/20 63/86/20
f 53/79/21 61/78/21 60/88/21
f 57/90/22 58/80/22 66/82/22
f 56/83/10 64/85/10 63/86/10
f 65/92/22 66/102/22 74/93/22
f 64/95/17 72/103/17 71/96/17
f 62/98/6 70/104/6 69/99/6
f 67/101/23 75/268/23 74/93/23
f 65/92/24 73/94/24 72/103/24
f 62/98/25 63/97/25 71/96/25
f 60/105/26 61/100/26 69/99/26
f 70/107/6 78/117/6 77/108/6
f 75/110/27 83/269/27 82/111/27
f 73/113/28 81/120/28 80/114/28
f 70/107/29 71/121/29 79/116/29
f 68/118/30 69/109/30 77/108/30
f 73/113/22 74/112/22 82/111/22
f 72/115/15 80/114/15 79/116/15
f 83/122/31 91/270/31 90/123/31
f 81/125/32 89/134/32 88/126/32
f 78/128/33 79/135/33 87/129/33
f 76/131/34 77/136/34 85/132/34
f 81/125/22 82/124/22 90/123/22
f 80/127/14 88/126/14 87/129/14
f 78/128/6 86/130/6 85/132/6
f 89/137/18 97/147/18 96/138/18
f 86/140/21 87/148/21 95/141/21
f 84/143/20 85/149/20 93/144/20
f 89/137/22 90/151/22 98/146/22
f 88/139/13 96/138/13 95/141/13
f 86/140/6 94/142/6 93/144/6
f 91/150/19 99/271/19 98/146/19
f 92/152/25 93/162/25 101/153/25
f 97/155/22 98/164/22 106/156/22
f 96/158/12 104/165/12 103/159/12
f 94/161/6 102/166/6 101/153/6
f 99/163/24 107/272/24 106/156/24
f 97/155/23 105/157/23 104/165/23
f 94/161/26 95/160/26 103/159/26
f 105/167/22 106/177/22 114/168/22
f 104/170/11 112/178/11 111/171/11
f 102/173/6 110/179/6 109/174/6
f 107/176/28 115/273/28 114/168/28
f 105/167/27 113/169/27 112/178/27
f 102/173/30 103/172/30 111/171/30
f 100/180/29 101/175/29 109/174/29
f 53/182/33 52/274/33 108/183/33
f 58/185/32 114/189/32 115/186/32
f 58/185/22 57/191/22 113/188/22
f 56/190/31 112/193/31 113/188/31
f 55/192/16 111/195/16 112/193/16
f 55/192/34 54/196/34 110/194/34
f 53/182/6 109/184/6 110/194/6
f 119/197/15 127/275/15 126/198/15
f 117/200/10 125/276/10 124/201/10
f 116/203/16 124/277/16 131/204/16
f 130/206/12 129/278/12 121/207/12
f 128/209/14 127/279/14 119/210/14
f 118/212/17 126/280/17 125/213/17
f 123/215/11 131/281/11 130/216/11
f 129/218/13 128/282/13 120/219/13
f 133/224/10 140/253/10 141/225/10
f 132/227/16 141/248/16 147/228/16
f 138/230/12 146/249/12 145/231/12
f 136/233/14 144/254/14 143/234/14
f 134/236/17 142/222/17 140/221/17
f 139/238/11 147/255/11 146/239/11
f 137/241/13 145/251/13 144/242/13
f 135/244/15 143/250/15 142/245/15
