# Blender v2.79 (sub 0) OBJ File: 'player_fem.blend'
# www.blender.org
o Body
v -4.000007 0.000002 -2.000002
v -4.000009 0.000002 1.999998
v 3.999993 -0.000002 -1.999998
v 3.999991 -0.000002 2.000002
v -4.000003 12.000001 -2.000002
v -4.000005 12.000001 1.999998
v 3.999995 11.999999 2.000002
v 3.999997 11.999999 -1.999998
v -4.000003 11.000001 -2.000002
v -4.000005 11.000001 1.999998
v 3.999995 10.999999 2.000002
v 3.999997 10.999999 -1.999998
v -5.000002 15.000002 -3.000002
v -5.000004 15.000002 2.999998
v 4.999996 14.999998 3.000002
v 4.999998 14.999998 -2.999998
vt 0.312500 0.687500
vt 0.437500 0.750000
vt 0.312500 0.750000
vt 0.562500 0.687500
vt 0.437500 0.750000
vt 0.437500 0.687500
vt 0.250000 0.687500
vt 0.312500 0.500000
vt 0.500000 0.687500
vt 0.625000 0.500000
vt 0.625000 0.687500
vt 0.437500 0.687500
vt 0.500000 0.500000
vt 0.437500 0.500000
vt 0.250000 0.437500
vt 0.328125 0.500000
vt 0.265625 0.500000
vt 0.109375 0.500000
vt 0.234375 0.500000
vt -0.000000 0.437500
vt 0.078125 0.500000
vt 0.015625 0.500000
vt 0.343750 0.437500
vt 0.484375 0.500000
vt 0.359375 0.500000
vt 0.562500 0.750000
vt 0.250000 0.500000
vt 0.093750 0.437500
vt 0.500000 0.437500
vn -0.0000 -1.0000 -0.0000
vn 0.0000 1.0000 0.0000
vn -1.0000 0.0000 -0.0000
vn -0.0000 0.0000 1.0000
vn 1.0000 -0.0000 0.0000
vn 0.0000 -0.0000 -1.0000
vn 0.9701 -0.2425 0.0000
vn 0.0000 -0.2425 -0.9701
vn -0.9701 -0.2425 -0.0000
vn -0.0000 -0.2425 0.9701
s off
f 1/1/1 4/2/1 2/3/1
f 7/4/2 5/5/2 6/6/2
f 2/7/3 5/8/3 1/1/3
f 4/9/4 6/10/4 2/11/4
f 3/12/5 7/13/5 4/9/5
f 1/1/6 8/14/6 3/12/6
f 16/15/7 11/16/7 12/17/7
f 9/18/8 16/15/8 12/19/8
f 14/20/9 9/21/9 10/22/9
f 15/23/10 10/24/10 11/25/10
f 1/1/1 3/12/1 4/2/1
f 7/4/2 8/26/2 5/5/2
f 2/7/3 6/27/3 5/8/3
f 4/9/4 7/13/4 6/10/4
f 3/12/5 8/14/5 7/13/5
f 1/1/6 5/8/6 8/14/6
f 16/15/7 15/23/7 11/16/7
f 9/18/8 13/28/8 16/15/8
f 14/20/9 13/28/9 9/21/9
f 15/23/10 14/29/10 10/24/10
o LeftLeg
v 4.000001 23.999998 -1.999998
v 3.999997 11.999999 -1.999998
v 0.000001 23.999998 -2.000000
v -0.000003 12.000000 -2.000000
v 3.999999 23.999998 2.000002
v 3.999995 11.999999 2.000002
v -0.000001 24.000000 2.000000
v -0.000005 12.000000 2.000000
vt 0.125000 0.687500
vt 0.062500 0.500000
vt 0.125000 0.500000
vt 0.062500 0.687500
vt -0.000000 0.500000
vt 0.250000 0.687500
vt 0.187500 0.500000
vt 0.250000 0.500000
vt 0.187500 0.687500
vt 0.125000 0.687500
vt 0.187500 0.750000
vt 0.125000 0.750000
vt 0.125000 0.750000
vt 0.062500 0.750000
vt -0.000000 0.687500
vt 0.187500 0.687500
vn 0.0000 -0.0000 -1.0000
vn -1.0000 0.0000 -0.0000
vn -0.0000 0.0000 1.0000
vn 1.0000 -0.0000 0.0000
vn 0.0000 1.0000 -0.0000
vn -0.0000 -1.0000 -0.0000
s off
f 18/30/11 19/31/11 17/32/11
f 20/33/12 23/34/12 19/31/12
f 24/35/13 21/36/13 23/37/13
f 22/38/14 17/32/14 21/36/14
f 23/39/15 17/40/15 19/41/15
f 20/33/16 22/42/16 24/43/16
f 18/30/11 20/33/11 19/31/11
f 20/33/12 24/44/12 23/34/12
f 24/35/13 22/38/13 21/36/13
f 22/38/14 18/30/14 17/32/14
f 23/39/15 21/45/15 17/40/15
f 20/33/16 18/30/16 22/42/16
o RightLeg
v -3.999999 24.000000 -2.000002
v -4.000003 12.000001 -2.000002
v 0.000001 23.999998 -2.000000
v -0.000003 12.000000 -2.000000
v -4.000001 24.000000 1.999998
v -4.000005 12.000001 1.999998
v -0.000001 24.000000 2.000000
v -0.000005 12.000000 2.000000
vt 0.062500 0.500000
vt 0.125000 0.687500
vt 0.125000 0.500000
vt -0.000000 0.500000
vt 0.062500 0.687500
vt 0.187500 0.500000
vt 0.250000 0.687500
vt 0.250000 0.500000
vt 0.187500 0.687500
vt 0.187500 0.750000
vt 0.125000 0.687500
vt 0.125000 0.750000
vt 0.125000 0.750000
vt 0.062500 0.750000
vt -0.000000 0.687500
vt 0.187500 0.687500
vn 0.0000 -0.0000 -1.0000
vn 1.0000 -0.0000 0.0000
vn -0.0000 0.0000 1.0000
vn -1.0000 0.0000 -0.0000
vn 0.0000 1.0000 -0.0000
vn -0.0000 -1.0000 0.0000
s off
f 27/46/17 26/47/17 25/48/17
f 31/49/18 28/50/18 27/46/18
f 29/51/19 32/52/19 31/53/19
f 25/48/20 30/54/20 29/51/20
f 25/55/21 31/56/21 27/57/21
f 30/58/22 28/50/22 32/59/22
f 27/46/17 28/50/17 26/47/17
f 31/49/18 32/60/18 28/50/18
f 29/51/19 30/54/19 32/52/19
f 25/48/20 26/47/20 30/54/20
f 25/55/21 29/61/21 31/56/21
f 30/58/22 26/47/22 28/50/22
o RightArm
v -4.000007 0.000002 -2.000002
v -4.000009 0.000002 1.999998
v -4.000005 12.000001 1.999998
v -4.000003 12.000001 -2.000002
v -7.000009 0.000002 1.999997
v -7.000007 0.000002 -2.000002
v -7.000005 12.000002 1.999997
v -7.000003 12.000002 -2.000002
vt 0.687500 0.687500
vt 0.625000 0.500000
vt 0.625000 0.687500
vt 0.796875 0.500000
vt 0.734375 0.687500
vt 0.796875 0.687500
vt 0.687500 0.500000
vt 0.781250 0.750000
vt 0.734375 0.687500
vt 0.734375 0.750000
vt 0.843750 0.687500
vt 0.843750 0.500000
vt 0.687500 0.750000
vt 0.734375 0.500000
vt 0.781250 0.687500
vt 0.734375 0.750000
vn 1.0000 -0.0000 0.0000
vn -1.0000 0.0000 -0.0000
vn 0.0000 -0.0000 -1.0000
vn 0.0000 1.0000 0.0000
vn -0.0000 0.0000 1.0000
vn 0.0000 -1.0000 0.0000
s off
f 33/62/23 35/63/23 34/64/23
f 39/65/24 38/66/24 37/67/24
f 38/66/25 36/68/25 33/62/25
f 40/69/26 35/70/26 36/71/26
f 39/65/27 34/72/27 35/73/27
f 34/74/28 38/66/28 33/62/28
f 33/62/23 36/68/23 35/63/23
f 39/65/24 40/75/24 38/66/24
f 38/66/25 40/75/25 36/68/25
f 40/69/26 39/76/26 35/70/26
f 39/65/27 37/67/27 34/72/27
f 34/74/28 37/77/28 38/66/28
o LeftArm
v 3.999993 -0.000002 -1.999998
v 3.999991 -0.000002 2.000002
v 3.999995 11.999999 2.000002
v 3.999997 11.999999 -1.999998
v 6.999991 -0.000002 2.000003
v 6.999993 -0.000002 -1.999997
v 6.999995 11.999998 2.000003
v 6.999997 11.999998 -1.999997
vt 0.625000 0.500000
vt 0.687500 0.687500
vt 0.625000 0.687500
vt 0.734375 0.687500
vt 0.796875 0.500000
vt 0.796875 0.687500
vt 0.687500 0.500000
vt 0.734375 0.687500
vt 0.781250 0.750000
vt 0.734375 0.750000
vt 0.843750 0.687500
vt 0.843750 0.500000
vt 0.687500 0.750000
vt 0.734375 0.750000
vt 0.734375 0.500000
vt 0.781250 0.687500
vn -1.0000 0.0000 -0.0000
vn 1.0000 -0.0000 0.0000
vn 0.0000 -0.0000 -1.0000
vn 0.0000 1.0000 -0.0000
vn -0.0000 0.0000 1.0000
vn 0.0000 -1.0000 0.0000
s off
f 43/78/29 41/79/29 42/80/29
f 46/81/30 47/82/30 45/83/30
f 44/84/31 46/81/31 41/79/31
f 43/85/32 48/86/32 44/87/32
f 42/88/33 47/82/33 43/89/33
f 42/90/34 46/81/34 45/91/34
f 43/78/29 44/84/29 41/79/29
f 46/81/30 48/92/30 47/82/30
f 44/84/31 48/92/31 46/81/31
f 43/85/32 47/93/32 48/86/32
f 42/88/33 45/83/33 47/82/33
f 42/90/34 41/79/34 46/81/34
o Head
v -4.000006 0.000002 -4.000001
v -4.000009 0.000002 3.999998
v 3.999994 -0.000002 -3.999998
v 3.999990 -0.000002 4.000001
v -4.000009 -7.999994 -4.000001
v -4.000012 -7.999994 3.999998
v 3.999988 -7.999998 4.000001
v 3.999991 -7.999998 -3.999998
v 3.999988 -7.999998 4.000001
v 3.999991 -7.999998 -3.999998
v 4.999990 -0.999998 4.000002
v 4.999993 -0.999998 -3.999998
v -4.000009 -7.999994 -4.000001
v -4.000012 -7.999994 3.999998
v -5.000007 -0.999994 -4.000002
v -5.000010 -0.999994 3.999998
v -4.000012 -7.999994 3.999998
v 3.999988 -7.999998 4.000001
v -4.000010 -0.999994 4.999999
v 3.999990 -0.999998 5.000001
v 0.999990 0.000000 5.000000
v 0.999988 -7.999996 4.000000
v -1.000010 0.000000 5.000000
v -1.000012 -7.999996 4.000000
v 0.999993 10.000000 5.000000
v -1.000007 10.000000 5.000000
v 0.999991 0.000000 3.000000
v -1.000009 0.000000 3.000000
v 0.999994 10.000000 3.000000
v -1.000006 10.000000 3.000000
v -0.500006 11.500000 3.500000
v -0.500006 10.500000 3.500000
v -0.500006 11.500000 4.500000
v -0.500006 10.500000 4.500000
v 0.499994 11.500000 3.500000
v 0.499994 10.500000 3.500000
v 0.499994 11.500000 4.500000
v 0.499994 10.500000 4.500000
v 0.999994 12.000000 5.000000
v -1.000006 12.000000 5.000000
v 0.999995 12.000000 3.000000
v -1.000005 12.000000 3.000000
v 0.499995 15.000000 4.500000
v -0.500005 15.000000 4.500000
v 0.499995 15.000000 3.500000
v -0.500005 15.000000 3.500000
v -0.000004 16.000000 4.000000
v -0.500006 11.500000 4.000000
v -0.500006 10.500000 4.000000
v 0.499994 11.500000 4.000000
v 0.499994 10.500000 4.000000
v -2.500006 12.000001 3.999999
v -2.500006 10.000001 3.999999
v 2.499994 11.999999 4.000001
v 2.499994 9.999999 4.000001
v -0.000009 -7.999996 -3.500000
v 3.999991 -7.999998 -3.999998
v -4.000009 -7.999994 -4.000001
v -1.000009 -8.999996 -4.500000
v 0.999991 -8.999996 -4.500000
v -5.000007 -2.999994 -5.000002
v 4.999993 -2.999998 -4.999998
v 3.999990 -5.499998 -0.499998
v 3.999990 -6.499998 -0.499998
v 3.999990 -5.499998 0.500002
v 3.999990 -6.499998 0.500002
v 4.999990 -5.499998 -0.499998
v 4.499990 -6.499998 -0.499998
v 4.999990 -5.499998 0.500002
v 4.499990 -6.499998 0.500002
v -5.000010 -5.499994 -0.500002
v -4.500010 -6.499994 -0.500002
v -5.000010 -5.499994 0.499998
v -4.500010 -6.499994 0.499998
v -4.000010 -5.499994 -0.500002
v -4.000010 -6.499994 -0.500002
v -4.000010 -5.499994 0.499998
v -4.000010 -6.499994 0.499998
v -4.312510 -6.812494 -1.500002
v -4.312510 -6.812494 1.499998
v -4.687509 -4.187494 -1.500002
v -4.687510 -4.187494 1.499998
v 4.312490 -6.812498 1.500002
v 4.312490 -6.812498 -1.499998
v 4.687490 -4.187498 1.500002
v 4.687491 -4.187498 -1.499998
vt 0.250000 1.000000
vt 0.375000 0.875000
vt 0.375000 1.000000
vt 0.125000 0.875000
vt 0.250000 1.000000
vt 0.125000 1.000000
vt 0.250000 0.750000
vt 0.125000 0.750000
vt -0.000000 0.875000
vt -0.000000 0.750000
vt 0.500000 0.750000
vt 0.375000 0.875000
vt 0.375000 0.750000
vt 0.250000 0.875000
vt 0.750000 0.765625
vt 0.875000 0.875000
vt 0.750000 0.875000
vt 0.500000 0.765625
vt 0.625000 0.875000
vt 0.500000 0.875000
vt 0.875000 0.765625
vt 1.000000 0.875000
vt 0.875000 0.875000
vt 0.906250 0.640625
vt 0.875000 0.765625
vt 0.875000 0.640625
vt 0.906250 0.484375
vt 0.843750 0.484375
vt 0.875000 0.484375
vt 0.937500 0.640625
vt 0.968750 0.484375
vt 0.937500 0.484375
vt 0.859375 0.765625
vt 0.843750 0.640625
vt 0.921875 0.765625
vt 0.929688 0.476562
vt 0.914062 0.460938
vt 0.929688 0.460938
vt 0.898438 0.476562
vt 0.882812 0.460938
vt 0.898438 0.460938
vt 0.867188 0.476562
vt 0.851562 0.460938
vt 0.867188 0.460938
vt 0.960938 0.476562
vt 0.945312 0.460938
vt 0.960938 0.460938
vt 0.945312 0.476562
vt 0.882812 0.476562
vt 0.914062 0.476562
vt 0.875000 0.453125
vt 0.937500 0.453125
vt 0.968750 0.453125
vt 0.906250 0.453125
vt 0.929688 0.406250
vt 0.898438 0.406250
vt 0.960938 0.406250
vt 0.843750 0.453125
vt 0.867188 0.406250
vt 0.851562 0.406250
vt 0.859375 0.390625
vt 0.812500 0.476562
vt 0.843750 0.500000
vt 0.812500 0.492188
vt 0.914062 0.406250
vt 0.921875 0.390625
vt 0.890625 0.390625
vt 0.882812 0.406250
vt 0.953125 0.390625
vt 0.945312 0.406250
vt 0.812500 0.492188
vt 0.781250 0.468750
vt 0.812500 0.476562
vt 0.687500 0.875000
vt 0.625000 0.875000
vt 0.671875 0.890625
vt 0.750000 0.875000
vt 0.703125 0.890625
vt 0.687500 0.875000
vt 0.750000 0.781250
vt 0.734375 0.859375
vt 0.687500 0.875000
vt 0.640625 0.859375
vt 0.625000 0.781250
vt 0.375000 0.882812
vt 0.390625 0.875000
vt 0.390625 0.890625
vt 0.406250 0.875000
vt 0.421875 0.882812
vt 0.406250 0.890625
vt 0.406250 0.906250
vt 0.390625 0.890625
vt 0.375000 0.882812
vt 0.390625 0.875000
vt 0.421875 0.875000
vt 0.437500 0.882812
vt 0.406250 0.875000
vt 0.421875 0.882812
vt 0.406250 0.890625
vt 0.437500 0.882812
vt 0.421875 0.875000
vt 0.437500 0.875000
vt 0.390625 0.906250
vt 0.437500 0.875000
vt 0.484375 0.914062
vt 0.437500 0.914062
vt 0.437500 0.875000
vt 0.484375 0.914062
vt 0.437500 0.914062
vt 0.250000 0.875000
vt 0.500000 0.875000
vt 0.875000 0.765625
vt 0.625000 0.765625
vt 1.000000 0.765625
vt 0.906250 0.765625
vt 0.968750 0.640625
vt 0.851562 0.476562
vt 0.843750 0.468750
vt 0.781250 0.500000
vt 0.375000 0.875000
vt 0.390625 0.906250
vt 0.375000 0.875000
vt 0.437500 0.875000
vt 0.406250 0.906250
vt 0.484375 0.875000
vt 0.484375 0.875000
vn 0.0000 1.0000 0.0000
vn -0.0000 -1.0000 0.0000
vn 0.0000 -0.0000 -1.0000
vn -1.0000 0.0000 -0.0000
vn -0.0000 0.0000 1.0000
vn 1.0000 -0.0000 0.0000
vn 0.9899 -0.1414 0.0000
vn -0.9899 -0.1414 -0.0000
vn -0.0000 -0.1414 0.9899
vn 0.0000 -0.1240 0.9923
vn 0.7071 0.7071 0.0000
vn 0.0000 0.7071 -0.7071
vn 0.0000 0.7071 0.7071
vn -0.7071 0.7071 0.0000
vn 0.0000 -0.7071 0.7071
vn -0.7071 -0.7071 0.0000
vn 0.0000 -0.7071 -0.7071
vn 0.7071 -0.7071 0.0000
vn -0.9864 0.1644 -0.0000
vn 0.0000 0.1644 0.9864
vn 0.0000 0.1644 -0.9864
vn 0.9864 0.1644 0.0000
vn 0.8944 0.4472 0.0000
vn -0.8944 0.4472 -0.0000
vn 0.0000 0.4472 0.8944
vn 0.0000 0.4472 -0.8944
vn -0.0937 -0.6556 0.7493
vn 0.0937 -0.6556 0.7493
vn 0.2357 -0.2357 -0.9428
vn -0.2357 -0.2357 -0.9428
vn 0.8944 -0.4472 0.0000
vn -0.8944 -0.4472 0.0000
s off
f 52/94/35 49/95/35 50/96/35
f 53/97/36 55/98/36 54/99/36
f 51/100/37 53/97/37 49/101/37
f 49/101/38 54/102/38 50/103/38
f 50/104/39 55/105/39 52/106/39
f 52/106/40 56/107/40 51/100/40
f 60/108/41 57/109/41 58/110/41
f 64/111/42 61/112/42 62/113/42
f 68/114/43 65/115/43 66/116/43
f 71/117/44 70/118/44 69/119/44
f 69/119/39 74/120/39 71/117/39
f 69/119/40 77/121/40 73/122/40
f 74/120/38 76/123/38 71/117/38
f 77/124/37 76/123/37 78/125/37
f 69/119/40 70/126/40 75/127/40
f 71/117/38 76/123/38 72/128/38
f 80/129/38 81/130/38 79/131/38
f 82/132/39 85/133/39 81/134/39
f 86/135/40 83/136/40 85/137/40
f 84/138/37 79/139/37 83/140/37
f 77/121/45 86/135/45 73/122/45
f 80/141/46 77/124/46 78/125/46
f 86/142/47 74/120/47 73/122/47
f 82/143/48 78/125/48 74/120/48
f 87/144/49 81/134/49 85/133/49
f 81/130/50 90/145/50 79/131/50
f 79/139/51 89/146/51 83/140/51
f 83/136/52 87/144/52 85/137/52
f 88/147/53 94/148/53 90/145/53
f 87/144/54 92/149/54 88/147/54
f 90/145/55 93/150/55 89/146/55
f 89/151/56 91/152/56 87/144/56
f 91/152/57 93/153/57 95/154/57
f 96/155/39 101/156/39 97/157/39
f 94/148/58 92/158/58 95/159/58
f 95/160/59 92/149/59 91/161/59
f 95/162/60 93/150/60 94/163/60
f 99/164/39 102/165/39 98/166/39
f 104/167/61 106/168/61 107/169/61
f 105/170/62 104/167/62 108/171/62
f 108/172/63 110/173/63 105/174/63
f 107/175/64 106/176/64 109/177/64
f 122/178/39 125/179/39 121/180/39
f 113/181/39 118/182/39 117/183/39
f 118/184/65 115/185/65 117/183/65
f 116/186/37 111/187/37 115/185/37
f 117/183/35 111/187/35 113/181/35
f 114/188/36 116/189/36 118/182/36
f 123/190/37 120/191/37 119/192/37
f 125/179/35 119/192/35 121/180/35
f 122/193/36 124/194/36 126/195/36
f 119/192/66 122/196/66 121/180/66
f 130/197/42 127/198/42 128/199/42
f 134/200/41 131/201/41 132/202/41
f 52/94/35 51/203/35 49/95/35
f 53/97/36 56/107/36 55/98/36
f 51/100/37 56/107/37 53/97/37
f 49/101/38 53/97/38 54/102/38
f 50/104/39 54/204/39 55/105/39
f 52/106/40 55/105/40 56/107/40
f 60/108/41 59/205/41 57/109/41
f 64/111/42 63/206/42 61/112/42
f 68/114/43 67/207/43 65/115/43
f 71/117/44 72/208/44 70/118/44
f 69/119/39 73/122/39 74/120/39
f 69/119/40 75/127/40 77/121/40
f 74/120/38 78/125/38 76/123/38
f 77/124/37 75/209/37 76/123/37
f 80/129/38 82/143/38 81/130/38
f 82/132/39 86/142/39 85/133/39
f 86/135/40 84/210/40 83/136/40
f 84/138/37 80/141/37 79/139/37
f 77/121/45 84/210/45 86/135/45
f 80/141/46 84/138/46 77/124/46
f 86/142/47 82/132/47 74/120/47
f 82/143/48 80/129/48 78/125/48
f 87/144/49 88/147/49 81/134/49
f 81/130/50 88/147/50 90/145/50
f 79/139/51 90/145/51 89/146/51
f 83/136/52 89/151/52 87/144/52
f 88/147/53 92/158/53 94/148/53
f 87/144/54 91/161/54 92/149/54
f 90/145/55 94/163/55 93/150/55
f 89/151/56 93/153/56 91/152/56
f 96/155/39 100/211/39 101/156/39
f 99/164/39 103/212/39 102/165/39
f 122/178/39 126/213/39 125/179/39
f 113/181/39 114/188/39 118/182/39
f 118/184/65 116/214/65 115/185/65
f 116/186/37 112/215/37 111/187/37
f 117/183/35 115/185/35 111/187/35
f 114/188/36 112/216/36 116/189/36
f 123/190/37 124/194/37 120/191/37
f 125/179/35 123/190/35 119/192/35
f 122/193/36 120/191/36 124/194/36
f 119/192/66 120/217/66 122/196/66
f 130/197/42 129/218/42 127/198/42
f 134/200/41 133/219/41 131/201/41
