# Blender v2.79 (sub 0) OBJ File: 'solstice.blend'
# www.blender.org
o WingLB
v 1.000000 5.000000 3.000000
v 0.999999 3.000000 3.000000
v 1.000000 5.000000 2.000000
v 0.999999 3.000000 2.000000
v 17.000000 4.999995 3.000000
v 17.000000 2.999995 3.000000
v 17.000000 4.999995 2.000000
v 17.000000 2.999995 2.000000
v 14.999999 4.999996 2.250000
v 17.000000 4.999995 2.250000
v 15.500004 18.499996 2.250000
v 16.500004 18.499996 2.250000
v 14.999999 4.999996 2.750000
v 17.000000 4.999995 2.750000
v 15.500004 18.499996 2.750000
v 16.500004 18.499996 2.750000
v 14.292892 4.292889 2.375000
v 15.707107 5.707102 2.375000
v 5.100508 14.192387 2.375000
v 5.807615 14.899494 2.375000
v 14.292892 4.292889 2.625000
v 15.707107 5.707102 2.625000
v 5.100508 14.192387 2.625000
v 5.807615 14.899494 2.625000
v 1.000000 5.000000 2.500000
v 15.999999 4.999995 2.500000
v 16.000004 17.999996 2.500000
v 6.000003 13.999999 2.500000
v 12.000003 14.999997 2.500000
v 4.000000 7.999999 2.500000
v 1.000000 5.000000 2.500000
v 15.999999 4.999995 2.500000
v 16.000004 17.999996 2.500000
v 6.000003 13.999999 2.500000
v 12.000003 14.999997 2.500000
v 4.000000 7.999999 2.500000
vt -0.000000 0.818182
vt 0.057143 0.939394
vt 0.057143 0.818182
vt 0.057143 0.818182
vt 0.971429 0.939394
vt 0.971429 0.818182
vt 0.000000 0.818182
vt 0.057143 0.939394
vt 0.971429 0.939394
vt 0.971429 0.818182
vt 0.057143 1.000000
vt 0.971429 0.939394
vt 0.057143 0.939394
vt 0.057143 1.000000
vt 0.971429 1.000000
vt 0.971429 0.000000
vt 0.885714 0.818182
vt 1.000000 0.818182
vt 1.000000 0.818182
vt 0.914286 0.000000
vt 0.885714 0.818182
vt 0.857143 0.000000
vt 0.885714 0.000000
vt 0.857143 0.000000
vt 0.857143 0.818182
vt 0.000000 1.000000
vt 0.057143 0.969697
vt 0.000000 0.969697
vt 0.971429 0.000000
vt 0.885714 0.818182
vt 1.000000 0.818182
vt 0.885714 0.818182
vt 0.971429 -0.000000
vt 0.914286 -0.000000
vt 0.857143 0.000000
vt 0.871429 0.818182
vt 0.871429 0.000000
vt 0.871429 0.818182
vt 0.857143 0.000000
vt 0.857143 0.818182
vt 0.057143 0.984848
vt 0.000000 1.000000
vt 0.057143 1.000000
vt 0.857143 0.818182
vt 0.628571 0.212121
vt 0.171429 0.636364
vt 0.857143 0.818182
vt 0.171429 0.636364
vt 0.628571 0.212121
vt -0.000000 0.939394
vt 0.000000 0.939394
vt 0.971429 1.000000
vt 0.914286 -0.000000
vt 0.971429 -0.000000
vt 0.857143 0.818182
vt 0.885714 0.000000
vt 0.057143 1.000000
vt 0.914286 0.000000
vt 1.000000 0.818182
vt 0.857143 0.818182
vt 0.871429 0.000000
vt 0.000000 0.984848
vt 0.000000 0.818182
vt 0.857143 0.030303
vt 0.285714 0.272727
vt 0.857143 0.030303
vt 0.000000 0.818182
vt 0.285714 0.272727
vn -1.0000 0.0000 0.0000
vn 0.0000 0.0000 -1.0000
vn 1.0000 0.0000 0.0000
vn 0.0000 0.0000 1.0000
vn 0.0000 1.0000 0.0000
vn -0.0000 -1.0000 0.0000
vn 0.9993 0.0370 0.0000
vn -0.9993 0.0370 0.0000
vn 0.6805 0.7328 0.0000
vn -0.7328 -0.6805 0.0000
vn -0.7071 0.7071 0.0000
s off
f 3/1/1 2/2/1 1/3/1
f 7/4/2 4/5/2 3/6/2
f 5/7/3 8/8/3 7/4/3
f 1/3/4 6/9/4 5/10/4
f 1/11/5 7/12/5 3/13/5
f 6/9/6 4/14/6 8/15/6
f 11/16/2 10/17/2 9/18/2
f 14/19/4 15/20/4 13/21/4
f 16/22/7 10/17/7 12/23/7
f 13/21/8 11/24/8 9/25/8
f 15/26/5 12/27/5 11/28/5
f 19/29/2 18/30/2 17/31/2
f 21/32/4 24/33/4 23/34/4
f 24/35/9 18/36/9 20/37/9
f 21/38/10 19/39/10 17/40/10
f 23/41/11 20/42/11 19/43/11
f 26/44/4 29/45/4 30/46/4
f 32/47/2 36/48/2 35/49/2
f 3/1/1 4/50/1 2/2/1
f 7/4/2 8/8/2 4/5/2
f 5/7/3 6/51/3 8/8/3
f 1/3/4 2/2/4 6/9/4
f 1/11/5 5/52/5 7/12/5
f 6/9/6 2/2/6 4/14/6
f 11/16/2 12/53/2 10/17/2
f 14/19/4 16/54/4 15/20/4
f 16/22/7 14/55/7 10/17/7
f 13/21/8 15/56/8 11/24/8
f 15/26/5 16/57/5 12/27/5
f 19/29/2 20/58/2 18/30/2
f 21/32/4 22/59/4 24/33/4
f 24/35/9 22/60/9 18/36/9
f 21/38/10 23/61/10 19/39/10
f 23/41/11 24/62/11 20/42/11
f 25/63/4 26/44/4 30/46/4
f 26/44/4 27/64/4 29/45/4
f 29/45/4 28/65/4 30/46/4
f 33/66/2 32/47/2 35/49/2
f 32/47/2 31/67/2 36/48/2
f 36/48/2 34/68/2 35/49/2
o WingLT
v 15.000000 5.000000 3.062500
v 15.000000 3.000000 3.062500
v 15.000000 5.000000 2.062500
v 15.000000 3.000000 2.062500
v 31.000000 4.999995 3.062500
v 31.000000 3.999995 3.062500
v 31.000000 4.999995 2.062500
v 31.000000 3.999995 2.062500
v 17.707108 4.292892 2.437500
v 16.292894 5.707107 2.437500
v 26.899498 14.192384 2.437500
v 26.192390 14.899492 2.437500
v 26.192390 14.899492 2.687500
v 26.899498 14.192384 2.687500
v 16.292894 5.707107 2.687500
v 17.707108 4.292892 2.687500
v 16.010000 5.010002 2.562500
v 30.975857 5.009997 2.562500
v 16.010004 17.980001 2.562500
v 25.992420 13.991125 2.562500
v 19.995955 14.990538 2.562500
v 27.991261 7.994596 2.562500
v 16.010000 5.010002 2.562500
v 30.975857 5.009997 2.562500
v 16.010004 17.980001 2.562500
v 25.992420 13.991125 2.562500
v 19.995955 14.990538 2.562500
v 27.991261 7.994596 2.562500
vt 0.000000 0.818182
vt 0.057143 0.939394
vt 0.057143 0.818182
vt 0.971429 0.818182
vt 0.057143 0.878788
vt 0.971429 0.939394
vt 0.000000 0.818182
vt 0.057143 0.818182
vt 0.971429 0.878788
vt 0.971429 0.818182
vt 0.057143 1.000000
vt 0.971429 0.939394
vt 0.057143 0.939394
vt 0.971429 0.939394
vt 0.057143 1.000000
vt 0.971429 1.000000
vt 0.885714 0.818182
vt 0.971429 -0.000000
vt 0.914286 -0.000000
vt 0.057143 0.984848
vt -0.000000 1.000000
vt 0.057143 1.000000
vt 0.871429 0.818182
vt 0.857143 0.000000
vt 0.857143 0.818182
vt 0.000000 1.000000
vt 0.057143 0.984848
vt -0.000000 0.984848
vt 0.857143 -0.000000
vt 0.871429 0.818182
vt 0.871429 -0.000000
vt 0.971429 0.000000
vt 0.885714 0.818182
vt 1.000000 0.818182
vt 0.857143 0.818182
vt 0.171429 0.636364
vt 0.628571 0.212121
vt 0.857143 0.818182
vt 0.628571 0.212121
vt 0.171429 0.636364
vt 0.000000 0.939394
vt 0.000000 0.878788
vt 0.971429 1.000000
vt 1.000000 0.818182
vt -0.000000 0.984848
vt 0.871429 0.000000
vt 0.057143 1.000000
vt 0.857143 0.818182
vt 0.914286 0.000000
vt 0.857143 0.030303
vt 0.000000 0.818182
vt 0.285714 0.272727
vt 0.000000 0.818182
vt 0.857143 0.030303
vt 0.285714 0.272727
vn -1.0000 0.0000 0.0000
vn 0.0000 0.0000 -1.0000
vn 1.0000 0.0000 0.0000
vn 0.0000 0.0000 1.0000
vn 0.0000 1.0000 0.0000
vn 0.0624 -0.9981 0.0000
vn -0.7071 -0.7071 0.0000
vn -0.6805 0.7328 0.0000
vn 0.7071 0.7071 0.0000
vn 0.7328 -0.6805 0.0000
s off
f 39/69/12 38/70/12 37/71/12
f 39/72/13 44/73/13 40/74/13
f 41/75/14 44/73/14 43/76/14
f 37/71/15 42/77/15 41/78/15
f 37/79/16 43/80/16 39/81/16
f 42/82/17 40/83/17 44/84/17
f 45/85/13 48/86/13 47/87/13
f 52/88/18 46/89/18 45/90/18
f 51/91/19 48/92/19 46/93/19
f 49/94/20 47/95/20 48/96/20
f 50/97/21 45/98/21 47/99/21
f 50/100/15 51/101/15 52/102/15
f 53/103/15 58/104/15 57/105/15
f 59/106/13 63/107/13 64/108/13
f 39/69/12 40/109/12 38/70/12
f 39/72/13 43/76/13 44/73/13
f 41/75/14 42/110/14 44/73/14
f 37/71/15 38/70/15 42/77/15
f 37/79/16 41/111/16 43/80/16
f 42/82/17 38/70/17 40/83/17
f 45/85/13 46/112/13 48/86/13
f 52/88/18 51/113/18 46/89/18
f 51/91/19 49/114/19 48/92/19
f 49/94/20 50/115/20 47/95/20
f 50/97/21 52/116/21 45/98/21
f 50/100/15 49/117/15 51/101/15
f 55/118/15 53/103/15 57/105/15
f 53/103/15 54/119/15 58/104/15
f 58/104/15 56/120/15 57/105/15
f 60/121/13 59/106/13 64/108/13
f 59/106/13 61/122/13 63/107/13
f 63/107/13 62/123/13 64/108/13
o WingRT
v -15.000000 5.000001 3.062500
v -15.000000 3.000001 3.062500
v -15.000000 5.000001 2.062500
v -15.000000 3.000001 2.062500
v -31.000000 5.000007 3.062500
v -31.000000 4.000007 3.062500
v -31.000000 5.000007 2.062500
v -31.000000 4.000007 2.062500
v -17.707108 4.292896 2.437500
v -16.292892 5.707109 2.437500
v -26.899492 14.192393 2.437500
v -26.192383 14.899500 2.437500
v -26.192383 14.899500 2.687500
v -26.899492 14.192393 2.687500
v -16.292892 5.707109 2.687500
v -17.707108 4.292896 2.687500
v -16.010000 5.010004 2.562500
v -30.975857 5.010009 2.562500
v -16.009995 17.980003 2.562500
v -25.992414 13.991133 2.562500
v -19.995947 14.990541 2.562500
v -27.991259 7.994606 2.562500
v -16.010000 5.010004 2.562500
v -30.975857 5.010009 2.562500
v -16.009995 17.980003 2.562500
v -25.992414 13.991133 2.562500
v -19.995947 14.990541 2.562500
v -27.991259 7.994606 2.562500
vt 0.057143 0.939394
vt 0.000000 0.818182
vt 0.057143 0.818182
vt 0.971429 0.818182
vt 0.057143 0.878788
vt 0.057143 0.818182
vt 0.000000 0.818182
vt 0.971429 0.878788
vt 0.971429 0.818182
vt 0.971429 0.939394
vt 0.057143 1.000000
vt 0.057143 0.939394
vt 0.057143 1.000000
vt 0.971429 0.939394
vt 0.971429 1.000000
vt 0.914286 -0.000000
vt 1.000000 0.818182
vt 0.885714 0.818182
vt -0.000000 1.000000
vt 0.057143 0.984848
vt 0.057143 1.000000
vt 0.857143 0.000000
vt 0.871429 0.818182
vt 0.857143 0.818182
vt 0.057143 0.984848
vt 0.000000 1.000000
vt -0.000000 0.984848
vt 0.871429 0.818182
vt 0.857143 -0.000000
vt 0.871429 -0.000000
vt 1.000000 0.818182
vt 0.914286 0.000000
vt 0.971429 0.000000
vt 0.857143 0.818182
vt 0.628571 0.212121
vt 0.171429 0.636364
vt 0.857143 0.818182
vt 0.171429 0.636364
vt 0.628571 0.212121
vt 0.000000 0.939394
vt 0.971429 0.939394
vt 0.000000 0.878788
vt 0.971429 1.000000
vt 0.971429 -0.000000
vt -0.000000 0.984848
vt 0.871429 0.000000
vt 0.057143 1.000000
vt 0.857143 0.818182
vt 0.885714 0.818182
vt 0.000000 0.818182
vt 0.857143 0.030303
vt 0.285714 0.272727
vt 0.857143 0.030303
vt 0.000000 0.818182
vt 0.285714 0.272727
vn 1.0000 0.0000 0.0000
vn 0.0000 0.0000 -1.0000
vn -1.0000 0.0000 0.0000
vn -0.0000 0.0000 1.0000
vn 0.0000 1.0000 0.0000
vn -0.0624 -0.9981 0.0000
vn 0.7071 -0.7071 0.0000
vn 0.6805 0.7328 0.0000
vn -0.7071 0.7071 0.0000
vn -0.7328 -0.6805 0.0000
s off
f 66/124/22 67/125/22 65/126/22
f 67/127/23 72/128/23 71/129/23
f 72/128/24 69/130/24 71/129/24
f 70/131/25 65/126/25 69/132/25
f 71/133/26 65/134/26 67/135/26
f 68/136/27 70/137/27 72/138/27
f 75/139/23 74/140/23 73/141/23
f 74/142/28 80/143/28 73/144/28
f 76/145/29 79/146/29 74/147/29
f 75/148/30 77/149/30 76/150/30
f 73/151/31 78/152/31 75/153/31
f 80/154/25 77/155/25 78/156/25
f 81/157/25 85/158/25 86/159/25
f 87/160/23 92/161/23 91/162/23
f 66/124/22 68/163/22 67/125/22
f 67/127/23 68/164/23 72/128/23
f 72/128/24 70/165/24 69/130/24
f 70/131/25 66/124/25 65/126/25
f 71/133/26 69/166/26 65/134/26
f 68/136/27 66/124/27 70/137/27
f 75/139/23 76/167/23 74/140/23
f 74/142/28 79/168/28 80/143/28
f 76/145/29 77/169/29 79/146/29
f 75/148/30 78/170/30 77/149/30
f 73/151/31 80/171/31 78/152/31
f 80/154/25 79/172/25 77/155/25
f 82/173/25 81/157/25 86/159/25
f 81/157/25 83/174/25 85/158/25
f 85/158/25 84/175/25 86/159/25
f 89/176/23 87/160/23 91/162/23
f 87/160/23 88/177/23 92/161/23
f 92/161/23 90/178/23 91/162/23
o WingRB
v -1.000001 5.000000 3.000000
v -1.000001 3.000000 3.000000
v -1.000001 5.000000 2.000000
v -1.000001 3.000000 2.000000
v -17.000000 5.000005 3.000000
v -17.000000 3.000005 3.000000
v -17.000000 5.000005 2.000000
v -17.000000 3.000005 2.000000
v -15.000001 5.000004 2.250000
v -17.000000 5.000005 2.250000
v -15.499996 18.500004 2.250000
v -16.499996 18.500004 2.250000
v -15.000001 5.000004 2.750000
v -17.000000 5.000005 2.750000
v -15.499996 18.500004 2.750000
v -16.499996 18.500004 2.750000
v -14.292894 4.292897 2.375000
v -15.707107 5.707111 2.375000
v -5.100502 14.192389 2.375000
v -5.807610 14.899496 2.375000
v -14.292894 4.292897 2.625000
v -15.707107 5.707111 2.625000
v -5.100502 14.192389 2.625000
v -5.807610 14.899496 2.625000
v -1.000001 5.000000 2.500000
v -16.000000 5.000005 2.500000
v -15.999996 18.000004 2.500000
v -5.999998 14.000001 2.500000
v -11.999997 15.000003 2.500000
v -4.000000 8.000000 2.500000
v -1.000001 5.000000 2.500000
v -16.000000 5.000005 2.500000
v -15.999996 18.000004 2.500000
v -5.999998 14.000001 2.500000
v -11.999997 15.000003 2.500000
v -4.000000 8.000000 2.500000
vt 0.057143 0.939394
vt -0.000000 0.818182
vt 0.057143 0.818182
vt 0.971429 0.939394
vt 0.057143 0.818182
vt 0.971429 0.818182
vt 0.057143 0.939394
vt 0.000000 0.818182
vt 0.971429 0.939394
vt 0.971429 0.818182
vt 0.971429 0.939394
vt 0.057143 1.000000
vt 0.057143 0.939394
vt 0.057143 1.000000
vt 0.971429 1.000000
vt 0.885714 0.818182
vt 0.971429 0.000000
vt 1.000000 0.818182
vt 0.914286 0.000000
vt 1.000000 0.818182
vt 0.885714 0.818182
vt 0.857143 0.000000
vt 0.885714 0.000000
vt 0.857143 0.000000
vt 0.857143 0.818182
vt 0.057143 0.969697
vt 0.000000 1.000000
vt 0.000000 0.969697
vt 1.000000 0.818182
vt 0.914286 0.000000
vt 0.971429 0.000000
vt 0.914286 -0.000000
vt 1.000000 0.818182
vt 0.885714 0.818182
vt 0.871429 0.818182
vt 0.857143 0.000000
vt 0.871429 0.000000
vt 0.857143 0.000000
vt 0.871429 0.818182
vt 0.857143 0.818182
vt 0.000000 1.000000
vt 0.057143 0.984848
vt 0.057143 1.000000
vt 0.857143 0.818182
vt 0.171429 0.636364
vt 0.628571 0.212121
vt 0.857143 0.818182
vt 0.628571 0.212121
vt 0.171429 0.636364
vt -0.000000 0.939394
vt 0.000000 0.939394
vt 0.971429 1.000000
vt 0.914286 -0.000000
vt 0.971429 -0.000000
vt 0.857143 0.818182
vt 0.885714 0.000000
vt 0.057143 1.000000
vt 0.885714 0.818182
vt 0.971429 -0.000000
vt 0.857143 0.818182
vt 0.871429 0.000000
vt 0.000000 0.984848
vt 0.857143 0.030303
vt 0.000000 0.818182
vt 0.285714 0.272727
vt 0.000000 0.818182
vt 0.857143 0.030303
vt 0.285714 0.272727
vn 1.0000 -0.0000 0.0000
vn 0.0000 0.0000 -1.0000
vn -1.0000 0.0000 0.0000
vn 0.0000 0.0000 1.0000
vn 0.0000 1.0000 0.0000
vn -0.0000 -1.0000 0.0000
vn -0.9993 0.0370 0.0000
vn 0.9993 0.0370 0.0000
vn -0.6805 0.7328 0.0000
vn 0.7328 -0.6805 0.0000
vn 0.7071 0.7071 0.0000
s off
f 94/179/32 95/180/32 93/181/32
f 96/182/33 99/183/33 95/184/33
f 100/185/34 97/186/34 99/183/34
f 98/187/35 93/181/35 97/188/35
f 99/189/36 93/190/36 95/191/36
f 96/192/37 98/187/37 100/193/37
f 102/194/33 103/195/33 101/196/33
f 107/197/35 106/198/35 105/199/35
f 102/194/38 108/200/38 104/201/38
f 103/202/39 105/199/39 101/203/39
f 104/204/36 107/205/36 103/206/36
f 109/207/33 112/208/33 111/209/33
f 115/210/35 114/211/35 113/212/35
f 110/213/40 116/214/40 112/215/40
f 111/216/41 113/217/41 109/218/41
f 112/219/42 115/220/42 111/221/42
f 118/222/35 122/223/35 121/224/35
f 124/225/33 127/226/33 128/227/33
f 94/179/32 96/228/32 95/180/32
f 96/182/33 100/185/33 99/183/33
f 100/185/34 98/229/34 97/186/34
f 98/187/35 94/179/35 93/181/35
f 99/189/36 97/230/36 93/190/36
f 96/192/37 94/179/37 98/187/37
f 102/194/33 104/231/33 103/195/33
f 107/197/35 108/232/35 106/198/35
f 102/194/38 106/233/38 108/200/38
f 103/202/39 107/234/39 105/199/39
f 104/204/36 108/235/36 107/205/36
f 109/207/33 110/236/33 112/208/33
f 115/210/35 116/237/35 114/211/35
f 110/213/40 114/238/40 116/214/40
f 111/216/41 115/239/41 113/217/41
f 112/219/42 116/240/42 115/220/42
f 119/241/35 118/222/35 121/224/35
f 118/222/35 117/242/35 122/223/35
f 122/223/35 120/243/35 121/224/35
f 123/244/33 124/225/33 128/227/33
f 124/225/33 125/245/33 127/226/33
f 127/226/33 126/246/33 128/227/33
