# Blender v2.81 (sub 16) OBJ File: ''
# www.blender.org
mtllib stopsign.mtl
o Cube
v 0.125000 6.000000 -0.500000
v 0.125000 4.000000 0.500000
v 0.000000 6.000000 -0.500000
v 0.062500 5.500000 -1.000000
v 0.000000 4.000000 0.500000
v 0.062500 4.500000 1.000000
v 0.125000 4.000000 -0.500000
v 0.125000 6.000000 0.500000
v 0.062500 4.500000 -1.000000
v 0.000000 4.000000 -0.500000
v 0.062500 5.500000 1.000000
v 0.000000 6.000000 0.500000
v 0.125000 5.875000 -0.375000
v 0.125000 5.750000 0.125000
v 0.125000 5.875000 0.375000
v 0.000000 5.875000 -0.375000
v 0.000000 5.750000 0.125000
v 0.000000 5.875000 0.375000
v 0.125000 4.125000 -0.375000
v 0.125000 4.125000 0.375000
v 0.000000 4.125000 -0.375000
v 0.000000 4.125000 0.375000
v 0.125000 4.250000 -0.125000
v 0.000000 4.250000 -0.125000
v 0.125000 4.250000 0.125000
v 0.000000 4.250000 0.125000
v 0.125000 5.750000 -0.125000
v 0.000000 5.750000 -0.125000
v 0.125000 6.000000 0.062500
v 0.125000 6.000000 -0.062500
v 0.250000 6.000000 -0.062500
v 0.250000 6.000000 0.062500
v 0.125000 0.000000 0.062500
v 0.125000 0.000000 -0.062500
v 0.250000 0.000000 -0.062500
v 0.250000 0.000000 0.062500
vt 0.104167 0.312500
vt 0.083333 0.333333
vt 0.083333 0.312500
vt 0.416667 0.333333
vt 0.333333 0.083333
vt 0.416667 0.000000
vt 0.333333 0.250000
vt 0.250000 0.000000
vt 0.020833 0.270833
vt -0.000000 0.270833
vt 0.020833 0.187500
vt 0.000000 0.062500
vt 0.020833 0.145833
vt -0.000000 0.145833
vt 0.333333 0.145833
vt 0.312500 0.145833
vt 0.333333 0.062500
vt 0.312500 0.270833
vt 0.312500 0.187500
vt 0.333333 0.270833
vt -0.000000 0.083333
vt 0.083333 0.333333
vt -0.000000 0.250000
vt 0.583333 0.333333
vt 0.666667 0.083333
vt 0.666667 0.250000
vt 0.250000 0.312500
vt 0.229167 0.333333
vt 0.229167 0.312500
vt 0.229167 0.312500
vt 0.187500 0.333333
vt 0.145833 0.312500
vt 0.104167 0.333333
vt 0.145833 0.333333
vt 0.187500 0.020833
vt 0.229167 -0.000000
vt 0.229167 0.020833
vt 0.229167 -0.000000
vt 0.250000 0.020833
vt 0.229167 0.020833
vt 0.104167 0.020833
vt 0.083333 -0.000000
vt 0.104167 -0.000000
vt 0.104167 -0.000000
vt 0.145833 0.020833
vt 0.104167 0.020833
vt 0.145833 -0.000000
vt 0.104167 0.312500
vt 0.104167 0.020833
vt 0.145833 0.041667
vt 0.520833 0.041667
vt 0.562500 0.020833
vt 0.562500 0.312500
vt 0.270833 0.958333
vt 0.291667 0.937500
vt 0.291667 0.958333
vt 0.333333 0.916667
vt 0.354167 0.937500
vt 0.333333 0.937500
vt 0.000000 0.979167
vt 1.000000 1.000000
vt 0.000000 1.000000
vt -0.000000 0.937500
vt 1.000000 0.958333
vt 0.000000 0.958333
vt 0.000000 0.916667
vt 1.000000 0.937500
vt 0.000000 0.937500
vt -0.000000 0.958333
vt 1.000000 0.979167
vt -0.000000 0.979167
vt 0.104167 0.333333
vt 0.250000 0.333333
vt 0.083333 0.000000
vt 0.583333 0.000000
vt 0.250000 0.333333
vt 0.187500 0.312500
vt 0.187500 -0.000000
vt 0.250000 -0.000000
vt 0.083333 0.020833
vt 0.229167 0.312500
vt 0.229167 0.020833
vt 0.187500 0.291667
vt 0.187500 0.041667
vt 0.145833 0.291667
vt 0.437500 0.312500
vt 0.437500 0.020833
vt 0.479167 0.291667
vt 0.479167 0.041667
vt 0.520833 0.291667
vt 0.270833 0.937500
vt 0.354167 0.916667
vt 1.000000 0.979167
vt 1.000000 0.937500
vt 1.000000 0.916667
vt 1.000000 0.958333
vn 0.0000 0.7071 -0.7071
vn 0.9923 0.0000 0.1240
vn -0.9923 0.0000 0.1240
vn 0.0000 0.7071 0.7071
vn 0.0000 -0.7071 0.7071
vn 0.0000 -0.7071 -0.7071
vn -0.9923 0.0000 -0.1240
vn 0.9923 0.0000 -0.1240
vn 0.0000 0.8944 0.4472
vn 0.0000 0.8944 -0.4472
vn 0.0000 -0.8944 0.4472
vn 0.0000 -0.8944 -0.4472
vn 0.0000 -1.0000 0.0000
vn 0.0000 1.0000 0.0000
vn -1.0000 0.0000 0.0000
vn 1.0000 0.0000 0.0000
vn 0.0000 0.0000 1.0000
vn 0.0000 0.0000 -1.0000
usemtl Material
s off
f 18/1/1 8/2/1 15/3/1
f 8/4/2 6/5/2 2/6/2
f 11/7/3 5/8/3 6/5/3
f 3/9/1 1/10/1 4/11/1
f 11/12/4 8/13/4 12/14/4
f 5/15/5 2/16/5 6/17/5
f 10/18/6 9/19/6 7/20/6
f 9/21/7 3/22/7 4/23/7
f 1/24/8 9/25/8 4/26/8
f 3/27/4 13/28/4 1/29/4
f 16/30/9 27/31/9 13/28/9
f 17/32/10 15/33/10 14/34/10
f 23/35/11 21/36/11 19/37/11
f 19/38/5 10/39/5 7/40/5
f 5/41/6 20/42/6 2/43/6
f 22/44/12 25/45/12 20/46/12
f 26/47/13 23/35/13 25/45/13
f 27/31/14 17/32/14 14/34/14
f 16/48/15 21/49/15 24/50/15
f 23/51/16 19/52/16 13/53/16
f 29/54/14 31/55/14 30/56/14
f 35/57/13 33/58/13 34/59/13
f 32/60/16 35/61/16 31/62/16
f 29/63/17 36/64/17 32/65/17
f 31/66/18 34/67/18 30/68/18
f 30/69/15 33/70/15 29/71/15
f 18/1/1 12/72/1 8/2/1
f 8/4/2 11/7/2 6/5/2
f 11/7/3 12/73/3 5/8/3
f 9/21/7 10/74/7 3/22/7
f 1/24/8 7/75/8 9/25/8
f 3/27/4 16/76/4 13/28/4
f 16/30/9 28/77/9 27/31/9
f 17/32/10 18/1/10 15/33/10
f 23/35/11 24/78/11 21/36/11
f 19/38/5 21/79/5 10/39/5
f 5/41/6 22/80/6 20/42/6
f 22/44/12 26/47/12 25/45/12
f 26/47/13 24/78/13 23/35/13
f 27/31/14 28/77/14 17/32/14
f 5/8/15 12/73/15 18/81/15
f 5/8/15 18/81/15 22/82/15
f 18/81/15 17/83/15 22/82/15
f 22/82/15 17/83/15 26/84/15
f 17/83/15 28/85/15 26/84/15
f 16/48/15 3/22/15 10/74/15
f 26/84/15 28/85/15 24/50/15
f 28/85/15 16/48/15 24/50/15
f 16/48/15 10/74/15 21/49/15
f 15/86/16 8/4/16 2/6/16
f 15/86/16 2/6/16 20/87/16
f 14/88/16 15/86/16 20/87/16
f 14/88/16 20/87/16 25/89/16
f 27/90/16 14/88/16 25/89/16
f 27/90/16 25/89/16 23/51/16
f 7/75/16 1/24/16 13/53/16
f 13/53/16 27/90/16 23/51/16
f 19/52/16 7/75/16 13/53/16
f 29/54/14 32/91/14 31/55/14
f 35/57/13 36/92/13 33/58/13
f 32/60/16 36/93/16 35/61/16
f 29/63/17 33/94/17 36/64/17
f 31/66/18 35/95/18 34/67/18
f 30/69/15 34/96/15 33/70/15
