# Blender 4.0.1
# www.blender.org
o FloodLamp
v 0.015049 -0.086498 0.155863
v 0.015049 0.086498 0.155863
v 0.015049 -0.086498 -0.155863
v 0.015049 0.086498 -0.155863
v 0.306240 -0.185247 0.273848
v 0.306240 0.185247 0.273848
v 0.306240 -0.185247 -0.273848
v 0.306240 0.185247 -0.273848
v 0.306240 0.228156 -0.325088
v 0.306240 -0.228156 -0.325088
v 0.306240 -0.228156 0.325088
v 0.306240 0.228156 0.325088
v 0.183352 0.115790 -0.171171
v 0.183352 -0.115790 -0.171171
v 0.183352 -0.115790 0.171171
v 0.183352 0.115790 0.171171
v 0.183138 0.057253 -0.202014
v 0.183138 0.057253 0.202014
v 0.183138 -0.057253 -0.202014
v 0.183138 -0.057253 0.202014
v 0.214999 -0.040484 -0.202014
v 0.214999 -0.040484 0.202014
v 0.228196 0.000000 -0.202014
v 0.228196 0.000000 0.202014
v 0.214999 0.040484 -0.202014
v 0.214999 0.040484 0.202014
v -0.001481 -0.036719 0.241790
v -0.001481 0.036719 0.241790
v -0.001481 -0.036719 -0.241790
v -0.001481 0.036719 -0.241790
v 0.005048 -0.036719 0.237296
v 0.005048 0.036719 0.237296
v 0.005048 -0.036719 -0.237296
v 0.005048 0.036719 -0.237296
v 0.150804 -0.036719 0.259541
v 0.150804 0.036719 0.259541
v 0.150804 0.036719 -0.259541
v 0.150804 -0.036719 -0.259541
v 0.150804 -0.036719 -0.253185
v 0.150804 0.036719 -0.253185
v 0.150804 0.036719 0.253185
v 0.150804 -0.036719 0.253185
v 0.071925 -0.135739 -0.228998
v 0.071925 0.135739 -0.228998
v 0.071925 -0.135739 0.228998
v 0.071925 0.135739 0.228998
v 0.256780 0.219497 -0.320654
v 0.256780 -0.219497 0.320654
v 0.256780 -0.219497 -0.320654
v 0.256780 0.219497 0.320654
vn -1.0000 -0.0000 -0.0000
vn -0.0893 -0.0000 -0.9960
vn 0.4920 -0.8706 -0.0000
vn -0.7894 -0.0000 0.6139
vn -0.1724 -0.9850 -0.0000
vn -0.6545 0.7560 -0.0000
vn 1.0000 -0.0000 -0.0000
vn 0.6412 -0.0000 0.7674
vn 0.6412 -0.0000 -0.7674
vn 0.4920 0.8706 -0.0000
vn 0.4658 -0.8849 -0.0000
vn 0.9508 -0.3099 -0.0000
vn 0.9508 0.3099 -0.0000
vn 0.4658 0.8849 -0.0000
vn -0.0000 -1.0000 -0.0000
vn 0.1084 -0.0000 0.9941
vn -0.0000 1.0000 -0.0000
vn 0.1084 -0.0000 -0.9941
vn -0.1158 -0.0000 -0.9933
vn -0.1158 -0.0000 0.9933
vn -0.4127 0.9109 -0.0000
vn -0.6545 -0.7560 -0.0000
vn -0.4442 -0.0000 0.8959
vn -0.7894 -0.0000 -0.6139
vn -0.0893 -0.0000 0.9960
vn -0.1724 0.9850 -0.0000
vn -0.4127 -0.9109 -0.0000
vn -0.4442 -0.0000 -0.8959
vt 0.750000 0.312500
vt 0.937500 0.000000
vt 0.937500 0.312500
vt 0.433577 0.606066
vt 0.390675 0.995211
vt 0.433577 0.987684
vt 0.319041 0.068172
vt 0.433066 0.416342
vt 0.319041 0.496674
vt 0.592516 0.678877
vt 0.640575 0.872068
vt 0.592516 0.914873
vt 0.954474 0.992052
vt 0.393131 0.950474
vt 0.950619 0.950474
vt 0.536383 0.742486
vt 0.870944 0.796340
vt 0.472806 0.796340
vt 0.520556 0.519306
vt 0.125992 0.563849
vt 0.166945 0.519306
vt 0.520555 0.043194
vt 0.561508 0.563849
vt 0.125992 -0.001349
vt 0.166945 0.043194
vt 0.166945 0.045709
vt 0.561508 0.001166
vt 0.520555 0.045709
vt 0.062500 1.000000
vt 0.312500 0.687500
vt 0.312500 1.000000
vt 0.999676 0.773340
vt 0.890949 0.511648
vt 0.999676 0.451269
vt 1.000000 0.773310
vt 0.891273 0.511618
vt 1.000000 0.451239
vt 0.320607 0.064998
vt 0.433145 0.419320
vt 0.320607 0.493499
vt 0.000000 0.437500
vt 0.062500 0.437500
vt 0.000000 1.000000
vt 0.937500 0.437500
vt 1.000000 0.000000
vt 1.000000 0.437500
vt 1.000000 0.125000
vt 0.937500 0.125000
vt 0.950619 0.956002
vt 0.393131 0.956002
vt 0.807367 0.757948
vt 0.472806 0.801131
vt 0.536383 0.757948
vt 0.640575 0.721682
vt 0.390675 0.598539
vt 0.390675 0.995211
vt 0.954474 0.995950
vt 0.389276 0.995950
vt 0.870944 0.801131
vt 0.750000 0.000000
vt 0.390675 0.598539
vt 0.433066 0.148504
vt 0.389276 0.992052
vt 0.807367 0.742486
vt 0.561508 -0.001349
vt 0.125992 0.001166
vt 0.062500 0.687500
vt 0.890949 0.712961
vt 0.891273 0.712931
vt 0.433145 0.151481
s 0
f 2/1/1 3/2/1 1/3/1
f 47/4/2 10/5/2 49/6/2
f 6/7/3 13/8/3 8/9/3
f 46/10/4 1/11/4 45/12/4
f 10/13/5 48/14/5 49/15/5
f 4/16/6 46/17/6 44/18/6
f 7/19/7 9/20/7 8/21/7
f 5/22/7 10/23/7 7/19/7
f 8/21/7 12/24/7 6/25/7
f 6/26/7 11/27/7 5/28/7
f 13/29/7 15/30/7 14/31/7
f 8/32/8 14/33/8 7/34/8
f 5/35/9 16/36/9 6/37/9
f 7/38/10 15/39/10 5/40/10
f 21/41/11 20/29/11 19/42/11
f 23/41/12 22/29/12 21/42/12
f 25/29/13 24/41/13 23/43/13
f 17/29/14 26/41/14 25/43/14
f 28/44/1 29/45/1 27/46/1
f 33/2/15 38/47/15 39/48/15
f 34/44/7 31/45/7 33/46/7
f 33/45/16 40/48/16 34/2/16
f 33/44/15 27/45/15 29/46/15
f 30/45/17 32/44/17 34/2/17
f 32/2/17 36/47/17 41/48/17
f 32/48/18 42/45/18 31/47/18
f 34/45/17 37/48/17 30/2/17
f 30/48/19 38/45/19 29/47/19
f 27/45/20 36/48/20 28/2/20
f 31/45/15 35/48/15 27/2/15
f 44/18/21 50/49/21 47/50/21
f 3/51/22 45/52/22 1/53/22
f 50/4/23 45/12/23 48/6/23
f 4/54/24 43/12/24 3/11/24
f 12/55/25 48/6/25 11/56/25
f 47/50/26 12/57/26 9/58/26
f 49/15/27 45/52/27 43/59/27
f 44/10/28 49/6/28 43/12/28
f 2/1/1 4/60/1 3/2/1
f 47/4/2 9/61/2 10/5/2
f 6/7/3 16/62/3 13/8/3
f 46/10/4 2/54/4 1/11/4
f 10/13/5 11/63/5 48/14/5
f 4/16/6 2/64/6 46/17/6
f 7/19/7 10/23/7 9/20/7
f 5/22/7 11/65/7 10/23/7
f 8/21/7 9/20/7 12/24/7
f 6/26/7 12/66/7 11/27/7
f 13/29/7 16/67/7 15/30/7
f 8/32/8 13/68/8 14/33/8
f 5/35/9 15/69/9 16/36/9
f 7/38/10 14/70/10 15/39/10
f 21/41/11 22/43/11 20/29/11
f 23/41/12 24/43/12 22/29/12
f 25/29/13 26/42/13 24/41/13
f 17/29/14 18/42/14 26/41/14
f 28/44/1 30/2/1 29/45/1
f 33/2/15 29/45/15 38/47/15
f 34/44/7 32/2/7 31/45/7
f 33/45/16 39/47/16 40/48/16
f 33/44/15 31/2/15 27/45/15
f 30/45/17 28/46/17 32/44/17
f 32/2/17 28/45/17 36/47/17
f 32/48/18 41/2/18 42/45/18
f 34/45/17 40/47/17 37/48/17
f 30/48/19 37/2/19 38/45/19
f 27/45/20 35/47/20 36/48/20
f 31/45/15 42/47/15 35/48/15
f 44/18/21 46/17/21 50/49/21
f 3/51/22 43/59/22 45/52/22
f 50/4/23 46/10/23 45/12/23
f 4/54/24 44/10/24 43/12/24
f 12/55/25 50/4/25 48/6/25
f 47/50/26 50/49/26 12/57/26
f 49/15/27 48/14/27 45/52/27
f 44/10/28 47/4/28 49/6/28
