# Blender 4.4.0
# www.blender.org
mtllib fluorescent_lamp.mtl
o FluoroCap
v 0.125000 0.312500 0.375000
v 0.125000 0.312500 -0.500000
v 0.125000 -0.312500 0.375000
v 0.125000 -0.312500 -0.500000
v 0.062500 0.312500 0.375000
v 0.062500 0.312500 -0.500000
v 0.062500 -0.312500 0.375000
v 0.062500 -0.312500 -0.500000
v 0.000000 0.250000 0.375000
v 0.000000 0.250000 -0.500000
v 0.000000 -0.250000 0.375000
v 0.000000 -0.250000 -0.500000
v 0.125000 0.312500 0.187500
v 0.125000 -0.312500 0.187500
v 0.125000 0.312500 -0.187500
v 0.125000 -0.312500 -0.187500
v 0.062500 0.312500 -0.187500
v 0.000000 0.250000 -0.187500
v 0.062500 0.312500 0.187500
v 0.000000 0.250000 0.187500
v 0.062500 -0.312500 0.187500
v 0.000000 -0.250000 0.187500
v 0.062500 -0.312500 -0.187500
v 0.000000 -0.250000 -0.187500
vn 1.0000 -0.0000 -0.0000
vn -0.0000 -0.0000 1.0000
vn -0.0000 -0.0000 -1.0000
vn -0.0000 -1.0000 -0.0000
vn -0.7071 -0.7071 -0.0000
vn -0.0000 1.0000 -0.0000
vn -0.7071 0.7071 -0.0000
vn -1.0000 -0.0000 -0.0000
vt 0.000000 0.000000
vt 0.187500 0.000000
vt 0.187500 0.625000
vt 0.000000 0.625000
vt 0.187500 0.750000
vt 0.812500 0.750000
vt 0.812500 0.812500
vt 0.187500 0.812500
vt 0.187500 0.937500
vt 0.187500 0.875000
vt 0.812500 0.875000
vt 0.812500 0.937500
vt 0.750000 0.875000
vt 0.250000 0.875000
vt 0.812500 0.625000
vt 0.500000 0.625000
vt 0.500000 0.000000
vt 0.812500 0.000000
vt 0.687500 0.687500
vt 0.375000 0.687500
vt 0.375000 0.625000
vt 0.687500 0.625000
vt 0.687500 0.750000
vt 0.312500 0.750000
vt 0.312500 0.687500
vt 0.812500 0.687500
vt 0.500000 0.687500
vt 0.500000 0.750000
vt 0.625000 0.687500
vt 0.312500 0.625000
vt 0.625000 0.625000
vt 0.187500 0.687500
vt 0.000000 0.687500
vt 0.000000 0.750000
vt 0.312500 0.000000
vt 0.625000 0.000000
vt 1.000000 0.687500
vt 1.000000 0.625000
vt 1.000000 0.750000
vt 0.750000 0.812500
vt 0.250000 0.812500
s 1
usemtl m_f2fc5e6a-df7e-b2ac-c266-afe51098c5f3
f 3/1/1 14/2/1 13/3/1
f 3/1/1 13/3/1 1/4/1
f 3/5/2 1/6/2 5/7/2
f 3/5/2 5/7/2 7/8/2
f 6/9/3 2/10/3 4/11/3
f 6/9/3 4/11/3 8/12/3
f 9/13/2 11/14/2 7/8/2
f 9/13/2 7/8/2 5/7/2
f 12/13/3 10/14/3 6/8/3
f 12/13/3 6/8/3 8/7/3
f 2/15/1 15/16/1 16/17/1
f 2/15/1 16/17/1 4/18/1
f 21/19/4 23/20/4 16/21/4
f 21/19/4 16/21/4 14/22/4
f 22/23/5 24/24/5 23/25/5
f 22/23/5 23/25/5 21/19/5
f 6/26/6 17/27/6 15/16/6
f 6/26/6 15/16/6 2/15/6
f 10/6/7 18/28/7 17/27/7
f 10/6/7 17/27/7 6/26/7
f 17/29/6 19/25/6 13/30/6
f 17/29/6 13/30/6 15/31/6
f 18/23/7 20/24/7 19/25/7
f 18/23/7 19/25/7 17/19/7
f 1/4/6 13/3/6 19/32/6
f 1/4/6 19/32/6 5/33/6
f 5/33/7 19/32/7 20/5/7
f 5/33/7 20/5/7 9/34/7
f 14/35/1 16/36/1 15/31/1
f 14/35/1 15/31/1 13/30/1
f 7/37/4 21/26/4 14/15/4
f 7/37/4 14/15/4 3/38/4
f 11/39/5 22/6/5 21/26/5
f 11/39/5 21/26/5 7/37/5
f 4/3/4 16/16/4 23/27/4
f 4/3/4 23/27/4 8/32/4
f 8/32/5 23/27/5 24/28/5
f 8/32/5 24/28/5 12/5/5
f 12/40/8 11/13/8 9/14/8
f 12/40/8 9/14/8 10/41/8
o FluoroMid
v 0.125000 0.312500 0.500000
v 0.125000 0.312500 -0.500000
v 0.125000 -0.312500 0.500000
v 0.125000 -0.312500 -0.500000
v 0.062500 0.312500 0.500000
v 0.062500 0.312500 -0.500000
v 0.062500 -0.312500 0.500000
v 0.062500 -0.312500 -0.500000
v 0.000000 0.250000 0.500000
v 0.000000 0.250000 -0.500000
v 0.000000 -0.250000 0.500000
v 0.000000 -0.250000 -0.500000
v 0.125000 0.312500 0.187500
v 0.125000 -0.312500 0.187500
v 0.125000 0.312500 -0.187500
v 0.125000 -0.312500 -0.187500
v 0.062500 0.312500 -0.187500
v 0.000000 0.250000 -0.187500
v 0.062500 0.312500 0.187500
v 0.000000 0.250000 0.187500
v 0.062500 -0.312500 0.187500
v 0.000000 -0.250000 0.187500
v 0.062500 -0.312500 -0.187500
v 0.000000 -0.250000 -0.187500
vn 1.0000 -0.0000 -0.0000
vn -0.0000 -0.0000 1.0000
vn -0.0000 -0.0000 -1.0000
vn -0.0000 -1.0000 -0.0000
vn -0.7071 -0.7071 -0.0000
vn -0.0000 1.0000 -0.0000
vn -0.7071 0.7071 -0.0000
vn -1.0000 -0.0000 -0.0000
vt 0.187500 0.000000
vt 0.500000 0.000000
vt 0.500000 0.625000
vt 0.187500 0.625000
vt 0.187500 0.875000
vt 0.812500 0.875000
vt 0.812500 0.937500
vt 0.187500 0.937500
vt 0.750000 0.875000
vt 0.250000 0.875000
vt 0.187500 0.812500
vt 0.812500 0.812500
vt 0.812500 0.625000
vt 0.812500 0.000000
vt 0.625000 0.687500
vt 0.375000 0.687500
vt 0.375000 0.625000
vt 0.625000 0.625000
vt 0.687500 0.750000
vt 0.312500 0.750000
vt 0.312500 0.687500
vt 0.687500 0.687500
vt 0.812500 0.687500
vt 0.500000 0.687500
vt 0.812500 0.750000
vt 0.500000 0.750000
vt 0.187500 0.687500
vt 0.187500 0.750000
vt 0.375000 0.000000
vt 0.625000 0.000000
vt 0.750000 0.812500
vt 0.250000 0.812500
s 1
usemtl m_f2fc5e6a-df7e-b2ac-c266-afe51098c5f3
f 27/42/9 38/43/9 37/44/9
f 27/42/9 37/44/9 25/45/9
f 27/46/10 25/47/10 29/48/10
f 27/46/10 29/48/10 31/49/10
f 30/49/11 26/46/11 28/47/11
f 30/49/11 28/47/11 32/48/11
f 33/50/10 35/51/10 31/52/10
f 33/50/10 31/52/10 29/53/10
f 36/50/11 34/51/11 30/52/11
f 36/50/11 30/52/11 32/53/11
f 26/54/9 39/44/9 40/43/9
f 26/54/9 40/43/9 28/55/9
f 45/56/12 47/57/12 40/58/12
f 45/56/12 40/58/12 38/59/12
f 46/60/13 48/61/13 47/62/13
f 46/60/13 47/62/13 45/63/13
f 30/64/14 41/65/14 39/44/14
f 30/64/14 39/44/14 26/54/14
f 34/66/15 42/67/15 41/65/15
f 34/66/15 41/65/15 30/64/15
f 41/56/14 43/57/14 37/58/14
f 41/56/14 37/58/14 39/59/14
f 42/60/15 44/61/15 43/62/15
f 42/60/15 43/62/15 41/63/15
f 25/45/14 37/44/14 43/65/14
f 25/45/14 43/65/14 29/68/14
f 29/68/15 43/65/15 44/67/15
f 29/68/15 44/67/15 33/69/15
f 38/70/9 40/71/9 39/59/9
f 38/70/9 39/59/9 37/58/9
f 31/64/12 45/65/12 38/44/12
f 31/64/12 38/44/12 27/54/12
f 35/66/13 46/67/13 45/65/13
f 35/66/13 45/65/13 31/64/13
f 28/45/12 40/44/12 47/65/12
f 28/45/12 47/65/12 32/68/12
f 32/68/13 47/65/13 48/67/13
f 32/68/13 48/67/13 36/69/13
f 33/72/16 34/50/16 36/51/16
f 33/72/16 36/51/16 35/73/16
o FluoroSingle
v 0.125000 0.312500 0.375000
v 0.125000 0.312500 -0.375000
v 0.125000 -0.312500 0.375000
v 0.125000 -0.312500 -0.375000
v 0.062500 0.312500 0.375000
v 0.062500 0.312500 -0.375000
v 0.062500 -0.312500 0.375000
v 0.062500 -0.312500 -0.375000
v 0.000000 0.250000 0.375000
v 0.000000 0.250000 -0.375000
v 0.000000 -0.250000 0.375000
v 0.000000 -0.250000 -0.375000
v 0.125000 0.312500 0.187500
v 0.125000 -0.312500 0.187500
v 0.125000 0.312500 -0.187500
v 0.125000 -0.312500 -0.187500
v 0.062500 0.312500 -0.187500
v 0.000000 0.250000 -0.187500
v 0.062500 0.312500 0.187500
v 0.000000 0.250000 0.187500
v 0.062500 -0.312500 0.187500
v 0.000000 -0.250000 0.187500
v 0.062500 -0.312500 -0.187500
v 0.000000 -0.250000 -0.187500
vn 1.0000 -0.0000 -0.0000
vn -0.0000 -0.0000 1.0000
vn -0.0000 -0.0000 -1.0000
vn -0.0000 -1.0000 -0.0000
vn -0.7071 -0.7071 -0.0000
vn -0.0000 1.0000 -0.0000
vn -0.7071 0.7071 -0.0000
vn -1.0000 -0.0000 -0.0000
vt 0.000000 0.000000
vt 0.187500 0.000000
vt 0.187500 0.625000
vt 0.000000 0.625000
vt 0.187500 0.750000
vt 0.812500 0.750000
vt 0.812500 0.812500
vt 0.187500 0.812500
vt 0.750000 0.875000
vt 0.250000 0.875000
vt 1.000000 0.625000
vt 0.812500 0.625000
vt 0.812500 0.000000
vt 1.000000 0.000000
vt 0.687500 0.687500
vt 0.312500 0.687500
vt 0.312500 0.625000
vt 0.687500 0.625000
vt 0.687500 0.750000
vt 0.312500 0.750000
vt 1.000000 0.687500
vt 0.812500 0.687500
vt 1.000000 0.750000
vt 0.187500 0.687500
vt 0.000000 0.687500
vt 0.000000 0.750000
vt 0.312500 0.000000
vt 0.687500 0.000000
vt 0.750000 0.812500
vt 0.250000 0.812500
s 1
usemtl m_f2fc5e6a-df7e-b2ac-c266-afe51098c5f3
f 51/74/17 62/75/17 61/76/17
f 51/74/17 61/76/17 49/77/17
f 51/78/18 49/79/18 53/80/18
f 51/78/18 53/80/18 55/81/18
f 54/81/19 50/78/19 52/79/19
f 54/81/19 52/79/19 56/80/19
f 57/82/18 59/83/18 55/81/18
f 57/82/18 55/81/18 53/80/18
f 60/82/19 58/83/19 54/81/19
f 60/82/19 54/81/19 56/80/19
f 50/84/17 63/85/17 64/86/17
f 50/84/17 64/86/17 52/87/17
f 69/88/20 71/89/20 64/90/20
f 69/88/20 64/90/20 62/91/20
f 70/92/21 72/93/21 71/89/21
f 70/92/21 71/89/21 69/88/21
f 54/94/22 65/95/22 63/85/22
f 54/94/22 63/85/22 50/84/22
f 58/96/23 66/79/23 65/95/23
f 58/96/23 65/95/23 54/94/23
f 65/88/22 67/89/22 61/90/22
f 65/88/22 61/90/22 63/91/22
f 66/92/23 68/93/23 67/89/23
f 66/92/23 67/89/23 65/88/23
f 49/77/22 61/76/22 67/97/22
f 49/77/22 67/97/22 53/98/22
f 53/98/23 67/97/23 68/78/23
f 53/98/23 68/78/23 57/99/23
f 62/100/17 64/101/17 63/91/17
f 62/100/17 63/91/17 61/90/17
f 55/94/20 69/95/20 62/85/20
f 55/94/20 62/85/20 51/84/20
f 59/96/21 70/79/21 69/95/21
f 59/96/21 69/95/21 55/94/21
f 52/77/20 64/76/20 71/97/20
f 52/77/20 71/97/20 56/98/20
f 56/98/21 71/97/21 72/78/21
f 56/98/21 72/78/21 60/99/21
f 57/102/24 58/82/24 60/83/24
f 57/102/24 60/83/24 59/103/24
