# Blender 4.0.1
# www.blender.org
o algae_film
v 0.500000 1.000000 0.312500
v 0.500000 1.000000 -0.312500
v 0.500000 0.000000 0.312500
v 0.500000 -0.000000 -0.312500
v 0.500000 0.750000 0.250000
v 0.500000 0.750000 -0.250000
v 0.500000 0.250000 0.250000
v 0.500000 0.250000 -0.250000
v 0.437500 0.687500 0.187500
v 0.437500 0.687500 -0.187500
v 0.437500 0.312500 0.187500
v 0.437500 0.312500 -0.187500
v 0.375000 0.875000 0.312500
v 0.375000 0.125000 0.312500
v 0.375000 0.875000 -0.312500
v 0.375000 0.125000 -0.312500
v 0.259615 0.759615 0.437500
v 0.259615 0.240385 0.437500
v 0.250000 0.750000 -0.437500
v 0.250000 0.250000 -0.437500
v 0.500000 0.687500 -0.187500
v 0.500000 0.312500 -0.187500
v 0.500000 0.687500 0.187500
v 0.500000 0.312500 0.187500
v -0.500000 1.000000 0.312500
v -0.500000 1.000000 -0.312500
v -0.500000 0.000000 0.312500
v -0.500000 -0.000000 -0.312500
v -0.500000 0.750000 0.250000
v -0.500000 0.750000 -0.250000
v -0.500000 0.250000 0.250000
v -0.500000 0.250000 -0.250000
v -0.437500 0.687500 0.187500
v -0.437500 0.687500 -0.187500
v -0.437500 0.312500 0.187500
v -0.437500 0.312500 -0.187500
v -0.375000 0.875000 0.312500
v -0.375000 0.125000 0.312500
v -0.375000 0.875000 -0.312500
v -0.375000 0.125000 -0.312500
v -0.259615 0.759615 0.437500
v -0.259615 0.240385 0.437500
v -0.250000 0.750000 -0.437500
v -0.250000 0.250000 -0.437500
v -0.500000 0.687500 -0.187500
v -0.500000 0.312500 -0.187500
v -0.500000 0.687500 0.187500
v -0.500000 0.312500 0.187500
vn -0.0000 1.0000 -0.0000
vn -0.0000 -1.0000 -0.0000
vn -0.0000 -0.0000 1.0000
vn -0.0000 -0.0000 -1.0000
vn -0.0000 0.7348 0.6783
vn -0.0000 -0.7348 0.6783
vn -0.0000 0.7071 -0.7071
vn -0.0000 -0.7071 -0.7071
vn 1.0000 -0.0000 -0.0000
vn 0.7071 -0.0000 -0.7071
vn 0.7071 -0.7071 -0.0000
vn 0.7071 -0.0000 0.7071
vn 0.7071 0.7071 -0.0000
vn 0.7348 -0.0000 0.6783
vn -1.0000 -0.0000 -0.0000
vn -0.7071 -0.0000 -0.7071
vn -0.7071 -0.7071 -0.0000
vn -0.7071 -0.0000 0.7071
vn -0.7071 0.7071 -0.0000
vn -0.7348 -0.0000 0.6783
vt 1.000000 0.000000
vt 0.384615 0.384615
vt 0.384615 0.000000
vt 1.000000 0.384615
vt 0.846154 0.846154
vt 0.538462 0.538462
vt 0.846154 0.538462
vt 0.538462 0.846154
vt 0.923077 0.923077
vt 0.384615 1.000000
vt 0.461538 0.923077
vt 0.461538 0.461538
vt 0.923077 0.461538
vt 0.346154 0.538462
vt 0.346154 0.846154
vt 0.000000 1.000000
vt 0.038462 0.846154
vt 0.000000 0.384615
vt 0.038462 0.538462
vt 0.307692 0.576923
vt 0.307692 0.807692
vt 0.076923 0.807692
vt 0.076923 0.576923
vt 1.000000 1.000000
vt 0.307692 0.769231
vt 0.076923 0.769231
vt 0.115385 0.807692
vt 0.076923 0.615385
vt 0.307692 0.615385
vt 0.269231 0.576923
vt 0.115385 0.576923
vt 0.269231 0.807692
s 0
f 1/1/1 26/2/1 25/3/1
f 3/4/2 28/3/2 4/1/2
f 17/5/3 42/6/3 18/7/3
f 19/8/4 44/7/4 43/5/4
f 13/9/3 25/10/3 37/11/3
f 38/12/3 3/4/3 14/13/3
f 39/9/4 2/10/4 15/11/4
f 16/12/4 28/4/4 40/13/4
f 17/5/5 37/11/5 41/8/5
f 42/6/6 14/13/6 18/7/6
f 43/5/7 15/11/7 19/8/7
f 20/6/8 40/13/8 44/7/8
f 7/14/9 1/10/9 3/2/9
f 5/15/9 2/16/9 1/10/9
f 6/17/9 4/18/9 2/16/9
f 8/19/9 3/2/9 4/18/9
f 11/20/10 5/15/10 7/21/10
f 9/21/11 6/17/11 5/22/11
f 10/22/12 8/19/12 6/17/12
f 12/23/13 7/14/13 8/19/13
f 14/13/3 1/24/3 13/9/3
f 16/12/4 2/10/4 4/2/4
f 17/5/14 14/13/14 13/9/14
f 20/6/10 15/11/10 16/12/10
f 21/22/9 24/20/9 22/23/9
f 23/22/1 10/25/1 9/26/1
f 21/27/4 12/23/4 10/22/4
f 22/20/2 11/28/2 12/29/2
f 24/30/3 9/21/3 11/20/3
f 31/14/15 25/10/15 29/15/15
f 29/15/15 26/16/15 30/17/15
f 30/17/15 28/18/15 32/19/15
f 32/19/15 27/2/15 31/14/15
f 35/20/16 29/15/16 33/14/16
f 33/21/17 30/17/17 34/15/17
f 34/22/18 32/19/18 36/23/18
f 36/23/19 31/14/19 35/20/19
f 38/12/3 25/10/3 27/2/3
f 40/13/4 26/24/4 39/9/4
f 41/8/20 38/12/20 42/6/20
f 44/7/16 39/9/16 43/5/16
f 45/22/15 48/20/15 47/21/15
f 47/22/1 34/25/1 45/21/1
f 45/27/4 36/23/4 46/31/4
f 46/20/2 35/28/2 48/23/2
f 48/30/3 33/21/3 47/32/3
f 1/1/1 2/4/1 26/2/1
f 3/4/2 27/2/2 28/3/2
f 17/5/3 41/8/3 42/6/3
f 19/8/4 20/6/4 44/7/4
f 13/9/3 1/24/3 25/10/3
f 38/12/3 27/2/3 3/4/3
f 39/9/4 26/24/4 2/10/4
f 16/12/4 4/2/4 28/4/4
f 17/5/5 13/9/5 37/11/5
f 42/6/6 38/12/6 14/13/6
f 43/5/7 39/9/7 15/11/7
f 20/6/8 16/12/8 40/13/8
f 7/14/9 5/15/9 1/10/9
f 5/15/9 6/17/9 2/16/9
f 6/17/9 8/19/9 4/18/9
f 8/19/9 7/14/9 3/2/9
f 11/20/10 9/14/10 5/15/10
f 9/21/11 10/15/11 6/17/11
f 10/22/12 12/23/12 8/19/12
f 12/23/13 11/20/13 7/14/13
f 14/13/3 3/4/3 1/24/3
f 16/12/4 15/11/4 2/10/4
f 17/5/14 18/7/14 14/13/14
f 20/6/10 19/8/10 15/11/10
f 21/22/9 23/21/9 24/20/9
f 23/22/1 21/21/1 10/25/1
f 21/27/4 22/31/4 12/23/4
f 22/20/2 24/23/2 11/28/2
f 24/30/3 23/32/3 9/21/3
f 31/14/15 27/2/15 25/10/15
f 29/15/15 25/10/15 26/16/15
f 30/17/15 26/16/15 28/18/15
f 32/19/15 28/18/15 27/2/15
f 35/20/16 31/21/16 29/15/16
f 33/21/17 29/22/17 30/17/17
f 34/22/18 30/17/18 32/19/18
f 36/23/19 32/19/19 31/14/19
f 38/12/3 37/11/3 25/10/3
f 40/13/4 28/4/4 26/24/4
f 41/8/20 37/11/20 38/12/20
f 44/7/16 40/13/16 39/9/16
f 45/22/15 46/23/15 48/20/15
f 47/22/1 33/26/1 34/25/1
f 45/27/4 34/22/4 36/23/4
f 46/20/2 36/29/2 35/28/2
f 48/30/3 35/20/3 33/21/3
