# Blender v2.90.1 OBJ File: ''
# www.blender.org
mtllib barbed_wire.mtl
o cube.039
v 0.500000 0.312500 -0.437469
v -0.500000 0.687500 -0.437469
v -0.500000 0.312500 -0.437469
v 0.500000 0.687500 -0.437469
v -0.500000 0.062531 -0.187500
v -0.500000 0.062531 0.187500
v 0.500000 0.062531 -0.187500
v 0.500000 0.062531 0.187500
v -0.500000 0.937531 -0.187500
v 0.500000 0.937531 -0.187500
v -0.500000 0.937531 0.187500
v 0.500000 0.937531 0.187500
v 0.500000 0.941964 0.176799
v -0.500000 0.941964 0.176799
v 0.500000 0.676777 0.441942
v -0.500000 0.676777 0.441942
v -0.281250 0.687500 0.500000
v -0.281250 0.687500 0.375000
v -0.218750 0.312500 0.500000
v -0.218750 0.312500 0.375000
v -0.031250 0.687500 0.500000
v -0.031250 0.687500 0.375000
v 0.031250 0.312500 0.500000
v 0.031250 0.312500 0.375000
v 0.468750 0.687500 0.500000
v 0.468750 0.687500 0.375000
v 0.531250 0.312500 0.500000
v 0.500000 0.500000 0.437500
v 0.531250 0.312500 0.375000
v 0.218750 0.687500 0.500000
v 0.218750 0.687500 0.375000
v 0.281250 0.312500 0.500000
v 0.281250 0.312500 0.375000
v 0.281250 0.687500 -0.375000
v 0.281250 0.687500 -0.500000
v 0.218750 0.312500 -0.375000
v 0.218750 0.312500 -0.500000
v -0.218750 0.687500 -0.375000
v -0.218750 0.687500 -0.500000
v -0.281250 0.312500 -0.375000
v -0.281250 0.312500 -0.500000
v 0.031250 0.687500 -0.375000
v 0.031250 0.687500 -0.500000
v -0.031281 0.312500 -0.375000
v -0.031250 0.312500 -0.500000
v 0.531250 0.687500 -0.375000
v 0.531250 0.687500 -0.500000
v 0.468750 0.312500 -0.375000
v 0.468750 0.312500 -0.500000
v -0.406250 0.125000 0.187500
v -0.343719 0.125000 -0.187500
v -0.406250 -0.000000 0.187500
v -0.343719 0.000000 -0.187500
v -0.156250 0.125000 0.187500
v -0.093719 0.125000 -0.187500
v -0.156250 -0.000000 0.187500
v -0.093719 0.000000 -0.187500
v 0.031250 0.720971 -0.486136
v 0.093750 0.897748 -0.132583
v 0.031250 0.632583 -0.397748
v 0.093750 0.986136 -0.220971
v 0.343750 0.125000 0.187500
v 0.406281 0.125000 -0.187500
v 0.343750 -0.000000 0.187500
v 0.406281 0.000000 -0.187500
v 0.218750 0.279029 -0.486136
v 0.156281 0.102252 -0.132583
v 0.156281 0.013864 -0.220971
v 0.218750 0.367418 -0.397748
v 0.093750 0.102252 0.132583
v 0.031250 0.279029 0.486136
v 0.093750 0.013864 0.220971
v 0.031250 0.367417 0.397748
v 0.093750 0.125000 0.187500
v 0.156281 0.125000 -0.187500
v 0.093750 -0.000000 0.187500
v 0.156281 0.000000 -0.187500
v -0.031250 0.279029 -0.486136
v -0.093719 0.102252 -0.132583
v -0.093719 0.013864 -0.220971
v -0.031250 0.367418 -0.397748
v -0.156250 0.102252 0.132583
v -0.218750 0.279029 0.486136
v -0.156250 0.013864 0.220971
v -0.218750 0.367417 0.397748
v 0.156281 1.000000 0.187500
v 0.093750 1.000000 -0.187500
v 0.156281 0.875000 0.187500
v 0.093750 0.875000 -0.187500
v -0.218750 0.720971 -0.486136
v -0.156250 0.897748 -0.132583
v -0.218750 0.632583 -0.397748
v -0.156250 0.986136 -0.220971
v 0.406281 0.897748 0.132583
v 0.468750 0.720971 0.486136
v 0.468750 0.632582 0.397748
v 0.406281 0.986136 0.220971
v -0.343719 1.000000 0.187500
v -0.406250 1.000000 -0.187500
v -0.343719 0.875000 0.187500
v -0.406250 0.875000 -0.187500
v 0.343750 0.102252 0.132583
v 0.281250 0.279029 0.486136
v 0.343750 0.013864 0.220971
v 0.281250 0.367417 0.397748
v 0.468750 0.279029 -0.486136
v 0.406281 0.102252 -0.132583
v 0.406281 0.013864 -0.220971
v 0.468750 0.367418 -0.397748
v -0.093719 1.000000 0.187500
v -0.156250 1.000000 -0.187500
v -0.093719 0.875000 0.187500
v -0.156250 0.875000 -0.187500
v 0.281250 0.720971 -0.486136
v 0.343750 0.897748 -0.132583
v 0.281250 0.632583 -0.397748
v 0.343750 0.986136 -0.220971
v 0.156281 0.897748 0.132583
v 0.218750 0.720971 0.486136
v 0.218750 0.632582 0.397748
v 0.156281 0.986136 0.220971
v 0.406281 1.000000 0.187500
v 0.343750 1.000000 -0.187500
v 0.406281 0.875000 0.187500
v 0.343750 0.875000 -0.187500
v -0.093719 0.897748 0.132583
v -0.031250 0.720971 0.486136
v -0.031250 0.632582 0.397748
v -0.093719 0.986136 0.220971
v -0.468750 0.720971 -0.486136
v -0.406250 0.897748 -0.132583
v -0.468750 0.632583 -0.397748
v -0.406250 0.986136 -0.220971
v -0.468750 0.279029 0.486136
v -0.468750 0.367417 0.397748
v -0.406250 0.013864 0.220971
v -0.406250 0.102252 0.132583
v -0.281250 0.279029 -0.486136
v -0.343719 0.102252 -0.132583
v -0.343719 0.013864 -0.220971
v -0.281250 0.367418 -0.397748
v -0.343719 0.897748 0.132583
v -0.281250 0.720971 0.486136
v -0.281250 0.632582 0.397748
v -0.343719 0.986136 0.220971
v 0.500000 0.058036 0.176799
v -0.500000 0.323201 0.441964
v -0.500000 0.058036 0.176799
v 0.500000 0.323201 0.441964
v 0.500000 0.676755 -0.441920
v -0.500000 0.941920 -0.176755
v -0.500000 0.676755 -0.441920
v 0.500000 0.941920 -0.176755
v 0.500000 0.058080 -0.176755
v -0.500000 0.323245 -0.441920
v -0.500000 0.058080 -0.176755
v 0.500000 0.323245 -0.441920
v 0.500000 0.312500 0.437531
v -0.500000 0.687500 0.437531
v -0.500000 0.312500 0.437531
v 0.500000 0.687500 0.437562
vt 0.437500 0.812500
vt 0.937500 1.000000
vt 0.437500 1.000000
vt 0.187988 0.374512
vt 0.687012 0.187500
vt 0.687012 0.374512
vt 0.406250 0.562500
vt 0.906250 0.375000
vt 0.406250 0.375000
vt 0.968750 0.812500
vt 0.468750 1.000000
vt 0.468750 0.812500
vt 0.249512 0.625488
vt 0.249512 0.812012
vt 0.187500 0.812500
vt 0.531250 0.812500
vt 0.031250 1.000000
vt 0.031250 0.812500
vt 0.249512 0.625488
vt 0.187500 0.812500
vt 0.187988 0.625488
vt 0.125488 0.625488
vt 0.187012 0.625488
vt 0.187500 0.812500
vt 0.187012 0.625488
vt 0.125488 0.812012
vt 0.125488 0.625488
vt 0.249512 0.625488
vt 0.187500 0.812500
vt 0.187988 0.625488
vt 0.500000 0.562988
vt 0.500000 0.624512
vt 0.312500 0.624512
vt 0.187012 0.625488
vt 0.125488 0.812012
vt 0.125488 0.625488
vt 0.187012 0.625488
vt 0.125488 0.812012
vt 0.125488 0.625488
vt 0.187500 0.812500
vt 0.218750 0.718750
vt 0.249512 0.812012
vt 0.249512 0.625488
vt 0.187500 0.812500
vt 0.187988 0.625488
vt 0.249512 0.625488
vt 0.187988 0.625488
vt 0.125488 0.624512
vt 0.125488 0.562988
vt 0.312500 0.562988
vt 0.187012 0.625488
vt 0.125488 0.812012
vt 0.125488 0.625488
vt 0.249512 0.625488
vt 0.187500 0.812500
vt 0.187988 0.625488
vt 0.562500 0.812500
vt 0.562500 1.000000
vt 0.062500 1.000000
vt 0.125488 0.812012
vt 0.125488 0.625488
vt 0.187012 0.625488
vt 0.187012 0.625488
vt 0.125488 0.812012
vt 0.125488 0.625488
vt 0.249512 0.625488
vt 0.187500 0.812500
vt 0.187988 0.625488
vt 0.125488 0.625488
vt 0.187012 0.625488
vt 0.187500 0.812500
vt 0.187012 0.625488
vt 0.125488 0.812012
vt 0.125488 0.625488
vt 0.468750 0.812500
vt 0.968750 1.000000
vt 0.468750 1.000000
vt 0.187012 0.625488
vt 0.125488 0.812012
vt 0.125488 0.625488
vt 0.937500 0.812500
vt 0.187988 0.187500
vt 0.187012 0.625488
vt 0.125488 0.812012
vt 0.125488 0.625488
vt 0.500000 0.562988
vt 0.312500 0.624512
vt 0.312500 0.562988
vt 0.500000 0.562988
vt 0.500000 0.624512
vt 0.312500 0.624512
vt 0.125488 0.624512
vt 0.125488 0.562988
vt 0.500000 0.562988
vt 0.312500 0.624512
vt 0.312500 0.562988
vt 0.312500 0.562988
vt 0.500000 0.562988
vt 0.500000 0.624512
vt 0.125488 0.812012
vt 0.125488 0.625488
vt 0.187012 0.625488
vt 0.125488 0.624512
vt 0.125488 0.562988
vt 0.406250 0.812500
vt 0.906250 1.000000
vt 0.406250 1.000000
vt 0.125488 0.625488
vt 0.187012 0.625488
vt 0.187500 0.812500
vt 0.312500 0.562988
vt 0.125488 0.624512
vt 0.125488 0.812012
vt 0.187012 0.625488
vt 0.187500 0.812500
vt 0.187988 0.625488
vt 0.249512 0.625488
vt 0.249512 0.812012
vt 0.312500 0.562988
vt 0.125488 0.624512
vt 0.125488 0.562988
vt 0.500000 0.562988
vt 0.312500 0.624512
vt 0.312500 0.562988
vt 0.312500 0.562988
vt 0.500000 0.562988
vt 0.500000 0.624512
vt 0.187988 0.625488
vt 0.249512 0.625488
vt 0.249512 0.812012
vt 0.312500 0.562988
vt 0.500000 0.624512
vt 0.312500 0.624512
vt 0.187500 0.812500
vt 0.187988 0.625488
vt 0.249512 0.812012
vt 0.187500 0.812500
vt 0.312500 0.562988
vt 0.500000 0.562988
vt 0.500000 0.624512
vt 0.249512 0.625488
vt 0.187500 0.812500
vt 0.187988 0.625488
vt 0.312500 0.562988
vt 0.125488 0.624512
vt 0.125488 0.562988
vt 0.312500 0.562988
vt 0.125488 0.624512
vt 0.125488 0.562988
vt 0.312500 0.562988
vt 0.500000 0.562988
vt 0.500000 0.624512
vt 0.312500 0.624512
vt 0.249512 0.812012
vt 0.968750 0.812500
vt 0.593750 0.843750
vt 0.093750 1.000000
vt 0.093750 0.843750
vt 0.125488 0.624512
vt 0.125488 0.562988
vt 0.500000 0.562988
vt 0.312500 0.624512
vt 0.187988 0.625488
vt 0.249512 0.812012
vt 0.906250 0.812500
vt 0.125488 0.625488
vt 0.312500 0.624512
vt 0.249512 0.812012
vt 0.500000 0.562988
vt 0.312500 0.624512
vt 0.312500 0.562988
vt 0.249512 0.625488
vt 0.187500 0.812500
vt 0.187988 0.625488
vt 0.593750 1.000000
vt 0.249512 0.812012
vt 0.312500 0.624512
vt 0.531250 1.000000
vt 0.312500 0.562988
vt 0.500000 0.624512
vt 0.312500 0.624512
vt 0.125488 0.624512
vt 0.125488 0.562988
vt 0.125488 0.562988
vt 0.249512 0.812012
vt 0.500000 0.624512
vt 0.125488 0.812012
vt 0.187500 0.812500
vt 0.500000 0.624512
vt 0.312500 0.624512
vt 0.249512 0.812012
vt 0.249512 0.812012
vt 0.500000 0.562988
vt 0.312500 0.624512
vt 0.500000 0.624512
vt 0.249512 0.625488
vt 0.312500 0.562988
vt 0.500000 0.624512
vt 0.312500 0.624512
vt 0.500000 0.624512
vt 0.125488 0.812012
vt 0.249512 0.625488
vt 0.062500 0.812500
vt 0.968750 1.000000
vt 0.312500 0.624512
vt 0.249512 0.812012
vt 0.500000 0.562988
vt 0.500000 0.562988
vt 0.125488 0.812012
vt 0.500000 0.624512
vt 0.187988 0.625488
vt 0.500000 0.624512
vt 0.500000 0.562988
vt 0.906250 0.562500
vn 0.0000 -0.0000 1.0000
vn 0.0000 1.0000 0.0000
vn 0.0000 -1.0000 -0.0000
vn 0.0000 0.7074 0.7068
vn -0.9864 0.1644 0.0000
vn 0.0000 -0.7070 -0.7072
vn -0.9864 -0.1644 0.0000
vn 0.9864 -0.1162 -0.1162
vn 0.9864 0.1644 0.0000
vn -0.9864 0.0000 -0.1645
vn 0.9864 -0.1162 0.1162
vn 0.0000 0.0000 -1.0000
vn 0.0000 0.0001 -1.0000
vn 0.9864 0.1162 0.1162
vn 0.9864 -0.1644 0.0000
vn 0.0000 0.7071 0.7071
vn 0.9864 -0.1645 0.0002
vn 0.9864 -0.1646 -0.0004
vn -0.9864 -0.0000 0.1645
vn 0.9864 -0.0000 0.1645
vn -0.9864 -0.1162 0.1162
vn 0.0000 -0.7071 0.7071
vn 0.9864 0.0000 -0.1645
vn -0.9864 0.1162 0.1162
vn -0.9864 0.1162 -0.1162
vn -0.9864 -0.1162 -0.1162
vn 0.0000 0.7071 -0.7071
usemtl Default_OBJ
s 1
f 3/1/1 4/2/1 2/3/1
f 8/4/2 5/5/2 6/6/2
f 9/7/3 12/8/3 11/9/3
f 15/10/4 14/11/4 16/12/4
f 48/13/5 46/14/5 47/15/5
f 16/16/6 13/17/6 15/18/6
f 19/19/7 18/20/7 20/21/7
f 132/22/8 130/23/8 133/24/8
f 20/25/9 17/26/9 19/27/9
f 23/28/7 22/29/7 24/30/7
f 64/31/10 62/32/10 63/33/10
f 24/34/9 21/35/9 23/36/9
f 29/37/9 25/38/9 27/39/9
f 26/40/7 28/41/7 25/42/7
f 32/43/7 31/44/7 33/45/7
f 27/46/7 28/41/7 29/47/7
f 67/48/11 68/49/11 66/50/11
f 33/51/9 30/52/9 32/53/9
f 36/54/5 35/55/5 37/56/5
f 160/57/12 159/58/12 161/59/13
f 83/60/14 84/61/14 82/62/14
f 37/63/15 34/64/15 36/65/15
f 40/66/5 39/67/5 41/68/5
f 104/69/14 102/70/14 105/71/14
f 41/72/15 38/73/15 40/74/15
f 156/75/16 157/76/16 155/77/16
f 45/78/17 42/79/18 44/80/17
f 3/1/1 1/81/1 4/2/1
f 8/4/2 7/82/2 5/5/2
f 49/83/15 46/84/15 48/85/15
f 52/86/10 51/87/10 53/88/10
f 88/89/19 86/90/19 87/91/19
f 53/88/20 50/92/20 52/93/20
f 56/94/10 55/95/10 57/96/10
f 142/97/21 144/98/21 143/99/21
f 59/100/8 60/101/8 58/102/8
f 57/96/20 54/103/20 56/104/20
f 148/105/22 149/106/22 147/107/22
f 116/108/8 114/109/8 117/110/8
f 89/111/23 87/91/23 86/112/23
f 91/113/8 90/114/8 93/115/8
f 130/116/24 132/117/24 131/118/24
f 130/116/24 131/118/24 133/24/24
f 53/88/20 51/87/20 50/92/20
f 65/119/20 62/120/20 64/121/20
f 100/122/19 99/123/19 101/124/19
f 138/125/25 140/126/25 139/127/25
f 102/128/26 104/129/26 103/130/26
f 78/131/25 79/132/25 81/133/25
f 20/25/9 18/20/9 17/26/9
f 45/78/17 43/134/15 42/79/18
f 137/135/26 134/136/26 135/137/26
f 106/138/25 108/139/25 107/140/25
f 72/141/26 73/142/26 70/143/26
f 77/144/20 74/145/20 76/146/20
f 125/147/23 122/148/23 124/149/23
f 126/150/21 128/151/21 127/152/21
f 106/138/25 107/140/25 109/153/25
f 19/19/7 17/154/7 18/20/7
f 156/75/16 154/155/16 157/76/16
f 152/156/27 153/157/27 150/158/27
f 101/124/23 98/159/23 100/160/23
f 76/161/10 75/162/10 77/144/10
f 101/124/23 99/123/23 98/159/23
f 114/163/24 115/164/24 117/110/24
f 148/105/22 146/165/22 149/106/22
f 91/113/8 92/166/8 90/114/8
f 126/150/21 127/152/21 129/167/21
f 40/66/5 38/168/5 39/67/5
f 29/37/9 26/40/9 25/38/9
f 112/169/19 111/170/19 113/171/19
f 84/172/26 85/173/26 82/174/26
f 152/156/27 151/175/27 153/157/27
f 72/141/26 71/176/26 73/142/26
f 102/128/26 103/130/26 105/71/26
f 77/144/20 75/162/20 74/145/20
f 138/125/25 139/127/25 141/177/25
f 16/16/6 14/178/6 13/17/6
f 94/179/21 95/180/21 97/181/21
f 41/72/15 39/67/15 38/73/15
f 113/171/23 110/182/23 112/183/23
f 89/111/23 86/112/23 88/184/23
f 84/172/26 83/185/26 85/173/26
f 112/169/19 110/186/19 111/170/19
f 116/108/8 117/110/8 115/187/8
f 57/96/20 55/95/20 54/103/20
f 59/100/8 58/102/8 61/188/8
f 56/94/10 54/189/10 55/95/10
f 142/97/21 143/99/21 145/190/21
f 36/54/5 34/191/5 35/55/5
f 32/43/7 30/192/7 31/44/7
f 88/89/19 87/91/19 89/111/19
f 124/193/19 123/194/19 125/147/19
f 76/161/10 74/195/10 75/162/10
f 114/163/24 116/196/24 115/164/24
f 118/197/21 119/198/21 121/199/21
f 37/63/15 35/55/15 34/64/15
f 24/34/9 22/29/9 21/35/9
f 52/86/10 50/200/10 51/87/10
f 65/119/20 63/33/20 62/120/20
f 104/69/14 105/71/14 103/201/14
f 83/60/14 82/62/14 85/173/14
f 125/147/23 123/194/23 122/148/23
f 137/135/26 136/202/26 134/136/26
f 160/57/12 161/59/13 158/203/13
f 15/10/4 13/204/4 14/11/4
f 67/48/11 66/50/11 69/205/11
f 49/83/15 47/15/15 46/84/15
f 33/51/9 31/44/9 30/52/9
f 23/28/7 21/206/7 22/29/7
f 64/31/10 63/33/10 65/119/10
f 94/179/21 96/207/21 95/180/21
f 113/171/23 111/170/23 110/182/23
f 78/131/25 80/208/25 79/132/25
f 132/22/8 133/24/8 131/209/8
f 100/122/19 98/210/19 99/123/19
f 48/13/5 47/15/5 49/211/5
f 124/193/19 122/212/19 123/194/19
f 118/197/21 120/213/21 119/198/21
f 9/7/3 10/214/3 12/8/3
f 26/40/7 29/47/7 28/41/7
f 27/46/7 25/42/7 28/41/7
