# Blender v2.76 (sub 0) OBJ File: 'barrel.blend'
# www.blender.org
o Cube_Cube.001
v -0.375000 0.000000 0.375000
v -0.375000 1.000000 0.375000
v -0.375000 0.000000 -0.375000
v -0.375000 1.000000 -0.375000
v 0.375000 0.000000 0.375000
v 0.375000 1.000000 0.375000
v 0.375000 0.000000 -0.375000
v 0.375000 1.000000 -0.375000
vt 0.000000 0.750000
vt 0.000000 0.416667
vt 0.250000 0.416667
vt 0.750000 0.750000
vt 0.750000 0.416667
vt 1.000000 0.416667
vt 0.500000 0.750000
vt 0.500000 0.416667
vt 0.250000 0.750000
vt 0.750000 1.000000
vt 0.500000 1.000000
vt 0.250000 1.000000
vt 1.000000 0.750000
vn -1.000000 0.000000 0.000000
vn 0.000000 0.000000 -1.000000
vn 1.000000 0.000000 0.000000
vn 0.000000 0.000000 1.000000
vn 0.000000 -1.000000 0.000000
vn 0.000000 1.000000 0.000000
s off
f 4/1/1 3/2/1 1/3/1
f 8/4/2 7/5/2 3/6/2
f 6/7/3 5/8/3 7/5/3
f 2/9/4 1/3/4 5/8/4
f 3/4/5 7/10/5 5/11/5
f 8/7/6 4/11/6 2/12/6
f 2/9/1 4/1/1 1/3/1
f 4/13/2 8/4/2 3/6/2
f 8/4/3 6/7/3 7/5/3
f 6/7/4 2/9/4 5/8/4
f 1/7/5 3/4/5 5/11/5
f 6/9/6 8/7/6 2/12/6
