# Blender v2.79 (sub 0) OBJ File: 'charge_c4.blend'
# www.blender.org
o Plane
v -0.250000 -0.312500 -0.250000
v 0.250000 -0.312500 0.250000
v -0.250000 -0.312500 0.250000
v 0.250000 -0.187500 0.250000
v -0.250000 -0.187500 -0.250000
v -0.250000 -0.187500 0.250000
v 0.250000 -0.187500 -0.250000
v 0.250000 -0.312500 -0.250000
v -0.468750 -0.500000 0.468750
v 0.468750 -0.250000 -0.468750
v -0.031250 -0.500000 0.468750
v 0.468750 -0.250000 0.468750
v 0.031250 -0.250000 -0.468750
v -0.468750 -0.500000 -0.468750
v 0.031250 -0.250000 0.468750
v -0.031250 -0.500000 -0.468750
v 0.031250 -0.500000 0.468750
v -0.031250 -0.250000 -0.468750
v 0.468750 -0.500000 0.468750
v -0.468750 -0.250000 -0.468750
v -0.468750 -0.250000 0.468750
v 0.031250 -0.500000 -0.468750
v -0.031250 -0.250000 0.468750
v 0.468750 -0.500000 -0.468750
vt 0.000000 0.000000
vt 0.000000 0.000000
vt 0.000000 0.000000
vt 0.000000 0.000000
vt 0.000000 0.000000
vt 0.000000 0.000000
vt 0.000000 0.000000
vt 0.000000 0.000000
vt 0.000000 0.000000
vt 0.000000 0.000000
vt 0.000000 0.000000
vt 0.000000 0.000000
vt 0.000000 0.000000
vt 0.000000 0.000000
vt 0.000000 0.000000
vt 0.000000 0.000000
vt 0.250000 0.875000
vt 0.750000 0.375000
vt 0.750000 0.875000
vt 0.250000 0.375000
vt 0.750000 0.875000
vt 0.250000 0.875000
vt 0.750000 0.250000
vt 0.250000 0.375000
vt 0.250000 0.250000
vt 0.750000 0.250000
vt 0.250000 0.375000
vt 0.250000 0.250000
vt 0.750000 0.250000
vt 0.250000 0.250000
vt 0.750000 0.250000
vt 0.250000 0.375000
vt 0.250000 0.250000
vt 0.250000 0.375000
vt 0.750000 0.375000
vt 0.750000 0.375000
vt 0.750000 0.375000
vt 0.750000 0.375000
vn 0.0000 1.0000 0.0000
vn 0.0000 -1.0000 -0.0000
vn 0.0000 0.0000 -1.0000
vn 0.0000 -0.0000 1.0000
vn 1.0000 0.0000 0.0000
vn -1.0000 0.0000 0.0000
s off
f 23/1/1 20/2/1 21/3/1
f 12/4/1 13/5/1 15/6/1
f 22/7/2 19/8/2 17/9/2
f 14/10/2 11/11/2 9/12/2
f 22/7/3 10/13/3 24/14/3
f 23/1/4 9/12/4 11/11/4
f 24/14/5 12/4/5 19/8/5
f 20/2/3 16/15/3 14/10/3
f 21/3/6 14/10/6 9/12/6
f 18/16/5 11/11/5 16/15/5
f 19/8/4 15/6/4 17/9/4
f 17/9/6 13/5/6 22/7/6
f 23/1/1 18/16/1 20/2/1
f 12/4/1 10/13/1 13/5/1
f 22/7/2 24/14/2 19/8/2
f 14/10/2 16/15/2 11/11/2
f 22/7/3 13/5/3 10/13/3
f 23/1/4 21/3/4 9/12/4
f 24/14/5 10/13/5 12/4/5
f 20/2/3 18/16/3 16/15/3
f 21/3/6 20/2/6 14/10/6
f 18/16/5 23/1/5 11/11/5
f 19/8/4 12/4/4 15/6/4
f 17/9/6 15/6/6 13/5/6
s 1
f 1/17/2 2/18/2 3/19/2
f 4/20/1 5/21/1 6/22/1
f 1/23/3 7/24/3 8/25/3
f 2/26/4 6/27/4 3/28/4
f 8/29/5 4/20/5 2/30/5
f 3/31/6 5/32/6 1/33/6
f 1/17/2 8/34/2 2/18/2
f 4/20/1 7/35/1 5/21/1
f 1/23/3 5/36/3 7/24/3
f 2/26/4 4/37/4 6/27/4
f 8/29/5 7/35/5 4/20/5
f 3/31/6 6/38/6 5/32/6
