# Blender v2.79 (sub 0) OBJ File: 'charge_c4.blend'
# www.blender.org
o Plane
v -0.250000 -0.312500 -0.250000
v 0.250000 -0.312500 0.250000
v -0.250000 -0.312500 0.250000
v 0.250000 -0.187500 0.250000
v -0.250000 -0.187500 -0.250000
v -0.250000 -0.187500 0.250000
v 0.250000 -0.187500 -0.250000
v 0.250000 -0.312500 -0.250000
v 0.468750 -0.250000 -0.468750
v 0.468750 -0.250000 0.468750
v 0.031250 -0.250000 -0.468750
v 0.031250 -0.250000 0.468750
v 0.031250 -0.500000 0.468750
v 0.468750 -0.500000 0.468750
v 0.031250 -0.500000 -0.468750
v 0.468750 -0.500000 -0.468750
v -0.031250 -0.250000 -0.468750
v -0.031250 -0.250000 0.468750
v -0.468750 -0.250000 -0.468750
v -0.468750 -0.250000 0.468750
v -0.468750 -0.500000 0.468750
v -0.031250 -0.500000 0.468750
v -0.468750 -0.500000 -0.468750
v -0.031250 -0.500000 -0.468750
vt -0.000000 -0.000000
vt 0.937500 0.437500
vt -0.000000 0.437500
vt 0.937500 0.000000
vt -0.000000 0.437500
vt 0.000000 -0.000000
vt 0.000000 0.437500
vt 0.250000 0.875000
vt 0.000000 0.875000
vt 0.937500 0.187500
vt -0.000000 0.437500
vt -0.000000 0.187500
vt 0.250000 0.875000
vt 0.000000 0.875000
vt 0.937500 0.187500
vt -0.000000 0.437500
vt -0.000000 0.187500
vt -0.000000 -0.000000
vt 0.937500 0.437500
vt -0.000000 0.437500
vt 0.937500 0.000000
vt -0.000000 0.437500
vt 0.000000 -0.000000
vt 0.000000 0.437500
vt 0.250000 0.875000
vt 0.000000 0.875000
vt 0.937500 0.187500
vt -0.000000 0.437500
vt -0.000000 0.187500
vt 0.250000 0.875000
vt 0.000000 0.875000
vt 0.937500 0.187500
vt -0.000000 0.437500
vt -0.000000 0.187500
vt 0.937500 0.000000
vt 0.937500 0.437500
vt 0.250000 0.437500
vt 0.937500 0.437500
vt 0.250000 0.437500
vt 0.937500 0.437500
vt 0.937500 0.000000
vt 0.937500 0.437500
vt 0.250000 0.437500
vt 0.937500 0.437500
vt 0.250000 0.437500
vt 0.937500 0.437500
vt 0.375000 1.000000
vt 0.875000 0.500000
vt 0.875000 1.000000
vt 0.375000 0.500000
vt 0.875000 1.000000
vt 0.375000 1.000000
vt 1.000000 1.000000
vt 0.875000 0.500000
vt 1.000000 0.500000
vt 1.000000 1.000000
vt 0.875000 0.500000
vt 1.000000 0.500000
vt 1.000000 1.000000
vt 0.875000 0.500000
vt 1.000000 0.500000
vt 1.000000 1.000000
vt 0.875000 0.500000
vt 1.000000 0.500000
vt 0.375000 0.500000
vt 0.875000 1.000000
vt 0.875000 1.000000
vt 0.875000 1.000000
vn 0.0000 1.0000 0.0000
vn 0.0000 -1.0000 -0.0000
vn 0.0000 0.0000 -1.0000
vn 1.0000 0.0000 0.0000
vn 0.0000 -0.0000 1.0000
vn -1.0000 0.0000 0.0000
s off
f 10/1/1 11/2/1 12/3/1
f 15/4/2 14/5/2 13/6/2
f 15/7/3 9/8/3 16/9/3
f 16/10/4 10/11/4 14/12/4
f 14/5/5 12/13/5 13/14/5
f 13/15/6 11/16/6 15/17/6
f 18/18/1 19/19/1 20/20/1
f 23/21/2 22/22/2 21/23/2
f 23/24/3 17/25/3 24/26/3
f 24/27/4 18/28/4 22/29/4
f 22/22/5 20/30/5 21/31/5
f 21/32/6 19/33/6 23/34/6
f 10/1/1 9/35/1 11/2/1
f 15/4/2 16/36/2 14/5/2
f 15/7/3 11/37/3 9/8/3
f 16/10/4 9/38/4 10/11/4
f 14/5/5 10/39/5 12/13/5
f 13/15/6 12/40/6 11/16/6
f 18/18/1 17/41/1 19/19/1
f 23/21/2 24/42/2 22/22/2
f 23/24/3 19/43/3 17/25/3
f 24/27/4 17/44/4 18/28/4
f 22/22/5 18/45/5 20/30/5
f 21/32/6 20/46/6 19/33/6
s 1
f 1/47/2 2/48/2 3/49/2
f 4/50/1 5/51/1 6/52/1
f 1/53/3 7/54/3 8/55/3
f 2/56/5 6/57/5 3/58/5
f 8/59/4 4/60/4 2/61/4
f 3/62/6 5/63/6 1/64/6
f 1/47/2 8/65/2 2/48/2
f 4/50/1 7/54/1 5/51/1
f 1/53/3 5/51/3 7/54/3
f 2/56/5 4/66/5 6/57/5
f 8/59/4 7/67/4 4/60/4
f 3/62/6 6/68/6 5/63/6
