# Blender 4.4.3
# www.blender.org
mtllib concretewall.mtl
o ConcreteWall
v -0.250000 1.000000 -0.500000
v -0.250000 0.000000 -0.500000
v -0.250000 1.000000 0.500000
v -0.250000 0.000000 0.500000
v -0.500000 1.000000 -0.500000
v -0.500000 0.000000 -0.500000
v -0.500000 1.000000 0.500000
v -0.500000 0.000000 0.500000
vn -0.0000 1.0000 -0.0000
vn -0.0000 -0.0000 1.0000
vn -1.0000 -0.0000 -0.0000
vn -0.0000 -1.0000 -0.0000
vn 1.0000 -0.0000 -0.0000
vn -0.0000 -0.0000 -1.0000
vt 1.000000 1.000000
vt -0.000000 0.750000
vt 1.000000 0.750000
vt 0.250000 1.000000
vt -0.000000 -0.000000
vt 0.250000 -0.000000
vt 1.000000 0.000000
vt 1.000000 0.250000
vt 0.750000 0.000000
vt -0.000000 1.000000
vt -0.000000 0.250000
vt 0.750000 1.000000
s 1
usemtl 
f 5/1/1 3/2/1 1/3/1
f 3/4/2 8/5/2 4/6/2
f 7/1/3 6/5/3 8/7/3
f 2/8/4 8/5/4 6/7/4
f 1/1/5 4/5/5 2/7/5
f 5/1/6 2/9/6 6/7/6
f 5/1/1 7/10/1 3/2/1
f 3/4/2 7/10/2 8/5/2
f 7/1/3 5/10/3 6/5/3
f 2/8/4 4/11/4 8/5/4
f 1/1/5 3/10/5 4/5/5
f 5/1/6 1/12/6 2/9/6
