# Blender 4.4.3
# www.blender.org
mtllib girderbracket.mtl
o GirderTri
v -0.500000 1.000000 -0.125000
v -0.250000 0.000000 -0.125000
v -0.500000 1.000000 0.125000
v -0.250000 0.000000 0.125000
v -0.500000 0.000000 -0.125000
v -0.500000 0.000000 0.125000
v -0.437500 0.750000 -0.125000
v -0.437500 0.000000 -0.125000
v -0.437500 0.750000 0.125000
v -0.437500 0.000000 0.125000
v -0.312500 0.750000 -0.125000
v -0.312500 0.000000 -0.125000
v -0.312500 0.750000 0.125000
v -0.312500 0.000000 0.125000
v -0.437500 0.750000 -0.062500
v -0.437500 0.000000 -0.062500
v -0.312500 0.750000 -0.062500
v -0.312500 0.000000 -0.062500
v -0.437500 0.750000 0.062500
v -0.437500 0.000000 0.062500
v -0.312500 0.750000 0.062500
v -0.312500 0.000000 0.062500
v 0.500000 1.000000 -0.125000
v 0.500000 1.000000 0.125000
v 0.500000 0.937500 -0.125000
v 0.500000 0.937500 0.125000
v 0.500000 0.812500 -0.125000
v 0.500000 0.812500 0.125000
v 0.500000 0.750000 -0.125000
v 0.500000 0.750000 0.125000
v 0.500000 0.937500 -0.062500
v 0.500000 0.812500 -0.062500
v 0.500000 0.937500 0.062500
v 0.500000 0.812500 0.062500
v -0.500000 0.937500 -0.125000
v -0.500000 0.937500 0.125000
v -0.500000 0.812500 -0.125000
v -0.500000 0.812500 0.125000
v -0.500000 0.750000 -0.125000
v -0.500000 0.750000 0.125000
v -0.500000 0.937500 -0.062500
v -0.500000 0.812500 -0.062500
v -0.500000 0.937500 0.062500
v -0.500000 0.812500 0.062500
v 0.312500 0.750000 -0.062500
v 0.312500 0.750000 0.062500
v 0.187500 0.750000 -0.062500
v 0.187500 0.750000 0.062500
v -0.250000 0.187500 -0.062500
v -0.250000 0.187500 0.062500
v -0.250000 0.312500 -0.062500
v -0.250000 0.312500 0.062500
v -0.250000 0.750000 -0.125000
v -0.250000 0.750000 0.125000
vn 1.0000 -0.0000 -0.0000
vn -1.0000 -0.0000 -0.0000
vn -0.0000 -0.0000 -1.0000
vn -0.0000 -0.0000 1.0000
vn -0.0000 -1.0000 -0.0000
vn -0.0000 1.0000 -0.0000
vn 0.7071 -0.7071 -0.0000
vn -0.7071 0.7071 -0.0000
vt 0.031250 0.750000
vt 0.031250 0.000000
vt 0.062500 0.000000
vt 0.500000 0.000000
vt 0.625000 0.000000
vt 0.625000 0.750000
vt 0.500000 0.750000
vt 0.468750 0.750000
vt 0.000000 0.750000
vt 0.000000 0.000000
vt 0.156250 0.000000
vt 0.156250 0.750000
vt 0.125000 0.750000
vt 0.343750 0.750000
vt 0.343750 0.000000
vt 0.375000 0.000000
vt 0.468750 0.000000
vt 0.437500 0.750000
vt 0.062500 0.750000
vt 0.125000 0.000000
vt 0.437500 0.000000
vt 0.625000 0.125000
vt 0.656250 0.125000
vt 0.656250 -0.000000
vt 0.750000 0.000000
vt 0.718750 0.000000
vt 0.718750 0.125000
vt 0.750000 0.125000
vt 0.718750 0.187500
vt 0.656250 0.187500
vt 0.656250 0.062500
vt 0.718750 0.062500
vt 0.625000 0.250000
vt 0.656250 0.500000
vt 0.625000 0.500000
vt 0.718750 0.437500
vt 0.656250 0.312500
vt 0.718750 0.312500
vt 0.375000 0.750000
vt 0.750000 0.500000
vt 0.718750 0.250000
vt 0.750000 0.250000
vt 0.187500 1.000000
vt 0.187500 0.000000
vt 0.500000 1.000000
vt 0.656250 0.250000
vt 0.656250 0.437500
vt 0.343750 1.000000
vt 0.375000 1.000000
vt 0.437500 1.000000
vt 0.312500 1.000000
vt 0.156250 1.000000
vt 0.125000 1.000000
vt 0.062500 1.000000
vt -0.000000 1.000000
vt 0.625000 1.000000
vt 0.468750 1.000000
vt 0.312500 0.000000
vt 0.031250 1.000000
vt 0.812500 0.062500
vt 0.812500 0.500000
vt 0.875000 0.562500
vt 0.937500 0.000000
vt 0.937500 0.562500
vt 1.000000 0.500000
vt 0.312500 0.750000
vt 0.187500 0.750000
vt 0.718750 0.500000
vt 0.750000 0.062500
vt 0.875000 0.000000
vt 1.000000 0.062500
s 1
usemtl 
f 9/1/1 10/2/1 20/3/1
f 5/4/2 6/5/2 40/6/2
f 5/4/3 39/7/3 7/8/3
f 40/9/4 6/10/4 10/2/4
f 14/11/2 13/12/2 21/13/2
f 11/14/2 12/15/2 18/16/2
f 8/17/1 7/8/1 15/18/1
f 19/19/4 20/3/4 22/20/4
f 18/16/3 16/21/3 15/18/3
f 5/22/5 8/23/5 10/24/5
f 6/5/5 5/22/5 10/24/5
f 4/25/5 14/26/5 12/27/5
f 2/28/5 4/25/5 12/27/5
f 22/29/5 20/30/5 16/31/5
f 16/31/5 18/32/5 22/29/5
f 1/33/2 36/34/2 3/35/2
f 43/36/2 42/37/2 44/38/2
f 9/1/1 20/3/1 19/19/1
f 5/4/2 40/6/2 39/7/2
f 5/4/3 7/8/3 8/17/3
f 40/9/4 10/2/4 9/1/4
f 14/11/2 21/13/2 22/20/2
f 11/14/2 18/16/2 17/39/2
f 8/17/1 15/18/1 16/21/1
f 19/19/4 22/20/4 21/13/4
f 18/16/3 15/18/3 17/39/3
f 40/40/2 37/41/2 39/42/2
f 30/43/4 38/11/4 40/44/4
f 3/5/6 23/45/6 1/4/6
f 24/22/1 25/46/1 23/33/1
f 28/27/1 29/42/1 27/41/1
f 31/47/1 34/38/1 32/36/1
f 27/48/6 42/16/6 32/49/6
f 31/50/3 42/16/3 41/21/3
f 35/17/5 31/50/5 41/21/5
f 23/45/3 35/17/3 1/4/3
f 40/44/5 29/51/5 30/43/5
f 44/20/6 28/52/6 34/53/6
f 34/53/4 43/3/4 44/20/4
f 33/54/5 36/2/5 43/3/5
f 36/2/4 24/55/4 3/10/4
f 3/5/6 24/56/6 23/45/6
f 24/22/1 26/23/1 25/46/1
f 28/27/1 30/28/1 29/42/1
f 31/47/1 33/37/1 34/38/1
f 27/48/6 37/15/6 42/16/6
f 31/50/3 32/49/3 42/16/3
f 35/17/5 25/57/5 31/50/5
f 23/45/3 25/57/3 35/17/3
f 40/44/5 39/58/5 29/51/5
f 27/48/3 39/58/3 37/15/3
f 44/20/6 38/11/6 28/52/6
f 34/53/4 33/54/4 43/3/4
f 33/54/5 26/59/5 36/2/5
f 36/2/4 26/59/4 24/55/4
f 52/60/7 47/40/7 48/61/7
f 45/62/8 50/63/8 46/64/8
f 46/62/3 52/60/3 48/61/3
f 47/65/4 49/63/4 45/64/4
f 11/14/3 53/66/3 2/58/3
f 4/44/4 54/67/4 13/12/4
f 54/67/1 4/44/1 2/58/1
f 1/33/2 35/46/2 36/34/2
f 43/36/2 41/47/2 42/37/2
f 40/40/2 38/68/2 37/41/2
f 30/43/4 28/52/4 38/11/4
f 27/48/3 29/51/3 39/58/3
f 52/60/7 51/69/7 47/40/7
f 45/62/8 49/70/8 50/63/8
f 46/62/3 50/70/3 52/60/3
f 47/65/4 51/71/4 49/63/4
f 11/14/3 2/58/3 12/15/3
f 4/44/4 13/12/4 14/11/4
f 54/67/1 2/58/1 53/66/1
