# Blender 4.4.3
# www.blender.org
mtllib officeplant.mtl
o Plant
v -0.437500 0.437500 0.437500
v -0.437500 0.437500 -0.437500
v 0.437500 0.437500 0.437500
v 0.437500 0.437500 -0.437500
v -0.437500 2.437500 -0.437500
v 0.437500 2.437500 0.437500
v -0.437500 2.437500 0.437500
v 0.437500 2.437500 -0.437500
vn 0.7071 -0.0000 -0.7071
vn -0.7071 -0.0000 -0.7071
vt -0.000000 1.000000
vt 0.500000 0.000000
vt 0.500000 1.000000
vt -0.000000 0.000000
s 1
usemtl 
f 6/1/1 2/2/1 5/3/1
f 8/3/2 1/4/2 7/1/2
f 6/1/1 3/4/1 2/2/1
f 8/3/2 4/2/2 1/4/2
o Pot
v -0.312500 0.500000 0.312500
v -0.312500 0.500000 -0.312500
v 0.312500 0.500000 0.312500
v 0.312500 0.500000 -0.312500
v 0.375000 0.468750 0.375000
v 0.375000 0.468750 -0.375000
v -0.375000 0.000000 0.375000
v -0.437500 0.437500 0.437500
v -0.375000 -0.000000 -0.375000
v -0.437500 0.437500 -0.437500
v 0.375000 0.000000 0.375000
v 0.437500 0.437500 0.437500
v 0.375000 -0.000000 -0.375000
v 0.437500 0.437500 -0.437500
v -0.437500 0.562500 0.437500
v -0.437500 0.562500 -0.437500
v 0.437500 0.562500 0.437500
v 0.437500 0.562500 -0.437500
v -0.375000 0.562500 0.375000
v -0.375000 0.562500 -0.375000
v 0.375000 0.562500 0.375000
v 0.375000 0.562500 -0.375000
v -0.375000 0.468750 0.375000
v -0.375000 0.468750 -0.375000
vn -0.1753 0.9688 -0.1753
vn 0.1753 0.9688 0.1753
vn 0.1753 0.9688 -0.1753
vn -0.1753 0.9688 0.1753
vn 0.2357 0.9428 0.2357
vn -0.2357 0.9428 -0.2357
vn 0.2357 0.9428 -0.2357
vn -0.2357 0.9428 0.2357
vn -0.9977 -0.0676 -0.0000
vn -0.9899 -0.1414 -0.0000
vn -0.0000 -0.0676 -0.9977
vn -0.0000 -0.1414 -0.9899
vn 0.9977 -0.0676 -0.0000
vn 0.9899 -0.1414 -0.0000
vn -0.0000 -0.0676 0.9977
vn -0.0000 -0.1414 0.9899
vn -0.0000 -1.0000 -0.0000
vn -0.0000 -0.0000 -1.0000
vn 1.0000 -0.0000 -0.0000
vn -0.0000 -0.0000 1.0000
vn -1.0000 -0.0000 -0.0000
vn -0.0000 1.0000 -0.0000
vn 0.7071 -0.0000 -0.7071
vn -0.7071 -0.0000 -0.7071
vn -0.7071 -0.0000 0.7071
vn 0.7071 -0.0000 0.7071
vt 0.968750 0.968750
vt 0.656250 0.656250
vt 0.968750 0.656250
vt 0.656250 0.968750
vt 0.625000 0.625000
vt 1.000000 1.000000
vt 1.000000 0.625000
vt 0.625000 1.000000
vt 1.000000 0.218750
vt 0.593750 -0.000000
vt 0.968750 0.000000
vt 1.000000 0.250000
vt 0.625000 0.250000
vt 1.000000 0.187500
vt 0.562500 0.250000
vt 0.562500 0.218750
vt 0.562500 0.187500
vt 0.968750 0.031250
vt 1.000000 0.062500
vt 0.562500 0.062500
vt 0.593750 0.031250
vt 1.000000 0.281250
vt 0.625000 0.281250
s 1
usemtl 
f 10/5/3 11/6/4 12/7/5
f 10/5/3 9/8/6 11/6/4
f 9/8/6 13/9/7 11/6/4
f 12/7/5 32/10/8 10/5/3
f 11/6/4 14/11/9 12/7/5
f 10/5/3 31/12/10 9/8/6
f 9/8/6 31/12/10 13/9/7
f 12/7/5 14/11/9 32/10/8
f 11/6/4 13/9/7 14/11/9
f 10/5/3 32/10/8 31/12/10
f 16/13/11 17/14/12 15/15/12
f 18/16/13 21/14/14 17/15/14
f 22/16/15 19/14/16 21/15/16
f 20/16/17 15/14/18 19/15/18
f 21/11/19 15/17/19 17/16/19
f 18/18/13 24/16/20 26/19/20
f 22/18/15 26/16/21 25/19/21
f 20/18/17 25/16/22 23/19/22
f 16/18/11 23/16/23 24/19/23
f 16/13/11 18/20/11 17/14/12
f 18/16/13 22/19/13 21/14/14
f 22/16/15 20/19/15 19/14/16
f 20/16/17 16/19/17 15/14/18
f 21/11/19 19/9/19 15/17/19
f 18/18/13 26/19/20 22/21/13
f 22/18/15 25/19/21 20/21/15
f 20/18/17 23/19/22 16/21/17
f 16/18/11 24/19/23 18/21/11
f 29/22/24 25/23/24 26/24/24
f 30/22/24 26/23/24 24/24/24
f 28/22/24 24/23/24 23/24/24
f 27/22/24 23/23/24 25/24/24
f 29/22/24 26/24/24 30/25/24
f 30/22/24 24/24/24 28/25/24
f 28/22/24 23/24/24 27/25/24
f 27/22/24 25/24/24 29/25/24
f 27/26/25 29/27/26 13/17/26
f 30/26/27 28/27/28 32/17/28
f 29/26/26 30/27/27 14/17/27
f 28/26/28 27/27/25 31/17/25
f 27/26/25 13/17/26 31/16/25
f 30/26/27 32/17/28 14/16/27
f 29/26/26 14/17/27 13/16/26
f 28/26/28 31/17/25 32/16/28
