# Blender v2.79 (sub 0) OBJ File: 'pipe_quad.blend'
# www.blender.org
o Top
v -0.250000 -0.500000 0.125000
v -0.250000 0.500000 0.125000
v -0.161612 -0.500000 0.161612
v -0.161612 0.500000 0.161612
v -0.125000 -0.500000 0.250000
v -0.125000 0.500000 0.250000
v -0.161612 -0.500000 0.338388
v -0.161612 0.500000 0.338388
v -0.250000 -0.500000 0.375000
v -0.250000 0.500000 0.375000
v -0.338388 -0.500000 0.338388
v -0.338388 0.500000 0.338388
v -0.375000 -0.500000 0.250000
v -0.375000 0.500000 0.250000
v -0.338388 -0.500000 0.161612
v -0.338388 0.500000 0.161612
v 0.338388 -0.500000 -0.161612
v 0.338388 0.500000 -0.161612
v 0.250000 -0.500000 -0.125000
v 0.250000 0.500000 -0.125000
v 0.161612 -0.500000 -0.161612
v 0.161612 0.500000 -0.161612
v 0.125000 -0.500000 -0.250000
v 0.125000 0.500000 -0.250000
v 0.161612 -0.500000 -0.338388
v 0.161612 0.500000 -0.338388
v 0.250000 -0.500000 -0.250000
v 0.250000 0.500000 -0.250000
v 0.161612 0.500000 0.161612
v 0.161612 -0.500000 0.161612
v 0.125000 0.500000 0.250000
v 0.125000 -0.500000 0.250000
v 0.161612 0.500000 0.338388
v 0.161612 -0.500000 0.338388
v 0.250000 0.500000 0.375000
v 0.250000 -0.500000 0.375000
v 0.338388 0.500000 0.338388
v 0.338388 -0.500000 0.338388
v 0.375000 0.500000 0.250000
v 0.375000 -0.500000 0.250000
v 0.338388 0.500000 0.161612
v 0.338388 -0.500000 0.161612
v 0.250000 0.500000 0.125000
v 0.250000 -0.500000 0.125000
v -0.250000 0.500000 -0.250000
v -0.250000 -0.500000 -0.250000
v -0.338388 0.500000 -0.338388
v -0.338388 -0.500000 -0.338388
v -0.375000 0.500000 -0.250000
v -0.375000 -0.500000 -0.250000
v -0.338388 0.500000 -0.161612
v -0.338388 -0.500000 -0.161612
v -0.250000 0.500000 -0.125000
v -0.250000 -0.500000 -0.125000
v -0.161612 0.500000 -0.161612
v -0.161612 -0.500000 -0.161612
v -0.125000 0.500000 -0.250000
v -0.125000 -0.500000 -0.250000
v -0.161612 0.500000 -0.338388
v -0.161612 -0.500000 -0.338388
v -0.250000 0.500000 -0.375000
v -0.250000 -0.500000 -0.375000
v -0.250000 -0.500000 0.250000
v -0.250000 0.500000 0.250000
v 0.375000 0.500000 -0.250000
v 0.375000 -0.500000 -0.250000
v 0.338388 0.500000 -0.338388
v 0.338388 -0.500000 -0.338388
v 0.250000 0.500000 -0.375000
v 0.250000 -0.500000 -0.375000
v 0.250000 -0.500000 0.250000
v 0.250000 0.500000 0.250000
vt 0.500000 0.312500
vt 0.500000 0.500000
vt 0.625000 0.375000
vt 0.375000 0.375000
vt 0.500000 0.500000
vt 0.500000 0.312500
vt 0.500000 0.312500
vt 0.500000 0.500000
vt 0.625000 0.375000
vt 0.500000 0.687500
vt 0.375000 0.625000
vt 0.312500 0.500000
vt 0.375000 0.375000
vt 0.687500 0.500000
vt 0.625000 0.625000
vt 0.500000 0.312500
vt 0.500000 0.500000
vt 0.625000 0.375000
vt 0.625000 0.375000
vt 0.687500 0.500000
vt 0.375000 0.625000
vt 0.312500 0.500000
vt 0.625000 0.625000
vt 0.500000 0.687500
vt 0.500000 0.687500
vt 0.375000 0.625000
vt 0.375000 0.375000
vt 0.687500 0.500000
vt 0.625000 0.625000
vt 0.312500 0.500000
vt 0.500000 0.687500
vt 0.375000 0.625000
vt 0.375000 0.375000
vt 0.687500 0.500000
vt 0.625000 0.625000
vt 0.312500 0.500000
vt 0.500000 0.312500
vt 0.500000 0.500000
vt 0.625000 0.375000
vt 0.375000 0.375000
vt 0.500000 0.500000
vt 0.500000 0.312500
vt 0.500000 0.312500
vt 0.500000 0.500000
vt 0.625000 0.375000
vt 0.500000 0.687500
vt 0.375000 0.625000
vt 0.312500 0.500000
vt 0.375000 0.375000
vt 0.687500 0.500000
vt 0.625000 0.625000
vt 0.500000 0.312500
vt 0.500000 0.500000
vt 0.625000 0.375000
vt 0.625000 0.375000
vt 0.687500 0.500000
vt 0.375000 0.625000
vt 0.312500 0.500000
vt 0.625000 0.625000
vt 0.500000 0.687500
vt 0.500000 0.687500
vt 0.375000 0.625000
vt 0.375000 0.375000
vt 0.687500 0.500000
vt 0.625000 0.625000
vt 0.312500 0.500000
vt 0.500000 0.687500
vt 0.375000 0.625000
vt 0.375000 0.375000
vt 0.687500 0.500000
vt 0.625000 0.625000
vt 0.312500 0.500000
vn 0.0000 1.0000 0.0000
vn 0.0000 -1.0000 0.0000
s off
f 4/1/1 64/2/1 6/3/1
f 1/4/2 63/5/2 15/6/2
f 48/7/2 46/8/2 50/9/2
f 56/10/2 46/8/2 58/11/2
f 60/12/2 46/8/2 62/13/2
f 52/14/2 46/8/2 54/15/2
f 58/11/2 46/8/2 60/12/2
f 50/9/2 46/8/2 52/14/2
f 62/13/2 46/8/2 48/7/2
f 59/16/1 45/17/1 57/18/1
f 13/19/2 63/5/2 11/20/2
f 5/21/2 63/5/2 3/22/2
f 11/20/2 63/5/2 9/23/2
f 3/22/2 63/5/2 1/4/2
f 7/24/2 63/5/2 5/21/2
f 15/6/2 63/5/2 13/19/2
f 9/23/2 63/5/2 7/24/2
f 12/25/1 64/2/1 14/26/1
f 64/2/1 4/1/1 2/27/1
f 8/28/1 64/2/1 10/29/1
f 16/30/1 64/2/1 2/27/1
f 14/26/1 64/2/1 16/30/1
f 6/3/1 64/2/1 8/28/1
f 10/29/1 64/2/1 12/25/1
f 54/15/2 46/8/2 56/10/2
f 51/31/1 45/17/1 49/32/1
f 45/17/1 59/16/1 61/33/1
f 55/34/1 45/17/1 53/35/1
f 47/36/1 45/17/1 61/33/1
f 49/32/1 45/17/1 47/36/1
f 57/18/1 45/17/1 55/34/1
f 53/35/1 45/17/1 51/31/1
f 41/37/1 72/38/1 39/39/1
f 44/40/2 71/41/2 30/42/2
f 25/43/2 27/44/2 23/45/2
f 17/46/2 27/44/2 66/47/2
f 68/48/2 27/44/2 70/49/2
f 21/50/2 27/44/2 19/51/2
f 66/47/2 27/44/2 68/48/2
f 23/45/2 27/44/2 21/50/2
f 70/49/2 27/44/2 25/43/2
f 67/52/1 28/53/1 65/54/1
f 32/55/2 71/41/2 34/56/2
f 40/57/2 71/41/2 42/58/2
f 34/56/2 71/41/2 36/59/2
f 42/58/2 71/41/2 44/40/2
f 38/60/2 71/41/2 40/57/2
f 30/42/2 71/41/2 32/55/2
f 36/59/2 71/41/2 38/60/2
f 33/61/1 72/38/1 31/62/1
f 72/38/1 41/37/1 43/63/1
f 37/64/1 72/38/1 35/65/1
f 29/66/1 72/38/1 43/63/1
f 31/62/1 72/38/1 29/66/1
f 39/39/1 72/38/1 37/64/1
f 35/65/1 72/38/1 33/61/1
f 19/51/2 27/44/2 17/46/2
f 22/67/1 28/53/1 24/68/1
f 28/53/1 67/52/1 69/69/1
f 18/70/1 28/53/1 20/71/1
f 26/72/1 28/53/1 69/69/1
f 24/68/1 28/53/1 26/72/1
f 65/54/1 28/53/1 18/70/1
f 20/71/1 28/53/1 22/67/1
o Side
v -0.250000 -0.500000 0.125000
v -0.250000 0.500000 0.125000
v -0.161612 -0.500000 0.161612
v -0.161612 0.500000 0.161612
v -0.125000 -0.500000 0.250000
v -0.125000 0.500000 0.250000
v -0.161612 -0.500000 0.338388
v -0.161612 0.500000 0.338388
v -0.250000 -0.500000 0.375000
v -0.250000 0.500000 0.375000
v -0.338388 -0.500000 0.338388
v -0.338388 0.500000 0.338388
v -0.375000 -0.500000 0.250000
v -0.375000 0.500000 0.250000
v -0.338388 -0.500000 0.161612
v -0.338388 0.500000 0.161612
v 0.338388 -0.500000 -0.161612
v 0.338388 0.500000 -0.161612
v 0.250000 -0.500000 -0.125000
v 0.250000 0.500000 -0.125000
v 0.161612 -0.500000 -0.161612
v 0.161612 0.500000 -0.161612
v 0.125000 -0.500000 -0.250000
v 0.125000 0.500000 -0.250000
v 0.161612 -0.500000 -0.338388
v 0.161612 0.500000 -0.338388
v 0.161612 0.500000 0.161612
v 0.161612 -0.500000 0.161612
v 0.125000 0.500000 0.250000
v 0.125000 -0.500000 0.250000
v 0.161612 0.500000 0.338388
v 0.161612 -0.500000 0.338388
v 0.250000 0.500000 0.375000
v 0.250000 -0.500000 0.375000
v 0.338388 0.500000 0.338388
v 0.338388 -0.500000 0.338388
v 0.375000 0.500000 0.250000
v 0.375000 -0.500000 0.250000
v 0.338388 0.500000 0.161612
v 0.338388 -0.500000 0.161612
v 0.250000 0.500000 0.125000
v 0.250000 -0.500000 0.125000
v -0.338388 0.500000 -0.338388
v -0.338388 -0.500000 -0.338388
v -0.375000 0.500000 -0.250000
v -0.375000 -0.500000 -0.250000
v -0.338388 0.500000 -0.161612
v -0.338388 -0.500000 -0.161612
v -0.250000 0.500000 -0.125000
v -0.250000 -0.500000 -0.125000
v -0.161612 0.500000 -0.161612
v -0.161612 -0.500000 -0.161612
v -0.125000 0.500000 -0.250000
v -0.125000 -0.500000 -0.250000
v -0.161612 0.500000 -0.338388
v -0.161612 -0.500000 -0.338388
v -0.250000 0.500000 -0.375000
v -0.250000 -0.500000 -0.375000
v 0.375000 0.500000 -0.250000
v 0.375000 -0.500000 -0.250000
v 0.338388 0.500000 -0.338388
v 0.338388 -0.500000 -0.338388
v 0.250000 0.500000 -0.375000
v 0.250000 -0.500000 -0.375000
vt 0.500000 1.000000
vt 0.375000 -0.000000
vt 0.500000 -0.000000
vt 0.625000 1.000000
vt 0.500000 -0.000000
vt 0.625000 -0.000000
vt 0.500000 1.000000
vt 0.375000 -0.000000
vt 0.625000 1.000000
vt 0.500000 -0.000000
vt 0.625000 -0.000000
vt 0.500000 1.000000
vt 0.375000 -0.000000
vt 0.625000 1.000000
vt 0.500000 -0.000000
vt 0.625000 -0.000000
vt 0.500000 1.000000
vt 0.375000 -0.000000
vt 0.625000 1.000000
vt 0.625000 -0.000000
vt 0.625000 1.000000
vt 0.500000 -0.000000
vt 0.625000 -0.000000
vt 0.500000 1.000000
vt 0.375000 -0.000000
vt 0.500000 -0.000000
vt 0.625000 1.000000
vt 0.625000 -0.000000
vt 0.500000 1.000000
vt 0.375000 -0.000000
vt 0.500000 -0.000000
vt 0.625000 1.000000
vt 0.625000 -0.000000
vt 0.500000 1.000000
vt 0.375000 -0.000000
vt 0.500000 -0.000000
vt 0.625000 1.000000
vt 0.625000 -0.000000
vt 0.500000 1.000000
vt 0.375000 -0.000000
vt 0.500000 1.000000
vt 0.375000 -0.000000
vt 0.500000 -0.000000
vt 0.625000 1.000000
vt 0.500000 -0.000000
vt 0.625000 -0.000000
vt 0.500000 1.000000
vt 0.375000 -0.000000
vt 0.625000 1.000000
vt 0.500000 -0.000000
vt 0.625000 -0.000000
vt 0.500000 1.000000
vt 0.375000 -0.000000
vt 0.625000 1.000000
vt 0.500000 -0.000000
vt 0.625000 -0.000000
vt 0.500000 1.000000
vt 0.375000 -0.000000
vt 0.625000 1.000000
vt 0.625000 -0.000000
vt 0.625000 1.000000
vt 0.500000 -0.000000
vt 0.625000 -0.000000
vt 0.500000 1.000000
vt 0.375000 -0.000000
vt 0.500000 -0.000000
vt 0.625000 1.000000
vt 0.625000 -0.000000
vt 0.500000 1.000000
vt 0.375000 -0.000000
vt 0.500000 -0.000000
vt 0.625000 1.000000
vt 0.625000 -0.000000
vt 0.500000 1.000000
vt 0.375000 -0.000000
vt 0.500000 -0.000000
vt 0.625000 1.000000
vt 0.625000 -0.000000
vt 0.500000 1.000000
vt 0.375000 -0.000000
vt 0.375000 1.000000
vt 0.375000 1.000000
vt 0.375000 1.000000
vt 0.375000 1.000000
vt 0.375000 1.000000
vt 0.375000 1.000000
vt 0.375000 1.000000
vt 0.375000 1.000000
vt 0.375000 1.000000
vt 0.375000 1.000000
vt 0.375000 1.000000
vt 0.375000 1.000000
vt 0.375000 1.000000
vt 0.375000 1.000000
vt 0.375000 1.000000
vt 0.375000 1.000000
vn 0.3827 0.0000 -0.9239
vn 0.9239 0.0000 -0.3827
vn 0.9239 0.0000 0.3827
vn 0.3827 0.0000 0.9239
vn -0.3827 0.0000 0.9239
vn -0.9239 0.0000 0.3827
vn -0.9239 0.0000 -0.3827
vn -0.3827 0.0000 -0.9239
s off
f 74/73/3 75/74/3 73/75/3
f 76/76/4 77/77/4 75/78/4
f 78/79/5 79/80/5 77/77/5
f 80/81/6 81/82/6 79/83/6
f 82/84/7 83/85/7 81/82/7
f 84/86/8 85/87/8 83/88/8
f 86/89/9 87/90/9 85/87/9
f 88/91/10 73/75/10 87/92/10
f 115/93/10 130/94/10 116/95/10
f 117/96/9 116/97/9 118/98/9
f 119/99/8 118/98/8 120/100/8
f 121/101/7 120/102/7 122/103/7
f 123/104/6 122/103/6 124/105/6
f 125/106/5 124/107/5 126/108/5
f 127/109/4 126/108/4 128/110/4
f 129/111/3 128/112/3 130/94/3
f 113/113/3 112/114/3 114/115/3
f 111/116/4 110/117/4 112/118/4
f 109/119/5 108/120/5 110/117/5
f 107/121/6 106/122/6 108/123/6
f 105/124/7 104/125/7 106/122/7
f 103/126/8 102/127/8 104/128/8
f 101/129/9 100/130/9 102/127/9
f 99/131/10 114/115/10 100/132/10
f 98/133/10 136/134/10 97/135/10
f 96/136/9 97/137/9 95/138/9
f 94/139/8 95/138/8 93/140/8
f 92/141/7 93/142/7 91/143/7
f 90/144/6 91/143/6 89/145/6
f 131/146/5 89/147/5 132/148/5
f 133/149/4 132/148/4 134/150/4
f 135/151/3 134/152/3 136/134/3
f 74/73/3 76/153/3 75/74/3
f 76/76/4 78/79/4 77/77/4
f 78/79/5 80/154/5 79/80/5
f 80/81/6 82/84/6 81/82/6
f 82/84/7 84/155/7 83/85/7
f 84/86/8 86/89/8 85/87/8
f 86/89/9 88/156/9 87/90/9
f 88/91/10 74/73/10 73/75/10
f 115/93/10 129/111/10 130/94/10
f 117/96/9 115/157/9 116/97/9
f 119/99/8 117/96/8 118/98/8
f 121/101/7 119/158/7 120/102/7
f 123/104/6 121/101/6 122/103/6
f 125/106/5 123/159/5 124/107/5
f 127/109/4 125/106/4 126/108/4
f 129/111/3 127/160/3 128/112/3
f 113/113/3 111/161/3 112/114/3
f 111/116/4 109/119/4 110/117/4
f 109/119/5 107/162/5 108/120/5
f 107/121/6 105/124/6 106/122/6
f 105/124/7 103/163/7 104/125/7
f 103/126/8 101/129/8 102/127/8
f 101/129/9 99/164/9 100/130/9
f 99/131/10 113/113/10 114/115/10
f 98/133/10 135/151/10 136/134/10
f 96/136/9 98/165/9 97/137/9
f 94/139/8 96/136/8 95/138/8
f 92/141/7 94/166/7 93/142/7
f 90/144/6 92/141/6 91/143/6
f 131/146/5 90/167/5 89/147/5
f 133/149/4 131/146/4 132/148/4
f 135/151/3 133/168/3 134/152/3
