# Blender v2.79 (sub 0) OBJ File: 'pipe_rim.blend'
# www.blender.org
o Top
v 0.309359 0.500000 -0.309359
v 0.000000 0.500000 -0.437500
v 0.000000 -0.500000 -0.437500
v 0.000000 -0.437500 -0.437500
v 0.309359 -0.500000 -0.309359
v 0.309359 -0.437500 -0.309359
v 0.437500 -0.500000 0.000000
v 0.437500 -0.437500 0.000000
v 0.309359 -0.500000 0.309359
v 0.309359 -0.437500 0.309359
v -0.000000 -0.500000 0.437500
v -0.000000 -0.437500 0.437500
v -0.309359 -0.500000 0.309359
v -0.309359 -0.437500 0.309359
v -0.437500 -0.500000 -0.000000
v -0.437500 -0.437500 -0.000000
v -0.309359 -0.500000 -0.309359
v -0.309359 -0.437500 -0.309359
v 0.437500 0.500000 0.000000
v 0.309359 0.500000 0.309359
v -0.000000 0.500000 0.437500
v -0.309359 0.500000 0.309359
v -0.437500 0.500000 -0.000000
v -0.309359 0.500000 -0.309359
v -0.309359 0.437500 -0.309359
v 0.000000 0.437500 -0.437500
v -0.437500 0.437500 -0.000000
v -0.309359 0.437500 0.309359
v -0.000000 0.437500 0.437500
v 0.309359 0.437500 0.309359
v 0.437500 0.437500 0.000000
v 0.309359 0.437500 -0.309359
v 0.000000 0.500000 0.000000
v 0.000000 0.437500 -0.000000
v -0.000000 -0.437500 0.000000
v 0.000000 -0.500000 0.000000
vt 0.187500 0.187500
vt 0.500000 0.500000
vt 0.500000 0.062500
vt 0.187500 0.187500
vt 0.500000 0.500000
vt 0.500000 0.062500
vt 0.500000 0.062500
vt 0.500000 0.500000
vt 0.812500 0.187500
vt 0.187500 0.187500
vt 0.500000 0.500000
vt 0.500000 0.062500
vt 0.812500 0.187500
vt 0.937500 0.500000
vt 0.062500 0.500000
vt 0.187500 0.812500
vt 0.812500 0.812500
vt 0.500000 0.937500
vt 0.812500 0.812500
vt 0.500000 0.937500
vt 0.937500 0.500000
vt 0.062500 0.500000
vt 0.812500 0.187500
vt 0.187500 0.812500
vt 0.937500 0.500000
vt 0.812500 0.812500
vt 0.062500 0.500000
vt 0.187500 0.812500
vt 0.500000 0.937500
vt 0.187500 0.187500
vt 0.812500 0.812500
vt 0.500000 0.937500
vt 0.812500 0.187500
vt 0.937500 0.500000
vt 0.187500 0.812500
vt 0.062500 0.500000
vn 0.0000 -1.0000 0.0000
vn 0.0000 1.0000 0.0000
s off
f 26/1/1 34/2/1 25/3/1
f 2/4/2 33/5/2 1/6/2
f 6/7/2 35/8/2 8/9/2
f 3/10/1 36/11/1 17/12/1
f 19/13/2 33/5/2 20/14/2
f 33/5/2 24/15/2 23/16/2
f 20/14/2 33/5/2 21/17/2
f 22/18/2 33/5/2 23/16/2
f 1/6/2 33/5/2 19/13/2
f 21/17/2 33/5/2 22/18/2
f 33/5/2 2/4/2 24/15/2
f 29/19/1 34/2/1 30/20/1
f 28/21/1 34/2/1 29/19/1
f 32/22/1 34/2/1 26/1/1
f 25/3/1 34/2/1 27/23/1
f 30/20/1 34/2/1 31/24/1
f 27/23/1 34/2/1 28/21/1
f 31/24/1 34/2/1 32/22/1
f 8/9/2 35/8/2 10/25/2
f 10/25/2 35/8/2 12/26/2
f 35/8/2 18/27/2 16/28/2
f 12/26/2 35/8/2 14/29/2
f 35/8/2 4/30/2 18/27/2
f 14/29/2 35/8/2 16/28/2
f 35/8/2 6/7/2 4/30/2
f 11/31/1 36/11/1 9/32/1
f 15/33/1 36/11/1 13/34/1
f 7/35/1 36/11/1 5/36/1
f 13/34/1 36/11/1 11/31/1
f 5/36/1 36/11/1 3/10/1
f 17/12/1 36/11/1 15/33/1
f 9/32/1 36/11/1 7/35/1
o Side
v 0.000000 -0.437500 -0.375000
v 0.000000 0.437500 -0.375000
v 0.265165 -0.437500 -0.265165
v 0.265165 0.437500 -0.265165
v 0.375000 -0.437500 0.000000
v 0.375000 0.437500 0.000000
v 0.265165 -0.437500 0.265165
v 0.265165 0.437500 0.265165
v -0.000000 -0.437500 0.375000
v -0.000000 0.437500 0.375000
v -0.265165 -0.437500 0.265165
v -0.265165 0.437500 0.265165
v -0.375000 -0.437500 -0.000000
v -0.375000 0.437500 -0.000000
v -0.265165 -0.437500 -0.265165
v -0.265165 0.437500 -0.265165
v 0.309359 0.500000 -0.309359
v 0.000000 0.500000 -0.437500
v 0.000000 -0.500000 -0.437500
v 0.000000 -0.437500 -0.437500
v 0.309359 -0.500000 -0.309359
v 0.309359 -0.437500 -0.309359
v 0.437500 -0.500000 0.000000
v 0.437500 -0.437500 0.000000
v 0.309359 -0.500000 0.309359
v 0.309359 -0.437500 0.309359
v -0.000000 -0.500000 0.437500
v -0.000000 -0.437500 0.437500
v -0.309359 -0.500000 0.309359
v -0.309359 -0.437500 0.309359
v -0.437500 -0.500000 -0.000000
v -0.437500 -0.437500 -0.000000
v -0.309359 -0.500000 -0.309359
v -0.309359 -0.437500 -0.309359
v 0.437500 0.500000 0.000000
v 0.309359 0.500000 0.309359
v -0.000000 0.500000 0.437500
v -0.309359 0.500000 0.309359
v -0.437500 0.500000 -0.000000
v -0.309359 0.500000 -0.309359
v -0.309359 0.437500 -0.309359
v 0.000000 0.437500 -0.437500
v -0.437500 0.437500 -0.000000
v -0.309359 0.437500 0.309359
v -0.000000 0.437500 0.437500
v 0.309359 0.437500 0.309359
v 0.437500 0.437500 0.000000
v 0.309359 0.437500 -0.309359
vt 0.500000 0.937500
vt 0.187500 0.062500
vt 0.500000 0.062500
vt 0.812500 0.937500
vt 0.500000 0.062500
vt 0.812500 0.062500
vt 0.500000 0.937500
vt 0.187500 0.062500
vt 0.812500 0.937500
vt 0.500000 0.062500
vt 0.812500 0.062500
vt 0.500000 0.937500
vt 0.187500 0.062500
vt 0.812500 0.937500
vt 0.500000 0.062500
vt 0.812500 0.062500
vt 0.500000 0.937500
vt 0.187500 0.062500
vt 0.812500 0.937500
vt 0.812500 0.062500
vt 0.187500 1.000000
vt 0.500000 0.937500
vt 0.500000 1.000000
vt 0.500000 0.000000
vt 0.812500 0.062500
vt 0.500000 0.062500
vt 0.187500 1.000000
vt 0.500000 0.937500
vt 0.500000 1.000000
vt 0.812500 0.062500
vt 0.500000 0.000000
vt 0.812500 0.000000
vt 0.500000 1.000000
vt 0.812500 0.937500
vt 0.812500 1.000000
vt 0.500000 0.062500
vt 0.187500 0.000000
vt 0.812500 0.937500
vt 0.812500 1.000000
vt 0.812500 0.062500
vt 0.500000 0.000000
vt 0.812500 0.000000
vt 0.500000 1.000000
vt 0.812500 0.937500
vt 0.812500 1.000000
vt 0.500000 0.062500
vt 0.187500 0.000000
vt 0.187500 1.000000
vt 0.500000 0.937500
vt 0.187500 0.000000
vt 0.500000 0.062500
vt 0.187500 0.062500
vt 0.812500 0.937500
vt 0.812500 1.000000
vt 0.500000 0.000000
vt 0.812500 0.062500
vt 0.187500 1.000000
vt 0.500000 0.937500
vt 0.187500 0.000000
vt 0.187500 0.062500
vt 0.187500 0.937500
vt 0.187500 0.937500
vt 0.187500 0.937500
vt 0.187500 0.937500
vt 0.187500 0.937500
vt 0.812500 0.000000
vt 0.187500 0.937500
vt 0.187500 0.062500
vt 0.187500 0.062500
vt 0.187500 0.937500
vt 0.812500 0.000000
vt 0.187500 0.937500
vn 0.3827 0.0000 -0.9239
vn 0.9239 0.0000 -0.3827
vn 0.9239 0.0000 0.3827
vn 0.3827 0.0000 0.9239
vn -0.3827 0.0000 0.9239
vn -0.9239 0.0000 0.3827
vn -0.9239 0.0000 -0.3827
vn -0.3827 0.0000 -0.9239
s off
f 38/37/3 39/38/3 37/39/3
f 40/40/4 41/41/4 39/42/4
f 42/43/5 43/44/5 41/41/5
f 44/45/6 45/46/6 43/47/6
f 46/48/7 47/49/7 45/46/7
f 48/50/8 49/51/8 47/52/8
f 50/53/9 51/54/9 49/51/9
f 52/55/10 37/39/10 51/56/10
f 74/57/7 81/58/7 73/59/7
f 56/60/3 57/61/3 55/62/3
f 76/63/9 79/64/9 75/65/9
f 58/66/4 59/67/4 57/68/4
f 71/69/4 84/70/4 53/71/4
f 60/72/5 61/73/5 59/67/5
f 75/65/8 80/74/8 74/75/8
f 62/76/6 63/77/6 61/78/6
f 54/79/10 77/80/10 76/81/10
f 64/82/7 65/83/7 63/77/7
f 72/84/5 83/85/5 71/69/5
f 66/86/8 67/87/8 65/88/8
f 73/59/6 82/89/6 72/90/6
f 68/91/9 69/92/9 67/87/9
f 53/93/3 78/94/3 54/79/3
f 70/95/10 55/62/10 69/96/10
f 38/37/3 40/97/3 39/38/3
f 40/40/4 42/43/4 41/41/4
f 42/43/5 44/98/5 43/44/5
f 44/45/6 46/48/6 45/46/6
f 46/48/7 48/99/7 47/49/7
f 48/50/8 50/53/8 49/51/8
f 50/53/9 52/100/9 51/54/9
f 52/55/10 38/37/10 37/39/10
f 74/57/7 80/101/7 81/58/7
f 56/60/3 58/102/3 57/61/3
f 76/63/9 77/103/9 79/64/9
f 58/66/4 60/72/4 59/67/4
f 71/69/4 83/85/4 84/70/4
f 60/72/5 62/104/5 61/73/5
f 75/65/8 79/64/8 80/74/8
f 62/76/6 64/82/6 63/77/6
f 54/79/10 78/94/10 77/80/10
f 64/82/7 66/105/7 65/83/7
f 72/84/5 82/106/5 83/85/5
f 66/86/8 68/91/8 67/87/8
f 73/59/6 81/58/6 82/89/6
f 68/91/9 70/107/9 69/92/9
f 53/93/3 84/108/3 78/94/3
f 70/95/10 56/60/10 55/62/10
