# Blender v2.79 (sub 0) OBJ File: 'pipe.blend'
# www.blender.org
o Top
v 0.000000 -0.500000 -0.375000
v 0.000000 0.500000 -0.375000
v 0.265165 -0.500000 -0.265165
v 0.265165 0.500000 -0.265165
v 0.375000 -0.500000 0.000000
v 0.375000 0.500000 0.000000
v 0.265165 -0.500000 0.265165
v 0.265165 0.500000 0.265165
v -0.000000 -0.500000 0.375000
v -0.000000 0.500000 0.375000
v -0.265165 -0.500000 0.265165
v -0.265165 0.500000 0.265165
v -0.375000 -0.500000 -0.000000
v -0.375000 0.500000 -0.000000
v -0.265165 -0.500000 -0.265165
v -0.265165 0.500000 -0.265165
v -0.000000 0.500000 0.000000
v -0.000000 -0.500000 0.000000
vt 0.500000 0.125000
vt 0.500000 0.500000
vt 0.750000 0.250000
vt 0.250000 0.250000
vt 0.500000 0.500000
vt 0.500000 0.125000
vt 0.750000 0.750000
vt 0.500000 0.875000
vt 0.250000 0.750000
vt 0.125000 0.500000
vt 0.875000 0.500000
vt 0.250000 0.250000
vt 0.750000 0.250000
vt 0.750000 0.750000
vt 0.500000 0.875000
vt 0.250000 0.750000
vt 0.125000 0.500000
vt 0.875000 0.500000
vn 0.0000 1.0000 0.0000
vn 0.0000 -1.0000 0.0000
s off
f 4/1/1 17/2/1 6/3/1
f 1/4/2 18/5/2 15/6/2
f 10/7/1 17/2/1 12/8/1
f 14/9/1 17/2/1 16/10/1
f 6/3/1 17/2/1 8/11/1
f 12/8/1 17/2/1 14/9/1
f 17/2/1 4/1/1 2/12/1
f 8/11/1 17/2/1 10/7/1
f 16/10/1 17/2/1 2/12/1
f 15/6/2 18/5/2 13/13/2
f 9/14/2 18/5/2 7/15/2
f 18/5/2 5/16/2 7/15/2
f 5/16/2 18/5/2 3/17/2
f 13/13/2 18/5/2 11/18/2
f 3/17/2 18/5/2 1/4/2
f 11/18/2 18/5/2 9/14/2
o Side
v 0.000000 -0.500000 -0.375000
v 0.000000 0.500000 -0.375000
v 0.265165 -0.500000 -0.265165
v 0.265165 0.500000 -0.265165
v 0.375000 -0.500000 0.000000
v 0.375000 0.500000 0.000000
v 0.265165 -0.500000 0.265165
v 0.265165 0.500000 0.265165
v -0.000000 -0.500000 0.375000
v -0.000000 0.500000 0.375000
v -0.265165 -0.500000 0.265165
v -0.265165 0.500000 0.265165
v -0.375000 -0.500000 -0.000000
v -0.375000 0.500000 -0.000000
v -0.265165 -0.500000 -0.265165
v -0.265165 0.500000 -0.265165
vt 0.500000 1.000000
vt 0.187500 0.000000
vt 0.500000 0.000000
vt 0.812500 1.000000
vt 0.500000 -0.000000
vt 0.812500 -0.000000
vt 0.500000 1.000000
vt 0.187500 0.000000
vt 0.812500 1.000000
vt 0.500000 0.000000
vt 0.812500 0.000000
vt 0.500000 1.000000
vt 0.187500 0.000000
vt 0.812500 1.000000
vt 0.500000 0.000000
vt 0.812500 0.000000
vt 0.500000 1.000000
vt 0.187500 0.000000
vt 0.812500 1.000000
vt 0.812500 0.000000
vt 0.187500 1.000000
vt 0.187500 1.000000
vt 0.187500 1.000000
vt 0.187500 1.000000
vn 0.3827 0.0000 -0.9239
vn 0.9239 0.0000 -0.3827
vn 0.9239 0.0000 0.3827
vn 0.3827 0.0000 0.9239
vn -0.3827 0.0000 0.9239
vn -0.9239 0.0000 0.3827
vn -0.9239 0.0000 -0.3827
vn -0.3827 0.0000 -0.9239
s off
f 20/19/3 21/20/3 19/21/3
f 22/22/4 23/23/4 21/24/4
f 24/25/5 25/26/5 23/23/5
f 26/27/6 27/28/6 25/29/6
f 28/30/7 29/31/7 27/28/7
f 30/32/8 31/33/8 29/34/8
f 32/35/9 33/36/9 31/33/9
f 34/37/10 19/21/10 33/38/10
f 20/19/3 22/39/3 21/20/3
f 22/22/4 24/25/4 23/23/4
f 24/25/5 26/40/5 25/26/5
f 26/27/6 28/30/6 27/28/6
f 28/30/7 30/41/7 29/31/7
f 30/32/8 32/35/8 31/33/8
f 32/35/9 34/42/9 33/36/9
f 34/37/10 20/19/10 19/21/10
