# Blender v2.76 (sub 0) OBJ File: 'pole.blend'
# www.blender.org
o Cube_Cube.001
v -0.031250 0.875000 -0.312500
v 0.031250 0.875000 -0.312500
v 0.343750 0.062500 0.312500
v 0.281250 0.062500 0.312500
v 0.281250 0.125000 0.312500
v 0.343750 0.125000 0.312500
v 0.031250 0.937500 -0.312500
v -0.031250 0.937500 -0.312500
v -0.062500 0.000000 -0.375000
v -0.062500 1.000000 -0.375000
v 0.062500 0.000000 -0.375000
v 0.062500 1.000000 -0.375000
v -0.062500 0.000000 -0.250000
v -0.062500 1.000000 -0.250000
v 0.062500 0.000000 -0.250000
v 0.062500 1.000000 -0.250000
v 0.250000 0.000000 0.250000
v 0.250000 1.000000 0.250000
v 0.375000 0.000000 0.250000
v 0.375000 1.000000 0.250000
v 0.250000 0.000000 0.375000
v 0.250000 1.000000 0.375000
v 0.375000 0.000000 0.375000
v 0.375000 1.000000 0.375000
v -0.375000 0.000000 0.250000
v -0.375000 1.000000 0.250000
v -0.250000 0.000000 0.250000
v -0.250000 1.000000 0.250000
v -0.375000 0.000000 0.375000
v -0.375000 1.000000 0.375000
v -0.250000 0.000000 0.375000
v -0.250000 1.000000 0.375000
v -0.031250 0.875000 -0.312500
v 0.031250 0.875000 -0.312500
v -0.281250 0.062500 0.312500
v -0.343750 0.062500 0.312500
v -0.343750 0.125000 0.312500
v -0.281250 0.125000 0.312500
v 0.031250 0.937500 -0.312500
v -0.031250 0.937500 -0.312500
v -0.031250 0.062500 -0.312500
v 0.031250 0.062500 -0.312500
v 0.343750 0.875000 0.312500
v 0.281250 0.875000 0.312500
v 0.281250 0.937500 0.312500
v 0.343750 0.937500 0.312500
v 0.031250 0.125000 -0.312500
v -0.031250 0.125000 -0.312500
v -0.031250 0.062500 -0.312500
v 0.031250 0.062500 -0.312500
v -0.281250 0.875000 0.312500
v -0.343750 0.875000 0.312500
v -0.343750 0.937500 0.312500
v -0.281250 0.937500 0.312500
v 0.031250 0.125000 -0.312500
v -0.031250 0.125000 -0.312500
v 0.312500 0.125000 0.281250
v 0.312500 0.125000 0.343750
v -0.312500 0.937500 0.281250
v -0.312500 0.937500 0.343750
v 0.312500 0.062500 0.281250
v 0.312500 0.062500 0.343750
v -0.312500 0.875000 0.281250
v -0.312500 0.875000 0.343750
v -0.312500 0.125000 0.343750
v -0.312500 0.125000 0.281250
v 0.312500 0.937500 0.343750
v 0.312500 0.937500 0.281250
v -0.312500 0.062500 0.343750
v -0.312500 0.062500 0.281250
v 0.312500 0.875000 0.343750
v 0.312500 0.875000 0.281250
vt 0.937500 0.625000
vt 0.187500 0.625000
vt 0.187500 0.562500
vt 0.937500 0.562500
vt 0.125000 0.000000
vt 0.125000 1.000000
vt -0.000000 1.000000
vt 0.000000 0.000000
vt -0.000000 0.875000
vt 0.125000 0.875000
vn -0.894400 0.000000 -0.447200
vn 0.894400 0.000000 0.447200
vn 0.894400 0.000000 -0.447200
vn -0.894400 0.000000 0.447200
vn 0.000000 -0.609700 -0.792600
vn 0.000000 0.609700 0.792600
vn -1.000000 0.000000 0.000000
vn 0.000000 0.000000 -1.000000
vn 0.000000 0.000000 1.000000
vn 1.000000 0.000000 0.000000
vn 0.000000 -1.000000 0.000000
vn 0.000000 1.000000 0.000000
vn 0.000000 -0.609700 0.792600
vn 0.000000 0.609700 -0.792600
vn 0.792600 0.609700 0.000000
vn -0.792600 -0.609700 0.000000
vn 0.792600 -0.609700 0.000000
vn -0.792600 0.609700 0.000000
s off
f 33/1/1 36/2/1 37/3/1
f 38/2/2 35/3/2 34/4/2
f 6/2/3 3/3/3 2/4/3
f 1/1/4 4/2/4 5/3/4
f 4/3/5 1/4/5 2/1/5
f 7/4/6 8/1/6 5/2/6
f 13/5/7 14/6/7 10/7/7
f 10/6/8 12/7/8 11/8/8
f 15/5/9 16/6/9 14/7/9
f 12/8/10 16/5/10 15/6/10
f 9/9/11 11/10/11 15/6/11
f 16/7/12 12/9/12 10/10/12
f 21/5/7 22/6/7 18/7/7
f 18/6/8 20/7/8 19/8/8
f 23/5/9 24/6/9 22/7/9
f 20/8/10 24/5/10 23/6/10
f 17/9/11 19/10/11 23/6/11
f 24/7/12 20/9/12 18/10/12
f 29/5/7 30/6/7 26/7/7
f 26/6/8 28/7/8 27/8/8
f 31/5/9 32/6/9 30/7/9
f 28/6/10 32/7/10 31/8/10
f 25/9/11 27/10/11 31/6/11
f 32/7/12 28/9/12 26/10/12
f 35/2/5 36/3/5 33/4/5
f 38/3/6 39/4/6 40/1/6
f 56/2/1 49/3/1 52/4/1
f 55/3/2 54/4/2 51/1/2
f 47/3/3 46/4/3 43/1/3
f 48/2/4 41/3/4 44/4/4
f 44/1/13 41/2/13 42/3/13
f 47/2/14 48/3/14 45/4/14
f 51/4/13 52/1/13 49/2/13
f 54/1/14 55/2/14 56/3/14
f 57/3/15 59/4/15 60/1/15
f 64/4/16 63/1/16 61/2/16
f 58/3/9 60/4/9 64/1/9
f 72/4/17 71/1/17 69/2/17
f 57/2/8 61/3/8 63/4/8
f 65/3/18 67/4/18 68/1/18
f 66/3/8 68/4/8 72/1/8
f 65/2/9 69/3/9 71/4/9
f 40/4/1 33/1/1 37/3/1
f 39/1/2 38/2/2 34/4/2
f 7/1/3 6/2/3 2/4/3
f 8/4/4 1/1/4 5/3/4
f 3/2/5 4/3/5 2/1/5
f 6/3/6 7/4/6 5/2/6
f 9/8/7 13/5/7 10/7/7
f 9/5/8 10/6/8 11/8/8
f 13/8/9 15/5/9 14/7/9
f 11/7/10 12/8/10 15/6/10
f 13/7/11 9/9/11 15/6/11
f 14/6/12 16/7/12 10/10/12
f 17/8/7 21/5/7 18/7/7
f 17/5/8 18/6/8 19/8/8
f 21/8/9 23/5/9 22/7/9
f 19/7/10 20/8/10 23/6/10
f 21/7/11 17/9/11 23/6/11
f 22/6/12 24/7/12 18/10/12
f 25/8/7 29/5/7 26/7/7
f 25/5/8 26/6/8 27/8/8
f 29/8/9 31/5/9 30/7/9
f 27/5/10 28/6/10 31/8/10
f 29/7/11 25/9/11 31/6/11
f 30/6/12 32/7/12 26/10/12
f 34/1/5 35/2/5 33/4/5
f 37/2/6 38/3/6 40/1/6
f 53/1/1 56/2/1 52/4/1
f 50/2/2 55/3/2 51/1/2
f 42/2/3 47/3/3 43/1/3
f 45/1/4 48/2/4 44/4/4
f 43/4/13 44/1/13 42/3/13
f 46/1/14 47/2/14 45/4/14
f 50/3/13 51/4/13 49/2/13
f 53/4/14 54/1/14 56/3/14
f 58/2/15 57/3/15 60/1/15
f 62/3/16 64/4/16 61/2/16
f 62/2/9 58/3/9 64/1/9
f 70/3/17 72/4/17 69/2/17
f 59/1/8 57/2/8 63/4/8
f 66/2/18 65/3/18 68/1/18
f 70/2/8 66/3/8 72/1/8
f 67/1/9 65/2/9 71/4/9
