# Blender 4.0.2
# www.blender.org
mtllib puter.mtl
o Cube.003
v -0.312500 -0.125000 0.062500
v -0.312500 0.312500 0.062500
v 0.312500 -0.125000 0.062500
v -0.375000 -0.187500 0.062500
v -0.312500 -0.125000 0.000000
v -0.312500 0.312500 0.000000
v 0.312500 -0.125000 -0.000000
v -0.250000 -0.062500 0.062500
v -0.250000 0.250000 0.062500
v 0.250000 -0.062500 0.062500
v 0.250000 0.250000 0.062500
v 0.312500 0.312500 -0.000000
v 0.312500 0.312500 0.062500
v 0.375000 0.375000 0.062500
v 0.375000 0.375000 -0.312500
v 0.375000 -0.187500 0.062500
v -0.375000 0.375000 0.062500
v -0.375000 0.375000 -0.312500
v -0.375000 -0.187500 -0.312500
v -0.312500 0.312500 -0.312500
v -0.312500 -0.187500 -0.312500
v 0.312500 0.312500 -0.312500
v -0.312500 0.250000 -0.500000
v -0.312500 -0.187500 -0.500000
v 0.312500 0.250000 -0.500000
v 0.312500 -0.187500 -0.500000
v 0.312500 -0.187500 -0.312500
v 0.375000 -0.187500 -0.312500
v -0.375000 -0.500000 0.500000
v -0.375000 -0.500000 0.187500
v -0.375000 -0.437500 0.500000
v 0.375000 -0.500000 0.500000
v 0.375000 -0.500000 0.187500
v 0.375000 -0.437500 0.500000
v 0.375000 -0.375000 0.187500
v -0.375000 -0.375000 0.187500
v -0.375000 -0.500000 0.125000
v -0.375000 -0.500000 -0.500000
v -0.375000 -0.312500 0.125000
v 0.375000 -0.500000 0.125000
v 0.375000 -0.500000 -0.500000
v 0.375000 -0.312500 0.125000
v 0.375000 -0.312500 -0.500000
v -0.375000 -0.312500 -0.500000
v -0.000000 -0.250000 -0.312500
v 0.108253 -0.250000 -0.250000
v -0.000000 -0.187500 -0.312500
v -0.108253 -0.250000 -0.250000
v -0.108253 -0.250000 -0.125000
v -0.108253 -0.187500 -0.250000
v -0.108253 -0.187500 -0.125000
v -0.000000 -0.187500 -0.062500
v 0.108253 -0.187500 -0.125000
v -0.000000 -0.250000 -0.062500
v 0.108253 -0.250000 -0.125000
v 0.108253 -0.187500 -0.250000
v -0.312500 -0.312500 0.062500
v -0.312500 -0.312500 -0.437500
v -0.250000 -0.250000 0.000000
v 0.312500 -0.312500 0.062500
v 0.312500 -0.312500 -0.437500
v 0.250000 -0.250000 -0.000000
v 0.250000 -0.250000 -0.375000
v -0.250000 -0.250000 -0.375000
vn -0.0000 -0.0000 1.0000
vn 1.0000 -0.0000 -0.0000
vn -0.0000 1.0000 -0.0000
vn -0.3002 0.3002 0.9054
vn -0.4082 -0.4082 0.8165
vn -0.3002 -0.3002 0.9054
vn 0.4082 -0.4082 0.8165
vn 0.3002 -0.3002 0.9054
vn 0.4082 0.4082 0.8165
vn 0.3002 0.3002 0.9054
vn -0.4082 0.4082 0.8165
vn -1.0000 -0.0000 -0.0000
vn -0.0000 -1.0000 -0.0000
vn -0.0000 -0.0000 -1.0000
vn -0.0000 0.9487 -0.3162
vn -0.0000 0.9806 0.1961
vn 0.8660 -0.0000 -0.5000
vn -0.8660 -0.0000 -0.5000
vn -0.8660 -0.0000 0.5000
vn 0.8660 -0.0000 0.5000
vn -0.7071 0.7071 -0.0000
vn -0.0000 0.7071 0.7071
vn 0.7071 0.7071 -0.0000
vn -0.0000 0.7071 -0.7071
vt 0.106061 0.893939
vt 0.090909 0.772727
vt 0.106061 0.787879
vt 0.378788 0.787879
vt 0.393939 0.893939
vt 0.378788 0.893939
vt 0.545455 0.757576
vt 0.363636 0.772727
vt 0.363636 0.757576
vt 0.272727 0.772727
vt 0.257576 0.787879
vt 0.121212 0.878788
vt 0.121212 0.803030
vt 0.242424 0.803030
vt 0.257576 0.893939
vt 0.242424 0.878788
vt 0.530303 0.893939
vt 0.515152 0.787879
vt 0.530303 0.787879
vt 0.545455 0.909091
vt 0.363636 0.924242
vt 0.363636 0.909091
vt 0.272727 0.909091
vt 0.090909 0.909091
vt 0.090909 1.000000
vt 0.272727 1.000000
vt 0.000000 0.772727
vt 0.545455 0.772727
vt 0.803030 0.848485
vt 0.757576 0.954545
vt 0.757576 0.848485
vt 0.606061 1.000000
vt 0.757576 1.000000
vt 0.606061 0.848485
vt 0.560606 0.848485
vt 0.606061 0.954545
vt 0.560606 0.969697
vt 0.757576 0.803030
vt 0.606061 0.803030
vt 0.378788 0.772727
vt 0.272727 0.681818
vt 0.090909 0.681818
vt 0.621212 0.560606
vt 0.439394 0.636364
vt 0.439394 0.560606
vt 0.439394 0.651515
vt 0.363636 0.636364
vt 0.621212 0.651515
vt 0.621212 0.636364
vt 0.696970 0.636364
vt 0.439394 0.727273
vt 0.621212 0.727273
vt 0.878788 0.666667
vt 0.878788 0.636364
vt 0.348485 0.318182
vt 0.166667 0.469697
vt 0.166667 0.318182
vt 0.166667 0.515152
vt 0.015152 0.469697
vt 0.348485 0.515152
vt 0.348485 0.469697
vt 0.500000 0.515152
vt 0.500000 0.469697
vt 0.166667 0.666667
vt 0.348485 0.666667
vt 0.681818 0.515152
vt 0.681818 0.469697
vt 0.439394 1.000000
vt 0.409091 0.984848
vt 0.439394 0.984848
vt 0.469697 1.000000
vt 0.469697 0.984848
vt 0.318182 1.000000
vt 0.287879 0.984848
vt 0.318182 0.984848
vt 0.348485 1.000000
vt 0.348485 0.984848
vt 0.378788 1.000000
vt 0.378788 0.984848
vt 0.409091 1.000000
vt 0.015152 0.560606
vt -0.000000 0.666667
vt 0.000000 0.545455
vt 0.136364 0.560606
vt 0.151515 0.545455
vt 0.136364 0.651515
vt 0.151515 0.666667
vt 0.015152 0.651515
vt 0.393939 0.787879
vt 0.515152 0.893939
vt 0.545455 0.924242
vt 0.000000 0.909091
vt 0.530303 0.772727
vt 0.803030 0.969697
vt 0.363636 0.666667
vt 0.696970 0.666667
vt 0.015152 0.515152
vt 0.287879 1.000000
s 1
usemtl Texture
f 2/1/1 4/2/1 1/3/1
f 1/4/2 6/5/2 2/6/2
f 3/7/3 5/8/3 1/9/3
f 1/3/1 16/10/1 3/11/1
f 9/12/4 5/3/5 8/13/6
f 8/13/6 7/11/7 10/14/8
f 10/14/8 9/12/4 8/13/6
f 10/14/8 12/15/9 11/16/10
f 11/16/10 6/1/11 9/12/4
f 13/17/12 7/18/12 3/19/12
f 2/20/13 12/21/13 13/22/13
f 3/11/1 14/23/1 13/15/1
f 13/15/1 17/24/1 2/1/1
f 15/22/2 16/10/2 28/8/2
f 18/25/3 14/23/3 15/26/3
f 17/24/12 19/27/12 4/2/12
f 20/17/14 19/28/14 18/20/14
f 20/17/14 15/22/14 22/6/14
f 21/29/12 23/30/12 24/31/12
f 22/32/15 23/30/15 20/33/15
f 23/30/14 26/34/14 24/31/14
f 27/35/2 25/36/2 22/37/2
f 21/38/13 26/34/13 27/39/13
f 22/6/14 28/8/14 27/40/14
f 28/41/13 4/2/13 19/42/13
f 33/43/13 29/44/13 30/45/13
f 31/46/12 30/47/12 29/44/12
f 34/48/1 29/44/1 32/49/1
f 33/50/2 34/48/2 32/49/2
f 36/51/16 34/48/16 35/52/16
f 36/53/14 33/50/14 30/54/14
f 41/55/13 37/56/13 38/57/13
f 39/58/12 38/59/12 37/56/12
f 42/60/1 37/56/1 40/61/1
f 43/62/2 40/61/2 41/63/2
f 44/64/3 42/60/3 43/65/3
f 44/66/14 41/63/14 38/67/14
f 47/68/14 46/69/17 45/70/14
f 50/71/18 45/70/14 48/72/18
f 51/73/19 48/74/18 49/75/19
f 52/76/1 49/75/19 54/77/1
f 53/78/20 54/77/1 55/79/20
f 56/80/17 55/79/20 46/69/17
f 59/81/21 58/82/21 57/83/21
f 62/84/22 57/83/22 60/85/22
f 63/86/23 60/85/23 61/87/23
f 64/88/3 62/84/3 63/86/3
f 64/88/24 61/87/24 58/82/24
f 2/1/1 17/24/1 4/2/1
f 1/4/2 5/89/2 6/5/2
f 3/7/3 7/28/3 5/8/3
f 1/3/1 4/2/1 16/10/1
f 9/12/4 6/1/11 5/3/5
f 8/13/6 5/3/5 7/11/7
f 10/14/8 11/16/10 9/12/4
f 10/14/8 7/11/7 12/15/9
f 11/16/10 12/15/9 6/1/11
f 13/17/12 12/90/12 7/18/12
f 2/20/13 6/91/13 12/21/13
f 3/11/1 16/10/1 14/23/1
f 13/15/1 14/23/1 17/24/1
f 15/22/2 14/23/2 16/10/2
f 18/25/3 17/24/3 14/23/3
f 17/24/12 18/92/12 19/27/12
f 20/17/14 21/93/14 19/28/14
f 20/17/14 18/20/14 15/22/14
f 21/29/12 20/94/12 23/30/12
f 22/32/15 25/36/15 23/30/15
f 23/30/14 25/36/14 26/34/14
f 27/35/2 26/34/2 25/36/2
f 21/38/13 24/31/13 26/34/13
f 22/6/14 15/22/14 28/8/14
f 28/41/13 16/10/13 4/2/13
f 33/43/13 32/49/13 29/44/13
f 31/46/12 36/95/12 30/47/12
f 34/48/1 31/46/1 29/44/1
f 33/50/2 35/96/2 34/48/2
f 36/51/16 31/46/16 34/48/16
f 36/53/14 35/96/14 33/50/14
f 41/55/13 40/61/13 37/56/13
f 39/58/12 44/97/12 38/59/12
f 42/60/1 39/58/1 37/56/1
f 43/62/2 42/60/2 40/61/2
f 44/64/3 39/58/3 42/60/3
f 44/66/14 43/62/14 41/63/14
f 47/68/14 56/80/17 46/69/17
f 50/71/18 47/68/14 45/70/14
f 51/73/19 50/98/18 48/74/18
f 52/76/1 51/73/19 49/75/19
f 53/78/20 52/76/1 54/77/1
f 56/80/17 53/78/20 55/79/20
f 59/81/21 64/88/21 58/82/21
f 62/84/22 59/81/22 57/83/22
f 63/86/23 62/84/23 60/85/23
f 64/88/3 59/81/3 62/84/3
f 64/88/24 63/86/24 61/87/24
