# Blender v2.79 (sub 0) OBJ File: ''
# www.blender.org
o Cube.002
v -0.182506 -0.356313 -0.499021
v -0.202175 -0.376577 -0.479353
v -0.202175 -0.356313 -0.479353
v 0.202175 -0.376577 -0.479353
v 0.182506 -0.356313 -0.499021
v 0.202175 -0.356313 -0.479353
v 0.182506 -0.356313 0.025979
v -0.182506 -0.376577 0.025979
v 0.182506 -0.376577 0.025979
v 0.168634 -0.353125 -0.007583
v 0.168634 -0.353125 -0.465459
v -0.168634 -0.353125 -0.007583
v 0.202175 -0.356313 0.006310
v -0.202175 -0.356313 0.006310
v -0.202175 -0.376577 0.006310
v -0.182475 -0.376637 -0.499021
v 0.182509 -0.376637 -0.499021
v 0.202175 -0.376577 0.006310
v -0.168634 -0.353125 -0.465459
v -0.182506 -0.356313 0.025979
v 0.236819 -0.376637 0.112318
v -0.236819 -0.391892 0.112318
v 0.236819 -0.391892 0.112318
v 0.262500 -0.500000 -0.434422
v 0.262500 -0.500000 -0.000000
v -0.262500 -0.500000 -0.434422
v 0.243379 -0.500000 0.123162
v 0.269772 -0.391892 0.010843
v 0.243379 -0.391892 0.123162
v 0.262500 -0.391892 -0.000000
v -0.236819 -0.376637 0.112318
v -0.262500 -0.391892 -0.000000
v -0.262500 -0.500000 -0.000000
v -0.269772 -0.391892 0.010843
v 0.242168 -0.500000 -0.499021
v -0.242168 -0.500000 -0.499021
v -0.262500 -0.376637 -0.434422
v -0.242168 -0.376637 -0.499021
v 0.242168 -0.376637 -0.499021
v 0.262500 -0.376637 -0.434422
v 0.236819 -0.500000 0.112318
v 0.269772 -0.500000 0.010843
v -0.243379 -0.500000 0.123162
v -0.236819 -0.500000 0.112318
v 0.262500 -0.376637 -0.000000
v -0.243379 -0.391892 0.123162
v -0.269772 -0.500000 0.010843
v -0.262500 -0.376637 -0.000000
vt 0.737500 0.775000
vt 0.750000 0.787500
vt 0.737500 0.787500
vt 0.975000 0.787500
vt 0.962500 0.775000
vt 0.975000 0.775000
vt 0.962500 0.725000
vt 0.750000 0.712500
vt 0.962500 0.712500
vt 0.962500 0.062500
vt 0.962500 0.350000
vt 0.750000 0.062500
vt 0.975000 0.725000
vt 0.937500 0.400000
vt 0.925000 0.712500
vt 0.925000 0.400000
vt 0.737500 0.787500
vt 0.962500 0.787500
vt 0.962500 0.712500
vt 0.975000 0.400000
vt 0.975000 0.712500
vt 0.950000 0.700000
vt 0.950000 0.412500
vt 0.750000 0.750000
vt 0.962500 0.750000
vt 0.950000 0.412500
vt 0.962500 0.400000
vt 0.750000 0.775000
vt 0.962500 0.750000
vt 0.750000 0.725000
vt 0.737500 0.712500
vt 0.650000 0.075000
vt 0.362500 0.062500
vt 0.650000 0.062500
vt 0.575000 0.475000
vt 0.700000 0.475000
vt 0.575000 0.662500
vt 0.350000 0.162500
vt 0.412500 0.225000
vt 0.350000 0.225000
vt 0.425000 0.225000
vt 0.425000 0.162500
vt 0.687500 0.162500
vt 0.350000 0.150000
vt 0.425000 0.137500
vt 0.350000 0.137500
vt 0.425000 0.075000
vt 0.412500 0.137500
vt 0.725000 0.000000
vt 0.937500 0.000000
vt 0.975000 0.062500
vt 0.725000 0.075000
vt 0.687500 0.150000
vt 0.725000 0.150000
vt 0.725000 0.237500
vt 0.687500 0.237500
vt 0.750000 0.487500
vt 0.712500 0.475000
vt 0.762500 0.487500
vt 0.537500 0.150000
vt 0.350000 0.162500
vt 0.350000 0.150000
vt 0.762500 0.650000
vt 0.750000 0.650000
vt 0.350000 0.225000
vt 0.425000 0.237500
vt 0.350000 0.237500
vt 0.587500 0.162500
vt 0.537500 0.162500
vt 0.350000 0.137500
vt 0.412500 0.075000
vt 0.350000 0.075000
vt 0.412500 0.162500
vt 0.687500 0.075000
vt 0.587500 0.162500
vt 0.637500 0.150000
vt 0.637500 0.162500
vt 0.712500 0.662500
vt 0.700000 0.662500
vt 0.350000 0.062500
vt 0.662500 0.000000
vt 0.662500 0.062500
vt 0.912500 0.412500
vt 0.862500 0.687500
vt 0.862500 0.375000
vt 0.750000 0.775000
vt 0.750000 0.350000
vt 0.975000 0.712500
vt 0.937500 0.712500
vt 0.737500 0.725000
vt 0.750000 0.750000
vt 0.737500 0.775000
vt 0.950000 0.700000
vt 0.362500 0.075000
vt 0.537500 0.650000
vt 0.537500 0.487500
vt 0.425000 0.150000
vt 0.975000 0.000000
vt 0.662500 0.062500
vt 0.662500 0.000000
vt 0.725000 0.162500
vt 0.587500 0.150000
vt 0.587500 0.150000
vt 0.350000 0.000000
vt 0.862500 0.687500
vt 0.875000 0.700000
vt 0.825000 0.700000
vt 0.812500 0.650000
vt 0.812500 0.350000
vt 0.862500 0.375000
vt 0.925000 0.350000
vt 0.925000 0.400000
vt 0.812500 0.350000
vt 0.812500 0.650000
vt 0.762500 0.375000
vt 0.800000 0.700000
vt 0.762500 0.687500
vt 0.750000 0.700000
vt 0.925000 0.712500
vt 0.925000 0.662500
vt 0.912500 0.650000
vn -0.7071 0.0000 -0.7071
vn 0.7071 0.0000 -0.7071
vn 0.0000 -0.0000 1.0000
vn 0.0000 1.0000 0.0000
vn 0.7071 -0.0000 0.7071
vn -1.0000 0.0000 0.0000
vn 0.0000 0.0000 -1.0000
vn 1.0000 0.0000 0.0000
vn -0.0946 0.9955 0.0000
vn 0.0000 0.9955 0.0946
vn 0.0946 0.9955 0.0000
vn 0.0000 0.9955 -0.0946
vn -0.7071 -0.0000 0.7071
vn 0.0000 -1.0000 -0.0000
vn 0.9735 0.0000 0.2288
vn -0.9748 0.0000 0.2229
vn -0.8305 0.0000 -0.5570
vn -0.9539 0.0000 -0.3002
vn 0.9539 0.0000 -0.3002
vn 0.9748 0.0000 0.2229
vn -0.9735 0.0000 0.2288
vn 0.8305 0.0000 -0.5570
vn 0.0000 1.0000 0.0007
vn -0.7065 -0.0011 -0.7077
vn 0.7071 0.0001 -0.7071
vn -0.0669 0.9955 0.0669
vn -0.0669 0.9955 -0.0669
vn 0.0669 0.9955 -0.0669
vn 0.0669 0.9955 0.0669
vn 0.0000 1.0000 -0.0031
vn -0.0013 1.0000 -0.0004
vn -0.0010 1.0000 0.0000
vn 0.0010 1.0000 0.0002
vn 0.0010 1.0000 0.0000
vn 0.0013 1.0000 -0.0004
vn -0.0010 1.0000 0.0002
vn -0.0004 1.0000 0.0004
vn 0.0004 1.0000 0.0004
s off
f 1/1/1 2/2/1 3/3/1
f 4/4/2 5/5/2 6/6/2
f 7/7/3 8/8/3 9/9/3
f 10/10/4 11/11/4 12/12/4
f 9/9/5 13/13/5 7/7/5
f 14/14/6 2/15/6 15/16/6
f 16/17/7 5/5/7 17/18/7
f 6/19/8 18/20/8 4/21/8
f 19/22/9 14/14/9 12/23/9
f 12/24/10 7/7/10 10/25/10
f 6/19/11 10/26/11 13/27/11
f 1/28/12 11/29/12 5/5/12
f 20/30/13 15/31/13 8/8/13
f 21/32/3 22/33/3 23/34/3
f 24/35/14 25/36/14 26/37/14
f 27/38/15 28/39/15 29/40/15
f 30/41/8 25/42/8 24/43/8
f 31/44/16 32/45/16 22/46/16
f 33/47/17 34/48/17 32/45/17
f 16/49/7 17/50/7 35/51/7
f 36/52/18 37/53/18 38/54/18
f 24/43/19 39/55/19 40/56/19
f 41/57/14 42/58/14 27/59/14
f 22/60/4 29/61/4 23/62/4
f 41/57/14 43/63/14 44/64/14
f 23/65/20 45/66/20 21/67/20
f 22/60/4 34/68/4 46/69/4
f 46/70/21 47/71/21 43/72/21
f 30/41/22 42/73/22 25/42/22
f 26/74/6 32/45/6 37/53/6
f 23/75/4 28/76/4 30/77/4
f 44/64/14 47/78/14 33/79/14
f 46/80/3 27/81/3 29/82/3
f 9/83/23 31/84/23 21/85/23
f 1/1/24 16/86/24 2/2/24
f 4/4/25 17/18/25 5/5/25
f 7/7/3 20/30/3 8/8/3
f 19/87/4 12/12/4 11/11/4
f 9/9/5 18/88/5 13/13/5
f 14/14/6 3/89/6 2/15/6
f 16/17/7 1/1/7 5/5/7
f 6/19/8 13/27/8 18/20/8
f 12/24/26 14/90/26 20/30/26
f 19/91/27 1/28/27 3/92/27
f 11/29/28 6/6/28 5/5/28
f 10/25/29 7/7/29 13/13/29
f 19/22/9 3/89/9 14/14/9
f 12/24/10 20/30/10 7/7/10
f 6/19/11 11/93/11 10/26/11
f 1/28/12 19/91/12 11/29/12
f 20/30/13 14/90/13 15/31/13
f 21/32/3 31/94/3 22/33/3
f 25/36/14 41/57/14 44/64/14
f 44/64/14 33/79/14 25/36/14
f 33/79/14 26/37/14 25/36/14
f 26/37/14 36/95/14 35/96/14
f 35/96/14 24/35/14 26/37/14
f 27/38/15 42/73/15 28/39/15
f 24/43/8 40/56/8 30/41/8
f 40/56/8 45/66/8 30/41/8
f 31/44/16 48/97/16 32/45/16
f 33/47/17 47/71/17 34/48/17
f 17/50/7 39/98/7 35/51/7
f 35/51/7 36/99/7 16/49/7
f 36/99/7 38/100/7 16/49/7
f 36/52/18 26/74/18 37/53/18
f 24/43/19 35/101/19 39/55/19
f 41/57/14 25/36/14 42/58/14
f 22/60/4 46/69/4 29/61/4
f 41/57/14 27/59/14 43/63/14
f 23/65/20 30/41/20 45/66/20
f 22/60/4 32/102/4 34/68/4
f 46/70/21 34/48/21 47/71/21
f 30/41/22 28/39/22 42/73/22
f 33/47/6 32/45/6 26/74/6
f 32/45/6 48/97/6 37/53/6
f 23/75/4 29/103/4 28/76/4
f 44/64/14 43/63/14 47/78/14
f 46/80/3 43/104/3 27/81/3
f 2/105/30 16/106/30 38/107/30
f 38/107/31 37/108/31 2/105/31
f 37/108/32 48/109/32 15/110/32
f 21/85/33 45/111/33 18/112/33
f 45/113/34 40/114/34 18/115/34
f 40/114/35 39/116/35 4/117/35
f 39/116/30 17/118/30 4/117/30
f 37/108/32 15/110/32 2/105/32
f 48/119/36 31/84/36 15/120/36
f 40/114/34 4/117/34 18/115/34
f 8/121/37 15/120/37 31/84/37
f 21/85/38 18/112/38 9/83/38
f 9/83/23 8/121/23 31/84/23
o Cube.001
v 0.065019 -0.337090 -0.339524
v 0.077958 -0.358688 -0.229123
v 0.077958 -0.358688 -0.352438
v -0.065019 -0.247914 -0.242045
v -0.065019 -0.337090 -0.339524
v -0.065019 -0.337090 -0.242037
v -0.065019 -0.247914 -0.339516
v -0.074076 -0.234429 -0.233013
v -0.074076 -0.234429 -0.348548
v 0.048744 -0.337090 -0.225761
v -0.061658 -0.358688 -0.212822
v 0.061658 -0.358688 -0.212822
v -0.048744 -0.337090 -0.355799
v 0.061658 -0.358688 -0.368738
v -0.061658 -0.358688 -0.368738
v -0.048736 -0.247914 -0.355799
v 0.048744 -0.337090 -0.355799
v 0.065019 -0.247914 -0.339516
v 0.065019 -0.337090 -0.242037
v 0.048736 -0.247914 -0.225761
v -0.048744 -0.337090 -0.225761
v -0.077958 -0.358688 -0.352438
v 0.057767 -0.234429 -0.364857
v 0.048736 -0.247914 -0.355799
v 0.065019 -0.247914 -0.242045
v 0.074076 -0.234429 -0.348548
v 0.074076 -0.234429 -0.233013
v -0.057767 -0.234429 -0.216704
v -0.048736 -0.247914 -0.225761
v -0.057767 -0.234429 -0.364857
v 0.057767 -0.234429 -0.216704
v -0.077958 -0.358688 -0.229123
v -0.228515 -0.193409 -0.478319
v -0.262500 -0.200363 -0.133796
v -0.262500 -0.159424 -0.478319
v -0.228515 0.290571 -0.478319
v -0.262500 0.256505 -0.133796
v -0.228434 0.290571 -0.133796
v 0.262500 -0.234429 0.025979
v 0.228515 -0.193409 -0.478319
v 0.262500 -0.200363 -0.133796
v 0.228434 -0.234429 -0.133796
v 0.262500 -0.159424 -0.478319
v 0.262500 0.256505 -0.133796
v -0.262500 -0.234429 0.025979
v -0.305185 -0.311180 -0.084290
v -0.228434 -0.234429 -0.133796
v 0.305185 0.367322 -0.084290
v 0.228434 0.290571 -0.133796
v 0.305271 0.367322 0.092896
v 0.262500 0.290571 0.092896
v 0.305271 -0.311180 0.092896
v 0.305185 -0.311180 -0.084290
v 0.339251 -0.277114 -0.084290
v -0.305271 0.367322 0.092896
v -0.305185 0.367322 -0.084290
v -0.339251 0.333256 -0.084290
v 0.262500 -0.234429 0.092896
v -0.339251 0.333342 0.092896
v -0.339251 -0.277200 0.092896
v -0.262500 -0.234429 0.092896
v 0.339251 -0.277200 0.092896
v 0.339251 0.333342 0.092896
v -0.339251 -0.277114 -0.084290
v -0.305271 -0.311180 0.092896
v 0.339251 0.333256 -0.084290
v 0.228515 0.290571 -0.478319
v 0.262500 0.256586 -0.478319
v -0.241798 0.248016 -0.499021
v -0.219945 0.269868 -0.499021
v 0.241798 -0.150854 -0.499021
v 0.219945 -0.172706 -0.499021
v 0.241798 0.248016 -0.499021
v -0.241798 -0.150854 -0.499021
v -0.262500 0.256586 -0.478319
v -0.219945 -0.172706 -0.499021
v -0.262500 0.290571 0.025979
v -0.262500 0.290571 0.092896
v 0.262500 0.290571 0.025979
v 0.219945 0.269868 -0.499021
vt 0.325000 0.725000
vt 0.375000 0.737500
vt 0.325000 0.737500
vt 0.450000 0.675000
vt 0.500000 0.725000
vt 0.450000 0.725000
vt 0.500000 0.675000
vt 0.450000 0.662500
vt 0.500000 0.662500
vt 0.387500 0.725000
vt 0.437500 0.737500
vt 0.387500 0.737500
vt 0.512500 0.725000
vt 0.562500 0.737500
vt 0.512500 0.737500
vt 0.512500 0.675000
vt 0.562500 0.725000
vt 0.325000 0.675000
vt 0.375000 0.725000
vt 0.387500 0.675000
vt 0.437500 0.725000
vt 0.325000 0.787500
vt 0.375000 0.800000
vt 0.387500 0.750000
vt 0.562500 0.662500
vt 0.562500 0.675000
vt 0.375000 0.675000
vt 0.325000 0.662500
vt 0.375000 0.662500
vt 0.437500 0.662500
vt 0.437500 0.675000
vt 0.512500 0.737500
vt 0.575000 0.737500
vt 0.575000 0.725000
vt 0.512500 0.662500
vt 0.575000 0.675000
vt 0.575000 0.662500
vt 0.387500 0.662500
vt 0.450000 0.737500
vt 0.375000 0.737500
vt 0.337500 0.737500
vt 0.325000 0.750000
vt 0.337500 0.800000
vt 0.387500 0.787500
vt 0.387500 0.262500
vt 0.375000 0.375000
vt 0.375000 0.262500
vt 0.187500 0.262500
vt 0.200000 0.375000
vt 0.187500 0.375000
vt 0.062500 0.737500
vt 0.262500 0.537500
vt 0.262500 0.737500
vt 0.562500 0.262500
vt 0.575000 0.375000
vt 0.562500 0.375000
vt 0.600000 0.262500
vt 0.750000 0.375000
vt 0.387500 0.412500
vt 0.387500 0.375000
vt 0.012500 0.412500
vt 0.012500 0.375000
vt 0.012500 0.800000
vt -0.000000 0.787500
vt 0.037500 0.762500
vt 0.562500 0.475000
vt 0.562500 0.412500
vt 0.575000 0.412500
vt 0.187500 0.475000
vt 0.187500 0.412500
vt 0.200000 0.412500
vt 0.750000 0.475000
vt 0.575000 0.475000
vt 0.200000 0.475000
vt 0.375000 0.412500
vt 0.375000 0.475000
vt -0.000000 0.487500
vt 0.012500 0.475000
vt 0.037500 0.512500
vt 0.287500 0.762500
vt 0.325000 0.787500
vt 0.312500 0.800000
vt 0.287500 0.512500
vt 0.312500 0.475000
vt 0.325000 0.487500
vt 0.012500 0.475000
vt -0.000000 0.412500
vt 0.350000 0.262500
vt 0.450000 0.312500
vt 0.450000 0.337500
vt 0.500000 0.337500
vt 0.487500 0.350000
vt 0.012500 0.262500
vt -0.000000 0.375000
vt 0.387500 0.475000
vt -0.000000 0.262500
vt 0.200000 0.250000
vt 0.187500 0.250000
vt 0.575000 0.250000
vt 0.562500 0.250000
vt -0.000000 0.250000
vt 0.375000 0.250000
vt 0.200000 0.262500
vt 0.350000 0.250000
vt 0.750000 0.250000
vt 0.750000 0.262500
vt 0.337500 0.475000
vt 0.325000 0.487500
vt 0.325000 0.650000
vt 0.500000 0.312500
vt 0.487500 0.300000
vt 0.462500 0.300000
vt 0.462500 0.350000
vt 0.062500 0.762500
vt 0.575000 0.262500
vt 0.750000 0.412500
vt 0.287500 0.737500
vt 0.062500 0.512500
vt 0.062500 0.537500
vt 0.037500 0.537500
vt 0.037500 0.737500
vt -0.000000 0.475000
vt 0.012500 0.250000
vt 0.387500 0.250000
vt 0.600000 0.250000
vt 0.337500 0.662500
vt 0.525000 0.662500
vt 0.537500 0.650000
vt 0.537500 0.487500
vt 0.525000 0.475000
vt 0.262500 0.762500
vt 0.287500 0.537500
vt 0.262500 0.512500
vn 0.8578 0.5139 0.0000
vn -1.0000 0.0000 0.0000
vn -0.8301 -0.5576 0.0000
vn 0.0000 0.5139 0.8578
vn 0.0000 0.5139 -0.8578
vn 0.0000 0.0000 -1.0000
vn 1.0000 0.0000 0.0000
vn 0.0000 0.0000 1.0000
vn -0.0000 -1.0000 -0.0000
vn 0.0000 -0.5576 -0.8301
vn 0.8301 -0.5576 0.0000
vn 0.0000 -0.5576 0.8301
vn -0.5130 -0.6882 0.5130
vn -0.5397 0.6461 -0.5397
vn 0.5397 0.6461 -0.5397
vn 0.5397 0.6461 0.5397
vn -0.7071 0.0001 0.7071
vn -0.5130 -0.6882 -0.5130
vn 0.5130 -0.6882 -0.5130
vn 0.5131 -0.6882 0.5130
vn -0.7071 0.0001 -0.7071
vn 0.7071 0.0001 -0.7071
vn 0.7071 0.0001 0.7071
vn -0.5397 0.6461 0.5397
vn -0.8578 0.5139 0.0000
vn 0.5130 -0.6882 0.5130
vn -0.7046 -0.7046 -0.0837
vn -0.7071 0.7071 0.0002
vn 0.7046 -0.7046 -0.0837
vn 0.0000 -0.5420 -0.8404
vn 0.0000 0.5420 -0.8404
vn 0.5420 0.0000 -0.8404
vn 0.0000 1.0000 0.0000
vn -0.5420 0.0000 -0.8404
vn 0.7071 0.7071 -0.0003
vn -0.7071 0.7071 -0.0003
vn 0.2934 -0.2934 -0.9098
vn 0.2934 0.2934 -0.9098
vn -0.2934 -0.2934 -0.9098
vn -0.2934 0.2934 -0.9098
vn -0.7071 -0.7071 -0.0003
vn 0.7071 -0.7071 -0.0003
vn 0.7071 0.7071 0.0002
vn -0.5000 0.5000 -0.7071
vn 0.5000 -0.5000 -0.7071
vn 0.5000 0.5000 -0.7070
vn -0.5000 -0.5000 -0.7070
vn 0.0000 -0.7071 -0.7071
vn -0.7071 0.0000 -0.7071
vn 0.0000 0.7071 -0.7071
vn 0.7071 0.0000 -0.7071
vn 0.1414 -0.9798 -0.1414
vn 0.0000 -0.9404 -0.3400
vn -0.1414 -0.9798 -0.1414
vn -0.1623 -0.9798 -0.1166
vn -0.5000 0.5000 -0.7070
vn 0.5000 -0.5000 -0.7070
vn 0.5000 0.5000 -0.7071
vn -0.5000 -0.5000 -0.7071
vn 0.1623 -0.9798 -0.1166
s off
f 49/122/39 50/123/39 51/124/39
f 52/125/40 53/126/40 54/127/40
f 55/128/41 56/129/41 57/130/41
f 58/131/42 59/132/42 60/133/42
f 61/134/43 62/135/43 63/136/43
f 64/137/44 65/138/44 61/134/44
f 66/139/45 67/140/45 49/122/45
f 68/141/46 69/142/46 58/131/46
f 70/143/47 62/144/47 50/145/47
f 64/137/48 71/146/48 72/147/48
f 73/148/49 74/149/49 75/150/49
f 68/141/50 76/151/50 77/152/50
f 56/129/51 77/152/51 76/151/51
f 61/134/52 70/153/52 53/126/52
f 51/154/53 65/138/53 49/155/53
f 60/133/54 67/140/54 58/131/54
f 77/152/55 54/127/55 69/142/55
f 55/128/56 78/156/56 64/137/56
f 66/157/57 71/146/57 74/158/57
f 73/148/58 79/159/58 68/141/58
f 61/134/59 55/128/59 64/137/59
f 49/155/60 72/147/60 66/157/60
f 58/131/61 73/148/61 68/141/61
f 59/132/62 54/127/62 80/160/62
f 54/127/63 70/153/63 80/160/63
f 49/122/39 67/140/39 50/123/39
f 52/125/40 55/128/40 53/126/40
f 55/128/41 52/125/41 56/129/41
f 58/131/42 69/142/42 59/132/42
f 61/134/43 65/138/43 62/135/43
f 64/137/44 72/147/44 65/138/44
f 66/139/45 73/148/45 67/140/45
f 68/141/46 77/152/46 69/142/46
f 50/145/47 60/161/47 59/162/47
f 59/162/47 80/163/47 70/143/47
f 70/143/47 63/164/47 62/144/47
f 62/144/47 51/165/47 50/145/47
f 50/145/47 59/162/47 70/143/47
f 64/137/48 78/156/48 71/146/48
f 73/148/49 66/139/49 74/149/49
f 68/141/50 79/159/50 76/151/50
f 56/129/51 52/125/51 77/152/51
f 61/134/52 63/136/52 70/153/52
f 51/154/53 62/135/53 65/138/53
f 60/133/54 50/123/54 67/140/54
f 77/152/55 52/125/55 54/127/55
f 55/128/56 57/130/56 78/156/56
f 66/157/57 72/147/57 71/146/57
f 73/148/64 75/150/64 79/159/64
f 61/134/59 53/126/59 55/128/59
f 49/155/60 65/138/60 72/147/60
f 58/131/61 67/140/61 73/148/61
f 59/132/62 69/142/62 54/127/62
f 54/127/63 53/126/63 70/153/63
f 81/166/65 82/167/65 83/168/65
f 84/169/66 85/170/66 86/171/66
f 125/172/46 87/173/46 127/174/46
f 88/175/67 89/176/67 90/177/67
f 91/178/45 92/179/45 89/176/45
f 90/177/68 94/180/68 95/181/68
f 86/171/69 96/182/69 97/183/69
f 111/184/46 98/185/46 99/186/46
f 100/187/47 94/180/47 101/188/47
f 92/179/70 102/189/70 89/176/70
f 103/190/71 96/182/71 104/191/71
f 82/167/72 105/192/72 85/170/72
f 102/189/45 111/193/45 110/194/45
f 107/195/40 112/196/40 108/197/40
f 103/198/46 107/199/46 126/200/46
f 106/201/46 100/202/46 110/203/46
f 109/204/46 108/205/46 113/206/46
f 98/207/73 114/208/73 96/182/73
f 104/191/74 107/195/74 103/190/74
f 85/170/40 83/209/40 82/167/40
f 95/181/47 57/210/47 56/211/47
f 75/212/47 90/177/47 79/213/47
f 101/188/75 89/176/75 102/189/75
f 84/169/71 97/183/71 115/214/71
f 97/183/76 114/208/76 92/215/76
f 112/196/77 95/181/77 94/180/77
f 86/171/78 105/192/78 104/191/78
f 113/216/79 112/196/79 94/180/79
f 101/188/80 110/194/80 100/187/80
f 97/183/81 116/217/81 115/214/81
f 117/218/82 84/169/82 118/219/82
f 119/220/83 88/175/83 120/221/83
f 121/222/84 115/214/84 116/217/84
f 122/223/85 81/166/85 83/168/85
f 81/166/86 120/221/86 88/175/86
f 123/224/87 122/225/87 83/209/87
f 115/214/88 118/219/88 84/169/88
f 91/178/89 121/226/89 116/227/89
f 124/228/44 122/229/44 117/230/44
f 99/186/46 103/198/46 126/200/46
f 74/231/47 90/177/47 75/212/47
f 71/232/90 88/175/90 74/231/90
f 81/166/91 71/232/91 78/233/91
f 57/210/92 81/166/92 78/233/92
f 76/234/47 95/181/47 56/211/47
f 79/213/47 95/181/47 76/234/47
f 127/174/47 126/235/47 125/172/47
f 81/166/65 95/181/65 82/167/65
f 84/169/66 123/224/66 85/170/66
f 88/175/67 91/236/67 89/176/67
f 91/178/45 116/227/45 92/179/45
f 90/177/68 101/188/68 94/180/68
f 86/171/69 104/191/69 96/182/69
f 100/187/47 113/216/47 94/180/47
f 92/179/70 114/237/70 102/189/70
f 103/190/71 98/207/71 96/182/71
f 82/167/72 112/196/72 105/192/72
f 87/173/40 99/238/40 127/174/40
f 126/200/46 108/205/46 109/204/46
f 109/239/71 87/173/71 93/240/71
f 100/202/46 109/204/46 113/206/46
f 109/241/45 125/172/45 126/242/45
f 106/201/46 111/184/46 99/186/46
f 102/189/45 114/237/45 111/193/45
f 107/195/40 105/192/40 112/196/40
f 98/207/73 111/243/73 114/208/73
f 104/191/74 105/192/74 107/195/74
f 85/170/40 123/224/40 83/209/40
f 95/181/93 81/166/93 57/210/93
f 101/188/75 90/177/75 89/176/75
f 84/169/71 86/171/71 97/183/71
f 97/183/76 96/182/76 114/208/76
f 112/196/77 82/167/77 95/181/77
f 86/171/78 85/170/78 105/192/78
f 113/216/79 108/197/79 112/196/79
f 101/188/80 102/189/80 110/194/80
f 97/183/81 92/215/81 116/217/81
f 117/218/94 123/224/94 84/169/94
f 119/220/95 91/236/95 88/175/95
f 121/222/96 128/244/96 115/214/96
f 122/223/97 124/245/97 81/166/97
f 81/166/86 124/245/86 120/221/86
f 123/224/87 117/218/87 122/225/87
f 115/214/88 128/244/88 118/219/88
f 91/178/89 119/246/89 121/226/89
f 117/230/44 118/247/44 124/228/44
f 118/247/44 128/248/44 124/228/44
f 128/248/44 121/249/44 119/250/44
f 119/250/44 120/251/44 128/248/44
f 120/251/44 124/228/44 128/248/44
f 74/231/98 88/175/98 90/177/98
f 81/166/91 88/175/91 71/232/91
f 79/213/47 90/177/47 95/181/47
f 125/172/46 93/240/46 87/173/46
f 99/186/46 98/185/46 103/198/46
f 127/174/47 99/252/47 126/235/47
f 87/173/40 106/253/40 99/238/40
f 126/200/46 107/199/46 108/205/46
f 109/239/71 106/254/71 87/173/71
f 100/202/46 106/201/46 109/204/46
f 109/241/45 93/240/45 125/172/45
f 106/201/46 110/203/46 111/184/46
o Cube.001_Cube.005
v -0.369039 -0.459563 0.479973
v -0.369039 -0.501855 0.209191
v -0.369039 -0.501855 0.479973
v -0.369039 -0.433180 0.209191
v 0.369039 -0.501855 0.209191
v 0.369039 -0.459563 0.479973
v 0.369039 -0.501855 0.479973
v 0.369039 -0.433180 0.209191
vt 0.175000 0.175000
vt -0.000000 0.150000
vt 0.175000 0.150000
vt 0.350000 0.225000
vt 0.175000 0.200000
vt 0.350000 0.200000
vt 0.175000 0.225000
vt -0.000000 0.200000
vt -0.000000 0.225000
vt 0.175000 0.225000
vt 0.350000 0.250000
vt 0.175000 0.250000
vt 0.350000 0.150000
vt 0.175000 0.200000
vt 0.175000 0.150000
vt -0.000000 0.150000
vt 0.350000 0.000000
vt 0.350000 0.150000
vt -0.000000 0.200000
vt 0.175000 0.225000
vt 0.175000 0.175000
vt 0.350000 0.225000
vt 0.350000 0.200000
vt -0.000000 0.000000
vn -1.0000 0.0000 0.0000
vn 0.0000 0.0000 -1.0000
vn 1.0000 0.0000 0.0000
vn 0.0000 0.0000 1.0000
vn 0.0000 -1.0000 0.0000
vn 0.0000 0.9953 0.0970
s off
f 129/255/99 130/256/99 131/257/99
f 132/258/100 133/259/100 130/260/100
f 133/261/101 134/262/101 135/263/101
f 134/264/102 131/265/102 135/266/102
f 133/267/103 131/268/103 130/269/103
f 132/270/104 134/271/104 136/272/104
f 129/255/99 132/273/99 130/256/99
f 132/258/100 136/274/100 133/259/100
f 133/261/101 136/275/101 134/262/101
f 134/264/102 129/276/102 131/265/102
f 133/267/103 135/277/103 131/268/103
f 132/270/104 129/278/104 134/271/104
