# Blender v2.79 (sub 0) OBJ File: 'rail_standard.blend'
# www.blender.org
o Plane
v 0.750000 0.062500 2.500000
v 0.750000 0.062500 -2.500000
v -0.750000 0.062500 2.500000
v -0.750000 0.062500 -2.500000
v 0.750000 0.187500 2.500000
v 0.750000 0.187500 -2.500000
v -0.750000 0.187500 2.500000
v -0.750000 0.187500 -2.500000
v 0.812500 0.062500 2.500000
v 0.812500 0.062500 -2.500000
v 0.812500 0.187500 2.500000
v 0.812500 0.187500 -2.500000
v -0.812500 0.062500 2.500000
v -0.812500 0.062500 -2.500000
v -0.812500 0.187500 2.500000
v -0.812500 0.187500 -2.500000
v -1.000000 0.000000 -0.250000
v 1.000000 0.000000 -0.250000
v -1.000000 0.000000 0.250000
v 1.000000 0.000000 0.250000
v 1.000000 0.062500 -0.250000
v -1.000000 0.062500 -0.250000
v 1.000000 0.062500 0.250000
v -1.000000 0.062500 0.250000
v -1.000000 0.000000 2.250000
v 1.000000 0.000000 2.250000
v -1.000000 0.000000 2.500000
v 1.000000 0.000000 2.500000
v 1.000000 0.062500 2.250000
v -1.000000 0.062500 2.250000
v 1.000000 0.062500 2.500000
v -1.000000 0.062500 2.500000
v -1.000000 0.000000 1.000000
v 1.000000 0.000000 1.000000
v -1.000000 0.000000 1.500000
v 1.000000 0.000000 1.500000
v 1.000000 0.062500 1.000000
v -1.000000 0.062500 1.000000
v 1.000000 0.062500 1.500000
v -1.000000 0.062500 1.500000
v -1.000000 0.000000 -2.500000
v 1.000000 0.000000 -2.500000
v -1.000000 0.000000 -2.250000
v 1.000000 0.000000 -2.250000
v 1.000000 0.062500 -2.500000
v -1.000000 0.062500 -2.500000
v 1.000000 0.062500 -2.250000
v -1.000000 0.062500 -2.250000
v -1.000000 0.000000 -1.500000
v 1.000000 0.000000 -1.500000
v -1.000000 0.000000 -1.000000
v 1.000000 0.000000 -1.000000
v 1.000000 0.062500 -1.500000
v -1.000000 0.062500 -1.500000
v 1.000000 0.062500 -1.000000
v -1.000000 0.062500 -1.000000
v 0.625000 0.062500 0.062500
v 0.937500 0.062500 0.062500
v 0.625000 0.062500 -0.062500
v 0.937500 0.062500 -0.062500
v 0.625000 0.125000 -0.062500
v 0.625000 0.125000 0.062500
v 0.937500 0.125000 0.062500
v 0.937500 0.125000 -0.062500
v -0.937500 0.062500 0.062500
v -0.625000 0.062500 0.062500
v -0.937500 0.062500 -0.062500
v -0.625000 0.062500 -0.062500
v -0.937500 0.125000 -0.062500
v -0.937500 0.125000 0.062500
v -0.625000 0.125000 0.062500
v -0.625000 0.125000 -0.062500
v 0.625000 0.062500 -1.187500
v 0.937500 0.062500 -1.187500
v 0.625000 0.062500 -1.312500
v 0.937500 0.062500 -1.312500
v 0.625000 0.125000 -1.312500
v 0.625000 0.125000 -1.187500
v 0.937500 0.125000 -1.187500
v 0.937500 0.125000 -1.312500
v -0.937500 0.062500 -1.187500
v -0.625000 0.062500 -1.187500
v -0.937500 0.062500 -1.312500
v -0.625000 0.062500 -1.312500
v -0.937500 0.125000 -1.312500
v -0.937500 0.125000 -1.187500
v -0.625000 0.125000 -1.187500
v -0.625000 0.125000 -1.312500
v 0.625000 0.062500 2.500000
v 0.937500 0.062500 2.500000
v 0.625000 0.062500 2.437500
v 0.937500 0.062500 2.437500
v 0.625000 0.125000 2.437500
v 0.625000 0.125000 2.500000
v 0.937500 0.125000 2.500000
v 0.937500 0.125000 2.437500
v -0.937500 0.062500 2.500000
v -0.625000 0.062500 2.500000
v -0.937500 0.062500 2.437500
v -0.625000 0.062500 2.437500
v -0.937500 0.125000 2.437500
v -0.937500 0.125000 2.500000
v -0.625000 0.125000 2.500000
v -0.625000 0.125000 2.437500
v 0.625000 0.062500 1.312500
v 0.937500 0.062500 1.312500
v 0.625000 0.062500 1.187500
v 0.937500 0.062500 1.187500
v 0.625000 0.125000 1.187500
v 0.625000 0.125000 1.312500
v 0.937500 0.125000 1.312500
v 0.937500 0.125000 1.187500
v -0.937500 0.062500 1.312500
v -0.625000 0.062500 1.312500
v -0.937500 0.062500 1.187500
v -0.625000 0.062500 1.187500
v -0.937500 0.125000 1.187500
v -0.937500 0.125000 1.312500
v -0.625000 0.125000 1.312500
v -0.625000 0.125000 1.187500
v 0.625000 0.062500 -2.437500
v 0.937500 0.062500 -2.437500
v 0.625000 0.062500 -2.500000
v 0.937500 0.062500 -2.500000
v 0.625000 0.125000 -2.500000
v 0.625000 0.125000 -2.437500
v 0.937500 0.125000 -2.437500
v 0.937500 0.125000 -2.500000
v -0.937500 0.062500 -2.437500
v -0.625000 0.062500 -2.437500
v -0.937500 0.062500 -2.500000
v -0.625000 0.062500 -2.500000
v -0.937500 0.125000 -2.500000
v -0.937500 0.125000 -2.437500
v -0.625000 0.125000 -2.437500
v -0.625000 0.125000 -2.500000
vt 0.750000 1.000000
vt 0.781249 0.000000
vt 0.781250 1.000000
vt 0.875000 1.000000
vt 0.843750 0.000000
vt 0.875000 0.000000
vt 0.781250 1.000000
vt 0.812499 0.000000
vt 0.812500 1.000000
vt 0.468750 0.550000
vt 0.453125 0.575000
vt 0.453125 0.550000
vt 0.968750 0.000000
vt 0.953125 1.000000
vt 0.953125 0.000000
vt 1.000000 0.000000
vt 0.984375 1.000000
vt 0.984375 0.000000
vt 0.531250 0.575000
vt 0.546875 0.550000
vt 0.546875 0.575000
vt 0.843750 1.000000
vt 0.812500 0.000000
vt 0.843750 0.000000
vt 0.656249 0.550000
vt 0.640624 0.525000
vt 0.656249 0.525000
vt 0.656249 0.550000
vt 0.671874 0.575000
vt 0.656249 0.575000
vt 0.953125 1.000000
vt 0.937500 0.000000
vt 0.953125 0.000000
vt 0.984375 1.000000
vt 0.968750 0.000000
vt 0.984375 0.000000
vt 0.375000 0.000000
vt 0.499999 0.400000
vt 0.375000 0.400000
vt 0.250000 0.400000
vt 0.375000 0.000000
vt 0.375000 0.400000
vt 0.593749 0.500000
vt 0.609374 0.400000
vt 0.609374 0.500000
vt 0.359375 0.800000
vt 0.375000 0.400000
vt 0.375000 0.800000
vt 0.562499 0.500000
vt 0.578124 0.400000
vt 0.578124 0.500000
vt 0.312500 0.400000
vt 0.296875 0.800000
vt 0.296875 0.400000
vt 0.187500 0.800000
vt 0.125000 0.400000
vt 0.187500 0.400000
vt 0.062500 0.400000
vt 0.000000 0.800000
vt 0.000000 0.400000
vt 0.406250 0.575000
vt 0.421875 0.525000
vt 0.421875 0.575000
vt 0.390625 0.400000
vt 0.375000 0.800000
vt 0.375000 0.400000
vt 0.421875 0.575000
vt 0.437500 0.525000
vt 0.437500 0.575000
vt 0.218750 0.400000
vt 0.203125 0.800000
vt 0.203125 0.400000
vt 0.125000 0.000000
vt 0.250000 0.400000
vt 0.125000 0.400000
vt 0.624999 0.000000
vt 0.500000 0.400000
vt 0.499999 0.000000
vt 0.609374 0.500000
vt 0.624999 0.400000
vt 0.624999 0.500000
vt 0.250000 0.800000
vt 0.265625 0.400000
vt 0.265625 0.800000
vt 0.578124 0.500000
vt 0.593749 0.400000
vt 0.593749 0.500000
vt 0.281250 0.400000
vt 0.265625 0.800000
vt 0.265625 0.400000
vt 0.125000 0.800000
vt 0.062500 0.400000
vt 0.125000 0.400000
vt 0.937500 0.000000
vt 0.875000 0.400000
vt 0.875000 0.000000
vt 0.390625 0.575000
vt 0.406250 0.525000
vt 0.406250 0.575000
vt 0.203125 0.400000
vt 0.187500 0.800000
vt 0.187500 0.400000
vt 0.437500 0.575000
vt 0.453125 0.525000
vt 0.453125 0.575000
vt 0.359374 0.400000
vt 0.343750 0.800000
vt 0.343749 0.400000
vt 0.749999 0.400000
vt 0.624999 0.000000
vt 0.749999 0.000000
vt 0.000000 0.400000
vt 0.125000 0.000000
vt 0.125000 0.400000
vt 0.624999 0.500000
vt 0.640624 0.400000
vt 0.640624 0.500000
vt 0.250000 0.400000
vt 0.234375 0.800000
vt 0.234375 0.400000
vt 0.312500 0.500000
vt 0.328125 0.400000
vt 0.328125 0.500000
vt 0.296875 0.400000
vt 0.281250 0.800000
vt 0.281250 0.400000
vt 0.453125 0.462500
vt 0.484375 0.525000
vt 0.453125 0.525000
vt 0.468750 0.550000
vt 0.453125 0.525000
vt 0.468750 0.525000
vt 0.703124 0.550000
vt 0.687499 0.525000
vt 0.703124 0.525000
vt 0.531249 0.462500
vt 0.515625 0.400000
vt 0.531249 0.400000
vt 0.640624 0.400000
vt 0.656249 0.462500
vt 0.640624 0.462500
vt 0.421875 0.462500
vt 0.453125 0.525000
vt 0.421875 0.525000
vt 0.687499 0.550000
vt 0.671874 0.525000
vt 0.687499 0.525000
vt 0.484375 0.550000
vt 0.468750 0.525000
vt 0.484375 0.525000
vt 0.515625 0.525000
vt 0.500000 0.462500
vt 0.515625 0.462500
vt 0.546874 0.400000
vt 0.562499 0.462500
vt 0.546874 0.462500
vt 0.421875 0.525000
vt 0.390625 0.462500
vt 0.421875 0.462500
vt 0.484375 0.575000
vt 0.468750 0.550000
vt 0.484375 0.550000
vt 0.531250 0.575000
vt 0.515625 0.550000
vt 0.531250 0.550000
vt 0.656249 0.400000
vt 0.671874 0.462500
vt 0.656249 0.462500
vt 0.531249 0.462500
vt 0.546874 0.525000
vt 0.531249 0.525000
vt 0.484375 0.462500
vt 0.453125 0.400000
vt 0.484375 0.400000
vt 0.671874 0.550000
vt 0.656249 0.525000
vt 0.671874 0.525000
vt 0.546874 0.550000
vt 0.531249 0.525000
vt 0.546874 0.525000
vt 0.593749 0.500000
vt 0.609374 0.562500
vt 0.593749 0.562500
vt 0.546874 0.462500
vt 0.562499 0.525000
vt 0.546874 0.525000
vt 0.624999 0.562500
vt 0.609374 0.500000
vt 0.624999 0.500000
vt 0.578124 0.575000
vt 0.562499 0.562500
vt 0.578124 0.562500
vt 0.624999 0.575000
vt 0.609374 0.562500
vt 0.624999 0.562500
vt 0.531249 0.400000
vt 0.546874 0.462500
vt 0.531249 0.462500
vt 0.703124 0.400000
vt 0.718749 0.462500
vt 0.703124 0.462500
vt 0.640624 0.562500
vt 0.624999 0.500000
vt 0.640624 0.500000
vt 0.328125 0.575000
vt 0.312500 0.562500
vt 0.328125 0.562500
vt 0.656249 0.562500
vt 0.640624 0.550000
vt 0.656249 0.550000
vt 0.671874 0.400000
vt 0.687499 0.462500
vt 0.671874 0.462500
vt 0.687499 0.462500
vt 0.703124 0.525000
vt 0.687499 0.525000
vt 0.453125 0.462500
vt 0.421875 0.400000
vt 0.453125 0.400000
vt 0.500000 0.575000
vt 0.484375 0.550000
vt 0.500000 0.550000
vt 0.515625 0.575000
vt 0.500000 0.550000
vt 0.515625 0.550000
vt 0.640624 0.462500
vt 0.656249 0.525000
vt 0.640624 0.525000
vt 0.312500 0.500000
vt 0.328125 0.562500
vt 0.312500 0.562500
vt 0.421875 0.462500
vt 0.390625 0.400000
vt 0.421875 0.400000
vt 0.687499 0.575000
vt 0.671874 0.550000
vt 0.687499 0.550000
vt 0.515625 0.550000
vt 0.500000 0.525000
vt 0.515625 0.525000
vt 0.656249 0.462500
vt 0.671874 0.525000
vt 0.656249 0.525000
vt 0.671874 0.462500
vt 0.687499 0.525000
vt 0.671874 0.525000
vt 0.578124 0.562500
vt 0.562499 0.500000
vt 0.578124 0.500000
vt 0.609374 0.575000
vt 0.593749 0.562500
vt 0.609374 0.562500
vt 0.640624 0.575000
vt 0.624999 0.562500
vt 0.640624 0.562500
vt 0.703124 0.462500
vt 0.718749 0.525000
vt 0.703124 0.525000
vt 0.515625 0.462500
vt 0.531249 0.525000
vt 0.515625 0.525000
vt 0.593749 0.562500
vt 0.578124 0.500000
vt 0.593749 0.500000
vt 0.593749 0.575000
vt 0.578124 0.562500
vt 0.593749 0.562500
vt 0.703124 0.562500
vt 0.687499 0.550000
vt 0.703124 0.550000
vt 0.687499 0.400000
vt 0.703124 0.462500
vt 0.687499 0.462500
vt 0.500000 0.400000
vt 0.515625 0.462500
vt 0.500000 0.462500
vt 0.749999 0.000000
vt 0.843750 1.000000
vt 0.781250 0.000000
vt 0.468750 0.575000
vt 0.968750 1.000000
vt 1.000000 1.000000
vt 0.531250 0.550000
vt 0.812500 1.000000
vt 0.640624 0.550000
vt 0.671874 0.550000
vt 0.937500 1.000000
vt 0.968750 1.000000
vt 0.499999 0.000000
vt 0.250000 0.000000
vt 0.593749 0.400000
vt 0.359375 0.400000
vt 0.562499 0.400000
vt 0.312500 0.800000
vt 0.125000 0.800000
vt 0.062500 0.800000
vt 0.406250 0.525000
vt 0.390625 0.800000
vt 0.421875 0.525000
vt 0.218750 0.800000
vt 0.250000 0.000000
vt 0.624999 0.400000
vt 0.609374 0.400000
vt 0.250000 0.400000
vt 0.578124 0.400000
vt 0.281250 0.800000
vt 0.062500 0.800000
vt 0.937500 0.400000
vt 0.390625 0.525000
vt 0.203125 0.800000
vt 0.437500 0.525000
vt 0.359375 0.800000
vt 0.624999 0.400000
vt 0.000000 0.000000
vt 0.624999 0.400000
vt 0.250000 0.800000
vt 0.312500 0.400000
vt 0.296875 0.800000
vt 0.484375 0.462500
vt 0.453125 0.550000
vt 0.687499 0.550000
vt 0.515625 0.462500
vt 0.656249 0.400000
vt 0.453125 0.462500
vt 0.671874 0.550000
vt 0.468750 0.550000
vt 0.500000 0.525000
vt 0.562499 0.400000
vt 0.390625 0.525000
vt 0.468750 0.575000
vt 0.515625 0.575000
vt 0.671874 0.400000
vt 0.546874 0.462500
vt 0.453125 0.462500
vt 0.656249 0.550000
vt 0.531249 0.550000
vt 0.609374 0.500000
vt 0.562499 0.462500
vt 0.609374 0.562500
vt 0.562499 0.575000
vt 0.609374 0.575000
vt 0.546874 0.400000
vt 0.718749 0.400000
vt 0.624999 0.562500
vt 0.312500 0.575000
vt 0.640624 0.562500
vt 0.687499 0.400000
vt 0.703124 0.462500
vt 0.421875 0.462500
vt 0.484375 0.575000
vt 0.500000 0.575000
vt 0.656249 0.462500
vt 0.328125 0.500000
vt 0.390625 0.462500
vt 0.671874 0.575000
vt 0.500000 0.550000
vt 0.671874 0.462500
vt 0.687499 0.462500
vt 0.562499 0.562500
vt 0.593749 0.575000
vt 0.624999 0.575000
vt 0.718749 0.462500
vt 0.531249 0.462500
vt 0.578124 0.562500
vt 0.578124 0.575000
vt 0.687499 0.562500
vt 0.703124 0.400000
vt 0.515625 0.400000
vn 1.0000 0.0000 0.0000
vn -1.0000 0.0000 0.0000
vn 0.0000 0.0000 -1.0000
vn 0.0000 1.0000 0.0000
vn 0.0000 -1.0000 0.0000
vn 0.0000 0.0000 1.0000
s off
f 8/1/1 3/2/1 4/3/1
f 1/4/2 6/5/2 2/6/2
f 12/7/1 9/8/1 10/9/1
f 12/10/3 2/11/3 6/12/3
f 11/13/4 6/14/4 5/15/4
f 10/16/5 1/17/5 2/18/5
f 9/19/6 5/20/6 1/21/6
f 13/22/2 16/23/2 14/24/2
f 4/25/3 16/26/3 8/27/3
f 7/28/6 13/29/6 3/30/6
f 8/31/4 15/32/4 7/33/4
f 3/34/5 14/35/5 4/36/5
f 18/37/5 19/38/5 17/39/5
f 24/40/4 21/41/4 22/42/4
f 24/43/2 17/44/2 19/45/2
f 22/46/3 18/47/3 17/48/3
f 21/49/1 20/50/1 18/51/1
f 23/52/6 19/53/6 20/54/6
f 26/55/5 27/56/5 25/57/5
f 32/58/4 29/59/4 30/60/4
f 32/61/2 25/62/2 27/63/2
f 30/64/3 26/65/3 25/66/3
f 29/67/1 28/68/1 26/69/1
f 31/70/6 27/71/6 28/72/6
f 34/73/5 35/74/5 33/75/5
f 40/76/4 37/77/4 38/78/4
f 40/79/2 33/80/2 35/81/2
f 38/82/3 34/83/3 33/84/3
f 37/85/1 36/86/1 34/87/1
f 39/88/6 35/89/6 36/90/6
f 42/91/5 43/92/5 41/93/5
f 48/94/4 45/95/4 46/96/4
f 48/97/2 41/98/2 43/99/2
f 46/100/3 42/101/3 41/102/3
f 45/103/1 44/104/1 42/105/1
f 47/106/6 43/107/6 44/108/6
f 50/109/5 51/110/5 49/111/5
f 56/112/4 53/113/4 54/114/4
f 56/115/2 49/116/2 51/117/2
f 54/118/3 50/119/3 49/120/3
f 53/121/1 52/122/1 50/123/1
f 55/124/6 51/125/6 52/126/6
f 63/127/4 61/128/4 62/129/4
f 60/130/1 63/131/1 58/132/1
f 57/133/2 61/134/2 59/135/2
f 59/136/3 64/137/3 60/138/3
f 58/139/6 62/140/6 57/141/6
f 71/142/4 69/143/4 70/144/4
f 68/145/1 71/146/1 66/147/1
f 65/148/2 69/149/2 67/150/2
f 67/151/3 72/152/3 68/153/3
f 66/154/6 70/155/6 65/156/6
f 79/157/4 77/158/4 78/159/4
f 76/160/1 79/161/1 74/162/1
f 73/163/2 77/164/2 75/165/2
f 75/166/3 80/167/3 76/168/3
f 74/169/6 78/170/6 73/171/6
f 87/172/4 85/173/4 86/174/4
f 84/175/1 87/176/1 82/177/1
f 81/178/2 85/179/2 83/180/2
f 83/181/3 88/182/3 84/183/3
f 82/184/6 86/185/6 81/186/6
f 95/187/4 93/188/4 94/189/4
f 92/190/1 95/191/1 90/192/1
f 89/193/2 93/194/2 91/195/2
f 91/196/3 96/197/3 92/198/3
f 90/199/6 94/200/6 89/201/6
f 103/202/4 101/203/4 102/204/4
f 100/205/1 103/206/1 98/207/1
f 97/208/2 101/209/2 99/210/2
f 99/211/3 104/212/3 100/213/3
f 98/214/6 102/215/6 97/216/6
f 111/217/4 109/218/4 110/219/4
f 108/220/1 111/221/1 106/222/1
f 105/223/2 109/224/2 107/225/2
f 107/226/3 112/227/3 108/228/3
f 106/229/6 110/230/6 105/231/6
f 119/232/4 117/233/4 118/234/4
f 116/235/1 119/236/1 114/237/1
f 113/238/2 117/239/2 115/240/2
f 115/241/3 120/242/3 116/243/3
f 114/244/6 118/245/6 113/246/6
f 127/247/4 125/248/4 126/249/4
f 124/250/1 127/251/1 122/252/1
f 121/253/2 125/254/2 123/255/2
f 123/256/3 128/257/3 124/258/3
f 122/259/6 126/260/6 121/261/6
f 135/262/4 133/263/4 134/264/4
f 132/265/1 135/266/1 130/267/1
f 129/268/2 133/269/2 131/270/2
f 131/271/3 136/272/3 132/273/3
f 130/274/6 134/275/6 129/276/6
f 8/1/1 7/277/1 3/2/1
f 1/4/2 5/278/2 6/5/2
f 12/7/1 11/279/1 9/8/1
f 12/10/3 10/280/3 2/11/3
f 11/13/4 12/281/4 6/14/4
f 10/16/5 9/282/5 1/17/5
f 9/19/6 11/283/6 5/20/6
f 13/22/2 15/284/2 16/23/2
f 4/25/3 14/285/3 16/26/3
f 7/28/6 15/286/6 13/29/6
f 8/31/4 16/287/4 15/32/4
f 3/34/5 13/288/5 14/35/5
f 18/37/5 20/289/5 19/38/5
f 24/40/4 23/290/4 21/41/4
f 24/43/2 22/291/2 17/44/2
f 22/46/3 21/292/3 18/47/3
f 21/49/1 23/293/1 20/50/1
f 23/52/6 24/294/6 19/53/6
f 26/55/5 28/295/5 27/56/5
f 32/58/4 31/296/4 29/59/4
f 32/61/2 30/297/2 25/62/2
f 30/64/3 29/298/3 26/65/3
f 29/67/1 31/299/1 28/68/1
f 31/70/6 32/300/6 27/71/6
f 34/73/5 36/301/5 35/74/5
f 40/76/4 39/302/4 37/77/4
f 40/79/2 38/303/2 33/80/2
f 38/82/3 37/304/3 34/83/3
f 37/85/1 39/305/1 36/86/1
f 39/88/6 40/306/6 35/89/6
f 42/91/5 44/307/5 43/92/5
f 48/94/4 47/308/4 45/95/4
f 48/97/2 46/309/2 41/98/2
f 46/100/3 45/310/3 42/101/3
f 45/103/1 47/311/1 44/104/1
f 47/106/6 48/312/6 43/107/6
f 50/109/5 52/313/5 51/110/5
f 56/112/4 55/314/4 53/113/4
f 56/115/2 54/315/2 49/116/2
f 54/118/3 53/316/3 50/119/3
f 53/121/1 55/317/1 52/122/1
f 55/124/6 56/318/6 51/125/6
f 63/127/4 64/319/4 61/128/4
f 60/130/1 64/320/1 63/131/1
f 57/133/2 62/321/2 61/134/2
f 59/136/3 61/322/3 64/137/3
f 58/139/6 63/323/6 62/140/6
f 71/142/4 72/324/4 69/143/4
f 68/145/1 72/325/1 71/146/1
f 65/148/2 70/326/2 69/149/2
f 67/151/3 69/327/3 72/152/3
f 66/154/6 71/328/6 70/155/6
f 79/157/4 80/329/4 77/158/4
f 76/160/1 80/330/1 79/161/1
f 73/163/2 78/331/2 77/164/2
f 75/166/3 77/332/3 80/167/3
f 74/169/6 79/333/6 78/170/6
f 87/172/4 88/334/4 85/173/4
f 84/175/1 88/335/1 87/176/1
f 81/178/2 86/336/2 85/179/2
f 83/181/3 85/337/3 88/182/3
f 82/184/6 87/338/6 86/185/6
f 95/187/4 96/339/4 93/188/4
f 92/190/1 96/340/1 95/191/1
f 89/193/2 94/341/2 93/194/2
f 91/196/3 93/342/3 96/197/3
f 90/199/6 95/343/6 94/200/6
f 103/202/4 104/344/4 101/203/4
f 100/205/1 104/345/1 103/206/1
f 97/208/2 102/346/2 101/209/2
f 99/211/3 101/347/3 104/212/3
f 98/214/6 103/348/6 102/215/6
f 111/217/4 112/349/4 109/218/4
f 108/220/1 112/350/1 111/221/1
f 105/223/2 110/351/2 109/224/2
f 107/226/3 109/352/3 112/227/3
f 106/229/6 111/353/6 110/230/6
f 119/232/4 120/354/4 117/233/4
f 116/235/1 120/355/1 119/236/1
f 113/238/2 118/356/2 117/239/2
f 115/241/3 117/357/3 120/242/3
f 114/244/6 119/358/6 118/245/6
f 127/247/4 128/359/4 125/248/4
f 124/250/1 128/360/1 127/251/1
f 121/253/2 126/361/2 125/254/2
f 123/256/3 125/362/3 128/257/3
f 122/259/6 127/363/6 126/260/6
f 135/262/4 136/364/4 133/263/4
f 132/265/1 136/365/1 135/266/1
f 129/268/2 134/366/2 133/269/2
f 131/271/3 133/367/3 136/272/3
f 130/274/6 135/368/6 134/275/6
