# Blender v2.79 (sub 0) OBJ File: 'rail_standard_straight.blend'
# www.blender.org
o Plane.001
v 1.000000 0.062500 -0.187500
v 1.000000 0.062500 0.187500
v -1.000000 0.062500 0.187500
v -1.000000 0.062500 -0.187500
v -1.000000 0.000000 0.187500
v 1.000000 0.000000 0.187500
v -1.000000 0.000000 -0.187500
v 1.000000 0.000000 -0.187500
v -1.000000 0.000000 -0.812500
v 1.000000 0.000000 -0.812500
v -1.000000 0.000000 -1.187500
v 1.000000 0.000000 -1.187500
v -1.000000 0.000000 -1.812500
v 1.000000 0.000000 -1.812500
v -1.000000 0.000000 -2.187500
v 1.000000 0.000000 -2.187500
v -1.000000 0.000000 2.187500
v 1.000000 0.000000 2.187500
v -1.000000 0.000000 1.812500
v 1.000000 0.000000 1.812500
v -1.000000 0.000000 1.187500
v 1.000000 0.000000 1.187500
v -1.000000 0.000000 0.812500
v 1.000000 0.000000 0.812500
v -1.000000 0.062500 -1.187500
v -1.000000 0.062500 -0.812500
v 1.000000 0.062500 -0.812500
v 1.000000 0.062500 -1.187500
v -1.000000 0.062500 -2.187500
v -1.000000 0.062500 -1.812500
v 1.000000 0.062500 -1.812500
v 1.000000 0.062500 -2.187500
v -1.000000 0.062500 1.812500
v -1.000000 0.062500 2.187500
v 1.000000 0.062500 2.187500
v 1.000000 0.062500 1.812500
v -1.000000 0.062500 0.812500
v -1.000000 0.062500 1.187500
v 1.000000 0.062500 1.187500
v 1.000000 0.062500 0.812500
v -0.812500 0.062500 2.500000
v 0.812500 0.062500 2.500000
v -0.812500 0.062500 -2.500000
v 0.812500 0.062500 -2.500000
v -0.812500 0.187500 2.500000
v 0.812500 0.187500 2.500000
v -0.812500 0.187500 -2.500000
v 0.812500 0.187500 -2.500000
v 0.750000 0.062500 2.500000
v 0.750000 0.062500 -2.500000
v 0.750000 0.187500 2.500000
v 0.750000 0.187500 -2.500000
v -0.750000 0.062500 -2.500000
v -0.750000 0.062500 2.500000
v -0.750000 0.187500 -2.500000
v -0.750000 0.187500 2.500000
v 0.625000 0.062500 2.062500
v 0.937500 0.062500 2.062500
v 0.625000 0.062500 1.937500
v 0.937500 0.062500 1.937500
v 0.625000 0.125000 2.062500
v 0.937500 0.125000 2.062500
v 0.625000 0.125000 1.937500
v 0.937500 0.125000 1.937500
v -0.937500 0.062500 2.062500
v -0.625000 0.062500 2.062500
v -0.937500 0.062500 1.937500
v -0.625000 0.062500 1.937500
v -0.937500 0.125000 2.062500
v -0.625000 0.125000 2.062500
v -0.937500 0.125000 1.937500
v -0.625000 0.125000 1.937500
v 0.625000 0.062500 1.062500
v 0.937500 0.062500 1.062500
v 0.625000 0.062500 0.937500
v 0.937500 0.062500 0.937500
v 0.625000 0.125000 1.062500
v 0.937500 0.125000 1.062500
v 0.625000 0.125000 0.937500
v 0.937500 0.125000 0.937500
v -0.937500 0.062500 1.062500
v -0.625000 0.062500 1.062500
v -0.937500 0.062500 0.937500
v -0.625000 0.062500 0.937500
v -0.937500 0.125000 1.062500
v -0.625000 0.125000 1.062500
v -0.937500 0.125000 0.937500
v -0.625000 0.125000 0.937500
v 0.625000 0.062500 0.062500
v 0.937500 0.062500 0.062500
v 0.625000 0.062500 -0.062500
v 0.937500 0.062500 -0.062500
v 0.625000 0.125000 0.062500
v 0.937500 0.125000 0.062500
v 0.625000 0.125000 -0.062500
v 0.937500 0.125000 -0.062500
v -0.937500 0.062500 0.062500
v -0.625000 0.062500 0.062500
v -0.937500 0.062500 -0.062500
v -0.625000 0.062500 -0.062500
v -0.937500 0.125000 0.062500
v -0.625000 0.125000 0.062500
v -0.937500 0.125000 -0.062500
v -0.625000 0.125000 -0.062500
v 0.625000 0.062500 -0.937500
v 0.937500 0.062500 -0.937500
v 0.625000 0.062500 -1.062500
v 0.937500 0.062500 -1.062500
v 0.625000 0.125000 -0.937500
v 0.937500 0.125000 -0.937500
v 0.625000 0.125000 -1.062500
v 0.937500 0.125000 -1.062500
v -0.937500 0.062500 -0.937500
v -0.625000 0.062500 -0.937500
v -0.937500 0.062500 -1.062500
v -0.625000 0.062500 -1.062500
v -0.937500 0.125000 -0.937500
v -0.625000 0.125000 -0.937500
v -0.937500 0.125000 -1.062500
v -0.625000 0.125000 -1.062500
v 0.625000 0.062500 -1.937500
v 0.937500 0.062500 -1.937500
v 0.625000 0.062500 -2.062500
v 0.937500 0.062500 -2.062500
v 0.625000 0.125000 -1.937500
v 0.937500 0.125000 -1.937500
v 0.625000 0.125000 -2.062500
v 0.937500 0.125000 -2.062500
v -0.937500 0.062500 -1.937500
v -0.625000 0.062500 -1.937500
v -0.937500 0.062500 -2.062500
v -0.625000 0.062500 -2.062500
v -0.937500 0.125000 -1.937500
v -0.625000 0.125000 -1.937500
v -0.937500 0.125000 -2.062500
v -0.625000 0.125000 -2.062500
v -0.812500 0.062500 -1.500000
v -0.812500 0.062500 -0.500000
v -0.812500 0.062500 0.500000
v -0.812500 0.062500 1.500000
v 0.812500 0.062500 1.500000
v 0.812500 0.062500 0.500000
v 0.812500 0.062500 -0.500000
v 0.812500 0.062500 -1.500000
v -0.812500 0.187500 -1.500000
v -0.812500 0.187500 -0.500000
v -0.812500 0.187500 0.500000
v -0.812500 0.187500 1.500000
v 0.812500 0.187500 1.500000
v 0.812500 0.187500 0.500000
v 0.812500 0.187500 -0.500000
v 0.812500 0.187500 -1.500000
v 0.750000 0.062500 1.500000
v 0.750000 0.062500 0.500000
v 0.750000 0.062500 -0.500000
v 0.750000 0.062500 -1.500000
v 0.750000 0.187500 1.500000
v 0.750000 0.187500 0.500000
v 0.750000 0.187500 -0.500000
v 0.750000 0.187500 -1.500000
v -0.750000 0.062500 -1.500000
v -0.750000 0.062500 -0.500000
v -0.750000 0.062500 0.500000
v -0.750000 0.062500 1.500000
v -0.750000 0.187500 -1.500000
v -0.750000 0.187500 -0.500000
v -0.750000 0.187500 0.500000
v -0.750000 0.187500 1.500000
vt -0.000000 0.000000
vt 0.187500 1.000000
vt -0.000000 1.000000
vt 0.218750 1.000000
vt 0.406250 0.000000
vt 0.406250 1.000000
vt 0.218750 1.000000
vt 0.406250 0.000000
vt 0.406250 1.000000
vt 0.218750 1.000000
vt 0.406250 0.000000
vt 0.406250 1.000000
vt 0.218750 1.000000
vt 0.406250 0.000000
vt 0.406250 1.000000
vt 0.218750 1.000000
vt 0.406250 0.000000
vt 0.406250 1.000000
vt -0.000000 0.000000
vt 0.187500 1.000000
vt -0.000000 1.000000
vt -0.000000 0.000000
vt 0.187500 1.000000
vt -0.000000 1.000000
vt -0.000000 0.000000
vt 0.187500 1.000000
vt -0.000000 1.000000
vt -0.000000 0.000000
vt 0.187500 1.000000
vt -0.000000 1.000000
vt 0.406250 0.031250
vt 0.593750 -0.000000
vt 0.593750 0.031250
vt 0.218750 1.000000
vt 0.187500 -0.000000
vt 0.218750 -0.000000
vt 0.218750 1.000000
vt 0.187500 -0.000000
vt 0.218750 -0.000000
vt 0.593750 -0.000000
vt 0.406250 0.031250
vt 0.593750 -0.000000
vt 0.406250 0.031250
vt 0.187500 0.000000
vt 0.218750 0.000000
vt 0.406250 0.031250
vt 0.593750 -0.000000
vt 0.593750 0.031250
vt 0.187500 0.000000
vt 0.218750 0.000000
vt 0.406250 0.031250
vt 0.593750 -0.000000
vt 0.593750 0.031250
vt 0.218750 1.000000
vt 0.187500 -0.000000
vt 0.218750 -0.000000
vt 0.406250 0.031250
vt 0.593750 -0.000000
vt 0.593750 0.031250
vt 0.218750 1.000000
vt 0.187500 -0.000000
vt 0.218750 -0.000000
vt 0.593750 -0.000000
vt 0.406250 0.031250
vt 0.218750 1.000000
vt 0.187500 -0.000000
vt 0.218750 -0.000000
vt 0.593750 -0.000000
vt 0.406250 0.031250
vt 0.187500 0.000000
vt 0.218750 0.000000
vt 0.593750 -0.000000
vt 0.406250 0.031250
vt 0.187500 0.000000
vt 0.218750 0.000000
vt 0.406250 0.031250
vt 0.593750 -0.000000
vt 0.593750 0.031250
vt 0.187500 0.000000
vt 0.218750 0.000000
vt 0.500000 0.156250
vt 0.437500 0.656250
vt 0.437500 0.156250
vt 0.531250 0.656250
vt 0.593750 0.156250
vt 0.593750 0.656250
vt 0.593750 0.656250
vt 0.531250 0.156250
vt 0.593750 0.156250
vt 0.531250 0.718750
vt 0.500000 0.656250
vt 0.531250 0.656250
vt 0.500000 0.156250
vt 0.531250 0.656250
vt 0.500000 0.656250
vt 0.406250 0.156250
vt 0.500000 0.656250
vt 0.531250 0.718750
vt 0.500000 0.718750
vt 0.437500 0.156250
vt 0.500000 0.656250
vt 0.437500 0.656250
vt 0.531250 0.656250
vt 0.500000 0.156250
vt 0.531250 0.156250
vt 0.406250 0.156250
vt 0.406250 0.656250
vt 0.531250 0.718750
vt 0.500000 0.656250
vt 0.531250 0.656250
vt 0.500000 0.656250
vt 0.531250 0.718750
vt 0.500000 0.718750
vt 0.437500 0.062500
vt 0.406250 0.125000
vt 0.406250 0.062500
vt 0.437500 0.125000
vt 0.593750 0.156250
vt 0.437500 0.156250
vt 0.593750 0.062500
vt 0.437500 0.031250
vt 0.593750 0.031250
vt 0.593750 0.125000
vt 0.625000 0.062500
vt 0.625000 0.125000
vt 0.437500 0.062500
vt 0.406250 0.125000
vt 0.406250 0.062500
vt 0.437500 0.125000
vt 0.593750 0.156250
vt 0.437500 0.156250
vt 0.593750 0.062500
vt 0.437500 0.031250
vt 0.593750 0.031250
vt 0.593750 0.125000
vt 0.625000 0.062500
vt 0.625000 0.125000
vt 0.437500 0.062500
vt 0.406250 0.125000
vt 0.406250 0.062500
vt 0.437500 0.125000
vt 0.593750 0.156250
vt 0.437500 0.156250
vt 0.593750 0.062500
vt 0.437500 0.031250
vt 0.593750 0.031250
vt 0.593750 0.125000
vt 0.625000 0.062500
vt 0.625000 0.125000
vt 0.437500 0.062500
vt 0.406250 0.125000
vt 0.406250 0.062500
vt 0.437500 0.125000
vt 0.593750 0.156250
vt 0.437500 0.156250
vt 0.593750 0.062500
vt 0.437500 0.031250
vt 0.593750 0.031250
vt 0.593750 0.125000
vt 0.625000 0.062500
vt 0.625000 0.125000
vt 0.437500 0.062500
vt 0.406250 0.125000
vt 0.406250 0.062500
vt 0.437500 0.125000
vt 0.593750 0.156250
vt 0.437500 0.156250
vt 0.593750 0.062500
vt 0.437500 0.031250
vt 0.593750 0.031250
vt 0.593750 0.125000
vt 0.625000 0.062500
vt 0.625000 0.125000
vt 0.437500 0.062500
vt 0.406250 0.125000
vt 0.406250 0.062500
vt 0.437500 0.125000
vt 0.593750 0.156250
vt 0.437500 0.156250
vt 0.593750 0.062500
vt 0.437500 0.031250
vt 0.593750 0.031250
vt 0.593750 0.125000
vt 0.625000 0.062500
vt 0.625000 0.125000
vt 0.437500 0.062500
vt 0.406250 0.125000
vt 0.406250 0.062500
vt 0.437500 0.125000
vt 0.593750 0.156250
vt 0.437500 0.156250
vt 0.593750 0.062500
vt 0.437500 0.031250
vt 0.593750 0.031250
vt 0.593750 0.125000
vt 0.625000 0.062500
vt 0.625000 0.125000
vt 0.437500 0.062500
vt 0.406250 0.125000
vt 0.406250 0.062500
vt 0.437500 0.125000
vt 0.593750 0.156250
vt 0.437500 0.156250
vt 0.593750 0.062500
vt 0.437500 0.031250
vt 0.593750 0.031250
vt 0.593750 0.125000
vt 0.625000 0.062500
vt 0.625000 0.125000
vt 0.437500 0.062500
vt 0.406250 0.125000
vt 0.406250 0.062500
vt 0.437500 0.125000
vt 0.593750 0.156250
vt 0.437500 0.156250
vt 0.593750 0.062500
vt 0.437500 0.031250
vt 0.593750 0.031250
vt 0.593750 0.125000
vt 0.625000 0.062500
vt 0.625000 0.125000
vt 0.437500 0.062500
vt 0.406250 0.125000
vt 0.406250 0.062500
vt 0.437500 0.125000
vt 0.593750 0.156250
vt 0.437500 0.156250
vt 0.593750 0.062500
vt 0.437500 0.031250
vt 0.593750 0.031250
vt 0.593750 0.125000
vt 0.625000 0.062500
vt 0.625000 0.125000
vt 0.406250 0.156250
vt 0.437500 0.656250
vt 0.406250 0.656250
vt 0.406250 0.156250
vt 0.437500 0.656250
vt 0.406250 0.656250
vt 0.406250 0.156250
vt 0.437500 0.656250
vt 0.406250 0.656250
vt 0.406250 0.156250
vt 0.437500 0.656250
vt 0.406250 0.656250
vt 0.500000 0.156250
vt 0.531250 0.156250
vt 0.531250 0.656250
vt 0.500000 0.156250
vt 0.531250 0.156250
vt 0.531250 0.656250
vt 0.500000 0.156250
vt 0.531250 0.156250
vt 0.531250 0.656250
vt 0.500000 0.156250
vt 0.531250 0.156250
vt 0.437500 0.156250
vt 0.500000 0.656250
vt 0.437500 0.156250
vt 0.500000 0.656250
vt 0.437500 0.156250
vt 0.500000 0.656250
vt 0.437500 0.156250
vt 0.500000 0.656250
vt 0.437500 0.656250
vt 0.406250 0.156250
vt 0.437500 0.156250
vt 0.437500 0.656250
vt 0.406250 0.156250
vt 0.437500 0.156250
vt 0.437500 0.656250
vt 0.406250 0.156250
vt 0.437500 0.156250
vt 0.437500 0.656250
vt 0.406250 0.156250
vt 0.437500 0.156250
vt 0.531250 0.656250
vt 0.500000 0.656250
vt 0.500000 0.156250
vt 0.531250 0.656250
vt 0.500000 0.656250
vt 0.500000 0.156250
vt 0.531250 0.656250
vt 0.500000 0.656250
vt 0.500000 0.156250
vt 0.531250 0.656250
vt 0.500000 0.656250
vt 0.593750 0.656250
vt 0.531250 0.156250
vt 0.593750 0.156250
vt 0.593750 0.656250
vt 0.531250 0.156250
vt 0.593750 0.156250
vt 0.593750 0.656250
vt 0.531250 0.156250
vt 0.593750 0.156250
vt 0.593750 0.656250
vt 0.531250 0.156250
vt 0.593750 0.156250
vt 0.593750 0.156250
vt 0.593750 0.656250
vt 0.593750 0.156250
vt 0.593750 0.656250
vt 0.593750 0.156250
vt 0.593750 0.656250
vt 0.593750 0.156250
vt 0.593750 0.656250
vt 0.406250 -0.000000
vt 0.187500 1.000000
vt 0.187500 1.000000
vt 0.593750 0.031250
vt 0.593750 0.031250
vt 0.406250 -0.000000
vt 0.406250 -0.000000
vt 0.187500 1.000000
vt 0.406250 -0.000000
vt 0.187500 1.000000
vt 0.593750 0.031250
vt 0.187500 1.000000
vt 0.593750 0.031250
vt 0.593750 0.031250
vt 0.406250 -0.000000
vt 0.500000 0.718750
vt 0.406250 0.656250
vt 0.531250 0.656250
vt 0.500000 0.718750
vt 0.531250 0.656250
vt 0.406250 0.656250
vt 0.406250 0.656250
vt 0.406250 0.656250
vt 0.406250 0.656250
vn 0.0000 1.0000 0.0000
vn 0.0000 -1.0000 0.0000
vn -1.0000 0.0000 0.0000
vn 0.0000 0.0000 1.0000
vn 1.0000 0.0000 0.0000
vn 0.0000 0.0000 -1.0000
s off
f 2/1/1 4/2/1 3/3/1
f 7/4/2 6/5/2 5/6/2
f 11/7/2 10/8/2 9/9/2
f 15/10/2 14/11/2 13/12/2
f 19/13/2 18/14/2 17/15/2
f 23/16/2 22/17/2 21/18/2
f 27/19/1 25/20/1 26/21/1
f 31/22/1 29/23/1 30/24/1
f 35/25/1 33/26/1 34/27/1
f 39/28/1 37/29/1 38/30/1
f 17/31/3 33/32/3 19/33/3
f 10/34/4 26/35/4 9/36/4
f 18/37/4 34/38/4 17/39/4
f 12/40/5 27/41/5 10/8/5
f 20/42/5 35/43/5 18/14/5
f 11/7/6 28/44/6 12/45/6
f 5/46/3 4/47/3 7/48/3
f 19/13/6 36/49/6 20/50/6
f 13/51/3 29/52/3 15/53/3
f 6/54/4 3/55/4 5/56/4
f 21/57/3 37/58/3 23/59/3
f 14/60/4 30/61/4 13/62/4
f 8/63/5 2/64/5 6/5/5
f 22/65/4 38/66/4 21/67/4
f 16/68/5 31/69/5 14/11/5
f 7/4/6 1/70/6 8/71/6
f 24/72/5 39/73/5 22/17/5
f 15/10/6 32/74/6 16/75/6
f 9/76/3 25/77/3 11/78/3
f 23/16/6 40/79/6 24/80/6
f 149/81/5 42/82/5 141/83/5
f 145/84/3 43/85/3 137/86/3
f 49/87/3 157/88/3 153/89/3
f 46/90/4 49/91/4 42/92/4
f 48/93/1 160/94/1 152/95/1
f 42/82/2 153/96/2 141/83/2
f 44/97/6 52/98/6 48/99/6
f 53/100/5 165/101/5 161/102/5
f 45/103/1 168/104/1 148/105/1
f 43/106/2 161/102/2 137/107/2
f 47/108/6 53/109/6 43/110/6
f 41/111/4 56/112/4 45/113/4
f 61/114/3 59/115/3 57/116/3
f 63/117/6 60/118/6 59/119/6
f 62/120/4 57/121/4 58/122/4
f 64/123/5 58/124/5 60/125/5
f 61/114/1 64/123/1 63/117/1
f 69/126/3 67/127/3 65/128/3
f 71/129/6 68/130/6 67/131/6
f 70/132/4 65/133/4 66/134/4
f 72/135/5 66/136/5 68/137/5
f 69/126/1 72/135/1 71/129/1
f 77/138/3 75/139/3 73/140/3
f 79/141/6 76/142/6 75/143/6
f 78/144/4 73/145/4 74/146/4
f 80/147/5 74/148/5 76/149/5
f 77/138/1 80/147/1 79/141/1
f 85/150/3 83/151/3 81/152/3
f 87/153/6 84/154/6 83/155/6
f 86/156/4 81/157/4 82/158/4
f 88/159/5 82/160/5 84/161/5
f 85/150/1 88/159/1 87/153/1
f 93/162/3 91/163/3 89/164/3
f 95/165/6 92/166/6 91/167/6
f 94/168/4 89/169/4 90/170/4
f 96/171/5 90/172/5 92/173/5
f 93/162/1 96/171/1 95/165/1
f 101/174/3 99/175/3 97/176/3
f 103/177/6 100/178/6 99/179/6
f 102/180/4 97/181/4 98/182/4
f 104/183/5 98/184/5 100/185/5
f 101/174/1 104/183/1 103/177/1
f 109/186/3 107/187/3 105/188/3
f 111/189/6 108/190/6 107/191/6
f 110/192/4 105/193/4 106/194/4
f 112/195/5 106/196/5 108/197/5
f 109/186/1 112/195/1 111/189/1
f 117/198/3 115/199/3 113/200/3
f 119/201/6 116/202/6 115/203/6
f 118/204/4 113/205/4 114/206/4
f 120/207/5 114/208/5 116/209/5
f 117/198/1 120/207/1 119/201/1
f 125/210/3 123/211/3 121/212/3
f 127/213/6 124/214/6 123/215/6
f 126/216/4 121/217/4 122/218/4
f 128/219/5 122/220/5 124/221/5
f 125/210/1 128/219/1 127/213/1
f 133/222/3 131/223/3 129/224/3
f 135/225/6 132/226/6 131/227/6
f 134/228/4 129/229/4 130/230/4
f 136/231/5 130/232/5 132/233/5
f 133/222/1 136/231/1 135/225/1
f 140/234/2 54/235/2 41/236/2
f 139/237/2 164/238/2 140/239/2
f 138/240/2 163/241/2 139/242/2
f 137/243/2 162/244/2 138/245/2
f 145/84/1 55/246/1 47/247/1
f 146/248/1 165/249/1 145/250/1
f 147/251/1 166/252/1 146/253/1
f 148/254/1 167/255/1 147/256/1
f 164/257/5 56/258/5 54/235/5
f 163/259/5 168/260/5 164/238/5
f 162/261/5 167/262/5 163/241/5
f 161/263/5 166/264/5 162/244/5
f 144/265/2 50/266/2 44/267/2
f 143/268/2 156/269/2 144/270/2
f 142/271/2 155/272/2 143/273/2
f 141/274/2 154/275/2 142/276/2
f 149/81/1 51/277/1 46/278/1
f 150/279/1 157/280/1 149/281/1
f 151/282/1 158/283/1 150/284/1
f 152/285/1 159/286/1 151/287/1
f 156/288/3 52/289/3 50/290/3
f 155/291/3 160/292/3 156/293/3
f 154/294/3 159/295/3 155/296/3
f 153/297/3 158/298/3 154/299/3
f 45/103/3 140/300/3 41/301/3
f 148/254/3 139/302/3 140/303/3
f 147/251/3 138/304/3 139/305/3
f 146/248/3 137/306/3 138/307/3
f 48/93/5 144/265/5 44/267/5
f 152/285/5 143/268/5 144/270/5
f 151/282/5 142/271/5 143/273/5
f 150/279/5 141/274/5 142/276/5
f 2/1/1 1/70/1 4/2/1
f 7/4/2 8/71/2 6/5/2
f 11/7/2 12/45/2 10/8/2
f 15/10/2 16/75/2 14/11/2
f 19/13/2 20/50/2 18/14/2
f 23/16/2 24/80/2 22/17/2
f 27/19/1 28/44/1 25/20/1
f 31/22/1 32/74/1 29/23/1
f 35/25/1 36/49/1 33/26/1
f 39/28/1 40/79/1 37/29/1
f 17/31/3 34/308/3 33/32/3
f 10/34/4 27/309/4 26/35/4
f 18/37/4 35/310/4 34/38/4
f 12/40/5 28/311/5 27/41/5
f 20/42/5 36/312/5 35/43/5
f 11/7/6 25/20/6 28/44/6
f 5/46/3 3/313/3 4/47/3
f 19/13/6 33/26/6 36/49/6
f 13/51/3 30/314/3 29/52/3
f 6/54/4 2/315/4 3/55/4
f 21/57/3 38/316/3 37/58/3
f 14/60/4 31/317/4 30/61/4
f 8/63/5 1/318/5 2/64/5
f 22/65/4 39/319/4 38/66/4
f 16/68/5 32/320/5 31/69/5
f 7/4/6 4/2/6 1/70/6
f 24/72/5 40/321/5 39/73/5
f 15/10/6 29/23/6 32/74/6
f 9/76/3 26/322/3 25/77/3
f 23/16/6 37/29/6 40/79/6
f 149/81/5 46/278/5 42/82/5
f 145/84/3 47/247/3 43/85/3
f 49/87/3 51/277/3 157/88/3
f 46/90/4 51/323/4 49/91/4
f 48/93/1 52/289/1 160/94/1
f 42/82/2 49/324/2 153/96/2
f 44/97/6 50/325/6 52/98/6
f 53/100/5 55/246/5 165/101/5
f 45/103/1 56/258/1 168/104/1
f 43/106/2 53/100/2 161/102/2
f 47/108/6 55/326/6 53/109/6
f 41/111/4 54/327/4 56/112/4
f 61/114/3 63/117/3 59/115/3
f 63/117/6 64/123/6 60/118/6
f 62/120/4 61/114/4 57/121/4
f 64/123/5 62/120/5 58/124/5
f 61/114/1 62/120/1 64/123/1
f 69/126/3 71/129/3 67/127/3
f 71/129/6 72/135/6 68/130/6
f 70/132/4 69/126/4 65/133/4
f 72/135/5 70/132/5 66/136/5
f 69/126/1 70/132/1 72/135/1
f 77/138/3 79/141/3 75/139/3
f 79/141/6 80/147/6 76/142/6
f 78/144/4 77/138/4 73/145/4
f 80/147/5 78/144/5 74/148/5
f 77/138/1 78/144/1 80/147/1
f 85/150/3 87/153/3 83/151/3
f 87/153/6 88/159/6 84/154/6
f 86/156/4 85/150/4 81/157/4
f 88/159/5 86/156/5 82/160/5
f 85/150/1 86/156/1 88/159/1
f 93/162/3 95/165/3 91/163/3
f 95/165/6 96/171/6 92/166/6
f 94/168/4 93/162/4 89/169/4
f 96/171/5 94/168/5 90/172/5
f 93/162/1 94/168/1 96/171/1
f 101/174/3 103/177/3 99/175/3
f 103/177/6 104/183/6 100/178/6
f 102/180/4 101/174/4 97/181/4
f 104/183/5 102/180/5 98/184/5
f 101/174/1 102/180/1 104/183/1
f 109/186/3 111/189/3 107/187/3
f 111/189/6 112/195/6 108/190/6
f 110/192/4 109/186/4 105/193/4
f 112/195/5 110/192/5 106/196/5
f 109/186/1 110/192/1 112/195/1
f 117/198/3 119/201/3 115/199/3
f 119/201/6 120/207/6 116/202/6
f 118/204/4 117/198/4 113/205/4
f 120/207/5 118/204/5 114/208/5
f 117/198/1 118/204/1 120/207/1
f 125/210/3 127/213/3 123/211/3
f 127/213/6 128/219/6 124/214/6
f 126/216/4 125/210/4 121/217/4
f 128/219/5 126/216/5 122/220/5
f 125/210/1 126/216/1 128/219/1
f 133/222/3 135/225/3 131/223/3
f 135/225/6 136/231/6 132/226/6
f 134/228/4 133/222/4 129/229/4
f 136/231/5 134/228/5 130/232/5
f 133/222/1 134/228/1 136/231/1
f 140/234/2 164/257/2 54/235/2
f 139/237/2 163/259/2 164/238/2
f 138/240/2 162/261/2 163/241/2
f 137/243/2 161/263/2 162/244/2
f 145/84/1 165/101/1 55/246/1
f 146/248/1 166/264/1 165/249/1
f 147/251/1 167/262/1 166/252/1
f 148/254/1 168/260/1 167/255/1
f 164/257/5 168/104/5 56/258/5
f 163/259/5 167/255/5 168/260/5
f 162/261/5 166/252/5 167/262/5
f 161/263/5 165/249/5 166/264/5
f 144/265/2 156/328/2 50/266/2
f 143/268/2 155/329/2 156/269/2
f 142/271/2 154/330/2 155/272/2
f 141/274/2 153/331/2 154/275/2
f 149/81/1 157/88/1 51/277/1
f 150/279/1 158/298/1 157/280/1
f 151/282/1 159/295/1 158/283/1
f 152/285/1 160/292/1 159/286/1
f 156/288/3 160/94/3 52/289/3
f 155/291/3 159/286/3 160/292/3
f 154/294/3 158/283/3 159/295/3
f 153/297/3 157/280/3 158/298/3
f 45/103/3 148/105/3 140/300/3
f 148/254/3 147/256/3 139/302/3
f 147/251/3 146/253/3 138/304/3
f 146/248/3 145/250/3 137/306/3
f 48/93/5 152/95/5 144/265/5
f 152/285/5 151/287/5 143/268/5
f 151/282/5 150/284/5 142/271/5
f 150/279/5 149/281/5 141/274/5
