# Blender 4.4.3
# www.blender.org
mtllib railingcorner.mtl
o RailingCorner
v -0.500000 0.000000 -0.500000
v -0.500000 0.000000 0.500000
v -0.437500 0.000000 -0.500000
v -0.437500 0.000000 0.500000
v -0.500000 0.000000 0.437500
v -0.500000 0.937500 -0.500000
v -0.500000 0.937500 0.500000
v -0.437500 0.937500 -0.500000
v -0.437500 0.937500 0.500000
v -0.500000 1.000000 0.437500
v -0.437500 1.000000 0.437500
v -0.500000 1.000000 -0.437500
v -0.437500 1.000000 -0.437500
v -0.500000 0.937500 -0.437500
v -0.500000 0.562500 0.437500
v -0.437500 0.625000 0.437500
v -0.500000 0.625000 0.437500
v -0.437500 0.562500 -0.437500
v -0.500000 0.562500 -0.437500
v -0.437500 0.625000 -0.437500
v -0.500000 0.625000 -0.437500
v 0.500000 0.000000 0.500000
v 0.500000 0.000000 0.437500
v 0.500000 0.937500 0.500000
v 0.500000 0.937500 0.437500
v 0.437500 1.000000 0.500000
v 0.437500 1.000000 0.437500
v -0.437500 1.000000 0.500000
v 0.437500 0.937500 0.500000
v 0.437500 0.562500 0.437500
v 0.437500 0.562500 0.500000
v 0.437500 0.625000 0.437500
v 0.437500 0.625000 0.500000
v -0.437500 0.562500 0.437500
v -0.437500 0.562500 0.500000
v -0.437500 0.625000 0.500000
v -0.437500 0.000000 0.437500
v -0.500000 0.000000 -0.437500
v -0.437500 0.000000 -0.437500
v -0.500000 0.937500 0.437500
v -0.437500 0.937500 0.437500
v -0.437500 0.937500 -0.437500
v 0.437500 0.000000 0.500000
v 0.437500 0.000000 0.437500
v 0.437500 0.937500 0.437500
vn -0.0000 -1.0000 -0.0000
vn -0.0000 0.3827 -0.9239
vn -0.0000 0.9239 -0.3827
vn -1.0000 -0.0000 -0.0000
vn -0.0000 -0.0000 -1.0000
vn 1.0000 -0.0000 -0.0000
vn -0.0000 -0.0000 1.0000
vn -0.0000 0.9239 0.3827
vn -0.0000 1.0000 -0.0000
vn 0.7071 -0.0000 -0.7071
vn -0.0000 0.9576 0.2880
vn -0.0000 0.7071 0.7071
vn 0.3827 0.9239 -0.0000
vn 0.9239 0.3827 -0.0000
vn -0.7071 0.7071 -0.0000
vn -0.3827 0.9239 -0.0000
vn -0.2880 0.9576 -0.0000
vt 0.000000 0.000001
vt 0.062500 0.062500
vt -0.000000 0.062500
vt 0.937500 -0.000000
vt 0.937500 0.062500
vt 1.000000 0.062500
vt 1.000000 0.937500
vt 1.000000 1.000000
vt 0.937500 1.000000
vt 0.000000 0.000000
vt 1.000000 0.000000
vt 0.937500 0.937500
vt 0.062500 0.000000
vt 0.000000 0.937500
vt 0.066667 -0.000000
vt 0.062500 1.000000
vt 0.062500 0.937500
vt 0.937500 0.562500
vt 0.937500 0.625000
vt 0.062500 0.625000
vt 0.062500 0.562500
vt 0.000000 1.000000
s 1
usemtl 
f 2/1/1 37/2/1 4/3/1
f 39/4/1 38/5/1 1/6/1
f 6/7/2 12/8/3 13/9/3
f 5/10/4 7/10/4 10/10/4
f 3/11/5 1/4/5 6/12/2
f 39/4/6 3/11/6 8/7/6
f 37/13/6 9/14/6 4/10/6
f 4/15/7 7/14/7 2/10/7
f 38/13/4 12/16/4 6/14/4
f 41/17/6 13/9/6 11/16/6
f 41/12/1 14/16/1 42/17/1
f 10/9/4 14/17/4 40/12/4
f 10/16/8 13/12/3 12/9/3
f 15/18/4 17/19/4 21/20/4
f 34/18/1 15/19/1 19/20/1
f 16/21/9 21/19/9 17/20/9
f 16/20/10 34/21/10 18/18/6
f 2/1/1 5/13/1 37/2/1
f 39/4/1 1/6/1 3/11/1
f 11/16/11 10/22/8 7/14/12
f 6/7/2 13/9/3 8/12/2
f 5/10/4 2/10/4 7/10/4
f 3/11/5 6/12/2 8/7/2
f 39/4/6 8/7/6 13/9/6
f 37/13/6 41/17/6 9/14/6
f 38/13/4 6/14/4 1/10/4
f 41/17/6 42/12/6 13/9/6
f 41/12/1 40/9/1 14/16/1
f 10/9/4 12/16/4 14/17/4
f 10/16/8 11/17/11 13/12/3
f 15/18/4 21/20/4 19/21/4
f 34/18/1 19/20/1 18/21/1
f 16/21/9 20/18/9 21/19/9
f 16/20/10 18/18/6 20/19/6
f 22/1/1 44/2/1 23/3/1
f 27/16/13 24/14/14 25/17/14
f 7/14/15 28/17/16 11/16/17
f 43/10/7 24/10/7 26/10/7
f 44/13/5 25/14/5 23/10/5
f 23/15/6 24/14/14 22/10/6
f 45/17/5 11/9/5 27/16/5
f 45/12/1 9/16/1 41/17/1
f 26/9/7 9/17/7 29/12/7
f 26/16/13 11/12/17 28/9/16
f 31/18/7 33/19/7 36/20/7
f 30/18/1 31/19/1 35/20/1
f 32/21/9 36/19/9 33/20/9
f 32/20/5 30/21/5 34/18/10
f 22/1/1 43/13/1 44/2/1
f 27/16/13 26/22/13 24/14/14
f 4/15/7 28/16/7 7/14/7
f 43/10/7 22/10/7 24/10/7
f 44/13/5 27/16/5 25/14/5
f 23/15/6 25/17/14 24/14/14
f 45/17/5 41/12/5 11/9/5
f 45/12/1 29/9/1 9/16/1
f 26/9/7 28/16/7 9/17/7
f 26/16/13 27/17/13 11/12/17
f 31/18/7 36/20/7 35/21/7
f 30/18/1 35/20/1 34/21/1
f 32/21/9 16/18/9 36/19/9
f 32/20/5 34/18/10 16/19/10
f 38/11/7 39/4/7 42/12/7
f 5/13/5 41/14/5 37/10/5
f 38/11/7 42/12/7 14/7/7
f 5/13/5 40/17/5 41/14/5
f 43/13/4 45/14/4 44/10/4
f 43/13/4 29/17/4 45/14/4
