# Blender v2.79 (sub 0) OBJ File: 'rail_narrow_bend.blend'
# www.blender.org
o Plane
v 0.500000 0.125000 0.375000
v 0.500000 0.125000 -0.375000
v 0.500000 0.000000 0.375000
v 0.500000 0.000000 -0.437500
v -0.463258 0.125000 -0.342627
v 0.500000 0.000000 0.437500
v -0.292554 0.125000 0.515560
v 0.500000 0.000000 -0.375000
v -0.451065 0.000000 -0.281328
v 0.500000 0.125000 0.437500
v 0.500000 0.125000 -0.437500
v -0.292554 0.000000 0.515560
v -3.325402 0.062500 1.279721
v -3.404702 0.062500 1.376347
v -3.325402 0.000000 1.279721
v -3.404702 0.000000 1.376347
v -3.057147 0.000000 2.669533
v -2.998222 0.000000 2.559293
v -3.057147 0.062500 2.669533
v -2.998222 0.062500 2.559293
v -0.601330 0.062500 0.654096
v -0.720948 0.062500 0.690382
v -0.601330 0.000000 0.654096
v -0.720948 0.000000 0.690382
v -0.052285 0.000000 -0.469798
v 0.072113 0.000000 -0.482049
v -0.052285 0.062500 -0.469798
v 0.072113 0.062500 -0.482049
v -0.891615 0.062500 -0.302844
v -1.011232 0.062500 -0.266559
v -0.891615 0.000000 -0.302844
v -1.011232 0.000000 -0.266559
v 0.045732 0.000000 0.525387
v 0.170130 0.000000 0.513135
v 0.045732 0.062500 0.525387
v 0.170130 0.062500 0.513135
v -0.463258 0.000000 -0.342627
v -0.304748 0.000000 0.454261
v -0.451065 0.125000 -0.281328
v -0.304748 0.125000 0.454261
v -3.605381 0.125000 1.756872
v -2.877845 0.125000 2.242996
v -3.553414 0.000000 1.791595
v -2.877845 0.000000 2.242996
v -3.605381 0.000000 1.756872
v -2.929812 0.000000 2.208273
v -3.553414 0.125000 1.791595
v -2.929812 0.125000 2.208273
v -2.243128 0.125000 0.394619
v -1.757004 0.125000 1.122155
v -2.208405 0.000000 0.446586
v -1.757004 0.000000 1.122155
v -2.243128 0.000000 0.394619
v -1.791727 0.000000 1.070188
v -2.208405 0.125000 0.446586
v -1.791727 0.125000 1.070188
v -4.342627 0.125000 3.536741
v -3.484440 0.125000 3.707446
v -4.281328 0.000000 3.548935
v -3.484440 0.000000 3.707446
v -4.342627 0.000000 3.536741
v -3.545739 0.000000 3.695252
v -4.281328 0.125000 3.548935
v -3.545739 0.125000 3.695252
v 0.500000 0.000000 4.500000
v -3.625000 0.125000 4.500000
v -4.375000 0.125000 4.500000
v -3.625000 0.000000 4.500000
v -4.437500 0.000000 4.500000
v -3.562500 0.000000 4.500000
v -4.375000 0.000000 4.500000
v -3.562500 0.125000 4.500000
v -4.437500 0.125000 4.500000
v -2.416816 0.125000 1.583184
v -2.947145 0.125000 1.052855
v -2.416816 0.000000 1.583184
v -2.991340 0.000000 1.008660
v -2.372621 0.000000 1.627379
v -2.947145 0.000000 1.052855
v -2.372621 0.125000 1.627379
v -2.991340 0.125000 1.008660
v -3.311003 0.125000 2.921431
v -4.003912 0.125000 2.634418
v -3.311003 0.000000 2.921431
v -4.061655 0.000000 2.610501
v -3.253261 0.000000 2.945349
v -4.003912 0.000000 2.634418
v -3.253261 0.125000 2.945349
v -4.061655 0.125000 2.610501
v -1.078569 0.125000 0.688997
v -1.365582 0.125000 -0.003912
v -1.078569 0.000000 0.688997
v -1.389499 0.000000 -0.061655
v -1.054651 0.000000 0.746740
v -1.365582 0.000000 -0.003912
v -1.054651 0.125000 0.746740
v -1.389499 0.125000 -0.061655
v -3.880144 0.062500 2.087896
v -3.939068 0.062500 2.198136
v -3.880144 0.000000 2.087896
v -3.939068 0.000000 2.198136
v -2.631691 0.000000 2.010740
v -2.552392 0.000000 1.914114
v -2.631691 0.062500 2.010740
v -2.552392 0.062500 1.914114
v -4.266559 0.062500 2.988768
v -4.302845 0.062500 3.108386
v -4.266559 0.000000 2.988768
v -4.302845 0.000000 3.108386
v -3.486865 0.000000 4.170131
v -3.474612 0.000000 4.045732
v -3.486865 0.062500 4.170131
v -3.474612 0.062500 4.045732
v -1.989260 0.062500 1.368309
v -2.085886 0.062500 1.447608
v -1.989260 0.000000 1.368309
v -2.085886 0.000000 1.447608
v -1.912104 0.000000 0.119856
v -1.801864 0.000000 0.060932
v -1.912104 0.062500 0.119856
v -1.801864 0.062500 0.060932
v -2.623653 0.062500 0.595299
v -2.720279 0.062500 0.674598
v -2.623653 0.000000 0.595299
v -2.720279 0.000000 0.674598
v -1.440707 0.000000 1.001778
v -1.330467 0.000000 0.942852
v -1.440707 0.062500 1.001778
v -1.330467 0.062500 0.942852
v -4.469797 0.062500 3.947715
v -4.482049 0.062500 4.072114
v -4.469797 0.000000 3.947715
v -4.482049 0.000000 4.072114
v -3.345904 0.000000 3.398670
v -3.309618 0.000000 3.279053
v -3.345904 0.062500 3.398670
v -3.309618 0.062500 3.279053
vt 0.615249 0.562500
vt 0.726069 0.437500
vt 0.615249 0.437500
vt 0.678003 0.453027
vt 0.764947 0.316851
vt 0.688434 0.459997
vt 0.613503 0.437500
vt 0.722644 0.562500
vt 0.613503 0.562500
vt 0.828202 0.562500
vt 0.828202 0.437500
vt 0.812063 0.161529
vt 0.753357 0.312051
vt 0.799759 0.159082
vt 0.823229 0.437500
vt 0.823229 0.562500
vt 0.812063 0.161529
vt 0.753357 0.312051
vt 0.764947 0.316851
vt 0.678003 0.453027
vt 0.688434 0.459997
vt 1.000000 0.437500
vt 0.993671 0.562500
vt 0.993671 0.437500
vt 0.576594 0.576594
vt 0.585465 0.585465
vt 0.459997 0.688434
vt 0.917722 0.437500
vt 0.911392 0.562500
vt 0.911392 0.437500
vt 0.777932 0.500000
vt 0.762144 0.437500
vt 0.777932 0.437500
vt 0.283574 0.500000
vt 0.325146 0.437500
vt 0.325146 0.500000
vt 0.342277 0.500000
vt 0.342277 0.437500
vt 0.626982 0.783754
vt 0.519041 0.612678
vt 0.499646 0.628595
vt 0.829653 0.500000
vt 0.762144 0.500000
vt 0.797787 0.091181
vt 1.000000 0.085886
vt 0.800246 0.066212
vt 0.845441 0.437500
vt 0.829653 0.437500
vt 0.964030 0.279326
vt 0.764669 0.245069
vt 0.771952 0.221060
vt 0.947343 0.500000
vt 0.961181 0.437500
vt 0.947343 0.437500
vt 0.856491 0.437500
vt 0.856491 0.500000
vt 1.000000 0.085886
vt 0.797787 0.091181
vt 0.800246 0.066212
vt 0.956746 0.303335
vt 0.771952 0.221060
vt 0.764669 0.245069
vt 0.870329 0.500000
vt 0.870329 0.437500
vt 0.312050 0.753357
vt 0.316851 0.764947
vt 0.159082 0.799759
vt 0.161529 0.812063
vt 0.171798 0.437501
vt 0.273931 0.562500
vt 0.273931 0.437500
vt 0.161529 0.812063
vt 0.312050 0.753357
vt 0.316851 0.764947
vt 0.176771 0.562500
vt 0.277356 0.437500
vt 0.277356 0.562500
vt 0.107153 0.562500
vt 0.000000 0.437501
vt 0.000000 0.562500
vt 0.000000 0.991058
vt 0.190898 0.959711
vt 0.193346 0.972015
vt 0.006329 0.437501
vt 0.112125 0.562500
vt 0.006329 0.562500
vt 0.000000 0.991058
vt 0.190898 0.959711
vt 0.000000 0.978513
vt 0.171798 0.562500
vt 0.082278 0.437501
vt 0.082278 0.562500
vt 0.000000 0.815428
vt 0.000000 0.827972
vt 0.088607 0.437501
vt 0.088607 0.562500
vt 0.000000 0.827972
vt 0.000000 0.815428
vt 0.892847 0.562499
vt 1.000000 0.562499
vt 0.991058 0.000000
vt 0.959711 0.190898
vt 0.978513 0.000000
vt 0.887875 0.562499
vt 0.959711 0.190898
vt 0.991058 0.000000
vt 0.978513 0.000000
vt 0.917722 0.562500
vt 0.827972 0.000000
vt 0.815427 0.000000
vt 0.827972 0.000000
vt 0.799759 0.159082
vt 0.500000 0.562500
vt 0.585465 0.585465
vt 0.500000 0.437500
vt 0.386497 0.437500
vt 0.500000 0.437500
vt 0.453027 0.678003
vt 0.459997 0.688434
vt 0.384751 0.437500
vt 0.500000 0.562500
vt 0.193346 0.972015
vt 0.374461 0.904028
vt 0.550602 0.824035
vt 0.543633 0.813604
vt 0.691913 0.691913
vt 0.824035 0.550602
vt 0.813604 0.543633
vt 0.915618 0.379261
vt 0.904028 0.374461
vt 0.972015 0.193346
vt 0.767173 0.562499
vt 0.887875 0.437500
vt 0.915618 0.379261
vt 0.904028 0.374461
vt 0.892847 0.437500
vt 0.770598 0.562499
vt 0.636203 0.437500
vt 0.636203 0.562500
vt 0.813604 0.543633
vt 0.824035 0.550602
vt 0.637950 0.437500
vt 0.637950 0.562499
vt 0.500000 0.562500
vt 0.691913 0.691913
vt 0.500000 0.562500
vt 0.363797 0.437500
vt 0.363797 0.562500
vt 0.550602 0.824035
vt 0.543633 0.813604
vt 0.362050 0.437500
vt 0.362050 0.562500
vt 0.232827 0.562500
vt 0.374461 0.904028
vt 0.229402 0.562500
vt 0.112125 0.437501
vt 0.107153 0.437501
vt 0.300705 0.437500
vt 0.283574 0.437500
vt 0.484159 0.879185
vt 0.367412 0.713993
vt 0.389540 0.702165
vt 0.420906 0.500000
vt 0.438722 0.437500
vt 0.420906 0.437500
vt 0.434944 0.437500
vt 0.434944 0.500000
vt 0.646376 0.767837
vt 0.499646 0.628595
vt 0.519041 0.612678
vt 0.367412 0.713993
vt 0.484159 0.879185
vt 0.389540 0.702165
vt 0.452759 0.500000
vt 0.452759 0.437500
vt 0.565056 0.500000
vt 0.547241 0.437500
vt 0.565056 0.437500
vt 0.038819 0.500001
vt 0.129671 0.437501
vt 0.129671 0.500001
vt 0.143509 0.500001
vt 0.143509 0.437501
vt 0.221060 0.771952
vt 0.303335 0.956746
vt 0.245069 0.764669
vt 0.561278 0.500000
vt 0.547241 0.500000
vt 0.879185 0.484159
vt 0.713993 0.367412
vt 0.702165 0.389540
vt 0.579094 0.437500
vt 0.561278 0.437500
vt 0.628595 0.499646
vt 0.767837 0.646376
vt 0.612678 0.519041
vt 0.699295 0.500000
vt 0.716426 0.437500
vt 0.699295 0.437500
vt 0.657723 0.437500
vt 0.657723 0.500000
vt 0.713993 0.367412
vt 0.879185 0.484159
vt 0.702165 0.389540
vt 0.767837 0.646376
vt 0.628595 0.499646
vt 0.612678 0.519041
vt 0.674854 0.500000
vt 0.674854 0.437500
vt 0.052657 0.437501
vt 0.038819 0.437501
vt 0.110855 0.997541
vt 0.066211 0.800246
vt 0.091181 0.797787
vt 0.154559 0.500000
vt 0.170347 0.437500
vt 0.154559 0.437500
vt 0.222068 0.437501
vt 0.222068 0.500000
vt 0.303335 0.956746
vt 0.221060 0.771952
vt 0.245069 0.764669
vt 0.085886 1.000000
vt 0.091181 0.797787
vt 0.066211 0.800246
vt 0.237856 0.500000
vt 0.237856 0.437501
vt 0.726069 0.562500
vt 0.722644 0.437500
vt 0.453027 0.678003
vt 0.646376 0.767837
vt 0.997541 0.110855
vt 0.845441 0.500000
vt 0.956746 0.303335
vt 0.961181 0.500000
vt 0.997541 0.110855
vt 0.964030 0.279326
vt 0.159082 0.799759
vt 0.176771 0.437501
vt 0.000000 0.978513
vt 0.972015 0.193346
vt 0.815427 0.000000
vt 0.576594 0.576594
vt 0.386497 0.562500
vt 0.384751 0.562500
vt 0.379261 0.915618
vt 0.700784 0.700784
vt 0.767173 0.437500
vt 0.770598 0.437500
vt 0.500000 0.437500
vt 0.700784 0.700784
vt 0.500000 0.437500
vt 0.232827 0.437500
vt 0.379261 0.915618
vt 0.229402 0.437500
vt 0.300705 0.500000
vt 0.462031 0.891012
vt 0.438722 0.500000
vt 0.626982 0.783754
vt 0.462031 0.891012
vt 0.279326 0.964030
vt 0.891012 0.462031
vt 0.579094 0.500000
vt 0.783754 0.626981
vt 0.716426 0.500000
vt 0.891012 0.462031
vt 0.783754 0.626981
vt 0.052657 0.500000
vt 0.085886 1.000000
vt 0.170347 0.500000
vt 0.279326 0.964030
vt 0.110855 0.997541
vn -0.4714 0.0000 -0.8819
vn 0.0000 1.0000 0.0000
vn 0.4714 0.0000 0.8819
vn -0.2903 0.0000 -0.9569
vn 0.2903 0.0000 0.9569
vn 0.0000 -1.0000 0.0000
vn 1.0000 0.0000 0.0000
vn -0.4714 0.0000 0.8819
vn 0.8819 0.0000 0.4714
vn -0.9569 0.0000 0.2903
vn -0.0980 0.0000 -0.9952
vn -0.9952 0.0000 0.0980
vn 0.9952 0.0000 -0.0980
vn 0.0980 0.0000 0.9952
vn -0.9569 0.0000 -0.2903
vn 0.9569 0.0000 0.2903
vn -0.9952 0.0000 -0.0980
vn 0.9952 0.0000 0.0980
vn 0.0000 0.0000 1.0000
vn 0.6344 0.0000 0.7730
vn -0.6344 0.0000 -0.7730
vn 0.7730 0.0000 0.6344
vn -0.7730 0.0000 -0.6344
vn -0.8819 0.0000 -0.4714
vn 0.9569 0.0000 -0.2903
vn -0.6344 0.0000 0.7730
vn 0.6344 0.0000 -0.7730
vn 0.4714 0.0000 -0.8819
vn -0.0980 0.0000 0.9952
vn -0.7730 0.0000 0.6344
vn -0.8819 0.0000 0.4714
vn 0.8819 0.0000 -0.4714
vn 0.7730 0.0000 -0.6344
vn -0.2903 0.0000 0.9569
vn 0.2903 0.0000 -0.9569
vn 0.0980 0.0000 -0.9952
s off
f 56/1/1 92/2/1 54/3/1
f 50/4/2 90/5/2 56/6/2
f 52/7/3 96/8/3 50/9/3
f 92/2/4 40/10/4 38/11/4
f 40/12/2 96/13/2 7/14/2
f 96/8/5 12/15/5 7/16/5
f 38/17/6 94/18/6 92/19/6
f 92/19/6 52/20/6 54/21/6
f 4/22/7 2/23/7 8/24/7
f 54/21/6 78/25/6 76/26/6
f 78/25/6 46/27/6 76/26/6
f 3/28/7 10/29/7 6/30/7
f 21/31/5 24/32/5 23/33/5
f 99/34/8 17/35/8 19/36/8
f 20/37/9 17/35/9 18/38/9
f 16/39/6 103/40/6 102/41/6
f 30/42/10 24/32/10 22/43/10
f 33/44/6 26/45/6 34/46/6
f 30/42/4 31/47/4 32/48/4
f 29/49/2 22/50/2 21/51/2
f 27/52/11 26/53/11 25/54/11
f 27/52/12 33/55/12 35/56/12
f 28/57/2 35/58/2 36/59/2
f 32/60/6 23/61/6 24/62/6
f 26/53/13 36/63/13 34/64/13
f 36/63/14 33/55/14 34/64/14
f 46/27/6 86/65/6 84/66/6
f 84/66/6 60/67/6 62/68/6
f 62/69/15 82/70/15 84/71/15
f 64/72/2 88/73/2 82/74/2
f 58/75/16 86/76/16 88/77/16
f 57/78/17 69/79/17 73/80/17
f 73/81/2 63/82/2 57/83/2
f 71/84/18 63/85/18 67/86/18
f 69/87/6 59/88/6 71/89/6
f 64/90/17 68/91/17 66/92/17
f 72/93/2 64/72/2 66/94/2
f 70/95/18 58/75/18 72/96/18
f 68/97/6 60/67/6 70/98/6
f 4/22/11 5/99/11 11/100/11
f 11/101/2 39/102/2 2/103/2
f 67/86/19 69/79/19 71/84/19
f 72/96/19 68/91/19 70/95/19
f 39/104/14 8/24/14 2/23/14
f 9/105/6 4/106/6 8/107/6
f 38/11/11 1/108/11 3/28/11
f 1/109/2 7/14/2 10/110/2
f 7/16/14 6/30/14 10/29/14
f 3/111/6 12/112/6 38/17/6
f 80/113/20 52/7/20 50/9/20
f 74/114/2 50/4/2 56/6/2
f 76/115/21 56/1/21 54/3/21
f 80/113/22 44/116/22 78/117/22
f 42/118/2 74/114/2 48/119/2
f 46/120/23 74/121/23 76/115/23
f 44/116/9 88/77/9 86/76/9
f 82/74/2 42/118/2 48/119/2
f 82/70/24 46/120/24 84/71/24
f 61/122/6 87/123/6 59/88/6
f 87/123/6 45/124/6 43/125/6
f 45/124/6 79/126/6 43/125/6
f 79/126/6 53/127/6 51/128/6
f 51/128/6 93/129/6 95/130/6
f 95/130/6 37/131/6 9/105/6
f 91/132/5 9/133/5 39/104/5
f 39/102/2 97/134/2 91/135/2
f 37/136/4 97/137/4 5/99/4
f 51/138/3 91/132/3 55/139/3
f 55/140/2 97/134/2 49/141/2
f 97/137/1 53/142/1 49/143/1
f 75/144/20 51/138/20 55/139/20
f 49/141/2 75/145/2 55/140/2
f 53/142/21 81/146/21 49/143/21
f 43/147/22 75/144/22 47/148/22
f 75/145/2 41/149/2 47/150/2
f 81/146/23 45/151/23 41/152/23
f 83/153/9 43/147/9 47/148/9
f 41/149/2 83/154/2 47/150/2
f 45/151/24 89/155/24 41/152/24
f 59/156/16 83/153/16 63/85/16
f 83/154/2 57/83/2 63/82/2
f 89/155/15 61/157/15 57/78/15
f 31/47/25 21/31/25 23/33/25
f 99/34/24 100/158/24 101/159/24
f 98/160/2 19/161/2 20/162/2
f 14/163/23 15/164/23 16/165/23
f 14/163/26 102/166/26 104/167/26
f 13/168/2 104/169/2 105/170/2
f 17/171/6 100/172/6 18/173/6
f 15/164/27 105/174/27 103/175/27
f 105/174/22 102/166/22 103/175/22
f 100/158/28 20/37/28 18/38/28
f 114/176/20 117/177/20 116/178/20
f 131/179/29 110/180/29 112/181/29
f 113/182/18 110/180/18 111/183/18
f 134/184/6 108/185/6 135/186/6
f 123/187/30 117/177/30 115/188/30
f 118/189/6 127/190/6 126/191/6
f 123/187/21 124/192/21 125/193/21
f 114/194/2 123/195/2 115/196/2
f 120/197/1 119/198/1 118/199/1
f 120/197/31 126/200/31 128/201/31
f 129/202/2 120/203/2 128/204/2
f 125/205/6 116/206/6 117/207/6
f 119/198/32 129/208/32 127/209/32
f 129/208/3 126/200/3 127/209/3
f 124/192/33 114/176/33 116/178/33
f 131/179/17 132/210/17 133/211/17
f 130/212/2 112/213/2 113/214/2
f 107/215/15 108/216/15 109/217/15
f 107/215/34 134/218/34 136/219/34
f 106/220/2 136/221/2 137/222/2
f 133/223/6 111/224/6 110/225/6
f 108/216/35 137/226/35 135/227/35
f 137/226/16 134/218/16 135/227/16
f 132/210/36 113/182/36 111/183/36
f 56/1/1 90/228/1 92/2/1
f 50/4/2 96/13/2 90/5/2
f 52/7/3 94/229/3 96/8/3
f 92/2/4 90/228/4 40/10/4
f 40/12/2 90/5/2 96/13/2
f 96/8/5 94/229/5 12/15/5
f 38/17/6 12/112/6 94/18/6
f 92/19/6 94/18/6 52/20/6
f 4/22/7 11/100/7 2/23/7
f 54/21/6 52/20/6 78/25/6
f 78/25/6 44/230/6 46/27/6
f 3/28/7 1/108/7 10/29/7
f 21/31/5 22/43/5 24/32/5
f 99/34/8 101/159/8 17/35/8
f 20/37/9 19/36/9 17/35/9
f 16/39/6 15/231/6 103/40/6
f 30/42/10 32/48/10 24/32/10
f 33/44/6 25/232/6 26/45/6
f 30/42/4 29/233/4 31/47/4
f 29/49/2 30/234/2 22/50/2
f 27/52/11 28/235/11 26/53/11
f 27/52/12 25/54/12 33/55/12
f 28/57/2 27/236/2 35/58/2
f 32/60/6 31/237/6 23/61/6
f 26/53/13 28/235/13 36/63/13
f 36/63/14 35/56/14 33/55/14
f 46/27/6 44/230/6 86/65/6
f 84/66/6 86/65/6 60/67/6
f 62/69/15 64/90/15 82/70/15
f 64/72/2 58/238/2 88/73/2
f 58/75/16 60/239/16 86/76/16
f 57/78/17 61/157/17 69/79/17
f 73/81/2 67/240/2 63/82/2
f 71/84/18 59/156/18 63/85/18
f 69/87/6 61/122/6 59/88/6
f 64/90/17 62/69/17 68/91/17
f 72/93/2 58/238/2 64/72/2
f 70/95/18 60/239/18 58/75/18
f 68/97/6 62/68/6 60/67/6
f 4/22/11 37/136/11 5/99/11
f 11/101/2 5/241/2 39/102/2
f 67/86/19 73/80/19 69/79/19
f 72/96/19 66/92/19 68/91/19
f 39/104/14 9/133/14 8/24/14
f 9/105/6 37/131/6 4/106/6
f 38/11/11 40/10/11 1/108/11
f 1/109/2 40/12/2 7/14/2
f 7/16/14 12/15/14 6/30/14
f 3/111/6 6/242/6 12/112/6
f 80/113/20 78/117/20 52/7/20
f 74/114/2 80/243/2 50/4/2
f 76/115/21 74/121/21 56/1/21
f 80/113/22 42/244/22 44/116/22
f 42/118/2 80/243/2 74/114/2
f 46/120/23 48/245/23 74/121/23
f 44/116/9 42/244/9 88/77/9
f 82/74/2 88/73/2 42/118/2
f 82/70/24 48/245/24 46/120/24
f 61/122/6 85/246/6 87/123/6
f 87/123/6 85/246/6 45/124/6
f 45/124/6 77/247/6 79/126/6
f 79/126/6 77/247/6 53/127/6
f 51/128/6 53/127/6 93/129/6
f 95/130/6 93/129/6 37/131/6
f 91/132/5 95/248/5 9/133/5
f 39/102/2 5/241/2 97/134/2
f 37/136/4 93/249/4 97/137/4
f 51/138/3 95/248/3 91/132/3
f 55/140/2 91/135/2 97/134/2
f 97/137/1 93/249/1 53/142/1
f 75/144/20 79/250/20 51/138/20
f 49/141/2 81/251/2 75/145/2
f 53/142/21 77/252/21 81/146/21
f 43/147/22 79/250/22 75/144/22
f 75/145/2 81/251/2 41/149/2
f 81/146/23 77/252/23 45/151/23
f 83/153/9 87/253/9 43/147/9
f 41/149/2 89/254/2 83/154/2
f 45/151/24 85/255/24 89/155/24
f 59/156/16 87/253/16 83/153/16
f 83/154/2 89/254/2 57/83/2
f 89/155/15 85/255/15 61/157/15
f 31/47/25 29/233/25 21/31/25
f 99/34/24 98/256/24 100/158/24
f 98/160/2 99/257/2 19/161/2
f 14/163/23 13/258/23 15/164/23
f 14/163/26 16/165/26 102/166/26
f 13/168/2 14/259/2 104/169/2
f 17/171/6 101/260/6 100/172/6
f 15/164/27 13/258/27 105/174/27
f 105/174/22 104/167/22 102/166/22
f 100/158/28 98/256/28 20/37/28
f 114/176/20 115/188/20 117/177/20
f 131/179/29 133/211/29 110/180/29
f 113/182/18 112/181/18 110/180/18
f 134/184/6 109/261/6 108/185/6
f 123/187/30 125/193/30 117/177/30
f 118/189/6 119/262/6 127/190/6
f 123/187/21 122/263/21 124/192/21
f 114/194/2 122/264/2 123/195/2
f 120/197/1 121/265/1 119/198/1
f 120/197/31 118/199/31 126/200/31
f 129/202/2 121/266/2 120/203/2
f 125/205/6 124/267/6 116/206/6
f 119/198/32 121/265/32 129/208/32
f 129/208/3 128/201/3 126/200/3
f 124/192/33 122/263/33 114/176/33
f 131/179/17 130/268/17 132/210/17
f 130/212/2 131/269/2 112/213/2
f 107/215/15 106/270/15 108/216/15
f 107/215/34 109/217/34 134/218/34
f 106/220/2 107/271/2 136/221/2
f 133/223/6 132/272/6 111/224/6
f 108/216/35 106/270/35 137/226/35
f 137/226/16 136/219/16 134/218/16
f 132/210/36 130/268/36 113/182/36
