# Blender 4.4.3
# www.blender.org
mtllib railingstairs.mtl
o RailingSteps
v 0.000000 0.875000 -0.437500
v 0.000000 0.875000 0.437500
v -0.500000 1.000000 -0.437500
v -0.500000 0.875000 -0.437500
v -0.500000 1.000000 0.437500
v -0.500000 0.875000 0.437500
v 0.000000 1.000000 -0.437500
v 0.000000 1.000000 0.437500
v 0.000000 0.500000 -0.437500
v 0.000000 0.500000 0.437500
v 0.500000 0.500000 -0.437500
v 0.500000 0.500000 0.437500
v 0.000000 0.375000 0.437500
v 0.000000 0.375000 -0.437500
v 0.500000 0.375000 0.437500
v 0.500000 0.375000 -0.437500
vn -0.0000 -0.0000 1.0000
vn -1.0000 -0.0000 -0.0000
vn -0.0000 -0.0000 -1.0000
vn 1.0000 -0.0000 -0.0000
vn -0.0000 1.0000 -0.0000
vn -0.0000 -1.0000 -0.0000
vt 0.500000 1.000000
vt 0.000000 1.000000
vt 0.000000 0.875000
vt 0.937500 1.000000
vt 0.062500 1.000000
vt 0.062500 0.875000
vt 1.000000 0.875000
vt 0.500000 0.875000
vt 0.937500 0.500000
vt 0.062500 0.500000
vt 1.000000 0.125000
vt 0.500000 0.125000
vt 0.500000 0.000000
vt 0.062500 0.000000
vt 0.937500 0.125000
vt 0.062500 0.125000
vt 0.000000 0.125000
vt 0.937500 0.000000
vt 0.937500 0.875000
vt 1.000000 1.000000
vt 1.000000 0.000000
vt 0.000000 0.000000
s 1
f 8/1/1 5/2/1 6/3/1
f 5/4/2 3/5/2 4/6/2
f 3/7/3 7/8/3 1/1/3
f 7/4/4 8/5/4 2/6/4
f 7/9/5 3/4/5 5/5/5
f 6/4/6 4/5/6 1/10/6
f 12/11/1 10/12/1 13/13/1
f 13/9/6 14/10/6 16/14/6
f 11/15/4 12/16/4 15/14/4
f 9/17/3 11/12/3 16/13/3
f 10/15/2 9/16/2 14/14/2
f 11/18/5 9/9/5 10/10/5
f 8/1/1 6/3/1 2/8/1
f 5/4/2 4/6/2 6/19/2
f 3/7/3 1/1/3 4/20/3
f 7/4/4 2/6/4 1/19/4
f 7/9/5 5/5/5 8/10/5
f 6/4/6 1/10/6 2/9/6
f 12/11/1 13/13/1 15/21/1
f 13/9/6 16/14/6 15/18/6
f 11/15/4 15/14/4 16/18/4
f 9/17/3 16/13/3 14/22/3
f 10/15/2 14/14/2 13/18/2
f 11/18/5 10/10/5 12/14/5
o RailingStairs
v 0.437500 0.812500 -0.500000
v -0.437500 1.812500 -0.500000
v -0.437500 1.812500 -0.437500
v 0.500000 0.000000 -0.500000
v -0.500000 1.000000 -0.437500
v 0.500000 0.000000 -0.437500
v -0.437500 1.000000 -0.500000
v -0.500000 1.937500 -0.500000
v 0.500000 0.937500 -0.500000
v -0.500000 1.937500 -0.437500
v 0.500000 0.937500 -0.437500
v 0.437500 0.937500 -0.500000
v 0.437500 0.937500 -0.437500
v -0.437500 1.937500 -0.500000
v -0.437500 1.937500 -0.437500
v 0.437500 0.812500 -0.437500
v 0.437500 0.562500 -0.437500
v 0.437500 0.562500 -0.500000
v 0.437500 0.625000 -0.437500
v 0.437500 0.625000 -0.500000
v -0.437500 1.562500 -0.437500
v -0.437500 1.562500 -0.500000
v -0.437500 1.625000 -0.437500
v -0.437500 1.625000 -0.500000
v 0.437500 0.000000 0.500000
v 0.437500 0.812500 0.500000
v -0.437500 1.812500 0.500000
v -0.437500 1.812500 0.437500
v 0.500000 0.000000 0.500000
v -0.500000 1.000000 0.437500
v 0.500000 0.000000 0.437500
v -0.437500 1.000000 0.500000
v -0.437500 1.000000 0.437500
v -0.500000 1.937500 0.500000
v 0.500000 0.937500 0.500000
v -0.500000 1.937500 0.437500
v 0.500000 0.937500 0.437500
v 0.437500 0.937500 0.500000
v 0.437500 0.937500 0.437500
v -0.437500 1.937500 0.500000
v -0.437500 1.937500 0.437500
v 0.437500 0.812500 0.437500
v 0.437500 0.562500 0.437500
v 0.437500 0.562500 0.500000
v 0.437500 0.625000 0.437500
v 0.437500 0.625000 0.500000
v -0.437500 1.562500 0.437500
v -0.437500 1.562500 0.500000
v -0.437500 1.625000 0.437500
v -0.437500 1.625000 0.500000
v -0.500000 1.000000 -0.500000
v -0.437500 1.000000 -0.437500
v -0.500000 1.000000 0.500000
v 0.437500 0.000000 -0.437500
v 0.437500 0.000000 -0.500000
v 0.437500 0.125000 -0.437500
v 0.437500 0.125000 -0.500000
v -0.437500 1.125000 -0.437500
v -0.437500 1.125000 -0.500000
v 0.437500 0.000000 0.437500
v 0.437500 0.125000 0.437500
v 0.437500 0.125000 0.500000
v -0.437500 1.125000 0.437500
v -0.437500 1.125000 0.500000
vn 1.0000 -0.0000 -0.0000
vn -1.0000 -0.0000 -0.0000
vn -0.0000 -1.0000 -0.0000
vn 0.4132 0.9106 -0.0000
vn -0.0000 1.0000 -0.0000
vn -0.0000 -0.0000 -1.0000
vn -0.0000 -0.0000 1.0000
vn -0.7526 -0.6585 -0.0000
vn 0.7526 0.6585 -0.0000
vt 1.000000 0.000000
vt 0.937500 0.000000
vt 0.937500 0.812500
vt 0.062500 0.000000
vt 0.000000 0.812500
vt 0.000000 0.000000
vt 1.000000 0.812500
vt 0.062500 0.812500
vt 0.000000 0.000001
vt 0.062500 0.062500
vt -0.000000 0.062500
vt 0.062500 1.000000
vt 0.000000 0.937500
vt 0.062500 0.937500
vt 1.000000 0.937500
vt 1.000000 1.000000
vt 0.937500 1.000000
vt 0.937500 0.937500
vt 0.062500 0.562500
vt 0.062500 0.625000
vt 0.937500 0.625000
vt 0.937500 0.562500
vt 0.000000 1.000000
vt 0.066667 -0.000000
vt 0.062500 0.500000
vt 0.937500 0.500000
s 1
f 23/23/7 19/25/7 68/24/7
f 71/26/8 70/28/8 32/27/8
f 23/23/7 18/29/7 19/25/7
f 71/26/8 32/27/8 17/30/8
f 20/31/9 22/33/9 70/32/9
f 29/34/10 27/36/11 25/35/11
f 24/37/11 31/39/10 30/38/10
f 71/28/12 28/35/12 25/36/12
f 21/26/8 24/35/8 67/28/8
f 68/28/13 26/36/13 21/26/13
f 70/23/13 22/24/13 27/40/13
f 22/23/7 20/24/7 25/40/7
f 23/23/12 24/40/12 30/37/12
f 32/25/13 29/40/13 31/36/13
f 32/40/14 19/36/14 18/34/14
f 28/36/12 17/30/12 18/25/12
f 28/34/10 30/39/10 31/40/10
f 34/41/12 40/43/12 36/42/12
f 33/44/14 38/42/14 34/43/14
f 35/41/15 36/42/15 40/43/15
f 35/42/13 37/44/13 33/41/13
f 20/31/9 70/32/9 71/26/9
f 29/34/10 25/35/11 28/45/10
f 24/37/11 26/40/11 31/39/10
f 71/28/12 25/36/12 20/26/12
f 21/26/8 26/36/8 24/35/8
f 68/28/13 31/35/13 26/36/13
f 70/23/13 27/40/13 29/37/13
f 22/23/7 25/40/7 27/37/7
f 23/23/12 67/24/12 24/40/12
f 32/25/13 31/36/13 19/30/13
f 32/40/14 18/34/14 17/39/14
f 28/36/12 18/25/12 30/40/12
f 28/34/10 31/40/10 29/36/10
f 34/41/12 38/44/12 40/43/12
f 33/44/14 37/41/14 38/42/14
f 35/41/15 40/43/15 39/44/15
f 35/42/13 39/43/13 37/44/13
f 48/26/7 49/28/7 44/27/7
f 41/23/8 58/25/8 76/24/8
f 48/26/7 44/27/7 43/30/7
f 41/23/8 42/29/8 58/25/8
f 45/31/9 76/32/9 47/33/9
f 55/34/10 51/35/11 53/36/11
f 50/37/11 56/38/10 57/39/10
f 41/24/13 51/37/13 54/40/13
f 46/23/8 69/24/8 50/40/8
f 49/24/12 46/23/12 52/37/12
f 76/26/12 53/35/12 47/28/12
f 47/46/7 51/35/7 45/28/7
f 48/26/13 56/36/13 50/35/13
f 58/30/12 57/40/12 55/36/12
f 58/40/14 43/34/14 44/36/14
f 54/40/13 43/30/13 42/25/13
f 54/34/10 57/40/10 56/39/10
f 60/44/13 62/43/13 66/42/13
f 59/44/14 60/43/14 64/42/14
f 61/41/15 66/43/15 62/42/15
f 61/42/12 59/41/12 63/44/12
f 45/31/9 41/26/9 76/32/9
f 55/34/10 54/45/10 51/35/11
f 50/37/11 57/39/10 52/40/11
f 41/24/13 45/23/13 51/37/13
f 46/23/8 50/40/8 52/37/8
f 49/24/12 52/37/12 57/40/12
f 76/26/12 55/36/12 53/35/12
f 47/46/7 53/36/7 51/35/7
f 48/26/13 50/35/13 69/28/13
f 58/30/12 44/25/12 57/40/12
f 58/40/14 42/39/14 43/34/14
f 54/40/13 56/36/13 43/30/13
f 54/34/10 55/36/10 57/40/10
f 60/44/13 66/42/13 64/41/13
f 59/44/14 64/42/14 63/41/14
f 61/41/15 65/44/15 66/43/15
f 61/42/12 63/44/12 65/43/12
f 68/24/9 21/23/9 67/28/9
f 69/28/9 49/24/9 48/26/9
f 68/24/9 67/28/9 23/23/9
f 69/28/9 46/23/9 49/24/9
f 71/47/12 75/43/12 73/42/12
f 70/43/14 23/41/14 71/44/14
f 72/41/15 73/42/15 75/43/15
f 72/43/13 68/47/13 70/48/13
f 71/47/12 23/48/12 75/43/12
f 70/43/14 68/42/14 23/41/14
f 72/41/15 75/43/15 74/44/15
f 72/43/13 74/42/13 68/47/13
f 41/48/13 78/43/13 80/42/13
f 76/44/14 41/43/14 48/42/14
f 77/41/15 80/43/15 78/42/15
f 77/42/12 76/47/12 49/48/12
f 41/48/13 80/42/13 48/47/13
f 76/44/14 48/42/14 49/41/14
f 77/41/15 79/44/15 80/43/15
f 77/42/12 49/48/12 79/43/12
