# Blender 4.4.3
# www.blender.org
mtllib railing.mtl
o Railing
v -0.500000 0.000000 0.437500
v -0.500000 0.937500 0.437500
v -0.500000 0.937500 -0.437500
v -0.437500 0.937500 -0.437500
v -0.500000 0.000000 -0.500000
v -0.500000 0.000000 0.500000
v -0.437500 0.000000 -0.500000
v -0.437500 0.000000 0.500000
v -0.437500 0.000000 0.437500
v -0.500000 0.000000 -0.437500
v -0.437500 0.000000 -0.437500
v -0.500000 0.937500 -0.500000
v -0.500000 0.937500 0.500000
v -0.437500 0.937500 -0.500000
v -0.437500 0.937500 0.500000
v -0.500000 1.000000 0.437500
v -0.437500 1.000000 0.437500
v -0.500000 1.000000 -0.437500
v -0.437500 1.000000 -0.437500
v -0.437500 0.937500 0.437500
v -0.437500 0.562500 0.437500
v -0.500000 0.562500 0.437500
v -0.437500 0.625000 0.437500
v -0.500000 0.625000 0.437500
v -0.437500 0.562500 -0.437500
v -0.500000 0.562500 -0.437500
v -0.437500 0.625000 -0.437500
v -0.500000 0.625000 -0.437500
vn -0.0000 -0.0000 1.0000
vn -0.0000 -0.0000 -1.0000
vn -0.0000 -1.0000 -0.0000
vn -0.0000 0.9239 0.3827
vn -0.0000 0.3827 0.9239
vn -0.0000 0.3827 -0.9239
vn -0.0000 0.9239 -0.3827
vn -1.0000 -0.0000 -0.0000
vn 1.0000 -0.0000 -0.0000
vn -0.0000 1.0000 -0.0000
vt 1.000000 0.000000
vt 0.937500 0.000000
vt 0.937500 0.937500
vt 0.062500 0.000000
vt 0.000000 0.937500
vt -0.000000 0.000000
vt 1.000000 0.937500
vt 0.062500 0.937500
vt 0.000000 0.000001
vt 0.062500 0.062500
vt -0.000000 0.062500
vt 0.937500 0.062500
vt 1.000000 0.062500
vt 0.062500 1.000000
vt 1.000000 1.000000
vt 0.937500 1.000000
vt 0.066667 -0.000000
vt 0.937500 0.562500
vt 0.937500 0.625000
vt 0.062500 0.625000
vt 0.062500 0.562500
vt 0.000000 1.000000
s 1
usemtl 
f 10/1/1 11/2/1 4/3/1
f 1/4/2 20/5/2 9/6/2
f 10/1/1 4/3/1 3/7/1
f 1/4/2 2/8/2 20/5/2
f 6/9/3 9/10/3 8/11/3
f 11/2/3 10/12/3 5/13/3
f 17/14/4 13/5/5 15/8/5
f 12/7/6 18/15/7 19/16/7
f 1/6/8 13/6/8 16/6/8
f 7/1/2 5/2/2 12/3/6
f 11/2/9 7/1/9 14/7/9
f 9/4/9 15/5/9 8/6/9
f 8/17/1 13/5/5 6/6/1
f 10/4/8 18/14/8 12/5/8
f 20/8/9 19/16/9 17/14/9
f 20/3/3 3/14/3 4/8/3
f 16/16/8 3/8/8 2/3/8
f 16/14/4 19/3/7 18/16/7
f 22/18/8 24/19/8 28/20/8
f 21/18/3 22/19/3 26/20/3
f 23/21/10 28/19/10 24/20/10
f 23/20/9 21/21/9 25/18/9
f 6/9/3 1/4/3 9/10/3
f 11/2/3 5/13/3 7/1/3
f 17/14/4 16/22/4 13/5/5
f 12/7/6 19/16/7 14/3/6
f 1/6/8 6/6/8 13/6/8
f 7/1/2 12/3/6 14/7/6
f 11/2/9 14/7/9 19/16/9
f 9/4/9 17/14/9 15/5/9
f 8/17/1 15/8/5 13/5/5
f 10/4/8 12/5/8 5/6/8
f 20/8/9 4/3/9 19/16/9
f 20/3/3 2/16/3 3/14/3
f 16/16/8 18/14/8 3/8/8
f 16/14/4 17/8/4 19/3/7
f 22/18/8 28/20/8 26/21/8
f 21/18/3 26/20/3 25/21/3
f 23/21/10 27/18/10 28/19/10
f 23/20/9 25/18/9 27/19/9
