# Blender 4.4.3
# www.blender.org
mtllib scaffold.mtl
o Cube_Cube.001
v -0.375000 0.000000 0.500000
v -0.375000 1.000000 0.500000
v -0.375000 -0.000000 -0.500000
v -0.375000 1.000000 -0.500000
v 0.375000 0.000000 0.500000
v 0.375000 1.000000 0.500000
v 0.375000 -0.000000 -0.500000
v 0.375000 1.000000 -0.500000
v -0.250000 0.000000 0.500000
v -0.250000 1.000000 0.500000
v -0.250000 -0.000000 -0.500000
v -0.250000 1.000000 -0.500000
v 0.250000 0.000000 0.500000
v 0.250000 1.000000 0.500000
v 0.250000 -0.000000 -0.500000
v 0.250000 1.000000 -0.500000
v -0.250000 0.000000 0.375000
v -0.250000 1.000000 0.375000
v 0.250000 0.000000 0.375000
v 0.250000 1.000000 0.375000
v -0.250000 -0.000000 -0.375000
v -0.250000 1.000000 -0.375000
v 0.250000 -0.000000 -0.375000
v 0.250000 1.000000 -0.375000
v -0.375000 -0.000000 -0.375000
v -0.375000 1.000000 -0.375000
v 0.375000 -0.000000 -0.375000
v 0.375000 1.000000 -0.375000
v -0.375000 0.000000 0.375000
v -0.375000 1.000000 0.375000
v 0.375000 0.000000 0.375000
v 0.375000 1.000000 0.375000
v -0.375000 0.062500 -0.375000
v -0.375000 0.062500 0.375000
v -0.250000 0.937500 0.375000
v -0.375000 0.937500 -0.375000
v -0.375000 0.937500 0.375000
v -0.250000 0.562500 -0.000000
v -0.375000 0.562500 -0.000000
v -0.250000 0.437500 -0.000000
v -0.375000 0.437500 -0.000000
v -0.375000 0.187500 -0.375000
v -0.375000 0.187500 0.375000
v -0.250000 0.812500 -0.375000
v -0.375000 0.812500 -0.375000
v -0.375000 0.812500 0.375000
v -0.250000 0.500000 0.062500
v -0.375000 0.500000 0.062500
v -0.250000 0.500000 -0.062500
v -0.375000 0.500000 -0.062500
v 0.375000 0.062500 0.375000
v 0.375000 0.062500 -0.375000
v 0.250000 0.062500 0.375000
v 0.375000 0.937500 0.375000
v 0.375000 0.937500 -0.375000
v 0.250000 0.937500 -0.375000
v 0.250000 0.937500 0.375000
v 0.375000 0.562500 -0.000000
v 0.250000 0.562500 -0.000000
v 0.375000 0.437500 -0.000000
v 0.250000 0.437500 -0.000000
v 0.375000 0.187500 0.375000
v 0.375000 0.187500 -0.375000
v 0.250000 0.187500 0.375000
v 0.375000 0.812500 0.375000
v 0.375000 0.812500 -0.375000
v 0.250000 0.812500 0.375000
v 0.375000 0.500000 0.062500
v 0.250000 0.500000 0.062500
v 0.375000 0.500000 -0.062500
v 0.250000 0.500000 -0.062500
v -0.250000 0.062500 0.375000
v -0.250000 0.062500 0.500000
v 0.250000 0.062500 0.500000
v -0.250000 0.937500 0.500000
v 0.250000 0.937500 0.500000
v 0.000000 0.562500 0.375000
v 0.000000 0.562500 0.500000
v 0.000000 0.437500 0.375000
v 0.000000 0.437500 0.500000
v -0.250000 0.187500 0.375000
v -0.250000 0.187500 0.500000
v 0.250000 0.187500 0.500000
v -0.250000 0.812500 0.375000
v -0.250000 0.812500 0.500000
v 0.250000 0.812500 0.500000
v 0.041667 0.500000 0.375000
v 0.041667 0.500000 0.500000
v -0.041667 0.500000 0.375000
v -0.041667 0.500000 0.500000
v 0.250000 0.062500 -0.500000
v -0.250000 0.062500 -0.500000
v -0.250000 0.062500 -0.375000
v 0.250000 0.062500 -0.375000
v 0.250000 0.937500 -0.500000
v -0.250000 0.937500 -0.500000
v -0.250000 0.937500 -0.375000
v 0.000000 0.562500 -0.500000
v 0.000000 0.562500 -0.375000
v 0.000000 0.437500 -0.500000
v 0.000000 0.437500 -0.375000
v 0.250000 0.187500 -0.500000
v -0.250000 0.187500 -0.500000
v -0.250000 0.187500 -0.375000
v 0.250000 0.187500 -0.375000
v 0.250000 0.812500 -0.500000
v -0.250000 0.812500 -0.500000
v 0.250000 0.812500 -0.375000
v 0.041667 0.500000 -0.500000
v 0.041667 0.500000 -0.375000
v -0.041667 0.500000 -0.500000
v -0.041667 0.500000 -0.375000
vn -0.0000 1.0000 -0.0000
vn 1.0000 -0.0000 -0.0000
vn -0.0000 -0.0000 1.0000
vn -1.0000 -0.0000 -0.0000
vn -0.0000 -0.0000 -1.0000
vn -0.0000 -1.0000 -0.0000
vn -0.0000 -0.7071 0.7071
vn -0.0000 -0.7071 -0.7071
vn -0.0000 0.7071 0.7071
vn -0.0000 0.7071 -0.7071
vn 0.1322 -0.0000 0.9912
vn 0.9992 -0.0000 0.0393
vn 0.1322 -0.0000 -0.9912
vn 0.9992 -0.0000 -0.0393
vn -0.9992 -0.0000 -0.0393
vn -0.1322 -0.0000 -0.9912
vn -0.1322 -0.0000 0.9912
vn -0.9992 -0.0000 0.0393
vn 0.8321 -0.5547 -0.0000
vn -0.8321 -0.5547 -0.0000
vn 0.8321 0.5547 -0.0000
vn -0.8321 0.5547 -0.0000
vt 0.875000 0.250000
vt 0.875000 0.125000
vt 1.000000 0.125000
vt 0.125000 0.000000
vt 0.125000 1.000000
vt 0.000000 1.000000
vt 1.000000 0.000000
vt 1.000000 1.000000
vt 0.875000 1.000000
vt 0.125027 0.000035
vt 0.000035 0.999965
vt 1.000000 0.250000
vt 0.875000 0.000000
vt 0.000000 0.000000
vt 0.000000 0.250000
vt 0.000000 0.125000
vt 0.125000 0.125000
vt 0.125000 0.250000
vt 0.125000 0.875000
vt -0.000000 0.875000
vt 0.000000 0.750000
vt 0.125000 0.750000
vt 1.000000 0.750000
vt 1.000000 0.875000
vt 0.875000 0.875000
vt 0.875000 0.750000
vt 0.500000 0.250000
vt 0.500000 0.125000
vt 0.437500 0.750000
vt 0.437500 0.875000
vt 0.437500 0.125000
vt 0.437500 0.250000
vt 0.500000 0.750000
vt 0.500000 0.875000
vt 0.562500 0.250000
vt 0.562500 0.125000
vt 0.562500 0.875000
vt 0.562500 0.750000
vt 0.500000 0.562500
vt 0.562500 0.500000
vt 0.875000 0.812500
vt 0.500000 0.437500
vt 0.875000 0.062500
vt 0.875000 0.187500
vt 0.125000 0.937500
vt 0.125000 0.812500
vt 0.437500 0.500000
vt 0.125000 0.187500
vt 0.125000 0.500000
vt 0.000000 0.500000
vt 0.000000 0.541667
vt 0.125000 0.541667
vt 0.000000 0.458333
vt 0.125000 0.458333
vt 0.125000 0.250000
vt 0.000000 0.250000
vt 0.541667 0.500000
vt 0.750000 0.812500
vt 0.750000 0.062500
vt 0.750000 0.187500
vt 0.250000 0.937500
vt 0.250000 0.812500
vt 0.458333 0.500000
vt 0.250000 0.187500
vt 1.000000 0.500000
vt 0.875000 0.500000
vt 0.875000 0.541667
vt 1.000000 0.541667
vt 1.000000 0.458333
vt 0.875000 0.458333
vt 0.000035 0.000035
vt 0.875000 0.937500
vt 0.125000 0.062500
vt 0.750000 0.937500
vt 0.250000 0.062500
s 1
usemtl Material.001
f 26/1/1 22/2/1 12/3/1
f 11/4/2 12/5/2 22/6/2
f 21/7/3 22/8/3 26/9/3
f 25/10/4 26/5/4 4/11/4
f 3/7/5 4/8/5 12/9/5
f 11/12/6 21/1/6 25/2/6
f 9/13/2 17/7/2 18/8/2
f 1/14/3 9/4/3 10/5/3
f 17/14/5 29/4/5 30/5/5
f 30/9/4 29/13/4 1/7/4
f 9/15/6 1/16/6 29/17/6
f 30/18/1 2/15/1 10/16/1
f 20/8/5 32/9/5 31/13/5
f 31/10/2 32/5/2 6/11/2
f 6/8/3 14/9/3 13/13/3
f 14/5/4 20/6/4 19/14/4
f 31/19/6 5/20/6 13/21/6
f 14/20/1 6/21/1 32/22/1
f 8/8/2 28/9/2 27/13/2
f 15/4/5 16/5/5 8/6/5
f 23/7/4 24/8/4 16/9/4
f 27/4/3 28/5/3 24/6/3
f 8/23/1 16/24/1 24/25/1
f 23/26/6 15/23/6 7/24/6
f 40/27/7 41/28/7 33/2/7
f 34/17/8 41/28/8 40/27/8
f 47/29/9 48/30/9 43/19/9
f 46/17/7 48/31/7 47/32/7
f 38/33/10 39/34/10 37/19/10
f 36/25/9 39/34/9 38/33/9
f 49/35/8 50/36/8 45/2/8
f 42/25/10 50/37/10 49/38/10
f 39/39/4 48/40/4 46/41/4
f 41/42/4 34/43/4 43/44/4
f 39/39/4 36/45/4 45/46/4
f 41/42/4 50/47/4 42/48/4
f 40/42/2 93/43/11 104/44/12
f 38/39/2 49/40/2 44/41/12
f 38/39/2 35/45/13 84/46/14
f 48/40/4 39/39/4 50/47/4
f 40/42/2 47/47/2 81/48/14
f 38/39/2 47/47/2 40/42/2
f 60/34/7 61/33/7 94/26/7
f 53/22/8 61/33/8 60/34/8
f 68/31/9 69/32/9 64/18/9
f 67/22/7 69/29/7 68/30/7
f 58/28/10 59/27/10 57/18/10
f 56/1/9 59/27/9 58/28/9
f 70/37/8 71/38/8 108/26/8
f 105/1/10 71/35/10 70/36/10
f 59/39/4 69/40/4 67/41/15
f 61/42/4 53/43/16 64/44/15
f 59/39/4 56/45/17 108/46/18
f 61/42/4 71/47/4 105/48/18
f 60/42/2 52/43/2 63/44/2
f 58/39/2 70/40/2 66/41/2
f 58/39/2 54/45/2 65/46/2
f 69/40/4 59/39/4 71/47/4
f 60/42/2 68/47/2 62/48/2
f 58/39/2 68/47/2 60/42/2
f 79/49/19 80/50/19 73/15/19
f 74/21/20 80/50/20 79/49/20
f 87/51/21 88/52/21 83/22/21
f 86/21/19 88/51/19 87/52/19
f 77/49/22 78/50/22 76/15/22
f 75/21/21 78/50/21 77/49/21
f 89/53/20 90/54/20 85/55/20
f 82/56/22 90/53/22 89/54/22
f 78/39/3 88/57/3 86/58/3
f 80/42/3 74/59/3 83/60/3
f 78/39/3 75/61/3 85/62/3
f 80/42/3 90/63/3 82/64/3
f 79/42/5 72/59/13 81/60/14
f 77/39/5 89/57/5 84/58/14
f 77/39/5 57/61/16 67/62/15
f 88/57/3 78/39/3 90/63/3
f 79/42/5 87/63/5 64/64/15
f 89/57/5 77/39/5 87/63/5
f 100/65/19 101/66/19 93/1/19
f 94/26/20 101/66/20 100/65/20
f 109/67/21 110/68/21 105/23/21
f 108/26/19 110/67/19 109/68/19
f 98/65/22 99/66/22 56/1/22
f 97/26/21 99/66/21 98/65/21
f 111/1/20 112/12/20 44/69/20
f 104/70/22 112/1/22 111/12/22
f 99/39/3 110/57/3 108/58/18
f 101/42/3 94/59/17 105/60/18
f 99/39/3 97/61/11 44/62/12
f 101/42/3 112/63/3 104/64/12
f 100/42/5 92/59/5 103/60/5
f 98/39/5 111/57/5 107/58/5
f 98/39/5 95/61/5 106/62/5
f 110/57/3 99/39/3 112/63/3
f 100/42/5 109/63/5 102/64/5
f 111/57/5 98/39/5 109/63/5
f 4/12/1 26/1/1 12/3/1
f 21/14/2 11/4/2 22/6/2
f 25/13/3 21/7/3 26/9/3
f 3/71/4 25/10/4 4/11/4
f 11/13/5 3/7/5 12/9/5
f 3/3/6 11/12/6 25/2/6
f 10/9/2 9/13/2 18/8/2
f 2/6/3 1/14/3 10/5/3
f 18/6/5 17/14/5 30/5/5
f 2/8/4 30/9/4 1/7/4
f 17/18/6 9/15/6 29/17/6
f 18/17/1 30/18/1 10/16/1
f 19/7/5 20/8/5 31/13/5
f 5/71/2 31/10/2 6/11/2
f 5/7/3 6/8/3 13/13/3
f 13/4/4 14/5/4 19/14/4
f 19/22/6 31/19/6 13/21/6
f 20/19/1 14/20/1 32/22/1
f 7/7/2 8/8/2 27/13/2
f 7/14/5 15/4/5 8/6/5
f 15/13/4 23/7/4 16/9/4
f 23/14/3 27/4/3 24/6/3
f 28/26/1 8/23/1 24/25/1
f 27/25/6 23/26/6 7/24/6
f 93/1/7 40/27/7 33/2/7
f 72/18/8 34/17/8 40/27/8
f 81/22/9 47/29/9 43/19/9
f 84/18/7 46/17/7 47/32/7
f 35/22/10 38/33/10 37/19/10
f 97/26/9 36/25/9 38/33/9
f 44/1/8 49/35/8 45/2/8
f 104/26/10 42/25/10 49/38/10
f 37/72/4 39/39/4 46/41/4
f 48/40/4 41/42/4 43/44/4
f 50/47/4 39/39/4 45/46/4
f 33/73/4 41/42/4 42/48/4
f 49/40/2 40/42/2 104/44/12
f 97/72/11 38/39/2 44/41/12
f 47/47/2 38/39/2 84/46/14
f 41/42/4 48/40/4 50/47/4
f 72/73/13 40/42/2 81/48/14
f 49/40/2 38/39/2 40/42/2
f 52/25/7 60/34/7 94/26/7
f 51/19/8 53/22/8 60/34/8
f 62/17/9 68/31/9 64/18/9
f 65/19/7 67/22/7 68/30/7
f 54/17/10 58/28/10 57/18/10
f 55/2/9 56/1/9 58/28/9
f 66/25/8 70/37/8 108/26/8
f 63/2/10 105/1/10 70/36/10
f 57/72/16 59/39/4 67/41/15
f 69/40/4 61/42/4 64/44/15
f 71/47/4 59/39/4 108/46/18
f 94/73/17 61/42/4 105/48/18
f 70/40/2 60/42/2 63/44/2
f 55/72/2 58/39/2 66/41/2
f 68/47/2 58/39/2 65/46/2
f 61/42/4 69/40/4 71/47/4
f 51/73/2 60/42/2 62/48/2
f 70/40/2 58/39/2 60/42/2
f 72/18/19 79/49/19 73/15/19
f 53/22/20 74/21/20 79/49/20
f 64/21/21 87/51/21 83/22/21
f 67/22/19 86/21/19 87/52/19
f 57/18/22 77/49/22 76/15/22
f 35/22/21 75/21/21 77/49/21
f 84/56/20 89/53/20 85/55/20
f 81/55/22 82/56/22 89/54/22
f 76/74/3 78/39/3 86/58/3
f 88/57/3 80/42/3 83/60/3
f 90/63/3 78/39/3 85/62/3
f 73/75/3 80/42/3 82/64/3
f 89/57/5 79/42/5 81/60/14
f 35/74/13 77/39/5 84/58/14
f 87/63/5 77/39/5 67/62/15
f 80/42/3 88/57/3 90/63/3
f 53/75/16 79/42/5 64/64/15
f 79/42/5 89/57/5 87/63/5
f 92/12/19 100/65/19 93/1/19
f 91/23/20 94/26/20 100/65/20
f 102/26/21 109/67/21 105/23/21
f 106/23/19 108/26/19 109/68/19
f 95/12/22 98/65/22 56/1/22
f 96/23/21 97/26/21 98/65/21
f 107/70/20 111/1/20 44/69/20
f 103/69/22 104/70/22 111/12/22
f 56/74/17 99/39/3 108/58/18
f 110/57/3 101/42/3 105/60/18
f 112/63/3 99/39/3 44/62/12
f 93/75/11 101/42/3 104/64/12
f 111/57/5 100/42/5 103/60/5
f 96/74/5 98/39/5 107/58/5
f 109/63/5 98/39/5 106/62/5
f 101/42/3 110/57/3 112/63/3
f 91/75/5 100/42/5 102/64/5
f 100/42/5 111/57/5 109/63/5
