# Blender v2.79 (sub 0) OBJ File: 'spikes.blend'
# www.blender.org
o Cube_Cube.001
v 0.062500 0.000000 -0.062500
v 0.062500 0.000000 -0.187500
v 0.187500 0.000000 -0.062500
v 0.187500 0.000000 -0.187500
v 0.125000 1.000000 -0.125000
v 0.312500 0.000000 -0.062500
v 0.312500 0.000000 -0.187500
v 0.437500 0.000000 -0.062500
v 0.437500 0.000000 -0.187500
v 0.375000 1.000000 -0.125000
v 0.062500 0.000000 -0.312500
v 0.062500 0.000000 -0.437500
v 0.187500 0.000000 -0.312500
v 0.187500 0.000000 -0.437500
v 0.125000 1.000000 -0.375000
v 0.312500 0.000000 -0.312500
v 0.312500 0.000000 -0.437500
v 0.437500 0.000000 -0.312500
v 0.437500 0.000000 -0.437500
v 0.375000 1.000000 -0.375000
v -0.437500 0.000000 -0.062500
v -0.437500 0.000000 -0.187500
v -0.312500 0.000000 -0.062500
v -0.312500 0.000000 -0.187500
v -0.375000 1.000000 -0.125000
v -0.187500 0.000000 -0.062500
v -0.187500 0.000000 -0.187500
v -0.062500 0.000000 -0.062500
v -0.062500 0.000000 -0.187500
v -0.125000 1.000000 -0.125000
v -0.437500 0.000000 -0.312500
v -0.437500 0.000000 -0.437500
v -0.312500 0.000000 -0.312500
v -0.312500 0.000000 -0.437500
v -0.375000 1.000000 -0.375000
v -0.187500 0.000000 -0.312500
v -0.187500 0.000000 -0.437500
v -0.062500 0.000000 -0.312500
v -0.062500 0.000000 -0.437500
v -0.125000 1.000000 -0.375000
v 0.062500 0.000000 0.437500
v 0.062500 0.000000 0.312500
v 0.187500 0.000000 0.437500
v 0.187500 0.000000 0.312500
v 0.125000 1.000000 0.375000
v 0.312500 0.000000 0.437500
v 0.312500 0.000000 0.312500
v 0.437500 0.000000 0.437500
v 0.437500 0.000000 0.312500
v 0.375000 1.000000 0.375000
v 0.062500 0.000000 0.187500
v 0.062500 0.000000 0.062500
v 0.187500 0.000000 0.187500
v 0.187500 0.000000 0.062500
v 0.125000 1.000000 0.125000
v 0.312500 0.000000 0.187500
v 0.312500 0.000000 0.062500
v 0.437500 0.000000 0.187500
v 0.437500 0.000000 0.062500
v 0.375000 1.000000 0.125000
v -0.437500 0.000000 0.437500
v -0.437500 0.000000 0.312500
v -0.312500 0.000000 0.437500
v -0.312500 0.000000 0.312500
v -0.375000 1.000000 0.375000
v -0.187500 0.000000 0.437500
v -0.187500 0.000000 0.312500
v -0.062500 0.000000 0.437500
v -0.062500 0.000000 0.312500
v -0.125000 1.000000 0.375000
v -0.437500 0.000000 0.187500
v -0.437500 0.000000 0.062500
v -0.312500 0.000000 0.187500
v -0.312500 0.000000 0.062500
v -0.375000 1.000000 0.125000
v -0.187500 0.000000 0.187500
v -0.187500 0.000000 0.062500
v -0.062500 0.000000 0.187500
v -0.062500 0.000000 0.062500
v -0.125000 1.000000 0.125000
vt 0.562500 0.687500
vt 0.687500 0.562500
vt 0.687500 0.687500
vt 0.312500 0.000000
vt 0.437500 0.000000
vt 0.375000 1.000000
vt 0.312500 0.000000
vt 0.437500 0.000000
vt 0.562500 0.000000
vt 0.687500 0.000000
vt 0.625000 1.000000
vt 0.562500 0.000000
vt 0.687500 0.000000
vt 0.562500 0.937500
vt 0.687500 0.812500
vt 0.687500 0.937500
vt 0.312500 0.000000
vt 0.437500 0.000000
vt 0.375000 1.000000
vt 0.062500 -0.000000
vt 0.187500 -0.000000
vt 0.125000 1.000000
vt 0.562500 0.000000
vt 0.687500 0.000000
vt 0.625000 1.000000
vt 0.812500 0.000000
vt 0.937500 0.000000
vt 0.875000 1.000000
vt 0.812500 0.687500
vt 0.937500 0.562500
vt 0.937500 0.687500
vt 0.062500 -0.000000
vt 0.187500 -0.000000
vt 0.125000 1.000000
vt 0.312500 0.000000
vt 0.437500 0.000000
vt 0.375000 1.000000
vt 0.812500 0.000000
vt 0.937500 0.000000
vt 0.875000 1.000000
vt 0.562500 0.000000
vt 0.687500 0.000000
vt 0.625000 1.000000
vt 0.812500 0.937500
vt 0.937500 0.812500
vt 0.937500 0.937500
vt 0.062500 -0.000000
vt 0.187500 -0.000000
vt 0.125000 1.000000
vt 0.062500 -0.000000
vt 0.187500 -0.000000
vt 0.812500 0.000000
vt 0.937500 0.000000
vt 0.875000 1.000000
vt 0.812500 0.000000
vt 0.937500 0.000000
vt 0.562500 0.187500
vt 0.687500 0.062500
vt 0.687500 0.187500
vt 0.312500 0.000000
vt 0.437500 0.000000
vt 0.375000 1.000000
vt 0.812500 0.000000
vt 0.937500 0.000000
vt 0.875000 1.000000
vt 0.562500 0.000000
vt 0.687500 0.000000
vt 0.625000 1.000000
vt 0.062500 -0.000000
vt 0.187500 -0.000000
vt 0.125000 1.000000
vt 0.562500 0.437500
vt 0.687500 0.312500
vt 0.687500 0.437500
vt 0.312500 0.000000
vt 0.437500 0.000000
vt 0.375000 1.000000
vt 0.562500 0.000000
vt 0.687500 0.000000
vt 0.625000 1.000000
vt 0.562500 0.000000
vt 0.687500 0.000000
vt 0.312500 0.000000
vt 0.437500 0.000000
vt 0.812500 0.187500
vt 0.937500 0.062500
vt 0.937500 0.187500
vt 0.062500 -0.000000
vt 0.187500 -0.000000
vt 0.125000 1.000000
vt 0.812500 0.000000
vt 0.937500 0.000000
vt 0.875000 1.000000
vt 0.812500 0.000000
vt 0.937500 0.000000
vt 0.062500 -0.000000
vt 0.187500 -0.000000
vt 0.812500 0.437500
vt 0.937500 0.312500
vt 0.937500 0.437500
vt 0.062500 -0.000000
vt 0.187500 -0.000000
vt 0.125000 1.000000
vt 0.562500 0.000000
vt 0.687500 0.000000
vt 0.625000 1.000000
vt 0.812500 0.000000
vt 0.937500 0.000000
vt 0.875000 1.000000
vt 0.312500 0.000000
vt 0.437500 0.000000
vt 0.375000 1.000000
vt 0.062500 0.687500
vt 0.187500 0.562500
vt 0.187500 0.687500
vt 0.812500 0.000000
vt 0.937500 0.000000
vt 0.875000 1.000000
vt 0.312500 0.000000
vt 0.437500 0.000000
vt 0.375000 1.000000
vt 0.062500 -0.000000
vt 0.187500 -0.000000
vt 0.125000 1.000000
vt 0.562500 0.000000
vt 0.687500 0.000000
vt 0.625000 1.000000
vt 0.062500 0.937500
vt 0.187500 0.812500
vt 0.187500 0.937500
vt 0.812500 0.000000
vt 0.937500 0.000000
vt 0.875000 1.000000
vt 0.062500 -0.000000
vt 0.187500 -0.000000
vt 0.125000 1.000000
vt 0.062500 -0.000000
vt 0.187500 -0.000000
vt 0.812500 0.000000
vt 0.937500 0.000000
vt 0.312500 0.687500
vt 0.437500 0.562500
vt 0.437500 0.687500
vt 0.562500 0.000000
vt 0.687500 0.000000
vt 0.625000 1.000000
vt 0.312500 0.000000
vt 0.437500 0.000000
vt 0.375000 1.000000
vt 0.312500 0.000000
vt 0.437500 0.000000
vt 0.562500 0.000000
vt 0.687500 0.000000
vt 0.312500 0.937500
vt 0.437500 0.812500
vt 0.437500 0.937500
vt 0.562500 0.000000
vt 0.687500 0.000000
vt 0.625000 1.000000
vt 0.062500 -0.000000
vt 0.187500 -0.000000
vt 0.125000 1.000000
vt 0.312500 0.000000
vt 0.437500 0.000000
vt 0.375000 1.000000
vt 0.812500 0.000000
vt 0.937500 0.000000
vt 0.875000 1.000000
vt 0.062500 0.187500
vt 0.187500 0.062500
vt 0.187500 0.187500
vt 0.812500 0.000000
vt 0.937500 0.000000
vt 0.875000 1.000000
vt 0.812500 0.000000
vt 0.937500 0.000000
vt 0.062500 -0.000000
vt 0.187500 -0.000000
vt 0.125000 1.000000
vt 0.062500 -0.000000
vt 0.187500 -0.000000
vt 0.062500 0.437500
vt 0.187500 0.312500
vt 0.187500 0.437500
vt 0.812500 0.000000
vt 0.937500 0.000000
vt 0.875000 1.000000
vt 0.562500 0.000000
vt 0.687500 0.000000
vt 0.625000 1.000000
vt 0.062500 -0.000000
vt 0.187500 -0.000000
vt 0.125000 1.000000
vt 0.312500 0.000000
vt 0.437500 0.000000
vt 0.375000 1.000000
vt 0.312500 0.187500
vt 0.437500 0.062500
vt 0.437500 0.187500
vt 0.562500 0.000000
vt 0.687500 0.000000
vt 0.625000 1.000000
vt 0.812500 0.000000
vt 0.937500 0.000000
vt 0.875000 1.000000
vt 0.312500 0.000000
vt 0.437500 0.000000
vt 0.375000 1.000000
vt 0.062500 -0.000000
vt 0.187500 -0.000000
vt 0.125000 1.000000
vt 0.312500 0.437500
vt 0.437500 0.312500
vt 0.437500 0.437500
vt 0.562500 0.000000
vt 0.687500 0.000000
vt 0.625000 1.000000
vt 0.562500 0.000000
vt 0.687500 0.000000
vt 0.312500 0.000000
vt 0.437500 0.000000
vt 0.375000 1.000000
vt 0.312500 0.000000
vt 0.437500 0.000000
vt 0.562500 0.562500
vt 0.562500 0.812500
vt 0.812500 0.562500
vt 0.812500 0.812500
vt 0.562500 0.062500
vt 0.562500 0.312500
vt 0.812500 0.062500
vt 0.812500 0.312500
vt 0.062500 0.562500
vt 0.062500 0.812500
vt 0.312500 0.562500
vt 0.312500 0.812500
vt 0.062500 0.062500
vt 0.062500 0.312500
vt 0.312500 0.062500
vt 0.312500 0.312500
vn 0.0000 -1.0000 0.0000
vn -0.9981 0.0624 0.0000
vn 0.0000 0.0624 -0.9981
vn 0.9981 0.0624 0.0000
vn 0.0000 0.0624 0.9981
s off
f 3/1/1 2/2/1 4/3/1
f 2/4/2 1/5/2 5/6/2
f 4/7/3 2/8/3 5/6/3
f 3/9/4 4/10/4 5/11/4
f 1/12/5 3/13/5 5/11/5
f 8/14/1 7/15/1 9/16/1
f 7/17/2 6/18/2 10/19/2
f 9/20/3 7/21/3 10/22/3
f 8/23/4 9/24/4 10/25/4
f 6/26/5 8/27/5 10/28/5
f 13/29/1 12/30/1 14/31/1
f 12/32/2 11/33/2 15/34/2
f 14/35/3 12/36/3 15/37/3
f 13/38/4 14/39/4 15/40/4
f 11/41/5 13/42/5 15/43/5
f 18/44/1 17/45/1 19/46/1
f 17/47/2 16/48/2 20/49/2
f 19/50/3 17/51/3 20/49/3
f 18/52/4 19/53/4 20/54/4
f 16/55/5 18/56/5 20/54/5
f 23/57/1 22/58/1 24/59/1
f 22/60/2 21/61/2 25/62/2
f 24/63/3 22/64/3 25/65/3
f 23/66/4 24/67/4 25/68/4
f 21/69/5 23/70/5 25/71/5
f 28/72/1 27/73/1 29/74/1
f 27/75/2 26/76/2 30/77/2
f 29/78/3 27/79/3 30/80/3
f 28/81/4 29/82/4 30/80/4
f 26/83/5 28/84/5 30/77/5
f 33/85/1 32/86/1 34/87/1
f 32/88/2 31/89/2 35/90/2
f 34/91/3 32/92/3 35/93/3
f 33/94/4 34/95/4 35/93/4
f 31/96/5 33/97/5 35/90/5
f 38/98/1 37/99/1 39/100/1
f 37/101/2 36/102/2 40/103/2
f 39/104/3 37/105/3 40/106/3
f 38/107/4 39/108/4 40/109/4
f 36/110/5 38/111/5 40/112/5
f 43/113/1 42/114/1 44/115/1
f 42/116/2 41/117/2 45/118/2
f 44/119/3 42/120/3 45/121/3
f 43/122/4 44/123/4 45/124/4
f 41/125/5 43/126/5 45/127/5
f 48/128/1 47/129/1 49/130/1
f 47/131/2 46/132/2 50/133/2
f 49/134/3 47/135/3 50/136/3
f 48/137/4 49/138/4 50/136/4
f 46/139/5 48/140/5 50/133/5
f 53/141/1 52/142/1 54/143/1
f 52/144/2 51/145/2 55/146/2
f 54/147/3 52/148/3 55/149/3
f 53/150/4 54/151/4 55/149/4
f 51/152/5 53/153/5 55/146/5
f 58/154/1 57/155/1 59/156/1
f 57/157/2 56/158/2 60/159/2
f 59/160/3 57/161/3 60/162/3
f 58/163/4 59/164/4 60/165/4
f 56/166/5 58/167/5 60/168/5
f 63/169/1 62/170/1 64/171/1
f 62/172/2 61/173/2 65/174/2
f 64/175/3 62/176/3 65/174/3
f 63/177/4 64/178/4 65/179/4
f 61/180/5 63/181/5 65/179/5
f 68/182/1 67/183/1 69/184/1
f 67/185/2 66/186/2 70/187/2
f 69/188/3 67/189/3 70/190/3
f 68/191/4 69/192/4 70/193/4
f 66/194/5 68/195/5 70/196/5
f 73/197/1 72/198/1 74/199/1
f 72/200/2 71/201/2 75/202/2
f 74/203/3 72/204/3 75/205/3
f 73/206/4 74/207/4 75/208/4
f 71/209/5 73/210/5 75/211/5
f 78/212/1 77/213/1 79/214/1
f 77/215/2 76/216/2 80/217/2
f 79/218/3 77/219/3 80/217/3
f 78/220/4 79/221/4 80/222/4
f 76/223/5 78/224/5 80/222/5
f 3/1/1 1/225/1 2/2/1
f 8/14/1 6/226/1 7/15/1
f 13/29/1 11/227/1 12/30/1
f 18/44/1 16/228/1 17/45/1
f 23/57/1 21/229/1 22/58/1
f 28/72/1 26/230/1 27/73/1
f 33/85/1 31/231/1 32/86/1
f 38/98/1 36/232/1 37/99/1
f 43/113/1 41/233/1 42/114/1
f 48/128/1 46/234/1 47/129/1
f 53/141/1 51/235/1 52/142/1
f 58/154/1 56/236/1 57/155/1
f 63/169/1 61/237/1 62/170/1
f 68/182/1 66/238/1 67/183/1
f 73/197/1 71/239/1 72/198/1
f 78/212/1 76/240/1 77/213/1
