# Blender v2.79 (sub 0) OBJ File: 'toaster.blend'
# www.blender.org
o Plane
v 0.093750 0.312500 -0.125000
v 0.031250 0.312500 -0.125000
v 0.093750 0.312500 0.125000
v 0.031250 0.312500 0.125000
v -0.125000 0.000000 0.250000
v 0.125000 0.000000 0.250000
v -0.125000 0.000000 -0.250000
v 0.125000 0.000000 -0.250000
v -0.125000 0.250000 0.250000
v 0.125000 0.250000 0.250000
v -0.125000 0.250000 -0.250000
v 0.125000 0.250000 -0.250000
v -0.125000 0.312500 0.187500
v 0.125000 0.312500 0.187500
v -0.125000 0.312500 -0.187500
v 0.125000 0.312500 -0.187500
v -0.031250 0.312500 -0.125000
v -0.093750 0.312500 -0.125000
v -0.031250 0.312500 0.125000
v -0.093750 0.312500 0.125000
v 0.093750 0.062500 -0.125000
v 0.031250 0.062500 -0.125000
v 0.093750 0.062500 0.125000
v 0.031250 0.062500 0.125000
v -0.031250 0.062500 0.125000
v -0.031250 0.062500 -0.125000
v -0.093750 0.062500 -0.125000
v -0.093750 0.062500 0.125000
v -0.093750 0.156250 -0.250000
v 0.093750 0.156250 -0.250000
v -0.093750 0.218750 -0.250000
v 0.093750 0.218750 -0.250000
v 0.093750 0.156250 -0.312500
v -0.093750 0.156250 -0.312500
v 0.093750 0.218750 -0.312500
v -0.093750 0.218750 -0.312500
vt 0.750000 0.812500
vt 0.812500 0.562500
vt 0.812500 0.812500
vt 0.500000 0.000000
vt 0.000000 0.250000
vt 0.000000 -0.000000
vt 0.500000 0.812500
vt 0.437500 0.562500
vt 0.500000 0.562500
vt 0.750000 0.812500
vt 0.812500 0.562500
vt 0.812500 0.812500
vt 0.500000 0.250000
vt 0.062500 0.562500
vt 0.750000 0.000000
vt 0.500000 0.250000
vt 0.500000 0.000000
vt 1.000000 0.000000
vt 0.750000 0.250000
vt 0.750000 0.000000
vt 0.375000 0.718750
vt 0.125000 0.656250
vt 0.375000 0.656250
vt -0.000000 0.562500
vt 0.062500 0.812500
vt -0.000000 0.812500
vt 0.125000 0.593750
vt 0.375000 0.593750
vt 0.125000 0.781250
vt 0.437500 0.812500
vt 0.500000 0.250000
vt 0.062500 0.562500
vt -0.000000 0.250000
vt 0.375000 0.781250
vt 0.500000 0.500000
vt 0.750000 0.562500
vt 0.500000 0.562500
vt 0.500000 0.500000
vt 0.750000 0.562500
vt 0.500000 0.562500
vt 0.750000 0.812500
vt 0.812500 0.562500
vt 0.812500 0.812500
vt 0.500000 0.812500
vt 0.750000 0.812500
vt 0.500000 0.812500
vt 0.500000 0.812500
vt 0.750000 0.562500
vt 0.812500 0.562500
vt 0.812500 0.812500
vt 0.500000 0.812500
vt 0.750000 0.562500
vt 0.750000 0.375000
vt 0.562500 0.312500
vt 0.750000 0.312500
vt 0.812500 0.375000
vt 0.812500 0.312500
vt 0.750000 0.250000
vt 0.562500 0.250000
vt 0.500000 0.312500
vt 0.562500 0.375000
vt 0.500000 0.375000
vt 0.562500 0.437500
vt 0.750000 0.437500
vt 0.500000 0.500000
vt 0.000000 0.500000
vt 0.750000 0.250000
vt 1.000000 0.250000
vt 0.125000 0.718750
vt 0.500000 0.500000
vt 0.437500 0.562500
vt -0.000000 0.500000
vt 0.750000 0.500000
vt 0.750000 0.500000
vt 0.500000 0.562500
vt 0.500000 0.562500
vn 0.0000 0.0000 -1.0000
vn 0.0000 -1.0000 0.0000
vn 0.0000 0.7071 -0.7071
vn 1.0000 0.0000 0.0000
vn 0.0000 0.0000 1.0000
vn 0.0000 1.0000 0.0000
vn 0.0000 0.7071 0.7071
vn -1.0000 0.0000 0.0000
s off
f 3/1/1 24/2/1 4/3/1
f 7/4/2 6/5/2 5/6/2
f 11/7/3 16/8/3 12/9/3
f 19/10/1 28/11/1 20/12/1
f 8/13/4 14/14/4 6/5/4
f 7/15/1 12/16/1 8/17/1
f 6/18/5 9/19/5 5/20/5
f 17/21/6 4/22/6 2/23/6
f 10/24/7 13/25/7 9/26/7
f 3/27/6 16/8/6 1/28/6
f 20/29/6 15/30/6 13/25/6
f 5/31/8 15/32/8 7/33/8
f 15/30/6 18/34/6 17/21/6
f 13/25/6 14/14/6 4/22/6
f 23/35/6 22/36/6 24/37/6
f 25/38/6 27/39/6 28/40/6
f 2/41/5 21/42/5 1/43/5
f 20/44/4 27/39/4 18/45/4
f 4/46/4 22/36/4 2/41/4
f 1/47/8 23/48/8 3/1/8
f 18/45/5 26/49/5 17/50/5
f 17/51/8 25/52/8 19/10/8
f 36/53/1 33/54/1 34/55/1
f 31/56/8 34/55/8 29/57/8
f 29/58/2 33/54/2 30/59/2
f 30/60/4 35/61/4 32/62/4
f 32/63/6 36/53/6 31/64/6
f 3/1/1 23/48/1 24/2/1
f 7/4/2 8/13/2 6/5/2
f 11/7/3 15/30/3 16/8/3
f 19/10/1 25/52/1 28/11/1
f 8/13/4 12/65/4 16/8/4
f 16/8/4 14/14/4 8/13/4
f 14/14/4 10/66/4 6/5/4
f 7/15/1 11/67/1 12/16/1
f 6/18/5 10/68/5 9/19/5
f 17/21/6 19/69/6 4/22/6
f 10/24/7 14/14/7 13/25/7
f 3/27/6 14/14/6 16/8/6
f 20/29/6 18/34/6 15/30/6
f 5/31/8 9/70/8 13/71/8
f 13/71/8 15/32/8 5/31/8
f 15/32/8 11/72/8 7/33/8
f 17/21/6 2/23/6 15/30/6
f 2/23/6 1/28/6 16/8/6
f 15/30/6 2/23/6 16/8/6
f 3/27/6 4/22/6 14/14/6
f 4/22/6 19/69/6 13/25/6
f 19/69/6 20/29/6 13/25/6
f 23/35/6 21/73/6 22/36/6
f 25/38/6 26/74/6 27/39/6
f 2/41/5 22/36/5 21/42/5
f 20/44/4 28/40/4 27/39/4
f 4/46/4 24/37/4 22/36/4
f 1/47/8 21/75/8 23/48/8
f 18/45/5 27/39/5 26/49/5
f 17/51/8 26/76/8 25/52/8
f 36/53/1 35/61/1 33/54/1
f 31/56/8 36/53/8 34/55/8
f 29/58/2 34/55/2 33/54/2
f 30/60/4 33/54/4 35/61/4
f 32/63/6 35/61/6 36/53/6
