# Blender v2.76 (sub 0) OBJ File: 'launch_table_large_scaffold_base.blend'
# www.blender.org
o Cube.003_Cube.004
v 1.000000 0.000000 0.749996
v 1.000000 1.000000 0.749996
v 1.000000 0.000000 0.999996
v 1.000000 1.000000 0.999996
v 0.750000 0.000000 0.749996
v 0.750000 1.000000 0.749996
v 0.750000 0.000000 0.999996
v 0.750000 1.000000 0.999996
v -0.750000 0.000000 0.749996
v -0.750000 1.000000 0.749996
v -0.750000 0.000000 0.999996
v -0.750000 1.000000 0.999996
v -1.000000 0.000000 0.749996
v -1.000000 1.000000 0.749996
v -1.000000 0.000000 0.999996
v -1.000000 1.000000 0.999996
v -0.750000 0.000000 -1.000004
v -0.750000 1.000000 -1.000004
v -0.750000 0.000000 -0.750004
v -0.750000 1.000000 -0.750004
v -1.000000 0.000000 -1.000004
v -1.000000 1.000000 -1.000004
v -1.000000 0.000000 -0.750004
v -1.000000 1.000000 -0.750004
v 1.000000 0.000000 -1.000004
v 1.000000 1.000000 -1.000004
v 1.000000 0.000000 -0.750004
v 1.000000 1.000000 -0.750004
v 0.750000 0.000000 -1.000004
v 0.750000 1.000000 -1.000004
v 0.750000 0.000000 -0.750004
v 0.750000 1.000000 -0.750004
v 0.750000 0.000000 0.874996
v 0.750000 1.000000 0.874996
v -0.750000 0.000000 0.874996
v -0.750000 1.000000 0.874996
v 0.750000 0.000000 -0.875004
v 0.750000 1.000000 -0.875004
v -0.750000 0.000000 -0.875004
v -0.750000 1.000000 -0.875004
v 0.875000 0.000000 -0.750004
v 0.875000 1.000000 -0.750004
v 0.875000 0.000000 0.749996
v 0.875000 1.000000 0.749996
v -0.875000 0.000000 -0.750004
v -0.875000 1.000000 -0.750004
v -0.875000 0.000000 0.749996
v -0.875000 1.000000 0.749996
v 0.500000 1.000000 -0.250004
v 0.500000 0.000000 -0.250004
v -0.500000 0.000000 -0.250004
v -0.500000 1.000000 -0.250004
v -0.676777 0.000000 -0.323227
v -0.676777 1.000000 -0.323227
v -0.750000 0.000000 -0.500004
v -0.750000 1.000000 -0.500004
v -0.676777 0.000000 -0.676780
v -0.676777 1.000000 -0.676780
v -0.500000 0.000000 -0.750004
v -0.500000 1.000000 -0.750004
v -0.323223 0.000000 -0.676780
v -0.323223 1.000000 -0.676780
v -0.250000 0.000000 -0.500004
v -0.250000 1.000000 -0.500004
v -0.323223 0.000000 -0.323227
v -0.323223 1.000000 -0.323227
v 0.323223 0.000000 -0.323227
v 0.323223 1.000000 -0.323227
v 0.250000 0.000000 -0.500004
v 0.250000 1.000000 -0.500004
v 0.323223 0.000000 -0.676780
v 0.323223 1.000000 -0.676780
v 0.500000 0.000000 -0.750004
v 0.500000 1.000000 -0.750004
v 0.676777 0.000000 -0.676780
v 0.676777 1.000000 -0.676780
v 0.750000 0.000000 -0.500004
v 0.750000 1.000000 -0.500004
v 0.676777 0.000000 -0.323227
v 0.676777 1.000000 -0.323227
v 0.156250 0.000000 -0.156254
v 0.156250 1.000000 -0.156254
v 0.156250 0.000000 0.156246
v 0.156250 1.000000 0.156246
v -0.156250 0.000000 -0.156254
v -0.156250 1.000000 -0.156254
v -0.156250 0.000000 0.156246
v -0.156250 1.000000 0.156246
v 0.750000 0.000000 0.874996
v 0.750000 1.000000 0.874996
v -0.750000 0.000000 0.874996
v -0.750000 1.000000 0.874996
v 0.750000 0.000000 -0.875004
v 0.750000 1.000000 -0.875004
v -0.750000 0.000000 -0.875004
v -0.750000 1.000000 -0.875004
v 0.875000 0.000000 -0.750004
v 0.875000 1.000000 -0.750004
v 0.875000 0.000000 0.749996
v 0.875000 1.000000 0.749996
v -0.875000 0.000000 -0.750004
v -0.875000 1.000000 -0.750004
v -0.875000 0.000000 0.749996
v -0.875000 1.000000 0.749996
vt 0.176471 0.235294
vt 0.176471 -0.000000
vt 0.235294 -0.000000
vt 0.117647 0.235294
vt 0.117647 0.000000
vt 0.058824 0.235294
vt 0.058824 0.000000
vt 0.000000 0.235294
vt 0.000000 -0.000000
vt 0.779412 0.544118
vt 0.705882 0.544118
vt 0.705882 0.470588
vt 0.058824 0.294118
vt 0.000000 0.294118
vt 0.852941 0.470588
vt 0.852941 0.235294
vt 0.926471 0.235294
vt 0.926471 0.470588
vt 1.000000 0.235294
vt 0.705882 0.588235
vt 0.352941 0.588235
vt 0.352941 0.352941
vt -0.000000 0.588235
vt 0.705882 0.823529
vt 0.352941 0.823529
vt 0.000000 0.823529
vt 0.720588 0.235294
vt 0.676471 0.235294
vt 0.676471 0.000000
vt 0.588235 0.235294
vt 0.544118 0.235294
vt 0.544118 -0.000000
vt 0.764706 0.235294
vt 0.720588 0.000000
vt 0.500000 0.235294
vt 0.500000 -0.000000
vt 0.808824 0.235294
vt 0.764706 0.000000
vt 0.455882 0.235294
vt 0.455882 -0.000000
vt 0.705882 0.235294
vt 0.779412 0.235294
vt 0.808824 0.000000
vt 0.411765 0.235294
vt 0.411765 -0.000000
vt 0.632353 0.235294
vt 0.632353 0.000000
vt 0.897059 0.235294
vt 0.852941 0.000000
vt 0.367647 0.235294
vt 0.367647 -0.000000
vt 0.588235 0.000000
vt 0.941176 0.235294
vt 0.897059 0.000000
vt 0.323529 0.235294
vt 0.323529 -0.000000
vt 0.235294 0.294118
vt 0.338235 0.250000
vt 0.352941 0.294118
vt 0.279412 0.235294
vt 0.235294 0.235294
vt 0.279412 -0.000000
vt 0.588235 0.294118
vt 0.647059 0.235294
vt 0.647059 0.352941
vt 0.779412 0.470588
vt 1.000000 0.470588
vt 0.705882 0.352941
vt 0.000000 0.352941
vt 0.941176 0.000000
vt 0.338235 0.338235
vt 0.294118 0.352941
vt 0.250000 0.338235
vt 0.250000 0.250000
vt 0.294118 0.235294
vt 0.705882 0.294118
vt 0.691176 0.338235
vt 0.602941 0.338235
vt 0.602941 0.250000
vt 0.691176 0.250000
vn 1.000000 0.000000 0.000000
vn 0.000000 0.000000 1.000000
vn -1.000000 0.000000 -0.000000
vn 0.000000 0.000000 -1.000000
vn 0.000000 1.000000 0.000000
vn 0.923900 0.000000 -0.382700
vn -0.382700 0.000000 0.923900
vn 0.382700 0.000000 -0.923900
vn -0.923900 0.000000 0.382700
vn -0.382700 0.000000 -0.923900
vn -0.923900 0.000000 -0.382700
vn 0.923900 0.000000 0.382700
vn 0.382700 0.000000 0.923900
s off
f 4/1/1 3/2/1 1/3/1
f 8/4/2 7/5/2 3/2/2
f 6/6/3 5/7/3 7/5/3
f 2/8/4 1/9/4 5/7/4
f 88/10/5 84/11/5 82/12/5
f 6/6/5 8/13/5 4/14/5
f 12/1/1 11/2/1 9/3/1
f 16/4/2 15/5/2 11/2/2
f 14/6/3 13/7/3 15/5/3
f 10/8/4 9/9/4 13/7/4
f 14/6/5 16/13/5 12/14/5
f 20/1/1 19/2/1 17/3/1
f 24/4/2 23/5/2 19/2/2
f 22/6/3 21/7/3 23/5/3
f 18/8/4 17/9/4 21/7/4
f 82/15/4 81/16/4 85/17/4
f 24/13/5 20/14/5 18/8/5
f 28/1/1 27/2/1 25/3/1
f 32/4/2 31/5/2 27/2/2
f 30/6/3 29/7/3 31/5/3
f 26/8/4 25/9/4 29/7/4
f 86/18/3 85/17/3 87/19/3
f 32/13/5 28/14/5 26/8/5
f 34/20/2 36/21/2 35/22/2
f 39/22/4 40/21/4 38/23/4
f 42/24/1 44/25/1 43/21/1
f 47/21/3 48/25/3 46/26/3
f 76/27/6 78/28/6 77/29/6
f 52/30/7 54/31/7 53/32/7
f 74/33/8 76/27/8 75/34/8
f 54/31/9 56/35/9 55/36/9
f 72/37/10 74/33/10 73/38/10
f 56/35/11 58/39/11 57/40/11
f 88/12/2 87/41/2 83/42/2
f 70/16/11 72/37/11 71/43/11
f 58/39/10 60/44/10 59/45/10
f 78/28/12 80/46/12 79/47/12
f 68/48/9 70/16/9 69/49/9
f 60/44/8 62/50/8 61/51/8
f 80/46/13 49/30/13 50/52/13
f 49/53/7 68/48/7 67/54/7
f 62/50/6 64/55/6 63/56/6
f 64/57/5 58/58/5 56/59/5
f 66/60/13 52/61/13 51/3/13
f 64/55/12 66/60/12 65/62/12
f 78/63/5 74/64/5 49/65/5
f 84/66/1 83/42/1 81/16/1
f 91/22/4 92/21/4 90/20/4
f 94/23/2 96/21/2 95/22/2
f 99/21/3 100/25/3 98/24/3
f 102/26/1 104/25/1 103/21/1
f 2/61/1 4/1/1 1/3/1
f 4/1/2 8/4/2 3/2/2
f 8/4/3 6/6/3 7/5/3
f 6/6/4 2/8/4 5/7/4
f 86/66/5 88/10/5 82/12/5
f 2/8/5 6/6/5 4/14/5
f 10/61/1 12/1/1 9/3/1
f 12/1/2 16/4/2 11/2/2
f 16/4/3 14/6/3 15/5/3
f 14/6/4 10/8/4 13/7/4
f 10/8/5 14/6/5 12/14/5
f 18/61/1 20/1/1 17/3/1
f 20/1/2 24/4/2 19/2/2
f 24/4/3 22/6/3 23/5/3
f 22/6/4 18/8/4 21/7/4
f 86/18/4 82/15/4 85/17/4
f 22/6/5 24/13/5 18/8/5
f 26/61/1 28/1/1 25/3/1
f 28/1/2 32/4/2 27/2/2
f 32/4/3 30/6/3 31/5/3
f 30/6/4 26/8/4 29/7/4
f 88/67/3 86/18/3 87/19/3
f 30/6/5 32/13/5 26/8/5
f 33/68/2 34/20/2 35/22/2
f 37/69/4 39/22/4 38/23/4
f 41/20/1 42/24/1 43/21/1
f 45/23/3 47/21/3 46/26/3
f 75/34/6 76/27/6 77/29/6
f 51/52/7 52/30/7 53/32/7
f 73/38/8 74/33/8 75/34/8
f 53/32/9 54/31/9 55/36/9
f 71/43/10 72/37/10 73/38/10
f 55/36/11 56/35/11 57/40/11
f 84/66/2 88/12/2 83/42/2
f 69/49/11 70/16/11 71/43/11
f 57/40/10 58/39/10 59/45/10
f 77/29/12 78/28/12 79/47/12
f 67/54/9 68/48/9 69/49/9
f 59/45/8 60/44/8 61/51/8
f 79/47/13 80/46/13 50/52/13
f 50/70/7 49/53/7 67/54/7
f 61/51/6 62/50/6 63/56/6
f 56/59/5 54/71/5 52/72/5
f 52/72/5 66/73/5 56/59/5
f 64/57/5 62/74/5 60/75/5
f 60/75/5 58/58/5 64/57/5
f 56/59/5 66/73/5 64/57/5
f 65/62/13 66/60/13 51/3/13
f 63/56/12 64/55/12 65/62/12
f 70/76/5 68/77/5 49/65/5
f 49/65/5 80/78/5 78/63/5
f 78/63/5 76/79/5 74/64/5
f 74/64/5 72/80/5 70/76/5
f 70/76/5 49/65/5 74/64/5
f 82/15/1 84/66/1 81/16/1
f 89/68/4 91/22/4 90/20/4
f 93/69/2 94/23/2 95/22/2
f 97/20/3 99/21/3 98/24/3
f 101/23/1 102/26/1 103/21/1
