# Blender v2.76 (sub 0) OBJ File: 'soyuz_launcher_legs.blend'
# www.blender.org
o Cube.003_Cube.009
v 3.000000 0.000000 -3.000000
v 3.000000 3.000000 -3.000000
v 3.000000 0.000000 -6.000000
v 3.000000 3.000000 -6.000000
v 6.000000 0.000000 -3.000000
v 6.000000 3.000000 -3.000000
v 6.000000 0.000000 -6.000000
v 6.000000 3.000000 -6.000000
v 3.000000 0.000000 -3.500000
v 3.000000 3.000000 -3.500000
v 3.000000 0.000000 -5.500000
v 3.000000 3.000000 -5.500000
v 6.000000 0.000000 -3.500000
v 6.000000 3.000000 -3.500000
v 6.000000 0.000000 -5.500000
v 6.000000 3.000000 -5.500000
v 5.500000 0.000000 -3.000000
v 5.500000 3.000000 -3.000000
v 3.500000 0.000000 -3.000000
v 3.500000 3.000000 -3.000000
v 5.500000 0.000000 -6.000000
v 5.500000 3.000000 -6.000000
v 3.500000 0.000000 -6.000000
v 3.500000 3.000000 -6.000000
v 5.750000 0.000000 -3.500000
v 5.750000 3.000000 -3.500000
v 5.750000 0.000000 -5.500000
v 5.750000 3.000000 -5.500000
v 3.250000 3.000000 -5.500000
v 3.250000 0.000000 -5.500000
v 3.250000 3.000000 -3.500000
v 3.250000 0.000000 -3.500000
v 5.500000 0.000000 -5.750000
v 5.500000 3.000000 -5.750000
v 3.500000 0.000000 -5.750000
v 3.500000 3.000000 -5.750000
v 3.500000 3.000000 -3.250000
v 3.500000 0.000000 -3.250000
v 5.500000 3.000000 -3.250000
v 5.500000 0.000000 -3.250000
v -6.000000 0.000000 -3.000000
v -6.000000 3.000000 -3.000000
v -6.000000 0.000000 -6.000000
v -6.000000 3.000000 -6.000000
v -3.000000 0.000000 -3.000000
v -3.000000 3.000000 -3.000000
v -3.000000 0.000000 -6.000000
v -3.000000 3.000000 -6.000000
v -6.000000 0.000000 -3.500000
v -6.000000 3.000000 -3.500000
v -6.000000 0.000000 -5.500000
v -6.000000 3.000000 -5.500000
v -3.000000 0.000000 -3.500000
v -3.000000 3.000000 -3.500000
v -3.000000 0.000000 -5.500000
v -3.000000 3.000000 -5.500000
v -3.500000 0.000000 -3.000000
v -3.500000 3.000000 -3.000000
v -5.500000 0.000000 -3.000000
v -5.500000 3.000000 -3.000000
v -3.500000 0.000000 -6.000000
v -3.500000 3.000000 -6.000000
v -5.500000 0.000000 -6.000000
v -5.500000 3.000000 -6.000000
v -3.250000 0.000000 -3.500000
v -3.250000 3.000000 -3.500000
v -3.250000 0.000000 -5.500000
v -3.250000 3.000000 -5.500000
v -5.750000 3.000000 -5.500000
v -5.750000 0.000000 -5.500000
v -5.750000 3.000000 -3.500000
v -5.750000 0.000000 -3.500000
v -3.500000 0.000000 -5.750000
v -3.500000 3.000000 -5.750000
v -5.500000 0.000000 -5.750000
v -5.500000 3.000000 -5.750000
v -5.500000 3.000000 -3.250000
v -5.500000 0.000000 -3.250000
v -3.500000 3.000000 -3.250000
v -3.500000 0.000000 -3.250000
v -6.000000 0.000000 6.000000
v -6.000000 3.000000 6.000000
v -6.000000 0.000000 3.000000
v -6.000000 3.000000 3.000000
v -3.000000 0.000000 6.000000
v -3.000000 3.000000 6.000000
v -3.000000 0.000000 3.000000
v -3.000000 3.000000 3.000000
v -6.000000 0.000000 5.500000
v -6.000000 3.000000 5.500000
v -6.000000 0.000000 3.500000
v -6.000000 3.000000 3.500000
v -3.000000 0.000000 5.500000
v -3.000000 3.000000 5.500000
v -3.000000 0.000000 3.500000
v -3.000000 3.000000 3.500000
v -3.500000 0.000000 6.000000
v -3.500000 3.000000 6.000000
v -5.500000 0.000000 6.000000
v -5.500000 3.000000 6.000000
v -3.500000 0.000000 3.000000
v -3.500000 3.000000 3.000000
v -5.500000 0.000000 3.000000
v -5.500000 3.000000 3.000000
v -3.250000 0.000000 5.500000
v -3.250000 3.000000 5.500000
v -3.250000 0.000000 3.500000
v -3.250000 3.000000 3.500000
v -5.750000 3.000000 3.500000
v -5.750000 0.000000 3.500000
v -5.750000 3.000000 5.500000
v -5.750000 0.000000 5.500000
v -3.500000 0.000000 3.250000
v -3.500000 3.000000 3.250000
v -5.500000 0.000000 3.250000
v -5.500000 3.000000 3.250000
v -5.500000 3.000000 5.750000
v -5.500000 0.000000 5.750000
v -3.500000 3.000000 5.750000
v -3.500000 0.000000 5.750000
v 3.000000 0.000000 6.000000
v 3.000000 3.000000 6.000000
v 3.000000 0.000000 3.000000
v 3.000000 3.000000 3.000000
v 6.000000 0.000000 6.000000
v 6.000000 3.000000 6.000000
v 6.000000 0.000000 3.000000
v 6.000000 3.000000 3.000000
v 3.000000 0.000000 5.500000
v 3.000000 3.000000 5.500000
v 3.000000 0.000000 3.500000
v 3.000000 3.000000 3.500000
v 6.000000 0.000000 5.500000
v 6.000000 3.000000 5.500000
v 6.000000 0.000000 3.500000
v 6.000000 3.000000 3.500000
v 5.500000 0.000000 6.000000
v 5.500000 3.000000 6.000000
v 3.500000 0.000000 6.000000
v 3.500000 3.000000 6.000000
v 5.500000 0.000000 3.000000
v 5.500000 3.000000 3.000000
v 3.500000 0.000000 3.000000
v 3.500000 3.000000 3.000000
v 5.750000 0.000000 5.500000
v 5.750000 3.000000 5.500000
v 5.750000 0.000000 3.500000
v 5.750000 3.000000 3.500000
v 3.250000 3.000000 3.500000
v 3.250000 0.000000 3.500000
v 3.250000 3.000000 5.500000
v 3.250000 0.000000 5.500000
v 5.500000 0.000000 3.250000
v 5.500000 3.000000 3.250000
v 3.500000 0.000000 3.250000
v 3.500000 3.000000 3.250000
v 3.500000 3.000000 5.750000
v 3.500000 0.000000 5.750000
v 5.500000 3.000000 5.750000
v 5.500000 0.000000 5.750000
vt 0.541667 1.000000
vt 0.458333 1.000000
vt 0.458333 0.500000
vt 0.375000 1.000000
vt 0.541667 0.500000
vt 0.375000 0.500000
vt 0.000000 1.000000
vt 0.000000 0.500000
vt 0.333333 0.500000
vt 0.333333 1.000000
vt 0.583333 0.500000
vt 0.583333 1.000000
vt 0.083333 0.458333
vt 0.041667 0.416667
vt 0.500000 0.500000
vt 0.416667 0.458333
vt 0.458333 0.416667
vt 0.500000 0.000000
vt 0.458333 0.083333
vt 0.416667 0.041667
vt 0.041667 0.083333
vt 0.000000 0.000000
vt 0.083333 0.041667
vt 0.000000 0.416667
vt 0.083333 0.500000
vt 0.500000 0.416667
vt 0.416667 0.500000
vt 0.416667 0.000000
vt 0.500000 0.083333
vt 0.083333 0.000000
vt 0.000000 0.083333
vn 1.000000 0.000000 0.000000
vn 0.000000 0.000000 1.000000
vn -1.000000 0.000000 0.000000
vn 0.000000 0.000000 -1.000000
vn 0.000000 -1.000000 0.000000
s off
f 14/1/1 6/2/1 5/3/1
f 5/3/2 6/2/2 18/4/2
f 19/5/2 20/1/2 2/2/2
f 10/4/3 9/6/3 1/3/3
f 26/7/1 25/8/1 27/9/1
f 29/7/3 30/8/3 32/9/3
f 34/7/4 33/8/4 35/9/4
f 37/7/2 38/8/2 40/9/2
f 16/4/2 28/10/2 27/9/2
f 33/11/3 34/12/3 22/1/3
f 24/4/1 36/10/1 35/9/1
f 31/10/4 32/9/4 9/6/4
f 30/11/2 29/12/2 12/1/2
f 38/11/1 37/12/1 20/1/1
f 39/10/3 40/9/3 17/6/3
f 25/11/4 26/12/4 14/1/4
f 8/2/1 16/4/1 15/6/1
f 21/5/4 22/1/4 8/2/4
f 4/2/4 24/4/4 23/6/4
f 11/5/3 12/1/3 4/2/3
f 30/13/5 3/8/5 35/14/5
f 1/15/5 32/16/5 38/17/5
f 5/18/5 40/19/5 25/20/5
f 33/21/5 7/22/5 27/23/5
f 30/13/5 35/14/5 27/23/5
f 54/1/1 46/2/1 45/3/1
f 45/3/2 46/2/2 58/4/2
f 59/5/2 60/1/2 42/2/2
f 50/4/3 49/6/3 41/3/3
f 66/7/1 65/8/1 67/9/1
f 69/7/3 70/8/3 72/9/3
f 74/7/4 73/8/4 75/9/4
f 77/7/2 78/8/2 80/9/2
f 56/4/2 68/10/2 67/9/2
f 73/11/3 74/12/3 62/1/3
f 64/4/1 76/10/1 75/9/1
f 71/10/4 72/9/4 49/6/4
f 70/11/2 69/12/2 52/1/2
f 78/11/1 77/12/1 60/1/1
f 79/10/3 80/9/3 57/6/3
f 65/11/4 66/12/4 54/1/4
f 48/2/1 56/4/1 55/6/1
f 61/5/4 62/1/4 48/2/4
f 44/2/4 64/4/4 63/6/4
f 51/5/3 52/1/3 44/2/3
f 70/13/5 43/8/5 75/14/5
f 41/15/5 72/16/5 78/17/5
f 45/18/5 80/19/5 65/20/5
f 73/21/5 47/22/5 67/23/5
f 70/13/5 75/14/5 67/23/5
f 94/1/1 86/2/1 85/3/1
f 85/3/2 86/2/2 98/4/2
f 99/5/2 100/1/2 82/2/2
f 90/4/3 89/6/3 81/3/3
f 106/7/1 105/8/1 107/9/1
f 109/7/3 110/8/3 112/9/3
f 114/7/4 113/8/4 115/9/4
f 117/7/2 118/8/2 120/9/2
f 96/4/2 108/10/2 107/9/2
f 113/11/3 114/12/3 102/1/3
f 104/4/1 116/10/1 115/9/1
f 111/10/4 112/9/4 89/6/4
f 110/11/2 109/12/2 92/1/2
f 118/11/1 117/12/1 100/1/1
f 119/10/3 120/9/3 97/6/3
f 105/11/4 106/12/4 94/1/4
f 88/2/1 96/4/1 95/6/1
f 101/5/4 102/1/4 88/2/4
f 84/2/4 104/4/4 103/6/4
f 91/5/3 92/1/3 84/2/3
f 110/13/5 83/8/5 115/14/5
f 81/15/5 112/16/5 118/17/5
f 85/18/5 120/19/5 105/20/5
f 113/21/5 87/22/5 107/23/5
f 110/13/5 115/14/5 107/23/5
f 134/1/1 126/2/1 125/3/1
f 125/3/2 126/2/2 138/4/2
f 139/5/2 140/1/2 122/2/2
f 130/4/3 129/6/3 121/3/3
f 146/7/1 145/8/1 147/9/1
f 149/7/3 150/8/3 152/9/3
f 154/7/4 153/8/4 155/9/4
f 157/7/2 158/8/2 160/9/2
f 136/4/2 148/10/2 147/9/2
f 153/11/3 154/12/3 142/1/3
f 144/4/1 156/10/1 155/9/1
f 151/10/4 152/9/4 129/6/4
f 150/11/2 149/12/2 132/1/2
f 158/11/1 157/12/1 140/1/1
f 159/10/3 160/9/3 137/6/3
f 145/11/4 146/12/4 134/1/4
f 128/2/1 136/4/1 135/6/1
f 141/5/4 142/1/4 128/2/4
f 124/2/4 144/4/4 143/6/4
f 131/5/3 132/1/3 124/2/3
f 150/13/5 123/8/5 155/14/5
f 121/15/5 152/16/5 158/17/5
f 125/18/5 160/19/5 145/20/5
f 153/21/5 127/22/5 147/23/5
f 150/13/5 155/14/5 147/23/5
f 13/5/1 14/1/1 5/3/1
f 17/6/2 5/3/2 18/4/2
f 1/3/2 19/5/2 2/2/2
f 2/2/3 10/4/3 1/3/3
f 28/10/1 26/7/1 27/9/1
f 31/10/3 29/7/3 32/9/3
f 36/10/4 34/7/4 35/9/4
f 39/10/2 37/7/2 40/9/2
f 15/6/2 16/4/2 27/9/2
f 21/5/3 33/11/3 22/1/3
f 23/6/1 24/4/1 35/9/1
f 10/4/4 31/10/4 9/6/4
f 11/5/2 30/11/2 12/1/2
f 19/5/1 38/11/1 20/1/1
f 18/4/3 39/10/3 17/6/3
f 13/5/4 25/11/4 14/1/4
f 7/3/1 8/2/1 15/6/1
f 7/3/4 21/5/4 8/2/4
f 3/3/4 4/2/4 23/6/4
f 3/3/3 11/5/3 4/2/3
f 23/24/5 35/14/5 3/8/5
f 30/13/5 11/25/5 3/8/5
f 38/17/5 19/26/5 1/15/5
f 1/15/5 9/27/5 32/16/5
f 25/20/5 13/28/5 5/18/5
f 5/18/5 17/29/5 40/19/5
f 15/30/5 27/23/5 7/22/5
f 33/21/5 21/31/5 7/22/5
f 27/23/5 25/20/5 32/16/5
f 40/19/5 38/17/5 32/16/5
f 32/16/5 30/13/5 27/23/5
f 35/14/5 33/21/5 27/23/5
f 25/20/5 40/19/5 32/16/5
f 53/5/1 54/1/1 45/3/1
f 57/6/2 45/3/2 58/4/2
f 41/3/2 59/5/2 42/2/2
f 42/2/3 50/4/3 41/3/3
f 68/10/1 66/7/1 67/9/1
f 71/10/3 69/7/3 72/9/3
f 76/10/4 74/7/4 75/9/4
f 79/10/2 77/7/2 80/9/2
f 55/6/2 56/4/2 67/9/2
f 61/5/3 73/11/3 62/1/3
f 63/6/1 64/4/1 75/9/1
f 50/4/4 71/10/4 49/6/4
f 51/5/2 70/11/2 52/1/2
f 59/5/1 78/11/1 60/1/1
f 58/4/3 79/10/3 57/6/3
f 53/5/4 65/11/4 54/1/4
f 47/3/1 48/2/1 55/6/1
f 47/3/4 61/5/4 48/2/4
f 43/3/4 44/2/4 63/6/4
f 43/3/3 51/5/3 44/2/3
f 63/24/5 75/14/5 43/8/5
f 70/13/5 51/25/5 43/8/5
f 78/17/5 59/26/5 41/15/5
f 41/15/5 49/27/5 72/16/5
f 65/20/5 53/28/5 45/18/5
f 45/18/5 57/29/5 80/19/5
f 55/30/5 67/23/5 47/22/5
f 73/21/5 61/31/5 47/22/5
f 67/23/5 65/20/5 72/16/5
f 80/19/5 78/17/5 72/16/5
f 72/16/5 70/13/5 67/23/5
f 75/14/5 73/21/5 67/23/5
f 65/20/5 80/19/5 72/16/5
f 93/5/1 94/1/1 85/3/1
f 97/6/2 85/3/2 98/4/2
f 81/3/2 99/5/2 82/2/2
f 82/2/3 90/4/3 81/3/3
f 108/10/1 106/7/1 107/9/1
f 111/10/3 109/7/3 112/9/3
f 116/10/4 114/7/4 115/9/4
f 119/10/2 117/7/2 120/9/2
f 95/6/2 96/4/2 107/9/2
f 101/5/3 113/11/3 102/1/3
f 103/6/1 104/4/1 115/9/1
f 90/4/4 111/10/4 89/6/4
f 91/5/2 110/11/2 92/1/2
f 99/5/1 118/11/1 100/1/1
f 98/4/3 119/10/3 97/6/3
f 93/5/4 105/11/4 94/1/4
f 87/3/1 88/2/1 95/6/1
f 87/3/4 101/5/4 88/2/4
f 83/3/4 84/2/4 103/6/4
f 83/3/3 91/5/3 84/2/3
f 103/24/5 115/14/5 83/8/5
f 110/13/5 91/25/5 83/8/5
f 118/17/5 99/26/5 81/15/5
f 81/15/5 89/27/5 112/16/5
f 105/20/5 93/28/5 85/18/5
f 85/18/5 97/29/5 120/19/5
f 95/30/5 107/23/5 87/22/5
f 113/21/5 101/31/5 87/22/5
f 107/23/5 105/20/5 112/16/5
f 120/19/5 118/17/5 112/16/5
f 112/16/5 110/13/5 107/23/5
f 115/14/5 113/21/5 107/23/5
f 105/20/5 120/19/5 112/16/5
f 133/5/1 134/1/1 125/3/1
f 137/6/2 125/3/2 138/4/2
f 121/3/2 139/5/2 122/2/2
f 122/2/3 130/4/3 121/3/3
f 148/10/1 146/7/1 147/9/1
f 151/10/3 149/7/3 152/9/3
f 156/10/4 154/7/4 155/9/4
f 159/10/2 157/7/2 160/9/2
f 135/6/2 136/4/2 147/9/2
f 141/5/3 153/11/3 142/1/3
f 143/6/1 144/4/1 155/9/1
f 130/4/4 151/10/4 129/6/4
f 131/5/2 150/11/2 132/1/2
f 139/5/1 158/11/1 140/1/1
f 138/4/3 159/10/3 137/6/3
f 133/5/4 145/11/4 134/1/4
f 127/3/1 128/2/1 135/6/1
f 127/3/4 141/5/4 128/2/4
f 123/3/4 124/2/4 143/6/4
f 123/3/3 131/5/3 124/2/3
f 143/24/5 155/14/5 123/8/5
f 150/13/5 131/25/5 123/8/5
f 158/17/5 139/26/5 121/15/5
f 121/15/5 129/27/5 152/16/5
f 145/20/5 133/28/5 125/18/5
f 125/18/5 137/29/5 160/19/5
f 135/30/5 147/23/5 127/22/5
f 153/21/5 141/31/5 127/22/5
f 147/23/5 145/20/5 152/16/5
f 160/19/5 158/17/5 152/16/5
f 152/16/5 150/13/5 147/23/5
f 155/14/5 153/21/5 147/23/5
f 145/20/5 160/19/5 152/16/5
