# Blender v2.76 (sub 0) OBJ File: 'beam.blend'
# www.blender.org
o Cube_Cube.001
v -0.062500 0.000000 0.062500
v -0.062500 1.000000 0.062500
v -0.062500 0.000000 -0.062500
v -0.062500 1.000000 -0.062500
v 0.062500 0.000000 0.062500
v 0.062500 1.000000 0.062500
v 0.062500 0.000000 -0.062500
v 0.062500 1.000000 -0.062500
vt 0.000035 0.999965
vt 0.000035 0.000035
vt 0.125027 0.000035
vt 0.250000 0.000000
vt 0.250000 0.125000
vt 0.125000 0.125000
vt 0.125027 0.999965
vn -1.000000 0.000000 0.000000
vn 0.000000 0.000000 -1.000000
vn 1.000000 0.000000 0.000000
vn 0.000000 0.000000 1.000000
vn 0.000000 -1.000000 0.000000
vn 0.000000 1.000000 0.000000
s off
f 4/1/1 3/2/1 1/3/1
f 8/1/2 7/2/2 3/3/2
f 6/1/3 5/2/3 7/3/3
f 2/1/4 1/2/4 5/3/4
f 3/4/5 7/5/5 5/6/5
f 8/4/6 4/5/6 2/6/6
f 2/7/1 4/1/1 1/3/1
f 4/7/2 8/1/2 3/3/2
f 8/7/3 6/1/3 7/3/3
f 6/7/4 2/1/4 5/3/4
f 1/3/5 3/4/5 5/6/5
f 6/3/6 8/4/6 2/6/6
