# Blender v2.79 (sub 0) OBJ File: 'pile_loader.blend'
# www.blender.org
o Lever
v -0.093750 0.468750 -0.312500
v -0.093750 0.468750 -0.375000
v -0.093750 0.531250 -0.375000
v -0.093750 0.531250 -0.312500
v -0.218750 0.531250 -0.375000
v -0.218750 0.468750 -0.375000
v -0.156250 0.531250 -0.312500
v -0.156250 0.468750 -0.312500
v -0.156250 0.468750 -0.250000
v -0.156250 0.531250 -0.250000
v -0.218750 0.468750 -0.250000
v -0.218750 0.531250 -0.250000
v -0.093750 0.562500 -0.406250
v -0.093750 0.437500 -0.406250
v -0.093750 0.562500 -0.281250
v -0.093750 0.437500 -0.281250
v 0.531250 0.562500 -0.281250
v 0.531250 0.562500 -0.406250
v 0.531250 0.437500 -0.406250
v 0.531250 0.437500 -0.281250
vt 0.979167 0.642857
vt 0.958333 0.666667
vt 0.958333 0.619048
vt 0.937500 0.666667
vt 0.937500 0.619048
vt 0.937500 0.571429
vt 0.916667 0.595238
vt 0.916667 0.571429
vt 0.958333 0.571429
vt 0.979167 0.595238
vt 1.000000 0.571429
vt 0.979167 0.571429
vt 0.916667 0.642857
vt 0.916667 0.666667
vt 1.000000 0.642857
vt 0.979167 0.666667
vt 0.958333 0.571429
vt 0.916667 0.333333
vt 0.958333 0.333333
vt 0.833333 0.333333
vt 0.875000 0.285714
vt 0.875000 0.333333
vt 0.875000 0.619048
vt 0.833333 0.571429
vt 0.875000 0.571429
vt 1.000000 0.571429
vt 1.000000 0.333333
vt 0.916667 0.571429
vt 1.000000 0.595238
vt 1.000000 0.666667
vt 0.833333 0.285714
vt 0.833333 0.619048
vn 0.0000 1.0000 0.0000
vn 0.0000 0.0000 -1.0000
vn 0.0000 -1.0000 0.0000
vn 1.0000 0.0000 0.0000
vn -1.0000 0.0000 0.0000
vn 0.0000 0.0000 1.0000
s off
f 7/1/1 3/2/1 5/3/1
f 5/3/2 2/4/2 6/5/2
f 11/6/3 8/7/3 9/8/3
f 12/9/1 7/10/1 5/3/1
f 9/11/4 7/10/4 10/12/4
f 12/9/5 6/5/5 11/6/5
f 8/13/3 2/4/3 1/14/3
f 8/15/6 4/16/6 7/1/6
f 16/17/3 19/18/3 20/19/3
f 17/20/4 19/21/4 18/22/4
f 14/23/5 15/24/5 13/25/5
f 15/26/6 20/19/6 17/27/6
f 13/25/1 17/20/1 18/22/1
f 13/25/2 19/18/2 14/28/2
f 7/1/1 4/16/1 3/2/1
f 5/3/2 3/2/2 2/4/2
f 11/6/3 6/5/3 8/7/3
f 12/9/1 10/12/1 7/10/1
f 9/11/4 8/29/4 7/10/4
f 12/9/5 5/3/5 6/5/5
f 8/13/3 6/5/3 2/4/3
f 8/15/6 1/30/6 4/16/6
f 16/17/3 14/28/3 19/18/3
f 17/20/4 20/31/4 19/21/4
f 14/23/5 16/32/5 15/24/5
f 15/26/6 16/17/6 20/19/6
f 13/25/1 15/24/1 17/20/1
f 13/25/2 18/22/2 19/18/2
o Slider
v 0.437500 0.437500 0.125000
v 0.437500 0.437500 -0.125000
v 0.312500 0.437500 0.125000
v 0.312500 0.437500 -0.125000
v 0.437500 0.687500 0.125000
v 0.437500 0.687500 -0.125000
v 0.312500 0.687500 0.125000
v 0.312500 0.687500 -0.125000
vt 0.625000 0.761905
vt 0.583333 0.857143
vt 0.583333 0.761905
vt 0.500000 0.761905
vt 0.500000 0.857143
vt 0.708333 0.857143
vt 0.708333 0.761905
vt 0.625000 0.857143
vn 0.0000 1.0000 0.0000
vn 1.0000 0.0000 0.0000
vn -1.0000 0.0000 0.0000
s off
f 28/33/7 25/34/7 26/35/7
f 22/36/8 25/34/8 21/37/8
f 23/38/9 28/33/9 24/39/9
f 28/33/7 27/40/7 25/34/7
f 22/36/8 26/35/8 25/34/8
f 23/38/9 27/40/9 28/33/9
o Loader
v -0.500000 0.875000 0.375000
v -0.500000 0.125000 0.375000
v -0.500000 0.875000 -0.375000
v -0.500000 0.125000 -0.375000
v -0.250000 0.875000 -0.375000
v -0.250000 0.875000 0.375000
v -0.250000 0.125000 0.375000
v -0.250000 0.125000 -0.375000
v -0.250000 0.687500 0.250000
v -0.250000 0.750000 0.187500
v -0.250000 0.250000 0.187500
v -0.250000 0.312500 0.250000
v -0.250000 0.750000 -0.187500
v -0.250000 0.687500 -0.250000
v -0.250000 0.312500 -0.250000
v -0.250000 0.250000 -0.187500
v 0.500000 0.687500 -0.250000
v 0.437500 0.750000 -0.125000
v 0.437500 0.750000 0.125000
v 0.500000 0.687500 0.250000
v 0.500000 0.312500 0.250000
v 0.500000 0.250000 0.187500
v 0.500000 0.250000 -0.187500
v 0.500000 0.312500 -0.250000
v 0.500000 0.750000 0.187500
v 0.500000 0.750000 -0.187500
v -0.187500 0.750000 0.125000
v -0.187500 0.750000 -0.125000
v -0.187500 0.437500 -0.125000
v -0.187500 0.437500 0.125000
v 0.437500 0.437500 0.125000
v 0.437500 0.437500 -0.125000
v 0.312500 0.500000 0.125000
v 0.312500 0.437500 0.062500
v 0.312500 0.437500 -0.062500
v 0.312500 0.500000 -0.125000
v 0.312500 0.687500 0.062500
v 0.312500 0.625000 0.125000
v 0.312500 0.625000 -0.125000
v 0.312500 0.687500 -0.062500
v -0.187500 0.625000 0.125000
v -0.187500 0.687500 0.062500
v -0.187500 0.687500 -0.062500
v -0.187500 0.625000 -0.125000
v -0.187500 0.437500 0.062500
v -0.187500 0.500000 0.125000
v -0.187500 0.500000 -0.125000
v -0.187500 0.437500 -0.062500
vt 0.750000 0.476190
vt 0.500000 0.761905
vt 0.500000 0.476190
vt 0.500000 0.095238
vt 0.750000 0.380952
vt 0.500000 0.380952
vt 0.750000 -0.000000
vt 0.500000 -0.000000
vt 0.833333 0.380952
vt 0.750000 0.095238
vt 0.833333 0.095238
vt 0.416667 0.095238
vt 0.416667 0.380952
vt 0.416667 0.642857
vt 0.166667 0.500000
vt 0.416667 0.500000
vt 0.416667 0.142857
vt 0.166667 0.000000
vt 0.416667 0.000000
vt 0.416667 0.309524
vt 0.166667 0.166667
vt 0.416667 0.166667
vt -0.000000 0.476190
vt 0.020833 0.309524
vt 0.166667 0.333333
vt 0.166667 0.666667
vt 0.416667 0.666667
vt 0.416667 0.476190
vt 0.166667 0.476190
vt 0.166667 0.309524
vt 0.187500 1.000000
vt 0.395833 0.880952
vt 0.395833 1.000000
vt 0.395833 0.452381
vt 0.187500 0.452381
vt 0.187500 0.357143
vt 0.416667 0.333333
vt 0.395833 0.357143
vt 0.187500 0.785714
vt 0.395833 0.785714
vt 0.500000 0.880952
vt 0.500000 0.785714
vt 0.083333 0.785714
vt 0.187500 0.880952
vt 0.083333 0.880952
vt 0.395833 0.666667
vt 0.187500 0.666667
vt 0.750000 0.761905
vt 0.166667 0.642857
vt 0.166667 0.142857
vt 0.145833 0.500000
vt 0.020833 0.500000
vt -0.000000 0.333333
vt 0.145833 0.309524
vt 0.833333 0.071429
vt 1.000000 0.119048
vt 0.833333 0.119048
vt 0.833333 0.214286
vt 1.000000 0.261905
vt 0.833333 0.261905
vt 0.833333 0.142857
vt 1.000000 0.190476
vt 0.833333 0.190476
vt 0.833333 -0.000000
vt 1.000000 0.047619
vt 0.833333 0.047619
vt 0.833333 0.285714
vt 1.000000 0.071429
vt 1.000000 0.142857
vt 1.000000 0.214286
vt 1.000000 -0.000000
vt 1.000000 0.285714
vn -1.0000 0.0000 0.0000
vn 1.0000 0.0000 0.0000
vn 0.0000 -1.0000 0.0000
vn 0.0000 1.0000 0.0000
vn 0.0000 0.0000 -1.0000
vn 0.0000 0.0000 1.0000
vn 0.0000 -0.7071 0.7071
vn 0.0000 0.7071 0.7071
vn 0.0000 -0.7071 -0.7071
vn 0.0000 0.7071 -0.7071
vn 0.0000 -0.3827 -0.9239
vn 0.0000 0.3827 -0.9239
vn 0.0000 0.3827 0.9239
vn 0.0000 -0.3827 0.9239
vn 0.0000 0.9239 -0.3827
vn 0.0000 0.9239 0.3827
vn 0.0000 -0.9239 0.3827
vn 0.0000 -0.9239 -0.3827
s off
f 31/41/10 30/42/10 29/43/10
f 35/44/11 33/45/11 34/46/11
f 32/47/12 35/44/12 30/48/12
f 29/43/13 33/45/13 31/41/13
f 31/49/14 36/50/14 32/51/14
f 30/52/15 34/46/15 29/53/15
f 40/54/15 48/55/15 37/56/15
f 44/57/12 50/58/12 39/59/12
f 42/60/14 52/61/14 43/62/14
f 50/63/11 52/64/11 54/65/11
f 50/66/16 40/54/16 39/67/16
f 38/68/17 48/55/17 53/69/17
f 52/61/18 44/57/18 43/62/18
f 42/60/19 54/65/19 45/70/19
f 47/71/14 58/72/14 55/73/14
f 55/74/13 53/69/13 47/75/13
f 46/76/13 41/77/13 56/78/13
f 56/78/13 38/68/13 55/74/13
f 47/75/13 54/65/13 46/76/13
f 58/72/13 60/79/13 57/80/13
f 55/81/11 57/80/11 56/82/11
f 46/83/10 59/84/10 47/85/10
f 56/86/15 60/79/15 46/87/15
f 31/41/10 32/88/10 30/42/10
f 35/44/11 36/50/11 33/45/11
f 32/47/12 36/50/12 35/44/12
f 29/43/13 34/46/13 33/45/13
f 31/49/14 33/45/14 36/50/14
f 30/52/15 35/44/15 34/46/15
f 40/54/15 49/89/15 48/55/15
f 44/57/12 51/90/12 50/58/12
f 42/60/14 45/70/14 52/61/14
f 54/65/11 53/69/11 48/91/11
f 48/91/11 49/92/11 50/63/11
f 50/63/11 51/93/11 52/64/11
f 52/64/11 45/94/11 54/65/11
f 54/65/11 48/91/11 50/63/11
f 50/66/16 49/89/16 40/54/16
f 38/68/17 37/56/17 48/55/17
f 52/61/18 51/90/18 44/57/18
f 42/60/19 41/77/19 54/65/19
f 47/71/14 59/84/14 58/72/14
f 55/74/13 38/68/13 53/69/13
f 46/76/13 54/65/13 41/77/13
f 56/78/13 41/77/13 38/68/13
f 47/75/13 53/69/13 54/65/13
f 58/72/13 59/84/13 60/79/13
f 55/81/11 58/72/11 57/80/11
f 46/83/10 60/79/10 59/84/10
f 56/86/15 57/80/15 60/79/15
s 1
f 64/95/20 72/96/21 67/97/21
f 66/98/22 74/99/23 61/100/23
f 68/101/24 70/102/25 65/103/25
f 62/104/26 76/105/27 63/106/27
f 74/99/23 62/107/26 61/100/23
f 64/95/20 76/105/27 75/108/20
f 68/101/24 72/96/21 71/109/24
f 66/98/22 70/102/25 69/110/22
f 64/95/20 75/108/20 72/96/21
f 66/98/22 69/110/22 74/99/23
f 68/101/24 71/109/24 70/102/25
f 62/104/26 73/111/26 76/105/27
f 74/99/23 73/112/26 62/107/26
f 64/95/20 63/106/27 76/105/27
f 68/101/24 67/97/21 72/96/21
f 66/98/22 65/103/25 70/102/25
