# Blender v2.79 (sub 0) OBJ File: 'pile_vent.blend'
# www.blender.org
o Fan
v 0.000000 0.812500 -0.031250
v -0.022097 0.812500 -0.022097
v -0.031250 0.812500 0.000000
v -0.022097 0.812500 0.022097
v 0.000000 0.812500 0.031250
v 0.022097 0.812500 0.022097
v 0.031250 0.812500 -0.000000
v 0.022097 0.812500 -0.022097
v -0.022097 0.875000 -0.022097
v -0.000000 0.875000 -0.031250
v -0.031250 0.875000 0.000000
v -0.022097 0.875000 0.022097
v -0.000000 0.875000 0.031250
v 0.022097 0.875000 0.022097
v 0.031250 0.875000 -0.000000
v 0.022097 0.875000 -0.022097
v -0.027063 0.859375 0.109375
v 0.027063 0.828125 0.109375
v -0.027063 0.859375 0.000000
v 0.027063 0.828125 0.000000
v -0.027063 0.828125 0.000000
v 0.027063 0.859375 0.000000
v -0.027063 0.828125 -0.109375
v 0.027063 0.859375 -0.109375
v 0.109375 0.859375 0.027063
v 0.109375 0.828125 -0.027063
v -0.000000 0.859375 0.027063
v -0.000000 0.828125 -0.027063
v -0.000000 0.828125 0.027063
v -0.000000 0.859375 -0.027063
v -0.109375 0.828125 0.027063
v -0.109375 0.859375 -0.027063
vt 0.048780 0.775000
vt 0.146341 0.825000
vt 0.048780 0.825000
vt 0.012195 0.775314
vt 0.020602 0.778883
vt 0.024084 0.787500
vt 0.146341 0.825000
vt 0.048780 0.775000
vt 0.146341 0.775000
vt 0.048780 0.775000
vt 0.146341 0.825000
vt 0.048780 0.825000
vt 0.146341 0.825000
vt 0.048780 0.775000
vt 0.146341 0.775000
vt 0.146341 0.775000
vt 0.020602 0.796117
vt 0.012195 0.799686
vt 0.003788 0.796117
vt 0.000306 0.787500
vt 0.003788 0.778883
vt 0.048780 0.825000
vt 0.146341 0.775000
vt 0.048780 0.825000
vt 0.146341 0.750000
vt 0.121951 0.775000
vt 0.121951 0.750000
vt 0.073171 0.750000
vt 0.097561 0.775000
vt 0.073171 0.775000
vt 0.024390 0.750000
vt 0.048780 0.775000
vt 0.024390 0.775000
vt 0.195122 0.750000
vt 0.170732 0.775000
vt 0.170732 0.750000
vt 0.097561 0.750000
vt 0.048780 0.750000
vt 0.000000 0.750000
vt 0.000000 0.775000
vt 0.146341 0.775000
vt 0.195122 0.775000
vn 0.5000 0.8660 0.0000
vn 0.0000 1.0000 0.0000
vn -0.5000 0.8660 0.0000
vn -0.0000 0.8660 -0.5000
vn 0.0000 0.8660 0.5000
vn 0.0000 -0.0000 -1.0000
vn 0.7071 0.0000 -0.7071
vn 0.7071 0.0000 0.7071
vn 1.0000 0.0000 0.0000
vn -0.7071 -0.0000 0.7071
vn -0.0000 0.0000 1.0000
vn -1.0000 -0.0000 0.0000
vn -0.7071 -0.0000 -0.7071
s off
f 18/1/1 19/2/1 17/3/1
f 15/4/2 16/5/2 10/6/2
f 22/7/3 23/8/3 21/9/3
f 26/10/4 27/11/4 25/12/4
f 30/13/5 31/14/5 29/15/5
f 18/1/1 20/16/1 19/2/1
f 10/6/2 9/17/2 11/18/2
f 11/18/2 12/19/2 10/6/2
f 12/19/2 13/20/2 10/6/2
f 13/20/2 14/21/2 10/6/2
f 14/21/2 15/4/2 10/6/2
f 22/7/3 24/22/3 23/8/3
f 26/10/4 28/23/4 27/11/4
f 30/13/5 32/24/5 31/14/5
s 1
f 1/25/6 16/26/7 8/27/7
f 6/28/8 15/29/9 14/30/8
f 4/31/10 13/32/11 12/33/10
f 3/34/12 9/35/13 2/36/13
f 8/27/7 15/29/9 7/37/9
f 5/38/11 14/30/8 13/32/11
f 3/39/12 12/33/10 11/40/12
f 2/36/13 10/41/6 1/25/6
f 1/25/6 10/41/6 16/26/7
f 6/28/8 7/37/9 15/29/9
f 4/31/10 5/38/11 13/32/11
f 3/34/12 11/42/12 9/35/13
f 8/27/7 16/26/7 15/29/9
f 5/38/11 6/28/8 14/30/8
f 3/39/12 4/31/10 12/33/10
f 2/36/13 9/35/13 10/41/6
o Pipe
v -0.500000 0.875000 0.375000
v -0.500000 0.125000 0.375000
v -0.500000 0.875000 -0.375000
v -0.500000 0.125000 -0.375000
v -0.375000 0.875000 -0.375000
v -0.375000 0.875000 0.375000
v -0.375000 0.125000 0.375000
v -0.375000 0.125000 -0.375000
v 0.500000 0.750000 0.250000
v 0.500000 0.250000 0.250000
v 0.500000 0.750000 -0.250000
v 0.500000 0.250000 -0.250000
v 0.375000 0.750000 -0.250000
v 0.375000 0.750000 0.250000
v 0.375000 0.250000 0.250000
v 0.375000 0.250000 -0.250000
v 0.375000 0.687500 0.187500
v 0.375000 0.312500 0.187500
v 0.375000 0.687500 -0.187500
v 0.375000 0.312500 -0.187500
v 0.125000 0.687500 -0.187500
v 0.125000 0.687500 0.187500
v 0.125000 0.312500 0.187500
v 0.125000 0.312500 -0.187500
v 0.125000 0.750000 0.250000
v 0.125000 0.250000 0.250000
v 0.125000 0.750000 -0.250000
v 0.125000 0.250000 -0.250000
v -0.125000 0.750000 -0.250000
v -0.125000 0.750000 0.250000
v -0.125000 0.250000 0.250000
v -0.125000 0.250000 -0.250000
v -0.125000 0.687500 0.187500
v -0.125000 0.312500 0.187500
v -0.125000 0.687500 -0.187500
v -0.125000 0.312500 -0.187500
v -0.375000 0.687500 -0.187500
v -0.375000 0.687500 0.187500
v -0.375000 0.312500 0.187500
v -0.375000 0.312500 -0.187500
v -0.187500 0.687500 0.187500
v 0.187500 0.687500 0.187500
v -0.187500 0.687500 -0.187500
v 0.187500 0.687500 -0.187500
v -0.125000 0.875000 -0.125000
v -0.125000 0.875000 0.125000
v 0.125000 0.875000 0.125000
v 0.125000 0.875000 -0.125000
v -0.187500 0.875000 -0.187500
v -0.187500 0.875000 0.187500
v 0.187500 0.875000 0.187500
v 0.187500 0.875000 -0.187500
v -0.125000 0.812500 -0.125000
v -0.125000 0.812500 0.125000
v 0.125000 0.812500 0.125000
v 0.125000 0.812500 -0.125000
vt 0.487805 0.600000
vt 0.512195 0.425000
vt 0.512195 0.575000
vt 0.951219 0.400000
vt 0.658537 0.700000
vt 0.658537 0.400000
vt 0.658537 0.050000
vt 0.951219 0.350000
vt 0.658537 0.350000
vt 1.000000 0.350000
vt 0.951219 0.050000
vt 1.000000 0.050000
vt 0.609756 0.050000
vt 0.609756 0.350000
vt 0.951219 -0.000000
vt 0.658537 0.000000
vt 0.000000 0.600000
vt 0.195122 0.400000
vt 0.195122 0.600000
vt 0.512195 0.775000
vt 0.512195 0.625000
vt 0.195122 -0.000000
vt 0.243902 0.200000
vt 0.195122 0.200000
vt 0.243902 0.600000
vt 0.243902 0.400000
vt 0.243902 0.800000
vt 0.195122 0.800000
vt 0.512195 0.175000
vt 0.487805 -0.000000
vt 0.512195 0.025000
vt 0.487805 0.400000
vt 0.512195 0.225000
vt 0.512195 0.375000
vt 0.365854 0.625000
vt 0.268293 0.775000
vt 0.268293 0.625000
vt 0.365854 0.025000
vt 0.268293 0.175000
vt 0.268293 0.025000
vt 0.365854 0.425000
vt 0.268293 0.575000
vt 0.268293 0.425000
vt 0.365854 0.225000
vt 0.268293 0.375000
vt 0.268293 0.225000
vt 0.390244 -0.000000
vt 0.487805 0.200000
vt 0.390244 0.200000
vt 0.390244 0.400000
vt 0.390244 0.600000
vt 0.487805 0.800000
vt 0.390244 0.800000
vt 0.609756 0.625000
vt 0.609756 0.025000
vt 0.609756 0.425000
vt 0.609756 0.225000
vt 0.024390 0.750000
vt 0.121951 0.725000
vt 0.121951 0.750000
vt 0.829268 0.700000
vt 0.682927 0.775000
vt 0.682927 0.700000
vt 0.682927 1.000000
vt 0.829268 0.925000
vt 0.829268 1.000000
vt 0.609756 0.775000
vt 0.682927 0.925000
vt 0.609756 0.925000
vt 0.902439 0.925000
vt 0.829268 0.775000
vt 0.902439 0.775000
vt 0.804878 0.800000
vt 0.804878 0.900000
vt 0.707317 0.900000
vt 0.707317 0.800000
vt 0.024390 0.725000
vt 0.121951 0.625000
vt 0.000000 0.625000
vt 0.000000 0.725000
vt 0.146341 0.725000
vt 0.146341 0.625000
vt 0.121951 0.600000
vt 0.024390 0.625000
vt 0.024390 0.600000
vt 0.365854 0.375000
vt 0.365854 0.575000
vt 0.365854 0.775000
vt 0.365854 0.175000
vt 0.951219 0.700000
vt -0.000000 0.400000
vt 0.243902 0.000000
vt 0.609756 0.775000
vt 0.609756 0.175000
vt 0.609756 0.575000
vt 0.609756 0.375000
vn -1.0000 0.0000 0.0000
vn 1.0000 0.0000 0.0000
vn 0.0000 0.0000 -1.0000
vn 0.0000 0.0000 1.0000
vn 0.0000 -1.0000 0.0000
vn 0.0000 1.0000 0.0000
s off
f 62/43/14 67/44/14 65/45/14
f 35/46/14 34/47/14 33/48/14
f 39/49/15 37/50/15 38/51/15
f 35/52/16 40/53/16 36/54/16
f 34/55/17 38/51/17 33/56/17
f 36/57/18 39/49/18 34/58/18
f 33/48/19 37/50/19 35/46/19
f 42/59/15 43/60/15 41/61/15
f 66/62/14 62/43/14 65/63/14
f 42/64/18 48/65/18 44/66/18
f 43/60/19 46/67/19 41/61/19
f 44/66/16 45/68/16 43/60/16
f 41/61/17 47/69/17 42/70/17
f 68/71/14 63/72/14 66/73/14
f 61/74/14 68/75/14 67/76/14
f 54/77/17 50/78/17 49/79/17
f 55/80/18 52/81/18 50/82/18
f 53/83/19 49/84/19 51/85/19
f 56/86/16 51/87/16 52/88/16
f 58/89/18 64/90/18 60/91/18
f 59/92/19 62/43/19 57/93/19
f 60/91/16 61/74/16 59/92/16
f 57/93/17 63/94/17 58/95/17
f 70/96/17 66/62/17 65/63/17
f 71/97/18 68/71/18 66/73/18
f 69/98/19 65/45/19 67/44/19
f 72/99/16 67/76/16 68/75/16
f 79/100/16 86/101/16 78/102/16
f 75/103/16 84/104/16 76/105/16
f 74/106/17 82/107/17 73/108/17
f 76/109/15 83/110/15 74/111/15
f 73/112/14 81/113/14 75/114/14
f 77/115/19 82/107/19 78/116/19
f 78/116/19 83/110/19 79/117/19
f 79/117/19 84/104/19 80/118/19
f 80/118/19 81/113/19 77/115/19
f 87/119/19 85/120/19 86/101/19
f 80/121/14 87/119/14 79/122/14
f 78/123/15 85/120/15 77/124/15
f 77/125/17 88/126/17 80/127/17
f 56/86/15 59/92/15 53/128/15
f 53/83/15 57/93/15 54/129/15
f 54/77/15 58/95/15 55/130/15
f 55/80/15 60/91/15 56/131/15
f 48/65/14 51/87/14 45/68/14
f 46/67/14 51/85/14 49/84/14
f 46/67/14 50/78/14 47/69/14
f 48/65/14 50/82/14 52/81/14
f 62/43/14 61/74/14 67/44/14
f 35/46/14 36/132/14 34/47/14
f 39/49/15 40/53/15 37/50/15
f 35/52/16 37/50/16 40/53/16
f 34/55/17 39/49/17 38/51/17
f 36/57/18 40/53/18 39/49/18
f 33/48/19 38/51/19 37/50/19
f 42/59/15 44/133/15 43/60/15
f 66/62/14 63/94/14 62/43/14
f 42/64/18 47/134/18 48/65/18
f 43/60/19 45/68/19 46/67/19
f 44/66/16 48/65/16 45/68/16
f 41/61/17 46/67/17 47/69/17
f 68/71/14 64/90/14 63/72/14
f 61/74/14 64/90/14 68/75/14
f 54/77/17 55/130/17 50/78/17
f 55/80/18 56/131/18 52/81/18
f 53/83/19 54/129/19 49/84/19
f 56/86/16 53/128/16 51/87/16
f 58/89/18 63/72/18 64/90/18
f 59/92/19 61/74/19 62/43/19
f 60/91/16 64/90/16 61/74/16
f 57/93/17 62/43/17 63/94/17
f 70/96/17 71/135/17 66/62/17
f 71/97/18 72/136/18 68/71/18
f 69/98/19 70/137/19 65/45/19
f 72/99/16 69/138/16 67/76/16
f 79/100/16 87/119/16 86/101/16
f 75/103/16 81/113/16 84/104/16
f 74/106/17 83/110/17 82/107/17
f 76/109/15 84/104/15 83/110/15
f 73/112/14 82/107/14 81/113/14
f 77/115/19 81/113/19 82/107/19
f 78/116/19 82/107/19 83/110/19
f 79/117/19 83/110/19 84/104/19
f 80/118/19 84/104/19 81/113/19
f 87/119/19 88/126/19 85/120/19
f 80/121/14 88/126/14 87/119/14
f 78/123/15 86/101/15 85/120/15
f 77/125/17 85/120/17 88/126/17
f 56/86/15 60/91/15 59/92/15
f 53/83/15 59/92/15 57/93/15
f 54/77/15 57/93/15 58/95/15
f 55/80/15 58/89/15 60/91/15
f 48/65/14 52/88/14 51/87/14
f 46/67/14 45/68/14 51/85/14
f 46/67/14 49/79/14 50/78/14
f 48/65/14 47/134/14 50/82/14
