# Blender v2.79 (sub 0) OBJ File: 'pile_control.blend'
# www.blender.org
o Rod
v 0.187500 0.750000 -0.250000
v 0.250000 0.750000 -0.187500
v -0.250000 0.750000 -0.187500
v -0.187500 0.750000 -0.250000
v -0.187500 0.750000 0.250000
v -0.250000 0.750000 0.187500
v 0.250000 0.750000 0.187500
v 0.187500 0.750000 0.250000
v 0.250000 1.000000 -0.187500
v 0.187500 1.000000 -0.250000
v -0.187500 1.000000 -0.250000
v -0.250000 1.000000 -0.187500
v -0.250000 1.000000 0.187500
v -0.187500 1.000000 0.250000
v 0.187500 1.000000 0.250000
v 0.250000 1.000000 0.187500
v 0.187500 0.750000 -0.125000
v 0.125000 0.750000 -0.187500
v -0.125000 0.750000 -0.187500
v -0.187500 0.750000 -0.125000
v -0.187500 0.750000 0.125000
v -0.125000 0.750000 0.187500
v 0.125000 0.750000 0.187500
v 0.187500 0.750000 0.125000
v 0.125000 0.000000 -0.187500
v 0.187500 0.000000 -0.125000
v -0.187500 0.000000 -0.125000
v -0.125000 0.000000 -0.187500
v -0.125000 0.000000 0.187500
v -0.187500 0.000000 0.125000
v 0.187500 0.000000 0.125000
v 0.125000 0.000000 0.187500
vt 0.618182 0.600000
vt 0.509091 0.700000
vt 0.509091 0.600000
vt 0.872727 0.600000
vt 0.763636 0.700000
vt 0.763636 0.600000
vt 0.490909 0.600000
vt 0.381818 0.700000
vt 0.381818 0.600000
vt 0.618182 0.700000
vt 0.636364 0.725000
vt 0.490909 0.875000
vt 0.490909 0.575000
vt 0.509091 0.400000
vt 0.745455 1.000000
vt 0.818182 0.700000
vt 0.818182 1.000000
vt 0.927273 1.000000
vt 1.000000 0.700000
vt 1.000000 1.000000
vt 0.654545 1.000000
vt 0.727273 0.700000
vt 0.727273 1.000000
vt 0.636364 0.700000
vt 0.636364 0.600000
vt 0.490909 0.700000
vt 0.363636 0.600000
vt 0.745455 0.600000
vt 0.745455 0.700000
vt 0.745455 0.700000
vt 0.636364 0.700000
vt 0.636364 1.000000
vt 0.909091 0.700000
vt 0.927273 0.700000
vt 0.836364 1.000000
vt 0.909091 1.000000
vt 0.872727 0.700000
vt 0.636364 0.875000
vt 0.618182 0.900000
vt 0.509091 0.900000
vt 0.490909 0.725000
vt 0.618182 0.400000
vt 0.636364 0.425000
vt 0.636364 0.575000
vt 0.490909 0.425000
vt 0.654545 0.700000
vt 0.363636 0.700000
vt 0.836364 0.700000
vn 1.0000 0.0000 0.0000
vn -1.0000 0.0000 -0.0000
vn -0.0000 0.0000 1.0000
vn 0.0000 1.0000 0.0000
vn 0.0000 -1.0000 0.0000
vn 0.7071 0.0000 -0.7071
vn 0.7071 0.0000 0.7071
vn -0.7071 0.0000 0.7071
vn -0.7071 0.0000 -0.7071
vn 0.0000 0.0000 -1.0000
s off
f 2/1/1 16/2/1 7/3/1
f 6/4/2 12/5/2 3/6/2
f 8/7/3 14/8/3 5/9/3
f 9/10/4 10/11/4 14/12/4
f 2/1/5 8/13/5 6/14/5
f 24/15/1 26/16/1 17/17/1
f 20/18/2 30/19/2 21/20/2
f 22/21/3 32/22/3 23/23/3
f 10/24/6 2/1/6 1/25/6
f 8/7/7 16/2/7 15/26/7
f 14/8/8 6/27/8 5/9/8
f 4/28/9 12/5/9 11/29/9
f 4/28/10 10/24/10 1/25/10
f 24/15/7 32/22/7 31/30/7
f 30/31/8 22/21/8 21/32/8
f 20/18/9 28/33/9 27/34/9
f 26/16/6 18/35/6 17/17/6
f 18/35/10 28/33/10 19/36/10
f 2/1/1 9/10/1 16/2/1
f 6/4/2 13/37/2 12/5/2
f 8/7/3 15/26/3 14/8/3
f 10/11/4 11/38/4 12/39/4
f 12/39/4 13/40/4 10/11/4
f 13/40/4 14/12/4 10/11/4
f 14/12/4 15/41/4 16/2/4
f 16/2/4 9/10/4 14/12/4
f 6/14/5 3/42/5 4/43/5
f 4/43/5 1/44/5 2/1/5
f 2/1/5 7/3/5 8/13/5
f 8/13/5 5/45/5 6/14/5
f 6/14/5 4/43/5 2/1/5
f 24/15/1 31/30/1 26/16/1
f 20/18/2 27/34/2 30/19/2
f 22/21/3 29/46/3 32/22/3
f 10/24/6 9/10/6 2/1/6
f 8/7/7 7/3/7 16/2/7
f 14/8/8 13/47/8 6/27/8
f 4/28/9 3/6/9 12/5/9
f 4/28/10 11/29/10 10/24/10
f 24/15/7 23/23/7 32/22/7
f 30/31/8 29/46/8 22/21/8
f 20/18/9 19/36/9 28/33/9
f 26/16/6 25/48/6 18/35/6
f 18/35/10 25/48/10 28/33/10
o Base
v -0.375000 0.000000 -0.375000
v -0.375000 0.000000 0.375000
v 0.375000 0.000000 -0.375000
v 0.375000 0.000000 0.375000
v -0.375000 0.250000 -0.375000
v -0.375000 0.250000 0.375000
v 0.375000 0.250000 -0.375000
v 0.375000 0.250000 0.375000
v 0.500000 0.375000 0.125000
v 0.500000 0.375000 -0.125000
v 0.500000 0.625000 -0.125000
v 0.500000 0.625000 0.125000
v 0.375000 0.625000 0.125000
v 0.375000 0.625000 -0.125000
v 0.375000 0.375000 0.125000
v 0.375000 0.375000 -0.125000
v -0.250000 0.250000 -0.187500
v -0.187500 0.250000 -0.250000
v -0.187500 0.250000 0.250000
v -0.250000 0.250000 0.187500
v 0.187500 0.250000 -0.250000
v 0.250000 0.250000 -0.187500
v 0.250000 0.250000 0.187500
v 0.187500 0.250000 0.250000
v 0.250000 0.750000 -0.187500
v 0.187500 0.750000 -0.250000
v -0.187500 0.750000 -0.250000
v -0.250000 0.750000 -0.187500
v -0.250000 0.750000 0.187500
v -0.187500 0.750000 0.250000
v 0.187500 0.750000 0.250000
v 0.250000 0.750000 0.187500
v 0.312500 0.687500 0.187500
v 0.312500 0.687500 -0.187500
v 0.312500 0.312500 0.187500
v 0.312500 0.312500 -0.187500
v 0.250000 0.687500 0.187500
v 0.250000 0.687500 -0.187500
v 0.250000 0.312500 0.187500
v 0.250000 0.312500 -0.187500
vt 0.290909 0.800000
vt 0.072727 0.500000
vt 0.290909 0.500000
vt 0.072727 0.400000
vt 0.290909 0.100000
vt 0.290909 0.400000
vt 0.290909 -0.000000
vt 0.072727 0.100000
vt 0.072727 -0.000000
vt 0.000000 0.100000
vt 0.000000 0.400000
vt 0.363636 0.400000
vt 0.363636 0.100000
vt 0.618182 0.000000
vt 0.509091 0.200000
vt 0.509091 -0.000000
vt 0.872727 0.000000
vt 0.763636 0.200000
vt 0.763636 0.000000
vt 0.618182 0.200000
vt 0.636364 0.225000
vt 0.490909 0.375000
vt 0.490909 -0.000000
vt 0.381818 0.200000
vt 0.381818 0.000000
vt 0.909091 0.325000
vt 0.927273 0.450000
vt 0.909091 0.425000
vt 0.363636 0.000000
vt 0.363636 0.200000
vt 0.745455 0.000000
vt 0.636364 0.200000
vt 0.636364 0.000000
vt 0.872727 0.325000
vt 0.800000 0.425000
vt 0.800000 0.325000
vt 0.909091 0.575000
vt 0.872727 0.475000
vt 0.909091 0.475000
vt 0.909091 0.125000
vt 0.872727 0.025000
vt 0.909091 0.025000
vt 0.909091 0.275000
vt 0.872727 0.175000
vt 0.909091 0.175000
vt 0.927273 0.600000
vt 0.927273 0.150000
vt 0.927273 0.300000
vt 0.945455 0.300000
vt 0.945455 0.450000
vt 0.945455 0.600000
vt 0.927273 -0.000000
vt 0.945455 0.150000
vt 0.072727 0.800000
vt 0.872727 0.200000
vt 0.636364 0.375000
vt 0.618182 0.400000
vt 0.509091 0.400000
vt 0.490909 0.225000
vt 0.490909 0.200000
vt 0.745455 0.200000
vt 0.872727 0.425000
vt 0.872727 0.575000
vt 0.872727 0.125000
vt 0.872727 0.275000
vt 0.945455 -0.000000
vn 0.0000 -1.0000 0.0000
vn 0.0000 1.0000 0.0000
vn 1.0000 0.0000 0.0000
vn -1.0000 0.0000 -0.0000
vn -0.0000 0.0000 1.0000
vn 0.0000 0.0000 -1.0000
vn 0.7071 0.7071 0.0000
vn 0.7071 0.0000 0.7071
vn -0.7071 0.0000 0.7071
vn -0.7071 0.0000 -0.7071
vn 0.7071 0.0000 -0.7071
vn 0.7071 -0.7071 0.0000
s off
f 35/49/11 34/50/11 33/51/11
f 38/52/12 39/53/12 37/54/12
f 35/55/13 40/56/13 36/57/13
f 34/50/14 37/54/14 33/51/14
f 36/58/15 38/52/15 34/59/15
f 33/60/16 39/53/16 35/61/16
f 54/62/13 64/63/13 55/64/13
f 52/65/14 60/66/14 49/67/14
f 57/68/12 58/69/12 62/70/12
f 56/71/15 62/72/15 51/73/15
f 46/74/17 65/75/17 45/76/17
f 64/63/18 56/71/18 55/64/18
f 52/77/19 62/72/19 61/78/19
f 60/66/20 50/79/20 49/67/20
f 54/62/21 58/80/21 57/68/21
f 50/79/16 58/80/16 53/81/16
f 43/82/13 41/83/13 42/84/13
f 45/76/12 43/82/12 46/74/12
f 47/85/15 44/86/15 45/87/15
f 48/88/11 41/89/11 47/90/11
f 46/91/16 42/92/16 48/93/16
f 45/87/18 67/94/18 47/85/18
f 47/90/22 68/95/22 48/88/22
f 46/91/21 68/95/21 66/96/21
f 68/95/16 70/97/16 66/96/16
f 66/96/12 69/98/12 65/75/12
f 65/75/15 71/99/15 67/94/15
f 67/100/11 72/101/11 68/95/11
f 35/49/11 36/102/11 34/50/11
f 38/52/12 40/56/12 39/53/12
f 35/55/13 39/53/13 40/56/13
f 34/50/14 38/52/14 37/54/14
f 36/58/15 40/56/15 38/52/15
f 33/60/16 37/54/16 39/53/16
f 54/62/13 57/68/13 64/63/13
f 52/65/14 61/103/14 60/66/14
f 58/69/12 59/104/12 60/105/12
f 60/105/12 61/106/12 58/69/12
f 61/106/12 62/70/12 58/69/12
f 62/70/12 63/107/12 64/63/12
f 64/63/12 57/68/12 62/70/12
f 56/71/15 63/108/15 62/72/15
f 46/74/17 66/96/17 65/75/17
f 64/63/18 63/108/18 56/71/18
f 52/77/19 51/73/19 62/72/19
f 60/66/20 59/109/20 50/79/20
f 54/62/21 53/81/21 58/80/21
f 50/79/16 59/109/16 58/80/16
f 43/82/13 44/110/13 41/83/13
f 45/76/12 44/110/12 43/82/12
f 47/85/15 41/111/15 44/86/15
f 48/88/11 42/112/11 41/89/11
f 46/91/16 43/113/16 42/92/16
f 45/87/18 65/75/18 67/94/18
f 47/90/22 67/100/22 68/95/22
f 46/91/21 48/93/21 68/95/21
f 68/95/16 72/101/16 70/97/16
f 66/96/12 70/97/12 69/98/12
f 65/75/15 69/98/15 71/99/15
f 67/100/11 71/114/11 72/101/11
